<?xml version="1.0" encoding="iso-8859-1"?>
<!DOCTYPE svg PUBLIC "-//W3C//DTD SVG 20000303 Stylable//EN"   "http://www.w3.org/TR/2000/03/WD-SVG-20000303/DTD/svg-20000303-stylable.dtd">
<!-- Generator: Adobe Illustrator 9.0, SVG Export Plug-In  -->
<svg  width="448.766pt" height="946.555pt" viewBox="0 0 448.766 946.555" xml:space="preserve">
	<g id="Numbers" style="fill-rule:nonzero;clip-rule:nonzero;fill:#FFFFFF;stroke:#000000;stroke-width:0.25;stroke-miterlimit:4; font-family:'ArialMT'; font-size:12;">
		<g style="stroke-miterlimit:1;">
			<text transform="matrix(1 0 0 1 232.8433 537.5742)"><tspan x="0" y="0" style="fill:#000000;stroke:none; font-size:72;">19</tspan></text>
			<g>
				<g>
					<path d="M77.771,194.598l-11.897,6.281l-27.861,0.882l-18.888,0.911l-13.966,3.281l6.694,97.178l7.345-3.56l11.414-23.206l30.606-4.395l-0.683,5.979l9.489,7.512l-1.31-21.1l4.236,1.564l2.61,5.479l6.519,0.387l-6.82,15.606l14.76-0.284l14.438-9.952
						l5.057-9.123l0.041-0.627l8.619-3.524l-5.804-6.756l-1.497-11.575l-12.12-1.913l12.12,1.102l2.959-8.695l-12.864-7.863l11.895,4.236l0.082-0.026l0.149,0.185l6.967-7.266l-2.903-33.853l-23.651,3.636l-12.211-1.187l-3.524,0.686z"/>
					<text transform="matrix(1 0 0 1 29.4189 232.6719)"><tspan x="0" y="0" style="fill:#000000;stroke:none;">19709</tspan></text>
				</g>
				<g>
					<path d="M104.372,501.216l-24.231,1.559L74,513.811l-15.1,2.892l-32.276,5.751l1.62,28.066l10.992-2.531l15.724,7.263l37.644,5.309l7.242,7.213l8.139-4.465l-4.471-12.387l1.494-7.945l24.161,4.031l1.128-4.611l-11.039-7.213l-7.828-9.958l3.891-7.646
						l-3.885-2.572l-7.063-13.79z"/>
					<text transform="matrix(1 0 0 1 59.105 541.1191)"><tspan x="0" y="0" style="fill:#000000;stroke:none;">19979</tspan></text>
				</g>
				<g>
					<path d="M169.596,352.713l-0.996-0.035l-3.967-13.825l0.237,9.981l-2.643-9.533l-8.329,3.812l9.047-5.115l-6.434-2.499l10.321-0.463l-0.155-5.807l-9.671-6.949l-13.664,10.225l-7.884-2.76l-4.98,10.025l-15.709,3.791l-0.853,7.939l-13.966,2.707L88.52,335.396
						l-5.739-2.191l-6.519,4.383l5.736,18.146l5.045,1.819l6.97,3.451l-4.614,6.246l5.508,3.067l-4.834,6.258l3.779,12.879l6.029,7.204l13.365-9.346l1.33,5.66l-4.676,5.947l3.738,5.004l0.152,0.785l32.297-5.109l9.545,6.721l24.199-6.132l12.943,5.751l11.115-2.042
						l5.818,7.6l3.416-7.872l4.682-0.264l0.841-5.845l-7.661-12.401l-10.661-16.178l-4.711,0.557l4.556-1.175l-1.383-10.002l-11.745-10.228l-15.299-6.624l5.628,7.603l-4.699-1.875l-0.501,3.876l1.233,1.787l-3.164-0.12l1.849-3.258l-3.387,0.53l0.894,2.704z"/>
					<text transform="matrix(1 0 0 1 129.0986 373.8481)"><tspan x="0" y="0" style="fill:#000000;stroke:none;">19977</tspan></text>
				</g>
				<g>
					<path d="M411.811,927.834l-14.771-9.724l-0.592,3.627l-7.512-1.843l-6.486,5.001l-16.775-12.674l-26.953,4.497l-5.789,4.96l-19.717-4.269l-14.666,9.524l4.4,8.3l7.649,2.341l-6.782,6.39l106.04,0.067l2.212-9.85l-0.258-6.349z"/>
					<text transform="matrix(1 0 0 1 339.9517 935.4185)"><tspan x="0" y="0" style="fill:#000000;stroke:none;">19975</tspan></text>
				</g>
				<g>
					<path d="M42.934,771.09l6.48,99.19l5.974,2.429l10.087-9.75l2.414-11.505l9.029-11.61l15.012,5.807l13.649-1.184l49.28-4.031l17.549-11.382l30.68-21.501l-24.369-1.345l-26.016-9.22l21.864-17.007l-28.854-12.164l-14.845,1.43l-18.551-10.526l0.853,16.274
						l-7.207,3.135l-25.184-15.633l-26.039,9.598l-11.807-1.005z"/>
					<text transform="matrix(1 0 0 1 86.6563 811.6733)"><tspan x="0" y="0" style="fill:#000000;stroke:none;">19973</tspan></text>
				</g>
				<g>
					<path d="M320.674,747.23l9.732,12.144l-9.401,40.119l3.911,9.035l12.032,9.896l4.673-24.41l7.872,9.117l12.325,2.396l4.588,7.245l7.617,2.3l4.207-0.272v-9.272h10.646l7.916,3.129l0.48,9.844l7.878,0.164l1.456,5.399l-3.009,0.776l4.79,3.366l0.193-0.015
						l-0.064,0.126l-11.725,0.032v9.369l14.35-0.519l-1.195-35.856l-13.585-92.64l-4.031-4.342l-0.296,10.125l-19.471,3.797l4.002,0.979l-15.53,23.218l4.011,5.953l-13.011,13.172l-12.214-9.905l5.505-6.967l-4.775-5.177l-19.878,7.673z"/>
					<text transform="matrix(1 0 0 1 353.2178 776.668)"><tspan x="0" y="0" style="fill:#000000;stroke:none;">19971</tspan></text>
				</g>
				<g>
					<path d="M350.448,852.066l-3.75,9.853l-12.322,0.155l-1.04,3.252l4.09-0.015l-5.681,6.899l3.7,10.45l15.58,4.444l29.021-3.533l2.625,3.987l-3.791,13.055l18.19,10.456l14.089-2.81l-26.165-61.485H360.38l-3.302,9.844l-6.63-4.553z"/>
					<text transform="matrix(1 0 0 1 352.7607 877.8813)"><tspan x="0" y="0" style="fill:#000000;stroke:none;">19970</tspan></text>
				</g>
				<g>
					<path d="M280.273,689.023l-27.949,9.858l4.271,42.744l-12.51,2.716l-5.941,31.116l29.379-10.6l10.28-26.098l19.972,17.288l21.313,6.401l11.317-3.076l-9.732-12.144l-5.449-7.184l-7.333-3.586l3.65-15.053l-7.301-8.253l0.964-5.077l12.1-7.951l13.863,5.121
						l7.896-3.114l-20.938-22.919l-10.588,1.611l-4.031-3.926l-7.444,10.477l-15.788,1.646z"/>
					<text transform="matrix(1 0 0 1 271.915 728.8027)"><tspan x="0" y="0" style="fill:#000000;stroke:none;">19968</tspan></text>
				</g>
				<g>
					<path d="M272.472,786.752l6.829,34.307l-40.893-13.975l17.127,21.683l-7.679,2.792l-44.769-24.006l-30.68,21.501l40.77,18.478l10.875-3.375l12.732,29.736l9.27,5.625l-1.922,5.411l0.601,9.12l29.001-4.535l2.713-9.873l12.94-7.688l16.761-23.622l44.3,3.735
						l6.63,4.553l3.302-9.844h24.615v-8.174l11.798,3.636v-4.518v-9.369l11.725-0.032l0.064-0.126l-0.193,0.015l-4.79-3.366l3.009-0.776l-1.456-5.399l-7.878-0.164l-0.48-9.844l-7.916-3.129H378.23v9.272l-4.207,0.272l-7.617-2.3l-4.588-7.245l-12.325-2.396
						l-7.872-9.117l-4.673,24.41l-12.032-9.896l-3.911-9.035l-11.839-9.308l-27.527,0.524l-9.167-3.958z"/>
					<text transform="matrix(1 0 0 1 282.8047 836.0254)"><tspan x="0" y="0" style="fill:#000000;stroke:none;">19966</tspan></text>
				</g>
				<g>
					<path d="M24.008,484.877l2.616,37.576l32.276-5.751l-10.025-19.336l-21.023-15.442l-3.844,2.953z"/>
					<text transform="matrix(1 0 0 1 27.7637 509.147)"><tspan x="0" y="0" style="fill:#000000;stroke:none;">19964</tspan></text>
				</g>
				<g>
					<path d="M167.829,592.991l10.187,8.985l-4.356,8.285l7.734,6.586l-1.972,14.438l6.996,1.055l-8.637,13.919l9.697,3.694l46.699-1.216l32.936,22.503l6.902,0.41l0.899,13.339l5.358,4.034l15.788-1.646l7.444-10.477l4.031,3.926l10.588-1.611l-49.928-60.633
						l1.623-9.352l5.719,2.836l-7.09-7.901l1.523-0.193l0.311-12.149l-16.916-35.438l-31.04-25.406l1.705,8.297l-7.503-0.208l2.924,4.14l-6.51,11.224l-25.02,12.519l0.521,6.475l-5.268-3.823l0.744,5.388l-5.271-0.012l-0.398,6.981l-10.424,11.033z"/>
					<text transform="matrix(1 0 0 1 210.9551 611.9595)"><tspan x="0" y="0" style="fill:#000000;stroke:none;">19963</tspan></text>
				</g>
				<g>
					<path d="M182.99,511.367l-24.413,19.008l-8.842-2.443l-6.483-7.986l-15.527,1.538l2.648-13.485l-18.938,7.008l3.885,2.572l-3.891,7.646l7.828,9.958l11.039,7.213l-1.128,4.611l4.907-1.623l12.902,18.439l10.784-9.205l-2.651-3.738l9.023,0.721l10.066,0.612
						l-1.321-4.682l4.494-0.601l8.722,6.521l1.459-40.834l-4.564-1.251z"/>
					<text transform="matrix(1 0 0 1 137.6133 542.6348)"><tspan x="0" y="0" style="fill:#000000;stroke:none;">19962</tspan></text>
				</g>
				<g>
					<path d="M185.105,686.015l2.865,11.962l5.235,4.406l59.118-3.501l27.949-9.858l-5.358-4.034l-0.899-13.339l-6.902-0.41l-32.936-22.503l-46.699,1.216l-5.566,16.948l5.139,14.47l-1.945,4.644z"/>
					<text transform="matrix(1 0 0 1 209.4053 680.853)"><tspan x="0" y="0" style="fill:#000000;stroke:none;">19960</tspan></text>
				</g>
				<g>
					<path d="M339.063,702.134l-7.896,3.114l-13.863-5.121l-12.1,7.951l-0.964,5.077l7.301,8.253l-3.65,15.053l7.333,3.586l9.981-11.206l15.346,10.717l4.775,5.177l-5.505,6.967l12.214,9.905l13.011-13.172l-4.011-5.953l15.53-23.218l-4.002-0.979l-33.501-16.151z"
						/>
					<text transform="matrix(1 0 0 1 321.4619 721.4902)"><tspan x="0" y="0" style="fill:#000000;stroke:none;">19958</tspan></text>
				</g>
				<g>
					<path d="M105.579,844.467l-8.133,14.622l7.57,14.455l-30.653-11.186l-7.945,4.594l-0.943-3.993l-10.087,9.75l-5.974-2.429l1.529,25.646l32.792,3.246l27.882-13.989l1.758,9.797l5.37,1.198l5.35-3.519l0.097-5.774l27.633,8.54l23.18-4.661l6.346,6.278
						l17.918,2.388l6.205-6.375l10.084,1.225l28.576-9.352l1.922-5.411l-9.27-5.625l-12.732-29.736l-10.875,3.375l-40.77-18.478l-17.549,11.382l-49.28,4.031z"/>
					<text transform="matrix(1 0 0 1 131.0439 866.8672)"><tspan x="0" y="0" style="fill:#000000;stroke:none;">19956</tspan></text>
				</g>
				<g>
					<path d="M163.314,585.433l-21.952,15.665l-2.563,34.433l15.797,23.771l-1.254,14.558l22.441,15.246l9.322-3.091l1.945-4.644l-5.139-14.47l5.566-16.948l-9.697-3.694l8.637-13.919l-6.996-1.055l1.972-14.438l-7.734-6.586l4.356-8.285l-10.187-8.985l-4.515-7.559
						z"/>
					<text transform="matrix(1 0 0 1 146.4482 639.8926)"><tspan x="0" y="0" style="fill:#000000;stroke:none;">19954</tspan></text>
				</g>
				<g>
					<path d="M21.787,452.847l2.221,32.03l3.844-2.953l21.023,15.442L58.9,516.702l15.1-2.892l6.141-11.036l24.231-1.559l6.179-7.198l-6.574-13.734l-17.25,7.729l-12.609-7.676l-2.818-10.16l-6.334,1.916l-4.506-4.77l0.094-8.924l-4.846-2.309l4.582-10.38
						l-12.188-6.281l-26.314,13.418z"/>
					<text transform="matrix(1 0 0 1 24.6963 474.6348)"><tspan x="0" y="0" style="fill:#000000;stroke:none;">19953</tspan></text>
				</g>
				<g>
					<path d="M31.578,599.63l5.854,86.754l79.479-3.149l-1.403,5.136l8.549,0.873l7.014,16.939l52.107-3.979l10.028,0.179l-5.235-4.406l-2.865-11.962l-9.322,3.091l-22.441-15.246l1.254-14.558l-15.797-23.771l2.563-34.433l-34.497,2.294l-15.281,7.934
						l-38.065-14.021l-1.567-6.914l-20.373,9.24z"/>
					<text transform="matrix(1 0 0 1 62.9463 638.8848)"><tspan x="0" y="0" style="fill:#000000;stroke:none;">19952</tspan></text>
				</g>
				<g>
					<path d="M267.523,764.858l4.948,21.894l9.167,3.958l27.527-0.524l11.839,9.308l9.401-40.119l-11.317,3.076l-21.313-6.401l-19.972-17.288l-10.28,26.098z"/>
					<text transform="matrix(1 0 0 1 281.2744 776.085)"><tspan x="0" y="0" style="fill:#000000;stroke:none;">19951</tspan></text>
				</g>
				<g>
					<path d="M37.432,686.384l2.854,43.635l14.666-18.451l13.693,8.32L82.203,716l19.137,10.679l8.798-0.735l4.245,10.157l11.771,3.231l7.852,0.302l3.416-8.408l10.09-2.458l17.203,6.252l18.463-32.815l-52.107,3.979l-7.014-16.939l-8.549-0.873l1.403-5.136
						l-79.479,3.149z"/>
					<text transform="matrix(1 0 0 1 93.6172 714.0576)"><tspan x="0" y="0" style="fill:#000000;stroke:none;">19950</tspan></text>
				</g>
				<g>
					<path d="M163.355,737.12l-17.643,30.697l28.854,12.164l-21.864,17.007l26.016,9.22l24.369,1.345l44.769,24.006l7.679-2.792l-17.127-21.683l40.893,13.975l-6.829-34.307l-4.948-21.894l-29.379,10.6l5.941-31.116l1.559-3.844l-8.701-2.273l-19.559,1.752
						l-10.758,8.139l-43.271-10.995z"/>
					<text transform="matrix(1 0 0 1 195.8193 786.9629)"><tspan x="0" y="0" style="fill:#000000;stroke:none;">19947</tspan></text>
				</g>
				<g>
					<path d="M187.555,512.618l-1.459,40.834l-8.722-6.521l-4.494,0.601l1.321,4.682l-10.066-0.612l-9.023-0.721l2.651,3.738l-10.784,9.205l16.336,21.609l4.515,7.559l10.424-11.033l0.398-6.981l5.271,0.012l-0.744-5.388l5.268,3.823l-0.521-6.475l25.02-12.519
						l6.51-11.224l-2.924-4.14l7.503,0.208l-1.705-8.297l-4.151-5.572l-30.621-12.788z"/>
					<text transform="matrix(1 0 0 1 187.1133 548.3848)"><tspan x="0" y="0" style="fill:#000000;stroke:none;">19946</tspan></text>
				</g>
				<g>
					<path d="M273.734,889.514l-29.001,4.535l-0.601-9.12l-28.576,9.352l13.664,28.33l-5.25,20.862l79.846,0.492l6.782-6.39l-7.649-2.341l-4.4-8.3l14.666-9.524l19.717,4.269l5.789-4.96l26.953-4.497l16.775,12.674l6.486-5.001l7.512,1.843l0.592-3.627l14.771,9.724
						l-0.65-19.573l-14.089,2.81l-18.19-10.456l3.791-13.055l-2.625-3.987l-29.021,3.533l-15.58-4.444l-8.971-2.563l-9.313,9.964l-6.454,2.279l-1.617-3.469l-1.951,4.09l-4.758-8.314l-28.646,4.866z"/>
					<text transform="matrix(1 0 0 1 292.3296 911.3228)"><tspan x="0" y="0" style="fill:#000000;stroke:none;">19945</tspan></text>
				</g>
				<g>
					<path d="M412.068,934.183l-2.212,9.85l9.486,0.021l0.103-11.042l-7.377,1.172z"/>
					<text transform="matrix(1 0 0 1 415.3965 942.6582)"><tspan x="0" y="0" style="fill:#000000;stroke:none;">19944</tspan></text>
				</g>
				<g>
					<path d="M129.169,547.007l-24.161-4.031l-1.494,7.945l4.471,12.387l-8.139,4.465l-7.242-7.213l-37.644-5.309l-15.724-7.263l-10.992,2.531l3.334,49.11l20.373-9.24l1.567,6.914l38.065,14.021l15.281-7.934l34.497-2.294l21.952-15.665l-16.336-21.609
						l-12.902-18.439l-4.907,1.623z"/>
					<text transform="matrix(1 0 0 1 78.7554 584.4419)"><tspan x="0" y="0" style="fill:#000000;stroke:none;">19943</tspan></text>
				</g>
				<g>
					<path d="M107.768,672.948l11.625-4.43l1.342-7.09l4.436-0.469l0.894-13.822l-20.054,4.128l3.176,12.158l-8.93,3.211l7.512,6.313z"/>
					<text transform="matrix(1 0 0 1 96.4678 662.668)"><tspan x="0" y="0" style="fill:#000000;stroke:none;">19942</tspan></text>
				</g>
				<g>
					<path d="M193.206,702.383l-10.028-0.179l-18.463,32.815l-1.359,2.101l43.271,10.995l10.758-8.139l19.559-1.752l8.701,2.273l-1.559,3.844l12.51-2.716l-4.271-42.744l-59.118,3.501z"/>
					<text transform="matrix(1 0 0 1 193.2881 726.125)"><tspan x="0" y="0" style="fill:#000000;stroke:none;">19941</tspan></text>
				</g>
				<g>
					<path d="M50.943,895.927l2.982,42.097l170.045,5.449l5.25-20.862l-13.664-28.33l-10.084-1.225l-6.205,6.375l-17.918-2.388l-6.346-6.278l-23.18,4.661l-27.633-8.54l-0.097,5.774l-5.35,3.519l-5.37-1.198l-1.758-9.797l-27.882,13.989l-32.792-3.246z"/>
					<text transform="matrix(1 0 0 1 123.3945 916.9531)"><tspan x="0" y="0" style="fill:#000000;stroke:none;">19940</tspan></text>
				</g>
				<g>
					<path d="M350.448,852.066l-44.3-3.735l-16.761,23.622l-12.94,7.688l-2.713,9.873l28.646-4.866l4.758,8.314l1.951-4.09l1.617,3.469l6.454-2.279l9.313-9.964l8.971,2.563l-3.7-10.45l5.681-6.899l-4.09,0.015l1.04-3.252l12.322-0.155l3.75-9.853z"/>
					<text transform="matrix(1 0 0 1 295.4023 873.2715)"><tspan x="0" y="0" style="fill:#000000;stroke:none;">19939</tspan></text>
				</g>
				<g>
					<path d="M87.043,357.553l1.122,4.201l-5.139,2.578l-31.538-3.592l-28.424,4.069l-0.782,3.639l-6.032,0.501l5.537,83.897l26.314-13.418l12.188,6.281l5.736,3.032l3.299-10.102l1.154-4.77l15.727-4.617l5.883-9.785l22.67-6.413l-0.489-7.239l-0.478-1.107
						l-0.152-0.785l-3.738-5.004l4.676-5.947l-1.33-5.66l-13.365,9.346l-6.029-7.204l-3.779-12.879l4.834-6.258l-5.508-3.067l4.614-6.246l-6.97-3.451z"/>
					<text transform="matrix(1 0 0 1 48.8135 407.8232)"><tspan x="0" y="0" style="fill:#000000;stroke:none;">19938</tspan></text>
				</g>
				<g>
					<path d="M60.289,445.71l-4.582,10.38l4.846,2.309l-0.094,8.924l4.506,4.77l6.334-1.916l2.818,10.16l12.609,7.676l17.25-7.729l6.574,13.734l-6.179,7.198l7.063,13.79l18.938-7.008l14.654-20.804l-10.91,1.169l-0.053-3.589l-1.559-9.167l-0.721-8.613
						l-11.947-8.549l-5.124-11.15L96.4,449.261l-27.076-10.62l-3.299,10.102l-5.736-3.032z"/>
					<text transform="matrix(1 0 0 1 75.6963 471.6348)"><tspan x="0" y="0" style="fill:#000000;stroke:none;">19934</tspan></text>
				</g>
				<g>
					<path d="M164.715,735.02l-17.203-6.252l-10.09,2.458l-3.416,8.408l-7.852-0.302l-11.771-3.231l-4.245-10.157l-8.798,0.735L82.203,716l-13.559,3.888l-13.693-8.32l-14.666,18.451l2.648,41.071l11.807,1.005l26.039-9.598l25.184,15.633l7.207-3.135l-0.853-16.274
						l18.551,10.526l14.845-1.43l17.643-30.697l1.359-2.101z"/>
					<text transform="matrix(1 0 0 1 80.1431 748.8066)"><tspan x="0" y="0" style="fill:#000000;stroke:none;">19933</tspan></text>
				</g>
				<g>
					<path d="M65.475,862.959l0.943,3.993l7.945-4.594l30.653,11.186l-7.57-14.455l8.133-14.622L91.93,845.65l-15.012-5.807l-9.029,11.61l-2.414,11.505z"/>
					<text transform="matrix(1 0 0 1 68.8379 859.3203)"><tspan x="0" y="0" style="fill:#000000;stroke:none;">19931</tspan></text>
				</g>
				<g>
					<path d="M396.793,837.72v4.518l-11.798-3.636v8.174l26.165,61.485l0.65,19.573l0.258,6.349l7.377-1.172l-8.303-95.81l-14.35,0.519z"/>
					<text transform="matrix(1 0 0 1 396.2158 862.8154)"><tspan x="0" y="0" style="fill:#000000;stroke:none;">19930</tspan></text>
				</g>
				<g>
					<path d="M114.269,405.816l6.012,12.817l-16.708,9.563l5.44,10.989l17.76-8.968l20.341,17.766l1.749,24.984l3.659,1.245l-7.494,12.981l-14.654,20.804l-2.648,13.485l15.527-1.538l6.483,7.986l8.842,2.443l24.413-19.008l0.809-5.701l-9.697-8.587l0.205-8.666
						l-4.84-2.839l-1.383-3.732l3.097-0.624l-2.37-2.845l11.396-0.308l2.555-8.695l4.125,0.205l0.703,8.836l7.43,4.233l-7.465,29.974l30.621,12.788l2.024-21.457l-6.765-37.342l10.934-33.899l-6.466-15.026l1.037-10.368l-5.815-3.688l-3.416,7.872l-5.818-7.6
						l-11.115,2.042l-12.943-5.751l-24.199,6.132l-9.545-6.721l-32.297,5.109l0.478,1.107z"/>
					<text transform="matrix(1 0 0 1 160.2803 448.9458)"><tspan x="0" y="0" style="fill:#000000;stroke:none;">19901</tspan></text>
				</g>
				<g>
					<path d="M141.327,0.491l-5.78,20.001l15.193-2.177l7.219,5.03l5.045,3.445l6.161,4.383l1.421-2.517l13.758-14.438l4.658-1.904L141.327,0.491z"/>
					<text transform="matrix(1 0 0 1 143.9463 14.1348)"><tspan x="0" y="0" style="fill:#000000;stroke:none;">19810</tspan></text>
				</g>
				<g>
					<path d="M169.165,31.174l-15.021,10.611l0.293,9.791l2.807,2.01l3.984,5.344l6.237-0.407l12.021-19.661l-1.418-6.668l-7.482-3.536l-1.421,2.517z"/>
					<text transform="matrix(1 0 0 1 158.8096 47.7532)"><tspan x="0" y="0" style="fill:#000000;stroke:none;">19809</tspan></text>
				</g>
				<g>
					<path d="M70.039,46.78l-5.555,2.484l-2.256,6.574l-13.913,0.686l3.173,7.652l-6.785,3.932l6.914,10.608l1.157,6.747l7.898,2.739l0.724,4.184l11.054-6.009l1.696-1.661l22.055-10.954l-3.908-21.565l-15.539-2.042l-3.952-5.906l1.734,4.582l-4.497-2.051z"/>
					<text transform="matrix(1 0 0 1 53.7646 70.9443)"><tspan x="0" y="0" style="fill:#000000;stroke:none;">19808</tspan></text>
				</g>
				<g>
					<path d="M115.388,0.623L65.855,14.8l5.566,9.97l9.791,13.283l-8.411,6.196l3.952,5.906l15.539,2.042l0.847,0.135l2.461,0.229l5.848,5.282l3.718-2.979l8.098,3.932l1.875-8.098l3.062,0.612l2.212-3.671l3.454-8.71l-5.722-6.668l2.607-3.536l-6.861,4.559
						l-0.882-6.035l-0.935-0.381l-0.398-0.27l-0.258-0.334l-0.158-0.437l-0.018-0.615l0.545-1.107l0.539-1.324l0.639-1.336l-1.09-0.855l6.053-5.555l-9.179-4.77l5.827-5.493l6.146-4.646l-5.335,0.498z"/>
					<text transform="matrix(1 0 0 1 82.6689 44.5859)"><tspan x="0" y="0" style="fill:#000000;stroke:none;">19807</tspan></text>
				</g>
				<g>
					<path d="M92.293,52.197l3.908,21.565l14.344-1.837l4.137-4.898l5.273,9.864l7.084-6.601l3.519-7.685L118.2,51.31l-3.062-0.612l-1.875,8.098l-8.098-3.932l-3.718,2.979l-5.848-5.282l-2.461-0.229l-0.847-0.135z"/>
					<text transform="matrix(1 0 0 1 93.9482 68.1348)"><tspan x="0" y="0" style="fill:#000000;stroke:none;">19805</tspan></text>
				</g>
				<g>
					<path d="M120.723,0.125l-6.146,4.646l-5.827,5.493l9.179,4.77l-6.053,5.555l1.09,0.855l0.396,1.497l0.281,1.066l0.132,0.501l6.979,4.216l-2.607,3.536l5.722,6.668l-3.454,8.71l9.58,0.34l0.961,4.488l23.191-10.682l15.021-10.611l-6.161-4.383l-5.045-3.445
						l-7.219-5.03l-15.193,2.177l5.78-20.001l-20.604-0.366z"/>
					<text transform="matrix(1 0 0 1 123.9907 40.0759)"><tspan x="0" y="0" style="fill:#000000;stroke:none;">19803</tspan></text>
				</g>
				<g>
					<path d="M154.145,41.785l-23.191,10.682l4.31,5.376l7.538,9.729l5.303,2.467l-0.023,0.129l-1.705,8.016l11.224,3.606l9.867-23.268l-6.237,0.407l-3.984-5.344l-2.807-2.01l-0.293-9.791z"/>
					<text transform="matrix(1 0 0 1 141.0381 61.4141)"><tspan x="0" y="0" style="fill:#000000;stroke:none;">19802</tspan></text>
				</g>
				<g>
					<path d="M130.558,62.606l-3.519,7.685l4.427,5.783l9.352,4.761l3.349-3.059l0.51-6.806l-4.764-0.475l8.168-0.328l0.023-0.129l-5.303-2.467l-7.538-9.729l-4.705,4.764z"/>
					<text transform="matrix(1 0 0 1 131.5703 72.6313)"><tspan x="0" y="0" style="fill:#000000;stroke:none;">19801</tspan></text>
				</g>
				<g>
					<path d="M112.326,22.78l-0.539,1.324l-0.545,1.107l0.018,0.615l0.158,0.437l0.258,0.334l0.398,0.27l0.935,0.381l0.765-2.739l-0.132-0.501l-0.281-1.066l-0.396-1.497l-0.639,1.336z"/>
					<text transform="matrix(1 0 0 1 79.6338 26.9727)"><tspan x="0" y="0" style="fill:#000000;stroke:none;">19735</tspan></text>
				</g>
				<g>
					<path d="M104.457,277.162l-14.438,9.952l-14.76,0.284l6.82-15.606l-6.519-0.387l-2.61-5.479l-4.236-1.564l1.31,21.1l-9.489-7.512l0.683-5.979l-30.606,4.395l-11.414,23.206l-7.345,3.56l4.397,65.818l6.032-0.501l0.782-3.639l28.424-4.069l31.538,3.592
						l5.139-2.578l-1.122-4.201l-5.045-1.819l-5.736-18.146l6.519-4.383l5.739,2.191l11.432,18.812l13.966-2.707l0.853-7.939l15.709-3.791l4.98-10.025l8.001,2.259l12.788-10.266l-4.383-14.73l-21.771-1.729l16.717,0.281l-12.021-4.28l12.721,4.204l-3.141-4.77
						l5.502,4.781l-8.074-18.108l-19.02-15.293l-4.699-0.185l-0.053,5.388l-11.859,0.035l11.631-0.454l-0.208-4.872l6.044-2.514l-14.121-1.453l-5.057,9.123z"/>
					<text transform="matrix(1 0 0 1 67.3613 319.2822)"><tspan x="0" y="0" style="fill:#000000;stroke:none;">19734</tspan></text>
				</g>
				<g>
					<path d="M113.009,27.248l0.882,6.035l6.861-4.559l-6.979-4.216l-0.765,2.739z"/>
					<text transform="matrix(1 0 0 1 113.875 29.0195)"><tspan x="0" y="0" style="fill:#000000;stroke:none;">19732</tspan></text>
				</g>
				<g>
					<path d="M117.157,191.463l2.903,33.853l6.366-34.397l-9.27,0.545z"/>
					<text transform="matrix(1 0 0 1 120.2891 205.4932)"><tspan x="0" y="0" style="fill:#000000;stroke:none;">19731</tspan></text>
				</g>
				<g>
					<path d="M74.773,265.326l3.741-3.902l-6.765-5.637l-3.797,3.721l6.82,5.818z"/>
					<text transform="matrix(1 0 0 1 56.5449 263.1816)"><tspan x="0" y="0" style="fill:#000000;stroke:none;">19730</tspan></text>
				</g>
				<g>
					<g>
						<path d="M131.466,76.074l-0.68,7.078l-14.458,0.612L95.747,97.572l1.755,2.654l-8.481,4.661l1.307,3.756l-5.136,4.91l-10.477,5.312l1.304,5.036l4.857,4.298l3.193-2.344l0.519,3.879l8.531-1.222l-8.268,15.806l-13.377,13.4l6.296,36.879l3.524-0.686
							l12.334,0.601l-0.691-7.951l-14.607-2.815l-2.868-13.456l2.323-11.739l4.216,0.114l7.931,0.407l0.24,0.182l0.056,0.044l0.782-0.188l8.786-2.08l-1.509-8.815l13.277-16.488l17.106-7.62l23.033-28.438l-2.722-2.379l3.117-10.887h-6.858l-1.075-4.626
							l-3.349,3.059l-9.352-4.761z"/>
						<path d="M128.642,159.031l-5.719-13.43l6.958-2.938l2.077,15.929l-3.316,0.439z"/>
					</g>
					<text transform="matrix(1 0 0 1 94.4463 117.3018)"><tspan x="0" y="0" style="fill:#000000;stroke:none;">19720</tspan></text>
				</g>
				<g>
					<path d="M36.248,36.005L20.17,55.312L8.439,79.681H0.166l-0.041,48.563l19.371-7.04l0.492-7.201l-0.094-7.79l9.691-0.952l-0.545,6.489l43.805-16.488l4.137-5.443l-4.532-3.439l-11.054,6.009l-0.724-4.184l-7.898-2.739l-1.157-6.747l-6.914-10.608l6.785-3.932
						l-3.173-7.652l-0.36-3.853l-2.467-4.562l-5.581-0.029l2.815-3.398l-6.475-8.678z"/>
					<text transform="matrix(1 0 0 1 10.8916 89.1348)"><tspan x="0" y="0" style="fill:#000000;stroke:none;">19711</tspan></text>
				</g>
				<g>
					<path d="M46.977,26.738l-10.729,9.267l6.475,8.678l-2.815,3.398l5.581,0.029l2.467,4.562l0.36,3.853l13.913-0.686l2.256-6.574l5.555-2.484l4.497,2.051l-1.734-4.582l8.411-6.196L71.422,24.77l-6.064,3.533l-10.822-6.99l-7.559,5.426z"/>
					<text transform="matrix(1 0 0 1 42.04 41.5449)"><tspan x="0" y="0" style="fill:#000000;stroke:none;">19707</tspan></text>
				</g>
				<g>
					<g>
						<path d="M77.785,158.551l-2.323,11.739l2.868,13.456l14.607,2.815l0.691,7.951l34.204-6.527l-20.218-17.742l-11.508,3.097l7.72-4.831l-5.455-10.661l-7.362,1.263l-0.782,0.188l-0.056-0.044l-0.24-0.182l-7.931-0.407l-4.216-0.114z"/>
						<path d="M126.828,173.943l-6.431-3.328l-2.745-7.778l8.672,6.1l0.504,5.007z"/>
					</g>
					<text transform="matrix(1 0 0 1 84.96 178.8066)"><tspan x="0" y="0" style="fill:#000000;stroke:none;">19706</tspan></text>
				</g>
				<g>
					<path d="M184.344,14.22l-13.758,14.438l7.482,3.536l1.418,6.668l26.133-15.987l-6.123-5.306l-10.494-5.253l-4.658,1.904z"/>
					<text transform="matrix(1 0 0 1 178.1147 29.8015)"><tspan x="0" y="0" style="fill:#000000;stroke:none;">19703</tspan></text>
				</g>
				<g>
					<path d="M93.934,98.319l-21.943,8.438l-19.84,16.67l-20.01,6.053l0.111,0.413l-3.63-0.088l1.304,4.304l-9.129-5.083l-20.191,7.307l2.098,32.728l2.455,36.894l13.966-3.281l-0.513-14.232l-4.166-0.313l2.344-5.631l9.908-2.505l1.043-15.021l8.35-7.468
						l5.291-1.028l8.525,7.872l4.693-3.442l-1.825-11.892l7.327,2.531l12.519-8.048l2.045-12.006l-4.415-0.003l-2.092-6.571l7.336,1.916l0.524-2.93l-1.304-5.036l10.477-5.312l5.136-4.91l-1.307-3.756l8.481-4.661l-1.755-2.654l-1.813,0.747z"/>
					<text transform="matrix(1 0 0 1 8.9463 153.6348)"><tspan x="0" y="0" style="fill:#000000;stroke:none;">19702</tspan></text>
				</g>
				<g>
					<path d="M75.494,126.831l-7.336-1.916l2.092,6.571l4.415,0.003l-2.045,12.006l-12.519,8.048l-7.327-2.531l1.825,11.892l-4.693,3.442l-8.525-7.872l-5.291,1.028l-8.35,7.468l-1.043,15.021l-9.908,2.505l-2.344,5.631l4.166,0.313l0.513,14.232l18.888-0.911
						l27.861-0.882l11.897-6.281l-6.296-36.879l13.377-13.4l8.268-15.806l-8.531,1.222l-0.519-3.879l-3.193,2.344l-4.857-4.298l-0.524,2.93z"/>
					<text transform="matrix(1 0 0 1 36.6963 186.6348)"><tspan x="0" y="0" style="fill:#000000;stroke:none;">19701</tspan></text>
				</g>
				<g>
					<path d="M118.2,51.31l12.357,11.297l4.705-4.764l-4.31-5.376l-0.961-4.488l-9.58-0.34L118.2,51.31z"/>
					<text transform="matrix(1 0 0 1 117.7817 53.4683)"><tspan x="0" y="0" style="fill:#000000;stroke:none;">19806</tspan></text>
				</g>
				<g>
					<path d="M127.039,70.291l-7.084,6.601l-5.273-9.864l-4.137,4.898l-14.344,1.837L74.146,84.717l-1.696,1.661l4.532,3.439l3.574-0.545l-1.928,5.783l11.391-1.564l3.914,4.828l1.813-0.747l20.581-13.808l14.458-0.612l0.68-7.078l-4.427-5.783z"/>
					<text transform="matrix(1 0 0 1 83.9463 87.218)"><tspan x="0" y="0" style="fill:#000000;stroke:none;">19804</tspan></text>
				</g>
				<g>
					<path d="M315.225,740.047l5.449,7.184l19.878-7.673l-15.346-10.717l-9.981,11.206z"/>
					<text transform="matrix(1 0 0 1 311.1963 740.6621)"><tspan x="0" y="0" style="fill:#000000;stroke:none;">19969</tspan></text>
				</g>
				<g>
					<path d="M76.982,89.817l-4.137,5.443l-43.805,16.488l-2.854,0.993l-6.199,1.26l-0.492,7.201l-19.371,7.04l0.48,8.089l20.191-7.307l9.129,5.083l-1.304-4.304l3.63,0.088l-0.111-0.413l20.01-6.053l19.84-16.67l21.943-8.438l-3.914-4.828l-11.391,1.564
						l1.928-5.783l-3.574,0.545z"/>
					<text transform="matrix(1 0 0 1 26.5874 123.3608)"><tspan x="0" y="0" style="fill:#000000;stroke:none;">19713</tspan></text>
				</g>
				<g>
					<path d="M29.041,111.749l0.545-6.489l-9.691,0.952l0.094,7.79l6.199-1.26l2.854-0.993z"/>
					<text transform="matrix(1 0 0 1 16.0635 111.3018)"><tspan x="0" y="0" style="fill:#000000;stroke:none;">19716</tspan></text>
				</g>
				<g>
					<path d="M54.535,21.313l10.822,6.99l6.064-3.533l-5.566-9.97l-11.32,6.513z"/>
					<text transform="matrix(1 0 0 1 31.8535 24.1777)"><tspan x="0" y="0" style="fill:#000000;stroke:none;">19736</tspan></text>
				</g>
				<g>
					<path d="M168.084,481.842l1.383,3.732l4.84,2.839l-0.205,8.666l9.697,8.587l-0.809,5.701l4.564,1.251l7.465-29.974l-7.43-4.233l-0.703-8.836l-4.125-0.205l-2.555,8.695l-11.396,0.308l2.37,2.845l-3.097,0.624z"/>
					<text transform="matrix(1 0 0 1 164.8613 493.6191)"><tspan x="0" y="0" style="fill:#000000;stroke:none;">19902</tspan></text>
				</g>
				<g>
					<path d="M114.269,405.816l0.489,7.239l-22.67,6.413l-5.883,9.785l-15.727,4.617l-1.154,4.77l27.076,10.62l18.313-1.966l5.124,11.15l11.947,8.549l0.721,8.613l1.559,9.167l0.053,3.589l10.91-1.169l7.494-12.981l-3.659-1.245l-1.749-24.984l-20.341-17.766
						l-17.76,8.968l-5.44-10.989l16.708-9.563l-6.012-12.817z"/>
					<text transform="matrix(1 0 0 1 115.4463 455.8848)"><tspan x="0" y="0" style="fill:#000000;stroke:none;">19904</tspan></text>
				</g>
			</g>
		</g>
	</g>
</svg>
