<?xml version="1.0" encoding="iso-8859-1"?>
<!DOCTYPE svg PUBLIC "-//W3C//DTD SVG 20000303 Stylable//EN"   "http://www.w3.org/TR/2000/03/WD-SVG-20000303/DTD/svg-20000303-stylable.dtd">
<!-- Generator: Adobe Illustrator 9.0, SVG Export Plug-In  -->
<svg  width="1344.333pt" height="1290.228pt" viewBox="0 0 1344.333 1290.228" xml:space="preserve">
	<g id="Layer_x0020_1" style="fill-rule:nonzero;clip-rule:nonzero;fill:#FFFFFF;stroke:#000000;stroke-width:0.25;stroke-miterlimit:4; font-family:'ArialMT'; font-size:6;">
		<g>
			<g>
				<g style="fill:#000000;stroke:none;">
					<path style="fill:#FFFFFF;stroke:#000000;" d="M382.499,136.664l1.187,5.208l2.043,1.63l3.401-7.146l-6.631,0.308z"/>
					<g>
						<text transform="matrix(1 0 0 1 390.3428 134.0405)"><tspan x="0" y="0">02113</tspan></text>
						<path d="M385.968,138.178l3.5-5"/>
					</g>
				</g>
				<g style="fill:#000000;stroke:none;">
					<path style="fill:#FFFFFF;stroke:#000000;" d="M385.729,143.501l-2.641,4.491l9.105-2.962l-3.063-8.675l-3.401,7.146z"/>
					<g>
						<text transform="matrix(1 0 0 1 395.6201 141.6045)"><tspan x="0" y="0">02109</tspan></text>
						<path d="M388.968,142.678l5.25-3.25"/>
					</g>
				</g>
				<g>
					<path d="M313.531,157.995l-12.502,16.528l24.064,12.858l11.738-13.57l8.42-10.92l-2.725-7.352l-12.753-2.039l-16.242,4.496z"/>
					<text transform="matrix(1 0 0 1 314.2866 172.2778)"><tspan x="0" y="0" style="fill:#000000;stroke:none;">02146</tspan></text>
				</g>
				<g>
					<path d="M267.863,118.501l-19.564,19.692l10.635,0.817l30.788,6.636l21.168-5.717l3.146-8.776l-12.669-1.731l-33.504-10.92z"/>
					<text transform="matrix(1 0 0 1 272.8188 136.5757)"><tspan x="0" y="0" style="fill:#000000;stroke:none;">02172</tspan></text>
				</g>
				<g>
					<path d="M300.264,108.6l-3.485,9.391l4.588,11.43l12.669,1.731l-3.146,8.776l6.376-1.938l4.509-7.348l6.381,5.001l5.357,4.997l9.945-12.243l-6.201-6.737L300.264,108.6z"/>
					<text transform="matrix(1 0 0 1 308.6182 127.917)"><tspan x="0" y="0" style="fill:#000000;stroke:none;">02138</tspan></text>
				</g>
				<g>
					<g>
						<path d="M390.409,998.346l0.083,3.574l5.098,4.078l3.318,1.433l8.42,11.323l1.569-0.234l0.215-0.173l0.185,0.149l-0.593,0.094l-1.292,0.267l-0.303,0.079l-6.412-0.486l-3.828-10.201l-5.695-1.629l-0.092,0.094v-0.407l-5.353,2.042l-0.259,4.796l-21.85-3.876
							l-0.176,0.029l-7.137,3.545l39.709,10.304l5.019,19.187l-0.51-15.715l13.518-8.78l-8.758-23.165l5.445-2.959l-2.549-27.858l-9.861-24.999l-3.744-6.94l7.058-9.387v-26.534l-33.42-63.27l24.746-9.39l-19.815-29.083l-16.752-11.941l-4.425-0.407l-5.098-0.202
							l-6.042,32.247l-8.591-1.937l0.264,27.246l-0.176,0.609l-14.625-0.92l-5.616,7.148l7.4,7.649l-0.088,5.341l0.769,0.17l-1.006,15.469l-0.013,0.656h-0.031l-0.312,3.062l-5.95,25.717l5.102-10.304l3.823,17.036l-5.357,5.206l-2.465-1.125l1.279,1.632
							l6.293,11.839l9.097,96.847l27.804-9.899l-8.161-2.859l-0.25-14.795l-19.419-18.996l-2.527-11.212l13.86,7.45l18.374,23.575l5.401,0.659l6.759,7.406l1.279-5.314l7.308-15.917l-7.308-21.12l4.931-7.863l11.224,19.184l0.497,22.069l0.018,0.688z"/>
						<path d="M380.201,1003.757l0.171-0.308l0.642,0.686l0.154-0.182l-0.031,0.105l8.758-3.264l-6.869,6.188l-2.826-3.226z"/>
						<path d="M388.805,995.358l0.325,0.032l-0.255,1.228l-0.848-1.125l0.778-0.135z"/>
					</g>
					<text transform="matrix(1 0 0 1 354.7153 916.5171)"><tspan x="0" y="0" style="fill:#000000;stroke:none;">02790</tspan></text>
				</g>
				<g>
					<path d="M346.604,517.705l-42.943,58.271l-36.65,28.266l6.548,30.718l49.324,8.776l11.479,15.716l5.783,1.635l8.165-18.472l19.556-0.207l15.056,10.206l6.974-22.348l4.847-0.611l-2.72-19.389l-13.865,0.505l-23.977-35.921l10.116-20.922l-6.891-33.368
						l-10.802-2.856z"/>
					<text transform="matrix(1 0 0 1 322.5298 593.897)"><tspan x="0" y="0" style="fill:#000000;stroke:none;">02780</tspan></text>
				</g>
				<g>
					<path d="M340.145,661.086l-5.098,40.002l-3.577,24.586l4.342,12.451l22.786-24.182l-4.671-10.207l3.652-5.203l14.203,0.1l11.14-46.02l-15.056-10.206l-19.556,0.207l-8.165,18.472z"/>
					<text transform="matrix(1 0 0 1 352.3071 669.4771)"><tspan x="0" y="0" style="fill:#000000;stroke:none;">02779</tspan></text>
				</g>
				<g>
					<path d="M267.863,691.596l-39.885,17.344l-4.337,5.514l2.298,21.223l4.759,1.84l-41.752,4.488l-6.548,8.877l28.485,14.288l33.082,45.513l-0.681-22.037l14.542,6.935l-8.587,9.29l6.205,5.607l11.566-13.368l4.333-0.812l2.646-22.348l26.525,4.078l1.362-51.533
						l-14.282,0.407l-4.597-26.528l-14.115-0.926l-1.02-7.852z"/>
					<text transform="matrix(1 0 0 1 233.7866 755.6421)"><tspan x="0" y="0" style="fill:#000000;stroke:none;">02777</tspan></text>
				</g>
				<g>
					<path d="M145.15,616.081l3.995,36.835l-6.965,18.372l5.946,8.979l-10.204,12.653l5.524,25.313l10.89,18.161l28.063,14.487l6.548-8.877l-13.693-130.208l-30.103,4.285z"/>
					<text transform="matrix(1 0 0 1 155.085 685.8394)"><tspan x="0" y="0" style="fill:#000000;stroke:none;">02771</tspan></text>
				</g>
				<g>
					<path d="M627.406,709.25l-102.472,12.551l-25.172,3.979l12.081,27.961l2.298,5.613l15.473-2.145l18.114,60.311l52.211-4.488l15.645-41.232l-1.354-11.936l7.058-4.289l0.853-34.488l5.265-11.836z"/>
					<text transform="matrix(1 0 0 1 555.2378 767.8853)"><tspan x="0" y="0" style="fill:#000000;stroke:none;">02770</tspan></text>
				</g>
				<g>
					<path d="M257.237,605.876l-81.984,5.919l13.693,130.208l41.752-4.488l-4.759-1.84l-2.298-21.223l4.337-5.514l39.885-17.344l-6.979-50.111l12.674-6.526l-6.548-30.718l-9.773,1.635z"/>
					<text transform="matrix(1 0 0 1 216.0547 677.6274)"><tspan x="0" y="0" style="fill:#000000;stroke:none;">02769</tspan></text>
				</g>
				<g>
					<path d="M357.406,520.561l6.891,33.368l-10.116,20.922l23.977,35.921l13.865-0.505l2.72,19.389l26.956-7.453l12.243,8.776l4.597-6.425l-6.038-7.963l5.867-9.286l-5.19-23.063L390.66,549.75l-3.661-17.859l-1.02-4.693l-28.573-6.636z"/>
					<text transform="matrix(1 0 0 1 382.9795 583.8657)"><tspan x="0" y="0" style="fill:#000000;stroke:none;">02767</tspan></text>
				</g>
				<g>
					<path d="M297.711,498.725l-84.784,42.658l44.31,64.494l9.773-1.635l36.65-28.266l42.943-58.271l-46.688-5.405l-2.206-13.575z"/>
					<text transform="matrix(1 0 0 1 271.417 556.8027)"><tspan x="0" y="0" style="fill:#000000;stroke:none;">02766</tspan></text>
				</g>
				<g>
					<path d="M273.559,634.959l-12.674,6.526l6.979,50.111l1.02,7.852l14.115,0.926l4.597,26.528l14.282-0.407l29.593-0.82l3.577-24.586l-11.909-2.25l9.268-16.324l1.956-23.063l-11.479-15.716l-49.324-8.776z"/>
					<text transform="matrix(1 0 0 1 287.0571 671.9731)"><tspan x="0" y="0" style="fill:#000000;stroke:none;">02764</tspan></text>
				</g>
				<g>
					<path d="M187.672,466.478l-78.829,26.736l0.083,34.493l33.842-8.266l46.09-27.453l-1.187-25.51z"/>
					<text transform="matrix(1 0 0 1 140.4995 501.5942)"><tspan x="0" y="0" style="fill:#000000;stroke:none;">02762</tspan></text>
				</g>
				<g>
					<path d="M188.858,491.988l-46.09,27.453l-33.842,8.266v71.13l53.064-39.085l-4.939,0.813l4.852-31.43l16.497-4.896l2.808,20.101l22.531-17.446l-4.676-8.473l-6.034,1.736l-3.828-22.961l-0.343-5.208z"/>
					<text transform="matrix(1 0 0 1 123.9321 561.4785)"><tspan x="0" y="0" style="fill:#000000;stroke:none;">02760</tspan></text>
				</g>
				<g>
					<path d="M442.427,977.229l0.374,0.141l13.702,5.115l-1.384-1.998l4.592-6.838l-0.193,12.803l13.377,21.592l-1.446-12.346l7.062-10.819l16.066-2.039l-19.046-46.843l-5.019-0.199l-1.191,10.605l-6.042-14.895l5.361-1.84l-2.637-9.076l19.815,23.057l9.013-16.02
						l-2.215-17.549l-0.501-2.247l-10.973-5.206l-8.758,0.51l-5.273,15.205l-7.567-2.142l-28.068,21.325l-2.971,11.426l0.765,4.289l-0.514,23.886l5.695,4.69l7.976-4.588z"/>
					<text transform="matrix(1 0 0 1 455.8071 968.7271)"><tspan x="0" y="0" style="fill:#000000;stroke:none;">02748</tspan></text>
				</g>
				<g>
					<path d="M370.678,764.358l-2.979,12.75l-11.307,5.203l16.752,11.941l19.815,29.083l-24.746,9.39l33.42,63.27v26.534l-7.058,9.387l3.744,6.94l11.558-7.348l18.628,17.443l2.971-11.426l28.068-21.325l7.567,2.142l5.273-15.205l8.758-0.51l-22.878-37.453
						l-1.446-6.328l-18.026-61.43l-12.498,7.043l0.501-22.96l-39.625-12.349l-16.493-4.793z"/>
					<text transform="matrix(1 0 0 1 408.5571 847.2271)"><tspan x="0" y="0" style="fill:#000000;stroke:none;">02747</tspan></text>
				</g>
				<g>
					<path d="M438.793,797.417l18.026,61.43l46.521-5.912l0.765-12.557l-22.447-67.857l-42.864,24.896z"/>
					<text transform="matrix(1 0 0 1 463.0977 820.186)"><tspan x="0" y="0" style="fill:#000000;stroke:none;">02745</tspan></text>
				</g>
				<g>
					<path d="M481.657,772.52l22.447,67.857l-0.765,12.557l0.25,2.748l50.348-18.161l-6.209-20.001l-18.114-60.311l-15.473,2.145l-2.298-5.613l-30.186,18.779z"/>
					<text transform="matrix(1 0 0 1 507.6831 803.7271)"><tspan x="0" y="0" style="fill:#000000;stroke:none;">02743</tspan></text>
				</g>
				<g>
					<path d="M458.265,865.174l22.878,37.453l10.973,5.206l7.479-10.409l8.077,5.203l5.357-6.938l2.808-6.533l-8.503-3.472l5.612-4.286l-11.654-10.512l1.45-5.813l-44.477,0.1z"/>
					<text transform="matrix(1 0 0 1 481.2031 885.4536)"><tspan x="0" y="0" style="fill:#000000;stroke:none;">02740</tspan></text>
				</g>
				<g>
					<path d="M547.729,817.52l6.209,20.001l12.243,53.78l12.586,3.264l9.356-10.409l6.376,11.021l7.822-4.69l-3.146-12.146l-16.743-9.416l6.113-7.523l39.204,6.428l-3.401,5.309l8.42,5.203l-2.549-6.123l9.94-5.508l-7.559-25.207l-21.858,3.469l-14.625-17.754
						l3.823-14.186l-52.211,4.488z"/>
					<text transform="matrix(1 0 0 1 585.5952 858.606)"><tspan x="0" y="0" style="fill:#000000;stroke:none;">02739</tspan></text>
				</g>
				<g>
					<path d="M621.289,755.575l-7.058,4.289l1.354,11.936l-15.645,41.232l-3.823,14.186l14.625,17.754l21.858-3.469l18.193,2.347l-18.962-37.143l0.514-4.802l7.225,4.289l0.255-10.207l2.716,15.006l32.234,31.629l0.338-15.814l-12.841-14.695l12.502,4.793
						l2.465-7.14l-36.65-34.488l-16.33,8.364l-2.971-28.066z"/>
					<text transform="matrix(1 0 0 1 626.3281 796.2769)"><tspan x="0" y="0" style="fill:#000000;stroke:none;">02738</tspan></text>
				</g>
				<g>
					<path d="M301.877,726.495l-1.362,51.533l-26.525-4.078l25.677,19.488l21.344-25.307l-2.127-13.166l8.851-4.491l8.077-12.349l-4.342-12.451l-29.593,0.82z"/>
					<text transform="matrix(1 0 0 1 309.0488 741.5591)"><tspan x="0" y="0" style="fill:#000000;stroke:none;">02726</tspan></text>
				</g>
				<g>
					<path d="M327.734,750.474l-8.851,4.491l2.127,13.166l-21.344,25.307l-2.553,2.651l-1.863,17.651l13.342,6.229l23.643-7.957l8.591,1.937l6.042-32.247l5.098,0.202l4.425,0.407l11.307-5.203l2.979-12.75l-42.943-13.884z"/>
					<text transform="matrix(1 0 0 1 316.1138 794.2231)"><tspan x="0" y="0" style="fill:#000000;stroke:none;">02720</tspan></text>
				</g>
				<g>
					<g>
						<path d="M503.59,855.682l-0.848,9.393l-1.45,5.813l11.654,10.512l-5.612,4.286l8.503,3.472l-2.808,6.533l9.523-0.407l4.852-8.271l16.33,7.146l3.059,25.614l10.547,18.879l5.695-14.49l-9.097-28.266l12.243-4.594l-12.243-53.78l-50.348,18.161z"/>
						<path d="M584.718,938.036l-16.673-13.875l3.494-8.575l5.186-1.632l6.636,14.596l6.376,0.202l-5.019,9.284z"/>
					</g>
					<text transform="matrix(1 0 0 1 527.4321 872.481)"><tspan x="0" y="0" style="fill:#000000;stroke:none;">02719</tspan></text>
				</g>
				<g>
					<path d="M438.367,607.305l-5.867,9.286l6.038,7.963l-4.597,6.425l-12.243-8.776l-26.956,7.453l-4.847,0.611l-6.974,22.348l-11.14,46.02l30.186,1.23l53.578-45.621l-11.65-46.02l-5.528-0.918z"/>
					<text transform="matrix(1 0 0 1 410.8071 653.7271)"><tspan x="0" y="0" style="fill:#000000;stroke:none;">02718</tspan></text>
				</g>
				<g>
					<path d="M443.297,733.127l6.719,17.856l-29.593,1.635l-33.253,16.532l39.625,12.349l-0.501,22.96l12.498-7.043l42.864-24.896l30.186-18.779l-12.081-27.961l-56.465,7.348z"/>
					<text transform="matrix(1 0 0 1 441.1558 769.6196)"><tspan x="0" y="0" style="fill:#000000;stroke:none;">02717</tspan></text>
				</g>
				<g>
					<path d="M398.319,938.856l9.861,24.999l2.549,27.858l-5.445,2.959l8.758,23.165l15.649-8.47l19.393,3.369l1.868-25.512l-7.739,1.119l-0.413-10.975l-0.374-0.141l-7.976,4.588l-5.695-4.69l0.514-23.886l-0.765-4.289l-18.628-17.443l-11.558,7.348z"/>
					<text transform="matrix(1 0 0 1 422.0571 1003.6021)"><tspan x="0" y="0" style="fill:#000000;stroke:none;">02714</tspan></text>
				</g>
				<g>
					<g>
						<path d="M611.507,1077.43l25.506-15.404l1.709-17.045l40.562-13.978l4.588-5.001l-4.759-5.408l8.081-7.45l-13.865-5.411l-71.6,48.58l-3.151,17.344l12.929,3.773z"/>
						<path d="M517.024,1103.252l-4.509-3.363l4.43-9.902l15.478,1.837l22.28-18.167l7.479,17.042l-15.899,11.127l-29.259,1.427z"/>
						<path d="M576.553,1082.54l-8.675-7.348l7.146-9.387l12.841,0.709l6.469,6.328l-2.641,5.306l4.847-3.674l-0.765,5.713l-19.222,2.353z"/>
						<path d="M476.977,1115.293l-1.362-6.018l8.077,0.094l-0.083-7.649l10.969-9.179l7.479,6.732l-9.519,1.635l18.541,0.302l-34.102,14.083z"/>
						<path d="M697.304,1017.94l-8.496-8.979l18.457-2.962l0.932,6.229l-10.893,5.713z"/>
						<path d="M682.935,1009.473l-3.229-6.229l9.694-2.039l-6.465,8.268z"/>
					</g>
					<text transform="matrix(1 0 0 1 583.5562 1062.7495)"><tspan x="0" y="0" style="fill:#000000;stroke:none;">02713</tspan></text>
				</g>
				<g>
					<path d="M203.738,526.894l-22.531,17.446l-19.217,15.412l-53.064,39.085l-0.347,22.548l36.571-5.304l30.103-4.285l81.984-5.919l-44.31-64.494l-9.189-14.489z"/>
					<text transform="matrix(1 0 0 1 172.3071 595.2285)"><tspan x="0" y="0" style="fill:#000000;stroke:none;">02703</tspan></text>
				</g>
				<g>
					<path d="M371.781,698.633l-14.203-0.1l-3.652,5.203l4.671,10.207l-22.786,24.182l-8.077,12.349l42.943,13.884l16.493,4.793l33.253-16.532l29.593-1.635l-6.719-17.856l-32.568,4.594l10.121-20.613l-18.883-17.244l-30.186-1.23z"/>
					<text transform="matrix(1 0 0 1 380.5288 738.3452)"><tspan x="0" y="0" style="fill:#000000;stroke:none;">02702</tspan></text>
				</g>
				<g>
					<path d="M1084.556,791.288l-23.194,12.967l-0.964,6.814l-16.365,17.209l-0.018,3.018h17.347h27.472l0.252,2.959l7.318,0.311l4.717,0.223l9.967-6.636l-1.225-8.364l13.072-5.537l5.525-1.427l3.146-3.366l-5.104-4.283l-14.625-11.432l-15.817-0.609l-11.505-1.846
						z"/>
					<text transform="matrix(1 0 0 1 1071.6772 816.0376)"><tspan x="0" y="0" style="fill:#000000;stroke:none;">02675</tspan></text>
				</g>
				<g>
					<path d="M1089.085,834.254l-31.459,11.127l-4.424,15.817l8.936,0.738l0.281,1.726l6.258,2.842l-1.529,7.857l12.246,11.323l-12.674,2.552l-3.826,11.124l-6.885-2.446l6.797-4.286l-8.159,1.737l3.146,16.734l15.56-18.879l22.11-8.575l-8.757-1.731l8.933-1.327
						l0.337-6.331l-0.337-11.631l10.198-5.918l-9.434-22.143l-7.318-0.311z"/>
					<text transform="matrix(1 0 0 1 1079.0806 854.9263)"><tspan x="0" y="0" style="fill:#000000;stroke:none;">02673</tspan></text>
				</g>
				<g>
					<path d="M1148.072,846.342l-19.277,7.102l-11.391,18.568l32.572-4.793l8.804-14.985l-0.261-6.073l-10.447,0.182z"/>
					<text transform="matrix(1 0 0 1 1130.4028 862.4644)"><tspan x="0" y="0" style="fill:#000000;stroke:none;">02670</tspan></text>
				</g>
				<g>
					<path d="M957.704,777.928l-24.407,29.391l25.764,16.632l3.053,2.197l-14.883,3.981l-10.061-5.689l4.529,13.014l23.947,5.42l16.828-7.389l14.695-3.398l20.338,10.348l3.885-7.972l-0.768-7.392l-15.214-15.82l-14.716-2.402l5.443-2.654l-0.861-2.215v-0.006
						l-2.033-5.229l-15.902,1.837l13.184-2.555l-8.704-7.852h34.813l13.184,7.752l-3.404-5.203l23.133-0.817l-17.607-9.284l-74.235-4.693z"/>
					<text transform="matrix(1 0 0 1 960.1812 813.729)"><tspan x="0" y="0" style="fill:#000000;stroke:none;">02668</tspan></text>
				</g>
				<g>
					<path d="M1217.839,555.669l9.012,81.431l-0.516-35.104l11.145-9.079l-13.178-2.351l1.102-7.343l7.225,4.896l30.457-7.242l1.096,13.772l-6.803-5.612l-1.356,4.592l12.495,14.08l5.701-0.712l-4.342-5.001l23.218-1.222l12.762-10.002l-19.649-44.389l-68.367,9.286
						z"/>
					<text transform="matrix(1 0 0 1 1254.9976 575.7432)"><tspan x="0" y="0" style="fill:#000000;stroke:none;">02667</tspan></text>
				</g>
				<g>
					<path d="M1212.73,502.5l3.234,18.062l1.107-6.425l4.849,5.713l6.63-3.366l-5.273,7.141l-7.313-2.145l1.875,34.189l68.367-9.286l-47.534-70.414l-25.942,26.53z"/>
					<text transform="matrix(1 0 0 1 1239.1187 532.8188)"><tspan x="0" y="0" style="fill:#000000;stroke:none;">02666</tspan></text>
				</g>
				<g>
					<path d="M1122.935,814.25l-13.072,5.537l1.225,8.364l-9.967,6.636l-4.717-0.223l9.434,22.143l-10.198,5.918l0.337,11.631l-0.428,8.473l19.813-7.143l0.771-9.797l12.662-12.346l19.277-7.102l-6.006,0.973l6.551-13.676l-9.527-8.361l-10.629-12.454l-5.525,1.427z
						"/>
					<text transform="matrix(1 0 0 1 1117.1069 842.5278)"><tspan x="0" y="0" style="fill:#000000;stroke:none;">02664</tspan></text>
				</g>
				<g>
					<path d="M1293.094,600.774l-14.37,7.853l6.891,6.943l-4.846,6.223l7.395,3.678l-8.675,9.998l14.323,2.167l0.275-0.031l26.561-2.852l-14.792-43.98l-12.762,10.002z"/>
					<text transform="matrix(1 0 0 1 1291.3354 624.7041)"><tspan x="0" y="0" style="fill:#000000;stroke:none;">02663</tspan></text>
				</g>
				<g>
					<g>
						<path d="M1326.601,757.104l-4.336,8.473l5.273,6.328l4.166-0.814l-4.846-5.306l5.959,2.241l-6.217-10.922z"/>
						<path d="M1328.725,710.78l4.342,1.324l0.337-8.057l-4.679,6.732z"/>
					</g>
					<text transform="matrix(1 0 0 1 1315.7769 765.4097)"><tspan x="0" y="0" style="fill:#000000;stroke:none;">02662</tspan></text>
				</g>
				<g>
					<path d="M1129.908,766.397l9.694,8.162l-4.556,2.385l-2.613,10.289l2.106,2.707l12.026-0.645l-0.229,11.859l-6.047-3.217l-0.129,0.064l-13.658,7.172l5.104,4.283l-3.146,3.366l10.629,12.454l9.527,8.361l-6.551,13.676l6.006-0.973l10.447-0.182l3.158-4.986
						l-2.549-4.787l6.844,0.785l-5.42-5.859l13.57-2.877l-4.5-16.122l-5.361-21.12l-3.996-19.594l17.865-12.955l-48.223,7.752z"/>
					<text transform="matrix(1 0 0 1 1141.5581 814.353)"><tspan x="0" y="0" style="fill:#000000;stroke:none;">02660</tspan></text>
				</g>
				<g>
					<path d="M1257.724,833.545l-5.959,18.369l21.516-5.309l4.764-15.205l-17.856-11.634l-2.464,13.778z"/>
					<text transform="matrix(1 0 0 1 1258.4614 838.0923)"><tspan x="0" y="0" style="fill:#000000;stroke:none;">02659</tspan></text>
				</g>
				<g>
					<path d="M1152.273,433.826l-50.517-4.39l-20.663,8.574l-6.035,11.021l6.8,3.063l-0.026-1.002l-0.082-3.74l9.721,2.597l-6.293,3.573l28.184,29.202l-2.502-4.408l4.503,2.452l14.03-24.188l28.664-7.146l-5.783-15.609z"/>
					<text transform="matrix(1 0 0 1 1107.1812 452.3535)"><tspan x="0" y="0" style="fill:#000000;stroke:none;">02657</tspan></text>
				</g>
				<g>
					<path d="M963.654,867.421l-23.725-0.103l7.488,6.023l-8.941,3.062l1.963,7.854l-18.964,15.51l5.358,10.822l-11.479,2.244l45.744-3.879l12.674-12.144l-6.63-3.674l11.815-8.575l-4.676-5.203l-0.422-0.814l-10.207-11.124z"/>
					<text transform="matrix(1 0 0 1 939.2153 896.9771)"><tspan x="0" y="0" style="fill:#000000;stroke:none;">02655</tspan></text>
				</g>
				<g>
					<path d="M1289.951,788.645l0.346,0.305l0.334,0.199l3.404-7.447l17.854-2.449l-3.826-10.307l7.23-12.445l-18.111-0.311l16.324-4.693l-7.143-5.203l6.035-2.654l-3.99-3.979l-17.18,22.857l-1.277,26.127z"/>
					<text transform="matrix(1 0 0 1 1292.7007 775.1118)"><tspan x="0" y="0" style="fill:#000000;stroke:none;">02653</tspan></text>
				</g>
				<g>
					<path d="M1158.056,449.436l38.941,23.471l15.732,29.593l25.942-26.53l-38.183-26.02l-48.217-16.124l5.783,15.609z"/>
					<text transform="matrix(1 0 0 1 1209.1187 480.165)"><tspan x="0" y="0" style="fill:#000000;stroke:none;">02652</tspan></text>
				</g>
				<g>
					<path d="M1279.489,635.469l-3.829,7.857l5.443,56.537l0.598-7.148l0.686-1.02l2.889-6.527l0.015-0.586l10.614-4.113l-0.334-1.629l0.671-8.262l0.091-0.521l-2.297-31.529l-0.223-0.892l-14.323-2.167z"/>
					<text transform="matrix(1 0 0 1 1279.1479 671.1665)"><tspan x="0" y="0" style="fill:#000000;stroke:none;">02651</tspan></text>
				</g>
				<g>
					<g>
						<path d="M1296.241,811.092l12.935-1.327l-10.459-6.94l15.639,3.064l-1.699-5.924l-9.012-3.366l-14.291,8.165l-1.189,1.837l37.166,24.396l2.725-18.475l-31.813-1.43z"/>
						<path d="M1326.091,793.948l-10.037,2.757l9.105,6.735l0.932-9.492z"/>
					</g>
					<text transform="matrix(1 0 0 1 1309.603 819.4722)"><tspan x="0" y="0" style="fill:#000000;stroke:none;">02650</tspan></text>
				</g>
				<g>
					<path d="M863.136,835.075l-2.637,13.063l-11.903-5.206l-4.166,9.592l-11.306,22.143l-8.593,7.857l12.325,38.37l23.045,5.921l-3.82,19.793l-8.678,6.943l-0.847-0.612l-1.107-0.308l-1.784,9.797l15.135-17.045l3.574,10.207l-4.852-5.713l-21.938,24.182
						l35.036-6.732l30.185-34.189l-12.662-9.182l12.835-31.635l13.269-10.307L893.5,855.583l-7.617-1.77l-6.926-15.047l-15.82-3.691z"/>
					<text transform="matrix(1 0 0 1 861.0405 909.0669)"><tspan x="0" y="0" style="fill:#000000;stroke:none;">02649</tspan></text>
				</g>
				<g>
					<path d="M925.641,816.708l-17.089,20.918L893.5,855.583l20.748,26.432l-13.269,10.307l11.229,10.512l9.267-3.064l18.964-15.51l-1.963-7.854l8.941-3.062l-7.488-6.023l23.725,0.103l4.084-0.103l-1.576-4.172l-8.089-4.532l7.573-15.741l-23.947-5.42
						l-4.529-13.014l10.061,5.689l14.883-3.981l-3.053-2.197l-25.764-16.632l-7.655,9.39z"/>
					<text transform="matrix(1 0 0 1 919.9331 857.3521)"><tspan x="0" y="0" style="fill:#000000;stroke:none;">02648</tspan></text>
				</g>
				<g>
					<path d="M1200.068,839.258l-0.58,6.27l3.486,3.709l-4.717,0.938l3.17,7.755l6.375-6.223l0.513,4.796l35.716-3.161l1.107-0.647l-4.564-9.762l-0.797-5.104l-14.883,3.164l-4.418-7.447l-12.076,8.159l-8.332-2.446z"/>
					<text transform="matrix(1 0 0 1 1215.2778 849.981)"><tspan x="0" y="0" style="fill:#000000;stroke:none;">02646</tspan></text>
				</g>
				<g>
					<path d="M1290.296,788.95l-39.381,2.244l-15.563,9.182l-31.975-7.447l-1.529,9.287l-32.227,10.099l4.5,16.122l0.299-0.041l4.875,18.832l3.369,0.088l5.748-8.502l0.264,10.746l10.811-4.031l0.58-6.27l8.332,2.446l12.076-8.159l4.418,7.447l14.883-3.164
						l0.797,5.104l4.564,9.762l6.627-0.779l5.959-18.369l2.464-13.778l12.073-1.122l15.902-12.044l1.189-1.837l-4.506-6.633l5.783-8.982l-0.334-0.199z"/>
					<text transform="matrix(1 0 0 1 1207.8101 819.8521)"><tspan x="0" y="0" style="fill:#000000;stroke:none;">02645</tspan></text>
				</g>
				<g>
					<path d="M862.375,816.905l-7.822-3.674l-8.168,13.778l-14.877,7.245l-5.531,12.759l18.454,5.511l4.166-9.592l11.903,5.206l2.637-13.063l3.914-11.227l-6.117-1.427l1.441-5.517z"/>
					<text transform="matrix(1 0 0 1 840.1616 836.3794)"><tspan x="0" y="0" style="fill:#000000;stroke:none;">02644</tspan></text>
				</g>
				<g>
					<path d="M1307.722,737.721l7.995-1.635l-7.228,2.754l6.715,3.568l3.146,13.986l13.271-4.184l-7.995-8.572l13.356-2.35l-8.426,6.023l8.59,10.512l-4.764,4.796l9.439,18.369l-2.215,65.921l-11.051,20.408l-7.652,1.632l0.51,7.755l3.779-4.02l15.182-23.528
						l3.832-72.659l-6.211-69.598l-1.014,10.822l-7.828,3.258l-8.848-18.463l-9.691,6.422l-11.396,12.656l-5.016-7.547l-12.504,2.446l-0.51,0.202l-1.189-1.119l-12.334,7.752l-0.765,7.351l22.374,39.182l-7.576,12.349l8.25,6.434l1.277-26.127l17.18-22.857
						l-0.686-1.939z"/>
					<text transform="matrix(1 0 0 1 1289.5562 733.104)"><tspan x="0" y="0" style="fill:#000000;stroke:none;">02643</tspan></text>
				</g>
				<g>
					<path d="M1294.087,637.605l-0.275,0.031l0.223,0.892l2.297,31.529l-0.091,0.521l-0.671,8.262l0.334,1.629l-10.614,4.113l-0.015,0.586l-2.889,6.527l-0.686,1.02l-0.598,7.148l7.228-2.045l-9.606,6.126l4.336,4.286l-7.822,6.938l4.764,0.41l1.189,1.119
						l0.51-0.202l12.504-2.446l5.016,7.547l11.396-12.656l7.649-10.711l9.442,9.387l7.061-8.777l-14.121-64.085l-26.561,2.852z"/>
					<text transform="matrix(1 0 0 1 1301.2788 693.9253)"><tspan x="0" y="0" style="fill:#000000;stroke:none;">02642</tspan></text>
				</g>
				<g>
					<path d="M1174.123,828.436l-13.57,2.877l5.42,5.859l-6.844-0.785l2.549,4.787l-3.158,4.986l0.261,6.073l-8.804,14.985l35.54-5.297l-6.524-13.582l0.305-1.113l-4.875-18.832l-0.299,0.041z"/>
					<text transform="matrix(1 0 0 1 1160.6772 849.355)"><tspan x="0" y="0" style="fill:#000000;stroke:none;">02639</tspan></text>
				</g>
				<g>
					<path d="M1129.908,766.397l-46.77,18.264l-4.254,5.716l5.672,0.911l11.505,1.846l15.817,0.609l14.625,11.432l13.658-7.172l0.129-0.064l6.047,3.217l0.229-11.859l-12.026,0.645l-2.106-2.707l2.613-10.289l4.556-2.385l-9.694-8.162z"/>
					<text transform="matrix(1 0 0 1 1108.3745 785.7856)"><tspan x="0" y="0" style="fill:#000000;stroke:none;">02638</tspan></text>
				</g>
				<g>
					<path d="M1042.729,808.438l2.077,8.9l-0.773,10.939l16.365-17.209l0.964-6.814l-18.633,4.184z"/>
					<text transform="matrix(1 0 0 1 1043.6948 813.269)"><tspan x="0" y="0" style="fill:#000000;stroke:none;">02637</tspan></text>
				</g>
				<g>
					<path d="M1280.001,979.675l-10.547-8.88l17.262-18.674l4.852-37.758l8.666-5.918l3.24-25.819l6.463-8.575l-14.883,62.455l-1.277,29.596l-13.775,13.573z"/>
					<text transform="matrix(1 0 0 1 1273.9214 970.1392)"><tspan x="0" y="0" style="fill:#000000;stroke:none;">02633</tspan></text>
				</g>
				<g>
					<g>
						<path d="M1272.261,818.645l16.5,5.203l-1.699,11.941l11.736,6.527l-6.721,7.043l10.541,7.752l-3.398,5.209l19.131,1.734l11.742-21.023l-4.764-12.035l-37.166-24.396l-15.902,12.044z"/>
					</g>
					<text transform="matrix(1 0 0 1 1300.4233 837.1372)"><tspan x="0" y="0" style="fill:#000000;stroke:none;">02633</tspan></text>
				</g>
				<g>
					<path d="M982.474,835.485l-16.828,7.389l-7.573,15.741l8.089,4.532l1.576,4.172l-4.084,0.103l10.207,11.124l0.422,0.814l4.676,5.203l11.232-1.937l-3.814,2.856l13.163-1.119l7.233-16.942l-0.012-0.07l-0.844-3.706l-0.855-3.164l12.445-18.047l-20.338-10.348
						l-14.695,3.398z"/>
					<text transform="matrix(1 0 0 1 979.4409 863.2876)"><tspan x="0" y="0" style="fill:#000000;stroke:none;">02632</tspan></text>
				</g>
				<g>
					<path d="M1178.13,758.645l-17.865,12.955l3.996,19.594l5.361,21.12l32.227-10.099l1.529-9.287l31.975,7.447l15.563-9.182l39.381-2.244l-0.346-0.305l-8.25-6.434l7.576-12.349l-22.374-39.182l-88.772,27.964z"/>
					<text transform="matrix(1 0 0 1 1216.9331 775.9976)"><tspan x="0" y="0" style="fill:#000000;stroke:none;">02631</tspan></text>
				</g>
				<g>
					<path d="M1037.47,807.928l-32.06,3.322l15.214,15.82l0.768,7.392l22.623-3.167l0.018-3.018l0.773-10.939l-2.077-8.9l-5.259-0.51z"/>
					<text transform="matrix(1 0 0 1 1020.7935 821.5708)"><tspan x="0" y="0" style="fill:#000000;stroke:none;">02630</tspan></text>
				</g>
				<g>
					<path d="M1044.015,831.295l-22.623,3.167l-3.885,7.972l-12.445,18.047l0.855,3.164l0.844,3.706l6.451,11.651l12.182,2.326l9.094,3.744l16.84,2.654l-3.908-10.201l2.977-5.818l13.605,2.145l-1.582-10.189l-0.281-1.726l-8.936-0.738l4.424-15.817l31.459-11.127
						l-0.252-2.959h-27.472h-17.347z"/>
					<text transform="matrix(1 0 0 1 1024.0601 856.854)"><tspan x="0" y="0" style="fill:#000000;stroke:none;">02601</tspan></text>
				</g>
				<g>
					<path d="M622.142,721.086l-0.853,34.488l2.971,28.066l16.33-8.364l31.122,22.749l-0.334-13.266l12.155-12.346l5.445-3.469l-19.815-18.981l1.872-22.655l-15.478-9.486l-9.782,11.224l-23.634-7.96z"/>
					<text transform="matrix(1 0 0 1 646.7847 762.4272)"><tspan x="0" y="0" style="fill:#000000;stroke:none;">02571</tspan></text>
				</g>
				<g>
					<path d="M725.71,1062.635l-13.857,18.677l-24.576,9.085l-9.355,24.896l23.725,38.168l12.844-7.248l2.813,10.717l1.436-6.431l3.146,14.897l8.76-13.368l-3.996,14.798l8.848,1.937l5.35-17.956l-2.376,26.021l-8.675,2.854l37.84-2.854l-6.891-66.023l36.75-1.33
						l6.457-20.408l7.148,2.039l2.798-9.691l-10.626-28.368l-19.731,10.714l5.698,6.938l-16.324,23.678l-0.17-10.919l9.779-11.839l-8.074,1.635l9.938-7.348l-11.988,1.529l1.787-25.816l-28.23,14.695l7.228-0.51l1.104,19.898l-2.719-10.512l-10.374-4.184
						l3.829-4.594l-19.313,6.223z"/>
					<text transform="matrix(1 0 0 1 725.0562 1107.6499)"><tspan x="0" y="0" style="fill:#000000;stroke:none;">02568</tspan></text>
				</g>
				<g>
					<path d="M1306.105,1227.137l-0.932,15l-35.209,22.553l23.221,20.104l19.471-9.489l4.764-12.349l-0.085-14.49l-11.229-21.328z"/>
					<text transform="matrix(1 0 0 1 1290.5562 1272.4771)"><tspan x="0" y="0" style="fill:#000000;stroke:none;">02564</tspan></text>
				</g>
				<g>
					<path d="M836.177,759.155l27.727,20.408l4.418,21.428l-5.947,15.914l-1.441,5.517l6.117,1.427l-3.914,11.227l15.82,3.691l6.926,15.047l7.617,1.77l15.053-17.956l17.089-20.918l0.261-15.313l-29.854-19.084l-1.362-10.916l8.927-7.447l-41.068-22.049
						l-21.51,2.455l-4.857,14.801z"/>
					<text transform="matrix(1 0 0 1 888.9312 814.6021)"><tspan x="0" y="0" style="fill:#000000;stroke:none;">02563</tspan></text>
				</g>
				<g>
					<path d="M753.167,812.504l-7.98-5.086l8.08,11.227l-19.049,6.018l-13.605,13.676l14.027-0.609l14.461-12.656l0.34,11.836l8.156-3.164l-6.199,11.227l9.867-0.718l16.406-6.627l10.119-29.798l-11.391-2.654l-2.479,3.615l-13.764-16.594l-1.195,24l-5.449-3.478
						l-1.014-6.524l5.361-2.039l-6.463,2.039l1.77,6.311z"/>
					<text transform="matrix(0.9998 -0.0192 0.0192 0.9998 758.4321 829.1821)"><tspan x="0" y="0" style="fill:#000000;stroke:none;">02559</tspan></text>
				</g>
				<g>
					<g>
						<path d="M1224.982,1239.483l-17.01,11.531l-7.313-10.816l6.211-3.469l-11.906-7.342l-74.578,1.629l-13.781,5.915l13.436,3.472l-7.4,12.349l8.08-3.674l-9.943,6.328l2.209-4.901l-14.549,1.737l85.641,33.677l86.484,4.184l22.623-5.309l-23.221-20.104
							l35.209-22.553l0.932-15l-40.816-70.819l-24.152-23.78l21.949,24.188l-5.619,28.474l-27.129,32.651l-25.169,11.637l10.966,4.488l1.957-7.348l18.281-7.752l35.555-47.045l-5.361,8.361l10.125,1.43l7.822,15.205l-12.674,11.021l-16.16,2.754l8.168,10.512
							l11.057,1.02l-10.635,4.289l4.166,1.737l-4.506,5.511l-1.192-12.246l-17.687,10.711l-15.568-1.219l-4.5,8.566z"/>
						<path d="M1071.314,1221.477l8.244,11.578l-17.215,0.202l-14.587-19.283l23.558,7.503z"/>
						<path d="M1020.721,1191.729l-3.237-4.799l20.66,2.244l-11.221,6.223l-6.202-3.668z"/>
					</g>
					<text transform="matrix(1 0 0 1 1155.5562 1256.7271)"><tspan x="0" y="0" style="fill:#000000;stroke:none;">02554</tspan></text>
				</g>
				<g>
					<path d="M722.312,983.859l-22.875,8.669v7.658l3.996,1.324l-0.85-7.957l6.973,1.529l5.531,9.996l2.637-5.713l9.182,7.652l10.969-19.081l-12.926,3.062l-2.637-7.14z"/>
					<text transform="matrix(1 0 0 1 710.3081 999.9399)"><tspan x="0" y="0" style="fill:#000000;stroke:none;">02543</tspan></text>
				</g>
				<g>
					<path d="M739.914,896.302l-10.887,13.878l13.436,3.059l-5.859,5.924l2.291,6.123l-3.744-9.803l-6.715,0.103l7.828,20.514l3.229-3.674l-1.444,10.104l-10.72,13.978l-6.208,23.168l7.403-0.202l-6.211,4.386l2.637,7.14l12.926-3.062l44.982-11.528l-3.059-14.895
						l-9.949-7.354l-1.699-34.494l-9.68-1.436l-7.049,7.881l-1.049-7.359l5.871-15.205l-2.127-6.838l-14.203-0.407z"/>
					<text transform="matrix(1 0 0 1 742.6401 968.1528)"><tspan x="0" y="0" style="fill:#000000;stroke:none;">02540</tspan></text>
				</g>
				<g>
					<path d="M760.744,1110.805l6.891,66.023l93.973,2.552l20.563-2.247h-31.872l10.037-6.633l-8.25-5.815l0.592-16.942l-5.947-8.774l6.879-9.284l2.561,4.893l-3.404-7.544l-0.029-0.073l-0.105-0.059l-35.411-18.551l10.11,10.313l-7.389,2.754l-12.759-10.816
						l0.513-8.37l-10.201,7.245l-36.75,1.33z"/>
					<text transform="matrix(1 0 0 1 800.0562 1157.7271)"><tspan x="0" y="0" style="fill:#000000;stroke:none;">02539</tspan></text>
				</g>
				<g>
					<path d="M655.558,717.823l15.478,9.486l-1.872,22.655l19.815,18.981l-5.445,3.469l8.164,3.674l-9.693,3.369l0.932,9.39l18.711,5.001l-8.159-7.758l11.057,5.104l1.951-5.918l9.612,14.795l11.988,2.347l-18.281,24.694l21.768-26.941l-7.488-8.669l13.271,2.549
						l-19.813-14.083l9.776,1.532l-3.568-3.571l4.418-2.859l15.053,8.262l-1.699-9.076l13.781-3.568l-9.703-16.23v-0.51l-11.133,7.553l-11.824-6.943l9.27-20.713l15.39-1.43l11.997-21.533l-86.067,3.773l-17.684,3.17z"/>
					<text transform="matrix(1 0 0 1 697.0562 763.6021)"><tspan x="0" y="0" style="fill:#000000;stroke:none;">02538</tspan></text>
				</g>
				<g>
					<path d="M903.613,763.948l-8.927,7.447l1.362,10.916l29.854,19.084l-0.261,15.313l7.655-9.39l24.407-29.391l-54.091-13.98z"/>
					<text transform="matrix(1 0 0 1 911.9351 786.4771)"><tspan x="0" y="0" style="fill:#000000;stroke:none;">02537</tspan></text>
				</g>
				<g>
					<path d="M771.551,864.155l-3.319,14.391l-11.988,25.002l-5.871,15.205l1.049,7.359l7.049-7.881l9.68,1.436l1.699,34.494l9.949,7.354l3.059,14.895l34.699-7.652l15.99,6.223L823,968.551l12.328-11.227l0.68-9.082l-18.117,20.104l18.381-27.146l6.545,6.732
						l3.741-4.693l-1.107,9.393l1.107,0.308l0.847,0.612l8.678-6.943l3.82-19.793l-23.045-5.921l-12.325-38.37l-25.878-9.117l-19.072-6.486l-8.03-2.766z"/>
					<text transform="matrix(1 0 0 1 785.4312 920.3521)"><tspan x="0" y="0" style="fill:#000000;stroke:none;">02536</tspan></text>
				</g>
				<g>
					<g>
						<path d="M677.921,1115.293l-16.581,11.634l-30.788,44.903l5.788,6.832l-6.64,17.452l6.214,4.799l-20.584-5.924l1.45-12.243l12.92,0.105v-10.412l-12.239,5.514l-21.599-7.96l-21.344,2.247l-3.146,8.771l31.46,32.449l21.094,12.246l9.773-18.062l20.927-15.612
							l75.168-12.352l8.675-2.854l2.376-26.021l-5.35,17.956l-8.848-1.937l3.996-14.798l-8.76,13.368l-3.146-14.897l-1.436,6.431l-2.813-10.717l-12.844,7.248l-23.725-38.168z"/>
						<path d="M598.921,1278.978l-23.3-9.899l17.6-6.223l8.846,6.527l-3.146,9.595z"/>
					</g>
					<text transform="matrix(1 0 0 1 662.3076 1173.228)"><tspan x="0" y="0" style="fill:#000000;stroke:none;">02535</tspan></text>
				</g>
				<g>
					<g>
						<path d="M761.265,844.253l-12.211,8.159l-0.252-0.094l0.041,0.205l-12.926-4.594l-7.482,7.45l28.23,7.556l-0.932-8.168l4.676,6.431l4.002,0.612l13.26-24.185l-16.406,6.627z"/>
						<path d="M745.275,848.85l-8.59-10.819l9.609-6.015l-1.02,16.834z"/>
					</g>
					<text transform="matrix(1 0 0 1 747.3618 853.7798)"><tspan x="0" y="0" style="fill:#000000;stroke:none;">02534</tspan></text>
				</g>
				<g>
					<path d="M818.154,714.354l-15.311,15.715l-57.234,24.387l9.703,16.23l-2.813,9.486l18.967-7.553l-17.438,8.572l-0.847,9.082l-3.53,2.748l11.092-3.155l-0.586,2.329l13.764,16.594l2.479-3.615l11.391,2.654l-10.119,29.798l-13.26,24.185l7.14,2.344l8.03,2.766
						l12.557-15.53l10.535,15.507l-4.02,6.51l25.878,9.117l8.593-7.857l11.306-22.143l-18.454-5.511l5.531-12.759l14.877-7.245l8.168-13.778l7.822,3.674l5.947-15.914l-4.418-21.428l-27.727-20.408l-17.355-11.273l2.813-8.021l19.477,2.549l21.773-3.466l-6.92-4.128
						l-28.477-16.916l5.854-3.214l-6.855-9.108l-8.332,8.777z"/>
					<text transform="matrix(1 0 0 1 798.6147 798.5503)"><tspan x="0" y="0" style="fill:#000000;stroke:none;">02532</tspan></text>
				</g>
				<g>
					<path d="M414.219,391.371l-2.892,1.332l9.009,49.794l15.987,23.779l7.998-1.222l-2.294-13.267l12.243-11.839v-16.734l-2.72-26.125l-17.178,2.039l-2.896-15.715l-17.257,7.958z"/>
					<text transform="matrix(1 0 0 1 428.041 427.9067)"><tspan x="0" y="0" style="fill:#000000;stroke:none;">02402</tspan></text>
				</g>
				<g>
					<path d="M380.456,406.888l-15.482,7.853l7.655,40.003l1.45,6.939l37.327-5.203l2.47,13.061l22.447-3.265l-15.987-23.779l-9.009-49.794l-30.872,14.186z"/>
					<text transform="matrix(1 0 0 1 390.5571 453.4785)"><tspan x="0" y="0" style="fill:#000000;stroke:none;">02401</tspan></text>
				</g>
				<g>
					<path d="M454.271,423.213v16.734l20.83,10.411l35.978-1.433l-3.744-22.654l8.842-1.529l-11.395-14.489l-50.511,12.959z"/>
					<text transform="matrix(1 0 0 1 476.8745 434.8062)"><tspan x="0" y="0" style="fill:#000000;stroke:none;">02382</tspan></text>
				</g>
				<g>
					<path d="M436.323,466.275l-22.447,3.265l-2.47-13.061l-37.327,5.203l11.9,65.514l1.02,4.693l63.703-30.612l-6.381-36.224l-7.998,1.222z"/>
					<text transform="matrix(1 0 0 1 404.0396 498.6851)"><tspan x="0" y="0" style="fill:#000000;stroke:none;">02379</tspan></text>
				</g>
				<g>
					<path d="M372.629,454.744l-13.008-1.428l3.568,11.43l-30.019-0.51l3.23,17.143l-5.265,6.939l-14.634,0.303l-3.401-14.388l-19.468-1.02l4.078,25.51l2.206,13.575l46.688,5.405l10.802,2.856l28.573,6.636l-11.9-65.514l-1.45-6.939z"/>
					<text transform="matrix(1 0 0 1 333.1821 511.9785)"><tspan x="0" y="0" style="fill:#000000;stroke:none;">02375</tspan></text>
				</g>
				<g>
					<path d="M497.214,351.679l-13.522,6.526l7.994,35.618l13.096,16.431l11.395,14.489l12.59-1.841l-10.459-65.105l13.434-2.039l-5.19-18.47l-29.338,14.392z"/>
					<text transform="matrix(1 0 0 1 497.2109 392.7021)"><tspan x="0" y="0" style="fill:#000000;stroke:none;">02370</tspan></text>
				</g>
				<g>
					<path d="M362.855,303.717l-16.928,3.876l12.331,5.612l-2.294,6.53l20.747,25.308l8.424,9.694l18.193,19.389l11.312-33.877l2.465-18.268l-23.981-8.367l1.784-11.839l-32.054,1.942z"/>
					<text transform="matrix(1 0 0 1 381.7856 334.5508)"><tspan x="0" y="0" style="fill:#000000;stroke:none;">02368</tspan></text>
				</g>
				<g>
					<path d="M553.002,559.751l25,26.429l14.454-5.818l46.173-14.695l-5.779-19.692l-18.795-12.045l-10.116-35.407l-6.974,1.226l-13.008,28.468l-34.194,28.063l3.239,3.472z"/>
					<text transform="matrix(1 0 0 1 585.8501 546.8535)"><tspan x="0" y="0" style="fill:#000000;stroke:none;">02367</tspan></text>
				</g>
				<g>
					<path d="M602.916,495.974l1.024,2.549l10.116,35.407l18.795,12.045l5.779,19.692l4.43,14.594l51.098-51.021l-5.525-14.186l-6.545-3.472l-5.528,7.449l2.215-9.896h-9.356l-7.734-14.999l-32.748-4.39l-26.02,6.227z"/>
					<text transform="matrix(1 0 0 1 640.1885 539.5059)"><tspan x="0" y="0" style="fill:#000000;stroke:none;">02364</tspan></text>
				</g>
				<g>
					<path d="M694.158,529.24l-51.098,51.021l61.484,89.498l-14.118,16.837l-7.824,0.308l-9.36,27.75l86.067-3.773l-11.997,21.533l-1.702,21.533v0.51l57.234-24.387l15.311-15.715l8.332-8.777l-3.146-5.713l-0.768-15.311l14.033-27.961l-5.531-31.534l-8.42-11.834
						l-15.05,4.083l-1.104-16.84l-7.737-10.512l4.676-6.425l-3.568-10.208l-12.586-9.901l-31.38,8.679l-26.877-38.474l18.375,32.757l-15.996-3.164l-37.248-33.979z"/>
					<text transform="matrix(1 0 0 1 731.48 646.3501)"><tspan x="0" y="0" style="fill:#000000;stroke:none;">02360</tspan></text>
				</g>
				<g>
					<path d="M567.113,415.659l-1.617,26.024l6.557,10.411l-8.508,7.141l11.224,33.06l19.986-6.122v-7.453l8.161,17.253l26.02-6.227l8.93-12.349l-6.97-10.507l-11.65-1.938l16.414-32.559l-12.252-2.549l-1.441-8.165l-22.957,2.861l-4.509-12.964l-27.387,4.083z"/>
					<text transform="matrix(1 0 0 1 592.354 458.2773)"><tspan x="0" y="0" style="fill:#000000;stroke:none;">02359</tspan></text>
				</g>
				<g>
					<path d="M600.283,398.415l-5.783,13.162l4.509,12.964l22.957-2.861l1.441,8.165l12.252,2.549l10.116-19.283l-22.786-20l-13.1,10.916l-9.606-5.612z"/>
					<text transform="matrix(1 0 0 1 611.7866 417.2544)"><tspan x="0" y="0" style="fill:#000000;stroke:none;">02358</tspan></text>
				</g>
				<g>
					<path d="M315.654,437.702l-25.849,11.733l3.828,23.779l19.468,1.02l3.401,14.388l14.634-0.303l5.265-6.939l-3.23-17.143l30.019,0.51l-3.568-11.43l13.008,1.428l-7.655-40.003l-49.32,22.961z"/>
					<text transform="matrix(1 0 0 1 322.8682 456.1812)"><tspan x="0" y="0" style="fill:#000000;stroke:none;">02356</tspan></text>
				</g>
				<g>
					<path d="M449.34,374.329l-17.864,9.083l2.896,15.715l17.178-2.039l2.72,26.125l50.511-12.959l-13.096-16.431l-7.994-35.618l-34.352,16.124z"/>
					<text transform="matrix(1 0 0 1 459.7798 395.2114)"><tspan x="0" y="0" style="fill:#000000;stroke:none;">02351</tspan></text>
				</g>
				<g>
					<path d="M401.967,699.864l18.883,17.244l-10.121,20.613l32.568-4.594l56.465-7.348l25.172-3.979l2.048-43.781H514.73v-10.512l-12.327-4.893l4.759-8.473l-2.127-17.043l-61.141-28.876l11.65,46.02l-53.578,45.621z"/>
					<text transform="matrix(1 0 0 1 456.1235 677.4751)"><tspan x="0" y="0" style="fill:#000000;stroke:none;">02347</tspan></text>
				</g>
				<g>
					<path d="M510.652,546.687l-18.286,6.328l-13.953,28.063l-27.804-8.06l-17.433,11.224l5.19,23.063l5.528,0.918l61.141,28.876l2.127,17.043l-4.759,8.473l12.327,4.893v10.512h12.252l-2.048,43.781l102.472-12.551l7.321-2.757l-6.126-16.327l-16.071-11.127
						l-4.17-21.117l-12.929-11.533l-2.127-5.102l7.827-1.63l-9.523-34.189l-13.605-19.288l-25-26.429l-8.253,5.203l-34.097-18.268z"/>
					<text transform="matrix(1 0 0 1 525.6011 638.7432)"><tspan x="0" y="0" style="fill:#000000;stroke:none;">02346</tspan></text>
				</g>
				<g>
					<path d="M414.641,340.249l-11.312,33.877l6.715,2.962l4.175,14.282l17.257-7.958l17.864-9.083l3.744-33.57l-38.443-0.51z"/>
					<text transform="matrix(1 0 0 1 419.8555 370.312)"><tspan x="0" y="0" style="fill:#000000;stroke:none;">02343</tspan></text>
				</g>
				<g>
					<path d="M528.767,422.901l-12.59,1.841l-8.842,1.529l3.744,22.654l10.288,42.451l8.416-6.833l22.627,11.43l22.359-3.678l-11.224-33.06l8.508-7.141l-6.557-10.411l1.617-26.024l-38.347,7.242z"/>
					<text transform="matrix(1 0 0 1 532.7026 460.3164)"><tspan x="0" y="0" style="fill:#000000;stroke:none;">02341</tspan></text>
				</g>
				<g>
					<path d="M531.742,355.757l-13.434,2.039l10.459,65.105l38.347-7.242l27.387-4.083l5.783-13.162l-11.224-20.408l-13.777-1.23l-12.248-25.915l-31.293,4.896z"/>
					<text transform="matrix(1 0 0 1 550.9399 391.3838)"><tspan x="0" y="0" style="fill:#000000;stroke:none;">02339</tspan></text>
				</g>
				<g>
					<path d="M521.366,491.377l-2.461,24.798l-1.793,13.983l-9.264,4.179l2.804,12.349l34.097,18.268l8.253-5.203l-3.239-3.472l34.194-28.063l13.008-28.468l6.974-1.226l-1.024-2.549l-8.161-17.253v7.453l-19.986,6.122l-22.359,3.678l-22.627-11.43l-8.416,6.833z"/>
					<text transform="matrix(1 0 0 1 547.543 526.3398)"><tspan x="0" y="0" style="fill:#000000;stroke:none;">02338</tspan></text>
				</g>
				<g>
					<path d="M454.271,439.948l-12.243,11.839l2.294,13.267l6.381,36.224l46.854,2.246l5.528,10.406l15.82,2.246l2.461-24.798l-10.288-42.451l-35.978,1.433l-20.83-10.411z"/>
					<text transform="matrix(1 0 0 1 473.3457 482.5615)"><tspan x="0" y="0" style="fill:#000000;stroke:none;">02333</tspan></text>
				</g>
				<g>
					<path d="M635.659,432.394l-16.414,32.559l11.65,1.938l6.97,10.507l-8.93,12.349l32.748,4.39l7.734,14.999h9.356l20.493-16.022l6.545,13.469l8.93-3.775l-1.184-10.714l-6.129-0.409l6.041-5.818l-0.17-22.346l16.752,1.63l-17.35-5.915l0.34-8.165l0.938,6.53
						l5.438-0.712l-5.438-8.169l-10.717,4.803l-57.488-40.412l-10.116,19.283z"/>
					<text transform="matrix(1 0 0 1 666.2964 465.625)"><tspan x="0" y="0" style="fill:#000000;stroke:none;">02332</tspan></text>
				</g>
				<g>
					<path d="M638.63,565.667l-46.173,14.695l9.101,15.816l-9.949,9.29l9.523,34.189l-7.827,1.63l2.127,5.102l12.929,11.533l4.17,21.117l16.071,11.127l26.956,27.656l17.684-3.17l9.36-27.75l7.824-0.308l14.118-16.837l-61.484-89.498l-4.43-14.594z"/>
					<text transform="matrix(1 0 0 1 639.7271 646.2446)"><tspan x="0" y="0" style="fill:#000000;stroke:none;">02330</tspan></text>
				</g>
				<g>
					<path d="M450.702,501.278l-63.703,30.612l3.661,17.859l42.517,34.493l17.433-11.224l27.804,8.06l13.953-28.063l18.286-6.328l-2.804-12.349l9.264-4.179l1.793-13.983l-15.82-2.246l-5.528-10.406l-46.854-2.246z"/>
					<text transform="matrix(1 0 0 1 444.6011 547.2622)"><tspan x="0" y="0" style="fill:#000000;stroke:none;">02324</tspan></text>
				</g>
				<g>
					<path d="M385.136,354.738l-12.841,22.144l8.161,30.006l30.872-14.186l2.892-1.332l-4.175-14.282l-6.715-2.962l-18.193-19.389z"/>
					<text transform="matrix(1 0 0 1 384.9058 385.3149)"><tspan x="0" y="0" style="fill:#000000;stroke:none;">02322</tspan></text>
				</g>
				<g>
					<path d="M387.43,157.379l6.209,7.651l7.73-2.856l11.821-4.078l-18.114-8.064l-7.646,7.348z"/>
					<text transform="matrix(1 0 0 1 393.4004 160.7837)"><tspan x="0" y="0" style="fill:#000000;stroke:none;">02210</tspan></text>
				</g>
				<g>
					<path d="M239.202,189.424l-19.477,12.854l5.194,17.657l31.289-10.718l-7.479-9.593l-8.508-2.14l-1.02-8.06z"/>
					<text transform="matrix(1 0 0 1 229.417 211.0176)"><tspan x="0" y="0" style="fill:#000000;stroke:none;">02194</tspan></text>
				</g>
				<g>
					<path d="M149.145,108.09l4.592,65.821l1.279,18.369l48.643-14.594l10.538-13.166l-2.118-12.959l-6.126-1.121l-7.479-20.615l7.313-15.715l-12.757-9.694l-22.707,0.202l-7.313,7.449l-13.865-3.977z"/>
					<text transform="matrix(1 0 0 1 169.3701 151.791)"><tspan x="0" y="0" style="fill:#000000;stroke:none;">02193</tspan></text>
				</g>
				<g>
					<path d="M219.726,202.278l-36.387,30.924l-5.792,6.526l25.26,5.616l5.019,7.141l-0.51-5.102l7.229,5.102l21.085-3.568l0.681-1.125l11.654-9.492l17.684-0.409l7.572-11.43l-2.641-2.549l-14.37-14.695l-31.289,10.718l-5.194-17.657z"/>
					<text transform="matrix(1 0 0 1 217.0347 231.8843)"><tspan x="0" y="0" style="fill:#000000;stroke:none;">02192</tspan></text>
				</g>
				<g>
					<path d="M475.615,315.956l-8.503-0.611l-2.215,14.7l-9.352-8.367l-2.461,19.081l-3.744,33.57l34.352-16.124l13.522-6.526l3.23-25.414l-24.829-10.31z"/>
					<text transform="matrix(1 0 0 1 466.5386 349.3413)"><tspan x="0" y="0" style="fill:#000000;stroke:none;">02190</tspan></text>
				</g>
				<g>
					<path d="M374.501,235.853l-33.759,10.103l-4.342,1.837l3.911,11.536l-14.454,9.281l3.318,4.592l-7.146,6.737l23.897,27.655l16.928-3.876l-8.846-9.699l33.926-15.609l-6.715-13.166l25.255-17.244l-2.461-2.553l-1.749-1.09l-5.48-14.625l-9.022-0.716
						l-6.97,10.613l-6.293-3.775z"/>
					<text transform="matrix(1 0 0 1 350.4014 276.8052)"><tspan x="0" y="0" style="fill:#000000;stroke:none;">02186</tspan></text>
				</g>
				<g>
					<path d="M460.309,262.488l-2.979,7.752l-52.295,9.699l-10.125,21.836l-1.784,11.839l23.981,8.367l-2.465,18.268l38.443,0.51l2.461-19.081l11.224-49.192l-6.372-2.958l0.844-6.732l-0.932-0.308z"/>
					<text transform="matrix(1 0 0 1 421.0273 310.4526)"><tspan x="0" y="0" style="fill:#000000;stroke:none;">02184</tspan></text>
				</g>
				<g>
					<path d="M203.659,177.687l-48.643,14.594l16.071,43.673l7.058-12.142l5.194,9.391l36.387-30.924l19.477-12.854l1.02-0.716l-19.468-8.473l-17.095-2.549z"/>
					<text transform="matrix(1 0 0 1 184.77 207.8228)"><tspan x="0" y="0" style="fill:#000000;stroke:none;">02181</tspan></text>
				</g>
				<g>
					<path d="M331.386,1.347l6.464,27.76l-6.038,20.61l28.49,8.881l3.146,0.712l3.485-30.814l2.043-14.186L356.563,0.943l-9.36-0.817l-15.816,1.222z"/>
					<text transform="matrix(1 0 0 1 342.8311 22.2197)"><tspan x="0" y="0" style="fill:#000000;stroke:none;">02180</tspan></text>
				</g>
				<g>
					<path d="M253.827,97.882l7.229,2.76l6.807,17.859l33.504,10.92l-4.588-11.43l3.485-9.391l3.397-5.304l-42.855-14.084l-6.979,8.67z"/>
					<text transform="matrix(1 0 0 1 273.8926 111.3159)"><tspan x="0" y="0" style="fill:#000000;stroke:none;">02178</tspan></text>
				</g>
				<g>
					<path d="M366.934,28.497l-3.485,30.814l-0.681,5.203l48.894-6.122l-23.977-31.635l-20.751,1.739z"/>
					<text transform="matrix(1 0 0 1 375.3638 52.1392)"><tspan x="0" y="0" style="fill:#000000;stroke:none;">02176</tspan></text>
				</g>
				<g>
					<path d="M278.406,67.173l-17.6,22.039l42.855,14.084l7.743,3.775l7.479-6.737l1.793-11.733l-8.596-4.083l-6.293-16.84l-27.382-0.505z"/>
					<text transform="matrix(1 0 0 1 282.3901 91.624)"><tspan x="0" y="0" style="fill:#000000;stroke:none;">02174</tspan></text>
				</g>
				<g>
					<path d="M208.08,31.555l-6.548,11.839l4.676,36.123l47.619,18.365l6.979-8.67l17.6-22.039l3.661-3.986l-10.125-9.791l-12.41-16.329l-31.043-24.492l-20.408,18.98z"/>
					<text transform="matrix(1 0 0 1 233.4438 59.7285)"><tspan x="0" y="0" style="fill:#000000;stroke:none;">02173</tspan></text>
				</g>
				<g>
					<path d="M435.049,241.974l-1.362,1.02l-2.852,3.226l-7.273-1.419l2.646,3.199l-2.162,1.701l-0.576,0.224l-11.72,3.683l-5.273-5.607l-25.255,17.244l6.715,13.166l-33.926,15.609l8.846,9.699l32.054-1.942l10.125-21.836l52.295-9.699l2.979-7.752L439.9,251.976
						l11.9-2.958l14.968,9.286l3.234-5.208l-7.313-5.607l12.327-1.024l-2.799-20.004v8.372l-15.231,8.574l-20.663-2.25l-1.274,0.817z"/>
					<text transform="matrix(1 0 0 1 406.1621 269.5894)"><tspan x="0" y="0" style="fill:#000000;stroke:none;">02169</tspan></text>
				</g>
				<g>
					<path d="M282.915,164.318l-5.95,17.244l7.313,6.838l-1.279,15.311l5.783,1.63l20.663,4.184l4.592-5.405l11.057-16.739l-24.064-12.858l-10.459-3.27l-1.701-9.382l-5.955,2.448z"/>
					<text transform="matrix(1 0 0 1 292.6777 193.1978)"><tspan x="0" y="0" style="fill:#000000;stroke:none;">02167</tspan></text>
				</g>
				<g>
					<path d="M317.267,137.991l0.514,2.962l10.375-5.309l-6.381-5.001l-4.509,7.348z"/>
					<text transform="matrix(1 0 0 1 309.9556 136.9858)"><tspan x="0" y="0" style="fill:#000000;stroke:none;">02163</tspan></text>
				</g>
				<g>
					<path d="M263.952,164.626l-11.821,3.16l-3.656,0.918l2.804,6.227l14.115,12.041l-6.627,10.613l3.652,11.94l-6.209-0.308l14.37,14.695l18.202-18.571l-5.783-1.63l1.279-15.311l-7.313-6.838l5.95-17.244l-18.962,0.308z"/>
					<text transform="matrix(1 0 0 1 258.5894 176.6802)"><tspan x="0" y="0" style="fill:#000000;stroke:none;">02159</tspan></text>
				</g>
				<g>
					<path d="M331.813,49.718l-8.165,18.272l-17.859-0.312l6.293,16.84l8.596,4.083l4.676-2.856l-0.598,8.06l14.625,10.815l29.171,3.265l2.808-18.875l-12.502-4.794l1.446-25.616l-28.49-8.881z"/>
					<text transform="matrix(1 0 0 1 330.2246 83.3052)"><tspan x="0" y="0" style="fill:#000000;stroke:none;">02155</tspan></text>
				</g>
				<g>
					<path d="M206.208,79.517l-6.038,14.388l-5.95-1.837l-1.191,12.349l12.757,9.694l-7.313,15.715l7.479,20.615l6.126,1.121l14.454-5.405l20.834-7.554l0.932-0.409l19.564-19.692l-6.807-17.859l-7.229-2.76l-47.619-18.365z"/>
					<text transform="matrix(1 0 0 1 219.6816 117.9795)"><tspan x="0" y="0" style="fill:#000000;stroke:none;">02154</tspan></text>
				</g>
				<g>
					<path d="M435.734,72.679l-10.635-2.14l-7.651-17.455l-5.788,5.309l4.425,6.732l-6.807,14.493l-4.245,9.593l18.791,13.166l-0.255,5.304l10.463-1.635l11.395,10.002l4.245-3.265l-8.499-15.816l5.783-16.124l-0.167-8.569l-11.057,0.404z"/>
					<text transform="matrix(1 0 0 1 419.0029 89.0664)"><tspan x="0" y="0" style="fill:#000000;stroke:none;">02151</tspan></text>
				</g>
				<g>
					<path d="M371.359,89.009l-2.808,18.875l1.529,5.818l15.899,3.674l19.055-28.165l4.245-9.593l-37.92,9.391z"/>
					<text transform="matrix(1 0 0 1 379.9941 97.728)"><tspan x="0" y="0" style="fill:#000000;stroke:none;">02149</tspan></text>
				</g>
				<g>
					<path d="M360.302,58.599l-1.446,25.616l12.502,4.794l37.92-9.391l6.807-14.493l-4.425-6.732l-48.894,6.122l0.681-5.203l-3.146-0.712z"/>
					<text transform="matrix(1 0 0 1 379.1226 78.2031)"><tspan x="0" y="0" style="fill:#000000;stroke:none;">02148</tspan></text>
				</g>
				<g>
					<path d="M339.38,104.619l3.146,7.756l21.942,10.103l5.612-8.776l-1.529-5.818l-29.171-3.265z"/>
					<text transform="matrix(1 0 0 1 348.9321 115.416)"><tspan x="0" y="0" style="fill:#000000;stroke:none;">02145</tspan></text>
				</g>
				<g>
					<path d="M332.999,116.356l4.258,5.304l6.201,6.737l8.938,2.145l18.703,0.817l-6.631-8.881l-21.942-10.103l-9.527,3.981z"/>
					<text transform="matrix(1 0 0 1 343.7026 126.3672)"><tspan x="0" y="0" style="fill:#000000;stroke:none;">02143</tspan></text>
				</g>
				<g>
					<path d="M352.396,130.542l4.843,7.449l13.008-1.635l5.871-3.467l-5.019-1.529l-18.703-0.817z"/>
					<text transform="matrix(1 0 0 1 355.3438 135.8311)"><tspan x="0" y="0" style="fill:#000000;stroke:none;">02141</tspan></text>
				</g>
				<g>
					<path d="M343.458,128.397l-9.945,12.243l5.269,11.94l16.761-1.63l5.014-1.938l-3.318-11.021l-4.843-7.449l-8.938-2.145z"/>
					<text transform="matrix(1 0 0 1 337.5283 142.8525)"><tspan x="0" y="0" style="fill:#000000;stroke:none;">02139</tspan></text>
				</g>
				<g>
					<path d="M313.448,231.669l-3.744,5.818l4.25,11.325l-8.675,0.918l6.803,22.043l9.949,8.165l7.146-6.737l-3.318-4.592l14.454-9.281l-3.911-11.536l4.342-1.837l-1.529-9.185l-25.765-5.102z"/>
					<text transform="matrix(1 0 0 1 314.6592 260.3037)"><tspan x="0" y="0" style="fill:#000000;stroke:none;">02136</tspan></text>
				</g>
				<g>
					<path d="M310.89,139.929l-21.168,5.717l-5.194,8.771l4.342,7.453l1.701,9.382l10.459,3.27l12.502-16.528l4.25-17.042l-0.514-2.962l-6.376,1.938z"/>
					<text transform="matrix(1 0 0 1 291.7227 158.3838)"><tspan x="0" y="0" style="fill:#000000;stroke:none;">02135</tspan></text>
				</g>
				<g>
					<path d="M328.156,135.644l-10.375,5.309l-4.25,17.042l16.242-4.496l9.009-0.918l-5.269-11.94l-5.357-4.997z"/>
					<text transform="matrix(1 0 0 1 318.8062 147.6323)"><tspan x="0" y="0" style="fill:#000000;stroke:none;">02134</tspan></text>
				</g>
				<g>
					<path d="M288.781,205.341l-18.202,18.571l2.641,2.549l11.738,4.803l0.422,8.873l13.1,12.041l6.798-2.448l8.675-0.918l-4.25-11.325l3.744-5.818l-5.788-10.103l1.784-12.041l-20.663-4.184z"/>
					<text transform="matrix(1 0 0 1 283.9194 228.7598)"><tspan x="0" y="0" style="fill:#000000;stroke:none;">02132</tspan></text>
				</g>
				<g>
					<path d="M309.444,209.525l-1.784,12.041l5.788,10.103l25.765,5.102l14.032-17.855l-2.043-5.616l-12.076,6.227l-6.627-2.958l2.799-9.189l-6.715,5.41l-14.546-8.67l-4.592,5.405z"/>
					<text transform="matrix(1 0 0 1 320.5991 227.9453)"><tspan x="0" y="0" style="fill:#000000;stroke:none;">02131</tspan></text>
				</g>
				<g>
					<path d="M336.831,173.811l-11.738,13.57l-11.057,16.739l14.546,8.67l6.715-5.41l-2.799,9.189l6.627,2.958l12.076-6.227l-4.764-8.161l6.038-4.794l-1.274-6.741l-5.867-6.223l3.74-6.429l-10.547-7.958l-1.696,0.817z"/>
					<text transform="matrix(1 0 0 1 326.8237 197.4287)"><tspan x="0" y="0" style="fill:#000000;stroke:none;">02130</tspan></text>
				</g>
				<g>
					<path d="M370.08,113.702l-5.612,8.776l6.631,8.881l5.019,1.529l5.95,2.958l10.459-8.266l-10.371-4.794l10.288,1.731l-6.464-7.141l-15.899-3.674z"/>
					<text transform="matrix(1 0 0 1 372.3037 127.0264)"><tspan x="0" y="0" style="fill:#000000;stroke:none;">02129</tspan></text>
				</g>
				<g>
					<g>
						<path d="M383.853,159.625l-2.206,3.059l2.039,15.412l10.121,4.487l0.598-6.016l25.677-1.635l4.931-6.126l-3.995-5.506l-23.726,3.876l4.078-5.001l-7.73,2.856l-6.209-7.651l-3.577,2.246z"/>
						<path d="M423.315,197.176l-4.847-3.775l15.473-7.963l-10.626,11.738z"/>
						<path d="M445.851,186.361l-5.019-7.348l6.724-1.02l-1.705,8.367z"/>
					</g>
					<text transform="matrix(1 0 0 1 396.6201 173.041)"><tspan x="0" y="0" style="fill:#000000;stroke:none;">02127</tspan></text>
				</g>
				<g>
					<path d="M360.896,165.237l-22.368,7.756l10.547,7.958l14.203-9.795l-2.382-5.919z"/>
					<text transform="matrix(1 0 0 1 341.626 176.1782)"><tspan x="0" y="0" style="fill:#000000;stroke:none;">02120</tspan></text>
				</g>
				<g>
					<path d="M364.552,161.77l-3.656,3.467l2.382,5.919l13.351,8.468l7.058-1.529l-2.039-15.412l-4.592-4.588l-12.502,3.674z"/>
					<text transform="matrix(1 0 0 1 365.4116 169.0498)"><tspan x="0" y="0" style="fill:#000000;stroke:none;">02118</tspan></text>
				</g>
				<g>
					<path d="M376.118,132.889l-5.871,3.467l-1.529,7.044l14.968-1.529l-1.187-5.208l-0.431-0.817l-5.95-2.958z"/>
					<text transform="matrix(1 0 0 1 371.0732 139.644)"><tspan x="0" y="0" style="fill:#000000;stroke:none;">02114</tspan></text>
				</g>
				<g>
					<path d="M368.718,143.4l-1.103,2.958l10.375,6.429l3.568-3.063l1.529-1.731l2.641-4.491l-2.043-1.63l-14.968,1.529z"/>
					<text transform="matrix(1 0 0 1 369.6821 148.9785)"><tspan x="0" y="0" style="fill:#000000;stroke:none;">02108</tspan></text>
				</g>
				<g>
					<path d="M127.805,420.251l-24.324,50.818l-57.744,4.9l-2.127,18.268l65.232-1.024l78.829-26.736l3.059-38.47l-25.853-8.262l-37.072,0.505z"/>
					<text transform="matrix(1 0 0 1 143.0571 459.1035)"><tspan x="0" y="0" style="fill:#000000;stroke:none;">02093</tspan></text>
				</g>
				<g>
					<path d="M235.629,248.917l-16.238,56.738l9.606,16.427l6.548-2.65l1.617-17.451l15.565-7.554l1.613,4.9l27.294-3.573l20.158,15.816l7.563-12.652l-73.046-51.126l-0.681,1.125z"/>
					<text transform="matrix(1 0 0 1 256.0229 289.4395)"><tspan x="0" y="0" style="fill:#000000;stroke:none;">02090</tspan></text>
				</g>
				<g>
					<path d="M204.002,307.795l-4.764,53.064l-24.073-0.918l2.979,23.88l12.586,28.266l28.661-15.609l10.802,1.02l6.034-19.389l11.052-8.881l-14.968-7.958l23.133-17.143l-20.58-16.734l-0.593,11.123l-5.273-16.431l-9.606-16.427l-15.39,2.14z"/>
					<text transform="matrix(1 0 0 1 201.3286 382.498)"><tspan x="0" y="0" style="fill:#000000;stroke:none;">02081</tspan></text>
				</g>
				<g>
					<path d="M376.711,345.043l-24.746,16.326l-45.492,9.694l15.051,33.372l-5.871,33.267l49.32-22.961l15.482-7.853l-8.161-30.006l12.841-22.144l-8.424-9.694z"/>
					<text transform="matrix(1 0 0 1 337.4536 395.875)"><tspan x="0" y="0" style="fill:#000000;stroke:none;">02072</tspan></text>
				</g>
				<g>
					<path d="M268.118,359.532l-20.839,9.694l-11.052,8.881l-6.034,19.389l-0.092,6.122l28.068,32.045l8.332-8.165l-4.847,21.63l4.337,11.738l23.814-11.43l25.849-11.733l5.871-33.267l-15.051-33.372l-12.164-2.958l-12.243-22.759l-7.576-2.14l0.097,12.757
						l-6.469,3.568z"/>
					<text transform="matrix(1 0 0 1 267.4619 406.5405)"><tspan x="0" y="0" style="fill:#000000;stroke:none;">02067</tspan></text>
				</g>
				<g>
					<g>
						<path d="M580.385,307.593l-8.763,6.324l20.237-0.817l29.338,11.329l22.456,20.408l14.884,1.428l0.422,0.514l0.765,0.404l16.247-5.915l-3.744-18.677l4.333-13.061l-6.746,1.072l-1.582-7.91l9.176,2.351l-35.2-25.616l-10.542-27.145l-4.939,1.02l0.769,14.489
							l-10.204,1.736l-1.362,12.959l-35.543,25.106z"/>
						<path d="M697.404,375.862l-10.039-20.514l-9.013-4.794l5.695-3.88l21.343,36.945l-2.291,1.02l-5.695-8.776z"/>
					</g>
					<text transform="matrix(1 0 0 1 631.1563 315.4609)"><tspan x="0" y="0" style="fill:#000000;stroke:none;">02066</tspan></text>
				</g>
				<g>
					<path d="M228.998,322.082l5.273,16.431l0.593-11.123l20.58,16.734l12.674,15.407l6.469-3.568l-0.097-12.757l7.576,2.14l11.988-9.791l-3.234-5.924l10.973-18.062l-20.158-15.816l-27.294,3.573l-1.613-4.9l-15.565,7.554l-1.617,17.451l-6.548,2.65z"/>
					<text transform="matrix(1 0 0 1 257.0425 331.4819)"><tspan x="0" y="0" style="fill:#000000;stroke:none;">02062</tspan></text>
				</g>
				<g>
					<path d="M526.552,337.287l5.19,18.47l31.293-4.896l12.248,25.915l13.777,1.23l11.224,20.408l9.606,5.612l13.1-10.916l-8.934-29.391l4.676-10.819l10.89,2.654l14.032-10.718l-22.456-20.408L591.859,313.1l-20.237,0.817l-45.07,23.37z"/>
					<text transform="matrix(1 0 0 1 574.5986 348.6968)"><tspan x="0" y="0" style="fill:#000000;stroke:none;">02061</tspan></text>
				</g>
				<g>
					<path d="M144.641,360.143l-19.811,17.455l-11.057-3.678l-3.911,2.448l17.943,43.884l37.072-0.505l25.853,8.262l4.337-6.631l-4.337-9.29l-12.586-28.266l-2.979-23.88l-30.524,0.202z"/>
					<text transform="matrix(1 0 0 1 144.1118 398.4766)"><tspan x="0" y="0" style="fill:#000000;stroke:none;">02056</tspan></text>
				</g>
				<g>
					<path d="M106.118,316.571l-16.84,3.779l1.872,9.791l22.623,43.778l11.057,3.678l19.811-17.455l7.4-10.811l-1.872-10.002l12.674-8.372l-22.025-23.366l-34.699,8.978z"/>
					<text transform="matrix(1 0 0 1 117.7095 347.0957)"><tspan x="0" y="0" style="fill:#000000;stroke:none;">02054</tspan></text>
				</g>
				<g>
					<path d="M26.775,352.492L26.691,377.8l31.206-3.063l15.315-4.592l11.988,5.612l5.95-5.405l18.712,6.016l3.911-2.448L91.15,330.142l-23.638-0.611l-28.666,21.634l-12.072,1.327z"/>
					<text transform="matrix(1 0 0 1 61.8813 358.1655)"><tspan x="0" y="0" style="fill:#000000;stroke:none;">02053</tspan></text>
				</g>
				<g>
					<path d="M140.817,307.593l22.025,23.366l-12.674,8.372l1.872,10.002l-7.4,10.811l30.524-0.202l24.073,0.918l4.764-53.064l-0.765-15.306l-57.489,0.51L133.755,298l7.062,9.593z"/>
					<text transform="matrix(1 0 0 1 165.5586 319.6841)"><tspan x="0" y="0" style="fill:#000000;stroke:none;">02052</tspan></text>
				</g>
				<g>
					<path d="M643.653,344.837l-14.032,10.718l-10.89-2.654l-4.676,10.819l8.934,29.391l22.786,20l57.488,40.412l10.717-4.803l1.512-1.586l17.027-9.224l2.209-6.842l-15.896-11.839l-2.643-13.975l-9.521,4.794l-3.568-25.409l-5.695-8.776l-12.764-8.064l-0.088-8.161
						l-11.39-2.452l5.014-1.327l-5.181-9.593l-13.271,0.918l-0.765-0.404l-0.422-0.514l-14.884-1.428z"/>
					<text transform="matrix(1 0 0 1 651.5571 387.1035)"><tspan x="0" y="0" style="fill:#000000;stroke:none;">02050</tspan></text>
				</g>
				<g>
					<path d="M265.991,460.866l-76.79,36.33l3.828,22.961l6.034-1.736l4.676,8.473l9.189,14.489l84.784-42.658l-4.078-25.51l-3.828-23.779l-23.814,11.43z"/>
					<text transform="matrix(1 0 0 1 235.105 499.9111)"><tspan x="0" y="0" style="fill:#000000;stroke:none;">02048</tspan></text>
				</g>
				<g>
					<path d="M581.404,242.176l-26.877-7.545l-21.34-38.575l-22.79,2.347l-11.312,3.775l9.949,4.285l21.595-4.588l-1.529,11.118l8.934,14.287l-10.802,3.168l19.815-0.51l-1.617,7.04l10.375,2.856l-9.945,5.102l7.813,3.164l9.105-0.101l5.44-7.453l13.184,1.63z"/>
					<text transform="matrix(1 0 0 1 531.894 226.5801)"><tspan x="0" y="0" style="fill:#000000;stroke:none;">02045</tspan></text>
				</g>
				<g>
					<path d="M491.853,260.348l10.292,8.873l-3.401,12.656l6.807,0.817l-5.106,43.572l-3.23,25.414l29.338-14.392l45.07-23.37l8.763-6.324l-11.909-12.656l-10.802-27.145l10.547-3.775l-6.719-4.285l1.279-11.733l-10.371,1.02l-0.519,6.732l-17.517-23.058
						l-2.975,3.977l9.268,13.166l-5.779,10.714l-14.796-9.8l1.951-6.526l-15.306,1.121l-0.593,7.449l-14.291,7.554z"/>
					<text transform="matrix(1 0 0 1 527.7676 296.686)"><tspan x="0" y="0" style="fill:#000000;stroke:none;">02043</tspan></text>
				</g>
				<g>
					<path d="M57.897,374.737l-11.562,62.046l-0.598,39.186l57.744-4.9l24.324-50.818l-17.943-43.884l-18.712-6.016l-5.95,5.405l-11.988-5.612l-15.315,4.592z"/>
					<text transform="matrix(1 0 0 1 78.4224 427.5596)"><tspan x="0" y="0" style="fill:#000000;stroke:none;">02038</tspan></text>
				</g>
				<g>
					<path d="M195.068,421.376l-4.337,6.631l-3.059,38.47l1.187,25.51l0.343,5.208l76.79-36.33l-4.337-11.738l4.847-21.63l-8.332,8.165l-28.068-32.045l-27.804,7.857l-7.229,9.901z"/>
					<text transform="matrix(1 0 0 1 218.731 454.9067)"><tspan x="0" y="0" style="fill:#000000;stroke:none;">02035</tspan></text>
				</g>
				<g>
					<path d="M171.087,235.954l4.764,23.269l-25.172,0.817l2.553,14.489l-11.571,12.854l4.087,5.616l57.489-0.51l0.765,15.306l15.39-2.14l16.238-56.738l-21.085,3.568l-7.229-5.102l0.51,5.102l-5.019-7.141l-25.26-5.616l5.792-6.526l-5.194-9.391l-7.058,12.142z"/>
					<text transform="matrix(1 0 0 1 180.2964 270.3057)"><tspan x="0" y="0" style="fill:#000000;stroke:none;">02030</tspan></text>
				</g>
				<g>
					<path d="M236.311,247.792l73.046,51.126l12.674-18.98l-9.949-8.165l-6.803-22.043l-6.798,2.448l-13.1-12.041l-0.422-8.873l-11.738-4.803l-7.572,11.43l-17.684,0.409l-11.654,9.492z"/>
					<text transform="matrix(1 0 0 1 270.8193 267.1943)"><tspan x="0" y="0" style="fill:#000000;stroke:none;">02026</tspan></text>
				</g>
				<g>
					<path d="M562.78,247.999l-1.279,11.733l6.719,4.285l-10.547,3.775l10.802,27.145l11.909,12.656l35.543-25.106l1.362-12.959l-8.503-2.246l8.328-8.574l-4.5-5.612l-31.21-10.92l-13.184-1.63l-5.44,7.453z"/>
					<text transform="matrix(1 0 0 1 579.1353 278.5718)"><tspan x="0" y="0" style="fill:#000000;stroke:none;">02025</tspan></text>
				</g>
				<g>
					<path d="M309.356,298.918l-7.563,12.652l-10.973,18.062l3.234,5.924l-11.988,9.791l12.243,22.759l12.164,2.958l45.492-9.694l24.746-16.326l-20.747-25.308l2.294-6.53l-12.331-5.612l-23.897-27.655l-12.674,18.98z"/>
					<text transform="matrix(1 0 0 1 321.0356 330.001)"><tspan x="0" y="0" style="fill:#000000;stroke:none;">02021</tspan></text>
				</g>
				<g>
					<path d="M26.691,377.8L6.96,392.395l-6.798,3.467l4.504,10.305l4.843,40.206l0.176,48.476l33.926-0.611l2.127-18.268l0.598-39.186l11.562-62.046L26.691,377.8z"/>
					<text transform="matrix(1 0 0 1 20.6782 439.293)"><tspan x="0" y="0" style="fill:#000000;stroke:none;">02019</tspan></text>
				</g>
				<g>
					<path d="M503.34,852.934l-46.521,5.912l1.446,6.328l44.477-0.1l0.848-9.393l-0.25-2.748z"/>
					<text transform="matrix(1 0 0 1 471.856 863.5542)"><tspan x="0" y="0" style="fill:#000000;stroke:none;">02746</tspan></text>
				</g>
				<g>
					<g>
						<path d="M816.455,1108.35l1.014-0.609l0.088-0.51l-0.428-0.817l-0.85-1.02l-0.938-1.632l-0.504-0.615l-1.611-2.854l-0.861-1.939l-0.674-1.84l-0.343-1.934l-0.173-0.612v-0.513l-0.164-1.33l-0.17-0.51l-1.025,0.103l0.088,2.042l-0.258,1.945l0.258,0.709
							l1.107,1.02l0.422,0.82l0.176,0.917v1.228l0.422,1.321l1.102,1.022l0.428,1.529l0.85,1.225l1.104,2.042l0.091,0.302l0.334,0.51h0.516z"/>
						<path d="M812.71,1110.19l-0.252-0.199l0.252-0.413l0.516-0.407l0.422-0.715h0.51l0.252,0.516l-0.164,0.305l-0.771,0.715l-0.765,0.199z"/>
						<path d="M804.373,1097.434l-0.337-0.404v-0.516l0.249-0.507l0.598-0.302l0.258,0.199v0.715l-0.422,0.715l-0.346,0.1z"/>
					</g>
					<text transform="matrix(1 0 0 1 807.187 1107.1021)"><tspan x="0" y="0" style="fill:#000000;stroke:none;">02557</tspan></text>
				</g>
				<g>
					<path d="M492.116,907.833l0.501,2.247l7.405-3.267l9.013,18.366l9.87,4.591l-11.232-27.144l-8.077-5.203l-7.479,10.409z"/>
					<text transform="matrix(1 0 0 1 512.0571 914.856)"><tspan x="0" y="0" style="fill:#000000;stroke:none;">02744</tspan></text>
				</g>
				<g>
					<path d="M681.068,677.613l-18.962-4.995l1.617-7.963l19.978,1.635l-2.633,11.323z"/>
					<text transform="matrix(1 0 0 1 664.5562 671.6353)"><tspan x="0" y="0" style="fill:#000000;stroke:none;">02366</tspan></text>
				</g>
				<g>
					<path d="M627.406,709.25l-5.265,11.836l23.634,7.96l9.782-11.224l-26.956-27.656l6.126,16.327l-7.321,2.757z"/>
					<text transform="matrix(1 0 0 1 631.4976 719.6099)"><tspan x="0" y="0" style="fill:#000000;stroke:none;">02576</tspan></text>
				</g>
				<g>
					<path d="M747.311,732.413l-15.39,1.43l-9.27,20.713l11.824,6.943l11.133-7.553l1.702-21.533z"/>
					<text transform="matrix(1 0 0 1 728.1323 746.9585)"><tspan x="0" y="0" style="fill:#000000;stroke:none;">02558</tspan></text>
				</g>
				<g>
					<path d="M821.634,739.86l-2.813,8.021l17.355,11.273l4.857-14.801l0.076-1.945l-19.477-2.549z"/>
					<text transform="matrix(1 0 0 1 823.1187 749.5073)"><tspan x="0" y="0" style="fill:#000000;stroke:none;">02561</tspan></text>
				</g>
				<g>
					<path d="M833.341,714.685l-5.854,3.214l28.477,16.916l-22.623-20.13z"/>
					<text transform="matrix(1 0 0 1 827.8784 720.2544)"><tspan x="0" y="0" style="fill:#000000;stroke:none;">02562</tspan></text>
				</g>
				<g>
					<path d="M806.5,600.467l11.906,4.083l6.973-17.042l-25.509-14.186l3.568,10.208l-4.676,6.425l7.737,10.512z"/>
					<text transform="matrix(1 0 0 1 803.7241 593.4355)"><tspan x="0" y="0" style="fill:#000000;stroke:none;">02381</tspan></text>
				</g>
				<g>
					<path d="M806.5,600.467l1.104,16.84l15.05-4.083l-4.248-8.675l-11.906-4.083z"/>
					<text transform="matrix(1 0 0 1 805.7261 610.8867)"><tspan x="0" y="0" style="fill:#000000;stroke:none;">02345</tspan></text>
				</g>
				<g>
					<path d="M578.003,586.18l13.605,19.288l9.949-9.29l-9.101-15.816l-14.454,5.818z"/>
					<text transform="matrix(1 0 0 1 581.4292 591.917)"><tspan x="0" y="0" style="fill:#000000;stroke:none;">02355</tspan></text>
				</g>
				<g>
					<path d="M715.492,447.133l4.189,5.471l2.719,6.016l0.598-13.162l5.355,0.303l-2.127,10.92l7.655-0.611l-2.3,7.348l30.873,33.877l-21.094,21.634l21.434-14.388l11.391,4.491l-35.716-45l-5.95-26.125l-17.027,9.224z"/>
					<text transform="matrix(1 0 0 1 736.4878 482.9219)"><tspan x="0" y="0" style="fill:#000000;stroke:none;">02041</tspan></text>
				</g>
				<g>
					<path d="M703.099,384.638l3.568,25.409l9.521-4.794l2.643,13.975l15.896,11.839l6.205-2.65l-3.146-9.8l-32.396-34.998l-2.291,1.02z"/>
					<text transform="matrix(1 0 0 1 713.6655 411.8447)"><tspan x="0" y="0" style="fill:#000000;stroke:none;">02065</tspan></text>
				</g>
				<g>
					<path d="M334.361,659.452l-1.956,23.063l-9.268,16.324l11.909,2.25l5.098-40.002l-5.783-1.635z"/>
					<text transform="matrix(1 0 0 1 321.9321 697.6021)"><tspan x="0" y="0" style="fill:#000000;stroke:none;">02715</tspan></text>
				</g>
				<g>
					<path d="M273.989,773.95l-2.646,22.348l-4.333,0.812l0.936,14.695l29.167-15.715l2.553-2.651l-25.677-19.488z"/>
					<text transform="matrix(1 0 0 1 274.9897 797.3755)"><tspan x="0" y="0" style="fill:#000000;stroke:none;">02725</tspan></text>
				</g>
				<g>
					<path d="M308.592,819.969l6.64,17.449l17.266,1.84l-0.264-27.246l-23.643,7.957z"/>
					<text transform="matrix(1 0 0 1 315.6943 828.1353)"><tspan x="0" y="0" style="fill:#000000;stroke:none;">02723</tspan></text>
				</g>
				<g>
					<path d="M295.25,813.741l-5.704-3.158l-12.674,16.834l20.927-1.324l-3.832,12.146l7.484,3.873l-14.37,1.228l-3.652,7.755l35.965,7.992l0.088-5.341l-7.4-7.649l5.616-7.148l14.625,0.92l0.176-0.609l-17.266-1.84l-6.64-17.449l-13.342-6.229z"/>
					<text transform="matrix(1 0 0 1 296.8071 853.104)"><tspan x="0" y="0" style="fill:#000000;stroke:none;">02721</tspan></text>
				</g>
				<g>
					<path d="M276.872,827.417l-10.116,16.535l20.325-0.612l14.37-1.228l-7.484-3.873l3.832-12.146l-20.927,1.324z"/>
					<text transform="matrix(1 0 0 1 272.7866 840.1489)"><tspan x="0" y="0" style="fill:#000000;stroke:none;">02724</tspan></text>
				</g>
				<g>
					<path d="M760.41,861.199l-11.736,12.445l-1.611-4.588l-17.098,4.69l-2.039,8.168l7.822-3.981l1.948,7.26l-4.163-0.319l6.381,11.429l14.203,0.407l2.127,6.838l11.988-25.002l3.319-14.391l-7.14-2.344l-4.002-0.612z"/>
					<text transform="matrix(1 0 0 1 743.8882 884.8765)"><tspan x="0" y="0" style="fill:#000000;stroke:none;">02556</tspan></text>
				</g>
				<g>
					<path d="M779.582,866.92l19.072,6.486l4.02-6.51l-10.535-15.507l-12.557,15.53z"/>
					<text transform="matrix(1 0 0 1 791.1187 866.897)"><tspan x="0" y="0" style="fill:#000000;stroke:none;">02542</tspan></text>
				</g>
				<g>
					<path d="M900.979,892.321l-12.835,31.635l12.662,9.182l14.549-20.303l11.479-2.244l-5.358-10.822l-9.267,3.064l-11.229-10.512z"/>
					<text transform="matrix(1 0 0 1 899.1382 911.729)"><tspan x="0" y="0" style="fill:#000000;stroke:none;">02635</tspan></text>
				</g>
				<g>
					<path d="M1006.773,867.421l1.102,13.468l2.895,7.857l3.996,5.818l19.723-9.492l-9.094-3.744l-12.182-2.326l-6.451-11.651l0.012,0.07z"/>
					<text transform="matrix(1 0 0 1 1014.3657 886.7095)"><tspan x="0" y="0" style="fill:#000000;stroke:none;">02647</tspan></text>
				</g>
				<g>
					<path d="M1260.188,819.767l17.856,11.634l-4.764,15.205l25.939,15.715l3.398-5.209l-10.541-7.752l6.721-7.043l-11.736-6.527l1.699-11.941l-16.5-5.203l-12.073,1.122z"/>
					<text transform="matrix(1 0 0 1 1279.1401 844.9829)"><tspan x="0" y="0" style="fill:#000000;stroke:none;">02669</tspan></text>
				</g>
				<g>
					<path d="M181.208,544.34l-2.808-20.101l-16.497,4.896l-4.852,31.43l4.939-0.813l19.217-15.412z"/>
					<text transform="matrix(1 0 0 1 161.8071 542.2285)"><tspan x="0" y="0" style="fill:#000000;stroke:none;">02763</tspan></text>
				</g>
				<g>
					<path d="M230.193,397.497l-10.802-1.02l-28.661,15.609l4.337,9.29l7.229-9.901l27.804-7.857l0.092-6.122z"/>
					<text transform="matrix(1 0 0 1 202.1108 413.4268)"><tspan x="0" y="0" style="fill:#000000;stroke:none;">02071</tspan></text>
				</g>
				<g>
					<path d="M255.444,344.125l-23.133,17.143l14.968,7.958l20.839-9.694l-12.674-15.407z"/>
					<text transform="matrix(1 0 0 1 241.8638 361.1758)"><tspan x="0" y="0" style="fill:#000000;stroke:none;">02032</tspan></text>
				</g>
				<g>
					<path d="M461.24,262.795l-0.844,6.732l6.372,2.958l6.979-1.731l3.735,6.631l13.017-3.573l0.932-13.162l-5.014-0.409l1.956-6.227l12.836-2.751l-4.333-7.453l-0.598,6.227l-35.038,12.757z"/>
					<text transform="matrix(1 0 0 1 472.4536 268.5991)"><tspan x="0" y="0" style="fill:#000000;stroke:none;">02191</tspan></text>
				</g>
				<g>
					<path d="M491.431,260.651l-0.932,13.162l-13.017,3.573l9.606,13.166l-11.474,25.405l24.829,10.31l5.106-43.572l-6.807-0.817l3.401-12.656l-10.292-8.873l-0.422,0.303z"/>
					<text transform="matrix(1 0 0 1 497.1362 293.2275)"><tspan x="0" y="0" style="fill:#000000;stroke:none;">02189</tspan></text>
				</g>
				<g>
					<path d="M466.769,272.485l-11.224,49.192l9.352,8.367l2.215-14.7l8.503,0.611l11.474-25.405l-9.606-13.166l-3.735-6.631l-6.979,1.731z"/>
					<text transform="matrix(1 0 0 1 471.9702 307.8994)"><tspan x="0" y="0" style="fill:#000000;stroke:none;">02188</tspan></text>
				</g>
				<g>
					<path d="M248.563,187.078l8.161-0.409l-7.994,12.955l7.479,9.593l6.209,0.308l-3.652-11.94l6.627-10.613l-14.115-12.041l-6.891,9.593l4.175,2.553z"/>
					<text transform="matrix(1 0 0 1 253.2983 206.2905)"><tspan x="0" y="0" style="fill:#000000;stroke:none;">02161</tspan></text>
				</g>
				<g>
					<path d="M240.222,188.708l-1.02,0.716l1.02,8.06l8.508,2.14l7.994-12.955l-8.161,0.409l-8.341,1.63z"/>
					<text transform="matrix(1 0 0 1 238.063 193.7422)"><tspan x="0" y="0" style="fill:#000000;stroke:none;">02164</tspan></text>
				</g>
				<g>
					<path d="M234.192,167.074l-3.494,8.367l-5.779-3.467l-4.166,8.262l19.468,8.473l8.341-1.63l-4.175-2.553l6.891-9.593l-2.804-6.227l-14.282-1.63z"/>
					<text transform="matrix(1 0 0 1 227.877 180.1206)"><tspan x="0" y="0" style="fill:#000000;stroke:none;">02168</tspan></text>
				</g>
				<g>
					<path d="M214.197,164.521l-10.538,13.166l17.095,2.549l4.166-8.262l-10.723-7.453z"/>
					<text transform="matrix(1 0 0 1 206.9546 176.8677)"><tspan x="0" y="0" style="fill:#000000;stroke:none;">02162</tspan></text>
				</g>
				<g>
					<path d="M212.079,151.561l2.118,12.959l10.723,7.453l5.779,3.467l3.494-8.367l-7.405-13.065l5.612-4.693l-5.867-3.16l-14.454,5.405z"/>
					<text transform="matrix(1 0 0 1 214.4424 163.3516)"><tspan x="0" y="0" style="fill:#000000;stroke:none;">02166</tspan></text>
				</g>
				<g>
					<path d="M353.245,218.916l-14.032,17.855l1.529,9.185l33.759-10.103l-21.256-16.937z"/>
					<text transform="matrix(1 0 0 1 346.835 234.9336)"><tspan x="0" y="0" style="fill:#000000;stroke:none;">02126</tspan></text>
				</g>
				<g>
					<path d="M352.476,200.345l-6.038,4.794l4.764,8.161l2.043,5.616l21.256,16.937l6.293,3.775l6.97-10.613l9.022,0.716l2.971-6.939l-13.777,0.202l-4.509-15.205l-9.352-3.366l-10.626,6.021l-9.018-10.099z"/>
					<text transform="matrix(1 0 0 1 365.0347 222.9893)"><tspan x="0" y="0" style="fill:#000000;stroke:none;">02124</tspan></text>
				</g>
				<g>
					<path d="M399.756,222.792l-2.971,6.939l5.48,14.625l1.617-3.028l10.081-6.078l2.83-5.392l1.424-4.417l-4.175-7.242l12.753-3.779l-0.932-9.589l14.801-6.535l-20.584,5.005l-6.205,9.079l-14.036-7.141l7.743,10.099l-6.636,6.328l-1.191,1.125z"/>
					<text transform="matrix(1 0 0 1 400.3765 227.3286)"><tspan x="0" y="0" style="fill:#000000;stroke:none;">02171</tspan></text>
				</g>
				<g>
					<path d="M416.794,229.858l-2.83,5.392l-10.081,6.078l-1.617,3.028l1.749,1.09l2.461,2.553l5.273,5.607l11.72-3.683l0.576-0.224l2.162-1.701l-2.646-3.199l7.273,1.419l2.852-3.226l1.362-1.02l1.274-0.817l-18.105-15.715l-1.424,4.417z"/>
					<text transform="matrix(1 0 0 1 410.9478 244.0264)"><tspan x="0" y="0" style="fill:#000000;stroke:none;">02170</tspan></text>
				</g>
				<g>
					<path d="M372.462,200.542l-0.343,3.88l9.352,3.366l4.509,15.205l13.777-0.202l1.191-1.125l-4.843-17.855l-8.077-2.958l-7.998-5.924l-7.567,5.612z"/>
					<text transform="matrix(1 0 0 1 381.8486 214.2959)"><tspan x="0" y="0" style="fill:#000000;stroke:none;">02122</tspan></text>
				</g>
				<g>
					<path d="M351.201,193.604l1.274,6.741l9.018,10.099l10.626-6.021l0.343-3.88l-6.46-9.18l-10.38-3.573l-4.421,5.814z"/>
					<text transform="matrix(1 0 0 1 353.147 201.1187)"><tspan x="0" y="0" style="fill:#000000;stroke:none;">02121</tspan></text>
				</g>
				<g>
					<path d="M376.628,179.625l-10.626,11.738l6.46,9.18l7.567-5.612l7.998,5.924l5.612,0.303l1.437-10.002l10.208,1.635l-11.479-10.208l-10.121-4.487l-7.058,1.529z"/>
					<text transform="matrix(1 0 0 1 375.2944 191.1265)"><tspan x="0" y="0" style="fill:#000000;stroke:none;">02125</tspan></text>
				</g>
				<g>
					<path d="M363.277,171.156l-14.203,9.795l-3.74,6.429l5.867,6.223l4.421-5.814l10.38,3.573l10.626-11.738l-13.351-8.468z"/>
					<text transform="matrix(1 0 0 1 352.855 186.8799)"><tspan x="0" y="0" style="fill:#000000;stroke:none;">02119</tspan></text>
				</g>
				<g>
					<path d="M445.429,116.049l-7.313,6.021l-1.45,11.531l20.153-1.121l-0.765,16.022l17.007,12.858l-14.282-16.124l-1.701-25.414l4.417-3.467l-11.821-3.573l-4.245,3.265z"/>
					<text transform="matrix(1 0 0 1 438.9331 129.291)"><tspan x="0" y="0" style="fill:#000000;stroke:none;">02152</tspan></text>
				</g>
				<g>
					<path d="M258.934,139.01l-2.549,5.616l9.431,6.016l-1.863,13.983l18.962-0.308l5.955-2.448l-4.342-7.453l5.194-8.771l-30.788-6.636z"/>
					<text transform="matrix(1 0 0 1 268.2026 154.1665)"><tspan x="0" y="0" style="fill:#000000;stroke:none;">02158</tspan></text>
				</g>
				<g>
					<path d="M247.367,138.602l4.764,29.184l11.821-3.16l1.863-13.983l-9.431-6.016l2.549-5.616l-10.635-0.817l-0.932,0.409z"/>
					<text transform="matrix(1 0 0 1 252.1611 161.7075)"><tspan x="0" y="0" style="fill:#000000;stroke:none;">02160</tspan></text>
				</g>
				<g>
					<path d="M226.533,146.156l5.867,3.16l-5.612,4.693l7.405,13.065l14.282,1.63l3.656-0.918l-4.764-29.184l-20.834,7.554z"/>
					<text transform="matrix(1 0 0 1 230.8276 158.7275)"><tspan x="0" y="0" style="fill:#000000;stroke:none;">02165</tspan></text>
				</g>
				<g>
					<path d="M356.475,153.706l-1.872,10.512l-9.352-1.327l-8.42,10.92l1.696-0.817l22.368-7.756l3.656-3.467l-1.02-1.74l-0.848-0.404l-1.446-0.308l-0.343-0.712l-0.422-1.226l1.362-0.308l-5.361-3.366z"/>
					<text transform="matrix(1 0 0 1 344.2173 168.6035)"><tspan x="0" y="0" style="fill:#000000;stroke:none;">02115</tspan></text>
				</g>
				<g>
					<path d="M357.239,137.991l3.318,11.021l7.058-2.654l1.103-2.958l1.529-7.044l-13.008,1.635z"/>
					<text transform="matrix(1 0 0 1 355.7671 142.438)"><tspan x="0" y="0" style="fill:#000000;stroke:none;">02142</tspan></text>
				</g>
				<g>
					<path d="M1006.773,867.421l-7.233,16.942l3.319,0.917l5.016-4.392l-1.102-13.468z"/>
					<text transform="matrix(1 0 0 1 992.5884 880.355)"><tspan x="0" y="0" style="fill:#000000;stroke:none;">02636</tspan></text>
				</g>
				<g>
					<path d="M1002.859,885.281l7.91,3.466l-2.895-7.857l-5.016,4.392z"/>
					<text transform="matrix(1 0 0 1 991.5142 887.6753)"><tspan x="0" y="0" style="fill:#000000;stroke:none;">02672</tspan></text>
				</g>
				<g>
					<path d="M1179.296,847.227l-0.305,1.113l6.524,13.582l15.911-3.993l-3.17-7.755l4.717-0.938l-3.486-3.709l-10.811,4.031l-0.264-10.746l-5.748,8.502l-3.369-0.088z"/>
					<text transform="matrix(1 0 0 1 1181.5376 856.8687)"><tspan x="0" y="0" style="fill:#000000;stroke:none;">02671</tspan></text>
				</g>
				<g style="fill:#000000;stroke:none;">
					<path style="fill:#FFFFFF;stroke:#000000;" d="M383.088,147.993l-1.529,1.731l6.469,3.981l4.166-8.675l-9.105,2.962z"/>
					<g>
						<text transform="matrix(1 0 0 1 398.6543 149.9785)"><tspan x="0" y="0">02110</tspan></text>
						<path d="M387.968,148.928l9-1.5"/>
					</g>
				</g>
				<g>
					<path d="M360.557,149.012l-5.014,1.938l0.932,2.755l5.361,3.366l1.613-0.716l1.868-0.611l0.853,1.736l-0.431,0.514l-2.206,2.035l1.02,1.74l12.502-3.674l0.936-5.309l-10.375-6.429l-7.058,2.654z"/>
					<text transform="matrix(1 0 0 1 359.2007 154.0659)"><tspan x="0" y="0" style="fill:#000000;stroke:none;">02116</tspan></text>
				</g>
				<g>
					<path d="M361.836,157.072l1.696,2.958l2.206-2.035l0.431-0.514l-0.853-1.736l-1.868,0.611l-1.613,0.716z"/>
					<text transform="matrix(1 0 0 1 356.5264 160.0156)"><tspan x="0" y="0" style="fill:#000000;stroke:none;">02199</tspan></text>
				</g>
				<g>
					<path d="M338.782,152.581l-9.009,0.918l12.753,2.039l2.725,7.352l9.352,1.327l1.872-10.512l-0.932-2.755l-16.761,1.63z"/>
					<text transform="matrix(1 0 0 1 340.835 156.2114)"><tspan x="0" y="0" style="fill:#000000;stroke:none;">02215</tspan></text>
				</g>
				<g>
					<path d="M377.99,152.787l-0.936,5.309l4.592,4.588l2.206-3.059l4.175-5.919l-6.469-3.981l-3.568,3.063z"/>
					<text transform="matrix(1 0 0 1 377.1904 157.8545)"><tspan x="0" y="0" style="fill:#000000;stroke:none;">02111</tspan></text>
				</g>
			</g>
			<text transform="matrix(1 0 0 1 823.6851 502.4951)"><tspan x="0" y="0" style="fill:#000000;stroke:none; font-size:54;">02</tspan></text>
		</g>
	</g>
</svg>
