<?xml version="1.0" encoding="iso-8859-1"?>
<!DOCTYPE svg >

<svg  width="802.431pt" height="537.627pt" viewBox="0 0 802.431 537.627" xml:space="preserve">
	<g id="Layer_x0020_1" style="fill-rule:nonzero;clip-rule:nonzero;fill:#FFFFFF;stroke:#000000;stroke-miterlimit:4; font-family:'Arial'; font-size:10;">
		<g>
			<path d="M85.012,92.69L89.458,0.5h188.72l14.819,3.705h77.699l3.705,18.501h25.912l3.705-18.501h96.204l135.63-0.562L578.606,79.41l-23.129,62.432l-16.174,71.718h-76.342l-50.886,34.678l-48.553-16.174l-37.006-4.626l-36.087-98.552L157.652,67.829L85.012,92.69
				z"/>
			<text transform="matrix(1 0 0 1 402.5938 129.1025)"><tspan x="0" y="0" style="fill:#000000;stroke:none;">060</tspan></text>
		</g>
		<g>
			<path d="M147.84,268.296l76.906,7.696l46.259-30.051l-2.332,16.172l32.381,43.965l25.461-78.641l37.006,4.626l48.553,16.174l50.886-34.678h76.342l62.434,34.678l-18.504,78.637l-32.38,18.505l13.876,27.754l-1.591,1.139l-11.094,29.598l-59.215,3.705
				l-51.808-7.389l-18.503,11.094l-37.006-3.705l-44.416,3.705l-3.704-22.209H318.89l-14.8,33.304l-44.414,25.911l-7.392,14.802l-37.006-7.392l-25.912,25.894l-26.526-3.109l6.396-56.756l-18.504-20.835l18.504-18.501l-43.964-69.391l16.208-11.545l6.361-33.156z"/>
			<text transform="matrix(1 0 0 1 415.3164 350.708)"><tspan x="0" y="0" style="fill:#000000;stroke:none;">064</tspan></text>
		</g>
		<g>
			<path d="M75.165,265.187l72.676,3.109l-6.361,33.156l-16.208,11.545l43.964,69.391l-18.504,18.501l18.504,20.835l-6.396,56.756l-25.281-0.593l-37.005,40.708l-62.919,18.504l-18.504-7.39L0.627,485.291l74.013-44.413l18.504-11.094l-25.893-44.419v-33.301
				l7.914-86.878z"/>
			<text transform="matrix(1 0 0 1 68.3774 484.8604)"><tspan x="0" y="0" style="fill:#000000;stroke:none;">068</tspan></text>
		</g>
		<g>
			<path d="M800.648,130.294l-50.886,4.626L601.737,248.237l-18.504,78.637l-32.38,18.505l13.876,27.754l-1.591,1.139l14.799,18.504l18.505,3.705l29.614-7.41v-14.799l33.303,11.094l33.303-3.684l76.761-16.699l1.176-3.395l-13.88-23.129l20.908-2.891l0.144-9.399
				l18.504-7.405v-88.815v-22.206l3.703-40.71l-0.92-35.597l1.591-1.142z"/>
			<text transform="matrix(1 0 0 1 685.9097 309.0771)"><tspan x="0" y="0" style="fill:#000000;stroke:none;">063</tspan></text>
		</g>
		<g>
			<path d="M85.012,92.69l72.64-24.861l132.776,61.057l36.087,98.552l-25.461,78.641l-32.381-43.965l2.332-16.172l-46.259,30.051l-77.446-8.476l-72.135-2.33l3.181-75.949l6.667-96.547z"/>
			<text transform="matrix(1 0 0 1 177.0664 209.5869)"><tspan x="0" y="0" style="fill:#000000;stroke:none;">067</tspan></text>
		</g>
		<g>
			<path d="M635.851,3.644l19.803,0.562l14.799,3.702l48.863-1.409l76.958-2.293v14.799l2.783,112.432l1.591-1.142l-50.886,4.626L601.737,248.237l-62.434-34.678l16.174-71.718l23.129-62.432l57.245-75.766z"/>
			<text transform="matrix(1 0 0 1 676.6577 112.4434)"><tspan x="0" y="0" style="fill:#000000;stroke:none;">062</tspan></text>
		</g>
	</g>
</svg>
