<?xml version="1.0" encoding="iso-8859-1"?>
<!DOCTYPE svg >

<svg  width="800.814pt" height="489.082pt" viewBox="0 0 800.814 489.082" xml:space="preserve">
	<g id="Layer_x0020_1" style="fill-rule:nonzero;clip-rule:nonzero;fill:#FFFFFF;stroke:#000000;stroke-miterlimit:4;">
		<g>
			<g>
				<path d="M649.289,288.832l12.525,4.813l1.445,0.962l0.484,3.371l1.199,0.963l9.872,4.333l10.356,6.503l6.503-1.199l5.783,3.854l9.63,1.925l5.295,3.368l6.748,1.689l10.595,6.023l12.523,5.054l15.654,16.617l1.93,13.487l-0.482,7.223l2.887,0.243l7.702-1.688
					l2.654,0.725l1.444,4.574l0.96,8.909l4.099,2.406l1.199,3.135l6.503,2.886l13.491,8.193l-0.245,2.886L795.231,409l-12.281,6.503l-4.818,5.062l-4.573,2.641l-4.339,5.064l-8.188,0.959l-6.985,3.854l-8.669,2.887l-5.538,0.482l-6.258-1.685l-6.503,1.685
					l-9.155,8.192l-4.091,1.199l-10.362,8.676l-6.495,1.687l-6.266,5.535l-1.444,3.132l-0.479,6.021l-2.654,2.651l-2.404,5.054l-3.129,2.169l-6.748,7.223l-1.679,0.48l-1.927-5.778l-13.733-7.223l-3.369-3.134h-9.149l-1.927-4.094l-4.094-4.334l-1.207-11.796
					l4.336-29.62l-4.818-9.64l-0.479-7.945l-3.129-0.964l-2.41-6.503l0.48-2.649l-4.571-12.767l-5.306-4.333l-0.96-3.129l-2.164-2.164l-1.687-4.336l0.482-4.821l1.924-3.604l6.748-3.859l2.644-4.815l7.468-2.162l5.778-11.081l9.632-8.675l0.73-4.571l-1.936-3.134
					l0.726-0.479l-0.965,0.479l-6.982-8.188l-3.614-10.597l1.444-7.22l2.17-4.821l2.889-2.409l4.094,0.728z"/>
				<path d="M334.771,79.792l3.615,1.682l3.132,3.377l0.962,1.924v3.609l2.408,1.689l2.889,4.576l0.725,3.129l1.927-0.482l2.163,1.932l0.963,5.296l-1.445-0.48l-0.719,1.199l1.444,5.541l4.091,1.442l1.687,3.617h2.169l1.927,1.444l2.889-1.687l-3.131-2.164
					l1.205-1.927l4.579,1.682l1.682-1.445l1.443,0.48l-2.888,3.137l1.206,4.091l3.607,1.45l-0.482,4.811l1.209,1.927l5.059,4.576l3.606,0.722l-1.199,2.649l-3.854,2.407h-2.404l-1.689,2.654l-1.69-2.409l-1.682-0.725l-5.059,2.406l-7.704,1.924l-3.378-4.088
					l-4.816-1.444l0.245-3.374l-1.929-0.485l-1.201-1.679l-1.926-0.482l-3.854,2.646l-4.578-0.722l-0.963-3.849l3.129-0.965l0.725-2.169l-1.928-2.169l-0.962-0.237l-0.725,1.2l-2.888-1.924l1.687,5.059l-5.784-2.892l-1.927,0.482l1.208,1.924l3.369,0.728
					l2.409,1.927l-0.237,6.258l-4.579-1.924l-5.541,0.725l-6.258,2.164l-2.407-0.72l-1.21-6.748l-3.129-5.295l-4.092-1.444l-3.614-7.71l-4.575-1.924l-2.166-2.889l-0.245-8.913l-5.296-6.26l3.853-1.442l7.947-0.48l11.074,0.962l1.208-0.725l0.245-2.412l6.259-4.573
					l1.443-2.647l3.372-3.131l2.649-1.689l3.372-0.482l1.207-1.927l0.963-0.235l1.201,1.924z"/>
				<path d="M136.814,8.746l1.206,3.859l1.924,1.199l1.202,3.134l-4.332,8.667l-2.172,2.169l0.726,12.763h-3.131l0.242,2.652l-4.577,3.851l-1.443,2.889l-3.371,0.722l-5.784,3.854l-1.682-2.167l-6.741-1.93l-5.54,0.723l-5.541-1.922l-1.206,1.922l-0.481-0.24
					l-7.468-8.427L79.737,41.5l-2.407-1.927l-4.816-1.202l-1.208-3.13l-3.608-3.615l0.482-5.058l6.26-5.536l1.442-4.819l2.409-2.889l7.71-2.889l5.053-3.853l4.821-1.443l1.681-2.414l2.649-0.239l1.691-1.443l1.445,0.237l0.72,1.445l4.82,1.932l2.888-1.932h7.467
					l5.294-2.165l2.653,1.687l4.572,0.962l1.924,2.411l2.896,1.444l0.239,1.681z"/>
				<path d="M28.442,34.032l1.689,2.409L25.555,41.5l-0.482,3.611l1.202,3.616l-6.26,3.129l-5.296,0.482l-4.579,6.98L9.66,62.933L7.49,67.029l-6.742-3.856l-0.244-5.296l2.895-6.505l6.498-6.26l3.856-0.243l0.238-2.404l3.851-1.447l3.133-5.296l2.892-2.651h0.962
					l0.725,1.207l2.164-0.728l0.724,0.482z"/>
				<path d="M23.145,29.944l0.965,0.718l-0.965-0.718z"/>
				<path d="M471.561,153.244l1.837,2.211l6.395,2.263l5.271,3.006l2.259,3.387l4.516,1.126l0.37-1.883l-2.633-3.003l1.73-2.535l-5.053-1.682l-1.685-4.339l-2.896-1.447l-0.237,3.374l-1.688,1.45l-8.186-1.929z"/>
				<path d="M583.785,190.571l5.538,0.479l1.444,2.652l5.778,5.059l7.228,1.201l0.965,3.369l1.444,1.689l4.813,0.235l11.319,6.022l2.896,4.579l-0.245,2.889l-2.892,5.783l-7.71,6.98l-9.387,3.131l-1.93,1.445l-9.392-1.202l-13.971,7.225l-6.016-1.21l-5.301,2.415
					l-6.498-1.205l-3.374-2.892l-1.444-5.783l0.725-10.354l-4.338-11.319l-3.611-0.482l-5.296,1.93l-7.228-2.892l-2.164-1.924l-4.339-0.723l-1.445-0.965l-0.959-3.129l-5.78-4.815l-2.173-6.021l0.73-3.369l5.293-9.637h2.651l0.718-3.132h2.651l2.892-2.646
					l11.802,9.632l6.742,13.006l4.094-0.725l3.369-1.925l5.538,0.479l3.134-3.374l3.849-1.444l7.713-0.479l2.164,1.444z"/>
				<path d="M540.194,239.7l2.889,2.164l-1.444,6.269l2.17,1.924l-0.726,1.445l-5.535,0.722l-2.406-1.93l-1.685,1.447l-5.544,0.965l-1.689,1.444l-5.296-3.134l4.816-5.538l7.713-2.644l4.091-3.38l2.646,0.245z"/>
				<path d="M489.381,192.741l5.298,3.129l7.948,7.225l2.651,4.576l-6.266,8.667l-7.708,3.854l-9.388-0.479l-3.372-6.261l0.721-6.26l-0.721-2.415l-1.443-1.682l-8.19-3.851l-0.237-4.339l1.443-1.447l4.579-0.962l14.685,0.245z"/>
				<path d="M491.305,157.817l-1.73,2.535l2.633,3.003l-0.37,1.883l-4.516-1.126l-2.259-3.387l-5.271-3.006l-6.395-2.263l-1.837-2.211l-14.929-0.24l-5.542-1.207l-1.926-0.722l-2.408-3.129l-3.134,1.205l-5.05-0.243l2.162,2.652v2.889l-1.925,2.649l-5.06,3.129
					l-1.685,6.748l0.723,1.442l6.747,0.237l6.738-1.679l6.742,0.959l9.636-2.169h4.095l28.413,9.152l3.619-0.479l13.24-4.821l8.192-11.071l-4.823-0.482l-2.404-1.689l-3.129,0.482l-2.17-1.202l-6.021,2.644l-10.359-0.48z"/>
			</g>
			<text transform="matrix(1 0 0 1 405.2642 145.6167)"><tspan x="0" y="0" style="fill:#000000;stroke:none; font-family:'Arial'; font-size:10;">967</tspan></text>
		</g>
	</g>
</svg>
