<?xml version="1.0" encoding="iso-8859-1"?>
<!DOCTYPE svg >

<svg  width="801.608pt" height="357.014pt" viewBox="0 0 801.608 357.014" xml:space="preserve">
	<g id="Layer_x0020_1" style="fill-rule:nonzero;clip-rule:nonzero;fill:#FFFFFF;stroke:#000000;stroke-miterlimit:4; font-family:'Arial'; font-size:10;">
		<g>
			<path d="M437.706,53.586l12.302,22.673l15.676-1.208l22.306,30.15l-6.628-1.208l-7.235,5.432l4.824,1.207l-6.028,7.833l11.451,12.06v21.108l-11.451,9.647l0.495,39.796l0.099,32.559l-14.471-6.028l-14.472,3.009l-8.438-5.422l-12.659-1.206l-12.059-7.843
				l-2.411-6.628l7.235-12.058l-15.08-15.08l-63.913,9.051l-12.656,18.087l-21.107,0.597l-6.628-12.655l-0.967-26.172l4.825-0.967l1.926-7.715h5.789l1.933-2.897l-1.933-6.75l4.826-5.789l4.821-3.859l-2.892-4.821l1.927-3.864l7.721,2.897l5.79-1.932l-3.863-2.892
				l-1.927-1.931l0.965-3.858h8.683l1.927,6.755l1.931,11.573l6.755,4.824l9.647,0.966l3.859,4.822l7.717-3.856h3.857l4.824-8.683v-8.686l2.897-4.824l8.681-14.471l3.858-0.96l3.856,1.927l8.688-6.75l0.959-6.755l2.899-7.715l11.575-4.824l6.753-8.687l0.965-6.75
				l-1.93-13.505l3.859-4.824l9.647-2.898z"/>
			<text transform="matrix(1 0 0 1 406.9341 159.7354)"><tspan x="0" y="0" style="fill:#000000;stroke:none;">400-401</tspan></text>
		</g>
		<g>
			<path d="M134.656,307.795l9.769,25.564l-9.769-25.564l31.962-12.042v-0.018l-21.707-34.364l27.129-23.52l-15.068-7.835l1.802-5.43l-10.245-9.039l-6.029,3.975l-3.862,3.858l-7.717,0.967l-20.259,5.787h-2.893l-4.824,1.928l-2.897,1.93l-0.961,2.894l-0.965,5.789
				l-1.932,4.824l-0.966,3.859l1.931,3.856l4.824,6.756l0.966,3.857v4.822l-2.897,6.756l-2.893,0.965l-5.788-0.965l-2.893-1.932l-6.754-4.824l-9.647-2.892l-1.927-0.965l-6.754-3.858l-3.857-2.897l-8.683-2.892h-8.685l-8.683,5.789l-9.647,16.397l0.966,9.647
				l8.682,4.824l0.967,9.647l-5.791,9.647l1.932,3.863v6.748l-4.824,12.545v7.716l-5.79,3.858L7.438,337.216l-6.754,18.333l6.754,0.962l52.095-0.962l3.857-0.965l30.873,1.927l4.824-0.962h46.305l-0.967-22.189l-9.769-25.564z"/>
			<text transform="matrix(0.9999 -0.0159 0.0159 0.9999 79.3696 317.8418)"><tspan x="0" y="0" style="fill:#000000;stroke:none;">420</tspan></text>
		</g>
		<g>
			<path d="M142.5,219.522l-5.789-9.647l-2.898-6.754l0.968-9.647l13.503-12.539l11.579,0.965l0.966-15.436l3.859-2.897l8.682,5.789l9.647-2.892l2.897,3.856l-0.966,4.825l4.824,1.931l2.892-2.897l0.965-7.715l-1.93-3.859l1.93-3.862h2.893l1.931,4.824h5.791
				l5.789-1.928l6.752,0.966l7.719,3.859l1.927,1.927l-4.339,10.373l4.824,4.824l-21.707,18.087l10.854,10.855l10.853,22.911l-9.647,18.089l7.236,7.235l-2.412,7.234l-34.971,1.207l-10.854,22.911l-9.646,3.637v-0.018l-21.707-34.364l27.129-23.52l-15.068-7.835
				l1.802-5.43l-10.245-9.039l-6.029,3.975z"/>
			<text transform="matrix(1 0 0 1 179.3735 228.4707)"><tspan x="0" y="0" style="fill:#000000;stroke:none;">424</tspan></text>
		</g>
		<g>
			<path d="M226.428,168.389l6.756,5.789l9.646,2.897l1.928,4.824l3.862-0.965l6.75-14.471l4.824-3.859l18.328-7.719l8.686,10.612l8.683-0.966v6.756l0.967,26.172l6.628,12.655l-3.011,4.227l-4.824-3.02l-2.412,4.227l7.835,19.293l-29.542,23.511l-6.029,9.646
				l4.823,6.031l-4.823,6.028l-33.766,3.617l-9.647-15.677l2.412-7.234l-7.236-7.235l9.647-18.089l-10.853-22.911l-10.854-10.855l21.707-18.087l-4.824-4.824l4.339-10.373z"/>
			<text transform="matrix(1 0 0 1 249.3179 227.2646)"><tspan x="0" y="0" style="fill:#000000;stroke:none;">423</tspan></text>
		</g>
		<g>
			<path d="M144.425,333.359l41.488,4.822h3.857l33.766-0.966h23.151h4.824l32.801-0.961l22.19,1.927l18.329-1.927h21.222l24.119,1.927l22.192,1.931l32.799-0.966L407.8,315.029l5.423-9.038l19.293-16.885l-25.921-18.696l-33.168-2.412l-24.119-25.323l-31.354,1.812
				l-3.009-4.822l-13.872-4.824l-29.542,23.511l-6.029,9.646l4.823,6.031l-4.823,6.028l-33.766,3.617l-9.647-15.677l-34.971,1.207l-10.854,22.911l-9.646,3.637l-31.962,12.042l9.769,25.564l-9.769-25.564l9.769,25.564z"/>
			<text transform="matrix(1 0 0 1 302.0176 299.6211)"><tspan x="0" y="0" style="fill:#000000;stroke:none;">421-422</tspan></text>
		</g>
		<g>
			<path d="M303.485,210.113l21.107-0.597l12.656-18.087l63.913-9.051l15.08,15.08l-7.235,12.058l2.411,6.628l12.059,7.843l12.659,1.206l8.438,5.422l14.472-3.009l14.471,6.028l-15.065,10.247l5.421,10.853l3.02,12.667l-18.698,24.715v5.432l-2.409,4.218
				l9.647,6.029l-13.548,30.387l-16.719,0.965L407.8,315.029l5.423-9.038l19.293-16.885l-25.921-18.696l-33.168-2.412l-24.119-25.323l-31.354,1.812l-3.009-4.822l-13.872-4.824l-7.835-19.293l2.412-4.227l4.824,3.02l3.011-4.227z"/>
			<text transform="matrix(1 0 0 1 385.584 242.9434)"><tspan x="0" y="0" style="fill:#000000;stroke:none;">427</tspan></text>
		</g>
		<g>
			<path d="M473.417,201.076l32.061,39.187l18.091,1.208l27.534,25.931l-1.004,16.273l-6.636,10.854l7.232,3.619l-6.028,15.678l0.605,15.676l13.988,13.505l-55.952-2.894h-6.756l-18.328-0.966l-36.342-0.965l13.548-30.387l-9.647-6.029l2.409-4.218v-5.432
				l18.698-24.715l-3.02-12.667l-5.421-10.853l15.065-10.247l-0.099-32.559z"/>
			<text transform="matrix(1 0 0 1 482.9038 296.0029)"><tspan x="0" y="0" style="fill:#000000;stroke:none;">425-426</tspan></text>
		</g>
		<g>
			<path d="M636.813,238.576l-2.3,2.895l-2.414,10.852l4.823,13.264l-4.823,27.736l15.676,9.649l22.914-18.089l6.028,3.616l-2.409,4.823l21.704-8.439l8.922,6.994l-0.964,9.647l-10.612,4.823l-12.542,3.858l-3.859,11.579l-36.66,11.574l-24.118,10.611l-37.625-0.965
				H559.26l-13.988-13.505l-0.605-15.676l6.028-15.678l-7.232-3.619l6.636-10.854l1.004-16.273l7.437-16.882l7.238-6.032l22.908,1.807l16.886-4.824l12.057-4.216l9.647-0.609l9.538,1.931z"/>
			<text transform="matrix(1 0 0 1 578.1714 316.5039)"><tspan x="0" y="0" style="fill:#000000;stroke:none;">407-409</tspan></text>
		</g>
		<g>
			<path d="M646.57,240.263l21.1-10.854l7.843,2.415l5.424-15.071l14.469,3.011l18.697,8.44l1.205,9.647l6.03,8.443l-4.823,4.821l20.257,9.889l-16.4,10.613v9.647l-13.501,5.788l-1.936,4.824l-8.922-6.994l-21.704,8.439l2.409-4.823l-6.028-3.616l-22.914,18.089
				l-15.676-9.649l4.823-27.736l-4.823-13.264l2.414-10.852l2.198-2.847l1.416-1.978l8.442,3.618z"/>
			<text transform="matrix(1 0 0 1 660.1714 270.6787)"><tspan x="0" y="0" style="fill:#000000;stroke:none;">417-418</tspan></text>
		</g>
		<g>
			<path d="M657.422,140.781l0.6,6.626l28.343,7.236l7.238,10.255l-4.229,6.628l6.639,16.883l7.832,17.491l-8.439,13.863l-14.469-3.011l-5.424,15.071l-7.843-2.415l-21.1,10.854l-8.442-3.618l-1.416,1.978l-9.437-1.978l-9.647,0.609l-12.057,4.216l-4.823-19.296
				l-6.031-9.039l1.805-7.843l12.669-14.471l4.821-0.6l7.835-15.676l7.233,1.205l12.667-14.47l1.804-11.461l13.872-9.039z"/>
			<text transform="matrix(1 0 0 1 636.0562 206.7651)"><tspan x="0" y="0" style="fill:#000000;stroke:none;">413-414</tspan></text>
		</g>
		<g>
			<path d="M637.522,97.965l12.06,4.226l6.028,8.441l-0.597,7.833l9.037,7.843l0.61,8.441l-7.238,6.031l-13.872,9.039l-1.804,11.461l-12.667,14.47l-7.233-1.205l-7.835,15.676l-4.821,0.6l-12.669,14.471l-1.805,7.843l6.031,9.039l4.823,19.296l-16.886,4.824
				l-22.908-1.807l-7.238,6.032l-7.437,16.882l-27.534-25.931l-18.091-1.208l-32.061-39.187l-0.495-39.796l11.451-9.647v-21.108l-11.451-12.06l6.028-7.833l-4.824-1.207l7.235-5.432l6.628,1.208l-22.306-30.15l15.07-7.233l17.491-7.237l-0.61,8.441l14.471,18.698
				l9.647-0.61l13.874,28.345l11.452-1.206l22.911-23.52l18.091,1.812l5.429,13.267l5.423,7.235l11.463,1.206l6.628,9.647l6.028,1.804l11.462-7.237l3.009-20.5z"/>
			<text transform="matrix(1 0 0 1 532.3452 182.6465)"><tspan x="0" y="0" style="fill:#000000;stroke:none;">403-404</tspan></text>
		</g>
		<g>
			<path d="M696.012,188.409l12.059,6.03l15.679-6.03l21.1,5.431l17.97-7.118l10.612,17.364l4.824-3.858l4.823,12.539l17.366,1.931l-28.942,26.044l-5.789,6.756l-13.506,6.754l-7.719,1.926l-7.718,4.825l-20.257-9.889l4.823-4.821l-6.03-8.443l-1.205-9.647
				l-18.697-8.44l8.439-13.863l-7.832-17.491z"/>
			<text transform="matrix(1 0 0 1 728.9087 227.2646)"><tspan x="0" y="0" style="fill:#000000;stroke:none;">415-416</tspan></text>
		</g>
		<g>
			<path d="M619.075,63.233l12.539-6.75l17.371,5.785l8.683,6.754l4.818-1.931l11.577-0.961l3.864-5.789l8.677-5.791l14.472-3.856l3.858,18.328l4.824,3.859l10.612,3.858l6.753,5.789l3.859,3.857l2.894,7.721v9.649l1.93,8.68l-0.965,5.79v8.683l-4.823,4.824
				l16.4,24.116l-1.93,4.824l6.754,5.791l0.965,6.75l10.611,13.509l-17.97,7.118l-21.1-5.431l-15.679,6.03l-12.059-6.03l-6.639-16.883l4.229-6.628l-7.238-10.255l-28.343-7.236l-0.6-6.626l7.238-6.031l-0.61-8.441l-9.037-7.843l0.597-7.833l-6.028-8.441
				l-12.06-4.226l-9.647-1.206l-6.628-25.921l-2.172-7.604z"/>
			<text transform="matrix(1 0 0 1 677.4263 118.7334)"><tspan x="0" y="0" style="fill:#000000;stroke:none;">411-412</tspan></text>
		</g>
		<g>
			<path d="M619.075,63.233l2.172,7.604l6.628,25.921l9.647,1.206l-3.009,20.5l-11.462,7.237l-6.028-1.804l-6.628-9.647l-11.463-1.206l-5.423-7.235l-5.429-13.267L569.99,90.73l-22.911,23.52l-11.452,1.206l-13.874-28.345l-9.647,0.61l-14.471-18.698l0.61-8.441
				l-17.491,7.237l-15.07,7.233l-15.676,1.208l-12.302-22.673l6.753,0.966l7.718,4.824h5.788l11.577-8.68l13.507-3.859h10.612l-1.93-9.647h2.895l-7.719-6.756l1.93-10.612l-2.896-5.79l0.967-6.75l4.824-4.824l9.647-1.932l12.544,6.756l12.539-2.896l5.789-1.927
				l2.889,5.789l12.547,6.75l8.683,20.26v4.825l19.295,5.789l8.681-0.966l6.756,3.859l22.184,15.436l5.791-0.966z"/>
			<text transform="matrix(1 0 0 1 536.3237 71.7036)"><tspan x="0" y="0" style="fill:#000000;stroke:none;">410</tspan></text>
		</g>
	</g>
</svg>
