<?xml version="1.0" encoding="iso-8859-1"?>
<!DOCTYPE svg >

<svg  width="350.9pt" height="600.954pt" viewBox="0 0 350.9 600.954" xml:space="preserve">
	<g id="Layer_x0020_1" style="fill-rule:nonzero;clip-rule:nonzero;fill:#FFFFFF;stroke:#000000;stroke-miterlimit:4; font-family:'Arial'; font-size:10;">
		<g>
			<path d="M191.238,562.122l3.066,4.384l6.233,13.35l0.889,13.35l7.118,7.124l9.236-5.346l9.791-12.455l0.887-6.233h2.675l2.666,6.233l23.14-8.901l15.129-0.888l0.888-0.893l-0.888-4.449l1.778-0.892l8.007,5.341v2.671l9.792,2.67l8.899-5.341l3.56-0.89l2.67,6.23
				l4.453,2.668l8.898-2.668l1.777-5.341l-0.886-40.938l-40.609,0.118l-5.562-27.813l-45.607,5.563l-1.115,33.373l-36.886,19.972z"/>
			<text transform="matrix(1 0 0 1 253.7173 555.7393)"><tspan x="0" y="0" style="fill:#000000;stroke:none;">395</tspan></text>
		</g>
		<g>
			<path d="M191.238,562.122l-4.051-7.184l-7.124-15.13V531.8l10.682-27.591l-2.668-5.333l-9.452-0.892l-9.45,0.204l0.525-79.958l61.21-10.131l-1.114-25.585h12.235l17.243,0.561l17.245,19.463l-0.562,50.62l41.798,18.937l0.586,11.651l1.783,15.13l0.892,32.033
				l-40.609,0.118l-5.562-27.813l-45.607,5.563l-1.115,33.373l-36.886,19.972z"/>
			<text transform="matrix(1 0 0 1 227.0181 471.1953)"><tspan x="0" y="0" style="fill:#000000;stroke:none;">394</tspan></text>
		</g>
		<g>
			<path d="M169.701,418.23L69.608,405.876l-22.808,20.023l-2.225,21.696l-28.523-2.19l0.604,3.633l-7.116-1.782l-1.782,6.233l3.559,4.448l-0.891,5.341l-9.785,2.667l2.666,8.01l-0.89,9.791l4.45,7.116l-5.34,6.23l1.78,1.783l40.938,0.885h13.349h20.468l7.377,0.048
				l22.097-0.49l20.364-0.442h8.007l33.268-0.688l0.525-79.958z"/>
			<text transform="matrix(1 0 0 1 95.7524 466.7461)"><tspan x="0" y="0" style="fill:#000000;stroke:none;">396</tspan></text>
		</g>
		<g>
			<path d="M229.796,239.014l51.172-6.675l47.031,5.51l-0.758,13.623l-0.893,8.007l-4.446,42.72l-3.561,33.815l-0.893,10.681l-3.555,41.824l0.889,23.14l1.78,32.93l1.192,27.506l-41.798-18.937l0.562-50.62l-17.245-19.463l-17.243-0.561l-12.235-14.46l-1.673-33.925
				l12.237-15.021l-30.587-15.574l19.465-2.224l0.398-62.305l0.159,0.01z"/>
			<text transform="matrix(1 0 0 1 271.5142 315.4575)"><tspan x="0" y="0" style="fill:#000000;stroke:none;">393</tspan></text>
		</g>
		<g>
			<path d="M115.492,224.838l52.01-3.624l32.26-26.136l-8.899,22.248l38.934-2.226l-0.159,23.904l-0.398,62.305l-19.465,2.224l30.587,15.574l-12.237,15.021l1.673,33.925l12.235,14.46h-12.235l1.114,25.585l-61.21,10.131L69.608,405.876l-22.808,20.023
				l-2.225,21.696l-28.523-2.19l-2.954-13.274l7.118-1.782l1.781-5.341l-7.122-1.777l1.78-4.449l6.232,0.888l4.451-13.35l4.449-0.888l5.335-0.89l-8.899-4.45l0.891-5.341l3.559-2.667l8.899,1.777l-1.777-4.45l12.458-16.909l-1.782-8.008h8.015l2.666-3.561
				l5.341-7.122l-1.782-2.666l-10.676,8.007l-8.013-2.669l0.892-8.013l5.339-0.886l14.24-1.781l5.341-12.459l-10.682-6.23l-0.889-9.79h-4.45l-3.56-8.899l1.782,0.89l6.228,4.45l2.672-2.668l-6.233-6.674l5.341-6.673l-4.449-1.783l-8.899,3.558l-0.891-8.007
				l6.231-3.558l1.778-5.341l-4.45-1.778l-3.559-5.34l2.894-7.226l46.722-0.34l1.112-35.597l16.959-7.5z"/>
			<text transform="matrix(1 0 0 1 128.0181 328.8066)"><tspan x="0" y="0" style="fill:#000000;stroke:none;">390-391</tspan></text>
		</g>
		<g>
			<path d="M328,237.849l-47.031-5.51l-51.172,6.675l-0.159-0.01l0.159-23.904l-38.934,2.226l8.899-22.248l11.678-15.575l18.909-14.46l27.811-11.686l41.16-2.223l8.345-12.237l29.885-0.348l-2.301,20.371l-1.775,25.808l-3.557,30.256L328,237.849z"/>
			<text transform="matrix(1 0 0 1 273.7407 201.9922)"><tspan x="0" y="0" style="fill:#000000;stroke:none;">397</tspan></text>
		</g>
		<g>
			<path d="M116.332,101.073l-0.839,123.766l52.01-3.624l32.26-26.136l11.678-15.575l18.909-14.46l-1.11-17.246l17.798-10.565l-22.251-36.159l8.816-9.342l-117.271,9.342z"/>
			<text transform="matrix(1 0 0 1 169.1724 159.7192)"><tspan x="0" y="0" style="fill:#000000;stroke:none;">389</tspan></text>
		</g>
		<g>
			<path d="M89.634,86.834l26.698,14.239l-0.839,123.766l-16.959,7.5l-1.112,35.597l-46.722,0.34l4.224-10.572l-4.45-1.782l-1.776,4.449l-6.23,0.891l1.78-9.79l4.45-7.118l-3.559-11.572l8.899-3.559l4.451-13.349l-8.015,2.672l-3.557-8.014l3.557-6.225
				l-8.898-20.472l-1.777-1.777l7.119-8.899l-6.227-11.571l1.777-1.778l8.899,6.228l5.338-3.558l-7.116-7.12l7.116-7.121v-24.916l7.119,5.34l4.45-18.691l-1.778-5.339l13.349,1.782v-4.45l-8.008-2.671l1.778-4.45l16.021-8.009z"/>
			<text transform="matrix(1 0 0 1 73.5039 186.4165)"><tspan x="0" y="0" style="fill:#000000;stroke:none;">387</tspan></text>
		</g>
		<g>
			<path d="M299.042,1.465L323.24,1.4l17.354-0.887l9.787,13.349l-4.45,39.157l-1.78,14.239l-0.888,18.686l-3.562,30.262l-2.152,22.343l-29.885,0.348l-8.345,12.237l-41.16,2.223l-27.811,11.686l-1.11-17.246l17.798-10.565l-22.251-36.159l8.816-9.342l21.782-24.028
				l35.035-11.677l8.622-54.561z"/>
			<text transform="matrix(1 0 0 1 289.3149 108.5479)"><tspan x="0" y="0" style="fill:#000000;stroke:none;">388</tspan></text>
		</g>
		<g>
			<path d="M299.042,1.465l-8.622,54.561l-35.035,11.677L233.602,91.73l-117.271,9.342L89.634,86.834l-0.892-8.899l16.018-4.45l0.891-13.349l3.559-2.667l-4.45-12.459l4.45-4.45l5.34,3.561l1.782-2.673l-7.122-7.118v-3.558l7.122,0.89l4.45-9.79l6.227-3.559
				l9.79-7.123L134.129,1.4h55.174l8.008,0.891h28.48L241.809,1.4h17.799h18.69h3.555l17.188,0.064z"/>
			<text transform="matrix(1 0 0 1 189.1958 55.1514)"><tspan x="0" y="0" style="fill:#000000;stroke:none;">386</tspan></text>
		</g>
	</g>
</svg>
