<?xml version="1.0" encoding="iso-8859-1"?>
<!DOCTYPE svg >

<svg  width="801.404pt" height="311.337pt" viewBox="0 0 801.404 311.337" xml:space="preserve">
	<g id="Layer_x0020_1" style="fill-rule:nonzero;clip-rule:nonzero;fill:#FFFFFF;stroke:#000000;stroke-miterlimit:4; font-family:'Arial'; font-size:10;">
		<g>
			<path d="M307.759,4.195l3.397,16.481l7.316-0.656l0.514,29.603l11.23,4.589l-1.022,40.326l-22.971,7.145l-27.047,13.777l-52.471,0.204l-17.075-4.172l-2.727-21.146l3.88-13.163l-6.738-10.925l0.613-10.208l5.714-4.083l7.349-12.25l5.718-8.983l13.884-4.083
				l-2.454-4.9l4.083-7.349l-0.816-8.984l5.718-4.901l25.315,2.454l38.595,1.458l-0.008-0.234z"/>
			<text transform="matrix(1 0 0 1 261.1318 71.7935)"><tspan x="0" y="0" style="fill:#000000;stroke:none;">286</tspan></text>
		</g>
		<g>
			<path d="M482.313,6.236h21.229h7.353h25.311l11.438,0.817l15.303-0.622l8.378-0.195l14.901-1.428l-2.855,9.594l10.714,9.186l-21.941,34.707l-0.857,100.553l-46.1-15.313l-56.143-20.93l-6.642-63.796l10.725-12.248l-1.022-21.951l9.695-1.022l0.514-17.353z"/>
			<text transform="matrix(1 0 0 1 513.2671 87.1055)"><tspan x="0" y="0" style="fill:#000000;stroke:none;">275</tspan></text>
		</g>
		<g>
			<path d="M390.311,158.254l29.733-5.53l12.25-15.827l22.964-8.672l13.946-5.619l55.981,20.93l46.1,15.313l28.515,7.236l-0.097,12.664l8.167,11.23l-13.402,8.548l-56.013,16.465l-2.556,25.005l-17.86-6.125l-45.87,20.182l-27.422-27.327v-0.817l-20.416-21.232
				l-22.051-0.815l-3.671-0.035l-8.298-45.573z"/>
			<text transform="matrix(1 0 0 1 475.4976 193.2681)"><tspan x="0" y="0" style="fill:#000000;stroke:none;">283</tspan></text>
		</g>
		<g style="fill:#000000;stroke:none;">
			<path style="fill:#FFFFFF;stroke:#000000;" d="M307.767,4.429l4.686,0.172l5.718-0.813l21.232,0.813l4.067,0.263l8.996,0.554h32.666h5.718l28.583,0.817h21.232l24.499-0.817l8.982,0.817h8.167l-0.514,17.353l-9.695,1.022l1.022,21.951L462.402,58.81l6.642,63.796
				l-13.785,5.619l-22.964,8.672l-12.25,15.827l-29.451,5.422l-5.77-24.817l-33.172-37.77l-22.458-1.02l1.022-40.326l-11.23-4.589l-0.514-29.603l-7.316,0.656l-3.397-16.481l0.008,0.234z"/>
			<text transform="matrix(1 0 0 1 402 70.7725)"><tspan x="0" y="0">270</tspan><tspan x="-10.007" y="12">272-273</tspan></text>
		</g>
		<g>
			<path d="M226.706,115.665l52.471-0.204l27.047-13.777l22.971-7.145l22.458,1.02l33.172,37.77l5.487,24.925l8.298,45.573l-33.894,0.035h-20.416l-21.23-0.817v-12.25l-7.353-10.618l-4.896-6.531l-2.451-4.083l-8.984,5.718l-1.631-2.453l2.448-8.984l-26.947-0.813
				h-4.083l-36.748-1.635l-8.984-0.817l-2.735-0.889l6.001-44.025z"/>
			<text transform="matrix(1 0 0 1 307.2686 148.354)"><tspan x="0" y="0" style="fill:#000000;stroke:none;">280-281</tspan></text>
		</g>
		<g style="fill:#000000;stroke:none;">
			<path style="fill:#FFFFFF;stroke:#000000;" d="M204.659,56.051l-0.613,10.208l6.738,10.925l-3.88,13.163l2.727,21.146l17.075,4.172l-6.001,44.025l-7.879,0.072h-21.234l-12.25,0.817l-5.717-1.631l-2.45,4.083l-13.065,3.266l-8.168,1.631l-8.165,5.718
				l-21.234,6.941l-11.025,2.859l-35.52,0.815H68.28l-33.482,0.817h-6.532H15.198L0.5,184.261v-0.815l2.449-24.498l4.083-6.536l4.083,3.266l6.532-0.814l9.801-5.718l1.635-12.25l4.897-5.718l9.801-8.167l17.15-4.896l12.248,1.631l15.517-12.249l4.899-0.819
				l4.083-3.264l13.068-8.167l9.796-1.632l5.718-4.082l4.083-13.884h8.984l3.266-7.349l10.615-7.349l3.265,3.266l-1.63,6.532l4.083,2.452l7.348-1.633l9.801-12.251l6.532-4.901l8.983-0.816l13.067,2.451z"/>
			<text transform="matrix(1 0 0 1 129.4517 124.874)"><tspan x="0" y="0">287</tspan><tspan x="0" y="12">289</tspan></text>
		</g>
		<g>
			<path d="M586.156,5.012l11.298,1.224l38.384-0.817h17.149h17.151V5.215l-8.166,31.645l0.506,31.644l30.118,33.686l-36.243,26.541l1.02,16.846l-8.673-10.722l-28.074,19.396l-11.735,13.784l-9.09-1.95l-28.515-7.236l0.857-100.553l21.941-34.707l-10.714-9.186
				l2.785-9.391z"/>
			<text transform="matrix(1 0 0 1 616.3667 90.168)"><tspan x="0" y="0" style="fill:#000000;stroke:none;">278</tspan></text>
		</g>
		<g>
			<g>
				<path d="M800.798,88.717l-5.718-15.516L783.65,49.517L778.748,34l-8.166-29.398h-2.448l4.083,20.416l7.348,22.867l1.632,13.88l5.719,3.27l2.448,6.533l8.985,18.779l2.45-1.63z"/>
				<path d="M758.332,4.602l2.448,5.718l5.718,0.817l-2.448-6.535h-5.718z"/>
				<path d="M670.138,5.419h4.083l35.114-0.817h4.081L727.3,5.419l20.416-0.817l6.532,0.817l-3.265,4.083l4.899,2.452l0.813,4.083l4.899,7.349l4.901-3.266l2.449,16.333l4.083,7.348l1.228,13.068l-6.94-14.703l-3.268-2.448l-0.815-4.899L759.966,34l0.813,5.718
					l-0.813,4.083l4.083,4.902l-4.083-0.818L746.082,34h-2.448l-1.635,3.267l4.902,2.451v4.083l5.713,4.083v3.267l-8.98,1.635l-9.801-7.354l4.083,8.984l-0.816,1.635l-12.249-7.348l-2.449,0.813l-0.818,2.451l5.718,3.266l-0.815,2.449h-8.982V63.4l-5.719,2.449
					l-9.799-3.266h-4.083l-3.265-11.431v-8.168l4.081-5.717l-2.451-4.083l-3.265-4.083l-3.267,0.817l4.083,6.536l-0.816,4.082l-2.448,3.266l-0.818,4.902l1.632,8.979l4.899,10.619l-3.265,2.448l-0.818,5.718l24.499-3.266l5.718-2.452l1.633,5.718l7.351-1.635
					l0.815-2.449l13.066-3.264l9.801,1.629l-1.635,3.266l3.265,1.635l-0.813,4.9l-4.081,1.631l1.63,2.453l0.816,6.531l-3.265,0.817l-0.818,2.449l1.955,3.521l-3.939,4.44l-55.585-0.203l-30.118-33.686l-0.506-31.644l8.166-31.645v0.204z"/>
				<path d="M758.261,102.297l15.482-0.108l5.322,13.738l2.949-2.713l0.815-4.901l-2.448-4.899l1.633-1.632l2.45,0.813l-0.815-4.896l1.63-8.984l-2.449-3.265l-2.448-4.902l-0.818-4.083l-6.534-4.899l-3.265,2.447l-0.818,4.901l-4.897-0.817l-4.083,4.9l0.813,5.718
					l-0.813,8.167l-1.705,5.414z"/>
			</g>
			<text transform="matrix(1 0 0 1 713.3413 33.0039)"><tspan x="0" y="0" style="fill:#000000;stroke:none;">279</tspan></text>
		</g>
		<g>
			<path d="M692.596,102.189l52.873-0.204l5.515,4.693h5.713v-0.813l1.479-3.512l15.568-0.164l5.322,13.738l-1.953,0.553l-2.448,0.819l-1.635-2.452l-3.265-2.448l-2.448,8.165h-4.083l-1.638,6.532l-3.265,6.535l-4.083-4.083l-2.446,10.615l-6.536,3.266l-9.797-3.266
				l-0.818,1.635l-6.537-5.718l-0.813,4.901l-4.899-2.448l1.633-5.718l-12.25,4.902l-2.448-11.434l7.348-2.451l0.819-4.902l-4.086-2.449v3.266l-4.899,0.817l-3.265,1.635l-4.902-3.27l-3.265,1.635l6.532,5.718l-0.813,2.449l1.629,5.718l-4.083,2.449l-4.899-4.083
				l-8.979-1.635l-1.635-4.897l-4.083,3.266l-11.473-3.846l-1.914,1.394l2.771,4.9l20.416,6.536v4.896h7.348l4.083,4.901l1.633-4.083l10.617,2.453v7.349h-5.718l2.451,5.714l-4.899-2.448l-6.534,4.083l4.898,4.083l4.084-2.449l2.451,2.449l-8.164,6.531l-1.635,4.899
				h-4.902l-11.431,7.351l-4.902-4.897l-4.083-0.817l-2.448-4.9l-4.083-0.818l-6.534-8.984l-2.449,1.635l-0.818,5.718l4.902,2.449l8.166,10.615l8.167,4.899l9.801,2.453l3.265-4.083l4.083-0.819v4.902h3.268l-1.635-6.535l4.083-0.817l3.267,5.718h2.451l-1.635-8.984
				h6.534l1.632-5.714h4.084l-0.813,4.896l2.445,2.451l-4.08,5.715h7.348l4.899-8.98l3.267,8.167l-4.083,1.63l1.635,3.267l-4.083,3.268h-4.084l-1.635,4.897l-2.448,3.27l-4.083,3.266l-0.818,4.083l-4.081,2.449l-3.267-1.63l0.815-5.72l-3.267-0.817l-0.813,5.718
				l-2.454,0.819l-2.448-1.636v-4.901h-4.899l-1.635,4.083l4.899,1.634l-2.448,2.449l-16.333-0.817l-16.333,5.718l-3.265-9.801h-3.27v-0.813l1.635,6.531l-1.635,8.983l-13.882,8.984l-6.534-5.719l3.27-4.083l-1.635-4.9l-3.265-2.448l-2.453-5.718l-2.448,0.817
				l1.635,6.532l4.083,5.718l-4.083,3.266l-0.816,4.083l5.713,2.453l1.635,2.448l-38.688-18.373l-2.681-17.993l13.402-8.548l-8.167-11.23l0.097-12.664l9.09,1.95l11.735-13.784l28.074-19.396l8.673,10.722l-1.02-16.846l36.243-26.541z"/>
			<text transform="matrix(1 0 0 1 630.6577 189.1846)"><tspan x="0" y="0" style="fill:#000000;stroke:none;">285</tspan></text>
		</g>
		<g>
			<path d="M472.169,254.053l45.87-20.182l17.86,6.125l2.556-25.005l56.013-16.465l2.681,17.993l38.688,18.373l-4.899,4.083l-10.614,5.718l-20.416,17.146l-9.802,18.785l-1.632,10.613l-2.451,9.802l-2.448-2.452l-1.635-12.25l-1.63,12.25l-8.167,9.801l-14.703-3.265
				l-9.796,2.446l-3.27-3.265l-10.615,6.531h-8.166l-6.531-8.169l-39.2-40.828l-7.692-7.787z"/>
			<text transform="matrix(1 0 0 1 542.8706 268.8062)"><tspan x="0" y="0" style="fill:#000000;stroke:none;">284</tspan></text>
		</g>
	</g>
</svg>
