<?xml version="1.0" encoding="iso-8859-1"?>
<!DOCTYPE svg >

<svg  width="513.95pt" height="600.526pt" viewBox="0 0 513.95 600.526" xml:space="preserve">
	<g id="Layer_x0020_1" style="fill-rule:nonzero;clip-rule:nonzero;stroke:#000000;stroke-miterlimit:4; font-family:'Arial'; font-size:10;">
		<g>
			<path style="fill:#FFFFFF;" d="M1.648,64.783h95.838l60.78-0.009l0.878-21.363L160.164,0.5h-23.173H56.838H0.509l1.14,64.283z"/>
			<text transform="matrix(1 0 0 1 72.9985 38.9063)"><tspan x="0" y="0" style="stroke:none;">874</tspan></text>
		</g>
		<g>
			<path style="fill:#FFFFFF;" d="M160.164,0.5h59.259h40.266h24.315h40.263h21.717l-25.322,77.57l-18.991,45.585v37.987l23.742,14.245l-5.907,22.192l-38.729-15.543l-23.742-42.738l-35.14-18.043l-0.95-50.334L206.7,69.524l-15.194-25.643l-32.361-0.471
				L160.164,0.5z"/>
			<text transform="matrix(1 0 0 1 262.9351 76.8931)"><tspan x="0" y="0" style="stroke:none;">875</tspan></text>
		</g>
		<g>
			<path style="fill:#FFFFFF;" d="M1.648,64.783h95.359l0.479,95.911l-10.447,15.194v79.773l-85.391,2.472v-41.03V106.181V64.783z"/>
			<text transform="matrix(1 0 0 1 40.7095 166.1646)"><tspan x="0" y="0" style="stroke:none;">873</tspan></text>
		</g>
		<g style="stroke:none;">
			<path style="fill:#FFFFFF;stroke:#000000;" d="M159.145,43.411l32.361,0.471L206.7,69.524l14.246,1.897l0.95,50.334l35.14,18.043l23.742,42.738l38.729,15.543l-4.127,16.381l-5.362,22.756l-8.346,32.69l-31.344,23.743l-45.667,0.479l0.085-8.078l-92.121-29.439
				l-45.584-0.951v-79.773l10.447-15.194l-0.479-95.911l61.258-0.009l0.878-21.363z"/>
			<text transform="matrix(1 0 0 1 192.6582 202.2534)"><tspan x="0" y="0">870</tspan><tspan x="0" y="12">872</tspan></text>
		</g>
		<g>
			<path style="fill:#FFFFFF;" d="M353.407,343.983l-0.458,65.527l6.648,19.944l-3.678,101.427h75.473h22.793h30.392l24.987-0.761v-3.8v-50.903v-45.584V383.49l-90.136-37.609l-66.479-1.898h0.458z"/>
			<text transform="matrix(1 0 0 1 426.2808 445.373)"><tspan x="0" y="0" style="stroke:none;">882</tspan></text>
		</g>
		<g>
			<path style="fill:#FFFFFF;" d="M509.564,217.863v21.274v45.586v51.66v28.87v18.236l-90.136-37.609l-66.251-1.898l0.724-70.277l41.771-36.719l85.487-2.219v-18.043l28.404,1.138z"/>
			<text transform="matrix(1 0 0 1 433.8784 302.9199)"><tspan x="0" y="0" style="stroke:none;">881</tspan></text>
		</g>
		<g>
			<path style="fill:#FFFFFF;" d="M310.085,237.35l85.587-0.363l-41.771,36.719l-0.494,70.277l-0.458,65.527l6.648,19.944l-3.678,101.427l-90.911,0.053l1.521-60.646l-78.234,1.46l1.309-133.465h34.188l0.867-44.155l45.667-0.479l31.344-23.743l8.415-32.558z"/>
			<text transform="matrix(1 0 0 1 278.1323 394.0908)"><tspan x="0" y="0" style="stroke:none;">883</tspan></text>
		</g>
		<g>
			<path style="fill:#FFFFFF;" d="M189.604,338.284l-1.309,133.465l-41.426,0.442l-4.748-54.133l-44.635-22.792l55.08-56.983h37.039z"/>
			<text transform="matrix(1 0 0 1 143.2749 394.0908)"><tspan x="0" y="0" style="stroke:none;">879</tspan></text>
		</g>
		<g>
			<path style="fill:#FFFFFF;" d="M1.648,353.479l95.838,41.788l44.635,22.792l4.748,54.133l41.426-0.442l78.234-1.46l-1.521,60.646l-37.227,1.465l-20.514-1.518l7.598,22.793l-65.34-0.762l-76.733,0.762l-0.76,12.157l-0.76,34.188l-69.625-0.762V485.297v-37.228
				v-44.828v-49.763z"/>
			<text transform="matrix(1 0 0 1 69.1997 496.6553)"><tspan x="0" y="0" style="stroke:none;">880</tspan></text>
		</g>
		<g>
			<path style="fill:#FFFFFF;" d="M1.648,258.133l85.391-2.472l45.584,0.951l92.121,29.439l-0.16,8.549l-0.792,43.684h-34.188h-37.039l-55.08,56.983L1.648,353.479v-10.257v-85.089z"/>
			<text transform="matrix(1 0 0 1 78.6968 323.8125)"><tspan x="0" y="0" style="stroke:none;">878</tspan></text>
		</g>
		<g>
			<path style="fill:#FFFFFF;" d="M427.593,0.5h82.056h3.801v54.017h-3.801l-0.085,46.346v33.427v12.919v45.585v25.07l-28.404-1.138v18.043l-85.487,2.219l-85.656,0.23l5.362-22.756L453.62,114.16l-23.741-54.134L427.593,0.5z"/>
			<text transform="matrix(1 0 0 1 431.98 188.957)"><tspan x="0" y="0" style="stroke:none;">884</tspan></text>
		</g>
		<g>
			<path style="fill:#FFFFFF;" d="M345.984,0.5h81.609l2.285,59.525l23.741,54.134L315.378,214.461l4.127-16.381l5.907-22.192l-23.742-14.245v-37.987l18.991-45.585L345.984,0.5z"/>
			<text transform="matrix(1 0 0 1 374.9995 112.9824)"><tspan x="0" y="0" style="stroke:none;">877</tspan></text>
		</g>
	</g>
</svg>
