<?xml version="1.0" encoding="iso-8859-1"?>
<!DOCTYPE svg >

<svg  width="494.337pt" height="601.244pt" viewBox="0 0 494.337 601.244" xml:space="preserve">
	<g id="Layer_x0020_1" style="fill-rule:nonzero;clip-rule:nonzero;stroke:#000000;stroke-miterlimit:4;">
		<g>
			<g>
				<path style="fill:#FFFFFF;" d="M48.351,255.958l-5.947,65.342v35.647v142.55l-29.7,11.891v59.397L0.842,600.483l41.562-11.891l160.388-53.452l5.946-17.836l29.699-11.862l-5.946,29.698l17.807,5.946l11.891-53.481l23.757-23.753l-17.811-83.149l41.561-71.294
					h23.785l29.698,59.397l-23.782,100.991l11.891,23.753l47.51,5.946l17.837-35.645l-5.945-29.697h23.751l5.947,35.643l53.451-29.697v-35.648l-29.699-142.549l-5.945-23.756l-106.906-29.698L315.643,36.2L303.778,0.555l-34.8,5.048l-30.541,0.899L42.404,18.363
					l7.02,178.631l-1.073,58.963z"/>
			</g>
			<text transform="matrix(1 0 0 1 233.4595 328.7271)"><tspan x="0" y="0" style="stroke:none; font-family:'Arial'; font-size:10;">027-028</tspan></text>
		</g>
	</g>
</svg>
