<?xml version="1.0" encoding="iso-8859-1"?>
<!DOCTYPE svg >

<svg  width="801.033pt" height="451.385pt" viewBox="0 0 801.033 451.385" xml:space="preserve">
	<g id="Layer_x0020_1" style="fill-rule:nonzero;clip-rule:nonzero;fill:#FFFFFF;stroke:#000000;stroke-miterlimit:4; font-family:'Arial'; font-size:10;">
		<g>
			<g>
				<path d="M247.101,144.257l-6.067,13.458l0.925,5.549v11.1l-3.7,1.848l2.775,3.698l4.624,2.777l-0.924,3.698l-6.476,0.927l9.248,27.742l-10.172,6.47l1.85,8.328l3.318,5.896l-1.469-12.372h6.936l28.9,6.938l10.403,13.869l48.552,17.34l0.286,0.037l6.648-63.616
					l11.561-16.184l-77.451-23.121l-9.832-10.403l-19.938-3.979z"/>
				<path d="M40.354,191.934l130.073,0.249l3.097-7.651l1.853-3.698l12.02-6.47l1.85-7.402h3.699l-1.849-5.548l0.923-5.545l3.701,4.623l0.924-7.401l3.7,4.624l-0.926,5.549l5.55-1.85l-0.926-4.624l4.624-0.921l5.551-6.476l-3.702-10.173l2.776-7.397l-0.924-10.173
					l-4.624-2.772v10.168l-2.774-3.698l-4.624,4.625l-1.851-7.397l4.624-3.698l-0.925-3.703l-7.398,1.851l-2.775,5.549l4.625,6.471l-4.625,4.624h-2.774l2.774-4.624l-5.546-1.848v-5.548L180,120.723l-1.853,6.474l-9.249-11.098l-6.472-2.773l-3.699,3.699
					l-44.391-3.699l-5.55-2.776l-14.794,0.925l-28.67-4.623l-11.097-7.397l-26.817-9.248l-8.326-5.55l-9.247-3.698l-9.249,1.847l0.926,4.624l4.624,0.926l-0.926,7.4l-4.624,16.645l2.774,10.173l0.926,12.021l5.548,5.549l1.847,5.549l5.55,4.625l7.398,3.696
					l1.85,5.55l4.624,3.698l9.247,28.67z"/>
				<path d="M200.899,204.243l-7.261,7.704l4.855,1.256l0.924,7.4l-2.774,12.021l2.774,5.549l3.7,0.923l2.773-7.396l-2.773-6.472l0.924-3.705l5.549-5.544l6.473-4.624l-3.698,7.396l-0.926,5.55l11.099,3.698l-2.775-9.248l2.775-1.851l1.849-5.545l0.925-0.926
					l3.698-12.946l-5.546-8.326l-8.324,4.623l-5.548-2.771l2.775-2.774l-2.775-1.851v-4.624l6.473,4.624l3.699-0.926l-4.624-13.872l-2.773-3.698l3.698-1.853l3.699,4.625l4.624-7.397l4.623,3.698l3.702-2.771l-3.702-6.476l0.926-4.624l-1.85-6.47l-11.096-6.476
					l5.548,14.797l-6.475-1.851l-9.246,11.1l-4.625,12.946l-9.248,1.852l-8.74,14.128l8.924,0.195l7.77,10.932z"/>
			</g>
			<text transform="matrix(1 0 0 1 95.7778 158.9385)"><tspan x="0" y="0" style="fill:#000000;stroke:none;">980</tspan></text>
		</g>
		<g>
			<path d="M769.319,334.351l21.042-0.927l-0.927,12.024l6.475,8.322v9.248l4.624,5.549v21.27l-56.41-0.926l-8.38-0.489l0.055,0.261l2.311-17.342l11.56-32.366l19.651-4.624z"/>
			<text transform="matrix(1 0 0 1 757.5112 366.7202)"><tspan x="0" y="0" style="fill:#000000;stroke:none;">994</tspan></text>
		</g>
		<g>
			<g>
				<path d="M207.742,109.626l4.624,3.699h6.473v12.947l1.849,3.698l5.55,2.776l-1.851,2.773l2.775,1.852l2.773-2.776h4.625l0.925,8.322l5.548,1.852l2.775-10.173l-12.022-13.873l-3.7,0.926l-1.848,6.474l-2.775-7.4l-3.7-12.02l-5.546-3.699l-6.475-0.925v-1.853
					l6.475-1.847v-3.703l3.696,0.925l1.85-2.771l4.624,1.846l3.699-1.846l-1.848-5.55l-6.475-1.851l-0.924-3.699h-6.473l-10.173,17.57l5.549,8.325z"/>
				<path d="M190.169,61.537l1.85,2.772l0.925,8.327l5.549,1.848l-1.85,4.624l-4.625,0.924l-1.85-0.924v-3.699l-4.625-2.773l-0.923-3.703l3.7-0.921l1.848-6.475z"/>
				<path d="M185.545,39.344h4.625l12.948,7.396l-5.55,6.475l-2.773-0.925l-2.775-6.476l-4.624-0.921l4.624,10.169l-8.323-2.772l-4.623,2.772l1.847-9.248l4.624-6.469z"/>
				<path d="M164.275,53.214l2.776-0.925l7.398,9.249l5.55,3.698l-2.776,3.699L180,73.558l-2.776,0.927l-4.624-3.699l-8.325-3.698l-2.772-3.699v-3.703l2.772-6.471z"/>
				<path d="M394.55,2.351L203.118,5.125v2.777h-4.624l-0.926,2.772h5.55v2.773l-3.7,1.851v3.698l7.4,4.624l0.924,7.401l5.548,1.846l-0.924,5.551l2.773,0.926l4.624-6.477h4.624l6.476,5.551l-3.7,1.85l2.773,9.249l5.549,5.545v4.624l-4.623,1.852l0.924,5.55
					l-0.924,8.322l-5.551-3.699l-3.698,1.848l-1.851-4.624l-5.546-0.921l-3.702,2.773l3.702,4.624l-0.926,2.772l5.549,1.851l4.624-1.851l0.924,5.549l17.571,11.1v8.322l2.775,17.57l8.322,7.4l6.473-0.926l-1.848,6.472l-7.399,3.703l-3.181,6.885l19.938,3.979
					l9.832,10.403l77.451,23.121l13.871-20.807L394.55,2.351z"/>
			</g>
			<text transform="matrix(1 0 0 1 298.0005 88.3008)"><tspan x="0" y="0" style="fill:#000000;stroke:none;">982</tspan></text>
		</g>
		<g>
			<path d="M240.847,223.655l1.655,12.092l-10.169-5.648l-4.1,9.331l-16.875,15.218l19.504,26.987l2.079,65.433l94.208,0.193l8.962-85.702l-0.286-0.037l-48.552-17.34l-10.403-13.869l-28.9-6.938l-7.123,0.28z"/>
			<text transform="matrix(1 0 0 1 270.2554 298.6929)"><tspan x="0" y="0" style="fill:#000000;stroke:none;">983</tspan></text>
		</g>
		<g>
			<g>
				<path d="M180.997,192.173l-10.57,0.009l-130.073-0.249l-1.849,6.47l3.698,11.098l3.7,10.175l9.248,9.248l5.548,35.141l0.926,1.85l3.698-10.172l7.398-0.923l3.697,6.475h8.326l10.17,2.771L71.796,274.24l0.925,4.624l-0.925,2.771l-3.699-1.845l-1.848-5.551
					l-3.702-0.927l3.702,15.726l-0.926,6.47l2.774,3.702l3.699-0.926l3.702,0.926l2.774-3.702l2.771,1.853l4.625-3.7l6.476,5.55l-6.476,3.698l-1.848,5.548l-5.548,1.847l7.396,13.876l-2.772,2.773l0.925,7.398l-0.853,3.406l16.572,4.915l45.547-0.231l27.744,4.627
					h60.112l-2.079-65.433l-19.035-27.242L196.93,242.17l-0.286,6.176l-2.774-2.775l-4.624-0.926l0.924,13.87h-3.696l-2.777-10.169l-1.849,3.699l-2.774-0.926l5.548-8.322l-2.774-1.853l-9.248,8.322l0.924-4.622l6.477-7.398h-11.101l2.775-5.547h4.624l-1.849,2.775
					h8.322l2.773-9.248l2.639-10.667l-19.08,5.839l-1.48-3.961l13.373-24.267"/>
				<path d="M193.638,211.947l-18.273,3.179l-1.473-3.955l10.313-18.054l8.924,0.195l7.77,10.932l-7.261,7.704z"/>
			</g>
			<text transform="matrix(1 0 0 1 136.1611 275.5698)"><tspan x="0" y="0" style="fill:#000000;stroke:none;">985</tspan></text>
		</g>
		<g>
			<path d="M336.112,261.559l-8.962,85.702l123.119,36.794l47.396-1.155l-1.158-67.046l-10.404-18.493l-2.32-31.295l-2.303-31.13l-31.211-11.561l-95.947-41.616l-11.561,16.184l-6.648,63.616z"/>
			<text transform="matrix(1 0 0 1 399.728 291.7554)"><tspan x="0" y="0" style="fill:#000000;stroke:none;">989</tspan></text>
		</g>
		<g>
			<path d="M593.611,271.926l-46.238,2.313l-1.159-10.403l-62.424,2.311l-0.008-0.081l-2.303-31.13l-31.211-11.561l-95.947-41.616l13.871-20.807L394.55,2.351h207.151h12.717v0.231l-12.717,110.974l-16.184,9.248l-33.524,63.58l36.993-2.312l4.625,87.854z"/>
			<text transform="matrix(1 0 0 1 471.3979 127.6045)"><tspan x="0" y="0" style="fill:#000000;stroke:none;">988</tspan></text>
		</g>
		<g>
			<path d="M614.417,2.351h52.945L747.82,0.5l41.614,1.851v20.342L788.51,124.42l0.924,11.1v78.609l-0.924,13.87v15.725l0.924,76.754l0.927,12.946l-21.042,0.927l-4.621-16.184l-20.811-19.651l-9.245,4.621l-11.562-3.466l-19.652,13.87h-47.394l21.963-19.652
				l-49.707-21.963h-34.68l-4.625-87.854l-36.993,2.312l33.524-63.58l16.184-9.248L614.417,2.583V2.351z"/>
			<text transform="matrix(1 0 0 1 681.0278 159.9717)"><tspan x="0" y="0" style="fill:#000000;stroke:none;">990-991</tspan></text>
		</g>
		<g>
			<path d="M690.946,389.379l37.451-1.395l7.346,0.438l0.055,0.261l2.311-17.342l11.56-32.366l19.651-4.624l-4.621-16.184l-20.811-19.651l-9.245,4.621l-11.562-3.466l-19.652,13.87h-47.394l21.963-19.652l-49.707-21.963h-34.68l-46.238,2.313l-1.159-10.403
				l-62.424,2.311l-0.008-0.081l2.32,31.295l10.404,18.493l1.158,67.046l-47.396,1.155l0.065,43.091l10.802-2.168l8.321-5.543l7.397-1.853l6.472-2.774l13.876-2.775l3.7-0.924l12.946-1.849l5.547-2.779l5.549-5.543h4.623l5.549,1.849l6.475-0.927l4.623-1.848
				l6.473-0.927h8.327l7.397,0.927l11.099-4.626l6.472-4.622l4.624-0.927l100.341-0.458z"/>
			<text transform="matrix(1 0 0 1 580.062 337.9946)"><tspan x="0" y="0" style="fill:#000000;stroke:none;">993</tspan></text>
		</g>
		<g>
			<path d="M82.967,337.757l16.572,4.915l45.547-0.231l27.744,4.627h60.112l94.208,0.193l123.119,36.794l0.065,43.091l-13.243,3.38l-5.549-1.846l-5.55-3.702l-5.548-0.921l-3.7,1.847l-25.895,11.099l-5.548-0.927h-11.096l-6.475,5.552h-4.625l-3.698-5.552
				l-6.473-2.771l-5.549-1.853l-4.624-1.851l-5.548,0.924l-11.098-1.846l-32.368,0.922l-9.248,6.474l-34.216,13.873l-5.548,0.927l-42.541-10.175l-5.549-12.021l-0.924-17.571l-1.851-12.023l-10.173-17.569l-27.743-12.948l-3.698,1.847l-2.775,0.927l-4.624,1.853
				l-4.625,0.921l-3.7-1.848l-3.698-3.699l-2.775-1.848l-0.924-5.554l3.699,3.7l3.698,0.926l0.926-3.699l-3.699-3.695l-5.549-2.779l-7.4,0.926l-7.397-0.926l-3.698-1.848l-3.699-1.85l-5.549,2.775l-13.872,3.701l-3.699-2.779l-3.699-4.621l-6.474-0.921l-1.848,2.768
				l-1.85-1.847l-1.852-38.841l1.852-1.854l2.772,0.927l1.852,6.475l1.85,25.895l6.472-1.855l0.998-3.986z"/>
			<text transform="matrix(1 0 0 1 295.688 398.1069)"><tspan x="0" y="0" style="fill:#000000;stroke:none;">986</tspan></text>
		</g>
	</g>
</svg>
