<?xml version="1.0" encoding="iso-8859-1"?>
<!DOCTYPE svg >

<svg  width="682.543pt" height="601.505pt" viewBox="0 0 682.543 601.505" xml:space="preserve">
	<g id="Layer_x0020_1" style="fill-rule:nonzero;clip-rule:nonzero;fill:#FFFFFF;stroke:#000000;stroke-miterlimit:4; font-family:'Arial'; font-size:10;">
		<g>
			<path d="M243.505,166.336l32.42-6.671l-5.309,12.661l-5.625,13.936l-1.557,12.456l-28.024,21.793l-10.896,1.556l-24.91,32.693l10.897,26.469l12.456,17.121l-1.559,10.897H210.5h-23.349l-6.229-12.453l-63.208,0.309v-12.45l-7.474-6.231v-4.979l11.207-4.981
				l-1.24-13.7l2.487-6.225l11.208-9.961h8.721l4.979-12.455l14.946-11.217l11.209,9.972l18.683-6.231l13.702-11.205l3.732-3.741l11.208-12.456l6.228-7.473l8.721-2.487l4.98-4.98l2.493-9.966z"/>
			<text transform="matrix(1 0 0 1 155.4556 271.8867)"><tspan x="0" y="0" style="fill:#000000;stroke:none;">261</tspan></text>
		</g>
		<g>
			<path d="M275.925,159.665l15.938-3.491l0.211,5.18l13.702,1.248l72.833-1.544l19.328,0.297h24.287l1.557,37.365l-12.452,1.557l-1.102,15.915l-34.704,0.435l-44.378,1.56l-30.35-12.453l-30.18-33.404l5.309-12.661z"/>
			<text transform="matrix(1 0 0 1 343.0435 198.9526)"><tspan x="0" y="0" style="fill:#000000;stroke:none;">265</tspan></text>
		</g>
		<g>
			<path d="M275.925,159.665l15.938-3.491l0.211-33.43v-11.208V85.381l-0.771-31.043l-0.473-11.301V30.583V0.694L272.149,6.92l-2.488,3.735l8.712,14.947v6.228l-1.245,9.96l1.245,17.433l-11.205,21.177l-1.248,4.98l-6.228,16.194l1.245,4.98l-3.732,17.436h-6.228
				l2.489,8.718l-4.983,6.231l1.249,4.98l-3.741,8.712l1.248,8.721l-3.735,4.983l32.42-6.671z"/>
			<text transform="matrix(1 0 0 1 262.0923 155.3628)"><tspan x="0" y="0" style="fill:#000000;stroke:none;">260</tspan></text>
		</g>
		<g>
			<path d="M222.957,298.351l15.568-6.229l10.897,15.57l9.34,4.672l29.581,18.683l-3.115,12.451l17.125,3.114l-7.782,23.353l-23.355,38.918l18.684,34.25l-29.58,14.013l-27.25-28.794l-10.896-7.013l-16.341,0.782l0.772-14.01l43.589-30.365l-27.237-31.906
				l3.885-8.568l-9.337-13.228l3.894-7.009v-7.787l1.559-10.897z"/>
			<text transform="matrix(1 0 0 1 249.6362 353.0762)"><tspan x="0" y="0" style="fill:#000000;stroke:none;">266</tspan></text>
		</g>
		<g>
			<path d="M117.715,297.104l63.208-0.309l6.229,12.453H210.5h10.897v7.787l-3.894,7.009l9.337,13.228l-3.885,8.568l27.237,31.906l-43.589,30.365l-0.772,14.01l16.341-0.782l-7.785,15.57l5.456,5.454l-35.037,29.578l1.56,21.01h10.124l0.772,7.782l-12.456,10.127
				l-14.009,2.329l0.784,10.124l-7.785,3.887l-14.012-4.668l-3.112-10.899l4.671-15.569l-17.102-1.878l-37.387-4.347V469.6l-9.342-12.454l29.581-18.681l-3.114-26.469l-15.567-4.668l1.555-20.238l12.455-7.786l-29.578-14.01l-1.558-56.046l7.783-6.226l-20.451,0.399
				l1.77-11.3l4.979-4.979l7.477-3.741l16.188,11.217l-3.735,11.205h6.228l3.732-1.246l2.496-8.721l9.96,1.246z"/>
			<text transform="matrix(1 0 0 1 146.2192 398.2246)"><tspan x="0" y="0" style="fill:#000000;stroke:none;">250-252</tspan></text>
		</g>
		<g>
			<path d="M68.621,303.422l20.451-0.399l-7.783,6.226l1.558,56.046l29.578,14.01l-12.455,7.786l-1.555,20.238l15.567,4.668l3.114,26.469l-29.581,18.681l9.342,12.454v20.239l37.387,4.347L121.764,527.2l-14.009,3.113v10.899l-11.215,6.226l-4.981-4.981
				l-22.414-2.492l-6.227-16.188l-6.228,4.979l-13.701-22.416l-13.702-17.438l-1.246-8.719l-8.714-7.469l2.487-6.229L0.646,435.352l6.225-6.23v-11.205l1.248-7.477l-2.493-11.205v-12.456l11.208,1.248l23.661-6.227l6.228-22.423l9.966-2.487l2.487-22.422
				l-2.487-13.701l9.961-6.228l1.97-11.117z"/>
			<text transform="matrix(1 0 0 1 38.8032 438.7021)"><tspan x="0" y="0" style="fill:#000000;stroke:none;">255-256</tspan></text>
		</g>
		<g>
			<path d="M134.244,494.249l17.102,1.814l-4.671,15.569l3.112,10.899l14.012,4.668l3.113,15.569h17.126l14.011,6.227l6.228,14.011l28.021-1.557l14.943,0.937l-6.228,7.468l6.228,6.229l-14.943,9.967l-7.473-1.248l-9.969,2.493l-22.413,7.467l-16.188-16.188
				l-13.704,13.702l-14.946,7.476l-14.941,1.239l-8.721-6.229l-8.72-7.467h-8.715L96.54,574.84l-7.468-19.925l7.468-7.477l11.215-6.226v-10.899l14.009-3.113l12.479-32.951z"/>
			<text transform="matrix(1 0 0 1 130.6523 572.585)"><tspan x="0" y="0" style="fill:#000000;stroke:none;">247-248</tspan></text>
		</g>
		<g>
			<path d="M222.173,421.339l10.896,7.013l27.25,28.794v21.794l-24.91,21.794l7.788,14.012l-14.012,7.787l-3.116,14.013l7.784,7.781l-1.556,17.124l-28.021,1.557l-6.228-14.011l-14.011-6.227h-17.126l-3.113-15.569l7.785-3.887l-0.784-10.124l14.009-2.329
				l12.456-10.127l-0.772-7.782h-10.124l-1.56-21.01l35.037-29.578l-5.456-5.454l7.785-15.57z"/>
			<text transform="matrix(1 0 0 1 206.9355 483.8486)"><tspan x="0" y="0" style="fill:#000000;stroke:none;">258-259</tspan></text>
		</g>
		<g>
			<path d="M414.127,358.132l-8.714,12.456l1.244,14.946l-4.985,12.453l-8.717,6.228v9.959l-13.7,12.458l-9.959,24.906l-14.947,21.177l-17.436,21.177l-12.454,22.409l1.246,8.725l9.964,4.979l-16.192,7.474l2.489,9.96l-21.17,14.948l-6.226-8.72l-37.365,17.435
				l-9.966-8.715l-14.943-0.937l1.556-17.124l-7.784-7.781l3.116-14.013l14.012-7.787l-7.788-14.012l24.91-21.794v-21.794l29.58-14.013l51.375-31.137l37.364-40.475l15.563-10.899l20.243-14.01l-0.316,11.52z"/>
			<text transform="matrix(1 0 0 1 285.4424 504.0869)"><tspan x="0" y="0" style="fill:#000000;stroke:none;">249</tspan></text>
		</g>
		<g>
			<path d="M453.364,270.329l70.054-20.24l45.149-4.665l7.782-15.569l1.033-7.788l3.639-7.781l12.873-1.583l-14.121,39.564l3.734,3.741l-1.248,6.228l-11.208,9.961l-8.713,6.225l1.244,2.497L537.431,299.6l-14.947,28.64l-17.436-13.7l-8.722,7.476l-1.247,6.225
				l-23.661,51.064l-12.456,9.963l-22.413-4.98l-7.477-16.188l-14.945-9.966l0.316-11.52l28.022-28.021l10.897-48.263z"/>
			<text transform="matrix(1 0 0 1 490.9399 300.1455)"><tspan x="0" y="0" style="fill:#000000;stroke:none;">268</tspan></text>
		</g>
		<g>
			<path d="M422.225,161.353h11.828l1.248,90.915l12.454-12.453l14.948-8.715l4.979-6.225l18.684-11.211l2.484-6.225l4.99-2.496l12.452,6.225l18.682-21.171l8.715-13.695l4.979,1.239v9.969l12.458,6.228l-4.355,17.431l10.896,1.559v9.34h19.715l-1.033,7.788
				l-7.782,15.569l-45.149,4.665l-70.054,20.24l-28.022-17.125l-1.56-18.68h-14.009l0.561-18.423l0.996-15.827l12.452-1.557l-1.557-37.365z"/>
			<text transform="matrix(1 0 0 1 504.9517 240.9873)"><tspan x="0" y="0" style="fill:#000000;stroke:none;">267</tspan></text>
		</g>
		<g>
			<path d="M551.126,193.738l17.44,3.385l4.981-0.901l7.473-8.712l-1.248-7.476H586l6.228-3.732l12.453,1.239l9.963-9.96l7.473,1.245l14.946,9.962l3.735,3.738l12.453,1.242l3.734-3.735h4.987l3.734,4.983l-4.98,7.473l3.732,6.228l2.492,1.245h6.229l-3.74,9.96
				l7.476,7.476l-1.248,7.476l6.229,4.98l-18.682,32.381l-27.396-22.422l-27.402-21.171l-13.701-9.966l-0.821,4.026l-12.873,1.583l-3.639,7.781h-19.715v-9.34l-10.896-1.559l4.355-17.431z"/>
			<text transform="matrix(1 0 0 1 621.7114 211.4092)"><tspan x="0" y="0" style="fill:#000000;stroke:none;">254</tspan></text>
		</g>
		<g>
			<path d="M270.616,172.326l30.18,33.404l30.35,12.453l44.378-1.56l34.704-0.435l-0.455,18.335l-28.809,12.455l-18.68,41.26l-15.57,3.115l-27.237-17.912l-80.952-6.226v24.905l-15.568,6.229L210.5,281.229l-10.897-26.469l24.91-32.693l10.896-1.556l28.024-21.793
				l1.557-12.456l5.625-13.936z"/>
			<text transform="matrix(1 0 0 1 283.2153 250.3271)"><tspan x="0" y="0" style="fill:#000000;stroke:none;">263-264</tspan></text>
		</g>
		<g>
			<path d="M238.525,292.122l10.897,15.57l9.34,4.672l29.581,18.683l-3.115,12.451l17.125,3.114l-7.782,23.353l-23.355,38.918l18.684,34.25l51.375-31.137l37.364-40.475l15.563-10.899l20.243-14.01l28.022-28.021l10.897-48.263l-28.022-17.125l-1.56-18.68h-14.009
				l-28.809,12.455l-18.68,41.26l-15.57,3.115l-27.237-17.912l-80.952-6.226v24.905z"/>
			<text transform="matrix(1 0 0 1 344.6001 332.8379)"><tspan x="0" y="0" style="fill:#000000;stroke:none;">262</tspan></text>
		</g>
	</g>
</svg>
