<?xml version="1.0" encoding="iso-8859-1"?>
<!DOCTYPE svg >

<svg  width="499.819pt" height="601.459pt" viewBox="0 0 499.819 601.459" xml:space="preserve">
	<g id="Layer_x0020_1" style="fill-rule:nonzero;clip-rule:nonzero;stroke:#000000;stroke-miterlimit:4; font-family:'Arial'; font-size:10;">
		<g>
			<path style="fill:#FFFFFF;" d="M353.627,400.805l3.709,0.927l4.63-0.927l0.929,0.927l1.854,0.928h0.928h1.852v3.704v0.931l4.632,3.704h-6.483h-0.928l-0.928,1.854h1.855v1.852l-0.928-0.927l-0.928,2.782h1.855h-2.781l-0.929,11.118l2.782,0.927v0.927
				l-1.854,0.928v13.899l-0.929,0.927v0.926l0.929,10.192h-3.708l-2.775-1.85l-3.713-5.562l-2.777-5.561l-0.928-0.928l-2.775,0.928l-3.708-3.706l-3.712-1.856l-8.339-5.56l-3.703-1.851l-0.93-1.854l-1.85-0.927v-3.708h-2.782v-1.85l2.782-0.926l0.925-9.269h8.344
				v-16.681h1.849l0.929,0.926l1.854-0.926l1.85,1.854l2.783,1.854l1.851-1.854h3.706l5.561,3.707z"/>
			<text transform="matrix(1 0 0 1 326.7554 424.8965)"><tspan x="0" y="0" style="stroke:none;">Appling</tspan></text>
		</g>
		<g>
			<path style="fill:#FFFFFF;" d="M260.963,468.451l0.928,2.778l0.931,1.856l0.928,3.704l3.703,1.851l1.852,1.854l0.925,2.777l0.928,2.781l-0.928,3.708v1.854l1.857,5.559l7.411-0.924h23.168l0.924-3.711v-9.267l3.706-1.848H311v-9.268h-18.531l-1.85-2.783h-1.857
				h-8.338v-1.85l-19.461,0.927z"/>
			<text transform="matrix(1 0 0 1 265.8794 483.2725)"><tspan x="0" y="0" style="stroke:none;">Atkinson</tspan></text>
		</g>
		<g>
			<path style="fill:#FFFFFF;" d="M323.977,427.677l1.85,0.927l0.93,1.854l3.703,1.851l8.339,5.56l3.712,1.856l3.708,3.706l2.775-0.928l0.928,0.928l2.777,5.561l-0.922,0.928l-1.855,0.923v2.782h-0.928l-0.927,1.851h-2.776v3.71h-0.93l-0.926,0.925l-0.925,0.926
				v0.927h-1.857v1.856h-5.559v1.85h-1.849h-5.561l-0.929-3.706h-0.93v-2.777h-12.042v-12.05L311,446.21v-12.046l0.93-0.926v-0.93l12.047-0.923v-3.709z"/>
			<text transform="matrix(1 0 0 1 314.4341 449.9189)"><tspan x="0" y="0" style="stroke:none;">Bacon</tspan></text>
		</g>
		<g>
			<path style="fill:#FFFFFF;" d="M156.257,463.818l-9.268-0.928l-0.924,2.777l-19.461-0.929v-0.921l-1.852-0.928v-0.929l-1.855-0.927l-1.854,2.783l-0.923,0.921v0.929l-0.929-0.929l-1.855-0.921l-0.926,1.85l-1.85-0.929l-9.269-0.921l-0.926,22.235l10.195,0.93
				l0.927,22.24h3.704v-5.563l1.852-1.855v-1.849l1.854-1.858l3.707-3.704h0.928l0.927,0.928l1.852-0.928l-0.925-2.779l1.85-2.781l2.784-1.851l1.85-3.711v-3.703h1.854l2.778-2.779l4.634-0.926l3.705-1.857l0.928-0.921v-3.712l2.784-1.85l2.778-2.785l0.927-0.921z"
				/>
			<text transform="matrix(1 0 0 1 106.1284 478.6406)"><tspan x="0" y="0" style="stroke:none;">Baker</tspan></text>
		</g>
		<g>
			<path style="fill:#FFFFFF;" d="M237.798,266.441l17.604-6.481l5.562,0.921v3.709l5.562,3.706l-0.927-5.56l2.782-0.926l0.924-12.044l-4.634,1.849V239.57l-16.68-5.561l-11.119,2.784l-5.556-1.854l6.482,31.502z"/>
			<text transform="matrix(1 0 0 1 231.4097 252.542)"><tspan x="0" y="0" style="stroke:none;">Baldwin</tspan></text>
		</g>
		<g>
			<path style="fill:#FFFFFF;" d="M234.092,69.999l-5.562-3.711h-7.408l-6.491,5.562l-8.338,7.416l4.634,12.971l6.489,4.632l5.555-1.853l10.193,8.339l11.123-7.413l-9.268-6.486l-0.927-19.457z"/>
			<text transform="matrix(1 0 0 1 208.729 86.6758)"><tspan x="0" y="0" style="stroke:none;">Banks</tspan></text>
		</g>
		<g>
			<path style="fill:#FFFFFF;" d="M185.905,118.18v12.048l6.489,9.269l3.705,4.631l8.339-2.782l3.709,0.927l11.12-6.488l-0.931-9.266l-21.31-3.705l-7.412-9.267l-3.711,4.633z"/>
			<text transform="matrix(1 0 0 1 185.8232 133.0083)"><tspan x="0" y="0" style="stroke:none;">Barrow</tspan></text>
		</g>
		<g>
			<path style="fill:#FFFFFF;" d="M102.508,77.409l-36.137,2.779l-4.634,37.992l-7.411,1.855h20.384l19.459-0.926h9.267l-0.929-41.7z"/>
			<text transform="matrix(1 0 0 1 65.6367 102.4302)"><tspan x="0" y="0" style="stroke:none;">Bartow</tspan></text>
		</g>
		<g>
			<path style="fill:#FFFFFF;" d="M271.157,419.337l0.93,10.193l-1.857,0.928h-16.677l-0.927,2.78l-8.338-0.93v-2.778l-5.562-0.927l-0.928-8.338l-0.927-0.929l-0.925-0.928l-2.782,0.928h-0.924h-6.486l-1.855-4.634v-1.852l-1.852-1.854v-1.855l31.505-1.849
				l1.85,0.927l2.782,3.704l0.931-1.852l0.925-0.931l1.852,1.855l0.931,3.706l2.776,1.855l2.782,1.851l2.776,0.928z"/>
			<text transform="matrix(1 0 0 1 233.542 421.1934)"><tspan x="0" y="0" style="stroke:none;">Ben Hill</tspan></text>
		</g>
		<g>
			<path style="fill:#FFFFFF;" d="M258.184,458.257l-14.827-0.927l-5.559,0.927l-0.927,0.928l-1.852,0.925l-0.927,7.415h-0.928v1.85h-1.849v1.855h-0.928v0.928l-1.857,0.929v0.921v3.71v2.778l2.785,2.777l0.924,0.931l1.852,0.927l1.854-0.927l1.852,1.851
				l2.783,5.562l1.849,4.635l-0.927,2.778l0.927,7.412l3.706,3.709v4.634h8.345v-2.781h4.634l-0.931-9.268l13.902-1.852v-0.926v-2.783l-1.857-5.559v-1.854l0.928-3.708l-0.928-2.781l-0.925-2.777l-1.852-1.854l-3.703-1.851l-0.928-3.704l-0.931-1.856l-0.928-2.778
				l-1.849-2.783l-0.931-1.85l0.931-2.783l-0.931-2.778z"/>
			<text transform="matrix(1 0 0 1 234.6528 484.2031)"><tspan x="0" y="0" style="stroke:none;">Berrien</tspan></text>
		</g>
		<g>
			<path style="fill:#FFFFFF;" d="M181.274,278.492l8.342,14.823l8.339,3.71l3.706,1.849l9.267,2.783l0.927-8.342l10.193-10.192l-2.779-4.631l-14.83-8.344l-2.778-5.558l-20.387,13.901z"/>
			<text transform="matrix(1 0 0 1 189.7964 284.9746)"><tspan x="0" y="0" style="stroke:none;">Bibb</tspan></text>
		</g>
		<g>
			<path style="fill:#FFFFFF;" d="M222.972,329.455l25.948-16.68l10.195,22.239l-3.713-4.634l-14.82,13.899l1.849,1.854l-8.338,6.489l-12.97-15.756l1.849-7.412z"/>
			<text transform="matrix(1 0 0 1 218.2534 337.793)"><tspan x="0" y="0" style="stroke:none;">Bleckley</tspan></text>
		</g>
		<g>
			<path style="fill:#FFFFFF;" d="M407.378,475.864l-5.563,20.386l-0.927,2.778l-3.707-0.93l-0.93,0.93h-0.924l-1.853,6.488h-5.559v1.851l-1.854,1.856l-0.928,2.778h0.928h2.782l-0.928,1.854v1.85l-19.461-9.265l-2.779,10.191h-5.562l-5.559-4.63V496.25
				l-4.635-0.928l-2.778-1.854v-3.706h5.556h3.713h3.703l0.93-0.928v-4.631l14.821-1.852l0.928-0.927v-1.855l-2.776-3.705l0.928-2.778l10.189,0.921h4.631l4.631-0.921l3.713-1.856l9.27,4.635z"/>
			<text transform="matrix(1 0 0 1 357.5239 498.0986)"><tspan x="0" y="0" style="stroke:none;">Brantley</tspan></text>
		</g>
		<g>
			<path style="fill:#FFFFFF;" d="M225.754,514.783l-1.855-0.928l-1.852-0.927l-2.779-0.927l-2.782-0.932l-0.928-1.847v5.56h-18.53l0.927,47.255l16.676,1.855l22.24,1.854l-3.707-4.633l-0.924-0.927l-1.852-1.856l-1.857-0.925l-3.704-4.634v-0.925l0.928-2.782
				l1.852-0.928l0.924-2.778v-0.925l-0.924-2.781v-0.925h1.852l1.857-0.93h2.776l1.854-0.926l0.925-1.852l-0.925-2.783l-4.631-0.922l-1.857-1.855l-0.928-2.778v-3.709l-1.849-5.557l-0.927-4.634z"/>
			<text transform="matrix(1 0 0 1 199.4746 538.3477)"><tspan x="0" y="0" style="stroke:none;">Brooks</tspan></text>
		</g>
		<g>
			<path style="fill:#FFFFFF;" d="M401.815,367.444l0.925,3.713l2.78,3.704l2.775,1.851l3.713,0.927l2.777,2.784l3.706,2.778l0.927,2.777l0.928,4.633l2.779,1.857l0.928,0.926h1.857h1.846l1.857-0.926h1.85h1.855l1.857,1.855v1.849l0.919,2.782l2.787,2.779
				l0.925,1.855l1.853,2.776l1.854,0.931l-0.928,0.927l2.777,1.852h1.854l1.857,0.924l2.772,0.928l1.858,0.927l0.924,4.635l0.929,2.779l5.559,1.854l3.704-1.854v-1.856l0.93-1.851l-1.854-2.782l0.925-1.852l0.93-0.928l0.928-4.634l-2.782-4.631h-1.849l-0.931-0.927
				l0.931-1.853h-0.931l-0.929,0.925l-1.849,2.782l-0.926-1.854l-1.855-0.927l0.927-1.851l-1.855-1.856l-1.849-1.849v-2.783l-3.706-0.929v-3.708l-1.857-3.702l-5.559-8.339l-4.635-18.534l-26.871,9.268l-3.707,1.849h-4.632z"/>
			<text transform="matrix(1 0 0 1 414.6948 379.4941)"><tspan x="0" y="0" style="stroke:none;">Bryan</tspan></text>
		</g>
		<g>
			<path style="fill:#FFFFFF;" d="M394.396,304.436l-17.603,5.559l-3.704,6.485l8.339,3.71l-0.932,6.483v1.856l6.492,9.264l-2.782,12.048l-2.778,2.782l3.706-0.929h3.71l4.631,1.85l2.776,2.782l2.782,3.707l1.854,3.705l0.927,3.706h4.632l3.707-1.849l26.871-9.268
				l-0.93-4.632l-1.849-5.561l-1.855-0.929l0.928-1.851l-0.928-0.927l-1.849-0.927l-3.711-3.707v-3.704v-1.855l0.925-2.779l-0.925-2.782l-2.778-3.706l-1.855-1.854h-1.852l-7.413-3.707l-3.71-0.928l-1.845-2.779l-7.418-5.56l-1.852-1.85l-3.713-1.855z"/>
			<text transform="matrix(1 0 0 1 388.1938 335.9399)"><tspan x="0" y="0" style="stroke:none;">Bulloch</tspan></text>
		</g>
		<g>
			<path style="fill:#FFFFFF;" d="M424.98,252.542l-22.24,17.606l-3.706-3.707l-6.486-1.851l-9.262,3.706l-13.903,0.929l-5.562,3.706l-1.854,9.265l-16.676-2.782l4.631-14.823l-1.854-15.753l5.561-19.46l-1.851-4.635l10.189-1.849l5.562,4.632l1.854,1.852
				l1.853-1.852l7.413,1.852l3.705-1.852l2.781-0.928l2.782-1.855l2.776,0.928l3.703,0.928l0.932,1.852l2.781,2.782l3.706-0.926l0.925,2.777v2.783l0.925,1.851l2.782,3.71l5.562,3.705l4.635,2.779l8.337,4.632z"/>
			<text transform="matrix(1 0 0 1 371.145 248.8369)"><tspan x="0" y="0" style="stroke:none;">Burke</tspan></text>
		</g>
		<g>
			<path style="fill:#FFFFFF;" d="M185.905,210.843l-6.483-10.194l-7.415,11.123l-3.707,1.854l-0.926,3.707l-6.486,3.705l1.852,0.927l-4.633,5.561l-1.851,6.484h8.338l25.944,0.93l0.929-7.414l-5.563-16.682z"/>
			<text transform="matrix(1 0 0 1 166.1724 225.6699)"><tspan x="0" y="0" style="stroke:none;">Butts</tspan></text>
		</g>
		<g>
			<path style="fill:#FFFFFF;" d="M401.815,496.25l-0.927,2.778l-3.707-0.93l-0.93,0.93h-0.924l-1.853,6.488h-5.559v1.851l-1.854,1.856l-0.928,2.778h0.928h2.782l-0.928,1.854v1.85v4.634l0.928,1.855v2.779l-0.928,2.782v1.849l0.928,1.856l-1.855,3.705l-0.927,5.563
				l4.631-0.93l1.854,2.783l3.704,2.777l3.709-0.925l3.704,3.703l1.855-1.85l1.858,2.777l3.703,3.707l2.779-1.851h1.854l0.929,1.851l4.63,1.855l4.638-0.929h4.632l1.849-6.483l-3.703-7.417l2.775-3.705l-0.921-2.777l1.849-4.634l4.634-3.709l-1.849-3.707
				l-3.713,0.928l-0.921-2.777l0.921-1.856l1.855,0.93l6.488-3.707l1.853-5.56v-3.707l-2.777-1.855l-0.93,7.409l-3.706,2.785h-2.783l-0.921-2.785l-3.711-2.774l-1.852-0.929l-0.927-0.927v-2.779l0.927-0.927l-0.927-0.929l-7.41,1.855l-1.857-0.927l-2.777-0.929
				l-4.63-1.849h-2.786h-0.928l-0.925-2.783l-0.925-0.924z"/>
			<text transform="matrix(1 0 0 1 392.1821 525.9014)"><tspan x="0" y="0" style="stroke:none;">Camden</tspan></text>
		</g>
		<g>
			<path style="fill:#FFFFFF;" d="M351.777,348.912l-0.928-6.485l7.413-11.122l0.925-8.338l9.269-8.339l4.634,1.852l8.339,3.71l-0.932,6.483v1.856l6.492,9.264l-2.782,12.048l-2.778,2.782l-5.563-0.929l-24.089-2.782z"/>
			<text transform="matrix(1 0 0 1 351.8726 343.3545)"><tspan x="0" y="0" style="stroke:none;">Candler</tspan></text>
		</g>
		<g>
			<path style="fill:#FFFFFF;" d="M78.419,159.878l-14.827-5.56v12.977l-23.165,8.339l-7.417-1.855l3.71,22.237l0.924,7.417l27.799,1.851l9.267-0.923l10.194-10.194l-0.927-4.633l2.781-3.707h-9.266l0.926-25.948z"/>
			<text transform="matrix(1 0 0 1 42.3804 187.6787)"><tspan x="0" y="0" style="stroke:none;">Carroll</tspan></text>
		</g>
		<g>
			<path style="fill:#FFFFFF;" d="M387.917,515.705v4.634l0.928,1.855v2.779l-0.928,2.782v1.849l0.928,1.856l-1.855,3.705l-0.927,5.563h-0.928l-1.849,1.854l-0.933,1.853h-0.925l-3.708-0.931l-0.927,1.855v2.778l-2.776,1.856v1.854v4.634l0.928,11.117l1.849,4.633
				l0.927,3.706l-0.927,3.711l-0.928,11.116l-0.921,7.416l-0.928,2.778h-3.706h-3.713h-3.703l-2.78-0.93l-1.853-3.704v-9.266l-0.926-3.706l-0.925-1.855l-1.855-2.778l1.855-1.855l0.925-2.775l5.559-26.873l-2.78-1.856l-5.559,0.929h-23.165v-29.656h28.724h5.562
				l2.779-10.191l19.461,9.265z"/>
			<text transform="matrix(1 0 0 1 337.5073 535.166)"><tspan x="0" y="0" style="stroke:none;">Charleton</tspan></text>
		</g>
		<g>
			<path style="fill:#FFFFFF;" d="M464.822,420.266l4.636,2.776l8.339-10.19l0.927-1.854l-7.41-4.634l1.849-4.631l11.124,2.779l3.706-3.706l-0.931-6.483l7.42-1.855l4.631-6.49l-5.562-3.705l-16.678-5.562l-3.711-0.923l-3.704-2.782l-0.926-1.849l-1.853-2.784
				l-0.928-3.706l1.854-5.562l-3.708-0.927L441.66,374.86l5.559,8.339l1.857,3.702v3.708l3.706,0.929v2.783l1.849,1.849l1.855,1.856l-0.927,1.851l1.855,0.927l0.926,1.854l1.849-2.782l0.929-0.925h0.931l-0.931,1.853l0.931,0.927h1.849l2.782,4.631l-0.928,4.634
				l-0.93,0.928l-0.925,1.852l1.854,2.782l-0.93,1.851v1.856z"/>
			<text transform="matrix(1 0 0 1 448.2437 388.7598)"><tspan x="0" y="0" style="stroke:none;">Chatham</tspan></text>
		</g>
		<g>
			<path style="fill:#FFFFFF;" d="M55.254,57.95l0.924-2.779l-42.622-0.929l6.483,41.699l6.489,0.927l1.852-5.558l3.709-7.414l16.676-7.413l6.488-18.533z"/>
			<text transform="matrix(1 0 0 1 0 69.6479)"><tspan x="0" y="0" style="stroke:none;">Chattooga</tspan></text>
		</g>
		<g>
			<path style="fill:#FFFFFF;" d="M144.206,86.676v20.389h-6.483l-3.705,2.779l-0.928,4.631l-5.56,2.779v3.71l-24.094-1.855l-0.929-41.7h8.344v3.706h33.354v5.562z"/>
			<text transform="matrix(1 0 0 1 101.2168 98.7207)"><tspan x="0" y="0" style="stroke:none;">Cherokee</tspan></text>
		</g>
		<g>
			<path style="fill:#FFFFFF;" d="M248.919,130.229l-4.632-6.485h-7.416l-17.604,12.042l25.948,14.828l4.633-6.484l-3.713-3.709l2.783-10.19z"/>
			<text transform="matrix(1 0 0 1 219.644 138.5669)"><tspan x="0" y="0" style="stroke:none;">Clarke</tspan></text>
		</g>
		<g>
			<path style="fill:#FFFFFF;" d="M72.859,419.337l-5.56-0.928l-3.707,0.928l-3.704,0.929l0.922-0.929l-5.556-0.928v5.56l1.851,5.562l3.706,9.268l1.856,6.486l-0.929,5.558l1.855,1.855l0.929,3.705h4.633h0.921h1.856l1.856-0.928l12.043-0.922l0.928-0.929v-0.927
				v-1.855h-0.928l0.928-2.777v-0.93v-0.925h-0.928l-0.926-0.926v-3.709h0.926v-1.851H73.788l0.923-4.632v-2.784l-1.852-1.851v-2.781v-0.922v-7.418z"/>
			<text transform="matrix(1 0 0 1 62.8564 448.0645)"><tspan x="0" y="0" style="stroke:none;">Clay</tspan></text>
		</g>
		<g>
			<path style="fill:#FFFFFF;" d="M134.019,176.562h-11.122l1.855,12.972l1.852,6.483l3.707,1.856l-0.925,11.122l1.85,5.556l3.707-1.852v-9.265h6.487v-13.9l4.636-6.487l-2.779-2.779v-4.633l-9.267,0.928z"/>
			<text transform="matrix(1 0 0 1 118.9155 187.6787)"><tspan x="0" y="0" style="stroke:none;">Clayton</tspan></text>
		</g>
		<g>
			<path style="fill:#FFFFFF;" d="M303.589,492.539l1.857,2.783l6.483,14.827l4.631,11.117l2.785,3.707l2.777,3.709l0.927,16.677l5.561,0.929l0.925,8.34h0.924l0.932,2.778l-1.855-0.925v3.706l0.924,0.927l1.859,11.117l-14.827-0.926l-0.931-9.268l-1.845-4.632
				L311,555.555l-4.632-1.855h-3.703l-1.853-0.927v-0.925h-3.712l-2.777-3.71l-0.927-1.85l0.927-2.784l-14.826-6.482v-2.783V496.25h23.168l0.924-3.711z"/>
			<text transform="matrix(1 0 0 1 285.9946 530.5352)"><tspan x="0" y="0" style="stroke:none;">Clinch</tspan></text>
		</g>
		<g>
			<path style="fill:#FFFFFF;" d="M103.437,119.109H94.17l1.855,37.064h10.194l5.556,8.339l11.121-12.972l0.927-8.336l7.411-9.268l-2.777-4.634l-0.927-8.338l-24.094-1.855z"/>
			<text transform="matrix(1 0 0 1 99.8223 141.3462)"><tspan x="0" y="0" style="stroke:none;">Cobb</tspan></text>
		</g>
		<g>
			<path style="fill:#FFFFFF;" d="M311.93,432.309v0.93l-0.93,0.926v12.046l2.784,0.925v12.05L311,458.257v13.9h-18.531l-1.85-2.783h-1.857h-8.338v-1.85l-19.461,0.927l-1.849-2.783l-0.931-1.85l0.931-2.783l-0.931-2.778l0.931-0.927h1.849v-2.777l2.786,0.922
				l0.921-6.483l0.928-0.927v-8.34h0.927v-1.856h2.779v-0.925l0.925-0.924v-5.562l1.857-0.928l-0.93-10.193l2.782-0.928h3.71h2.775l0.928-0.923l3.704,0.923l0.931-0.923l2.775-2.783l0.931-0.927l0.927,18.532h21.311z"/>
			<text transform="matrix(1 0 0 1 274.1216 449.9189)"><tspan x="0" y="0" style="stroke:none;">Coffee</tspan></text>
		</g>
		<g>
			<path style="fill:#FFFFFF;" d="M219.268,477.717l0.928,12.045v3.706l-0.928,1.854l-2.782,2.776l-0.928,2.784v4.634v3.707v5.56h-18.53l-2.778,0.922l-0.929,0.927l-1.853-0.927v-0.922l-21.311-0.928v-4.632v-4.634h-0.929v-1.855h1.856v-25.018l24.089,0.924v0.929
				h3.71l0.921-1.853l6.49,0.924l12.975-0.924z"/>
			<text transform="matrix(1 0 0 1 177.2969 497.1738)"><tspan x="0" y="0" style="stroke:none;">Colquitt</tspan></text>
		</g>
		<g>
			<path style="fill:#FFFFFF;" d="M374.945,187.679l-27.802,25.02l-4.633-6.487h0.925l-1.851-3.706l-3.707-4.632l-0.928-5.56l1.849-1.852l-6.479-2.782l2.775-5.562l-2.775-3.705v-2.778l0.927-1.855l9.265-3.707h13.901l0.925,4.634l3.708,3.706l1.851,2.783
				l3.703,0.922l2.784,0.929l5.563,4.633z"/>
			<text transform="matrix(1 0 0 1 335.563 184.6733)"><tspan x="0" y="0" style="stroke:none;">Columbia</tspan></text>
		</g>
		<g>
			<path style="fill:#FFFFFF;" d="M246.136,514.783v-4.634l-3.706-3.709l-0.927-7.412l0.927-2.778l-1.849-4.635l-2.783-5.562l-1.852-1.851l-1.854,0.927l-1.852-0.927l-0.924-0.931l-2.785-2.777v-2.778v-3.71l-0.924,0.928l-0.925,0.93h-0.927v1.853h-6.486
				l0.928,12.045v3.706l-0.928,1.854l-2.782,2.776l-0.928,2.784v4.634v3.707l0.928,1.847l2.782,0.932l2.779,0.927l1.852,0.927l1.855,0.928h20.382z"/>
			<text transform="matrix(1 0 0 1 216.8584 501.8057)"><tspan x="0" y="0" style="stroke:none;">Cook</tspan></text>
		</g>
		<g>
			<path style="fill:#FFFFFF;" d="M65.444,205.284l9.267-0.923l10.194-10.194h23.165l-3.706,6.483l0.926,7.418l6.485,5.558l7.415,14.824v3.71H81.198l-7.411-0.928l-8.343-25.948z"/>
			<text transform="matrix(1 0 0 1 77.2173 218.2593)"><tspan x="0" y="0" style="stroke:none;">Coweta</tspan></text>
		</g>
		<g>
			<path style="fill:#FFFFFF;" d="M156.257,278.492l-1.856,16.676l0.929,3.707l11.12,4.634v7.416l5.557,8.338l25.948-22.237l-8.339-3.71l-8.342-14.823h-25.017z"/>
			<text transform="matrix(1 0 0 1 154.5044 297.0254)"><tspan x="0" y="0" style="stroke:none;">Crawford</tspan></text>
		</g>
		<g>
			<path style="fill:#FFFFFF;" d="M208.148,386.902h-35.214l1.854,6.491v5.56l-0.926,8.341h3.705h3.708l2.782,0.927l0.927,2.776l0.921-0.924l0.928,2.779l3.707,1.852l17.609-0.927v-7.414v-19.461z"/>
			<text transform="matrix(1 0 0 1 177.9487 401.7314)"><tspan x="0" y="0" style="stroke:none;">Crisp</tspan></text>
		</g>
		<g>
			<path style="fill:#FFFFFF;" d="M151.623,52.388l-15.754,6.489l2.784,10.193h4.633l0.921,12.044v5.562h30.582l-1.854-10.192l-12.972-4.634l-9.267-12.045l0.928-7.416z"/>
			<text transform="matrix(1 0 0 1 145.3032 80.3633)"><tspan x="0" y="0" style="stroke:none;">Dawson</tspan></text>
		</g>
		<g>
			<path style="fill:#FFFFFF;" d="M95.098,510.149l-0.927,7.411l-0.928,14.828l-0.924,1.85l-0.927,5.561l-1.853,3.705l-5.56,7.418l-1.853,2.777l0.93,1.855l50.036,2.776l-0.929-49.107H119.19h-3.704l-20.388,0.926z"/>
			<text transform="matrix(1 0 0 1 95.1968 544.4346)"><tspan x="0" y="0" style="stroke:none;">Decatur</tspan></text>
		</g>
		<g>
			<path style="fill:#FFFFFF;" d="M251.699,401.731l-7.411-8.339l-2.784-12.049l-4.632-5.555l3.71-4.631l-1.855-1.858l3.704-5.561l-8.338-11.115l8.338-6.489l-1.849-1.854l14.82-13.899l3.713,4.634l14.824,34.285l9.262-4.631l1.855,1.854l-5.559,6.484
				l-27.799,28.726z"/>
			<text transform="matrix(1 0 0 1 241.5981 366.522)"><tspan x="0" y="0" style="stroke:none;">Dodge</tspan></text>
		</g>
		<g>
			<path style="fill:#FFFFFF;" d="M207.222,350.765h-23.166l-12.973,11.123l-1.856,8.338l0.929,4.634l0.927,0.928l2.778,1.85l-0.927,3.705v5.559h35.214V374.86l-0.926-24.095z"/>
			<text transform="matrix(1 0 0 1 174.978 373.0059)"><tspan x="0" y="0" style="stroke:none;">Dooly</tspan></text>
		</g>
		<g>
			<path style="fill:#FFFFFF;" d="M123.824,439.725l0.928,1.851v1.855v4.634l-0.928,2.777l0.928,1.855l1.852,2.777v2.782l2.782,3.705l-2.782,1.856v0.921l19.461,0.929l0.924-2.777l9.268,0.928h13.9l-0.929-1.856h1.856v-1.853h-0.927v-11.118h0.927l0.923-2.781
				l-0.923-2.779l-0.927-4.633h-0.929v-0.93h0.929v-2.775h-2.783l-2.779,2.775l-25.942,1.856h-14.829z"/>
			<text transform="matrix(1 0 0 1 127.6265 452.6973)"><tspan x="0" y="0" style="stroke:none;">Dougherty</tspan></text>
		</g>
		<g>
			<path style="fill:#FFFFFF;" d="M111.775,164.512l-5.556-8.339H96.025l-0.928,3.705l-11.12,1.856l-5.559-1.856l-0.926,25.948h9.266l7.412-5.56l9.267-3.705l8.338-12.049z"/>
			<text transform="matrix(1 0 0 1 77.5542 174.7568)"><tspan x="0" y="0" style="stroke:none;">Douglas</tspan></text>
		</g>
		<g>
			<path style="fill:#FFFFFF;" d="M105.29,463.818l-0.926,22.235h-2.778h-0.928l-0.927,0.93h-1.855l-0.924,0.923l-2.782-0.923h-1.852H76.565l-0.929,23.166l-10.192-1.854v-1.855l-1.852-1.851l-2.782-3.707l-2.778-5.561v-1.854l-0.928-7.414v-4.629l1.857-1.855
				v-5.563v-8.339l0.927-5.559v-3.707l1.849-5.561l1.855,1.855l0.929,3.705h4.633h0.921h1.856l1.856-0.928l12.043-0.922v0.922h1.856h0.921v2.782l-0.921,0.928v0.925l1.851,0.926v0.927l0.927,1.856h14.825z"/>
			<text transform="matrix(1 0 0 1 67.0273 474.9346)"><tspan x="0" y="0" style="stroke:none;">Early</tspan></text>
		</g>
		<g>
			<path style="fill:#FFFFFF;" d="M279.498,534.238v2.783l14.826,6.482l-0.927,2.784l0.927,1.85l2.777,3.71h3.712v0.925l1.853,0.927h3.703l4.632,1.855l3.716,1.852l1.845,4.632l0.931,9.268h-11.123l-43.547-3.707v-2.777l0.928-0.928v-1.855h-1.858v-12.973
				l0.931-3.706h2.776v-2.777l1.854-0.929l1.852-1.854h1.853l0.93-0.926l2.776,0.926l4.635-5.561z"/>
			<text transform="matrix(1 0 0 1 266.3442 559.2549)"><tspan x="0" y="0" style="stroke:none;">Echols</tspan></text>
		</g>
		<g>
			<path style="fill:#FFFFFF;" d="M467.605,359.106l-3.708-0.927L441.66,374.86l-4.635-18.534l-0.93-4.632l-1.849-5.561l-1.855-0.929l0.928-1.851l-0.928-0.927l-1.849-0.927l-3.711-3.707v-3.704v-1.855l0.925-2.779l-0.925-2.782l-2.778-3.706l17.606-12.973
				l2.781,3.706h2.777l4.63,2.779l10.2,9.266l0.925,2.784l0.924,5.56l1.854,5.556l2.78,3.709l0.926,2.779l-0.926,2.778l-0.927,10.194z"/>
			<text transform="matrix(1 0 0 1 428.5532 336.8672)"><tspan x="0" y="0" style="stroke:none;">Effingham</tspan></text>
		</g>
		<g>
			<path style="fill:#FFFFFF;" d="M320.268,133.936l-2.776-8.339l-15.755-24.094l-1.849-5.561l-1.861-5.559l-21.31,12.047l-3.703-3.709h-6.489l-2.775,10.194l8.337,6.487l4.631,10.194l2.78,2.778l16.681,4.634l15.752,0.927h8.338z"/>
			<text transform="matrix(1 0 0 1 278.4829 119.1089)"><tspan x="0" y="0" style="stroke:none;">Elbert</tspan></text>
		</g>
		<g>
			<path style="fill:#FFFFFF;" d="M345.291,279.414l-8.341-1.849l-1.855,2.778l0.929,6.487l-4.632,2.777l-5.564,11.122l1.858,1.852l-12.049,10.194l1.855,6.487l-5.562-0.927l-1.853,2.779l18.533,3.708l12.042,8.339l-2.775,11.117l3.707,4.633h10.192l-0.928-6.485
				l7.413-11.122l0.925-8.338l9.269-8.339l4.634,1.852l3.704-6.485l-6.482-8.338l-1.855-7.416l-6.489-12.046l-16.676-2.782z"/>
			<text transform="matrix(1 0 0 1 328.3325 307.2134)"><tspan x="0" y="0" style="stroke:none;">Emanuel</tspan></text>
		</g>
		<g>
			<path style="fill:#FFFFFF;" d="M375.866,351.694l5.563,25.944l0.925,1.856h2.781l5.559,1.849h5.559l5.563,0.929l4.632-2.778l1.849-2.783l-2.775-1.851l-2.78-3.704l-0.925-3.713l-0.927-3.706l-1.854-3.705l-2.782-3.707l-2.776-2.782l-4.631-1.85h-3.71
				l-3.706,0.929l-5.563-0.929z"/>
			<text transform="matrix(1 0 0 1 377.7241 363.7383)"><tspan x="0" y="0" style="stroke:none;">Evans</tspan></text>
		</g>
		<g>
			<path style="fill:#FFFFFF;" d="M155.33,2.352l-16.677-0.928V0.5v0.924l-32.433,0.928l0.923,18.532l21.315,0.927l9.265,2.778l8.341,20.388l4.631,3.707l0.928,3.704l4.634-6.483l5.56-9.265l-0.929-9.269h-4.631l-0.927-6.487l3.704-2.777l-6.482-8.338l2.778-7.417z"
				/>
			<text transform="matrix(1 0 0 1 119.6533 15.3237)"><tspan x="0" y="0" style="stroke:none;">Fannin</tspan></text>
		</g>
		<g>
			<path style="fill:#FFFFFF;" d="M124.751,189.533h-3.709l-12.972,4.633l-3.706,6.483l0.926,7.418l6.485,5.558l7.415,14.824l6.483-0.924l5.562-9.266v-3.709l-1.85-5.556l0.925-11.122l-3.707-1.856l-1.852-6.483z"/>
			<text transform="matrix(1 0 0 1 100.6602 208.0674)"><tspan x="0" y="0" style="stroke:none;">Fayette</tspan></text>
		</g>
		<g>
			<path style="fill:#FFFFFF;" d="M61.737,118.18l-7.411,1.855H23.744l-3.705-24.094l6.489,0.927l1.852-5.558l3.709-7.414l16.676-7.413l6.488-18.533l2.778,3.705l-1.854,17.61l10.193,0.923l-4.634,37.992z"/>
			<text transform="matrix(1 0 0 1 34.6841 99.6475)"><tspan x="0" y="0" style="stroke:none;">Floyd</tspan></text>
		</g>
		<g>
			<path style="fill:#FFFFFF;" d="M174.788,86.676h-30.582v20.389l0.93,7.41l15.752,8.34V112.62l1.852-1.851l2.782-4.633l10.195-8.339l-0.93-11.122z"/>
			<text transform="matrix(1 0 0 1 144.4429 100.9741)"><tspan x="0" y="0" style="stroke:none;">Forsyth</tspan></text>
		</g>
		<g>
			<path style="fill:#FFFFFF;" d="M269.304,64.438l-4.634,18.532l0.928,9.265l-2.776,1.851l-6.489,3.711l-12.045-1.856l-9.268-6.486l-0.927-19.457l1.854-2.782h19.455l7.42-6.485l6.482,3.707z"/>
			<text transform="matrix(1 0 0 1 235.2407 79.2144)"><tspan x="0" y="0" style="stroke:none;">Franklin</tspan></text>
		</g>
		<g>
			<path style="fill:#FFFFFF;" d="M127.531,120.964l0.927,8.338l2.777,4.634l-7.411,9.268l-0.927,8.336l-11.121,12.972l-8.338,12.049l-9.267,3.705l-7.412,5.56l-2.781,3.707l0.927,4.633h23.165l12.972-4.633h3.709l-1.855-12.972h11.122l0.923-38.922l5.56-3.704
				l1.856,2.779l4.631-7.413l5.563,0.927v-2.782l8.336-4.632l-15.752-8.34l-0.93-7.41h-6.483l-3.705,2.779l-0.928,4.631l-5.56,2.779v3.71z"/>
			<text transform="matrix(1 0 0 1 109.7515 172.5024)"><tspan x="0" y="0" style="stroke:none;">Fulton</tspan></text>
		</g>
		<g>
			<path style="fill:#FFFFFF;" d="M101.586,54.243l1.851-25.02l3.706-0.924l1.854-5.56l-1.854-1.855l21.315,0.927l9.265,2.778l8.341,20.388l4.631,3.707l0.928,3.704l-15.754,6.489l-33.36,1.855l-0.922-6.489z"/>
			<text transform="matrix(1 0 0 1 107.2471 44.0498)"><tspan x="0" y="0" style="stroke:none;">Gilmer</tspan></text>
		</g>
		<g>
			<path style="fill:#FFFFFF;" d="M331.391,223.818l-12.972-7.413l-18.531,9.265v3.707l2.777,8.339l7.412,6.487l7.414-0.927v-5.56l13.899-13.898z"/>
			<text transform="matrix(1 0 0 1 295.0747 233.0825)"><tspan x="0" y="0" style="stroke:none;">Glascock</tspan></text>
		</g>
		<g>
			<path style="fill:#FFFFFF;" d="M418.492,458.257l-4.631,9.268l-0.928-0.929l-1.852,3.706v1.855l-1.858,3.707h-1.845l-5.563,20.386l0.925,0.924l0.925,2.783h0.928h2.786l4.63,1.849l2.777,0.929l1.857,0.927l7.41-1.855l0.927,0.929l-0.927,0.927v2.779l0.927,0.927
				l1.852,0.929l3.711,2.774l0.921,2.785h2.783l-2.783-3.706l-0.921-6.488l-3.711-2.778l1.856-2.784l-1.856-3.704h1.856l4.631,6.488h3.706l0.928-12.977l3.707-2.776l-0.929-2.778l-3.706-6.487l0.928-0.93l-3.706-0.928h-1.855l-3.703-2.777l-2.777-0.928l-0.931-2.777
				l-2.782-3.706l-1.852-1.856l-1.854-3.705z"/>
			<text transform="matrix(1 0 0 1 409.1362 486.9834)"><tspan x="0" y="0" style="stroke:none;">Glynn</tspan></text>
		</g>
		<g>
			<path style="fill:#FFFFFF;" d="M62.667,51.466l12.97,0.921l25.95,1.855l0.922,6.489v16.677l-36.137,2.779l-10.193-0.923l1.854-17.61l-2.778-3.705l0.924-2.779l6.488-3.705z"/>
			<text transform="matrix(1 0 0 1 62.541 68.5415)"><tspan x="0" y="0" style="stroke:none;">Gordon</tspan></text>
		</g>
		<g>
			<path style="fill:#FFFFFF;" d="M132.162,509.224l0.929,49.107l7.411,0.928l23.168,0.929l-0.929-30.583l-3.707-5.556v-2.782l-0.926-11.117l-25.945-0.926z"/>
			<text transform="matrix(1 0 0 1 133.373 537.9502)"><tspan x="0" y="0" style="stroke:none;">Grady</tspan></text>
		</g>
		<g>
			<path style="fill:#FFFFFF;" d="M234.092,169.145l9.265-3.707l1.859-3.704l15.747,6.483l7.417-0.923l6.482,2.777l4.635,4.634l-5.559,10.194l1.854,12.043l-2.779,1.857l-13.899,13.897l-8.344-5.561l-4.635-11.121l-0.92-3.704l1.851-2.779l-3.71-2.782l-7.41-14.824
				l-1.854-2.782z"/>
			<text transform="matrix(1 0 0 1 238.7251 184.9009)"><tspan x="0" y="0" style="stroke:none;">Greene</tspan></text>
		</g>
		<g>
			<path style="fill:#FFFFFF;" d="M162.74,110.77l-1.852,1.851v10.194l-8.336,4.632v2.782l-5.563-0.927l-4.631,7.413l2.778,5.559l12.049,9.267l7.41,9.268l2.779,1.854l5.56-4.633l19.46-18.531l-6.489-9.269V118.18l-23.165-7.411z"/>
			<text transform="matrix(1 0 0 1 143.9375 138.5669)"><tspan x="0" y="0" style="stroke:none;">Gwinnette</tspan></text>
		</g>
		<g>
			<path style="fill:#FFFFFF;" d="M206.293,65.366l-17.604-0.928l-6.489,5.56h-3.707l-5.561,6.485l1.854,10.192l0.93,11.122l-10.195,8.339l-2.782,4.633l23.165,7.411l3.711-4.633l16.677-14.827l4.634-6.485l-4.634-12.971l8.338-7.416l-8.338-6.483z"/>
			<text transform="matrix(1 0 0 1 182.8545 89.4551)"><tspan x="0" y="0" style="stroke:none;">Hall</tspan></text>
		</g>
		<g>
			<path style="fill:#FFFFFF;" d="M299.888,229.377l-12.05,5.562l-2.782,6.487l-15.752,8.339l-4.634,1.849V239.57l-16.68-5.561l0.929-8.339l7.413-5.558l2.782-7.414l13.899-13.897l6.483,3.704h10.195l10.195,23.165v3.707z"/>
			<text transform="matrix(1 0 0 1 253.561 227.5254)"><tspan x="0" y="0" style="stroke:none;">Hancock</tspan></text>
		</g>
		<g>
			<path style="fill:#FFFFFF;" d="M27.109,142.646l6.214,31.382l7.454,1.7l22.984-8.824l-0.271-12.974l-1.158-11.094l-35.223-0.19z"/>
			<text transform="matrix(0.9998 -0.0209 0.0209 0.9998 20.5073 160.5254)"><tspan x="0" y="0" style="stroke:none;">Haralson</tspan></text>
		</g>
		<g>
			<path style="fill:#FFFFFF;" d="M82.125,277.564l-33.36-0.929l2.777,2.778l4.635,12.977l4.632,17.604l16.683,0.93v2.776l22.239,0.928l-0.929-34.286l-5.56-2.778H82.125z"/>
			<text transform="matrix(1 0 0 1 63.2329 290.5366)"><tspan x="0" y="0" style="stroke:none;">Harris</tspan></text>
		</g>
		<g>
			<path style="fill:#FFFFFF;" d="M298.027,90.383l-21.31,12.047l-3.703-3.709h-6.489l-3.703-4.634l2.776-1.851l-0.928-9.265l4.634-18.532l5.559,1.849l10.193,1.858l5.563,4.631l0.925,8.338l6.482,9.269z"/>
			<text transform="matrix(1 0 0 1 270.979 85.7485)"><tspan x="0" y="0" style="stroke:none;">Hart</tspan></text>
		</g>
		<g>
			<path style="fill:#FFFFFF;" d="M73.788,231.232l-4.634,3.707l-25.02,8.337l-6.489-39.843l27.799,1.851l8.343,25.948z"/>
			<text transform="matrix(1 0 0 1 43.4863 227.5254)"><tspan x="0" y="0" style="stroke:none;">Heard</tspan></text>
		</g>
		<g>
			<path style="fill:#FFFFFF;" d="M143.285,175.634v4.633l2.779,2.779l-4.636,6.487v13.9h-6.487v9.265l19.459,4.634l6.487,3.705l6.486-3.705l0.926-3.707l3.707-1.854l7.415-11.123l-8.338-6.483l-4.634-1.854l-1.855-3.707l-7.41-1.854l-4.633-10.19l-9.267-0.928z"/>
			<text transform="matrix(1 0 0 1 146.625 204.3604)"><tspan x="0" y="0" style="stroke:none;">Henry</tspan></text>
		</g>
		<g>
			<path style="fill:#FFFFFF;" d="M210.927,301.657l-9.267-2.783l-1.857,22.24l-7.41,3.708v5.557l-2.778,0.926l-5.56-5.56v25.02h23.166l10.194-12.972l3.706-0.926l1.849-7.412l-5.555-11.12v-15.754l-6.489-0.924z"/>
			<text transform="matrix(1 0 0 1 180.2598 339.645)"><tspan x="0" y="0" style="stroke:none;">Houston</tspan></text>
		</g>
		<g>
			<path style="fill:#FFFFFF;" d="M270.229,430.458v5.562l-0.925,0.924v0.925h-2.779v1.856h-0.927v8.34l-0.928,0.927l-0.921,6.483l-2.786-0.922v2.777h-1.849l-0.931,0.927l-14.827-0.927l-0.927-1.855l-2.776,0.928h-0.928h-2.779h-1.854l-1.852-1.85v-3.711v-0.923
				l-2.782-2.784l-5.559-0.925v-1.853l-2.777-0.927l-0.927-2.778l0.927-12.976h2.777v-5.558l1.855-2.782h6.486h0.924l2.782-0.928l0.925,0.928l0.927,0.929l0.928,8.338l5.562,0.927v2.778l8.338,0.93l0.927-2.78h16.677z"/>
			<text transform="matrix(1 0 0 1 234.6597 443.4307)"><tspan x="0" y="0" style="stroke:none;">Irwin</tspan></text>
		</g>
		<g>
			<path style="fill:#FFFFFF;" d="M210.927,92.236l-4.634,6.485l-16.677,14.827l7.412,9.267l21.31,3.705l0.931,9.266l17.604-12.042l2.782-11.123l-6.489-9.266l-10.193-8.339l-5.555,1.853l-6.489-4.632z"/>
			<text transform="matrix(1 0 0 1 198.1436 114.4746)"><tspan x="0" y="0" style="stroke:none;">Jackson</tspan></text>
		</g>
		<g>
			<path style="fill:#FFFFFF;" d="M219.268,202.505l-15.751-10.192v3.704l-17.612,9.268v5.56l5.563,16.682l-0.929,7.414l0.929,7.41l27.8-4.633v-35.211z"/>
			<text transform="matrix(1 0 0 1 188.5093 219.1826)"><tspan x="0" y="0" style="stroke:none;">Jasper</tspan></text>
		</g>
		<g style="stroke:none;">
			<path style="fill:#FFFFFF;stroke:#000000;" d="M322.124,394.322l2.778,1.849h1.854h0.929v-0.926l0.926-0.922l4.635,0.922v16.681h-8.344l-0.925,9.269l-2.782,0.926v1.85h2.782v3.708v3.709l-12.047,0.923H290.62l-0.927-18.532l3.704-1.852l1.854-2.783h2.775
				l1.861-1.849l1.849-1.856l7.415-5.56l12.972-5.556z"/>
			<text transform="matrix(1 0 0 1 301.1831 414.7031)"><tspan x="0" y="0">Jeff</tspan><tspan x="-4.534" y="12">Davis</tspan></text>
		</g>
		<g>
			<path style="fill:#FFFFFF;" d="M351.777,224.742l1.851,4.635l-5.561,19.46l1.854,15.753l-4.631,14.823l-8.341-1.849l-1.855,2.778l0.929,6.487l-4.632,2.777l-9.268-8.337v-22.239l-10.193-10.194l-1.853-4.633l7.414-0.927v-5.56l13.899-13.898l5.559-5.559h6.485
				l8.342,6.483z"/>
			<text transform="matrix(1 0 0 1 311.8423 252.542)"><tspan x="0" y="0" style="stroke:none;">Jefferson</tspan></text>
		</g>
		<g>
			<path style="fill:#FFFFFF;" d="M402.74,270.148l-3.706-3.707l-6.486-1.851l-9.262,3.706l-13.903,0.929l-5.562,3.706l-1.854,9.265l6.489,12.046l1.855,7.416l6.482,8.338l17.603-5.559l-1.849-1.855v-1.852v-1.855l10.192-28.726z"/>
			<text transform="matrix(1 0 0 1 363.5435 284.0474)"><tspan x="0" y="0" style="stroke:none;">Jenkins</tspan></text>
		</g>
		<g>
			<path style="fill:#FFFFFF;" d="M322.124,281.27l-25.022,5.56l-2.777-4.634l-16.675,6.485l1.849,6.487h8.341l7.413,3.707v2.783l12.044,6.484v12.049l2.782,0.924l1.853-2.779l5.562,0.927l-1.855-6.487l12.049-10.194l-1.858-1.852l5.564-11.122l-9.268-8.337z"/>
			<text transform="matrix(1 0 0 1 289.3208 297.9463)"><tspan x="0" y="0" style="stroke:none;">Johnson</tspan></text>
		</g>
		<g>
			<path style="fill:#FFFFFF;" d="M201.661,264.59l-1.857-10.193l-5.554-6.487l-2.782-5.561l27.8-4.633l12.048-2.777l6.482,31.502l-7.41,5.563l-11.12,6.488l-14.83-8.344l-2.778-5.558z"/>
			<text transform="matrix(1 0 0 1 203.1436 257.1763)"><tspan x="0" y="0" style="stroke:none;">Jones</tspan></text>
		</g>
		<g>
			<path style="fill:#FFFFFF;" d="M157.185,268.296l-0.928-6.486l-13.899-1.85l0.928-11.123l2.779-3.706v-8.338l10.192,0.923v-3.707h8.338l0.928,31.506l-8.338,2.781z"/>
			<text transform="matrix(1 0 0 1 141.1572 256.2485)"><tspan x="0" y="0" style="stroke:none;">Lamar</tspan></text>
		</g>
		<g>
			<path style="fill:#FFFFFF;" d="M279.498,496.25v37.988l-4.635,5.561l-2.776-0.926l0.928-1.852v-2.783v-2.777l-0.928-3.705H260.04l-0.925-10.195l-3.713-0.929l-0.921-1.849v-2.781h4.634l-0.931-9.268l13.902-1.852v-0.926v-2.783l7.411-0.924z"/>
			<text transform="matrix(1 0 0 1 255.4048 519.417)"><tspan x="0" y="0" style="stroke:none;">Lanier</tspan></text>
		</g>
		<g>
			<path style="fill:#FFFFFF;" d="M307.295,320.19l2.782,4.632v3.707l-4.631,0.926l-3.71,14.824l0.929,4.633l-13.903,13.897l-5.562,1.858l-9.262,4.631l-14.824-34.285l-10.195-22.239l30.578-17.607h8.341l7.413,3.707v2.783l12.044,6.484v12.049z"/>
			<text transform="matrix(1 0 0 1 261.4282 325.7456)"><tspan x="0" y="0" style="stroke:none;">Laurens</tspan></text>
		</g>
		<g>
			<path style="fill:#FFFFFF;" d="M136.796,406.363v-5.558l37.991-1.853l-0.926,8.341l-2.778,1.849l-0.927,2.783l-0.929,0.927v1.852v0.929l0.929,1.854l-2.783,3.707l-0.924,1.849l-0.927,2.781l1.852,5.563v3.707l-2.779,2.775l-25.942,1.856l0.923-15.756h0.926
				l-0.926-7.41l2.782-0.927v-3.707l-0.929-0.928l-4.632-4.634z"/>
			<text transform="matrix(1 0 0 1 147.9146 416.5586)"><tspan x="0" y="0" style="stroke:none;">Lee</tspan></text>
		</g>
		<g>
			<path style="fill:#FFFFFF;" d="M408.295,376.711l3.713,0.927l2.777,2.784l3.706,2.778l0.927,2.777l0.928,4.633l2.779,1.857l0.928,0.926h1.857h1.846l1.857-0.926h1.85h1.855l1.857,1.855v1.849l0.919,2.782l2.787,2.779l0.925,1.855l1.853,2.776l1.854,0.931
				l-0.928,0.927l2.777,1.852h1.854l1.857,0.924l2.772,0.928l1.858,0.927l0.924,4.635l0.929,2.779l5.559,1.854l2.779,2.777v4.634l4.635-0.927v8.34l-1.853,7.414l-3.706-0.927v-2.778l-2.784-3.709l-2.774-2.779l-1.855-0.926h-3.711l-1.854-0.93l-2.775,0.93
				l-4.632,0.926l-4.634-0.926l-3.706-2.78l-4.633-5.562l-1.857-1.854h-1.846h-0.931h-3.707l-1.854-0.923l-1.854-6.487l-9.269-8.338l-1.849-0.931l-1.854-1.852v-2.779v-0.927l0.928-4.634v-2.778v-2.783l-1.855-0.923l-4.631-0.927l-2.782-1.858l5.563-4.629
				l4.632-2.778l1.849-2.783z"/>
			<text transform="matrix(1 0 0 1 415.5356 414.7031)"><tspan x="0" y="0" style="stroke:none;">Liberty</tspan></text>
		</g>
		<g>
			<path style="fill:#FFFFFF;" d="M356.412,170.072l-5.563-10.194l-15.755-12.972l-5.559-0.926l-9.268-12.045h-8.338l3.706,12.971l2.783-1.854l-1.858,6.487l5.563,13.898l5.562,9.268l5.561-0.928l9.265-3.707h13.901z"/>
			<text transform="matrix(1 0 0 1 322.8315 159.3042)"><tspan x="0" y="0" style="stroke:none;">Lincoln</tspan></text>
		</g>
		<g>
			<path style="fill:#FFFFFF;" d="M425.911,423.042l-6.492,22.242l-4.633,2.78l-1.853-0.93l-0.925-0.925l-1.854-0.926l-0.931-2.781l-2.776-2.778l-3.707-2.781l-1.852-1.851l-2.779-3.707l-0.928,1.853l-10.192-13.901l-1.854-0.928l-0.928-1.851h-0.921l-1.857-0.927
				l-0.932-2.78h2.789l3.703-6.489v-1.852l1.855-0.924l2.776-6.488l-0.928-0.928v-1.849l0.928-2.783h1.854l1.853-2.779l0.924-1.858l2.782,1.858l4.631,0.927l1.855,0.923v2.783v2.778l-0.928,4.634v0.927v2.779l1.854,1.852l1.849,0.931l9.269,8.338l1.854,6.487
				l1.854,0.923h3.707h0.931z"/>
			<text transform="matrix(1 0 0 1 391.6167 422.1191)"><tspan x="0" y="0" style="stroke:none;">Long</tspan></text>
		</g>
		<g>
			<path style="fill:#FFFFFF;" d="M254.481,514.783l0.921,1.849l3.713,0.929l0.925,10.195h12.047l0.928,3.705v2.777v2.783l-0.928,1.852l-0.93,0.926h-1.853l-1.852,1.854l-1.854,0.929v2.777h-2.776l-0.931,3.706v12.973h1.858v1.855l-0.928,0.928v2.777l-16.686-0.929
				l-9.265-0.923l-3.707-4.633l-0.924-0.927l-1.852-1.856l-1.857-0.925l-3.704-4.634v-0.925l0.928-2.782l1.852-0.928l0.924-2.778v-0.925l-0.924-2.781v-0.925h1.852l1.857-0.93h2.776l1.854-0.926l0.925-1.852l-0.925-2.783l-4.631-0.922l-1.857-1.855l-0.928-2.778
				v-3.709l-1.849-5.557l-0.927-4.634h20.382h8.345z"/>
			<text transform="matrix(1 0 0 1 233.4126 536.3213)"><tspan x="0" y="0" style="stroke:none;">Lowndes</tspan></text>
		</g>
		<g>
			<path style="fill:#FFFFFF;" d="M151.623,52.388l4.634-6.483l11.117,1.849l8.344-12.969l11.115,1.855l-3.704,6.483l1.855,12.048l3.707,9.267l-6.489,5.56h-3.707l-5.561,6.485l-12.972-4.634l-9.267-12.045l0.928-7.416z"/>
			<text transform="matrix(1 0 0 1 153.1577 62.6333)"><tspan x="0" y="0" style="stroke:none;">Lumpkin</tspan></text>
		</g>
		<g>
			<path style="fill:#FFFFFF;" d="M308.224,180.267l6.492-0.928l0.92-3.705l12.049-0.927l5.561-0.928l-0.927,1.855v2.778l2.775,3.705l-2.775,5.562l6.479,2.782l-1.849,1.852l0.928,5.56l3.707,4.632l1.851,3.706h-0.925l4.633,6.487l-3.708,5.561h-6.485l-2.781-1.854
				l-13.9-2.779l1.855-4.631l-3.704-5.562L311,182.117l-2.776-1.851z"/>
			<text transform="matrix(1 0 0 1 318.3579 200.8237)"><tspan x="0" y="0" style="stroke:none;">McDuffie</tspan></text>
		</g>
		<g>
			<path style="fill:#FFFFFF;" d="M425.911,423.042l-6.492,22.242l-4.633,2.78v2.777l1.857,1.855l2.775,2.777l-0.927,2.782l1.854,3.705l1.852,1.856l2.782,3.706l0.931,2.777l2.777,0.928l3.703,2.777h1.855l3.706,0.928l2.778-1.849l8.345,0.921l0.918-8.339
				l2.788-1.85l3.704,2.777l2.777-9.266l3.71-5.563l-0.925-2.776l-8.342,0.928l0.924-4.635l8.343-1.854v-2.778l-2.784-3.709l-2.774-2.779l-1.855-0.926h-3.711l-1.854-0.93l-2.775,0.93l-4.632,0.926l-4.634-0.926l-3.706-2.78l-4.633-5.562l-1.857-1.854h-1.846z"/>
			<text transform="matrix(1 0 0 1 418.5962 454.5527)"><tspan x="0" y="0" style="stroke:none;">McIntosh</tspan></text>
		</g>
		<g>
			<path style="fill:#FFFFFF;" d="M149.768,360.034l-3.704-15.754l0.924-4.634l4.634-0.923l11.117-15.754h10.194l11.122,2.778v25.02l-12.973,11.123l-1.856,8.338l-10.194-6.488l-2.777,0.929l-0.927-3.707l-5.562-0.927z"/>
			<text transform="matrix(1 0 0 1 150.5151 347.9888)"><tspan x="0" y="0" style="stroke:none;">Macon</tspan></text>
		</g>
		<g>
			<path style="fill:#FFFFFF;" d="M244.288,95.941l-11.123,7.413l6.489,9.266l-2.782,11.123h7.416l4.632,6.485l12.044-6.485l7.417,1.853h8.337l-4.631-10.194l-8.337-6.487l2.775-10.194l-3.703-4.634l-6.489,3.711l-12.045-1.856z"/>
			<text transform="matrix(1 0 0 1 237.8345 111.2437)"><tspan x="0" y="0" style="stroke:none;">Madison</tspan></text>
		</g>
		<g>
			<path style="fill:#FFFFFF;" d="M119.19,232.16H81.198l0.927,45.405h11.117l5.56,2.778l12.973-0.929l6.488-4.631l-2.778-11.118l3.704-26.872v-4.633z"/>
			<text transform="matrix(1 0 0 1 75.1787 256.1514)"><tspan x="0" y="0" style="stroke:none;">Meriwether</tspan></text>
		</g>
		<g>
			<path style="fill:#FFFFFF;" d="M104.364,486.054h-2.778h-0.928l-0.927,0.93h-1.855l-0.924,0.923l-2.782-0.923h-1.852H76.565l-0.929,23.166h19.461l20.388-0.926l-0.927-22.24l-10.195-0.93z"/>
			<text transform="matrix(1 0 0 1 84.082 499.0283)"><tspan x="0" y="0" style="stroke:none;">Miller</tspan></text>
		</g>
		<g>
			<path style="fill:#FFFFFF;" d="M170.157,509.224l-12.049,0.926l-25.945-0.926H119.19v-5.563l1.852-1.855v-1.849l1.854-1.858l3.707-3.704h0.928l0.927,0.928l1.852-0.928l-0.925-2.779l1.85-2.781l2.784-1.851l1.85-3.711v-3.703h1.854l2.778-2.779l4.634-0.926
				l3.705-1.857l0.928-0.921v-3.712l2.784-1.85l2.778-2.785l0.927-0.921h13.9l0.927,13.898v25.018h-1.856v1.855h0.929v4.634z"/>
			<text transform="matrix(1 0 0 1 135.6035 494.3945)"><tspan x="0" y="0" style="stroke:none;">Mitchell</tspan></text>
		</g>
		<g>
			<path style="fill:#FFFFFF;" d="M157.185,268.296l-0.928,10.196h25.017l20.387-13.901l-1.857-10.193l-5.554-6.487l-2.782-5.561l-0.929-7.41l-25.944-0.93l0.928,31.506l-8.338,2.781z"/>
			<text transform="matrix(1 0 0 1 164.3208 259.0308)"><tspan x="0" y="0" style="stroke:none;">Monroe</tspan></text>
		</g>
		<g>
			<path style="fill:#FFFFFF;" d="M203.517,182.117v10.195l15.751,10.192l26.868-6.489l-0.92-3.704l1.851-2.779l-3.71-2.782l-7.41-14.824l-1.854-2.782l-12.045-14.827l-18.531,27.799z"/>
			<text transform="matrix(1 0 0 1 206.9463 188.606)"><tspan x="0" y="0" style="stroke:none;">Morgan</tspan></text>
		</g>
		<g>
			<path style="fill:#FFFFFF;" d="M99.732,314.628l-22.239-0.928v-2.776l-16.683-0.93l2.782,6.485l5.562,3.71l0.921,4.632v2.778l1.856,6.489l-0.926,5.556l3.706,0.929l1.854-1.852l5.56-1.854l4.633-0.927h2.779h2.78l0.924-2.778l0.928-2.782l2.782-5.557l1.85-2.782
				l3.706-4.633l-2.776-2.779z"/>
			<text transform="matrix(1 0 0 1 63.6899 323.894)"><tspan x="0" y="0" style="stroke:none;">Muscogee</tspan></text>
		</g>
		<g>
			<path style="fill:#FFFFFF;" d="M181.274,163.585l-2.779,12.977l-9.267,9.265l-2.778,6.486l4.634,1.854l8.338,6.483l6.483,10.194v-5.56l17.612-9.268v-3.704v-10.195l-22.243-18.532z"/>
			<text transform="matrix(1 0 0 1 170.8081 192.3125)"><tspan x="0" y="0" style="stroke:none;">Newton</tspan></text>
		</g>
		<g>
			<path style="fill:#FFFFFF;" d="M219.268,135.785l-11.12,6.488l13.899,12.045l12.045,14.827l9.265-3.707l1.859-3.704v-11.122l-25.948-14.828z"/>
			<text transform="matrix(1 0 0 1 210.0942 152.4678)"><tspan x="0" y="0" style="stroke:none;">Oconee</tspan></text>
		</g>
		<g>
			<path style="fill:#FFFFFF;" d="M94.17,119.109l-19.459,0.926l-6.485,17.604h-6.489l0.929,5.564l0.926,11.115l14.827,5.56l5.559,1.856l11.12-1.856l0.928-3.705l-1.855-37.064z"/>
			<text transform="matrix(1 0 0 1 63.7949 147.9844)"><tspan x="0" y="0" style="stroke:none;">Paulding</tspan></text>
		</g>
		<g>
			<path style="fill:#FFFFFF;" d="M201.661,298.874l-3.706-1.849l-25.948,22.237l0.927,3.706l11.122,2.778l5.56,5.56l2.778-0.926v-5.557l7.41-3.708l1.857-22.24z"/>
			<text transform="matrix(1 0 0 1 173.584 320.1904)"><tspan x="0" y="0" style="stroke:none;">Peach</tspan></text>
		</g>
		<g>
			<path style="fill:#FFFFFF;" d="M102.452,60.861l0.103,16.677l8.344-0.051l0.023,3.706l33.354-0.207l-0.997-12.039l-4.633,0.027l-2.849-10.173l-33.346,2.061z"/>
			<text transform="matrix(1 -0.0062 0.0062 1 102.6235 71.9761)"><tspan x="0" y="0" style="stroke:none;">Pickens</tspan></text>
		</g>
		<g>
			<path style="fill:#FFFFFF;" d="M333.246,465.668v1.856h0.923v0.927l-0.923,0.923v0.928l1.849,0.928v0.928l0.929,0.929v6.483l4.63,6.484l1.857,1.853l4.633,1.855h5.556h3.713h3.703l0.93-0.928v-4.631l14.821-1.852l0.928-0.927v-1.855l-2.776-3.705l0.928-2.778
				l-3.71-9.268v-3.709l-0.924-1.853l-1.855-0.927l-2.779-0.928h-2.781h-3.708l-2.775-1.85l-3.713-5.562l-0.922,0.928l-1.855,0.923v2.782h-0.928l-0.927,1.851h-2.776v3.71h-0.93l-0.926,0.925l-0.925,0.926v0.927h-1.857v1.856h-5.559v1.85h-1.849z"/>
			<text transform="matrix(1 0 0 1 342.2388 473.0859)"><tspan x="0" y="0" style="stroke:none;">Pierce</tspan></text>
		</g>
		<g>
			<path style="fill:#FFFFFF;" d="M115.486,263.665l3.704-26.872l3.707-2.784l23.168,2.784v8.338l-2.779,3.706l-0.928,11.123l-26.872,3.705z"/>
			<text transform="matrix(1 0 0 1 123.3643 247.9102)"><tspan x="0" y="0" style="stroke:none;">Pike</tspan></text>
		</g>
		<g>
			<path style="fill:#FFFFFF;" d="M54.327,120.035H23.744l2.784,15.75l0.927,6.488l35.211,0.93l-0.929-5.564h6.489l6.485-17.604H54.327z"/>
			<text transform="matrix(1 0 0 1 37.1841 133.9355)"><tspan x="0" y="0" style="stroke:none;">Polk</tspan></text>
		</g>
		<g>
			<path style="fill:#FFFFFF;" d="M221.123,336.867l-3.706,0.926l-10.194,12.972l0.926,24.095l12.975,0.928l5.559-3.71l10.19,3.71l3.71-4.631l-1.855-1.858l3.704-5.561l-8.338-11.115l-12.97-15.756z"/>
			<text transform="matrix(1 0 0 1 207.7813 365.5947)"><tspan x="0" y="0" style="stroke:none;">Pulaski</tspan></text>
		</g>
		<g>
			<path style="fill:#FFFFFF;" d="M259.115,212.698l-8.344-5.561l-4.635-11.121l-26.868,6.489v35.211l12.048-2.777l5.556,1.854l11.119-2.784l0.929-8.339l7.413-5.558l2.782-7.414z"/>
			<text transform="matrix(1 0 0 1 219.6401 217.3325)"><tspan x="0" y="0" style="stroke:none;">Putnam</tspan></text>
		</g>
		<g>
			<path style="fill:#FFFFFF;" d="M237.798,35.711l4.632-9.267l12.972-15.753l5.562-2.779L263.75,0.5h-2.786l-38.916,0.924h-6.489l-2.776,11.12l-5.56,3.708l-0.929,7.416l5.561-0.929l8.341,12.972h17.603z"/>
			<text transform="matrix(1 0 0 1 213.7969 18.1064)"><tspan x="0" y="0" style="stroke:none;">Rabun</tspan></text>
		</g>
		<g>
			<path style="fill:#FFFFFF;" d="M108.997,400.805l-5.56-0.927h-1.851h-0.928l-0.927,0.927l-10.194-0.927l-0.93-0.925h-0.921v0.925l-9.269,0.927l-0.926,17.604l-4.634,0.928v7.418v0.922v2.781l1.852,1.851v2.784l-0.923,4.632h12.043l17.606-0.927v-1.854
				l1.853-0.924v0.924h0.929l0.923,1.854l0.927-0.93l0.927,0.93l1.855-1.854l0.923,1.854h1.854l-0.926,0.927l3.705-0.927l0.926-3.705l0.929-2.784v-0.923l-0.929-0.928h-1.849l-0.927-0.928l-2.784-8.337v-1.856h-2.778v-18.532z"/>
			<text transform="matrix(1 0 0 1 71.8364 429.5303)"><tspan x="0" y="0" style="stroke:none;">Randolph</tspan></text>
		</g>
		<g>
			<path style="fill:#FFFFFF;" d="M394.396,226.598v-2.78l-1.849-5.559l-6.485-2.782l-1.855-3.706l0.928-2.777l-0.928-2.784l0.928-3.706l1.854-1.855l-0.927-1.848l-5.565-4.635l-1.849-2.782l-3.703-3.705l-27.802,25.02l-3.708,5.561l8.342,6.483l10.189-1.849
				l5.562,4.632l1.854,1.852l1.853-1.852l7.413,1.852l3.705-1.852l2.781-0.928l2.782-1.855l2.776,0.928l3.703,0.928z"/>
			<text transform="matrix(1 0 0 1 349.7026 218.2593)"><tspan x="0" y="0" style="stroke:none;">Richmond</tspan></text>
		</g>
		<g>
			<path style="fill:#FFFFFF;" d="M152.552,176.562h2.778l4.633,2.777l7.412-13.9v-2.777l5.56-4.633l8.34,5.557l-2.779,12.977l-9.267,9.265l-2.778,6.486l-1.855-3.707l-7.41-1.854l-4.633-10.19z"/>
			<text transform="matrix(1 0 0 1 154.9189 183.0957)"><tspan x="0" y="0" style="stroke:none;">Rockdale</tspan></text>
		</g>
		<g>
			<path style="fill:#FFFFFF;" d="M124.751,369.299l14.824-2.777l10.192,2.777v-9.265l-3.704-15.754l-11.123-2.779l-5.556-7.411l-0.927,25.944l-3.707,0.927v8.338z"/>
			<text transform="matrix(1 0 0 1 124.5684 359.106)"><tspan x="0" y="0" style="stroke:none;">Schley</tspan></text>
		</g>
		<g>
			<path style="fill:#FFFFFF;" d="M441.66,309.995l-17.606,12.973l-1.855-1.854h-1.852l-7.413-3.707l-3.71-0.928l-1.845-2.779l-7.418-5.56l-1.852-1.85l-3.713-1.855l-1.849-1.855v-1.852v-1.855l10.192-28.726l22.24-17.606l4.634,3.707l1.85,2.782l-0.921,8.339
				l2.776,2.778l1.857,3.709l0.919,3.707l2.787,0.927l0.925,9.266v4.633l-0.925,2.777v1.858l1.849,3.704l-0.924,3.707v1.855l1.853,3.704z"/>
			<text transform="matrix(1 0 0 1 401.0767 292.3906)"><tspan x="0" y="0" style="stroke:none;">Screven</tspan></text>
		</g>
		<g>
			<path style="fill:#FFFFFF;" d="M75.637,510.149l-10.192-1.854l0.927,4.633l0.927,5.562v0.927l1.855,3.704l2.778,4.635l1.856,3.705l0.923,1.855l0.926,2.777v10.194l3.707,5.56l2.782,1.852l1.853-2.777l5.56-7.418l1.853-3.705l0.927-5.561l0.924-1.85l0.928-14.828
				l0.927-7.411H75.637z"/>
			<text transform="matrix(1 0 0 1 64.0601 522.1943)"><tspan x="0" y="0" style="stroke:none;">Seminole</tspan></text>
		</g>
		<g>
			<path style="fill:#FFFFFF;" d="M160.888,221.038l-6.487-3.705l-19.459-4.634l-3.707,1.852v3.709l-5.562,9.266l-6.483,0.924v3.71v4.633l3.707-2.784l23.168,2.784l10.192,0.923v-3.707l1.851-6.484l4.633-5.561l-1.852-0.927z"/>
			<text transform="matrix(1 0 0 1 123.8247 226.5977)"><tspan x="0" y="0" style="stroke:none;">Spalding</tspan></text>
		</g>
		<g>
			<path style="fill:#FFFFFF;" d="M262.822,60.732l-6.489-8.344l-9.266-3.704l-10.195-10.195l-8.341,27.798l5.562,3.711l1.854-2.782h19.455l7.42-6.485z"/>
			<text transform="matrix(1 0 0 1 231.8208 59.8037)"><tspan x="0" y="0" style="stroke:none;">Stephens</tspan></text>
		</g>
		<g>
			<path style="fill:#FFFFFF;" d="M104.364,359.106l-13.899,0.928v0.927l-1.857-0.927l-0.921-0.928l-11.122-0.927l-2.778,0.927l-1.856,3.704l-1.856,2.785l-6.483,3.704l-0.926,3.707v2.782v1.85v2.784v4.633l-0.929,4.632l-0.927,3.706l2.782,0.929v1.849l2.779-0.926
				h0.927l1.855-0.922v0.922h3.705v0.926h-0.927v2.782h3.705h0.929l1.854,1.853l9.269-0.927v-0.925h0.921l0.93,0.925l10.194,0.927l0.927-0.927h0.928h1.851l0.927-5.556h-0.927l0.927-0.929v-0.926l-0.927-0.928v-7.414v-13.899v-1.854h0.927v-2.778l0.926-1.856v-0.929
				l-0.926-3.704z"/>
			<text transform="matrix(1 0 0 1 67.0273 381.3433)"><tspan x="0" y="0" style="stroke:none;">Stewart</tspan></text>
		</g>
		<g>
			<path style="fill:#FFFFFF;" d="M124.751,369.299l14.824-2.777l10.192,2.777v-9.265l5.562,0.927l0.927,3.707l2.777-0.929l10.194,6.488l0.929,4.634l0.927,0.928l2.778,1.85l-0.927,3.705v5.559l1.854,6.491v5.56l-37.991,1.853v5.558h-2.778l-1.856-4.631
				l-1.852-1.854l-1.852-2.779l-4.634-2.776v-9.267l0.928-0.929v-10.192v-4.634z"/>
			<text transform="matrix(1 0 0 1 133.6523 384.1255)"><tspan x="0" y="0" style="stroke:none;">Sumter</tspan></text>
		</g>
		<g>
			<path style="fill:#FFFFFF;" d="M98.803,280.342l12.973-0.929l6.488-4.631l3.705-0.925l4.634,6.485l14.826,10.194l-4.632,1.854l-0.928,7.411l-6.483,11.123v7.411l-4.634-0.927l-19.461,3.707l-6.487,0.927l3.706-4.633l-2.776-2.779l-0.929-34.286z"/>
			<text transform="matrix(1 0 0 1 104.9214 297.0254)"><tspan x="0" y="0" style="stroke:none;">Talbot</tspan></text>
		</g>
		<g>
			<path style="fill:#FFFFFF;" d="M351.777,348.912l5.56,18.532l-3.709,33.361l3.709,0.927l4.63-0.927l0.929,0.927l1.854,0.928h0.928h1.852v3.704v0.931l4.632,3.704l6.488,1.854l0.928,0.925v0.927l1.853,0.929l-0.932-2.78h2.789l3.703-6.489v-1.852l1.855-0.924
				l2.776-6.488l-0.928-0.928v-1.849l0.928-2.783h1.854l1.853-2.779l0.924-1.858l5.563-4.629l-5.563-0.929h-5.559l-5.559-1.849h-2.781l-0.925-1.856l-5.563-25.944l-24.089-2.782z"/>
			<text transform="matrix(1 0 0 1 357.2466 389.687)"><tspan x="0" y="0" style="stroke:none;">Tattnall</tspan></text>
		</g>
		<g>
			<path style="fill:#FFFFFF;" d="M172.007,319.262l-5.557-8.338v-7.416l-11.12-4.634l-0.929-3.707l-1.849,2.779l-11.123-7.41l-4.632,1.854l-0.928,7.411l-6.483,11.123v7.411l-4.634-0.927v5.56l3.707,4.633l0.927,6.489l5.556,7.411l11.123,2.779l0.924-4.634
				l4.634-0.923l11.117-15.754h10.194l-0.927-3.706z"/>
			<text transform="matrix(1 0 0 1 129.9478 316.48)"><tspan x="0" y="0" style="stroke:none;">Taylor</tspan></text>
		</g>
		<g>
			<path style="fill:#FFFFFF;" d="M289.693,413.776l3.704-1.852l1.854-2.783h2.775l1.861-1.849l1.849-1.856l7.415-5.56l-4.635-6.485l-25.02-20.387l-27.799,28.726l1.854,5.562l1.85,0.927l2.782,3.704l0.931-1.852l0.925-0.931l1.852,1.855l0.931,3.706l2.776,1.855
				l2.782,1.851l2.776,0.928l2.782-0.928h3.71h2.775l0.928-0.923l3.704,0.923l0.931-0.923l2.775-2.783l0.931-0.927z"/>
			<text transform="matrix(1 0 0 1 265.231 401.7314)"><tspan x="0" y="0" style="stroke:none;">Telfair</tspan></text>
		</g>
		<g>
			<path style="fill:#FFFFFF;" d="M123.824,394.322v4.63l-0.927,0.925l-13.899,0.927v18.532h2.778v1.856l2.784,8.337l0.927,0.928h1.849l0.929,0.928v0.923l-0.929,2.784l-0.926,3.705l7.415,0.927h14.829l0.923-15.756h0.926l-0.926-7.41l2.782-0.927v-3.707
				l-0.929-0.928l-4.632-4.634h-2.778l-1.856-4.631l-1.852-1.854l-1.852-2.779l-4.634-2.776z"/>
			<text transform="matrix(1 0 0 1 113.9175 418.4092)"><tspan x="0" y="0" style="stroke:none;">Terrell</tspan></text>
		</g>
		<g>
			<path style="fill:#FFFFFF;" d="M197.028,514.783l-2.778,0.922l-0.929,0.927l-1.853-0.927v-0.922l-21.311-0.928v-4.632l-12.049,0.926l0.926,11.117v2.782l3.707,5.556l0.929,30.583l7.414,0.927l26.872,0.924l-0.927-47.255z"/>
			<text transform="matrix(1 0 0 1 161.3604 534.2383)"><tspan x="0" y="0" style="stroke:none;">Thomas</tspan></text>
		</g>
		<g>
			<path style="fill:#FFFFFF;" d="M219.268,477.717l-12.975,0.924v-17.605l-1.855-0.926v-1.853l0.928-0.927v-11.12v-4.635l14.83-0.923l0.927,2.778l2.777,0.927v1.853l5.559,0.925l2.782,2.784v0.923v3.711l1.852,1.85h1.854h2.779h0.928l2.776-0.928l0.927,1.855
				l-5.559,0.927l-0.927,0.928l-1.852,0.925l-0.927,7.415h-0.928v1.85h-1.849v1.855h-0.928v0.928l-1.857,0.929v0.921l-0.924,0.928l-0.925,0.93h-0.927v1.853h-6.486z"/>
			<text transform="matrix(1 0 0 1 213.438 461.0352)"><tspan x="0" y="0" style="stroke:none;">Tift</tspan></text>
		</g>
		<g>
			<path style="fill:#FFFFFF;" d="M351.777,348.912l5.56,18.532l-3.709,33.361l-5.561-3.707h-3.706l-1.851,1.854l-2.783-1.854l-1.85-1.854l-1.854,0.926l-0.929-0.926h-1.849l-4.635-0.922l-0.926,0.922v0.926h-0.929h-1.854l12.976-51.891l3.707,4.633h10.192z"/>
			<text transform="matrix(1 0 0 1 323.145 388.7598)"><tspan x="0" y="0" style="stroke:none;">Toombs</tspan></text>
		</g>
		<g>
			<path style="fill:#FFFFFF;" d="M215.558,1.424l-37.992,0.928l3.708,10.192l9.265,2.78l1.855,8.344v4.631l12.972-0.928l0.927-3.704l0.929-7.416l5.56-3.708l2.776-11.12z"/>
			<text transform="matrix(1 0 0 1 180.0776 11.6191)"><tspan x="0" y="0" style="stroke:none;">Towns</tspan></text>
		</g>
		<g>
			<path style="fill:#FFFFFF;" d="M337.877,344.279l2.775-11.117l-12.042-8.339l-18.533-3.708l-2.782-0.924l2.782,4.632v3.707l-4.631,0.926l-3.71,14.824l0.929,4.633l7.412,2.782l0.923-2.782l26.877-4.633z"/>
			<text transform="matrix(1 0 0 1 303.9673 337.793)"><tspan x="0" y="0" style="stroke:none;">Treutlen</tspan></text>
		</g>
		<g>
			<path style="fill:#FFFFFF;" d="M81.198,232.16l-7.411-0.928l-4.634,3.707l-25.02,8.337l-0.929,2.782l5.561,30.577l33.36,0.929l-0.927-45.405z"/>
			<text transform="matrix(1 0 0 1 50.7163 266.4409)"><tspan x="0" y="0" style="stroke:none;">Troup</tspan></text>
		</g>
		<g>
			<path style="fill:#FFFFFF;" d="M190.539,414.703l0.929,24.095h7.415l0.921,0.927l1.857,0.928l1.856,1.851v2.781l1.85,0.926v-4.635l14.83-0.923l0.927-12.976h2.777v-5.558l1.855-2.782l-1.855-4.634v-1.852l-1.852-1.854v-1.855l-13.899-2.779v7.414l-17.609,0.927z"
				/>
			<text transform="matrix(1 0 0 1 191.7524 427.6768)"><tspan x="0" y="0" style="stroke:none;">Turner</tspan></text>
		</g>
		<g>
			<path style="fill:#FFFFFF;" d="M248.919,312.775l-18.531-40.771l-11.12,6.488l2.779,4.631l-10.193,10.192l-0.927,8.342l6.489,0.924v15.754l5.555,11.12l25.948-16.68z"/>
			<text transform="matrix(1 0 0 1 212.9692 306.291)"><tspan x="0" y="0" style="stroke:none;">Twiggs</tspan></text>
		</g>
		<g>
			<path style="fill:#FFFFFF;" d="M177.566,2.352h-7.41H155.33l-2.778,7.417l6.482,8.338l-3.704,2.777l0.927,6.487h4.631l0.929,9.269l-5.56,9.265l11.117,1.849l8.344-12.969l11.115,1.855h1.857l0.926-10.196l2.778-2.776l-1.855-8.344l-9.265-2.78l-3.708-10.192z"/>
			<text transform="matrix(1 0 0 1 161.7236 26.4438)"><tspan x="0" y="0" style="stroke:none;">Union</tspan></text>
		</g>
		<g>
			<path style="fill:#FFFFFF;" d="M118.264,274.782l-2.778-11.118l26.872-3.705l13.899,1.85l0.928,6.486l-0.928,10.196l-1.856,16.676l-1.849,2.779l-11.123-7.41l-14.826-10.194l-4.634-6.485l-3.705,0.925z"/>
			<text transform="matrix(1 0 0 1 124.2446 276.0615)"><tspan x="0" y="0" style="stroke:none;">Upson</tspan></text>
		</g>
		<g>
			<path style="fill:#FFFFFF;" d="M53.399,32.005l-6.488-0.927l-0.922-8.339l-5.561-0.928L39.5,2.352l-8.338,0.229l-4.634,8.11l-0.927,9.266l-9.267,27.797l-4.632,1.856l1.854,4.632l42.622,0.929l6.488-3.705V38.489H51.543l1.856-6.483z"/>
			<text transform="matrix(1 0 0 1 21.3496 43.123)"><tspan x="0" y="0" style="stroke:none;">Walker</tspan></text>
		</g>
		<g>
			<path style="fill:#FFFFFF;" d="M208.148,142.273l-3.709-0.927l-8.339,2.782l-3.705-4.631l-19.46,18.531l8.34,5.557l22.243,18.532l18.531-27.799l-13.899-12.045z"/>
			<text transform="matrix(1 0 0 1 183.5068 160.8076)"><tspan x="0" y="0" style="stroke:none;">Walton</tspan></text>
		</g>
		<g>
			<path style="fill:#FFFFFF;" d="M311,472.157v-13.9l2.784,0.928h12.042v2.777h0.93l0.929,3.706h5.561v1.856h0.923v0.927l-0.923,0.923v0.928l1.849,0.928v0.928l0.929,0.929v6.483l4.63,6.484l1.857,1.853l4.633,1.855v3.706l2.778,1.854l4.635,0.928v15.752
				l5.559,4.63h-28.724v29.656h23.165l5.559-0.929l2.78,1.856l-5.559,26.873l-25.018-1.857l-1.859-11.117l-0.924-0.927v-3.706l1.855,0.925l-0.932-2.778h-0.924l-0.925-8.34l-5.561-0.929l-0.927-16.677l-2.777-3.709l-2.785-3.707l-4.631-11.117l-6.483-14.827
				l-1.857-2.783v-9.267l3.706-1.848H311v-9.268z"/>
			<text transform="matrix(1 0 0 1 315.9282 501.8057)"><tspan x="0" y="0" style="stroke:none;">Ware</tspan></text>
		</g>
		<g>
			<path style="fill:#FFFFFF;" d="M336.95,218.259l-5.559,5.559l-12.972-7.413l-18.531,9.265l-10.195-23.165l2.776-11.121l8.344,0.929l1.853-6.486l5.559-5.56l2.776,1.851l7.419,21.316l3.704,5.562l-1.855,4.631l13.9,2.779l2.781,1.854z"/>
			<text transform="matrix(1 0 0 1 288.311 209.916)"><tspan x="0" y="0" style="stroke:none;">Warren</tspan></text>
		</g>
		<g>
			<path style="fill:#FFFFFF;" d="M310.078,244.204l-7.412-6.487l-2.777-8.339l-12.05,5.562l-2.782,6.487l-15.752,8.339l-0.924,12.044l-2.782,0.926l0.927,5.56l8.338,11.118l2.786,9.267l16.675-6.485l2.777,4.634l25.022-5.56v-22.239l-10.193-10.194l-1.853-4.633z"
				/>
			<text transform="matrix(1 0 0 1 269.0337 261.8101)"><tspan x="0" y="0" style="stroke:none;">Washington</tspan></text>
		</g>
		<g>
			<path style="fill:#FFFFFF;" d="M381.428,415.632l1.857,0.927h0.921l0.928,1.851l1.854,0.928l10.192,13.901l0.928-1.853l2.779,3.707l1.852,1.851l3.707,2.781l2.776,2.778l0.931,2.781l1.854,0.926l0.925,0.925l1.853,0.93v2.777l1.857,1.855l2.775,2.777
				l-0.927,2.782l-4.631,9.268l-0.928-0.929l-1.852,3.706v1.855l-1.858,3.707h-1.845l-9.27-4.635l-3.713,1.856l-4.631,0.921h-4.631l-10.189-0.921l-3.71-9.268v-3.709l-0.924-1.853l-1.855-0.927l-2.779-0.928h-2.781l-0.929-10.192v-0.926l0.929-0.927v-13.899
				l1.854-0.928v-0.927l-2.782-0.927l0.929-11.118h2.781h-1.855l0.928-2.782l0.928,0.927v-1.852h-1.855l0.928-1.854h0.928h6.483l6.488,1.854l0.928,0.925v0.927l1.853,0.929z"/>
			<text transform="matrix(1 0 0 1 373.4683 450.8418)"><tspan x="0" y="0" style="stroke:none;">Wayne</tspan></text>
		</g>
		<g>
			<path style="fill:#FFFFFF;" d="M302.666,348.912l-13.903,13.897l-5.562,1.858l1.855,1.854l-5.559,6.484l25.02,20.387l4.635,6.485l12.972-5.556l-7.407-8.345v-9.266l-4.639-25.017l-7.412-2.782z"/>
			<text transform="matrix(1 0 0 1 280.3403 379.4941)"><tspan x="0" y="0" style="stroke:none;">Wheeler</tspan></text>
		</g>
		<g>
			<path style="fill:#FFFFFF;" d="M104.364,359.106l0.926,3.704v0.929l-0.926,1.856v2.778h-0.927v1.854v13.899v7.414l0.927,0.928v0.926l-0.927,0.929h0.927l-0.927,5.556l5.56,0.927l13.899-0.927l0.927-0.925v-4.63v-9.267l0.928-0.929v-10.192h-8.342l-0.923-1.855
				v-1.852l-1.856-0.928h-2.778l1.852-4.631l-0.929-1.858l-0.923-0.921l-2.782-0.927l-3.706-1.855z"/>
			<text transform="matrix(1 0 0 1 99.7383 386.9019)"><tspan x="0" y="0" style="stroke:none;">Webster</tspan></text>
		</g>
		<g>
			<path style="fill:#FFFFFF;" d="M186.833,36.64l-3.704,6.483l1.855,12.048l3.707,9.267l17.604,0.928l4.634-6.489l-2.779-7.411L210,32.933l-4.634-5.562l-12.972,0.928v-4.631l-2.778,2.776L188.69,36.64h-1.857z"/>
			<text transform="matrix(1 0 0 1 182.3921 52.3877)"><tspan x="0" y="0" style="stroke:none;">White</tspan></text>
		</g>
		<g>
			<path style="fill:#FFFFFF;" d="M251.699,401.731l1.854,5.562l-31.505,1.849l-13.899-2.779v-19.461V374.86l12.975,0.928l5.559-3.71l10.19,3.71l4.632,5.555l2.784,12.049l7.411,8.339z"/>
			<text transform="matrix(1 0 0 1 211.96 393.3926)"><tspan x="0" y="0" style="stroke:none;">Wilcox</tspan></text>
		</g>
		<g>
			<path style="fill:#FFFFFF;" d="M279.498,165.438l7.416,12.044l5.556-2.776l15.755,5.56l6.492-0.928l0.92-3.705l12.049-0.927l-5.562-9.268l-5.563-13.898l1.858-6.487l-2.783,1.854l-3.706-12.971l-15.752-0.927l-1.854,2.777l-7.41,3.712l-10.196,14.821
				l-0.924,4.633l3.704,6.487z"/>
			<text transform="matrix(1 0 0 1 286.0913 161.7349)"><tspan x="0" y="0" style="stroke:none;">Wilkes</tspan></text>
		</g>
		<g>
			<path style="fill:#FFFFFF;" d="M277.649,288.68l-2.786-9.267l-8.338-11.118l-5.562-3.706v-3.709l-5.562-0.921l-17.604,6.481l-7.41,5.563l18.531,40.771l30.578-17.607l-1.849-6.487z"/>
			<text transform="matrix(1 0 0 1 234.0078 286.8296)"><tspan x="0" y="0" style="stroke:none;">Wilkinson</tspan></text>
		</g>
		<g>
			<path style="fill:#FFFFFF;" d="M173.861,407.293l-2.778,1.849l-0.927,2.783l-0.929,0.927v1.852v0.929l0.929,1.854l-2.783,3.707l-0.924,1.849l-0.927,2.781l1.852,5.563v3.707h2.783v2.775h-0.929v0.93h0.929l0.927,4.633l0.923,2.779l-0.923,2.781h-0.927v11.118
				h0.927v1.853h-1.856l0.929,1.856l0.927,13.898l24.089,0.924v0.929h3.71l0.921-1.853l6.49,0.924v-17.605l-1.855-0.926v-1.853l0.928-0.927v-11.12l-1.85-0.926v-2.781l-1.856-1.851l-1.857-0.928l-0.921-0.927h-7.415l-0.929-24.095l-3.707-1.852l-0.928-2.779
				l-0.921,0.924l-0.927-2.776l-2.782-0.927h-3.708h-3.705z"/>
			<text transform="matrix(1 0 0 1 174.5166 456.4023)"><tspan x="0" y="0" style="stroke:none;">Worth</tspan></text>
		</g>
		<g>
			<path style="fill:#FFFFFF;" d="M274.863,170.072l4.635-4.634l7.416,12.044l5.556-2.776l15.755,5.56l-5.559,5.56l-1.853,6.486l-8.344-0.929l-2.776,11.121h-10.195l-6.483-3.704l2.779-1.857l-1.854-12.043l5.559-10.194l-4.635-4.634z"/>
			<text transform="matrix(1 0 0 1 274.6138 189.583)"><tspan x="0" y="0" style="stroke:none;">Taliaferro</tspan></text>
		</g>
		<g>
			<path style="fill:#FFFFFF;" d="M276.717,125.596h-8.337l-7.417-1.853l-12.044,6.485l-2.783,10.19l3.713,3.709l-4.633,6.484v11.122l15.747,6.483l7.417-0.923l6.482,2.777l4.635-4.634l-3.704-6.487l0.924-4.633l10.196-14.821l7.41-3.712l1.854-2.777l-16.681-4.634
				l-2.78-2.778z"/>
			<text transform="matrix(1 0 0 1 246.6938 142.2734)"><tspan x="0" y="0" style="stroke:none;">Oglethorpe</tspan></text>
		</g>
		<g>
			<path style="fill:#FFFFFF;" d="M105.29,321.114l19.461-3.707v5.56l3.707,4.633l0.927,6.489l-0.927,25.944l-3.707,0.927v8.338v4.634h-8.342l-0.923-1.855v-1.852l-1.856-0.928h-2.778l1.852-4.631l-0.929-1.858l-0.923-0.921l-2.782-0.927l-3.706-1.855l0.926-37.992z
				"/>
			<text transform="matrix(1 0 0 1 102.9805 342.4272)"><tspan x="0" y="0" style="stroke:none;">Marion</tspan></text>
		</g>
		<g>
			<path style="fill:#FFFFFF;" d="M105.29,321.114l-6.487,0.927l-1.85,2.782l-2.782,5.557l-0.928,2.782l-0.924,2.778h-2.78h-2.779l-4.633,0.927l-5.56,1.854l-1.854,1.852l-3.706-0.929l-2.779,5.56l2.779,2.784l5.56,5.556l2.778,1.855l-2.778,2.779l11.122,0.927
				l0.921,0.928l1.857,0.927v-0.927l13.899-0.928l0.926-37.992z"/>
			<text transform="matrix(1 0 0 1 60.7158 351.6943)"><tspan x="0" y="0" style="stroke:none;">Chatahoochee</tspan></text>
		</g>
		<g>
			<path style="fill:#FFFFFF;" d="M337.877,345.031l-12.976,51.891l-2.778-1.849l-7.407-8.344v-9.267l-4.639-25.017l0.923-2.782l26.877-4.632z"/>
			<text transform="matrix(1 0 0 1 297.4136 367.3706)"><tspan x="0" y="0" style="stroke:none;">Montgomery</tspan></text>
		</g>
		<g>
			<path style="fill:#FFFFFF;" d="M78.419,400.805l-0.926,17.604l-4.634,0.928l-5.56-0.928l-3.707,0.928l-3.704,0.929l0.922-0.929l-5.556-0.928l-0.927-2.777v-9.269l3.706-9.265l2.778-3.706l2.782,0.929v1.849l2.779-0.926h0.927l1.855-0.922v0.922h3.705v0.926
				h-0.927v2.782h3.705h0.929l1.854,1.853z"/>
			<text transform="matrix(1 0 0 1 53.0352 410.0728)"><tspan x="0" y="0" style="stroke:none;">Quitman</tspan></text>
		</g>
		<g>
			<path style="fill:#FFFFFF;" d="M123.824,439.725l-7.415-0.927l-3.705,0.927l0.926-0.927h-1.854l-0.923-1.854l-1.855,1.854l-0.927-0.93l-0.927,0.93l-0.923-1.854h-0.929v-0.924l-1.853,0.924v1.854l-17.606,0.927v1.851h-0.926v3.709l0.926,0.926h0.928v0.925v0.93
				l-0.928,2.777h0.928v1.855v0.927l-0.928,0.929v0.922h1.856h0.921v2.782l-0.921,0.928v0.925l1.851,0.926v0.927l0.927,1.856h14.825l9.269,0.921l1.85,0.929l0.926-1.85l1.855,0.921l0.929,0.929v-0.929l0.923-0.921l1.854-2.783l1.855,0.927v0.929l1.852,0.928
				l2.782-1.856l-2.782-3.705v-2.782l-1.852-2.777l-0.928-1.855l0.928-2.777v-4.634v-1.855l-0.928-1.851z"/>
			<text transform="matrix(1 0 0 1 88.6929 454.9512)"><tspan x="0" y="0" style="stroke:none;">Calhoun</tspan></text>
		</g>
		<g>
			<path style="fill:#FFFFFF;" d="M134.019,176.562l0.923-38.922l5.56-3.704l1.856,2.779l2.778,5.559l12.049,9.267l7.41,9.268l2.779,1.854v2.777l-7.412,13.9l-4.633-2.777h-2.778l-9.267-0.928l-9.267,0.928z"/>
			<text transform="matrix(1 0 0 1 134.0576 165.4907)"><tspan x="0" y="0" style="stroke:none;">De Kalb</tspan></text>
		</g>
		<g>
			<path style="fill:#FFFFFF;" d="M236.872,38.489l-8.341,27.798h-7.408l-6.491,5.562l-8.338-6.483l4.634-6.489l-2.779-7.411L210,32.933l-4.634-5.562l0.927-3.704l5.561-0.929l8.341,12.972h17.603l-0.927,2.778z"/>
			<text transform="matrix(1 0 0 1 213.7563 48.9102)"><tspan x="0" y="0" style="stroke:none;">Habersham</tspan></text>
		</g>
		<g>
			<path style="fill:#FFFFFF;" d="M11.702,49.61l4.632-1.856l9.267-27.797l0.927-9.266l4.634-8.11l-9.267,0.699H6.139l1.856,17.604l3.706,28.727z"/>
			<text transform="matrix(1 0 0 1 6.2358 16.2515)"><tspan x="0" y="0" style="stroke:none;">Dade</tspan></text>
		</g>
		<g>
			<path style="fill:#FFFFFF;" d="M53.399,32.005l2.779-5.562l7.414-5.56l4.634-10.193l0.928-8.338H39.5l0.928,19.459l5.561,0.928l0.922,8.339l6.488,0.927z"/>
			<text transform="matrix(1 0 0 1 34.7759 13.4736)"><tspan x="0" y="0" style="stroke:none;">Catoosa</tspan></text>
		</g>
		<g>
			<path style="fill:#FFFFFF;" d="M75.637,52.388v-4.634l-1.849-2.776l7.411-10.192l-0.927-2.78l1.854-2.782v-7.412l3.706-1.854l-2.776-6.483l3.704-11.122h5.56h13.901l0.923,18.532l1.854,1.855l-1.854,5.56l-3.706,0.924l-1.851,25.02l-25.95-1.855z"/>
			<text transform="matrix(1 0 0 1 79.541 24.5894)"><tspan x="0" y="0" style="stroke:none;">Murray</tspan></text>
		</g>
		<g>
			<path style="fill:#FFFFFF;" d="M53.399,32.005l2.779-5.562l7.414-5.56l4.634-10.193l0.928-8.338h17.605l-3.704,11.122l2.776,6.483l-3.706,1.854v7.412l-1.854,2.782l0.927,2.78l-7.411,10.192l1.849,2.776v4.634l-12.97-0.921V38.489H51.543l1.856-6.483z"/>
			<text transform="matrix(1 0 0 1 51.833 34.7852)"><tspan x="0" y="0" style="stroke:none;">Whitfield</tspan></text>
		</g>
	</g>
</svg>
