<?xml version="1.0" encoding="iso-8859-1"?>
<!DOCTYPE svg >

<svg  width="800.222pt" height="342.382pt" viewBox="0 0 800.222 342.382" xml:space="preserve">
	<g id="Layer_x0020_1" style="fill-rule:nonzero;clip-rule:nonzero;fill:none;stroke:#000000;stroke-width:0.25;stroke-miterlimit:4; font-family:'Arial'; font-size:10;">
		<g>
			<text transform="matrix(1 0 0 1 763.6597 321.4521)"><tspan x="0" y="0" style="fill:#000000;stroke:none;">Hawaii</tspan></text>
			<path style="stroke-linecap:round;stroke-linejoin:round;" d="M765.617,296.668l2.863,1.101l0.328,0.219l0.109,0.771l0.276,0.221l2.253,0.988l2.362,1.485l1.486-0.274l1.322,0.882l2.198,0.439l1.21,0.768l1.543,0.387l2.415,1.374l2.862,1.154l3.572,3.795
				l0.443,3.079l-0.109,1.65l0.657,0.056l1.76-0.387l0.607,0.167l0.329,1.045l0.219,2.033l0.934,0.549l0.276,0.716l1.486,0.66l3.076,1.87l-0.055,0.66l-1.098,2.034l-2.806,1.484l-1.101,1.156l-1.043,0.603l-0.99,1.156l-1.872,0.221l-1.591,0.88l-1.981,0.658
				l-1.268,0.109l-1.429-0.383l-1.483,0.383l-2.089,1.871l-0.936,0.275l-2.365,1.979l-1.483,0.386l-1.432,1.265l-0.328,0.715l-0.11,1.375l-0.604,0.606l-0.553,1.152l-0.712,0.495l-1.541,1.649l-0.386,0.111l-0.438-1.319l-3.134-1.649l-0.771-0.717h-2.089
				l-0.44-0.936l-0.934-0.987l-0.276-2.695l0.99-6.764l-1.1-2.199l-0.109-1.816l-0.715-0.219l-0.553-1.485l0.112-0.604l-1.046-2.915l-1.21-0.989l-0.219-0.716l-0.495-0.494l-0.387-0.989l0.11-1.101l0.44-0.824l1.541-0.881l0.604-1.1l1.705-0.494l1.319-2.53
				l2.201-1.98l0.161-1.044l-0.438-0.716l0.164-0.108l-0.222,0.108l-1.591-1.869l-0.829-2.419l0.334-1.65l0.495-1.101l0.657-0.55l0.934,0.165z"/>
		</g>
		<g style="stroke-linecap:round;stroke-linejoin:round;">
			<text transform="matrix(1 0 0 1 631.4927 227.9683)"><tspan x="0" y="0" style="fill:#000000;stroke:none;">Kauai</tspan></text>
			<g>
				<path d="M648.598,232.713l0.274,0.881l0.438,0.274l0.276,0.716l-0.988,1.978l-0.495,0.496l0.164,2.915h-0.714l0.055,0.604l-1.046,0.881l-0.328,0.658l-0.772,0.167l-1.319,0.88l-0.386-0.497l-1.538-0.439l-1.265,0.166l-1.265-0.441l-0.276,0.441l-0.109-0.058
					l-1.705-1.924l-2.034-0.22l-0.55-0.44l-1.099-0.274l-0.276-0.714l-0.823-0.824l0.109-1.155l1.429-1.265l0.328-1.1l0.554-0.66l1.757-0.661l1.155-0.879l1.103-0.33l0.381-0.553l0.605-0.054l0.388-0.33l0.329,0.055l0.164,0.329l1.101,0.443l0.659-0.443h1.708
					l1.205-0.493l0.607,0.386l1.045,0.219l0.438,0.55l0.662,0.33l0.055,0.384z"/>
				<path d="M623.851,238.486l0.386,0.55l-1.045,1.155l-0.109,0.827l0.273,0.823l-1.429,0.715l-1.21,0.109l-1.046,1.596l-0.109,0.825l-0.495,0.935l-1.541-0.881l-0.055-1.21l0.659-1.483l1.486-1.429l0.882-0.057l0.052-0.551l0.882-0.329l0.714-1.21l0.66-0.604h0.222
					l0.164,0.276l0.492-0.167l0.167,0.109z"/>
				<path d="M622.641,237.553l0.22,0.165l-0.22-0.165z"/>
			</g>
		</g>
		<g>
			<text transform="matrix(1 0 0 1 727.8618 264.3232)"><tspan x="0" y="0" style="fill:#000000;stroke:none;">Kalawao</tspan></text>
			<path style="stroke-miterlimit:10;" d="M725.035,265.708l0.418,0.506l1.462,0.516l1.202,0.688l0.517,0.771l1.032,0.259l0.084-0.431l-0.6-0.686l0.396-0.577l-1.157-0.385l-0.384-0.992l-0.659-0.329l-0.058,0.771l-0.383,0.33l-1.87-0.44z"/>
		</g>
		<g style="stroke-linecap:round;stroke-linejoin:round;">
			<text transform="matrix(1 0 0 1 730.6724 285.9531)"><tspan x="0" y="0" style="fill:#000000;stroke:none;">Maui</tspan></text>
			<g>
				<path d="M750.661,274.232l1.268,0.108l0.328,0.606l1.319,1.153l1.648,0.275l0.222,0.77l0.331,0.386l1.1,0.054l2.582,1.375l0.662,1.047l-0.058,0.66l-0.657,1.319l-1.763,1.594l-2.143,0.715l-0.441,0.331l-2.146-0.275L749.727,286l-1.377-0.275l-1.209,0.551
					L745.657,286l-0.769-0.659l-0.331-1.321l0.166-2.363l-0.993-2.585l-0.824-0.111l-1.209,0.44l-1.651-0.659l-0.492-0.439l-0.991-0.163l-0.328-0.223l-0.219-0.715l-1.319-1.101l-0.498-1.374l0.169-0.769l1.205-2.201h0.607l0.164-0.714h0.604l0.663-0.604l2.69,2.197
					l1.541,2.971l0.937-0.166l0.767-0.439l1.267,0.109l0.715-0.771l0.881-0.328l1.758-0.111l0.495,0.331z"/>
				<path d="M740.706,285.451l0.662,0.493l-0.328,1.432l0.495,0.44l-0.167,0.328l-1.265,0.167l-0.55-0.443l-0.386,0.333l-1.263,0.219l-0.388,0.33l-1.208-0.715l1.101-1.266l1.758-0.604l0.936-0.772l0.603,0.058z"/>
				<path d="M729.105,274.727l1.207,0.715l1.815,1.65l0.607,1.047l-1.432,1.977l-1.758,0.881l-2.146-0.109l-0.77-1.43l0.165-1.429l-0.165-0.552l-0.328-0.385l-1.872-0.88l-0.055-0.989l0.331-0.331l1.043-0.22l3.355,0.055z"/>
				<path style="stroke-linecap:butt;stroke-linejoin:miter;stroke-miterlimit:10;" d="M729.545,266.754l-0.396,0.577l0.6,0.686l-0.084,0.431l-1.032-0.259l-0.517-0.771l-1.202-0.688l-1.462-0.516l-0.418-0.506l-3.41-0.055l-1.262-0.276l-0.443-0.164l-0.548-0.715
					l-0.715,0.275l-1.152-0.055l0.493,0.604v0.661l-0.44,0.604l-1.158,0.715l-0.383,1.54l0.164,0.329l1.544,0.055l1.538-0.384l1.538,0.219l2.201-0.494h0.934l6.487,2.09l0.829-0.111l3.021-1.1l1.87-2.528l-1.101-0.109l-0.548-0.388l-0.715,0.111l-0.495-0.275
					l-1.377,0.606l-2.362-0.11z"/>
			</g>
		</g>
		<g style="stroke-miterlimit:10;">
			<text transform="matrix(1 0 0 1 677.814 247.2139)"><tspan x="0" y="0" style="fill:#000000;stroke:none;">Honolulu</tspan></text>
			<g>
				<path d="M1.548,1.269"/>
				<path d="M35.396,8.509"/>
				<path d="M39.632,11.084"/>
				<path d="M155.246,93.926"/>
				<path d="M231.184,105.817"/>
				<path d="M264.454,115.221"/>
				<path style="stroke-linecap:round;stroke-linejoin:round;stroke-miterlimit:4;" d="M693.798,248.937l0.829,0.384l0.714,0.771l0.22,0.44v0.823l0.553,0.386l0.657,1.045l0.161,0.715l0.443-0.109l0.495,0.44l0.22,1.21l-0.329-0.111l-0.167,0.275l0.329,1.265
					l0.938,0.328l0.383,0.827h0.496l0.44,0.328l0.657-0.383l-0.715-0.496l0.276-0.44l1.043,0.386l0.386-0.331l0.329,0.109l-0.657,0.718l0.273,0.934l0.824,0.331l-0.112,1.099l0.279,0.439l1.155,1.046l0.823,0.165l-0.276,0.605l-0.876,0.549h-0.553l-0.386,0.607
					l-0.386-0.553l-0.381-0.164l-1.157,0.55l-1.758,0.439l-0.771-0.934l-1.101-0.33l0.058-0.771l-0.443-0.11l-0.274-0.385l-0.44-0.111l-0.876,0.606l-1.048-0.165l-0.22-0.879l0.715-0.219l0.167-0.496l-0.443-0.496l-0.219-0.055l-0.164,0.274l-0.66-0.439l0.386,1.154
					l-1.319-0.66l-0.443,0.109l0.276,0.441l0.772,0.167l0.547,0.438l-0.055,1.431l-1.045-0.439l-1.263,0.164l-1.432,0.493l-0.55-0.162l-0.276-1.541l-0.715-1.21l-0.933-0.328l-0.824-1.763l-1.046-0.438l-0.492-0.659l-0.058-2.037l-1.21-1.429l0.881-0.328
					l1.815-0.109l2.529,0.219l0.273-0.165l0.055-0.551l1.429-1.046l0.331-0.604l0.77-0.716l0.604-0.384l0.77-0.11l0.279-0.44l0.219-0.055l0.271,0.44z"/>
				<path d="M34.638,8.704l-0.546-0.458l-0.124-0.702l0.356-0.617l0.67-0.244l0.67,0.244l0.356,0.617l-0.124,0.702l-0.546,0.458h-0.713z"/>
				<path d="M39.16,12.198l-0.629-0.528l-0.143-0.809l0.411-0.711l0.772-0.281l0.772,0.281l0.411,0.711l-0.143,0.809l-0.629,0.528H39.16z"/>
				<path d="M84.245,28.101l-0.604-0.507l-0.137-0.776l0.394-0.683l0.741-0.27l0.741,0.27l0.394,0.683l-0.137,0.776l-0.604,0.507h-0.788z"/>
				<path d="M88.245,30.851l-0.604-0.507l-0.137-0.776l0.394-0.683l0.741-0.27l0.741,0.27l0.394,0.683l-0.137,0.776l-0.604,0.507h-0.788z"/>
				<path d="M82.995,35.101l-0.604-0.507l-0.137-0.776l0.394-0.683l0.741-0.27l0.741,0.27l0.394,0.683l-0.137,0.776l-0.604,0.507h-0.788z"/>
				<path d="M79.12,32.101l-0.604-0.507l-0.137-0.776l0.394-0.683l0.741-0.27l0.741,0.27l0.394,0.683l-0.137,0.776l-0.604,0.507H79.12z"/>
				<path d="M154.72,95.375l-0.646-0.541l-0.146-0.83l0.421-0.729l0.792-0.288l0.792,0.288l0.421,0.729l-0.146,0.83l-0.646,0.541h-0.842z"/>
				<path d="M229.653,107.09l-0.556-0.466l-0.126-0.714l0.363-0.628l0.682-0.248l0.682,0.248l0.363,0.628l-0.126,0.714l-0.556,0.466h-0.726z"/>
				<path d="M264.032,116.38l-0.646-0.542l-0.146-0.831l0.422-0.731l0.793-0.289l0.793,0.289l0.422,0.731l-0.146,0.831l-0.646,0.542h-0.844z"/>
				<path d="M267.008,119.215l-0.646-0.542l-0.146-0.831l0.422-0.731l0.793-0.289l0.793,0.289l0.422,0.731l-0.146,0.831l-0.646,0.542h-0.844z"/>
				<path d="M349.891,132.968"/>
				<path d="M354.374,134.546"/>
				<path d="M349.75,134.194l-0.755-0.377l-0.335-0.774l0.241-0.809l0.704-0.465l0.838,0.097l0.58,0.613l0.051,0.842l-0.503,0.678l-0.821,0.196z"/>
				<path d="M354.012,136.26l-0.754-0.377l-0.336-0.774l0.241-0.809l0.704-0.465l0.838,0.097l0.58,0.613l0.051,0.842l-0.503,0.678l-0.821,0.196z"/>
				<path d="M411.686,173.375l-0.611-0.513l-0.139-0.786l0.399-0.691l0.75-0.273l0.75,0.273l0.399,0.691l-0.139,0.786l-0.611,0.513h-0.799z"/>
				<path d="M414.552,178.598l-0.555-0.465l-0.126-0.713l0.362-0.627l0.681-0.248l0.681,0.248l0.362,0.627l-0.126,0.713l-0.555,0.465h-0.725z"/>
				<path d="M409.228,179.925l-0.553-0.464l-0.125-0.711l0.361-0.625l0.679-0.247l0.678,0.247l0.361,0.625l-0.125,0.711l-0.554,0.464h-0.722z"/>
				<path d="M462.264,182.843l-0.604-0.506l-0.137-0.776l0.395-0.682l0.74-0.27l0.74,0.27l0.395,0.682l-0.137,0.776l-0.604,0.506h-0.787z"/>
				<path d="M558.997,202.552l-0.604-0.507l-0.137-0.776l0.394-0.683l0.741-0.27l0.741,0.27l0.394,0.683l-0.137,0.776l-0.604,0.507h-0.789z"/>
				<path d="M2.459,5.43L1.671,5.448L0.94,5.011L0.394,4.193L0.126,3.138l0.056-1.112l0.372-0.975L1.177,0.38l0.766-0.25l0.776,0.215l0.653,0.641l0.417,0.957l0.108,1.108L3.678,4.117L3.169,4.959L2.459,5.43z"/>
			</g>
		</g>
	</g>
</svg>
