<?xml version="1.0" encoding="iso-8859-1"?>
<!DOCTYPE svg >

<svg  width="424.425pt" height="601.131pt" viewBox="0 0 424.425 601.131" xml:space="preserve">
	<g id="Layer_x0020_1" style="fill-rule:nonzero;clip-rule:nonzero;stroke:#000000;stroke-miterlimit:4; font-family:'Arial'; font-size:10;">
		<g>
			<path style="fill:#FFFFFF;" d="M50.842,445.381l-0.616,43.567l6.75,1.838l3.07,4.297l-1.229,3.069l4.911,6.135l6.751,1.842l15.95-1.229l0.614-40.5l-21.477-18.405l-14.725-0.614z"/>
			<text transform="matrix(1 0 0 1 57.4663 477.4326)"><tspan x="0" y="0" style="stroke:none;">Ada</tspan></text>
		</g>
		<g>
			<path style="fill:#FFFFFF;" d="M39.183,320.2l-6.75,15.339l-8.59,20.865l19.023,1.226v15.342l6.748,3.064v10.433l7.977,3.685h7.362l7.366-4.913l1.839,1.229l-1.839-31.293l7.364-17.181L76,333.697h-9.818L62.5,320.812L39.183,320.2z"/>
			<text transform="matrix(1 0 0 1 40.5938 352.7783)"><tspan x="0" y="0" style="stroke:none;">Adams</tspan></text>
		</g>
		<g>
			<path style="fill:#FFFFFF;" d="M308.565,521.469l-1.229-3.682l6.138-5.524h38.66l2.453,3.686l-4.296,8.59l3.067,16.566l2.458,4.293l9.203-0.614l6.137,18.41l-1.228,14.73l-18.408-1.842l-6.137-6.137l-8.592,1.228l3.068-6.752l-1.842-3.679l-7.361-4.295v-3.684
				l3.067-1.229l-12.887-32.52l-2.454-1.229l-9.818,3.682z"/>
			<text transform="matrix(1 0 0 1 330.3247 555.3252)"><tspan x="0" y="0" style="stroke:none;">Bannock</tspan></text>
		</g>
		<g style="stroke:none;">
			<path style="fill:#FFFFFF;stroke:#000000;" d="M392.019,600.012l2.454,0.614h28.842V555.83l-12.887,1.843l1.226-8.591l-4.908,3.682l-3.068-3.682l-19.022,1.229l1.842,13.496l1.84,6.752l-4.908,12.886l8.591,16.567z"/>
			<text transform="matrix(1 0 0 1 394.105 577.1289)"><tspan x="0" y="0">Bear</tspan><tspan x="-0.281" y="7.674">Lake</tspan></text>
		</g>
		<g>
			<path style="fill:#FFFFFF;" d="M322.677,460.72v17.182l33.139,1.842v3.067l14.725,0.611l0.615,6.751h15.952l-1.225,22.09h-33.75h-38.66l-6.138,5.524l-2.452,6.137l-15.341,1.843v-21.479v-14.114l4.296,0.613l1.84-14.727l7.364-1.229v-6.748l8.591-0.615v-6.748
				h11.044z"/>
			<text transform="matrix(1 0 0 1 318.855 499.4092)"><tspan x="0" y="0" style="stroke:none;">Bingham</tspan></text>
		</g>
		<g>
			<path style="fill:#FFFFFF;" d="M135.521,401.197l-6.136-0.614l-7.975,8.593H80.295l-2.457,7.363h-6.134l-4.295,0.614l-0.614,28.228l-1.228,0.614L87.044,464.4l17.795-4.295l16.57-20.865l13.5-3.679l3.069-14.728h3.679l1.843,9.818l4.908,4.293l6.75-0.611
				l-3.068-9.205l-1.228-9.205l-11.045-4.909l1.229-6.751l-5.526-3.066z"/>
			<text transform="matrix(1 0 0 1 89.9619 432.5537)"><tspan x="0" y="0" style="stroke:none;">Boise</tspan></text>
		</g>
		<g>
			<path style="fill:#FFFFFF;" d="M81.523,85.792L67.41,80.885l-4.296,3.067l0.615,12.885H51.457l-0.614-7.977H14.024l-0.614-7.364l0.614-67.5l18.409,1.228l0.614,28.842h48.477L80.909,66.77l0.614,19.022z"/>
			<text transform="matrix(1 0 0 1 32.8335 66.8755)"><tspan x="0" y="0" style="stroke:none;">Bonner</tspan></text>
		</g>
		<g>
			<path style="fill:#FFFFFF;" d="M399.381,461.944h11.047l1.839,5.523l11.048,3.683l0.61,17.798l-0.61,23.314h-37.432l1.225-22.09h-15.952l-0.615-6.751l-14.725-0.611v-3.067l-33.139-1.842V460.72h61.362h2.457l1.227,1.225h11.658z"/>
			<text transform="matrix(1 0 0 1 372.0151 480.626)"><tspan x="0" y="0" style="stroke:none;">Bonneville</tspan></text>
		</g>
		<g>
			<path style="fill:#FFFFFF;" d="M81.523,0.5v43.567H33.047l-0.614-28.842l-18.409-1.228V0.5h67.5z"/>
			<text transform="matrix(1 0 0 1 33.7339 20.105)"><tspan x="0" y="0" style="stroke:none;">Boundary</tspan></text>
		</g>
		<g>
			<path style="fill:#FFFFFF;" d="M155.771,442.311l7.977,3.685l0.614,2.453l9.819-1.846l2.453,5.526l-1.839,5.523l1.839,7.974l9.205,7.979l-1.228,13.5l9.204-0.614l1.842,11.661h-14.725l-33.75-0.614V463.79l3.68,0.61l3.067-8.593l-3.067-5.521l3.067-7.977h1.842z"
				/>
			<text transform="matrix(1 0 0 1 150.8872 480.3281)"><tspan x="0" y="0" style="stroke:none;">Camas</tspan></text>
		</g>
		<g>
			<path style="fill:#FFFFFF;" d="M35.5,479.129l14.727,9.819l0.616-43.567l-13.503,0.614h-3.679l-13.5-3.07l0.614-3.067l-2.456-0.617l-3.681,7.979l0.614,9.818l9.815,7.974l3.067,0.614l7.365,13.503z"/>
			<text transform="matrix(1 0 0 1 18.8804 458.8779)"><tspan x="0" y="0" style="stroke:none;">Canyon</tspan></text>
		</g>
		<g>
			<path style="fill:#FFFFFF;" d="M352.133,512.263h33.75h37.432v43.567l-12.887,1.843l1.226-8.591l-4.908,3.682l-3.068-3.682l-19.022,1.229l1.842,13.496l-15.341-0.613l-6.137-18.41l-9.203,0.614l-2.458-4.293l-3.067-16.566l4.296-8.59l-2.453-3.686z"/>
			<text transform="matrix(1 0 0 1 371.4409 534.3564)"><tspan x="0" y="0" style="stroke:none;">Caribou</tspan></text>
		</g>
		<g>
			<path style="fill:#FFFFFF;" d="M201.795,599.4l17.794,0.611l70.568,0.614l-1.228-29.453v-21.477h-10.431l-0.615-3.685h-3.682l-5.521-0.614l-3.685-3.063l-6.75,0.61l-6.136,1.231l-6.749,9.204l-3.067,1.837l-6.137-2.453h-9.205l-10.433,3.684v7.359h-15.339
				l0.614,35.594z"/>
			<text transform="matrix(1 0 0 1 228.8188 581.5908)"><tspan x="0" y="0" style="stroke:none;">Cassia</tspan></text>
		</g>
		<g>
			<path style="fill:#FFFFFF;" d="M125.704,520.854l-0.614,13.502h25.159v-11.66l-3.067-0.614v-24.544V463.79l3.68,0.61l3.067-8.593l-3.067-5.521l3.067-7.977h1.842l-0.614-7.977l-6.75,0.611l-4.908-4.293l-1.843-9.818h-3.679l-3.069,14.728l-13.5,3.679
				l-16.57,20.865L87.044,464.4l-0.614,40.5l-15.95,1.229l1.225,4.906l54,9.819z"/>
			<text transform="matrix(1 0 0 1 103.1172 487.7197)"><tspan x="0" y="0" style="stroke:none;">Elmore</tspan></text>
		</g>
		<g>
			<path style="fill:#FFFFFF;" d="M351.52,600.012h40.499l-8.591-16.567l4.908-12.886l-1.84-6.752l-15.341-0.613l-1.228,14.73l-18.408-1.842v23.93z"/>
			<text transform="matrix(1 0 0 1 352.3833 591.1045)"><tspan x="0" y="0" style="stroke:none;">Franklin</tspan></text>
		</g>
		<g>
			<path style="fill:#FFFFFF;" d="M400.61,362.538l-6.137,3.071l-0.615,1.222l-1.839,7.979l2.454,6.751l-9.818-1.842v14.117l-12.273,1.222v5.524l-3.683,2.456v9.204l-4.907,0.611v3.069l-7.364,0.615v6.748h-8.591l0.613,7.977h11.66v3.682l34.363-0.611l1.229,1.843
				h1.838l1.23-0.615l24.544-5.523v-13.499v-30.07h-3.068l-19.637-23.931z"/>
			<text transform="matrix(1 0 0 1 376.4702 411.6289)"><tspan x="0" y="0" style="stroke:none;">Fremont</tspan></text>
		</g>
		<g>
			<path style="fill:#FFFFFF;" d="M74.158,386.469l-1.839-1.229l-7.366,4.913l-4.292,27h-5.523l-0.614,6.748l-5.521,0.614l-3.069,6.137h-8.593v15.343l13.503-0.614l14.725,0.614l1.228-0.614l0.614-28.228l4.295-0.614L76,385.854l-1.842,0.614z"/>
			<text transform="matrix(1 0 0 1 42.8057 439.7852)"><tspan x="0" y="0" style="stroke:none;">Gem</tspan></text>
		</g>
		<g>
			<path style="fill:#FFFFFF;" d="M180.932,498.152l-33.75-0.614v24.544l3.067,0.614l4.908-0.614l4.909,4.293l-1.841,8.597l6.136,1.835l1.839,6.138h5.526l7.361,2.453v-17.795h1.844v-29.45z"/>
			<text transform="matrix(1 0 0 1 147.2974 514.7188)"><tspan x="0" y="0" style="stroke:none;">Gooding</tspan></text>
		</g>
		<g>
			<path style="fill:#FFFFFF;" d="M311.019,430.652l0.614-6.751l36.203-0.614l0.613,7.977h11.66v3.682l-0.615,15.956l4.91-1.229l13.498,8.594h6.137v2.453h-61.362h-11.044l-0.614-30.067z"/>
			<text transform="matrix(1 0 0 1 315.1909 443.2344)"><tspan x="0" y="0" style="stroke:none;">Jefferson</tspan></text>
		</g>
		<g>
			<path style="fill:#FFFFFF;" d="M180.932,527.603h-1.844v17.795l30.068,7.366l3.068,4.909l4.295-1.226l10.433-3.684l-0.614-17.792h-7.978v-3.685h-19.633l-2.456-4.298l-15.339,0.613z"/>
			<text transform="matrix(1 0 0 1 185.1226 541.7158)"><tspan x="0" y="0" style="stroke:none;">Jerome</tspan></text>
		</g>
		<g>
			<path style="fill:#FFFFFF;" d="M181.543,203.61l-3.68-4.295l-1.844-5.523l-5.522,3.684h-3.069l-11.658-20.251l-92.043,1.229l0.614,26.383l-9.819-0.614l6.751,13.503l1.839,2.453l1.839,2.453h7.979l1.225,3.682l3.067,0.614l5.526,0.614l2.453,3.685l17.182,1.838
				l9.204-13.5l69.953-15.953z"/>
			<text transform="matrix(1 0 0 1 93.7783 198.3994)"><tspan x="0" y="0" style="stroke:none;">Clearwater</tspan></text>
		</g>
		<g>
			<path style="fill:#FFFFFF;" d="M50.842,88.86l0.614,7.977h12.272v40.5l-33.75,4.911l-15.955-1.228V88.86h36.818z"/>
			<text transform="matrix(1 0 0 1 18.3213 118.3589)"><tspan x="0" y="0" style="stroke:none;">Kootenai</tspan></text>
		</g>
		<g>
			<path style="fill:#FFFFFF;" d="M85.205,238.586l-13.5,6.134l-16.567-3.067l-2.457,4.91l-3.067,1.842l1.229,7.363l-1.84,1.842l-3.683-1.842l-3.681,0.614l-1.839,1.842l-2.459,0.614V230.61l22.708-2.453l0.614-5.527l-3.07-4.906h3.684l1.839,2.453l1.839,2.453
				h7.979l1.225,3.682l1.228,2.456l1.229,3.681l3.681,2.453l4.909,3.685z"/>
			<text transform="matrix(1 0 0 1 45.7671 237.4932)"><tspan x="0" y="0" style="stroke:none;">Lewis</tspan></text>
		</g>
		<g>
			<path style="fill:#FFFFFF;" d="M21.386,257.61l9.819,12.886l4.909-2.454V266.2l-1.842-3.684l2.456-2.453l0.611-1.225V230.61l22.708-2.453l0.614-5.527l-3.07-4.906h3.684l-6.751-13.503l-9.818,0.614l-3.067,1.228l-3.068,2.456l-1.23,3.682l-23.315-0.614
				l0.614,8.591l-0.614,7.979l4.295,5.521v6.137l3.067,3.682v14.114z"/>
			<text transform="matrix(1 0 0 1 12.4272 223.0776)"><tspan x="0" y="0" style="stroke:none;">Nez Perce</tspan></text>
		</g>
		<g>
			<path style="fill:#FFFFFF;" d="M130.614,150.224l25.158,27l-92.043,1.229v-7.365v-33.75v-40.5l-0.615-12.885l4.296-3.067l14.114,4.907l0.614,3.684l23.315,29.451l-3.681,6.136l6.136,5.522v1.844l-5.521,2.453l28.228,15.342z"/>
			<text transform="matrix(1 0 0 1 68.6982 155.2056)"><tspan x="0" y="0" style="stroke:none;">Shoshone</tspan></text>
		</g>
		<g>
			<path style="fill:#FFFFFF;" d="M18.933,164.949l14.728,4.298l20.863,1.225l9.205,0.615v-33.75l-33.75,4.911l-15.955-1.228l-0.614,9.204v10.433l5.523,4.292z"/>
			<text transform="matrix(1 0 0 1 18.9487 155.1304)"><tspan x="0" y="0" style="stroke:none;">Benewah</tspan></text>
		</g>
		<g>
			<path style="fill:#FFFFFF;" d="M33.661,169.248l20.863,1.225l9.205,0.615v7.365l0.614,26.383l-9.819-0.614l-9.818,0.614l-3.067,1.228l-3.068,2.456l-1.23,3.682l-23.315-0.614l-0.614-50.93l5.523,4.292l14.728,4.298z"/>
			<text transform="matrix(1 0 0 1 24.8271 189.8413)"><tspan x="0" y="0" style="stroke:none;">Latah</tspan></text>
		</g>
		<g>
			<path style="fill:#FFFFFF;" d="M241.067,498.152v28.837l-3.683,0.613v6.754l-11.045,0.615h-7.978v-3.685h-19.633l-2.456-4.298l-15.339,0.613v-29.45h14.725h45.41z"/>
			<text transform="matrix(1 0 0 1 197.6079 516.5615)"><tspan x="0" y="0" style="stroke:none;">Lincoln</tspan></text>
		</g>
		<g>
			<path style="fill:#FFFFFF;" d="M394.473,434.334l-34.363,0.611l-0.615,15.956l4.91-1.229l13.498,8.594h6.137v2.453h2.457l1.227,1.225h11.658l-0.61-26.383l-1.23,0.615h-1.838l-1.229-1.843z"/>
			<text transform="matrix(1 0 0 1 362.7925 448.583)"><tspan x="0" y="0" style="stroke:none;">Madison</tspan></text>
		</g>
		<g>
			<path style="fill:#FFFFFF;" d="M241.067,498.152v28.837l-3.683,0.613v6.754l-11.045,0.615l0.614,17.792h9.205l6.137,2.453l3.067-1.837l6.749-9.204l6.136-1.231v-15.955h3.683v-28.837h-20.862z"/>
			<text transform="matrix(1 0 0 1 221.9395 541.8545)"><tspan x="0" y="0" style="stroke:none;">Minidoka</tspan></text>
		</g>
		<g>
			<path style="fill:#FFFFFF;" d="M290.157,600.626l57.065-0.614h4.298v-23.93l-6.137-6.137l-8.592,1.228l3.068-6.752l-1.842-3.679l-7.361-4.295l-6.137,0.611l-1.229,7.362l-9.204,0.617v6.135h-25.158l1.228,29.453z"/>
			<text transform="matrix(1 0 0 1 304.4136 588.3096)"><tspan x="0" y="0" style="stroke:none;">Oneida</tspan></text>
		</g>
		<g>
			<path style="fill:#FFFFFF;" d="M28.135,465.626l7.365,13.503l14.727,9.819l6.75,1.838l3.07,4.297l-1.229,3.069l4.911,6.135l6.751,1.842l1.225,4.906l54,9.819l-0.614,13.502h25.159l-0.614,65.044l-134.384,0.611V457.038l9.815,7.974l3.067,0.614z"/>
			<text transform="matrix(1 0 0 1 57.6577 555.2168)"><tspan x="0" y="0" style="stroke:none;">Owyhee</tspan></text>
		</g>
		<g>
			<path style="fill:#FFFFFF;" d="M33.661,445.995h3.679v-15.343h8.593l3.069-6.137l5.521-0.614l0.614-6.748l-31.91-0.614l-3.682,5.521l1.229,6.751l-2.456,10.43l2.456,0.617l-0.614,3.067l13.5,3.07z"/>
			<text transform="matrix(1 0 0 1 16.7051 426.3574)"><tspan x="0" y="0" style="stroke:none;">Payette</tspan></text>
		</g>
		<g>
			<path style="fill:#FFFFFF;" d="M308.565,521.469l9.818-3.682l2.454,1.229l12.887,32.52l-3.067,1.229v3.684l-6.137,0.611l-1.229,7.362l-9.204,0.617v6.135h-25.158v-21.477h-10.431l-0.615-3.685h-3.682v-3.678l3.682-0.618v-6.744l-3.682-0.615l-0.614-29.456
				l15.956-0.613v21.479l15.341-1.843l2.452-6.137l1.229,3.682z"/>
			<text transform="matrix(1 0 0 1 291.834 546.4209)"><tspan x="0" y="0" style="stroke:none;">Power</tspan></text>
		</g>
		<g>
			<path style="fill:#FFFFFF;" d="M423.315,430.038v41.112l-11.048-3.683l-1.839-5.523h-11.047l-0.61-26.383l24.544-5.523z"/>
			<text transform="matrix(1 0 0 1 398.811 450.2871)"><tspan x="0" y="0" style="stroke:none;">Teton</tspan></text>
		</g>
		<g>
			<path style="fill:#FFFFFF;" d="M149.636,599.4h52.159l-0.614-35.594h15.339v-7.359l-4.295,1.226l-3.068-4.909l-30.068-7.366l-7.361-2.453h-5.526l-1.839-6.138l-6.136-1.835l1.841-8.597l-4.909-4.293l-4.908,0.614v11.66l-0.614,65.044z"/>
			<text transform="matrix(1 0 0 1 154.0332 576.3066)"><tspan x="0" y="0" style="stroke:none;">Twin Falls</tspan></text>
		</g>
		<g>
			<path style="fill:#FFFFFF;" d="M196.271,200.542l-14.728,3.067l-69.953,15.953l-9.204,13.5l-17.182-1.838l-2.453-3.685l-5.526-0.614l-3.067-0.614l1.228,2.456l1.229,3.681l3.681,2.453l4.909,3.685l-13.5,6.134l-16.567-3.067l-2.457,4.91l-3.067,1.842l1.229,7.363
				l-1.84,1.842l-3.683-1.842l-3.681,0.614l-1.839,1.842l-2.459,0.614l-0.611,1.225l-2.456,2.453l1.842,3.684v1.842l-4.909,2.454l2.456,3.681l3.067-2.457l3.07,3.068l5.521,1.23l7.362,14.725l-13.498,25.773v3.684l23.317,0.611l3.682,12.886H76l1.225-1.226
				l9.205-6.751l87.751,0.616l6.751-7.979l-12.887-17.182l16.566-6.137l-1.839-5.521l4.909-2.46l-1.842-14.11l10.433-4.907l-9.204-24.546l4.294-0.615l7.978-40.5l-3.068-1.839z"/>
			<text transform="matrix(1 0 0 1 105.8267 271.8672)"><tspan x="0" y="0" style="stroke:none;">Idaho</tspan></text>
		</g>
		<g>
			<path style="fill:#FFFFFF;" d="M76,333.697l3.683,4.298l-7.364,17.181l1.839,31.293L76,385.854l-4.295,30.685h6.134l2.457-7.363h41.114l7.975-8.593l6.136,0.614l3.068-10.43l-4.908-13.501l4.908-1.839l10.433-12.275l4.297,5.524l14.111-8.592l3.684-7.979
				l-1.229-18.409l4.296-7.36l-87.751-0.616l-9.205,6.751L76,333.697z"/>
			<text transform="matrix(1 0 0 1 100.3623 365.9365)"><tspan x="0" y="0" style="stroke:none;">Valley</tspan></text>
		</g>
		<g>
			<path style="fill:#FFFFFF;" d="M155.158,434.334l0.614,7.977l7.977,3.685l0.614,2.453l9.819-1.846l2.453,5.526l-1.839,5.523l1.839,7.974l9.205,7.979l-1.228,13.5l9.204-0.614l1.842,11.661h45.41h20.862v28.837h-3.683v15.955l6.75-0.61l3.685,3.063l5.521,0.614
				v-3.678l3.682-0.618v-6.744l-3.682-0.615l-0.614-29.456l15.956-0.613v-14.114l-23.316,0.613l-0.616-7.364h-18.409v-6.135l2.456-1.842l-7.363-10.434l-4.911,0.614l-15.955-17.178l-7.363,3.067l-9.819-7.362l-1.839-4.913l-14.728-1.84l-1.228,4.91l-3.681,0.614
				l-0.614-3.067l-15.341-4.296v-4.909l-11.659,3.682z"/>
			<text transform="matrix(1 0 0 1 203.3286 479.3828)"><tspan x="0" y="0" style="stroke:none;">Blaine</tspan></text>
		</g>
		<g>
			<path style="fill:#FFFFFF;" d="M262.543,409.176l-4.908,41.111l-20.251,15.339l4.911-0.614l7.363,10.434l-2.456,1.842v6.135h18.409l0.616,7.364l23.316-0.613l4.296,0.613l1.84-14.727l7.364-1.229v-6.748l8.591-0.615v-6.748l-0.614-30.067l-20.248,0.611v-22.702
				l-22.706,0.614h-5.522z"/>
			<text transform="matrix(1 0 0 1 267.4385 455.8076)"><tspan x="0" y="0" style="stroke:none;">Butte</tspan></text>
		</g>
		<g>
			<path style="fill:#FFFFFF;" d="M290.771,408.562v22.702l20.248-0.611l0.614-6.751l36.203-0.614h8.591v-6.748l7.364-0.615v-3.069l4.907-0.611v-9.204l3.683-2.456v-5.524l12.273-1.222V379.72l-12.273,3.682l-4.294-3.067l-21.476,3.067l-4.298-4.295l-6.749,3.067
				l-0.615,6.751l-6.747-1.229l-18.408-2.456l-7.365,6.751l0.613,4.297l-0.613,12.888h-8.591l-3.067-0.614z"/>
			<text transform="matrix(1 0 0 1 325.7397 404.2637)"><tspan x="0" y="0" style="stroke:none;">Clark</tspan></text>
		</g>
		<g>
			<path style="fill:#FFFFFF;" d="M257.635,450.287l-20.251,15.339l-15.955-17.178l-7.363,3.067l-9.819-7.362l-1.839-4.913l-14.728-1.84l-1.228,4.91l-3.681,0.614l-0.614-3.067l-15.341-4.296v-4.909l-11.659,3.682l-3.068-9.205l-1.228-9.205l-11.045-4.909
				l1.229-6.751l-5.526-3.066l3.068-10.43l-4.908-13.501l4.908-1.839l10.433-12.275l4.297,5.524l14.111-8.592l-0.612,6.139l5.522,6.748l9.205,1.839l1.842,3.682l11.658-6.748l-0.614-7.98l13.502-10.43l0.612,9.818l26.999,23.316l24.547,4.299l7.975,18.408h-5.522
				l-4.908,41.111z"/>
			<text transform="matrix(1 0 0 1 189.7158 411.1357)"><tspan x="0" y="0" style="stroke:none;">Custer</tspan></text>
		</g>
		<g>
			<path style="fill:#FFFFFF;" d="M255.177,332.472l4.298,5.523l0.614,7.977l-3.069,2.453l11.66,12.271l6.134-3.066l6.138,5.522l5.521,11.045l-1.839,3.069l17.794,14.725l0.613,4.297l-0.613,12.888h-8.591l-3.067-0.614l-22.706,0.614l-7.975-18.408l-24.547-4.299
				l-26.999-23.316l-0.612-9.818l-13.502,10.43l0.614,7.98l-11.658,6.748l-1.842-3.682l-9.205-1.839l-5.522-6.748l0.612-6.139l3.684-7.979l-1.229-18.409l4.296-7.36l6.751-7.979l-12.887-17.182l16.566-6.137h4.912l9.817,8.593l26.999-20.865l28.839,49.704z"/>
			<text transform="matrix(1 0 0 1 204.0244 336.6328)"><tspan x="0" y="0" style="stroke:none;">Lemhi</tspan></text>
		</g>
		<g>
			<path style="fill:#FFFFFF;" d="M23.843,356.404l-3.682,5.521l-6.137,3.07l-3.068,6.135l-4.295,9.818l-3.683,5.521l-2.455,9.205l2.455,6.754l-0.613,2.45l20.249,6.751l0.614,4.91l31.91,0.614h5.523l4.292-27h-7.362l-7.977-3.685v-10.433l-6.748-3.064V357.63
				l-19.023-1.226z"/>
			<text transform="matrix(1 0 0 1 1.3066 395.6738)"><tspan x="0" y="0" style="stroke:none;">Washington</tspan></text>
		</g>
	</g>
</svg>
