<?xml version="1.0" encoding="iso-8859-1"?>
<!DOCTYPE svg >

<svg  width="799.95pt" height="481.792pt" viewBox="0 0 799.95 481.792" xml:space="preserve">
	<g id="Layer_x0020_1" style="fill-rule:nonzero;clip-rule:nonzero;fill:#FFFFFF;stroke:#000000;stroke-miterlimit:4; font-family:'Arial'; font-size:10;">
		<g>
			<path d="M659.916,303.261l-29.879,15.942l9.961,3.977l-7.967,49.794l37.841-3.977l13.948-19.918l31.87-3.984l7.966,1.99l13.947-7.965l43.81,3.979l1.997,17.924l7.963-15.929l-5.974-23.91l5.974-11.938l-5.974-11.954l3.979-3.988l-17.923-49.793l-17.925-17.927
				l-21.91-3.984l-7.965,3.984l7.965,11.955l11.951-5.98l17.926,13.947l-3.978,19.917l11.94,1.993l5.985,19.917l-5.985,13.936l-63.729,19.916l-31.872-5.97l-13.944-11.954z"/>
			<g>
				<text transform="matrix(1 0 0 1 683.7314 335.6289)"><tspan x="0" y="0" style="fill:#000000;stroke:none;">Barnstable</tspan></text>
			</g>
		</g>
		<g>
			<path d="M104.213,40.357H48.448l3.977,9.956L34.5,104.086L0.647,233.552h101.572l-5.973-15.932l17.925-35.858v-23.895l-15.93-3.986l21.911-59.754l5.97-27.884l-19.918-15.931l-1.992-9.956z"/>
			<g>
				<text transform="matrix(1 0 0 1 41.2656 187.7451)"><tspan x="0" y="0" style="fill:#000000;stroke:none;">Berkshire</tspan></text>
			</g>
		</g>
		<g>
			<path d="M538.426,219.615l-65.735,29.877l11.953,57.759l35.848,9.959l1.994,7.964l9.958,47.8h7.964l3.989,11.955l13.944-9.96h9.961l-1.994-11.95l9.958-7.968l15.933,3.986l5.98-9.958l-21.913-43.823l-23.901,1.995l3.986-7.967l-5.981-5.98l13.945-7.965
				l-25.889-65.724z"/>
			<g>
				<text transform="matrix(1 0 0 1 504.6152 273.3867)"><tspan x="0" y="0" style="fill:#000000;stroke:none;">Bristol</tspan></text>
			</g>
		</g>
		<g>
			<path d="M675.855,422.771l3.978-11.95l-3.978-1.988l-13.944,5.972l-3.979-13.946l-13.946-1.984l-1.994-5.981l-15.932,7.966l-19.917,25.9l-7.964-1.993l-3.987,3.984l3.987,9.963h9.958l19.916-11.954l27.884,1.991l19.919-5.979z"/>
			<g>
				<text transform="matrix(1 0 0 1 639.7705 448.6709)"><tspan x="0" y="0" style="fill:#000000;stroke:none;">Dukes</tspan></text>
			</g>
		</g>
		<g>
			<path d="M590.203,6.492l-13.938-5.972l-29.874,5.972l-9.961,13.944l-11.952-1.991l-9.961,7.964v15.93h-9.956l-3.987,19.917l21.911,13.945h21.911l-1.995,21.911l5.983,1.994v7.964l-3.988,3.981l5.973,11.951l7.972,1.994l29.879-17.925l-5.983-5.98l1.993-7.965
				l35.849-7.964l3.987-7.966l-3.987-11.953l-23.894-13.947l-5.981-45.804z"/>
			<g>
				<text transform="matrix(1 0 0 1 538.749 66.2432)"><tspan x="0" y="0" style="fill:#000000;stroke:none;">Essex</tspan></text>
			</g>
		</g>
		<g>
			<path d="M229.699,44.332l-101.583-3.975h-23.903l1.992,9.956l19.918,15.931l-5.97,27.884l19.916,1.995v15.931l127.473,29.876l1.995-31.862h9.958l1.984-5.98l-7.965-5.972V86.163l11.954-13.946L271.52,44.332h-41.82z"/>
			<g>
				<text transform="matrix(1 0 0 1 182.041 92.1333)"><tspan x="0" y="0" style="fill:#000000;stroke:none;">Franklin</tspan></text>
			</g>
		</g>
		<g>
			<path d="M283.473,179.779L277.5,195.71l13.937,7.964l11.953-1.992l1.994,33.862h-83.658h-51.779l-1.993,9.962h-13.948l-1.993-9.962h-41.819l-7.975-1.992l-5.973-15.932l17.925-35.858v-23.895l23.906-5.98l1.991,15.939l21.904,21.91l17.934,3.979l21.901-25.89
				v17.926l81.666-5.973z"/>
			<g>
				<text transform="matrix(1 0 0 1 171.4229 217.4307)"><tspan x="0" y="0" style="fill:#000000;stroke:none;">Hampden</tspan></text>
			</g>
		</g>
		<g>
			<path d="M120.153,94.127l-21.911,59.754l15.93,3.986l23.906-5.98l1.991,15.939l21.904,21.91l17.934,3.979l21.901-25.89v17.926l81.666-5.973l3.988-19.917l-13.948,1.984l-5.971-19.918l-127.473-29.876V96.122l-19.916-1.995z"/>
			<g>
				<text transform="matrix(1 0 0 1 165.6904 152.2236)"><tspan x="0" y="0" style="fill:#000000;stroke:none;">Hampshire</tspan></text>
			</g>
		</g>
		<g>
			<path d="M504.562,42.34l-17.926,7.973l-131.457-1.991l9.958,19.917l41.829,7.965v23.905l31.869-5.98l-5.979,35.856l-13.938,17.926l7.965,9.958l11.953-3.986l11.942,5.981l-1.983,5.969l-21.912,7.967v17.924H446.8l5.972,11.952l27.884-13.938l7.973-17.933
				l-5.979-13.937l9.959-5.98l13.946,5.98l9.959,7.964l5.973-11.95l-1.994-5.972l25.9-3.989l3.978-3.975l7.972-13.948l-7.972-1.994l-5.973-11.951l3.988-3.981v-7.964l-5.983-1.994l1.995-21.911h-21.911l-21.911-13.945l3.987-19.917z"/>
			<g>
				<text transform="matrix(1 0 0 1 468.1025 118.0303)"><tspan x="0" y="0" style="fill:#000000;stroke:none;">Middlesex</tspan></text>
			</g>
		</g>
		<g>
			<path d="M791.373,446.676l-15.927-29.879h-5.985l-1.981,15.936l9.958,1.989l-9.958,11.954l-17.935-3.989l-9.957,7.968l19.915,3.986h25.896l5.974-7.965z"/>
			<g>
				<text transform="matrix(1 0 0 1 754.9248 478.5449)"><tspan x="0" y="0" style="fill:#000000;stroke:none;">Nantucket</tspan></text>
			</g>
		</g>
		<g>
			<path d="M452.771,203.674l-5.972,35.859l21.913-1.994l3.978,11.953l65.735-29.877l39.835-19.917l-3.986-17.937l-13.95-3.975l-11.939-9.961l-15.941,3.978l-1.989,5.983l-13.941-11.956l-9.959-7.964l-13.946-5.98l-9.959,5.98l5.979,13.937l-7.973,17.933
				l-27.884,13.938z"/>
			<g>
				<text transform="matrix(1 0 0 1 499.5908 204.2129)"><tspan x="0" y="0" style="fill:#000000;stroke:none;">Norfolk</tspan></text>
			</g>
		</g>
		<g>
			<path d="M574.274,181.762l3.986,17.937l-39.835,19.917l25.889,65.724l-13.945,7.965l5.981,5.98l-3.986,7.967l23.901-1.995l21.913,43.823l13.935-25.899l11.952-5.97l5.972,1.993l29.879-15.942l-7.967-39.833l-19.918-5.972l-7.966-11.95l5.972-9.962l9.961,5.972
				l3.987-3.977l-7.964-17.924l-15.943-13.946l-1.983-15.933l-13.947-11.949l-13.944-1.994l-11.942-11.953l-3.986,17.922z"/>
			<g>
				<text transform="matrix(1 0 0 1 581.3135 277.375)"><tspan x="0" y="0" style="fill:#000000;stroke:none;">Plymouth</tspan></text>
			</g>
		</g>
		<g>
			<path d="M546.392,143.92l-25.9,3.989l1.994,5.972l-5.973,11.95l13.941,11.956l1.989-5.983l15.941-3.978l-1.993-23.906z"/>
			<g>
				<text transform="matrix(1 0 0 1 533.1895 165.8311)"><tspan x="0" y="0" style="fill:#000000;stroke:none;">Suffolk</tspan></text>
			</g>
		</g>
		<g>
			<path d="M355.179,48.321l9.958,19.917l41.829,7.965v23.905l31.869-5.98l-5.979,35.856l-13.938,17.926l7.965,9.958l11.953-3.986l11.942,5.981l-1.983,5.969l-21.912,7.967v17.924H446.8l5.972,11.952l-5.972,35.859l-65.733,3.978v-7.967l-67.719,1.995l-7.964-1.995
				l-1.994-33.862l-11.953,1.992L277.5,195.71l5.973-15.931l3.988-19.917l-13.948,1.984l-5.971-19.918l1.995-31.862h9.958l1.984-5.98l-7.965-5.972V86.163l11.954-13.946L271.52,44.332l77.688,3.989h5.972z"/>
			<g>
				<text transform="matrix(1 0 0 1 332.4888 153.8809)"><tspan x="0" y="0" style="fill:#000000;stroke:none;">Worcester</tspan></text>
			</g>
		</g>
	</g>
</svg>
