<?xml version="1.0" encoding="iso-8859-1"?>
<!DOCTYPE svg >

<svg  width="444.766pt" height="601.137pt" viewBox="0 0 444.766 601.137" xml:space="preserve">
	<g id="Layer_x0020_1" style="fill-rule:nonzero;clip-rule:nonzero;fill:#FFFFFF;stroke:#000000;stroke-miterlimit:4; font-family:'Arial'; font-size:10;">
		<g>
			<path d="M93.359,410.985l-7.818-10.751l-24.432-11.728L50.36,367.004l-14.658,5.869v-17.596l-8.803-52.776l-5.859-0.978l-4.885-11.725l-7.824,0.979l-7.816,4.888l7.816,138.776l3.911,69.392l16.614-3.91l4.888,0.978l-1.956-6.841l9.772-16.617l-8.794-8.792
				l-7.817-1.955v-3.915h3.907l22.475-12.699l7.823,2.929l7.817,12.707l16.618-21.505l6.835-18.567l-0.973-12.703l3.906-1.956z"/>
			<text transform="matrix(1 0 0 1 26.5566 415.874)"><tspan x="0" y="0" style="fill:#000000;stroke:none;">Oxford</tspan></text>
		</g>
		<g>
			<path d="M106.064,408.055l-12.705,2.931l-3.906,1.956l0.973,12.703l-6.835,18.567l-16.618,21.505l1.956,6.84l9.775,2.935l6.837-6.841l10.752,11.726l10.749,5.866l8.799-7.823l-0.978-8.796l4.885-13.68v-7.821l-8.798-2.929l0.981-11.729l-5.867-10.749l3.91-2.936
				l-3.91-11.725z"/>
			<g>
				<text transform="matrix(1 0 0 1 75.46 465.9922)"><tspan x="0" y="0" style="fill:#000000;stroke:none;">Androscoggin</tspan></text>
			</g>
		</g>
		<g>
			<path d="M148.093,123.653h-33.229l4.885-19.548l81.12-102.619l6.84-0.978l12.707,2.93l0.979,24.434l14.662,8.799l16.611-6.842l15.637-1.957l4.888-4.889l5.863-0.972l11.726,1.952l4.886-9.773h18.574l28.339,23.455l4.888,7.821l11.725,9.772l1.956,7.819
				l0.979,147.575l-2.936,9.776l2.936,4.886l-2.936,2.928l-1.95,12.71l3.906,2.929l-27.36,6.844l-43.007,5.863l-2.93-107.506l-41.05-0.978l-2.934-24.432h-95.774z"/>
			<text transform="matrix(1 0 0 1 246.0459 97.7192)"><tspan x="0" y="0" style="fill:#000000;stroke:none;">Aroostook</tspan></text>
		</g>
		<g>
			<path d="M33.745,500.9l-1.956-6.841l9.772-16.617l-8.794-8.792l-7.817-1.955v-3.915h3.907l22.475-12.699l7.823,2.929l7.817,12.707l1.956,6.84l9.775,2.935l6.837-6.841l10.752,11.726l10.749,5.866l8.799-7.823l7.82,5.866h4.884l4.887-4.887l1.954,0.978
				l-2.933,5.866l-1.954,7.817l-8.796,4.884l-1.955-3.906l-14.662,5.863l-7.816,5.86l-9.772,14.661l7.816,8.801l-0.972,3.908l-14.659,2.929l-13.689-10.749l3.912-3.91l-10.75-9.771l-6.845,3.905l-3.905-11.725l-14.66-3.909z"/>
			<text transform="matrix(1 0 0 1 48.5342 498.7627)"><tspan x="0" y="0" style="fill:#000000;stroke:none;">Cumberland</tspan></text>
		</g>
		<g>
			<path d="M127.568,391.441l-5.865,3.906l-6.84-1.95l-1.954,13.679l-6.845,0.979l-12.705,2.931l-7.818-10.751l-24.432-11.728L50.36,367.004l-14.658,5.869v-17.596l-8.803-52.776l2.937-21.497l5.866-0.979l10.745,3.907l2.934-3.907l-9.771-13.683l3.908-5.864
				l13.681-13.683l16.617,68.414l11.725-2.935l2.933,8.796l13.686-1.953l1.955,37.138l10.749-1.95l4.885,25.404l7.82,11.732z"/>
			<text transform="matrix(1 0 0 1 52.1221 352.3457)"><tspan x="0" y="0" style="fill:#000000;stroke:none;">Franklin</tspan></text>
		</g>
		<g>
			<path d="M327.924,302.501l-21.505,4.885l0.977,14.661l-12.7,3.907l1.949,10.755l-12.705,3.906l3.911,28.344l-16.615,2.934l-2.932,4.888l-5.867-1.957l-5.862,6.843l-9.773-1.957l-1.954,11.732l3.911,5.864l2.931,4.884v5.865l-4.888,10.748l5.866-3.907h3.907
				l3.912,5.862l-9.776-0.979v5.865l-4.885,0.979l0.976,3.91l13.686,1.956l3.907,6.836l1.951-2.929l10.753,2.929v-3.906l-3.906-3.908v-10.754l5.863-1.955l8.796-11.727v8.798l4.887,2.929l9.771-7.817v-5.867l5.867,5.867l5.865-7.817l4.886,7.817l3.907-1.956
				l2.931,3.912l-2.931,2.933l4.891,3.905v9.777l9.77-10.754l-1.956-7.817l2.936-3.909l-2.936-26.39l-3.906-0.978l-5.867-34.208l10.752-3.906l-8.792-39.094z"/>
			<text transform="matrix(1 0 0 1 284.0342 388.5068)"><tspan x="0" y="0" style="fill:#000000;stroke:none;">Hancock</tspan></text>
		</g>
		<g>
			<path d="M178.387,377.758l-1.952-2.935l-17.594,2.935l5.863,9.771l-2.929,6.842l-17.596-3.909l-2.929,4.887l-2.93-1.95v-3.913l-4.89-1.956l-5.863,3.913l-5.865,3.906l-6.84-1.95l-1.954,13.679l-6.845,0.979l3.91,11.725l-3.91,2.936l5.867,10.749l-0.981,11.729
				l8.798,2.929v7.821l9.773,2.929l3.91-8.791l11.727,3.907l11.731,1.955l-0.977-21.502l14.656,1.956l2.933-10.753l13.683-26.39l-3.912-1.949v-11.731l-5.856-0.98l1.95-3.907l-0.979-2.929z"/>
			<text transform="matrix(1 0 0 1 125.3643 413.0908)"><tspan x="0" y="0" style="fill:#000000;stroke:none;">Kennebec</tspan></text>
		</g>
		<g>
			<path d="M224.322,437.376l-7.814,0.973l-17.596-14.658l-8.795,6.844l-6.845-2.931l-4.886,1.953l6.843,14.655l5.864,0.981l5.868,17.587l-3.915,11.731h7.821l-3.906,4.887l2.929,4.887l5.863-7.816l4.887-2.935v-3.911l6.841-2.928v-4.888l-2.932-4.885l7.816-12.711
				l1.956-6.836z"/>
			<text transform="matrix(1 0 0 1 193.3027 446.1982)"><tspan x="0" y="0" style="fill:#000000;stroke:none;">Knox</tspan></text>
		</g>
		<g>
			<path d="M145.158,453.988l11.731,1.955l-0.977-21.502l14.656,1.956l2.933-10.753l9.771,1.959l-4.886,1.953l6.843,14.655l5.864,0.981l5.868,17.587l-3.915,11.731l-3.91,3.907l-3.907-1.95l1.955-4.886l-4.883-1.96l-3.915,6.846l-1.952,10.75l-3.906,7.818h-2.937
				l-0.981-6.845l-6.835-2.928v7.815l-4.886,2.936l-10.754-5.864l4.889-17.595l-11.729-1.951l5.863-16.617z"/>
			<text transform="matrix(1 0 0 1 158.6367 459.8506)"><tspan x="0" y="0" style="fill:#000000;stroke:none;">Lincoln</tspan></text>
		</g>
		<g>
			<path d="M246.801,148.085l-0.976,93.826l-12.707,4.884v18.569l8.794-0.979l9.776,39.094l-11.727,2.93l1.95,9.775l-51.795,10.748l7.817,47.891l7.819-0.974l2.928,11.725l38.119-5.865l9.773,1.957l5.862-6.843l5.867,1.957l2.932-4.888l16.615-2.934l-3.911-28.344
				l12.705-3.906l-1.949-10.755l12.7-3.907l-0.977-14.661l21.505-4.885l12.699-2.928l-6.836-48.867l-43.007,5.863l-2.93-107.506l-41.05-0.978z"/>
			<text transform="matrix(1 0 0 1 259.334 283.9326)"><tspan x="0" y="0" style="fill:#000000;stroke:none;">Penobscot</tspan></text>
		</g>
		<g>
			<path d="M246.801,148.085l-0.976,93.826l-12.707,4.884v18.569l8.794-0.979l9.776,39.094l-11.727,2.93l1.95,9.775l-51.795,10.748l-29.319,8.798l-17.591-73.302l3.907-3.906l3.91-10.754l-5.866-0.973l-6.837-9.772l3.909-6.842l4.884,3.907l5.865-14.658l5.861-0.979
				l-3.907-14.661h-5.869l-0.972-80.137h95.774l2.934,24.432z"/>
			<text transform="matrix(1 0 0 1 167.4775 225.2939)"><tspan x="0" y="0" style="fill:#000000;stroke:none;">Piscataquis</tspan></text>
		</g>
		<g>
			<path d="M148.093,123.653h-33.229l-1.954,12.702l-5.867,9.773l-9.772,7.823l-10.752,20.519l5.867,6.844l-6.844,14.659v7.816l4.885,1.957l-4.885,12.705l-6.837,1.957l-4.888,5.863l0.975,9.776l-10.749,9.771l-6.843,0.978l16.617,68.414l11.725-2.935l2.933,8.796
				l13.686-1.953l1.955,37.138l10.749-1.95l4.885,25.404l7.82,11.732l5.863-3.913l4.89,1.956v3.913l2.93,1.95l2.929-4.887l17.596,3.909l2.929-6.842l-5.863-9.771l17.594-2.935l1.952,2.935l6.843-7.822l5.864-0.977l0.979,5.864h5.862l-7.817-47.891l-29.319,8.798
				l-17.591-73.302l3.907-3.906l3.91-10.754l-5.866-0.973l-6.837-9.772l3.909-6.842l4.884,3.907l5.865-14.658l5.861-0.979l-3.907-14.661h-5.869l-0.972-80.137z"/>
			<text transform="matrix(1 0 0 1 80.7627 280.0254)"><tspan x="0" y="0" style="fill:#000000;stroke:none;">Somerset</tspan></text>
		</g>
		<g>
			<path d="M246.801,379.709l-38.119,5.865l-2.928-11.725l-7.819,0.974h-5.862l-0.979-5.864l-5.864,0.977l-6.843,7.822l0.979,2.929l-1.95,3.907l5.856,0.98v11.731l3.912,1.949l-13.683,26.39l9.771,1.959l6.845,2.931l8.795-6.844l17.596,14.658l7.814-0.973
				l3.908-3.912l2.938-8.796l-2.938-3.91l1.958-5.862l11.724-1.954l1.955-1.956l4.891-13.68l-3.911-5.864l1.954-11.732z"/>
			<text transform="matrix(1 0 0 1 195.6768 406.0996)"><tspan x="0" y="0" style="fill:#000000;stroke:none;">Waldo</tspan></text>
		</g>
		<g>
			<path d="M333.787,250.706l6.836,48.867l-12.699,2.928l8.792,39.094l-10.752,3.906l5.867,34.208l3.906,0.978l2.936,26.39l3.906,4.89l4.888,3.908l2.933-6.845v-7.817l5.863-4.886l5.864-0.979l1.952,7.82l2.936,0.973l4.887-4.886l7.815,1.957l3.909-4.886
				l-0.976-6.842l4.891-2.935l4.886,3.911l1.951-4.887h4.885l-1.95,3.91l3.906,2.932l2.932-13.68h8.795l3.914,6.838l8.795-1.953l11.724-14.662l6.844-1.955l-0.979-8.791l-3.91,1.95l-3.906-4.886l-3.906,1.957l-5.866-2.93l0.979-7.825l10.744,0.98l0.977-7.815
				l-5.862-7.821l3.912-6.841l-8.797-11.728l-9.776-3.909l-5.857,5.863h-7.823l-7.817-14.659l3.908-12.707l-6.842-17.593l5.863-0.975l0.979-10.753l-1.957-2.933h-8.793l-14.66-3.908l-4.885-7.82l-6.842,1.956l-1.957-1.956l-27.36,6.844z"/>
			<text transform="matrix(1 0 0 1 350.5693 335.7305)"><tspan x="0" y="0" style="fill:#000000;stroke:none;">Washington</tspan></text>
		</g>
		<g>
			<path d="M33.745,500.9l-4.888-0.978l-16.614,3.91l1.956,37.134l-0.981,11.732l3.91,11.729l12.708,11.724l0.979,17.595l8.796,5.86l6.837,0.979l4.885-11.724l1.956-7.827l7.821-15.633l8.796-2.933l8.799-10.75l-1.955-4.886l2.934-9.775l-13.689-10.749l3.912-3.91
				l-10.75-9.771l-6.845,3.905l-3.905-11.725l-14.66-3.909z"/>
			<text transform="matrix(1 0 0 1 31.7397 542.9258)"><tspan x="0" y="0" style="fill:#000000;stroke:none;">York</tspan></text>
		</g>
		<g>
			<path d="M115.841,478.419l-0.978-8.796l4.885-13.68l9.773,2.929l3.91-8.791l11.727,3.907l-5.863,16.617l11.729,1.951l-4.889,17.595l-8.794,10.749l1.953,8.799l-1.953,4.885l-1.956,0.979l-4.887-8.802V494.06l1.954-7.817l2.933-5.866l-1.954-0.978l-4.887,4.887
				h-4.884l-7.82-5.866z"/>
			<g>
				<text transform="matrix(1 0 0 1 132.417 529.8779)"><tspan x="0" y="0" style="fill:#000000;stroke:none;">Sagadahoc</tspan></text>
				<path d="M137.367,491.089l14.995,28.492"/>
			</g>
		</g>
	</g>
</svg>
