<?xml version="1.0" encoding="iso-8859-1"?>
<!DOCTYPE svg >

<svg  width="632.556pt" height="601.364pt" viewBox="0 0 632.556 601.364" xml:space="preserve">
	<g id="Layer_x0020_1" style="fill-rule:nonzero;clip-rule:nonzero;stroke:#000000;stroke-miterlimit:4; font-family:'Arial'; font-size:10;">
		<g>
			<path style="fill:#FFFFFF;" d="M342.285,240.249l-0.727,26.954l0.727,34.239l-0.727,26.226h-31.324l-0.73-9.476h-29.87v-33.506l2.187,0.728l1.457-22.585l-0.73-21.855l59.738-0.724z"/>
			<text transform="matrix(1 0 0 1 303.8325 282.4966)"><tspan x="0" y="0" style="stroke:none;">Aitkin</tspan></text>
		</g>
		<g>
			<path style="fill:#FFFFFF;" d="M344.47,403.428v11.658v17.483h-17.48v8.738h-5.829l0.725-8.738l-8.739-7.288l-9.473-4.369l-0.724-17.484h41.521z"/>
			<text transform="matrix(1 0 0 1 310.6235 417.9985)"><tspan x="0" y="0" style="stroke:none;">Anoka</tspan></text>
		</g>
		<g>
			<path style="fill:#FFFFFF;" d="M168.903,227.862l2.188,35.696v8.742H89.497l-2.184-45.167l9.469,0.729l41.525-0.729l30.595,0.729z"/>
			<text transform="matrix(1 0 0 1 120.5591 244.6167)"><tspan x="0" y="0" style="stroke:none;">Becker</tspan></text>
		</g>
		<g>
			<path style="fill:#FFFFFF;" d="M133.938,86.535h21.852l10.197,0.73v16.755l65.566,0.729l0.731,52.448l-0.731,42.983v1.455h-21.857l-40.793,0.729l-1.455-48.078l-5.832-2.186l0.731-8.016l3.64-5.1h-29.866l-0.724-15.294l-1.458-37.156z"/>
			<text transform="matrix(1 0 0 1 172.4204 135.3423)"><tspan x="0" y="0" style="stroke:none;">Beltrami</tspan></text>
		</g>
		<g>
			<path style="fill:#FFFFFF;" d="M241.754,367.005l6.559,9.469l-0.733,5.1l3.646,7.286l32.051-0.727l-0.73-26.959h-47.35l6.557,5.831z"/>
			<text transform="matrix(1 0 0 1 249.2158 374.2896)"><tspan x="0" y="0" style="stroke:none;">Benton</tspan></text>
		</g>
		<g>
			<path style="fill:#FFFFFF;" d="M93.141,404.158H82.943v-17.486H34.862l11.656,15.302l19.671,11.655v5.826l13.112,2.187l0.728,2.914l8.013,1.458l6.555,2.913l-1.456-24.769z"/>
			<text transform="matrix(1 0 0 1 41.0718 396.0073)"><tspan x="0" y="0" style="stroke:none;">Big Stone</tspan></text>
		</g>
		<g>
			<path style="fill:#FFFFFF;" d="M283.277,527.272v35.697h-40.068h-8.742v-26.226v-17.482l16.759,8.011l10.195,3.644l2.916-2.188v-5.829h18.94v4.374z"/>
			<text transform="matrix(1 0 0 1 235.1621 544.7554)"><tspan x="0" y="0" style="stroke:none;">Blue Earth</tspan></text>
		</g>
		<g>
			<path style="fill:#FFFFFF;" d="M194.401,496.675l5.829,4.374l16.753,8.01l6.556,0.729l5.83,4.368l5.099,5.104v17.482h-40.066l-18.938-0.73v-8.741h-2.189l0.731-9.474l19.669,0.729l0.728-21.852z"/>
			<text transform="matrix(1 0 0 1 196.2573 521.4429)"><tspan x="0" y="0" style="stroke:none;">Brown</tspan></text>
		</g>
		<g>
			<path style="fill:#FFFFFF;" d="M402.75,301.442l-0.73-23.315l0.73-11.658l-61.191,0.734l0.727,34.239h60.465z"/>
			<text transform="matrix(1 0 0 1 353.1196 285.4136)"><tspan x="0" y="0" style="stroke:none;">Carlton</tspan></text>
		</g>
		<g>
			<path style="fill:#FFFFFF;" d="M262.879,448.592l0.729,26.226l10.195-0.729l0.729,4.372l8.744,2.912l11.655-7.284l0.732-3.642l3.638-4.369l4.371-1.457v-8.015h-20.396v-9.47l-20.397,1.455z"/>
			<text transform="matrix(1 0 0 1 266.8169 466.8032)"><tspan x="0" y="0" style="stroke:none;">Carver</tspan></text>
		</g>
		<g>
			<path style="fill:#FFFFFF;" d="M282.546,240.973l0.73,21.855h-45.894l0.727,50.268l-2.182,2.186l-6.56-5.102l-15.295,0.728l-3.643-3.641l-5.829,2.189l-2.916-2.916l-0.725-43.712h10.197l-1.461-61.193h21.857v-1.455h8.742l5.099-9.472l5.832-0.728l13.111,10.925
				l-2.186,3.644l8.017,8.013l4.365-2.914l8.014,4.372v26.953z"/>
			<text transform="matrix(1 0 0 1 225.9912 243.1587)"><tspan x="0" y="0" style="stroke:none;">Cass</tspan></text>
		</g>
		<g>
			<path style="fill:#FFFFFF;" d="M98.97,431.108h64.834v26.226l-19.669-0.727l-0.731,13.115l-7.284-6.559l-13.111-9.47l-24.04-22.586z"/>
			<text transform="matrix(1 0 0 1 113.8843 447.8677)"><tspan x="0" y="0" style="stroke:none;">Chippewa</tspan></text>
		</g>
		<g>
			<path style="fill:#FFFFFF;" d="M364.869,415.813l8.009-13.84l-9.466-13.113l-10.927-2.188l0.727-5.098l4.375-10.196l-23.316-0.729v17.484h10.2v15.295v11.658l20.398,0.727z"/>
			<text transform="matrix(1 0 0 1 341.4243 396.145)"><tspan x="0" y="0" style="stroke:none;">Chisago</tspan></text>
		</g>
		<g>
			<path style="fill:#FFFFFF;" d="M87.313,227.133l2.184,45.167v8.015h-8.741l-42.254,0.728l1.458-29.87l-5.829-8.014l1.458-8.742l-0.727-6.555l52.451-0.729z"/>
			<text transform="matrix(1 0 0 1 53.2686 256.2715)"><tspan x="0" y="0" style="stroke:none;">Clay</tspan></text>
		</g>
		<g>
			<path style="fill:#FFFFFF;" d="M168.903,202.364l-1.455-48.078l-5.832-2.186l0.731-8.016l3.64-5.1h-29.866v9.474l2.187,44.438v34.237l30.595,0.729v-25.499z"/>
			<text transform="matrix(1 0 0 1 128.564 180.165)"><tspan x="0" y="0" style="stroke:none;">Clearwater</tspan></text>
		</g>
		<g>
			<path style="fill:#FFFFFF;" d="M507.652,195.809l-1.454-75.764l10.927-5.829l4.371,0.729l8.739,15.299l12.386-2.914l5.827,2.914l5.829-1.458l15.296,0.729l5.102-1.459l9.468,1.459l8.012,6.555l8.745,4.371l7.283-2.913l16.758,0.731l5.828,1.455l-8.741,2.913
				L616.198,147l-43.71,17.482l-24.04,6.56l-24.04,12.382l-16.756,12.385z"/>
			<text transform="matrix(1 0 0 1 542.604 149.187)"><tspan x="0" y="0" style="stroke:none;">Cook</tspan></text>
		</g>
		<g>
			<path style="fill:#FFFFFF;" d="M194.401,536.744l-18.938-0.73v-8.741h-2.189h-27.68l-0.73,36.426l49.538-0.729v-26.226z"/>
			<text transform="matrix(1 0 0 1 142.9458 549.1265)"><tspan x="0" y="0" style="stroke:none;">Cottonwood</tspan></text>
		</g>
		<g style="stroke:none;">
			<path style="fill:#FFFFFF;stroke:#000000;" d="M283.277,262.828l-1.457,22.585l-2.187-0.728v33.506l0.731,10.197h-48.081v-10.197l3.644-2.91l2.182-2.186l-0.727-50.268h45.894z"/>
			<text transform="matrix(1 0 0 1 248.2969 287.6011)"><tspan x="0" y="0">Crow</tspan><tspan x="0.276" y="12">Wing</tspan></text>
		</g>
		<g>
			<path style="fill:#FFFFFF;" d="M367.052,476.278l-5.826-5.097l-9.472-2.916l-7.284,0.729v-11.661l-2.186-4.37l-6.555-0.728l-4.37,3.644l-8.015,9.472l-4.371,0.728l0.728,17.484h3.644l-0.733,8.012l0.733,7.286l18.939,0.728v-4.37h10.2v-3.644h10.196l-0.73-8.742
				h5.102v-6.555z"/>
			<text transform="matrix(1 0 0 1 324.9849 479.9224)"><tspan x="0" y="0" style="stroke:none;">Dakota</tspan></text>
		</g>
		<g>
			<path style="fill:#FFFFFF;" d="M372.154,527.272h-29.869l-1.458,35.697h29.872l1.455-35.697z"/>
			<text transform="matrix(1 0 0 1 342.1548 544.9653)"><tspan x="0" y="0" style="stroke:none;">Dodge</tspan></text>
		</g>
		<g>
			<path style="fill:#FFFFFF;" d="M171.819,334.221v32.784v2.183l-50.267-0.727l-1.457-35.695l51.724,1.455z"/>
			<text transform="matrix(1 0 0 1 132.3442 350.2456)"><tspan x="0" y="0" style="stroke:none;">Douglas</tspan></text>
		</g>
		<g>
			<path style="fill:#FFFFFF;" d="M243.208,562.969h40.068h10.201v34.968l-26.233,0.728h-23.306l-0.73-35.695z"/>
			<text transform="matrix(1 0 0 1 250.0112 583.728)"><tspan x="0" y="0" style="stroke:none;">Faribault</tspan></text>
		</g>
		<g>
			<path style="fill:#FFFFFF;" d="M390.368,564.424l29.864-2.186h29.87l-0.733,35.698l-28.408,0.728h-30.593v-34.24z"/>
			<text transform="matrix(1 0 0 1 401.729 581.9087)"><tspan x="0" y="0" style="stroke:none;">Fillmore</tspan></text>
		</g>
		<g>
			<path style="fill:#FFFFFF;" d="M293.478,562.969h18.938h28.41l0.731,34.968h-35.696h-12.384v-34.968z"/>
			<text transform="matrix(1 0 0 1 295.7358 581.5269)"><tspan x="0" y="0" style="stroke:none;">Freeborn</tspan></text>
		</g>
		<g>
			<path style="fill:#FFFFFF;" d="M406.393,501.777l-6.556-8.746l-2.186-1.456l-13.843-2.916l-11.655-10.926l-5.102-1.455v6.555h-5.102l0.73,8.742h-10.196v3.644h-10.2v4.37v27.684h29.869l10.196,0.731l-0.727-17.487l10.927-0.728v-8.739l13.843,0.728z"/>
			<text transform="matrix(1 0 0 1 346.479 505.4165)"><tspan x="0" y="0" style="stroke:none;">Goodhue</tspan></text>
		</g>
		<g>
			<path style="fill:#FFFFFF;" d="M120.095,332.766l1.457,35.695l-39.338,0.727l-0.73-27.68l-0.727-8.015l39.339-0.728z"/>
			<text transform="matrix(1 0 0 1 91.563 348.062)"><tspan x="0" y="0" style="stroke:none;">Grant</tspan></text>
		</g>
		<g>
			<path style="fill:#FFFFFF;" d="M303.673,420.913l-12.383,4.369l1.456,4.375l-4.367,1.451l-5.103,8.016v8.014v9.47h20.396v8.015h8.015l7.286,1.457l4.371-0.728l8.015-9.472l-4.37-14.571h-5.829l0.725-8.738l-8.739-7.288l-9.473-4.369z"/>
			<text transform="matrix(1 0 0 1 286.2583 452.2007)"><tspan x="0" y="0" style="stroke:none;">Hennepin</tspan></text>
		</g>
		<g>
			<path style="fill:#FFFFFF;" d="M449.369,597.937h10.204l30.596,1.455l-2.186-5.825l0.731-8.745l-2.188-5.826l1.457-3.641l0.731-8.015l-3.645-4.371l-34.968-0.73l-0.733,35.698z"/>
			<text transform="matrix(1 0 0 1 449.6919 581.9087)"><tspan x="0" y="0" style="stroke:none;">Houston</tspan></text>
		</g>
		<g>
			<path style="fill:#FFFFFF;" d="M209.696,201.635l1.461,61.193H200.96l-29.869,0.73l-2.188-35.696v-25.499l40.793-0.729z"/>
			<text transform="matrix(1 0 0 1 170.8535 235.8755)"><tspan x="0" y="0" style="stroke:none;">Hubbard</tspan></text>
		</g>
		<g>
			<path style="fill:#FFFFFF;" d="M303.673,371.377l30.597-0.729v17.484h10.2v15.295H302.95l0.724-14.568v-17.482z"/>
			<text transform="matrix(1 0 0 1 309.2095 388.1333)"><tspan x="0" y="0" style="stroke:none;">Isanti</tspan></text>
		</g>
		<g>
			<path style="fill:#FFFFFF;" d="M342.285,240.249l-2.188-87.42l-56.088-1.459v5.102l-51.724,0.726l-0.731,42.983h8.742l5.099-9.472l5.832-0.728l13.111,10.925l-2.186,3.644l8.017,8.013l4.365-2.914l8.014,4.372v26.953l59.738-0.724z"/>
			<text transform="matrix(1 0 0 1 283.0474 190.708)"><tspan x="0" y="0" style="stroke:none;">Itasca</tspan></text>
		</g>
		<g>
			<path style="fill:#FFFFFF;" d="M144.863,563.698l49.538-0.729v36.423h-3.643h-38.608l-6.556-0.728l-0.73-34.967z"/>
			<text transform="matrix(1 0 0 1 150.3228 582.5894)"><tspan x="0" y="0" style="stroke:none;">Jackson</tspan></text>
		</g>
		<g>
			<path style="fill:#FFFFFF;" d="M341.558,327.667v16.754l-7.288,0.729v25.498l-30.597,0.729l-0.724-26.956l7.284,0.729v-17.483h31.324z"/>
			<text transform="matrix(1 0 0 1 298.3345 352.6431)"><tspan x="0" y="0" style="stroke:none;">Kanabec</tspan></text>
		</g>
		<g>
			<path style="fill:#FFFFFF;" d="M173.273,404.883l29.142-0.726v8.739l0.728,44.437h-39.338v-26.226l-2.189-27.68l11.658,1.455z"/>
			<text transform="matrix(1 0 0 1 160.7881 430.3804)"><tspan x="0" y="0" style="stroke:none;">Kandiyohi</tspan></text>
		</g>
		<g>
			<path style="fill:#FFFFFF;" d="M72.744,85.807l-2.187-46.623H0.624l4.37,19.666l7.284,14.571l-5.099,8.743l1.455,3.644h64.11z"/>
			<text transform="matrix(1 0 0 1 21.0347 63.2236)"><tspan x="0" y="0" style="stroke:none;">Kittson</tspan></text>
		</g>
		<g>
			<path style="fill:#FFFFFF;" d="M231.553,104.749l-0.73-34.971l5.832-1.454l5.826,2.184l2.914,5.102l5.832-1.459l24.767,1.459l5.099,4.371l1.455,9.47l25.499-5.101l1.458-3.645l20.396-5.095l8.745,1.454l1.452,75.766l-56.088-1.459v5.102l-51.724,0.726
				l-0.731-52.448z"/>
			<text transform="matrix(1 0 0 1 258.9487 123.6904)"><tspan x="0" y="0" style="stroke:none;">Koochiching</tspan></text>
		</g>
		<g>
			<path style="fill:#FFFFFF;" d="M94.597,428.926l4.374,2.182l24.04,22.586v2.913h-10.198v9.472H66.189v-17.486v-29.138l13.112,2.187l0.728,2.914l8.013,1.458l6.555,2.913z"/>
			<text transform="matrix(1 0 0 1 61.7363 450.7456)"><tspan x="0" y="0" style="stroke:none;">Lac qui Parle</tspan></text>
		</g>
		<g>
			<path style="fill:#FFFFFF;" d="M507.652,195.809l-1.454-75.764l-5.832,1.457l-11.651,8.743l-14.571,3.641l-12.386-0.729v-3.641l-8.744-0.729l-2.911-8.014l-5.828-0.728l-1.458,128.212l14.567-8.739l5.832-5.829l11.652-6.557l32.784-31.324z"/>
			<text transform="matrix(1 0 0 1 466.2134 177.5981)"><tspan x="0" y="0" style="stroke:none;">Lake</tspan></text>
		</g>
		<g style="stroke:none;">
			<path style="fill:#FFFFFF;stroke:#000000;" d="M155.79,86.535l-0.727-17.481h20.4l0.728-22.584l-5.829,4.372l-10.2-0.73l-3.64-7.285l2.186-3.642h10.924V0.571l10.931,1.459l7.283-1.459l10.198,4.372l6.559,29.139l2.185,7.286l0.728,19.67l6.559,5.099l16.75,3.641
				l0.73,34.971l-65.566-0.729V87.265l-10.197-0.73z"/>
			<text transform="matrix(1 0 0 1 185.0166 71.2354)"><tspan x="0" y="0">Lake</tspan><tspan x="-1.667" y="12">of the</tspan><tspan x="-4.629" y="24">Woods</tspan></text>
		</g>
		<g>
			<path style="fill:#FFFFFF;" d="M270.167,501.049l2.184-3.65v-5.824l30.599,0.729v34.968h-19.673v-4.374h-18.94l5.104-10.925l-2.196-6.557l2.923-4.367z"/>
			<text transform="matrix(1 0 0 1 265.1694 512.7017)"><tspan x="0" y="0" style="stroke:none;">Le Sueur</tspan></text>
		</g>
		<g>
			<path style="fill:#FFFFFF;" d="M96.783,483.563l1.458,42.979l-31.327,0.73v-34.241v-9.468h29.869z"/>
			<text transform="matrix(1 0 0 1 66.7529 505.1743)"><tspan x="0" y="0" style="stroke:none;">Lincoln</tspan></text>
		</g>
		<g>
			<path style="fill:#FFFFFF;" d="M96.783,483.563l1.458,42.979l37.156,0.73l-0.731-34.968l-0.728-8.741H96.783z"/>
			<text transform="matrix(1 0 0 1 106.5254 500.3149)"><tspan x="0" y="0" style="stroke:none;">Lyon</tspan></text>
		</g>
		<g>
			<path style="fill:#FFFFFF;" d="M262.879,448.592l-19.671-0.725l-19.67,0.725v8.741l0.731,17.484l0.727,8.745l19.672-0.73l-0.731-8.743l19.67,0.729l-0.729-26.226z"/>
			<text transform="matrix(1 0 0 1 225.4204 465.3511)"><tspan x="0" y="0" style="stroke:none;">McLeod</tspan></text>
		</g>
		<g>
			<path style="fill:#FFFFFF;" d="M138.308,227.133v-34.237l-40.794-0.728l-0.73,35.693l41.525-0.729z"/>
			<text transform="matrix(1 0 0 1 92.1675 216.2061)"><tspan x="0" y="0" style="stroke:none;">Mahnomen</tspan></text>
		</g>
		<g>
			<path style="fill:#FFFFFF;" d="M72.744,85.807l61.194,0.728l1.458,37.156H63.271l-54.638,0.724v-2.913v-13.111l-0.724-4.371l0.724-8.745v-9.468h64.11z"/>
			<text transform="matrix(1 0 0 1 28.3535 106.2007)"><tspan x="0" y="0" style="stroke:none;">Marshall</tspan></text>
		</g>
		<g>
			<path style="fill:#FFFFFF;" d="M234.467,562.969h-40.066v36.423h33.512l16.025-0.728l-0.73-35.695h-8.742z"/>
			<text transform="matrix(1 0 0 1 205.2798 582.6382)"><tspan x="0" y="0" style="stroke:none;">Martin</tspan></text>
		</g>
		<g>
			<path style="fill:#FFFFFF;" d="M202.415,412.897h30.597l0.727,4.371h8.742l0.728,30.6l-19.67,0.725v8.741h-20.396l-0.728-44.437z"/>
			<text transform="matrix(1 0 0 1 202.499 428.9263)"><tspan x="0" y="0" style="stroke:none;">Meeker</tspan></text>
		</g>
		<g style="stroke:none;">
			<path style="fill:#FFFFFF;stroke:#000000;" d="M279.633,318.192h29.87l0.73,9.476v17.483l-7.284-0.729l0.724,26.956v17.482l-20.396-0.727l-0.73-26.959l-2.182-32.785l-0.731-10.197z"/>
			<text transform="matrix(1 0 0 1 286.8394 332.7661)"><tspan x="0" y="0">Mille</tspan><tspan x="-0.283" y="12">Lacs</tspan></text>
		</g>
		<g>
			<path style="fill:#FFFFFF;" d="M280.365,328.389l2.182,32.785h-47.35l6.557,5.831h-29.142l-1.456-56.098h2.916l15.295-0.728l6.56,5.102l-3.644,2.91v10.197h48.081z"/>
			<text transform="matrix(1 0 0 1 223.0322 345.1509)"><tspan x="0" y="0" style="stroke:none;">Morrison</tspan></text>
		</g>
		<g>
			<path style="fill:#FFFFFF;" d="M370.699,562.969h-29.872l0.731,34.968l2.182,0.728l38.61-0.728l8.018,0.728v-34.24l-19.669-1.455z"/>
			<text transform="matrix(1 0 0 1 350.9419 581.3159)"><tspan x="0" y="0" style="stroke:none;">Mower</tspan></text>
		</g>
		<g>
			<path style="fill:#FFFFFF;" d="M135.396,527.272h10.197l-0.73,36.426l-47.35-0.729l0.728-36.428l37.156,0.73z"/>
			<text transform="matrix(1 0 0 1 109.8486 546.521)"><tspan x="0" y="0" style="stroke:none;">Murray</tspan></text>
		</g>
		<g>
			<path style="fill:#FFFFFF;" d="M200.229,501.049H214.8h55.367l-2.923,4.367l2.196,6.557l-5.104,10.925v5.829l-2.916,2.188l-10.195-3.644l-16.759-8.011l-5.099-5.104l-5.83-4.368l-6.556-0.729l-16.753-8.01z"/>
			<text transform="matrix(1 0 0 1 230.4575 514.1567)"><tspan x="0" y="0" style="stroke:none;">Nicollet</tspan></text>
		</g>
		<g>
			<path style="fill:#FFFFFF;" d="M144.863,563.698l-47.35-0.729l1.457,37.153l14.568-0.73l32.055-0.728l-0.73-34.967z"/>
			<text transform="matrix(1 0 0 1 110.3569 581.9087)"><tspan x="0" y="0" style="stroke:none;">Nobles</tspan></text>
		</g>
		<g>
			<path style="fill:#FFFFFF;" d="M96.783,227.862l0.73-35.693H32.677l1.455,10.925v15.297l0.731,9.471l52.451-0.729l9.469,0.729z"/>
			<text transform="matrix(1 0 0 1 44.0337 211.1069)"><tspan x="0" y="0" style="stroke:none;">Norman</tspan></text>
		</g>
		<g>
			<path style="fill:#FFFFFF;" d="M382.35,528.003l18.944-0.731v8.014l18.938,0.728v26.226l-29.864,2.186l-19.669-1.455l1.455-35.697l10.196,0.731z"/>
			<text transform="matrix(1 0 0 1 377.3696 546.769)"><tspan x="0" y="0" style="stroke:none;">Olmsted</tspan></text>
		</g>
		<g>
			<path style="fill:#FFFFFF;" d="M89.497,272.3h81.594v34.24l0.728,27.681l-51.724-1.455l-39.339,0.728v-53.179h8.741V272.3z"/>
			<text transform="matrix(1 0 0 1 100.1807 302.1685)"><tspan x="0" y="0" style="stroke:none;">Otter Tail</tspan></text>
		</g>
		<g>
			<path style="fill:#FFFFFF;" d="M63.271,123.69v14.57L64,138.984v5.829l61.92,0.732v2.913h10.2v-9.474l-0.724-15.294H63.271z"/>
			<text transform="matrix(1 0 0 1 75.126 137.5288)"><tspan x="0" y="0" style="stroke:none;">Pennington</tspan></text>
		</g>
		<g>
			<path style="fill:#FFFFFF;" d="M357.586,371.377l5.825-5.103l3.641-10.2l34.967-18.938l0.73-8.016v-27.68h-60.465l-0.727,26.226v16.754l-7.288,0.729v25.498l23.316,0.729z"/>
			<text transform="matrix(1 0 0 1 360.6919 330.5796)"><tspan x="0" y="0" style="stroke:none;">Pine</tspan></text>
		</g>
		<g>
			<path style="fill:#FFFFFF;" d="M97.513,562.969l0.728-36.428l-31.327,0.73v0.731v35.694l30.6-0.729z"/>
			<text transform="matrix(1 0 0 1 59.9746 545.4858)"><tspan x="0" y="0" style="stroke:none;">Pipestone</tspan></text>
		</g>
		<g>
			<path style="fill:#FFFFFF;" d="M138.308,192.896l-2.187-44.438h-10.2v8.013h-9.466l-0.73,9.469l-21.127-0.729l-20.399,0.729v-9.469H63.271L64,144.813v-5.829l-0.729-0.724v-14.57l-54.638,0.724v3.643l5.83,6.559l1.458,10.929l13.843,29.138l2.913,12.381v5.104
				h64.836l40.794,0.728z"/>
			<text transform="matrix(1 0 0 1 61.561 179.0532)"><tspan x="0" y="0" style="stroke:none;">Polk</tspan></text>
		</g>
		<g>
			<path style="fill:#FFFFFF;" d="M121.552,368.461l50.267,0.727l1.455,35.695l-11.658-1.455l-38.606,0.729l-1.458-35.696z"/>
			<text transform="matrix(1 0 0 1 135.3716 388.8599)"><tspan x="0" y="0" style="stroke:none;">Pope</tspan></text>
		</g>
		<g>
			<path style="fill:#FFFFFF;" d="M344.47,432.57h2.912v24.037l-2.912,0.727l-2.186-4.37l-6.555-0.728l-4.37,3.644l-4.37-14.571v-8.738h17.48z"/>
			<text transform="matrix(1 0 0 1 321.2427 443.3589)"><tspan x="0" y="0" style="stroke:none;">Ramsey</tspan></text>
		</g>
		<g>
			<path style="fill:#FFFFFF;" d="M64,144.813l61.92,0.732v2.913v8.013h-9.466l-0.73,9.469l-21.127-0.729l-20.399,0.729v-9.469H63.271L64,144.813z"/>
			<text transform="matrix(1 0 0 1 71.7373 155.0132)"><tspan x="0" y="0" style="stroke:none;">Red Lake</tspan></text>
		</g>
		<g>
			<path style="fill:#FFFFFF;" d="M134.666,492.304l19.669-0.729v-15.297l40.066,20.397l-0.728,21.852l-19.669-0.729l-0.731,9.474h-27.68h-10.197l-0.731-34.968z"/>
			<text transform="matrix(1 0 0 1 143.4092 505.4165)"><tspan x="0" y="0" style="stroke:none;">Redwood</tspan></text>
		</g>
		<g>
			<path style="fill:#FFFFFF;" d="M223.539,457.333l0.731,17.484l-10.197-0.729l0.728,26.96h-14.571l-5.829-4.374l-40.066-20.397l-4.37-4.37l-6.561-2.186l0.731-13.115l19.669,0.727h39.338h20.396z"/>
			<text transform="matrix(1 0 0 1 168.604 474.8179)"><tspan x="0" y="0" style="stroke:none;">Renville</tspan></text>
		</g>
		<g>
			<path style="fill:#FFFFFF;" d="M302.95,492.304l19.662-0.729l0.733,7.286l18.939,0.728v27.684l-29.868,0.731l-9.467-0.731v-34.968z"/>
			<text transform="matrix(1 0 0 1 311.8833 511.9731)"><tspan x="0" y="0" style="stroke:none;">Rice</tspan></text>
		</g>
		<g>
			<path style="fill:#FFFFFF;" d="M98.97,600.123l-31.326,0.729l-0.73-37.154l30.6-0.729l1.457,37.153z"/>
			<text transform="matrix(1 0 0 1 71.3779 581.022)"><tspan x="0" y="0" style="stroke:none;">Rock</tspan></text>
		</g>
		<g>
			<path style="fill:#FFFFFF;" d="M72.744,85.807l-2.187-46.623h88.149l-2.186,3.642l3.64,7.285l10.2,0.73l5.829-4.372l-0.728,22.584h-20.4l0.727,17.481h-21.852l-61.194-0.728z"/>
			<text transform="matrix(1 0 0 1 100.6743 62.4932)"><tspan x="0" y="0" style="stroke:none;">Roseau</tspan></text>
		</g>
		<g>
			<path style="fill:#FFFFFF;" d="M402.019,278.126l5.829-1.455l2.916-5.099l2.91-2.188l6.558-7.284l19.671-10.2l2.913-3.643l1.458-128.212l-5.829-0.729l-2.186-2.912l-8.015-1.459l-2.183-3.641l1.452-2.914l-8.007-5.101l-16.03,2.188v9.467l-6.554,2.185
				l-7.286-10.929l0.73-7.283l-5.104-4.37h-14.564l0.729-4.371l5.097-0.728l-0.727-5.101h-10.202l-17.483-8.012l-9.468,0.727l1.452,75.766l2.188,87.42l-0.727,26.954l61.191-0.734l-0.73,11.658z"/>
			<text transform="matrix(1 0 0 1 370.1821 205.2749)"><tspan x="0" y="0" style="stroke:none;">St. Louis</tspan></text>
		</g>
		<g>
			<path style="fill:#FFFFFF;" d="M318.974,466.079l0.728,17.484h3.644l-0.733,8.012l-19.662,0.729l-30.599-0.729l0.729-5.099l10.196-2.913v-2.189l11.655-7.284l0.732-3.642l3.638-4.369l4.371-1.457h8.015l7.286,1.457z"/>
			<text transform="matrix(1 0 0 1 292.2798 483.563)"><tspan x="0" y="0" style="stroke:none;">Scott</tspan></text>
		</g>
		<g>
			<path style="fill:#FFFFFF;" d="M302.95,403.428l0.724,17.484l-3.643-5.826h-14.568l-14.573-8.743l-3.645,0.728l-6.552-3.643l-4.372-2.91l-5.095-11.658l32.051-0.727l20.396,0.727l-0.724,14.568z"/>
			<text transform="matrix(1 0 0 1 257.7417 401.2397)"><tspan x="0" y="0" style="stroke:none;">Sherburne</tspan></text>
		</g>
		<g>
			<path style="fill:#FFFFFF;" d="M214.8,501.049l-0.728-26.96l10.197,0.729l0.727,8.745l19.672-0.73l-0.731-8.743l19.67,0.729l10.195-0.729l0.729,4.372l8.744,2.912v2.189l-10.196,2.913l-0.729,5.099v5.824l-2.184,3.65H214.8z"/>
			<text transform="matrix(1 0 0 1 231.7759 493.7612)"><tspan x="0" y="0" style="stroke:none;">Sibley</tspan></text>
		</g>
		<g>
			<path style="fill:#FFFFFF;" d="M171.819,369.188l1.455,35.695l29.142-0.726v8.739h30.597l0.727,4.371h8.742l12.385-5.825l5.827-8.015l-4.372-2.91l-5.095-11.658l-3.646-7.286l0.733-5.1l-6.559-9.469h-29.142h-40.793v2.183z"/>
			<text transform="matrix(1 0 0 1 199.751 389.5874)"><tspan x="0" y="0" style="stroke:none;">Stearns</tspan></text>
		</g>
		<g>
			<path style="fill:#FFFFFF;" d="M312.417,528.003l29.868-0.731l-1.458,35.697h-28.41v-34.966z"/>
			<text transform="matrix(1 0 0 1 312.2192 546.8706)"><tspan x="0" y="0" style="stroke:none;">Steele</tspan></text>
		</g>
		<g>
			<path style="fill:#FFFFFF;" d="M82.213,369.188l39.338-0.727l1.458,35.696H93.141H82.943v-17.486l-0.729-17.483z"/>
			<text transform="matrix(1 0 0 1 84.5464 388.8599)"><tspan x="0" y="0" style="stroke:none;">Stevens</tspan></text>
		</g>
		<g>
			<path style="fill:#FFFFFF;" d="M161.616,403.428l2.189,27.68H98.97l-4.374-2.182l-1.456-24.769h29.869l38.606-0.729z"/>
			<text transform="matrix(1 0 0 1 109.9907 418.728)"><tspan x="0" y="0" style="stroke:none;">Swift</tspan></text>
		</g>
		<g>
			<path style="fill:#FFFFFF;" d="M214.073,310.908h-2.916l1.456,56.098h-40.793v-32.784l-0.728-27.681h30.593l2.916,2.916l5.829-2.189l3.643,3.641z"/>
			<text transform="matrix(1 0 0 1 181.3735 332.7661)"><tspan x="0" y="0" style="stroke:none;">Todd</tspan></text>
		</g>
		<g>
			<path style="fill:#FFFFFF;" d="M81.483,341.508l0.73,27.68l0.729,17.483H34.862v-7.286l13.84-10.197l8.013-11.655l-0.729-6.556l0.729-8.742l24.768-0.727z"/>
			<text transform="matrix(1 0 0 1 43.0044 377.2026)"><tspan x="0" y="0" style="stroke:none;">Traverse</tspan></text>
		</g>
		<g>
			<path style="fill:#FFFFFF;" d="M440.633,528.727l-8.748-18.211l-13.107-5.1l-12.385-3.64l-13.843-0.728v8.739l-10.927,0.728l0.727,17.487l18.944-0.731v8.014l18.938,0.728v-8.741l20.401,1.455z"/>
			<text transform="matrix(1 0 0 1 394.1987 516.3442)"><tspan x="0" y="0" style="stroke:none;">Wabasha</tspan></text>
		</g>
		<g>
			<path style="fill:#FFFFFF;" d="M171.091,272.3v34.24h30.593l-0.725-43.712l-29.869,0.73v8.742z"/>
			<text transform="matrix(1 0 0 1 167.9521 290.5122)"><tspan x="0" y="0" style="stroke:none;">Wadena</tspan></text>
		</g>
		<g>
			<path style="fill:#FFFFFF;" d="M312.417,528.003v34.966h-18.938h-10.201v-35.697h19.673l9.467,0.731z"/>
			<text transform="matrix(1 0 0 1 279.6255 545.8667)"><tspan x="0" y="0" style="stroke:none;">Waseca</tspan></text>
		</g>
		<g>
			<path style="fill:#FFFFFF;" d="M361.226,471.181l3.643-11.658l-2.188-20.399l1.458-14.568l0.729-8.742l-20.398-0.727v17.483h2.912v24.037l-2.912,0.727v11.661l7.284-0.729l9.472,2.916z"/>
			<text transform="matrix(1 0 0 1 330.3228 429.8276)"><tspan x="0" y="0" style="stroke:none;">Washington</tspan></text>
		</g>
		<g>
			<path style="fill:#FFFFFF;" d="M234.467,536.744h-40.066v26.226h40.066v-26.226z"/>
			<text transform="matrix(1 0 0 1 192.0903 550.5845)"><tspan x="0" y="0" style="stroke:none;">Watonwan</tspan></text>
		</g>
		<g>
			<path style="fill:#FFFFFF;" d="M80.756,333.494v-53.179l-42.254,0.728l5.832,18.938l9.466,12.386l2.914,29.868l24.768-0.727l-0.727-8.015z"/>
			<text transform="matrix(1 0 0 1 47.7539 299.981)"><tspan x="0" y="0" style="stroke:none;">Wilkin</tspan></text>
		</g>
		<g>
			<path style="fill:#FFFFFF;" d="M485.07,562.969l-12.385-14.571l-8.742-4.373l-23.31-15.298l-20.401-1.455v8.741v26.226h29.87l34.968,0.73z"/>
			<text transform="matrix(1 0 0 1 426.5913 551.311)"><tspan x="0" y="0" style="stroke:none;">Winona</tspan></text>
		</g>
		<g>
			<path style="fill:#FFFFFF;" d="M260.693,403.428l-5.827,8.015l-12.385,5.825l0.728,30.6l19.671,0.725l20.397-1.455v-8.014l5.103-8.016l4.367-1.451l-1.456-4.375l12.383-4.369l-3.643-5.826h-14.568l-14.573-8.743l-3.645,0.728l-6.552-3.643z"/>
			<text transform="matrix(1 0 0 1 255.812 428.9263)"><tspan x="0" y="0" style="stroke:none;">Wright</tspan></text>
		</g>
		<g>
			<path style="fill:#FFFFFF;" d="M143.404,469.722l6.561,2.186l4.37,4.37v15.297l-19.669,0.729l-0.728-8.741H96.783H66.914l-0.724-17.484h46.622v-9.472h10.198v-2.913l13.111,9.47l7.284,6.559z"/>
			<text transform="matrix(1 0 0 1 74.2295 475.5513)"><tspan x="0" y="0" style="stroke:none;">Yellow Medicine</tspan></text>
		</g>
	</g>
</svg>
