<?xml version="1.0" encoding="iso-8859-1"?>
<!DOCTYPE svg >

<svg  width="362.852pt" height="601.227pt" viewBox="0 0 362.852 601.227" xml:space="preserve">
	<g id="Layer_x0020_1" style="fill-rule:nonzero;clip-rule:nonzero;fill:#FFFFFF;stroke:#000000;stroke-miterlimit:4; font-family:'Arial'; font-size:10;">
		<g>
			<path d="M46.936,423.432l-7.12-2.677l-8.013-15.132l-4.451,0.887l-4.453,13.354l-6.232-0.886l-1.783,4.454l7.124,1.777l-1.781,5.343l-7.121,1.781l3.561,16.916l-7.122-1.784l-1.783,6.234l3.56,4.451l-0.892,5.347l-9.789,2.668l2.668,8.01l12.464-6.228
				l-0.891-9.797l5.343,1.781l16.916-7.123l9.793,3.561v-32.938z"/>
			<g>
				<text transform="matrix(1 0 0 1 16.2417 441.2363)"><tspan x="0" y="0" style="fill:#000000;stroke:none;">Adams</tspan></text>
			</g>
		</g>
		<path d="M324.727,31.677h-35.612l-3.56-13.355h-7.128V1.401h3.56h40.063h2.677v30.276z"/>
		<g>
			<path d="M107.482,455.478h-8.015l-43.626,4.454l1.782,40.063h20.477h28.492l0.891-0.886v-43.632z"/>
			<text transform="matrix(1 0 0 1 68.8789 477.7373)"><tspan x="0" y="0" style="fill:#000000;stroke:none;">Amite</tspan></text>
		</g>
		<g>
			<path d="M198.295,215.086h-6.229l-4.453,8.902l-22.259,40.958h24.036l-0.889-7.12h40.956v-20.481l0.893-22.258h-14.247h-17.809z"/>
			<text transform="matrix(1 0 0 1 190.8545 240.0171)"><tspan x="0" y="0" style="fill:#000000;stroke:none;">Attala</tspan></text>
		</g>
		<g>
			<path d="M252.606,51.264l-16.024,0.889h-4.45v-31.16l-5.344-0.892l-0.892-17.808l16.024-0.891h17.81l-2.67,23.149h-4.454v26.713z"/>
			<text transform="matrix(1 0 0 1 226.9658 16.5391)"><tspan x="0" y="0" style="fill:#000000;stroke:none;">Benton</tspan></text>
		</g>
		<g>
			<path d="M97.489,126.654l-1.052-16.015l-28.5-0.609l-4.267,18.745l-7.173-5.272l0.246,24.926l-7.049,7.195l7.192,7.05l-5.306,3.613l-8.965-6.141l-1.761,1.796l6.347,11.515l-7.035,8.976l1.797,1.758l44.515-0.442l-0.106-10.681l11.577-0.115l-0.46-46.298z"/>
			<text transform="matrix(1 -0.0099 0.0099 1 60.2314 155.5186)"><tspan x="0" y="0" style="fill:#000000;stroke:none;">Bolivar</tspan></text>
		</g>
		<g>
			<path d="M210.759,142.08l0.892-37.397l25.817,0.892v10.685h10.688v32.941l-5.343-0.893v9.796l-31.163,2.673l-0.892-18.697z"/>
			<text transform="matrix(1 0 0 1 211.7256 139.4053)"><tspan x="0" y="0" style="fill:#000000;stroke:none;">Calhoun</tspan></text>
		</g>
		<g>
			<path d="M184.049,165.228h-35.614l3.564,25.82l-8.015,6.229v10.688l43.629,16.023l4.453-8.902h6.229l-0.891-15.134l-13.355-1.782v-32.942z"/>
			<text transform="matrix(1 0 0 1 156.8618 207.0732)"><tspan x="0" y="0" style="fill:#000000;stroke:none;">Carroll</tspan></text>
		</g>
		<g>
			<path d="M279.319,115.368l-31.163,0.892v32.941l-5.343-0.893v9.796h15.138l9.794-1.777v-8.019h22.262V116.26l-10.688-0.892z"/>
			<text transform="matrix(1 0 0 1 243.5703 138.5186)"><tspan x="0" y="0" style="fill:#000000;stroke:none;">Chickasaw</tspan></text>
		</g>
		<g>
			<path d="M252.606,182.145l-35.611,10.681l-0.892,22.26h14.247l-0.893,22.258h11.577v-10.682l9.79-0.892l1.781-11.572v-32.054z"/>
			<text transform="matrix(1 0 0 1 216.2373 205.2949)"><tspan x="0" y="0" style="fill:#000000;stroke:none;">Choctaw</tspan></text>
		</g>
		<g>
			<path d="M89.676,346.858l-6.234,9.796l-5.343-2.675l-0.892,4.452h-6.229l-0.891,5.344l-8.904-2.67l-2.67,3.563h-8.016l1.781,8.012l-12.463,16.913l38.283,5.342v5.346l9.794,0.89l2.669-32.054l-0.887-22.258z"/>
			<text transform="matrix(1 0 0 1 50.4683 379.7998)"><tspan x="0" y="0" style="fill:#000000;stroke:none;">Claiborne</tspan></text>
		</g>
		<g>
			<path d="M314.041,388.703l3.563-41.845h-46.297v48.076l42.734-6.231z"/>
			<text transform="matrix(1 0 0 1 278.2227 370.8955)"><tspan x="0" y="0" style="fill:#000000;stroke:none;">Clarke</tspan></text>
		</g>
		<g>
			<path d="M290.007,148.308h-22.262v8.019l-9.794,1.777l1.779,22.259h34.724v5.343l18.696-2.67l-1.778-14.246l0.892-4.453h-23.149l0.893-16.029z"/>
			<text transform="matrix(1 0 0 1 271.0986 171.459)"><tspan x="0" y="0" style="fill:#000000;stroke:none;">Clay</tspan></text>
		</g>
		<g>
			<path d="M122.616,71.743l-0.891,20.477l-4.45,0.89l-0.888,23.15v10.682H97.689l-0.893-16.024l-28.492-0.892l-1.778-5.342l13.355,1.78v-4.45L71.87,99.34l1.777-4.454l16.029-8.011l-0.892-8.902l16.026-4.452l0.891-13.356l16.915,11.579z"/>
			<text transform="matrix(1 0 0 1 75.1167 100.2314)"><tspan x="0" y="0" style="fill:#000000;stroke:none;">Coahoma</tspan></text>
		</g>
		<g>
			<path d="M137.753,369.116H90.563l-2.669,32.054l0.891,11.573l48.969-3.561l11.574-4.452l-10.683-34.721l-0.891-0.894z"/>
			<text transform="matrix(1 0 0 1 104.1025 391.3779)"><tspan x="0" y="0" style="fill:#000000;stroke:none;">Copiah</tspan></text>
		</g>
		<g>
			<path d="M221.446,398.497l-24.929,1.783l-9.792,0.89l0.888,19.585l14.244,10.688l0.892,12.463h14.246h5.34l-0.889-45.409z"/>
			<text transform="matrix(1 0 0 1 181.126 420.7549)"><tspan x="0" y="0" style="fill:#000000;stroke:none;">Covington</tspan></text>
		</g>
		<g>
			<path d="M142.207,35.236V18.322h-15.139l9.793-7.126l-2.667-9.794h55.197v28.493h-18.696l-14.241,6.233l-8.019-5.341l-6.229,4.45z"/>
			<text transform="matrix(1 0 0 1 145.5068 20.1001)"><tspan x="0" y="0" style="fill:#000000;stroke:none;">De Soto</tspan></text>
		</g>
		<g>
			<path d="M247.264,444.795l-24.929-0.889h-5.34v10.687h9.793l0.893,40.952l0.887,13.355l20.48,0.891l-1.784-64.996z"/>
			<text transform="matrix(1 0 0 1 216.2969 452.8086)"><tspan x="0" y="0" style="fill:#000000;stroke:none;">Forrest</tspan></text>
		</g>
		<g>
			<path d="M87.894,423.432H46.936v32.938l8.904,3.563l43.626-4.454v-32.938l-11.573,0.893z"/>
			<text transform="matrix(1 0 0 1 54.9722 443.0146)"><tspan x="0" y="0" style="fill:#000000;stroke:none;">Franklin</tspan></text>
		</g>
		<g>
			<path d="M321.164,531.159l-0.893-32.05l-41.845,0.886v8.905l-5.342,0.891l0.893,21.368h47.187z"/>
			<text transform="matrix(1 0 0 1 280.4463 518.6963)"><tspan x="0" y="0" style="fill:#000000;stroke:none;">George</tspan></text>
		</g>
		<g>
			<path d="M320.271,499.109l-41.845,0.886l-0.893-55.2h39.182l1.778,39.177l1.777,15.138z"/>
			<text transform="matrix(1 0 0 1 282.2314 475.0674)"><tspan x="0" y="0" style="fill:#000000;stroke:none;">Greene</tspan></text>
		</g>
		<g>
			<path d="M147.549,160.777l1.778-12.469l20.481-2.67v-7.12l40.95,3.562l0.892,18.697v5.339l-27.602-0.889h-35.614l-0.886-4.45z"/>
			<text transform="matrix(1 0 0 1 167.2676 156.3271)"><tspan x="0" y="0" style="fill:#000000;stroke:none;">Grenada</tspan></text>
		</g>
		<g>
			<path d="M193.845,566.773l6.234,13.354l0.892,13.355l7.118,7.125l9.799-5.342l9.793-12.466l0.887-6.232l-0.887-33.832h-19.592v16.023l-14.244,8.014z"/>
			<text transform="matrix(1 0 0 1 193.0889 574.791)"><tspan x="0" y="0" style="fill:#000000;stroke:none;">Hancock</tspan></text>
		</g>
		<g>
			<path d="M227.681,542.736l10.679-0.892l0.893-3.561l34.726,0.891v27.599l-1.781,0.892l0.889,4.45l-0.889,0.893l-15.136,0.889l-23.15,8.904l-2.668-6.232h-2.675l-0.887-33.832z"/>
			<text transform="matrix(1 0 0 1 231.0439 560.5449)"><tspan x="0" y="0" style="fill:#000000;stroke:none;">Harrison</tspan></text>
		</g>
		<g>
			<path d="M108.369,310.354l-5.338,2.669v5.343l-4.452,11.577l-7.125,0.888l-1.778,16.027l0.887,22.258h47.191v-15.137l16.024-28.488h-15.133v-12.469l-21.37,0.892v-9.794l-8.906,6.233z"/>
			<text transform="matrix(1 0 0 1 108.9419 333.5034)"><tspan x="0" y="0" style="fill:#000000;stroke:none;">Hinds</tspan></text>
		</g>
		<g>
			<path d="M127.067,213.308l0.893,23.149l-7.122-0.89l7.122,12.463l37.395,16.917l22.259-40.958l-43.629-16.023l-13.355-4.454l1.781,7.121l-5.343,2.676z"/>
			<text transform="matrix(1 0 0 1 135.937 233.7827)"><tspan x="0" y="0" style="fill:#000000;stroke:none;">Holmes</tspan></text>
		</g>
		<g>
			<path d="M117.275,207.073h-10.684v8.904l-16.028,0.892l4.452,9.793l-2.668,10.682l4.45,0.891v21.368l21.368-0.888l-0.889-10.685h10.685l-7.122-12.463l7.122,0.89l-0.893-23.149l-2.669,6.229l-7.124-2.667v-9.796z"/>
			<text transform="matrix(1 0 0 1 80.1367 230.2227)"><tspan x="0" y="0" style="fill:#000000;stroke:none;">Humphreys</tspan></text>
		</g>
		<g>
			<path d="M70.978,251.59h-26.71l-1.782,9.794l6.234-0.892l1.778-4.451l4.453,1.784l-7.123,17.805l3.562,5.343l4.451,1.778l-1.778,5.342l-6.235,3.562l0.892,8.012l8.903-3.561l4.452,1.783l-5.344,6.23l8.014-0.888l0.89,21.368l11.572-7.126v-14.242h11.577
				l2.67-6.234v-4.452l-24.927-0.891l0.891-22.259l4.452-11.571l-0.892-6.236z"/>
			<text transform="matrix(1 0 0 1 45.231 296.9985)"><tspan x="0" y="0" style="fill:#000000;stroke:none;">Issaquena</tspan></text>
		</g>
		<g>
			<path d="M339.862,115.368l3.564-29.382l0.885-18.694l-16.915,0.886H306.92l1.778,47.191h31.164z"/>
			<text transform="matrix(1 0 0 1 303.0498 91.3281)"><tspan x="0" y="0" style="fill:#000000;stroke:none;">Itawamba</tspan></text>
		</g>
		<g>
			<path d="M322.05,572.115l-0.886-40.956h-47.187v8.016v27.599l8.009,5.342v2.676l9.799,2.666l8.901-5.342l3.562-0.894l2.672,6.235l4.452,2.671l8.899-2.671l1.778-5.342z"/>
			<text transform="matrix(1 0 0 1 281.4521 556.0908)"><tspan x="0" y="0" style="fill:#000000;stroke:none;">Jackson</tspan></text>
		</g>
		<g>
			<path d="M271.307,394.935v-48.076h-40.956v50.75l37.395-2.674h3.562z"/>
			<text transform="matrix(1 0 0 1 235.8174 370.0098)"><tspan x="0" y="0" style="fill:#000000;stroke:none;">Jasper</tspan></text>
		</g>
		<g style="fill:#000000;stroke:none;">
			<path style="fill:#FFFFFF;stroke:#000000;" d="M186.726,401.17l-23.152,1.781l1.781,46.298h14.244l0.89-5.343l16.029,0.889l6.231-0.889l-0.892-12.463l-14.244-10.688l-0.888-19.585z"/>
			<text transform="matrix(1 0 0 1 162.6865 432.333)"><tspan x="0" y="0">Jefferson</tspan><tspan x="7.975" y="12">Davis</tspan></text>
		</g>
		<g>
			<path d="M267.745,394.935v49.86h-20.481l-24.929-0.889l-0.889-45.409l8.904-0.889l37.395-2.674z"/>
			<text transform="matrix(1 0 0 1 231.251 418.085)"><tspan x="0" y="0" style="fill:#000000;stroke:none;">Jones</tspan></text>
		</g>
		<g>
			<path d="M322.05,302.342l4.454-42.74h-45.403l-10.687-0.888v43.628h51.636z"/>
			<text transform="matrix(1 0 0 1 278.7256 282.7515)"><tspan x="0" y="0" style="fill:#000000;stroke:none;">Kemper</tspan></text>
		</g>
		<g>
			<path d="M236.582,63.726v14.247l0.886,27.602l-25.817-0.892l-21.365-3.56l-0.895-45.41h6.235l18.699,0.889l22.257,7.123z"/>
			<text transform="matrix(1 0 0 1 192.8633 82.4233)"><tspan x="0" y="0" style="fill:#000000;stroke:none;">Lafayette</tspan></text>
		</g>
		<g>
			<path d="M216.995,443.906h-14.246l-6.231,0.889v53.423l31.163-2.673l-0.893-40.952h-9.793v-10.687z"/>
			<text transform="matrix(1 0 0 1 196.5869 477.7373)"><tspan x="0" y="0" style="fill:#000000;stroke:none;">Lamar</tspan></text>
		</g>
		<g>
			<path d="M317.604,346.858h-46.297l-0.893-44.516h51.636l-3.556,33.832l-0.891,10.685z"/>
			<text transform="matrix(1 0 0 1 272.1025 327.2695)"><tspan x="0" y="0" style="fill:#000000;stroke:none;">Lauderdale</tspan></text>
		</g>
		<g>
			<path d="M149.327,404.73l-11.574,4.452l0.891,45.41l18.694,2.669v-8.013h8.016l-1.781-46.298l-14.246,1.779z"/>
			<text transform="matrix(1 0 0 1 127.6475 432.333)"><tspan x="0" y="0" style="fill:#000000;stroke:none;">Lawrence</tspan></text>
		</g>
		<g>
			<path d="M229.458,257.826h-40.956l0.889,7.12l-0.889,31.162l0.889,6.235l40.067,0.89v-45.407z"/>
			<text transform="matrix(1 0 0 1 194.4658 279.1914)"><tspan x="0" y="0" style="fill:#000000;stroke:none;">Leake</tspan></text>
		</g>
		<g>
			<path d="M306.92,68.177l1.778,47.191l-18.691-0.891v1.783l-10.688-0.892l-0.893-35.613l4.451-3.56l-0.892-12.469l5.346-1.778h18.697l0.891,6.229z"/>
			<text transform="matrix(1 0 0 1 284.3291 92.2197)"><tspan x="0" y="0" style="fill:#000000;stroke:none;">Lee</tspan></text>
		</g>
		<g>
			<path d="M147.549,160.777l-16.027-1.783l1.78-4.452l9.796-5.342h-25.824v57.873v9.796l7.124,2.667l2.669-6.229l5.343-2.676l-1.781-7.121l13.355,4.454v-10.688l8.015-6.229l-3.564-25.82l-0.886-4.45z"/>
			<text transform="matrix(1 0 0 1 119.792 183.0361)"><tspan x="0" y="0" style="fill:#000000;stroke:none;">Leflore</tspan></text>
		</g>
		<g>
			<path d="M88.784,412.743l-0.891,10.688l11.573-0.893v32.938h8.015l28.49-0.885h2.673l-0.891-45.41l-48.969,3.561z"/>
			<text transform="matrix(1 0 0 1 102.3193 441.2363)"><tspan x="0" y="0" style="fill:#000000;stroke:none;">Lincoln</tspan></text>
		</g>
		<g>
			<path d="M330.07,215.086l3.56-30.272l1.778-25.819l-6.229-0.89l-10.685,10.686h-7.122l1.778,14.246l-18.696,2.67v28.493l35.616,0.887z"/>
			<text transform="matrix(1 0 0 1 294.0264 198.1694)"><tspan x="0" y="0" style="fill:#000000;stroke:none;">Lowndes</tspan></text>
		</g>
		<g>
			<path d="M117.275,304.12l40.957-23.146l7.123-16.028h24.036l-0.889,31.162l-5.339,3.561l-7.127,0.892l-1.778,4.45l-18.696,14.247l-1.784,6.235h-15.133v-12.469l-21.37,0.892v-9.794z"/>
			<text transform="matrix(1 0 0 1 133.9863 302.3423)"><tspan x="0" y="0" style="fill:#000000;stroke:none;">Madison</tspan></text>
		</g>
		<g>
			<path d="M165.354,449.249h14.244l0.89-5.343l16.029,0.889v53.423l-8.904,0.892l-8.901-0.892v-8.903h-8.018l-2.67-8.013h-7.121l-3.564-24.04v-8.013h8.016z"/>
			<text transform="matrix(1 0 0 1 164.3154 470.6162)"><tspan x="0" y="0" style="fill:#000000;stroke:none;">Marion</tspan></text>
		</g>
		<g>
			<path d="M189.391,29.895V1.401l8.014,0.891h28.492l0.892,17.808l5.344,0.892v31.16h4.45v11.574l-22.257-7.123l-18.699-0.889l-0.892-16.024h-5.344v-9.795z"/>
			<text transform="matrix(1 0 0 1 194.54 37.9053)"><tspan x="0" y="0" style="fill:#000000;stroke:none;">Marshall</tspan></text>
		</g>
		<g>
			<path d="M335.408,158.995l4.454-41.846v-1.781h-31.164l-18.691-0.891v1.783v32.048l-0.893,16.029h23.149l-0.892,4.453h7.122l10.685-10.686l6.229,0.89z"/>
			<text transform="matrix(1 0 0 1 298.8711 141.188)"><tspan x="0" y="0" style="fill:#000000;stroke:none;">Monroe</tspan></text>
		</g>
		<g>
			<path d="M216.995,192.826l-5.345,0.892v-27.602l-27.602-0.889v32.942l13.355,1.782l0.891,15.134h17.809l0.892-22.26z"/>
			<text transform="matrix(1 0 0 1 173.1826 186.5967)"><tspan x="0" y="0" style="fill:#000000;stroke:none;">Montgomery</tspan></text>
		</g>
		<g>
			<path d="M270.414,258.714v43.628l-40.956,0.89v-45.407l40.956,0.889z"/>
			<text transform="matrix(1 0 0 1 229.9229 280.9736)"><tspan x="0" y="0" style="fill:#000000;stroke:none;">Neshoba</tspan></text>
		</g>
		<g>
			<path d="M270.414,302.342l-40.956,0.89l0.893,43.626h40.956l-0.893-44.516z"/>
			<text transform="matrix(1 0 0 1 234.7627 327.2695)"><tspan x="0" y="0" style="fill:#000000;stroke:none;">Newton</tspan></text>
		</g>
		<g>
			<path d="M326.504,259.603h-45.403v-45.404h13.354l35.616,0.887l-2.674,36.504l-0.893,8.013z"/>
			<text transform="matrix(1 0 0 1 287.7979 240.9092)"><tspan x="0" y="0" style="fill:#000000;stroke:none;">Noxubee</tspan></text>
		</g>
		<g>
			<path d="M294.454,185.706v-5.343H259.73l-7.124,1.782v32.054h28.494h13.354v-28.493z"/>
			<text transform="matrix(1 0 0 1 251.1846 199.9517)"><tspan x="0" y="0" style="fill:#000000;stroke:none;">Oktibbeha</tspan></text>
		</g>
		<g>
			<path d="M189.391,55.714l0.895,45.41v3.56h-24.042h-17.808V91.328l-5.336-3.562l-0.892-26.709l-0.893-5.343h48.077z"/>
			<text transform="matrix(1 0 0 1 148.897 80.6475)"><tspan x="0" y="0" style="fill:#000000;stroke:none;">Panola</tspan></text>
		</g>
		<g>
			<path d="M227.681,495.545l0.887,13.355l-0.887,33.836h-19.592v16.023l-14.244,8.014l-7.119-11.574l-7.127-15.138v-8.014l10.687-27.599l-2.672-5.34l8.904-0.892l31.163-2.673z"/>
			<text transform="matrix(1 0 0 1 179.7998 529.3818)"><tspan x="0" y="0" style="fill:#000000;stroke:none;">Pearl River</tspan></text>
		</g>
		<g>
			<path d="M277.534,444.795h-9.789h-20.481l1.784,64.996h24.037l5.342-0.891v-8.905l-0.893-55.2z"/>
			<text transform="matrix(1 0 0 1 249.5693 478.6279)"><tspan x="0" y="0" style="fill:#000000;stroke:none;">Perry</tspan></text>
		</g>
		<g>
			<path d="M107.482,455.478l28.49-0.885v44.517h-8.012h-20.478v-43.632z"/>
			<text transform="matrix(1 0 0 1 111.9985 476.8506)"><tspan x="0" y="0" style="fill:#000000;stroke:none;">Pike</tspan></text>
		</g>
		<g>
			<path d="M278.427,79.755l0.893,35.613l-31.163,0.892h-10.688v-10.685l-0.886-27.602l41.845,1.782z"/>
			<text transform="matrix(1 0 0 1 237.3242 99.3398)"><tspan x="0" y="0" style="fill:#000000;stroke:none;">Pontotoc</tspan></text>
		</g>
		<g>
			<path d="M289.114,31.677l-0.891,19.586l-0.892,10.685h18.697l0.891,6.229h20.477l-2.67-36.5h-35.612z"/>
			<text transform="matrix(1 0 0 1 289.751 51.2637)"><tspan x="0" y="0" style="fill:#000000;stroke:none;">Prentiss</tspan></text>
		</g>
		<g>
			<path d="M142.207,61.057l0.892,26.709l5.336,3.562v13.355v11.577h-32.048l0.888-23.15l4.45-0.89l0.891-20.477h9.794v-9.795l9.796-0.892z"/>
			<text transform="matrix(1 0 0 1 112.6255 103.7925)"><tspan x="0" y="0" style="fill:#000000;stroke:none;">Quitman</tspan></text>
		</g>
		<g>
			<path d="M183.163,299.668l5.339,46.298l0.889,23.15h-51.637v-15.137l16.024-28.488l1.784-6.235l18.696-14.247l1.778-4.45l7.127-0.892z"/>
			<text transform="matrix(1 0 0 1 150.6792 347.751)"><tspan x="0" y="0" style="fill:#000000;stroke:none;">Rankin</tspan></text>
		</g>
		<g>
			<path d="M183.163,299.668l5.339,46.298l41.849,0.893l-0.893-43.626l-40.067-0.89l-0.889-6.235l-5.339,3.561z"/>
			<text transform="matrix(1 0 0 1 195.8057 324.6006)"><tspan x="0" y="0" style="fill:#000000;stroke:none;">Scott</tspan></text>
		</g>
		<g>
			<path d="M92.346,237.344l-20.477,0.891l-0.892,13.355l0.892,6.236l-4.452,11.571l-0.891,22.259l24.927,0.891l-3.561-24.04l8.903-8.905v-21.368l-4.45-0.891z"/>
			<text transform="matrix(1 0 0 1 66.8833 256.0415)"><tspan x="0" y="0" style="fill:#000000;stroke:none;">Sharkey</tspan></text>
		</g>
		<g>
			<path d="M189.391,369.116l7.127-0.889v32.053l-9.792,0.89l-23.152,1.781l-14.246,1.779l-10.683-34.721l-0.891-0.894h51.637z"/>
			<text transform="matrix(1 0 0 1 151.2412 387.8145)"><tspan x="0" y="0" style="fill:#000000;stroke:none;">Simpson</tspan></text>
		</g>
		<g>
			<path d="M188.502,345.966l0.889,23.15l7.127-0.889v32.053l24.929-1.783l8.904-0.889v-50.75l-41.849-0.893z"/>
			<text transform="matrix(1 0 0 1 198.8701 371.7871)"><tspan x="0" y="0" style="fill:#000000;stroke:none;">Smith</tspan></text>
		</g>
		<g>
			<path d="M228.567,508.9l20.48,0.891h24.037l0.893,21.368v8.016l-34.726-0.891l-0.893,3.561l-10.679,0.892l0.887-33.836z"/>
			<text transform="matrix(1 0 0 1 236.8711 526.708)"><tspan x="0" y="0" style="fill:#000000;stroke:none;">Stone</tspan></text>
		</g>
		<g>
			<path d="M117.275,149.201l-0.888-22.259H97.689v46.299H86.112v10.682l0.892,32.055l3.559,0.892l16.028-0.892v-8.904h10.684v-57.873z"/>
			<text transform="matrix(1 0 0 1 79.9048 182.145)"><tspan x="0" y="0" style="fill:#000000;stroke:none;">Sunflower</tspan></text>
		</g>
		<g>
			<path d="M148.435,104.683v11.577h-32.048v10.682l0.888,22.259h25.824l-9.796,5.342l-1.78,4.452l16.027,1.783l1.778-12.469l20.481-2.67v-7.12l-3.565-33.835h-17.808z"/>
			<text transform="matrix(1 0 0 1 115.8003 135.8457)"><tspan x="0" y="0" style="fill:#000000;stroke:none;">Tallahatchie</tspan></text>
		</g>
		<g>
			<path d="M142.207,35.236l6.229-4.45l8.019,5.341l14.241-6.233h18.696v9.795h5.344l0.892,16.024h-6.235h-48.077l-3.561-8.904l4.453-11.574z"/>
			<text transform="matrix(1 0 0 1 160.3584 46.8101)"><tspan x="0" y="0" style="fill:#000000;stroke:none;">Tate</tspan></text>
		</g>
		<g>
			<path d="M289.114,31.677l-0.891,19.586h-35.617V24.55h4.454l2.67-23.149h18.696v16.92h7.128l3.56,13.355z"/>
			<text transform="matrix(1 0 0 1 254.4209 37.9053)"><tspan x="0" y="0" style="fill:#000000;stroke:none;">Tippah</tspan></text>
		</g>
		<g>
			<path d="M344.312,67.291l1.785-14.247l4.45-39.174l-9.796-13.356l-16.024,0.887v30.276l2.67,36.5l16.915-0.886z"/>
			<text transform="matrix(1 0 0 1 311.5332 26.3345)"><tspan x="0" y="0" style="fill:#000000;stroke:none;">Tishomingo</tspan></text>
		</g>
		<g>
			<path d="M142.207,35.236V18.322h-15.139l-6.229,3.56l-4.451,9.796l-7.126-0.891v3.561l7.126,7.121l-1.782,2.672l-5.344-3.559l-4.451,4.451l4.451,12.462l-3.56,2.67l16.915,11.579h9.794v-9.795l9.796-0.892l-0.893-5.343l-3.561-8.904l4.453-11.574z"/>
			<text transform="matrix(1 0 0 1 109.5767 54.8232)"><tspan x="0" y="0" style="fill:#000000;stroke:none;">Tunica</tspan></text>
		</g>
		<g>
			<path d="M287.332,61.948l-5.346,1.778l0.892,12.469l-4.451,3.56l-41.845-1.782V63.726V52.152l16.024-0.889h35.617l-0.892,10.685z"/>
			<text transform="matrix(1 0 0 1 248.4502 67.291)"><tspan x="0" y="0" style="fill:#000000;stroke:none;">Union</tspan></text>
		</g>
		<g>
			<path d="M157.339,457.262l-18.694-2.669h-2.673v44.517l42.74-0.892v-8.903h-8.018l-2.67-8.013h-7.121l-3.564-24.04z"/>
			<text transform="matrix(1 0 0 1 133.5132 489.3145)"><tspan x="0" y="0" style="fill:#000000;stroke:none;">Walthall</tspan></text>
		</g>
		<g>
			<path d="M91.454,296.999l-2.67,6.234H77.207v14.242l-11.572,7.126l-0.89-21.368l-8.014,0.888v0.89l6.236,6.235l-2.675,2.669l-6.229-4.452l-1.784-0.893l3.562,8.904h4.451l0.892,9.795l10.687,6.234l-5.343,12.462l-14.248,1.785l-5.343,0.885l-0.891,8.019
				l8.017,2.667l10.682-8.01l1.782,2.668l-5.344,7.126l8.904,2.67l0.891-5.344h6.229l0.892-4.452l5.343,2.675l6.234-9.796l1.778-16.027l7.125-0.888l4.452-11.577v-5.343l5.338-2.669l-16.915-13.355z"/>
			<text transform="matrix(1 0 0 1 68.1279 326.3779)"><tspan x="0" y="0" style="fill:#000000;stroke:none;">Warren</tspan></text>
		</g>
		<g>
			<path d="M86.112,183.922H41.594l8.904,20.481l-3.562,6.229l3.562,8.018l8.016-2.673l-4.451,13.353l-8.904,3.561l3.562,11.58l-4.452,7.119h26.71l0.892-13.355l20.477-0.891l2.668-10.682l-4.452-9.793l-3.559-0.892l-0.892-32.055z"/>
			<text transform="matrix(1 0 0 1 41.1992 214.1987)"><tspan x="0" y="0" style="fill:#000000;stroke:none;">Washington</tspan></text>
		</g>
		<g>
			<path d="M316.716,444.795l-1.783-32.942l-0.892-23.149l-42.734,6.231h-3.562v49.86h9.789h39.182z"/>
			<text transform="matrix(1 0 0 1 278.1875 417.1943)"><tspan x="0" y="0" style="fill:#000000;stroke:none;">Wayne</tspan></text>
		</g>
		<g>
			<path d="M257.951,158.104h-15.138l-31.163,2.673v5.339v27.602l5.345-0.892l35.611-10.681l7.124-1.782l-1.779-22.259z"/>
			<text transform="matrix(1 0 0 1 218.9424 175.0195)"><tspan x="0" y="0" style="fill:#000000;stroke:none;">Webster</tspan></text>
		</g>
		<g>
			<path d="M55.84,459.932l-8.904-3.563l-9.793-3.561l-16.916,7.123l-5.343-1.781l0.891,9.797L3.31,474.175l-0.892,9.797l4.452,7.12l-5.344,6.233l1.784,1.784l40.958,0.886h13.355l-1.782-40.063z"/>
			<text transform="matrix(1 0 0 1 10.4092 483.0791)"><tspan x="0" y="0" style="fill:#000000;stroke:none;">Wilkinson</tspan></text>
		</g>
		<g>
			<path d="M229.458,237.344v20.481l40.956,0.889l10.687,0.888v-45.404h-28.494l-1.781,11.572l-9.79,0.892v10.682h-11.577z"/>
			<text transform="matrix(1 0 0 1 240.7832 246.2476)"><tspan x="0" y="0" style="fill:#000000;stroke:none;">Winston</tspan></text>
		</g>
		<g>
			<path d="M169.809,138.519l40.95,3.562l0.892-37.397l-21.365-3.56v3.56h-24.042l3.565,33.835z"/>
			<text transform="matrix(1 0 0 1 167.0264 125.1631)"><tspan x="0" y="0" style="fill:#000000;stroke:none;">Yalobusha</tspan></text>
		</g>
		<g>
			<path d="M91.454,292.547l-3.561-24.04l8.903-8.905l21.368-0.888l-0.889-10.685h10.685l37.395,16.917l-7.123,16.028l-40.957,23.146l-8.906,6.233l-16.915-13.355v-4.452z"/>
			<text transform="matrix(1 0 0 1 105.2495 281.8623)"><tspan x="0" y="0" style="fill:#000000;stroke:none;">Yazoo</tspan></text>
		</g>
		<g>
			<path d="M87.894,401.17l-9.794-0.89v-5.346l-38.283-5.342l1.778,4.452l-8.904-1.777l-3.558,2.667l-0.893,5.346l8.904,4.45l-5.339,0.893l8.013,15.132l7.12,2.677h40.958l0.891-10.688l-0.891-11.573z"/>
			<text transform="matrix(1 0 0 1 38.0371 408.293)"><tspan x="0" y="0" style="fill:#000000;stroke:none;">Jefferson</tspan></text>
		</g>
	</g>
</svg>
