<?xml version="1.0" encoding="iso-8859-1"?>
<!DOCTYPE svg >

<svg  width="800.975pt" height="384.106pt" viewBox="0 0 800.975 384.106" xml:space="preserve">
	<g id="Layer_x0020_1" style="fill-rule:nonzero;clip-rule:nonzero;stroke:#000000;stroke-miterlimit:4; font-family:'Arial'; font-size:10;">
		<g>
			<path style="fill:#FFFFFF;" d="M198.874,369.105l17.326,14.338l7.168-6.573l17.923,2.394l6.568,1.191l0.598-6.57l6.572-2.988l4.182,4.183l20.91-2.985l4.18,2.985l11.949-3.585l9.559,1.796l-2.388-6.573l1.791-7.769h-19.714v-4.777l-18.52-1.196v-2.39l-7.17-0.598
				l-1.791-14.935l-8.363-1.193l-1.196-5.375h-7.167l-0.597-21.507l-2.391-8.366l-7.17,1.794l-5.974-5.974l0.598-10.158l-4.184-5.376l-1.791-5.974l-15.533-4.18l-4.778-4.183l-4.184-2.988l-7.764,2.988l-6.573,3.584l-1.196,4.778l-11.349-13.142l-26.286,17.324
				l28.076,48.391l4.182,5.377l0.6,7.765l-2.988,2.39l11.35,11.947l5.974-2.987l5.974,5.38l5.376,10.753l-1.792,2.985z"/>
			<text transform="matrix(1 0 0 1 179.0762 327.8867)"><tspan x="0" y="0" style="stroke:none;">Beaverhead</tspan></text>
		</g>
		<g style="stroke:none;">
			<path style="fill:#FFFFFF;stroke:#000000;" d="M601.525,262.77h7.17v2.988l4.18,0.593v2.987h-2.985v8.365l11.351,0.596l-1.792,40.626l35.247-0.599l0.598,16.132l-111.715,0.595l-25.092-0.595l12.547-17.327l-41.223-0.596v-20.314h3.585l39.43-4.778l1.791-31.067
				l24.491-7.765v-4.777l10.756-0.598h6.57v7.766l25.092,7.768z"/>
			<text transform="matrix(1 0 0 1 565.6265 299.208)"><tspan x="0" y="0">Big</tspan><tspan x="-3.611" y="12">Horn</tspan></text>
		</g>
		<g>
			<path style="fill:#FFFFFF;" d="M521.471,1.103l-13.74,84.234l-8.362,0.599l-2.985-0.599l-1.792,5.376L477.86,91.91l-0.595,14.936h-2.985l-1.196-1.794l1.791-1.194l-0.595-2.388h-21.509l-7.768,5.376l-4.18,0.597l-7.17-1.196l0.6-32.259l5.374-32.857l-2.389,0.597
				l1.197-40.027l83.035-0.598z"/>
			<text transform="matrix(1 0 0 1 462.7671 45.3105)"><tspan x="0" y="0" style="stroke:none;">Blaine</tspan></text>
		</g>
		<g>
			<path style="fill:#FFFFFF;" d="M332.095,216.767l0.597,5.975l-2.389,1.79l-1.794,2.394l1.197,3.583l2.986,1.194l0.6,4.182h-7.17l-0.599,1.194h-9.555l-22.704,28.679l0.597-17.329l-8.96,0.597l0.597-44.207l8.961-0.6l-0.598-14.933l3.586-2.391l2.987,0.6
				l2.388,1.193l2.987-1.193l1.792,1.193l24.494,28.078z"/>
			<text transform="matrix(1 0 0 1 282.0317 227.5186)"><tspan x="0" y="0" style="stroke:none;">Broadwater</tspan></text>
		</g>
		<g>
			<path style="fill:#FFFFFF;" d="M462.331,286.067v4.779l-4.78,0.597v5.376h-10.753l-2.987,1.194l-4.183,1.791l-2.985,1.794l-4.779,5.976l-1.197,5.974l-5.376,0.595l-0.598,6.571h-7.765v14.936l79.456,0.599l22.103-1.791l12.547-17.327l-41.223-0.596v-20.314h1.196
				l-0.6-4.181l-7.165-0.597v-2.988l1.789-2.985l-1.194-2.988l-4.18,1.197l-17.326,2.389z"/>
			<text transform="matrix(1 0 0 1 449.5522 309.355)"><tspan x="0" y="0" style="stroke:none;">Carbon</tspan></text>
		</g>
		<g>
			<path style="fill:#FFFFFF;" d="M778.358,252.611l16.727,1.197l0.597,7.765l4.779-0.597v56.156v17.327h-65.117l2.987-65.121l4.183-0.594l0.6-29.276l2.389-0.594l24.494,0.594v7.172h8.362v5.972z"/>
			<text transform="matrix(1 0 0 1 756.6987 292.0405)"><tspan x="0" y="0" style="stroke:none;">Carter</tspan></text>
		</g>
		<g>
			<path style="fill:#FFFFFF;" d="M353.003,160.612h7.768l1.194,21.507l-0.599,0.595l-2.987,0.597l-31.062-21.507l-0.6,5.975l-16.727-0.594l-0.597,1.191l-7.768,0.6v7.169l-5.974,0.596l-10.753-0.596v-16.131l-17.324-7.17l0.597-27.479l4.779,1.193h2.388l1.197-8.96
				l17.323,0.599l-0.597-7.765l17.922,0.595l28.678-0.595l-5.38,8.362l10.756,4.18l1.791,1.795h6.571l-0.597,5.975l8.363,1.191l0.599,1.795l-0.599,4.18l-8.363,1.195v21.507z"/>
			<text transform="matrix(1 0 0 1 293.2456 145.0781)"><tspan x="0" y="0" style="stroke:none;">Cascade</tspan></text>
		</g>
		<g>
			<path style="fill:#FFFFFF;" d="M311.186,75.181l-0.597,11.353l0.597,24.492l28.678-0.595l-5.38,8.362l10.756,4.18l1.791,1.795h6.571l-0.597,5.975l8.363,1.191l0.599,1.795h28.079h2.389l21.509-10.757l0.597-14.336l8.962,0.599l10.153-2.988l0.6-32.259
				l-11.95,0.598v-7.769l-7.17,0.598l-0.595-7.765h-52.573v7.167l-8.962,0.598h-4.18v6.572l-37.638,1.193z"/>
			<text transform="matrix(1 0 0 1 357.0098 97.2866)"><tspan x="0" y="0" style="stroke:none;">Chouteau</tspan></text>
		</g>
		<g>
			<path style="fill:#FFFFFF;" d="M663.655,180.924l-3.583,87.819l78.259,0.594l4.183-0.594l0.6-29.276l2.389-0.594l-1.197-28.08l11.95-0.597v-10.753h-8.965l-0.594,3.585l-7.768,0.594l-0.598,1.197l-16.129,1.197l-0.595-2.394h-13.744l-10.155-21.503l-14.336-1.195
				l-0.6-2.988h-16.729v1.792l0.6,1.794l-2.987-0.598z"/>
			<text transform="matrix(1 0 0 1 687.1606 231.7021)"><tspan x="0" y="0" style="stroke:none;">Custer</tspan></text>
		</g>
		<g>
			<path style="fill:#FFFFFF;" d="M732.955,0.504l1.791,29.276h3.585v7.167l-54.364,0.598l-14.936-0.598V14.845h-8.364V8.273l2.391-1.196l-0.597-6.573h70.494z"/>
			<text transform="matrix(1 0 0 1 685.2124 19.0249)"><tspan x="0" y="0" style="stroke:none;">Daniels</tspan></text>
		</g>
		<g>
			<path style="fill:#FFFFFF;" d="M721.607,101.469h-7.771l-0.594,21.503h-2.988v29.276h5.376l0.598,17.324l8.364-0.597v4.777l7.765,0.599l3.586,1.794l-0.6,2.987h28.679l7.168-0.597l12.544-14.936l-1.196-12.545l-5.377-13.144h-7.165v-14.337h-4.782l-0.597-7.168
				h-25.092l-0.597-7.169h-16.727l-0.595-7.766z"/>
			<text transform="matrix(1 0 0 1 726.2397 145.0781)"><tspan x="0" y="0" style="stroke:none;">Dawson</tspan></text>
		</g>
		<g style="stroke:none;">
			<path style="fill:#FFFFFF;stroke:#000000;" d="M185.729,234.09l0.599,14.936l-16.726,10.157l-1.195,0.598l11.349,13.142l1.196-4.778l6.573-3.584l7.764-2.988l4.184,2.988l34.05-26.287l-2.39-5.375l2.988-2.391l-32.259,0.597l0.598,2.388l-16.73,0.597z"/>
			<text transform="matrix(1 0 0 1 189.2305 245.4404)"><tspan x="0" y="0">Deer</tspan><tspan x="-3.066" y="12">Lodge</tspan></text>
		</g>
		<g>
			<path style="fill:#FFFFFF;" d="M795.084,253.808l0.597,7.765l4.779-0.597v-63.327l-19.115-0.594l-4.185-3.585h-13.139l0.595,2.389l-8.962,0.598l0.6,2.987v10.753l-11.95,0.597l1.197,28.08l24.494,0.594v7.172h8.362v5.972l16.727,1.197z"/>
			<text transform="matrix(1 0 0 1 761.7534 225.7285)"><tspan x="0" y="0" style="stroke:none;">Fallon</tspan></text>
		</g>
		<g>
			<path style="fill:#FFFFFF;" d="M422.303,189.884l-4.779-10.753l3.583-2.987l-0.595-22.704l-29.871-14.933l-0.597-4.778h2.389l21.509-10.757l0.597-14.336l8.962,0.599l10.153-2.988l7.17,1.196l4.18-0.597l7.768-5.376h21.509l0.595,2.388l-1.791,1.194l1.196,1.794
				h2.985h2.392l4.773,2.987l0.601,2.987l30.47,7.167l0.595,21.507l-26.285,4.181l-0.595,14.338l6.568,0.598l-0.595,28.077h-24.494l-25.691,0.599l-0.597,5.375h-21.506l-0.598-4.778z"/>
			<text transform="matrix(1 0 0 1 439.5981 146.8696)"><tspan x="0" y="0" style="stroke:none;">Fergus</tspan></text>
		</g>
		<g>
			<path style="fill:#FFFFFF;" d="M192.9,108.547l3.585,3.585l-1.794,3.585v3.585h-21.507l-10.153-0.599v-2.987l1.79-4.184l-4.18-5.974l-0.597-5.375l1.191-4.184l-15.53-15.531h-9.559l-0.597,8.365h-30.469l0.599,6.572l0.597,7.765l-7.768,0.597l-1.193-7.17
				l-25.093,1.197v-11.35l-1.791-1.197l-0.597-18.521h11.35l-2.39-35.843l16.725-0.598L88.953,1.613l43.609,0.597l4.78,14.935l13.144-2.388l6.571,11.349l-3.585,8.962l19.713,5.375l-1.193,7.17l9.56,7.168l-3.586,3.585l3.586,1.196l23.296,15.53l2.988,15.534
				l-2.39-1.193L192.9,108.547z"/>
			<text transform="matrix(1 0 0 1 111.3135 59.5615)"><tspan x="0" y="0" style="stroke:none;">Flathead</tspan></text>
		</g>
		<g>
			<path style="fill:#FFFFFF;" d="M330.9,378.067v-46.002l-1.194-0.596v-2.985l1.194-0.598l4.182,1.789l-0.6-12.544h1.197l0.597-10.154l7.168-0.599v-14.935h2.987v-5.376l4.182-0.597v-44.806l0.599-0.598v-4.181h-17.921h-7.17l-0.599,1.194h-9.555l-22.704,28.679
				l-1.792,1.789l-7.17,1.197l0.599,1.193l17.324,11.948l11.948,0.597l-2.39,72.287l19.118,23.299z"/>
			<text transform="matrix(1 0 0 1 309.7651 271.731)"><tspan x="0" y="0" style="stroke:none;">Gallatin</tspan></text>
		</g>
		<g>
			<path style="fill:#FFFFFF;" d="M575.836,109.833l-1.194,5.376l-16.132-1.792l-16.127,16.727l1.788,49.584l1.2,1.196l120.671-1.196v-1.792v-25.687l-5.971-0.598l-0.597-14.337l-7.768,0.596l-0.6-14.937h2.394V94.299l-5.974-0.597v-6.573h-4.782h-4.779
				l-26.883,19.717l-35.247,2.987z"/>
			<text transform="matrix(1 0 0 1 588.9565 142.313)"><tspan x="0" y="0" style="stroke:none;">Garfield</tspan></text>
		</g>
		<g>
			<path style="fill:#FFFFFF;" d="M257.419,1.701l-0.599,8.962l1.196,22.7l0.598,13.143h-1.195l-25.09-0.596l0.596,14.335l-51.374-0.594l-3.586-1.197l3.586-3.585l-9.56-7.167l1.193-7.17l-19.713-5.375l3.585-8.962l-6.571-11.35l-13.144,2.389l-4.78-14.936
				l124.858-0.597z"/>
			<text transform="matrix(1 0 0 1 194.3862 27.9868)"><tspan x="0" y="0" style="stroke:none;">Glacier</tspan></text>
		</g>
		<g style="stroke:none;">
			<path style="fill:#FFFFFF;stroke:#000000;" d="M485.63,228.716l-15.535-28.079l0.6-11.949l-25.691,0.599l-0.597,5.375l-0.597,38.831h-17.321l0.594,7.17h3.583v7.17l11.95,0.595l-0.598-7.765h33.453h9.56l0.6-11.947z"/>
			<text transform="matrix(1 0 0 1 446.2075 221.5449)"><tspan x="0" y="0">Golden</tspan><tspan x="2.876" y="12">Valley</tspan></text>
		</g>
		<g>
			<path style="fill:#FFFFFF;" d="M177.965,183.311h7.167h2.393l1.79,2.988l2.988,2.988v2.388l2.389,4.183l5.974-5.375l1.197,0.597v40.025l0.598,2.388l-16.73,0.597l0.599,14.936l-16.726,10.157l-1.195,0.598l-4.779-2.391l-3.584-3.583l-10.157-54.365l1.195-1.794
				l13.739,1.197l0.6-7.766l12.544-7.769z"/>
			<text transform="matrix(1 0 0 1 160.3726 221.5449)"><tspan x="0" y="0" style="stroke:none;">Granite</tspan></text>
		</g>
		<g>
			<path style="fill:#FFFFFF;" d="M354.2,1.701h84.236l-1.197,40.027l2.389-0.597l-5.374,32.857l-11.95,0.598v-7.769l-7.17,0.598l-0.595-7.765h-52.573v7.167l-8.962,0.598L354.2,1.701z"/>
			<text transform="matrix(1 0 0 1 389.6743 35.7544)"><tspan x="0" y="0" style="stroke:none;">Hill</tspan></text>
		</g>
		<g>
			<path style="fill:#FFFFFF;" d="M244.278,265.158l15.53,7.765l4.781-7.166l11.95-1.796l7.764,4.782l7.17-1.197l1.792-1.789l0.597-17.329l-8.96,0.597l0.597-44.207h-17.324v2.987l-2.391,2.39l-6.571,0.597l-1.792,1.196l1.195,2.39l-2.388,1.791l-3.585,1.794
				l-3.585,0.595l-14.936,11.95l-2.988,2.391l2.39,5.375l2.987-0.598l7.769,27.482z"/>
			<text transform="matrix(1 0 0 1 240.5273 243.6494)"><tspan x="0" y="0" style="stroke:none;">Jefferson</tspan></text>
		</g>
		<g style="stroke:none;">
			<path style="fill:#FFFFFF;stroke:#000000;" d="M422.303,189.884l0.598,4.778h-5.377l-28.676-1.792l-3.585,2.391l-2.389,1.195l-1.791,1.193l-11.947-2.388l0.597-3.585l-1.196-1.193l-4.184,1.79l-2.388-2.388l1.197-1.792l-1.795-2.988v-2.391l0.599-0.595
				l-1.194-21.507h-7.768v-21.507l8.363-1.195l0.599-4.18h28.079l0.597,4.778l29.871,14.933l0.595,22.704l-3.583,2.987l4.779,10.753z"/>
			<text transform="matrix(1 0 0 1 375.5054 164.7915)"><tspan x="0" y="0">Judith</tspan><tspan x="0.835" y="12">Basin</tspan></text>
		</g>
		<g>
			<path style="fill:#FFFFFF;" d="M136.147,80.56l-0.597,8.365h-30.469l0.599,6.571l0.597,7.765l-7.768,0.597l1.197,14.936h14.335l2.988,1.791l-4.779,8.962h5.376l-1.196,10.755h8.366l1.193,16.726l16.729,1.195v-2.985l7.168-0.6v-8.365l-9.56-27.479h14.341h8.363
				v-2.986l1.79-4.184l-4.18-5.975l-0.597-5.374l1.191-4.185l-15.53-15.53h-9.559z"/>
			<text transform="matrix(1 0 0 1 120.5254 111.0254)"><tspan x="0" y="0" style="stroke:none;">Lake</tspan></text>
		</g>
		<g style="stroke:none;">
			<path style="fill:#FFFFFF;stroke:#000000;" d="M194.691,119.393v-3.585l1.794-3.585l-3.585-3.585l12.546-19.115l1.791,2.985l0.599,4.18l2.988,5.376l-1.795,3.585l1.195,5.975l5.976,5.375l2.986,1.794l4.779-1.794h3.583l7.77-1.192l6.568,3.585l3.585,3.58
				l3.585,0.6l1.791,2.985l4.183-0.597l9.559-0.596h3.585l-0.597,27.479l17.324,7.17v16.131l10.753,0.596l1.194,2.391l-2.389,1.792l4.18,2.985l3.585,0.599l3.585,2.988l-2.987,1.193l-2.388-1.193l-2.987-0.6l-3.586,2.391l0.598,14.933l-8.961,0.6h-17.324v2.987
				l-2.391,2.39l-6.571,0.597l-1.792,1.196l1.195,2.39l-2.388,1.791l-3.585,1.794l-3.585,0.595l-0.599-2.988l-13.14-32.856l-17.923,0.597v-28.074l-16.729-0.6v-26.284l-5.974-8.96z"/>
			<text transform="matrix(1 0 0 1 229.1025 152.2485)"><tspan x="0" y="0">Lewis</tspan><tspan x="4.441" y="12">and</tspan><tspan x="1.116" y="24">Clark</tspan></text>
		</g>
		<g>
			<path style="fill:#FFFFFF;" d="M354.2,1.701l-1.197,65.715h-4.18v6.572l-37.638,1.193l-0.597-7.765l5.379-0.598l2.388-20.908l1.193-35.847l0.597-8.362H354.2z"/>
			<text transform="matrix(1 0 0 1 320.0752 41.728)"><tspan x="0" y="0" style="stroke:none;">Liberty</tspan></text>
		</g>
		<g>
			<path style="fill:#FFFFFF;" d="M60.873,84.74l-2.388,8.363l-22.106,0.599L26.223,66.219l-5.378-3.581l-1.79,4.18L6.508,71.599l-5.974-4.781l0.597-22.102V2.298l87.821-0.597l6.568,28.674l-16.725,0.6l2.39,35.843h-11.35l0.597,18.519l-9.559-0.597z"/>
			<text transform="matrix(1 0 0 1 27.1064 40.5322)"><tspan x="0" y="0" style="stroke:none;">Lincoln</tspan></text>
		</g>
		<g>
			<g>
				<path style="fill:#FFFFFF;" d="M723.99,76.378v18.519h-2.982l0.6,6.572h-7.771l-0.594,21.503h-2.988v29.276h-26.288l-0.595,7.765h-8.962v-7.17l-8.367-0.595l-5.971-0.598l-0.597-14.337l-7.768,0.596l-0.6-14.937h2.394V94.299l-5.974-0.597v-6.573h-4.782
					l1.794-8.959l37.038,4.183l29.271-6.572l3.585-3.586v4.782l9.556-0.597z"/>
			</g>
			<text transform="matrix(1 0 0 1 666.5444 111.6235)"><tspan x="0" y="0" style="stroke:none;">McCone</tspan></text>
		</g>
		<g>
			<path style="fill:#FFFFFF;" d="M302.224,281.884l11.948,0.597l-2.39,72.287l-5.974,2.986l-0.597,1.193h-19.714v-4.777l-18.52-1.196v-2.39l-7.17-0.598l-1.791-14.935l-8.363-1.193l-1.196-5.375h-7.167l-0.597-21.507l-2.391-8.366l-7.17,1.794l-5.974-5.974
				l0.598-10.158l12.546-12.542l21.504,1.192l4.781-7.166l11.95-1.796l7.764,4.782l0.599,1.193l17.324,11.948z"/>
			<text transform="matrix(1 0 0 1 258.2363 309.3652)"><tspan x="0" y="0" style="stroke:none;">Madison</tspan></text>
		</g>
		<g>
			<path style="fill:#FFFFFF;" d="M332.095,216.767l-24.494-28.078l-1.792-1.193l-3.585-2.988l-3.585-0.599l-4.18-2.985l2.389-1.792l-1.194-2.391l5.974-0.596v-7.169l7.768-0.6l0.597-1.191l16.727,0.594l0.6-5.975l31.062,21.507l2.987-0.597v2.391l1.795,2.988
				l-1.197,1.792l2.388,2.388l4.184-1.79l1.196,1.193l-0.597,3.585l11.947,2.388l1.791-1.193l2.389-1.195v38.232l-0.595,3.585h-8.365l-0.597-1.792l-24.494,0.597h-17.921l-0.6-4.182l-2.986-1.194l-1.197-3.583l1.794-2.394l2.389-1.79l-0.597-5.975z"/>
			<text transform="matrix(1 0 0 1 328.4927 204.8193)"><tspan x="0" y="0" style="stroke:none;">Meagher</tspan></text>
		</g>
		<g>
			<path style="fill:#FFFFFF;" d="M102.093,168.975l-1.79,22.104l-7.17-0.597l-5.376,3.585H84.77l-11.351-19.717l-24.496-26.284L21.444,133.13l5.376-2.387v-1.796l10.156-1.792l1.792,2.989l2.394-1.198l32.258,9.561v4.183l11.351,4.18l6.571,3.585l0.597,5.376
				l2.391,0.597l15.532,12.547h-7.769z"/>
			<text transform="matrix(1 0 0 1 58.8174 158.8169)"><tspan x="0" y="0" style="stroke:none;">Mineral</tspan></text>
		</g>
		<g>
			<path style="fill:#FFFFFF;" d="M112.848,197.055l2.987,1.791h12.544l0.597-1.791l22.105,0.594l13.739,1.197l0.6-7.766l12.544-7.769h7.167l-1.194-29.271h-10.754v-34.647l-10.153-0.6h-8.363h-14.341l9.56,27.479v8.365l-7.168,0.6v2.985l-16.729-1.195
				l-10.752-0.599l-0.598-3.585l-20.311-7.168l-2.988,1.792l-6.571-0.597l6.571,3.585l0.597,5.376l2.391,0.597l15.532,12.547h-7.769l-1.79,22.104l-7.17-0.597l1.794,5.375l3.583,4.185l14.339-2.988z"/>
			<text transform="matrix(1 0 0 1 124.7798 177.9355)"><tspan x="0" y="0" style="stroke:none;">Missoula</tspan></text>
		</g>
		<g>
			<path style="fill:#FFFFFF;" d="M551.342,209.599l0.6,1.194v8.363l-41.817,13.743v7.765h-25.094l0.6-11.947l-15.535-28.079l0.6-11.949h24.494l53.765-0.596v1.194l2.389,20.312z"/>
			<text transform="matrix(1 0 0 1 485.7925 212.5845)"><tspan x="0" y="0" style="stroke:none;">Musselshell</tspan></text>
		</g>
		<g>
			<path style="fill:#FFFFFF;" d="M335.083,329.676l-0.6-12.544h1.197l0.597-10.154l7.168-0.599v-14.935h2.987v-5.376l4.182-0.597v-44.806l0.599-0.598v-4.181l24.494-0.597l0.597,1.792h8.365l0.595,2.987l-1.193,0.598l-0.599,28.674l6.573,0.599v34.651l-1.197,2.39
				v13.737h11.35h16.729v14.936h-12.545l1.194-2.986l-1.794-1.194l-1.791-0.597v1.791h-51.378l-2.387-2.391l-2.39,1.196l0.595,1.791l-11.349-3.585z"/>
			<text transform="matrix(1 0 0 1 357.6582 302.7935)"><tspan x="0" y="0" style="stroke:none;">Park</tspan></text>
		</g>
		<g>
			<path style="fill:#FFFFFF;" d="M544.171,179.728l1.2,1.196l3.582,7.169l-53.765,0.596l0.595-28.077l-6.568-0.598l0.595-14.338l26.285-4.181l-0.595-21.507l1.191-1.194h22.703l2.988,11.351l1.788,49.584z"/>
			<text transform="matrix(1 0 0 1 495.6978 158.2222)"><tspan x="0" y="0" style="stroke:none;">Petroleum</tspan></text>
		</g>
		<g>
			<path style="fill:#FFFFFF;" d="M574.642,115.209l-16.132-1.792l-16.127,16.727l-2.988-11.351h-22.703l-1.191,1.194l-30.47-7.167l-0.601-2.987l-4.773-2.987h-2.392l0.595-14.936l16.731-1.197l1.792-5.376l2.985,0.599l8.362-0.599l13.74-84.234l69.897-0.599
				l-1.194,41.224l-3.585-1.196l-1.194,3.585l-2.988,0.598l0.598,7.168l2.391,0.597l1.194,7.17h-8.364l-2.389,50.181l-1.194,5.376z"/>
			<text transform="matrix(1 0 0 1 529.5317 66.2192)"><tspan x="0" y="0" style="stroke:none;">Phillips</tspan></text>
		</g>
		<g>
			<path style="fill:#FFFFFF;" d="M204.847,75.181l-23.296-15.53l51.374,0.594L232.33,45.91l25.09,0.596h1.195l13.142,2.987v3.585l13.144,0.598l0.597,2.987h7.766l0.597,11.35l16.728-0.597l0.597,7.765l-0.597,11.353h-37.635v-4.781h-4.779l-0.597-2.987
				l-8.365-0.597v-3.583h-29.273l-25.091,0.595z"/>
			<text transform="matrix(1 0 0 1 240.3081 65.625)"><tspan x="0" y="0" style="stroke:none;">Pondera</tspan></text>
		</g>
		<g>
			<path style="fill:#FFFFFF;" d="M731.76,334.458l-62.13,0.595l-14.338-0.595l-0.598-16.132l5.377-49.583l78.259,0.594l-2.987,65.121h-3.583z"/>
			<text transform="matrix(1 0 0 1 668.8921 303.3916)"><tspan x="0" y="0" style="stroke:none;">Powder River</tspan></text>
		</g>
		<g>
			<path style="fill:#FFFFFF;" d="M234.121,230.508l-32.259,0.597V191.08l-1.197-0.597l-5.974,5.375l-2.389-4.183v-2.388l-2.988-2.988l-1.79-2.988h-2.393l-1.194-29.271h-10.754v-34.647h21.507l5.974,8.96v26.284l16.729,0.6v28.074l17.923-0.597l13.14,32.856
				l0.599,2.988l-14.936,11.95z"/>
			<text transform="matrix(1 0 0 1 209.2358 208.4048)"><tspan x="0" y="0" style="stroke:none;">Powell</tspan></text>
		</g>
		<g>
			<path style="fill:#FFFFFF;" d="M707.863,203.623h13.744l0.595,2.394l16.129-1.197l0.598-1.197l7.768-0.594l0.594-3.585h8.965l-0.6-2.987l8.962-0.598l-0.595-2.389v-14.338h-28.679l0.6-2.987l-3.586-1.794l-7.765-0.599v-4.777l-8.364,0.597l-0.598-17.324h-5.376
				h-26.288l-0.595,7.765h-8.962v-7.17l-8.367-0.595v25.687h16.729l0.6,2.988l14.336,1.195l10.155,21.503z"/>
			<text transform="matrix(1 0 0 1 697.5972 180.9238)"><tspan x="0" y="0" style="stroke:none;">Prairie</tspan></text>
		</g>
		<g>
			<path style="fill:#FFFFFF;" d="M160.044,253.808l-10.157-54.365l1.195-1.794l-22.105-0.594l-0.597,1.791h-12.544l-7.768,39.428l-4.18,0.599l8.96,23.897l-10.157,4.777l1.792,13.738l-4.777,2.394l1.79,5.375h4.781l9.559,8.363l26.287-20.312l26.286-17.324
				l-4.779-2.391l-3.584-3.583z"/>
			<text transform="matrix(1 0 0 1 114.5713 248.4287)"><tspan x="0" y="0" style="stroke:none;">Ravalli</tspan></text>
		</g>
		<g>
			<path style="fill:#FFFFFF;" d="M799.866,85.337l-56.158-13.144l-19.115,3.586l-0.603,0.599v18.519h-2.982l0.6,6.572l0.595,7.766h16.727l0.597,7.169h25.092l0.597,7.168h4.782v14.337h7.165l17.924-0.596l0.597-2.987l4.185,0.596V85.337z"/>
			<text transform="matrix(1 0 0 1 745.7573 99.6753)"><tspan x="0" y="0" style="stroke:none;">Richland</tspan></text>
		</g>
		<g>
			<path style="fill:#FFFFFF;" d="M723.99,76.378l-9.556,0.597v-4.782l-3.585,3.586l-29.271,6.572l2.389-32.859V37.545l54.364-0.598h15.533l-0.598,6.572h8.959l-0.597,7.765h38.832l-0.595,34.053l-56.158-13.144l-19.115,3.586l-0.603,0.599z"/>
			<text transform="matrix(1 0 0 1 708.9292 60.2456)"><tspan x="0" y="0" style="stroke:none;">Roosevelt</tspan></text>
		</g>
		<g>
			<path style="fill:#FFFFFF;" d="M660.072,268.743l-5.377,49.583l-35.247,0.599l1.792-40.626l-11.351-0.596v-8.365h2.985v-2.987l-4.18-0.593v-2.988l-0.597-22.704l-3.585-0.599l0.597-14.337l-2.389,0.599v-7.17h-8.367l-1.788-7.168h-20.912h-16.129l-1.792-1.194
				l-1.791,0.597l-0.6-1.194l-2.389-20.312v-1.194l-3.582-7.169l120.671-1.196l0.6,1.794l-2.987-0.598l-3.583,87.819z"/>
			<text transform="matrix(1 0 0 1 603.6157 202.4297)"><tspan x="0" y="0" style="stroke:none;">Rosebud</tspan></text>
		</g>
		<g>
			<path style="fill:#FFFFFF;" d="M58.485,93.103l-22.106,0.599L26.223,66.219l-5.378-3.581l-1.79,4.18L6.508,71.599l-5.974-4.781l0.597,18.519l0.599,3.588l22.702,28.672l-3.587,5.975l5.975,5.374l10.156-1.792l1.792,2.989l2.394-1.198l32.258,9.561v4.183
				l11.351,4.18l6.571,0.597l2.988-1.792l20.311,7.168l0.598,3.585l10.752,0.599l-1.193-16.726h-8.366l1.196-10.755h-5.376l4.779-8.962l-2.988-1.791H99.706l-1.197-14.936l-1.193-7.17l-25.093,1.197v-11.35l-1.791-1.197l-9.559-0.597l-2.388,8.363z"/>
			<text transform="matrix(1 0 0 1 47.0298 116.999)"><tspan x="0" y="0" style="stroke:none;">Sanders</tspan></text>
		</g>
		<g>
			<path style="fill:#FFFFFF;" d="M799.266,0.504l0.6,30.471l0.595,20.309h-38.832l0.597-7.765h-8.959l0.598-6.572h-15.533v-7.167h-3.585l-1.791-29.276h66.312z"/>
			<text transform="matrix(1 0 0 1 749.3813 23.8071)"><tspan x="0" y="0" style="stroke:none;">Sheridan</tspan></text>
		</g>
		<g style="stroke:none;">
			<path style="fill:#FFFFFF;stroke:#000000;" d="M244.278,265.158l-7.769-27.482l-2.987,0.598l-34.05,26.287l4.778,4.183l15.533,4.18l1.791,5.974l4.184,5.376l12.546-12.542l21.504,1.192l-15.53-7.765z"/>
			<text transform="matrix(1 0 0 1 213.2549 258.5845)"><tspan x="0" y="0">Silver</tspan><tspan x="2.776" y="12">Bow</tspan></text>
		</g>
		<g>
			<path style="fill:#FFFFFF;" d="M430.666,313.549l-5.376,0.595l-0.598,6.571h-7.765h-16.729v-14.336h7.768l0.6-14.935h7.765l-0.6-3.585h8.962l0.598-3.585h6.573l0.597-14.936h1.194v-6.568h2.389v-7.768l5.976,0.597l0.598-7.17l-0.598-7.765h33.453l1.194,37.039
				l2.991,5.976l-17.326,2.389v4.779l-4.78,0.597v5.376h-10.753l-2.987,1.194l-4.183,1.791l-2.985,1.794l-4.779,5.976l-1.197,5.974z"/>
			<text transform="matrix(1 0 0 1 433.6821 276.5078)"><tspan x="0" y="0" style="stroke:none;">Stillwater</tspan></text>
		</g>
		<g style="stroke:none;">
			<path style="fill:#FFFFFF;stroke:#000000;" d="M442.616,248.429l-0.598,7.17l-5.976-0.597v7.768h-2.389v6.568h-1.194l-0.597,14.936h-6.573l-0.598,3.585h-8.962l0.6,3.585h-7.765l-0.6,14.935h-7.768v14.336h-11.35v-13.737l1.197-2.39v-34.651l-6.573-0.599
				l0.599-28.674l1.193-0.598l-0.595-2.987l0.595-3.585h41.226l0.594,7.17h3.583v7.17l11.95,0.595z"/>
			<text transform="matrix(1 0 0 1 397.0571 257.9873)"><tspan x="0" y="0">Sweet</tspan><tspan x="0.562" y="12">Grass</tspan></text>
		</g>
		<g>
			<path style="fill:#FFFFFF;" d="M204.847,75.181l2.988,15.532l-2.39-1.191l1.791,2.985l0.599,4.18l2.988,5.376l-1.795,3.585l1.195,5.975l5.976,5.375l2.986,1.794l4.779-1.794h3.583l7.77-1.192l6.568,3.585l3.585,3.58l3.585,0.6l1.791,2.985l4.183-0.597
				l9.559-0.596h3.585l4.779,1.193h2.388l1.197-8.96l17.323,0.599l-0.597-7.765l17.922,0.595l-0.597-24.492h-37.635v-4.781h-4.779l-0.597-2.987l-8.365-0.597v-3.583h-29.273l-25.091,0.595z"/>
			<text transform="matrix(1 0 0 1 241.6016 101.4692)"><tspan x="0" y="0" style="stroke:none;">Teton</tspan></text>
		</g>
		<g>
			<path style="fill:#FFFFFF;" d="M320.146,1.701l-0.597,8.362l-1.193,35.847l-2.388,20.908l-5.379,0.598l-16.728,0.597l-0.597-11.35h-7.766l-0.597-2.987l-13.144-0.598v-3.585l-13.142-2.987l-0.598-13.143l-1.196-22.7l0.599-8.962h62.727z"/>
			<text transform="matrix(1 0 0 1 278.3237 30.9751)"><tspan x="0" y="0" style="stroke:none;">Toole</tspan></text>
		</g>
		<g>
			<path style="fill:#FFFFFF;" d="M576.433,255.002l25.092,7.768h7.17l-0.597-22.704l-3.585-0.599l0.597-14.337l-2.389,0.599v-7.17h-8.367l-1.788-7.168h-20.912h-16.129l-0.595,1.792l8.359,8.962l0.6,1.792l11.351,13.739l-3.586,6.573l-1.791,2.987h6.57v7.766z"/>
			<text transform="matrix(1 0 0 1 566.1714 233.4932)"><tspan x="0" y="0" style="stroke:none;">Treasure</tspan></text>
		</g>
		<g>
			<path style="fill:#FFFFFF;" d="M575.836,109.833l35.247-2.987l26.883-19.717h4.779l1.794-8.959l37.038,4.183l2.389-32.859V37.545l-14.936-0.598V14.845h-8.364V8.273l2.391-1.196l-0.597-6.573h-71.092l-1.194,41.224l-3.585-1.196l-1.194,3.585l-2.988,0.598
				l0.598,7.168l2.391,0.597l1.194,7.17h-8.364l-2.389,50.181z"/>
			<text transform="matrix(1 0 0 1 611.5776 60.2456)"><tspan x="0" y="0" style="stroke:none;">Valley</tspan></text>
		</g>
		<g>
			<path style="fill:#FFFFFF;" d="M417.524,194.662l-28.676-1.792l-3.585,2.391v38.232h41.226h17.321l0.597-38.831h-21.506h-5.377z"/>
			<text transform="matrix(1 0 0 1 390.6348 212.5845)"><tspan x="0" y="0" style="stroke:none;">Wheatland</tspan></text>
		</g>
		<g>
			<path style="fill:#FFFFFF;" d="M781.345,197.055l19.115,0.594v-57.947l-0.595-4.779l-4.185-0.596l-0.597,2.987l-17.924,0.596l5.377,13.144l1.196,12.545l-12.544,14.936l-7.168,0.597v14.338h13.139l4.185,3.585z"/>
			<text transform="matrix(1 0 0 1 765.271 186.2988)"><tspan x="0" y="0" style="stroke:none;">Wibaux</tspan></text>
		</g>
		<g>
			<path style="fill:#FFFFFF;" d="M534.616,260.376l-1.791,31.067l-39.43,4.778h-2.389l-0.6-4.181l-7.165-0.597v-2.988l1.789-2.985l-1.194-2.988l-4.18,1.197l-2.991-5.976l-1.194-37.039h9.56h25.094v-7.765l41.817-13.743v-8.363l1.791-0.597l1.792,1.194
				l-0.595,1.792l8.359,8.962l0.6,1.792l11.351,13.739l-3.586,6.573l-1.791,2.987l-10.756,0.598v4.777l-24.491,7.765z"/>
			<text transform="matrix(1 0 0 1 487.8022 256.1963)"><tspan x="0" y="0" style="stroke:none;">Yellowstone</tspan></text>
		</g>
		<g>
			<path style="fill:#FFFFFF;" d="M346.432,333.261l-0.595-1.791l2.39-1.196l2.387,2.391h51.378v-1.791l1.791,0.597l1.794,1.194l-1.194,2.986l-69.899,0.599l-0.594,30.468v11.351H330.9v-46.002l-1.194-0.596v-2.985l1.194-0.598l4.182,1.789l11.349,3.585z"/>
			<text transform="matrix(1 0 0 1 304.4272 333.2607)"><tspan x="0" y="0" style="stroke:none;">Yellowstone NP</tspan></text>
		</g>
	</g>
</svg>
