<?xml version="1.0" encoding="iso-8859-1"?>
<!DOCTYPE svg >

<svg  width="801.554pt" height="311.298pt" viewBox="0 0 801.554 311.298" xml:space="preserve">
	<g id="Layer_x0020_1" style="fill-rule:nonzero;clip-rule:nonzero;fill:#FFFFFF;stroke:#000000;stroke-miterlimit:4; font-family:'Arial'; font-size:10;">
		<g>
			<path d="M438.407,41.343h22.864l-0.815,36.746l2.448,3.269l0.816,4.895h-26.945l-0.817-5.712l2.449-39.197z"/>
			<text transform="matrix(1 0 0 1 430.0552 71.5591)"><tspan x="0" y="0" style="fill:#000000;stroke:none;">Alamance</tspan></text>
		</g>
		<g>
			<path d="M302.866,60.944l-13.883,0.813l-2.448,3.27l-13.881,1.632l-2.449,17.964l1.632,8.166l17.146-5.717l4.9,6.535l4.901-8.166l5.714-20.414l-1.632-4.082z"/>
			<text transform="matrix(1 0 0 1 264.02 73.1924)"><tspan x="0" y="0" style="fill:#000000;stroke:none;">Alexander</tspan></text>
		</g>
		<g>
			<path d="M312.663,4.6l-43.275-1.631l-0.818,2.449l8.983,11.431l-1.633,8.165l8.981-4.897h13.883v4.084l5.714-2.452l4.082-13.877l4.083-3.271z"/>
			<text transform="matrix(1 0 0 1 270.8052 11.7344)"><tspan x="0" y="0" style="fill:#000000;stroke:none;">Alleghany</tspan></text>
		</g>
		<g>
			<path d="M366.553,160.559l3.266-1.632l3.266,4.084l4.9,0.813l3.266-3.265l6.533,4.9v2.447l6.531,4.083l4.901-4.083l6.53,8.166l-1.633,4.899l4.084,4.083l0.815,9.799l-6.533,8.982h-37.561l1.634-43.278z"/>
			<text transform="matrix(1 0 0 1 373.6069 185.8716)"><tspan x="0" y="0" style="fill:#000000;stroke:none;">Anson</tspan></text>
		</g>
		<g>
			<path d="M269.387,2.969l-25.313-2.451l-5.719,4.9l0.818,8.984l-4.082,7.347l2.451,4.9l5.715,1.633l13.88,13.061l7.35-6.529l4.082,0.816v-8.165l4.084-3.266l3.265,0.813l1.633-8.165l-8.983-11.431l0.818-2.449z"/>
			<text transform="matrix(1 0 0 1 245.7417 20.9307)"><tspan x="0" y="0" style="fill:#000000;stroke:none;">Ashe</tspan></text>
		</g>
		<g>
			<path d="M228.561,55.227l-4.898-24.496l-5.717,8.981l-7.348,12.249l-5.715,4.083l2.448,12.247l-3.267,3.268l8.167,6.53l4.901-5.715l3.265-5.716l8.165,5.716l4.901-11.43l-4.901-5.717z"/>
			<text transform="matrix(1 0 0 1 206.29 63.3096)"><tspan x="0" y="0" style="fill:#000000;stroke:none;">Avery</tspan></text>
		</g>
		<g>
			<path d="M650.704,97.688l16.332,8.166l17.147-3.27h16.33l13.064,13.883v3.266l-4.899,0.816l-3.263,1.635l-4.902-3.27l-3.268,1.635l6.533,5.719l-0.813,2.446l1.631,5.718l-4.084,2.448l-4.9-4.082l-8.979-1.636l-1.636-4.895l-4.079,3.264l-13.066-5.718
				l-2.448,3.267l4.9,4.9l20.413,6.532v4.897h7.346l4.084,4.901l2.449,4.083l-21.229,5.715l-6.533-4.898l-7.348-7.348l-20.414-11.431l2.448-12.248l5.715-5.717l-4.079-3.266l-2.453-15.513z"/>
			<text transform="matrix(1 0 0 1 657.9331 116.3984)"><tspan x="0" y="0" style="fill:#000000;stroke:none;">Beaufort</tspan></text>
		</g>
		<g>
			<path d="M639.274,48.697v-4.082l8.98-4.902l4.902,1.63l40.008-0.813l-2.446,3.266l-0.817,4.9l1.63,8.979l4.9,10.616l-3.267,2.45l-0.815,5.715l-4.085,5.715l-5.712-1.631l-1.633,6.531l-3.267,1.634l-2.453-9.8l-13.062,4.084l2.449-7.348l-14.696-0.818
				l-2.452-8.165l-9.796-5.714l1.631-3.269l6.535-1.631l-6.535-7.348z"/>
			<text transform="matrix(1 0 0 1 653.9741 64.208)"><tspan x="0" y="0" style="fill:#000000;stroke:none;">Bertie</tspan></text>
		</g>
		<g>
			<path d="M494.75,200.568l7.348-0.813l29.398-0.818l22.042,33.479v4.896l7.346,5.718l-6.527,6.53l-8.166,4.085l-4.9,0.816l-24.495-10.613h-14.697l-3.266-2.454l2.448-2.447v-6.53l4.082-11.434l-10.612-20.414z"/>
			<text transform="matrix(1 0 0 1 511.0259 228.3335)"><tspan x="0" y="0" style="fill:#000000;stroke:none;">Bladen</tspan></text>
		</g>
		<g>
			<path d="M573.134,256.911l-8.979-3.267l-9.799,17.147l-9.8,1.633l-4.084,6.532l-7.349-3.266l-4.081,2.448l-0.818,9.799l-7.351,5.717l-1.628,8.978l6.53,8.166h8.163l10.617-6.53l3.267,3.267l9.799-2.448l14.696,3.266l8.169-9.8l1.631-12.25l-0.818-8.163
				l-4.896-18.78l-3.27-2.448z"/>
			<text transform="matrix(1 0 0 1 531.5737 290.3862)"><tspan x="0" y="0" style="fill:#000000;stroke:none;">Brunswick</tspan></text>
		</g>
		<g>
			<path d="M186.101,101.771l-6.531-8.165v-4.083l-7.348-2.452l-34.296,17.147l-6.53,1.636l1.632,4.082l4.898,0.813l3.267,8.166l-2.449,11.436l4.899,4.897l3.264-4.897l9.798,3.265l17.148-5.717l13.063,0.816l5.717-6.53l-8.981-8.167l0.817-8.982l1.631-3.264z"/>
			<text transform="matrix(1 0 0 1 144.2344 109.1177)"><tspan x="0" y="0" style="fill:#000000;stroke:none;">Buncombe</tspan></text>
		</g>
		<g>
			<path d="M228.561,72.375l-8.165-5.716l-3.265,5.716l1.63,4.082l-5.713,13.881l10.614,9.799l3.266,15.514l8.165-4.084l4.082,4.084l14.702,1.633l0.813-1.633l14.699-20.414l-17.964-2.448l-5.713-6.536l-8.166-3.264l-8.983-10.615z"/>
			<text transform="matrix(1 0 0 1 222.8472 96.0547)"><tspan x="0" y="0" style="fill:#000000;stroke:none;">Burke</tspan></text>
		</g>
		<g>
			<path d="M322.462,124.632h5.713h38.378l-20.413,36.743l-4.082-0.816l-9.802-7.348l-0.813-9.801l-5.718-5.712l-3.265-13.066z"/>
			<text transform="matrix(1 0 0 1 322.5264 135.8462)"><tspan x="0" y="0" style="fill:#000000;stroke:none;">Cabarrus</tspan></text>
		</g>
		<g>
			<path d="M272.654,66.658l-7.348-6.531l-13.066-5.716l-23.679,0.816l4.901,5.717l-4.901,11.43l8.983,10.615l8.166,3.264l5.713,6.536l17.964,2.448l2.45-2.448l-1.632-8.166l2.449-17.964z"/>
			<text transform="matrix(1 0 0 1 230.9785 75.8599)"><tspan x="0" y="0" style="fill:#000000;stroke:none;">Caldwell</tspan></text>
		</g>
		<g>
			<path d="M658.054,200.568l-3.274,7.486l3.274,0.68l3.267,9.8l16.332-5.719l16.33,0.819l2.448-2.449l-4.9-1.633l1.634-4.084h4.899v4.9l2.449,1.635l2.453-0.817l0.813-5.717l3.27,0.817l-0.818,5.717l3.267,1.632l4.081-2.449l0.819-4.083l4.081-3.265l2.448-3.269
				l1.634-4.897h4.084l4.082-3.269l-1.633-3.264l4.081-1.63l-3.266-8.167l-4.9,8.979h-7.346l4.082-5.713l-2.448-2.451l0.813-4.897h-4.082l-1.63,5.713h-6.534l1.634,8.984h-2.448l-3.27-5.719l-4.084,0.818l1.636,6.534h-3.267l0.821,4.082l-8.167,4.084l-32.664,0.813z
				"/>
			<text transform="matrix(1 0 0 1 656.3257 208.7339)"><tspan x="0" y="0" style="fill:#000000;stroke:none;">Carteret</tspan></text>
		</g>
		<g>
			<path d="M474.337,6.235l-8.982-0.817L440.86,6.235l-2.453,35.108h22.864h9.799l3.268-35.108z"/>
			<text transform="matrix(1 0 0 1 438.3481 27.4663)"><tspan x="0" y="0" style="fill:#000000;stroke:none;">Caswell</tspan></text>
		</g>
		<g>
			<path d="M254.688,115.651l14.699-20.414l2.45-2.448l17.146-5.717l4.9,6.535l16.331,18.778l-2.451,8.165l-53.074-4.898z"/>
			<text transform="matrix(1 0 0 1 262.6631 110.1519)"><tspan x="0" y="0" style="fill:#000000;stroke:none;">Catawba</tspan></text>
		</g>
		<g>
			<path d="M493.117,115.651l-6.532-3.266l7.349-26.944l-10.618-0.818l-15.512-0.818l-4.899-2.446l0.816,4.895h-26.945l0.818,35.931l17.145,1.63l3.267-4.9l3.267,1.635l8.984-5.716l5.712-1.632l4.085,2.45l2.45,4.898l5.712,2.447l4.902-7.346z"/>
			<text transform="matrix(1 0 0 1 445.0669 105.854)"><tspan x="0" y="0" style="fill:#000000;stroke:none;">Chatham</tspan></text>
		</g>
		<g>
			<path d="M55.455,153.211l-4.899,1.635l-2.449-1.635l-17.149,5.716l-3.264-9.799l-9.799,5.718l-6.532,0.813l-4.083-3.264l-4.082,6.533L0.75,183.423v0.814l14.696,0.818h13.066l13.878-17.961l11.434-1.635l4.083-9.801l-2.453-2.447z"/>
			<text transform="matrix(1 0 0 1 0 169.542)"><tspan x="0" y="0" style="fill:#000000;stroke:none;">Cherokee</tspan></text>
		</g>
		<g>
			<path d="M707.863,27.466l-11.432,5.713l2.454,4.082l-4.085,5.717v8.166l3.264,11.43h4.084l9.795,3.264l5.72-2.446v-5.717l-11.433-3.265v-13.88l1.633-13.064z"/>
			<text transform="matrix(1 0 0 1 692.7856 62.5752)"><tspan x="0" y="0" style="fill:#000000;stroke:none;">Chowan</tspan></text>
		</g>
		<g>
			<path d="M74.237,184.237l-13.066-18.778h-7.347l-11.434,1.635l-13.878,17.961h6.53l33.479-0.818h5.716z"/>
			<text transform="matrix(1 0 0 1 44.6362 177.7056)"><tspan x="0" y="0" style="fill:#000000;stroke:none;">Clay</tspan></text>
		</g>
		<g>
			<path d="M253.875,117.284l-14.702-1.633l-1.63,27.759l-4.899,17.965l36.743,1.636h4.083l-0.816-11.436l-10.615-17.145l-8.164-17.147z"/>
			<text transform="matrix(1 0 0 1 230.8198 158.8462)"><tspan x="0" y="0" style="fill:#000000;stroke:none;">Cleveland</tspan></text>
		</g>
		<g>
			<path d="M564.156,253.644l-9.799-4.085l-8.166,4.085l-4.9,0.816l-24.495-10.613h-14.697l-3.266-2.454l-18.78,20.414l39.194,40.825l1.628-8.978l7.351-5.717l0.818-9.799l4.081-2.448l7.349,3.266l4.084-6.532l9.8-1.633l9.799-17.147z"/>
			<text transform="matrix(1 0 0 1 499.1821 262.6245)"><tspan x="0" y="0" style="fill:#000000;stroke:none;">Columbus</tspan></text>
		</g>
		<g>
			<path d="M676.834,153.211l-7.348-7.348l-20.414-11.431l-5.715,6.53l-11.433,1.636l-5.718,4.895l1.636,2.453l-4.081,4.901l26.941,19.594l3.6,2.118l3.751,24.01l32.664-0.813l8.167-4.084l-0.821-4.082v-4.899l-4.081,0.818l-3.265,4.082l-9.799-2.451l-8.167-4.901
				l-8.165-10.613l-4.899-2.447l0.817-5.717l2.448-1.635l6.533,8.983l4.081,0.816l-0.815-12.248l4.082-8.165z"/>
			<text transform="matrix(1 0 0 1 633.7729 158.9272)"><tspan x="0" y="0" style="fill:#000000;stroke:none;">Craven</tspan></text>
		</g>
		<g>
			<path d="M476.785,160.559l17.966-4.083l4.895-4.082h9.802l9.8,3.264l-3.27,13.884l1.636,16.33l4.897,2.448l8.986,10.617l-29.398,0.818l-7.348,0.813l-4.082-8.166l-8.166-4.895l-6.535-14.7l-1.63-4.901l2.447-7.347z"/>
			<text transform="matrix(1 0 0 1 468.3267 176.0723)"><tspan x="0" y="0" style="fill:#000000;stroke:none;">Cumberland</tspan></text>
		</g>
		<g>
			<g>
				<path d="M800.949,88.705l-5.714-15.513L783.801,49.51l-4.899-15.512L770.736,4.6h-2.449l4.082,20.414l7.352,22.865l1.63,13.878l5.715,3.27l2.449,6.533l8.983,18.778l2.451-1.632z"/>
				<path d="M760.125,33.998l-32.663-28.58L747.874,4.6l6.533,0.818l-3.267,4.084l4.899,2.451l0.813,4.081l4.902,7.349l4.899-3.267l2.446,16.332l4.084,7.348l2.451,13.879l-2.451-1.631l-5.712-13.883l-3.267-2.449l-0.818-4.898l-3.263-0.817z"/>
				<path d="M758.488,4.6l2.446,5.717l5.72,0.818L764.206,4.6h-5.718z"/>
			</g>
			<text transform="matrix(1 0 0 1 746.981 23.7109)"><tspan x="0" y="0" style="fill:#000000;stroke:none;">Currituck</tspan></text>
		</g>
		<g>
			<path d="M769.918,112.385l3.266,2.448l1.634,2.451l2.448-0.817l4.902-3.266l0.815-4.9l-2.446-4.899l1.631-1.631l2.449,0.813l-0.816-4.896l1.629-8.983l-2.446-3.265l-2.446-4.9l-0.817-4.084l-6.536-4.897l-3.266,2.446l-0.818,4.9l-4.895-0.815l-4.081,4.9
				l0.81,5.716l-0.81,8.166l-3.272,8.983l12.248,0.813l0.818,5.718z"/>
			<text transform="matrix(1 0 0 1 761.0142 95.1548)"><tspan x="0" y="0" style="fill:#000000;stroke:none;">Dare</tspan></text>
		</g>
		<g>
			<path d="M389.414,78.905l0.818-15.512l-15.514,2.446v3.271l-16.33,3.264l3.266,7.348h-4.083l3.265,6.53l-8.979-0.813v12.248l11.43,3.265l3.265,7.348l7.35,7.35l4.082,8.981h11.429V78.905z"/>
			<text transform="matrix(1 0 0 1 351.4263 96.3545)"><tspan x="0" y="0" style="fill:#000000;stroke:none;">Davidson</tspan></text>
		</g>
		<g>
			<path d="M350.223,62.575l2.448-2.448l5.718,12.248l3.266,7.348h-4.083l3.265,6.53l-8.979-0.813v12.248l-2.452-4.082l-14.696-8.166l-4.901-0.818l1.636-22.047h18.778z"/>
			<text transform="matrix(1 0 0 1 331.7231 77.2744)"><tspan x="0" y="0" style="fill:#000000;stroke:none;">Davie</tspan></text>
		</g>
		<g>
			<path d="M561.702,160.559H591.1l8.981,5.716v12.248l6.532,5.713l2.449,8.983l-4.899,17.148l1.633,4.899l-37.56-2.452l-2.45,2.452l-6.532-2.452l4.901-21.226l-2.454-31.03z"/>
			<text transform="matrix(1 0 0 1 567.5063 191.5889)"><tspan x="0" y="0" style="fill:#000000;stroke:none;">Duplin</tspan></text>
		</g>
		<g>
			<path d="M489.034,41.343l13.883,0.818l0.813,17.147l4.083,3.266l3.268,8.984l-4.082,5.715h-4.082l-3.271,7.348l-5.712,0.818l-10.618-0.818l5.719-43.279z"/>
			<text transform="matrix(1 0 0 1 481.0493 70.7412)"><tspan x="0" y="0" style="fill:#000000;stroke:none;">Durham</tspan></text>
		</g>
		<g>
			<path d="M630.292,67.475v5.717l4.082,3.264l0.817,12.249l-4.082-1.634l-23.678,17.964l-6.532-7.347l-2.452-9.799l-5.715-4.084l8.979-26.128l3.269-5.714l13.063,5.714l2.452,6.532l9.797,3.267z"/>
			<text transform="matrix(1 0 0 1 591.3589 72.3745)"><tspan x="0" y="0" style="fill:#000000;stroke:none;">Edgecombe</tspan></text>
		</g>
		<g>
			<path d="M353.489,40.531l0.818,12.249l-4.901,4.082l0.817,5.713l2.448-2.448l5.718,12.248l16.33-3.264v-3.271l15.514-2.446l0.818-23.68l-37.562-0.817v1.635z"/>
			<text transform="matrix(1 0 0 1 353.9663 55.2271)"><tspan x="0" y="0" style="fill:#000000;stroke:none;">Forsyth</tspan></text>
		</g>
		<g>
			<path d="M527.412,66.658l3.268-18.779l7.345,1.631l3.267-6.531l4.9-0.817l1.633-4.082l13.061,2.451l16.332,5.715L552.72,89.523l-1.63-5.719l-23.679-17.146z"/>
			<text transform="matrix(1 0 0 1 530.856 56.0449)"><tspan x="0" y="0" style="fill:#000000;stroke:none;">Franklin</tspan></text>
		</g>
		<g>
			<path d="M306.948,134.432h-44.909l10.615,17.145l0.816,11.436l26.944,0.813l6.534-29.393z"/>
			<text transform="matrix(1 0 0 1 271.2295 149.1279)"><tspan x="0" y="0" style="fill:#000000;stroke:none;">Gaston</tspan></text>
		</g>
		<g>
			<path d="M709.497,4.6l-35.109,0.818l-1.635,15.513l17.148,8.984l3.264-0.818l3.267,4.083l11.432-5.713l9.8-2.453l-3.266-13.878l-4.9-6.535z"/>
			<text transform="matrix(1 0 0 1 681.4604 20.1167)"><tspan x="0" y="0" style="fill:#000000;stroke:none;">Gates</tspan></text>
		</g>
		<g>
			<path d="M55.455,153.211l0.816-4.083l8.983-8.981l2.45-6.532l-33.479-2.452l-4.896,5.717l-1.635,12.248l3.264,9.799l17.149-5.716l2.449,1.635l4.899-1.635z"/>
			<text transform="matrix(1 0 0 1 28.1138 143.4102)"><tspan x="0" y="0" style="fill:#000000;stroke:none;">Graham</tspan></text>
		</g>
		<g>
			<path d="M536.391,6.235h-25.311h-7.351l-0.813,35.926l0.813,17.147l4.083,3.266l6.534-1.631l13.064,5.714l3.268-18.779V13.583l5.712-7.348z"/>
			<text transform="matrix(1 0 0 1 496.2485 42.1616)"><tspan x="0" y="0" style="fill:#000000;stroke:none;">Granville</tspan></text>
		</g>
		<g>
			<path d="M591.916,118.102l12.248-10.617l8.983,11.43l7.349,2.451l2.448,9.797l-4.9,6.536l-9.796,4.082l-4.084-3.267l-10.618,2.449l-1.63-22.86z"/>
			<text transform="matrix(1 0 0 1 590.1528 129.5322)"><tspan x="0" y="0" style="fill:#000000;stroke:none;">Greene</tspan></text>
		</g>
		<g>
			<path d="M438.407,41.343l-47.356-1.63l-0.818,23.68l-0.818,15.512l46.543,1.636l2.449-39.197z"/>
			<text transform="matrix(1 0 0 1 397.2207 60.127)"><tspan x="0" y="0" style="fill:#000000;stroke:none;">Guilford</tspan></text>
		</g>
		<g>
			<path d="M577.216,46.246l5.718-9.797l3.267-10.617l-0.82-16.329l23.683,4.081l8.98,7.347l-3.266,7.352l2.453,4.897l8.977-1.632l7.351,11.431l5.716,5.718l6.535,7.348l-6.535,1.631l-1.631,3.269l-7.351,6.531l-9.797-3.267l-2.452-6.532l-13.063-5.714H591.1
				l-13.884-5.716z"/>
			<text transform="matrix(1 0 0 1 594.894 44.6152)"><tspan x="0" y="0" style="fill:#000000;stroke:none;">Halifax</tspan></text>
		</g>
		<g>
			<path d="M493.117,115.651l19.594,6.533l14.701,19.596v4.899l-8.165,8.979l-9.8-3.264h-9.802l-4.895,4.082l-17.966,4.083l-11.43-9.795l1.631-2.452l21.229-25.315l4.902-7.346z"/>
			<text transform="matrix(1 0 0 1 483.2485 142.5977)"><tspan x="0" y="0" style="fill:#000000;stroke:none;">Harnett</tspan></text>
		</g>
		<g>
			<path d="M131.395,105.854l-4.9-16.331l-5.717,4.083l-9.797,1.63l-13.063,8.165l6.529,1.633l-3.266,2.45l4.9,10.617l-2.451,4.895l25.313,26.131l14.699-13.881l-4.899-4.897l2.449-11.436l-3.267-8.166l-4.898-0.813l-1.632-4.082z"/>
			<text transform="matrix(1 0 0 1 101.7817 123.2168)"><tspan x="0" y="0" style="fill:#000000;stroke:none;">Haywood</tspan></text>
		</g>
		<g>
			<path d="M187.734,137.698l-0.818-8.984l-13.063-0.816l-17.148,5.717l-9.798-3.265l-3.264,4.897l12.248,16.329l2.449,14.699l13.065-3.264l2.449-4.084l5.716,1.632l0.818-12.248l7.347-10.613z"/>
			<text transform="matrix(1 0 0 1 143.6777 142.5977)"><tspan x="0" y="0" style="fill:#000000;stroke:none;">Henderson</tspan></text>
		</g>
		<g>
			<path d="M674.387,5.418h-21.23l6.531,4.084l-0.815,3.264h-4.085l-6.533,26.947l4.902,1.63l40.008-0.813l0.818-4.082l-4.082-6.534l-17.148-8.984l1.635-15.513z"/>
			<text transform="matrix(1 0 0 1 651.6411 35.0342)"><tspan x="0" y="0" style="fill:#000000;stroke:none;">Hertford</tspan></text>
		</g>
		<g>
			<path d="M475.967,172.807l6.535,14.7l-13.065,13.878l-13.881,1.633l-4.085-17.964l-7.345-7.35l9.799-13.063l6.53,4.899l15.512,3.265z"/>
			<text transform="matrix(1 0 0 1 449.5981 182.6064)"><tspan x="0" y="0" style="fill:#000000;stroke:none;">Hoke</tspan></text>
		</g>
		<g>
			<path d="M721.745,102.584h-21.231l13.064,13.883l4.085,2.447l-0.817,4.9l-7.349,2.454l2.446,11.43l12.251-4.9l-1.634,5.715l4.901,2.449l0.813-4.9l6.534,5.718l0.82-1.633l9.794,3.264l6.535-3.264l2.449-10.614l4.081,4.083l3.267-6.534l1.633-6.532h4.085
				l2.446-8.165l-0.818-5.718l-12.248-0.813v0.813h-5.712l-5.718-4.896l-6.53,10.614l-8.166-0.818l-0.817-8.982h-8.164z"/>
			<text transform="matrix(1 0 0 1 725.5845 125.4502)"><tspan x="0" y="0" style="fill:#000000;stroke:none;">Hyde</tspan></text>
		</g>
		<g>
			<path d="M314.297,60.944l17.147,1.631l-1.636,22.047l-6.53,23.679l4.897,16.331h-5.713l-15.514-0.818l0.814-3.265l2.451-8.165l-16.331-18.778l4.901-8.166l5.714-20.414l-1.632-4.082h11.431z"/>
			<text transform="matrix(1 0 0 1 294.1445 96.8706)"><tspan x="0" y="0" style="fill:#000000;stroke:none;">Iredell</tspan></text>
		</g>
		<g>
			<path d="M103.63,122.997l-15.514,5.717l1.636,15.516l4.9,10.616h4.896l0.816,8.166l8.166,14.694v5.717h2.451l8.979-2.451l1.636-0.816l-4.899-4.083l12.248-26.944l-25.313-26.131z"/>
			<text transform="matrix(1 0 0 1 90.7041 150.7637)"><tspan x="0" y="0" style="fill:#000000;stroke:none;">Jackson</tspan></text>
		</g>
		<g>
			<path d="M552.72,89.523v4.896l5.718,4.9l5.718,14.698l5.713,0.815l-7.349,17.965l-0.818,8.164l-12.247,5.717l-0.815,3.266l-11.433,4.083l-5.71-1.633l-4.085-5.715v-4.899l-14.701-19.596l20.414-19.6l19.596-13.061z"/>
			<text transform="matrix(1 0 0 1 526.7124 122.1841)"><tspan x="0" y="0" style="fill:#000000;stroke:none;">Johnston</tspan></text>
		</g>
		<g>
			<path d="M606.614,184.237l-6.532-5.713l13.879-11.43l4.083-8.167l0.819-8.164l4.899,4.082l26.941,19.594l3.334,2.118l4.017,24.01l-3.274,7.486l-8.158-15.652l-9.797-2.446l-2.45,0.815l-4.082-3.264l-23.679-3.271z"/>
			<text transform="matrix(1 0 0 1 620.9673 181.5698)"><tspan x="0" y="0" style="fill:#000000;stroke:none;">Jones</tspan></text>
		</g>
		<g>
			<path d="M454.738,123.814l-1.631,2.454l7.349,16.33l6.53,5.714l21.229-25.315l-5.712-2.447l-2.45-4.898l-4.085-2.45l-5.712,1.632l-8.984,5.716l-3.267-1.635l-3.267,4.9z"/>
			<text transform="matrix(1 0 0 1 460.2778 130.3501)"><tspan x="0" y="0" style="fill:#000000;stroke:none;">Lee</tspan></text>
		</g>
		<g>
			<path d="M631.925,142.598l-5.718-4.084l-3.264-7.351l-4.9,6.536l-9.796,4.082l-4.084-3.267l-10.618,2.449l-2.445,19.597l8.981,5.716v12.248l13.879-11.43l4.083-8.167l0.819-8.164l4.899,4.082l4.081-4.901l-1.636-2.453l5.718-4.895z"/>
			<text transform="matrix(1 0 0 1 592.0591 151.7144)"><tspan x="0" y="0" style="fill:#000000;stroke:none;">Lenoir</tspan></text>
		</g>
		<g>
			<path d="M253.875,117.284l0.813-1.633l53.074,4.898l-0.814,3.265v10.617h-44.909l-8.164-17.147z"/>
			<text transform="matrix(1 0 0 1 269.4214 129.3003)"><tspan x="0" y="0" style="fill:#000000;stroke:none;">Lincoln</tspan></text>
		</g>
		<g>
			<path d="M217.131,72.375l-4.901,5.715l-13.881,9.799l-12.248,13.882l-1.631,3.264l-0.817,8.982l8.981,8.167l32.662-1.635l1.632-4.898l-3.266-15.514l-10.614-9.799l5.713-13.881l-1.63-4.082z"/>
			<text transform="matrix(1 0 0 1 185.3604 112.082)"><tspan x="0" y="0" style="fill:#000000;stroke:none;">McDowell</tspan></text>
		</g>
		<g>
			<path d="M89.751,144.229l-34.296,8.981l2.453,2.447l-4.083,9.801h7.347l13.066,18.778l34.292-0.814v-5.717l-8.166-14.694l-0.816-8.166h-4.896l-4.9-10.616z"/>
			<text transform="matrix(1 0 0 1 67.396 167.0938)"><tspan x="0" y="0" style="fill:#000000;stroke:none;">Macon</tspan></text>
		</g>
		<g>
			<path d="M172.221,87.071v-3.267l-5.718-12.245l-7.347,1.633l-4.084-2.451l1.632-6.533l-3.266-3.264l-10.614,7.347l-3.264,7.35h-8.984l-4.082,13.882l4.9,16.331l6.53-1.636l34.296-17.147z"/>
			<text transform="matrix(1 0 0 1 127.1919 85.4404)"><tspan x="0" y="0" style="fill:#000000;stroke:none;">Madison</tspan></text>
		</g>
		<g>
			<path d="M637.643,60.944l9.796,5.714l2.452,8.165l14.696,0.818l-2.449,7.348l13.062-4.084l2.453,9.8l3.267-1.634l1.633-6.531l5.712,1.631l-4.081,20.413l-17.147,3.27l-16.332-8.166l-15.512-8.983l-0.817-12.249l-4.082-3.264v-5.717l7.351-6.531z"/>
			<text transform="matrix(1 0 0 1 644.1626 92.4878)"><tspan x="0" y="0" style="fill:#000000;stroke:none;">Martin</tspan></text>
		</g>
		<g>
			<path d="M306.948,123.814l15.514,0.818l3.265,13.066l5.718,5.712l0.813,9.801l9.802,7.348l-18.781,18.782l-7.351,0.814l-4.897-6.532l-2.451-4.082l-8.982,5.716l-1.631-2.451l2.449-8.983l6.534-29.393v-10.617z"/>
			<text transform="matrix(1 0 0 1 290.5708 159.7427)"><tspan x="0" y="0" style="fill:#000000;stroke:none;">Mecklenburg</tspan></text>
		</g>
		<g>
			<path d="M212.23,78.089l-8.167-6.53l3.267-3.268l-2.448-12.247l-13.066-2.453l-8.981,0.818l-6.53,4.898l8.979,4.899l0.817,4.902h7.346l0.82,8.164h3.265l0.818,10.614l13.881-9.799z"/>
			<text transform="matrix(1 0 0 1 176.498 63.3931)"><tspan x="0" y="0" style="fill:#000000;stroke:none;">Mitchell</tspan></text>
		</g>
		<g>
			<path d="M377.985,124.632h11.429l28.58-1.636l4.082,22.05l-0.814,6.53l9.799,13.066l-8.166-2.449l-35.11,3.265l0.817-8.165l-2.451-6.531l3.264-13.065l-11.429-13.066z"/>
			<text transform="matrix(1 0 0 1 377.9585 156.4761)"><tspan x="0" y="0" style="fill:#000000;stroke:none;">Montgomery</tspan></text>
		</g>
		<g>
			<path d="M417.994,122.997l4.082,22.05l-0.814,6.53l9.799,13.066l3.265,4.899l-0.815,4.898l10.617,3.266l9.799-13.063l6.53,4.899l15.512,3.265l-1.63-4.901l2.447-7.347l-11.43-9.795l1.631-2.452l-6.53-5.714l-7.349-16.33l1.631-2.454l-17.145-1.63l-19.6,0.813z"/>
			<text transform="matrix(1 0 0 1 429.9536 148.3115)"><tspan x="0" y="0" style="fill:#000000;stroke:none;">Moore</tspan></text>
		</g>
		<g>
			<path d="M604.981,51.962H591.1l-13.884-5.716L552.72,89.523v4.896l5.718,4.9l28.577-13.879l4.085,1.631l1.633-3.267l8.979-26.128l3.269-5.714z"/>
			<text transform="matrix(1 0 0 1 567.1802 69.9233)"><tspan x="0" y="0" style="fill:#000000;stroke:none;">Nash</tspan></text>
		</g>
		<g style="fill:#000000;stroke:none;">
			<path style="fill:#FFFFFF;stroke:#000000;" d="M573.134,256.911l20.411-5.717l6.536,10.613l-9.799,18.782l-1.631,10.614l-2.451,9.798l-2.448-2.449l-1.634-12.25l-0.818-8.163l-4.896-18.78l-3.27-2.448z"/>
			<text transform="matrix(1 0 0 1 582.731 266.7075)"><tspan x="0" y="0">New</tspan><tspan x="-8.896" y="12">Hanover</tspan></text>
		</g>
		<g>
			<path d="M653.157,5.418h-17.149l-38.38,0.817l-11.427-0.817l-0.82,4.084l23.683,4.081l8.98,7.347l-3.266,7.352l2.453,4.897l8.977-1.632l7.351,11.431l5.716,5.718v-4.082l8.98-4.902l6.533-26.947h4.085l0.815-3.264l-6.531-4.084z"/>
			<text transform="matrix(1 0 0 1 604.0552 14.563)"><tspan x="0" y="0" style="fill:#000000;stroke:none;">Northampton</tspan></text>
		</g>
		<g>
			<path d="M605.796,215.267l-1.633-4.899l4.899-17.148l-2.449-8.983l23.679,3.271l4.082,3.264l2.45-0.815l9.797,2.446l8.158,15.652l1.642,6.397l-1.634,8.981l-13.878,8.982l-6.535-5.717l3.269-4.084l-1.636-4.899l-3.267-2.448l-2.448-5.715l-2.449,0.815
				l1.637,6.531l4.078,5.716l-4.078,3.267l-0.819,4.083l5.714,2.451l1.633,2.449l-4.897,4.081l-10.614,5.718l-4.082-1.635l-10.617-27.762z"/>
			<text transform="matrix(1 0 0 1 611.9888 204.6499)"><tspan x="0" y="0" style="fill:#000000;stroke:none;">Onslow</tspan></text>
		</g>
		<g>
			<path d="M461.271,41.343h9.799h17.964l-5.719,43.279l-15.512-0.818l-4.899-2.446l-2.448-3.269l0.815-36.746z"/>
			<text transform="matrix(1 0 0 1 456.8423 56.0449)"><tspan x="0" y="0" style="fill:#000000;stroke:none;">Orange</tspan></text>
		</g>
		<g>
			<path d="M676.834,153.211l-4.082,8.165l0.815,12.248l2.449,4.9l4.085,0.817l4.896,4.896l11.433-7.347h4.899l1.636-4.9l8.164-6.53l-2.452-2.447l-4.081,2.447l-4.902-4.083l6.535-4.081l4.9,2.448l-2.452-5.715h5.719v-7.348l-10.618-2.45l-1.631,4.082l2.449,4.083
				l-21.229,5.715l-6.533-4.898z"/>
			<text transform="matrix(1 0 0 1 671.3003 170.8755)"><tspan x="0" y="0" style="fill:#000000;stroke:none;">Pamlico</tspan></text>
		</g>
		<g>
			<path d="M717.663,25.014l-3.266-13.878l20.411,13.065l8.983,9.797l-1.633,3.264l4.896,2.451v4.084l5.715,4.082v3.266l-8.979,1.635l-9.799-7.352l-9.799-8.166l-6.531-12.248z"/>
			<text transform="matrix(1 0 0 1 703.8169 35.7822)"><tspan x="0" y="0" style="fill:#000000;stroke:none;">Pasquotank</tspan></text>
		</g>
		<g>
			<path d="M553.539,232.416l12.248-17.148l2.45-2.452l37.56,2.452l10.617,27.762l4.082,1.635l-20.414,17.144l-6.536-10.613l-20.411,5.717l-8.979-3.267l-9.799-4.085l6.527-6.53l-7.346-5.718v-4.896z"/>
			<text transform="matrix(1 0 0 1 569.2573 238.9458)"><tspan x="0" y="0" style="fill:#000000;stroke:none;">Pender</tspan></text>
		</g>
		<g>
			<path d="M707.863,27.466l9.8-2.453l6.531,12.248l9.799,8.166l4.081,8.983l-0.817,1.634l-12.248-7.348l-2.448,0.813l-0.815,2.452l5.717,3.265l-0.817,2.449h-8.981l-11.433-3.265v-13.88l1.633-13.064z"/>
			<text transform="matrix(1 0 0 1 698.3286 45.4277)"><tspan x="0" y="0" style="fill:#000000;stroke:none;">Perquimans</tspan></text>
		</g>
		<g>
			<path d="M503.927,6.417l-29.391-0.324l-3.654,35.07l17.961,0.198l13.873,0.971l1.211-35.915z"/>
			<text transform="matrix(0.9999 0.0111 -0.0111 0.9999 472.3735 24.0342)"><tspan x="0" y="0" style="fill:#000000;stroke:none;">Person</tspan></text>
		</g>
		<g>
			<path d="M604.164,107.485l3.269-2.45l23.678-17.964l4.082,1.634l15.512,8.983l2.453,15.513l4.079,3.266l-5.715,5.717l-2.448,12.248l-5.715,6.53l-11.433,1.636l-5.718-4.084l-3.264-7.351l-2.448-9.797l-7.349-2.451l-8.983-11.43z"/>
			<text transform="matrix(1 0 0 1 627.5317 118.1021)"><tspan x="0" y="0" style="fill:#000000;stroke:none;">Pitt</tspan></text>
		</g>
		<g>
			<path d="M187.734,137.698l10.614-2.451l14.699,17.147v7.348h-21.232l-12.247,0.816l0.818-12.248l7.347-10.613z"/>
			<text transform="matrix(1 0 0 1 183.7197 152.8271)"><tspan x="0" y="0" style="fill:#000000;stroke:none;">Polk</tspan></text>
		</g>
		<g>
			<path d="M436.775,86.253l-0.817-5.712l-46.543-1.636v45.728l28.58-1.636l19.6-0.813l-0.818-35.931z"/>
			<text transform="matrix(1 0 0 1 392.5044 104.2183)"><tspan x="0" y="0" style="fill:#000000;stroke:none;">Randolph</tspan></text>
		</g>
		<g>
			<path d="M444.126,177.706l-10.617-3.266l0.815-4.898l-3.265-4.899l-8.166-2.449l-35.11,3.265v2.447l6.531,4.083l4.901-4.083l6.53,8.166l-1.633,4.899l4.084,4.083l0.815,9.799l-6.533,8.982l22.048,0.813l11.43-10.612l-1.633-9.801l9.802-6.531z"/>
			<text transform="matrix(1 0 0 1 399.5659 178.5234)"><tspan x="0" y="0" style="fill:#000000;stroke:none;">Richmond</tspan></text>
		</g>
		<g>
			<path d="M455.556,203.019l13.881-1.633l13.065-13.878l8.166,4.895l4.082,8.166l10.612,20.414l-4.082,11.434v6.53l-2.448,2.447l-18.78,20.414l-35.11-35.108v-0.817l12.244-17.96l-1.63-4.902z"/>
			<text transform="matrix(1 0 0 1 456.77 228.3335)"><tspan x="0" y="0" style="fill:#000000;stroke:none;">Robeson</tspan></text>
		</g>
		<g>
			<path d="M440.86,6.235h-21.231L391.05,5.418v34.295l47.356,1.63l2.453-35.108z"/>
			<text transform="matrix(1 0 0 1 387.7559 25.0137)"><tspan x="0" y="0" style="fill:#000000;stroke:none;">Rockingham</tspan></text>
		</g>
		<g>
			<path d="M328.175,124.632h38.378h11.432l-4.082-8.981l-7.35-7.35l-3.265-7.348l-11.43-3.265l-2.452-4.082l-14.696-8.166l-4.901-0.818l-6.53,23.679l4.897,16.331z"/>
			<text transform="matrix(1 0 0 1 332.21 109.936)"><tspan x="0" y="0" style="fill:#000000;stroke:none;">Rowan</tspan></text>
		</g>
		<g>
			<path d="M187.734,137.698l-0.818-8.984l5.717-6.53l32.662-1.635l1.632-4.898l8.165-4.084l4.082,4.084l-1.63,27.759l-4.899,17.965l-8.982-0.816l-10.614-0.816v-7.348l-14.699-17.147l-10.614,2.451z"/>
			<text transform="matrix(1 0 0 1 193.5078 132.061)"><tspan x="0" y="0" style="fill:#000000;stroke:none;">Rutherford</tspan></text>
		</g>
		<g>
			<path d="M519.247,155.658l8.165-8.979l4.085,5.715l5.71,1.633l11.433-4.083l5.718,5.713l7.345,4.901l2.454,31.03l-4.901,21.226l6.532,2.452l-12.248,17.148l-22.042-33.479l-8.986-10.617l-4.897-2.448l-1.636-16.33l3.27-13.884z"/>
			<text transform="matrix(1 0 0 1 520.1675 181.7896)"><tspan x="0" y="0" style="fill:#000000;stroke:none;">Sampson</tspan></text>
		</g>
		<g>
			<path d="M444.126,177.706l7.345,7.35l4.085,17.964l1.63,4.902l-12.244,17.96l-20.414-21.231l11.43-10.612l-1.633-9.801l9.802-6.531z"/>
			<text transform="matrix(1 0 0 1 422.2163 208.7339)"><tspan x="0" y="0" style="fill:#000000;stroke:none;">Scotland</tspan></text>
		</g>
		<g>
			<path d="M366.553,124.632h11.432l11.429,13.066l-3.264,13.065l2.451,6.531l-0.817,8.165l-6.533-4.9l-3.266,3.265l-4.9-0.813l-3.266-4.084l-3.266,1.632l-13.064,2.453l-7.348-1.636l20.413-36.743z"/>
			<text transform="matrix(1 0 0 1 358.3745 143.4102)"><tspan x="0" y="0" style="fill:#000000;stroke:none;">Stanly</tspan></text>
		</g>
		<g>
			<path d="M391.05,5.418h-5.717h-32.662l0.818,33.478l37.562,0.817V5.418z"/>
			<text transform="matrix(1 0 0 1 357.7993 25.0137)"><tspan x="0" y="0" style="fill:#000000;stroke:none;">Stokes</tspan></text>
		</g>
		<g>
			<path d="M352.671,5.418L339.611,4.6l-21.232-0.813L312.663,4.6l-4.083,3.271l-4.082,13.877l4.082,4.9l3.265,0.817l2.453,13.064l9.796-4.082l25.313,2.447l4.083,1.635v-1.635l-0.818-33.478z"/>
			<text transform="matrix(1 0 0 1 317.0474 21.749)"><tspan x="0" y="0" style="fill:#000000;stroke:none;">Surry</tspan></text>
		</g>
		<g>
			<path d="M103.63,122.997l2.451-4.895l-4.9-10.617l3.266-2.45l-6.529-1.633l-4.084,3.265l-4.9,0.818L73.42,119.733l-12.249-1.631l-17.146,4.895l-9.8,8.166l33.479,2.452l-2.45,6.532l-8.983,8.981l-0.816,4.083l34.296-8.981l-1.636-15.516l15.514-5.717z"/>
			<text transform="matrix(1 0 0 1 58.9858 128.7139)"><tspan x="0" y="0" style="fill:#000000;stroke:none;">Swain</tspan></text>
		</g>
		<g>
			<path d="M128.943,149.128l14.699-13.881l12.248,16.329l2.449,14.699l-8.166,1.631l-8.164,5.717l-20.414,6.532l-4.899-4.083l12.248-26.944z"/>
			<text transform="matrix(1 0 0 1 110.5835 163.0117)"><tspan x="0" y="0" style="fill:#000000;stroke:none;">Transylvania</tspan></text>
		</g>
		<g>
			<path d="M724.194,76.456l2.45,6.533l-4.084,7.348l-0.815,12.247h8.164l0.817,8.982l8.166,0.818l6.53-10.614l8.984,0.813v-5.713l-4.085-2.451l0.818-2.449l3.267-0.817l-0.818-6.531l-1.631-2.451l4.082-1.631l0.813-4.899l-3.264-1.636l1.636-3.264l-9.802-1.631
				l-13.066,3.264l-0.81,2.449l-7.353,1.633z"/>
			<text transform="matrix(1 0 0 1 726.313 90.8569)"><tspan x="0" y="0" style="fill:#000000;stroke:none;">Tyrrell</tspan></text>
		</g>
		<g>
			<path d="M366.553,160.559l-13.064,2.453l-7.348-1.636l-4.082-0.816l-18.781,18.782l-7.351,0.814l7.351,10.616v12.248l21.228,0.818h20.413l1.634-43.278z"/>
			<text transform="matrix(1 0 0 1 332.2588 184.2368)"><tspan x="0" y="0" style="fill:#000000;stroke:none;">Union</tspan></text>
		</g>
		<g>
			<path d="M547.824,7.052l-11.433-0.817l-5.712,7.348v34.295l7.345,1.631l3.267-6.531l4.9-0.817l1.633-4.082l4.084-5.712l-4.084-25.315z"/>
			<text transform="matrix(1 0 0 1 528.3032 28.2827)"><tspan x="0" y="0" style="fill:#000000;stroke:none;">Vance</tspan></text>
		</g>
		<g>
			<path d="M507.813,62.575l6.534-1.631l13.064,5.714l23.679,17.146l1.63,5.719l-19.596,13.061l-20.414,19.6l-19.594-6.533l-6.532-3.266l7.349-26.944l5.712-0.818l3.271-7.348h4.082l4.082-5.715l-3.268-8.984z"/>
			<text transform="matrix(1 0 0 1 504.1997 93.6064)"><tspan x="0" y="0" style="fill:#000000;stroke:none;">Wake</tspan></text>
		</g>
		<g>
			<path d="M586.201,5.418l-14.696,0.817l-23.681,0.817l4.084,25.315l-4.084,5.712l13.061,2.451l16.332,5.715l5.718-9.797l3.267-10.617l-0.82-16.329l0.82-4.084z"/>
			<text transform="matrix(1 0 0 1 552.8442 27.4663)"><tspan x="0" y="0" style="fill:#000000;stroke:none;">Warren</tspan></text>
		</g>
		<g>
			<path d="M688.264,82.171l4.085-5.715l24.496-3.264l5.715-2.451l1.634,5.715l2.45,6.533l-4.084,7.348l-0.815,12.247h-21.231h-16.33l4.081-20.413z"/>
			<text transform="matrix(1 0 0 1 680.0122 92.7886)"><tspan x="0" y="0" style="fill:#000000;stroke:none;">Washington</tspan></text>
		</g>
		<g>
			<path d="M257.138,41.343l-13.88-13.061l-5.715-1.633l-13.881,4.082l4.898,24.496l23.679-0.816l7.349-11.432l-2.45-1.636z"/>
			<text transform="matrix(1 0 0 1 220.9819 43.7969)"><tspan x="0" y="0" style="fill:#000000;stroke:none;">Watauga</tspan></text>
		</g>
		<g>
			<path d="M548.639,149.945l0.815-3.266l12.247-5.717l0.818-8.164l7.349-17.965l22.047,3.269l1.63,22.86l-2.445,19.597h-29.398l-7.345-4.901l-5.718-5.713z"/>
			<text transform="matrix(1 0 0 1 562.0591 146.5991)"><tspan x="0" y="0" style="fill:#000000;stroke:none;">Wayne</tspan></text>
		</g>
		<g>
			<path d="M275.919,25.014l-3.265-0.813l-4.084,3.266v8.165l-4.082-0.816l-7.35,6.529l2.45,1.636l-7.349,11.432l13.066,5.716l7.348,6.531l13.881-1.632l2.448-3.27l13.883-0.813h11.431V40.531l-2.453-13.064l-3.265-0.817l-4.082-4.9l-5.714,2.452v-4.084H284.9
				l-8.981,4.897z"/>
			<text transform="matrix(1 0 0 1 271.813 45.0474)"><tspan x="0" y="0" style="fill:#000000;stroke:none;">Wilkes</tspan></text>
		</g>
		<g>
			<path d="M592.733,83.804l5.715,4.084l2.452,9.799l6.532,7.347l-3.269,2.45l-12.248,10.617l-22.047-3.269l-5.713-0.815l-5.718-14.698l28.577-13.879l4.085,1.631l1.633-3.267z"/>
			<text transform="matrix(1 0 0 1 570.3774 105.1709)"><tspan x="0" y="0" style="fill:#000000;stroke:none;">Wilson</tspan></text>
		</g>
		<g>
			<path d="M314.297,40.531l9.796-4.082l25.313,2.447l4.083,1.635l0.818,12.249l-4.901,4.082l0.817,5.713h-18.778l-17.147-1.631V40.531z"/>
			<text transform="matrix(1 0 0 1 317.3403 51.145)"><tspan x="0" y="0" style="fill:#000000;stroke:none;">Yadkin</tspan></text>
		</g>
		<g>
			<path d="M198.349,87.889l-0.818-10.614h-3.265l-0.82-8.164h-7.346l-0.817-4.902l-8.979-4.899l-9.801,12.25l5.718,12.245v3.267l7.348,2.452v4.083l6.531,8.165l12.248-13.882z"/>
			<text transform="matrix(1 0 0 1 166.5283 85.4404)"><tspan x="0" y="0" style="fill:#000000;stroke:none;">Yancey</tspan></text>
		</g>
		<g>
			<path d="M727.461,5.418L713.578,4.6h-4.081l4.9,6.535l20.411,13.065l8.983,9.797h2.448l13.885,13.881l4.081,0.818l-4.081-4.9l0.81-4.084l-0.81-5.715l-32.663-28.58z"/>
			<text transform="matrix(1 0 0 1 703.5591 15.5342)"><tspan x="0" y="0" style="fill:#000000;stroke:none;">Camden</tspan></text>
		</g>
	</g>
</svg>
