<?xml version="1.0" encoding="iso-8859-1"?>
<!DOCTYPE svg >

<svg  width="801.056pt" height="411.619pt" viewBox="0 0 801.056 411.619" xml:space="preserve">
	<g id="Layer_x0020_1" style="fill-rule:nonzero;clip-rule:nonzero;stroke:#000000;stroke-miterlimit:4; font-family:'Arial'; font-size:10;">
		<g>
			<path style="fill:#FFFFFF;" d="M115.075,365.203l0.958,45.828l5.724-0.954h99.292v-14.322V374.75l-52.509,0.955l-0.957-10.503l-43.917-0.951l-8.591,0.951z"/>
			<text transform="matrix(1 0 0 1 152.0215 390.9819)"><tspan x="0" y="0" style="stroke:none;">Adams</tspan></text>
		</g>
		<g>
			<path style="fill:#FFFFFF;" d="M679.309,237.272l0.949,80.196l-36.278,0.954h-43.915l-3.817-82.104h55.372l27.689,0.955z"/>
			<text transform="matrix(1 0 0 1 626.499 281.1914)"><tspan x="0" y="0" style="stroke:none;">Barnes</tspan></text>
		</g>
		<g>
			<path style="fill:#FFFFFF;" d="M589.562,144.669l-6.678,0.95l-5.731-1.906l-4.772-7.641l-10.503,5.73l-2.864-0.956l2.864-7.634l-1.905-4.775h-3.824l-5.725,4.775h-6.686l-5.728,3.816l-0.955-6.68l-5.725-0.957v-9.547l-14.322-4.772l0.95-30.554h-31.504
				l-37.229,1.912v44.867h3.818v23.869h55.369l81.149-0.95v-9.548z"/>
			<text transform="matrix(1 0 0 1 476.1807 132.2549)"><tspan x="0" y="0" style="stroke:none;">Benson</tspan></text>
		</g>
		<g>
			<path style="fill:#FFFFFF;" d="M103.617,225.82l-60.146-0.956v46.779h5.73v46.779h40.095v-45.824h22.913l-0.951-46.778h-7.641z"/>
			<text transform="matrix(1 0 0 1 62.002 257.3228)"><tspan x="0" y="0" style="stroke:none;">Billings</tspan></text>
		</g>
		<g>
			<path style="fill:#FFFFFF;" d="M319.381,62.562h-41.05V38.695h-3.822l-0.951-37.232h138.431l1.909,37.232h3.819v23.866h-14.324l-14.319,0.958l0.955-13.37l-70.647,0.955v11.457z"/>
			<text transform="matrix(1 0 0 1 322.1221 32.0103)"><tspan x="0" y="0" style="stroke:none;">Bottineau</tspan></text>
		</g>
		<g>
			<path style="fill:#FFFFFF;" d="M115.075,365.203l0.958,45.828H2.416V366.16l112.659-0.957z"/>
			<text transform="matrix(1 0 0 1 38.3389 389.0728)"><tspan x="0" y="0" style="stroke:none;">Bowman</tspan></text>
		</g>
		<g>
			<path style="fill:#FFFFFF;" d="M125.578,51.104l0.951-10.502l-5.725-0.951l-0.955-37.237h98.332v25.778h-14.32v11.458l-7.635,0.951l-0.955,21.959l-68.742-0.955l-0.951-10.502z"/>
			<text transform="matrix(1 0 0 1 149.749 40.6021)"><tspan x="0" y="0" style="stroke:none;">Burke</tspan></text>
		</g>
		<g>
			<path style="fill:#FFFFFF;" d="M331.792,247.776l1.911,8.592l6.685,5.729l-4.772,9.546l0.95,9.548l10.502,14.318l-0.955,4.776l8.596,13.364l5.725-1.907l5.728,6.68l59.195-0.954l-3.818-92.604H363.3l-9.548,0.956v22.912l-21.96-0.956z"/>
			<text transform="matrix(1 0 0 1 366.9111 273.5557)"><tspan x="0" y="0" style="stroke:none;">Burleigh</tspan></text>
		</g>
		<g>
			<path style="fill:#FFFFFF;" d="M776.688,317.468l-53.468,0.954l-42.962-0.954l-0.949-80.196h26.729l64.919-1.908l0.955,12.411l0.956,8.592l-1.911,11.458l7.64,10.502l-1.909,39.141z"/>
			<text transform="matrix(1 0 0 1 715.2285 280.9238)"><tspan x="0" y="0" style="stroke:none;">Cass</tspan></text>
		</g>
		<g>
			<path style="fill:#FFFFFF;" d="M542.78,61.607l-3.817-61.099h113.611l2.865,61.099h-42.963H542.78z"/>
			<text transform="matrix(1 0 0 1 571.2217 38.6953)"><tspan x="0" y="0" style="stroke:none;">Cavalier</tspan></text>
		</g>
		<g>
			<path style="fill:#FFFFFF;" d="M538.963,363.295l104.065,0.956h2.865l0.952,45.825h-77.329H539.92l-0.957-46.781z"/>
			<text transform="matrix(1 0 0 1 578.3818 383.3452)"><tspan x="0" y="0" style="stroke:none;">Dickey</tspan></text>
		</g>
		<g>
			<path style="fill:#FFFFFF;" d="M125.578,51.104H1.466L0.51,2.414h119.338l0.955,37.237l5.725,0.951l-0.951,10.502z"/>
			<text transform="matrix(1 0 0 1 54.4028 28.1924)"><tspan x="0" y="0" style="stroke:none;">Divide</tspan></text>
		</g>
		<g>
			<path style="fill:#FFFFFF;" d="M179.992,165.669l-4.773,2.867l-13.365-4.774l-8.591-9.545v24.818l-49.646,0.955v45.83h7.641l0.951,46.778h52.508v-3.816l41.055-0.956l-0.956-42.005l-5.728-0.956v-33.415l-6.681-5.731l1.906-13.363l-4.773-9.545l-9.548,2.861z"/>
			<text transform="matrix(1 0 0 1 141.3101 215.3154)"><tspan x="0" y="0" style="stroke:none;">Dunn</tspan></text>
		</g>
		<g>
			<path style="fill:#FFFFFF;" d="M510.323,190.493v-11.458h-2.864l0.953-23.869l81.149-0.95l0.958,23.867h1.909l0.956,11.454l-83.062,0.955z"/>
			<text transform="matrix(1 0 0 1 531.3838 176.1724)"><tspan x="0" y="0" style="stroke:none;">Eddy</tspan></text>
		</g>
		<g>
			<path style="fill:#FFFFFF;" d="M372.846,345.157l2.862,25.775l-7.635,10.502l4.773,18.14l8.592,10.503h66.829v-46.781l-4.774,0.956v-46.783h-18.137l-59.195,0.954l8.593,8.593l-3.819,10.503l1.911,7.639z"/>
			<text transform="matrix(1 0 0 1 393.2139 367.1147)"><tspan x="0" y="0" style="stroke:none;">Emmons</tspan></text>
		</g>
		<g>
			<path style="fill:#FFFFFF;" d="M510.323,223.908v-33.415l83.062-0.955l0.95,35.325l-84.012-0.956z"/>
			<text transform="matrix(1 0 0 1 528.6104 206.7246)"><tspan x="0" y="0" style="stroke:none;">Foster</tspan></text>
		</g>
		<g style="stroke:none;">
			<path style="fill:#FFFFFF;stroke:#000000;" d="M43.471,224.864H2.416v92.604v13.368h26.736v-11.457l20.049-0.958v-46.779h-5.73v-46.779z"/>
			<text transform="matrix(1 0 0 1 8.8301 281.3687)"><tspan x="0" y="0">Golden</tspan><tspan x="2.876" y="12">Valley</tspan></text>
		</g>
		<g style="stroke:none;">
			<path style="fill:#FFFFFF;stroke:#000000;" d="M765.231,178.084l-62.054,0.951h-42.963l-2.866-70.649h80.193v3.818v4.774l7.643,8.597l1.902,14.321l18.145,38.188z"/>
			<text transform="matrix(1 0 0 1 690.2275 140.8467)"><tspan x="0" y="0">Grand</tspan><tspan x="1.396" y="12">Forks</tspan></text>
		</g>
		<g>
			<path style="fill:#FFFFFF;" d="M210.546,318.422l4.772,0.958l1.906,44.872h3.824v10.499v21.004l15.272-2.861l2.867,5.725l33.414,0.956l18.138-7.637l3.819-6.684l6.684-1.908l15.276-16.23l5.726-1.912v-13.365l-26.731,0.956v-34.372l-44.872-0.954V306.97h-40.095
				v11.452z"/>
			<text transform="matrix(1 0 0 1 247.6831 356.6118)"><tspan x="0" y="0" style="stroke:none;">Grant</tspan></text>
		</g>
		<g>
			<path style="fill:#FFFFFF;" d="M593.385,189.539l-0.956-11.454h57.284l1.906,58.233h-55.372v-11.454h-1.912l-0.95-35.325z"/>
			<text transform="matrix(1 0 0 1 605.3613 207.6763)"><tspan x="0" y="0" style="stroke:none;">Griggs</tspan></text>
		</g>
		<g>
			<path style="fill:#FFFFFF;" d="M123.666,318.422h86.881l4.772,0.958l1.906,44.872h3.824v10.499l-52.509,0.955l-0.957-10.503l-43.917-0.951v-45.83z"/>
			<text transform="matrix(1 0 0 1 153.0249 345.1567)"><tspan x="0" y="0" style="stroke:none;">Hettinger</tspan></text>
		</g>
		<g>
			<path style="fill:#FFFFFF;" d="M421.537,224.864l3.818,92.604h18.137h48.691l-2.866-92.604h-60.145h-7.636z"/>
			<text transform="matrix(1 0 0 1 438.5898 267.8252)"><tspan x="0" y="0" style="stroke:none;">Kidder</tspan></text>
		</g>
		<g>
			<path style="fill:#FFFFFF;" d="M535.145,363.295h3.818l104.065,0.956l0.951-45.83h-43.915l-63.962-0.954l-0.958,45.827z"/>
			<text transform="matrix(1 0 0 1 568.4385 344.2017)"><tspan x="0" y="0" style="stroke:none;">La Moure</tspan></text>
		</g>
		<g>
			<path style="fill:#FFFFFF;" d="M443.492,317.468v46.783l4.774-0.956h86.878l0.958-45.827h-43.919h-48.691z"/>
			<text transform="matrix(1 0 0 1 475.4131 342.2905)"><tspan x="0" y="0" style="stroke:none;">Logan</tspan></text>
		</g>
		<g>
			<path style="fill:#FFFFFF;" d="M319.381,74.017V62.562V51.104l70.647-0.955l-0.955,13.37l14.319-0.958v22.913h3.826l0.949,44.874h3.82l0.952,24.818H371.89h-40.098l-1.907-23.869h-4.773l-0.956-45.824h-4.774V74.017z"/>
			<text transform="matrix(1 0 0 1 343.2974 99.7949)"><tspan x="0" y="0" style="stroke:none;">McHenry</tspan></text>
		</g>
		<g>
			<path style="fill:#FFFFFF;" d="M448.267,363.295v46.781h15.278h76.375l-0.957-46.781h-3.818h-86.878z"/>
			<text transform="matrix(1 0 0 1 468.083 383.3452)"><tspan x="0" y="0" style="stroke:none;">McIntosh</tspan></text>
		</g>
		<g>
			<path style="fill:#FFFFFF;" d="M153.263,154.217l0.956-9.548l7.635-6.687l-13.365-13.364h-7.641v-5.728l-8.592-1.912l-35.32-0.952l-7.64,2.864l-3.818,12.407l-23.868,3.822l-14.32-16.229l-9.548,1.912l-5.73,9.546l-16.226,12.409l-14.32-4.774v79.24l0.95,7.641
				h41.055l60.146,0.956v-45.83l49.646-0.955v-24.818z"/>
			<text transform="matrix(1 0 0 1 37.7456 173.3115)"><tspan x="0" y="0" style="stroke:none;">McKenzie</tspan></text>
		</g>
		<g>
			<path style="fill:#FFFFFF;" d="M371.89,155.167h-40.098h-98.333l-52.51,0.956l-0.956,9.547l9.548-2.861l4.773,9.545l-1.906,13.363l6.681,5.731h13.364l15.275,10.503l53.465-7.64l4.774,3.818l-5.728,5.728l8.591,24.823l10.503,5.73l17.186-5.73l10.497,4.773
				l4.776,14.322l21.96,0.956V225.82l9.548-0.956v-45.828l8.59-0.951v-22.917z"/>
			<text transform="matrix(1 0 0 1 276.5718 182.6538)"><tspan x="0" y="0" style="stroke:none;">McLean</tspan></text>
		</g>
		<g>
			<path style="fill:#FFFFFF;" d="M205.771,267.825v3.818h3.818h37.232v-34.371l52.511-2.862l-10.503-5.73l-8.591-24.823l5.728-5.728l-4.774-3.818l-53.465,7.64l-15.275-10.503h-13.364v33.415l5.728,0.956l0.956,42.005z"/>
			<text transform="matrix(1 0 0 1 227.4482 222.9526)"><tspan x="0" y="0" style="stroke:none;">Mercer</tspan></text>
		</g>
		<g>
			<path style="fill:#FFFFFF;" d="M246.822,271.643H209.59l0.957,35.327h40.095v10.499l44.872,0.954v34.372l26.731-0.956v13.365l11.458-14.32h11.458l27.686-5.726l-1.911-7.639l3.819-10.503l-8.593-8.593l-5.728-6.68l-5.725,1.907l-8.596-13.364l0.955-4.776
				l-10.502-14.318l-0.95-9.548h-88.792z"/>
			<text transform="matrix(1 0 0 1 287.5889 303.1475)"><tspan x="0" y="0" style="stroke:none;">Morton</tspan></text>
		</g>
		<g>
			<path style="fill:#FFFFFF;" d="M195.271,62.562l-68.742-0.955v23.868h5.729v31.504l8.592,1.912v5.728h7.641l13.365,13.364l-7.635,6.687l-0.956,9.548l8.591,9.545l13.365,4.774l4.773-2.867l0.956-9.547l52.51-0.956v-22.912h-4.773l-0.958-46.78h-4.772V62.562
				h-27.685z"/>
			<text transform="matrix(1 0 0 1 160.3843 110.2983)"><tspan x="0" y="0" style="stroke:none;">Mountrail</tspan></text>
		</g>
		<g>
			<path style="fill:#FFFFFF;" d="M657.349,108.387h-42.963h-14.321l0.959,22.912H590.52l-0.958,13.371v9.548l0.958,23.867h1.909h57.284l10.502,0.951l-2.866-70.649z"/>
			<text transform="matrix(1 0 0 1 610.2803 146.5757)"><tspan x="0" y="0" style="stroke:none;">Nelson</tspan></text>
		</g>
		<g>
			<path style="fill:#FFFFFF;" d="M299.333,234.411l-52.511,2.862v34.371h88.792l4.772-9.546l-6.685-5.729l-1.911-8.592l-4.776-14.322l-10.497-4.773l-17.186,5.73z"/>
			<text transform="matrix(1 0 0 1 280.5459 256.3677)"><tspan x="0" y="0" style="stroke:none;">Oliver</tspan></text>
		</g>
		<g>
			<path style="fill:#FFFFFF;" d="M737.542,61.607l-1.906-4.772l6.679-11.46l-9.548-19.094l-5.723-25.773h-74.47l2.865,61.099h82.103z"/>
			<text transform="matrix(1 0 0 1 676.7568 34.8765)"><tspan x="0" y="0" style="stroke:none;">Pembina</tspan></text>
		</g>
		<g>
			<path style="fill:#FFFFFF;" d="M403.393,62.562h14.324h68.737v21.958l-37.229,1.912v44.867h3.818v23.869h-27.688H412.94l-0.952-24.818h-3.82l-0.949-44.874h-3.826V62.562z"/>
			<text transform="matrix(1 0 0 1 415.4717 106.4805)"><tspan x="0" y="0" style="stroke:none;">Pierce</tspan></text>
		</g>
		<g>
			<path style="fill:#FFFFFF;" d="M542.78,61.607h69.696l1.909,46.78h-14.321l0.959,22.912H590.52l-0.958,13.371l-6.678,0.95l-5.731-1.906l-4.772-7.641l-10.503,5.73l-2.864-0.956l2.864-7.634l-1.905-4.775h-3.824l-5.725,4.775h-6.686l-5.728,3.816l-0.955-6.68
				l-5.725-0.957v-9.547l-14.322-4.772l0.95-30.554l24.822,0.956V61.607z"/>
			<text transform="matrix(1 0 0 1 545.4502 102.6582)"><tspan x="0" y="0" style="stroke:none;">Ramsey</tspan></text>
		</g>
		<g>
			<path style="fill:#FFFFFF;" d="M643.979,318.422l-0.951,45.83h2.865h78.284l-0.958-45.83l-42.962-0.954l-36.278,0.954z"/>
			<text transform="matrix(1 0 0 1 666.6582 349.4146)"><tspan x="0" y="0" style="stroke:none;">Ransom</tspan></text>
		</g>
		<g>
			<path style="fill:#FFFFFF;" d="M218.18,28.192v12.41h18.141v33.415h83.061V62.562h-41.05V38.695h-3.822l-0.951-37.232L218.18,2.414v25.778z"/>
			<text transform="matrix(1 0 0 1 231.6997 34.4746)"><tspan x="0" y="0" style="stroke:none;">Renville</tspan></text>
		</g>
		<g>
			<path style="fill:#FFFFFF;" d="M799.597,409.12h-70.648l0.957-5.728l-3.817-0.952v-37.237l-1.91-0.951l-0.958-45.83l53.468-0.954l7.641,24.822l12.406,16.232l3.819,39.144l-0.957,11.453z"/>
			<text transform="matrix(1 0 0 1 746.7275 372.8433)"><tspan x="0" y="0" style="stroke:none;">Richland</tspan></text>
		</g>
		<g>
			<path style="fill:#FFFFFF;" d="M417.717,62.562V38.695h-3.819l-1.909-37.232h70.649l3.816,61.099h-68.737z"/>
			<text transform="matrix(1 0 0 1 428.6064 37.7407)"><tspan x="0" y="0" style="stroke:none;">Rolette</tspan></text>
		</g>
		<g>
			<path style="fill:#FFFFFF;" d="M724.178,364.251h-78.284l0.952,45.825h2.867l79.235-0.957l0.957-5.728l-3.817-0.952v-37.237l-1.91-0.951z"/>
			<text transform="matrix(1 0 0 1 668.4775 387.1646)"><tspan x="0" y="0" style="stroke:none;">Sargent</tspan></text>
		</g>
		<g>
			<path style="fill:#FFFFFF;" d="M412.94,155.167h12.415l-0.956,21.962l4.773,0.955v46.779h-7.636H363.3v-45.828l8.59-0.951v-22.917h41.051z"/>
			<text transform="matrix(1 0 0 1 379.562 194.4624)"><tspan x="0" y="0" style="stroke:none;">Sheridan</tspan></text>
		</g>
		<g>
			<path style="fill:#FFFFFF;" d="M322.244,365.203l-5.726,1.912l-15.276,16.23l-6.684,1.908l-3.819,6.684l-18.138,7.637l-33.414-0.956l-2.867-5.725l-15.272,2.861v14.322h160.389l-8.592-10.503l-4.773-18.14l7.635-10.502l-2.862-25.775l-27.686,5.726h-11.458
				l-11.458,14.32z"/>
			<text transform="matrix(1 0 0 1 323.1069 390.0259)"><tspan x="0" y="0" style="stroke:none;">Sioux</tspan></text>
		</g>
		<g>
			<path style="fill:#FFFFFF;" d="M49.201,318.422l-20.049,0.958v11.457H2.416v35.323l112.659-0.957l8.591-0.951v-45.83H89.296H49.201z"/>
			<text transform="matrix(1 0 0 1 53.5962 344.2017)"><tspan x="0" y="0" style="stroke:none;">Slope</tspan></text>
		</g>
		<g>
			<path style="fill:#FFFFFF;" d="M89.296,318.422h34.369h86.881V306.97l-0.957-35.327h-3.818v-3.818l-41.055,0.956v3.816h-52.508H89.296v45.824z"/>
			<text transform="matrix(1 0 0 1 133.9526 294.5552)"><tspan x="0" y="0" style="stroke:none;">Stark</tspan></text>
		</g>
		<g>
			<path style="fill:#FFFFFF;" d="M649.713,178.084l10.502,0.951h42.963l2.86,58.237h-26.729l-27.689-0.955l-1.906-58.233z"/>
			<text transform="matrix(1 0 0 1 663.5947 208.6309)"><tspan x="0" y="0" style="stroke:none;">Steele</tspan></text>
		</g>
		<g>
			<path style="fill:#FFFFFF;" d="M489.317,224.864l2.866,92.604h43.919l63.962,0.954l-3.817-82.104v-11.454h-1.912l-84.012-0.956l-21.006,0.956z"/>
			<text transform="matrix(1 0 0 1 521.6592 275.4619)"><tspan x="0" y="0" style="stroke:none;">Stutsman</tspan></text>
		</g>
		<g>
			<path style="fill:#FFFFFF;" d="M486.454,62.562l-3.816-61.099l56.325-0.955l3.817,61.099v23.868l-24.822-0.956h-31.504V62.562z"/>
			<text transform="matrix(1 0 0 1 496.1162 53.9702)"><tspan x="0" y="0" style="stroke:none;">Towner</tspan></text>
		</g>
		<g>
			<path style="fill:#FFFFFF;" d="M770.957,235.365l-64.919,1.908l-2.86-58.237l62.054-0.951l3.818,16.227v6.684l1.907,14.32v20.049z"/>
			<text transform="matrix(1 0 0 1 725.9424 208.6309)"><tspan x="0" y="0" style="stroke:none;">Traill</tspan></text>
		</g>
		<g>
			<path style="fill:#FFFFFF;" d="M737.542,108.387h-80.193h-42.963l-1.909-46.78h42.963h82.103v12.41l-0.953,11.458l0.953,5.729v17.183z"/>
			<text transform="matrix(1 0 0 1 653.1875 87.3862)"><tspan x="0" y="0" style="stroke:none;">Walsh</tspan></text>
		</g>
		<g>
			<path style="fill:#FFFFFF;" d="M218.18,28.192v12.41h18.141v33.415h83.061v11.458h4.774l0.956,45.824h4.773l1.907,23.869h-98.333v-22.912h-4.773l-0.958-46.78h-4.772V62.562h-27.685l0.955-21.959l7.635-0.951V28.192h14.32z"/>
			<text transform="matrix(1 0 0 1 259.8848 111.2549)"><tspan x="0" y="0" style="stroke:none;">Ward</tspan></text>
		</g>
		<g>
			<path style="fill:#FFFFFF;" d="M425.355,155.167h27.688h55.369l-0.953,23.869h2.864v11.458v33.415l-21.006,0.956h-60.145v-46.779l-4.773-0.955l0.956-21.962z"/>
			<text transform="matrix(1 0 0 1 455.2178 196.1426)"><tspan x="0" y="0" style="stroke:none;">Wells</tspan></text>
		</g>
		<g>
			<path style="fill:#FFFFFF;" d="M125.578,51.104H1.466l0.95,32.46l-0.95,54.418l14.32,4.774l16.226-12.409l5.73-9.546l9.548-1.912l14.32,16.229l23.868-3.822l3.818-12.407l7.64-2.864l35.32,0.952V85.475h-5.729V61.607l-0.951-10.502z"/>
			<text transform="matrix(1 0 0 1 39.1836 91.2041)"><tspan x="0" y="0" style="stroke:none;">Williams</tspan></text>
		</g>
	</g>
</svg>
