<?xml version="1.0" encoding="iso-8859-1"?>
<!DOCTYPE svg >

<svg  width="801.192pt" height="527.664pt" viewBox="0 0 801.192 527.664" xml:space="preserve">
	<g id="Layer_x0020_1" style="fill-rule:nonzero;clip-rule:nonzero;stroke:#000000;stroke-miterlimit:4; font-family:'Arial'; font-size:10;">
		<g>
			<path style="fill:#FFFFFF;" d="M722.234,141.397h48.106l-11.579,30.29l-5.345,8.018l-8.91,4.452l-4.455,8.91l-6.235,14.258l-5.345,8.018l-3.564,13.361l3.564,9.803l-29.401,0.89l0.893-9.8l-11.584-7.13h-37.416l-3.563,0.89l-21.383,21.38l-25.835,0.896
				l6.235-25.835h4.456l7.127-16.927l-6.235-7.13l-3.565,1.782l-8.91-2.669l-0.89-7.13l5.345,1.785l8.908-5.35h7.127l-1.779-10.69l7.127-4.455l-0.89-11.58l14.255-11.58l8.907,7.125l6.235-0.89l8.02-9.803l9.8,9.803h20.489l0.891-10.69h29.399z"/>
			<text transform="matrix(1 0 0 1 653.9385 193.0664)"><tspan x="0" y="0" style="stroke:none;">Baker</tspan></text>
		</g>
		<g>
			<path style="fill:#FFFFFF;" d="M94.156,189.506l41.872,0.891l7.127,8.907l-16.038,8.021l5.348,16.031l-4.455,8.019l4.455,10.692l-54.347,1.784v-3.57l-2.672-0.885v-1.784l6.237-0.89l0.89-10.69h11.583v-36.525z"/>
			<text transform="matrix(1 0 0 1 96.126 222.4658)"><tspan x="0" y="0" style="stroke:none;">Benton</tspan></text>
		</g>
		<g>
			<path style="fill:#FFFFFF;" d="M177.9,101.307h8.019l0.889-2.675l1.785-0.893l60.578-0.887h20.491l11.582,9.797l0.891,8.908l3.564,1.785l-1.782,4.455l1.782,2.67l-8.909,6.238l8.018,8.018l1.783,4.455l-12.474,5.345l-2.672,4.455l1.784,7.125l8.907,7.13
				l-5.345,2.67h-63.254l-12.472-6.233l-27.618-26.727l3.565-13.362l-8.91-1.783l-1.779-6.24h1.779v-4.453h3.563l1.782,1.783h5.345l-0.89-11.58z"/>
			<text transform="matrix(1 0 0 1 209.2979 129.8145)"><tspan x="0" y="0" style="stroke:none;">Clackamas</tspan></text>
		</g>
		<g>
			<path style="fill:#FFFFFF;" d="M58.52,59.433l58.801-0.89l-1.785-47.217l-3.562-3.563L109.3,5.981l-0.89-5.348l-7.127,0.893l-3.565,3.562L85.247,6.871l-4.455-4.454l-8.016,1.781l5.342,6.237l-2.672,0.89L69.21,7.763l-11.582-7.13l-1.781,1.784l3.563,4.454
				l5.345,17.819l-8.017,8.908l3.563,9.802L58.52,59.433z"/>
			<text transform="matrix(1 0 0 1 73.6396 34.4907)"><tspan x="0" y="0" style="stroke:none;">Clatsop</tspan></text>
		</g>
		<g>
			<path style="fill:#FFFFFF;" d="M117.32,58.543h32.069v2.675l11.583,4.454h12.472l-0.89-16.93l-1.781-11.58l-9.801-16.926L134.245,7.763l-3.563,1.78l-2.672,0.892l-4.455,1.783l-4.454,0.887l-3.566-1.78l1.785,47.217z"/>
			<text transform="matrix(1 0 0 1 121.1416 39.8315)"><tspan x="0" y="0" style="stroke:none;">Columbia</tspan></text>
		</g>
		<g>
			<path style="fill:#FFFFFF;" d="M8.629,408.665h18.709l9.8,8.91l2.672,26.724l12.473-1.78l8.017-10.695l10.691-5.339l0.891-21.388h5.347V393.52l6.235-2.673l0.89-4.451l-2.672-0.896l0.89-13.359l-5.342-1.784l-0.892-21.384l-5.346,0.894v-9.8l-5.345-1.786
				l-0.892-9.795l-29.399-0.892l-10.69,28.508l-5.345,4.455l-1.783,3.563l1.783,5.346l-10.692,39.2z"/>
			<text transform="matrix(1 0 0 1 36.1572 398.8643)"><tspan x="0" y="0" style="stroke:none;">Coos</tspan></text>
		</g>
		<g>
			<path style="fill:#FFFFFF;" d="M486.148,283.049l-12.472,0.892v32.069l-11.582-0.89l-36.527,0.89v-9.8l-12.472-1.779l-0.893-9.8l-35.635,0.89v-11.58l-23.162-0.892l-0.892-21.383h-10.691l-1.779-32.07l11.58-0.893l0.891-9.803h15.145l0.892-10.687h43.652
				l0.893,16.034l35.636-0.893v7.131h13.363l0.89,9.794h22.272l0.892,42.769z"/>
			<text transform="matrix(1 0 0 1 405.9956 260.7754)"><tspan x="0" y="0" style="stroke:none;">Crook</tspan></text>
		</g>
		<g>
			<path style="fill:#FFFFFF;" d="M8.629,408.665l-8.018,13.364l4.455,5.34l0.893,6.24l4.453,2.67l1.782,4.455l4.455,4.455l2.672,12.475l-3.565,8.91v13.362l-1.78,5.343l2.672,4.455v4.454l1.781,3.565l6.236,16.927l9.8,8.907l0.89,3.565l33.854-0.895l1.782-13.36
				l-2.671-1.779l3.563-4.455l-1.781-18.711l-3.565-3.562l-17.817-1.783l5.346-16.93h9.8l7.126-13.36v-6.239l9.8-14.256l-9.8-5.339l-10.691,5.339l-8.017,10.695l-12.473,1.78l-2.672-26.724l-9.8-8.91H8.629z"/>
			<text transform="matrix(1 0 0 1 28.4805 458.5518)"><tspan x="0" y="0" style="stroke:none;">Curry</tspan></text>
		</g>
		<g>
			<path style="fill:#FFFFFF;" d="M340.043,229.596l1.779,32.07h10.691l0.892,21.383l23.162,0.892v11.58l35.635-0.89l0.893,9.8l12.472,1.779v9.8l36.527-0.89v11.58H318.661h-67.707l3.563-2.67l2.672-7.13l-5.345-6.235l-0.89-10.689l4.455-2.673l-0.893-4.452
				l7.127-1.785l8.018-8.909v-8.91l5.347-8.016l-2.674-2.675l2.674-13.365l-2.674-2.669l-5.347-2.671v-15.147l73.056,0.893z"/>
			<text transform="matrix(1 0 0 1 291.4727 281.2656)"><tspan x="0" y="0" style="stroke:none;">Deschutes</tspan></text>
		</g>
		<g>
			<path style="fill:#FFFFFF;" d="M237.59,348.972l7.126,5.348l9.8,16.926l-7.129,4.455l-4.454,18.709l-19.6,0.893v8.018h-10.69l-7.127,8.018l-8.909,0.891l-21.381,13.364l-4.454,6.231l-32.966,2.676l-7.125,7.125l-17.817-2.67H96.829v-2.675L79.9,435.392
				l0.892-3.568l-9.8-5.339l0.891-21.388h5.347V393.52l6.235-2.673l0.89-4.451l-2.672-0.896l0.89-13.359l-5.342-1.784l-0.892-21.384l-5.346,0.894v-9.8l-5.345-1.786l-0.892-9.795l-29.399-0.892l1.783-7.13l1.782-2.673l-0.893-3.56l2.674-12.473l-0.891-4.455h17.817
				l13.364-10.692h11.581l4.455,3.563l18.71,13.365h11.583l0.889,2.672l20.491,0.89v20.493l3.562,8.91H177.9l0.89,12.469l49.893-1.782l4.453,3.568l4.455-1.786z"/>
			<text transform="matrix(1 0 0 1 124.8105 377.4854)"><tspan x="0" y="0" style="stroke:none;">Douglas</tspan></text>
		</g>
		<g>
			<path style="fill:#FFFFFF;" d="M401.514,145.852l-2.674-1.782v-2.672l6.235-1.783l-10.69-15.147v-3.562l4.455-25.835h8.91l-1.783-3.563h7.128l-4.456-7.129v-4.455l-23.163-16.926l3.564-1.779l5.344,0.887l5.346,3.567l5.344,1.779l23.164-5.346l8.019-5.342
				l7.127-1.783l6.234-2.672v8.91l0.894,25.835l-2.673,2.67l0.892,31.182l12.471,0.892l0.893,9.8l12.472,0.89v9.797l-2.675,0.893v1.783l-70.378,0.892z"/>
			<text transform="matrix(1 0 0 1 408.5059 117.3418)"><tspan x="0" y="0" style="stroke:none;">Gilliam</tspan></text>
		</g>
		<g>
			<path style="fill:#FFFFFF;" d="M483.475,153.87l49.893-0.893h64.141l26.73,4.455l0.89,11.58l-7.127,4.455l1.779,10.69h-7.127l-8.908,5.35l-5.345-1.785l0.89,7.13l8.91,2.669l3.565-1.782l6.235,7.13l-7.127,16.927h-4.456l-6.235,25.835l25.835-0.896v28.511
				h-36.524v-1.781h-22.272l0.888,11.584h-58.794h-23.166l-0.892-42.769v-17.814l0.892-49l-3.563,0.89l0.89-14.255v-6.232z"/>
			<text transform="matrix(1 0 0 1 532.4443 212.6709)"><tspan x="0" y="0" style="stroke:none;">Grant</tspan></text>
		</g>
		<g>
			<path style="fill:#FFFFFF;" d="M513.767,525.368l5.345,0.891l110.472-0.891l-3.565-252.122h-36.524v-1.781h-22.272l0.888,11.584h-58.794h-23.166l-12.472,0.892v32.069l-11.582-0.89v11.58l-4.455,107.799l56.127-0.89v91.759z"/>
			<text transform="matrix(1 0 0 1 537.7412 391.7344)"><tspan x="0" y="0" style="stroke:none;">Harney</tspan></text>
		</g>
		<g style="stroke:none;">
			<path style="fill:#FFFFFF;stroke:#000000;" d="M269.661,96.853l-9.8-9.8l0.891-2.675l-2.673-11.58l8.908-6.238l31.181-0.887l10.693,1.779l-0.893,21.381l-3.562,0.891l-1.783,32.965l-18.708-0.891l1.782-4.455l-3.564-1.785l-0.891-8.908l-11.582-9.797z"/>
			<text transform="matrix(1 0 0 1 269.2896 80.8149)"><tspan x="0" y="0">Hood</tspan><tspan x="0.286" y="12">River</tspan></text>
		</g>
		<g>
			<path style="fill:#FFFFFF;" d="M128.01,526.259h94.433l0.892-122.939h-10.69l-7.127,8.018l-8.909,0.891l-21.381,13.364l-4.454,6.231l-32.966,2.676l-7.125,7.125l-2.672,84.635z"/>
			<text transform="matrix(1 0 0 1 155.1021 473.6982)"><tspan x="0" y="0" style="stroke:none;">Jackson</tspan></text>
		</g>
		<g>
			<path style="fill:#FFFFFF;" d="M275.008,175.249l138.088,0.893l0.89,2.67l-2.67,0.893l1.781,4.452l-0.893,24.058h-43.652l-0.892,10.687h-15.145l-0.891,9.803l-11.58,0.893l-73.056-0.893l-0.889-12.472l6.235-10.695l-0.892-11.577l3.565-18.71z"/>
			<text transform="matrix(1 0 0 1 307.0923 205.5361)"><tspan x="0" y="0" style="stroke:none;">Jefferson</tspan></text>
		</g>
		<g>
			<path style="fill:#FFFFFF;" d="M69.21,526.259h29.4h29.4l2.672-84.635l-17.817-2.67H96.829v-2.675L79.9,435.392l0.892-3.568l-9.8,14.256v6.239l-7.126,13.36h-9.8l-5.346,16.93l17.817,1.783l3.565,3.562l1.781,18.711l-3.563,4.455l2.671,1.779l-1.782,13.36z"/>
			<text transform="matrix(1 0 0 1 72.2524 473.6982)"><tspan x="0" y="0" style="stroke:none;">Josephine</tspan></text>
		</g>
		<g>
			<path style="fill:#FFFFFF;" d="M222.443,526.259h81.963l57.909-2.671l0.89-89.979h-46.327l1.782-106.909h-67.707l-16.927,8.018l4.452,4.455l-1.78,8.017l0.891,1.782l7.126,5.348l9.8,16.926l-7.129,4.455l-4.454,18.709l-19.6,0.893v8.018l-0.892,122.939z"/>
			<text transform="matrix(1 0 0 1 262.0093 461.2285)"><tspan x="0" y="0" style="stroke:none;">Klamath</tspan></text>
		</g>
		<g>
			<path style="fill:#FFFFFF;" d="M362.315,523.588l88.197,1.78h63.254v-91.759l-56.127,0.89l4.455-107.799H318.661l-1.782,106.909h46.327l-0.89,89.979z"/>
			<text transform="matrix(1 0 0 1 383.543 389.9541)"><tspan x="0" y="0" style="stroke:none;">Lake</tspan></text>
		</g>
		<g>
			<path style="fill:#FFFFFF;" d="M78.118,243.851l54.347-1.784l5.342,12.472l23.165-0.893l0.892-7.124l4.456-3.563h12.469l30.29,9.8l2.675-2.676l3.563,3.563l3.563-1.776l0.891-4.455l52.563-0.893l2.674,2.669l-2.674,13.365l2.674,2.675l-5.347,8.016v8.91
				l-8.018,8.909l-7.127,1.785l0.893,4.452l-4.455,2.673l0.89,10.689l5.345,6.235l-2.672,7.13l-3.563,2.67l-16.927,8.018l4.452,4.455l-1.78,8.017l0.891,1.782l-4.455,1.786l-4.453-3.568l-49.893,1.782l-0.89-12.469h-35.638l-3.562-8.91V307.1l-20.491-0.89
				l-0.889-2.672h-11.583l-18.71-13.365l-4.455-3.563H70.992l-13.364,10.692H39.811l4.454-39.202l2.674-12.47l31.18-1.78z"/>
			<text transform="matrix(1 0 0 1 159.6504 290.1729)"><tspan x="0" y="0" style="stroke:none;">Lane</tspan></text>
		</g>
		<g>
			<path style="fill:#FFFFFF;" d="M81.683,148.522v37.419l2.672,0.887v1.786l9.8,0.892v36.525H82.573l-0.89,10.69l-6.237,0.89v1.784l2.672,0.885v3.57l-31.18,1.78l0.891-16.035l2.674-4.454l-0.892-10.696l0.892-17.814l-0.892-4.455l1.781-4.455l-0.889-7.125
				l5.344-23.165l-0.89-4.455v-3.562l26.726-0.893z"/>
			<text transform="matrix(1 0 0 1 56.0386 208.2139)"><tspan x="0" y="0" style="stroke:none;">Lincoln</tspan></text>
		</g>
		<g>
			<path style="fill:#FFFFFF;" d="M266.987,228.703l-0.889-12.472l6.235-10.695l-0.892-11.577l-34.743-6.237l-5.348,3.562l-12.471-8.017l-27.619-3.563h-11.58l-11.583,2.673l-12.475,10.689h-2.67l-9.799-8.015l-3.564,0.89l-3.563,4.456l7.127,8.907l-16.038,8.021
				l5.348,16.031l-4.455,8.019l4.455,10.692l5.342,12.472l23.165-0.893l0.892-7.124l4.456-3.563h12.469l30.29,9.8l2.675-2.676l3.563,3.563l3.563-1.776l0.891-4.455l52.563-0.893l-5.347-2.671v-15.147z"/>
			<text transform="matrix(1 0 0 1 189.8276 218.0107)"><tspan x="0" y="0" style="stroke:none;">Linn</tspan></text>
		</g>
		<g>
			<path style="fill:#FFFFFF;" d="M629.583,525.368H746.29V317.79l-0.891-14.252l5.346-11.58l3.562-15.147l-1.782-9.8l5.345-8.018l-0.89-7.124l-29.397-9.803l0.89-3.561l-29.401,0.89l0.893-9.8l-11.584-7.13h-37.416l-3.563,0.89l-21.383,21.38v28.511l3.565,252.122z
				"/>
			<text transform="matrix(1 0 0 1 673.8799 311.5547)"><tspan x="0" y="0" style="stroke:none;">Malheur</tspan></text>
		</g>
		<g>
			<path style="fill:#FFFFFF;" d="M275.008,175.249l2.674-3.563l-0.893-1.785h-63.254l-12.472-6.233l-27.618-26.727l3.565-13.362l-8.91-1.783l-3.565,0.891l-8.91-2.675l-7.125,8.91l4.455,11.585l-6.237,4.453l1.783,12.472l-14.255,16.925l8.91,2.675l-4.455,5.346
				l0.891,3.564l3.564-0.89l9.799,8.015h2.67l12.475-10.689l11.583-2.673h11.58l27.619,3.563l12.471,8.017l5.348-3.562l34.743,6.237l3.565-18.71z"/>
			<text transform="matrix(1 0 0 1 158.1729 166.334)"><tspan x="0" y="0" style="stroke:none;">Marion</tspan></text>
		</g>
		<g>
			<path style="fill:#FFFFFF;" d="M471.892,144.959v-1.783l2.675-0.893v-9.797l-12.472-0.89l-0.893-9.8l-12.471-0.892l-0.892-31.182l2.673-2.67l-0.894-25.835v-8.91l13.365-2.675l3.565-0.891l12.472-1.779l5.345-2.676l5.346-5.341h4.452l5.348,1.779l6.234-0.893
				l1.783,37.421l17.817,1.783v8.909l8.91,0.888l0.89,52.565l-2.673,0.887l0.894,10.692l-49.893,0.893h-11.583v-8.91z"/>
			<text transform="matrix(1 0 0 1 464.1338 95.0698)"><tspan x="0" y="0" style="stroke:none;">Morrow</tspan></text>
		</g>
		<g>
			<path style="fill:#FFFFFF;" d="M160.973,65.672h12.472l5.345,11.581l40.982,9.8l5.345-0.893l32.962-13.362l2.673,11.58l-0.891,2.675l9.8,9.8H249.17l-60.578,0.887l-1.785,0.893l-0.889,2.675H177.9V90.615L160.973,74.58v-8.908z"/>
			<text transform="matrix(1 0 0 1 179.8853 94.1748)"><tspan x="0" y="0" style="stroke:none;">Multnomah</tspan></text>
		</g>
		<g>
			<path style="fill:#FFFFFF;" d="M146.717,144.959l1.783,12.472l-14.255,16.925l8.91,2.675l-4.455,5.346l0.891,3.564l-3.563,4.456l-41.872-0.891l-9.8-0.892v-1.786l-2.672-0.887v-37.419v-2.67l65.034-0.892z"/>
			<text transform="matrix(1 0.004 -0.004 1 100.5107 169.8574)"><tspan x="0" y="0" style="stroke:none;">Polk</tspan></text>
		</g>
		<g>
			<path style="fill:#FFFFFF;" d="M398.84,144.069v-2.672l6.235-1.783l-10.69-15.147v-3.562l4.455-25.835h8.91l-1.783-3.563h7.128l-4.456-7.129v-4.455l-23.163-16.926l-24.946,10.691v10.689l7.127,8.02l-2.674,10.69l-7.125,8.91l-9.8,3.56l4.454,12.478l16.926,4.452
				l2.672,11.583h26.727z"/>
			<text transform="matrix(1 0 0 1 352.2344 121.7607)"><tspan x="0" y="0" style="stroke:none;">Sherman</tspan></text>
		</g>
		<g>
			<path style="fill:#FFFFFF;" d="M107.519,102.195l-2.674-0.888l6.237-13.363l12.473-6.239l-19.6-12.47l13.365-2.676v-8.016l-58.801,0.89l5.346,10.692l-1.784,9.797l6.239,9.8v4.455l-7.127-3.563l-2.674,3.563l4.455,7.129l-3.564,8.018l1.783,7.125l-2.674,10.692
				l0.891,3.563l-4.453,18.71l26.726-0.893v-2.67h-5.345v-16.037l31.181-1.78v-25.84z"/>
			<text transform="matrix(1 0 0 1 62.2573 114.6724)"><tspan x="0" y="0" style="stroke:none;">Tillamook</tspan></text>
		</g>
		<g>
			<path style="fill:#FFFFFF;" d="M533.367,152.977l-0.894-10.692l2.673-0.887l-0.89-52.565l-8.91-0.888v-8.909l-17.817-1.783l-1.783-37.421l4.455-1.778l6.235-0.891h8.02l7.13,0.891l10.688-4.456l6.238-4.454l4.454-0.891l96.217-0.892l0.89,0.892l0.891,16.926
				v4.454l-7.128,0.893l-2.673,15.146l-4.454,0.887v26.727l-8.018,0.892l0.893,5.347h-24.057v8.907l-24.942,0.893l-0.89,10.688l4.451,8.022h10.692v13.362l2.67,0.887v10.692h-64.141z"/>
			<text transform="matrix(1 0 0 1 566.9795 83.4897)"><tspan x="0" y="0" style="stroke:none;">Umatilla</tspan></text>
		</g>
		<g>
			<path style="fill:#FFFFFF;" d="M700.854,129.814l-31.182-73.944l5.345-0.891l-1.782-9.801h-22.272v4.454l-7.128,0.893l-2.673,15.146l-4.454,0.887v26.727l-8.018,0.892l0.893,5.347h-24.057v8.907l-24.942,0.893l-0.89,10.688l4.451,8.022h10.692v13.362l2.67,0.887
				v10.692l26.73,4.455l14.255-11.58l8.907,7.125l6.235-0.89l8.02-9.803l9.8,9.803h20.489l0.891-10.69h29.399v-10.692l-21.38-0.89z"/>
			<text transform="matrix(1 0 0 1 632.5537 118.2324)"><tspan x="0" y="0" style="stroke:none;">Union</tspan></text>
		</g>
		<g>
			<path style="fill:#FFFFFF;" d="M700.854,129.814l21.38,0.89v10.692h48.106l10.692-22.272v-5.345l19.598-37.419l-10.689-21.38l-8.015-1.785l-4.455-4.454l-4.452,3.566l-3.568-5.345l-14.255-18.71l-54.342-0.892l-15.147-0.892l-35.635,1.784l0.891,16.926h22.272
				l1.782,9.801l-5.345,0.891l31.182,73.944z"/>
			<text transform="matrix(1 0 0 1 706.1982 81.7051)"><tspan x="0" y="0" style="stroke:none;">Wallowa</tspan></text>
		</g>
		<g>
			<path style="fill:#FFFFFF;" d="M283.916,121.797l18.708,0.891l1.783-32.965l3.562-0.891l0.893-21.381l5.345-0.892l4.455,1.784l5.345,1.782l6.235,2.672l3.565,5.345h4.453l6.24-5.345h10.688l5.345,0.891v10.689l7.127,8.02l-2.674,10.69l-7.125,8.91l-9.8,3.56
				l4.454,12.478l16.926,4.452l2.672,11.583h26.727l2.674,1.782l2.674,15.143l8.908,15.147l-138.088-0.893l2.674-3.563l-0.893-1.785l5.345-2.67l-8.907-7.13l-1.784-7.125l2.672-4.455l12.474-5.345l-1.783-4.455l-8.018-8.018l8.909-6.238l-1.782-2.67z"/>
			<text transform="matrix(1 0 0 1 310.6929 145.8516)"><tspan x="0" y="0" style="stroke:none;">Wasco</tspan></text>
		</g>
		<g>
			<path style="fill:#FFFFFF;" d="M117.32,58.543h32.069v2.675l11.583,4.454v8.908L177.9,90.615v10.692l0.89,11.58h-5.345l-1.782-1.783H168.1v4.453h-1.779h-3.567v-3.56l-7.128-1.78l-6.235-5.347h-7.127l-0.89-2.675l-5.345-1.78l-18.708,0.892l-9.801,0.888
				l-2.674-0.888l6.237-13.363l12.473-6.239l-19.6-12.47l13.365-2.676v-8.016z"/>
			<text transform="matrix(1 0 0 1 116.937 92.3975)"><tspan x="0" y="0" style="stroke:none;">Washington</tspan></text>
		</g>
		<g>
			<path style="fill:#FFFFFF;" d="M413.096,176.142l-8.908-15.147l-2.674-15.143l70.378-0.892v8.91h11.583v6.232l-0.89,14.255l3.563-0.89l-0.892,49v17.814h-22.272l-0.89-9.794h-13.363v-7.131l-35.636,0.893l-0.893-16.034l0.893-24.058l-1.781-4.452l2.67-0.893
				l-0.89-2.67z"/>
			<text transform="matrix(1 0 0 1 430.1133 185.9414)"><tspan x="0" y="0" style="stroke:none;">Wheeler</tspan></text>
		</g>
		<g>
			<path style="fill:#FFFFFF;" d="M146.717,144.959l6.237-4.453l-4.455-11.585l7.125-8.91l8.91,2.675l3.565-0.891l-1.779-6.24h-3.567v-3.56l-7.128-1.78l-6.235-5.347h-7.127l-0.89-2.675l-5.345-1.78l-18.708,0.892l-9.801,0.888v25.84l-31.181,1.78v16.037h5.345
				l65.034-0.892z"/>
			<text transform="matrix(1 0 0 1 110.2046 133.377)"><tspan x="0" y="0" style="stroke:none;">Yamhill</tspan></text>
		</g>
	</g>
</svg>
