<?xml version="1.0" encoding="iso-8859-1"?>
<!DOCTYPE svg >

<svg  width="800.916pt" height="455.487pt" viewBox="0 0 800.916 455.487" xml:space="preserve">
	<g id="Layer_x0020_1" style="fill-rule:nonzero;clip-rule:nonzero;fill:#FFFFFF;stroke:#000000;stroke-miterlimit:4; font-family:'Arial'; font-size:10;">
		<path d="M215.601,64.34h55.382l-1.881,62.888h38.489v30.979l-6.569,7.51l-18.772,0.939l-17.841,15.019l-11.261-1.879l-21.593,8.447l-15.954,1.879v-69.463V64.34z"/>
		<g>
			<path d="M602.34,276.481v46h-43.177l-7.513-0.94l-0.94-57.261h50.692v11.267l0.938,0.935z"/>
			<text transform="matrix(1 0 0 1 562.9287 292.4419)"><tspan x="0" y="0" style="fill:#000000;stroke:none;">Aurora</tspan></text>
		</g>
		<g>
			<path d="M638.013,173.223h-76.035v10.327v0.941v45.992l37.549-0.937l52.569,0.937l-0.942-45.052l-1.88-12.208h-11.261z"/>
			<text transform="matrix(1 0 0 1 588.6494 202.3242)"><tspan x="0" y="0" style="fill:#000000;stroke:none;">Beadle</tspan></text>
		</g>
		<g>
			<path d="M204.334,337.496l0.938,33.794h2.813l0.938,16.902h88.24l-0.936-51.631l-91.994,0.935z"/>
			<text transform="matrix(1 0 0 1 233.0908 365.6567)"><tspan x="0" y="0" style="fill:#000000;stroke:none;">Bennett</tspan></text>
		</g>
		<g style="fill:#000000;stroke:none;">
			<path style="fill:#FFFFFF;stroke:#000000;" d="M673.68,364.722l0.939,44.116l-22.523-1.877l-13.144,12.203l-17.838-5.632l4.692-30.036l-1.873-8.452l2.813-10.322h46.934z"/>
			<text transform="matrix(1 0 0 1 640.377 385.3706)"><tspan x="0" y="0">Bon</tspan><tspan x="-8.606" y="12">Homme</tspan></text>
		</g>
		<g>
			<path d="M799.466,228.61H756.29l-28.159,0.937l-1.879-45.997l26.279,0.941l46.935-0.941v44.121v0.939z"/>
			<text transform="matrix(1 0 0 1 741.5635 208.8955)"><tspan x="0" y="0" style="fill:#000000;stroke:none;">Brookings</tspan></text>
		</g>
		<g>
			<path d="M638.013,1.444h-2.818h-76.031l0.935,45.996v45.995l76.036-0.935l0.939-45.061l0.939-45.996z"/>
			<text transform="matrix(1 0 0 1 585.3545 48.3794)"><tspan x="0" y="0" style="fill:#000000;stroke:none;">Brown</tspan></text>
		</g>
		<g>
			<path d="M550.71,264.28l0.94,57.261l-53.503,0.94l-3.759-16.899l-13.14-5.634l5.635-6.566l-1.882-6.574l12.208-11.261l-4.694-10.327l45.055-0.94h13.14z"/>
			<text transform="matrix(1 0 0 1 502.4307 298.0742)"><tspan x="0" y="0" style="fill:#000000;stroke:none;">Brule</tspan></text>
		</g>
		<g>
			<path d="M499.084,231.424h-29.096l1.874,14.081l18.774,10.324l1.879,9.39l45.055-0.94l0.939-33.796l-39.426,0.941z"/>
			<text transform="matrix(1 0 0 1 488.2998 250.1987)"><tspan x="0" y="0" style="fill:#000000;stroke:none;">Buffalo</tspan></text>
		</g>
		<g>
			<path d="M116.098,98.128H1.573v27.227v54.442l6.573,2.813l16.895-3.753l27.225-0.939h63.833l0.938-56.322l-0.938-23.467z"/>
			<text transform="matrix(1 0 0 1 49.0386 143.1865)"><tspan x="0" y="0" style="fill:#000000;stroke:none;">Butte</tspan></text>
		</g>
		<g>
			<path d="M454.966,1.444h-15.02h-65.708l7.508,3.754l13.146,25.348l-2.819,8.447l-10.327,0.939l-0.935,7.508h74.155V1.444z"/>
			<text transform="matrix(1 0 0 1 403.8062 28.6665)"><tspan x="0" y="0" style="fill:#000000;stroke:none;">Campbell</tspan></text>
		</g>
		<g>
			<path d="M551.65,321.541l-53.503,0.94v4.694l15.017,3.753l19.714,23.469l33.794,25.342l12.2,0.939l2.819,5.632l20.648,15.959l18.774,11.264l4.692-30.036l-1.873-8.452l2.813-10.322l-2.813-2.818l-63.836-22.527l-0.935-16.896l-7.513-0.94z"/>
			<text transform="matrix(1 0 0 1 557.1709 368.4771)"><tspan x="0" y="0" style="fill:#000000;stroke:none;">Charles Mix</tspan></text>
		</g>
		<g>
			<path d="M638.013,173.223v-35.667h-0.939l-0.939-32.854l49.755-0.939l0.933,33.794l2.82-0.937l-1.882,13.14l0.942,34.733l-37.549,0.94l-1.88-12.208h-11.261z"/>
			<text transform="matrix(1 0 0 1 652.6279 151.6372)"><tspan x="0" y="0" style="fill:#000000;stroke:none;">Clark</tspan></text>
		</g>
		<g>
			<path d="M760.043,375.984l-11.264,0.938h-25.347v36.61l15.02,5.632l23.467,10.327l-1.876-53.508z"/>
			<text transform="matrix(1 0 0 1 733.1416 409.7778)"><tspan x="0" y="0" style="fill:#000000;stroke:none;">Clay</tspan></text>
		</g>
		<g>
			<path d="M685.889,103.761h31.915l34.728,0.939v21.588v23.47H687.76l1.882-13.14l-2.82,0.937l-0.933-33.794z"/>
			<text transform="matrix(1 0 0 1 698.7607 130.9834)"><tspan x="0" y="0" style="fill:#000000;stroke:none;">Codington</tspan></text>
		</g>
		<g>
			<path d="M374.238,1.444H216.54l-0.939,62.896h55.382h118.276l-14.081-8.453l5.634-8.448l0.935-7.508l10.327-0.939l2.819-8.447L381.746,5.198l-7.508-3.754z"/>
			<text transform="matrix(1 0 0 1 283.0234 34.2998)"><tspan x="0" y="0" style="fill:#000000;stroke:none;">Corson</tspan></text>
		</g>
		<g>
			<path d="M132.057,298.074l-0.94,3.753l-9.387-0.94l-3.753,7.514l-7.514,0.934l0.94,16.899H0.64l0.934-3.753v-46h143.624l-13.14,21.593z"/>
			<text transform="matrix(1 0 0 1 61.0073 302.7661)"><tspan x="0" y="0" style="fill:#000000;stroke:none;">Custer</tspan></text>
		</g>
		<g>
			<path d="M641.768,275.546v45.055l-17.834,0.939l-21.594,0.94v-46l39.428-0.935z"/>
			<text transform="matrix(1 0 0 1 603.374 298.5264)"><tspan x="0" y="0" style="fill:#000000;stroke:none;">Davison</tspan></text>
		</g>
		<g>
			<path d="M637.073,47.439h63.83v2.819l15.958,0.934v34.733l0.942,17.835h-31.915l-49.755,0.939V92.5l0.939-45.061z"/>
			<text transform="matrix(1 0 0 1 675.1182 76.5415)"><tspan x="0" y="0" style="fill:#000000;stroke:none;">Day</tspan></text>
		</g>
		<g>
			<path d="M799.466,183.55l-46.935,0.941v-34.733v-23.47h46v22.533l0.935,22.527v12.201z"/>
			<text transform="matrix(1 0 0 1 763.874 162.9038)"><tspan x="0" y="0" style="fill:#000000;stroke:none;">Deuel</tspan></text>
		</g>
		<g>
			<path d="M270.982,64.34l-1.881,62.888h38.489v30.979l14.08,2.814l6.574-6.571l22.527,0.938l0.939-7.507l12.201,9.387l7.513-1.88l2.814-5.63l10.327-3.755v-6.567l-2.819-14.081l1.879-3.759l9.387,2.82l3.753-3.754l-4.693-6.573l6.572-20.653l-6.572-7.509
				l4.693-12.2l-7.507-9.385H270.982z"/>
			<text transform="matrix(1 0 0 1 320.4673 105.6401)"><tspan x="0" y="0" style="fill:#000000;stroke:none;">Dewey</tspan></text>
		</g>
		<g>
			<path d="M602.34,322.481h-43.177l0.935,16.896l63.836,22.527v-40.363l-21.594,0.94z"/>
			<text transform="matrix(1 0 0 1 575.5469 337.4956)"><tspan x="0" y="0" style="fill:#000000;stroke:none;">Douglas</tspan></text>
		</g>
		<g>
			<path d="M454.966,47.439h105.132v45.995h-90.109h-12.209l-2.813-45.995z"/>
			<text transform="matrix(1 0 0 1 476.0869 74.6597)"><tspan x="0" y="0" style="fill:#000000;stroke:none;">Edmunds</tspan></text>
		</g>
		<g>
			<path d="M111.403,326.234v61.015l-52.567,0.942H0.64v-61.958h110.764z"/>
			<text transform="matrix(1 0 0 1 46.1689 357.2095)"><tspan x="0" y="0" style="fill:#000000;stroke:none;">Fall River</tspan></text>
		</g>
		<g>
			<path d="M469.988,93.435h90.109v45.06h-61.95h-27.226l-0.934-45.06z"/>
			<text transform="matrix(1 0 0 1 492.4893 119.7197)"><tspan x="0" y="0" style="fill:#000000;stroke:none;">Faulk</tspan></text>
		</g>
		<g>
			<path d="M798.531,126.289V88.742v-7.508l-56.32,0.939l-1.882,3.753h-23.468l0.942,17.835l34.728,0.939v21.588h46z"/>
			<text transform="matrix(1 0 0 1 755.0459 100.9468)"><tspan x="0" y="0" style="fill:#000000;stroke:none;">Grant</tspan></text>
		</g>
		<g>
			<path d="M473.74,323.415l0.939,63.835h28.162l78.85-0.939l-2.819-5.632l-12.2-0.939l-33.794-25.342l-19.714-23.469l-15.017-3.753v-4.694l-24.407,0.934z"/>
			<text transform="matrix(1 0 0 1 496.042 369.4165)"><tspan x="0" y="0" style="fill:#000000;stroke:none;">Gregory</tspan></text>
		</g>
		<g>
			<path d="M215.601,190.124l15.954-1.879l21.593-8.447l11.261,1.879l17.841-15.019l18.772-0.939l6.569-7.51l-3.755,76.971h12.202l0.938,22.529h-3.752l-97.622,0.941l1.874-67.585l-1.874-0.94z"/>
			<text transform="matrix(1 0 0 1 249.0537 220.1592)"><tspan x="0" y="0" style="fill:#000000;stroke:none;">Haakon</tspan></text>
		</g>
		<g>
			<path d="M687.76,149.758l0.942,34.733l37.55-0.941l26.279,0.941v-34.733H687.76z"/>
			<text transform="matrix(1 0 0 1 701.3018 168.5303)"><tspan x="0" y="0" style="fill:#000000;stroke:none;">Hamlin</tspan></text>
		</g>
		<g>
			<path d="M498.147,138.495h61.95h1.88v34.728v10.327v0.941v45.992H538.51l-39.426,0.941l-0.937-92.93z"/>
			<text transform="matrix(1 0 0 1 526.5566 179.7969)"><tspan x="0" y="0" style="fill:#000000;stroke:none;">Hand</tspan></text>
		</g>
		<g>
			<path d="M678.375,274.607l-27.222,0.939h-9.386v45.055l35.668,0.939l0.939-46.934z"/>
			<text transform="matrix(1 0 0 1 643.0264 302.7466)"><tspan x="0" y="0" style="fill:#000000;stroke:none;">Hanson</tspan></text>
		</g>
		<g>
			<path d="M118.91,1.444l-5.627,0.939H1.573v7.51v88.235h114.525l2.812-68.523h0.941L118.91,1.444z"/>
			<text transform="matrix(1 0 0 1 48.8384 52.1323)"><tspan x="0" y="0" style="fill:#000000;stroke:none;">Harding</tspan></text>
		</g>
		<g>
			<path d="M458.722,184.491h-87.297l-6.574,13.141l15.96-1.876l4.693,4.695l1.874,10.321l46.936,13.146l-0.939,7.507l6.571,9.386h15.02l10.33,1.879l0.934-3.755l-9.387-8.451l4.691-2.813v-43.179h-2.813z"/>
			<text transform="matrix(1 0 0 1 410.5122 205.1431)"><tspan x="0" y="0" style="fill:#000000;stroke:none;">Hughes</tspan></text>
		</g>
		<g>
			<path d="M623.934,321.541v40.363l2.813,2.818h46.934l26.289,0.935l-0.939-44.116h-21.594l-35.668-0.939l-17.834,0.939z"/>
			<text transform="matrix(1 0 0 1 636.3633 345.9478)"><tspan x="0" y="0" style="fill:#000000;stroke:none;">Hutchinson</tspan></text>
		</g>
		<g>
			<path d="M470.922,138.495l-11.262,0.941l-0.938,45.056h2.813v43.179l8.454,3.754h29.096l-0.937-92.93h-27.226z"/>
			<text transform="matrix(1 0 0 1 467.7041 193.8765)"><tspan x="0" y="0" style="fill:#000000;stroke:none;">Hyde</tspan></text>
		</g>
		<g>
			<path d="M538.51,230.483l-0.939,33.796h13.14h50.692l-1.876-34.733l-37.549,0.937H538.51z"/>
			<text transform="matrix(1 0 0 1 552.1514 251.1372)"><tspan x="0" y="0" style="fill:#000000;stroke:none;">Jerauld</tspan></text>
		</g>
		<g>
			<path d="M316.036,235.179l0.938,22.529h-3.752v20.652l17.835,2.815l10.327,9.386l13.14,3.759l6.573-5.633l29.102,4.695l-1.881-58.203h-72.282z"/>
			<text transform="matrix(1 0 0 1 339.3066 268.9727)"><tspan x="0" y="0" style="fill:#000000;stroke:none;">Jones</tspan></text>
		</g>
		<g>
			<path d="M688.702,184.491l37.55-0.941l1.879,45.997l-27.228-0.937l-48.808,1.874l-0.942-45.052l37.549-0.94z"/>
			<text transform="matrix(1 0 0 1 666.4678 204.2036)"><tspan x="0" y="0" style="fill:#000000;stroke:none;">Kingsbury</tspan></text>
		</g>
		<g>
			<path d="M728.131,229.546l-27.228-0.937l1.878,46.937h26.283h25.347l1.879-46.937l-28.159,0.937z"/>
			<text transform="matrix(1 0 0 1 719.1611 255.8296)"><tspan x="0" y="0" style="fill:#000000;stroke:none;">Lake</tspan></text>
		</g>
		<g>
			<path d="M52.266,177.917l-27.225,0.939L8.146,182.61l-6.573-2.813L0.64,233.305l0.934,5.629h62.893l-12.201-61.017z"/>
			<text transform="matrix(1 0 0 1 8.0547 209.8379)"><tspan x="0" y="0" style="fill:#000000;stroke:none;">Lawrence</tspan></text>
		</g>
		<g>
			<path d="M760.043,375.984l-11.264,0.938v-55.381h34.73l0.941,9.387l6.567,5.632l-4.693,16.896l2.819,3.753l6.568,0.938l3.753,17.836h-39.423z"/>
			<text transform="matrix(1 0 0 1 753.8701 352.3442)"><tspan x="0" y="0" style="fill:#000000;stroke:none;">Lincoln</tspan></text>
		</g>
		<g>
			<path d="M388.318,235.179l1.881,58.203l11.26,2.813l33.792,0.938l3.755,3.754l12.207-12.201l12.203,1.874l0.937,31.92l9.387,0.934l24.407-0.934l-3.759-16.899l-13.14-5.634l5.635-6.566l-1.882-6.574l12.208-11.261l-4.694-10.327l-1.879-9.39l-18.774-10.324
				l-1.874-14.081l-8.454-3.754l-4.691,2.813l9.387,8.451l-0.934,3.755l-10.33-1.879h-15.02l-6.571-9.386h-45.057v3.754z"/>
			<text transform="matrix(1 0 0 1 423.2471 271.7881)"><tspan x="0" y="0" style="fill:#000000;stroke:none;">Lyman</tspan></text>
		</g>
		<g>
			<path d="M729.064,275.546v46.935l-30.035-0.94h-21.594l0.939-46.934l24.406,0.939h26.283z"/>
			<text transform="matrix(1 0 0 1 687.2588 308.4009)"><tspan x="0" y="0" style="fill:#000000;stroke:none;">McCook</tspan></text>
		</g>
		<g>
			<path d="M559.163,1.444h-29.102h-75.096v45.996h105.132l-0.935-45.996z"/>
			<text transform="matrix(1 0 0 1 483.1826 27.7256)"><tspan x="0" y="0" style="fill:#000000;stroke:none;">McPherson</tspan></text>
		</g>
		<g>
			<path d="M715.924,0.506l-77.911,0.938l-0.939,45.996h63.83v2.819l15.958,0.934l-0.938-50.687z"/>
			<text transform="matrix(1 0 0 1 661.3604 29.6045)"><tspan x="0" y="0" style="fill:#000000;stroke:none;">Marshall</tspan></text>
		</g>
		<g>
			<path d="M215.601,120.661l-98.564,0.935l-0.938,56.322H52.266l12.201,61.017h111.706l4.692-26.282l4.695-2.814l-0.939-8.453l4.692-2.813l11.268,2.813l15.021-11.261v-69.463z"/>
			<text transform="matrix(1 0 0 1 135.5435 195.7554)"><tspan x="0" y="0" style="fill:#000000;stroke:none;">Meade</tspan></text>
		</g>
		<g>
			<path d="M390.199,293.382l11.26,2.813l2.82,41.301l-107.951-0.935v-51.628l16.894-6.572l17.835,2.815l10.327,9.386l13.14,3.759l6.573-5.633l29.102,4.695z"/>
			<text transform="matrix(1 0 0 1 329.5093 319.6616)"><tspan x="0" y="0" style="fill:#000000;stroke:none;">Mellette</tspan></text>
		</g>
		<g>
			<path d="M700.903,228.61l-48.808,1.874l-0.942,45.063l27.222-0.939l24.406,0.939l-1.878-46.937z"/>
			<text transform="matrix(1 0 0 1 665.8721 256.7705)"><tspan x="0" y="0" style="fill:#000000;stroke:none;">Miner</tspan></text>
		</g>
		<g>
			<path d="M783.51,321.541l16.896,0.94l-0.939-47.874l-45.055,0.939h-25.347v46.935l19.715-0.94h34.73z"/>
			<text transform="matrix(1 0 0 1 743.749 303.7061)"><tspan x="0" y="0" style="fill:#000000;stroke:none;">Minnehaha</tspan></text>
		</g>
		<g>
			<path d="M799.466,274.607V228.61H756.29l-1.879,46.937l45.055-0.939z"/>
			<text transform="matrix(1 0 0 1 764.4658 256.3281)"><tspan x="0" y="0" style="fill:#000000;stroke:none;">Moody</tspan></text>
		</g>
		<g>
			<path d="M64.466,238.934H1.573v37.547h143.624l-13.14,21.593l69.461-0.941l12.202-1.878l0.941-36.607h0.939l1.874-67.585l-1.874-0.94l-15.021,11.261l-11.268-2.813l-4.692,2.813l0.939,8.453l-4.695,2.814l-4.692,26.282H64.466z"/>
			<text transform="matrix(1 0 0 1 124.5889 260.5264)"><tspan x="0" y="0" style="fill:#000000;stroke:none;">Pennington</tspan></text>
		</g>
		<g>
			<path d="M216.54,1.444h-97.63l0.941,28.161h-0.941l-2.812,68.523l0.938,23.467l98.564-0.935V64.34l0.939-62.896z"/>
			<text transform="matrix(1 0 0 1 148.2388 65.2725)"><tspan x="0" y="0" style="fill:#000000;stroke:none;">Perkins</tspan></text>
		</g>
		<g>
			<path d="M469.988,93.435h-12.209h-59.134l-6.572,20.653l4.693,6.573l-3.753,3.754l-9.387-2.82l-1.879,3.759l2.819,14.081h75.095l11.262-0.941l-0.934-45.06z"/>
			<text transform="matrix(1 0 0 1 418.1592 118.7813)"><tspan x="0" y="0" style="fill:#000000;stroke:none;">Potter</tspan></text>
		</g>
		<g>
			<path d="M798.531,81.233l-25.346-15.019L758.163,46.5v-9.387l17.836-13.14l10.326-15.02l-0.939-8.447h-69.462l0.938,50.687v34.733h23.468l1.882-3.753l56.32-0.939z"/>
			<text transform="matrix(1 0 0 1 729.3955 69.9673)"><tspan x="0" y="0" style="fill:#000000;stroke:none;">Roberts</tspan></text>
		</g>
		<g>
			<path d="M599.526,229.546l1.876,34.733v11.267l0.938,0.935l39.428-0.935h9.386l0.942-45.063l-52.569-0.937z"/>
			<text transform="matrix(1 0 0 1 606.3369 254.8916)"><tspan x="0" y="0" style="fill:#000000;stroke:none;">Sanborn</tspan></text>
		</g>
		<g>
			<path d="M201.519,297.133l-69.461,0.941l-0.94,3.753l-9.387-0.94l-3.753,7.514l-7.514,0.934l0.94,16.899v61.015h22.527l75.093,0.942l-0.938-16.902h-2.813l-0.938-33.794l-2.816-40.362z"/>
			<text transform="matrix(1 0 0 1 140.1968 347.8218)"><tspan x="0" y="0" style="fill:#000000;stroke:none;">Shannon</tspan></text>
		</g>
		<g>
			<path d="M636.134,92.5l-76.036,0.935v45.06h1.88v34.728h76.035v-35.667h-0.939l-0.939-32.854V92.5z"/>
			<text transform="matrix(1 0 0 1 593.5928 128.168)"><tspan x="0" y="0" style="fill:#000000;stroke:none;">Spink</tspan></text>
		</g>
		<g>
			<path d="M307.59,158.208l14.08,2.814l6.574-6.571l22.527,0.938l10.327,5.633l0.939,5.635l-3.758,7.508l4.692,10.327h8.453l-6.574,13.141l15.96-1.876l4.693,4.695l1.874,10.321l46.936,13.146l-0.939,7.507h-45.057v3.754h-72.282h-12.202l3.755-76.971z"/>
			<text transform="matrix(1 0 0 1 327.521 213.5903)"><tspan x="0" y="0" style="fill:#000000;stroke:none;">Stanley</tspan></text>
		</g>
		<g>
			<path d="M350.771,155.389l0.939-7.507l12.201,9.387l7.513-1.88l2.814-5.63l10.327-3.755v-6.567h75.095l-0.938,45.056h-87.297h-8.453l-4.692-10.327l3.758-7.508l-0.939-5.635l-10.327-5.633z"/>
			<text transform="matrix(1 0 0 1 408.4556 165.7173)"><tspan x="0" y="0" style="fill:#000000;stroke:none;">Sully</tspan></text>
		</g>
		<g>
			<path d="M296.329,336.561l0.936,51.631h107.949l-0.934-50.696l-107.951-0.935z"/>
			<text transform="matrix(1 0 0 1 353.0693 366.5991)"><tspan x="0" y="0" style="fill:#000000;stroke:none;">Todd</tspan></text>
		</g>
		<g>
			<path d="M404.279,337.496l0.934,50.696l69.466-0.942l-0.939-63.835l-9.387-0.934l-0.937-31.92l-12.203-1.874l-12.207,12.201l-3.755-3.754l-33.792-0.938l2.82,41.301z"/>
			<text transform="matrix(1 0 0 1 428.7402 345.9478)"><tspan x="0" y="0" style="fill:#000000;stroke:none;">Tripp</tspan></text>
		</g>
		<g>
			<path d="M729.064,322.481l-30.035-0.94l0.939,44.116h23.464v11.266h25.347v-55.381l-19.715,0.94z"/>
			<text transform="matrix(1 0 0 1 711.7109 346.8833)"><tspan x="0" y="0" style="fill:#000000;stroke:none;">Turner</tspan></text>
		</g>
		<g>
			<path d="M760.043,375.984l1.876,53.508l5.632,0.939l5.635,11.261l5.632,1.88l2.813,7.508l16.9,3.753l-1.879-9.387l-15.021-19.707l8.448-26.288l2.817-4.695l-1.878-11.259l8.447-7.513h-39.423z"/>
			<text transform="matrix(1 0 0 1 762.917 394.3872)"><tspan x="0" y="0" style="fill:#000000;stroke:none;">Union</tspan></text>
		</g>
		<g>
			<path d="M454.966,47.439h-74.155l-5.634,8.448l14.081,8.453l7.507,9.385l-4.693,12.2l6.572,7.509h59.134l-2.813-45.995z"/>
			<text transform="matrix(1 0 0 1 403.3364 71.8462)"><tspan x="0" y="0" style="fill:#000000;stroke:none;">Walworth</tspan></text>
		</g>
		<g>
			<path d="M723.433,376.922v-11.266h-23.464l-26.289-0.935l0.939,44.116h15.962l12.2-3.754l13.143,1.877l0.938,5.632l6.571,0.939v-36.61z"/>
			<text transform="matrix(1 0 0 1 682.9268 393.8188)"><tspan x="0" y="0" style="fill:#000000;stroke:none;">Yankton</tspan></text>
		</g>
		<g>
			<path d="M296.329,284.932v51.628l-91.994,0.935l-2.816-40.362l12.202-1.878l0.941-36.607h0.939l97.622-0.941v20.652l-16.894,6.572z"/>
			<text transform="matrix(1 0 0 1 233.8643 302.7661)"><tspan x="0" y="0" style="fill:#000000;stroke:none;">Jackson</tspan></text>
		</g>
		<g>
			<path d="M215.601,64.34h55.382l-1.881,62.888h38.489v30.979l-6.569,7.51l-18.772,0.939l-17.841,15.019l-11.261-1.879l-21.593,8.447l-15.954,1.879v-69.463V64.34z"/>
			<text transform="matrix(1 0 0 1 241.9282 151.6372)"><tspan x="0" y="0" style="fill:#000000;stroke:none;">Ziebach</tspan></text>
		</g>
	</g>
</svg>
