<?xml version="1.0" encoding="iso-8859-1"?>
<!DOCTYPE svg >

<svg  width="685.954pt" height="601.296pt" viewBox="0 0 685.954 601.296" xml:space="preserve">
	<g id="Layer_x0020_1" style="fill-rule:nonzero;clip-rule:nonzero;fill:#FFFFFF;stroke:#000000;stroke-miterlimit:4; font-family:'Arial'; font-size:10;">
		<g>
			<path d="M379.126,234.753h-4.979l-4.981,6.226l-8.716,3.74l-19.921,1.237l-8.711,12.452v8.719l11.205,7.469l3.731,6.224l9.963,1.246l-3.737,13.691l26.146-3.733l6.226-19.921l3.731-4.976l1.247-19.927l-11.204-12.447z"/>
			<text transform="matrix(1 0 0 1 345.1553 265.8765)"><tspan x="0" y="0" style="fill:#000000;stroke:none;">Barbour</tspan></text>
		</g>
		<g>
			<path d="M666.726,199.894l-3.741-1.245l-2.487-6.226l4.98-7.472l-3.733-4.978h-4.982l-3.734,3.731l-12.451-1.238l-3.729-3.738l-7.476,6.223h-7.47l-13.697,33.618l27.396,21.162l8.71-8.711l1.246-8.719l17.428-12.448l3.741-9.96z"/>
			<text transform="matrix(1 0 0 1 618.6328 209.854)"><tspan x="0" y="0" style="fill:#000000;stroke:none;">Berkeley</tspan></text>
		</g>
		<g>
			<path d="M161.252,465.079l1.244-7.47l-9.963-8.71l-2.486-9.967l-4.979-2.484l-8.718-11.205l-17.428-2.493l-8.717,6.225l-4.979,9.958l-4.979-2.484l-7.472,13.691l4.98,8.717l-6.226,6.223l9.965,7.472l13.689,1.247l3.739,6.226l2.486,11.205l3.738,4.976l9.96-2.486
				l6.224,4.979l6.225,3.731l6.226-3.731l-6.226-8.716l2.492-22.408l11.206-2.494z"/>
			<text transform="matrix(1 0 0 1 114.4214 461.3491)"><tspan x="0" y="0" style="fill:#000000;stroke:none;">Boone</tspan></text>
		</g>
		<g>
			<path d="M300.694,331.867l2.485-4.984l-6.226-3.734l1.246-7.471l-4.978-2.486l-11.204-2.491l-2.491-6.225l-8.72,1.246l-44.813,31.125l-4.988,8.71l13.698,13.697l7.473,13.698l12.448-8.719l6.226,6.225l13.694-1.24l17.43-18.674l8.719-18.677z"/>
			<text transform="matrix(1 0 0 1 244.8657 343.0708)"><tspan x="0" y="0" style="fill:#000000;stroke:none;">Braxton</tspan></text>
		</g>
		<g>
			<path d="M291.976,85.353l-1.247-42.329l-13.695-1.246l1.246,17.428l-11.204,21.167l24.899,4.98z"/>
			<text transform="matrix(1 0 0 1 263.6851 71.6548)"><tspan x="0" y="0" style="fill:#000000;stroke:none;">Brooke</tspan></text>
		</g>
		<g>
			<path d="M77.832,379.173l-21.161-22.407l-9.964,2.487l-6.226,22.414l-23.654,6.224l21.169,19.914h8.71l3.739,13.698l7.471-14.934l22.408-8.723l-2.492-18.674z"/>
			<text transform="matrix(1 0 0 1 38.7568 394.1187)"><tspan x="0" y="0" style="fill:#000000;stroke:none;">Cabell</tspan></text>
		</g>
		<g>
			<path d="M201.092,282.066l-12.451,16.183l-1.247,3.732l14.939,34.865l2.494,13.697l9.957,4.976l6.223-9.963l4.988-8.71l-7.476-12.451l4.981-14.942l-2.494-22.404l-7.463-2.494l-4.984-4.979l-7.467,2.491z"/>
			<text transform="matrix(1 0 0 1 191.1772 309.4526)"><tspan x="0" y="0" style="fill:#000000;stroke:none;">Calhoun</tspan></text>
		</g>
		<g>
			<path d="M221.007,345.556l-6.223,9.963l-2.488,4.981l-12.451,9.957l-12.451,9.964l7.473,34.859l41.084-24.902l14.939-12.451l-8.713-4.976l-7.473-13.698l-13.698-13.697z"/>
			<text transform="matrix(1 0 0 1 207.2734 380.4214)"><tspan x="0" y="0" style="fill:#000000;stroke:none;">Clay</tspan></text>
		</g>
		<g>
			<path d="M289.484,213.592l-6.225-4.984l-6.226-1.241l-12.451,6.226l-22.405,19.914l-4.981,7.474l13.695,28.64l9.96,1.237h4.979l14.944-12.447l8.711-6.227L280.773,236l7.471-12.451l1.24-9.957z"/>
			<text transform="matrix(1 0 0 1 246.4961 248.4487)"><tspan x="0" y="0" style="fill:#000000;stroke:none;">Doddridge</tspan></text>
		</g>
		<g>
			<path d="M194.867,415.281l-9.963,12.451l-9.957,41.087l9.957,1.24v11.209l31.125,2.486l17.43,9.963l22.414-7.472h6.225l-11.207-12.448l6.228-7.473l-4.987-12.45l-11.201-4.976l1.247-4.982l-8.719-16.185l-12.452-7.476l-6.223,7.476l-19.917-12.451z"/>
			<text transform="matrix(1 0 0 1 194.3755 460.0991)"><tspan x="0" y="0" style="fill:#000000;stroke:none;">Fayette</tspan></text>
		</g>
		<g>
			<path d="M221.007,287.048l29.884-17.43l9.96,1.237l2.491,14.945l16.186,18.674l-8.72,1.246l-44.813,31.125l-7.476-12.451l4.981-14.942l-2.494-22.404z"/>
			<text transform="matrix(1 0 0 1 231.1875 300.7417)"><tspan x="0" y="0" style="fill:#000000;stroke:none;">Gilmer</tspan></text>
		</g>
		<g>
			<path d="M462.546,231.021l-14.944,8.711l-12.452,12.45l3.734,2.492v3.734l8.718-6.227h14.944l-7.473,19.921l6.226,4.979l-4.981,13.695l-4.981,2.493l1.246,1.247l32.371,24.902l11.202-19.924l-4.979-23.651l4.979-4.988l2.49-13.689l7.476-11.21l-23.661-12.451
				l-19.914-2.484z"/>
			<text transform="matrix(1 0 0 1 464.9727 263.3931)"><tspan x="0" y="0" style="fill:#000000;stroke:none;">Grant</tspan></text>
		</g>
		<g>
			<path d="M324.35,516.124l12.448-22.406l17.429-21.167l14.939-21.17l-34.861,3.741l-18.678-13.698l1.247-18.674l-11.203-6.226l-39.841,31.125l-23.652-3.732l-1.247,4.982l11.201,4.976l4.987,12.45l-6.228,7.473l11.207,12.448h-6.225l14.936,14.938v8.717
				l31.128,7.47l8.716-4.976l13.698,3.729z"/>
			<text transform="matrix(1 0 0 1 276.7954 484.9985)"><tspan x="0" y="0" style="fill:#000000;stroke:none;">Greenbrier</tspan></text>
		</g>
		<g>
			<path d="M573.346,196.156l-7.47,1.247l-14.941-3.735l-19.915,19.923l-7.472,16.182L512.344,236l-1.246,6.226l-4.977,3.731l13.687,7.474l31.127,11.204l9.964-2.488l9.956,9.957l11.206-9.957l1.245-6.229l-3.731-3.734l14.936-43.575l-21.164-12.451z"/>
			<text transform="matrix(1 0 0 1 521.7803 245.9565)"><tspan x="0" y="0" style="fill:#000000;stroke:none;">Hampshire</tspan></text>
		</g>
		<g>
			<path d="M290.729,43.023l-13.695-1.246l1.246-9.957v-6.226l-8.712-14.941l2.484-3.735l18.677-6.225v29.879v12.45z"/>
			<text transform="matrix(1 0 0 1 265.0498 24.3481)"><tspan x="0" y="0" style="fill:#000000;stroke:none;">Hancock</tspan></text>
		</g>
		<g>
			<path d="M494.911,328.129l-9.958-8.71l11.202-19.924l-4.979-23.651l4.979-4.988l2.49-13.689l7.476-11.21l13.687,7.474l31.127,11.204l9.964-2.488l9.956,9.957l-8.71,6.226l1.24,2.491l-26.14,18.676L522.3,328.129l-17.427-13.698l-8.718,7.474l-1.244,6.225z"/>
			<text transform="matrix(1 0 0 1 507.7158 288.2944)"><tspan x="0" y="0" style="fill:#000000;stroke:none;">Hardy</tspan></text>
		</g>
		<g>
			<path d="M331.818,267.127v-8.719l8.711-12.452l-3.731-4.978l-1.247-23.656l-13.695-6.222l-21.161-3.735l-3.74-1.247l-7.47,7.473l-1.24,9.957L280.773,236l8.711,16.183l-8.711,6.227l41.082,9.96l9.963-1.241z"/>
			<text transform="matrix(1 0 0 1 291.7568 238.4897)"><tspan x="0" y="0" style="fill:#000000;stroke:none;">Harrison</tspan></text>
		</g>
		<g>
			<path d="M681.657,229.774l-6.222-4.979l1.246-7.472l-7.469-7.469l3.734-9.96h-6.222l-3.741,9.96l-17.428,12.448l-1.246,8.719l-8.71,8.711l27.384,22.414l18.673-32.372z"/>
			<text transform="matrix(1 0 0 1 645.001 238.4897)"><tspan x="0" y="0" style="fill:#000000;stroke:none;">Jefferson</tspan></text>
		</g>
		<g>
			<path d="M280.773,258.409l-14.944,12.447h-4.979l2.491,14.945l16.186,18.674l2.491,6.225l11.204,2.491l4.978,2.486l-1.246,7.471l6.226,3.734l-2.485,4.984l11.204,1.241l-3.74-4.979l3.74-22.408l7.471-11.204l2.486-26.148l-41.082-9.96z"/>
			<text transform="matrix(1 0 0 1 279.1924 288.2944)"><tspan x="0" y="0" style="fill:#000000;stroke:none;">Lewis</tspan></text>
		</g>
		<g>
			<path d="M118.921,422.75l-6.225-13.697L99,405.321l-12.45,8.713l-7.472-3.735l2.492-3.729l-1.246-8.723l-22.408,8.723l-7.471,14.934l-1.247,17.429l9.958,17.436L45.467,472.55l14.936-4.978l18.675-6.224l18.676-2.493l-4.98-8.717l7.472-13.691l4.979,2.484
				l4.979-9.958l8.717-6.225z"/>
			<text transform="matrix(1 0 0 1 59.4995 433.9536)"><tspan x="0" y="0" style="fill:#000000;stroke:none;">Lincoln</tspan></text>
		</g>
		<g>
			<path d="M60.403,467.573l3.739,9.957l4.98,4.979l-2.494,8.72l8.716,22.405l13.698,11.209l7.465-6.225l17.434,4.978l13.69-8.719l-7.465-8.711l21.163-7.469l-6.224-4.979l-9.96,2.486l-3.738-4.976l-2.486-11.205l-3.739-6.226l-13.689-1.247l-9.965-7.472
				l6.226-6.223l-18.676,2.493l-18.675,6.224z"/>
			<text transform="matrix(1 0 0 1 77.625 493.7173)"><tspan x="0" y="0" style="fill:#000000;stroke:none;">Logan</tspan></text>
		</g>
		<g>
			<path d="M96.508,547.25l-7.465,7.47l7.465,19.924l9.964,12.45h8.71l8.717,7.464l8.719,6.225l14.936-1.24l14.941-7.473l13.698-13.694l6.226-13.695l-12.451-8.71h-6.225l-18.675-4.988l-3.738-6.222l-9.958,1.244l-1.248,3.737l-17.428-2.491l-4.979-6.225
				l-11.21,6.225z"/>
			<text transform="matrix(1 0 0 1 112.1875 572.1499)"><tspan x="0" y="0" style="fill:#000000;stroke:none;">McDowell</tspan></text>
		</g>
		<g>
			<path d="M310.651,176.241l-7.472,1.241v4.984l-4.979,2.485l-1.246,4.982l3.74,17.433l21.161,3.735l13.695,6.222l24.899,1.247l11.204-8.716l-31.125-29.88h-26.145v-2.491l-3.733-1.241z"/>
			<text transform="matrix(1 0 0 1 315.2881 198.6494)"><tspan x="0" y="0" style="fill:#000000;stroke:none;">Marion</tspan></text>
		</g>
		<g>
			<path d="M291.976,161.297v-38.594v-11.204l-31.125-4.979l-3.732,17.43h-6.228l2.488,8.716l-4.976,6.226l1.244,4.978l-3.737,8.71l1.247,8.716h44.819z"/>
			<text transform="matrix(1 0 0 1 251.9136 147.6021)"><tspan x="0" y="0" style="fill:#000000;stroke:none;">Marshall</tspan></text>
		</g>
		<g>
			<path d="M176.193,578.375l16.183,16.183l22.408-7.464l9.964-2.494l7.469,1.247l14.939-9.963l-6.226-6.229l6.226-7.463l-34.86-28.638l-6.225-1.246l-6.226,3.737l-3.738,11.204l-2.485-1.246l-8.719,11.204l4.979,7.472h-7.464l-6.226,13.695z"/>
			<text transform="matrix(1 0 0 1 196.7397 568.4204)"><tspan x="0" y="0" style="fill:#000000;stroke:none;">Mercer</tspan></text>
		</g>
		<g>
			<path d="M550.935,193.668l-12.451-6.223v-9.963l-4.979-1.241l-8.711,13.692l-18.673,21.167l-12.451-6.229l-4.987,2.494l-2.485,6.226l-18.676,11.204l-4.976,6.226l19.914,2.484l23.661,12.451l4.977-3.731l1.246-6.226l11.204-6.226l7.472-16.182l19.915-19.923z"/>
			<text transform="matrix(1 0 0 1 488.4795 224.7954)"><tspan x="0" y="0" style="fill:#000000;stroke:none;">Mineral</tspan></text>
		</g>
		<g>
			<path d="M91.529,542.272l-22.407-2.493l-6.226-16.184l-6.226,4.979l-13.698-22.409l-13.695-17.433l16.189-16.183l14.936-4.978l3.739,9.957l4.98,4.979l-2.494,8.72l8.716,22.405l13.698,11.209l7.465-6.225l17.434,4.978v7.474l-6.224,9.957l-11.21,6.225
				l-4.979-4.979z"/>
			<text transform="matrix(1 0 0 1 38.0747 497.4497)"><tspan x="0" y="0" style="fill:#000000;stroke:none;">Mingo</tspan></text>
		</g>
		<g>
			<path d="M397.8,161.297h-17.428l-74.701,1.247l4.98,4.979v8.719l3.733,1.241v2.491h26.145l31.125,29.88l6.226,1.247l1.246-8.719l12.449-21.162l6.225-19.923z"/>
			<text transform="matrix(1 0 0 1 331.126 175.7319)"><tspan x="0" y="0" style="fill:#000000;stroke:none;">Monongalia</tspan></text>
		</g>
		<g>
			<path d="M247.156,562.193l23.651-52.292l31.128,7.47l8.716-4.976l13.698,3.729l1.244,8.719l9.957,4.979l-16.182,7.473l2.486,9.957l-21.161,14.942l-6.226-8.717l-37.35,17.426l-9.962-8.709z"/>
			<text transform="matrix(1 0 0 1 274.501 534.8022)"><tspan x="0" y="0" style="fill:#000000;stroke:none;">Monroe</tspan></text>
		</g>
		<g>
			<path d="M636.848,178.729l-14.945-9.96l-7.468-1.247l-9.961,9.96l-12.448-1.241l-6.229,3.732h-6.222l1.246,7.472l-7.475,8.71l21.164,12.451l13.695,9.962l13.697-33.618h7.47l7.476-6.223z"/>
			<text transform="matrix(1 0 0 1 583.7832 191.1772)"><tspan x="0" y="0" style="fill:#000000;stroke:none;">Morgan</tspan></text>
		</g>
		<g>
			<path d="M242.177,372.952l8.713,4.976l-14.939,12.451l-41.084,24.902l19.917,12.451l6.223-7.476l12.452,7.476l8.719,16.185l23.652,3.732l39.841-31.125l-24.897-16.182l-9.966-26.146l3.738-4.979l-13.694,1.24l-6.226-6.225l-12.448,8.719z"/>
			<text transform="matrix(1 0 0 1 236.6973 415.2808)"><tspan x="0" y="0" style="fill:#000000;stroke:none;">Nicholas</tspan></text>
		</g>
		<g>
			<path d="M291.976,111.499l-31.125-4.979l-1.245-4.979l6.223-16.189l1.247-4.98l24.899,4.98v26.146z"/>
			<text transform="matrix(1 0 0 1 267.7183 97.8008)"><tspan x="0" y="0" style="fill:#000000;stroke:none;">Ohio</tspan></text>
		</g>
		<g>
			<path d="M413.982,358.007l14.945,9.964l7.469,16.185l22.407,4.976l12.452-9.958l23.655-51.044l-9.958-8.71l-32.371-24.902l-6.228,7.464l-6.224-2.485l-8.714,6.226l-4.984,9.956l3.741,11.205l-14.944,21.167v1.248l-1.247,8.71z"/>
			<text transform="matrix(1 0 0 1 426.3281 351.7847)"><tspan x="0" y="0" style="fill:#000000;stroke:none;">Pendleton</tspan></text>
		</g>
		<g>
			<path d="M222.254,226.04l-1.247-17.432l-14.936-1.241l-13.695,11.204l-18.677,6.226l4.979,9.958l13.698,2.49l29.877-11.204z"/>
			<text transform="matrix(1 0 0 1 176.6406 223.5488)"><tspan x="0" y="0" style="fill:#000000;stroke:none;">Pleasants</tspan></text>
		</g>
		<g>
			<path d="M369.166,451.38l9.96-24.896l13.695-12.451v-9.957l8.711-6.229l4.987-12.446l-1.247-14.943l8.71-12.45l1.247-8.71v-1.248l-4.979-4.979l-12.451,1.245l2.493-6.224l-6.226-3.741l-11.209,32.371l-23.653,13.699l-11.206-2.494l-16.181,13.698l-14.944,12.451
				v18.673l-1.247,18.674l18.678,13.698l34.861-3.741z"/>
			<text transform="matrix(1 0 0 1 327.3115 414.0337)"><tspan x="0" y="0" style="fill:#000000;stroke:none;">Pocahontas</tspan></text>
		</g>
		<g>
			<path d="M433.903,161.297H397.8l-6.225,19.923l-12.449,21.162l-1.246,8.719v2.491l1.246,21.162l11.204,12.447l16.189-7.469l28.63,12.45l-1.246-90.885z"/>
			<text transform="matrix(1 0 0 1 389.2881 217.3232)"><tspan x="0" y="0" style="fill:#000000;stroke:none;">Preston</tspan></text>
		</g>
		<g>
			<path d="M212.296,533.555l16.183-19.922l13.698,2.49l-8.719-22.406l-17.43-9.963l-31.125-2.486v-11.209l-9.957-1.24l-13.695-3.74l-11.206,2.494l-2.492,22.408l6.226,8.716l8.716,1.247l19.923,41.082l11.204,4.979l2.485,1.246l3.738-11.204l6.226-3.737
				l6.225,1.246z"/>
			<text transform="matrix(1 0 0 1 176.6675 503.6753)"><tspan x="0" y="0" style="fill:#000000;stroke:none;">Raleigh</tspan></text>
		</g>
		<g>
			<path d="M452.582,294.517l-1.246-1.247l-19.919-1.246l-36.108-11.204l1.248-4.976l-7.474-8.717l-3.731,4.976l-6.226,19.921l-26.146,3.733l-9.957,36.109h-12.452l-4.978,8.711l13.688,29.88l-7.464,21.168l16.181-13.698l11.206,2.494l23.653-13.699l11.209-32.371
				l6.226,3.741l-2.493,6.224l12.451-1.245l4.979,4.979l14.944-21.167l-3.741-11.205l4.984-9.956l8.714-6.226l6.224,2.485l6.228-7.464z"/>
			<text transform="matrix(1 0 0 1 366.4395 320.6567)"><tspan x="0" y="0" style="fill:#000000;stroke:none;">Randolph</tspan></text>
		</g>
		<g>
			<path d="M242.177,233.505l-1.247-9.957l-7.472-2.49l-2.488,6.222l-8.717-1.241l-29.877,11.204l-6.229,6.229l-3.729,11.202l6.223,21.17l12.451,6.222l7.467-2.491l4.984,4.979l7.463,2.494l29.884-17.43l-13.695-28.64l4.981-7.474z"/>
			<text transform="matrix(1 0 0 1 200.7451 260.8989)"><tspan x="0" y="0" style="fill:#000000;stroke:none;">Ritchie</tspan></text>
		</g>
		<g>
			<path d="M247.156,562.193l23.651-52.292v-8.717l-14.936-14.938l-22.414,7.472l8.719,22.406l-13.698-2.49l-16.183,19.922l34.86,28.638z"/>
			<text transform="matrix(1 0 0 1 213.313 532.3091)"><tspan x="0" y="0" style="fill:#000000;stroke:none;">Summers</tspan></text>
		</g>
		<g>
			<path d="M371.654,209.854l-11.204,8.716l-24.899-1.247l1.247,23.656l3.731,4.978l19.921-1.237l8.716-3.74l4.981-6.226h4.979l-1.246-21.162v-2.491l-6.226-1.247z"/>
			<text transform="matrix(1 0 0 1 340.8896 232.2681)"><tspan x="0" y="0" style="fill:#000000;stroke:none;">Taylor</tspan></text>
		</g>
		<g>
			<path d="M435.149,252.182l-28.63-12.45l-16.189,7.469l-1.247,19.927l7.474,8.717l-1.248,4.976l36.108,11.204l19.919,1.246l4.981-2.493l4.981-13.695l-6.226-4.979l7.473-19.921h-14.944l-8.718,6.227v-3.734l-3.734-2.492z"/>
			<text transform="matrix(1 0 0 1 410.0967 270.856)"><tspan x="0" y="0" style="fill:#000000;stroke:none;">Tucker</tspan></text>
		</g>
		<g>
			<path d="M277.034,207.366l-12.451,6.226l-22.405,19.914l-1.247-9.957l-7.472-2.49l-2.488,6.222l-8.717-1.241l-1.247-17.432l-14.936-1.241l3.731-3.741l11.204-12.448l6.226-7.472l8.719-2.485l3.732,4.979l7.473-2.494l2.49,7.472l7.472,2.491l19.915,13.698z"/>
			<text transform="matrix(1 0 0 1 230.0781 207.1353)"><tspan x="0" y="0" style="fill:#000000;stroke:none;">Tyler</tspan></text>
		</g>
		<g>
			<path d="M352.98,295.757l3.737-13.691l-9.963-1.246l-3.731-6.224l-11.205-7.469l-9.963,1.241l-2.486,26.148l-7.471,11.204l-3.74,22.408l3.74,4.979l13.695,7.47l4.978-8.711h12.452l9.957-36.109z"/>
			<text transform="matrix(1 0 0 1 310.7129 318.1724)"><tspan x="0" y="0" style="fill:#000000;stroke:none;">Upshur</tspan></text>
		</g>
		<g>
			<path d="M50.445,421.503l-3.739-13.698h-8.71l-21.169-19.914l-11.204-1.244v12.447l2.494,11.204l-1.247,7.474v11.202l-6.224,6.228l21.16,31.123l-2.484,6.226l8.709,7.473l1.247,8.71l16.189-16.183l13.689-16.183l-9.958-17.436l1.247-17.429z"/>
			<text transform="matrix(1 0 0 1 11.416 440.1792)"><tspan x="0" y="0" style="fill:#000000;stroke:none;">Wayne</tspan></text>
		</g>
		<g>
			<path d="M331.818,391.625l7.464-21.168l-13.688-29.88l-13.695-7.47l-11.204-1.241l-8.719,18.677l-17.43,18.674l-3.738,4.979l9.966,26.146l24.897,16.182l11.203,6.226v-18.673l14.944-12.451z"/>
			<text transform="matrix(1 0 0 1 288.3916 376.6812)"><tspan x="0" y="0" style="fill:#000000;stroke:none;">Webster</tspan></text>
		</g>
		<g>
			<path d="M305.671,162.543l-13.695-1.247h-44.819l-3.735,4.981l-2.491,9.963l-4.979,4.979l3.732,4.979l7.473-2.494l2.49,7.472l7.472,2.491l19.915,13.698l6.226,1.241l6.225,4.984l7.47-7.473l3.74,1.247l-3.74-17.433l1.246-4.982l4.979-2.485v-4.984l7.472-1.241
				v-8.719l-4.98-4.979z"/>
			<text transform="matrix(1 0 0 1 260.6025 182.4668)"><tspan x="0" y="0" style="fill:#000000;stroke:none;">Wetzel</tspan></text>
		</g>
		<g>
			<path d="M141.33,498.697l6.225,3.731l6.226-3.731l8.716,1.247l19.923,41.082l11.204,4.979l-8.719,11.204l4.979,7.472h-7.464l-12.451-8.71h-6.225l-18.675-4.988l-3.738-6.222l-9.958,1.244l-1.248,3.737l-17.428-2.491l-4.979-6.225l6.224-9.957v-7.474l13.69-8.719
				l-7.465-8.711l21.163-7.469z"/>
			<text transform="matrix(1 0 0 1 124.2739 534.8022)"><tspan x="0" y="0" style="fill:#000000;stroke:none;">Wyoming</tspan></text>
		</g>
		<g>
			<path d="M121.408,268.369l-11.204,4.981v4.979l7.471,6.226v12.451l-9.957-1.248l-2.492,8.718l-3.732,1.246l18.673,38.595h4.979l4.978,7.469l8.72,12.448l11.203-4.979l2.486-4.978v-47.308l2.494-4.987l-6.226-7.464l3.732-6.223l-8.711-4.988l-22.414-14.938z"/>
			<text transform="matrix(1 0 0 1 110.5371 310.6997)"><tspan x="0" y="0" style="fill:#000000;stroke:none;">Jackson</tspan></text>
		</g>
		<g>
			<path d="M130.124,351.785l8.72,12.448l11.203-4.979l2.486-4.978l8.719,11.2l38.594,4.981l-12.451,9.964l7.473,34.859l-9.963,12.451l-9.957,41.087l-13.695-3.74l1.244-7.47l-9.963-8.71l-2.486-9.967l-4.979-2.484l-8.718-11.205l-17.428-2.493l-6.225-13.697
				L99,405.321l2.494-11.202l24.899-13.697l-4.985-21.168l8.716-7.469z"/>
			<text transform="matrix(1 0 0 1 120.48 402.8286)"><tspan x="0" y="0" style="fill:#000000;stroke:none;">Kanawha</tspan></text>
		</g>
		<g>
			<path d="M120.167,344.316l-27.393,3.733l-16.183,7.47l1.241,23.654l-21.161-22.407l2.485-22.415l-2.485-13.694l9.958-6.226l3.738-22.407l4.978-4.976l7.472-3.742L99,294.517l-3.732,11.204h6.226l18.673,38.595z"/>
			<text transform="matrix(1 0 0 1 70.2964 329.3755)"><tspan x="0" y="0" style="fill:#000000;stroke:none;">Mason</tspan></text>
		</g>
		<g>
			<path d="M120.167,344.316l-27.393,3.733l-16.183,7.47l1.241,23.654l2.492,18.674l1.246,8.723l-2.492,3.729l7.472,3.735L99,405.321l2.494-11.202l24.899-13.697l-4.985-21.168l8.716-7.469l-4.978-7.469h-4.979z"/>
			<text transform="matrix(1 0 0 1 83.0151 372.9517)"><tspan x="0" y="0" style="fill:#000000;stroke:none;">Putnam</tspan></text>
		</g>
		<g>
			<path d="M214.784,355.519l-2.488,4.981l-12.451,9.957l-38.594-4.981l-8.719-11.2v-47.308l2.494-4.987l7.469-3.732l14.936,7.473l9.963-3.74l14.939,34.865l2.494,13.697l9.957,4.976z"/>
			<text transform="matrix(1 0 0 1 162.6973 341.8247)"><tspan x="0" y="0" style="fill:#000000;stroke:none;">Roane</tspan></text>
		</g>
		<g>
			<path d="M182.419,254.674l-14.944,8.719l-23.653,19.913l8.711,4.988l-3.732,6.223l6.226,7.464l7.469-3.732l14.936,7.473l9.963-3.74l1.247-3.732l12.451-16.183l-12.451-6.222l-6.223-21.17z"/>
			<text transform="matrix(1 0 0 1 161.0835 287.0483)"><tspan x="0" y="0" style="fill:#000000;stroke:none;">Wirt</tspan></text>
		</g>
		<g>
			<path d="M192.376,237.244l-13.698-2.49l-4.979-9.958l-11.204-9.963l-14.941,11.207l-4.979,12.45h-8.718l-11.203,9.959l-2.488,6.226l1.241,13.694l22.414,14.938l23.653-19.913l14.944-8.719l3.729-11.202l6.229-6.229z"/>
			<text transform="matrix(1 0 0 1 140.8086 252.1821)"><tspan x="0" y="0" style="fill:#000000;stroke:none;">Wood</tspan></text>
		</g>
	</g>
</svg>
