<?xml version="1.0" encoding="iso-8859-1"?>
<!DOCTYPE svg PUBLIC "-//W3C//DTD SVG 20000303 Stylable//EN"   "http://www.w3.org/TR/2000/03/WD-SVG-20000303/DTD/svg-20000303-stylable.dtd">
<!-- Generator: Adobe Illustrator 9.0, SVG Export Plug-In  -->
<svg  width="432.774pt" height="602.417pt" viewBox="0 0 432.774 602.417" xml:space="preserve">
	<g id="Layer_x0020_1" style="fill-rule:nonzero;clip-rule:nonzero;fill:#D9DCF7;stroke:#000000;stroke-miterlimit:4; font-family:'ArialMT'; font-size:7;">
		<path style="fill:#F7FAFC;stroke-width:2;" d="M268.701,108.543l-13.236-42.765l-13.232-35.765l-6.018-14.984l-1.129-2.188l-3.536-4.813l-6.161-4.812l-9.005-2.188l-9.004,2.188l-6.162,4.812l-3.536,4.813l-1.13,2.188l-6.015,14.984l-13.234,35.765l-13.236,42.765
			l-6.015,35.983v3.501h116.662v-3.501l-6.014-35.983z"/>
		<path style="fill:#5D6B7C;" d="M157.984,162.465h-18.629l-3.573,3.098v25.18l3.591,3.058h18.611"/>
		<path style="fill:#5D6B7C;" d="M274.78,162.105h18.63l3.572,3.099v25.179l-3.592,3.059h-18.61"/>
		<path style="fill:#F7FAFC;stroke-width:2;" d="M267.388,587.954l7.326-51.289V148.028H158.052v388.637l7.328,51.289l5.75,3.039l5.958,2.677l6.151,2.309l6.329,1.918l6.492,1.518l6.645,1.104l6.779,0.671l6.9,0.228l6.902-0.228l6.777-0.671l6.645-1.104l6.492-1.518
			l6.329-1.918l6.15-2.309l5.957-2.677l5.752-3.039z"/>
		<path style="fill:#F7FAFC;" d="M140.484,189.638h17.54v-22.943h-17.54v22.943z"/>
		<path style="fill:#F7FAFC;" d="M292.278,189.278h-17.539v-22.943h17.539v22.943z"/>
		<path style="fill:#F7FAFC;stroke-width:2;" d="M371.914,286.311v-49.334l-2.312-3.083l-4.237-2.696h-16.931h-15.795l-4.237,2.696l-2.313,3.083v38.94l45.825,10.395z"/>
		<path style="fill:#F7FAFC;stroke-width:2;" d="M326.088,394.016v28.853l2.313,3.082l4.237,2.696h16.93h15.796l4.237-2.696l2.312-3.082v-26.945l-45.825-1.907z"/>
		<path style="fill:#F7FAFC;stroke-width:2;" d="M60.348,286.311v-49.334l2.313-3.083l4.237-2.696h16.93h15.795l4.238,2.696l2.313,3.083v38.94l-45.826,10.395z"/>
		<path style="fill:#F7FAFC;stroke-width:2;" d="M106.174,394.016v28.853l-2.313,3.082l-4.238,2.696h-16.93H66.898l-4.237-2.696l-2.313-3.082v-26.945l45.826-1.907z"/>
		<path style="fill:#F7FAFC;stroke-width:2;" d="M1,398.396l156.946-6.538V264.172L1,299.773v98.623z"/>
		<path style="fill:#F7FAFC;stroke-width:2;" d="M274.826,391.858l156.948,6.538v-98.623l-156.948-35.602v127.687z"/>
		<path style="fill:none;" d="M146.299,166.695v22.903"/>
		<path style="fill:none;" d="M286.463,166.334v22.903"/>
		<path style="fill:none;" d="M152.133,166.695v22.903"/>
		<path style="fill:none;" d="M280.629,166.334v22.903"/>
		<path style="fill:#5D6B7C;" d="M267.525,315.429H224.99v-3.735h42.535v3.735z"/>
		<path style="fill:#5D6B7C;" d="M208.027,315.429H165.49v-3.735h42.537v3.735z"/>
		<path style="fill:#5D6B7C;" d="M258.313,95.811l4.329,2.435l4.868,28.136v17.027l-2.142,2.144l-7.451-2.027l-8.284-18.229l8.68-29.486z"/>
		<path style="fill:#5D6B7C;" d="M254.152,96.546l-2.061-5.875l-13.774-6.498l-15.396-2.479l-2.979,2.54l-1.749,28.752l2.333,3.123l21.825,8.648l3.256-0.627l8.545-27.585z"/>
		<path style="fill:#5D6B7C;" d="M178.524,96.546l2.062-5.875l13.774-6.498l15.394-2.479l2.981,2.54l1.748,28.752l-2.332,3.123l-21.826,8.648l-3.256-0.627l-8.545-27.585z"/>
		<path style="fill:#5D6B7C;" d="M178.092,108.476l-2.668-9.066l-6.489,5.19l-2.25,13l11.407-9.125z"/>
		<path style="fill:#5D6B7C;" d="M180.054,115.147l-14.77,10.551l-0.118,0.685v17.027l2.143,2.144l7.452-2.027l8.282-18.229l-2.988-10.15z"/>
		<text transform="matrix(1 0 0 1 203.6782 137.6831)"><tspan x="0" y="0" style="fill:#000000;stroke:none;"></tspan></text>
		<path style="fill:#D3D3D3;" d="M267.573,162.018h-42.462v-13.988h42.462v13.988z"/>
		<text transform="matrix(1 0 0 1 231.2974 157.6582)"><tspan x="0" y="0" style="fill:#000000;stroke:none;"></tspan></text>
		<path style="fill:#D3D3D3;" d="M267.573,209.259h-42.462v-13.988h42.462v13.988z"/>
		<text transform="matrix(1 0 0 1 231.2974 204.5527)"><tspan x="0" y="0" style="fill:#000000;stroke:none;"></tspan></text>
		<path style="fill:#D3D3D3;" d="M267.573,218.73h-42.462v-9.322h42.462v9.322z"/>
		<text transform="matrix(1 0 0 1 231.2974 215.8857)"><tspan x="0" y="0" style="fill:#000000;stroke:none;"></tspan></text>
		<path style="fill:#D3D3D3;" d="M207.685,162.018h-42.463v-13.988h42.463v13.988z"/>
		<text transform="matrix(1 0 0 1 170.9639 157.5527)"><tspan x="0" y="0" style="fill:#000000;stroke:none;"></tspan></text>
		<path style="fill:#D3D3D3;" d="M165.443,570.636h34.782v-29.11h-34.782v29.11z"/>
		<text transform="matrix(1 0 0 1 168.5815 557.3828)"><tspan x="0" y="0" style="fill:#000000;stroke:none;"></tspan></text>
		<path style="fill:#D3D3D3;" d="M165.443,587.986l5.687,3.007l5.958,2.677l6.151,2.309l6.329,1.918l6.492,1.518l4.166,0.692v-29.498h-34.782v17.378z"/>
		<text transform="matrix(1 0 0 1 167.0112 584.0762)"><tspan x="0" y="0" style="fill:#000000;stroke:none;"></tspan></text>
		<path style="fill:#D3D3D3;" d="M232.409,600.128l4.299-0.714l6.492-1.518l6.329-1.918l6.15-2.309l5.957-2.677l5.555-3.034v-17.351h-34.782v29.52z"/>
		<text transform="matrix(1 0 0 1 233.7466 584.0762)"><tspan x="0" y="0" style="fill:#000000;stroke:none;"></tspan></text>
		<path style="fill:#D3D3D3;" d="M207.843,209.259h-42.466v-13.988h42.466v13.988z"/>
		<text transform="matrix(1 0 0 1 170.896 204.3892)"><tspan x="0" y="0" style="fill:#000000;stroke:none;"></tspan></text>
		<path style="fill:#D3D3D3;" d="M207.843,218.622h-42.466V209.3h42.466v9.322z"/>
		<text transform="matrix(1 0 0 1 170.896 216.0562)"><tspan x="0" y="0" style="fill:#000000;stroke:none;"></tspan></text>
		<path style="fill:#D3D3D3;" d="M165.444,525.151h34.782V496.04h-34.782v29.111z"/>
		<text transform="matrix(1 0 0 1 168.5815 513.5313)"><tspan x="0" y="0" style="fill:#000000;stroke:none;"></tspan></text>
		<path style="fill:#D3D3D3;" d="M165.444,496.04h34.782v-29.11h-34.782v29.11z"/>
		<text transform="matrix(1 0 0 1 168.5815 484.6738)"><tspan x="0" y="0" style="fill:#000000;stroke:none;"></tspan></text>
		<path style="fill:#D3D3D3;" d="M267.263,570.651h-34.776v-13.987h34.776v13.987z"/>
		<text transform="matrix(1 0 0 1 234.2349 566.7637)"><tspan x="0" y="0" style="fill:#000000;stroke:none;"></tspan></text>
		
		<g>
			<g>
				<g>
					<g>
						<path d="M185.119,246.328h-19.786v-16.634h19.786v16.634z"/>
						<path d="M186.63,246.328h-2.52v-14.87h2.52v14.87z"/>
						<path d="M166.366,246.328h-2.52v-14.87h2.52v14.87z"/>
						<path d="M185.119,252h-19.786v-5.672h19.786V252z"/>
					</g>
					<text transform="matrix(1 0 0 1 171.1357 241.2803)"><tspan x="0" y="0" style="fill:#000000;stroke:none;">3A</tspan></text>
				</g>
				<g>
					<g>
						<path d="M207.906,246.328H188.12v-16.634h19.786v16.634z"/>
						<path d="M209.417,246.328h-2.521v-14.87h2.521v14.87z"/>
						<path d="M189.152,246.328h-2.521v-14.87h2.521v14.87z"/>
						<path d="M207.906,252H188.12v-5.672h19.786V252z"/>
					</g>
					<text transform="matrix(1 0 0 1 194.4692 241.2803)"><tspan x="0" y="0" style="fill:#000000;stroke:none;">3B</tspan></text>
				</g>
				<g>
					<g>
						<path d="M244.738,246.328h-19.786v-16.634h19.786v16.634z"/>
						<path d="M246.25,246.328h-2.52v-14.87h2.52v14.87z"/>
						<path d="M225.987,246.328h-2.522v-14.87h2.522v14.87z"/>
						<path d="M244.738,252h-19.786v-5.672h19.786V252z"/>
					</g>
					<text transform="matrix(1 0 0 1 230.4692 241.2803)"><tspan x="0" y="0" style="fill:#000000;stroke:none;">3E</tspan></text>
				</g>
				<g>
					<g>
						<path d="M267.525,246.328h-19.787v-16.634h19.787v16.634z"/>
						<path d="M268.451,246.328h-2.518v-14.87h2.518v14.87z"/>
						<path d="M248.77,246.328h-2.519v-14.87h2.519v14.87z"/>
						<path d="M267.525,252h-19.787v-5.672h19.787V252z"/>
					</g>
					<text transform="matrix(1 0 0 1 253.8022 241.2803)"><tspan x="0" y="0" style="fill:#000000;stroke:none;">3F</tspan></text>
				</g>
				<g>
					<g>
						<path d="M185.119,275.062h-19.786v-16.635h19.786v16.635z"/>
						<path d="M186.63,275.062h-2.52v-14.87h2.52v14.87z"/>
						<path d="M166.366,275.062h-2.52v-14.87h2.52v14.87z"/>
						<path d="M185.119,280.733h-19.786v-5.671h19.786v5.671z"/>
					</g>
					<text transform="matrix(1 0 0 1 170.3994 270.3105)"><tspan x="0" y="0" style="fill:#000000;stroke:none;">4A</tspan></text>
				</g>
				<g>
					<g>
						<path d="M207.906,275.062H188.12v-16.635h19.786v16.635z"/>
						<path d="M209.417,275.062h-2.521v-14.87h2.521v14.87z"/>
						<path d="M189.152,275.062h-2.521v-14.87h2.521v14.87z"/>
						<path d="M207.906,280.733H188.12v-5.671h19.786v5.671z"/>
					</g>
					<text transform="matrix(1 0 0 1 193.7329 270.3105)"><tspan x="0" y="0" style="fill:#000000;stroke:none;">4B</tspan></text>
				</g>
				<g>
					<g>
						<path d="M244.738,275.062h-19.786v-16.635h19.786v16.635z"/>
						<path d="M246.25,275.062h-2.52v-14.87h2.52v14.87z"/>
						<path d="M225.987,275.062h-2.522v-14.87h2.522v14.87z"/>
						<path d="M244.738,280.733h-19.786v-5.671h19.786v5.671z"/>
					</g>
					<text transform="matrix(1 0 0 1 230.7329 270.3105)"><tspan x="0" y="0" style="fill:#000000;stroke:none;">4E</tspan></text>
				</g>
				<g>
					<g>
						<path d="M267.525,275.062h-19.787v-16.635h19.787v16.635z"/>
						<path d="M268.451,275.062h-2.518v-14.87h2.518v14.87z"/>
						<path d="M248.77,275.062h-2.519v-14.87h2.519v14.87z"/>
						<path d="M267.525,280.733h-19.787v-5.671h19.787v5.671z"/>
					</g>
					<text transform="matrix(1 0 0 1 253.0659 270.3105)"><tspan x="0" y="0" style="fill:#000000;stroke:none;">4F</tspan></text>
				</g>
				<g>
					<g>
						<path d="M185.119,303.041h-19.786v-16.635h19.786v16.635z"/>
						<path d="M186.63,303.041h-2.52v-14.872h2.52v14.872z"/>
						<path d="M166.366,303.041h-2.52v-14.872h2.52v14.872z"/>
						<path d="M185.119,308.713h-19.786v-5.672h19.786v5.672z"/>
					</g>
					<text transform="matrix(1 0 0 1 170.8994 297.3101)"><tspan x="0" y="0" style="fill:#000000;stroke:none;">5A</tspan></text>
				</g>
				<g>
					<g>
						<path d="M207.906,303.041H188.12v-16.635h19.786v16.635z"/>
						<path d="M209.417,303.041h-2.521v-14.872h2.521v14.872z"/>
						<path d="M189.152,303.041h-2.521v-14.872h2.521v14.872z"/>
						<path d="M207.906,308.713H188.12v-5.672h19.786v5.672z"/>
					</g>
					<text transform="matrix(1 0 0 1 194.2329 297.3101)"><tspan x="0" y="0" style="fill:#000000;stroke:none;">5B</tspan></text>
				</g>
				<g>
					<g>
						<path d="M244.738,303.041h-19.786v-16.635h19.786v16.635z"/>
						<path d="M246.25,303.041h-2.52v-14.872h2.52v14.872z"/>
						<path d="M225.987,303.041h-2.522v-14.872h2.522v14.872z"/>
						<path d="M244.738,308.713h-19.786v-5.672h19.786v5.672z"/>
					</g>
					<text transform="matrix(1 0 0 1 231.2329 297.3101)"><tspan x="0" y="0" style="fill:#000000;stroke:none;">5E</tspan></text>
				</g>
				<g>
					<g>
						<path d="M267.525,303.041h-19.787v-16.635h19.787v16.635z"/>
						<path d="M268.451,303.041h-2.518v-14.872h2.518v14.872z"/>
						<path d="M248.77,303.041h-2.519v-14.872h2.519v14.872z"/>
						<path d="M267.525,308.713h-19.787v-5.672h19.787v5.672z"/>
					</g>
					<text transform="matrix(1 0 0 1 253.5659 297.3101)"><tspan x="0" y="0" style="fill:#000000;stroke:none;">5F</tspan></text>
				</g>
			</g>
			<g>
				<text transform="matrix(1 0 0 1 288.4419 247.9766)"><tspan x="0" y="0" style="fill:#000000;stroke:none;">First Class</tspan></text>
				<path style="fill:none;" d="M287.442,245.977h-10.5"/>
			</g>
		</g>
		<g>
			<g>
				<g>
					<g>
						<path d="M183.364,346.029h-17.393v-16.635h17.393v16.635z"/>
						<path d="M183.364,351.7h-17.393v-5.671h17.393v5.671z"/>
					</g>
					<text transform="matrix(1 0 0 1 170.8994 340.6436)"><tspan x="0" y="0" style="fill:#000000;stroke:none;">6A</tspan></text>
				</g>
				<g>
					<g>
						<path d="M200.755,346.029h-17.392v-16.635h17.392v16.635z"/>
						<path d="M200.755,351.7h-17.392v-5.671h17.392v5.671z"/>
					</g>
					<text transform="matrix(1 0 0 1 188.2329 340.6436)"><tspan x="0" y="0" style="fill:#000000;stroke:none;">6B</tspan></text>
				</g>
				<g>
					<g>
						<path d="M232.514,346.029h-17.392v-16.635h17.392v16.635z"/>
						<path d="M232.514,351.7h-17.392v-5.671h17.392v5.671z"/>
					</g>
					<text transform="matrix(1 0 0 1 220.2329 340.6436)"><tspan x="0" y="0" style="fill:#000000;stroke:none;">6D</tspan></text>
				</g>
				<g>
					<g>
						<path d="M249.906,346.029h-17.392v-16.635h17.392v16.635z"/>
						<path d="M249.906,351.7h-17.392v-5.671h17.392v5.671z"/>
					</g>
					<text transform="matrix(1 0 0 1 237.2329 340.6436)"><tspan x="0" y="0" style="fill:#000000;stroke:none;">6E</tspan></text>
				</g>
				<g>
					<g>
						<path d="M267.296,346.029h-17.391v-16.635h17.391v16.635z"/>
						<path d="M267.296,351.7h-17.391v-5.671h17.391v5.671z"/>
					</g>
					<text transform="matrix(1 0 0 1 254.5659 340.6436)"><tspan x="0" y="0" style="fill:#000000;stroke:none;">6F</tspan></text>
				</g>
				<g>
					<g>
						<path d="M183.364,374.004h-17.393v-16.633h17.393v16.633z"/>
						<path d="M183.364,379.678h-17.393v-5.674h17.393v5.674z"/>
					</g>
					<text transform="matrix(1 0 0 1 170.8994 368.6436)"><tspan x="0" y="0" style="fill:#000000;stroke:none;">7A</tspan></text>
				</g>
				<g>
					<g>
						<path d="M200.755,374.004h-17.392v-16.633h17.392v16.633z"/>
						<path d="M200.755,379.678h-17.392v-5.674h17.392v5.674z"/>
					</g>
					<text transform="matrix(1 0 0 1 188.2329 368.6436)"><tspan x="0" y="0" style="fill:#000000;stroke:none;">7B</tspan></text>
				</g>
				<g>
					<g>
						<path d="M232.514,374.004h-17.392v-16.633h17.392v16.633z"/>
						<path d="M232.514,379.678h-17.392v-5.674h17.392v5.674z"/>
					</g>
					<text transform="matrix(1 0 0 1 220.2329 368.6436)"><tspan x="0" y="0" style="fill:#000000;stroke:none;">7D</tspan></text>
				</g>
				<g>
					<g>
						<path d="M249.906,374.004h-17.392v-16.633h17.392v16.633z"/>
						<path d="M249.906,379.678h-17.392v-5.674h17.392v5.674z"/>
					</g>
					<text transform="matrix(1 0 0 1 237.2329 368.6436)"><tspan x="0" y="0" style="fill:#000000;stroke:none;">7E</tspan></text>
				</g>
				<g>
					<g>
						<path d="M267.296,374.004h-17.391v-16.633h17.391v16.633z"/>
						<path d="M267.296,379.678h-17.391v-5.674h17.391v5.674z"/>
					</g>
					<text transform="matrix(1 0 0 1 254.5659 368.6436)"><tspan x="0" y="0" style="fill:#000000;stroke:none;">7F</tspan></text>
				</g>
				<g>
					<g>
						<path d="M183.364,401.228h-17.393v-16.636h17.393v16.636z"/>
						<path d="M183.364,406.898h-17.393v-5.671h17.393v5.671z"/>
					</g>
					<text transform="matrix(1 0 0 1 170.8994 396.3105)"><tspan x="0" y="0" style="fill:#000000;stroke:none;">8A</tspan></text>
				</g>
				<g>
					<g>
						<path d="M200.755,401.228h-17.392v-16.636h17.392v16.636z"/>
						<path d="M200.755,406.898h-17.392v-5.671h17.392v5.671z"/>
					</g>
					<text transform="matrix(1 0 0 1 188.2329 396.3105)"><tspan x="0" y="0" style="fill:#000000;stroke:none;">8B</tspan></text>
				</g>
				<g>
					<g>
						<path d="M232.514,401.228h-17.392v-16.636h17.392v16.636z"/>
						<path d="M232.514,406.898h-17.392v-5.671h17.392v5.671z"/>
					</g>
					<text transform="matrix(1 0 0 1 220.2329 396.3105)"><tspan x="0" y="0" style="fill:#000000;stroke:none;">8D</tspan></text>
				</g>
				<g>
					<g>
						<path d="M249.906,401.228h-17.392v-16.636h17.392v16.636z"/>
						<path d="M249.906,406.898h-17.392v-5.671h17.392v5.671z"/>
					</g>
					<text transform="matrix(1 0 0 1 237.2329 396.3105)"><tspan x="0" y="0" style="fill:#000000;stroke:none;">8E</tspan></text>
				</g>
				<g>
					<g>
						<path d="M267.296,401.228h-17.391v-16.636h17.391v16.636z"/>
						<path d="M267.296,406.898h-17.391v-5.671h17.391v5.671z"/>
					</g>
					<text transform="matrix(1 0 0 1 254.5659 396.3105)"><tspan x="0" y="0" style="fill:#000000;stroke:none;">8F</tspan></text>
				</g>
				<g>
					<g>
						<path d="M183.364,428.449h-17.393v-16.635h17.393v16.635z"/>
						<path d="M183.364,434.121h-17.393v-5.672h17.393v5.672z"/>
					</g>
					<text transform="matrix(1 0 0 1 170.8994 422.9775)"><tspan x="0" y="0" style="fill:#000000;stroke:none;">9A</tspan></text>
				</g>
				<g>
					<g>
						<path d="M200.755,428.449h-17.392v-16.635h17.392v16.635z"/>
						<path d="M200.755,434.121h-17.392v-5.672h17.392v5.672z"/>
					</g>
					<text transform="matrix(1 0 0 1 188.2329 422.9775)"><tspan x="0" y="0" style="fill:#000000;stroke:none;">9B</tspan></text>
				</g>
				<g>
					<g>
						<path d="M232.514,428.449h-17.392v-16.635h17.392v16.635z"/>
						<path d="M232.514,434.121h-17.392v-5.672h17.392v5.672z"/>
					</g>
					<text transform="matrix(1 0 0 1 220.2329 422.9775)"><tspan x="0" y="0" style="fill:#000000;stroke:none;">9D</tspan></text>
				</g>
				<g>
					<g>
						<path d="M249.906,428.449h-17.392v-16.635h17.392v16.635z"/>
						<path d="M249.906,434.121h-17.392v-5.672h17.392v5.672z"/>
					</g>
					<text transform="matrix(1 0 0 1 237.2329 422.9775)"><tspan x="0" y="0" style="fill:#000000;stroke:none;">9E</tspan></text>
				</g>
				<g>
					<g>
						<path d="M267.296,428.449h-17.391v-16.635h17.391v16.635z"/>
						<path d="M267.296,434.121h-17.391v-5.672h17.391v5.672z"/>
					</g>
					<text transform="matrix(1 0 0 1 254.5659 422.9775)"><tspan x="0" y="0" style="fill:#000000;stroke:none;">9F</tspan></text>
				</g>
				<g>
					<g>
						<path d="M200.755,455.838h-17.392v-16.637h17.392v16.637z"/>
						<path d="M200.755,461.509h-17.392v-5.671h17.392v5.671z"/>
					</g>
					<text transform="matrix(1 0 0 1 186.2329 449.9775)"><tspan x="0" y="0" style="fill:#000000;stroke:none;">10B</tspan></text>
				</g>
				<g>
					<g>
						<path d="M232.514,455.838h-17.392v-16.637h17.392v16.637z"/>
						<path d="M232.514,461.509h-17.392v-5.671h17.392v5.671z"/>
					</g>
					<text transform="matrix(1 0 0 1 218.2329 449.9775)"><tspan x="0" y="0" style="fill:#000000;stroke:none;">10D</tspan></text>
				</g>
				<g>
					<g>
						<path d="M249.906,455.838h-17.392v-16.637h17.392v16.637z"/>
						<path d="M249.906,461.509h-17.392v-5.671h17.392v5.671z"/>
					</g>
					<text transform="matrix(1 0 0 1 235.2329 449.9775)"><tspan x="0" y="0" style="fill:#000000;stroke:none;">10E</tspan></text>
				</g>
				<g>
					<g>
						<path d="M267.296,455.838h-17.391v-16.637h17.391v16.637z"/>
						<path d="M267.296,461.509h-17.391v-5.671h17.391v5.671z"/>
					</g>
					<text transform="matrix(1 0 0 1 252.5659 449.9775)"><tspan x="0" y="0" style="fill:#000000;stroke:none;">10F</tspan></text>
				</g>
				<g>
					<g>
						<path d="M232.514,483.061h-17.392v-16.635h17.392v16.635z"/>
						<path d="M232.514,488.732h-17.392v-5.672h17.392v5.672z"/>
					</g>
					<text transform="matrix(1 0 0 1 218.2329 477.6445)"><tspan x="0" y="0" style="fill:#000000;stroke:none;">11D</tspan></text>
				</g>
				<g>
					<g>
						<path d="M249.906,483.061h-17.392v-16.635h17.392v16.635z"/>
						<path d="M249.906,488.732h-17.392v-5.672h17.392v5.672z"/>
					</g>
					<text transform="matrix(1 0 0 1 235.2329 477.6445)"><tspan x="0" y="0" style="fill:#000000;stroke:none;">11E</tspan></text>
				</g>
				<g>
					<g>
						<path d="M267.296,483.061h-17.391v-16.635h17.391v16.635z"/>
						<path d="M267.296,488.732h-17.391v-5.672h17.391v5.672z"/>
					</g>
					<text transform="matrix(1 0 0 1 252.5659 477.6445)"><tspan x="0" y="0" style="fill:#000000;stroke:none;">11F</tspan></text>
				</g>
				<g>
					<g>
						<path d="M232.514,510.28h-17.392v-16.632h17.392v16.632z"/>
						<path d="M232.514,515.952h-17.392v-5.672h17.392v5.672z"/>
					</g>
					<text transform="matrix(1 0 0 1 218.2329 504.3115)"><tspan x="0" y="0" style="fill:#000000;stroke:none;">12D</tspan></text>
				</g>
				<g>
					<g>
						<path d="M249.906,510.28h-17.392v-16.632h17.392v16.632z"/>
						<path d="M249.906,515.952h-17.392v-5.672h17.392v5.672z"/>
					</g>
					<text transform="matrix(1 0 0 1 235.2329 504.3115)"><tspan x="0" y="0" style="fill:#000000;stroke:none;">12E</tspan></text>
				</g>
				<g>
					<g>
						<path d="M267.296,510.28h-17.391v-16.632h17.391v16.632z"/>
						<path d="M267.296,515.952h-17.391v-5.672h17.391v5.672z"/>
					</g>
					<text transform="matrix(1 0 0 1 252.5659 504.3115)"><tspan x="0" y="0" style="fill:#000000;stroke:none;">12F</tspan></text>
				</g>
				<g>
					<g>
						<path d="M232.514,537.505h-17.392v-16.636h17.392v16.636z"/>
						<path d="M232.514,543.176h-17.392v-5.671h17.392v5.671z"/>
					</g>
					<text transform="matrix(1 0 0 1 218.2329 532.3115)"><tspan x="0" y="0" style="fill:#000000;stroke:none;">13D</tspan></text>
				</g>
				<g>
					<g>
						<path d="M249.906,537.505h-17.392v-16.636h17.392v16.636z"/>
						<path d="M249.906,543.176h-17.392v-5.671h17.392v5.671z"/>
					</g>
					<text transform="matrix(1 0 0 1 235.2329 532.3115)"><tspan x="0" y="0" style="fill:#000000;stroke:none;">13E</tspan></text>
				</g>
				<g>
					<g>
						<path d="M267.296,537.505h-17.391v-16.636h17.391v16.636z"/>
						<path d="M267.296,543.176h-17.391v-5.671h17.391v5.671z"/>
					</g>
					<text transform="matrix(1 0 0 1 252.5659 532.3115)"><tspan x="0" y="0" style="fill:#000000;stroke:none;">13F</tspan></text>
				</g>
			</g>
			<g>
				<text transform="matrix(1 0 0 1 291.9419 457.9766)"><tspan x="0" y="0" style="fill:#000000;stroke:none;">Coach</tspan></text>
				<path style="fill:none;" d="M290.442,455.477h-12.5"/>
			</g>
		</g>
	</g>
</svg>
