<?xml version="1.0" encoding="iso-8859-1"?>
<!DOCTYPE svg >

<svg  width="643.446pt" height="603.03pt" viewBox="0 0 643.446 603.03" xml:space="preserve">
	<g id="Layer_x0020_1" style="fill-rule:nonzero;clip-rule:nonzero;stroke:#000000;stroke-miterlimit:4; font-family:'Arial'; font-size:9.5617;">
		<g>
			<path style="fill:#FFFFFF;" d="M81.396,196.529l-0.294,1.18h-1.182l-1.034,1.032l-0.147,2.51h0.297l0.736-0.885l7.084-0.444l0.738-1.328h3.099l1.328-0.59l1.034-1.033l3.69,2.066l3.836,0.885l0.885-0.589l1.918-0.295l0.592-0.59l-0.149-1.476h-1.475l-2.362,0.886
				l-0.885-0.148l-1.477-1.476h-1.771l-0.884-1.181l-1.182-0.443l-2.508,0.443l-1.478,1.625l-8.411-0.148z"/>
			<g>
				<text transform="matrix(1 0 0 1 37.022 200.1235)"><tspan x="0" y="0" style="stroke:none;">Gambia</tspan></text>
				<path style="fill:none;" d="M82.916,198.288l-11.408-0.634"/>
			</g>
		</g>
		<g>
			<path style="fill:#FFFFFF;" d="M481.786,537.589l-0.738,3.099l-0.886,1.772l-0.737,3.542l-0.886,1.622l-1.18,3.983l-1.328,1.772l-2.952,2.065l-2.653,1.18l-1.186,1.478l-1.768,2.213l-5.461,8.56l-4.133,5.168l-4.725,3.541l-3.691,4.277l-3.835,3.545l-2.805,2.064
				l-2.803,2.51l-5.168,3.246l-3.098,1.33l-7.081,0.294l-0.886,0.589l0.442,1.181l-0.148,0.887l-3.836-0.736l-1.625,0.146l-1.034,1.475h-1.77l-6.788-1.62l-1.917,0.146l-1.035,0.887h-1.033l-4.281-0.887l-2.362,0.296l-1.475,1.179l-1.179,0.444l-0.297,0.887h-3.539
				l-0.445,0.441l-2.506-0.297l-1.183,0.148l-0.444,0.445l-2.506,0.146l-1.33,1.625l-1.183,0.294l-3.834-0.294l-1.478-0.888v-0.883l-0.44-0.594l-2.511,0.148l-0.736-0.293l0.146-2.215h-2.214l-0.291,0.44l0.145,1.774l-0.292,0.145l-0.739-1.181v-1.328v-0.886
				l0.588-1.032l-0.148-0.883l-3.245-4.43l0.441-0.146l-0.295-0.739l-1.33-0.736l0.149-1.328l0.296-0.885l1.622,0.59l1.329-1.919l-0.442-5.165l-3.84-5.755l-1.618-3.395l-0.887-1.18l-2.362-4.578l-3.249-8.411l-1.769-1.921l0.148-0.881l-0.297-0.595l1.182-0.442
				l1.622-2.36l1.623-0.295l3.69,2.51v1.624l1.623,1.623l2.214,0.298l2.067-0.739l5.606,0.441l2.214-2.064l1.922-1.183l2.211-0.737l0.146-31.141h0.595l2.95,2.951l0.738,1.183l1.768,1.625l1.034,1.619l0.296,3.1l-1.475,4.573l0.589,1.185l6.198,0.884l4.868-1.183
				l1.478-2.213l2.362-1.771l2.805-3.688l2.654-2.507l1.625-0.594l2.063,0.294l1.773,0.444l3.393,1.919l2.069,0.146l6.197-1.329l0.736-1.03l2.213-4.576l2.215-2.51l3.985-2.657l4.431-5.752l2.801-2.659l2.951-1.622l2.36-2.362l5.758-2.509l3.691-2.065l0.293-0.445
				l1.62-0.589l4.577,1.329l5.464,0.146l2.803,0.888l2.213,2.212l0.885,0.297v2.95l1.92,10.626l-0.3,12.693l-1.026,1.18l-3.104-2.065l-2.063,1.327l-1.184,1.621l-2.065,4.579l0.296,1.475l1.033,2.655l3.396,0.444l1.771,0.148l1.028-1.18l0.892-1.92l1.026-0.444
				l5.906,0.148z"/>
			<text transform="matrix(1 0 0 1 381.3032 569.0005)"><tspan x="0" y="0" style="stroke:none;">South Africa</tspan></text>
		</g>
		<g>
			<path style="fill:#FFFFFF;" d="M553.364,401.224l1.18,1.326l0.296,0.888l-0.296,0.439l0.146,2.515l-2.657,4.574l-0.588,1.917l0.295,8.704l-1.031,0.887l0.147,1.476h0.44l-0.44,5.021l0.291,3.096l-0.438,1.183l0.588,0.591l0.59-0.443l0.446,1.034l-0.888,1.033
				l1.326,0.589l-0.146,1.329l-1.478,3.097l-1.472,1.479l1.181,0.294l-0.592,2.361l-1.329,0.739l-2.655,2.801l-0.737,1.33l-2.511,1.328l0.736,0.737l-0.736,1.18l-4.871,2.805l-1.035,1.626l-2.064,1.031h-2.503l-2.07,0.59l-6.64,3.101l-4.282,3.101l-0.437,1.474
				l-0.743,0.439l-1.916,0.442l0.882,0.741l-3.837,4.574l-0.737-0.443l-0.295-1.325l-1.181,2.213l-1.329,0.587l-4.574,4.578l-1.919,1.178l-1.327,1.327l-1.621,0.446l-0.741,4.28l0.149,1.326l2.509,2.361l0.292,2.808l1.329,4.867l0.15,3.395l0.887-0.587l0.588,0.439
				l-1.182,8.413l-2.36,6.493l0.149,1.475l1.768-2.51l-0.739,2.365l-0.882,1.622l-2.217,2.51l-2.212,1.474l-2.655,0.886l-1.774,0.294l-4.718,1.772l-4.579,2.36l-1.325,0.295l-0.74,0.593l-1.181,1.917l-1.623,1.475l1.916,2.364l1.329-1.479l-0.884,5.167l-5.906-0.148
				v-7.82l0.3-12.693l-1.92-10.626v-2.95l0.148-2.215l0.737-1.771l0.886-1.329l2.803-2.065l2.952-4.868l1.327-4.431l2.957-5.166l-0.302-3.833l-0.586-1.919v-2.509l1.622-2.656l1.032-3.543l0.445-6.789l-1.038-4.575l-0.146-2.064l-1.178-1.331l-10.775-4.277
				l-2.36-0.443h-6.052l0.147-2.803l-0.737-0.443l-1.329-4.134l25.088-8.561h1.329l1.032,0.74l1.183,2.213l1.327,1.627l6.344-0.887l1.036,0.887l0.588,3.242v2.657l-1.476,2.063l0.15,1.036l-0.884,0.736l-0.592,1.625l1.034,2.804l3.246,3.836l1.621,0.737l0.443,0.592
				l-0.59,1.772h1.917l0.297-2.512l-0.735-1.178l-0.152-1.036l0.888-2.212l3.836-1.623l0.591-0.737l0.294-3.246l0.594-1.033l-0.594-2.068l1.032-2.51l-0.295-2.064l-0.589-1.033l-7.233-8.705l-0.589-1.478v-5.165l-0.442-2.362l0.594-2.217l1.326-2.503l0.74-2.657
				h6.05l1.622-0.739h1.182l0.885,0.295l1.621,1.477l0.738,0.149l2.51-0.296l1.624-1.034l5.9,0.148l2.658-2.215l3.397-0.591l2.063,1.033l2.802-0.147l8.709-3.1l4.573-3.396l0.299-1.181l-0.443-0.146z"/>
			<text transform="matrix(1 0 0 1 488.2729 463.7476)"><tspan x="0" y="0" style="stroke:none;">Mozambique</tspan></text>
		</g>
		<g>
			<path style="fill:#FFFFFF;" d="M475.879,529.621l-1.026,1.18l-3.104-2.065l-2.063,1.327l-1.184,1.621l-2.065,4.579l0.296,1.475l1.033,2.655l3.396,0.444l1.771,0.148l1.028-1.18l0.892-1.92l1.026-0.444v-7.82z"/>
			<g>
				<text transform="matrix(1 0 0 1 495.0444 556.4741)"><tspan x="0" y="0" style="stroke:none;">Swaziland</tspan></text>
				<path style="fill:none;" d="M472.123,536.165l19.052,19.054"/>
			</g>
		</g>
		<g>
			<path style="fill:#FFFFFF;" d="M456.698,499.069l-0.293,0.445l-3.691,2.065l-5.758,2.509l-2.36,2.362l-2.951,1.622l-2.801,2.659l-4.431,5.752l-3.985,2.657l-2.215,2.51L426,526.227l-0.736,1.03l-6.197,1.329l-2.069-0.146l-3.393-1.919l-1.773-0.444l-2.063-0.294
				l-1.625,0.594l-2.654,2.507l-2.805,3.688l-2.362,1.771l-1.478,2.213l-4.868,1.183l-6.198-0.884l-0.589-1.185l1.475-4.573l-0.296-3.1l-1.034-1.619l-1.768-1.625l-0.738-1.183l-2.95-2.951h-0.595V497.89l0.886-0.591l7.234,0.294v-29.076l0.738-0.735l15.348-2.512
				l2.654,0.151l1.473,0.442l1.038,1.773l0.439,2.215l2.216-2.656l2.509-1.774l3.986-1.033l1.768-1.623l1.773-0.147l1.031,0.443l0.445,2.209l1.769,3.104l1.476,1.329l0.298,1.622l0.882,2.216l1.921,2.653l4.281,4.431l2.358,0.588l1.774,1.327l1.477,1.917
				l1.767,0.742l1.479,1.325v2.806l0.442,2.951l0.884,1.771l2.361,2.215l3.69,0.146l3.395,1.478l1.624,1.179z"/>
			<text transform="matrix(1 0 0 1 395.9058 500.603)"><tspan x="0" y="0" style="stroke:none;">Botswana</tspan></text>
		</g>
		<g style="stroke:none;">
			<path style="fill:#FFFFFF;stroke:#000000;" d="M317.38,362.556l-1.182-1.033l-0.735-4.722l-0.739-0.885l3.69-2.36l1.029-2.215l1.479-0.887l1.474,0.592l0.741,1.621l-3.249,2.657l-0.59,2.364l-0.445,4.277l-1.474,0.59z"/>
			<g>
				<path style="fill:none;stroke:#000000;" d="M317.425,356.99l-15.238,15.237"/>
				<text transform="matrix(1 0 0 1 258.4238 375.5581)"><tspan x="0" y="0">Sao Tome</tspan><tspan x="0" y="11.562">&amp; Principe</tspan></text>
			</g>
		</g>
		<g>
			<path style="fill:#FFFFFF;" d="M491.231,431.625l1.032,0.74l1.183,2.213l1.327,1.627l6.344-0.887l1.036,0.887l0.588,3.242v2.657l-1.476,2.063l0.15,1.036l-0.884,0.736l-0.592,1.625l1.034,2.804l3.246,3.836l1.621,0.737l0.443,0.592l-0.59,1.772h1.917l0.297-2.512
				l-0.735-1.178l-0.152-1.036l0.888-2.212l3.836-1.623l0.591-0.737l0.294-3.246l0.594-1.033l-0.594-2.068l1.032-2.51l-0.295-2.064l-0.589-1.033l-7.233-8.705l-0.146,1.918l1.477,1.033l1.33,4.573h-0.594l-1.031-1.33l-0.739-0.293l-0.589-1.183l-0.739,1.476
				l-1.623-0.146l-0.441-1.475l0.441-2.364l-1.475-2.063l-1.037-6.644l-1.769-3.543l0.149-1.327l1.619-2.065l0.738-1.918l-0.292-8.856l0.44-1.918l-1.769-1.772l-0.887-2.065l0.149-2.36l0.885-0.884l-0.445,0.737l-1.326-0.887l-2.362,0.594l-1.034-1.037h-1.474
				l-1.626-0.886l-0.293,0.886l0.441,1.33h1.478l0.887,1.178l0.736,2.361l0.885,0.887l0.444,2.804l0.588,0.441l0.147,0.888l-0.147,0.588l-2.211,1.332l-0.146,2.656l-1.034,2.652l0.147,3.396l-0.296,2.218l0.588,1.028l0.741,0.296l0.145,1.032l-3.538,1.771
				l-0.739,4.282l-0.888,2.212l-1.326,1.771l0.297,1.33l0.737,0.144l0.44,1.035h1.33l0.441,0.442z"/>
			<text transform="matrix(1 0 0 1 493.9038 431.1899)"><tspan x="0" y="0" style="stroke:none;">Malawi</tspan></text>
		</g>
		<g>
			<path style="fill:#FFFFFF;" d="M581.403,450.959l0.737-0.888l1.035,0.442l2.359-0.146l2.363-1.623l0.295,0.738l0.443,0.292l0.884-0.881l0.888,0.292l0.883-1.033l0.298-0.885l1.474-0.443l0.739,0.592l1.182-0.885l0.736,0.293l0.589,1.476l0.887,1.183h2.215
				l-0.297-1.33l-1.33-1.328l0.298-1.473l1.77-1.624l1.774-1.183l1.03,0.591v1.917l1.183,0.149l1.031-0.59l-1.181-2.803l2.51-2.513l-0.442-0.29l1.182-1.186l0.44,1.186l-0.59,1.77l2.657-2.955l2.065-0.147l-0.296-0.589l-1.327-0.442l-0.588-1.18l1.915-2.512
				l0.736,0.888l0.152-1.918l-0.593-2.951l0.44-0.593l1.626,0.593l0.442,1.62l2.066-2.804l0.441-1.623l1.036,0.737l1.472-0.887l0.886-2.212l0.447-3.396l-0.74-1.473l0.74,0.295l1.622-1.772l1.032-0.737l4.277,5.018l0.889,2.065l1.475,11.214l0.148,4.726l0.738,2.216
				v2.36l-0.443,2.214l-0.884,1.769l-1.186,0.297l-1.176-4.279l-1.331,0.146l-1.18,5.757l0.886,1.771l-0.296,2.362l-0.884,1.619l-2.363,3.103l-0.885,4.721l-2.36,7.674l-2.511,4.428l-3.688,8.857l-2.216,4.134l-3.543,8.852l-3.836,7.969l-4.133,10.922l-2.651,4.136
				l-2.069,2.949l-3.099,1.919l-1.034-0.295l-4.72,0.886l-5.021,2.656l-2.068,0.293l-7.378-5.755l-1.622-2.95l-0.594-2.51v-2.657l0.301-1.917l0.735-1.33l-0.886-4.277l-1.18-1.036l-0.738-2.21l0.443-6.498l2.657-3.836l1.032-1.179l1.18-0.444l1.773-3.837
				l5.605-7.822l-0.295-1.478l0.737-0.736l-1.326-3.543l-0.446-2.804l-0.44-3.982l0.147-4.43l-1.183-2.359l2.217-3.246l2.654-4.872l0.147-2.508z"/>
			<text transform="matrix(1 0 0 1 581.3804 473.7134)"><tspan x="0" y="0" style="stroke:none;">Madagascar</tspan></text>
		</g>
		<g>
			<path style="fill:#FFFFFF;" d="M500.974,311.052l3.539-5.019l3.248-3.986l1.034-1.769l0.589-5.313l-0.589-5.461l-1.184-1.181l-1.771-0.887l-0.734-0.736l-1.183-5.166l-0.594-0.74v-1.179l-2.356-0.589l-0.742-0.594v-0.588v0.588l-3.984,2.514h-5.31l-2.065,0.881
				l-4.724,0.742l-0.887-1.328l-3.395,0.586l-1.771-0.586l-2.065,0.143l-1.178,0.886l-0.892,4.722l0.153,3.397l1.179,2.067l2.51,1.77l0.589-0.295l0.588,0.444l0.147,2.803l-1.031,1.771l-2.362,1.328l-2.949,3.836l-1.035-0.293l-0.146-1.183l-3.688,4.28l-1.332,2.511
				l-1.177,4.721l-0.592,9.739l1.623,0.888l1.329-0.295l1.474-2.216l1.922-0.738l3.394,0.446l1.034-0.741h7.08l-0.884-0.882l1.919-4.282l-0.148-1.771l3.101-0.887l0.738-1.179l0.887,0.44l0.737-0.295l0.292-1.031l3.691,1.326l1.917-2.656l2.953,1.478l1.326-0.443
				l1.333,0.296l0.442-0.296z"/>
			<text transform="matrix(1 0 0 1 472.7183 304.6567)"><tspan x="0" y="0" style="stroke:none;">Uganda</tspan></text>
		</g>
		<g>
			<path style="fill:#FFFFFF;" d="M456.698,499.069l1.62-0.589l4.577,1.329l5.464,0.146l2.803,0.888l2.213,2.212l0.885,0.297l0.148-2.215l0.737-1.771l0.886-1.329l2.803-2.065l2.952-4.868l1.327-4.431l2.957-5.166l-0.302-3.833l-0.586-1.919v-2.509l1.622-2.656
				l1.032-3.543l0.445-6.789l-1.038-4.575l-0.146-2.064l-1.178-1.331l-10.775-4.277l-2.36-0.443h-6.052l0.147-2.803l-2.509,0.441l-2.511-0.59l-1.768,0.884l-2.364,0.147l-2.063,1.624l-1.92,0.442l-0.293,3.688l-1.183,2.218l-2.214,0.148l-4.133,2.509l-1.919,1.621
				l-2.657,3.395l-3.243,3.245l-0.885-0.146l-1.032,0.594l-1.626-1.331l-4.282,0.442l-2.214-0.737l-2.651,0.295l-1.038-0.59l0.445,2.209l1.769,3.104l1.476,1.329l0.298,1.622l0.882,2.216l1.921,2.653l4.281,4.431l2.358,0.588l1.774,1.327l1.477,1.917l1.767,0.742
				l1.479,1.325v2.806l0.442,2.951l0.884,1.771l2.361,2.215l3.69,0.146l3.395,1.478l1.624,1.179z"/>
			<text transform="matrix(1 0 0 1 435.9067 477.4312)"><tspan x="0" y="0" style="stroke:none;">Zimbabwe</tspan></text>
		</g>
		<g>
			<path style="fill:#FFFFFF;" d="M325.203,294.669l-1.329-0.442l-5.459-0.147l-2.511-0.443l-2.951,0.443l-2.362-0.294l-2.066,0.441l-1.033,2.212l0.15,3.84l0.737,3.392l-10.776,0.298l-3.835,0.888l0.146,2.358l-0.442,0.739h-1.181l-0.293,0.882l1.475,1.626
				l3.098,1.477l-0.442,0.441h-1.915l-2.66-1.327l-0.44,5.754l-2.066,2.214l-1.774,0.591l2.065,4.132l2.216,5.609l5.313,6.786l5.461,4.576l3.689,3.84l1.033,2.214l0.294-2.363l0.887-1.179l3.542-0.296l0.444-0.889l-1.182-4.131v-1.917l0.737-1.331l1.771-1.182
				l3.542-1.474l2.954-2.952l1.18,0.593l1.475,1.771l3.689-0.293l3.102,2.505l2.21-0.886l0.741-2.653l0.438-5.757l0.592-2.067l0.148-2.359l-2.362-6.645l0.146-2.508l2.803-4.576l-0.146-3.394l-1.62-1.915l-4.428-1.037l-2.511,3.543l-1.328-0.737v-5.757l1.033-2.213z
				"/>
			<text transform="matrix(1 0 0 1 298.9395 322.394)"><tspan x="0" y="0" style="stroke:none;">Gabon</tspan></text>
		</g>
		<g>
			<path style="fill:#FFFFFF;" d="M415.963,404.62l0.593,1.031l-0.444,0.741l0.298,1.324l-0.889,5.462l0.148,2.214l-0.593,5.609l0.74,1.18l1.33,0.444h-18.01v30.104l1.478,2.065l1.771,1.18l2.953,2.954l1.33,0.733l0.59,0.888l1.326,0.74l7.378-1.771l0.446,0.443
				h3.096l2.065,0.44l1.92,2.215l0.885,0.443l1.038,0.59l2.651-0.295l2.214,0.737l4.282-0.442l1.626,1.331l1.032-0.594l0.885,0.146l3.243-3.245l2.657-3.395l1.919-1.621l4.133-2.509l2.214-0.148l1.183-2.218l0.293-3.688l1.92-0.442l2.063-1.624l2.364-0.147
				l1.768-0.884l2.511,0.59l2.509-0.441l-0.737-0.443l-1.329-4.134l25.088-8.561h1.329l-0.441-0.442h-1.33l-0.44-1.035l-0.737-0.144l-0.297-1.33l1.326-1.771l0.888-2.212l0.739-4.282l3.538-1.771l-0.145-1.032l-0.741-0.296l-0.588-1.028l0.296-2.218l-0.147-3.396
				l1.034-2.652l0.146-2.656l2.211-1.332l0.147-0.588l-0.147-0.888l-0.588-0.441l-0.444-2.804l-0.885-0.887l-0.736-2.361l-0.887-1.178h-1.478l-0.441-1.33l0.293-0.886l-1.03-1.033l-3.248-0.588l-4.279-1.919l-1.479-0.297l-3.244-3.098l-2.065-0.296l-1.328,1.92
				l-1.624-1.331l-1.623-0.589v-2.212l-0.443-1.037l-11.51,2.657l-1.185,0.888l-0.439,2.063l-2.213,2.952v1.477l1.032,2.951l0.296,2.215l-0.296,3.69l-2.952,8.704l-0.147,2.513l2.507,3.393l1.036,0.595l3.543,0.439l1.327-0.738l0.884,0.299l0.297,1.028l0.293,6.494
				l-0.293,1.476l-1.331-0.296l-0.884-1.18l-2.066,0.442l-2.806-0.735l-4.129-3.103l-1.182-2.654l-1.031-1.181h-1.625l-3.837-1.625l-2.954-2.8l-2.213,0.146l-3.101,1.181l-1.767-0.148l-6.641-3.099l-2.066-3.543l-5.61,1.771l-0.738-0.59l0.146-2.067l-1.031-1.476
				l-0.884-0.147l-1.479,0.445z"/>
			<text transform="matrix(1 0 0 1 412.0093 439.8179)"><tspan x="0" y="0" style="stroke:none;">Zambia</tspan></text>
		</g>
		<g>
			<path style="fill:#FFFFFF;" d="M313.985,459.077l-0.588-5.609l0.736,0.298l0.15,1.029l-0.15-7.377l1.179-1.184l1.478-5.163l0.74-5.168l0.586-2.653l1.037-2.658v-1.181l0.59-0.737l0.884-3.246l2.214-2.065l0.298-1.92l2.947-1.328l2.659-3.541l1.033-4.135v-2.507
				l0.295-1.327l-0.152-2.212l0.739-1.184l-0.739-2.951l-1.912-1.475l-1.625-2.953l-2.065-7.086v-1.031l1.768-2.066v-2.51l-0.588-2.216l-1.035-1.475l-2.656-8.702l-3.836-5.317l-0.44-1.475l1.028-0.886l7.089-2.51l9.293-0.439l1.184,0.439h2.952l9.003-0.59
				l2.506,0.15l1.183,1.327l1.184-0.148l0.737,1.33l0.886,5.015l1.473,2.509l0.443,2.659l5.019,6.199l2.067,0.589h2.064l5.315-1.329l5.458,0.146l2.066-8.264l6.49-0.143l0.295-0.888h3.694l-0.297,3.392l7.523,0.149l0.887,1.92l1.035,11.803l-0.591,4.577l0.295,1.327
				l1.476,2.216l1.917,5.755l-0.291,1.031l-2.364,2.804l0.147,0.738l0.884,0.298l0.887,1.032l0.883,0.294l0.888-1.031l0.148-1.181l0.887-0.296h7.819l1.624-0.738l1.626,0.442l1.621-1.031l0.593,1.031l-0.444,0.741l0.298,1.324l-0.889,5.462l0.148,2.214l-0.593,5.609
				l0.74,1.18l1.33,0.444h-18.01v30.104l1.478,2.065l1.771,1.18l2.953,2.954l1.33,0.733l0.59,0.888l1.326,0.74l-14.61,3.692l-0.443-0.447l-10.918-1.917l-8.27,0.297l-2.653-0.884l-0.883-1.332l-2.362-1.918l-35.127,0.296l-1.033,0.293l-2.065-1.917l-2.065-0.737
				l-0.739-1.182l-1.475-0.292l-3.396,0.147l-1.326,0.585l-2.514,1.773l-1.476-0.886l-3.245,2.215z"/>
			<text transform="matrix(1 0 0 1 348.7974 420.0083)"><tspan x="0" y="0" style="stroke:none;">Angola</tspan></text>
		</g>
		<g style="stroke:none;">
			<path style="fill:#FFFFFF;stroke:#000000;" d="M471.603,302.639l-3.688,4.28l-1.332,2.511l-1.177,4.721l-0.592,9.739l-1.477,1.329l-1.18,1.772l-1.773,3.836l-1.474,2.213v1.622l0.887,1.183l1.327,1.772l0.294,3.688l-1.475,5.018l-0.146,2.806l0.587-0.592
				l0.3,1.771l-0.887,3.396l-0.147,2.506l1.921,4.871l-0.594,3.838l0.594,2.507l1.767,3.545l1.034,1.474l2.065,1.918l2.065,0.592l1.332,1.921l1.178,5.309l-11.51,2.657l-1.185,0.888l-0.439,2.063l-2.213,2.952v1.477l1.032,2.951l0.296,2.215l-0.296,3.69
				l-2.952,8.704l-0.147,2.513l2.507,3.393l1.036,0.595l3.543,0.439l1.327-0.738l0.884,0.299l0.297,1.028l0.293,6.494l-0.293,1.476l-1.331-0.296l-0.884-1.18l-2.066,0.442l-2.806-0.735l-4.129-3.103l-1.182-2.654l-1.031-1.181h-1.625l-3.837-1.625l-2.954-2.8
				l-2.213,0.146l-3.101,1.181l-1.767-0.148l-6.641-3.099l-2.066-3.543l-5.61,1.771l-0.738-0.59l0.146-2.067l-1.031-1.476l-0.884-0.147l-1.479,0.445l-1.621,1.031l-1.626-0.442l-1.624,0.738h-7.819l-0.887,0.296l-0.148,1.181l-0.888,1.031l-0.883-0.294l-0.887-1.032
				l-0.884-0.298l-0.147-0.738l2.364-2.804l0.291-1.031l-1.917-5.755l-1.476-2.216l-0.295-1.327l0.591-4.577l-1.035-11.803l-0.887-1.92l-7.523-0.149l0.297-3.392h-3.694l-0.295,0.888l-6.49,0.143l-2.066,8.264l-5.458-0.146l-5.315,1.329h-2.064l-2.067-0.589
				l-5.019-6.199l-0.443-2.659l-1.473-2.509l-0.886-5.015l-0.737-1.33l-1.184,0.148l-1.183-1.327l-2.506-0.15l-9.003,0.59h-2.952l-1.184-0.439l-9.293,0.439l-7.089,2.51l-1.028,0.886l-0.149-3.396l1.474-0.59l0.445-4.277l0.59-2.364l3.249-2.657l2.509,1.476
				l1.915-0.438l1.033-1.773l1.183-1.03l4.133-0.888l0.291,0.589l0.296,2.804l1.626,0.445l3.246-1.184l3.396-3.099l2.064-1.032l2.51-2.361l1.919-3.395l0.588-1.917v-3.839l0.444-3.1l1.18-3.244l3.543-5.462l2.657-2.51l2.95-1.619l2.215-2.07l1.33-5.313l0.146-10.183
				l1.328-6.788l1.475-3.838l3.246-5.608l0.739-2.951l-0.292-2.655l1.914-0.441l-0.441-1.184l0.739-5.164l1.178-0.738l0.887-2.363l3.102-2.656l4.428,0.296l1.178,1.474l0.593,1.329l2.948,2.805l1.184,0.298l1.18-1.182l2.215,1.475l3.539,0.885h7.676l1.18-0.44
				l0.296-2.657l2.068-1.325l2.802,0.438l1.475,0.888l4.43-1.921l3.981-0.591l1.773-1.032h0.886v1.032l1.183,0.446l1.177-0.446h1.922l0.44-1.916l3.102,0.591l5.753-1.183l2.213,2.361l0.887-1.179l1.917,1.179l1.186-1.623h4.279l1.028,1.77l1.921,1.329l1.771,2.805
				l3.544,1.476l0.885-0.589l1.03-1.18l3.984,0.884l1.773-0.145l2.064-1.623l1.623,1.031l3.838,3.982l2.066,1.182l2.358,2.212h0.892l-0.892,4.722l0.153,3.397l1.179,2.067l2.51,1.77l-4.134,3.689l-2.214,2.217l-0.443,1.031v1.324l0.591,0.15z"/>
			<text transform="matrix(1 0 0 1 382.0161 326.4536)"><tspan x="0" y="0">Dem.Rep.</tspan><tspan x="0" y="11.562">of Congo</tspan></text>
		</g>
		<g>
			<path style="fill:#FFFFFF;" d="M507.173,410.966h6.05l1.622-0.739h1.182l0.885,0.295l1.621,1.477l0.738,0.149l2.51-0.296l1.624-1.034l5.9,0.148l2.658-2.215l3.397-0.591l2.063,1.033l2.802-0.147l8.709-3.1l4.573-3.396l0.299-1.181l-0.443-0.146l-2.217-0.887
				l-0.734-1.476l-1.624-1.032l-0.298-2.658l-0.292-1.029l-0.887-0.737l0.294-1.922l-1.918-3.101l0.592-0.736l-0.737-0.737l-1.034-3.396l0.293-1.032l0.887-0.146l0.149-3.101l-0.445-1.031l0.59-2.803l1.186-1.477v-0.593l-0.888-1.918l-2.213-2.357l-2.361-1.775
				l-0.296-0.885v-1.623l4.278-12.398l-11.656-7.231l-0.737-1.624l-1.036-5.017l-29.368-17.267l-1.625,0.591l-0.44,1.035l0.44,1.03l-0.148,0.444l-0.885-0.149l-0.292,1.331l-0.888,0.293l-1.032,2.362h-1.033l-0.444,0.443l0.444,0.59l-1.77,1.477l1.18,0.591
				l2.362-0.146l0.293,0.586l-0.146,0.442l-1.626,1.327l-1.325,0.444l-3.103,0.294l-0.438,1.478v1.183l-1.037,0.738l-0.293-3.102h-0.737l-0.887,0.59l-3.098-2.801l-0.885,1.032l0.291,1.179l-0.887,0.146l-0.588,1.183l-1.325,0.591l-0.591-1.33v-1.181l-0.739-3.538
				l0.296-3.252l0.59-2.064l0.146-3.837h-7.08l-1.034,0.741l-3.394-0.446l2.653,4.28l1.038,3.543l-0.445,1.476l-1.771,2.213l-0.737,0.885l-0.297,1.92l0.59,1.18l1.622,0.593l0.3,2.36l-2.215,2.653l-0.888,2.217l-2.51,3.986l-4.279,1.326v5.314l1.183,1.474v2.214
				l0.885,3.986l-1.477,1.917l0.592,2.066l3.245,1.922l2.805,2.952v3.539l1.329,3.394l3.246,6.494l2.065,0.296l3.244,3.098l1.479,0.297l4.279,1.919l3.248,0.588l1.03,1.033l1.626,0.886h1.474l1.034,1.037l2.362-0.594l1.326,0.887l0.445-0.737l1.771,0.444
				l1.622,1.767l0.592,1.183l0.884,5.461l0.594,1.178l-0.151,3.249l1.478,1.623l0.74,1.92z"/>
			<text transform="matrix(1 0 0 1 493.0415 369.7896)"><tspan x="0" y="0" style="stroke:none;">Tanzania</tspan></text>
		</g>
		<g>
			<path style="fill:#FFFFFF;" d="M355.161,553.083l-1.034-0.292l-5.017-4.281l-1.18-2.508l-2.951-3.248l-1.477-7.086l-0.889-1.768l0.3-1.479l-1.476-3.246l-0.297-6.052l-2.805-5.753l-0.296-1.624l-0.147-10.037l-0.442-2.951l-1.327-2.656l-2.949-3.393l-0.738-2.066
				l-3.397-4.869l-2.212-5.317l-2.509-3.69l-1.624-3.538l-4.279-6.2l-1.477-1.177l-2.361-3.693l-0.592-3.687v-3.396l3.245-2.215l1.476,0.886l2.514-1.773l1.326-0.585l3.396-0.147l1.475,0.292l0.739,1.182l2.065,0.737l2.065,1.917l1.033-0.293l35.127-0.296
				l2.362,1.918l0.883,1.332l2.653,0.884l8.27-0.297l10.918,1.917l0.443,0.447l14.61-3.692l7.378-1.771l0.446,0.443h3.096l2.065,0.44l1.92,2.215l0.885,0.443l-1.031-0.443l-1.773,0.147l-1.768,1.623l-3.986,1.033l-2.509,1.774l-2.216,2.656l-0.439-2.215
				l-1.038-1.773l-1.473-0.442l-2.654-0.151l-15.348,2.512l-0.738,0.735v29.076l-7.234-0.294l-0.886,0.591v22.728l-0.146,31.141l-2.211,0.737l-1.922,1.183l-2.214,2.064l-5.606-0.441l-2.067,0.739l-2.214-0.298l-1.623-1.623v-1.624l-3.69-2.51l-1.623,0.295
				l-1.622,2.36l-1.182,0.442z"/>
			<text transform="matrix(1 0 0 1 340.7173 494.7358)"><tspan x="0" y="0" style="stroke:none;">Namibia</tspan></text>
		</g>
		<g>
			<path style="fill:#FFFFFF;" d="M516.174,274.008l-3.248,0.442l-8.413-0.148l-1.772,1.036l-2.509,3.096l0.742,0.594l2.356,0.589v1.179l0.594,0.74l1.183,5.166l0.734,0.736l1.771,0.887l1.184,1.181l0.589,5.461l-0.589,5.313l-1.034,1.769l-3.248,3.986l-3.539,5.019
				l-0.149,2.36l1.179,1.331l0.445,1.326l3.54-0.885h1.623v0.885l-1.771,0.59l-1.328,1.034h-1.623l-1.179,2.063l1.179,1.478l29.368,17.267l1.036,5.017l0.737,1.624l11.656,7.231l1.479-0.737l1.323-1.77l1.627-3.838l2.953-5.313l0.587-2.507l1.032-2.214l0.739-0.888
				l3.102-1.625l0.586-1.915l1.034-1.328l2.213-0.74l2.214-2.506v-0.738l-4.574-5.61l-0.148-31.434l3.84-3.689l3.395-5.755l-4.28,0.146l-5.019-2.509l-5.904,1.476l-2.211,2.508l-3.693,1.921l-3.688-0.146l-3.539-0.889l-2.51-0.146l-3.098-1.031l-1.775-1.772
				l-5.754-3.539l-2.657-1.183l-4.722,0.147l-2.064-0.739z"/>
			<text transform="matrix(1 0 0 1 527.394 307.1157)"><tspan x="0" y="0" style="stroke:none;">Kenya</tspan></text>
		</g>
		<g>
			<path style="fill:#FFFFFF;" d="M458.383,555.402l0.298-0.295l-0.148,1.179l-3.688,5.168l-4.135,1.477l-1.331,2.066l-1.326,0.442l-1.623,0.296l-2.654-2.366l-1.478-1.621l-1.478-3.542l0.593-1.478l3.541-4.423l2.068-1.623l3.983-1.775l2.067-0.292l1.472,0.888
				l3.543,4.573l0.295,1.326"/>
			<g>
				<text transform="matrix(1 0 0 1 471.0581 578.5083)"><tspan x="0" y="0" style="stroke:none;">Lesotho</tspan></text>
				<path style="fill:none;" d="M449.332,557.214l17.745,19.016"/>
			</g>
		</g>
		<g style="stroke:none;">
			<path style="fill:#FFFFFF;stroke:#000000;" d="M308.524,294.227h-6.197l-7.233,0.59v1.475l-1.032,1.92l-0.294,1.769l-1.771,2.806l2.215,1.329v0.296l-0.445,0.445l3.835-0.888l10.776-0.298l-0.737-3.392l-0.15-3.84l1.033-2.212"/>
			<g>
				<text transform="matrix(1 0 0 1 245.8516 293.689)"><tspan x="0" y="0">Equatorial</tspan><tspan x="0" y="11.562">Guinea</tspan></text>
				<path style="fill:none;stroke:#000000;" d="M297.79,297.798h-16.481"/>
			</g>
		</g>
		<g>
			<path style="fill:#FFFFFF;" d="M370.808,281.684l-0.886,0.887l-2.364,1.031l-2.509,0.589l-5.167-2.507l-3.098,0.441l-3.541,2.361l-2.659,2.362l-1.326,2.063l-0.299,1.771l0.299,6.642l-0.442,1.625l-0.592,0.443l-3.688-2.955l-1.623,0.151l-2.069-0.737
				l-2.211-0.149l-1.772-1.034h-11.658l-1.033,2.213v5.757l1.328,0.737l2.511-3.543l4.428,1.037l1.62,1.915l0.146,3.394l-2.803,4.576l-0.146,2.508l2.362,6.645l-0.148,2.359l-0.592,2.067l-0.438,5.757l-0.741,2.653l-2.21,0.886l-3.102-2.505l-3.689,0.293
				l-1.475-1.771l-1.18-0.593l-2.954,2.952l-3.542,1.474l-1.771,1.182l-0.737,1.331v1.917l1.182,4.131l-0.444,0.889l-3.542,0.296l-0.887,1.179l-0.294,2.363l1.917,0.882l3.251,3.543l0.882,1.18l1.625,3.544l3.69-2.36l1.029-2.215l1.479-0.887l1.474,0.592
				l0.741,1.621l2.509,1.476l1.915-0.438l1.033-1.773l1.183-1.03l4.133-0.888l0.291,0.589l0.296,2.804l1.626,0.445l3.246-1.184l3.396-3.099l2.064-1.032l2.51-2.361l1.919-3.395l0.588-1.917v-3.839l0.444-3.1l1.18-3.244l3.543-5.462l2.657-2.51l2.95-1.619l2.215-2.07
				l1.33-5.313l0.146-10.183l1.328-6.788l1.475-3.838l3.246-5.608l0.739-2.951l-0.292-2.655z"/>
			<text transform="matrix(1 0 0 1 334.0933 309.9194)"><tspan x="0" y="0" style="stroke:none;">Congo</tspan></text>
		</g>
		<g>
			<path style="fill:#FFFFFF;" d="M459.797,335.845l0.296-1.329l0.739-0.591l1.028,0.149l1.034,2.212l0.297,0.149l2.951-0.591l0.59-0.739v-1.325l0.592-0.74h1.476l2.803-0.59l1.034,0.59l-0.737,0.885l-0.297,1.92l0.59,1.18l1.622,0.593l0.3,2.36l-2.215,2.653
				l-0.888,2.217l-2.51,3.986l-4.279,1.326l-1.624-2.214l-0.441-4.87l-0.739-1.771l-0.294-3.688l-1.327-1.772z"/>
			<text transform="matrix(1 0 0 1 463.8032 346.4185)"><tspan x="0" y="0" style="stroke:none;">Burundi</tspan></text>
		</g>
		<g>
			<path style="fill:#FFFFFF;" d="M464.814,323.89l1.623,0.888l1.329-0.295l1.474-2.216l1.922-0.738l2.653,4.28l1.038,3.543l-0.445,1.476l-1.771,2.213l-1.034-0.59l-2.803,0.59h-1.476l-0.592,0.74v1.325l-0.59,0.739l-2.951,0.591l-0.297-0.149l-1.034-2.212
				l-1.028-0.149l-0.739,0.591l-0.296,1.329l-0.887-1.183v-1.622l1.474-2.213l1.773-3.836l1.18-1.772l1.477-1.329z"/>
			<text transform="matrix(1 0 0 1 463.02 332.854)"><tspan x="0" y="0" style="stroke:none;">Rwanda</tspan></text>
		</g>
		<g>
			<path style="fill:#FFFFFF;stroke-linecap:round;stroke-linejoin:round;" d="M518.533,192.632l3.659,0.471l0.99-1.52h1.135l2.185,2.804l2.556-6.553l1.667,1.564l1.445,0.162l1.446,2.052l3.867-0.531l0.736-1.313l1.96,1.652l2.396-1.033l3.085,1.136l2.553-0.293
				l4.736,2.405l4.026,4.678l4.606,3.218l2.078,3.333l2.438,1.477l1.463,2.334l-0.041-0.075l-0.431,0.473l-1.034,5.018l-1.918,3.837l0.294,1.476l1.033,0.884l3.396,0.149l0.442-0.591l1.918-0.739l2.066,1.476l-0.737,1.624l1.035,3.396l5.755,6.788l3.246,2.362
				l1.029,1.181l25.685,9.001l7.967-0.294l-1.475,2.361l-22.434,23.613l-9.889,0.146l-4.427,2.066l-3.835,3.249l-5.021,1.623l-2.506,1.329l-0.591,0.737l-4.28,0.146l-5.019-2.509l-5.904,1.476l-2.211,2.508l-3.693,1.921l-3.688-0.146l-3.539-0.889l-2.51-0.146
				l-3.098-1.031l-1.775-1.772l-5.754-3.539l-2.657-1.183l-4.722,0.147l-2.064-0.739v-6.051l-1.182-0.739l-3.395-0.736l-1.478-0.885l-3.836-9.005l-3.544-2.066l-1.177-1.18l-0.886-1.329l-0.3-1.475l-1.326-1.624l-1.329-0.737l-1.622-0.442h-1.328l-3.096-1.476
				l0.736-1.181l0.885-0.737l-0.147-2.361l1.475-0.442l3.541,0.294l2.808-1.77l-0.149-9.153l0.739-4.131l-0.299-2.509l0.591,0.297l1.332-2.953l1.18-0.885h1.769l0.59-0.737l1.183-6.053l5.018-7.38l1.328-1.476l1.328-0.441l1.029-1.18l2.069-8.856l-0.2-2.057
				l0.052,0.08z"/>
			<text transform="matrix(1 0 0 1 530.9048 247.7358)"><tspan x="0" y="0" style="stroke:none;">Ethiopia</tspan></text>
		</g>
		<g>
			<path style="fill:#FFFFFF;" d="M342.765,119.342l-0.441,12.103l0.29,0.885l2.365,5.314l1.77,1.623l3.396,1.772l-2.214,3.395l-2.362,11.51l-1.179,14.314l-14.169,15.35v1.624l-0.885,0.444l0.149,1.474l-1.33,0.148l-0.593,0.737l-0.146,1.032l0.295,0.59
				l2.362,0.886l1.77,1.331l0.887,1.179l0.59,3.247l2.507,0.591l1.772-0.296l2.065,0.739l1.181-0.295l1.185,2.214l-0.738,1.919l-1.627,1.034l-2.213,0.737l-0.296-0.149l0.593,0.738l0.886,4.281l1.181,2.361l-0.887,7.675l1.33,3.099l2.356,3.101l0.447,2.359
				l-0.886,0.738l-5.314-0.885l-2.805,0.442l-1.327,1.18l-0.149,2.363l0.295,1.771l1.623,2.213l1.185,0.739L338.78,238l1.478,1.769l1.621,4.281l0.735,5.313l0.594,0.886l0.589-0.444l2.215-0.295l2.508,0.295l1.478-1.329l2.214-0.295l0.146-1.18l0.888-0.296
				l0.883,0.147l0.447,0.887l1.619,1.475l1.032-0.887l1.332-0.293l2.063-1.33l3.245-1.328l2.214,0.148l1.184-0.591h3.837l0.741-1.478l1.474-0.587l0.442-1.328l1.18-1.182l-1.327-1.771l0.441-1.18l1.479-0.591l4.72-0.147l3.1-0.886l1.769,0.296l1.185-0.443
				l1.18-1.623l2.804-1.034l1.032-2.215l2.513-2.361l1.326-0.589l1.029-1.478l0.887-0.293v-2.362l0.888-1.771l0.736-0.887l6.493-1.328l1.331-0.59l-0.148-1.18l-0.445-1.477l-1.474-1.476l-2.067-5.164l-0.59-2.362l0.15-2.507l-3.839,0.884v-2.36l1.473-3.836
				l0.299-3.692l1.771-1.475l-0.15-3.837l2.512-2.655l1.623-2.657l0.737-1.475l0.441-2.953l3.396-0.739l5.312-0.146l-0.444-31.139l-1.18-0.149l-62.867-32.024l-8.265,2.656z"/>
			<text transform="matrix(1 0 0 1 366.731 178.1284)"><tspan x="0" y="0" style="stroke:none;">Chad</tspan></text>
		</g>
		<g>
			<path style="fill:#FFFFFF;" d="M420.095,48.799l-1.029,0.296l-1.332,2.212l0.445,1.477l0.59,6.788l-1.183,0.739l-0.59,1.181l0.296,2.656l1.328,1.919l-0.295,1.623l2.363,2.214l1.917,58.148l0.296,15.94l-7.825,0.146v4.723l-1.18-0.149l-62.867-32.024
				l-8.265,2.656l-2.508,0.739l-1.478-1.918l-3.248-2.066l-1.33-0.297l-5.606-0.589l-10.625-0.147l-1.181,0.443l-0.886-2.804l-2.213-4.134l-4.132-1.917h-4.281l-1.92-2.066l-0.294-4.428l-1.329-2.214l-2.359-2.951l-0.588-1.77l0.293-1.183l2.803-1.18l0.738-7.675
				l0.588-2.95l0.148-1.625l-0.294-1.181l0.444-6.936l-0.587-3.099l-2.807-4.724l0.44-2.066l1.329-0.884l0.149-0.296l1.771-0.147l1.77-1.033l2.215-2.508l0.295-1.181l-0.591-3.542l0.15-1.18l0.882-1.183l2.951-1.476l0.888-1.329l4.867-3.246l0.74-1.181l0.295-5.018
				l6.643,2.804l2.951,0.146l2.657-0.738l5.31,0.887l9.742,3.689l0.736,0.738l0.444,3.246l1.33,1.92l1.918,2.065l2.954,1.033l4.865,0.295l6.05,1.772l1.921,1.328l2.36,0.589l3.1,3.1l2.068,0.739h1.916l2.656-1.034l2.657-2.214l1.623-2.655l0.146-1.034l-0.739-1.477
				v-1.326l-0.885-1.329v-1.918l0.445-1.624l2.806-2.804l2.654-1.919l2.214-1.032l3.838-0.886l4.133-0.148l5.903,1.772l1.329,0.738l0.145,1.179l-0.443,0.149l0.299,0.885l1.327,1.032l3.246,0.297l3.837,1.328l5.61,0.444l1.179,0.59l0.884,1.77z"/>
			<text transform="matrix(1 0 0 1 363.8071 87.9434)"><tspan x="0" y="0" style="stroke:none;">Libya</tspan></text>
		</g>
		<g>
			<path style="fill:#FFFFFF;" d="M575.945,215.86l-2.658,4.723l-0.737,1.624l1.035,3.396l5.755,6.788l3.246,2.362l1.029,1.181l25.685,9.001l7.967-0.294l-1.475,2.361l-22.434,23.613l-9.889,0.146l-4.427,2.066l-3.835,3.249l-5.021,1.623l-2.506,1.329l-0.591,0.737
				l-3.395,5.755l-3.84,3.689l0.148,31.434l4.574,5.61v0.738l7.972-9.151l1.035-2.066l-0.594-0.589l0.443-0.591l0.592,0.149l1.768-0.444l5.462-6.053l11.807-10.479l4.28-1.329l3.101-2.063l3.981-3.986l0.888-2.215l3.987-2.953l2.504-3.244l3.542-3.245l2.806-4.133
				l1.77-4.281l5.315-5.313l1.031-2.803l1.032-4.576l4.576-9.15l0.443-2.803l2.066-2.361l0.592-2.067l1.178-1.477l1.034-2.509l1.477-1.474l0.443-2.215l-0.147-2.507l0.591-5.017l0.885-0.592l1.033-0.148l1.035,0.589l0.44-0.292v-0.59l-1.182-0.591l-0.443,0.442
				l-1.03-0.147l1.03-1.327l-0.444-3.542l0.297-0.739l-0.883-0.883l-0.148-1.33l1.031-1.919v-1.771l-1.621-0.296l-1.625-1.032h-1.328l-1.183,0.295l-0.584,1.624l-2.66,1.18l-2.066,0.593l-2.952,0.146l-0.592,0.59l-1.622,0.146l-2.509,1.034l-2.804-0.294
				l-2.805,1.474l-4.133,0.443l-1.623-0.589l-1.768,0.295l-1.626,1.475l-1.476,0.444l-1.329,1.328l-1.477,0.295h-1.621l-1.181-0.738l-1.77,0.147l-2.069-0.738l-0.736,0.738l-3.248,1.477l-2.359,1.623h-3.248l-1.033,0.296l-3.099-1.625l-2.653-2.509l-3.251-4.132
				l-1.179-1.034z"/>
			<text transform="matrix(1 0 0 1 599.6665 237.8413)"><tspan x="0" y="0" style="stroke:none;">Somalia</tspan></text>
		</g>
		<g>
			<path style="fill:#FFFFFF;" d="M420.095,48.799l0.442,0.739l0.886,0.295l4.429-0.591l7.528,1.034l2.653,0.884l1.771,1.033l3.104,0.443l1.324,0.886l3.841,0.147l3.539,1.771l4.133-1.623l1.92-1.477l3.542-2.064l3.098-0.591l0.294,0.295l-1.622,0.591l-0.293,0.589
				l0.44,0.147l2.509-0.589l1.181-1.18l4.723,0.441l1.625-0.737l0.588,1.034l1.329,0.884l0.444,0.739l-2.361-1.772l-0.441,0.149l-0.148,0.884l0.148,0.739h1.917l-0.298,0.885l0.445,0.885l1.03-0.295l0.146-0.885l-0.438-0.886l1.474,0.591l1.333,1.329h2.798
				l1.034-0.59l0.74,0.737l3.097-0.443l2.363-1.033l1.475-1.18l4.427,10.183l2.954,5.756l-2.215,8.854v3.099l-1.478,1.033l-1.179-0.146l-1.182-0.739l-5.166-5.607l-0.736-2.361l-4.135-5.166l-0.885-2.655l-0.884-1.476l-0.593,0.59l0.299,0.59l-0.593,0.886
				l-0.143,1.475l2.063,2.36l0.735,3.396l2.364,3.688l2.802,2.804l1.776,1.034l0.587,3.247l2.362,3.099l2.212,5.756l2.067,3.098l1.033,2.215l1.475,1.772l5.609,9.444l5.165,4.426v0.442l-1.92-0.442l-0.44,0.442l0.585,1.329l0.302,3.395l0.734,1.771l-2.951,2.804
				l-1.916-0.738l-1.625,4.281l-4.132,1.179l-0.886,3.396l-3.691,0.293l-2.953-1.918h-14.018l0.445-1.476l-0.888-0.295l-1.181,1.771l-49.44,0.148l-1.917-58.148l-2.363-2.214l0.295-1.623l-1.328-1.919l-0.296-2.656l0.59-1.181l1.183-0.739l-0.59-6.788l-0.445-1.477
				l1.332-2.212l1.029-0.296z"/>
			<text transform="matrix(1 0 0 1 448.2017 96.604)"><tspan x="0" y="0" style="stroke:none;">Egypt</tspan></text>
		</g>
		<g>
			<path style="fill:#FFFFFF;" d="M505.841,118.606l-2.951,2.804l-1.916-0.738l-1.625,4.281l-4.132,1.179l-0.886,3.396l-3.691,0.293l-2.953-1.918h-14.018l0.445-1.476l-0.888-0.295l-1.181,1.771l-49.44,0.148l0.296,15.94l-7.825,0.146v4.723l0.444,31.139
				l-5.312,0.146l-3.396,0.739l-0.441,2.953l-0.737,1.475l-1.623,2.657l-2.512,2.655l0.15,3.837l-1.771,1.475l-0.299,3.692l-1.473,3.836v2.36l3.839-0.884l-0.15,2.507l0.59,2.362l2.067,5.164l1.474,1.476l0.445,1.477l0.148,1.18l-1.331,0.59l6.641,8.414l0.737,2.359
				l-1.178,5.167l0.293,2.067l1.625,1.476l3.688,0.735l1.036,2.216l1.622,0.738l3.394,0.146l2.657,2.067l0.294,0.591l-0.147,1.624l0.886,1.622l5.606,3.691l1.33,1.623l1.625,0.887l1.326,3.245l1.18,1.478l0.299,1.623l1.476,0.44l4.571,2.955l0.887,1.473l0.296,1.771
				l0.74,1.032l1.028,1.77l1.921,1.329l1.771,2.805l3.544,1.476l0.885-0.589l1.03-1.18l3.984,0.884l1.773-0.145l2.064-1.623l1.623,1.031l3.838,3.982l2.066,1.182l2.358,2.212h0.892l1.178-0.886l2.065-0.143l1.771,0.586l3.395-0.586l0.887,1.328l4.724-0.742
				l2.065-0.881h5.31l3.984-2.514v-0.588v0.588l2.509-3.096l1.772-1.036l8.413,0.148l3.248-0.442v-6.051l-1.182-0.739l-3.395-0.736l-1.478-0.885l-3.836-9.005l-3.544-2.066l-1.177-1.18l-0.886-1.329l-0.3-1.475l-1.326-1.624l-1.329-0.737l-1.622-0.442h-1.328
				l-3.096-1.476l0.736-1.181l0.885-0.737l-0.147-2.361l1.475-0.442l3.541,0.294l2.808-1.77l-0.149-9.153l0.739-4.131l-0.299-2.509l0.591,0.297l1.332-2.953l1.18-0.885h1.769l0.59-0.737l1.183-6.053l5.018-7.38l1.328-1.476l1.328-0.441l1.029-1.18l2.069-8.856
				l-0.2-2.057l-0.538-5.47l0.443-2.656l0.885-2.066l1.032-5.018l0.3-4.281l0.882-4.427l1.92-0.146l1.18-0.885l0.739-1.035l6.048-2.654l0.887-2.215l0.149-1.476l-0.444-1.328h-0.737l-0.59-0.443l-0.74,0.293l-0.884-1.77l-0.887-0.737l-3.245-1.181l-1.032-0.59
				l-0.888-1.181l-1.918-7.821l-1.178-10.479l0.438,0.146l-0.438-0.887l-2.215-2.506l-0.889-3.986l-1.769-2.361l-1.478-0.59l-1.771-1.918l-3.836-1.624l-2.067-2.655z"/>
			<text transform="matrix(1 0 0 1 452.7017 201.5811)"><tspan x="0" y="0" style="stroke:none;">Sudan</tspan></text>
		</g>
		<g>
			<path style="fill:#FFFFFF;stroke-linecap:round;stroke-linejoin:round;" d="M518.533,192.632l3.659,0.471l0.99-1.52h1.135l2.185,2.804l2.556-6.553l1.667,1.564l1.445,0.162l1.446,2.052l3.867-0.531l0.736-1.313l1.96,1.652l2.396-1.033l3.085,1.136l2.553-0.293
				l4.736,2.405l4.026,4.678l4.606,3.218l2.078,3.333l2.438,1.477l1.463,2.334l-0.041-0.075l1.047-1.151l4.72-2.804l-0.737-0.886l-0.887,0.296l-0.884-0.444l-0.886-1.77l-2.063-0.59l-1.627-2.952l-1.474-0.59l-1.184-1.918l-0.736,0.146l-1.328-0.589l-0.147-0.738
				l-3.689-4.722l-1.182-0.589h-1.623l-1.476-0.738l-1.181-1.478l-1.182-0.59l-0.884-0.146l-0.739,0.589l-0.736-0.146l-1.626-2.067v-1.771h-0.59l-0.589-0.74l-1.036,0.74l0.741,1.179l-0.15,0.888l-1.179-0.296v-1.034l-1.033-2.064l-1.328-0.592l-0.591-1.771
				l-1.475-1.327l-3.987-13.134l-2.505-4.28l-0.887-0.296l-0.149,1.476l-0.887,2.215l-6.048,2.654l-0.739,1.035l-1.18,0.885l-1.92,0.146l-0.882,4.427l-0.3,4.281l-1.032,5.018l-0.885,2.066l-0.443,2.656l0.538,5.47l0.052,0.08z"/>
			<g>
				<text transform="matrix(1 0 0 1 553.7856 162.0483)"><tspan x="0" y="0" style="stroke:none;">Eritrea</tspan></text>
				<path style="fill:none;" d="M530.228,176.949l21.384-15.19"/>
			</g>
		</g>
		<g>
			<path style="fill:#FFFFFF;" d="M575.945,215.86l-2.658,4.723l-2.066-1.476l-1.918,0.739l-0.442,0.591l-3.396-0.149l-1.033-0.884l-0.294-1.476l1.918-3.837l1.034-5.018l0.476-0.523l1.002-1.101l4.72-2.804l2.658,3.394l0.293,3.247l-0.738,0.738l-1.622,0.296
				l-0.736,0.885l-1.182,0.296l-0.887,1.77l-1.18-0.295l-0.148,0.295l1.034,0.738l0.589-0.59l3.541-0.443l1.036,0.885z"/>
			<g>
				<text transform="matrix(1 0 0 1 583.6997 199.3823)"><tspan x="0" y="0" style="stroke:none;">Djibouti</tspan></text>
				<path style="fill:none;" d="M570.825,210.065l11.75-11.185"/>
			</g>
		</g>
		<g style="stroke:none;">
			<path style="fill:#FFFFFF;stroke:#000000;" d="M405.19,219.698l-6.493,1.328l-0.736,0.887l-0.888,1.771v2.362l-0.887,0.293l-1.029,1.478l-1.326,0.589l-2.513,2.361l-1.032,2.215l-2.804,1.034l-1.18,1.623l-1.185,0.443l-1.769-0.296l-3.1,0.886l-4.72,0.147
				l-1.479,0.591l-0.441,1.18l1.327,1.771l-1.18,1.182l-0.442,1.328l-1.474,0.587l-0.741,1.478h-3.837l-1.184,0.591l-2.214-0.148l-3.245,1.328l-2.063,1.33l-1.332,0.293l-1.032,0.887l-1.619-1.475l-0.447-0.887l-0.883-0.147l-0.888,0.296l-0.146,1.18l-2.214,0.295
				l-1.478,1.329l-2.508-0.295l-2.215,0.295l-0.589,0.444l-1.478,3.836l-2.803,4.869l-3.102,3.985l-0.144,1.921l0.587,2.213v5.162l6.645,11.661l1.623,2.063l3.688,3.1l1.034-0.147l1.326-2.063l2.659-2.362l3.541-2.361l3.098-0.441l5.167,2.507l2.509-0.589
				l2.364-1.031l0.886-0.887l1.914-0.441l-0.441-1.184l0.739-5.164l1.178-0.738l0.887-2.363l3.102-2.656l4.428,0.296l1.178,1.474l0.593,1.329l2.948,2.805l1.184,0.298l1.18-1.182l2.215,1.475l3.539,0.885h7.676l1.18-0.44l0.296-2.657l2.068-1.325l2.802,0.438
				l1.475,0.888l4.43-1.921l3.981-0.591l1.773-1.032h0.886v1.032l1.183,0.446l1.177-0.446h1.922l0.44-1.916l3.102,0.591l5.753-1.183l2.213,2.361l0.887-1.179l1.917,1.179l1.186-1.623h4.279l-0.74-1.032l-0.296-1.771l-0.887-1.473l-4.571-2.955l-1.476-0.44
				l-0.299-1.623l-1.18-1.478l-1.326-3.245l-1.625-0.887l-1.33-1.623l-5.606-3.691l-0.886-1.622l0.147-1.624l-0.294-0.591l-2.657-2.067l-3.394-0.146l-1.622-0.738l-1.036-2.216l-3.688-0.735l-1.625-1.476l-0.293-2.067l1.178-5.167l-0.737-2.359l-6.641-8.414z"/>
			<text transform="matrix(1 0 0 1 345.6284 265.0571)"><tspan x="0" y="0">Central African</tspan><tspan x="0" y="11.562">Republic</tspan></text>
		</g>
		<g>
			<path style="fill:#FFFFFF;" d="M333.174,207.154v0.591l1.914,0.737l0.737,1.182v4.575l-3.246,2.361l-3.095,1.328l-1.923,2.213l-3.835,9.002L321.659,238l-0.294,0.737l-2.361,1.031l-1.623,1.773l-2.068,5.904l-5.311,10.476l-1.181,0.444h-1.918l-2.068-1.474
				l-0.44-0.887l-1.625-1.623l-2.361-0.148l-6.05,0.737l-0.738,2.506l-1.475,0.889l-1.18,1.18l-2.805,4.134l-0.738,4.573l-1.624,2.806l-1.032,0.884l-0.147,1.181l0.441,0.442l-0.147,0.887l0.737,0.444l2.213-0.295l1.625,3.834l2.951,1.331l0.739-0.295l0.294-0.442
				l1.033-0.15l0.444,0.295v1.331l-0.294,0.739l-0.592,0.143v0.593l2.952,3.69l-1.035,3.837l-0.885,5.312l7.233-0.59h6.197l2.066-0.441l2.362,0.294l2.951-0.443l2.511,0.443l5.459,0.147l1.329,0.442h11.658l1.772,1.034l2.211,0.149l2.069,0.737l1.623-0.151
				l3.688,2.955l0.592-0.443l0.442-1.625l-0.299-6.642l0.299-1.771l-1.034,0.147l-3.688-3.1l-1.623-2.063l-6.645-11.661v-5.162l-0.587-2.213l0.144-1.921l3.102-3.985l2.803-4.869l1.478-3.836l-0.594-0.886l-0.735-5.313l-1.621-4.281L338.78,238l-3.098-1.033
				l-1.185-0.739l-1.623-2.213l-0.295-1.771l0.149-2.363l1.327-1.18l2.805-0.442l5.314,0.885l0.886-0.738l-0.447-2.359l-2.356-3.101l-1.33-3.099l0.887-7.675l-1.181-2.361l-0.886-4.281l-0.593-0.738l0.296,0.149l-2.362,0.441l-1.327,1.919l-0.736,0.147l0.149-0.295z
				"/>
			<text transform="matrix(1 0 0 1 303.5493 273.4185)"><tspan x="0" y="0" style="stroke:none;">Cameroon</tspan></text>
		</g>
		<g>
			<path style="fill:#FFFFFF;" d="M129.509,78.61l0.884-1.624l6.05-0.886l4.428-1.475l3.542-2.803l2.361-1.476l2.509-0.887l3.246-2.362l0.887-0.735l2.213-2.806l2.951-3.393l0.297-0.592l0.294-2.361l-0.885-2.36l2.066-5.904l3.099-3.838l0.147-0.441l1.919-0.887
				l-0.294,0.148l1.919-2.803l0.146-1.476l6.788-6.052l8.708-3.247l3.542-1.771l1.771-1.624l1.329-2.064l1.917-1.626l5.608-9.297l3.837-1.328l0.739,2.214l1.329,1.771l2.508,1.917l1.329,0.296l3.247-0.886l3.394,0.295l3.248-0.444l1.77,1.181l1.329,0.442
				l3.836,0.297l-1.475-1.182l-0.148,0.738l2.657,2.952l-0.591,0.59l0.591,1.181l-0.591,0.887l0.296,2.508l-1.033,2.655l1.033,1.624l-0.887,2.066l0.591,1.771l-0.295,0.886l0.886,1.919l2.51,1.772l-1.92,1.474l-0.296,0.887l0.445,0.885l-5.609-0.592l-3.396,0.15
				l-2.654,0.736l-1.182-0.294l-1.032,2.362l-3.1,1.032l-2.657-0.147l-0.738,0.443l-0.443,1.477l0.886,0.589l-0.738,0.59l-0.443,1.329h0.886l0.737,0.737l-0.293,0.886l-3.098,0.59l-3.839,2.066l-2.951,0.739l-1.477,1.033l-2.213,2.657l-2.805,1.328l-5.016,0.739
				l-2.065-0.15l-0.74,1.626l-0.295,0.146l-3.541-0.441l-3.839,2.509h-1.917l-3.098,1.77l-3.986,2.657l-1.772,9.15v0.296l-32.172-1.033l-1.18,0.295z"/>
			<text transform="matrix(1 0 0 1 177.2671 40.4717)"><tspan x="0" y="0" style="stroke:none;">Morocco</tspan></text>
		</g>
		<g>
			<path style="fill:#FFFFFF;" d="M223.518,19.726l2.806-0.591l2.212-1.18l2.805-2.804l1.622-0.739h2.067l1.771-1.18l1.328,0.591l1.476-0.591l2.066-2.065l2.066-0.591l1.477-1.034l3.837-1.032l1.625-0.441l8.559-0.297l2.654-1.622l3.099,0.442l3.396-1.033
				l7.234,0.294l1.03,1.034l1.327,0.443l6.348-1.92l1.328-1.327l4.281,1.623l1.623-0.443l0.738-1.033l2.658,0.884L295.833,6l2.657-0.59l1.918,0.296l1.624-0.296l-0.297,0.74l-3.245,2.656l0.885,0.295l0.149,0.441l-1.331,5.021v3.834l0.444,0.739v0.737l-1.771,4.576
				l-2.804,1.624L293.62,27.4l-3.838,2.212l0.74,2.364l0.443,3.098l2.507,1.033l0.59,0.738l0.886,2.508l-0.294,2.362l5.9,3.246l1.478,14.463l-0.149,0.296l-1.329,0.884l-0.44,2.066l2.807,4.724l0.587,3.099l-0.444,6.936l0.294,1.181l-0.148,1.625l-0.588,2.95
				l-0.738,7.675l-2.803,1.18l-0.293,1.183l0.588,1.77l2.359,2.951l1.329,2.214l0.294,4.428l1.92,2.066h4.281l4.132,1.917l2.213,4.134l0.886,2.804l-31.433,19.48l-18.894,13.281l-12.691,2.952l-4.87,1.624l-1.918-0.149l-1.033-1.329l0.444-2.213l0.589-0.738
				l-0.295-0.738l0.295-1.918l-0.443-0.444l-2.953-1.623l-2.802-0.294l-1.181-1.625l-1.476,0.149l-1.919-0.739l-1.033-0.885l-0.59-1.77l-3.542-1.623l0.296-1.626l-0.592-0.59v-0.737l-43.092-31.879L162.123,83.48l0.15-0.59l0.589-3.837l1.772-9.15l3.986-2.657
				l3.098-1.77h1.917l3.839-2.509l3.541,0.441l0.295-0.146l0.74-1.626l2.065,0.15l5.016-0.739l2.805-1.328l2.213-2.657l1.477-1.033l2.951-0.739l3.839-2.066l3.098-0.59l0.293-0.886l-0.737-0.737h-0.886l0.443-1.329l0.738-0.59l-0.886-0.589l0.443-1.477l0.738-0.443
				l2.657,0.147l3.1-1.032l1.032-2.362l1.182,0.294l2.654-0.736l3.396-0.15l5.609,0.592l-0.445-0.885l0.296-0.887l1.92-1.474l-2.51-1.772l-0.886-1.919l0.295-0.886l-0.591-1.771l0.887-2.066l-1.033-1.624l1.033-2.655l-0.296-2.508l0.591-0.887l-0.591-1.181
				l0.591-0.59l-2.657-2.952l0.148-0.738l1.475,1.182z"/>
			<text transform="matrix(1 0 0 1 231.6431 81.5444)"><tspan x="0" y="0" style="stroke:none;">Algeria</tspan></text>
		</g>
		<g style="stroke:none;">
			<path style="fill:#FFFFFF;stroke:#000000;" d="M87.301,133.807l1.917-6.494l2.213-3.69l1.92-0.885l4.133-5.609l-0.149-1.182l3.542-3.983l1.477-2.509l6.05-5.607l2.657-3.396l0.885-2.361l3.395-6.198l2.803-2.805l3.1-1.18l2.658-1.771l2.95-4.723l2.657-2.805
				l1.18-0.295l32.172,1.033v-0.296l-0.589,3.837l-1.919,9.889l-0.297,0.294l-24.498-0.59l-4.132,21.105l-7.822,1.77l-1.475,1.181l-1.033,1.625l-0.738,4.87l-0.443,7.822l-29.666-0.147l-0.444,0.885l-2.506,2.215z"/>
			<g>
				<text transform="matrix(1 0 0 1 71.5669 81.6626)"><tspan x="0" y="0">Western</tspan><tspan x="0" y="11.562">Sahara</tspan></text>
				<path style="fill:none;stroke:#000000;" d="M121.542,105.14l-14.396-16.936"/>
			</g>
		</g>
		<g>
			<path style="fill:#FFFFFF;" d="M302.032,5.409l3.984-2.213l3.099-0.59l3.691,0.737l-0.296,0.297l0.887,1.77l-0.298,1.182l1.325,0.59l1.479-0.739l1.626-1.622h1.028l0.595,1.475l-1.772,2.657l-2.656,1.328l-0.591,1.623l0.291,1.772l0.595,0.887l1.329,0.294
				l0.294,0.886l1.035,0.59l0.438,2.951l-2.212,3.984l-2.805,2.215l-2.8,1.327l-0.446,1.919l-1.622-0.293l-0.148,1.328l0.441,1.475l1.329,0.885l0.737,0.295l1.627-0.295l0.882,1.328l1.92-0.59l0.738,2.657l0.441,0.59l1.331-0.147l0.735,0.442l-0.295,5.018
				l-0.74,1.181l-4.867,3.246l-0.888,1.329l-2.951,1.476l-0.882,1.183l-0.15,1.18l0.591,3.542l-0.295,1.181l-2.215,2.508l-1.77,1.033l-1.771,0.147l-1.478-14.463l-5.9-3.246l0.294-2.362l-0.886-2.508l-0.59-0.738l-2.507-1.033l-0.443-3.098l-0.74-2.364l3.838-2.212
				l0.442-1.329l2.804-1.624l1.771-4.576v-0.737l-0.444-0.739v-3.834l1.331-5.021L299.375,9.1l-0.885-0.295l3.245-2.656l0.297-0.74"/>
			<g>
				<path style="fill:none;" d="M303.756,17.771l32.049-9.614"/>
				<text transform="matrix(1 0 0 1 338.4458 9.5615)"><tspan x="0" y="0" style="stroke:none;">Tunisia</tspan></text>
			</g>
		</g>
		<g>
			<path style="fill:#FFFFFF;" d="M172.455,225.012l0.443,0.147l0.147,1.179l1.182,1.182l0.146,1.18l1.034,0.442v0.591l1.031,0.736l1.329-0.59l0.147,0.59l1.181,0.592l0.885-1.476l5.461-1.475l2.804,0.738l1.033-0.591l0.738,1.476l0.738,0.146l0.739,2.214
				l1.326,0.295l0.444-0.295l-0.591-1.917l0.296-1.772l-0.444-1.326l0.294-1.92l-0.589-0.147l0.147-1.329l-0.738-1.624l0.147-1.181l0.738-1.182l2.657-0.44l7.38,0.292l6.64,0.739l2.508-1.328l2.509-0.442l5.167,1.031l0.736,0.739l0.739-0.441l2.362-0.149l0.59-0.59
				h0.589l0.887-1.473l1.033-0.149l1.475-1.917l2.213,0.44l1.329-0.44l1.033,0.44l0.589-0.294l1.921-1.772l1.18-2.213l-2.509-2.655l0.147-1.034l1.183-0.146l0.146-0.297l-1.033-2.065l-1.475-0.444l-0.74,0.888l-1.326,0.147l-2.51-1.035l-1.622-1.916l-2.066-4.577
				l-2.509-2.065l-1.771-2.212l-0.295-2.805l-1.476-1.625l1.033-3.837l-5.018,0.149l-2.951,0.883l-9.446,6.2l-2.066,2.362l-3.098,1.917l-5.607,1.771l-3.691,0.589l-2.362,1.183l-1.621,2.506l-2.068,5.02l-1.179,1.623l-4.131,3.1l-1.478,1.917l-0.293,1.624
				l-1.477,2.655l-0.295,5.463z"/>
			<text transform="matrix(1 0 0 1 185.479 213.1284)"><tspan x="0" y="0" style="stroke:none;">Burkina</tspan></text>
		</g>
		<g>
			<path style="fill:#FFFFFF;" d="M91.286,219.257v1.622l0.443,0.146l0.737-0.146l0.886-1.182l0.59-0.148l0.294,2.067l1.33,0.443v1.918l1.032,2.509l3.837,2.067l1.033,1.475v1.624l1.328,0.591l0.739,1.477l1.328,1.475l1.771,0.295l0.737-0.444l0.739-1.326
				l1.178-0.443l0.15-0.738l0.736-0.295l1.034-1.034l0.738-1.181l-0.147-1.328l0.59-0.146l2.361,0.146l1.771-0.295v-0.738l5.904,0.294l0.442,1.035l0.885,0.441l1.184,1.329l0.441,1.034l-0.296,0.739l1.477,0.738l-0.295,0.589l0.146,1.624l1.034,1.327l0.148,1.771
				l-0.886,0.442l-1.034,2.953l2.066-0.739l1.035-0.885l0.147,1.032h0.737l0.443-1.032l0.59-0.294l1.18,0.883l2.068-0.737l1.77,1.772l0.591,4.132l0.442,0.443l-0.296,2.213l-1.031,1.033v0.59l1.622-0.59l1.476,1.771l0.737-0.146l1.625-0.444l1.476-3.247h1.034
				l0.442,1.032l0.591-0.295l2.065,0.148l0.886-1.772l0.294-1.918l0.592-0.589l-0.295-0.296v-0.887l-1.771-0.293l0.295-0.886l-0.295-1.035l1.181-0.439l1.477,0.146l0.442,0.589l0.886-0.147l0.59,0.886v-2.068l-0.442-0.59v-0.883l-1.328-0.149l0.589-1.476
				l1.034-0.737l-0.591-1.034l-0.59,0.149l0.443-2.214l-1.182,0.147l-1.18-0.885l0.296-3.985l1.623-2.212l-0.296-1.034l-0.737-0.443l-0.296-0.74h-0.738l-0.443-1.032v-3.984l-1.475-0.148l-1.329,1.033l0.148-1.18l0.885-0.59l0.148-0.591h0.589l0.295-0.59h0.591
				v-0.886l-0.886-0.146l-1.032-0.887l-0.591-1.475l-0.885,0.147l0.147-2.657l-0.591-0.737l0.296-1.033l-1.034-0.296l0.295-1.768l-0.441-0.741l-1.183,0.591l-1.328-0.591l-0.296,1.477l-2.507,1.179l-0.442,1.478l-4.723-1.92l-1.919,1.182l-1.033,1.477l-0.886-0.445
				l-1.328-2.065l-0.885,0.147l-1.476,1.329l-0.74,0.147l-0.737-0.296l-0.589-0.735l1.326-2.363l-1.473-0.148l-1.625,0.443l-1.623-0.145l-3.542,0.586l-0.739-0.586l-2.655-0.298l-0.886-0.886l-0.591,0.59h-0.887v-1.033l-0.293-0.441h-2.214l-0.591-0.591h-2.212
				l0.444,2.804l-0.444,0.739l-1.624,0.443l-0.297,0.588l1.181,1.329l-0.146,2.655h-1.035l-0.59,0.445h-2.805l-2.803,1.181l-1.033,0.884l-1.77,2.954l-1.771,0.886z"/>
			<text transform="matrix(1 0 0 1 108.7183 224.5166)"><tspan x="0" y="0" style="stroke:none;">Guinea</tspan></text>
		</g>
		<g>
			<path style="fill:#FFFFFF;" d="M118.734,253.347l-0.294,0.298l0.442,0.145l0.149,0.443l1.622,0.591v1.18l1.917,0.887l1.034,2.064l4.132,2.066l5.903,5.313l2.362,2.804l2.066,0.884l1.476,1.332l3.838,2.065l2.508,0.445l1.476,1.031l3.395,0.592l0.148-5.759
				l0.588-0.295l0.297-1.771l0.59-0.147l-0.295-0.737l0.441-1.033l-0.589-2.656l-0.737,0.148l-0.886-0.739h-0.886l-1.623-3.246l-1.771-0.146l-1.033-0.739h-0.738l-0.443-0.589l-1.032-0.148l0.59-1.181l1.476-1.477l0.59-2.509l-1.181-1.474l-0.443-2.215l-0.442-1.032
				h-1.034l-1.476,3.247l-1.625,0.444l-0.737,0.146l-1.476-1.771l-1.622,0.59v-0.59l1.031-1.033l0.296-2.213l-0.442-0.443l-0.591-4.132l-1.77-1.772l-2.068,0.737l-1.18-0.883l-0.59,0.294l-0.443,1.032h-0.737l0.294,1.478l-1.477,0.146l-1.18,1.182l-0.148,2.507
				l-0.589,0.147l-1.476,1.772l-1.035,0.294l-1.916,1.772h-0.739l-0.887,2.214l-1.033,0.441z"/>
			<text transform="matrix(1 0 0 1 113.1055 264.604)"><tspan x="0" y="0" style="stroke:none;">Liberia</tspan></text>
		</g>
		<g style="stroke:none;">
			<path style="fill:#FFFFFF;stroke:#000000;" d="M150.76,275.487l0.148,0.44l2.361,0.297l9.592-4.575l11.215-2.216l7.676-0.592l5.46,1.478l1.034-0.298l1.033-1.03l2.361,0.146l-0.296-4.132l-0.293-0.295l-1.182-0.148l-0.442-0.735l-1.624-5.608v-1.328l0.444-2.658
				l1.918-2.802l0.443-2.954l1.624-3.542l1.623-1.327v-0.738l0.886-0.149l-1.329-6.64l-0.885-0.59l0.885-1.182l-0.441-0.886l0.294-0.442v-0.886l-0.444,0.295l-1.326-0.295l-0.739-2.214l-0.738-0.146l-0.738-1.476l-1.033,0.591l-2.804-0.738l-5.461,1.475
				l-0.885,1.476l-1.181-0.592l-0.147-0.59l-1.329,0.59l-1.031-0.736v-0.591l-1.034-0.442l-0.146-1.18l-1.182-1.182l-0.147-1.179l-0.443-0.147l-1.77,0.293l-1.181-1.328h-1.771l-2.215,1.771l-1.18-0.146v-2.067l-0.296-1.918l-1.328,0.147l-0.592,1.033l-1.475-0.59
				l-0.294,0.443l0.147,1.622l-0.444,0.444l-2.507,0.296l-0.443,1.327l-1.18-0.444l-0.591-0.589l-1.033,0.297l-0.59-1.773l-0.591-0.146l-0.591,0.589h-1.033l-1.179,1.477l-0.886,0.297l-1.623,2.212l-0.296,3.985l1.18,0.885l1.182-0.147l-0.443,2.214l0.59-0.149
				l0.591,1.034l-1.034,0.737l-0.589,1.476l1.328,0.149v0.883l0.442,0.59v2.068l-0.59-0.886l-0.886,0.147l-0.442-0.589l-1.477-0.146l-1.181,0.439l0.295,1.035l-0.295,0.886l1.771,0.293v0.887l0.295,0.296l-0.592,0.589l-0.294,1.918l-0.886,1.772l-2.065-0.148
				l-0.591,0.295l0.443,2.215l1.181,1.474l-0.59,2.509l-1.476,1.477l-0.59,1.181l1.032,0.148l0.443,0.589h0.738l1.033,0.739l1.771,0.146l1.623,3.246h0.886l0.886,0.739l0.737-0.148l0.589,2.656l-0.441,1.033l0.295,0.737l-0.59,0.147l-0.297,1.771l-0.588,0.295
				l-0.148,5.759z"/>
			<text transform="matrix(1 0 0 1 153.9976 250.8604)"><tspan x="0" y="0">Ivory</tspan><tspan x="0" y="11.562">Coast</tspan></text>
		</g>
		<g>
			<path style="fill:#FFFFFF;" d="M256.132,263.827l-1.475-2.361l-3.098-1.771l-1.477-0.443l-3.394-0.296l-9.002,0.59l-0.442-0.44l-0.149-5.903l1.034-4.576l0.295-7.676l0.59-1.917l1.92-3.098l0.737-3.839l1.33-1.475l2.213-1.624l0.148-0.885l0.589-0.739
				l-0.737-1.624l0.441-0.885l1.183-0.294l0.146-0.297l0.147-2.801l-0.443-2.214l-1.771-2.953l0.296-1.624l0.737-1.034l0.148-6.198l1.033-1.328l2.068-1.476l1.03-2.213l0.887-3.247l2.656-1.772l2.953-0.736h2.51l2.361-0.59l2.066,0.146l5.609,2.804l3.246,3.246
				l1.625,1.034h1.327l1.034-1.328l2.507-1.328l3.395-0.444l5.903,3.69l5.313,1.034l1.919-0.296l6.344-4.279l6.641,0.295l1.478-0.592l3.098-0.294l4.131,1.919l1.624-0.149l3.396-2.805l2.212-0.147l1.332-2.361l1.032,2.952l1.032,1.477l1.771,1.034l0.738,1.18
				l1.181,3.246l1.626,1.033v0.591l1.914,0.737l0.737,1.182v4.575l-3.246,2.361l-3.095,1.328l-1.923,2.213l-3.835,9.002L321.659,238l-0.294,0.737l-2.361,1.031l-1.623,1.773l-2.068,5.904l-5.311,10.476l-1.181,0.444h-1.918l-2.068-1.474l-0.44-0.887l-1.625-1.623
				l-2.361-0.148l-6.05,0.737l-0.738,2.506l-1.475,0.889l-1.18,1.18l-2.805,4.134l-0.738,4.573l-1.624,2.806l-1.032,0.884l-0.147,1.181l-0.443-0.886l-0.886-0.295l-0.74,3.248h-5.312l-3.542-1.477l-0.739,1.035l-1.62,1.328l-0.886,0.292l-0.737-0.44l-0.592,0.44
				l-0.294-0.292l-2.656,1.326l-0.445-1.326l-1.475,0.148l-1.916-0.593l-0.739-1.329l-1.771-1.771l-0.74-4.573l0.74-0.592l-1.623-0.44l-1.477-3.099h-0.592z"/>
			<text transform="matrix(1 0 0 1 260.6558 225.0923)"><tspan x="0" y="0" style="stroke:none;">Nigeria</tspan></text>
		</g>
		<g>
			<path style="fill:#FFFFFF;" d="M187.657,102.075l43.092,31.879v0.737l0.592,0.59l-0.296,1.626l3.542,1.623l0.59,1.77l1.033,0.885l1.919,0.739l1.476-0.149l1.181,1.625l2.802,0.294l2.953,1.623l0.443,0.444l-0.295,1.918l0.295,0.738l-0.589,0.738l-0.444,2.213
				l1.033,1.329l1.918,0.149l4.87-1.624l-1.327,26.271h-0.886l-1.477,0.737l-0.883,2.067l-2.362,1.475l-0.443,1.328l-3.837-0.441v0.589l-0.737-0.294l-13.136,0.146l-3.985,2.952h-5.46l-5.018,0.149l-2.951,0.883l-9.446,6.2l-2.066,2.362l-3.098,1.917l-5.607,1.771
				l-3.691,0.589l-2.362,1.183l-1.621,2.506l-2.068,5.02l-1.179,1.623l-4.131,3.1l-1.478,1.917l-0.293,1.624l-1.477,2.655l-0.295,5.463l-1.77,0.293l-1.181-1.328h-1.771l-2.215,1.771l-1.18-0.146v-2.067l-0.296-1.918l-1.328,0.147l-0.592,1.033l-1.475-0.59
				l-0.294,0.443l0.147,1.622l-0.444,0.444l-2.507,0.296l-0.443,1.327l-1.18-0.444l-0.591-0.589l-1.033,0.297l-0.59-1.773l-0.591-0.146l-0.591,0.589h-1.033l-1.179,1.477l-0.886,0.297l-0.296-1.034l-0.737-0.443l-0.296-0.74h-0.738l-0.443-1.032v-3.984l-1.475-0.148
				l-1.329,1.033l0.148-1.18l0.885-0.59l0.148-0.591h0.589l0.295-0.59h0.591v-0.886l-0.886-0.146l-1.032-0.887l-0.591-1.475l-0.885,0.147l0.147-2.657l-0.591-0.737l0.296-1.033l-1.034-0.296l0.295-1.768l-0.441-0.741l-1.183,0.591l-1.328-0.591l-0.296,1.477
				l-2.507,1.179l-0.442,1.478l-4.723-1.92l-1.919,1.182l-1.033,1.477l-0.886-0.445l-1.328-2.065l-0.885,0.147l-1.476,1.329l-0.74,0.147l-0.737-0.296l-0.589-0.735l1.326-2.363l0.444-0.591l-0.737-0.443l0.148-1.18l0.442-0.59v-1.918l-1.18-1.771l-0.59-1.625h-1.771
				l-0.146-1.032l-1.183-1.476l1.033-1.476v-0.737l-0.442-2.804l-1.033-1.181l0.442-1.919l-0.294-1.034l3.69-3.245l2.213-4.428l1.328-1.771l1.919,0.885l1.476,4.871l2.36,0.443l4.429-3.248l37.189,1.034l2.362-6.938l-3.1-1.032l1.624-71.871l13.726,0.292z"/>
			<text transform="matrix(1 0 0 1 194.9126 170.4683)"><tspan x="0" y="0" style="stroke:none;">Mali</tspan></text>
		</g>
		<g>
			<path style="fill:#FFFFFF;" d="M87.301,133.807v0.295l0.146-0.295l1.476-0.443l1.033,3.689h1.329l0.885,2.656l-0.591,4.13l-1.18,2.511l-1.181,0.59l-0.295,0.738l2.067,3.542l0.147,3.837l-1.033,7.085l-3.838,7.673l-2.067,5.461l1.625-1.624l0.884-1.917
				l3.247-0.149l1.329,0.443l3.247-0.885l1.327,0.146l0.592-0.59l5.164,0.296l0.592-0.148l0.294,0.737l0.885,0.149l1.476,1.476l0.148,0.883l0.886,1.033l1.475-0.443v0.739h0.442l1.182-0.296l1.328,2.066l0.294,2.066l0.592,0.296l0.443,1.033h1.032l0.148,1.181
				l0.738,0.59l-0.589,0.296l1.475,1.18l1.475,0.443l0.59,1.621l1.919,1.181l3.69-3.245l2.213-4.428l1.328-1.771l1.919,0.885l1.476,4.871l2.36,0.443l4.429-3.248l37.189,1.034l2.362-6.938l-3.1-1.032l1.624-71.871l13.726,0.292L162.123,83.48l0.15-0.59l-1.919,9.889
				l-0.297,0.294l-24.498-0.59l-4.132,21.105l-7.822,1.77l-1.475,1.181l-1.033,1.625l-0.738,4.87l-0.443,7.822l-29.666-0.147l-0.444,0.885l-2.506,2.215z"/>
			<text transform="matrix(1 0 0 1 100.7842 159.8589)"><tspan x="0" y="0" style="stroke:none;">Mauritania</tspan></text>
		</g>
		<g>
			<path style="fill:#FFFFFF;" d="M342.765,119.342l-0.441,12.103l0.29,0.885l2.365,5.314l1.77,1.623l3.396,1.772l-2.214,3.395l-2.362,11.51l-1.179,14.314l-14.169,15.35v1.624l-0.885,0.444l0.149,1.474l-1.33,0.148l-0.593,0.737l-0.146,1.032l0.295,0.59
				l2.362,0.886l-3.689-0.294l-1.035,0.589l-0.588,1.035l0.294,1.771l0.74,0.589l-1.332,2.361l-2.212,0.147l-3.396,2.805l-1.624,0.149l-4.131-1.919l-3.098,0.294l-1.478,0.592l-6.641-0.295l-6.344,4.279l-1.919,0.296l-5.313-1.034l-5.903-3.69l-3.395,0.444
				l-2.507,1.328l-1.034,1.328h-1.327l-1.625-1.034l-3.246-3.246l-5.609-2.804l-2.066-0.146l-2.361,0.59h-2.51l-2.953,0.736l-2.656,1.772l-0.887,3.247l-1.03,2.213l-2.068,1.476l-1.033,1.328l-0.148,6.198l-6.051-5.608l-1.179,0.591l-2.657,0.443l0.147,0.738
				l0.885,1.33l-1.032,0.588l-2.509-2.655l0.147-1.034l1.183-0.146l0.146-0.297l-1.033-2.065l-1.475-0.444l-0.74,0.888l-1.326,0.147l-2.51-1.035l-1.622-1.916l-2.066-4.577l-2.509-2.065l-1.771-2.212l-0.295-2.805l-1.476-1.625l1.033-3.837h5.46l3.985-2.952
				l13.136-0.146l0.737,0.294v-0.589l3.837,0.441l0.443-1.328l2.362-1.475l0.883-2.067l1.477-0.737h0.886l1.327-26.271l12.691-2.952l18.894-13.281l31.433-19.48l1.181-0.443l10.625,0.147l5.606,0.589l1.33,0.297l3.248,2.066l1.478,1.918l2.508-0.739z"/>
			<text transform="matrix(1 0 0 1 289.1406 168.7397)"><tspan x="0" y="0" style="stroke:none;">Niger</tspan></text>
		</g>
		<g>
			<path style="fill:#FFFFFF;" d="M79.037,201.251l-0.739,5.31l0.442,0.149l0.887,0.443h0.884l2.51-1.033l4.28,0.295l5.165-2.065h11.512h2.212l0.591,0.591h2.214l0.293,0.441v1.033h0.887l0.591-0.59l0.886,0.886l2.655,0.298l0.739,0.586l3.542-0.586l1.623,0.145
				l1.625-0.443l1.473,0.148l0.444-0.591l-0.737-0.443l0.148-1.18l0.442-0.59v-1.918l-1.18-1.771l-0.59-1.625h-1.771l-0.146-1.032l-1.183-1.476l1.033-1.476v-0.737l-0.442-2.804l-1.033-1.181l0.442-1.919l-0.294-1.034l-1.919-1.181l-0.59-1.621l-1.475-0.443
				l-1.475-1.18l0.589-0.296l-0.738-0.59l-0.148-1.181h-1.032l-0.443-1.033l-0.592-0.296l-0.294-2.066l-1.328-2.066l-1.182,0.296h-0.442v-0.739l-1.475,0.443l-0.886-1.033l-0.148-0.883l-1.476-1.476l-0.885-0.149l-0.294-0.737l-0.592,0.148l-5.164-0.296l-0.592,0.59
				l-1.327-0.146l-3.247,0.885l-1.329-0.443l-3.247,0.149l-0.884,1.917l-1.625,1.624l-0.738,3.542l-3.245,4.427l-3.247,2.51l-2.659,0.885l0.592,1.035l0.441-0.593l1.181-0.147l0.444,1.329l2.657,3.542l0.294,2.511l1.476,2.212l8.411,0.148l1.478-1.625l2.508-0.443
				l1.182,0.443l0.884,1.181h1.771l1.477,1.476l0.885,0.148l2.362-0.886h1.475l0.149,1.476l-0.592,0.59l-1.918,0.295l-0.885,0.589l-3.836-0.885l-3.69-2.066l-1.034,1.033l-1.328,0.59h-3.099l-0.738,1.328l-7.084,0.444l-0.736,0.885z"/>
			<g>
				<text transform="matrix(1 0 0 1 33.6543 180.7339)"><tspan x="0" y="0" style="stroke:none;">Senegal</tspan></text>
				<path style="fill:none;" d="M100.788,184.426l-26.707-5.341"/>
			</g>
		</g>
		<g>
			<path style="fill:#FFFFFF;" d="M91.286,219.257l0.294-0.886h-2.064l-0.592-1.035l-0.147-1.032l0.589-1.477l-0.736-1.769l2.065-1.035l2.803-0.147l0.296-0.736l-3.689,0.293l-4.574,1.625l-0.593-0.298v-1.179l-2.361-0.149l-0.442-0.738v-1.327l-3.098-1.033
				l-0.739-1.182l0.442-0.443l0.887,0.443h0.884l2.51-1.033l4.28,0.295l5.165-2.065h11.512l0.444,2.804l-0.444,0.739l-1.624,0.443l-0.297,0.588l1.181,1.329l-0.146,2.655h-1.035l-0.59,0.445h-2.805l-2.803,1.181l-1.033,0.884l-1.77,2.954l-1.771,0.886z"/>
			<g>
				<text transform="matrix(1 0 0 1 0 216.3027)"><tspan x="0" y="0" style="stroke:none;">Guinea Bissau</tspan></text>
				<path style="fill:none;" d="M92.259,208.197l-28.911,5.631"/>
			</g>
		</g>
		<g>
			<path style="fill:#FFFFFF;" d="M104.862,235.195l-0.44,1.476l0.737,0.886l-0.296,2.065l1.181,1.18h-1.181v1.034l0.59,1.327l0.885,0.15l0.738,0.737l0.149,1.772l3.542,2.655l0.737,1.624l7.231,3.246l1.033-0.441l0.887-2.214h0.739l1.916-1.772l1.035-0.294
				l1.476-1.772l0.589-0.147l0.148-2.507l1.18-1.182l1.477-0.146l-0.294-1.478l-0.147-1.032l-1.035,0.885l-2.066,0.739l1.034-2.953l0.886-0.442l-0.148-1.771l-1.034-1.327l-0.146-1.624l0.295-0.589l-1.477-0.738l0.296-0.739l-0.441-1.034l-1.184-1.329l-0.885-0.441
				l-0.442-1.035l-5.904-0.294v0.738l-1.771,0.295l-2.361-0.146l-0.59,0.146l0.147,1.328l-0.738,1.181l-1.034,1.034l-0.736,0.295l-0.15,0.738l-1.178,0.443l-0.739,1.326l-0.737,0.444l-1.771-0.295z"/>
			<g>
				<text transform="matrix(1 0 0 1 34.5493 250.1851)"><tspan x="0" y="0" style="stroke:none;">Sierra Leone</tspan></text>
				<path style="fill:none;" d="M111.913,241.102l-20.763,5.706"/>
			</g>
		</g>
		<g>
			<path style="fill:#FFFFFF;" d="M237.686,259.544l-6.79,0.591l-1.032-0.293l-1.034-3.25l0.886-6.936v-7.379l-0.296-3.097l-2.951-10.038l-1.771-2.361l-2.362-1.033l-0.442-0.589l0.295-2.805l1.034-2.657l0.59-0.59h0.589l0.887-1.473l1.033-0.149l1.475-1.917
				l2.213,0.44l1.329-0.44l1.033,0.44l0.589-0.294l1.921-1.772l1.18-2.213l1.032-0.588l-0.885-1.33l-0.147-0.738l2.657-0.443l1.179-0.591l6.051,5.608l-0.737,1.034l-0.296,1.624l1.771,2.953l0.443,2.214l-0.147,2.801l-0.146,0.297l-1.183,0.294l-0.441,0.885
				l0.737,1.624l-0.589,0.739l-0.148,0.885L243,230.62l-1.33,1.475l-0.737,3.839l-1.92,3.098l-0.59,1.917l-0.295,7.676l-1.034,4.576l0.149,5.903l0.442,0.44z"/>
			<text transform="matrix(1 0 0 1 229.3682 228.668)"><tspan x="0" y="0" style="stroke:none;">Benin</tspan></text>
		</g>
		<g>
			<path style="fill:#FFFFFF;" d="M230.896,260.135l-6.051,1.623l-0.588-0.293l-2.509-2.658l-1.034-1.477l-0.59-1.918l-0.442-21.398l-1.033-1.92l-0.443-5.313l-2.213-3.247l-1.182-0.885v-0.886l1.034-2.36l-1.475-0.296l-0.149-0.589l5.167,1.031l0.736,0.739
				l0.739-0.441l2.362-0.149l-1.034,2.657l-0.295,2.805l0.442,0.589l2.362,1.033l1.771,2.361l2.951,10.038l0.296,3.097v7.379l-0.886,6.936l1.034,3.25l1.032,0.293z"/>
			<text transform="matrix(1 0 0 1 222.8169 255.3262)"><tspan x="0" y="0" style="stroke:none;">Togo</tspan></text>
		</g>
		<g>
			<path style="fill:#FFFFFF;" d="M224.845,261.758l-2.214,2.658l-1.475,0.294l-0.59-0.59l-4.871,0.885l-7.23,3.985l-6.346,1.624l-1.33,1.179l-3.099,1.478l-9.444-3.25l1.033-1.03l2.361,0.146l-0.296-4.132l-0.293-0.295l-1.182-0.148l-0.442-0.735l-1.624-5.608
				v-1.328l0.444-2.658l1.918-2.802l0.443-2.954l1.624-3.542l1.623-1.327v-0.738l0.886-0.149l-1.329-6.64l-0.885-0.59l0.885-1.182l-0.441-0.886l0.294-0.442v-0.886l-0.591-1.917l0.296-1.772l-0.444-1.326l0.294-1.92l-0.589-0.147l0.147-1.329l-0.738-1.624
				l0.147-1.181l0.738-1.182l2.657-0.44l7.38,0.292l6.64,0.739l2.508-1.328l2.509-0.442l0.149,0.589l1.475,0.296l-1.034,2.36v0.886l1.182,0.885l2.213,3.247l0.443,5.313l1.033,1.92l0.442,21.398l0.59,1.918l1.034,1.477l2.509,2.658l0.588,0.293z"/>
			<text transform="matrix(1 0 0 1 195.3667 242.9653)"><tspan x="0" y="0" style="stroke:none;">Ghana</tspan></text>
		</g>
	</g>
</svg>
