<?xml version="1.0" encoding="iso-8859-1"?>
<!DOCTYPE svg >

<svg  width="801.577pt" height="583.974pt" viewBox="0 0 801.577 583.974" xml:space="preserve">
	<g id="Layer_x0020_1" style="fill-rule:nonzero;clip-rule:nonzero;fill:#FFFFFF;stroke:#000000;stroke-miterlimit:4; font-family:'Arial'; font-size:10;">
		<g>
			<path d="M169.449,460.499l-5.358-1.38l1.126-2.247l2.16-2.334l0.518-1.553v-1.126l-0.518-1.467l-0.952-0.778l-2.334-0.346l-0.861-0.863l0.174-2.592l-0.174-1.554l-0.865-2.42l0.262-1.468l0.777-1.558l-0.174-0.947l-1.209-0.349v-1.726v-0.778l1.984-0.776v-1.21
				l1.125-1.9l0.69-4.236l0.517,0.178l0.781,0.861l1.036,0.172l1.121-0.172l1.123,0.692l0.518,0.603l2.333-0.084l0.52-0.606l1.21-0.518l0.172-1.036l0.603-0.433l-0.516-0.516v-0.435l0.602,0.086l2.334-0.605l3.888-2.071l0.345-2.074l0.78-1.727v-0.436l0.86-1.12
				h2.765l0.436-0.517l0.085-0.694l0.604-0.345l2.588,1.039l1.19-0.028l2.787-0.06l1.206,0.689l0.954-0.261l1.254,0.231l1.508,1.586l1.296-0.346l0.173-0.346l1.209-0.604l0.864-0.087l0.779-0.435l0.778,0.521l1.295,0.348l0.432-0.435l-0.347-1.212l0.868-1.035
				l0.95,0.175l0.777-0.175l0.776,0.433h0.52l0.776-1.034l-0.518-0.519l0.085-0.435l2.334-3.109l1.209-0.258l0.862,0.175l1.123,1.035v0.517l-0.344,0.604l0.084,0.606l1.384,0.431l-0.69,4.236l0.172,0.774l1.209,1.901l0.778-0.087l2.333-1.469l1.899-0.435
				l1.381-1.294l2.423-1.122l1.379,0.175l0.433,1.208l0.778-0.604l2.334-0.435l1.466,0.177v0.69l-1.029,0.52l0.425,1.036l-0.95,0.084l-1.295,0.692l-2.334-0.346l-3.889,0.084l-1.553,0.348l-0.778,0.515l-1.556,0.351l-0.344,0.604l-0.862,0.174v0.518l-1.214-0.087
				l-0.169,0.517l-1.556,1.038l-0.345,0.862l1.382,1.209l0.777,1.988l-0.431,0.862l0.172,1.037l-0.346,0.606l-1.295,1.122l-1.295,1.645v0.518l0.69,0.429l-0.173,0.346v0.52l-0.689,0.864l-1.643,0.518l-2.677-0.518l-0.691,0.085l-0.175,0.518l0.085,0.26l0.518,0.777
				l0.433,0.088l0.864,2.075l-1.984,1.379l-0.695-0.171l-1.121,0.344l-0.086,1.123l-0.518,0.173l-0.173,0.435l0.085,0.861l-0.517,0.435l-0.433,0.776l0.343,2.676l-2.071,1.814l-0.429-0.258l-0.349-0.694l-0.691-0.342h-0.343l-0.262,0.259l0.433,0.432l-2.074-0.432
				l-2.506,1.639l0.78,0.349l-0.259,0.517l-2.591,0.434l-1.04-0.086v-0.261l-0.429-0.258l-0.606,0.43l-0.518,0.865l-1.037,0.777l-0.346,0.519l-0.344,1.21l0.17,1.119l-0.344,1.646l0.344,0.604l-0.085,0.517l-0.694,0.608l-2.243,0.346l-3.368,1.034l-3.459-0.175
				l-0.605,0.175l-0.86,0.862l-1.472-0.604h-1.554l-3.973,0.259l-1.037,0.434l-2.332-0.951z"/>
			<text transform="matrix(1 0 0 1 167.7041 439.0483)"><tspan x="0" y="0" style="fill-rule:evenodd;clip-rule:evenodd;fill:#000000;stroke:none;">Afghanistan</tspan></text>
		</g>
		<g>
			<path d="M258.626,562.607l-0.434,0.261l1.296,0.865l0.435,0.603l-0.435-0.084l-0.604,0.603l-0.173,1.211l-0.52,0.863l-0.604,4.235l-0.433-0.264l-0.258,0.264v1.466l0.691,5.011l0.431,1.382l0.692,1.556l0.863,0.952l2.679,0.256l3.799-2.329l1.036-1.471
				l0.434-4.062l-0.175-0.777l-0.601-0.171l-1.471-3.63l-0.605-0.519l-0.516-1.207l-1.038-0.952l-0.346-0.953l-2.591-2.762l-1.555-0.347"/>
			<text transform="matrix(1 0 0 1 267.8291 580.7271)"><tspan x="0" y="0" style="fill-rule:evenodd;clip-rule:evenodd;fill:#000000;stroke:none;">Sri Lanka</tspan></text>
		</g>
		<g>
			<path d="M246.971,428.064l1.719,0.231l1.329-0.94l2.541-1.529l3.007-0.535l1.288,0.827l2.158,2.342l1.357-0.637l-0.663,3.265l-0.849,1.44l-1.935,2.506l-0.847,1.349l-1.425,0.042l-0.976,3.165l0.89,1.329l1.403,0.397l0.487,1.552l-0.308,1.545l-2.962,0.868
				l-1.428-0.868l-0.439,1.62l1.216,1.415l-0.057,3.274l1.865,2.367l1.451-0.241l2.843,0.926l0.983,1.188l2.585,1.672l0.836,0.199l-0.345,0.257l-0.087,0.431l-1.035,0.949l-0.26,0.604l-0.606,0.086l-0.345,0.349l0.258,0.948l-0.776,1.209l0.259,0.693l-0.346,0.951
				l-0.433,0.171l-0.434,0.604l0.088,0.866l0.95,0.086l1.036,1.38l0.347-0.082l0.086-0.348h0.259l1.21,0.607l1.897,1.204l1.644,1.645l2.765,0.949l0.774,0.694l1.125,0.081l1.21,1.213l1.812,0.428l1.296-0.428l1.73,0.342l1.035-0.172l1.726,0.258l0.52,0.262
				l1.468,1.726l1.21,0.695l1.727,0.343l1.125-0.085l0.778,0.262l0.604,0.602l5.703,0.692l0.861,0.428l3.111-0.345l1.037,0.176l0.604-1.211l0.088-0.604l-0.521-0.867l-0.689-0.427l0.342-0.695l0.088-2.417l0.433-1.468l3.22-1.074l0.806,1.343l-0.363,1.611
				l0.743,0.796l-0.864,1.125l-0.087,0.432l0.432,0.087l0.26,1.034l1.642,0.521l2.072,0.262h1.641l2.16-0.695l2.159,0.344l5.7-0.863l0.693-0.341l0.086-1.904l-0.521-0.518l-1.639-0.604l-0.085-0.431l0.085-0.605v-0.26l3.766-0.775l3.118-1.408l1.47-1.418l2.74-1.512
				l1.578-1.874l1.367-0.786l2.135,0.414l1.754-0.052l2.566-1.192l1.527,0.206l0.545,2.081l2.412,2.868l2.131,0.374l1.142,0.941l-0.086,1.357l-1.555,1.035l-0.432,1.123l0.344,1.384l-0.432,0.43l-1.556-0.43l-0.863,0.43l-1.813,0.26l-0.691,1.125l-0.862,0.777
				l-1.386,0.604l-1.207,1.033l-0.693,1.383l0.173,2.419l-0.519,1.124l-1.469,0.949l-0.518,0.778l0.173,0.778l-0.344,1.038l-1.642,3.107l-0.521,1.727l-0.431,0.433l-1.898-0.17l-1.211,0.257l-0.777,0.693l0.172,2.241l-0.348,1.813l-0.257,0.349l-1.039-0.089
				l-0.169,1.211l0.087,1.3l0.517,0.948l-0.087,0.519l-0.95,0.69l-0.777-0.259l-0.777,0.688l-0.865-5.357l-0.947-3.019l-0.694-1.213l-0.433-0.084l-1.035,1.297l-0.95,2.591l-0.693-0.606l-0.431-0.779l-0.95-0.168l-0.602-1.645l-0.175-1.468l0.258-0.691l3.283-2.16
				l1.038-1.299l0.429-1.202l0.866-0.434l0.172-0.433l-1.379-0.521l-2.161-0.345l-1.989-0.175l-1.727,0.349l-3.888-0.261l-1.036-0.432l-0.604-0.776l-0.948-3.716l-0.691,1.297l-0.777-0.521l-0.435,0.351l-0.775-0.781l-0.173-1.382l-0.521-0.171l-0.431,1.728
				l-1.382-2.074l-0.429,0.171l-0.26,1.037l-1.294,2.161l0.343,0.259l0.258,1.207l0.692,0.435l1.296-0.085l0.26,1.38l-1.816,0.174l-0.258,0.604l-1.212,0.345l-0.517,1.211l0.088,0.6l1.813,0.779l1.296,1.212l-0.348,3.543l0.605,0.601v1.296l0.434,0.435l-0.262,2.417
				l0.691,1.295l0.431,2.766l-0.085,0.521l0.52,1.205l-0.692,0.262l-0.518-1.21l-0.261,1.035l-0.431-0.087l-0.434,0.348l-0.779,0.173l-0.343-0.69l-0.518-0.262l0.173-2.156h-0.263l-1.122,1.811l-4.317,2.162l-0.608,1.384l0.608,2.158l-1.989,2.505l-1.468,1.294
				l-2.678,0.955l-2.764,1.554l-1.123,0.864l-4.147,4.748l-2.675,1.901l-1.21,1.293l-4.927,3.717l-0.517,0.863v1.036l-0.606,0.692l-2.072,0.777l-2.417,0.517l-1.212,2.336l-0.689,0.258l-0.949-0.431h-0.78l-0.863,0.518l-1.467,2.158v1.989l0.173,1.12l0.344,0.605
				l-0.257,1.899l0.602,2.765l-0.26-0.26l-0.258,0.26l0.862,1.124l0.176,1.292l-0.779,3.112l-1.555,3.543l-0.258,0.951l0.175,6.827h-0.867l-0.346-0.351l-1.209,0.258l-0.691,1.646l-1.207,1.723v1.729l-1.557,0.262l-1.987,0.951l-0.78,2.764l-1.121,0.862
				l-0.777,0.951h-1.554l-1.124-0.951l-2.506-3.369l-0.605-1.294l-0.69-2.591l-1.985-4.667l-1.209-3.975l-2.507-2.852l-0.779-1.21l-1.639-6.562l-0.52-1.297l-0.69-0.865l-0.259-1.295l-0.865-1.9l-0.605-0.345l-0.776-1.127l-0.604-1.894l0.347-0.87l-0.433-0.082
				l-0.259,0.258l-0.261-0.176l-0.431-1.294l-0.864-0.952l-0.171-0.948l-0.778-1.207l-0.259-0.778l-0.433-4.063l-1.122-2.936l-0.088-1.899l-0.518-0.779l0.431-3.457l-0.172-0.345l-0.604,0.605l-0.087-1.471l-0.433-1.983v-0.952l0.693-2.417v-0.779l-0.778-3.279
				H221.4l-0.084-0.35l0.084-0.949l0.518-1.211l-0.775-0.517l0.086-1.036l-0.261-0.086l0.432-1.123h0.951l0.435-0.693l-2.593-0.085l-0.521-0.515l-0.517,2.502l-0.088,2.332l-0.948,1.73l-1.557,0.863l-0.516,0.084l-1.469,0.693l-1.036,0.26l-2.853-0.26l-1.899-1.641
				l-4.922-4.841l-0.178-1.381l0.348-0.432l0.778,0.604l3.369-0.604l1.813-1.469l0.691-1.816l-0.26-0.431l-0.431,0.175l-0.346,0.691l-2.246,0.688l-1.898,0.177l-1.819-0.261l-0.862-0.436l-0.864-0.944l-1.381-1.554l-0.259-0.779l-0.69-0.089l-0.088-0.688
				l0.863-1.474H203l0.173-1.898l0.347,0.433l0.26-0.174l0.431,0.174l1.9-0.085l0.432,0.17l0.432-0.17l0.779,0.603h1.382l0.346-0.086l0.343-0.69l1.555-0.604l0.607,0.084v0.779l0.689,0.26l0.608-0.175l0.604-0.518h0.601v-0.262l-0.601-0.085v-1.117l0.43-0.434v-0.26
				l-1.383-1.556l-0.604-1.296l-0.085-1.728l-0.432-0.346l-1.209,0.17l-0.951-0.948l-0.085-0.864l0.602-1.728l-0.086-0.692l-0.602-0.432l-2.161-0.171l-0.431-0.348l-0.346-0.778l0.346-1.641l0.258-0.517l1.988-2.245l2.244-2.161l0.607,0.172l1.208,1.73l1.471-0.953
				h2.418l0.777-0.429l2.592-3.889l2.676-1.987l1.383-1.898l1.295-2.682l1.902-0.774l0.347-0.695l-0.088-0.688l0.432-1.036l0.949-0.693l1.037-1.381l1.209-0.434l0.261-0.602l0.777,0.257l0.345-0.257l-0.171-0.517h-0.951l-0.261-0.349l0.779-1.125l-0.692-1.294
				l0.085-0.866l0.347-0.688l1.213-0.691h1.725l0.604-0.777l-0.173-0.691l-0.431-0.606l-2.678-0.433l-0.26-0.777l0.085-0.862l-0.95,0.089l-0.259-0.348h-0.605l0.088-0.691l-0.95-0.518l-0.347-0.692l-0.691-0.345l1.468-1.381l-0.085-0.605l-1.125-0.951l0.087-0.43
				l1.122-0.78l-0.345-0.516l-1.036,0.084l-0.516-0.347l0.601-0.949l-0.172-0.431l-0.863-0.172l0.692-1.212l0.085-0.689l0.432-0.348l0.777,0.092l0.777-0.521l2.505,0.861l1.296,0.696l1.987,0.083l0.433,0.259l1.122-0.085l0.864-0.691l1.123,0.172l0.865-0.773
				l1.726-0.092l0.608,0.432l0.776-1.034l-0.174-0.432l0.345-0.433l3.11-2.159z"/>
			<text transform="matrix(1 0 0 1 234.1753 493.0376)"><tspan x="0" y="0" style="fill-rule:evenodd;clip-rule:evenodd;fill:#000000;stroke:none;">India</tspan></text>
		</g>
		<g>
			<path d="M169.428,460.512l2.333,0.945l1.037-0.428l3.973-0.26h1.555l1.471,0.604l0.862-0.862l0.604-0.176l3.458,0.176l3.368-1.038l2.248-0.346l0.688-0.605l0.088-0.516l-0.346-0.604l0.346-1.646l-0.172-1.12l0.344-1.208l0.348-0.521l1.035-0.777l0.521-0.865
				l0.604-0.432l0.431,0.258v0.263l1.037,0.086l2.589-0.432l0.262-0.517l-0.78-0.35l2.507-1.64l2.072,0.434l-0.434-0.434l0.261-0.261h0.347l0.69,0.346l0.346,0.69l0.433,0.261l2.072-1.814l-0.346-2.676l0.431-0.774l0.519-0.436l-0.084-0.863l0.173-0.434l0.518-0.172
				l0.085-1.123l1.12-0.347l0.694,0.174l1.986-1.38l-0.865-2.077l-0.432-0.086l-0.517-0.777l-0.085-0.259l0.172-0.52l0.691-0.085l2.674,0.518l1.645-0.518l0.69-0.863v-0.517l0.174-0.347l-0.692-0.433v-0.517l1.298-1.644l1.294-1.123l0.344-0.609l-0.17-1.031
				l0.43-0.864l-0.78-1.99l-1.381-1.205l0.347-0.865l1.555-1.037l0.172-0.517l1.211,0.087v-0.521l0.865-0.171l0.344-0.604l1.555-0.346l0.778-0.517l1.557-0.346l3.884-0.091l2.335,0.35l1.294-0.692l0.951-0.085l3.284,0.577l0.93,1.226l1.47-0.238l1.157,1.103
				l0.935,3.696l1.451,0.123l1.468,0.941l4.249,1.209l-3.109,2.162l-0.343,0.431l0.172,0.431l-0.779,1.038l-0.605-0.433l-1.726,0.087l-0.866,0.774l-1.12-0.171l-0.868,0.69l-1.123,0.088l-0.432-0.262l-1.985-0.082l-1.297-0.692l-2.504-0.865l-0.78,0.52l-0.773-0.087
				l-0.434,0.344l-0.088,0.695l-0.69,1.205l0.863,0.174l0.174,0.435l-0.606,0.947l0.519,0.348l1.035-0.085l0.348,0.517l-1.122,0.777l-0.087,0.433l1.122,0.95l0.087,0.604l-1.47,1.38l0.693,0.348l0.345,0.692l0.949,0.516l-0.085,0.691h0.604l0.258,0.347l0.951-0.088
				l-0.085,0.866l0.258,0.777l2.678,0.429l0.432,0.607l0.172,0.688l-0.604,0.778h-1.727l-1.209,0.691l-0.347,0.694l-0.084,0.859l0.689,1.296l-0.779,1.123l0.26,0.349h0.951l0.174,0.518l-0.348,0.257l-0.777-0.257l-0.26,0.603l-1.208,0.435l-1.038,1.382l-0.949,0.692
				l-0.434,1.035l0.088,0.693l-0.345,0.688l-1.901,0.775l-1.296,2.682l-1.384,1.9l-2.677,1.985l-2.592,3.888l-0.776,0.434h-2.419l-1.47,0.947l-1.207-1.727l-0.606-0.175l-2.246,2.159l-1.988,2.248l-0.258,0.521l-0.346,1.643l0.346,0.773l0.433,0.347l2.159,0.174
				l0.603,0.431l0.087,0.692l-0.603,1.728l0.087,0.865l0.948,0.948l1.21-0.174l0.432,0.346l0.084,1.729l0.607,1.296l1.384,1.557v0.257l-0.433,0.433v1.12l0.604,0.09v0.259h-0.604l-0.604,0.519l-0.606,0.172l-0.69-0.259v-0.78l-0.606-0.084l-1.555,0.604l-0.344,0.691
				l-0.347,0.084h-1.382l-0.778-0.6l-0.431,0.171l-0.431-0.171l-1.902,0.084l-0.432-0.17l-0.258,0.17l-0.348-0.432l-0.171,1.899h-2.593l-0.861,1.472l-0.26-0.261l-2.42-0.434l-0.256-0.258l-1.211-2.247l-0.604-1.985l-1.902-0.692l-0.347-1.814l-0.947-0.949
				l-1.468-0.433l-1.903,0.347h-1.815l-1.378,0.519l-0.781-0.174l-1.382-0.172l-0.604,1.037l-0.434-0.518h-1.119l-0.781-0.606l-1.295,0.173l-1.209-0.173l-0.692,0.689l-1.207,0.087l-3.544-0.258l-1.381,0.691l-0.602-0.434l-0.692,0.605l-1.21,0.347l-0.257-0.519
				l-0.349-0.176l0.262-2.331l1.035-2.589l1.989-1.902l2.503-0.952l1.124-0.172l1.209-1.209l0.259-0.433l-0.086-0.863l-0.519-0.435l-1.729-0.341v-2.594l-0.431-2.16l-0.52-0.603l-2.416-0.691l-2.506-1.64l-1.987-3.717l-1.902-1.9l0.257-0.346l5.358,1.384z"/>
			<text transform="matrix(1 0 0 1 178.1743 471.5005)"><tspan x="0" y="0" style="fill-rule:evenodd;clip-rule:evenodd;fill:#000000;stroke:none;">Pakistan</tspan></text>
		</g>
		<g>
			<path d="M119.754,491.524l-1.781,0.784l-0.46-0.063l-0.71-0.911l0.105-0.263l0.032-0.336l-0.042-0.111l-0.114-0.069l0.035-0.113l0.111-0.187l-0.042-0.112l-0.278-0.476l-0.046-0.295l-0.004-0.115l0.112-0.185l0.031-0.149l-0.114-0.108l-0.08-0.072l-0.001-0.037
				l0.036-0.184l0.034-0.19l-0.044-0.187l0.03-0.405l0.071-0.151l0.074-0.077l0.226-0.226l0.189-0.193l0.03-0.222l0.255-0.6l0.103-0.484l0.098-0.671l0.074-0.113l0.111-0.225l0.22-0.377l0.074-0.112l0.112-0.075l0.151-0.078l0.114-0.041l0.309,0.107l0.27,0.139
				l0.043,0.07l0.231,0.146l0.041,0.07l0.005,0.261l0.08,0.146l0.08,0.075l0.114,0.036l0.307-0.011l0.195,0.067l0.156,0.109l0.038,0.037l0.005,0.223l-0.11,0.148l0.042,0.19l-0.031,0.185l-0.072,0.151l-0.111,0.222l0.002,0.074l0.076,0.072l0.001,0.076l0.001,0.037
				l-0.15,0.078l-0.024,0.67l0.05,0.405l0.003,0.148l0.044,0.148l0.195,0.217l0.119,0.182l0.012,0.447l0.008,0.371l0.046,0.332l0.001,0.074l-0.033,0.224l-0.035,0.147l-0.184,0.337l-0.185,0.229l-0.108,0.3l0.043,0.225l-0.074,0.147l-0.111,0.116z"/>
			<text transform="matrix(1 0 0 1 116.9009 486.9663)"><tspan x="0" y="0" style="fill-rule:evenodd;clip-rule:evenodd;fill:#000000;stroke:none;">Qatar</tspan></text>
		</g>
		<g>
			<path d="M138.729,500.501l0.543-6.104l2.844-1.179l-1.775-3.778l2.864-0.328l0.001,0.072l0.038,0.069l0.245,0.446l0.076,0.146l0.006,0.187l0.12,0.145l0.156,0.144l0.349,0.177l0.309,0.143l0.079,0.074l0.119,0.257l0.782,0.647l0.275,0.328l0.155,0.183
				l0.043,0.072l0.156,0.146l0.576,0.097l0.155,0.07l0.817,0.537l0.231,0.105l1.39,0.376l0.77,0.242l0.539,0.135l0.189-0.005l0.924,0.053l0.42-0.045l0.268,0.104l0.197,0.107l0.964,0.311l0.649-0.054l0.694,0.206l0.349,0.18l0.232,0.18l0.158,0.146l0.157,0.182
				l0.158,0.144l0.238,0.365l0.312,0.216l0.233,0.183l0.082,0.178l0.082,0.262l0.43,0.36l0.467,0.212l0.036,0.071l0.119,0.11l0.001,0.035l0.122,0.337l0.201,0.438l0.507,0.283l0.311,0.253l0.154,0.073l0.116,0.032l0.344-0.006l0.156,0.031l0.456-0.045l0.039,0.032
				l0.159,0.257l0.119,0.07l0.231,0.105l0.39,0.323l0,0.043l0.008,0.258l-0.106,0.45l-0.143,0.411l-0.069,0.297l-0.024,0.595l-0.142,0.486l-0.181,0.412l-0.368,0.64l-0.481,0.828l-0.328,0.641l-0.256,0.447l-0.412,0.383l-0.749,0.686l-0.152,0.188l-0.18,0.34
				l-0.187,0.229l-0.256,0.561l-0.034,0.183l-0.178,0.523l-0.072,0.15l-0.26,0.307l-0.074,0.224l-0.257,0.415l-0.031,0.258l-0.369,0.68l-0.146,0.189l-0.076,0.037l-0.344,0.007l-0.232-0.029l-0.271-0.178l-0.117-0.112l-0.124-0.255l-0.156-0.18l-0.076-0.036
				l-0.265,0.153l-0.148,0.188l-0.186,0.192l-0.258,0.452l-0.113,0.112l-0.035,0.037l-0.15,0.227l-0.142,0.413l-0.375,0.454l-0.183,0.263l-0.075,0.189l-0.147,0.188l0.085,0.366l0.086,0.371l-0.027,0.444l-0.072,0.189l-0.033,0.26l0.041,0.151l0.016,0.592
				l0.12,0.331l0.089,0.443l0.003,0.147l0.043,0.149l0.195,0.217l0.121,0.218l0.045,0.26l0.122,0.183l0.079,0.185l0.003,0.11l-0.188,0.338l-0.07,0.075l-0.116,0.08l-0.493,0.196l-0.229,0.041l-0.42,0.009l-1.142,0.327l-0.419,0.01l-0.196-0.067l-0.074,0.072
				l-0.146,0.263l-0.075,0.082l-0.152,0.074l-0.492,0.197l-0.191,0.077l-0.676,0.577l-0.149,0.111l-0.142,0.45l-0.222,0.34l-0.036,0.149l-0.022,0.743l-0.17,0.784l-0.104,0.369l-0.3,0.417l-0.222,0.269l-0.036,0.11l-0.149,0.112l-0.228,0.154l-0.303,0.081
				l-0.114,0.114l-0.075,0.04l-0.189,0.005l-0.271-0.032l-0.418,0.051l-0.532,0.154l-0.571,0.128l-0.725,0.204l-0.687,0.125l-0.187,0.116l-0.26,0.415l-0.336,0.346l-0.222,0.262l-0.223,0.264l-0.229,0.154l-0.036,0.074l-0.022,0.563l0.125,0.554l0.002,0.069
				l-0.147,0.264l-0.11,0.154l-0.295,0.488l-0.074,0.113l-0.337,0.266l-0.377,0.233l-0.227,0.268l-0.073,0.075l-0.384,0.009l-0.269-0.031l-0.345-0.108l-0.54-0.056l-0.461-0.065l-0.346,0.009l-0.991,0.134l-0.458,0.012l-0.379,0.083l-0.267,0.157l-0.602,0.424
				l-0.266,0.077l-0.985,0.468l-0.075,0.041l-0.575,0.05l-0.417,0.083l-0.075,0.076l-0.191,0.042l-0.493,0.16l-0.759,0.32l-0.227,0.076l-0.304,0.079l-0.341,0.158l-1.526-2.975l-4.337-8.578l14.874-5.773l2.744-10.161l-2.756-3.274z"/>
			<text transform="matrix(1 0 0 1 143.0508 510.4907)"><tspan x="0" y="0" style="fill-rule:evenodd;clip-rule:evenodd;fill:#000000;stroke:none;">Oman</tspan></text>
		</g>
		<g>
			<path d="M94.637,536.88l0.067-5.307l-9.418-3.228l-3.311,0.968l-0.954,0.058l-1.109,0.028l-0.527,0.384l-0.372,0.562l-0.794,0.282l-0.604,0.349l-0.214,0.71l-0.451,0.382l-1.064,0.322l0.158,0.219l0.139,0.924l0.057,0.812l-0.025,0.6l-0.144,0.374l-0.45,0.307
				l-0.114,0.151l0.126,0.441L75.613,537l0.162,0.403l-0.031,0.295l-0.234-0.067l-0.262,0.193l0.312,0.212l0.317,0.442l0.436,0.657l-0.021,0.702l0.282,0.439l0.199,0.48l0.043,0.222l0.079,1.592l0.168,0.662l0.131,0.778l0.284,0.624l0.51,0.51l0.095,0.776
				l-0.138,2.267l0.433,0.437l0.277,0.436l0.275,0.256l0.043,0.22l0.161,0.333l0.047,0.371l0.124,0.331l0.113,0.035l0.192-0.044l0.113,0.035l0.844-0.019l0.542,0.244L81.42,551h0.115l0.572-0.086l0.229-0.043l0.115-0.002l0.652,0.097l0.113-0.041l0.875-0.279
				l0.458-0.051l1.226,0.007l0.421,0.063l0.615-0.053l0.263-0.114l0.265-0.15l0.531-0.239l0.304-0.118l0.303-0.081l1.024-0.435l0.266-0.079l0.267-0.119l0.072-0.074l0.116-0.115l0.333-0.524l0.178-0.303l0.08-0.04l0.149-0.115l0.454-0.234l0.151-0.073l0.229-0.12
				l0.114-0.041l0.422,0.029l0.189-0.047l0.151-0.037l0.308-0.008l0.882,0.091l0.418-0.124l0.687-0.053l0.385,0.063l0.501,0.145l0.229,0.031l0.538,0.021l0.457-0.082l1.333-0.329l0.532-0.161l0.65-0.09l0.53-0.271l0.375-0.161l0.38-0.229l0.227-0.118l0.113-0.074
				l0.112-0.155l0.221-0.338l0.077-0.04l0.943-0.544l0.115-0.075l0.304-0.079l0.955-0.063l0.383,0.028l0.609-0.051l0.5,0.065l1.035,0.013l0.268-0.047l0.149-0.077l0.149-0.227l0.491-0.271l0.527-0.384l0.562-0.568l0.446-0.567l0.183-0.338l0.11-0.264l-0.002-0.037
				l0.377-0.232l0.493-0.231l0.267-0.122l0.224-0.117l0.65-0.199l0.566-0.313l0.225-0.074l0.993-0.175l0.193-0.005l0.229-0.079l0.954-0.061l0.415-0.23l0.228-0.043l0.306-0.156l0.341-0.082l0.228-0.078l0.416-0.235l0.952-0.243l0.303-0.117l0.077-0.08l0.34-0.157
				l0.569-0.233l0.834-0.246l0.611-0.049l0.688-0.091l0.189-0.079l0.192-0.043l0.224-0.152l0.116-0.039l0.456-0.157l0.148-0.117l0.224-0.301l0.265-0.195l0.146-0.186l0.113-0.111l0.99-0.286l0.381-0.084l0.529-0.273l0.69,0.057l0.301-0.116l0.152-0.152l0.072-0.112
				l0.036-0.114l-0.122-0.293l-0.007-0.334l-0.001-0.109l-0.278-0.404l-0.003-0.112l0.146-0.298l0.185-0.305l0.287-0.748l0.263-0.301l0.486-0.495l0.3-0.19l0.377-0.237l0.34-0.261l0.417-0.198l0.681-0.279l0.607-0.271l-1.526-2.975l-4.337-8.578l-16.256,3.947
				L94.637,536.88z"/>
			<text transform="matrix(1 0 0 1 76.8643 543.0894)"><tspan x="0" y="0" style="fill-rule:evenodd;clip-rule:evenodd;fill:#000000;stroke:none;">Yemen</tspan></text>
		</g>
		<g>
			<path d="M138.729,500.501l-0.859,1.058l-14.857-1.688l-1.628-4.046l-3-2.265l-0.412-1.252l-0.46-0.063l-0.71-0.911l-0.043-0.111l-0.152,0.041l-0.04-0.036l-0.125-0.366l-0.04-0.073l-0.118-0.148l-0.155-0.069l-0.007-0.297l-0.04-0.147l-0.313-0.291l-0.161-0.219
				l-0.077-0.108l-0.007-0.298l-0.087-0.368l-0.092-0.631l-0.119-0.181l-0.197-0.219l-0.233-0.181l-0.355-0.435l-0.466-0.397l-0.202-0.293l-0.116-0.145l-0.08-0.148l-0.276-0.291l-0.042-0.221l-0.005-0.185l-0.047-0.258l0.034-0.34l0.334-0.376l0.111-0.152
				l0.036-0.11l-0.007-0.261l-0.082-0.185l-0.004-0.222l-0.081-0.219l-0.12-0.219l-0.278-0.292l-0.273-0.365l0.027-0.521l0.068-0.297v-0.04l-0.083-0.18l-0.194-0.182l-0.162-0.258l-0.348-0.252l-0.12-0.143l-0.348-0.18l-0.313-0.253l-0.426-0.25l-0.311-0.141
				l-0.272-0.178l-0.082-0.148l-0.19-0.033l-0.194,0.004l-0.345-0.102l-0.078-0.034l-0.165-0.516l-0.047-0.296l-0.156-0.144l-0.079-0.187l-0.002-0.075l0.037-0.035l0.187-0.155l-0.001-0.035v-0.038l-0.158-0.143l-0.697-0.392l-0.388-0.251l-0.042-0.073l-0.237-0.406
				l-0.204-0.441l-0.039-0.073l-0.694-0.202l-0.041-0.04l-0.157-0.218l-0.282-0.551l-0.357-0.549l-0.041-0.106l-0.126-0.481l-0.277-0.4l-0.002-0.109l-0.043-0.15l-0.243-0.512l-0.159-0.297l-0.868-1.443l-0.808-3.614l-0.283-0.272l-1.662,0.048h-1.381l-0.868-1.229
				l-1.177-0.921l-1.378-0.457l-1.432-0.255l-0.815-0.256h0.049l0.001-0.002l-3.496-0.593l-4.408-0.722L83.558,462l-1.892-1.111l-0.912-0.875l-1.555-1.058l-2.004-1.111l-3.834-1.5l-6.925-1.423l-2.189-0.415l-1.153-0.723l-0.011-0.017l-0.122,0.04l-0.906,1.273
				l-1.219,0.973l-1.459,0.34l-1.804,0.342l-1.802,0.341l-1.509,0.342l-1.365,0.78l1.072,1.07l0.974,0.975l1.314,1.313l1.072,1.509l-1.266,0.733l-0.78,1.313l-0.974,1.224l-1.412,0.193l-1.414,0.191l-0.729,1.27l-0.828,1.361l-1.021,1.022l-1.318,0.052l-1.366-0.196
				l-1.362-0.147l-1-0.144l-0.082,1.138l-0.593,4.548l3.463,2.45l0.586,0.506l0.438,0.695l0.546,2.063l0.876,1.32l0.087,0.589l0.202,0.366l0.697,0.391l0.488,1.104l0.397,0.693l0.251,0.848l0.137,0.926l0.21,0.775l-0.151,0.113l-0.057,0.819l0.515,0.73l0.361,0.659
				l0.094,0.626l0.344,0.182l0.346-0.047l0.536,0.022l0.623,0.433l0.083,0.258l0.151,0.07l0.119-0.003l0.157,0.222l0.779,0.61l0.591,0.728l0.626,0.615l0.521,0.956l0.444,1.025l0.292,0.924l0.282,0.55l0.046,0.296l0.088,0.554l0.247,0.772l0.356,0.438l0.242,0.554
				l0.263,1.254l-0.028,0.519l-0.177,0.602l-0.254,0.598l-0.26,0.19l0.046,0.445l0.124,0.403l0.16,0.187l0.049,0.59l0.019,0.78l0.083,0.146l0.007,0.301l0.154,1.736l0.174,0.888l0.244,0.587l0.281,0.589l0.357,0.475l0.624,0.576l0.74,0.47l0.467,0.319l0.541,0.249
				l0.229-0.041v-0.04l0.157,0.108l0.506,0.286l0.506,0.354l0.468,0.438l0.312,0.18l0.509,0.509l0.713,1.056l0.393,0.365l0.205,0.586l0.393,0.325l0.271,0.253l0.164,0.442l0.316,0.478l0.291,0.809l-0.018,0.964l0.167,0.552l0.04,0.078l0.009,0.366l0.159,0.294
				l0.234,0.105l0.156,0.148l0.279,0.585l0.408,0.88l0.203,0.514l0.039,0.041l0.32,0.547l0.591,0.801l0.433,0.51l0.738,0.391l0.823,0.836l0.548,0.434l0.277,0.323l0.259,1.335l0.001,0.07l0.04,0.115l0.398,0.545l0.312,0.218l0.237,0.324l0.323,0.735l0.479,0.807
				l-0.018,0.815l0.16,0.332l0.044,0.259l1.064-0.322l0.451-0.382l0.214-0.71l0.604-0.349l0.794-0.282l0.372-0.562l0.527-0.384l1.109-0.028l0.954-0.058l3.311-0.968l9.418,3.228l-0.067,5.307l12.975-13.223l16.256-3.947l14.874-5.773l2.744-10.161l-2.756-3.274z"/>
			<text transform="matrix(1 0 0 1 66.9829 512.5073)"><tspan x="0" y="0" style="fill-rule:evenodd;clip-rule:evenodd;fill:#000000;stroke:none;">Saudi Arabia</tspan></text>
		</g>
		<g>
			<path d="M175.813,473.58l-0.518-0.431l-1.729-0.349v-2.59l-0.429-2.157l-0.521-0.607l-2.418-0.688l-2.504-1.646l-1.988-3.711l-1.901-1.901l0.258-0.344l1.126-2.249l2.156-2.33l0.522-1.557v-1.124l-0.522-1.468l-0.946-0.776l-2.336-0.349l-0.861-0.86l0.172-2.596
				l-0.172-1.554l-0.866-2.416l0.26-1.468l0.778-1.555l-0.172-0.952l-1.21-0.346v-1.729v-0.778l1.988-0.774v-1.211l1.123-1.902l0.667-4.083l-0.164-0.968l-0.358-2.556h-2.198l-1.482-0.816l-1.941-1.687l-1.432-0.821l-1.124-1.477l-1.739-1.538h-2.148l-2.249-0.866
				l-1.89-0.667l-2.249-1.38l-1.227-1.173l-1.842-0.1l-2.045,1.375l-1.94-0.307l-2.299,0.307l-1.28,1.231l-1.581,1.172l-1.485,1.228l-2.907-1.511l0.56,2.01l-0.409,1.995l-3.629-0.513l-3.626,1.022l-3.987,0.97l-2.864-0.97l-3.218-2.045l-0.818-1.483l-3.22-0.51
				l-0.99-0.423l0.136,1.205h-1.379l-1.378-0.922l-1.124-1.428l1.124-1.586l-0.307-2.198l-1.533-0.867l-2.249,0.564l-1.943,1.633l-1.534,2.505l-1.582,0.153l-0.05-0.068h-1.309l-0.813-0.099l-0.911-0.104l-1.372-0.304l-1.775-2.688l-0.965-1.374l-0.76-0.81
				l-0.193-0.267l-1.614,1.478l-1.243,0.745l0.748,2.139l0.149,2.335l0.149,2.886l0.893,2.438l1.195,2.834l-0.12,0.104l0.688,0.225l3.351,1.091l0.207,1.893l0.407,1.687l-1.995,2.812l-1.02,1.534l-0.306,2.298l-0.564,0.715l0.666,1.79l1.735,1.226l0.615,2.146
				l2.351,1.483l2.095,1.431l1.943,1.127l1.328,2.449l0.357,2.301l-0.256,3.116l1.332,1.845l1.174,1.889l1.228,0.972l1.071,0.718l1.534-2.455l1.636,1.43l1.586,1.381l2.042-0.921l1.585,1.843l1.637,3.215l1.992,2.762l0.819,2.762l1.226,2.248l3.217,0.917
				l1.997,1.334l2.043,2.247l2.403,0.46l1.633,1.786l2.406-0.407l1.992,1.329l2.863-1.329l1.99-0.918l2.404-0.921h2.454l1.584,1.839l0.408,2.247l0.817,2.66l3.219,0.457l2.813,0.41l2.809,0.921l2.457,0.41h2.401l2.809,0.461l2.046,0.457l2.096,0.256l0.273-2.325
				l-0.303-0.15l0.26-2.333l1.036-2.591l1.988-1.903l2.504-0.949l1.124-0.172l1.208-1.211l0.26-0.43l-0.088-0.866z"/>
			<text transform="matrix(1 0 0 1 121.2905 445.7007)"><tspan x="0" y="0" style="fill-rule:evenodd;clip-rule:evenodd;fill:#000000;stroke:none;">Iran</tspan></text>
		</g>
		<g>
			<path d="M104.163,459.269l-0.537-0.356l-1.227-0.972l-1.174-1.889l-1.33-1.845l0.255-3.116l-0.357-2.301l-1.33-2.449l-1.943-1.127l-2.093-1.431l-2.351-1.483l-0.614-2.146l-1.738-1.226l-0.666-1.79l0.562-0.715l0.31-2.298l1.021-1.534l1.992-2.812l-0.409-1.687
				l-0.203-1.893l-4.04-1.315l0.122-0.104l-0.528-1.25l-0.516,0.612l-1.258,0.16l-2.606-0.201l-1.943-0.664l-2.096,1.839l-1.378,0.869l-1.585,2.605l-2.708,1.021l-0.104,2.813l-0.153,3.423l-0.409,3.17l-0.817,2.248l-1.38,0.718l-2.145,1.275l-2.25,0.973
				l-1.227,0.922l-1.484,0.864l-1.992,1.227l-1.226,0.922l0.716,0.918l0.51,1.792l0.468,1.469l0.792,1.278l1.153,0.723l2.189,0.415l6.925,1.423l3.834,1.5l2.004,1.111l1.555,1.058l0.912,0.875L83.558,462l3.014,0.739l4.408,0.722l3.506,0.595h0.05l1.432-1.484
				l0.818-1.738l1.021-1.531l2.504-0.358l3.629,0.765l0.222-0.439z"/>
			<text transform="matrix(1 0 0 1 73.8467 451.9751)"><tspan x="0" y="0" style="fill-rule:evenodd;clip-rule:evenodd;fill:#000000;stroke:none;">Iraq</tspan></text>
		</g>
		<g>
			<path d="M39.446,459.757l1.25-1.449l1.55-2.802l0.799-2.8l0.801-2.748l0.15-0.453l1.398,0.153l1.102-1.1l-0.1,1.699l-0.25,1.346l-0.102,1.651l-1.399-0.699l-1.05,1.25l-0.35,1.651l1.25,0.946l-1.201,1.403l1.101,0.998l1.038,0.961l-0.643,2.041l-0.601,1.65
				l-0.144,1.599l-0.1,1.548l-0.199,1.603l0.1,0.996l-0.007,0.733l-1.242-0.934l-0.602-1.499l-0.547-1.498l-0.5-1.601l-0.55-1.649l-0.601-1.85l-0.351-1.148z"/>
			<text transform="matrix(1 0 0 1 15.7466 464.0024)"><tspan x="0" y="0" style="fill-rule:evenodd;clip-rule:evenodd;fill:#000000;stroke:none;">Israel</tspan></text>
		</g>
		<g>
			<path d="M43.996,449.505l0.49-2.741l0.88-2.936L47,441.427l-0.202-1.432h2.351l1.123,1.127l0.615,1.531l-1.175,1.228l-0.92,1.279l-1.228,0.971l-0.508,1.532l-1.178,0.869l-0.202,0.15l-0.134,0.982l-1.544-0.16z"/>
			<text transform="matrix(1 0 0 1 5.1592 452.5981)"><tspan x="0" y="0" style="fill-rule:evenodd;clip-rule:evenodd;fill:#000000;stroke:none;">Lebanon</tspan></text>
		</g>
		<g>
			<path d="M292.782,348.789l-0.381-0.73l-0.357-0.539l0.408-0.612l0.458-0.513l-0.353-0.658l-0.439-0.32l-0.001-0.004l-0.124-0.088l-0.36-0.615l-0.25-0.652l-0.49-0.327l-0.009-0.016l-0.117-0.076l-0.358-0.615l-0.126-0.591l-0.565,0.174l-0.665,0.308l-0.459,0.512
				l-0.255,0.664h-0.717l-0.716-0.154l-0.714-0.205l-0.613-0.355l-0.664-0.104l-0.769-0.102l-0.611-0.358l-0.258-0.665l-0.254-0.613l-0.562-0.508l-0.613-0.257l0.051-0.715l-0.307-0.666l-0.613-0.358l-1.277-0.562l-0.716-0.152l-0.359-0.613l-0.101-0.718
				l0.204-0.715l-0.252-0.663l-0.717-0.257l-0.409-0.56l-0.512-0.513l-0.612-0.358l-0.358-0.614l-0.611-0.357l-0.667-0.255l-0.713-0.153l-0.616,0.408l-0.254,0.613l-0.717,0.103l-0.715-0.154l-0.459,0.563l-0.204,0.662l-0.718-0.101h-0.715l-0.662,0.307l-1.431-0.46
				h-0.052l-2.148,0.153v0.05l-0.407-1.175l-0.511-0.051l-0.356-0.613l0.304-0.663l-0.663-0.309l-0.564-0.459l-0.714-0.153l-0.458-0.564l-0.665,0.105l-0.513,0.56l-0.46,0.616v0.715l-0.255,0.665l-0.563,0.408l-0.56,0.409l-0.053,0.103l-10.631-19.268h-0.051
				l-6.286-5.775l-0.41-0.205l-0.307-0.613l0.154-0.716l0.663,0.051l0.664-0.204l0.36-0.666l-0.051-0.716l-0.255-0.663l-0.616,0.46l-0.613,0.355h-0.716l-0.714,0.051l-0.358,0.666l-0.615,0.306l-0.715,0.104l-0.713,0.153l-0.717-0.102l-0.615,0.41L236,308.567
				l-0.305,0.665l-0.511,0.46l-0.563,0.46l-0.666,0.204l-0.716,0.051l-0.458,0.563l-0.461,0.51h-0.714l-0.46,0.561l0.256,0.718h-0.768l-0.462-0.511l-0.715,0.052l-0.664-0.31l-0.664,0.31l-0.665,0.253l-0.459,0.512l-0.665,0.103l-0.407-0.615l-0.102-0.716
				l0.204-0.663l0.46-0.613l0.56-0.408l0.667-0.257l0.051-0.715l-0.154-0.665l-0.664,0.254l-0.36,0.615l-0.715,0.051l-0.662-0.308l-0.514-0.562l-0.61-0.409l-0.717-0.051l-0.664-0.204l-0.665,0.254l0.46,0.562l0.205,0.665l-0.716-0.052l-0.664-0.102l0.052-0.716
				l0.257-0.665l-0.513-0.512l-0.153-0.714l-0.305-0.664l-0.717-0.103v0.715l-0.154,0.666l-0.663-0.206l-0.718,0.104l-0.255,0.663l-0.715,0.104l-0.563-0.41l-0.715,0.154l-0.715,0.203l-0.204-0.663l-0.409-0.667l0.508-0.511l0.36-0.613v-0.714l-0.052-0.715
				l0.358-0.615l-0.614-0.409l-0.512-0.511l-0.205-0.715l0.103-0.716l-0.103-0.666v-0.715l-0.307-0.665l-0.561-0.512l-0.666-0.253l-0.714,0.101l-0.716,0.104l-0.511,0.508l-0.664,0.307l-0.615-0.356l-0.562-0.459l-0.408-0.566l-0.716-0.255l-0.714,0.153
				l-0.664-0.203l-0.717,0.102l-0.46-0.511l-0.716,0.103l-0.408,0.562l-0.717,0.05l-0.611,0.36l-0.408,0.613l-0.666,0.152l-0.768-0.1v0.714l0.054,0.714l-0.411,0.512l-0.666,0.205h-0.767l-0.509,0.459l-2.558,0.664v0.052l-2.81,0.359l-0.563,0.203l-0.664,0.103
				l-2.043,0.563l0.049-0.051h-0.357l-0.615,0.356l-0.664,0.104l-0.664-0.309l-0.717,0.104l-0.61,0.408l-0.308,0.615l-0.102,0.715l-0.41,0.614l-0.664-0.206l-0.716,0.052l-0.664,0.254h-0.662l-0.616,0.41l-0.715,0.102l-0.714,0.257l-0.205,0.664l-0.767,0.051
				l-0.511-0.512l-0.665-0.203l-0.562,0.458l-0.614,0.409l-0.665,0.206l-0.561,0.51h-0.714l-0.715-0.104l-0.667,0.206l-0.513,0.562l-0.406,0.563l-0.409-0.563l-0.714-0.154h-0.718l-0.715,0.051l-0.663,0.206l-0.716-0.052l-0.717,0.103l-0.409-0.613h-0.815
				l-0.309,0.613l-0.714-0.051l-0.716,0.102l0.461,0.563l0.512,0.459l-0.462,0.562l-0.204,0.665v0.717h0.715h0.717l0.612-0.359l0.511,0.513l-0.359,0.612l-0.715,0.255h-0.665l-0.102,0.664l0.358,0.614l0.714,0.154l0.715,0.154l0.716-0.051l0.665,0.153l0.614,0.408
				l0.665,0.308l0.407,0.615l-0.306,0.663l-0.715,0.203l-0.665-0.049l-0.716,0.101L168.895,317l-0.665,0.152l-0.714-0.203l-0.766,0.102l-0.513,0.511l-0.204,0.666l-0.561,0.51l-0.666,0.306l0.359,0.614l0.457,0.563l0.411,0.562l0.41,0.614l-0.103,0.713l-0.307,0.666
				l-0.666,0.306l-0.61,0.41l-0.667,0.204l-0.713,0.256l-0.459,0.51l-0.614,0.409l-0.664,0.206l-0.051,0.715l0.714,0.151l0.664,0.155l0.41,0.616l-0.052,0.714l0.613,0.307l0.715,0.153l0.768,0.102l0.409,0.563l0.459,0.511l0.715,0.152h0.716l0.665,0.257l0.716,0.153
				l0.462,0.562l-0.309,0.615v0.051l-1.023,3.27l-0.051,0.051l-1.327,0.46l-0.615,0.41l-0.664,0.204l-0.714,0.051l-0.716,0.05l-0.767-0.101l-0.513-0.459l-0.408-0.616l-0.61-0.305l-0.411,0.612l-0.357,0.613l-0.257,0.667l-0.614,0.406l-0.713,0.052l-0.716,0.103
				l-0.307-0.973h0.053l-0.616-0.204l-0.715-0.051l-0.715,0.154h-0.712l-0.411-0.614l-0.563-0.46l-0.102-0.715v-0.714l-0.411-0.563l-0.711-0.154l-0.666-0.358l-0.613,0.358l-0.718-0.051l-0.715,0.051l-0.255,0.665l-0.662,0.306l-0.665,0.409l-0.512-0.46
				l-0.459-0.561l-0.614-0.359l-0.613,0.359l-0.715-0.154l-0.664,0.05l-0.105,0.665l-0.662-0.203l-0.716,0.101l-0.511,0.512l-0.612,0.256v0.715l-0.563,0.461l-0.563,0.355l-0.561,0.461l-0.715,0.155l-0.666-0.36l-0.615-0.307l-0.714-0.255l-0.664-0.254l-0.564-0.462
				l-0.202-0.665l-0.561-0.459l-0.257-0.665l-0.664,0.103l-0.458,0.562l0.407,0.562l-0.102,0.716l0.153,0.716l-0.052,0.715l-0.665,0.205l-0.408-0.613l-0.051-0.714l0.051-0.667l-0.461-0.562l-0.459-0.512l-0.306-0.663l-0.409-0.563l-0.613-0.409l-0.615-0.307
				l-0.611-0.409l-0.208-0.665l-0.304-0.614l-0.511-0.511l-0.664-0.408l-0.663-0.051l-0.717,0.152l-0.664,0.206l-0.666-0.257h-0.715l-0.665,0.257l-0.458-0.562l-0.208-0.666l-0.306-0.663l-0.715-0.052l-0.663,0.307l-0.666-0.051l-0.408,0.562l-0.256,0.766
				l-0.355,0.613l-0.462-0.562l-0.663,0.153l-0.717,0.154l-0.305-0.665l-0.154-0.663l-0.714-0.051h-0.716l-1.331,0.408l-0.611,0.459l-0.154,0.665l-0.411,0.564l-0.612,0.408l-0.459,0.563l-0.666,0.205l-0.612,0.358l-0.46,0.561l-0.665,0.205l-0.715-0.052
				l-0.716,0.154l0.053,0.715l-0.053,0.716l-0.409,0.562l-0.612,0.307l-0.615,0.408l-0.56,0.512l-0.612,0.358l-0.667,0.257l-0.714-0.155l0.664,1.279l0.153,0.766l0.153,0.664l0.052,0.716l0.306,0.611l0.204,0.717l-2.299,1.585h-0.052l-0.663-0.206l-0.36-0.611
				l-0.255-0.665l-0.306-0.665l-0.256-0.663l-0.41-0.613l-0.561-0.461l-0.51-0.459l-0.256-0.665l-0.612-0.408l-0.463,0.563l-0.254,0.664l-0.049,0.714l-0.256,0.666l0.154,0.715l-0.409,0.613l-0.563,0.409l-0.664,0.256v0.051l-0.868,3.987l0.51,0.458l0.462,0.459
				l0.255,0.666l-0.411,0.615l-0.612,0.408l-0.615,0.305l-0.956,3.788l2.415,0.822l0.009,0.052l0.12,0.04l0.101,0.665l0.36,0.613l-0.36,0.612l0.36,0.612l0.049,0.716l1,0.955l0.051-0.792l1.225,0.308l0.768-0.104l0.665-0.101l0.715,0.05l0.103,0.093h0.023
				l0.513,0.461l0.357,0.612l0.205,0.718l0.356,0.489l0.643,0.182l0.023,0.066l0.101,0.029l1.892,4.955l-1.023,0.307l-0.817-0.512l-0.663,0.205l0.1,0.716l-0.459,0.514l0.37,0.55l0.579,0.224h0.767l0.665,0.255l0.06,0.071l0.064,0.023l0.413,0.458l0.791,0.42
				l-0.411-1.738l2.811-1.178l3.219-0.561l3.629-2.966l2.454,0.616h3.22h2.403l2.81,2.35l2.453,2.915l0.819,3.472l0.356,2.862l1.636,1.74h-2.812l-2.811,0.563l-2.862-1.688l-3.629,0.563l-2.812,2.245l1.229,3.427L118.068,379h-3.218l-0.411,1.688l2.864,1.124
				l2.294,3.773l2.689,0.335l0.603,1.501l-0.603,1.654l-0.15,1.651l0.757,1.236l0.86-0.688l1.652-1.639l1.107-0.557l0.666-0.205l0.665-0.259l0.714-0.152l0.768-0.257l0.662-0.149l0.717-0.154l0.664,0.05l0.665,0.309l0.561,0.456l0.666,0.362l0.665,0.253l0.458,0.611
				l0.307,0.668l0.256,0.663l0.511,0.559l0.358,0.618l0.255,0.665l0.255,0.664l0.255,0.66l0.612,0.361l0.308,0.204l1.635,0.103l0.588-0.563l2.981,0.417l-0.001-0.057l-2.979-0.417v0.024l-0.207-21.967l11.49-3.271l1.928-2.718l0.409-2.913l1.634-0.563h2.404
				l1.227-2.911l1.584,1.175v-2.303l3.218-1.175l1.228,1.175l3.221-1.787l-1.636,2.351l-1.584,2.915v1.735l2.403,2.864l1.635,2.25l-1.635,1.734l-1.997,0.562v3.375l-1.146,1.357l0.143,0.139l0.533,0.448l0.423,0.527l1.01,0.922l0.96,0.952l2.541,2.219l6.437-0.991
				l6.815,0.087l1.287-0.474l0.449,0.497l1.191,0.77l0.656,0.296l1.104,0.819l0.365,0.562l0.265,0.605l0.926,1.459l1.227-0.05l0.086,3.407l-0.723,0.107l-0.088,0.639v0.667l0.057,0.642l0.117,0.428l2.995,0.485l0.856,3.757l5.086-0.51l1.289,0.646l0.743,0.163
				l1.346,0.562l0.72,0.115l0.656-0.295l0.571-0.403l0.24-0.615l0.363-0.561l0.63-0.407l0.684-0.239l0.422-0.536l1.313-0.641l0.665-0.269l0.718-0.18l0.659-0.32l0.531-0.457l0.572-1.203l0.689,0.19l0.692-0.19l0.926-0.985l0.335-0.589l0.028,0.008l-0.013-0.025
				l0.235-0.613l0.422-0.527l-0.088-0.638l0.21-0.614l0.69-0.241l0.718-0.156l0.716-0.079l0.688,0.245l0.719-0.106l0.717,0.053l0.683,0.183l0.75,0.009l0.717,0.102l0.63,0.345l1.374,0.434l0.63,0.32l0.685,0.235l1.407,0.325l0.33-0.585l0.24-1.281l0.388-0.549
				l0.097-0.638l0.536-0.429l0.596-0.371l0.664-0.269l0.716-0.051l0.633-0.308l1.25,0.659l0.656,0.286l0.569,0.434l1.438-0.105l0.716,0.105l0.595,0.374l0.719,0.135h1.493l0.725-0.103l0.717-0.19l0.777-0.029l2.149,0.306l0.719,0.024l0.63-0.32l0.692-0.239
				l0.719,0.031l1.311,0.557l0.719-0.028l2.152,0.27l0.75,0.01l1.466-0.11l0.718,0.084l0.622,0.319l0.726-0.026l0.684,0.181l1.433,0.137l1.373,1.497l1.443,0.189l0.621,0.348l0.537,0.42l0.63,0.319l0.622-0.021l0.046-0.08l0.303-1.933l1.968-3.439l-0.334-2.279
				l-1.039-2.129l-1.469-5.328l1.911-1.774l3.609-0.81l5.02-0.189l0.222-4.519l1.693-4.023l1.695-3.672l2.133,0.044l2.515,1.034l3.111-0.283l1.701,1.27l1.313-0.89l2.07-0.614l0.494-6.512l0.986-1.634l1.416,0.097l3.281-1.669l0.288-0.751l-0.035-0.01z"/>
			<text transform="matrix(1 0 0 1 184.4009 352.3521)"><tspan x="0" y="0" style="fill-rule:evenodd;clip-rule:evenodd;fill:#000000;stroke:none;">Kazakhstan</tspan></text>
		</g>
		<g>
			<path d="M795.724,187.926l0.498-1.237l-6.196-7.684l-7.185-0.497l-0.747,1.984l-0.487-1.488l0.984-1.241l-2.48-1.236l-0.495,1.485l-3.217-0.494l1.979,0.99l-0.245,4.212l1.979,1.242l-1.235,2.478l0.246-2.232l-3.72-2.971l-1.487-7.687l0.744-0.494l-2.729-3.719
				l-2.477-0.495l2.477,3.964l-5.2-3.469l1.73-1.735l-4.457-1.239l0.737-0.992l-0.241-1.24l-2.237-1.485l-3.218-0.495l-0.745-2.48l-2.722-0.992l-0.749-2.974l-3.718-1.736l-1.731-0.745l-7.689-6.69l-11.152-6.199l-14.129,0.25l-11.644-3.222l-1.986,0.743v3.965
				l-1.733,1.735l2.482,0.496l2.224,6.445l-5.696,4.708l-7.684-6.195l-0.749-4.958l-1.73-2.728l-4.711,3.967l-8.921-1.239l-4.713-2.975l-7.932,0.991l-5.7,4.462v-2.23l-7.68-3.717l1.728-5.95l-0.242-2.727l-5.454-7.684l-20.324-0.494l-10.409,2.724l-3.72-2.476
				l2.724-3.221l-3.719-3.968l-4.212,0.495l-2.483-3.222l-5.939-0.994l2.223-3.467l2.729,0.744l-1.238-4.71l-1.491-1.238l-40.895-9.916l-1.239,1.489l1.487,2.974l-6.939,8.429l0.742,2.973l-0.992,1.733l1.489,4.461l-2.725-0.99l-7.192,5.701l-11.647-7.435
				l-2.724,0.247l-0.999,4.213l-5.7-1.238l-4.459-8.676l-3.221,6.938l-0.249,5.457l-3.468,7.185l-1.74-3.468l-4.955-1.737l-4.211-9.417l-1.238,0.496l-0.499-4.214l3.969-4.215l-0.497-0.496l0.742-2.974l-1.734-3.467l1.239-6.445l-6.446-7.932l-5.697-1.489
				l-1.739,2.23l-13.629-7.436l-0.498,2.479l-1.981-0.742l-0.996,5.203l1.491,5.208l-1.237,1.486l-10.415,1.984l-12.391-3.967l-0.498-4.461l2.229-0.993l-15.863-3.718l-10.405,3.472l3.716,3.223l-4.211,1.731l-1.491-0.248l1.986-1.484l-1.489-0.498l0.494-4.958
				l-2.723-6.693l0.247,3.967l-1.738,1.737l-5.7-1.984l-0.492-2.479l0.988-1.24l-2.974,2.233l-3.718-2.233l-2.724,3.72l0.984,3.473l4.219-3.226l1.732,2.23l-5.951,3.967l-2.974-1.984l1.488,2.23l-0.994,0.992l-7.93,3.719l-5.697-0.497l-0.247,0.992v2.48l1.981,1.732
				l-3.468-1.732l-2.731,1.732l8.18-12.636l4.956,0.244l11.153-16.11l6.693-2.975v-2.479l2.98-0.744l-0.995-0.989l4.461-2.727l2.973-4.958l-0.743-3.225l0.743-1.237l-3.962-1.238l-2.233-4.71l4.714,4.71l1.98-4.213l-0.244-2.48h-1.241l-1.986-6.197l-1.484,2.979
				l-1.489-2.731l0.99-1.981l-8.177-8.428l-14.133-0.746l-3.959,6.197h-5.949l4.952-6.197l0.997-3.222l-0.502-1.735l-7.679-0.988l0.247-2.479l-6.942,4.213l8.431-8.428l-1.488-4.708l-7.934-3.72l-5.454,1.984l-8.179,11.897l-2.233,5.701l2.481,3.717l-1.237-0.493
				v2.478l-11.157,1.734l4.712,4.709l-0.747,4.463l-1.979-1.986l-2.978-2.972l-4.957,3.72l0.743,2.229l-6.194,2.229l0.498-2.229l-1.24-0.499l-3.221,2.729l1.732-4.709l-1.487-0.992l-14.13,1.983v1.982l2.976-0.248l-0.497,2.232l-20.323,7.188l-5.952,7.189h-5.2
				l3.715,1.734l-2.73,1.238l-1.734,5.454l-4.211-3.223l-0.988,2.978l4.458,2.231l-3.72,3.468l3.97,1.984l1.24,3.468l-1.491,0.499l0.25,2.478l-27.518,4.96l-2.23,0.987l1.246,1.489l-2.482,2.479l1.236,0.743l-1.236,1.734l3.467,4.463l-0.984,3.219l0.737,4.215
				l6.698,3.471l0.24,1.238l-0.492,1.486l5.95,3.473l0.744,3.717l-1.734,5.455l1.982,8.921v4.213l-2.729,1.24l0.25,2.976l-4.464-2.976l0.492-6.444l-0.492-6.938l3.719-2.977l1.241-4.46l-8.681-0.992l-3.462-4.956l-7.439-4.958l-8.927,2.972l-0.246,1.735l3.223,1.24
				l-4.211,3.966l-1.989,0.497l-1.981-3.964l-1.983,0.99l1.491,4.955l5.946,4.462l1.982-1.488l2.482,6.444l-14.878-5.948l-0.992-1.238l1.489-0.498v-2.477l-1.489-5.948l1.983-4.214l-0.742-3.963l0.742-0.5l-2.723-5.205l-1.489,0.499l1.239,9.17l-7.929,6.694
				l-1.736,4.706l6.195,12.891l-3.47,11.896l1.736,5.455l-0.743,3.72l6.444,1.98l4.71-2.229l7.685,4.956l2.474,7.686l-2.724,1.984l-0.248,4.709l6.446,2.476l-5.454,0.495l-2.477-2.479l0.988-5.947l-0.988-1.238l0.49-2.728l-2.722-2.973l-0.993-3.472l-9.916,2.975
				l-1.241,4.709l2.232,5.207l-0.248,3.962l-3.717,4.465l-2.23,5.948l-5.455,3.471l-0.495,3.964l-0.99,0.249l-9.423-1.489l-0.493-4.211l-0.99-0.991l3.218,0.742l7.191-2.976l-2.725-2.724l3.715,0.497l2.483-5.456l1.979-1.735v-5.451l1.735-3.721v-2.478l-4.704-5.7
				l0.989-11.402l-1.243-6.197l1.489-1.981l0.249-6.694l-0.996-4.956l-3.963-4.712l4.464-11.154l-0.501-8.178l-15.618-3.47l-2.226,5.455l-2.476,12.888l-7.688,7.931l-0.742,3.468h1.983l-2.482,3.717l4.218,1.488l-1.24,5.949l0.743,2.976l-1.981,0.743l-0.25,5.948
				l6.199,1.487l-0.253,1.734l1.982,5.207l2.978,1.981l-3.964,8.676l-5.95-8.178l-14.379-9.914l-14.373-4.215l-4.216,3.222l3.222,6.693l-0.745,3.222l-4.707,2.727l0.496,2.975l-1.986,1.981l-1.983-1.734l1.489-3.469l-2.974-4.214l-7.437,6.691l-9.171-0.496
				l-3.714,5.455l-3.472-2.233l-0.498-3.472l0.993-2.724l-1.735-0.743l3.714-1.736l-5.45,1.239l-0.742,1.487l0.246,1.735l-0.991,0.496l-1.492-1.982l-1.729,2.228l0.991,0.746l-0.991,2.48l-1.493-2.233l-2.225,0.497l-17.6,11.648l-1.734,4.959v2.478l-5.207,4.212
				l-0.499-2.724l-2.724,0.247l-4.708-7.437l1.735-3.469l6.196-1.487l-1.24-4.71l-2.974-3.717l-12.141-2.729l4.21,4.71l-0.245,7.437l-1.243,5.453l3.472,4.46l-2.229,8.184l0.245,4.956l-1.735-2.975l-1.733,0.992l0.743-2.48l-6.197-3.224l-4.216,5.704l-7.681,5.204
				l0.246,3.471l4.71,9.913l-11.648-3.718l-1.738,1.987l-0.495-1.737l1.489-0.743l-6.94-3.966l-1.986,3.221l0.745,2.23l3.222,3.964l2.728-0.989l1.734,6.195l-3.469,1.24l-6.448-2.728l-2.975-3.718l-4.706-0.989l1.241-1.98l-0.251-2.977l-2.479-5.205l1.737-1.242
				l0.495-5.451l-13.88-14.375l2.233-0.991l5.203,4.955l4.462,0.248l0.249,2.231l21.561,5.453l5.703-2.477l5.699-5.95l0.995-4.461l-1.49-0.992l-0.494-5.206l-5.207-5.95l-7.186-2.478l-12.644-12.146l-12.142-0.495l-0.992-2.48l-1.488,1.242l0.25-1.488l-4.712-1.984
				l0.746-2.479l3.715,2.231l0.992-2.231l-5.949-2.725l0.246,2.229l-0.743-0.247l-0.742,1.983l-3.719-1.736v2.728l-2.976-0.992l-0.744,2.974l-4.953,4.959l-2.48,2.478l0.745,0.495l-0.745,5.949l3.964,3.721l3.222,6.688l-3.966,8.18l4.463,13.881l-1.737,5.951v5.205
				l1.487,0.249l0.25,3.47l2.231,2.725l-1.49,6.196l2.479,3.472l2.976,3.715v3.719l-7.436,11.154L4.784,248.903l4.712-0.989v2.724l-0.992-0.993l0.743,2.23l6.195,1.489l2.231,2.23l-5.697-0.247l-3.969,2.974l0.25,2.727l-1.985,3.222l-3.966,1.237l1.241,4.959
				l0.744,0.249l0.492,1.983l0.997,0.991l0.245,1.49l-1.733,1.979l0.249,0.744l1.733,2.231l-0.493,3.47l1.204,1.605l0.255,0.205l-0.051,0.715l0.409,0.563l0.357,0.664l0.41,0.614l0.153,0.766l0.357,0.613v0.716v0.716l-0.052,0.716l0.206,0.664l0.664-0.154
				l0.716-0.102l0.663,0.306l0.41,0.615l0.663-0.052l0.715-0.152l0.716,0.152l0.717,0.511l0.355,0.255l-0.202,1.74l0.715-0.309l0.561-0.357l0.715-0.102l0.512-0.46L17.666,294l0.715-0.05l0.666,0.103l0.612,0.357l0.512,0.512l0.459,0.563l0.409,0.613l0.664,0.103
				l0.104,1.021l-0.257,0.666l0.051,0.715l0.409,0.562l0.255,0.665l-0.102,0.716l-0.205,0.666l-0.56,0.407l-0.205,0.715l0.205,0.664l0.511,0.51l0.512,0.463l0.203,0.715l0.206,0.664l0.355,0.614l0.308,0.664l0.308,0.664l0.409,0.563l0.612,0.459l0.667,0.309
				l0.408,0.562l0.103,0.665l-0.05,0.715l0.304,0.664l0.665-0.051l0.714-0.153l0.717-0.102l0.561,0.461l0.665,0.202l-0.256,0.667l0.461,0.562l0.716,0.104h0.1l0.102,1.225l-0.612,0.408l-0.407,0.613l-0.513,0.41l-0.561,0.51l-0.614,0.358l-0.766-0.101l-0.665-0.103
				l-0.561-0.461l-0.511-0.41l-0.717-0.1l-0.665,0.306l-0.1,0.716l-0.615,0.304v0.666l0.51,0.511l0.563,0.461l0.207,0.665l-0.257,0.664l0.458,0.511l-0.101,0.716l0.615,0.358l0.256,0.665l-0.054,0.664l0.104,0.715l0.204,0.665l0.103,0.563l0.509,0.459l0.665,0.206
				l0.667-0.306l0.458-0.563l0.152-0.715l0.614-0.41l0.716,0.103l0.766,0.205h0.767l0.613-0.308l0.767-0.152l0.714,0.152l0.717,0.052l0.665-0.205l0.713-0.104l0.563,0.409l0.563,0.461l0.359,0.665v0.715l0.509,0.51l0.563,0.461l0.46,0.614v0.766l-0.714,0.409
				l-0.715,0.051l0.305,0.612l0.05,0.716l0.103,0.716l0.257,0.666l0.562,0.409l0.714,0.306l0.667,0.154l0.765,0.204l0.615-0.309l0.714,0.053l0.308,0.614l0.46,0.512l0.406,0.613v0.101l0.664,2.25l-0.202,0.716l0.202,0.665l0.615,0.459l0.613,0.409l0.613-0.357
				l0.715-0.104l0.714,0.154l0.513,0.461l0.512,0.458l0.716-0.203l0.612,0.306l0.767-0.152l0.716-0.255l0.716-0.206l0.664-0.306l0.612-0.358l0.664,0.205l0.461,0.61l0.255,0.667l0.716,1.276l0.51,0.512l0.46,0.512h0.718l0.253-0.716l0.717,0.052l0.458,0.613
				l0.716,0.051l0.666,0.357l0.511,0.512h0.715l0.715-0.103l1.125,0.816l0.715-0.052l0.563,0.461l0.512,0.512l0.767,0.104l0.715-0.052l0.561,0.408l-0.612,0.359l0.205,0.715l0.256,0.662l0.204,0.717l-0.308,0.662l-0.409,0.616l-0.713,0.102l-0.666,0.205l0.407,0.562
				l0.716,0.153l0.409,0.615l-0.666,0.203l-0.717,0.151l-0.306,0.668l-0.1,0.661l0.458,0.564l0.257,0.662l-0.155,0.717l0.614,0.358l-0.152,0.665l-0.155,0.765l-0.205,0.664l-0.204,0.717l-0.153,0.662l-0.714,0.259l-0.666-0.205l-0.717-0.104l-0.664,0.153
				l-0.611-0.408l-0.665-0.307l-0.511,0.461l-0.409,0.612l-0.409,0.613l-0.663,0.204l-0.716,0.309l-0.308,0.664l-0.306,0.613l0.103,0.766l-0.103,0.92l0.817-0.103l2.81-0.611l1.634,1.172l-2.808,0.615l-2.863,2.353h-2.401l1.227,1.736l1.585,1.176l-2.401,2.862
				l-1.996,3.477l-2.553-0.462l0.458,1.125l-1.175,1.022h1.636l1.225,2.298l1.995,1.126l1.634,1.126l2.402,0.558l2.402,1.687l2.454,2.762l0.816,0.921l0.358-0.307l0.718-0.154l0.665-0.308l0.712-0.1l0.664,0.255l0.717-0.101l0.714,0.203l0.666,0.254l0.511,0.463
				l0.664,0.202l0.717,0.102l0.664,0.206l0.663,0.306l0.665,0.307l0.769,0.101l0.767-0.047l0.664-0.054l0.713-0.102l0.718,0.155l0.665,0.253l0.766-0.051l0.715,0.104l0.563,0.409l0.307,0.407l3.424,2.044v-0.049l0.204,0.661l0.665,0.36l0.664-0.205l0.614-0.409
				l0.664-0.203l0.664-0.309l0.666-0.101l0.563,0.458l0.715-0.104l0.714,0.104l0.666,0.054l0.411,0.663l0.665,0.254h0.713l0.665,0.309l0.204,0.664l-0.101,0.716l-0.205,0.665l0.561,0.406l0.564,0.411l1.377,0.46l0.513,0.461l0.408,0.306l0.768,0.41h0.716l0.97,0.969
				l0.408,0.613l0.716,0.052l0.205,0.714l0.154,0.667l0.307,0.661l0.716-0.049l1.38,0.308l0.714-0.155l0.512-0.512l0.254-0.663l0.307-0.666l0.564-0.41l0.663-0.257l0.306-0.714l0.307-0.611l0.306-0.458l-0.51-0.513l-1.994-2.707l-2.043-3.273v-2.76v-2.245
				l-1.584-3.326l-2.045-1.121v-2.252l1.637-2.861l1.582-3.423l1.227-2.864l3.222,1.128l1.225-2.302l2.403-0.614l-0.869-0.457l-0.46-0.514l-0.666-0.256h-0.765l-0.665-0.256l-0.409-0.611l0.459-0.514l-0.1-0.716l0.663-0.205l0.817,0.512l1.023-0.307l-1.892-4.955
				l-0.713-0.205l-0.41-0.562l-0.205-0.718l-0.357-0.612l-0.513-0.461l-0.715-0.05l-0.664,0.103l-0.766,0.101l-1.227-0.305l-0.054,0.816l-1.123-1.074l-0.049-0.716l-0.36-0.612l0.36-0.612l-0.36-0.613l-0.101-0.665l-2.557-0.867l0.969-3.835l0.615-0.305l0.612-0.408
				l0.411-0.615l-0.255-0.666l-0.462-0.459l-0.51-0.458l0.868-3.987v-0.051l0.664-0.256l0.563-0.409l0.409-0.613l-0.154-0.715l0.256-0.666l0.049-0.714l0.254-0.664l0.463-0.563l0.612,0.408l0.256,0.665l0.51,0.459l0.561,0.461l0.41,0.613l0.256,0.663l0.306,0.665
				l0.255,0.665l0.36,0.611l0.663,0.206h0.052l2.299-1.585l-0.204-0.717l-0.306-0.611l-0.052-0.716l-0.153-0.664l-0.153-0.766l-0.664-1.279l0.714,0.155l0.667-0.257l0.612-0.358l0.56-0.512l0.615-0.408l0.612-0.307l0.409-0.562l0.053-0.716l-0.053-0.715l0.716-0.154
				l0.715,0.052l0.665-0.205l0.46-0.561l0.612-0.358l0.666-0.205l0.459-0.563l0.612-0.408l0.411-0.564l0.154-0.665l0.611-0.459l1.331-0.408h0.716l0.714,0.051l0.154,0.663l0.305,0.665l0.717-0.154l0.663-0.153l0.462,0.562l0.355-0.613l0.256-0.766l0.408-0.562
				l0.666,0.051l0.663-0.307l0.715,0.052l0.306,0.663l0.208,0.666l0.458,0.562l0.665-0.257h0.715l0.666,0.257l0.664-0.206l0.717-0.152l0.663,0.051l0.664,0.408l0.511,0.511l0.304,0.614l0.208,0.665l0.611,0.409l0.615,0.307l0.613,0.409l0.409,0.563l0.306,0.663
				l0.459,0.512l0.461,0.562l-0.051,0.667l0.051,0.714l0.408,0.613l0.665-0.205l0.052-0.715l-0.153-0.716l0.102-0.716l-0.407-0.562l0.458-0.562l0.664-0.103l0.257,0.665l0.561,0.459l0.202,0.665l0.564,0.462l0.664,0.254l0.714,0.255l0.615,0.307l0.666,0.36
				l0.715-0.155l0.561-0.461l0.563-0.355l0.563-0.461v-0.715l0.612-0.256l0.511-0.512l0.716-0.101l0.662,0.203l0.105-0.665l0.664-0.05l0.715,0.154l0.613-0.359l0.614,0.359l0.459,0.561l0.512,0.46l0.665-0.409l0.662-0.306l0.255-0.665l0.715-0.051l0.718,0.051
				l0.613-0.358l0.666,0.358l0.711,0.154l0.411,0.563v0.714l0.102,0.715l0.563,0.46l0.411,0.614h0.712l0.715-0.154l0.715,0.051l0.616,0.204h-0.053l0.307,0.973l0.716-0.103l0.713-0.052l0.614-0.406l0.257-0.667l0.357-0.613l0.411-0.612l0.61,0.305l0.408,0.616
				l0.513,0.459l0.767,0.101l0.716-0.05l0.714-0.051l0.664-0.204l0.615-0.41l1.327-0.46l0.051-0.051l1.023-3.27V330.8l0.309-0.615l-0.462-0.562l-0.716-0.153l-0.665-0.257h-0.716l-0.715-0.152l-0.459-0.511l-0.409-0.563l-0.768-0.102l-0.715-0.153l-0.613-0.307
				l0.052-0.714l-0.41-0.616l-0.664-0.155l-0.714-0.151l0.051-0.715l0.664-0.206l0.614-0.409l0.459-0.51l0.713-0.256l0.667-0.204l0.61-0.41l0.666-0.306l0.307-0.666l0.103-0.713l-0.41-0.614l-0.411-0.562l-0.457-0.563l-0.359-0.614l0.666-0.306l0.561-0.51
				l0.204-0.666l0.513-0.511l0.766-0.102l0.714,0.203l0.665-0.152l0.716,0.204l0.716-0.101l0.665,0.049l0.715-0.203l0.306-0.663l-0.407-0.615l-0.665-0.308l-0.614-0.408l-0.665-0.153l-0.716,0.051l-0.715-0.154l-0.714-0.154l-0.358-0.614l0.102-0.664h0.665
				l0.715-0.255l0.359-0.612l-0.511-0.513l-0.612,0.359h-0.717h-0.715v-0.717l0.204-0.665l0.462-0.562l-0.512-0.459l-0.461-0.563l0.716-0.102l0.714,0.051l0.309-0.613h0.815l0.409,0.613l0.717-0.103l0.716,0.052l0.663-0.206l0.715-0.051h0.718l0.714,0.154
				l0.409,0.563l0.406-0.563l0.513-0.562l0.667-0.206l0.715,0.104h0.714l0.561-0.51l0.665-0.206l0.614-0.409l0.562-0.458l0.665,0.203l0.511,0.512l0.767-0.051l0.205-0.664l0.714-0.257l0.715-0.102l0.616-0.41h0.662l0.664-0.254l0.716-0.052l0.664,0.206l0.41-0.614
				l0.102-0.715l0.308-0.615l0.61-0.408l0.717-0.104l0.664,0.309l0.664-0.104l0.615-0.356h0.357l-0.049,0.051l2.043-0.563l0.664-0.103l0.563-0.203l2.81-0.359v-0.052l2.558-0.664l0.509-0.459h0.767l0.666-0.205l0.411-0.512l-0.054-0.714v-0.714l0.768,0.1
				l0.666-0.152l0.408-0.613l0.611-0.36l0.717-0.05l0.408-0.562l0.716-0.103l0.46,0.511l0.717-0.102l0.664,0.203l0.714-0.153l0.716,0.255l0.408,0.566l0.562,0.459l0.615,0.356l0.664-0.307l0.511-0.508l0.716-0.104l0.714-0.101l0.666,0.253l0.561,0.512l0.307,0.665
				v0.715l0.103,0.666l-0.103,0.716l0.205,0.715l0.512,0.511l0.614,0.409l-0.358,0.615l0.052,0.715v0.714l-0.36,0.613l-0.508,0.511l0.409,0.667l0.204,0.663l0.715-0.203l0.715-0.154l0.563,0.41l0.715-0.104l0.255-0.663l0.718-0.104l0.663,0.206l0.154-0.666v-0.715
				l0.717,0.103l0.305,0.664l0.153,0.714l0.513,0.512l-0.257,0.665l-0.052,0.716l0.664,0.102l0.716,0.052l-0.205-0.665l-0.46-0.562l0.665-0.254l0.664,0.204l0.717,0.051l0.61,0.409l0.514,0.562l0.662,0.308l0.715-0.051l0.36-0.615l0.664-0.254l0.154,0.665
				l-0.051,0.715l-0.667,0.257l-0.56,0.408l-0.46,0.613l-0.204,0.663l0.102,0.716l0.407,0.615l0.665-0.103l0.459-0.512l0.665-0.253l0.664-0.31l0.664,0.31l0.715-0.052l0.462,0.511h0.768l-0.256-0.718l0.46-0.561h0.714l0.461-0.51l0.458-0.563l0.716-0.051
				l0.666-0.204l0.563-0.46l0.511-0.46l0.305-0.665l0.203-0.663l0.615-0.41l0.717,0.102l0.713-0.153l0.715-0.104l0.615-0.306l0.358-0.666l0.714-0.051h0.716l0.613-0.355l0.616-0.46l0.255,0.663l0.051,0.716l-0.36,0.666l-0.664,0.204l-0.663-0.051l-0.154,0.716
				l0.307,0.613l0.41,0.205l6.286,5.775h0.051l10.631,19.268l0.053-0.103l0.56-0.409l0.563-0.408l0.255-0.665v-0.715l0.46-0.616l0.513-0.56l0.665-0.105l0.458,0.564l0.714,0.153l0.564,0.459l0.663,0.309l-0.304,0.663l0.356,0.613l0.511,0.051l0.407,1.175v-0.05
				l2.148-0.153h0.052l1.431,0.46l0.662-0.307h0.715l0.718,0.101l0.204-0.662l0.459-0.563l0.715,0.154l0.717-0.103l0.254-0.613l0.616-0.408l0.713,0.153l0.667,0.255l0.611,0.357l0.358,0.614l0.612,0.358l0.512,0.513l0.409,0.56l0.717,0.257l0.252,0.663l-0.204,0.715
				l0.101,0.718l0.359,0.613l0.716,0.152l1.277,0.562l0.613,0.358l0.307,0.666l-0.051,0.715l0.613,0.257l0.562,0.508l0.254,0.613l0.258,0.665l0.611,0.358l0.769,0.102l0.664,0.104l0.613,0.355l0.714,0.205l0.716,0.154h0.717l0.255-0.664l0.459-0.512l0.665-0.308
				l0.664-0.204l0.153,0.717l0.358,0.611l0.614,0.409l0.255,0.667l0.356,0.61l0.563,0.408l0.359,0.667l-0.462,0.511l-0.408,0.611l0.613,1.176l0.181,0.058l0.368-0.966l2.16,0.604l1.467-1.207l0.24-0.049l0.591-1.098l1.433-1.532l1.636-0.715l1.585-0.46l1.737-1.128
				l1.737-1.377l1.329-0.718l3.119-2.35l1.685-0.563l1.841-0.461l2.25-1.021l2.044-0.204l1.941,0.307l1.432,0.563l2.758,0.665l1.84-0.156l1.585,0.156l2.741,0.252l2.976,3.223h14.376l0.988-0.494l-0.493-2.976l0.99-1.736l-1.238-5.698l6.693-5.705l13.134,5.208
				l1.243,5.947l3.718,2.729l3.217,0.991l6.941-3.219l2.976,0.739l11.404,5.703l3.714,2.973l6.448,1.239l4.212,0.744l10.163-2.974l7.685-4.957l5.45,2.479l3.474-0.498l0.013,0.006l2.587,0.858l5.09,1.745l0.28-0.262l6.689-3.964l0.497-2.729l2.975-8.43l3.967-3.466
				l-0.248-3.718h-3.474l0.5-1.491l3.967-4.456l13.38-1.987l3.97,2.729l5.946,1.236l3.72,5.208l0.74,4.461l2.978,6.69l1.736,9.419l3.42,1.313l1.92-0.596l1.466,0.553l3.286,0.828l2.891,2.222l2.897,1.252l0.882,2.229v2.557l1.474,2.247l1.631-0.053l1.704,0.422
				l1.582-0.187l2.891-1.125l2.957-1.719l1.694-0.053l3.055-1.44l2.841-0.649l-0.707,2.748l0.277,2.754l-2.3,1.833l-1.853,5.797l-1.099,2.838l-2.239,3.233l-1.527,2.344l-4.974-1.293l-3.01,2.155l-1.475,1.149l1.312,3.317l-0.05,4.673l-1.421,1.984l-1.804,1.36
				l-0.238,1.045l0.091,0.08l0.344,1.123l0.176,0.604h-1.213l-2.503,2.505l-1.126,1.73l-0.136,0.454l0.169-0.035l5.645-1.265l3.604-4.184l0.993,2.225l1.484-1.233v2.973l4.466,0.995l3.719-0.995l4.954-3.964l14.872-18.844l2.482-5.45l3.965-6.196l4.464-4.956
				l1.73-11.651l-0.989-5.206l1.732-5.45l2.977-5.953l-1.489-1.731l0.496-1.737l-0.496-2.477l1.242-2.977l-4.962-3.718l-2.725-4.461l-5.455-0.249v4.216l-1.733,2.228l0.25-2.228l-1.242,0.992l-4.212,0.99l1.733-2.479l-1.488-1.98l1.488-1.739l-2.233,0.994v2.231
				l-1.979,1.485v-7.188l-4.957,0.248l-2.48-1.489l0.244-1.482l11.655-10.661l7.434-9.914l5.7-4.71l2.232-4.462l6.938-7.436l4.464-2.479l11.401-0.742l2.73,2.479l1.978-2.726l5.205,1.981l3.965-1.488l1.243,1.735l1.24-0.247l-0.497-1.734l1.733-0.496l-0.246-1.984
				l0.994-0.496l7.925,2.729l2.484-1.238l3.716,2.726l-4.955,1.981l1.239,1.984l5.702-1.488l1.483,0.991l3.718-2.727l6.193,0.746l1.241-0.497l-0.242-1.489l-4.463-1.238l0.744-1.242l-0.744-2.228h0.991l2.229-4.711l5.452-4.458l6.197-9.422l8.674-2.479l4.216,2.479
				l2.728-2.727l-0.993,3.969l-1.483,2.477l0.489,1.737l-0.74,1.732l2.728-0.246l-1.24,4.213l10.905-10.655l1.981-0.748l1.242,1.736l0.991-1.487l-1.24-1.239l0.249-3.469l2.48-4.215l4.212-1.486l2.729,1.734l-0.25,0.99l-3.719,2.232l-0.744,5.452l-0.995,1.487v2.976
				l-1.232,1.486l0.743,1.982l-8.679,4.462l-0.744,2.479l-6.446,6.444l-10.159,13.632l-4.712,2.728l-2.72-0.247l0.985,2.726l-1.237,3.966l-4.463,3.47l-1.487,10.906l0.253,6.939l5.697,29.991l6.937-7.436l1.739-8.674l5.452-2.232l1.242,0.747l-0.247-7.192
				l4.957-4.708l2.971,0.744l2.477-1.981l-1.98-6.694l1.237-3.718l2.48-2.231l-0.748-1.485l3.229-1.488l-1.24,2.725l1.487,2.233l1.487-2.479l-0.244-3.223l-2.235-0.992l-0.242-3.965l2.478-5.701l-2.73-1.487l-2.23,1.983l-0.995-1.485l0.248-2.978l4.218-7.931h1.239
				l1.735-7.437l2.229-1.239l0.992,1.239l1.733-1.983l2.235,2.233l1.241-3.719l4.206-2.973l0.747,0.743l-0.25,5.949l3.716-5.949l5.702-2.232l5.949,1.489l4.71,5.45l0.993-4.956l7.683-4.709l-0.248-1.735l1.736,0.495l-0.248-1.485l3.966-2.232l1.485-3.22l1.987,0.742
				l5.448-3.22l0.501-1.985l10.16-3.966l-0.99-3.718l2.229,3.222l0.989-0.99l6.699,3.471l2.476-4.217l-2.476-3.219l1.978-0.251l-2.727-4.708l-0.744-5.205l-1.985-0.498l1.242-0.741l-1.242-2.978l-0.738,1.241l-2.977-1.733l-0.495-3.968h3.967l1.485,1.982
				l6.194-4.957l0.992-0.99l3.471-5.206l-2.724-4.213l-0.498-2.975l2.979-0.248v-2.231h0.738l1.238,2.231l1.988-2.481v2.975l-2.234,0.25l2.48,6.447l9.667-0.746l2.724,1.735v4.957l2.728,2.974l2.23,0.496l-0.496-0.496l1.736-0.494l-0.494,0.743l2.976,1.487
				l0.743,2.479l1.487-0.743l0.495,1.484l1.236-2.969l-0.247,3.217l1.985,0.747l0.496-1.984l-0.995-0.495l3.721,0.495l-2.971-2.729l1.235-0.988l-1.985-0.25l4.957-3.22l-2.727-2.231h2.23l1.487-2.977l3.715,0.249l-1.235-2.231v-1.982l3.716,2.728l0.247-3.72
				l4.467-2.231l-4.467-1.24z"/>
			<text transform="matrix(1 0 0 1 307.1753 212.3438)"><tspan x="0" y="0" style="fill-rule:evenodd;clip-rule:evenodd;fill:#000000;stroke:none;">Russia</tspan></text>
		</g>
		<g>
			<path d="M37.703,435.229l-0.044,0.418l0.814,0.942l-0.71-0.027l-0.313,0.259l-0.25-0.137l-0.782-0.05l-0.291,0.788l-1.88,0.614l-0.919,0.11l-0.227,0.128v0.499l-0.523,0.017l-0.174-0.458l-0.959,0.052l-1.313-0.348l-0.454-0.21l-0.005-0.499l-0.385-0.252
				l-0.288-0.966l0.198-0.081l0.286,0.234l0.356-0.014l0.959-0.724l0.615-0.014l0.785,0.217l0.179-0.203l0.212-0.687l-0.124-0.417l1.501,0.22l1.571,0.062l0.88-0.13l1.963-0.563l1.646-0.721l1.285-0.377l-1.137,0.702l-1.048,0.554l-1.424,1.061z"/>
			<text transform="matrix(1 0 0 1 12.4946 443.728)"><tspan x="0" y="0" style="fill-rule:evenodd;clip-rule:evenodd;fill:#000000;stroke:none;">Cyprus</tspan></text>
		</g>
		<g>
			<path d="M94.474,464.056l1.432-1.484l0.817-1.738l1.022-1.531l2.504-0.358l3.629,0.765l-0.973,1.842l-2.811,0.922l1.993,0.918l0.818,2.756l0.41,0.974l-1.839,0.054h-1.381l-0.868-1.229l-1.177-0.921l-1.378-0.457l-1.432-0.255l-0.815-0.256h0.049z"/>
			<text transform="matrix(1 0 0 1 99.8486 466.5601)"><tspan x="0" y="0" style="fill-rule:evenodd;clip-rule:evenodd;fill:#000000;stroke:none;">Kuwait</tspan></text>
		</g>
		<g>
			<path d="M62.961,453.808l-0.663-1.356l-0.537-1.514l-0.486-1.703l-0.683-0.877l-1.362,0.685l-1.851,1.023l-1.558,0.872l-1.366,0.831l-1.509,0.926l-1.363,0.73l-1.463,0.341l-1.215-0.683l-1.318-1.12l-1.315-0.293H46.08l-0.098,1.604l-1.364-0.678l-1.023,1.217
				l-0.34,1.608l1.216,0.925l-1.169,1.361l1.073,0.977l1.071,1.118l-0.585,1.754l-0.584,1.606l-0.243,1.612l-0.098,1.506l-0.194,1.558l0.098,0.976v1.121l1.021,0.146l1.362,0.147l1.366,0.196l1.318-0.052l1.021-1.022l0.828-1.361l0.729-1.27l1.414-0.191l1.412-0.193
				l0.974-1.224l0.78-1.313l1.266-0.733l-1.072-1.509l-1.314-1.313l-0.974-0.975l-1.072-1.07l1.365-0.78l1.509-0.342l1.802-0.341l1.804-0.342l1.459-0.34l1.219-0.973l0.906-1.273z"/>
			<text transform="matrix(1 0 0 1 46.231 462.8735)"><tspan x="0" y="0" style="fill-rule:evenodd;clip-rule:evenodd;fill:#000000;stroke:none;">Jordan</tspan></text>
		</g>
		<g>
			<path d="M142.576,485.19l-0.268-0.066l-0.27,0.046l-0.114-0.038l-0.116-0.034l-0.08-0.074l-0.042-0.11l0.146-0.37l-0.041-0.112l-0.076-0.07l-0.044-0.074l0.073-0.227l-0.129-0.515l-0.037-0.037l-0.159-0.145l-0.039-0.073l-0.139,0.524l-0.035,0.184l-0.072,0.151
				l-0.488,0.53l-0.072,0.115l-0.298,0.378l-0.114,0.038l-0.149,0.114l-0.226,0.156l-0.303,0.228l-0.071,0.224l-0.225,0.156l-0.035,0.186l-0.188,0.155l-0.033,0.147l0.001,0.036l-0.154,0.154l-0.031,0.221l-0.111,0.078l-0.109,0.226l-0.34,0.23l-0.111,0.189
				l-0.222,0.265l-0.263,0.227l-0.457,0.272l-0.033,0.072l-0.073,0.189l-0.112,0.153l-0.264,0.154l-0.077,0.073l-0.068,0.338l-0.072,0.189l-0.265,0.154l-0.529,0.234l-0.076,0.072l-0.073,0.152l-0.187,0.116l0.044,0.298l-0.036,0.072l-0.151,0.189l-0.072,0.04
				l0.002,0.11l0.076,0.147l-0.034,0.075l-0.11,0.113l-0.117,0.037l-0.036,0.078l0.04,0.11l-0.036,0.036l-0.189,0.083l-0.268,0.005l-0.193,0.002l-0.037,0.038l0.001,0.041l0.079,0.07l0.001,0.036l-0.039,0.04l0.196,0.104l0.041,0.149l-0.036,0.113l-0.038,0.074
				l-0.379,0.12l-0.113,0.034l-0.151,0.159v0.034l-0.037,0.001l-0.189,0.116l-0.229,0.045l-0.266,0.076l-0.223,0.229l-0.074,0.188l-0.111,0.113l-0.415,0.308l-0.724,0.091l-0.576,0.049l-0.609,0.093l-0.229,0.006l-0.691-0.099l-0.232-0.105l-0.117,0.004
				l-0.303,0.045l-0.152,0.004l-0.772-0.28l-0.69-0.021l-0.804,0.021l-0.458,0.01l-0.116,0.004l-0.3,0.154l-0.379,0.273l-0.11,0.146l-0.112,0.114l-0.188,0.229l-0.115,0.04l-0.229,0.077l-0.381,0.047l-0.307-0.064l-0.689,0.053l-0.46-0.064l-0.612-0.025
				l-0.196-0.141l-0.081-0.113l-0.193-0.105l-0.084-0.368l-0.127-0.479l-0.116-0.038l-0.337,0.197l-0.157-0.11l-0.233-0.104l-0.077-0.035l-0.383,0.044l-0.303,0.121l-0.04-0.072l0.067-0.447l-0.044-0.146l0.073-0.152l0.187-0.229l0.038-0.072l-0.039-0.041
				l-0.041-0.033l-0.23-0.07l-0.04-0.072l-0.043-0.223l0.034-0.114l0.261-0.335l-1.781,0.784l0.412,1.252l3,2.265l1.628,4.046l14.857,1.688l0.859-1.058l0.543-6.104l2.844-1.179l-1.775-3.778l2.864-0.328l-0.04-0.147l-0.082-0.182l-0.084-0.26l0.033-0.223
				l-0.114-1.521l-0.045-0.332l-0.048-0.407l0.032-0.333l-0.119-0.182l-0.162-0.257l-0.001-0.078z"/>
			<text transform="matrix(1 0 0 1 129.1636 497.7993)"><tspan x="0" y="0" style="fill-rule:evenodd;clip-rule:evenodd;fill:#000000;stroke:none;">U. A. E.</tspan></text>
		</g>
		<g>
			<g>
				<path d="M1.172,405.897l2.337-0.498l-1.94,2.039v1.144l1.94-2.039l2.336-1.692l1.59-1.539l3.533-0.496h3.132l1.193-1.441l-2.387-0.647l-2.337-2.088l-0.298-1.641l-2.584,0.098L6.194,396.3l-1.789,0.646l-1.642,0.597l-0.297,0.197l0.893,2.142l-1.092,2.034
					l-1.195,2.537l0.101,1.443z"/>
				<path d="M88.072,409.928l0.512-0.297l-0.23-0.315l-0.349-0.347l-1.494-1.243l-1.688-0.845l-0.994-2.04l-0.746-2.936l-0.776-0.771l-0.143-0.011l-0.665,0.054l-0.919-0.617l-0.971-1.376l-1.527-0.47l-1.164,0.308h-0.675l-0.209,0.058h-1.995l-0.54-0.4
					l-1.803,1.189l-2.785,2.09l-2.734,0.546l-2.734-0.546l-2.737,0.546l-2.783,0.499l-2.339-1.045l-1.938,0.546l-2.385-1.59h-1.939l-1.594-2.586h-3.133l-1.542-2.086l-2.385,0.493h-3.134l-2.733-0.493l-3.134,1.043l-2.337,1.54l-2.386,1.593l-2.338,1.54
					l-2.735-0.497l-3.131,0.497l-3.184-0.497l-1.193,1.391l2.384,1.691l-2.335,0.548l0.399,1.54h-2.736H8.893H6.158l-2.735,0.745l-1.938,2.039l-0.796,2.785l3.928-0.499l-0.794,1.492l0.396,3.532l0.748,1.494l-1.144,0.494l-1.594-1.492l-0.396,1.99l2.386,0.994
					l1.939,0.995l-0.397,1.99l1.989,1.49l-1.592,1.938h2.336h2.388l-0.796,1.494h2.736l3.131,2.384l2.388,0.995l3.53-1.442l0.746-2.435l2.783,0.498l3.531,1.443l1.144,1.936l2.39,0.942l1.937-0.942h1.989l2.337-1.936l1.94-1.941l3.133,1.438h1.589l2.337-1.939
					l0.399,1.443l-1.543,1.939l0.747,1.938l0.197,0.054l1.394,0.101l0.697-1.445l1.391-0.297l-0.645-1.492l0.545-1.739h0.053l0.013-0.04l1.38-0.051l1.277,0.662l1.427,0.051l1.27-0.421l1.244-0.702l0.243-0.043l0.006-0.004l1.534-0.31l1.277,0.718l1.33,0.51
					l1.256,0.222l1.069-0.245l1.39-0.3l1.495-0.548l1.242-0.69l1.489-0.698h0.398l0.197-0.094h1.634l1.536,0.051l1.479-0.051l1.383-0.355l1.277-0.919l1.534,0.919l-1.38,0.869l-0.804,1.321h0.067l0.798-1.321l1.38-0.869l2.096-1.839l1.94,0.664l2.552,0.199
					l0.52-0.067l0.021,0.007l0.772-0.098l0.518-0.612l-0.669-1.584l-0.893-2.438l-0.149-2.886l-0.149-2.335l-0.748-2.139l1.243-0.745l1.614-1.478z"/>
			</g>
			<text transform="matrix(1 0 0 1 22.4263 416.8706)"><tspan x="0" y="0" style="fill-rule:evenodd;clip-rule:evenodd;fill:#000000;stroke:none;">Turkey</tspan></text>
		</g>
		<g>
			<path d="M223.899,397.245l-0.719,0.167l-0.684-0.228l-0.723-0.104l-0.564-0.405l-0.507-0.484l-0.719,0.079l-0.535-0.431l-1.287-0.728l0.026-0.668l-0.44-0.531l-0.632-0.331l-0.509,1.239l-0.57,0.395l-0.269,0.624l-0.717-0.027l-2.039-0.785l-0.35-0.563
				l-0.425-0.537l-0.657,0.296l-0.597-0.379l-0.718-0.244l0.088-0.662l0.69-0.322l0.606-0.403l0.499-0.51l0.604-0.424l0.926-0.986l1.346-0.562l-0.145-0.637l-0.681-0.218l-0.78-0.218l-0.336,0.587l-0.925,0.987l-0.691,0.188l-0.688-0.188l-0.572,1.199l-0.534,0.459
				l-0.659,0.321l-0.717,0.18l-0.664,0.266l-1.315,0.64l-0.419,0.536l-0.686,0.244l-0.63,0.403l-0.36,0.563l-0.244,0.612l-0.571,0.406l-0.656,0.297l-0.717-0.112l-1.347-0.566l-0.743-0.161l-1.288-0.651l-5.086,0.511l-0.856-3.757l-2.998-0.484l-0.11-0.432
				l-0.062-0.638v-0.666l0.088-0.639l0.723-0.105l-0.084-3.411l-1.227,0.053l-0.928-1.46l-0.267-0.603l-0.363-0.565l-1.105-0.819l-0.655-0.296l-1.193-0.769l-0.447-0.501l-1.288,0.479l-6.814-0.091l-6.438,1l-2.542-2.224l-0.957-0.951l-1.01-0.922l-0.423-0.53
				l-0.537-0.445l-0.139-0.141l-1.664,1.964l-3.221,1.124l-0.818-1.124h-3.221h-3.217v-3.885l-0.818-1.686v-3.424l0.065-0.095l-11.49,3.271l0.206,21.968v-0.022l4.786,0.671l0.683-0.372l-0.209-0.61l-0.29-0.595l0.059-0.644l-0.425-1.261l0.366-0.561l0.568-0.396
				l0.361-0.561l0.508-0.512l0.746-0.128l1.434-0.054l0.689-0.241l0.304-0.58l-0.036-0.647l0.631-0.311l1.166,0.77l0.717,0.165l-0.295-0.617l-0.422-0.535l-0.533-0.448l0.627-0.318l0.717,0.054l0.599-0.372l0.092-0.474l1.883,1.547l0.028,0.099l0.63,0.32l0.56,0.396
				l0.509,0.486l0.716,0.242l0.78-0.13l0.724,0.049l0.717,0.181l0.387,0.575l-0.18,0.637l0.054,0.642l0.508,0.458l0.656,0.29l-0.682,0.234l-0.06,0.646l0.147,0.668l-0.277,0.62l0.449,0.508l1.348,0.677l1.528,0.219l0.743-0.055l0.752,0.103l0.682,0.218l0.719,0.084
				l0.689-0.241l0.06-0.647l0.657-0.266l0.63,0.379l1.046,0.882l0.476,0.483l0.242,0.624l0.087,1.317l0.388,0.563l0.63,0.351l0.475,0.488l0.393,1.322l-0.062,0.67l0.56,1.222l0.451,0.543l0.593,0.382l3.233,1.605l0.63,0.403l0.439,0.518l0.543,0.437l0.418,0.543
				l0.509,0.492l0.621,0.383l1.469,0.136l0.692,0.328l0.62,0.381l0.571,0.467l1.167,0.783l2.003,1.919l0.561,0.407l0.716,0.111l0.633-0.328l0.716-0.079l1.375,0.444l0.664,0.267l0.412,0.553l0.66,0.268l0.537,0.438l-0.27,0.632l-0.389,0.579l-0.034,1.368
				l-0.028,0.197l2.758-0.062l1.212,0.689l0.949-0.258l1.253,0.227l0.643-1.374l0.847-1.101l0.275-0.632l0.591-0.357l0.422-0.545l0.243-0.578l-0.122-0.708l-0.658-0.417l-0.421-0.568l-0.366-1.287l0.327-0.604l0.132-0.669l-0.193-0.62l-0.622-0.354l-0.737,0.096
				l-0.717-0.139l-0.283-0.629l-0.654-0.378l-0.524-0.519l0.624-0.381l-0.16-0.663l0.422-0.545l0.669-0.251l0.717-0.14l0.53,0.478l0.719,0.139l0.757,0.02l0.674-0.067l0.692-0.278l0.416-0.589l0.631-1.215l0.045-0.621l0.659-0.331l1.446-0.216l0.51-0.459
				l0.277-0.578l-0.062-0.639l-0.35-0.599l0.571-0.408l0.08-0.647l0.633-0.318l0.581,0.42l0.719-0.026l1.184-0.702l0.691-0.242l0.702-0.347l0.352-0.597l0.504-0.41l0.715,0.053l0.071,0.622l0.452,0.509l0.19,0.689l-0.424,0.564l-0.673,0.264l-0.509,0.46l0.478,1.23
				l0.327,0.594l0.72-0.097l0.666-0.267l0.506,0.152l0.951-0.049l0.718,0.051l0.665,0.278l0.682,0.215l0.753-0.081l0.717-0.161l0.596-0.38l0.3-0.589l0.63-0.352l0.716-0.028l0.485-0.483l0.684,0.217l0.631-0.346l0.325-0.6l0.693-0.24l0.718-0.161l0.448-0.514
				l-0.629-0.318z"/>
			<text transform="matrix(1 0 0 1 159.8438 387.3618)"><tspan x="0" y="0" style="fill-rule:evenodd;clip-rule:evenodd;fill:#000000;stroke:none;">Uzbekistan</tspan></text>
		</g>
		<g>
			<path d="M320.907,501.102l0.085,2.936l-1.033-0.343l-0.521,0.343l-0.171,2.42l-0.26,0.087l-0.605-1.471l-0.688-2.592l-0.432-3.022l-1.557-2.414l-0.606-0.437l-2.071,0.437l-0.691-0.348l-0.521-0.95l-0.432,0.259l-0.258,0.859l-0.691,0.521l0.261,2.073
				l-1.729,2.249l-1.296-1.384l-0.604,1.035l-0.867,0.779l-0.259-0.692l-0.517,0.431l-0.951-0.086l-0.085,0.434l-0.603-0.086l-0.694,0.604l-0.603-0.171l-0.523-1.212l0.088-0.517l-0.432-2.762l-0.691-1.296l0.26-2.421l-0.433-0.432v-1.296l-0.603-0.604l0.345-3.543
				l-1.297-1.211l-1.814-0.776l-0.086-0.604l0.518-1.21l1.208-0.346l0.26-0.604l1.814-0.172l-0.258-1.385l-1.297,0.09l-0.689-0.435l-0.259-1.209l-0.347-0.26l1.295-2.159l0.259-1.037l0.434-0.173l1.38,2.073l0.432-1.729l0.521,0.174l0.171,1.385l0.778,0.775
				l0.431-0.343l0.777,0.518l0.691-1.296l0.951,3.716l0.605,0.773l1.034,0.433l3.889,0.261l1.728-0.346l1.986,0.174l2.162,0.343l1.38,0.52l-0.174,0.436l-0.865,0.426l-0.429,1.212l-1.04,1.293l-3.281,2.164l-0.261,0.686l0.177,1.472l0.603,1.64l0.951,0.176
				l0.43,0.775l0.693,0.603l0.95-2.59l1.036-1.294l0.431,0.087l0.695,1.207l0.948,3.026l0.862,5.354"/>
			<text transform="matrix(1 0 0 1 304.8613 493.1323)"><tspan x="0" y="0" style="fill-rule:evenodd;clip-rule:evenodd;fill:#000000;stroke:none;">Bangladesh</tspan></text>
		</g>
		<g>
			<path d="M258.691,388.554l-0.536-0.424l-0.622-0.346l-1.444-0.19l-1.372-1.494l-1.434-0.137l-0.685-0.184l-0.725,0.026l-0.62-0.32l-0.717-0.086l-1.468,0.112l-0.752-0.01l-2.151-0.266l-0.718,0.024l-1.311-0.552l-0.719-0.036l-0.689,0.245l-0.633,0.318
				l-0.718-0.027l-2.148-0.301l-0.779,0.026l-0.717,0.191l-0.725,0.103h-1.494l-0.719-0.141l-0.594-0.369l-0.716-0.103l-1.437,0.103l-0.57-0.433L230.825,384l-1.253-0.663l-0.632,0.309l-0.717,0.053l-0.664,0.269l-0.597,0.368l-0.535,0.428l-0.095,0.637l-0.39,0.555
				l-0.241,1.277l-0.329,0.587l-1.408-0.326l-0.682-0.233l-0.63-0.32l-1.376-0.436l-0.629-0.343l-0.717-0.104l-0.753-0.011l-0.681-0.179l-0.716-0.053l-0.717,0.103l-0.689-0.244l-0.719,0.082l-0.715,0.155l-0.691,0.241l-0.21,0.612l0.088,0.64l-0.422,0.527
				l-0.234,0.614l0.778,0.216l0.682,0.216l0.146,0.641l-1.347,0.559l-0.924,0.99l-0.604,0.419l-0.502,0.51l-0.602,0.405l-0.694,0.32l-0.083,0.665l0.717,0.244l0.592,0.376l0.658-0.292l0.423,0.533l0.352,0.563l2.041,0.785l0.716,0.03l0.267-0.625l0.57-0.397
				l0.511-1.233l0.632,0.325l0.441,0.536l-0.029,0.666l1.29,0.729l0.535,0.431l0.715-0.08l0.511,0.484l0.563,0.406l0.727,0.103l0.681,0.228l0.719-0.166l0.63,0.317l-0.453,0.51l-0.715,0.167l-0.689,0.238l-0.326,0.603l-0.633,0.342l-0.683-0.214l-0.484,0.48
				l-0.717,0.029l-0.634,0.352l-0.299,0.591l-0.595,0.38l-0.718,0.159l-0.751,0.083l-0.679-0.22l-0.669-0.274l-0.715-0.056l-0.95,0.056l-0.206,0.147l0.191,0.059l-0.33,0.477l-0.846,0.277l-0.39,0.57l-0.689,0.241l-0.656-0.329l-0.623-0.404l-0.718-0.078
				l-0.718,0.131l-0.751,0.027l-0.718-0.135l-0.63,0.349l-0.717,0.192l-0.654,0.267l-0.098,0.646l0.087,1.331l0.2,0.232l0.264,0.265l0.714,0.027l0.693-0.244l1.409,0.33l0.716-0.164l0.718-0.03l0.72-0.159l0.749,0.023l0.716,0.2l0.439,0.512l0.728,0.135l0.683-0.24
				l0.715-0.104l0.666-0.303l0.717-0.165l0.632,0.354l0.741,0.113l0.244,0.622l0.146,0.654l1.469-0.077l0.681,0.219l1.323-0.598l1.433-0.188l1.437,0.213l0.714-0.102l0.71,0.024l0.209-0.603h0.007l0.008-0.021l1.399,0.089l0.352,0.074l0.545-1.986l0.882-1.528
				l3.273-1.579l1.202-1.185l2.246-0.251l1.527,1.184l4.588-0.888l1.374-2.359l5.625-0.879l3.169-2.655l3.229-1.574l3.387-0.963l1.176-2.022l-0.657,0.026l-0.63-0.319z"/>
			<text transform="matrix(1 0 0 1 220.8174 395.938)"><tspan x="0" y="0" style="fill:#000000;stroke:none;">Kyrgyzstan</tspan></text>
		</g>
		<g>
			<path d="M232.683,417.825h1.036l0.311-1.749l-0.932-4.6l-2.298-1.045l-1.799,0.5l-1.475-2.05l0.212-3.332l-0.35-0.07l-1.4-0.088l-0.214,0.625l-0.72-0.028l-0.715,0.104l-1.437-0.214l-1.432,0.189l-1.322,0.599l-0.681-0.221l-1.47,0.08l-0.146-0.656l-0.243-0.626
				l-0.743-0.111l-0.631-0.354l-0.714,0.166l-0.668,0.299l-0.718,0.106l-0.681,0.242l-0.725-0.139l-0.442-0.509l-0.714-0.202l-0.753-0.025l-0.718,0.167l-0.716,0.028l-0.716,0.163l-1.41-0.333l-0.691,0.243l-0.718-0.024l-0.448-0.518l-0.087-1.331l0.098-0.646
				l0.654-0.267l0.717-0.192l0.63-0.349l0.718,0.135l0.751-0.027l0.718-0.131l0.718,0.078l0.623,0.404l0.656,0.329l0.689-0.241l0.39-0.57l0.846-0.277l0.33-0.477l-0.51-0.161l-0.666,0.267l-0.718,0.11l-0.328-0.592l-0.475-1.245l0.509-0.461l0.657-0.265l0.422-0.562
				l-0.146-0.648l-0.451-0.51l-0.086-0.646l-0.714-0.054l-0.547,0.421l-0.351,0.598l-0.633,0.321l-0.691,0.241l-1.225,0.7l-0.717,0.027l-0.569-0.409l-0.631,0.322l-0.122,0.649l-0.57,0.405l0.363,0.568l0.062,0.638l-0.277,0.621l-0.512,0.46l-1.431,0.19l-0.655,0.33
				l-0.063,0.646l-0.629,1.219l-0.388,0.561l-0.695,0.276l-0.715,0.077l-0.717-0.026l-0.717-0.138l-0.543-0.467l-0.719,0.139l-0.681,0.268l-0.426,0.542l0.148,0.651l-0.621,0.378l0.535,0.517l0.655,0.381l0.271,0.63l0.716,0.141l0.752-0.113l0.623,0.354l0.207,0.632
				l-0.147,0.672l-0.328,0.606l0.379,1.278l0.424,0.572l0.656,0.413l0.121,0.654l-0.241,0.634l-0.422,0.542l-0.633,0.358l-0.232,0.63l-0.847,1.094l-0.645,1.388l1.508,1.586l1.296-0.346l0.173-0.346l1.209-0.604l0.864-0.087l0.779-0.435l0.778,0.521l1.295,0.348
				l0.432-0.435l-0.347-1.212l0.868-1.035l0.95,0.175l0.777-0.175l0.776,0.433h0.52l0.776-1.034l-0.518-0.519l0.085-0.435l2.334-3.109l1.209-0.258l0.862,0.175l1.123,1.035v0.517l-0.344,0.604l0.084,0.606l1.384,0.431l-0.69,4.236l0.172,0.774l1.209,1.901
				l0.778-0.087l2.333-1.469l1.899-0.435l1.381-1.294l2.423-1.122l1.379,0.175l0.433,1.208l0.778-0.604l2.334-0.435l1.466,0.177v0.69z"/>
			<text transform="matrix(1 0 0 1 203.6953 412.4302)"><tspan x="0" y="0" style="fill:#000000;stroke:none;">Tajikistan</tspan></text>
		</g>
		<g>
			<path d="M165.152,423.525l0.358,2.555l0.203,1.187l0.074-0.468l0.521,0.175l0.777,0.863l1.036,0.174l1.125-0.174l1.122,0.691l0.517,0.604l2.333-0.085l0.518-0.604l1.209-0.521l0.176-1.034l0.603-0.434l-0.518-0.52v-0.431l0.605,0.087l2.333-0.605l3.885-2.071
				l0.349-2.071l0.774-1.732v-0.431l0.864-1.121h2.765l0.434-0.52l0.087-0.692l0.604-0.347l2.59,1.039l1.189-0.025l0.028-0.002l0.027-0.197l0.037-1.366l0.388-0.579l0.268-0.632l-0.537-0.439l-0.656-0.266l-0.415-0.555l-0.664-0.265l-1.375-0.444l-0.716,0.08
				l-0.634,0.325l-0.715-0.111l-0.561-0.407l-2.002-1.917l-1.168-0.785l-0.569-0.466l-0.623-0.38l-0.69-0.328l-1.471-0.138l-0.621-0.381l-0.509-0.492l-0.415-0.543l-0.544-0.437l-0.439-0.517l-0.63-0.404l-3.233-1.605l-0.596-0.382l-0.45-0.542l-0.559-1.223
				l0.06-0.672l-0.39-1.32l-0.475-0.488l-0.629-0.353l-0.388-0.56l-0.088-1.32l-0.243-0.624l-0.476-0.483l-1.045-0.88l-0.632-0.381l-0.654,0.269l-0.06,0.646l-0.691,0.241l-0.717-0.084l-0.682-0.217l-0.751-0.105l-0.744,0.055l-1.528-0.217l-1.348-0.677l-0.447-0.51
				l0.276-0.62l-0.147-0.665l0.059-0.647l0.684-0.235l-0.657-0.289l-0.508-0.46l-0.054-0.64l0.182-0.639l-0.389-0.573l-0.716-0.18l-0.725-0.05l-0.78,0.13l-0.717-0.244l-0.508-0.483l-0.562-0.396l-0.63-0.321l-0.027-0.101l-1.884-1.547l-0.089,0.476l-0.601,0.37
				l-0.718-0.052l-0.627,0.318l0.532,0.448l0.424,0.536l0.295,0.614l-0.719-0.163l-1.165-0.77l-0.63,0.309l0.034,0.647l-0.304,0.58l-0.689,0.243l-1.433,0.052l-0.748,0.13l-0.508,0.51l-0.362,0.563l-0.568,0.396l-0.366,0.559l0.425,1.263l-0.06,0.644l0.291,0.594
				l0.208,0.611l-0.683,0.37l-4.818-0.677l-0.588,0.563l-1.635-0.103l-0.308-0.204l-0.612-0.361l-0.255-0.66l-0.255-0.664l-0.255-0.665l-0.358-0.618l-0.511-0.559l-0.256-0.663l-0.307-0.668l-0.458-0.611l-0.665-0.253l-0.666-0.362l-0.561-0.456l-0.665-0.309
				l-0.664-0.05l-0.717,0.154l-0.662,0.149l-0.768,0.257l-0.714,0.152l-0.665,0.259l-0.666,0.205l-0.664,0.304l-0.563,0.41l-0.51,0.512l-0.51,0.46l-0.512,0.51l-0.564,0.459l-0.307,0.1l1.639,3.226l-0.409-2.66l1.634-2.146l3.222-0.563l1.176,2.709l2.043,2.146
				l1.993,2.146l-2.811,2.096h-3.22l-2.811-1.072l-1.226,3.222l0.409,2.092h3.627l-0.409,2.607l0.818,2.606l1.994,0.509l-1.176,3.577v2.195l0.561,1.889l3.069,1.591l1.48-1.225l1.587-1.175l1.276-1.229l2.299-0.304l1.943,0.304l2.042-1.379l1.842,0.101l1.226,1.177
				l2.25,1.378l1.889,0.666l2.249,0.871h2.147l1.739,1.531l1.125,1.482l1.429,0.818l1.941,1.686l1.484,0.817h2.197z"/>
			<text transform="matrix(1 0 0 1 133.3882 405.0659)"><tspan x="0" y="0" style="fill-rule:evenodd;clip-rule:evenodd;fill:#000000;stroke:none;">Turkmenistan</tspan></text>
		</g>
		<g>
			<g>
				<path d="M94.022,415.425l-0.946-0.105l-1.42-0.317l-1.838-2.784l-0.998-1.42l-0.79-0.842l0.895-0.526l0.682,0.211l0.42,0.633l0.684,0.313l0.734,0.056l0.633-0.264l0.682,0.264l0.315,0.684l0.473,0.631l0.262,0.681l0.054,0.733l0.053,0.688l0.105,0.736v0.631z"/>
				<path d="M108.126,417.786l-0.408-3.576h2.044l0.411-2.099l0.765-3.116l1.636-2.096l2.4-0.561l-2.81-1.023l-2.402-2.659l-0.818-2.708l-1.636-2.653l-1.482-1.126l-0.306,0.458l-0.307,0.611l-0.306,0.714l-0.663,0.257l-0.564,0.41l-0.307,0.666l-0.254,0.663
					l-0.512,0.512l-0.714,0.155l-1.38-0.308l-0.716,0.049l-0.307-0.661l-0.154-0.667l-0.205-0.714l-0.716-0.052l-0.408-0.613l-0.97-0.969h-0.716l-0.768-0.41l-0.46,0.356l-0.511,0.461l-0.101,0.765l0.458,0.462l0.307,0.667l0.613,0.405l0.513,0.462l0.306,0.661
					l-0.459,0.561l-0.667-0.102l-0.665-0.253l-0.713-0.307l-0.715,0.151l-0.615-0.354l-0.665-0.357l-0.509-0.512l-0.667-0.207l-0.712-0.102l-0.667,0.41l-0.61,0.41L88.655,400l0.204,0.665l0.408,0.562l0.462,0.563l0.716,0.052l0.612,0.407l0.102,0.666l-0.41,0.614
					l-0.048,0.665l0.255,0.659l0.408,0.616l0.511,0.461l0.614,0.409l0.614,0.355l0.102,0.665l-0.307,0.716l-0.716,0.101l0.155,0.667l0.46,0.558l0.459,0.563l0.613,0.36l0.613,0.409l0.714-0.101l0.664,0.202l-0.307,0.662l-0.102,0.717l0.562,0.412l-0.153,0.715
					l-0.664,0.204l0.461,0.56l0.307,0.613l0.103,0.719l0.153,0.204l1.582-0.153l1.534-2.505l1.943-1.633l2.249-0.564l1.533,0.867l0.307,2.198l-1.124,1.586l1.124,1.428l1.378,0.922h1.379z"/>
			</g>
			<text transform="matrix(1 0 0 1 97.0366 413.0552)"><tspan x="0" y="0" style="fill-rule:evenodd;clip-rule:evenodd;fill:#000000;stroke:none;">Azerbaijan</tspan></text>
		</g>
		<g>
			<path d="M73.066,398.362l0.409-2.145l-1.227-2.198l-0.816-2.709l-1.175-1.071l-3.223-1.685l-2.451-1.639l-0.768-0.766l0.358-0.307l0.718-0.154l0.665-0.308l0.712-0.1l0.664,0.255l0.717-0.101l0.714,0.203l0.666,0.254l0.511,0.463l0.664,0.202l0.717,0.102
				l0.664,0.206l0.663,0.306l0.665,0.307l0.769,0.101l0.767-0.047l0.664-0.054l0.713-0.102l0.718,0.155l0.665,0.253l0.766-0.051l0.715,0.104l0.563,0.409l0.307,0.407l3.424,2.044v-0.049l0.204,0.661l0.665,0.36l0.664-0.205l0.614-0.409l0.664-0.203l0.664-0.309
				l0.666-0.101l0.563,0.458l0.715-0.104l0.714,0.104l0.666,0.054l0.411,0.663l0.665,0.254h0.713l0.665,0.309l0.204,0.664l-0.101,0.716l-0.205,0.665l0.561,0.406l0.564,0.411l1.377,0.46l0.513,0.461l0.408,0.306l-0.46,0.356l-0.511,0.461l-0.101,0.765l0.458,0.462
				l0.307,0.667l0.613,0.405l0.513,0.462l0.306,0.661l-0.459,0.561l-0.667-0.102l-0.665-0.253l-0.713-0.307l-0.715,0.151l-0.615-0.354l-0.665-0.357l-0.509-0.512l-0.667-0.207l-0.712-0.102l-0.667,0.41l-0.61,0.41L88.655,400l-0.308,0.155l-0.663,0.254l-0.716,0.206
				l-0.768-0.155l-0.665-0.152l-0.663,0.357h-0.664l-0.716,0.102l-0.613,0.411l-0.716-0.054l-0.665,0.054l-0.919-0.617l-0.971-1.376l-1.84-0.565l-1.735,0.461h-1.995l-0.972-0.718z"/>
			<text transform="matrix(1 0 0 1 74.584 397.2466)"><tspan x="0" y="0" style="fill-rule:evenodd;clip-rule:evenodd;fill:#000000;stroke:none;">Georgia</tspan></text>
		</g>
		<g>
			<g>
				<path d="M88.005,408.969l0.349,0.347l0.23,0.315l0.342-0.201l0.682,0.211l0.42,0.633l0.684,0.313l0.734,0.056l0.633-0.264l0.682,0.264l0.315,0.684l0.473,0.631l0.262,0.681l0.054,0.733l0.053,0.688l0.105,0.736v0.631l-0.158-0.02v0.045l0.183,0.022l0.813,0.099
					h1.309l0.05,0.068l-0.153-0.204l-0.103-0.719l-0.307-0.613l-0.461-0.56l0.664-0.204l0.153-0.715l-0.562-0.412l0.102-0.717l0.307-0.662l-0.664-0.202l-0.714,0.101l-0.613-0.409l-0.613-0.36l-0.459-0.563l-0.46-0.558l-0.155-0.667l0.716-0.101l0.307-0.716
					l-0.102-0.665l-0.614-0.355l-0.614-0.409l-0.511-0.461l-0.408-0.616l-0.255-0.659l0.048-0.665l0.41-0.614l-0.102-0.666l-0.612-0.407l-0.716-0.052l-0.462-0.563l-0.408-0.562L88.655,400l-0.308,0.155l-0.663,0.254l-0.716,0.206l-0.768-0.155l-0.135-0.033h-0.755
					l-0.438,0.238h-0.664l-0.716,0.102l-0.613,0.411l-0.716-0.054l0.143,0.011l0.776,0.771l0.746,2.936l0.994,2.04l1.688,0.845l1.494,1.243z"/>
				<path d="M96.364,415.626l-0.144,0.014l0.144-0.014z"/>
			</g>
			<text transform="matrix(1 0 0 1 88.9312 405.3472)"><tspan x="0" y="0" style="fill-rule:evenodd;clip-rule:evenodd;fill:#000000;stroke:none;">Armenia</tspan></text>
		</g>
		<g>
			<path d="M77.807,424.359l-1.277,0.919l-1.383,0.355l-1.479,0.051l-1.536-0.051h-1.634l-1.533,0.718l-1.279,0.718l-1.533,0.557l-1.429,0.309l-1.332,0.309l-1.429-0.256l-1.33-0.51l-1.277-0.718l-1.534,0.31l-1.277,0.713l-1.378,0.461l-1.536-0.055l-1.277-0.662
				l-1.38,0.051l-0.561,1.79l0.662,1.531l-1.429,0.309l-0.715,1.484l-1.432-0.104l-0.204-0.052l-0.769,1.991v3.937l0.205,1.533h2.351l1.126,1.127l0.611,1.531l-1.174,1.228l-0.921,1.279l-1.226,0.971l-0.511,1.532l-1.175,0.869l-0.204,0.15l-0.048,0.807l0.936-0.931
				l-0.1,1.699l-0.25,1.346l-0.005,0.066h0.131l1.315,0.293l1.318,1.12l1.215,0.683l1.198-0.279l1.138-0.612l1.586-0.97l1.431-0.867l1.637-0.922l1.942-1.071l1.428-0.717l1.228-0.922l1.995-1.227l1.48-0.864l1.224-0.922l2.251-0.973l2.147-1.275l1.377-0.718
				l0.821-2.248l0.408-3.17l0.155-3.423l0.103-2.813l2.708-1.021l1.585-2.605l1.38-0.869l-1.534-0.919z"/>
			<text transform="matrix(1 0 0 1 48.9346 439.6958)"><tspan x="0" y="0" style="fill-rule:evenodd;clip-rule:evenodd;fill:#000000;stroke:none;">Syria</tspan></text>
		</g>
	</g>
</svg>
