<?xml version="1.0" encoding="iso-8859-1"?>
<!DOCTYPE svg >

<svg  width="821.214pt" height="414.676pt" viewBox="0 0 821.214 414.676" xml:space="preserve">
	<g id="Layer_x0020_1" style="fill-rule:nonzero;clip-rule:nonzero;fill:#FFFFFF;stroke:#000000;stroke-linecap:square;stroke-miterlimit:4; font-family:'Arial'; font-size:10;">
		<g>
			<g>
				<path d="M508.091,221.5l0.545-0.821l1.031,0.272l-1.031,0.757l-0.545-0.208"/>
				<path d="M509.597,208.842l-1.235,0.548l-1.57-0.688v-0.546h1.845l1.031,0.546l1.438,0.273l0.552,0.415l-0.278,0.341l-1.781-0.889z"/>
				<path d="M508.091,221.5l0.545-0.821l1.031,0.272l-1.031,0.757l-0.545-0.208"/>
				<path d="M508.498,225.811l-1.433,2.326l-5.273,0.684h-1.566l-0.486-1.024l0.756-1.231l1.576-0.958l1.163-0.07l0.409-0.41l1.708,0.961l1.714-0.961l0.892-1.439l0.819,0.277l-0.547,1.025l0.269,0.821z"/>
				<path d="M496.458,208.156l1.095-1.71l0.277-0.754l-0.555-1.436h-0.747l-1.025,1.297l0.271,0.281h0.684l0.757,0.54l-0.21,0.618l-0.817,1.23l-0.829,0.619l-1.434,0.613l-1.231,1.641l1.231-1.092l1.989-0.347l0.544-1.502z"/>
				<path d="M492.903,204.529l-0.823-0.272l-0.823-1.164l0.548-0.479l2.671,1.507l0.478,0.136l-0.14,0.343l-1.91-0.07z"/>
				<path d="M489.203,186.666l-0.271-1.089l0.271-0.896l0.687,0.482l-0.478,1.233l-0.209,0.27z"/>
				<path d="M484.076,191.254l0.339-0.686l0.819,0.274l-0.547,0.55l-0.611-0.139z"/>
				<path d="M469.357,190.979v-0.272h0.55l2.603,2.529l1.158,0.754"/>
				<path d="M471.825,193.031l1.843,0.96l-1.843-0.96l-2.468-2.051"/>
				<path d="M468.199,174.693l-0.14-1.577l0.544-2.119l-3.215-3.285l-3.69-1.298l-1.165-1.303l-0.14,0.071v0.208l-0.063,0.887l1.368,0.618l1.364,0.544l2.193,0.687l2.943,2.738l-0.484,2.12l-0.476,0.342l0.271,1.093l-0.549,0.549l-0.542,0.548l0.955,0.613
					l0.824-1.436z"/>
				<path d="M450.815,146.706l4.586,3.833l1.098,0.612l0.613,3.012l-1.848,0.963l-0.685,5.059l-0.617-0.274l-0.207-0.822l-1.234-0.542l1.854-1.991l-0.413-1.841l0.27-1.576l0.616-1.643l-1.771-1.505l-0.28-0.958l-1.573-1.575l-0.409-0.752l-1.852-0.546l-1.158-0.208
					h-1.094l4.104,0.754z"/>
				<path d="M450.678,172.571l-0.204-0.341l1.372-0.821l1.639,0.274l-1.098,0.888h-1.709z"/>
				<path d="M446.915,180.439l0.753-0.613l0.138-0.96l-0.273-2.259l-0.891-0.752l-1.989-4.172l-0.402-1.098l-1.993-0.886l-0.338,0.068l0.613,2.666l-0.822,1.441l0.209,0.408l-0.953,1.847l1.154,1.435l-0.201,0.687h-1.231l-0.272-1.233l-1.712,0.686l1.984,2.123
					h1.708l1.715,2.737l0.272-0.271l0.545-0.688l0.753-0.068l0.551-1.096h0.684z"/>
				<path d="M437.541,150.539l-2.125,0.888l-2.185-1.71l1.64,0.549l1.779-0.961l0.479-1.713l2.942,1.099l0.755-0.411l3.826,0.271l0.553-0.271l0.339,0.685l-0.54,0.479l-7.463,1.096z"/>
				<path d="M448.559,189.748h1.229l0.686-1.644l-0.275-0.956l-1.235-3.287l-0.404,1.231l-0.547-0.545l0.475-0.955l0.208-0.688l-0.683-0.613l-2.739,3.347l1.092,0.482l0.55,2.055l1.302,0.543v0.756l0.343,0.272z"/>
				<path d="M476.064,180.851l-1.505-2.327l-0.477-1.506h-0.819l2.735,4.108l1.437,1.918l-0.891,1.093l1.569,0.269l0.554-0.545l-1.095-1.026l-1.028-1.3l-0.48-0.685z"/>
				<path d="M481.404,196.729l0.136,1.574l1.578,0.685l1.707,2.325l-0.138,0.274l-1.85-2.326l-1.298-0.273l-0.684-0.752l0.205-1.579l-0.821-1.914l-0.955-1.713l-0.413-1.433l1.776,1.573l-0.062,1.232l0.27,0.888l0.548,1.439z"/>
				<path d="M428.643,161.692h1.847l-0.888,1.37l-1.163-0.14l0.204-1.23z"/>
			</g>
			<text transform="matrix(1 0 0 1 473.5122 173.0703)"><tspan x="0" y="0" style="fill:#000000;stroke:none;">Bahamas</tspan></text>
		</g>
		<g>
			<g>
				<path d="M380.384,379.853l-0.889-0.276l-0.409,0.551l0.544,1.098l-1.297,0.746l0.066,5l2.673,2.184l-2.124,1.235l-0.549,1.575l1.096,1.979l-0.136,1.03l-2.257,1.85l-0.277,0.683l1.096,0.684l0.345,3.218l0.338-0.415l-0.206-2.187l0.411-0.408l2.397-0.684
					l2.396,0.684l0.749-0.484l0.893,0.484l0.408-0.14l0.55-0.618l1.162,0.345l0.548,1.23l3.354,0.071l0.475,0.682l2.463,0.408l0.279,0.616l1.845,4.793h0.688l0.201,0.616l2.873,1.101h0.962v-1.379l0.34-0.067v-1.091l1.506-0.41l0.208,0.41l-0.075,0.551l1.305,3.01
					l0.614,1.983v2.115l0.686,0.758l5.27-0.271l1.708-0.965l0.345-0.82l4.588-1.229v-1.229l-4.588-5.752l-1.437-1.436l-0.072-1.304l1.509-1.845l0.818,0.274l1.851-0.548l5.68-3.629l-0.274-0.271l-0.276-0.548l0.889-1.162l-0.134-0.547l0.547-1.029l2.328-0.82
					l0.203-0.887l0.614-0.277l4.656-0.138l4.317,2.872l0.271-0.205l2.052,1.783l1.849,1.848v0.756l1.575,1.98l0.613-1.029l1.507-0.271l0.138,0.955l1.435-0.685l0.893,0.551l-0.689,1.163l-0.478-0.271l-0.817,0.889l-0.754,0.2l-0.277,0.481l0.688,1.024l-0.411,0.825
					l-2.263,0.477l-0.065,1.096l1.777,3.012v0.959l1.778,2.329l3.22,3.483l0.41,0.485l1.029-3.287l1.434-0.964l-0.619-1.905l0.619-0.689l1.851,2.738l2.531-1.505l1.023-1.095l-0.342-1.098l1.027-1.573l1.438-0.613l-1.024-2.741l-1.233-1.711l-0.142-1.23
					l-1.362-2.052l0.818-1.716l-1.299-0.406l-4.998-5.406l-0.885-0.067l-1.714-1.918l-4.998-2.051l-3.005-0.685l-4.108-0.414l-1.712-0.68l0.546-0.822h-0.342l-7.665-1.099l-0.885,1.302l-5.684,3.837l-7.047,2.257l-3.696,2.325l-5.816,1.301l-3.011-0.345
					l-4.172-3.833l-0.137-0.818l-0.686-0.135l-0.141,0.816l1.235,1.712h-1.713l-2.257,0.066l-2.12-0.817l-0.134-1.643l0.682-0.822l0.479,0.136h0.069l-1.229-0.89l-0.554,0.55l-0.475-0.137l-0.414-1.991l0.414-0.68l-2.874-2.462v0.131l-0.549,0.756l-2.396-1.433z"/>
				<path d="M432.255,398.603v-1.847l0.753-0.343l0.82,1.093l-1.091,1.644l-0.483-0.547z"/>
				<path d="M429.996,399.15l0.412-0.412l-0.139,0.412h-0.273z"/>
				<path d="M401.185,409.002l1.508-0.412l0.274,0.412h-0.618l-1.165,0.342v-0.342z"/>
				<path d="M392.906,410.438l-0.751-1.309l1.3-1.564l0.411-0.204l0.958,1.507l-0.544,0.477l1.16,1.779l-0.82,0.203l-1.714-0.889z"/>
				<path style="stroke-linecap:butt;" d="M424.59,389.366l-2.33-2.33l-0.952,0.204l-1.779-3.214"/>
			</g>
			<text transform="matrix(1 0 0 1 382.3838 396.231)"><tspan x="0" y="0" style="fill:#000000;stroke:none;">Panama</tspan></text>
		</g>
		<g>
			<path d="M341.584,358.638l0.207,0.134l-0.614,0.619l0.064,0.887l-2.533,0.412l1.505,1.161l1.301,0.414l0.277,2.599l-1.99,1.299v1.368l-0.885,0.617l0.275,2.259l2.322,3.833l3.562,1.164l2.463,2.598l1.026,1.099l1.776-2.124l1.026-0.272l0.412-1.025l-0.686-0.751
				l-1.16-0.55l-2.395-1.988l-0.274-1.159l0.477-0.277l1.372,0.277l3.282,2.603l1.439,0.407l1.504,2.327l-0.824,1.643l1.989,2.052l3.554,0.552l1.439,1.432l2.739,1.169l3.964,3.558l0.757,3.142l-0.478,0.822v0.888l-1.506,1.166l2.122,2.396h0.821l2.735,1.028
				l0.14-0.409l-0.14-1.646l-1.577-1.094v-1.028l1.032-0.271l3.008,2.252l0.276,1.439l-0.341,1.574l0.341,0.275l2.392,2.187l0.345,1.783l0.139-0.068l-0.345-3.218l-1.096-0.684l0.277-0.683l2.257-1.85l0.136-1.03l-1.096-1.979l0.549-1.575l2.124-1.235l-2.673-2.184
				l-0.066-5l1.297-0.746l-0.544-1.098l0.409-0.551l0.889,0.276l2.396,1.433l0.549-0.756v-0.131l-0.69-0.618l-1.706-0.273l-3.831-4.788l-5.068-6.094l-2.803-6.495l-0.135,0.405l-1.645,1.027l-1.981,0.547l-1.099-0.954l-1.574,0.267l-1.299-0.545v-1.026l-1.847-1.573
				h-1.438l-2.601-1.438l-3.288,1.712l-5.95-3.01H344.8l-1.438-1.228l-1.708,2.183l-0.07,0.141z"/>
			<text transform="matrix(1 0 0 1 355.8159 374.1157)"><tspan x="0" y="0" style="fill:#000000;stroke:none;">Costa Rica</tspan></text>
		</g>
		<g>
			<path d="M320.785,330.992l3.964,0.271l1.3-0.957l0.068-1.575l1.439-1.507l1.097,0.347l0.748-0.548l-0.271-0.478l-0.342-5.408l2.735-0.41l2.81,0.275l2.601-2.739l1.57-1.095l0.687,0.961l1.298,0.752l1.436,1.295h0.757v-1.295l2.871-1.713l2.944-2.741l0.755-0.134
				l1.088-0.749l-0.273-0.55l1.026-2.462l0.961,0.272l0.618-0.683l-0.549-0.615l0.271-0.277l0.137-0.545l1.848-1.163h1.233l1.026,1.708l3.148,0.893l1.71-0.893l0.752,0.277l0.409-0.822l1.51,0.271l0.478-0.683l1.983,0.276l2.6-0.825l1.026-0.891h0.817l1.716-1.434
				l1.845-0.139l1.851,0.756h-0.071l-1.301,3.213l1.372,5.749l-3.696,5.476l-1.576,8.072l0.549,6.575l-0.689,1.157l0.484,3.627v1.238h-1.301l-0.889,1.708l-0.55,3.142h-0.748l-0.275,0.277l0.75,1.709l0.274,1.168l0.413,2.801l-1.78,1.784l-1.229,1.502l1.433,5.063
				l1.577,1.853l-0.135,0.405l-1.645,1.027l-1.981,0.547l-1.099-0.954l-1.574,0.267l-1.299-0.545v-1.026l-1.847-1.573h-1.438l-2.601-1.438l-3.288,1.712l-5.95-3.01H344.8l-1.438-1.228l-1.708,2.183l-0.07,0.141l-1.783-1.23l-1.093-1.851l-8.342-7.871l-2.263-3.558
				l0.136-0.955l-4.448-3.625l-4.996-5.002l-1.432-1.43l-1.647-1.171l-0.067-0.405l1.298-1.235l3.012,1.92l0.826-1.233z"/>
			<text transform="matrix(1 0 0 1 330.4155 339.353)"><tspan x="0" y="0" style="fill:#000000;stroke:none;">Nicaragua</tspan></text>
		</g>
		<g style="stroke-linecap:butt;">
			<g>
				<path d="M211.434,147.136l-1.96,3.654l2.282-1.723l-0.968,3.259l-1.559,1.542l-3.758-0.768l-0.773,0.653l-1.061,4.439l-2.924,3.818l-0.877,11.121l0.684,6.49l-2.944,16.191l1.082,4.378l3.848,5.78l-0.169,2.129l-1.609,2.255l0.51,2.662l3.456,7.649l4.739,6.572
					l2.702,11.164l5.706,6.402l8.124,3.021l5.929,6.662l3.317,0.259l5.468-2.667l2.637-0.263l3.357,0.34l0.757,0.55l-0.14,0.412l0.547,0.27l0.545-1.094l1.439,0.136l4.037-1.23l0.547-0.749l1.708-0.618l4.863-0.409h2.192l1.097,1.569l-0.417,0.41l-0.68-0.547
					l-0.757,0.547l0.272,0.343l1.441-0.065l0.683,1.299l-0.272,0.481l0.41,0.412l1.027-0.754l2.46,0.342l0.96-0.89l0.888-0.276l1.985-1.302l-0.067-1.434l-2.257-1.436l0.339-0.41l2.944-1.305l6.57-4.791l0.615-4.04l0.96-2.115l2.188-1.438v-1.166l0.82-7.662v-1.573
					l0.754-1.506l1.504-3.488l6.365-2.88l13.548-1.436l2.395-1.302l2.122-0.541l2.191,0.406l2.122-0.819l3.831,0.954l1.301,0.961h0.68l5.341,1.096l1.505-0.82l-0.545-0.823l1.573-0.548l1.778,2.465l1.233,0.681v2.262l0.547,1.3l-1.228,3.286l-5.274,5.546
					l-2.737,3.622l-0.545,3.969l-0.274,1.026l-1.026,0.544l-0.887,1.168l-1.371,0.82l0.205,0.478l1.304,1.096l2.321-0.135l-0.136,0.546l-1.3,1.3l-1.436,0.753v1.572l1.3-0.888l0.411,0.342l-4.581,13.07l-0.684,0.892l-0.075,0.823l-0.34-0.071l0.273-1.301
					l-0.551-1.643l-1.777-1.437l0.686-1.575l-0.275-2.938l-1.913,1.435l0.204,0.686l-1.849,2.738h-2.532l-1.025,2.254l-1.16,1.298l-0.275,0.689l-2.125,3.009l-2.737-1.298l-1.369,0.614v0.958l-0.271,0.756l-23.609-1.165l-0.96,7.454l-5.269,0.276l1.369,0.685
					l2.737,3.627l1.163,0.686l2.804,1.845l1.167,1.85l0.138,1.091l1.025,1.032l2.12,1.777l-0.687,1.505l-0.201,2.26l-16.834-0.823l-6.981,11.429l1.506,2.057l-1.097,1.092v1.029l-0.821,0.953l0.412,2.466l-1.028,1.572h-0.067l-7.733-8.614l-5.41-6.094l-2.165-3.022
					l-13.282-7.243l-5.987,0.246l-6.693,3.045l-9.262,2.367l-18.815-6.719l-4.815-2.521l-7.133-6.52l-2.154,0.071l-24.801-12.664l-1.236-2.479l-6.095-4.531l-1.002-2.457l-3.156-2.395l-3.541-0.516l-14.468-7.33l-4.628-7.986L108.974,226l-4.181-1.52l-2.425-2.572
					l-5.611-7.586l-1.505-8.214l1.557-1.547l3.401-0.691l-1.402-3.438l2.833-2.638l1.209-3.23l-2.817-9.75l-0.477-9.091l-7.166-9.131l-2.327-6.853l-2.038-1.351l-0.417-3.839l-9.55-12.187l0.43-5.447l-3.21-4.775l-2.608-0.204l-4.467-3.925l0.547-4.004l-1.969,0.797
					l-2.573-0.678l-0.128-4.529l4.032-5.643l-2.933-5.233l-3.05-0.714l-2.383-6.143l-4.41-4.632l-0.635-4.1l1.284-4.186l-5.252-3.032l-6.704-11.963l-1.744-8.23l-1.873-3.479l0.21-5.701l-1.438-2.97l0.297-3.788l-1.319-7.482l0.813-7.32l-4.925-4.201l0.347-1.396
					l-1.292-1.775l-4.437-1.301l-6.048-8.095l0.582,1.711l-2.411,9.338l0.438,3.602l-1.826,11.055l1.164,6.515l1.384,0.591l4.37,8.204l0.48,5.989l2.958,1.901l0.739,5.776l1.767,1.803l-0.392,8.064l2.878,5.945l0.338,4.791l1.946,2.532l0.266,5.736l1.281,2.005
					l-0.158-4.058l2.403,2.808l0.937,6.263l-0.559,7.103l2.735,4.739l-1.045,4.205l1.742,5.14l-1.05,4.201l0.855,4.355l1.954,2.533l2.501-1.466l3.883,5.305l2.757,7.362l0.111,1.673l-1.92,3.184l-5.248,2.923l-1.165-0.332l-1.503-8.214l-2.093-3.735l-9.571-11.946
					l-1.382-3.681l-2.063-1.119l-0.29-2.404l-2.531-1.148l-0.13-1.439l-1.516,1.065l3.368-6.4l1.035-7.058l-1.082-7.469l-4.709-3.947l-1.561-4.407l0.094-4.284l-3.034,2.147L17.59,94.26l-4.374-5.112l-0.106-1.671l-3.618-2.665l-0.173-3.827l-3.46-4.555
					l-1.445,0.122l0.627-1.857l4.381,2.017l4.051,0.079l1.071,1.515l0.446-2.589l1.953-0.559l1.22-6.336l-5.297-11.605l-1.072-4.614l-1.843-0.859l-0.981-2.691l-3.962-4.364l0.747-9.469l-1.442,0.129l0.54-6.87L2.46,16.385l1.012-3.734L1.905,8.242l0.213-5.693
					L1.064,0.797l25.735,6.784l-0.819,1.365l36.947,31.245l30.705,7.417l1.381-5.37l20.608,5.196l6.354,10.263l7.222,8.428l0.79,8.161l-0.022,3.331l2.255,4.704l7.676,8.7l3.45,1.701l1.933-0.327l7.173-9.195l2.414-0.289l11.992,2.369l7.252,11.052l2.505,10.669
					l2.769,4.272l1.325,4.391l3.32,3.355l1.535,10.841l3.079,6.432l3.116,2.869l3.269,0.967l2.919,2.375l5.875,1.176l3.852,2.684l3.762,0.771"/>
				<path d="M207.494,154.691l0.548,2.185l-1.281,1.093l-0.583-1.719l1.316-1.559"/>
			</g>
			<text transform="matrix(1 0 0 1 136.874 202.8579)"><tspan x="0" y="0" style="fill:#000000;stroke:none;">Mexico</tspan></text>
		</g>
		<g>
			<g>
				<path d="M489.741,237.243l5.269-0.479l1.365-1.989l-1.298-1.094h-2.188l-1.989-1.643l-1.3-1.305l-1.981-1.428l-1.1-0.141l-1.363-0.688l-1.986,0.207l-1.029-0.48l-1.231,0.688l-1.303-1.023l-1.293,0.548l-1.716-0.819l-0.543,0.407l-0.689-0.407v-0.894
					l1.094-0.414l-0.131-1.093h0.816l0.209-1.369l-2.604-1.363l-1.094,0.678h-1.093l-0.548,0.138l-1.433-0.815l-1.239-1.169l-3.148-0.754l-0.477,0.275l0.071,0.751l-1.163-0.544l0.408-0.482l-4.995-2.941l-1.981-1.709l-0.617,1.161l-0.479,0.687l-0.754-0.208
					l-0.276-1.095l-0.616-0.413l0.279-0.408l1.918,0.549v-0.414l-3.293-2.458l-2.599,0.272l-2.05-0.687l-1.236-1.297l-0.749,0.131l-3.077-2.939l-2.465-1.095l-4.517-2.461l-0.75,0.544l-1.166-0.89h-5.407l-4.447-3.558l-2.738-2.46l-2.94-1.852l-1.852,0.137h-2.325
					l-1.985-1.297l-1.166-1.299l-4.108,0.612l-0.408-0.546l-2.192,0.956l-1.159-1.573l-2.668,0.551l-1.164,0.475l-0.277-1.162l-2.938-0.138l-2.739-0.687l-4.313,0.413l-2.873,1.3l-3.561,0.274l-1.983,0.62l-0.682-0.483l-1.579,0.893l-0.886-0.483l-2.121,1.574
					l-0.341-0.137l-1.711,0.275l-1.506,0.754l-3.011,0.887l-1.714,0.272l-4.312,4.381l-1.026,2.465l1.026,1.1v1.367l-0.337-0.071l-2.194-0.136l-4.311,1.71l-0.888-0.133l-0.138,0.406l0.685,0.687l4.652-1.371l0.822,0.818l-0.138,0.35v0.95l2.121-1.23l3.764-0.75
					l0.551-1.029l-0.345-0.407l0.207-0.272l0.824-1.029l2.594-0.684h2.398h1.85l1.981-1.917l0.618,0.067l1.162-1.023l3.968-3.013l1.167-0.548l1.431,0.278l8.077-0.142l3.29,0.891l1.297,1.3l-0.818,0.959l-5.547,0.752l-0.064,0.478l2.598,1.368l1.306,1.232
					l4.993,0.142l1.23,1.16l1.641-0.413l0.141-0.889l0.41-0.819l0.274,0.272l0.544,1.71l1.579,0.819l6.291-0.203l-0.271-1.026l0.34-0.271l0.96,0.681l0.139,1.438l3.006,2.396l2.125,1.711l1.158-0.136l1.097,0.887l0.549-0.408l2.187,0.826l2.879,0.746l1.226,0.687
					h1.918l5.135-0.756l1.162,1.027l2.123,3.969l-0.416,0.482l0.416,2.118l1.296,1.578l0.824,0.201l3.282,2.947h2.466l5.065,0.816l2.05-0.544l1.847,1.165l-0.41,0.815l1.574,0.757l0.278,0.82l-0.755,1.709l-3.833,2.329l-3.833,4.103l0.408,0.41l4.036-0.206
					l1.233-0.614l3.286,0.137l2.464-0.679l2.532,0.132l6.156-1.161l1.919,1.029l2.396-0.894l2.939,1.303l4.586,0.133l2.186-1.852l0.552,0.482l-0.683,1.098l1.915-0.271l1.642-1.441l2.399-0.203z"/>
				<path d="M380.591,216.436l-0.822-1.162v-0.405l1.569,0.474l0.553-0.474l-1.231-2.88l1.85-1.848l3.143,0.892l0.136,1.916l1.161,0.477l0.281,1.849l-3.836,1.778l-2.804-0.616z"/>
			</g>
			<text transform="matrix(1 0 0 1 420.022 213.5054)"><tspan x="0" y="0" style="fill:#000000;stroke:none;">Cuba</tspan></text>
		</g>
		<g>
			<g>
				<path d="M512.595,237.243l-0.275-0.274l1.03-0.411l2.732,1.163h-1.367l-2.12-0.478z"/>
				<path d="M508.49,253.873l-0.617-0.894l0.34-0.685h1.785l3.623,1.847l0.411,0.822l-0.275,0.346l-5.267-1.849v0.412z"/>
				<path d="M527.922,241.345h-0.889l-0.55,0.688l-1.027-0.755l-1.845,0.339l-1.709-0.479l-0.55-0.409l-1.162,0.409l-2.192-1.163l-3.967-1.369l-3.419,0.28l-2.123,0.542l-2.26,1.093l-0.752,1.512l0.413,0.816h1.022l1.988,0.142l1.842,0.27l4.587,2.464l-0.542,0.545
					v0.62l0.27,0.409l-0.752,0.824l1.298,1.978l-1.163,0.35v0.682l3.286,3.354l2.598,1.507l-0.273,1.296l-3.486,0.274l-0.961,1.576l-2.598,0.136h-1.988l-0.821-0.414h-2.191l-4.851-0.27l-1.034-0.821l-0.682,0.272l-1.304-0.479l-3.83-1.163l-2.936,0.547l-1.1,2.809
					l0.821,1.3l1.779,0.206l3.01,1.163l2.465,2.734l1.231-0.271l-0.546-1.371l1.299-0.957l3.9-0.817l7.049,1.571l3.286-0.617l1.298-0.41l7.051-0.132l2.804,2.25l0.136-0.063l0.348-0.752l-0.278-1.58l0.684-1.295l-2.394-1.712l0.271-0.411l-1.161-1.438v-0.41
					l1.573-0.072l1.852-2.256l-0.547-1.985l-1.167-0.685l2.394-2.738l0.067-0.61l-1.572-1.574l0.825-2.193l-0.617-1.638l-0.208-1.646z"/>
			</g>
			<text transform="matrix(1 0 0 1 503.3364 270.9702)"><tspan x="0" y="0" style="fill:#000000;stroke:none;">Haiti</tspan></text>
		</g>
		<g>
			<path d="M464.763,267.416l-3.288-1.707l-1.708,1.919h-0.616l-0.824-0.758l-1.161,1.708l0.274,0.688l-0.549,0.28l-3.284-1.99h-1.987l-2.734-0.411l-0.957-1.985l-1.028-0.134l-1.708-2.191l-3.287-0.274l-0.413-0.405l0.277-1.717l1.436-1.162l4.104-0.414
				l7.051,0.278l4.104,0.821l1.985,0.272l2.327,1.643l4.858,1.438l2.119,3.286l-0.955,0.685l-4.035,0.132z"/>
			<text transform="matrix(1 0 0 1 442.4585 257.7759)"><tspan x="0" y="0" style="fill:#000000;stroke:none;">Jamaica</tspan></text>
		</g>
		<g style="fill:#000000;stroke:none;">
			<path style="fill:#FFFFFF;stroke:#000000;" d="M569.323,259.139l-0.206,1.575l-1.504,0.547l0.207,0.748l1.092,0.415l0.411-0.139l0.277-0.276l-1.987-0.748l-0.479-0.96l-2.122-1.71h-2.736l-1.645,0.137h-2.669l-1.644-0.48l-0.54,0.344l-2.329-0.821l-2.602,0.958
				l-1.371,2.257l-3.011,0.55l-1.85,0.341l-1.027-1.438l0.14-0.751l-1.091-0.825l-0.755,0.142l-1.577,1.299l-0.683-0.068l-0.342,0.822l-2.258-0.203l-0.277,3.145l-3.145,4.446l-0.553,1.646l-0.338,0.343l-1.842-2.124h-1.166l-0.692-2.875l-1.294-1.028l0.136-0.063
				l0.348-0.752l-0.278-1.58l0.684-1.295l-2.394-1.712l0.271-0.411l-1.161-1.438v-0.41l1.573-0.072l1.852-2.256l-0.547-1.985l-1.167-0.685l2.394-2.738l0.067-0.61l-1.572-1.574l0.825-2.193l-0.617-1.638l-0.208-1.646l-0.069-0.823l1.918-1.635l3.967,0.817
				l1.981-0.275l1.851-1.093l2.602,0.821l3.013,1.572l1.433-0.48l2.673,1.917h1.917l1.916-0.616l0.75,0.276l0.343,1.707l0.273,0.069l0.204,1.299l1.712,1.713l5.341-0.476l0.546-0.414l1.025,0.89l-0.548,1.099h-5.064l0.074,1.294l2.184,0.416l0.48-0.272l2.874,1.3
				h1.298l2.741-0.072l5.271,3.285l2.117,1.778l-1.85,3.419l-1.572,0.278z"/>
			<text transform="matrix(1 0 0 1 530.519 249.5591)"><tspan x="0" y="0">Dominican</tspan><tspan x="0" y="12">Republic</tspan></text>
		</g>
		<g>
			<path d="M294.505,309.983l2.052-1.985l0.681,0.138l0.413-1.575l-0.957-2.256l1.097-1.574l-0.413-0.891l5.133-2.734l7.869-5.958l0.548,0.552l1.027-0.274l1.846-1.167l3.011-1.438l1.71,0.072l0.273,0.818l1.712,0.896l1.574-0.618l6.021,1.436l1.434-0.614
				l3.151,0.269l1.234-0.202l1.162,0.548l1.707-0.548l1.713-0.888l2.396-0.411l0.069-0.967l0.545-0.334l5.542,1.98l5.476-0.547l0.956-0.546l4.317,1.712l0.544,1.502l1.709-0.272l0.278-0.548l3.007,0.342l4.107,4.79l2.739,1.575l4.172,2.191l1.436,2.535l0.825,0.544
				l-0.208,0.48h0.071l-1.851-0.756l-1.845,0.139l-1.716,1.434h-0.817l-1.026,0.891l-2.6,0.825l-1.983-0.276l-0.478,0.683l-1.51-0.271l-0.409,0.822l-0.752-0.277l-1.71,0.893l-3.148-0.893l-1.026-1.708h-1.233l-1.848,1.163l-0.137,0.545l-0.271,0.277l0.549,0.615
				l-0.618,0.683l-0.961-0.272l-1.026,2.462l0.273,0.55l-1.088,0.749l-0.755,0.134l-2.944,2.741l-2.871,1.713v1.295h-0.757l-1.436-1.295l-1.298-0.752l-0.687-0.961l-1.57,1.095l-2.601,2.739l-2.81-0.275l-2.735,0.41l0.342,5.408l0.271,0.478l-0.748,0.548
				l-1.097-0.347l-1.439,1.507l-0.068,1.575l-1.3,0.957l-3.964-0.271l-0.277-1.023l-1.301-1.306l-0.685-1.641l1.437-1.365l-0.683-0.274l-1.029,0.54l-1.161-0.54l-0.548,0.613l-1.438-0.274l-0.409-0.202l1.229-0.961l-0.82-1.576l1.438-3.417l-1.572-1.303
				l-2.738,0.137l-0.82-1.026l-1.714-0.479l-2.053,1.368h-1.57l-0.277-1.161l-2.733-1.029l-0.208-0.958l-1.299-0.412l-1.164-1.158l-1.438-1.438l-1.713-0.958l-2.733-1.164"/>
			<text transform="matrix(1 0 0 1 319.1484 307.3784)"><tspan x="0" y="0" style="fill:#000000;stroke:none;">Honduras</tspan></text>
		</g>
		<g>
			<path d="M257.96,301.294v-1.029l1.097-1.092l-1.506-2.057l6.981-11.429l16.834,0.823l0.201-2.26l0.687-1.505l-2.12-1.777l-1.025-1.032l-0.138-1.091l-1.167-1.85L275,275.152l-1.163-0.686l-2.737-3.627l-1.369-0.685l5.269-0.276l0.96-7.454l23.609,1.165v3.01
				l-0.893,12.382l-0.886,11.018h3.279l1.305,0.894l1.712,0.818l0.749,1.437l1.711-1.841l-0.889-0.896h0.889l3.422,2.399l0.411,0.337l-7.869,5.958l-5.133,2.734l0.413,0.891l-1.097,1.574l0.957,2.256l-0.413,1.575l-0.681-0.138l-2.052,1.985l-2.532,0.269
				l-0.342,0.553l0.617,1.714l-2.602,1.574l-0.684,1.021l-1.167-0.412l-3.419,2.671l-0.411,1.714l-0.066,0.065l-5.952-3.08l-8.963-0.546l-3.361-1.643l-8.548-6.912l-0.616-0.686h0.067l1.028-1.572l-0.412-2.466l0.821-0.953z"/>
			<text transform="matrix(1 0 0 1 259.4771 299.4526)"><tspan x="0" y="0" style="fill:#000000;stroke:none;">Guatemala</tspan></text>
		</g>
		<g>
			<path d="M294.505,309.983l2.733,1.164l1.713,0.958l1.438,1.438l1.164,1.158l1.299,0.412l0.208,0.958l2.733,1.029l0.277,1.161h1.57l2.053-1.368l1.714,0.479l0.82,1.026l2.738-0.137l1.572,1.303l-1.438,3.417l0.82,1.576l-1.229,0.961l-0.481-0.274l-0.409,0.201
				v0.55l0.618,0.686l-2.333,1.712l-6.842-0.687l-1.023-1.025l-0.41,0.616l-4.241-1.375l-5.477-2.94l-6.435-1.022l-0.957-1.3l-2.805-1.508l0.066-0.065l0.411-1.714l3.419-2.671l1.167,0.412l0.684-1.021l2.602-1.574l-0.617-1.714l0.342-0.553l2.532-0.269z"/>
			<text transform="matrix(1 0.0041 -0.0041 1 288.3491 321.7036)"><tspan x="0" y="0" style="fill:#000000;stroke:none;">El Salvador</tspan></text>
		</g>
		<g>
			<path d="M310.928,255.993h0.272l-0.137-0.684h-2.532l-1.025,2.254l-1.16,1.298l-0.275,0.689l-2.125,3.009l-2.737-1.298l-1.369,0.614v0.958l-0.271,0.756v3.01l-0.893,12.382l-0.886,11.018h3.279l2.332-3.146l1.162-1.299h1.508l1.57-1.713l0.754-1.71l0.959-1.162
				l1.574-5.956l-0.959-2.124l1.368-3.894l-0.409-1.44l0.686-1.985l2.188-5.884l-0.411-2.532l-1.777-0.133h-1.094l-0.412-0.621l0.82-0.407z"/>
			<text transform="matrix(1 0 0 1 312.6211 274.0308)"><tspan x="0" y="0" style="fill:#000000;stroke:none;">Belize</tspan></text>
		</g>
		<g style="fill:none;stroke-linecap:butt;">
			<g>
				<path d="M608.671,261.388l2.172-0.609l-1.017-0.405l-1.698,0.948l0.543,0.066z"/>
				<path d="M605.413,260.507l-1.353,2.105l-1.357,0.679l-3.732,0.473l-6.308-0.203l-3.256,0.61l-2.919-0.135l0.275-3.732l-1.293-1.628l1.293-0.813v-1.088l1.018,0.071l2.238-0.071l1.691-0.2h5.565l4.205,0.475l1.222-0.475l3.867,1.084l0.403,1.152l-0.203,0.815
					l-1.357,0.88z"/>
			</g>
			<text transform="matrix(1 0 0 1 582.3706 271.979)"><tspan x="0" y="0" style="fill:#000000;stroke:none;">Puerto Rico</tspan></text>
		</g>
		<g style="fill:none;stroke-linecap:butt;">
			<g>
				<path d="M675.549,352.555l-0.271-0.136l1.563-1.697l2.104-0.678l-0.137,0.816l-3.259,1.694z"/>
				<path d="M673.108,362.187l0.069,1.086l0.679,0.609l-0.544,2.85l-1.695,0.881l-8.546,0.543l-1.086,0.543l-0.407-0.408l3.936-2.306l1.288-0.27l0.814-1.154l-0.68-1.763v-1.969l-0.881-0.813h-1.084l-0.272-0.545l1.967-0.947l4.545-0.68l2.916-0.475l-1.288,2.374
					l0.27,2.442z"/>
			</g>
			<text transform="matrix(1 0 0 1 675.4438 363.0396)"><tspan x="0" y="0" style="fill:#000000;stroke:none;">Trinidad and Tobago</tspan></text>
		</g>
		<g style="fill:none;stroke-linecap:butt;">
			<g>
				<path d="M623.865,252.03h-0.814v0.34h1.018l-0.203-0.34z"/>
				<path d="M620.27,256.099l-0.475,0.272l0.203,0.067l0.271-0.34z"/>
				<path d="M616.2,257.66l-0.745-0.271l-0.07,0.271l0.746,0.204l0.069-0.204z"/>
			</g>
			<text transform="matrix(1 0 0 1 621.7847 247.4712)"><tspan x="0" y="0" style="fill:#000000;stroke:none;">Virgin Islands</tspan></text>
		</g>
		<g style="fill:none;stroke-linecap:butt;">
			<g>
				<path d="M639.871,258.542l0.954-0.678l-0.816-0.068l-0.477,0.746h0.339z"/>
				<path d="M639.871,260.646l-0.271-0.342l1.086-0.203l-0.408,0.545h-0.407z"/>
			</g>
			<text transform="matrix(1 0 0 1 641.2065 255.5776)"><tspan x="0" y="0" style="fill:#000000;stroke:none;">Anguilla</tspan></text>
		</g>
		<g style="fill:none;stroke-linecap:butt;">
			<g>
				<path d="M657.103,273.532l-0.952-0.88l1.354-0.951l0.751,0.271l0.879,1.355l-0.744,0.478l-1.288-0.273z"/>
				<path d="M656.421,265.733l-0.271-1.154l0.271-0.407l1.425,1.427v0.54l-1.425-0.405z"/>
			</g>
			<text transform="matrix(1 0 0 1 660.3413 271.6919)"><tspan x="0" y="0" style="fill:#000000;stroke:none;">Antigua and Barbuda</tspan></text>
		</g>
		<g style="fill:none;stroke-linecap:butt;">
			<g>
				<path d="M647.062,273.057l-0.407-0.543l0.272-0.407l0.676,0.407l-0.133,0.34l-0.408,0.203z"/>
				<path d="M646.623,272.091l0.848-0.423l-0.338-1.188l-1.443-0.507l-0.422,0.677l1.355,1.441z"/>
			</g>
			<g>
				<text transform="matrix(1 0 0 1 658.0366 262.772)"><tspan x="0" y="0" style="fill:#000000;stroke:none;">Saint Kitts and Nevis</tspan></text>
				<path d="M648.256,269.101l8.631-7.769"/>
			</g>
		</g>
		<g style="fill:none;stroke-linecap:butt;">
			<path d="M652.285,277.875v-0.477l0.746,0.27l-0.136,0.68l-0.61-0.473z"/>
			<g>
				<text transform="matrix(1 0 0 1 665.3481 279.8315)"><tspan x="0" y="0" style="fill:#000000;stroke:none;">Montserrat</tspan></text>
				<path d="M654.383,277.389l9.929-0.087"/>
			</g>
		</g>
		<g style="fill:none;stroke-linecap:butt;">
			<g>
				<path d="M665.172,288.522l-0.27-0.677l0.675-0.68l0.478,0.543l-0.407,0.813h-0.476z"/>
				<path d="M661.441,283.504l-0.608,1.22l0.271,2.239l-0.881,0.882l-0.815-0.137l-1.15-3.866l0.135-0.747l1.151-0.27l1.898,0.679l0.614-1.088l-0.545-1.288l0.61-0.677l1.084,1.018l1.356,1.356l1.087,0.476l-3.322,1.083l-0.885-0.88z"/>
			</g>
			<text transform="matrix(1 0 0 1 666.813 288.0903)"><tspan x="0" y="0" style="fill:#000000;stroke:none;">Guadaloupe</tspan></text>
		</g>
		<g>
			<path style="fill:none;stroke-linecap:butt;" d="M665.106,297.478l-0.814-0.546l-0.409-1.763l-0.948-1.289v-1.018l0.544-0.269l1.562,0.746l0.813,1.018l0.067,1.082l-0.067,1.426l-0.746,0.612z"/>
			<text transform="matrix(1 0 0 1 667.6763 297.1538)"><tspan x="0" y="0" style="fill:#000000;stroke:none;">Dominica</tspan></text>
		</g>
		<g>
			<path style="fill:none;stroke-linecap:butt;" d="M671.413,317.69l-1.426-0.407l-0.268-1.628l0.88-2.171l0.477-0.746l1.018,0.675l0.067,2.921l-0.748,1.356z"/>
			<text transform="matrix(1 0 0 1 672.8569 315.2798)"><tspan x="0" y="0" style="fill:#000000;stroke:none;">Saint Lucia</tspan></text>
		</g>
		<g>
			<path style="fill:none;stroke-linecap:butt;" d="M669.109,307.514l-0.272-0.339l0.61-0.949l-0.271-0.337l-1.018-0.274l-1.561-2.507l0.948-0.682l3.053,1.292l1.765,3.254l-0.271,0.678l-2.984-0.136z"/>
			<text transform="matrix(1 0 0 1 671.5601 305.7837)"><tspan x="0" y="0" style="fill:#000000;stroke:none;">Martinique</tspan></text>
		</g>
		<g>
			<path style="fill:none;stroke-linecap:butt;" d="M690.951,320.403l0.473,0.747l-0.273,1.288l-1.489,0.066l0.474-1.896l0.816-0.206z"/>
			<text transform="matrix(1 0 0 1 694.0034 323.478)"><tspan x="0" y="0" style="fill:#000000;stroke:none;">Barbados</tspan></text>
		</g>
		<g style="fill:none;stroke-linecap:butt;">
			<g>
				<path d="M667.886,325.49l-0.541-0.61l0.541-1.897l0.406-0.339l0.884,0.878l-0.272,2.374l-1.018-0.405z"/>
				<path d="M666.598,331.255l-0.476-0.745l0.679-1.425l1.085,0.134l-0.473,1.834l-0.815,0.202z"/>
			</g>
			<text transform="matrix(1 0 0 1 671.8491 330.9312)"><tspan x="0" y="0" style="fill:#000000;stroke:none;">Saint Vincent and the Grenadines</tspan></text>
		</g>
		<g>
			<path style="fill:none;stroke-linecap:butt;" d="M662.392,341.229l-0.476-0.747l0.678-1.426l1.154,0.136l-0.544,1.831l-0.813,0.206z"/>
			<text transform="matrix(1 0 0 1 665.8062 342.3237)"><tspan x="0" y="0" style="fill:#000000;stroke:none;">Grenada</tspan></text>
		</g>
		<g>
			<text transform="matrix(1 0 0 1 568.4175 349.8052)"><tspan x="0" y="0" style="fill:#000000;stroke:none;">Netherlands Antilles</tspan></text>
			<g>
				<path d="M575.606,338.91l-0.646-1.031l2.193,1.163l-0.451,1.806l-1.097-1.938z"/>
				<path d="M566.574,339.556l-1.547-1.678v-0.643h1.031l1.225,1.806l1.613,0.322l1.29,1.419l-0.257,0.323l-3.355-1.55z"/>
			</g>
		</g>
		<g>
			<text transform="matrix(1 0 0 1 554.1753 332.1108)"><tspan x="0" y="0" style="fill:#000000;stroke:none;">Aruba</tspan></text>
			<path d="M554.506,335.944l-0.709-0.647v-0.901l2.13,1.613l-0.194,0.451l-1.227-0.516z"/>
		</g>
		<g>
			<text transform="matrix(1 0 0 1 373.6353 240.9067)"><tspan x="0" y="0" style="fill:#000000;stroke:none;">Cayman Islands</tspan></text>
			<path d="M402.349,243.463l-0.906,0.207l0.768-0.697l2.022,0.21l-0.487,0.35l-1.396-0.069z"/>
		</g>
		<g>
			<text transform="matrix(1 0 0 1 527.8472 214.2915)"><tspan x="0" y="0" style="fill:#000000;stroke:none;">Turks and Caicos Islands</tspan></text>
			<g>
				<path d="M525.014,215.908v-0.373l2.158,0.596v0.37l-2.158-0.593"/>
				<path d="M518.762,216.5l-0.595-0.445l1.712,0.374l-1.117,0.071"/>
			</g>
		</g>
	</g>
</svg>
