<?xml version="1.0" encoding="iso-8859-1"?>
<!DOCTYPE svg >

<svg  width="663.84pt" height="601.899pt" viewBox="0 0 663.84 601.899" xml:space="preserve">
	<g id="Layer_x0020_1" style="fill-rule:nonzero;clip-rule:nonzero;fill:#FFFFFF;stroke:#000000;stroke-linecap:square;stroke-miterlimit:4; font-family:'Arial'; font-size:10;">
		<g>
			<g>
				<path d="M552.401,551.748l-1.296-0.4l-0.592,0.803l0.79,1.591l-1.885,1.088l0.099,7.267l3.884,3.176l-3.087,1.791l-0.797,2.291l1.588,2.879l-0.196,1.496l-3.281,2.688l-0.399,0.992l1.591,0.993l0.503,4.679l0.493-0.603l-0.298-3.182l0.596-0.594l3.484-0.992
					l3.481,0.992l1.089-0.699l1.298,0.699l0.594-0.202l0.797-0.896l1.689,0.498l0.796,1.788l4.877,0.108l0.692,0.986l3.578,0.597l0.405,0.896l2.681,6.966h0.999l0.294,0.896l4.174,1.595h1.399v-2l0.494-0.098v-1.587l2.188-0.596l0.302,0.596l-0.106,0.8l1.896,4.375
					l0.893,2.886v3.07l0.997,1.104l7.658-0.393l2.481-1.402l0.504-1.193l6.667-1.787v-1.787l-6.667-8.361l-2.091-2.083l-0.101-1.896l2.191-2.685l1.189,0.398l2.688-0.796l8.256-5.271l-0.396-0.396l-0.401-0.795l1.291-1.686l-0.193-0.802l0.793-1.491l3.383-1.191
					l0.298-1.291l0.893-0.402l6.764-0.201l6.275,4.175l0.394-0.296l2.981,2.59l2.689,2.686v1.1l2.285,2.876l0.895-1.493l2.188-0.392l0.201,1.387l2.084-0.995l1.3,0.799l-1.002,1.69l-0.696-0.396l-1.19,1.297l-1.092,0.289l-0.405,0.697l1.002,1.492l-0.597,1.195
					l-3.291,0.694l-0.092,1.593l2.583,4.379v1.393l2.583,3.386l4.679,5.064l0.598,0.703l1.494-4.776l2.086-1.4l-0.898-2.774l0.898-0.997l2.688,3.979l3.679-2.188l1.489-1.589l-0.497-1.599l1.495-2.284l2.087-0.893l-1.487-3.981l-1.795-2.49l-0.2-1.788l-1.983-2.981
					l1.188-2.493l-1.888-0.591l-7.264-7.854l-1.287-0.103l-2.489-2.784l-7.265-2.983l-4.37-0.995l-5.97-0.602l-2.486-0.989l0.79-1.19h-0.494l-11.141-1.6l-1.29,1.893l-8.259,5.578l-10.243,3.275l-5.371,3.38l-8.456,1.895l-4.375-0.504l-6.065-5.567l-0.198-1.193
					l-0.998-0.192l-0.203,1.186l1.795,2.488h-2.487l-3.282,0.098l-3.083-1.191l-0.194-2.388l0.99-1.193l0.697,0.197h0.103l-1.79-1.296l-0.802,0.801l-0.693-0.197l-0.601-2.893l0.601-0.989l-4.176-3.58v0.192l-0.795,1.098l-3.484-2.084z"/>
				<path d="M627.793,579.003v-2.688l1.098-0.495l1.191,1.588l-1.589,2.391l-0.7-0.796z"/>
				<path d="M624.511,579.799l0.599-0.601l-0.199,0.601h-0.399z"/>
				<path d="M582.637,594.117l2.19-0.601l0.4,0.601h-0.896l-1.694,0.498v-0.498z"/>
				<path d="M570.603,596.206l-1.093-1.902l1.889-2.275l0.597-0.297l1.396,2.19l-0.794,0.693l1.688,2.586l-1.191,0.295l-2.49-1.29z"/>
				<path style="stroke-linecap:butt;" d="M616.655,565.576l-3.386-3.387l-1.388,0.297l-2.584-4.673"/>
			</g>
			<text transform="matrix(1 0 0 1 555.3076 575.5566)"><tspan x="0" y="0" style="fill:#000000;stroke:none;">Panama</tspan></text>
		</g>
		<g>
			<path d="M496.006,520.914l0.301,0.194l-0.894,0.901l0.095,1.291l-3.682,0.594l2.188,1.692l1.892,0.598l0.401,3.777l-2.892,1.892v1.985l-1.286,0.896l0.399,3.287l3.377,5.568l5.174,1.691l3.582,3.777l1.489,1.598l2.584-3.089l1.492-0.392l0.598-1.493l-0.997-1.093
				l-1.686-0.797l-3.48-2.893l-0.399-1.683l0.692-0.404l1.993,0.404l4.773,3.781l2.093,0.591l2.184,3.384l-1.196,2.386l2.891,2.981l5.167,0.804l2.091,2.081l3.981,1.696l5.761,5.174l1.102,4.568l-0.696,1.192v1.291l-2.188,1.696l3.084,3.479h1.193l3.976,1.497
				l0.203-0.594l-0.203-2.395l-2.291-1.587v-1.495l1.498-0.396l4.374,3.274l0.4,2.091l-0.497,2.291l0.497,0.398l3.478,3.178l0.5,2.59l0.202-0.096l-0.503-4.679l-1.591-0.993l0.399-0.992l3.281-2.688l0.196-1.496l-1.588-2.879l0.797-2.291l3.087-1.791l-3.884-3.176
				l-0.099-7.267l1.885-1.088l-0.79-1.591l0.592-0.803l1.296,0.4l3.484,2.084l0.795-1.098v-0.192l-1-0.896l-2.481-0.398l-5.571-6.963l-7.365-8.853l-4.074-9.441l-0.196,0.59l-2.389,1.494l-2.88,0.791l-1.599-1.386l-2.287,0.389l-1.889-0.792v-1.49l-2.685-2.286
				h-2.088l-3.781-2.092l-4.777,2.487l-8.649-4.374h-2.288l-2.09-1.787l-2.483,3.174l-0.102,0.205z"/>
			<text transform="matrix(1 0 0 1 523.3574 549.7432)"><tspan x="0" y="0" style="fill:#000000;stroke:none;">Costa Rica</tspan></text>
		</g>
		<g>
			<path d="M465.774,480.729l5.763,0.396l1.889-1.394l0.099-2.29l2.094-2.188l1.593,0.507l1.087-0.801l-0.395-0.69l-0.495-7.862l3.975-0.597l4.084,0.398l3.778-3.979l2.284-1.593l0.999,1.397l1.887,1.09l2.088,1.889h1.099v-1.889l4.173-2.487l4.28-3.982l1.096-0.195
				l1.584-1.09l-0.397-0.798l1.49-3.578l1.398,0.396l0.898-0.996l-0.799-0.893l0.396-0.4l0.198-0.793l2.687-1.689h1.79l1.491,2.482l4.577,1.293l2.485-1.293l1.096,0.4l0.594-1.193l2.194,0.394l0.696-0.993l2.88,0.403l3.779-1.202l1.492-1.293h1.189l2.494-2.084
				l2.681-0.203l2.69,1.102h-0.103l-1.891,4.67l1.993,8.357l-5.371,7.959l-2.292,11.733l0.798,9.55l-1,1.688l0.701,5.272v1.795h-1.891l-1.291,2.484l-0.8,4.567h-1.087l-0.4,0.402l1.091,2.486l0.396,1.696l0.599,4.072l-2.585,2.59l-1.788,2.187l2.081,7.361
				l2.292,2.69l-0.196,0.59l-2.389,1.494l-2.88,0.791l-1.599-1.386l-2.287,0.389l-1.889-0.792v-1.49l-2.685-2.286h-2.088l-3.781-2.092l-4.777,2.487l-8.649-4.374h-2.288l-2.09-1.787l-2.483,3.174l-0.102,0.205l-2.591-1.791l-1.589-2.685l-12.127-11.442l-3.288-5.169
				l0.198-1.393l-6.466-5.267l-7.26-7.27l-2.081-2.08l-2.396-1.7l-0.096-0.591l1.886-1.796l4.376,2.791l1.201-1.793z"/>
			<text transform="matrix(1 0 0 1 479.7725 492.8838)"><tspan x="0" y="0" style="fill:#000000;stroke:none;">Nicaragua</tspan></text>
		</g>
		<g style="stroke-linecap:butt;">
			<g>
				<path d="M306.835,213.5l-2.851,5.309l3.318-2.504l-1.406,4.737l-2.267,2.243l-5.464-1.116l-1.122,0.949l-1.542,6.452l-4.25,5.548l-1.274,16.167l0.995,9.434l-4.281,23.534l1.573,6.361l5.592,8.404l-0.246,3.092l-2.341,3.278l0.742,3.868l5.023,11.12l6.89,9.55
					l3.927,16.233l8.294,9.301l11.807,4.394l8.618,9.678l4.822,0.384l7.946-3.878l3.834-0.384l4.879,0.494l1.099,0.802l-0.204,0.594l0.797,0.394l0.793-1.589l2.09,0.199l5.867-1.793l0.796-1.089l2.482-0.897l7.068-0.595h3.186l1.593,2.283l-0.604,0.597l-0.99-0.796
					l-1.102,0.796l0.397,0.497l2.094-0.094l0.993,1.887l-0.394,0.695l0.594,0.601l1.492-1.096l3.578,0.495l1.395-1.29l1.29-0.4l2.886-1.892l-0.098-2.085l-3.282-2.089l0.493-0.597l4.281-1.895l9.548-6.962l0.895-5.869l1.395-3.076l3.18-2.092v-1.695l1.194-11.135
					v-2.288l1.093-2.189l2.187-5.069l9.252-4.186l19.693-2.087l3.479-1.891l3.086-0.79l3.185,0.593l3.083-1.191l5.568,1.388l1.893,1.395h0.989l7.76,1.594l2.189-1.194l-0.794-1.194l2.287-0.797l2.585,3.583l1.792,0.987v3.291l0.794,1.888l-1.784,4.776l-7.667,8.056
					l-3.978,5.271l-0.793,5.767l-0.398,1.492l-1.491,0.794l-1.291,1.695l-1.992,1.191l0.299,0.694l1.895,1.592l3.373-0.196l-0.197,0.795l-1.889,1.886l-2.09,1.1V356l1.893-1.293l0.597,0.499l-6.658,18.995l-0.995,1.296l-0.108,1.198l-0.494-0.104l0.397-1.893
					l-0.8-2.387l-2.584-2.09l0.997-2.288l-0.401-4.271l-2.78,2.089l0.297,0.994l-2.687,3.982h-3.682l-1.49,3.274l-1.685,1.886l-0.4,1.001l-3.088,4.374l-3.978-1.888l-1.991,0.895v1.394l-0.393,1.098l-34.316-1.692l-1.394,10.834l-7.66,0.401l1.992,0.996l3.977,5.271
					l1.691,0.995l4.076,2.685l1.695,2.685l0.199,1.591l1.493,1.496l3.08,2.584l-0.998,2.188l-0.293,3.281l-24.467-1.195l-10.148,16.613l2.188,2.987l-1.593,1.588v1.493l-1.193,1.389l0.598,3.581l-1.494,2.287h-0.096l-11.241-12.524l-7.862-8.857l-3.147-4.391
					l-19.307-10.524l-8.702,0.354l-9.728,4.429l-13.462,3.439l-27.348-9.769l-6.997-3.661l-10.368-9.474l-3.13,0.104l-36.048-18.41l-1.796-3.603l-8.858-6.585l-1.458-3.574l-4.586-3.478l-5.147-0.748l-21.029-10.655l-6.727-11.608l-7.421-7.158l-6.079-2.209
					l-3.525-3.74l-8.155-11.024l-2.187-11.939l2.264-2.247l4.942-1.004l-2.039-5.001l4.118-3.835l1.757-4.696l-4.095-14.17l-0.693-13.214l-10.416-13.273l-3.382-9.96l-2.961-1.962l-0.605-5.582l-13.881-17.712l0.625-7.917l-4.666-6.941l-3.792-0.297l-6.493-5.706
					l0.795-5.819l-2.863,1.158l-3.741-0.984l-0.185-6.583l5.86-8.202l-4.263-7.605l-4.433-1.037l-3.464-8.93l-6.41-6.733l-0.922-5.958l1.867-6.086l-7.634-4.406l-9.746-17.387l-2.534-11.962l-2.721-5.058l0.304-8.286L56.473,77.5l0.431-5.507l-1.917-10.875
					l1.183-10.641l-7.159-6.105l0.505-2.029l-1.878-2.58l-6.45-1.891l-8.791-11.766l0.846,2.487L29.74,42.165l0.634,5.237l-2.655,16.068l1.69,9.469l2.013,0.858l6.353,11.924l0.696,8.706l4.301,2.762l1.074,8.395l2.568,2.62l-0.569,11.723l4.181,8.64l0.494,6.962
					l2.829,3.681l0.386,8.337l1.861,2.915l-0.23-5.899l3.494,4.082l1.362,9.103l-0.814,10.325l3.977,6.888l-1.52,6.113l2.531,7.47l-1.525,6.107l1.242,6.329l2.84,3.684l3.636-2.134l5.643,7.712l4.008,10.7l0.163,2.433l-2.791,4.627l-7.629,4.25l-1.693-0.482
					l-2.184-11.938l-3.043-5.431l-13.911-17.363l-2.009-5.35l-3-1.625l-0.42-3.495l-3.679-1.67l-0.19-2.091l-2.203,1.548l4.896-9.303l1.503-10.258l-1.573-10.855l-6.843-5.739l-2.271-6.406l0.139-6.225l-4.411,3.123l-4.007-2.045l-6.355-7.431l-0.156-2.429
					l-5.259-3.875l-0.252-5.563l-5.029-6.622l-2.102,0.178l0.911-2.7l6.37,2.931l5.889,0.114l1.558,2.203l0.646-3.764l2.841-0.811l1.773-9.211L18.216,82.8l-1.557-6.706l-2.677-1.248l-1.428-3.913l-5.758-6.343l1.086-13.763l-2.096,0.188l0.786-9.983L3.094,23.455
					l1.471-5.427l-2.278-6.409l0.311-8.275L1.064,0.798l37.405,9.862l-1.19,1.983l53.7,45.413l44.629,10.782l2.009-7.805l29.953,7.552l9.238,14.917l10.497,12.25l1.147,11.862l-0.032,4.841l3.277,6.836l11.156,12.647l5.014,2.473l2.81-0.476l10.428-13.365
					l3.507-0.418l17.429,3.443l10.542,16.065l3.642,15.508l4.024,6.209l1.926,6.38l4.825,4.879l2.229,15.757l4.475,9.348l4.53,4.17l4.753,1.403l4.241,3.455l8.537,1.709l5.6,3.899l5.469,1.123"/>
				<path d="M301.106,224.48l0.796,3.175l-1.861,1.587l-0.848-2.497l1.913-2.266"/>
			</g>
			<text transform="matrix(1 0 0 1 198.4624 294.4883)"><tspan x="0" y="0" style="fill:#000000;stroke:none;">Mexico</tspan></text>
		</g>
		<g>
			<path d="M427.577,450.193l2.984-2.884l0.989,0.199l0.6-2.29l-1.391-3.275l1.593-2.293l-0.6-1.292l7.46-3.978l11.436-8.657l0.799,0.8l1.491-0.396l2.686-1.695l4.378-2.088l2.483,0.102l0.398,1.192l2.489,1.301l2.285-0.9l8.753,2.089l2.084-0.893l4.581,0.393
				l1.794-0.295l1.688,0.795l2.483-0.795l2.488-1.294l3.482-0.6l0.1-1.399l0.794-0.488l8.054,2.881l7.96-0.794l1.39-0.793l6.274,2.487l0.79,2.182l2.485-0.396l0.402-0.797l4.372,0.496l5.971,6.962l3.98,2.291l6.064,3.185l2.087,3.684l1.2,0.791l-0.303,0.7h0.103
				l-2.69-1.102l-2.681,0.203l-2.494,2.084h-1.189l-1.492,1.293l-3.779,1.202l-2.88-0.403l-0.696,0.993l-2.194-0.394l-0.594,1.193l-1.096-0.4l-2.485,1.293l-4.577-1.293l-1.491-2.482h-1.79l-2.687,1.689l-0.198,0.793l-0.396,0.4l0.799,0.893l-0.898,0.996
				l-1.398-0.396l-1.49,3.578l0.397,0.798l-1.584,1.09l-1.096,0.195l-4.28,3.982l-4.173,2.487v1.889h-1.099l-2.088-1.889l-1.887-1.09l-0.999-1.397l-2.284,1.593l-3.778,3.979l-4.084-0.398l-3.975,0.597l0.495,7.862l0.395,0.69l-1.087,0.801l-1.593-0.507
				l-2.094,2.188l-0.099,2.29l-1.889,1.394l-5.763-0.396l-0.401-1.487l-1.893-1.897l-0.995-2.386l2.088-1.985l-0.992-0.396l-1.494,0.786l-1.688-0.786l-0.797,0.892l-2.091-0.398l-0.593-0.292l1.786-1.398l-1.193-2.292l2.091-4.97l-2.284-1.889l-3.979,0.196
				l-1.192-1.492l-2.492-0.695l-2.983,1.991h-2.283l-0.402-1.689l-3.975-1.496l-0.302-1.391l-1.887-0.601l-1.692-1.684l-2.09-2.093l-2.49-1.39l-3.973-1.693"/>
			<text transform="matrix(1 0 0 1 463.3955 446.4072)"><tspan x="0" y="0" style="fill:#000000;stroke:none;">Honduras</tspan></text>
		</g>
		<g>
			<path d="M374.46,437.563v-1.493l1.593-1.588l-2.188-2.987l10.148-16.613l24.467,1.195l0.293-3.281l0.998-2.188l-3.08-2.584l-1.493-1.496L405,404.937l-1.695-2.685l-4.076-2.685l-1.691-0.995l-3.977-5.271l-1.992-0.996l7.66-0.401l1.394-10.834l34.316,1.692v4.374
				l-1.298,17.999l-1.288,16.015h4.766l1.898,1.296l2.485,1.192l1.091,2.086l2.487-2.678l-1.292-1.3h1.292l4.972,3.488l0.597,0.489l-11.436,8.657l-7.46,3.978l0.6,1.292l-1.593,2.293l1.391,3.275l-0.6,2.29l-0.989-0.199l-2.984,2.884l-3.681,0.395l-0.498,0.801
				l0.897,2.488l-3.781,2.29l-0.996,1.486l-1.696-0.601l-4.968,3.881l-0.599,2.49l-0.097,0.1l-8.652-4.479l-13.028-0.793l-4.883-2.387l-12.426-10.048l-0.896-0.996h0.096l1.494-2.287l-0.598-3.581l1.193-1.389z"/>
			<text transform="matrix(1 0 0 1 376.6646 434.8926)"><tspan x="0" y="0" style="fill:#000000;stroke:none;">Guatemala</tspan></text>
		</g>
		<g>
			<path d="M427.577,450.193l3.973,1.693l2.49,1.39l2.09,2.093l1.692,1.684l1.887,0.601l0.302,1.391l3.975,1.496l0.402,1.689h2.283l2.983-1.991l2.492,0.695l1.192,1.492l3.979-0.196l2.284,1.889l-2.091,4.97l1.193,2.292l-1.786,1.398l-0.7-0.404l-0.595,0.298v0.797
				l0.896,0.996l-3.388,2.487l-9.945-0.996l-1.489-1.491l-0.595,0.896l-6.165-1.997l-7.961-4.275l-9.353-1.486l-1.389-1.889l-4.077-2.189l0.097-0.1l0.599-2.49l4.968-3.881l1.696,0.601l0.996-1.486l3.781-2.29l-0.897-2.488l0.498-0.801l3.681-0.395z"/>
			<text transform="matrix(1 0.0041 -0.0041 1 415.2949 465.2295)"><tspan x="0" y="0" style="fill:#000000;stroke:none;">El Salvador</tspan></text>
		</g>
		<g>
			<path d="M451.447,371.72h0.396l-0.198-0.991h-3.682l-1.49,3.274l-1.685,1.886l-0.4,1.001l-3.088,4.374l-3.978-1.888l-1.991,0.895v1.394l-0.393,1.098v4.374l-1.298,17.999l-1.288,16.015h4.766l3.39-4.571l1.688-1.89h2.191l2.283-2.49l1.094-2.486l1.395-1.688
				l2.288-8.658l-1.396-3.086l1.988-5.661l-0.593-2.091l0.993-2.887l3.184-8.555l-0.597-3.677l-2.587-0.194h-1.587l-0.6-0.902l1.193-0.593z"/>
			<text transform="matrix(1 0 0 1 450.5732 399.9355)"><tspan x="0" y="0" style="fill:#000000;stroke:none;">Belize</tspan></text>
		</g>
	</g>
</svg>
