<?xml version="1.0" encoding="iso-8859-1"?>
<!DOCTYPE svg >

<svg  width="586.724pt" height="595.704pt" viewBox="0 0 586.724 595.704" xml:space="preserve">
	<g id="Layer_x0020_1" style="fill-rule:nonzero;clip-rule:nonzero;fill:#FFFFFF;stroke:#000000;stroke-miterlimit:4; font-family:'Arial'; font-size:10;">
		<g>
			<g>
				<path d="M234.511,425.459l-3.746,1.019l0.511,6.646l-4.081,4.595l-6.47,2.38l-6.807-1.357l-5.618-1.022l-3.739-2.385l-3.747,0.34l-3.574,1.531l-6.294,3.235l-7.66,0.85l-5.279,1.87l-3.573,0.854h-0.679l-2.044,0.85l-4.425,4.938l-6.975,0.678l-5.789,2.894
					l-3.4,3.918l-6.474,1.188l-4.081,0.85l-1.361,0.513l0.85,3.4l0.338,4.769l-3.909,4.253l-2.552,5.958l-3.067,2.721l-0.852,4.088l-1.36,2.21l-2.724,2.553l-0.339-0.168h0.339l0.68,0.677l1.875,5.45l3.572,2.213l5.957,8.34l0.513-3.234l5.441,1.702l1.364,2.726
					l-3.235,0.849h-3.57l4.936,6.125l2.381,4.081l1.703,2.047l1.871-0.684l0.681-1.363l1.19-0.167l5.103,1.53l6.296-1.53l4.259,0.507l4.422-1.187l3.576,0.847l1.872-2.04l2.724,2.214l2.72,1.873h4.087l-0.341,2.894l-3.4,1.531l3.4,1.191l5.109-0.682l4.763-1.362
					l4.081,4.083l5.108,2.214l-0.506-2.214l-0.856-7.487l-0.682-3.233l-2.887-1.363h-1.88l-3.058-1.699l-2.895-2.383l-2.21,0.342l-2.214-3.743l-3.236,0.168l-2.72-1.188l-3.238-0.518l-4.251-1.354l-1.871-2.045l3.4-1.024h2.218l1.701-0.508l0.851-1.365l-0.687-1.016
					l-1.699-3.4l0.337-3.069l3.238,0.17l1.703,1.873l-0.34,2.213l1.531,0.342l1.53-1.193l-1.021-2.553l-2.213-3.232l-2.725-2.552l-3.91-2.556l-2.044-4.937l-2.551-2.208l-1.193-4.087l-0.341-4.933l0.341-4.939l2.891-1.018l1.536-1.197l-0.85,2.728l0.509,1.021
					l4.591,2.209l3.576,1.876l2.555,4.254l3.912,2.891l1.706-1.526l-3.575-2.216l-1.194-3.571l1.361-0.51l3.574,0.848l2.382,2.894l3.065,2.556l-0.852-4.254l-4.083-2.043l1.022-3.237l2.211-0.169l3.228,0.681l2.728,1.528l1.531,1.025l-1.19-1.704l-1.53-1.702
					l-2.213-1.529l-5.105-1.192l-3.231-2.555l4.593-3.742l5.444-2.041l3.065-3.918l3.742,0.854l2.554-0.341l1.703-0.851l3.061-2.381l3.066,0.167h2.551l10.721,1.362l3.572,2.043l2.725-5.276l0.339-5.276l-0.168-5.106l3.237-3.229l-0.341-3.746l-3.407-2.216
					l-1.189-1.702z"/>
				<path d="M123.891,497.11l0.165-1.358l-1.867-2.722l-1.702-3.237l-2.217-1.529l-2.553,1.021l3.576,5.955l2.554,2.384l2.044-0.513"/>
				<path d="M139.717,528.088l0.507-2.896l-2.72-1.699l-1.019-3.406l-1.874,1.194l-2.381,2.551l-0.173,0.34l1.876,1.362l1.019,1.361l2.719,0.172l2.046,1.021z"/>
				<path d="M164.564,519.916l-2.382,0.514l-2.386,0.514l-4.764,3.912L152.141,524l-3.573,6.98l-0.685,3.229l2.893,4.429l5.616,1.871l3.069,4.255l-1.198,5.958l1.364,4.599l2.042,1.867l3.063,0.681l0.511-3.743l2.212-3.234l1.702,2.216l3.067,2.214l2.381,5.438
					l0.85,3.919h1.703l0.51-2.214l0.514-5.103l3.057-1.702l2.556,3.233l3.232,2.379l3.233,1.192l-1.532-7.829l-3.911-9.871l-3.063-3.573l-1.533-4.084l1.533,0.342l2.722,1.357l2.721,1.535l0.848,2.043l1.707-0.517l2.213-2.552l3.064-0.678l-1.024-2.553l-2.04-0.854
					l-2.72-1.358l-1.703-3.065l-1.535-1.868v-2.724l-3.4-1.191l-9.026-2.041l-4.423-0.854l-2.039,0.173l-1.535-1.534l-1.018-0.852z"/>
				<path d="M235.196,544.938l2.551-0.683l-0.343-5.449l-1.193,0.175l-0.853,0.51l-1.528,2.211l0.511,2.896l0.854,0.341z"/>
				<path d="M223.107,528.597l1.025-1.364l-0.513-2.55l-0.851-1.19l-2.554-1.364l-2.551-0.34v1.704l2.04,1.699l2.386,3.405h1.018z"/>
				<path d="M240.977,511.579l1.361-0.683l0.68-1.02l0.176-3.572l-0.345-2.726l-1.021-1.361l-3.914,0.174l0.169,2.892l2.727,2.215l-1.363,2.379l0.169,1.702h1.359z"/>
				<path d="M248.634,489.964h2.041l-2.378-3.404l-2.386-3.063l-2.038-1.872l-2.555,1.872l-2.385,1.361l-2.893,2.039l-0.509,3.067h2.553l2.383-1.701l2.045-0.682l-1.195,3.912l3.238,0.855l2.717-2.214l-0.167-1.193l1.529,1.022z"/>
				<path d="M223.02,474.905l-0.251-1.449l-0.514-1.366h-2.212l-2.55,1.029l-0.342,3.398l1.361,0.681l0.848-1.359h0.854l1.875,0.51l0.931-1.443z"/>
				<path d="M208.814,458.649l1.703-1.023l-1.024-0.85l-0.51-2.213l-1.703-0.509l-2.553,3.236l0.514,1.358l2.21,0.68l1.363-0.68z"/>
				<path d="M214.43,519.573l1.021,1.026l-0.513-3.065l-3.917-0.171l-2.038-0.509l-2.723-4.766l-0.343-2.896l-2.212-1.872l-5.45-0.336l-3.909-1.19l-3.575-2.216l-2.553-2.213l-0.678-1.358l-2.214,0.167l-3.067,3.235l-1.189,1.873h0.852l2.553-0.34l2.721,1.87
					l1.871,1.361l3.75,2.041l0.848,2.721l3.234,1.193h4.257l4.084,2.215l1.532,2.041l1.361,2.896l2.21,1.531h2.043h2.55l-0.507-3.239z"/>
			</g>
			<text transform="matrix(1 0 0 1 136.1924 491.4614)"><tspan x="0" y="0" style="fill:#000000;stroke:none;">Greece</tspan></text>
		</g>
		<g>
			<path d="M233.491,582.886l-3.063-0.681l-3.578,1.021l-7.49,2.212l-2.722-1.533H214.6l0.507-2.213l-1.701-1.529l-1.869,2.216l-4.424-1.7h-1.362l-0.509,2.888l-2.218-0.34l-0.168,7.995l2.041-0.505l3.238-0.173l3.569-1.021l4.597-0.339l3.232,0.339l2.384,0.175
				l2.383,1.358l3.236,0.512l2.38,3.571l5.957-1.359l3.745-1.873l3.232-0.339l2.894-1.023l4.085-1.021l3.234-1.362l4.081,1.362l2.383-6.126l-0.853-1.532l-2.206,1.532l-1.875,0.685l-2.724,1.527l-3.236-0.675l-2.208-2.555l-3.913,1.018l-2.557,0.17l-3.745,0.683
				l-2.72-0.344v-1.02z"/>
			<text transform="matrix(1 0 0 1 208.4902 577.9604)"><tspan x="0" y="0" style="fill:#000000;stroke:none;">Cyprus</tspan></text>
		</g>
		<g>
			<g>
				<path d="M291.693,555.825l1.533-0.847v-2.044l1.021-2.724l0.168-4.085l-1.871,0.851l-3.062,2.214l-4.425,5.277v2.04l0.848,3.915l2.725-1.529l3.063-3.068z"/>
				<path d="M264.124,417.124l-2.556,0.173l-7.312,2.21l-6.469-1.877l-6.299,3.578l-4.426,1.533l-1.531,1.871l-1.021,0.848l1.189,1.702l3.407,2.216l0.341,3.746l-3.237,3.229l0.168,5.106l-0.339,5.276l-2.725,5.276l0.854,1.189l2.724,0.853l11.061-3.063l-2.212,2.89
					l-4.593,2.557l-3.235,2.891v2.211l0.683,4.938l2.552-1.702l1.526-3.915l3.066-3.234l3.404-3.571l4.083-3.575l5.106-5.957l2.384-3.912l3.908-1.021l3.58-1.363l5.106-1.189l4.594-0.683l3.062,0.852l4.598-2.379l1.361-3.063l-0.848-3.068l-3.234,0.515l-5.96-0.851
					l-5.105-1.197l-3.066-1.528l-2.889-2.555l-1.704-3.401v-2.554"/>
				<path d="M426.328,508.85l2.74-1.194l7.154-9.701l2.84,5.324l-4.119,8.995l4.622,6.963l0.809,0.021l5.41-0.84l1.346-6.296l5.037-2.405l-3.83-5.298l0.5-7.337l0.201-0.049l0.009-0.164l5.229-1.423l5.486,1.479l5.496-1.078l4.47-2.793l4.111-3.847l0.887-0.4
					l0.024-0.019l5.579-2.578l5.532,1.684l5.544,0.829l5.011-0.236l3.849-1.919l5.045-2.405l5.206-3.477l4.112-3.842l5.059-4.063l1.513-0.352l0.672-0.544l6.245-1.452l5.91-1.153l5.604-1.52l4.952-2.63l4.045-4.757l6.7,2.261l0.241-0.055l6.324-9.103l8.027,0.894
					l9.933-1.486l1.926-0.725l0.083,0.022l2.857-1.081l1.424-2.871l-4.007-5.641l-5.636-8.789l-3.217-11.219l-2.705-9.053l-4.806-7.754l4.064-4.031l4.829-7.238l1.675-1.631l-1.169-1.038l-1.646-1.062l-6.847-3.56l-7.223-1.824l-5.663-7.145l-5.536-10.882
					l-3.673-2.346l-0.561,0.083l-2.481,0.8l-4.075-1.607l-4.979-4.564l-6.264-0.479l-4.163,2.245l-2.579,0.599l-0.748,0.409l-7.628,1.772l-2.419-1.09l-5.806,6.269l-8.727,10.697l-9.95,4.583l-10.952,0.272l-9.954,4.588l-10.178,4.436l-9.891-2.045l-6.91,3.88
					l-10.569-4.141l-0.389-0.473v-0.236l-8.472,2.325l-8.875-7.768l-11.825,2.613l-3.745-3.231l-0.677-2.385l-2.045-0.336l-2.214,1.016l-3.235,3.069l-5.614,1.705l-6.127,1.866l-7.317,1.196l-5.279,1.701L354.662,395l-7.487,5.612l-3.402,3.403l-2.719,3.745
					l-4.091,2.556l-2.888,4.424l-3.572,2.889l-1.197,4.771l-3.91,3.232l-3.577,0.175l-3.743,0.334l-1.365,0.849l-2.551-0.676l-3.743-0.173l-3.574,1.02l-4.596,1.021l-4.426,1.026l-4.594-0.515l-3.066,0.683l-0.505-1.019l-1.193,3.911l-0.339,2.38l2.038,0.684
					l1.192,1.871l1.534,0.171l1.193,1.192l1.53-0.17l3.061-0.514l1.873-1.018l2.722,0.169l0.515,1.532l-6.813,1.872l-3.404,1.02l-4.255,1.022l-3.058,2.212l0.85,1.021h2.892l0.684,2.21l-4.089,1.364l-9.186,1.531l-4.259,1.531l-2.38,0.341l-0.173-1.872l-2.039-0.681
					l-3.067,0.17l0.684,1.702l1.361,2.726l-3.742,0.847l-4.259-0.508l-2.041-1.53l-4.769,2.72l-2.207,0.172l-2.213,0.172l-1.871,3.406l-2.217,2.886l-1.696,3.917l-1.876,0.852l-1.019,3.573v6.978l0.51,1.531l2.042-0.17l2.721-0.509l3.576-0.684l2.044-0.853
					l3.059-1.359l1.198,1.531l-2.732,3.404l0.178,3.744l2.72,2.217l0.17,2.209l2.384,1.702l1.023,1.874l-2.213,2.719l-0.171,2.557l2.046,2.717l4.252,0.858l0.847,0.844l-4.078,0.855l-2.896,1.021l-2.211-0.34l-3.067-4.94l-1.357-0.338l-0.512,2.04l0.848,1.873v3.237
					l-2.208,1.187l0.338,1.197l2.214,1.53l1.874,0.677l1.529-0.506l1.528-0.687l2.901,1.535l1.867,0.338h3.064l2.38,1.024l2.216,2.895v3.063l-2.041,1.871l2.041,2.215l1.018-0.341l1.365-1.193l2.384-0.511l-0.516,1.704l-1.696,1.703l0.169,2.724h2.043l1.361,0.508
					l1.7,1.529l1.361,0.857L274.843,532l-1.528,1.873l1.19,1.7l8.511-1.529l3.065-1.537l3.91-1.525l2.895-0.34l-0.852,2.043l-2.727,2.041l-0.504,1.022l-2.046,1.701l-4.766,0.852l-3.063,2.38l-1.527,3.233l3.402-1.529l8-4.084l1.021,1.016l-0.853,2.727h1.02
					l2.895-3.062l0.511-1.874l2.383-1.021l2.891-0.854l0.853,0.174l2.555,2.044l3.404,1.357l1.359-0.339l-0.513-1.188l0.679-1.531l2.726,0.511l0.344,1.526l2.383,4.766l3.741,2.556l3.741,1.193l3.748,0.166l4.085-1.021l4.593-3.06l3.916-1.875l2.894-1.361
					l-0.338-4.081l0.847-1.707l-0.847-4.421l0.338-3.065l3.067-0.682l3.061-1.528l6.297-0.516l3.399,0.853l1.532,0.854l10.214,1.873l3.912,1.36l2.556,1.193l2.212,2.21l4.426,2.895l3.74,0.166H387l2.895-2.211l3.063-1.534l3.233-1.868l4.05-1.147l7.612-10.445
					l5.867-10.03l11.643,1.608l0.965-0.074z"/>
			</g>
			<text transform="matrix(1 0 0 1 395.9868 452.7095)"><tspan x="0" y="0" style="fill:#000000;stroke:none;">Turkey</tspan></text>
		</g>
		<g>
			<path d="M14.456,153.328l2.721,1.194l1.702,1.018l0.683-1.53v-2.21l-2.042-0.852l-1.362-0.174l2.215-1.53l2.381-0.848l0.512,0.848l2.892-3.235l3.403-1.867l4.764-0.851l8.172-2.555l2.895-2.381l2.721-2.724l2.382-2.216l3.577-1.361l3.063-1.871l2.722-1.36
				l3.914-0.852l3.404-1.021l3.404-0.851l3.574-0.17l2.895,0.849l2.21,0.854l1.87,1.87l-0.336,1.702l-1.701-1.021l-1.533-1.02l-1.364-0.68l0.34,1.7l1.364,3.232l1.359,2.726l1.022,2.214l1.701,0.848l0.34-1.02l0.852-1.022l3.745-0.34l3.404-1.021l2.55-1.532
				l3.404,1.022l4.426,0.34l3.575,0.51l3.74,0.341l4.938,0.34l4.596-0.34l3.743-0.341l3.916-0.681l6.64-2.382l5.785-1.361l4.084,1.698l4.931,2.726l1.533,2.895l1.024,4.421l2.55,6.978l4.425,10.895l0.682,4.082l0.341,4.599l-2.551,4.762l-3.749,2.725l-2.379,3.743
				l1.868,2.724l4.43,3.063l0.167,3.572v4.082l0.173,3.406l2.042,3.401l0.848,3.406l1.874,3.234l0.683,1.534l0.68,0.851l3.233,2.72v3.241l2.21,3.913l-0.848,4.083l-4.422,4.937l-5.106,4.253l-3.579,5.788l-3.744,11.402v4.252l1.018,3.579l-2.884,0.849l-1.366-0.345
				l-2.894-0.504l-3.574-2.048l-2.381-2.38l-3.236-1.533h-3.913l-3.406,0.851l-2.721,1.531l-2.043,1.874l-3.063-1.874l-5.616,0.342l-2.382,3.061l-2.557,1.533l-2.379-0.508l-2.044-2.726l-2.892-2.72l-2.723-1.536l-2.722,1.536l-3.066,1.018l-4.591-2.039
				l-4.258-1.532l-3.574-4.428l-2.209-3.403l-2.726-1.192l-1.359,0.68l-2.552-2.038l-0.342-2.214v-2.212l-2.042-0.508h-3.576l-2.38-0.854l-2.552-1.021l-2.044-0.343l-0.169,1.705l0.852,1.529l-3.234,2.385l-2.042-0.852l-2.726-2.721l-2.725-2.212l0.684-1.193
				l0.509-1.871v-1.021l-0.339-0.338l-3.233-0.512l-2.552-3.405l-3.064-0.513l-2.892-0.507l-2.213,0.167l-1.534-2.726l-2.719-1.524l-1.874,1.702l-2.043,2.722l-1.871-1.193v-0.341l0.169-0.168l0.68-1.7l1.191-4.935l0.343-5.619l-0.343-1.192l-0.849-0.851
				l-1.702-2.215l-1.7-2.208l-0.512-3.917l-0.171-2.717l0.171-2.729l-0.512-4.426l-0.683-2.554l-0.17-3.228l-0.336-3.238l-0.513-2.38l-2.041-1.702l-1.703-1.194v-1.874l1.022-3.4l1.702-3.232l0.337-3.066v-4.425l-1.021-2.041l-1.019-2.385l-0.681-2.552z"/>
			<text transform="matrix(1 0 0 1 64.7012 196.0752)"><tspan x="0" y="0" style="fill:#000000;stroke:none;">Poland</tspan></text>
		</g>
		<g>
			<path d="M81.339,251.531l-4.635,1.06l-4.68,6.17l-0.214,4.042l-7.02,7.445l-4.256,0.214l-3.701,5.231L57,279.782l1.876,6.296l2.04,3.402l0.171,0.681l1.702,0.852l2.211,1.192l5.616,3.915l1.874,1.19l3.064-0.342l2.892-0.17l2.044-0.341l1.867,0.173l1.705-0.343
				l1.191-2.038l0.51-0.512l2.042-3.231l4.257-1.366l4.594-1.873l4.425-2.892l5.103,1.188l3.746-2.38l2.891-1.021l1.189-3.574l4.601-2.895h4.933l3.407-1.021l4.595,0.853l5.274,2.724l3.401-1.189l0.343-1.534l0.172-2.554l0.676-2.894l0.512-2.723l1.023-3.232
				l0.85-2.895v-2.044l-2.894-0.504l-3.574-2.048l-2.381-2.38l-3.236-1.533h-3.913l-3.406,0.851l-2.721,1.531l-2.043,1.874l-3.063-1.874l-5.616,0.342l-2.382,3.061l-2.557,1.533l-2.379-0.508l-2.044-2.726l-2.892-2.72l-2.723-1.536l-2.722,1.536l-3.066,1.018
				l-4.591-2.039l-4.258-1.532z"/>
			<text transform="matrix(1 0 0 1 78.6421 272.7681)"><tspan x="0" y="0" style="fill:#000000;stroke:none;">Slovakia</tspan></text>
		</g>
		<g>
			<path style="stroke-linecap:round;stroke-linejoin:round;" d="M353.303,188.899l1.875-1.359l2.208,0.336l2.213-1.189l6.979-6.127l2.38-0.167l6.812,6.463l3.909,2.212l2.216-0.848l0.171-2.385l2.209-0.681l2.044,1.362l2.211-0.508l2.386,0.337l2.042,1.02
				l2.217-0.849l1.822-0.92l4.441,1.212l2.093-0.86l4.322,1.638l2.479-0.411l2.067-0.965l2.236,0.581l-1.541,1.792l4.495,5.546l-0.762,4.778l-2.036,1.15l-1.837,1.396l1.931,1.342l2.416-0.395l1.947,1.333l-1.916,1.529l-1.994,1.26l0.36,4.592l1.985,1.227
				l1.593,1.794l0.262,2.39l2.334,0.38l1.299,12.025l-1.826,1.607l-2.4,0.045l-2.33,0.521l-2.054,1.257l-2.375-0.503l-2.405-0.283l-2.278,6.853l-2.023,1.425l-1.792,1.773l-0.552,4.781l1.087,2.249l-8.204,4.573l-2.212,1.533l-1.874,3.742l-2.209,0.344l-1.872,2.215
				l-2.723,2.038l0.167,3.402l-4.086-0.852l-5.44,5.279l-0.514,1.532l-0.851-1.362l-2.726,2.043l-2.212,0.85l-1.356,2.215l-1.874,3.573l-1.021,0.339l-0.681,3.743l-1.362,3.915l-1.871,1.531l0.338-1.704l1.533-1.528l0.851-1.872l-1.189-2.21l-1.364-1.704
				l-1.358,0.512l0.166,1.527l-0.341,3.065l-1.19,1.871l-0.849,2.043l2.039,3.913l0.68,2.724l-1.357,0.511l-0.171-1.192l-2.722-2.89v-1.194l-1.024-1.021l-1.531,2.044l-0.681,2.213l-0.677-0.34l0.339-1.873l-1.19-1.023l-2.045,0.854l-1.869,0.34l-0.514-0.514
				l-0.85-2.552l-1.533-1.192l0.514,4.258l-0.514,0.685l-1.359,0.163l-3.572-0.681l-0.855,0.341l1.707,0.682l1.866,1.363l1.194-0.679l1.02,0.335l1.193,1.362l0.681,1.702l1.531,0.852l0.343-0.852l-0.171-2.043l1.531,0.174l1.359-0.34l1.701,0.68l1.536-0.68
				l-0.171,4.083l0.676,0.51l1.875-1.532l0.682,0.174l0.34,2.89l2.039-1.19l1.533-0.341l2.554,1.706l1.192,3.569l1.531,2.384l0.512-1.534h4.421h1.368l-0.174-2.039l4.083,1.531l2.215-4.936l1.363-0.682l1.019,1.531l2.039-2.041l3.578-2.213l3.575-0.512l0.336,2.555
				l-1.018,1.531l0.34,2.216l0.848,2.041l0.175,1.188l-0.681,0.682l-4.596,1.364l-0.513,0.512l-0.342,0.848l-3.23,0.343l-2.726-0.515l-4.255,0.172l-2.037,3.573l-1.877,3.232l-1.703,3.578l-3.915,0.341l-2.551,1.53l-1.532,1.024l2.047,0.508l-2.047,1.017
				l-0.854,2.557v1.529l-0.505,1.191l-2.042,0.854l-2.728,3.064l-5.271,1.189l-1.021-0.171l-4.26-1.876l0.683-2.544l-0.855-3.071v-2.723l-1.187-2.72l-2.379-2.895l-2.049-0.172l-2.212,1.022l-2.892-1.87l-3.917-1.19l-1.869,0.68l-3.067,0.511l-0.505-0.686
				l0.679-2.207l2.554-2.213l0.681-1.536l2.047-3.57l2.211-2.551l1.361-0.854l3.571-2.042l2.72-1.702l1.025-1.19l-1.531-0.341l-0.683-2.214l-2.554-1.358l-1.021,2.381l-2.048-0.341l-1.357-0.512l-0.512-1.188l-1.362,1.019l-1.019,0.34l-0.17,1.191l-2.038,0.345
				l-4.942,2.546l-1.355,0.855l-3.063-0.169l-2.046-0.343l-1.024-0.85l-1.355-0.682h-1.874l-3.406,1.188l-0.68-1.188l3.236-3.913l-0.685-0.68l-4.764,0.507l-1.873-0.341l2.217-1.703l4.42-0.338l3.064-0.173l-0.34-1.53l-1.872,0.174l-2.725-2.213l-2.039-2.556
				l-0.343,2.213l-1.868,1.701l-2.554,1.534l-0.171-3.062l-1.532,1.871l-2.896,2.553l-2.213,0.851l-2.38,1.191l-1.703,1.529l-2.044,0.852l0.342,2.72l-1.36,3.576l-1.02,2.386h-1.193l-1.53-2.214l-1.364-0.343l-1.192,0.343l-1.525-0.85l1.184,1.868l3.239,1.705
				l1.359,3.065l-1.197,3.569l-1.184,2.043l-1.876,0.51l-2.21,0.514l-0.341,1.706l-1.703,1.183l0.342,2.218l-1.704-0.345l-0.849-2.893l-0.851-1.021l1.188,5.788l0.85,2.551l0.68,1.876l-0.847,0.506l-1.871-0.506l-2.556,0.34l-2.549,1.701l-4.426,1.702l-2.722,3.063
				l-3.407,0.681l-1.36-1.366l1.536-2.548l-0.176-2.383l0.342-2.552l2.04-1.704l-0.168-2.551l1.359-2.043l2.045-1.534l-0.17-2.549l-0.341-2.387l-0.172-2.549l0.684-2.557l2.044-1.529l1.695,1.87l1.879-1.701l2.383,0.341l2.379-0.341l2.554,0.341l1.702-1.873
				l0.512-2.382l-1.36-2.04l-0.172-2.554l-0.856-2.215l-1.53-1.698l-2.551-0.512l-2.211-0.851l-1.365-2.042l-1.7-1.704l0.172-2.553l-1.36-2.215l-2.384,0.176l-1.533-1.704l-2.216-1.358v-2.557l-0.168-2.382l-0.334-2.213l-0.518-2.382l-1.699-1.874l-2.042,1.021
				l-2.043-1.533l-2.037-1.017l-2.386-0.176l-2.381,0.682l-2.046,1.021l-2.378-0.169l-2.386-1.022l-1.87-1.535l-2.046-1.015l-2.379-0.853l-2.552-0.341l-2.388-0.34l-2.379,1.021l-1.871,1.528l-2.382,0.686l-2.385-0.167l-2.211,2.379v0.17l-1.875-1.191l-4.254,0.51
				l-9.021,7.658l-4.933,0.853l-4.594,2.041l-4.257,3.914l-3.063-1.19l-3.578-2.382l-4.422,0.854l-4.425,1.869l-7.149,0.17h-5.276l-4.934,0.507l-2.211,1.026l-1.533-3.065l-2.72-2.04l-3.747-2.388l-4.597-1.696l0.343-1.534l0.172-2.554l0.676-2.894l0.512-2.723
				l1.023-3.232l0.85-2.895v-2.044l1.366,0.345l2.884-0.849l-1.018-3.579v-4.252l3.744-11.402l3.579-5.788l5.106-4.253l4.422-4.937l0.848-4.083l-2.21-3.913v-3.241l-3.233-2.72l-0.68-0.851l-0.683-1.534l-1.874-3.234l-0.506-2.214l0.166-0.339l3.064-3.229
				l2.211-0.681l2.213,0.167l1.874-1.19l1.873-1.36l1.532-1.534l0.34-2.212l1.871-1.191l2.212-0.512l2.043-1.021l2.042-0.168l2.045-0.854l2.208-0.511l2.047,0.511l2.212-0.511l2.381-0.17l2.044-0.678l2.212,0.511l1.868,1.021l2.215,0.17l2.214,0.338h2.211
				l2.042-0.849l2.042,0.849h2.213l2.043,0.852l0.851,2.042l1.869,1.191l2.044-0.85l2.211-0.341l0.68,2.043l1.874,1.024l1.531-1.537l1.873-1.19l2.216-0.511l1.358-1.873l1.872,1.023l2.213,0.165l2.043-0.845l1.531,1.53l2.21,0.683l1.021-1.875l2.388-3.572
				l2.043,0.848l1.866,0.854l1.362,2.043l1.872,0.851l1.704-1.535l2.214-0.34l4.083-1.873l2.212-0.337l2.212,0.512l1.701,1.359l2.044-1.022l0.51-2.04l-1.023-2.043l-0.508-2.214v-2.213l-0.509-2.21l0.509-2.039l1.191-2.046l1.192-1.7l1.021-2.041l1.869-1.364
				l2.043-0.509l1.704-1.534l2.211-0.17l2.042-0.51l0.855-0.17l0.166-0.509l1.704,1.022l2.211,0.167l1.701-1.533l0.855-1.87v-2.381l1.525-1.705l4.598-0.169l2.211-0.681l1.706-1.36l2.041-1.019h2.214l2.212-0.513l1.699-1.19l2.046-0.849l4.081,1.699l1.534,1.704
				l0.682,2.042l5.784,3.402l0.679,2.386l-1.702,1.696l-2.034,0.854l1.358,1.703l2.889,5.783l2.212,0.856l6.809,0.167l1.703-1.529l2.212-0.513l1.365,1.701l2.037,1.024l1.703,1.362l4.257,6.639l-0.168,2.381l1.361,1.872l4.422,1.53l1.702-1.698l2.041-1.022
				l2.211-0.17l4.088,1.872z"/>
			<text transform="matrix(1 0 0 1 263.168 236.6948)"><tspan x="0" y="0" style="fill:#000000;stroke:none;">Ukraine</tspan></text>
		</g>
		<g>
			<path style="stroke-linecap:round;stroke-linejoin:round;" d="M275.354,165.244l-0.166,0.509l-0.855,0.17l-2.042,0.51l-2.211,0.17l-1.704,1.534l-2.043,0.509l-1.869,1.364l-1.021,2.041l-1.192,1.7l-1.191,2.046l-0.509,2.039l0.509,2.21v2.213l0.508,2.214
				l1.023,2.043l-0.51,2.04l-2.044,1.022l-1.701-1.359l-2.212-0.512l-2.212,0.337l-4.083,1.873l-2.214,0.34l-1.704,1.535l-1.872-0.851l-1.362-2.043l-1.866-0.854l-2.043-0.848l-2.388,3.572l-1.021,1.875l-2.21-0.683l-1.531-1.53l-2.043,0.845l-2.213-0.165
				l-1.872-1.023l-1.358,1.873l-2.216,0.511l-1.873,1.19l-1.531,1.537l-1.874-1.024l-0.68-2.043l-2.211,0.341l-2.044,0.85l-1.869-1.191l-0.851-2.042l-2.043-0.852h-2.213l-2.042-0.849l-2.042,0.849h-2.211l-2.214-0.338l-2.215-0.17l-1.868-1.021l-2.212-0.511
				l-2.044,0.678l-2.381,0.17l-2.212,0.511l-2.047-0.511l-2.208,0.511l-2.045,0.854l-2.042,0.168l-2.043,1.021l-2.212,0.512l-1.871,1.191l-0.34,2.212l-1.532,1.534l-1.873,1.36l-1.874,1.19l-2.213-0.167l-2.211,0.681l-3.064,3.229l-0.166,0.339l-0.342-1.192
				l-2.042-3.401l-0.173-3.406V190.6l-0.167-3.572l-4.43-3.063l-1.868-2.724l2.379-3.743l3.749-2.725l2.551-4.762l-0.341-4.599l-0.682-4.082l-4.425-10.895l-2.208-5.955h1.187l2.042,0.171l2.046,0.34l2.04-0.681l1.872-0.854l4.084,0.171l1.871-1.02l1.195-1.534
				l2.041,0.513l2.045-0.513l-1.366-3.404v-0.168l1.703-1.02l2.042-0.341l1.193-1.703l1.702-1.359l2.041,0.337l1.36,1.532l1.877,0.684l1.868-1.022l-0.677-2.043l-1.53-1.362l-1.195-1.702l0.171-2.043l0.85-1.87l0.85-1.872l-0.336-2.213l0.165-2.042l-0.503-2.042
				l0.167-2.044l1.699-1.359l1.876-0.683l1.191-1.702l1.703-1.192l1.869-0.338l1.193-0.17l1.531-4.934l-1.869-0.514l-2.214,0.34l-0.342-1.87l-0.167-2.043l1.53-1.19l1.194-1.701l-0.174-0.511l-0.17-0.342l1.194,0.172l1.533-1.362v-2.043l1.53-1.533l2.041,0.173
				l2.046,0.679l1.866-0.679l1.026-1.872l0.677-1.704l0.346-2.214l1.02-1.53l1.188-1.704l1.536-1.528l1.869-0.682h0.683l0.678,2.042l3.745-1.532l1.868,0.513l1.535,1.359l5.623-1.359l2.375,1.188l1.026,0.342l0.675,4.937l1.534-1.022l1.36-1.533l1.87-0.68
				l1.197-1.532l1.873-0.681l1.87-0.513l2.042-0.167l1.873,0.68l4.767,3.743l2.04-0.171l0.855,2.726l-0.174,2.043l0.508,2.04l1.536,1.191l1.02,1.702l0.168,4.083l-1.36,1.704v2.042l1.018,1.702l3.403,2.212l1.023,1.874l5.107,6.466l1.531,1.36l2.04,0.851
				l2.046,0.513l1.701,1.188l0.683,1.876l0.339,2.209l1.188,1.533l3.919-1.533l2.039-0.68l1.873,0.851l2.042,0.171l-0.171,2.043l1.707,1.361l2.04-0.339h0.34l1.189,3.401l-1.363,1.7l-0.678,2.046l-4.081,4.933l-4.259,0.513l-3.742-1.873l-2.042,0.339l-1.702,1.191
				l0.17,2.213l-1.703,1.189l0.681,2.045l1.704,1.189l2.039,0.851l1.019,1.874l-0.165,2.213l1.698,1.192v2.04l2.044,0.68l1.362,1.875l0.339,2.043l2.724,5.445z"/>
			<text transform="matrix(1 0 0 1 187.9668 147.9575)"><tspan x="0" y="0" style="fill:#000000;stroke:none;">Belarus</tspan></text>
		</g>
		<g>
			<path style="stroke-linecap:round;stroke-linejoin:round;" d="M112.487,112.995l-0.513-2.042h-0.512v-2.041l-0.34-1.873l-0.85-2.892l-0.851-2.554l-0.85-1.872l-0.339-1.534l-0.514-2.211l1.191,0.34l2.044,0.512l1.533-1.363l0.678-1.872l1.193-1.702l1.699-0.85
				l1.532-1.362l1.873-0.85l1.707-0.851l1.868-0.854l1.872-0.341l2.045-0.34l2.04,0.173l1.872,0.68l1.871-0.172l1.703-1.021l1.874,0.34l1.871-0.85l2.041-0.171l1.873,0.342l1.871-0.342l1.876,0.513l2.04,0.508l1.872,0.51l2.045,0.343l1.874-0.513l1.7-0.848
				l1.359-1.533l1.025-1.871l1.869-0.682l1.535,1.019l1.021,1.876l1.018,1.699l1.191,1.705l1.876,0.339l2.039-0.339l1.876-0.513l1.866,0.852l1.707,1.191l1.699,0.85l1.703,0.682l5.448,4.766l2.037,0.34l1.704,0.85h0.85l0.17,0.342l0.174,0.511l-1.194,1.701
				l-1.53,1.19l0.167,2.043l0.342,1.87l2.214-0.34l1.869,0.514l-1.531,4.934l-1.193,0.17l-1.869,0.338l-1.703,1.192l-1.191,1.702l-1.876,0.683l-1.699,1.359l-0.167,2.044l0.503,2.042l-0.165,2.042l0.336,2.213l-0.85,1.872l-0.85,1.87l-0.171,2.043l1.195,1.702
				l1.53,1.362l0.677,2.043l-1.868,1.022l-1.877-0.684l-1.36-1.532l-2.041-0.337l-1.702,1.359l-1.193,1.703l-2.042,0.341l-1.703,1.02v0.168l1.366,3.404l-2.045,0.513l-2.041-0.513l-1.195,1.534l-1.871,1.02l-4.084-0.171l-1.872,0.854l-2.04,0.681l-2.046-0.34
				l-2.042-0.171l-1.187-0.169l-0.342-0.854l-1.024-4.421l-1.533-2.895l-4.931-2.726l-4.084-1.698l-1.022,0.337v-0.677l-0.343-2.044l-0.166-2.042l0.678-2.043l0.342-2.211l-1.021-1.7l-2.213-3.576l-1.875-1.021l-2.044,0.511l-1.867,0.338l-2.212-0.167h-2.044
				l-1.876-0.51l-1.701-1.192l-2.042-0.342l-1.531-1.359l-1.873,0.342h-0.51l0.173-1.365z"/>
			<text transform="matrix(1 0 0 1 121.5742 109.8149)"><tspan x="0" y="0" style="fill:#000000;stroke:none;">Lithuania</tspan></text>
		</g>
		<g>
			<path style="stroke-linecap:round;stroke-linejoin:round;" d="M205.75,81.34h-0.683l-1.869,0.682l-1.536,1.528l-1.188,1.704l-1.02,1.53l-0.346,2.214l-0.677,1.704l-1.026,1.872l-1.866,0.679l-2.046-0.679l-2.041-0.173l-1.53,1.533v2.043l-1.533,1.362
				l-2.043-0.172l-1.704-0.85l-2.037-0.34l-5.448-4.766l-1.703-0.682l-1.699-0.85l-1.707-1.191l-1.866-0.852l-1.876,0.513l-2.039,0.339l-1.876-0.339l-1.191-1.705l-1.018-1.699l-1.021-1.876l-1.535-1.019l-1.869,0.682l-1.025,1.871l-1.359,1.533l-1.7,0.848
				l-1.874,0.513l-2.045-0.343l-1.872-0.51l-2.04-0.508l-1.876-0.513l-1.871,0.342l-1.873-0.342l-2.041,0.171l-1.871,0.85l-1.874-0.34l-1.703,1.021l-1.871,0.172l-1.872-0.68l-2.04-0.173l-2.045,0.34l-1.872,0.341l-1.868,0.854l-1.707,0.851l-1.873,0.85
				l-1.532,1.362l-1.699,0.85l-1.193,1.702l-0.678,1.872l-1.533,1.363l-2.044-0.512l-1.191-0.34l-0.508-3.063l-1.023-2.724v-1.191l0.171-1.873v-3.232v-5.958l0.682-2.381l0.679-1.702l1.704-2.893l0.683-3.233v-3.576l1.188-3.741l2.042-3.064l2.042-1.702l2.724-0.853
				l2.551-1.529l2.557-1.193l0.511,0.85l1.53,2.212l2.553,2.385l2.555,2.043l0.849,2.551l1.023,1.531v-1.36v-1.192l1.703,3.746l1.527,1.701l4.257,1.701l1.19-0.17l3.575-2.211l0.166,1.361l1.365,1.531v-3.743l1.02-1.875l0.682-1.871l-0.34-3.574l-1.193-8.509
				l0.343-0.169l3.744-1.024l1.19-1.36l1.53-1.362l2.045-0.511l1.874-0.51l2.042-0.682l1.868,0.172l2.048,0.167l1.7,0.853l1.531,1.021l2.042,0.339l1.701,0.513l1.186,1.36l0.344,0.513l5.789,3.742l1.874-0.17l1.703-1.19l1.703-0.681l1.87-0.511l1.87,0.342
				l1.868,0.169h0.346l1.703,1.361l1.189,1.532l1.874,0.678l1.19,1.534l0.682,1.702l-0.173,3.915l-0.509,3.915l2.041,0.17l1.869,0.851l0.177,1.872l4.082,4.426l0.85,2.041l1.198,1.533l1.189,5.615z"/>
			<text transform="matrix(1 0 0 1 154.2891 76.3066)"><tspan x="0" y="0" style="fill:#000000;stroke:none;">Latvia</tspan></text>
		</g>
		<g>
			<g>
				<path d="M126.44,30.451l-1.361-0.168l-3.404,1.02l-3.062,0.172l-1.196,2.554l-1.361-0.172l-1.021,1.021l-2.212-0.682l0.171,2.214l0.339,1.359l-0.169,0.512l0.169,1.363l1.702,1.532l1.361,0.68l0.342,1.702l-1.189,2.213v1.702l1.705-2.724l1.359-3.063
					l0.169-1.873l0.34-0.852l1.194,0.172l1.53,0.511l1.191-0.171l1.018-0.512l0.684-1.872l2.384-1.36l0.846-1.361l1.878-0.681l-0.341-0.853l-1.36-0.85l-0.855-1.023l-0.851-0.169v-0.342z"/>
				<path d="M118.783,21.263l-0.34,1.702l-0.681,0.169l-1.365,0.169l-1.7,0.513l-0.684,0.852l0.854,0.509l2.043-0.171l1.189,1.533l0.854,2.209l1.698-0.338l0.854-2.212l1.704-1.192l2.211-0.68l-0.339-2.042l-1.361-1.021l-1.364-0.513l-1.359-1.018h-1.192
					l-0.68,1.018l-0.34,0.513z"/>
				<path style="stroke-linecap:round;stroke-linejoin:round;" d="M187.879,48.494l0.511,1.701h-0.346l-1.868-0.169l-1.87-0.342l-1.87,0.511l-1.703,0.681l-1.703,1.19l-1.874,0.17l-5.789-3.742l-0.344-0.513l-1.186-1.36l-1.701-0.513l-2.042-0.339l-1.531-1.021
					l-1.7-0.853l-2.048-0.167l-1.868-0.172l-2.042,0.682l-1.874,0.51l-2.045,0.511l-1.53,1.362l-1.19,1.36l-3.744,1.024l-0.343,0.169l-0.337-2.725l0.337-2.893v-2.722v-3.066l0.343-2.72l-0.343-1.193l-1.533-0.339l-1.697,0.339l-0.508,1.873l-1.704,1.36
					l-1.533-1.871l-1.36,0.341l-1.704-0.341l-1.361-2.384l-1.531-1.873l-0.684-2.213l0.684-2.38l0.853-0.17l1.358-0.51l-0.337-0.682l-3.234-0.169v-0.511v-2.382l0.508-0.682l-0.681-1.192h-0.85V18.37v-1.19v-1.871l1.023-1.023l2.55-0.852l1.703-1.192l1.529-0.338
					v-1.191l0.684-0.851l1.7-0.852l1.534-1.534l4.424-0.338l0.168-2.212l0.851,0.51l1.536,0.511l2.554-0.851l1.866-0.34l1.021-1.021l-0.334-1.36l1.017-0.17l1.02,0.17l-0.166-0.341l0.34-1.192l2.04,1.533l0.516-0.513h1.021l0.336-0.509h1.705l2.889,0.852l2.727-0.17
					h1.528l1.362,1.19l2.72,0.51l6.47-1.191l3.239-0.339l2.38-1.703l0.681,0.168l2.546,1.705l1.535,1.701l0.515,3.233l-3.237,6.637l-1.53,1.192l-6.642,3.063l-1.359,1.362l0.176,1.871l3.399,4.598l1.705,5.272l2.037,0.172l1.196,3.575l4.254,3.742l0.339,1.703
					l0.85,1.701l-1.704,0.852l-1.7,5.447z"/>
			</g>
			<text transform="matrix(1 0 0 1 134.3721 21.2041)"><tspan x="0" y="0" style="fill:#000000;stroke:none;">Estonia</tspan></text>
		</g>
		<g>
			<path d="M115.549,333.733l2.893-1.194l6.128-2.207l4.591-2.557l1.703-5.62l2.043-3.231l2.043-4.932l1.018-4.09l3.236-4.252l0.34-3.574l1.529-3.231v-2.046l2.726-3.575l3.913-2.38h2.214l2.043-2.38l0.851-2.214l2.211-1.026l4.934-0.507h5.276l7.149-0.17
				l4.425-1.869l4.422-0.854l3.578,2.382l3.063,1.19l4.257-3.914l4.594-2.041l4.933-0.853l9.021-7.658l4.254-0.51l1.875,1.191l2.211,1.192l4.596,3.061l3.06,3.576l1.877,4.765l4.424,5.617l5.447,5.442l4.25,5.278l3.066,8.512l1.194,5.615l0.168,5.271l1.529,3.405
				l1.025,3.407l0.851,3.915l0.165,1.703l2.555-0.686l2.386,2.047l0.852,0.844l1.526,1.366l3.407-0.681l2.722-3.063l4.426-1.702l2.549-1.701l2.556-0.34l1.871,0.506l1.361,2.046l0.172,1.867l0.851,3.582v3.4l-1.537,3.74l-3.058,1.364l-2.727,2.892l-1.873,3.741
				l-1.7,2.387l-1.188-1.702l1.525-2.551l1.197-4.255l-0.517-1.702l-0.505-2.555l-2.216,0.341v3.404l0.346,4.088l-0.851,4.08l0.167,3.578l-0.509,2.722l1.193,5.615v2.382l1.191,3.575l-5.619,1.702l-7.318-3.236l-9.53-0.68l-2.384-1.361l-6.125,0.852l-7.489,3.744
				l-6.467,4.428l-5.278,4.76l-4.936,2.217h-8.166l-6.296-0.341l-13.102,1.701l-11.237,0.169l-4.256,0.512l-3.742-2.554l1.53-4.762l-4.083-0.857l-3.234-0.509l-3.066-4.764l2.898-3.744l-2.558-3.233l-3.403,3.233l-3.912-1.026l-5.275-1.356l-5.274-3.061
				l-0.681-4.768l-1.022-2.891l-2.721-1.537l-3.237-0.34l-3.234-4.085l-1.873-5.443l-2.211-3.401l-3.402-3.581l-4.596-1.527l-1.537-1.022l1.537-0.507z"/>
			<text transform="matrix(1 0 0 1 162.0249 340.9146)"><tspan x="0" y="0" style="fill:#000000;stroke:none;">Romania</tspan></text>
		</g>
		<g>
			<path d="M256.634,334.577l-1.018-0.844l-2.386-2.047l-2.555,0.686l-0.165-1.703l-0.851-3.915l-1.025-3.407l-1.529-3.405l-0.168-5.271l-1.194-5.615l-3.066-8.512l-4.25-5.278l-5.447-5.442l-4.424-5.617l-1.877-4.765l-3.06-3.576l-4.596-3.061l-2.211-1.192v-0.17
				l2.211-2.379l2.385,0.167l2.382-0.686l1.871-1.528l2.379-1.021l2.388,0.34l2.552,0.341l2.379,0.853l2.046,1.015l1.87,1.535l2.386,1.022l2.378,0.169l2.046-1.021l2.381-0.682l2.386,0.176l2.037,1.017l2.043,1.533l2.042-1.021l1.699,1.874l0.518,2.382l0.334,2.213
				l0.168,2.382v2.557l2.216,1.358l1.533,1.704l2.384-0.176l1.36,2.215l-0.172,2.553l1.7,1.704l1.365,2.042l2.211,0.851l2.551,0.512l1.53,1.698l0.856,2.215l0.172,2.554l1.36,2.04l-0.512,2.382l-1.702,1.873l-2.554-0.341l-2.379,0.341l-2.383-0.341l-1.879,1.701
				l-1.695-1.87l-2.044,1.529l-0.684,2.557l0.172,2.549l0.341,2.387l0.17,2.549l-2.045,1.534l-1.359,2.043l0.168,2.551l-2.04,1.704l-0.342,2.552l0.176,2.383l-1.536,2.548z"/>
			<text transform="matrix(1 0 0 1 236.917 293.7583)"><tspan x="0" y="0" style="fill:#000000;stroke:none;">Moldova</tspan></text>
		</g>
		<g>
			<path d="M266.849,371.002l-5.619,1.702l-7.318-3.236l-9.53-0.68l-2.384-1.361l-6.125,0.852l-7.489,3.744l-6.467,4.428l-5.278,4.76l-4.936,2.217h-8.166l-6.296-0.341l-13.102,1.701l-11.237,0.169l-4.256,0.512l-3.742-2.554l1.53-4.762l-4.083-0.857l-5.277,3.068
				l-0.168,6.809l1.534,6.634l3.398,4.256l5.279,4.938l-3.234,4.085l-3.235,8.506l0.514,5.788l0.34,2.21l8.338,5.275l3.062,9.534l0.854,5.616h0.679l3.573-0.854l5.279-1.87l7.66-0.85l6.294-3.235l3.574-1.531l3.747-0.34l3.739,2.385l5.618,1.022l6.807,1.357
				l6.47-2.38l4.081-4.595l-0.511-6.646l3.746-1.019l1.021-0.848l1.531-1.871l4.426-1.533l6.299-3.578l6.469,1.877l7.312-2.21l2.556-0.173l-0.51-2.04l-2.554-2.046L259.192,411l-1.876-3.068l-1.7-1.873l-1.705-0.34l-1.195-1.191l1.877-1.869l1.022-1.704l0.679-1.869
				l2.55-1.532l-0.851-5.279l-0.679-4.248l2.893-5.28l5.786-2.723l1.021-3.915l-0.167-5.105z"/>
			<text transform="matrix(1 0 0 1 190.9751 408.1528)"><tspan x="0" y="0" style="fill:#000000;stroke:none;">Bulgaria</tspan></text>
		</g>
		<g>
			<path d="M140.224,277.06l4.597,1.696l3.747,2.388l2.72,2.04l1.533,3.065l-0.851,2.214l-2.043,2.38h-2.214l-3.913,2.38l-2.726,3.575v2.046l-1.529,3.231l-0.34,3.574l-3.236,4.252l-1.018,4.09l-2.043,4.932l-2.043,3.231l-1.703,5.62l-4.591,2.557l-6.128,2.207
				l-2.893,1.194l-1.537,0.507l-1.526-2.04l-3.747,1.533l-3.745,0.339l-4.596,3.398l-4.423,0.515l-1.871,1.873l-4.258,0.681l-3.742,2.383l-4.255,1.36l-5.276,0.509l-4.595-2.719l-3.572-0.854l-3.578-4.596l-4.426-2.045l-3.232-4.588l-3.575-1.532l-2.722-3.919
				l-1.021-2.209l-0.853-1.87l-2.21-1.023l-2.21-0.173l0.678-1.021l2.381-2.209l3.407-0.854l-0.513-3.401l0.17-2.723l0.512-1.363l1.702-4.087l-1.871-2.551l1.192-2.38l3.058-0.174h4.598l1.362-2.554l-0.342-3.404l0.171-2.382l1.702,0.852l2.211,1.192l5.616,3.915
				l1.874,1.19l3.064-0.342l2.892-0.17l2.044-0.341l1.867,0.173l1.705-0.343l1.191-2.038l0.51-0.512l2.042-3.231l4.257-1.366l4.594-1.873l4.425-2.892l5.103,1.188l3.746-2.38l2.891-1.021l1.189-3.574l4.601-2.895h4.933l3.407-1.021l4.595,0.853l5.274,2.724
				l3.401-1.189z"/>
			<text transform="matrix(1 0 0 1 64.5161 314.3872)"><tspan x="0" y="0" style="fill:#000000;stroke:none;">Hungary</tspan></text>
		</g>
		<g>
			<path d="M167.117,403l-5.279-4.938l-3.398-4.256l-1.534-6.634l0.168-6.809l5.277-3.068l-3.234-0.509l-3.066-4.764l2.898-3.744l-2.558-3.233l-3.403,3.233l-3.912-1.026l-5.275-1.356l-5.274-3.061l-0.681-4.768l-1.022-2.891l-2.721-1.537l-3.237-0.34l-3.234-4.085
				l-1.873-5.443l-2.211-3.401l-3.402-3.581l-4.596-1.527l-1.537-1.022l-1.526-2.04l-3.747,1.533l-3.745,0.339l-4.596,3.398l-4.423,0.515l-1.871,1.873l-4.258,0.681l3.068,3.06v3.918l2.377,1.19l-0.51,3.742l10.722,5.786h-5.275l-1.188,6.131l5.782,1.189
				l-5.445,11.061l1.193,2.724l2.723,0.342l4.937,3.746l-0.681,2.38h-3.577l-1.023,1.189l3.748,6.131L106.015,395l-2.72-0.853l-1.193,2.726l-1.359-1.192l-1.364,0.846l-1.873,0.515l2.555,4.425l-0.682,1.192l-4.596-2.384l-1.868-2.722H91.04l-0.342,2.547l2.387,4.09
				l1.021,2.554l-2.554,2.211h-1.363l-2.042,1.362l0.511,2.041l-0.68,2.383l2.041,3.065l0.17,1.192l-1.531,0.679l-0.337,0.848l-1.192,1.876l1.53,0.846l2.895,1.531l1.364,1.196l2.211,1.188l3.916,3.404l2.892,1.875l2.382,4.078l1.87,1.365l1.532-5.272l-1.02-3.578
				l1.19-4.765l2.215-2.042l2.04-3.229l2.553,2.039l0.679,0.17l4.086,0.171l2.213,3.574l3.573,1.021l4.081,4.932l-0.168,3.576l2.387-1.531v-4.592l5.441-4.258l1.536,1.188l3.063-0.849l0.677-2.72l5.108,0.845l3.063-1.865l4.085,1.021l3.063-1.532l3.576,1.19
				l-0.514-5.788l3.235-8.506l3.234-4.085z"/>
			<text transform="matrix(1 0 0 1 115.7759 388.6001)"><tspan x="0" y="0" style="fill:#000000;stroke:none;">Yugoslavia</tspan></text>
		</g>
		<g>
			<path d="M104.824,365.555l-5.445,11.061l1.193,2.724l2.723,0.342l4.937,3.746l-0.681,2.38h-3.577l-1.023,1.189l3.748,6.131L106.015,395l-2.72-0.853l-1.193,2.726l-1.359-1.192l-1.364,0.846l-1.873,0.515l2.555,4.425l-0.682,1.192l-4.596-2.384l-1.868-2.722H91.04
				l-0.342,2.547l2.387,4.09l1.021,2.554l-2.554,2.211h-1.363l-2.042,1.362l0.511,2.041l-0.68,2.383l2.041,3.065l0.17,1.192l-1.531,0.679l-0.337,0.848L81,414.569l-6.126-3.912l-1.024-0.34l-1.189-3.405l-6.468-4.253l0.341-4.26l-2.38-1.192l-3.064-0.68
				l-0.685-4.253L57,390.063l-3.57-4.595l-4.087-2.041l-1.529-2.556l-1.53,0.339l-0.515-1.529l1.534-1.528l-3.066-8.002l-5.275-3.916v-5.276l3.065-5.781l6.807,6.806l2.041-1.531l1.872-4.082l4.938,1.018l2.384-1.871l4.592,3.399l1.873-1.02l2.725,0.683l1.021,1.529
				l3.57-0.678l3.066,1.021l3.063-1.536L81,360.108l3.064-0.678l3.064,1.021l3.571-1.536l2.557,3.92l2.383,2.21l3.405-0.68l5.782,1.189z"/>
			<text transform="matrix(1 0 0 1 61.0635 382.6069)"><tspan x="0" y="0" style="fill:#000000;stroke:none;">Bosnia</tspan></text>
		</g>
		<g>
			<path d="M139.205,459.841l0.85,3.4l0.338,4.769l-3.909,4.253l-2.552,5.958l-3.067,2.721l-0.852,4.088l-1.36,2.21l-2.724,2.553l-0.339-0.168l-3.402-1.19l-0.684-3.744l-2.721-3.065l-6.127-1.872l-3.401-4.595l-1.536-3.068l2.386,0.346l-0.172-2.721l-1.531-4.599
				l1.02-4.256l0.511-1.019l-0.511-3.231l0.511-2.729l-1.7-3.571l0.339-1.87l0.85-3.746l1.363-4.772l-1.703-1.696l-2.896-0.341l1.532-5.272l-1.02-3.578l1.19-4.765l2.215-2.042l2.04-3.229l2.553,2.039l0.679,0.17l4.086,0.171l2.213,3.574l3.573,1.021l4.081,4.932
				l-0.168,3.576l-0.168,2.385l-0.169,5.953l0.506,5.62l3.406,6.298l3.576,3.063l2.894,2.041z"/>
			<text transform="matrix(1 0 0 1 116.1948 463.7603)"><tspan x="0" y="0" style="fill:#000000;stroke:none;">Albania</tspan></text>
		</g>
		<g>
			<path d="M161.162,421.378l0.34,2.21l8.338,5.275l3.062,9.534l0.854,5.616l-2.044,0.85l-4.425,4.938l-6.975,0.678l-5.789,2.894l-3.4,3.918l-6.474,1.188l-4.081,0.85l-1.361,0.513l-2.894-2.041l-3.576-3.063l-3.406-6.298l-0.506-5.62l0.169-5.953l0.168-2.385
				l2.387-1.531v-4.592l5.441-4.258l1.536,1.188l3.063-0.849l0.677-2.72l5.108,0.845l3.063-1.865l4.085,1.021l3.063-1.532l3.576,1.19z"/>
			<text transform="matrix(1 0 0 1 144.3491 441.2378)"><tspan x="0" y="0" style="fill:#000000;stroke:none;">Macedonia</tspan></text>
		</g>
		<g>
			<g>
				<path d="M49.855,322.329l1.021,2.209l2.722,3.919l3.575,1.532l3.232,4.588l4.426,2.045l3.578,4.596l3.572,0.854l4.595,2.719l5.276-0.509l4.255-1.36l3.742-2.383l3.068,3.06v3.918l2.377,1.19l-0.51,3.742l10.722,5.786h-5.275l-1.188,6.131l-3.405,0.68
					l-2.383-2.21l-2.557-3.92l-3.571,1.536l-3.064-1.021L81,360.108l-1.021-1.192l-3.063,1.536l-3.066-1.021l-3.57,0.678l-1.021-1.529l-2.725-0.683l-1.873,1.02l-4.592-3.399l-2.384,1.871l-4.938-1.018l-1.872,4.082l-2.041,1.531l-6.807-6.806l-3.065,5.781v5.276
					l5.275,3.916l3.066,8.002l-1.534,1.528l0.515,1.529l1.53-0.339l1.529,2.556l4.087,2.041l3.57,4.595l3.403,2.211l0.685,4.253l3.064,0.68l2.38,1.192l-0.341,4.26l6.468,4.253l1.189,3.405l1.024,0.34L81,414.569l7.32,5.956l-1.192,1.876l-1.53-1.363l-6.472-4.258
					l-2.889-0.172l-2.386-0.335l-5.274-2.893l-4.083-1.022L65.509,411l3.578,0.677l1.87,2.043l1.703,0.169l-0.344-1.531l-2.72-1.868l-4.425-4.431l-4.768-3.4l-5.782-2.046l-3.917-0.338l-4.421,0.51l-1.366-0.172l-0.681-2.382l-1.36-2.893l-3.574-1.702l-2.042-1.869
					l-3.406-2.214l-3.572-4.597l-0.171-1.705l1.021-1.361l3.235-0.68l-3.404-3.058l-3.063-2.045l-2.552-5.277v-4.596l-0.854-3.229l-1.36-1.705h-1.024l-2.55-3.065l-3.743-1.358l-2.215,5.618l-3.57,6.294l-1.704,0.171l-1.532-1.191l-2.382-5.442l-1.533-2.728
					l-0.847-5.958l3.573,0.685l1.189-1.024h4.255l3.063-1.527l1.873-2.723l5.787,3.398l1.532-1.189l3.744,1.189l2.723-0.676l-0.853-2.723l1.193-3.406l-2.211-2.384l4.085-1.527l1.188-8.346l6.979-1.527l1.873-2.045l3.743-1.874l0.515-4.251l3.57-1.361z"/>
				<path d="M56.665,413.72l0.678-0.683l5.958-0.17l1.192,0.342l0.337,1.195h-1.872l-1.53,0.336H57l-0.167-0.513l-0.169-0.508z"/>
				<path d="M18.878,359.598h0.172l0.681,3.063l1.021,0.682l1.19,1.022l0.341,0.847v0.343l-0.851-0.343l-1.361-0.847h-1.871l-0.851-0.853l0.678-3.062l0.849-0.854z"/>
				<path d="M14.968,361.3l-0.169-0.512l0.506-0.171l0.344,0.171l0.339,1.022v2.039l0.169,0.856l0.342,1.189l-0.173,3.063l1.193,3.914l-0.342-0.341l-1.702-3.064l-1.019-1.53v-0.511l0.512-0.175l1.02-1.356v-1.53l-0.683-1.36l-0.337-1.194V361.3z"/>
				<path d="M51.896,403.339l0.512-0.34h0.339l4.087,0.68l1.53,0.683l1.021,0.166l0.512,0.677l-0.512,0.348l-1.359,0.167l-1.876,0.171l-1.701,0.169l-1.702-0.34l-0.506-1.191l-0.345-1.188z"/>
			</g>
			<text transform="matrix(1 0 0 1 35.002 354.5229)"><tspan x="0" y="0" style="fill:#000000;stroke:none;">Croatia</tspan></text>
		</g>
		<g>
			<path d="M49.855,322.329l-0.853-1.87l-2.21-1.023l-2.21-0.173l-2.555,1.362v1.193l-0.513,1.195h-0.68L39.13,322.5l-2.889-0.171L35.05,322.5l-1.533,2.553l-1.7-0.338l-1.365-0.514l-2.721-0.34l-1.533,0.169l-2.554,0.85l-1.533,1.362l-1.189,1.699l-1.7,1.193
				l-0.682,0.512h-2.384l-1.7-0.339l-4.765-0.684H4.586l-1.873,1.365l-1.362,1.36L0.5,333.733v1.357l0.68,0.512l1.192-0.34h0.509l-0.847,2.042l-0.342,2.554l0.681,1.53l0.682,0.345v2.549l0.681,0.681l1.53,0.682l0.853,0.341l0.679,1.531l1.195,0.681l0.676,1.362
				l-0.339,1.195l-1.189,1.019l-1.701,0.337l-1.535-0.337l-0.34-0.178l-1.53,1.369v0.676l3.573,0.685l1.189-1.024h4.255l3.063-1.527l1.873-2.723l5.787,3.398l1.532-1.189l3.744,1.189l2.723-0.676l-0.853-2.723l1.193-3.406l-2.211-2.384l4.085-1.527l1.188-8.346
				l6.979-1.527l1.873-2.045l3.743-1.874l0.515-4.251l3.57-1.361z"/>
			<text transform="matrix(1 0 0 1 4.8242 342.0308)"><tspan x="0" y="0" style="fill:#000000;stroke:none;">Slovenia</tspan></text>
		</g>
	</g>
</svg>
