<?xml version="1.0" encoding="iso-8859-1"?>
<!DOCTYPE svg >

<svg  width="552.908pt" height="600.934pt" viewBox="0 0 552.908 600.934" xml:space="preserve">
	<g id="Layer_x0020_1" style="fill-rule:nonzero;clip-rule:nonzero;fill:#FFFFFF;stroke:#000000;stroke-miterlimit:4; font-family:'Arial'; font-size:10;">
		<g>
			<g>
				<path style="stroke-linecap:round;stroke-linejoin:round;" d="M106.068,222.331l-5.276-0.933l1.362-1.958l2.362,0.7l1.02-1.982l-0.874-0.965l3.722-6.735l0.058-0.685l-3.079-0.411l-4.796,1.688l0.534-2.37l3.535-2.528l2.603-5.254l-0.573-5.902l-0.669-2.461
					l1.565-2.287l0.564-0.646l0.653-1.669l0.979-3.712l0.328-2.806l-1.251-2.329l1.696-4.43l-3.55,2.531l-1.75-2.775l-3.613-2.61l-0.93-3.945l0.123-5.071l0.557-5.982l-0.861-5.079l3.281-4.184l-3.77-0.573l-1.969-3.943l-0.852-5.42l-5.896-8.301l-0.784-5.815
					l0.048-6.33l0.343-4.364l-2.137-3.558l-0.654-4.587l-4.579,4.155l-5.549,0.718l-2.086-3.765l-4.538-1.146l-4.742-1.615l-3.104-4.276l4.122,0.533l0.31-3.281l5.594-0.386l5.349-2.799l3.547,3.208l4.064,0.353l-1.711-3.301l-5.161-2.662l-4.247-0.867l-5.024,1.476
					l-5.031-0.548l-3.878-2.286l-3.566,0.512l0.145,4.541l-4.866-0.247l-4.139-0.755l-5.053-2.95l-5.781-2.656l-4.917-0.543l-9.007-6.664l-4.591,0.154l-3.173-3.933l-4.101-4.112l-3.235-4.576l-3.424-2.337l-2.997-4.248L0.5,58.562l2.561-2.253l1.983,2.462
					l4.985,1.666l3.946,4.257l2.411,4.908l5.828,1.023l4.85,3.551l5.203,1.667l4.421,1.998l5.764-1.92l5.605-2.331l-1.864-2.628l-0.423-3.823l-3.594,0.203l3.594-5.707l-2.301-7.415l-2.488-2.401l3.534-3.423l3.576,0.006l4.922-4.831l-5.161-2.747l-1.054-4.37
					l4.873-5.06l4.238,1.02l1.766,1.69l0.741-0.632l-0.798-5.227l0.571-2.884l4.25-5.916l7.038,0.503l4.063,1.283l2.595,4.339l1.768-0.55l2.572,2.439l0.169,2.255l4.472,1.521l2.325,5.348l5.097-0.682l3.38-3.664l0.618-0.415l1.347,2.602l1.851-0.155l0.478-2.398
					l-2.654-3.36l-3.244-2.443l0.575-4.895l-2.006-5.255l0.463-6.713l3.026-2.309l3.529,0.621l0.154-4.138l1.26-2.881l4.783,3.286l3.235,3.904l3.311,3.79l0.716,3.363l-3.966,1.534l1.541,6.493l0.229,3.02l2.596,1.787l-0.127-4.354l0.951,0.156l2.873,8.651
					l1.09-0.123l-1.001-8.863l2.667-0.305l-1.416-4.843l0.503-3.321l5.265-3.716l2.119-5.586l2.79-4.308l5.009-0.505l1.618,4.054l2.627,4.391l3.962,0.777l4.775-0.141l4.92,2.472l1.838,3.607l5.32,3.238l1.765,4.375l5.702,2.172l-0.125,5.346l-1.849,2.609
					l2.372,5.611l-2.082,4.764l3.576,7.634l0.222,5.749l2.265,3.932l0.069,4.362l2.677,2.67l2.173,3.322l0.584,8.158L157.34,94.859l-18.12,14.539l-17.995,14.89l-17.571,15.046l-1.056,2.466l1.116,1.001l0.611,1.44l1.128,0.985l1.654,0.957l0.992,1.194l-2.062,2.304
					l-0.008,1.855l-0.687,2.345l-0.654,4.354l0.083,2.055l-1.101,2.339l0.851,1.718l1.901,0.189l1.319,0.823l2.31-0.848l2.317-0.696l1.422,0.8l1.656,0.251l1.171,0.936l-0.64,2.377l-0.254,2.184l-0.647,2.91l-1.153,2.823l0.6,1.628l0.177,1.895l-0.939,2.745
					l-0.648,2.55l-0.468,2.615l-0.619,2.589l-0.818,2.722l-0.55,2.576l-1.166,2.523l-0.354,2.369l-0.947,2.557l0.331,2.164l2.047,3.172l0.715,4.308l0.923,1.402l-1.658,2.9l-1.99,2.459l-1.753,2.569l-0.768,0.507l0.032-0.015z"/>
				<path d="M435.621,436.808l-2.603,2.377l-7.797,2.487l-1.852,1.571l-0.064,0.857l0.732-0.455l0.643,0.566l11.441-4.953l1.643-1.077l-1.557,0.05l-2.543,1.519l1.956-2.942z"/>
				<path d="M310.348,374.087l-10.88,6.55l-5.882,4.53l0.447,0.896l2.589,0.032l4.85-2.376l0.63,0.743l-0.399,2.896l4.49,0.007l2.535-1.525l3.501-0.582l6.214-4.333l4.057-1.059l0.287,0.713l-4.813,4.094l-0.16,2.058l1.109-0.946l2.432-0.155l2.135,1.373
					l2.204,2.757l4.103,0.499l3.795-2.115l7.132-0.641l0.176,2.078l3.928,0.651l0.869-0.102l0.789,3.16l1.91,2.046l-3.144,0.438l-1.134-0.949l-0.45,1.342l-1.044,0.085l-3.629-2.174l-1.41,0.407l-0.942,0.956l-3.684,0.743l-2.934,2.181l0.018-2.407l-3.653,2.469
					l-5.077,7.518l-1.063,2.499l4.002-2.609l0.351-2.214l1.878-1.915l0.249,1.226l-3.05,5.779l-1.859,8.297l-1.722,4.339l-0.038,9.3l1.348,4.754l1.124,1.122l2.029,0.503l3.636-2.297l3.327-7.145l0.351-4.446l-1.971-5.664l1.26-5.07l0.739-0.628l0.323-4.107
					l1.019-1.984l3.108-2.167l0.471,2.791l1.113-0.947l0.427-3.237l3.022-1.14l-0.735-1.608l0.808-1.484l3.935,0.48l6.421,3.95l0.74,1.607l-0.57,0.642l1.091,5.939l-1.776,2.79l-1.681,1.588l-1.045,2.331l1.133,0.947l0.899-0.445l1.944-2.773l3.194-1.128
					l2.283,3.972l0.521,4.344l0.736,1.608l-0.694,4.425l-1.559,0.046L356.105,429l-0.118,1.541l-1.392,2.303l-0.123,1.54l-2.272,2.575l2.811,1.598l4.577,1.05l4.729-0.835l4.561-3.084l8.934-3.771l7.59-6.465l-1.584-4.086l6.728-2.055l3.895,0.998l4.543-0.679
					l3.122-2.332l2.111-0.526l-0.17-2.252l-0.776-1.09l1.126-1.12l-1.638-1.161l2.79-2.534l0.863-2.173l4.506-4.638l23.734-3.124l1.087-2.845l5.142-1.663l-0.228-1.566l1.194-1.974l-0.333-4.503l0.873-4.584l0.073-3.092l2.938-6.652l1.363,0.276l1.261,1.477
					l1.549,0.125l3.479-2.481l3.598,2.519l2.923,13.318l2.036,0.506l1.133,3.189l2.385,0.357l0.554-0.474l0.713,1.952l-0.436,1.169l1.16,0.606l-0.625,1.328l-4.521,2.571l-3.04,3.55l-1.489-0.803l-1.07,0.431l-0.735-1.605l-0.717,0.287l-1.274,5.237l-1.03-0.082
					l-1.366,1.959l-1.003-0.428l-0.504,2.032l-1.303-0.964l-1.705,1.93l-2.802,9.251l0.076,1.213l0.966,0.934l-1.631,3.145l2.15,1.203l1.817,3.24l1.349,0.453l2.426-0.154l0.188-2.393l0.487,2.622l-3.794,2.109l-1.652-0.992l-2.562,1.864l-1.596-1.671l-0.73,2.694
					l-1.283,0.935l-10.409,2.795l-0.409,0.825l-5.985,3.661l-1.222,2.316l-0.489,1.856l2.123,1.544l0.064,1.382l-0.333,2.043l-0.729,0.459l-0.213,2.735l-4.369,7.237l-0.341-2.265l-3.554-0.974l-1.551-2.185l0.181,2.081l4.215,7.906l-5.089,14.237l-1.021-0.251
					l-0.471-2.796l2.294-4.983l-1.176-0.438l-0.841-2.479l-1.713-0.137l-0.969-0.934l-0.206-1.736l0.938-0.96l-0.352-2.096l-1.163-0.607l0.969-1.3l-0.369-1.924l1.526-1.775l-0.081-1.21l-0.673-0.228l-0.82,1.657l-2.766,2.191l1.149,7.326l-0.712,0.288l0.965,0.938
					l0.865,2.138l-3.48-1.826l-3.563-0.798l0.136-1.712l-0.546,0.302l-0.137,1.711l7.168,3.318l1.066,1.807l-0.861,2.171l1.513,2.702l-1.111,0.951l1.254,1.644l-1.938,0.537l-0.057,0.682l4.095,0.665l0.689,4.361l1,2.658l-1.873-0.314l-3.266,1.979l-1.196-2.332
					l0.061,3.621l4.537-0.676l0.847,2.479l1.231-2.483l0.959,3.171l-2.829,3.051l-1.557,0.048l-1.428-1.661l-0.939,0.96l-1.728,0.034l2.823,1.43l-1.443,2.983l2.088-0.181l0.022,1.898l-2.197,1.552l-3.14,0.438l-2.71,1.507l-3.279,4.39l-5.326,1.823l-2.92,2.006
					l-2.885,3.731l0.022,1.901l-7.007,5.646l-5.371,0.269l0.996,2.658l-2.908,1.84l0.461,0.726l-1.678,1.587l-3.817,9l-0.431,3.238l3.928,13.738l3.968,6.681l0.373,6.231l4.238,9.802l-0.173,8.768l-1.9,6.569l-3.275,2.152l-3.66,0.399l-0.962-0.935l0.162-2.056
					l-1.618-3.57l-2.969-1.782l-2.343-5.35l0.623-1.325l-1.04,0.083l-0.302-2.775l-1.578,0.223l-2.894-4.878l-0.209-1.742l0.963-3.366l-1.312-0.963l-0.123,1.538l-0.843-0.237l-0.142-2.598l0.947-5.432l-0.839-4.716l-2.82-1.426l-2.388-2.602l-0.066-1.381
					l-4.862-3.997l-2.063-0.162l-1.151,1.462l-7.741,1.799l-2.014-2.916l-6.606-3.792l0.594-0.984l-0.675-0.226l-6.259,0.543l0.122-1.544l-2.908,1.84l-4.729,0.832l-0.176-6.555l-2.146,5.339l-6.481-1.026l-5.113,1.317l-4.511-1.902l-2.116,0.52l-0.649,1.671
					l1.291,1.14l3.516-0.758l0.538,1.935l0.69,0.053l2.691-1.335l0.834,0.408l-0.694,2.188l-1.823,1.229l-0.807,1.486l1.08,1.636l2.31,1.39l0.379,1.75l-1.785,0.72l-1.537-2.357l-3.459-2.167l-1.745,2.447l-3.909-0.822l-1.425,0.572l-3.353-1.297l-1.512-2.7
					l-4.249-3.09l-1.544-0.123l-1.548,2.119l-8.58-2.913l-5.305-0.593l-7.425,2.171l1.124-1.115l-1.187-0.264l0.133-1.712l-0.871,0.102l-1.289,5.409l-1.786,2.96l-3.437,1.967l-4.24,1.218l2.879-1.495l-2.974,0.451l-0.049-1.551l-1.125,1.117l-0.946-1.107
					l-0.423,0.996l-1.136-0.948l-0.438,1.174l0.563,1.591l-2.257,0.167l-1.521,1.772l-2.283,0.514l-0.241,0.842l1.018,0.251l-0.979,1.475l-2.258,0.166l0.568,1.594l-0.773,3.212l-2.403-0.191l-0.211,0.502l1.463,1.144l-0.995,3.889l1.572,8.559l-2.72-0.56
					l-2.785-1.941l-4.247-0.849l-2.11-1.717l-2.365-0.701l-2.254-2.072l-2.226-4.652l-1.108-7.839l-2.399-2.427l-0.961-3.173l-2-3.09l-1.811-7.713l-5.244-7.991l-8.672-1.712l-1.743,0.206l-5.188,6.65l-1.398,0.235l-2.493-1.229l-5.551-6.292l-1.63-3.4l0.016-2.41
					l-0.57-5.9l-5.222-6.093l-4.595-7.42l-14.902-3.758l-0.998,3.883l-22.201-5.364l-26.714-22.591l0.591-0.986l-18.607-4.905l0.945-5.438l-0.213-1.738l-2.786-6.246l-3.074-2.648l0.334-2.041l-0.738-1.608l-0.979-0.77l-0.921,0.791l-4.968-7.104l-1.516-0.465
					l-4.525-3.974l1.647-5.551l-1.187-2.504l0.48-1.689l-1.764-3.923l-1.929-8.419l0.729-2.696l1.243-0.42l0.65-1.67l-0.206-1.736l-1.466-1.15l-0.537-1.938l0.982-5.95l0.768-0.973l0.49,0.384l0.903,3.862l0.22-4.979l2.959-0.285l-3.075-2.653l-1.021,1.988
					l-0.897,0.445l-1.671-2.887l0.585-3.051l-1.68-7.191l1.302-5.581l1.618-2.974l-0.913-8.165l0.85-2.001l2.907-1.834l3.363-5.42l1.233-4.725l0.936-5.266l2.159-5.513l2.3-2.916l2.328-1.022l0.107-1.371l4.802-6.164l2.661-5.3l4.435-5.853l2.476-5.145l1.084-0.599
					l3.639,2.008l-1.052-1.976l-2.756-2.285l0.86-2.174l0.065,1.384l0.686,0.054l1.033-2.157l-0.593-1.251l1.705-1.933l-0.116-0.697l-1.043,0.093l1.834-5.712l0.229-5.148l1.021-1.988l1.639-1.073l3.11,4.378l5.855,4.591l-0.851,2.002l-3.792,2.107l-0.621,1.331
					l0.829,0.409l0.253-1.014l3.765-1.77l0.833,0.409l0.093,1.04l0.977-1.475l1.513-3.84l-0.525-2.105l1.24-0.417l0.595-0.984l1.005,0.418l-1.581-1.848l0.001-2.233l8.799,5.182l9.775,5.422l8.791,4.585l9.066,4.448l8.915,4.128l10.456,4.523l9.421,3.805
					l11.554,4.338l8.934,3.098l8.398,2.728l7.962,2.415l7.146,2.046l8.604,2.31l6.879,1.713l6.815,1.589l9.494,2.039l13.917,2.643l11.478,1.867l1.81-1.479l1.376-2.146l0.895,2.911l0.659,2.809l1.667,1.456l2.069,0.457l1.796,1.124l1.902,0.406l2.081-0.354
					l1.981,0.484l2.067,1.39l1.619,1.395l1.913,1.354l1.703,1.602l1.8,0.885l1.952-0.71l4.005,1.138l2.207,0.196l2.127,0.922z"/>
			</g>
			<text transform="matrix(1 0 0 1 228.8091 462.0337)"><tspan x="0" y="0" style="fill:#000000;stroke:none;">U.S.A.</tspan></text>
		</g>
		<g>
			<g>
				<path d="M406.41,406.442l4.506-4.638l23.734-3.124l1.087-2.845l5.142-1.663l-0.228-1.566l1.194-1.974l-0.333-4.503l0.873-4.584l0.073-3.092l2.938-6.652l1.363,0.276l1.261,1.477l1.549,0.125l3.479-2.481l3.598,2.519l2.923,13.318l2.036,0.506l1.133,3.189
					l2.385,0.357l0.554-0.474l5.349-0.994l4.151-2.734l4.279-4.589l0.233,3.46l4.283-2.006l-3.702,4.48l-2.45,2.375l-3.254,4.288l-0.828,4.551l2.044,3.879l4.035,1.68l5.44-8.375l1.497-3.911l3.408-0.918l3.902-3.739l6.101-4.461l5.119-3.384l0.146-3.654
					l-4.011-1.438l-3.543,0.203l-3.411,2.813l-4.646,0.458l-5.824-1.919l-4.271-0.593l-3.424-4.369l-1.959-5.629l0.056-4.406l-4.974,3.055l-5.444-3.854l6.395-1.634l2.785-2.501l3.054-3.482l-0.863-3.282l-2.73-1.871l-4.576-0.498l-9.005,4.061l-3.66,3.468
					l-3.354,2.489l-3.755,3.408l-3.099,4.063l-1.94,4.65l-4.313,7.617l-4.143,2.429l2.212-3.773l1.637-3.69l2.131-3.813l3.457-8.356l3.063-4.063l3.35-5.039l4.187-0.964l0.101-4.347l1.827-3.901l4.212-2.821l7.624-2.085l4.346-2.121l3.769-0.253l7.544-2.384
					l3.527,0.637l4.256-2.35l5.491-1.965l1.879-4.327l2.605-8.353l3.916-4.343l5.401-3.21l4.328-8.511l-4.468-5.516l-0.745-4.381l-5.575-3.107l-4.026,1.786l-2.036-3.76l-5.672,1.485l3.194-5.053l-3.584-1.249l-5.156,1.23l-2.965-2.471l-6.003,1.454l-2.302-3.64
					l-5.191-0.753l-3.266-2.411l-1.663-4.778l1.005-3.951l-3.359-1.451l-1.094-3.189l-3.589-2.278l-4.082-3.888l-3.615-4.054l-4.363-3.822l-6.472-6.658l-1.364,3.942l-1.255,2.998l2.567,2.72l-0.829,4.598l-2.982,3.5l-0.777,3.677l-4.368,3.792l-4.771-4.786
					l-3.085-0.09l-3.427-3.434l-0.762-3.229l-0.736-4.931l-2.157-3.751l-0.168-4.215l-3.701,0.02l-3.498,0.788l-4.011-1.692l0.479-3.472l-3.92-1.721l-3.68-2.651l-3.826-1.814l-5.016,2.516l-3.022,0.449l-4.391-1.033l-4.645-0.261l-2.757,2.798l0.439,4.077
					l2.97,2.146l-0.709,4.216l-1.148,4.233l2.68,2.186l1.348,4.809l0.476,4.086l-2.071,4.349l-3.281,1.153l-0.125,3.295l3.304,2.982l3.178,1.339l2.379,5.52l3.326,9.544l0.765,6.533l-2.313,4.4l-3.772,4.506l-3.953,3.652l-4.07,2.778l2.217,3.944l1.77,4l0.937,5.685
					l0.374,4.902l2.907,4.726l-3.17,5.19l-4.896,3.611l0.718,3.239l-4.308-3.041l-2.262-3.982l-3.183-3.143l-2.68-4l-4.121-3.96l0.832-4.927l-0.143-4.088l-1.564-4.052l1.189-7.4l-4.773-2.336l-11.266,0.079l-5.542-4.155l-4.598-1.76l-3.625-1.764l-3.017-4.236
					l-4.78-3.54l-5.284-2.017l-5.062-3.704l-4.171,1.223l-3.298,1.292l0.375-3.247l-1.283-4.266l0.473-4.044l-1.451-5.931l-3.285-1.263l-3.5,0.346l-1.093-4.287l0.743-4.848l1.27-5.603l3.578-7.722l3.035-4.532l2.861-3.734l3.263-1.241l0.568-4.862l8.977-2.378
					l0.065-4.902l3.377-5.453l6.477,0.428l6.81-9.506l0.145-4.894l4.182-6.459l-2.893-3.324l4.922-0.733l1.642,2.453l5.33,1.591l4.15-4.219l4.656-4.319l0.591-5.77l-4.796-2.205l-0.223-4.909l3.783-2.664l-0.383-6.038l-5.016-1.05l-0.709-3.259l-4.597-1.513
					l-4.271,0.028l-0.021,4.904l0.279,5.721l-0.024,5.735l-4.053,3.213l-0.093,4.067l-2.906,1.565l-3.214-5.869l0.849-4.855l0.183-4.086l-2.988-5.074l-3.999,6.282l-4.179-9.403l-3.441-2.838l4.09-3.674l-1.397-5.067l-2.036-3.535l-2.111-4.383l-1.354-5.153
					l-2.72,0.354l-3.037,2.841l-2.237,4.923l-2.619,5.009l2.559,6.282l5.016,4.923l-2.914,3.696l0.726,5.086l-4.073,4.327l-1.24-0.044l-2.041,4.454l-3.127-3.726l0.747-5.518l-3.469-2.703l-3.057,2.686l-1.561,5.526l-4.759-0.272l-5.948-3.219l-3.714-3.961
					l-4.602-4.703l-1.969-6.388l-9.769-0.286l-3.769,2.043l3.08,3.876l-2.65,3.391l-3.166-3.039l-2.466-3.722l-5.194-0.514l-5.497-0.776l-3.171-3.417l-3.865-2.027l2.371-2.481l3.869,0.511l0.016-4.649l-3.018-4.438l-4.467-2.915l-2.909-4.293l-2.854-4.758
					l-1.083-5.127l-4.644-3.276l-4.121,2.759l-2.025-2.142l3.268-4.836l-6.034,2.709l-1.225-3.128l1.812-4.968l-0.2-6.735l-5.061,3.321l-3.424-0.821l1.752-4.06l-10.715-2.287l-3.83,0.143l-0.684-1.808l-3.157,0.576l-4.202,0.292l-2.958-1.663l-1.241-5.333
					l0.189-4.842l-0.458-4.923l-2.049-5.104L157.34,94.859l-18.12,14.539l-17.995,14.89l-17.571,15.046l-1.056,2.466l1.116,1.001l0.611,1.44l1.128,0.985l1.654,0.957l0.992,1.194l-2.062,2.304l-0.008,1.855l-0.687,2.345l-0.654,4.354l0.083,2.055l-1.101,2.339
					l0.851,1.718l1.901,0.189l1.319,0.823l2.31-0.848l2.317-0.696l1.422,0.8l1.656,0.251l1.171,0.936l-0.64,2.377l-0.254,2.184l-0.647,2.91l-1.153,2.823l0.6,1.628l0.177,1.895l-0.939,2.745l-0.648,2.55l-0.468,2.615l-0.619,2.589l-0.818,2.722l-0.55,2.576
					l-1.166,2.523l-0.354,2.369l-0.947,2.557l0.331,2.164l2.047,3.172l0.715,4.308l0.923,1.402l-1.658,2.9l-1.99,2.459l-1.753,2.569l-0.768,0.507l-0.762,1.335l-4.615,2.887l-0.445,3.014l-4.2-0.142l-1.229,5.775l1.143,4.309l-0.804,7.152l2.099,4.954l-1.744,5.237
					l0.12,4.434l-1.919,2.878l1.883,5.693l2.932,4.225l2.532,4.901l2.644,10.074l1.858,4.259l4.478-0.248l-2.553,4.517l1.044,3.663l-0.182,0.108l8.799,5.182l9.775,5.422l8.791,4.585l9.066,4.448l8.915,4.128l10.456,4.523l9.421,3.805l11.554,4.338l8.934,3.098
					l8.398,2.728l7.962,2.415l7.146,2.046l8.604,2.31l6.879,1.713l6.815,1.589l9.494,2.039l13.917,2.643l11.478,1.867l1.81-1.479l1.376-2.146l0.895,2.911l0.659,2.809l1.667,1.456l2.069,0.457l1.796,1.124l1.902,0.406l2.081-0.354l1.981,0.484l2.067,1.39
					l1.619,1.395l1.913,1.354l1.703,1.602l1.8,0.885l1.952-0.71l4.005,1.138l2.207,0.196l2.127,0.922l2.668-0.994l3.454-4.378l-0.007,2.238l0.716-0.286l1.811-3.301l-0.504,2.022l0.273,0.884l0.542-0.301l1.896-2.092l0.003-2.234l0.749-0.804l4.017,1.698
					l2.166,5.333l0.196-4.636l4.25,0.853l2.921,6.773l1.304,0.962l5.561-0.424l-0.781,3.383l2.172,3.098l-0.506,2.024l0.396,1.586l1.651,0.986l-0.77,0.973l0.489,0.385l-0.429,0.995l0.24,1.399l0.869-0.102l0.238-0.844l0.517,0.041l0.984,2.832l2.288-0.506
					l4.183,1.702l2.627-0.479l4.904,1.249l3.292-0.086l0.25,1.221l5.163,0.236l1.157,0.608l0.858,2.304l1.923,1.875l1.529,0.289l0.544,1.938l-0.385,0.488l2.543,2.776l-1.413,0.412l-1.177-0.436l0.514,2.275l-0.41,0.831l-3.419-0.443l-1.454-1.32l-1.305,1.276
					l-0.197-1.905l-0.529,0.125l0.148-1.881l-1.096,0.773l-1.128-3.189l-2.048-0.332l1.827,5.31l-0.503,2.024l-2.184,3.619l0.407,5.717L364,420.843l-3.317,2.658l-1.398,0.24l-0.694,4.425l0.908,1.618l-0.267,1.185l-1.756,0.377l-1.488-0.805l-1.392,2.303
					l-0.123,1.54l4.994,0.219l3.002-3.033l1.925-0.368l1.407-2.47l3.212-1.296l4.247,0.851l3.489-2.654l4.717-0.659l3.935,0.479l-1.584-4.086l-2.448,0.5l-3.054-0.763l4.363-4.991l7.281-2.527l7.934,0.111l-1.541-2.361l1.572-0.223l0.461,0.722l6.479-3.273
					l1.547-2.118z"/>
				<path d="M361.122,395.991l1.428-0.574l0.271,3.118l0.386-0.482l0.647-1.675l0.528-0.133l-1.116,3.188l-5.094-1.092l-4.144-2.221l7.094-0.13"/>
				<path d="M359.963,325.13l2.825-0.813l2.721,0.559l2.103,3.956l-2.229-0.176l-2.466-1.573l-3.551-0.968l0.597-0.984"/>
				<path d="M503.945,360.738l-0.496-0.213l0.249,1.224l-2.245,8.778l0.392,3.818l4.022,1.521l2.579-2.037l3.494-4.888l-0.647-0.566l-0.396-1.584l-1.356-0.277l-0.324,1.872l-0.603-1.08l-2.405,2.043l0.691-2.185l-0.852-0.236l-0.094-5.347l-1.105-1.29l-0.903,0.446
					"/>
				<path d="M90.628,271.565l1.192-1.971l-1.784-1.518l-0.091-1.038l-1.454,0.917l-0.537-1.938l0.937-0.957l1.694,0.477l4.724,7.947l4.746,5.542l-0.372,2.55l0.956,5.415l-0.692,2.183l2.886,5.051l0.498,2.447l-0.908,4.922l-0.054,0.686l0.73-0.457l-0.322,1.866
					l-1.783,0.722l-0.815-0.581l-2.441-4.152l-2.235-2.244l1.663-1.418l-1.744,0.208l-0.363-1.922l0.208-0.499l1.571-0.224l-0.946-1.107l-0.886,0.275l-1.98-1.19l-0.393-1.577l1.318,0.79l-0.127-2.764l-3.149-3.864l0.292-1.526l3.367,1.123l-1.784-1.516l0.267-1.182
					l-0.874,0.097l0.108-1.364l-0.881-1.962l-1.054,0.26l-0.251-1.223l1.296-1.108l-0.592-1.25l-0.926,0.786l-0.051-1.553l-2.178-0.859l1.168-1.629l0.118-1.541l1.822,1.006l0.105,0.865"/>
				<path d="M474.106,338.415l9.45,0.57l2.667,1.243l2.27-0.339l1.74,2.031l-3.239,1.638l-7.749-0.261l-1.924-1.875l-5.753-1.485l-0.304-0.542l2.842-0.98"/>
				<path d="M514.769,306.659l-1.922,2.43l0.155,2.425l-0.807,1.485l0.367,1.924l-1.391,2.302l1.175,0.435l-0.424,1.002l0.286,2.947l1.33,0.621l-1.662,1.416l-0.153,4.122l0.88,1.969l-0.884,0.275l-0.479,1.682l-0.096,1.194l1.362,0.281l0.559,1.595l-2.105,0.521
					l-0.038,4.822l-0.752,0.798l-0.643-0.565l-1.539,1.946l3.888-1.076l0.801,0.752l-3.51,7.303l0.383,1.752l0.958,0.936l1.572-0.219l5.443-3.363l8.642-2.244l3.463-2.31l1.789-2.959l0.513,2.279l-1.379,2.126l3.926-1.583l0.359-2.382l3.316-0.43l-1.644,3.316
					l-0.572,2.883l-2.223,1.894l0.251,1.222l1.386-0.066l2.407-2.043l1.258-5.067l2.025-1.566l-0.426-5.542l0.897-0.445l3.057,5.062l0.611,5.385l1.046-0.091l0.865-4.404l0.83,0.407l1.077,3.871l1.131,0.95l0.649-1.665l1.584-0.394l-0.892-8.337l-1.004-2.662
					l-0.861-0.067l-0.283,3.59l-0.828-0.407l-0.725-1.782l-0.438-5.37l-1.416,2.645l-0.167,4.29l-0.557,0.478l-1.477-0.98l-0.314-2.608l-1.977-1.187l3.111-4.406l-0.051-1.555l-0.463-0.723l-2.124,2.932l-2.042,1.735l-0.491-0.385l0.59-3.055l-1.529-0.293
					l0.643-3.906l0.275-1.185l0.398-0.66l-3.793-0.125l-1.825,1.235l-1.33-0.618l-4.355,4.819l0.102-3.438l-0.834,1.831l-3.345,0.771l-0.396-1.58l-1.212,0.072l2.356-3.601l-3.872,0.9l-0.231-1.396l-0.713,0.289l-1.519,6.082l-0.943-1.11l-0.635-2.975l1.195-6.449
					l-1.124-3.191l0.801,0.753l0.797-1.314l-0.288-2.951l-1.172-0.436l-0.28-0.884l1.27-0.757l0.162-2.058l-0.447-0.893l-3.343,3.007"/>
				<path d="M481.998,367.618l0.022,1.897l2.766,2.112l1.774-0.552l3.774,0.299l5.549-2.493l0.29,0.713l-2.093,2.415l0.542,1.942l-1.096,0.772l-1.716-0.135l-0.752-1.438l-1.188-0.264l-0.256,1.013l-2.426,0.152l-1.533-0.29l-0.791-0.927l-1.228,0.248l-1.148-0.775
					l-0.107-0.871l-1.873-0.32l-0.418-1.237l1.6-2.802l0.307,0.54"/>
				<path d="M530.587,349.226l1.133,3.188l0.382-0.485l-0.855-2.304l-0.659-0.399"/>
				<path d="M470.269,273.021l-0.155-0.182l-0.532,0.128l0.688,0.054z"/>
				<path d="M335.735,176.516l0.376,3.989l-0.253,1.013l-1.464-1.148l0.099-3.436l0.577-0.816l0.665,0.398"/>
				<path d="M423.426,242.823l-0.315-0.373l0.356,2.092l0.321,0.201l1.564-2.291l-0.418-1.236l-1.058,0.263l-0.451,1.344"/>
				<path d="M434.53,226.82l1.847,0.66l0.535,1.94l-1.583,0.386l-1.638-1.157l-0.71,0.287l-0.105-0.87l1.654-1.247"/>
				<path d="M347.066,199.273l2.333,3.286l-1.717-0.135l-1.251-1.646l-1.663-3.059l2.298,1.555"/>
				<path d="M375.692,219.606l2.857,0.916l0.752,1.433l-1.871-0.315l-1.148-0.782l-0.59-1.251"/>
				<path d="M371.444,223.061l0.938-0.959l2.219,0.348l1.072,1.807l-1.158,1.46l-3.071-2.656"/>
				<path d="M301.597,160.4l-0.42-1.237l-0.829-0.412l0.242-0.842l-1.785-1.52l-1.744,2.449l0.115,0.694l-1.2-0.088l0.009,2.064l-0.937,0.958l-2.962,0.284l-0.649,1.669l1.108,1.293l0.042-0.513l0.884-0.275l1.067,1.805l0.728-0.458l2.526,2.954l4.014,1.693
					l0.954-1.128l1.624-0.907l1.006,0.423l0.95-1.129l-1.058,0.261l-0.774-1.095l-0.459-2.963l-2.452-3.98"/>
				<path style="stroke-linecap:round;stroke-linejoin:round;" d="M371.455,180.548l2.229,4.667l4.292-1.454l2.119-2.826l-0.068-4.154l-2.36-2.94l-4.23,0.646l-1.98,6.062"/>
				<path d="M307.483,76.834l0.526-0.131l1.212,2.163l-2.573-0.208l-0.538-1.932l1.373,0.108"/>
				<path d="M314.496,101.837l-1.349,1.785l-0.675-0.223l0.08-1.026l1.612-0.736l0.398-0.658l0.618,0.91l0.119,0.698l-0.558,0.478l-0.247-1.228z"/>
				<path d="M380.139,176.22l1.352-1.786l0.46,0.726l2.203,0.517l0.907,1.618l-0.58,0.819l-2.764-0.046l-1.144-0.78l-0.435-1.067"/>
				<path d="M315.159,117.558l4.342-0.347l1.781,1.516l0.713-0.291l0.421,1.24l2.603-0.135l2.664,1.239l-1.272,3.001l-1.031-0.082l-0.21,0.5l0.331,0.197l-0.042,0.512l-0.838,1.831l-1.065,0.429l0.503,0.214l-0.427,0.999l-2.338,3.432l-3.023-1.099l-3.287,0.09
					l1.317,0.79l0.856,2.308l-2.516,3.419l-2.629,0.48l-0.647-0.566l1.109-0.949l-0.816-0.578l0.348-2.216l1.138-1.287l-1.058,0.266l-0.724-1.782l0.178-2.222l0.309-1.703l0.364-0.313l0.816-5.962l0.386-0.486l2.251,2.07l-0.96-0.937l0.111-1.37l-0.807-0.751
					l0.263-1.187l0.887-0.27"/>
				<path d="M355.947,99.587l-0.11,1.366l0.795,0.928l-2.087,0.181l0.74-2.871l0.662,0.396"/>
				<path d="M279.36,76.514l0.576,1.425l-0.555,0.475l-2.083-2.063l2.063,0.163"/>
				<path d="M364.627,164.843l1.049-0.091l-0.084,1.027l-0.555,0.47l-0.721,2.526l-1.968,0.881l0.491-1.855l1.365-1.962l0.029-0.341l0.393-0.654z"/>
				<path style="stroke-linecap:round;stroke-linejoin:round;" d="M349.506,236.367l3.818-0.918l4.013-4.252l-0.043-0.812l-3.014,0.126l-3.349,1.732l-1.426,4.124"/>
				<path style="stroke-linecap:round;stroke-linejoin:round;" d="M365.894,233.954l0.027,5.755l2.15,2.301l1.594-4.245l0.031-4.115l-3.803,0.303"/>
				<path style="stroke-linecap:round;stroke-linejoin:round;" d="M333.847,221.531l5.845,0.15l0.306,4.899l4.089-0.797l5.4-7.411l3.252-0.088l3.72,2.306l3.836,3.072l3.746-4.35l-4.51-2.163l-2.364-3.977l-3.314-3.117l-4.987-3.113l-4.17-4.046l-1.36-4.897
					l-4.065,4.053l-1.101,4.083l-0.809,5.689l0.946,5.738l-4.459,3.968"/>
				<path style="stroke-linecap:round;stroke-linejoin:round;" d="M327.665,141.837l2.844,4.289l2.121,5.042l2.832,4.197l5.228,3.39l4.764-0.002l6.813,1.429l3.331-1.011l5.419,3.7l2.692-1.908l2.552-5.205l2.446,3.821l6.376,4.07l-0.175,6.667l3.602-3.883
					l3.492,4.388l5.094,2.383l2.193,4.597l2.09,3.763l-1.863,3.729l-2.109,4.586l-2.687,3.818l4.508,4.209l-3.458,3.948l-5.433,0.847l-6.342-0.81l-0.284,3.338l-2.313,1.074l-0.973,4.228l2.918,3.809l6.396-0.769l2.816-2.897l4.689,0.097l4.652,1.707l4.192,0.879
					l4.048,1.714l0.839,4.026l4.333,2.46l3.645,0.855l4.79,0.549l2.066,2.042l4.698,1.332l4.541,0.461l4.689-0.528l-1.191-3.966l-4.216-2.211l-4.738-2.954l-4.084-2.318l-2.813-3.545l5.583,1.059l4.792,2.079l5.596,1.768l5.35-1.75l-1.041-6.677l-4.424-2.896
					l-1.877-4.625l-3.688-2.289l-5.53-2.604l-3.702-4.097l-0.896-6.63l7.833,2.769l3.744,4.855l5.644,1.567l-0.366-5.164l3.894-3.241l-0.548-4.24l0.331-6.399l-3.916-2.014l-9.744-3.433l-4.568-2.788l-5.562,1.816l-5.847-2.578l-1.368-4.756l4.03-2.922l-5.065-2.772
					l0.188-4.357l-4.071-3.956l-5.343-1.952l-6.044-4.436l-4.122-1.602l-4.967,0.179l-0.935-4.842l-1.572-3.036l-4.008,1.513l-3.458-1.462l-3.043-0.598l-3.031,3.65l-3.466,0.331l-2.766,3.157l0.629-4.962l-2.239-4.445l0.643-4.478l-1.559-2.363l-3.393,0.992
					l-3.871,3.379l-3.296,4.114l-0.54,9l1.011,4.09l-3.057-3.305l-0.338-8.191l1.269-4.067l1.671-2.761l4.145-2.652l-3.913-0.293l-4.351-0.066l-2.86,2.345l-3.297,3.924l-1.708,3.977l-1.541,3.98l-0.452,5.714"/>
				<path style="stroke-linecap:round;stroke-linejoin:round;" d="M355.455,122.258l-0.657,3.325l1.281,4.181l3.985,1.105l2.729-1.781l4.709,0.544l0.045-2.994l-1.542-3.914l-3.243-1.545l-3.935-0.048l-3.373,1.126"/>
				<path style="stroke-linecap:round;stroke-linejoin:round;" d="M313.476,107.798l2.852,2.345l3.846,2.09l0.734-5.192l-1.333-3.669l-2.85-0.466l-3.249,4.893z"/>
				<path style="stroke-linecap:round;stroke-linejoin:round;" d="M318.182,88.368l-0.848,3.498l1.946,4.491l4.361-0.173l2.239,2.761l0.326,4.156l-1.278,3.962l-0.128,4.936l5.006,2.612l4.798,0.95l4.404,0.656l4.646,0.019l2.78-3.326l4.033,2.297l4.469-1.938
					l1.146-4.217l-0.359-3.745l-4.48-2.109l-3.66,0.176l-4.283-0.89l-4.684,2.268l-4.865-1.349l-3.217-3.012l1.319-1.701l-2.383-2.167l-0.878-2.873l-3.973-0.467l-2.605-3.018l-3.833-1.798"/>
				<path style="stroke-linecap:round;stroke-linejoin:round;" d="M325.505,60.05l1.571,3.068l0.661,3.896l-1.387,3.278l0.033,4.464l2.179,3.907l5.558,0.486l2.532-3.467l1.771-4.507l2.54-2.401L341,65.007l-3.082-1.223l1.01-4.059l-1.307-2.511l-3.628-1.045
					l-1.448-3.089l-0.563-4.526l-2.354-0.285l-0.883,4.338l-2.52,3.089l-0.721,4.353"/>
				<path style="stroke-linecap:round;stroke-linejoin:round;" d="M334.456,46.342l0.331,4.967l2.548,3.439l4.411,0.105l3.165-1.354l4.476-0.268l4.55-1.637l-2.682,3.131l-4.592,1.977l-1.849,2.198l-3.623-1.592l-1.48,5.391l2.619,1.652l0.016,4.426l1.136,3.759
					l-2.714,1.146l-3.262,5.651l4.046,2.535l-5.041,0.692l-0.185,4.1l2.109,1.698l-2.603,1.055l-3.137,2.762l-0.286,4.082l4.026,1.052l6.039,0.922l2.707-1.658l3.141,0.706l2.42-1.769l1.581,3.17l4.438-2.871l2.35-4.397l-3.786-3.688l2.999-3.659l-1.118-3.148
					l4.311-1.452l0.802-5.139l-0.882-4.837l0.892-5.17l3.903-3.03l1.312-5.255l0.812-4.151l2.055-4.419l1.904-5.569l-0.784-2.332l1.244-3.502l0.682-2.992l-0.861-1.945l-2.599-0.309l-2.676-1.607l-3.579,0.048l-3.45-0.67l-3.174,0.805l-2.151,1.446l-2.871-0.173
					l-4.548,1.849l-2.065,3.415l-5.31,4.493l-0.049,2.133l-3.236-0.135l-2.43,3.923"/>
				<path style="stroke-linecap:round;stroke-linejoin:round;" d="M317.691,59.454l2.786,2.165l-1.051-4.443l-1.735,2.278"/>
				<path style="stroke-linecap:round;stroke-linejoin:round;" d="M303.953,62.417l0.042,2.106l2.589,2.648l-2.476,2.266l0.823,2.701l3.452,2.459l2.604,0.726l0.619,4.402l2.758-1.022l6.215,0.45l1.357-2.764l-0.384-2.566l-3.437-4.178l-1.208,3.934l-1.687,3.639
					l-1.862-0.937l0.041-3.546l0.975-3.814l-1.766-3.685l-2.821-0.826l-1.622-2.418l-2.437-0.845l-1.776,1.27"/>
				<path style="stroke-linecap:round;stroke-linejoin:round;" d="M317.584,81.915l3.487,2.633l4.09,1.77l2.031-1.889l-0.056-2.311l-5.134-1.059l-4.419,0.856"/>
				<path style="stroke-linecap:round;stroke-linejoin:round;" d="M299.956,77.016l-0.924,4.715l2.459,1.879l-0.104-3.656l0.667-3.063l-2.099,0.125"/>
				<path style="stroke-linecap:round;stroke-linejoin:round;" d="M297.779,87.554l0.342,4.437l-0.469,3.302l1.105,4.651l4.155-1.016l0.757,5.982l5.574,1.331l2.304-4.688l0.476-4.08l0.788-3.673l-2.733-3.485L306.3,89l-2.231,2.253l-1.327,3.889l-1.227-4.123
					l-1.405-3.21l-2.33-0.254"/>
				<path style="stroke-linecap:round;stroke-linejoin:round;" d="M293.649,101.386l2.88,0.775l-0.583-3.625l-2.297,2.849"/>
				<path style="stroke-linecap:round;stroke-linejoin:round;" d="M291.772,123.498l0.839,3.167l-0.098,3.901l3.146,0.849l1.924,4.732l1.644,5.435l4.281-2.404l4.617-0.755l1.56-5.542l-0.177-5.677l-3.63-2.575l3.699-3.932l-0.809-5.16l-3.321,1.444l-3.358-1.66
					l-3.279,0.826l-1.325,3.048l1.321,5.096l-4.084-1.455l-2.95,0.66"/>
				<path style="stroke-linecap:round;stroke-linejoin:round;" d="M287.028,65.082l3.362,1.143l1.256,2.043l2.743,0.886l1.954-1.12l-2.506-3.262l-4.34-1.203l-2.47,1.513"/>
				<path style="stroke-linecap:round;stroke-linejoin:round;" d="M282.326,66.245l0.162,2.543l1.618,0.314l1.258-3.051l-3.038,0.194"/>
				<path style="stroke-linecap:round;stroke-linejoin:round;" d="M285.036,69.591l-0.883,3.26l2.542,2.159l4.122-0.796l2.138-3.896l-2.098-0.768l-2.805,0.278l-3.016-0.237"/>
				<path style="stroke-linecap:round;stroke-linejoin:round;" d="M262.583,81.205l1.539,2.169l2.257-1.698l2.676-2.803l-3.583,0.476l-2.889,1.856"/>
				<path style="stroke-linecap:round;stroke-linejoin:round;" d="M257.269,69.32l-0.239,4.575l2.557,1.272l2.17,2.509l3.987-1.284l2.937-2.026l1.737,3.409l4.745-1.967l1.023-3.586l3.292-0.969l-1.091-3.476l-3.129,1.389l-2.882-2.224l-3.119,0.097l-3.643,0.679
					l-4.224,1.615l-4.122-0.014"/>
				<path style="stroke-linecap:round;stroke-linejoin:round;" d="M264.493,86.33l2.492,2.813l1.594,2.798l3.568-1.254l0.733,4.087l-3.787,0.253l0.163,2.511l2.574,2.231l3.072,0.228l3.484-1.295l3.552-0.578l4.765,2.489l3.268,0.362l1.877-3.864l2.1-3.434
					l-2.481-2.484l-2.321-4.284l0.565-4.758l-2.601,1.209l-2.941,2.261l1.36,2.242l-1.604,2.165l0.162,3.663l-4.232-2.639l0.224-3.717l-0.523-3.007l-2.146-3.886l-2.64-2.016l-2.998,2.071l-7.278,5.831"/>
				<path style="stroke-linecap:round;stroke-linejoin:round;" d="M242.45,115.191l2.138,4.029l-2.618,2.289l1.354,4.083l4.343,3.39l4.24,1.883l2.67,4.466l-5.079,0.236l-4.442-2.365l-3.916-1.615l-2.015,5.884l2.615,4.271l4.395,2.31l-0.807,6.96l4.885,1.605
					l5.871,1.532l6.16-0.138l4.974,0.169l4.686-1.803l1.89,4.302l3.344,4.016l4.64,0.038l4.484-1.819l-0.711-3.93l4.071,0.252l1.702-4.292l-4.856-3.205l-3.723-3.857l-1.919-4.577l2.331-5.273l-0.014-5.55l0.402-4.202l3.804-3.561l2.476-2.97l-1.32-3.396
					l-4.24-1.158l-3.961,3.769l-3.384,3.97l-3.008-4.8L270,116.018l-1.876-3.401l-5.075,1.529l1.551-5.679l-2.934-1.54l-3.654,1.196l-4.058-0.237l-3.793,0.615l-1.448,2.401l-3.544,0.925l-2.719,3.365"/>
				<path style="stroke-linecap:round;stroke-linejoin:round;" d="M229.505,100.106l0.934,5.963l-1.535,6.112l4.887,0.436l3.521,1.398l5.087-2.58l4.635-4.905l9.998-1.059l4.954-0.621l-2.018-4.91l-0.234-4.946l-4.179-2.598l-2.484-4.657l-4.688-0.301l-4.77-1.533
					l-2.056,5.732l-3.654,3.67l-8.397,4.796"/>
				<path d="M184.361,96.42l-0.925,0.79l-0.266,1.181l0.488,2.62l0.686,0.059l0.506-4.269l-0.489-0.38"/>
				<path d="M187.201,97.676l0.491,0.381l0.235-0.839l1.108,1.292l0.541-0.302l-0.488-0.382l1.412-0.404l0.412-0.832l0.343,0.03l-0.848,1.999l0.964,0.936l-1.083,0.601l-4.73,0.834l-0.604-1.08l0.673,0.226l0.199-0.328l-0.092-1.041l1.034-2.155l0.434,1.065"/>
			</g>
			<text transform="matrix(1 0 0 1 206.2168 280.812)"><tspan x="0" y="0" style="fill:#000000;stroke:none;">Canada</tspan></text>
		</g>
	</g>
</svg>
