<?xml version="1.0" encoding="iso-8859-1"?>
<!DOCTYPE svg >

<svg  width="739.023pt" height="600.859pt" viewBox="0 0 739.023 600.859" xml:space="preserve">
	<g id="Layer_x0020_1" style="fill-rule:nonzero;clip-rule:nonzero;fill:#FFFFFF;stroke:#000000;stroke-miterlimit:4; font-family:'Arial'; font-size:10;">
		<g>
			<text transform="matrix(1 0 0 1 192.5474 446.269)"><tspan x="0" y="0" style="fill-rule:evenodd;clip-rule:evenodd;fill:#000000;stroke:none;">Singapore</tspan></text>
			<path style="stroke-width:1.5;" d="M176.738,415.083l-0.204-1.269l-1.056-0.216l-1.501,0.635l-0.837,2.128l2.967-0.221l0.631-1.058"/>
		</g>
		<g>
			<g>
				<path d="M408.863,264.172l1.047-0.529l0.265,0.529l0.527,4.456l-0.792,1.584l1.308,6.031l-0.516,1.839l-2.628,1.83l-3.939,4.471l-4.724,2.355l-0.79,3.937l-12.591,12.082l-2.359,1.828l-2.365,0.524l-3.679,3.666l-1.831-0.516l0.786-3.419l2.105-3.408
					l5.772-4.986l1.829-0.253l10.757-12.076l1.575-0.786l1.851-2.633l3.941-2.616l2.081-3.677l-0.256-2.627l0.787,1.313l1.049-0.791l-1.58-2.089l2.369-6.04"/>
				<path d="M498.882,288.834l-0.272-0.524l2.895,0.268l1.832,2.62l1.845,1.055l2.625,3.408h1.569l1.315,2.354l1.837,4.743l-2.62,3.402l2.62,1.571l0.262,3.408l1.057,1.056l0.252,4.987l2.103,5.516v4.983l-4.466,4.986l-0.258,6.826l-1.837-1.585l-0.792-3.407
					l-0.262-4.47l-2.618-4.719l-1.317-0.785l-1.314,1.566l-3.937,6.305l-0.518,3.681l1.835,1.568l2.361,6.308v1.566l-3.418,5.776l-2.099-1.306l-0.778-4.991l-2.366,1.572l-2.893,0.524l-8.39-3.933l-2.362-2.372l-1.321-2.349l-1.838-8.668l3.159-4.198v-2.365
					l-5.518-4.989l-2.359-1.042l-2.101,0.26l-2.098,5.506l-3.404-1.052v-1.829l-3.681,3.146l-0.535,1.842l-1.567-5.773h-2.091l-3.158,3.416l-3.409,8.381h-3.415l-1.045-2.875l3.146-10.762l2.891-3.16l8.389-2.351l1.053-2.363l6.299-5.246l5.511,1.838l1.319,3.408
					l-1.575,4.986l6.027-2.623l2.111-4.456l2.886-1.315l1.838,0.794l1.572-1.844l0.526-3.148l1.306-1.572l3.15,1.044l3.407-1.577l1.847,0.788l1.305-1.303l0.527-3.681l-1.045-6.826"/>
				<path d="M475,287.006l5.502-4.991l3.416,1.573l2.098-0.787l-0.258,5.776l-0.789,1.049l-3.668,1.049l-4.198-0.267L475,287.006"/>
				<path d="M477.363,265.996l0.779-0.245v1.038l-0.528,11.815l-3.153,2.874l-4.722,10.512l-1.041,0.781l-0.786-6.032l2.095-5.261l2.629-4.707l3.673-9.982l1.055-0.793"/>
				<path d="M507.806,284.637l1.569,3.149l-1.832-1.57l0.263-1.579"/>
				<path d="M500.717,282.015v-2.103l1.045-2.369l0.779,1.321l0.795,7.874l-0.521,0.796l-2.098-5.52"/>
				<path d="M483.917,264.172l1.313-0.529l1.308,0.779l3.686-0.25l2.09,2.616l0.271,6.828l3.663,7.351l-1.831,0.781l-1.832-0.52l-0.271,2.889l-2.09-0.529l-1.324-2.89v-7.082l-1.303-3.142l-3.148,0.782l-2.368-9.204l1.837,2.119z"/>
				<path d="M483.389,259.452l0.273-1.058l1.568,1.058l1.056,1.828l-1.573,0.773l-1.324-2.602"/>
				<path d="M461.871,272.046l2.636-2.104l5.5,1.314v2.359l-0.521,3.411l-1.316,1.055l-0.258,3.146l-2.618,5.777l-0.273,3.669l0.788,3.931v3.163l-2.625,1.572l-3.937-5.004l-3.671-2.61l-1.829-2.627l0.78-3.677l4.195-1.572l1.055-2.103v-4.721l2.094-4.981"/>
				<path d="M457.146,274.406l0.526,0.525v2.355l-2.097,0.796v-1.839l1.57-1.838"/>
				<path d="M446.392,256.033l3.146,0.52l3.414,2.368l0.794,1.561l6.03,0.538l0.521,1.033l3.407-0.514l0.265,3.416l-1.047,3.149l-2.105,1.313l-4.46,4.46l-6.819,2.366l-2.102,2.36l-0.788-3.141v-3.417l1.579-11.289l-0.527-1.581l-1.309-1.565v-1.578"/>
				<path d="M482.081,246.322l7.084,0.267l3.421-1.315l3.663,1.581l1.062,2.093l2.351,1.836l0.267,9.974l3.409,7.871H499.4l-3.151-0.786l-1.043-2.887l-3.681-2.358l0.789-3.421l-0.524-0.782l-4.192-4.464l-1.84-0.787l-1.84-2.36l-1.837-4.462"/>
				<path d="M466.333,245.541l1.837,1.574h1.316l7.616,6.293l1.04,4.464l-2.887-0.788l-2.091-1.85l-2.896-3.661l-3.936,3.156l-0.786-0.54l0.786-8.648"/>
				<path d="M472.111,244.486l0.524-0.516l1.045,5.762l-0.516-1.836l-1.054-3.41"/>
				<path d="M462.393,237.131l0.53-0.257l2.097,6.298l1.313-2.629l1.05,2.363l-1.574-0.79l-3.415-4.194v-0.792"/>
				<path d="M454.007,247.367l0.254-0.513l1.314,0.26l1.309,3.923l0.535-1.573l-3.158-0.781l-0.254-1.317"/>
				<path d="M447.173,247.367l0.264-2.36h1.313l-0.264,6.031l-0.786,1.052l-0.786-1.565l0.259-3.158"/>
				<path d="M445.341,233.989l-0.788-0.531l0.268-2.356l2.88-0.257l1.05,0.782l0.529,1.571l-0.793,2.622h-1.572l-1.573-1.831"/>
				<path d="M445.599,208.272l0.268-1.048l1.57,0.511l0.264,5.263l-1.309,0.525l-0.793-5.251"/>
				<path d="M451.119,155.261l1.311,1.836l-2.364,4.458l-0.259,8.926l2.623,2.617l2.098,2.894v2.615l-5.247,12.604l-1.579,1.045l-0.264-0.522l-4.457,3.155l-1.567,2.357v2.615l-1.318,2.639l-1.836,1.304l1.565,5.251l2.626,3.943l-0.781,1.308l0.265,2.883
					l1.306,4.728l4.198,3.413l3.415-0.795l-0.262-1.047l0.262-2.621l0.782,0.52l2.373-2.093l2.877,0.266l1.313-1.057l1.843,0.792l1.83,1.573l1.835,5.772l1.314,1.052l1.574-1.573l-0.262-2.889l8.667,3.41l0.785,1.313l-2.36,0.525l-2.112,1.834l0.535,2.093
					l3.408,1.837l-0.795,2.367l0.268,0.786h1.309l0.271,0.786l1.565,0.532l1.058,1.047v5.249l-1.317,1.315l-1.829-1.835l-0.785-2.09l1.835-1.32l-4.458-0.26l-4.724-2.893l-1.059-3.144l-1.574-2.376l-3.149-1.302l-4.451-4.984l-2.893-0.787l0.525,3.411l2.62,7.079
					l-1.314-0.256l-1.831-3.16l-6.04-5.765l-2.36-1.308h-4.983l-1.575,2.621l-2.096,1.308l-2.37,0.26l-1.31-1.568l-2.097-0.261l-2.104-1.828l-1.311,1.047l-1.311-5.258l0.799-2.093l3.394-4.199v-1.836l-1.821-1.313h-2.638l-1.054,5.243l-3.67-5.243l-1.837-0.257
					l-1.313-4.473l-4.469-17.849v-0.79l2.375,0.79l2.609,2.626l3.157-1.045l-0.523-8.141l1.846-8.129v-11.555l1.042-6.032l1.316-2.621l1.827-2.107l8.411,1.053l6.026,3.417l3.149,0.258l1.838-0.787l0.528-2.888l2.1-0.257l1.054,1.837"/>
				<path d="M423.042,232.403l-0.537-0.777h1.062l9.176,0.259l2.36,0.518l3.679,3.691l0.787,0.248l0.256,6.054l0.794,3.145l-1.05,0.781v2.102l-3.932,2.88l-1.058-2.097l-2.087,1.577l-2.899-9.179l-0.25-3.426l-1.572-2.085l-1.846-1.053l-0.795-2.102l-2.088-0.536"/>
				<path d="M415.945,249.732l2.109,1.841h1.832l1.31,2.097l-2.364,0.259l-1.31-1.054l-1.577-3.144"/>
				<path d="M415.425,255.234l2.629,2.105l-0.793,1.581l-1.836-3.687"/>
			</g>
			<text transform="matrix(1 0 0 1 456.9224 214.0083)"><tspan x="0" y="0" style="fill:#000000;stroke:none;">Philippines</tspan></text>
		</g>
		<g>
			<g>
				<path d="M545.855,395.653l1.31,1.835l0.26,3.408l-2.092,3.686h-2.629l-0.775-5.781l1.303-1.838l2.624-1.31"/>
				<path style="stroke-width:1.5;" d="M631.666,529.752l-0.516-1.579l0.516-0.252l1.846,2.36l2.361,1.044l0.783,0.787l0.267,2.63l-1.05-0.264l-4.207-4.727"/>
				<path style="stroke-width:1.5;" d="M613.819,516.629l1.054-0.778l0.792,0.513l-1.566,4.472l-0.799,0.254l0.52-4.46"/>
				<path d="M578.133,450.501l3.151-1.313l1.307,0.781l0.266,4.72l-1.572,0.271l-1.577-0.783l-1.574-3.675"/>
				<path style="stroke-width:1.5;" d="M361.101,484.874l1.046,2.367l0.798,6.571l-1.58,2.092l-1.316,0.261L359,488.543l0.787-2.876l1.313-0.794"/>
				<path d="M46.177,351.032h7.61l1.572,0.79l2.092,3.148l3.687,0.527l1.561,0.793l10.767-0.271l2.62,1.313l5.513,0.535l4.461,3.4l1.325,3.683l1.039,1.563l1.834,1.055l2.627,5.249l6.822,6.287l9.45,4.203l8.139,7.874l0.785,2.89l3.672,0.79l1.571,3.417l3.941,3.928
					l3.143,1.839l0.792-2.36h2.632l1.834,1.312l2.885,5.78l9.448,4.191l2.884,4.468l1.045,0.527l0.273-2.902l4.453,4.203l5.253-0.26l2.1,1.051l0.782,0.779l-0.518,1.58l-0.789,1.055h-1.313l1.313,5.517l-3.673,2.61l0.525,0.28l8.917-4.219l3.415,2.894l1.575,3.938
					l-3.671,3.678l2.623,1.044l-0.794,2.106l-1.829,1.564l-1.053,2.618l1.312,2.116l5.252,2.885l7.345,0.781l2.104,5.525l1.047,4.979l-0.521,1.836l4.199,1.57l1.565,1.582l-1.565,3.939l2.097-0.531l4.973,0.531l5.262,1.297l3.669,6.312l1.836,1.825l0.799,2.637
					l-2.635,8.915l0.785,0.54l0.267,1.572l-1.314,8.125l0.263,12.856l-1.303,7.885h-1.581l-5.252-4.199l-0.795,0.777l-0.517,2.366l-1.836,0.526l-5.25-3.67l-2.106,0.255l2.106,4.198l-1.313,0.793l-9.454-8.671l-3.93-4.724l-4.199-1.844l-5.249-4.982l-7.086-4.978
					l-2.888-1.05l-2.099-2.629l-0.792-3.671l-1.573-1.841L148,487.241l-15.221-16.792l-1.048-1.834l-0.531-4.992l-6.296-11.816l-0.265-3.146l-2.62-3.676l-4.986-4.985l-2.625-4.988l-4.727-3.133h-2.103l-0.786-0.801l-3.147-11.541l-3.143-6.566v-2.885l-4.991-5.243
					l-5.253-2.889l-6.029-1.572l-2.366-8.406l-2.098-0.791l-5.25-7.874l-4.98-4.203h-2.892l-4.986-5.495l-4.454-3.162l-6.305-6.822l-3.938-6.817l-0.782-5.777"/>
				<path d="M735.599,511.124l-1.311-34.643l0.523-2.104h-3.676l-1.051-1.821l-4.459-1.842l-2.633,0.255l-2.089-1.054l-3.942,0.799l-3.416-0.799l-6.285-3.924l-6.571-2.107l-1.048-1.045l-10.504-3.686l-0.774-1.563l-1.845-0.782l-8.652,5.498l-1.324,1.06
					l0.274,2.626l-2.36,1.831l-9.45,1.834l-1.572,4.462l-5.525,4.204l-0.517,2.349l-3.686,2.113l-1.565,3.152l-5.514,0.255l-4.729-2.886l-2.091-4.198l-1.307-4.465l-2.895-0.79l-0.78,3.676l-3.41-5.251l-1.578-6.286l1.313-7.096l-0.264-4.207l-1.842-2.883
					l-1.043-4.45h-8.922l-7.613-5.518l-3.675-1.052h-3.942l-3.672,1.052l-4.99,4.466l-8.654,2.355l-4.462,8.403l4.726,2.091l0.786-1.836l1.843,1.313l2.616-0.516l2.625,1.567l1.831,1.313l0.531,3.143l2.103,4.214l4.195,2.096l2.095-0.792l6.826,1.058l14.181-4.207
					l-1.318,3.676l-0.259,2.877l-2.365,1.059l-3.406-0.266l-2.635-1.047l-8.131,4.198l-3.938-1.058l-3.672,0.269l-2.622,1.313l-0.526,2.358l2.36,0.784h3.679l2.897,1.843l2.082,3.423h1.842l-0.263,4.454l1.571,6.562l1.575,0.785l4.996-0.785l1.828-1.839l3.939-8.132
					l1.829-6.834l0.536,2.366l-1.318,3.153l-0.259,2.876l0.521,1.848l2.63,1.309l0.784,1.577l3.939,2.358l1.046,1.581l0.256-1.844l4.997,0.263l0.519,2.361l1.575,2.099l3.408,1.576l0.527,0.79l11.281,1.313l5.248,2.369l6.302,1.31l5.777,2.878h2.624l4.978,2.363
					l2.892,0.789l3.16,3.423l3.405,0.512l3.94,5.515l0.786,6.82l2.367,3.676l2.088,1.578l-1.044,4.723l-1.58,0.526l3.159,2.358l3.143,0.791l-2.102,0.519l-0.265,0.792l2.897,2.622v2.101l-4.726-2.62l-2.365-0.266l-3.407,1.309l-4.475,4.992l-3.405,7.092l0.259,2.614
					l7.355-0.521l5.772-1.586l1.317,1.066h1.824l0.798-0.542l0.263-2.349l1.57,1.316l2.102-2.109l5.242,1.052l6.298-1.835l14.177,13.37l5.511,2.891l-1.051-3.67l-0.79-27.029l-2.092-4.725l1.575-6.816l-0.265-19.949"/>
				<path d="M528.793,457.318l3.151-1.315l2.616,0.535l4.726,2.094l0.53,1.052l-0.53,1.313l-8.659,0.534l-1.834-1.055v-3.158"/>
				<path d="M527.751,440.787h2.621l1.039,1.574l0.533,2.104l3.144,2.891l-0.527,1.304l-1.827-1.304l-2.361,0.261l-2.621-6.83"/>
				<path d="M536.667,401.953l1.05,0.255l0.267,1.576l-2.365,3.939l1.049,1.055l1.05,3.142v4.47l-5.512,5.242l0.264,0.523l2.092,0.537l3.946-3.427l2.621-4.992l2.365-1.565l3.152-0.252l1.832,3.143v3.407l-6.035,4.465v1.042l4.722,2.627l0.525,2.105l2.359,2.353
					l-2.359,0.28l-2.628-1.581l-6.824-1.854l-1.57,1.59l0.268,9.436l3.151,5.78l3.145,3.412l-1.303,0.272l-8.147-9.465l-0.791-8.391l-1.578-3.663v-3.417l-0.507-2.365l-2.637-3.415l0.262-2.885l2.375-6.554l1.564-2.631l4.198-4.194"/>
				<path d="M508.325,481.991l1.051,1.315l9.188-2.372l5.242,3.428v1.306l1.581-0.263l0.514,3.681l-0.779,2.092l-5.517,2.364l-3.934-0.806l-3.144-1.559l-1.837-2.371l-2.626-4.979l0.26-1.836"/>
				<path d="M506.225,465.712l0.792-0.52l1.048,7.085l-2.097-4.455l0.257-2.11"/>
				<path d="M498.882,462.839l-0.523-0.533l3.677,1.06l3.655-0.801l6.311-0.259l-3.677,1.578l-7.607,1.055l-1.835-2.1"/>
				<path d="M483.663,460.476l5.237,0.262l2.89,1.049l3.941-0.256l0.785,1.309l-2.888,1.3H488.9l-2.361,1.853l-1.825-0.53l-1.324-3.155l0.273-1.83"/>
				<path d="M465.808,456.265l1.316-1.576l1.045-0.513l1.837,0.513l0.262,0.542v2.087l-1.032,1.578l-2.111-1.048l-0.53,1.571l-1.048-1.304l0.262-1.851"/>
				<path d="M463.442,452.861h1.578v2.37l-2.366,3.665l-2.355-0.265l-0.521-2.366l0.521-1.306l3.144-2.099"/>
				<path d="M462.923,495.904l0.782-0.79l1.841,1.051l0.526,1.313l-0.526,1.571l-1.04,0.256l-1.323-0.777l-0.26-2.623"/>
				<path d="M459.51,510.596l0.53-0.521l0.524-6.57l1.567-2.354l2.374,3.148l1.04,2.629l-0.793-0.267l-2.1,3.669v1.313l1.316,0.79l1.05,1.842v2.089l-5.773,4.472l-1.827-1.579v-1.839l2.091-6.821"/>
				<path d="M452.953,506.662h2.1l1.585-1.31l1.035,0.523l0.786,4.199l-1.574,6.555l-0.526-1.044l-1.831,1.044l-2.098-0.778l0.523-9.189"/>
				<path d="M445.341,513.749l1.051-1.055h1.309l1.316,1.581l-0.267,2.631l-1.313,0.512l-1.311-1.566l-0.785-2.103"/>
				<path d="M434.058,415.598l-2.895,0.25l-1.571,1.059l-0.791,3.415l-2.353,2.881l-2.101,0.268l-1.844-1.575h-1.309l-3.142,3.413l-1.316,3.134l-0.793,4.743l-1.834,3.139l1.314,1.844l0.26,6.024l-0.791,3.164l-0.531-2.891l-3.398,4.723l-3.148,5.771l0.258,8.406
					l-3.939,8.646l-2.884,3.681l0.262,8.921l2.357,3.678l6.565-0.785l2.104,9.177l-2.104,12.864l-1.835,5.784l1.574,4.187l2.365,1.051l3.669,0.268l7.085-1.048l1.055-0.79l-1.307-3.943l-0.267-4.458l1.842-3.668l-1.051-2.629l0.261-17.845l-2.11-3.67l1.325-3.417
					l6.551-4.467l3.41,0.271l0.79,1.832l0.521,5.51l-2.362,3.94l1.842,4.201l6.302,5.248l1.574,2.093l-1.051,3.422l0.261,3.934l1.315,3.135l4.198,0.265l2.888-1.823l1.572-3.675l3.932-1.055l3.938,0.263l1.318-1.311l0.777-1.305l-0.777-2.369l-1.843,0.52
					l-1.84-1.044v-2.627l-4.724-4.199v-3.935l2.112-0.524l0.78-1.841l-2.63-4.719l-1.307-0.528l-7.872-10.757l-3.938-2.361l-0.261-2.896l3.413,1.058l1.568-0.257l9.199-4.212l8.117-9.185l3.152-0.781l3.683,1.573l1.583-1.573l0.25-3.146l-1.574-2.369h-2.892
					l-4.455,1.312l-0.524,2.372l-10.502,0.515l-1.311,2.099l-5.778-1.31l-3.146,1.31l-4.202,4.72l-0.789,1.576l-5.765,0.272l-4.2-6.3l-2.888-1.05l-1.838-2.368l-0.275-8.126l0.797-3.684l2.099-3.672l2.626-2.896l9.444,0.803l3.679-1.586l2.626,0.783l1.051-0.506
					h2.095l2.363,1.309l10.231-1.309h4.46l4.476,1.051l2.876,1.833l13.131-0.788l5.499-4.197l7.093-8.397l1.313-2.631v-4.198l-0.788-0.79l-1.576-0.253l-2.884,1.559l-2.099,2.896l-2.102,1.313l-5.776,5.786l-3.944,1.037l-9.964-1.319l-5.774,1.319l-6.552-2.619
					l-12.334-0.53l-1.845-1.568l-0.525-1.589l-4.984-0.25"/>
				<path d="M346.664,537.629h3.408l1.051,0.527l0.259,1.309l-3.412,1.566l-1.306-2.083v-1.319"/>
				<path d="M309.139,539.98l4.985-1.301h12.597l1.311,2.889l-8.393,2.884l-8.406-1.047l-1.833-0.791l-0.262-2.634"/>
				<path d="M342.737,557.574l2.611-0.779l2.622,0.515l2.636,1.319l1.571,2.094l0.267,2.095l-4.724,2.633l-1.581,2.887l-2.63-4.209l-2.096-1.831l-4.464-0.777l-1.308-0.797l-0.255-2.887l0.785-1.041l6.567,0.779"/>
				<path d="M358.735,563.092l3.947-3.683h2.88l2.36,1.313l0.261,3.149l-1.051,3.149l-0.258,2.622l-8.14,0.531l-2.362-0.791v-2.106l1.833-0.786l0.529-3.398"/>
				<path d="M373.694,562.296l2.622-0.777l5.248,1.04l4.725,3.932l4.462-1.306l-0.26-1.058l-4.992-3.405l-0.516-2.361l1.832-1.309l2.627,1.576l1.84,2.349l4.72-0.788l1.838,1.33l0.266,2.092l3.146-3.422l2.619,3.422l0.265,1.839l1.312,1.041l-1.828,0.53
					l-2.367-0.779v1.831l-3.678,0.523l-2.609-0.781l-0.539-1.324l-3.934,2.105l-7.872,2.624l-6.303,1.313l-3.146-0.257l-2.36-1.056l-0.789-1.577l-0.524-4.193l3.674-2.099l0.523-1.055"/>
				<path d="M417.261,575.424l2.086,2.612l1.579,0.263l5.522,3.688l2.894,3.403l0.773,2.887l-1.834,1.32l-2.631,1.311l-3.67-0.265l-2.634-3.415l-6.808-4.198l-6.83-0.254l-2.092-2.621v-2.118l4.198-1.315l7.869-0.253l1.576-1.044"/>
				<path d="M417.261,562.817l-1.836,0.534l-0.267,1.834l1.05,3.151l9.977-0.264l5.24,1.046l2.888,1.304l5.781-2.086l6.82,0.516l3.676-1.305l5.768-0.794l4.72-3.402l1.576-2.374l-0.783-3.142l-1.306-1.041l-0.267,2.356l0.779,0.794l-3.144,1.574l-4.188,3.666
					l-2.895-0.521l-2.624-2.104l-6.56,1.313l-2.101,0.792l-3.675-1.571l-1.58-1.849l-5.512-0.791l-1.575-1.043l-4.185,0.779l-5.78,2.628"/>
				<path d="M467.653,563.872l0.788-3.149l1.045-1.313l1.573,1.567l1.317-1.826l1.571-0.264l0.78,1.302l-2.617,3.683l-1.843,1.048l-1.57-0.256l-1.045-0.792"/>
				<path d="M477.614,563.092l-0.251-1.573l4.2-1.847v1.847l-1.582,2.877l-2.367-1.304"/>
				<path d="M484.713,558.887l8.128-0.526l1.318,1.828l-1.061,1.575l-1.832,0.795l-4.98,0.533l-1.838-1.054l0.782-1.316l-0.518-1.835"/>
				<path d="M460.818,600.091l0.26-1.573l2.628-0.536l4.992-3.934v1.848l-0.528,1.307l-1.837,1.579l-2.362,1.564l-3.152-0.255"/>
				<path d="M494.16,577.518l0.258,1.061l-1.576,3.15l-4.982,5.499l-11.024,4.47l-4.458,0.26l-1.581-1.579l2.101-2.358l0.269-7.351l1.835-1.824l2.103-1.845l4.979-2.369l7.084-2.355l3.149-2.633l2.104-3.401l9.972-1.578l1.836-1.053l2.361,0.517l7.614-0.517
					l7.08-2.092l2.367,0.777l0.253,1.055l-1.296,3.402l-4.465,1.319l-6.829,3.406l-3.936,1.054l-3.407,1.84l-5.78,1.314l-4.457,2.892l-1.571-1.061"/>
				<path d="M506.225,556.523l-1.311-1.575l2.103-3.408h4.46l5.247-2.626l3.671,3.149l-5.243,3.673l-8.927,0.787"/>
				<path d="M546.39,543.672l-0.535-0.268l1.31-0.526l0.793,0.256v1.317l-0.793,0.524l-0.774-1.304"/>
				<path d="M562.396,554.685l-0.27-0.78h3.146v1.314l-1.055,1.575l-0.786-0.271l-1.036-1.838"/>
				<path d="M585.483,552.853l1.05-0.523l-0.527-3.416l3.669-2.623l1.056-2.886l1.05-0.526l1.573,1.045v6.037l-4.721,6.563l-3.149-2.358v-1.312"/>
				<path d="M630.362,529.498l4.725,4.981l-1.315,4.986l-2.105,0.515l-1.042-0.515l-1.049-1.576l-0.263-2.09l0.525-1.32l1.049,2.357l0.529-0.521l0.25-3.411l-0.516,0.258l-0.788-2.09v-1.575"/>
				<path d="M632.196,522.932l3.15-5.515l2.366,1.062l1.579,3.144l-0.268,4.988l0.519,3.142l-1.042,1.839l-3.154-0.785l-1.319-1.841l-0.779-2.098l1.051-3.418l-0.787,0.537l-1.315-1.055"/>
				<path d="M537.195,488.543l-0.527-0.514l-0.271-3.668l0.539-1.848l4.193-3.935l7.084,0.528l5.779-0.785l1.574,0.785l5.25-1.32l5.24,3.146l4.733,0.28l2.1-0.543l2.36,0.797l2.884,6.037l2.099,0.524l0.527,3.67l-1.313,2.626l-13.391-7.871l-2.877-0.518h-2.363
					v1.304l-1.58,0.265h-3.147l-2.621-0.523l-2.359-2.108l-2.364,1.063l-0.786,1.568l-2.363,0.524l-2.626-1.314l-3.151-3.153l-2.622,4.981"/>
				<path d="M564.479,463.366h1.319l4.469-2.104h1.829l1.32,1.835v2.364l-4.997,1.567l-3.667-2.352l-0.273-1.312"/>
				<path d="M573.934,437.117l4.199-0.793l8.399,4.203l-6.037,1.571l-6.029-2.35l-1.326-1.055l0.794-1.577"/>
				<path d="M652.141,460.208v-0.525h2.11l6.817,1.313l8.128,0.534l1.31,0.53l0.531,1.562l-3.153,0.517l-6.034-0.517l-9.455-2.885l-0.254-0.529"/>
				<path d="M650.309,446.82l-1.057-0.778h1.309l5.263,0.778l4.454,2.891l2.624,3.15l-4.462,0.795l-1.312-1.055l-0.531-1.84l-6.288-3.941"/>
				<path d="M538.507,493.019l-0.79-0.525l0.521-2.367l2.891-1.583h1.048v2.112l-0.781,1.313l-2.888,1.051"/>
				<path d="M381.305,372.557l-5.255-1.317l-2.087-1.572l-14.176-0.268l-4.985,0.526l-1.845,2.368l-1.576,4.727l-0.776,5.774l-1.32,3.153l-7.349,8.392l-1.313,7.346l-2.364,4.99l-3.136,4.979l-5.256,2.618l-6.047,1.325l-3.147,1.577h-2.358l-7.082-2.113
					l-0.259-2.093l-1.573-0.514l-7.347-0.264l-1.324,0.264l-2.095,2.351l-4.463,5.25l-1.832,0.779h-5.516l-2.363,0.796l-2.624-1.575l-3.137,0.266l-3.153,1.054l-3.932-1.054l-3.423-3.146l-7.615-10.769l0.537-1.825l-1.059,0.781l-1.301,0.784l-3.937,5.508
					l-2.633,7.881l-0.257,8.651l2.89,5.251l0.526,8.923l1.299,1.044l1.325-0.259l1.568,1.838l2.618,1.058l4.467,7.614l1.301,5.24l-0.771,4.47l1.565,3.142l1.317,5.504l1.047,1.323l-0.257,2.612l1.038,3.94l1.844-0.256l1.063-0.789l2.871,2.372h6.564l3.935-2.106
					l2.884,0.779l2.1-2.61l1.836,5.508l0.786,5.245l6.036-2.093l5.001,0.518l5.761-3.148l-0.255-1.315l0.786-0.776l4.45,2.348h4.999l1.048,3.679l4.724-1.304h3.67l4.205,2.869l2.091,9.463l2.364-0.792l13.915-6.3l3.414-2.371l0.782-3.401l1.835-1.578l0.531-3.679
					h1.305l0.792-2.36l0.53-3.41l0.785-0.783l1.575,1.049l1.308-5.238l-2.883-1.582l-0.526-4.457l-2.104-1.305l8.663-7.372l1.316,0.542l2.356-1.85l3.674-8.134l2.103-2.62v-4.729l1.569-8.134l3.419-4.988l2.885-1.306l0.258-0.529l-0.782-2.105l0.524-1.3l2.099,2.619
					l4.203,0.786l5.241-0.249l2.364-0.797v-1.319l-1.572-1.57l-13.914-12.069l-0.259-2.618l1.838-3.152l-6.039-9.708l-3.667-3.938l1.04-0.791v-1.053l-3.406-3.426l1.05-1.03l3.674-0.263l0.527-0.794l2.097,0.531l1.316-0.782v-2.373l-1.841-0.518l-3.684-2.375
					l2.894-1.3l0.27-0.527l-0.793-0.262"/>
				<path d="M299.16,559.945h-2.883l-3.155,1.574l-4.723-1.33l-2.355-1.828l-0.795,1.049l-5.512-0.522l-4.189-1.313l-6.307-4.204l-6.028-1.83l-7.088-0.786l-2.355,1.04l-1.318-0.254l-0.784-0.786h-2.625l-1.569,1.31l-2.37,0.79l-9.72-2.1l-3.145-1.84l-9.446-0.786
					l-7.878-2.889l-1.039-0.787l2.362-3.42l-0.269-0.26l-2.359-0.251l-5.514-2.104l-9.706-1.314l-1.578-1.571v-1.574l0.517,0.785l1.576,1.057h1.572l1.852-1.057l0.786-1.838h1.301l1.583-2.099l1.834-4.992l3.414-1.305l9.717,1.838l3.406-2.108h3.406l1.574,2.108
					l0.796,2.097h4.985l6.561,1.309l3.675,3.676l2.108,3.94l2.88,0.521l10.225-0.26l12.608,2.351l1.829-0.779l2.892-6.038l1.83-1.571h2.102l1.583,2.628l2.099,1.58h2.618l2.373-1.32l8.124,3.938h4.729l2.1,1.048l2.363,3.939l1.833,1.571l0.788,4.462l2.353,1.315
					l3.151,0.786l12.343-1.051l3.149,0.521l2.094,1.573l-0.518,9.456l2.365,6.034l-2.887-2.371l-9.185-2.351l-8.138-3.162l-7.348,2.37l-8.667-2.614"/>
				<path d="M233.557,473.853l0.518-0.519l3.15,0.26l3.157,1.578l1.573,1.832l-0.265,4.21l-1.308,1.57l-1.843,0.777l-1.049-1.571l-3.673,0.794l-1.053-0.794l-0.781-4.203l1.575-3.935"/>
				<path d="M196.022,464.417l2.367-4.472l1.051-0.791l1.581-0.522l1.569,0.522l0.522,2.108h1.301l1.061-3.414h1.569l2.63,4.991l1.842,6.817l1.307,1.843l3.145,1.835h2.884l-1.034,6.033l0.773,1.566l-1.566,0.534l-1.844-1.581l-5.239-2.1l-1.584-1.572l-1.048-2.362
					l0.263-1.575l-2.617-4.455l-3.42-1.831l-4.994-1.053l-0.521-0.522z"/>
				<path d="M183.427,442.627l-0.532-0.789l2.107-1.052l1.834,2.359l-0.258,1.319l-2.629-0.273l-0.522-1.564z"/>
				<path d="M98.921,449.449l2.894-0.517l0.523,0.778l0.516,2.622l2.103,4.205l2.621,3.407l-0.522,1.317l-1.834,0.524l-1.839-0.524l-3.407-3.672l-2.103-5.258l1.047-2.884"/>
				<path d="M149.051,410.344l5.513,0.779l1.043,3.683l-0.258,0.525l-4.724-2.876l-1.574-2.111"/>
				<path d="M143.803,408.508l-2.623-1.046l-1.319-1.574v-1.57l3.416-0.795l1.571,1.318v2.354l-1.045,1.313"/>
				<path d="M75.827,414.273v-0.771l3.15-1.311l7.875,7.864l0.25,4.989l-0.516,1.31h-1.575l-2.357-4.46l-3.148-2.63l-3.68-4.992"/>
				<path d="M54.305,393.286l-0.254-0.777l1.047-1.051l8.389,5.768l1.055,2.627l-9.184-4.989l-1.054-1.577"/>
			</g>
			<text transform="matrix(1 0 0 1 250.873 525.4517)"><tspan x="0" y="0" style="fill:#000000;stroke:none;">Indonesia</tspan></text>
		</g>
		<g>
			<g>
				<path d="M150.097,343.686L148,347.098l-5.775-0.267l-6.297,4.467l-1.313-3.147l0.784-4.465l-2.879-4.192l-7.085-1.312l-2.372-2.63h-3.145l1.054,4.204l-0.521,0.265l1.303,2.349l1.571,8.662l0.527,8.663l1.053,2.889l2.099,1.579l-0.263,7.341l1.843,3.143
					l0.264,1.852l7.341,9.451l1.844,3.661l0.52,3.418l12.593,10.756l3.938,1.579l3.937,3.146l6.305,3.411l3.144,2.887l1.051-0.533l1.053,1.325l1.829-2.629l1.57-1.05l6.039,3.143l1.061-2.093l0.783-4.191l-5.771-11.815l-4.719-3.677l-1.583-4.983l-0.783-11.281
					l0.783-6.572l-0.527-8.649l-6.034-9.449l-6.037-4.721l-3.674-4.199l-3.412,0.256"/>
				<path d="M260.577,406.407l0.537-1.825l0.785-0.798l0.793-0.261l1.821,3.672l3.942,1.583l5.25-0.27l5.513,2.376l4.465,0.505l2.616-7.866l-0.778-2.891l1.304-1.038l2.364,1.038v-3.925l2.36-3.943l1.308-0.79l4.465-0.517l2.364-0.779l8.921-0.793l1.316-0.788
					l6.819-7.618l2.897-4.458l4.464-3.675l2.092-3.144l1.053-3.688l1.83,1.055l4.992,5.776l2.618,1.3l1.052-0.516l0.786-2.09l0.271-6.836l2.36-1.84h1.306l0.793,1.06l1.563,3.931l1.321,0.784h1.831l0.531-1.308l-0.531-3.153l-2.356-3.409l1.841-0.248l1.304-1.063
					l1.848-2.624l-1.575-0.788l-0.529-1.575l1.045-1.833l4.206-0.53l3.409-4.197l1.574-4.724l6.827-7.606l2.621-5.253l1.057,0.787l-0.531,5.257l3.938-5.792h1.83l2.105,4.738l1.833,1.054l1.055-0.791l2.878,2.365l0.532,3.14l-0.781,1.312l0.249,3.422l5.261-0.796
					l1.039,1.31l-0.256,1.578l-1.048,1.046l0.524,0.537h1.31l1.573-1.315l1.577,0.256l6.293,3.935l5.792,1.842l1.565,1.048l0.26,1.316l-0.528,1.31l-7.353,3.416l-2.877,0.519l-2.365-1.297l-1.833,1.032l-0.531,1.84l0.793,1.575l4.199,2.887l0.521,1.045l-8.396,2.371
					l-3.146-0.531l-1.578-1.037l-1.838,2.354l-5.255-1.317l-2.087-1.572l-14.176-0.268l-4.985,0.526l-1.845,2.368l-1.576,4.727l-0.776,5.774l-1.32,3.153l-7.349,8.392l-1.313,7.346l-2.364,4.99l-3.136,4.979l-5.256,2.618l-6.047,1.325l-3.147,1.577h-2.358
					l-7.082-2.113l-0.259-2.093l-1.573-0.514l-7.347-0.264l-1.324,0.264l-2.095,2.351l-4.463,5.25l-1.832,0.779h-5.516l-2.363,0.796l-2.624-1.575l-3.137,0.266l-3.153,1.054l-3.932-1.054l-3.423-3.146l-7.615-10.769z"/>
			</g>
			<text transform="matrix(1 0 0 1 295.8003 402.3169)"><tspan x="0" y="0" style="fill-rule:evenodd;clip-rule:evenodd;fill:#000000;stroke:none;">Malaysia</tspan></text>
		</g>
		<g>
			<path d="M134.614,105.664l-2.703-1.531l-4.15,3.257l-7.134-0.819l-3.991-6.32l-9.133-2.445l0.997-5.164l1.811-7.113l-4.309-2.444l-3.648-2.568l-1.833-12.098l-6.637-0.798l-11.948,5.114l3.16-6.896l2.489-13.663l7.459-8.352l2.829-9.6l0.502-12.943l-3.828-8.452
				l-3.966-2.396l-0.846-4.77l-7.798-5.095l-2.96,1.348l-1.051-0.374l-0.262,4.122l-4.716,3.147l-1.312,3.412l1.038,4.209l-1.306,1.312l-4.727-1.312l-2.627,1.312l-5.51,0.777l-2.092,3.423L53.787,24.3l-4.212,1.83l-3.661,3.154l-2.103,4.207l0.52,7.345
				l-1.576,3.407l-4.458,2.884l-1.576,2.369l0.524,2.366l-1.045,3.14l-4.983,9.454l-1.584,5.254l-1.302,1.307l-5.775-0.529l-3.681,0.79l-2.362,2.091l0.526,6.833l-1.048,5.507l-0.784,1.053l-3.154-0.263l-0.517,3.675l0.256,3.943l1.576,2.876l-0.258,1.575
				l-2.896,2.105l-2.352-0.789l-2.373,2.097l0.262,8.921l-3.14-1.048l-1.583,1.048l-0.517,7.348l3.672,6.298l1.843,1.83l0.524-0.775l1.839,2.089l2.092,0.54l0.268,2.877l11.019,5.51l0.259,1.846l-0.789,1.574l2.107,1.31l0.521,1.565l-3.152-1.305l-0.783,2.364
				l1.837,3.41l2.883,1.833l0.79-3.667l1.053,3.145l5.775,9.448v1.835l1.305,2.103l1.317,8.401v5.511l-1.58,4.454l-2.887,12.602l1.845,1.042l2.622-1.833l-1.059,2.103l1.321,1.308l5.513,2.372l1.83-2.629l1.315,1.311h1.831l1.317,1.061l2.884-3.422l8.663-6.828
				l7.874-4.195l1.323-6.041v-5.247l2.614,8.134l1.837-0.778l4.984,4.718l5.25,2.098l-0.26,6.825l2.102,17.326l6.029,20.47l1.841-2.104l1.051,4.989l3.152,7.346l1.046,7.347l-0.259,3.667l0.259,2.897l-2.106-0.526l-0.517,2.091l4.981,3.153l-1.042,7.614
				l-2.631,6.557l-1.309,7.352l2.882,2.103l2.895-6.561l0.786-4.211l2.095-2.885l2.895-2.354l5.24-8.145l0.27-2.092l-7.619-18.637l-0.525-9.188l-1.307-3.929l-4.989-5.252l-5.25-3.673l-1.578-4.451v-3.948l1.316-2.096l3.405-3.15l0.792-5.778l1.573-3.41l1.577-1.836
				l-0.785-2.632l-2.889-0.261l-0.785-11.812l-2.362-2.606l-6.304-4.728l-4.461-9.458l-0.265-3.141l2.368-1.836l0.266-6.045l3.933-10.492l8.658-0.79l3.148-0.786l3.147-3.154l6.827-4.715l2.107-1.326l4.194-0.78l3.142-6.036l0.792-0.257l2.621-2.895l3.68-0.787
				l-0.528-3.41l7.09-4.98l1.835-3.146z"/>
			<text transform="matrix(1 0 0 1 41.5117 130.3984)"><tspan x="0" y="0" style="fill-rule:evenodd;clip-rule:evenodd;fill:#000000;stroke:none;">Burma</tspan></text>
		</g>
		<g>
			<path d="M149.051,93.326l2.621,1.568l2.81-4.663l9.978,2.41l4.793-2.41l5.319,0.301l14.135-3.405l5.295-4.677l6.144,0.974l7.481,4.354l8.955,1.137l-0.167,6.638l3.332,7.298l6.484,3.567l4.143,1.942l5.801,0.449l-0.795,1.573l-2.355-0.27l-5.253,2.092
				l-0.515,2.632l-2.627,2.105l-5.243,2.1l-3.15,3.154l-0.788,3.925l-8.931,7.875l-3.143,7.093l-1.571,6.032l-0.535,3.668l1.57,3.42l5.519,5.253l3.158,2.096l2.093,7.347l7.874,7.09l1.309,2.355l3.155,3.417l4.72,3.932l2.097,3.145l4.726,0.79l1.574,3.417h1.574
				l0.794,2.619l1.57,2.63l6.295,6.293l4.471,14.171l1.83,13.392l0.259,7.343l1.054,0.786l0.267,2.367l0.251,2.093l-1.305-0.256l-1.055,1.317l0.275,3.144l-1.064-0.789l-0.254,1.048l1.042,6.307v1.309l-0.513-0.269l-0.529,1.058l0.792,1.05v1.572l-1.846,1.307
				l-1.044,4.211l-2.369,0.245l-1.836,1.847l-8.396,3.937l-2.368,2.888l-3.666,1.048l-6.564,4.198l-3.937-1.048l-3.671,1.048l-1.846,2.631l0.269,2.359l-1.042-0.266l-0.264,1.579l-1.844-0.527l-0.784,1.574l1.573,2.885l-1.047,2.357l-2.618-1.041l-4.206-4.726v3.147
				l1.834,2.619v2.101l-1.049,1.055l-5.768,2.354l-5.242,6.308l-3.689,2.893l-2.619,0.261l-0.52-1.579l1.307-1.055l-1.307-3.408l-0.799-6.297l0.533-4.461l2.884-5.252l-1.577-1.572l-4.982-1.836l-2.102-3.15l6.302-2.094l1.305-1.308l0.532-2.635l3.667,0.788
				l9.974-4.461l-0.792-4.733l0.792-3.94l7.612-1.306l0.525-2.623l4.986-2.364h2.097l4.729-3.406l2.355,0.79l1.842-2.367l0.523-3.403l0.523-13.4l-2.1-4.188l-0.525-4.198l0.525-9.973v-9.191l-3.937-9.442l-1.312-4.986l-5.765-4.978h-2.627l-1.315-3.682l-2.103-7.616
				l-4.458-3.414l-1.577-0.254l-4.727-5.25l-1.048-2.625l-6.033-5.772l-1.312-3.669l-7.345-5.258l-9.191-4.993l-0.258-1.827l1.834-3.939l2.092-0.529l4.728,0.529l3.937-4.199l0.529-2.359l-2.624-3.935l-2.363-1.573l-0.266-2.11l-1.572-2.35l-2.628-2.891
				l-4.199-0.258l-5.508,1.301l-5.252-1.043l-4.192-4.2l-0.529-2.105l1.053-3.412l-1.575-2.62l-9.973-9.707l-0.523-2.361z"/>
			<text transform="matrix(1 0 0 1 178.7847 109.02)"><tspan x="0" y="0" style="fill-rule:evenodd;clip-rule:evenodd;fill:#000000;stroke:none;">Vietnam</tspan></text>
		</g>
		<g>
			<path d="M327.249,366.515l2.879-1.311l3.942-0.526l7.342-5.514l0.525,1.856l3.676,0.248l2.356,3.409l0.531,3.153l-0.531,1.308h-1.831l-1.321-0.784l-1.563-3.931l-0.793-1.06h-1.306l-2.36,1.84l-0.271,6.836l-0.786,2.09l-1.052,0.516l-2.618-1.3l-4.992-5.776
				l-1.83-1.055"/>
			<g>
				<text transform="matrix(1 0 0 1 314.4077 355.2466)"><tspan x="0" y="0" style="fill-rule:evenodd;clip-rule:evenodd;fill:#000000;stroke:none;">Brunei</tspan></text>
				<path style="fill-rule:evenodd;clip-rule:evenodd;fill:none;" d="M325.08,357.942l10.466,9.586"/>
			</g>
		</g>
		<g>
			<path d="M229.09,214.044l-0.525,9.973l0.525,4.198l2.1,4.188l-0.523,13.4l-0.523,3.403l-1.842,2.367l-2.355-0.79l-4.729,3.406h-2.097l-4.986,2.364l-0.525,2.623l-7.612,1.306l-0.792,3.94l0.792,4.733l-9.974,4.461l-3.667-0.788l-0.532,2.635l-1.305,1.308
				l-6.302,2.094l-3.673-2.094l-4.727-0.527l-2.099,1.3l-2.628-0.257v-2.881l1.312-1.846l-0.518-2.617l-1.575-1.048l-1.576,0.78l-1.308,2.104l-2.367,0.522l-2.359-6.815v-0.799l1.048,0.799l-0.262-1.313l-2.361-3.152l0.523-3.936l-1.834-4.208l-1.841-3.411
				l-3.676-3.405l-2.622-8.929l0.53-4.979l1.828-1.308l1.577-2.894l1.842-0.784l5.77-7.353l2.362-0.781l11.806,1.301l12.605-1.042l2.607,2.625l2.898-1.312l2.1,2.367l7.877,2.094l2.621-0.532v-4.2l4.196-2.349l3.158-1.05h2.627l2.089,2.099h2.104l2.624-1.048
				l3.144-2.369l1.053-1.572"/>
			<text transform="matrix(1 0 0 1 172.2109 244.3315)"><tspan x="0" y="0" style="fill-rule:evenodd;clip-rule:evenodd;fill:#000000;stroke:none;">Cambodia</tspan></text>
		</g>
		<g>
			<path d="M122.537,117.985l3.68-0.787l-0.528-3.41l7.09-4.98l1.835-3.146l2.439,7.549l5.485-1.286l1.496-4.696l-2.335-9.073l2.656-5.351l4.695,0.52l0.523,2.361l9.973,9.707l1.575,2.62l-1.053,3.412l0.529,2.105l4.192,4.2l5.252,1.043l5.508-1.301l4.199,0.258
				l2.628,2.891l1.572,2.35l0.266,2.11l2.363,1.573l2.624,3.935l-0.529,2.359l-3.937,4.199l-4.728-0.529l-2.092,0.529l-1.834,3.939l0.258,1.827l9.191,4.993l7.345,5.258l1.312,3.669l6.033,5.772l1.048,2.625l4.727,5.25l1.577,0.254l4.458,3.414l2.103,7.616
				l1.315,3.682h2.627l5.765,4.978l1.312,4.986l3.937,9.442v9.191l-1.053,1.572l-3.144,2.369l-2.624,1.048h-2.104l-2.089-2.099h-2.627l-3.158,1.05l-4.196,2.349v4.2l-2.621,0.532l-7.877-2.094l-2.1-2.367v-1.047h1.045l2.109-2.892v-11.549l0.788-2.617v-2.639
				l-1.842-3.14l-2.1-1.576l-0.78-1.83l-2.362-0.267l-3.942-4.207l-1.312-3.145v-9.982l-2.363-6.286l-1.842-1.31l-0.518-1.835l-4.461-2.896l-4.46-6.29l-3.676-0.264l-6.036,1.052l-0.79,2.881l-1.31,1.313l-5.51,2.355h-2.104l-2.358-1.572l-1.834-2.886l-2.105-0.518
				l-2.357,0.518l-3.676,1.578l-3.415,3.147l-3.407,1.58l-3.41,3.413l0.263-1.315l-0.791-3.41l3.154-13.645l0.52-4.207l-1.048-4.459l1.048-4.726l-1.048-1.054l-5.506,0.268l-2.626-1.04l-0.53-8.666l-2.885-3.675l-1.569,0.519l-0.533-3.407l2.621-2.895z"/>
			<text transform="matrix(1 0 0 1 141.2173 138.6953)"><tspan x="0" y="0" style="fill-rule:evenodd;clip-rule:evenodd;fill:#000000;stroke:none;">Laos</tspan></text>
		</g>
		<g>
			<path d="M195.497,220.605l-2.898,1.312l-2.607-2.625l-12.605,1.042l-11.806-1.301l-2.362,0.781l-5.77,7.353l-1.842,0.784l-1.577,2.894l-1.828,1.308l-0.53,4.979l2.622,8.929l3.676,3.405l1.841,3.411l1.834,4.208l-0.523,3.936l-1.84-1.313l-2.099-5.245
				l-1.31-0.791l-0.524,0.519l-3.42-1.833l-1.832-2.625l-4.722-3.929l-2.887-0.796l-2.627,0.534l-6.552-0.534l-1.578,0.267l1.048,1.048l-1.311-0.262l-0.793-2.089l0.793-9.73l-1.06-1.301l-5.769-1.313l-4.189,0.526l-3.685,1.305l1.055,6.038l-1.575,13.381
				l-4.456,7.881l-2.107,7.348v2.881l-1.313,2.892l-1.577,1.054l-0.266,2.883l-1.826,4.201l0.256,8.394l1.569,7.086l2.631,0.52l3.672-1.307l2.626,0.787l1.309,2.625l0.532,4.466l1.306,4.19l4.201,5.252l1.836,9.714l1.317,2.622l4.984,5.25l9.447,1.308l3.938,3.158
				l5.771,7.606L148,347.098l-5.775-0.267l-6.297,4.467l-1.313-3.147l0.784-4.465l-2.879-4.192l-7.085-1.312l-2.372-2.63h-3.145l1.054,4.204l-7.354-7.878l-1.571-3.941l-3.15-2.882l-3.938-5.773l-1.574-1.058l-5.51-5.77l-5.51,0.253l-0.785-2.357l0.521-8.917
				l5.508-18.102l2.895-6.561l0.786-4.211l2.095-2.885l2.895-2.354l5.24-8.145l0.27-2.092l-7.619-18.637l-0.525-9.188l-1.307-3.929l-4.989-5.252l-5.25-3.673l-1.578-4.451v-3.948l1.316-2.096l3.405-3.15l0.792-5.778l1.573-3.41l1.577-1.836l-0.785-2.632
				l-2.889-0.261l-0.785-11.812l-2.362-2.606l-6.304-4.728l-4.461-9.458l-0.265-3.141l2.368-1.836l0.266-6.045l3.933-10.492l8.658-0.79l3.148-0.786l3.147-3.154l6.827-4.715l2.107-1.326l4.194-0.78l3.142-6.036l1.582-0.515l-0.79,0.258l0.533,3.407l1.569-0.519
				l2.885,3.675l0.53,8.666l2.626,1.04l5.506-0.268l1.048,1.054l-1.048,4.726l1.048,4.459l-0.52,4.207l-3.154,13.645l0.791,3.41l-0.263,1.315l3.41-3.413l3.407-1.58l3.415-3.147l3.676-1.578l2.357-0.518l2.105,0.518l1.834,2.886l2.358,1.572h2.104l5.51-2.355
				l1.31-1.313l0.79-2.881l6.036-1.052l3.676,0.264l4.46,6.29l4.461,2.896l0.518,1.835l1.842,1.31l2.363,6.286v9.982l1.312,3.145l3.942,4.207l2.362,0.267l0.78,1.83l2.1,1.576l1.842,3.14v2.639l-0.788,2.617v11.549l-2.109,2.892h-1.045v1.047"/>
			<text transform="matrix(1 0 0 1 112.9551 198.9819)"><tspan x="0" y="0" style="fill-rule:evenodd;clip-rule:evenodd;fill:#000000;stroke:none;">Thailand</tspan></text>
		</g>
	</g>
</svg>
