<?xml version="1.0" encoding="iso-8859-1"?>
<!DOCTYPE svg >

<svg  width="800.647pt" height="576.421pt" viewBox="0 0 800.647 576.421" xml:space="preserve">
	<g id="Layer_x0020_1" style="fill-rule:nonzero;clip-rule:nonzero;fill:#FFFFFF;stroke:#000000;stroke-miterlimit:4; font-family:'Arial'; font-size:10;">
		<g>
			<path d="M235.028,0.5l2.572,172.83h87.095l-2.562,17.932l-12.809,49.953l-3.843,40.987l-92.218-0.371l-120.397-0.91v-24.337l-16.651-7.685l10.246-87.097L0.5,160.687v-46.786V51.397V0.5h128.228h70.701h35.599z"/>
			<text transform="matrix(1 0 0 1 153.688 160.5225)"><tspan x="0" y="0" style="fill:#000000;stroke:none;">816</tspan></text>
		</g>
		<g>
			<path d="M537.312,0.5h32.745h55.63h23.567h81.974h4.095h64.824v36.554v6.143v1.026v36.888v13.319v47.134v2.053v42.208l-91.206-27.867l-112.713,20.497v-12.809l-5.125-53.797V83.674H565.49V27.317l-25.618-2.562L537.312,0.5z"/>
			<text transform="matrix(1 0 0 1 685.23 87.0752)"><tspan x="0" y="0" style="fill:#000000;stroke:none;">807</tspan></text>
		</g>
		<g>
			<path d="M596.228,178.455l112.713-20.497l91.206,27.867v18.755v63.021v12.292v51.235v11.27v17.617l-334.563,1.594l-75.567,1.282l-3.843-71.727l23.829,0.381l76.074,4.107l-5.122-22.418l25.617-2.562h33.3l53.796-53.794l2.561-38.424z"/>
			<text transform="matrix(1 0 0 1 649.3667 284.3228)"><tspan x="0" y="0" style="fill:#000000;stroke:none;">808</tspan></text>
		</g>
		<g>
			<path d="M466.401,0.5h70.911l2.56,24.255l25.618,2.562v56.357h25.613v28.175l5.125,53.797l-79.409-2.561l-17.933-15.371l-17.275-0.696l1.905-30.68l12.81-28.179L466.401,0.5z"/>
			<text transform="matrix(1 0 0 1 531.5288 125.4995)"><tspan x="0" y="0" style="fill:#000000;stroke:none;">806</tspan></text>
		</g>
		<g>
			<path d="M326.564,0.5h104.437h35.399l29.925,87.66l-12.81,28.179l-1.905,30.68l-39.084-1.867l-23.054-17.93l-35.863-2.563L326.564,0.5z"/>
			<text transform="matrix(1 0 0 1 411.1309 66.582)"><tspan x="0" y="0" style="fill:#000000;stroke:none;">805</tspan></text>
		</g>
		<g>
			<path d="M235.028,0.5h16.66h59.427h15.45l57.046,124.159v32.667l38.426,30.741v12.806l17.932,7.686l12.808,15.37l-42.773,67.619l-23.829-0.381H334.94l-2.562-8.964h-26.897l3.843-40.987l12.809-49.953l2.562-17.932H237.6L235.028,0.5z"/>
			<text transform="matrix(1 0 0 1 303.543 128.0625)"><tspan x="0" y="0" style="fill:#000000;stroke:none;">804</tspan></text>
		</g>
		<g>
			<path d="M213.263,281.831v58.008l-43.55,1.278v29.46l16.723,78.21l98.55-2.641l1.285-60.199h65.321l2.561,37.144l81.973-1.279l29.458-29.461V361.61l-75.567,1.282l-3.843-71.727H334.94l-2.562-8.964h-26.897l-92.218-0.371z"/>
			<text transform="matrix(1 0 0 1 288.1719 343.2402)"><tspan x="0" y="0" style="fill:#000000;stroke:none;">812</tspan></text>
		</g>
		<g>
			<path d="M465.583,361.61l334.563-1.594v32.592v75.823v13.323v35.863v56.355v1.026h-24.861H751.72h-30.741l-15.368,0.922h-13.32h-9.227H576.5H436.637l-0.512-154.108l29.458-29.461V361.61z"/>
			<text transform="matrix(1 0 0 1 618.6245 484.1309)"><tspan x="0" y="0" style="fill:#000000;stroke:none;">810</tspan></text>
		</g>
		<g>
			<path d="M167.151,482.01l21.776-21.773l-2.491-11.448l98.55-2.641l1.285-60.199h65.321l2.561,37.144l81.973-1.279l0.512,154.108h-53.795h-32.791h-54.305H184.569h-18.698l1.28-93.911z"/>
			<text transform="matrix(1 0 0 1 301.353 514.8721)"><tspan x="0" y="0" style="fill:#000000;stroke:none;">811</tspan></text>
		</g>
		<g>
			<path d="M0.5,450.663l166.651,31.347l-1.28,93.911H76.469H0.5V483.8v-33.137z"/>
			<text transform="matrix(1 0 0 1 62.7495 527.6787)"><tspan x="0" y="0" style="fill:#000000;stroke:none;">813</tspan></text>
		</g>
		<g>
			<path d="M213.263,281.831v58.008l-43.55,1.278v29.46l16.723,78.21l2.491,11.448l-21.776,21.773L0.5,450.663V410.03v-47.824l92.366-0.596v-80.69l120.397,0.91z"/>
			<text transform="matrix(1 0 0 1 93.4878 407.2813)"><tspan x="0" y="0" style="fill:#000000;stroke:none;">814</tspan></text>
		</g>
		<g>
			<path d="M0.5,160.687l85.961,1.115l-10.246,87.097l16.651,7.685v24.337v80.69L0.5,362.207V235.837v-19.47v-21.519v-34.162z"/>
			<text transform="matrix(1 0 0 1 32.0103 286.8833)"><tspan x="0" y="0" style="fill:#000000;stroke:none;">815</tspan></text>
		</g>
		<g>
			<path d="M596.288,178.614l-0.06-12.968l-79.409-2.561l-17.933-15.371l-16.618-0.747l-39.741-1.816l-23.054-17.93l-35.863-2.563v32.667l38.426,30.741v12.806l17.932,7.686l12.808,15.37l-42.773,67.619l76.074,4.107l-5.122-22.418l25.617-2.562h33.3l53.796-53.794
				l2.62-38.266z"/>
			<text transform="matrix(1 0 0 1 486.2944 220.917)"><tspan x="0" y="0" style="fill:#000000;stroke:none;">800-801</tspan></text>
		</g>
	</g>
</svg>
