<?xml version="1.0" encoding="iso-8859-1"?>
<!DOCTYPE svg >

<svg  width="495.83pt" height="601.076pt" viewBox="0 0 495.83 601.076" xml:space="preserve">
	<g id="Layer_x0020_1" style="fill-rule:nonzero;clip-rule:nonzero;stroke:#000000;stroke-miterlimit:4; font-family:'Arial'; font-size:10;">
		<path style="fill:#FFFFFF;" d="M14.506,82.573L34.76,69.84l13.315,5.205l27.199-4.629l16.028-29.921l54.583,32.236l28.364,13.891l45.146,43.412l-10.421,4.631l10.421,9.833l-12.192,8.687l-9.951,23.846l-5.063,9.722l-39.932,90.865l-37.675-0.053l-5.738-7.466
			l-30.671-7.528l-35.043,2.369l-3.622-19.035l0.928-2.782l-6.484-39.82l-0.923-7.41l-3.71-22.224l-5.552-31.486l-0.927-6.484l-2.78-15.74L16.356,95.88L14.28,82.609l0.226-0.037z"/>
		<g>
			<path style="fill:#FFFFFF;" d="M102.479,2.349L79.905,33.372l11.397,7.122L75.274,70.415l-27.199,4.629L34.76,69.84L14.506,82.573l-0.226,0.037l-4.404-28.4l-1.854-4.631L4.319,20.87L0.616,3.276H18.21l9.26-0.927v0.927l8.335-0.927h29.634h17.594h5.557h13.89z"
				/>
			<text transform="matrix(1 0 0 1 33.9458 42.6328)"><tspan x="0" y="0" style="stroke:none;">307</tspan></text>
		</g>
		<g>
			<path style="fill:#FFFFFF;" d="M197.251,177.03l27.346,27.663l58.463,1.739l51.505,48.618l-3.453,13l-26.642,101.017l-43.988,27.206l-15.088-0.082l-67.098-2.232l-1.159-14.476l-28.938-15.622l-21.992-21.992l3.471-42.83l-15.153-21.482l37.73,0.062
				l39.932-90.865l5.063-9.722z"/>
			<text transform="matrix(1 0 0 1 224.9419 307.3882)"><tspan x="0" y="0" style="stroke:none;">310</tspan></text>
		</g>
		<g>
			<path style="fill:#FFFFFF;" d="M263.833,455.687l0.123,10.039l27.783,2.89l2.311,23.732l26.052,33.569l-1.156,16.779l53.941,29.171l0.924,3.704l-0.924,3.707l-0.932,11.108l-0.921,7.412l-0.924,2.777h-3.709h-3.707h-3.7l-2.777-0.926l-1.855-3.706v-9.26
				l-0.926-3.701l-0.922-1.854l-1.854-2.777l1.854-1.854l0.922-2.776l-25.002-1.854l-14.816-0.926h-11.113l-43.523-3.704l-16.67-0.927l-9.262-0.924l-22.223-1.854l-16.667-1.853l-26.855-0.923l-7.411-0.928l49.081-38.543l4.049-43.985l50.81-21.615z"/>
			<text transform="matrix(1 0 0 1 250.4082 522.6934)"><tspan x="0" y="0" style="stroke:none;">316</tspan></text>
		</g>
		<g>
			<path style="fill:#FFFFFF;" d="M54.326,493.772l-0.929-8.025v-4.631l1.854-1.854v-5.558v-8.332l0.929-5.558v-3.704l1.847-5.557l0.928-5.554l-1.854-6.483l-3.704-9.259l-1.85-5.558v-5.558l-0.926-2.776v-9.262l69.222,1.74l1.158-27.205l27.198-16.781
				l28.938,15.622l1.159,14.476l67.098,2.232l28.976,28.438l-10.12,14.764l-0.417,16.295l-50.81,21.615l-4.049,43.985l-49.081,38.543l-23.151-0.926l-7.406-0.93l-50.006-2.773l-0.926-1.854l-2.781-1.85l-3.702-5.559v-10.188l-0.928-2.776l-0.922-1.854l-1.854-3.703
				l-2.776-4.629l-1.854-5.058l-0.928-5.131l-0.925-4.631v-1.854l-1.849-1.85l-2.782-3.703l-2.775-6.792z"/>
			<text transform="matrix(1 0 0 1 139.2817 481.0215)"><tspan x="0" y="0" style="stroke:none;">317</tspan></text>
		</g>
		<g>
			<path style="fill:#FFFFFF;" d="M59.882,369.066l6.479-3.706l1.854-2.779l1.854-3.705l2.777-0.925l2.775-2.778l-2.775-1.854l-5.557-5.551l-2.778-2.781l2.778-5.556l0.925-5.554l-1.854-6.485v-2.777l-0.923-4.629l-5.556-3.708l-2.782-6.48l-4.631-17.594
				l-4.631-12.966l-2.775-2.776l-1.935-11.522l35.043-2.369l30.671,7.528l5.738,7.466l15.097,21.474l-3.471,42.83l21.992,21.992l-27.198,16.781l-1.158,27.205l-69.222-1.74l3.704-9.259l2.775-3.706l0.926-3.702l0.928-4.629v-8.339l0.928-7.404z"/>
			<text transform="matrix(1 0 0 1 87.1938 340.957)"><tspan x="0" y="0" style="stroke:none;">318</tspan></text>
		</g>
		<g>
			<path style="fill:#FFFFFF;" d="M283.061,206.432l51.505,48.618l-3.462,13.008l59.026-0.277l12.387-26.511l-2.779-3.707l-0.92-1.85v-2.781l-0.931-2.775l-3.702,0.927l-2.78-2.781l-0.928-1.85v-2.78l-1.849-5.553l-6.483-2.781l-1.849-3.703l0.922-2.776l-0.922-2.78
				l0.922-3.705l1.854-1.853l-0.927-1.85l-5.557-4.63l-1.849-2.781l-3.705-3.704l-5.557-4.629l-2.783-0.927l-3.7-0.922l-1.851-2.781l-3.708-3.704l-0.922-4.629l-5.557-10.188l-15.746-12.964l-5.559-0.928l-39.118,32.182l19.092,9.261l-22.565,19.104z"/>
			<text transform="matrix(1 0 0 1 331.4395 226.3599)"><tspan x="0" y="0" style="stroke:none;">308</tspan></text>
		</g>
		<g>
			<path style="fill:#FFFFFF;" d="M102.479,2.349l32.413-1.231l16.667,1.231h14.817h7.408l37.042-0.927h0.927h6.484l38.89-0.922h2.781l-2.781,7.406l-5.557,2.777l-12.961,15.744l-4.629,9.261l-0.931,2.776l10.188,10.188l9.26,3.704l6.483,8.338l6.478,3.702
				l-4.976,9.492l5.214,8.102l-17.448,0.892l-6.283,12.424l-9.84,31.255l-12.729,3.474l-45.146-43.412L145.885,72.73L91.302,40.494l-11.397-7.122l22.575-31.023z"/>
			<text transform="matrix(1 0 0 1 174.0083 64.3008)"><tspan x="0" y="0" style="stroke:none;">305</tspan></text>
		</g>
		<g>
			<path style="fill:#FFFFFF;" d="M265.458,64.395l5.56,1.852l10.188,1.852l5.557,4.631l0.928,8.333l6.477,9.26l1.854,5.557l1.852,5.557l15.744,24.08l2.776,8.332l9.259,12.037l-39.118,32.182l19.092,9.261l-22.565,19.104l-58.463-1.739l-27.346-27.663l9.951-23.846
				l12.192-8.687l-10.421-9.833l10.421-4.631l12.729-3.474l9.84-31.255l6.283-12.424l17.448-0.892l-5.214-8.102l4.976-9.492z"/>
			<text transform="matrix(1 0 0 1 257.3535 159.2207)"><tspan x="0" y="0" style="stroke:none;">306</tspan></text>
		</g>
		<g>
			<path style="fill:#FFFFFF;" d="M264.25,439.392l117.202-8.977l20.835,21.418l13.308-12.732l11.576,33.569l5.906,2.891l3.705,6.483l0.928,2.777l-3.706,2.774l-0.927,12.969h-3.705l-4.63-6.482h-1.854l1.854,3.701l-1.854,2.781l3.709,2.776l0.924,6.483l2.778,3.705
				l3.705-2.782l0.925-7.406l2.781,1.855v3.701l-1.854,5.557l-6.483,3.704l-1.852-0.926l-0.924,1.853l0.924,2.776l3.705-0.925l1.852,3.702l-4.633,3.708l-1.848,4.629l0.924,2.776l-2.778,3.703l3.702,7.412l-1.848,6.48h-4.63l-4.629,0.926l-4.633-1.854l-0.924-1.851
				h-1.854l-2.778,1.851l-3.705-3.703l-1.852-2.777l-1.854,1.852l-3.704-3.704l-3.702,0.926l-3.703-2.776l-1.854-2.781l-4.63,0.929h-0.927l-1.849,1.853l-0.926,1.851h-0.929l-3.704-0.928l-0.924,1.854v2.778l-2.776,1.853v1.854v4.63l0.924,11.109l1.853,4.63
				l-53.941-29.171l1.156-16.779l-26.052-33.569l-2.311-23.732l-27.783-2.89l-0.123-10.039l0.417-16.295z"/>
			<text transform="matrix(1 0 0 1 356.9043 497.2285)"><tspan x="0" y="0" style="stroke:none;">315</tspan></text>
		</g>
		<g>
			<path style="fill:#FFFFFF;" d="M437.71,309.796l-20.372,19.336l22.565,40.515l-58.451,60.767l20.835,21.418l13.308-12.732l11.576,33.569l5.906,2.891l0.927-0.929l2.778-1.85l8.335,0.923l0.924-8.332l2.782-1.85l3.702,2.773l2.774-9.258l3.708-5.558l-0.926-2.776
				l-8.332,0.927l0.921-4.631l8.337-1.854l3.703,0.928l1.848-7.41v-8.334l-4.628,0.929v-4.631l-2.776-2.777l3.702-1.854l4.631,2.774l8.334-10.182l0.927-1.855l-7.407-4.629l1.851-4.63l11.115,2.776l3.703-3.702l-0.927-6.481l7.411-1.853l4.629-6.484l-5.557-3.704
				l-16.67-5.558l-3.705-0.921l-3.704-2.781l-0.929-1.85l-1.848-2.781l-0.927-3.703l1.854-5.558l0.92-10.187l0.929-2.775l-0.929-2.778l-2.774-3.705l-1.854-5.554l-0.923-5.557l-0.926-2.781l-10.188-9.263l-4.628-2.775h-2.778l-2.778-3.706z"/>
			<text transform="matrix(1 0 0 1 426.3574 420.8291)"><tspan x="0" y="0" style="stroke:none;">313</tspan></text>
		</g>
		<g>
			<path style="fill:#FFFFFF;" d="M331.104,268.058l59.026-0.277l12.387-26.511l5.563,3.705l4.626,2.775l8.335,4.629l4.629,3.706l1.852,2.778l-0.924,8.335l2.775,2.774l1.854,3.71l0.924,3.703l2.779,0.927l0.927,9.259v4.629l-0.927,2.778v1.854l1.854,3.702
				l-0.927,3.702v1.856l1.854,3.701l-20.372,19.336l22.565,40.515l-58.451,60.767l-117.202,8.977l10.12-14.764l-28.976-28.438l15.088,0.082l43.988-27.206l26.633-101.008z"/>
			<text transform="matrix(1 0 0 1 361.5332 353.6909)"><tspan x="0" y="0" style="stroke:none;">304</tspan></text>
		</g>
		<g style="stroke:none;">
			<path style="fill:#FFFFFF;stroke:#000000;" d="M207.203,153.185l12.192-8.687l-10.421-9.833l10.421-4.631l-45.146-43.412L145.885,72.73L91.302,40.494L75.274,70.415l-27.199,4.629L34.76,69.84L14.506,82.573l-0.226,0.037l2.077,13.271l3.703,24.079l2.78,15.74
				l0.927,6.484l5.552,31.486l177.885-20.483z"/>
			<text transform="matrix(1 0 0 1 99.7861 110.0693)"><tspan x="0" y="0">311</tspan><tspan x="-0.371" y="12">399</tspan></text>
		</g>
		<g style="stroke:none;">
			<path style="fill:#FFFFFF;stroke:#000000;" d="M207.203,153.185l-9.951,23.846l-5.063,9.722l-39.932,90.865l-37.675-0.053l-5.738-7.466l-30.671-7.528l-35.043,2.369l-3.622-19.035l0.928-2.782l-6.484-39.82l-0.923-7.41l-3.71-22.224l177.885-20.483z"/>
			<text transform="matrix(1 0 0 1 90.5654 215.4063)"><tspan x="0" y="0">300-302</tspan><tspan x="10.007" y="12">305</tspan></text>
		</g>
	</g>
</svg>
