<?xml version="1.0" encoding="iso-8859-1"?>
<!DOCTYPE svg >

<svg  width="398.208pt" height="601.388pt" viewBox="0 0 398.208 601.388" xml:space="preserve">
	<g id="Layer_x0020_1" style="fill-rule:nonzero;clip-rule:nonzero;fill:#FFFFFF;stroke:#000000;stroke-miterlimit:4; font-family:'Arial'; font-size:10;">
		<g>
			<path d="M17.121,533.02l-3.226,6.455l9.681,6.455l-6.456,11.836l-8.604,4.302l1.078,20.437l-8.609,1.078l6.454,7.529l-4.301,4.308l7.528,4.301l12.91,1.077l1.076-17.215l4.304-3.23l9.681,6.454l10.757-3.224l3.232,4.305l-1.078,5.375l5.379,2.157l3.226-3.231
				l1.076-8.605l-2.153-4.302l2.153-4.308h3.224l2.155,5.379h6.455l6.456-2.147l7.528,1.076l8.609,4.302l2.148,2.148l7.532,6.457l10.76,3.231l2.146,5.378l4.309-1.077l7.527-16.138l5.379-4.302l20.438-8.607l-26.622-15.062l-6.056-19.49l-47.732,8.733L17.121,533.02
				z"/>
			<text transform="matrix(1 0 0 1 72.6235 570.7017)"><tspan x="0" y="0" style="fill:#000000;stroke:none;">476</tspan></text>
		</g>
		<g>
			<path d="M69.835,432.975l20.442-0.402l82.695,1.345l-0.667,75.975l1.345,20.172l10.757,1.343l0.667,6.724l12.104-1.346l1.746,11.293l-2.146,4.31l3.222,5.379l-5.376,4.302l-5.378,6.455l2.153,7.528l-2.153,3.229h-6.457l-2.147,8.606l-5.381,1.075v-7.532
				l-9.679,1.074l-9.687-11.831l-26.622-15.062l-6.056-19.49l-47.732,8.733L17.121,533.02l3.23-7.526l13.984-1.078l9.682-21.515v-4.304l7.532-4.307l3.226-9.683l7.532-16.135l5.379-2.147l5.378-7.532L67.685,440.5l2.15-7.525z"/>
			<text transform="matrix(1 0 0 1 105.4624 498.0894)"><tspan x="0" y="0" style="fill:#000000;stroke:none;">475</tspan></text>
		</g>
		<g>
			<path d="M218.42,456.791l-3.76,52.436l-42.354,0.666l1.345,20.172l10.757,1.343l0.667,6.724l12.104-1.346l1.746,11.293l8.614,3.23l6.453-2.15l-4.309-3.228l-2.145-2.153l1.075-4.302h9.682l2.146,7.533l2.154,12.907l7.533,5.376l10.758,1.081l4.3,5.375l8.607-4.3
				h4.3l5.382-9.682v-9.688l3.226-5.376l9.682-16.139l4.304-1.069l4.304,2.147l9.686-7.526l1.072-7.534l3.231-8.602l12.904-5.382l7.535-9.686l1.075-7.525l-2.153-15.061l-33.08-10.891l-66.841,1.355z"/>
			<text transform="matrix(1 0 0 1 250.6919 504.813)"><tspan x="0" y="0" style="fill:#000000;stroke:none;">471</tspan></text>
		</g>
		<g>
			<path d="M244.922,367.555l-0.678,45.518l-24.872,28.235l-0.952,15.482l66.841-1.355l33.08,10.891l4.301-5.383l10.76-3.228l7.532,1.078l8.604,5.379l-1.072-29.585l-28.917-4.7v-38.999l18.16-12.777l-2.327-38.535l-3.73,2.224l-59.168,17.485l-6.724,8.068
				l-20.837,0.202z"/>
			<text transform="matrix(1 0 0 1 276.2427 418.7485)"><tspan x="0" y="0" style="fill:#000000;stroke:none;">472</tspan></text>
		</g>
		<g>
			<path d="M141.356,347.977l0.688,10.64l-32.272,30.926l-5.379,29.585l-14.115,13.445l82.695,1.345l-0.667,75.975l42.354-0.666l3.76-52.436l0.952-15.482l24.872-28.235l0.678-45.518l-63.88,1.14l-1.345-20.836l-38.341,0.118z"/>
			<text transform="matrix(1 0 0 1 172.8584 415.3521)"><tspan x="0" y="0" style="fill:#000000;stroke:none;">474</tspan></text>
		</g>
		<g>
			<path d="M345.1,333.066l49.62-1.213v7.527v32.272l-1.075,29.048l-5.379,5.38l-1.078,7.527l3.23,6.457l-2.152,11.832l8.61,7.531h-3.231l2.151,10.758h-11.833l-15.06,4.304l-12.912,9.683h-6.454l-1.072-29.585l-28.917-4.7v-38.999l18.16-12.777l-2.327-38.535
				l9.719-6.51z"/>
			<text transform="matrix(1 0 0 1 350.2017 407.9907)"><tspan x="0" y="0" style="fill:#000000;stroke:none;">470</tspan></text>
		</g>
		<g>
			<path d="M68.763,295.413l54.455-8.746l5.154,2.914l-8.51,35.418l20.837,13.446l0.657,9.532l0.688,10.64l-32.272,30.926l-5.379,29.585l-14.115,13.445l-20.442,0.402l1.075-7.535l-6.457-6.454l-1.069-9.679l-11.835-11.838l5.379-4.302l4.302-8.604v-5.378
				l-2.153-5.38l8.608-8.609l1.078-18.283v-19.371v-32.13z"/>
			<text transform="matrix(1 0 0 1 87.3438 362.5874)"><tspan x="0" y="0" style="fill:#000000;stroke:none;">478</tspan></text>
		</g>
		<g>
			<path d="M174.994,203.972l33.621,0.667l16.804,4.712l2.022,11.424h41.006l6.727-8.736l26.228-0.053v79.39l33.641,21.456l18.803-5.317l-8.744,25.552l-9.719,6.51l-3.73,2.224l-59.168,17.485l-6.724,8.068l-20.837,0.202l-63.88,1.14l-1.345-20.836l-38.341,0.118
				l-0.657-9.532l-20.837-13.446l8.51-35.418l4.26,1.795l39.674-4.709l2.752-82.694h-0.064z"/>
			<text transform="matrix(1 0 0 1 223.2056 297.7241)"><tspan x="0" y="0" style="fill:#000000;stroke:none;">460-461</tspan></text>
		</g>
		<g>
			<path d="M317.979,182.458l-0.446,28.906l-16.132,0.439v79.572l33.641,21.456l18.803-5.317l-8.744,25.552l49.62-1.213v-23.669v-29.049l-1.075-13.982l1.075-44.109v-6.455v-32.275l-76.741,0.145z"/>
			<text transform="matrix(1 0 0 1 346.1685 257.3823)"><tspan x="0" y="0" style="fill:#000000;stroke:none;">473</tspan></text>
		</g>
		<g>
			<path d="M165.583,91.014l8.736,47.732l14.791,14.793l-12.769,12.103l-1.282,38.33l-2.752,82.694l-39.674,4.709l-4.26-1.795l-5.154-2.914l-54.455,8.746v-6.593l1.072-41.96l-1.072-50.022l1.072-38.187l-1.01-38.329l96.757-29.308z"/>
			<text transform="matrix(1 0 0 1 110.2036 207.5571)"><tspan x="0" y="0" style="fill:#000000;stroke:none;">479</tspan></text>
		</g>
		<g>
			<path d="M166.927,86.98l75.305,6.725l47.729,14.115l2.023,46.396l25.548,15.46l0.446,12.782l-0.446,28.906l-16.132,0.439l-26.228,0.235l-6.727,8.736h-41.006l-2.022-11.424l-16.804-4.712l-33.621-0.667h0.064l1.282-38.33l12.769-12.103l-14.791-14.793
				l-8.736-47.732l1.233-4.065l0.111,0.032z"/>
			<text transform="matrix(1 0 0 1 235.9028 168.6328)"><tspan x="0" y="0" style="fill:#000000;stroke:none;">469</tspan></text>
		</g>
		<g>
			<path d="M310.811,1.586h25.818h10.76l45.178-1.078l4.31,9.683l-1.08,25.824v15.058l1.08,23.665l-1.08,3.229v39.801v10.223l-1.076,29.583v24.74l-76.741,0.145l-0.446-12.782l-25.548-15.46l-2.023-46.396l4.715-55.135l16.135-16.803V1.586z"/>
			<text transform="matrix(1 0 0 1 342.1333 101.3921)"><tspan x="0" y="0" style="fill:#000000;stroke:none;">467</tspan></text>
		</g>
		<g>
			<path d="M169.27,2.159l21.052,0.502h33.351l21.515-1.075l36.577,1.075l10.758-1.075h18.289v34.296l-16.135,16.803l-4.715,55.135l-47.729-14.115l-75.305-6.725l-0.111-0.032l18.26-59.812L169.27,2.159z"/>
			<text transform="matrix(1 0 0 1 233.2134 58.3628)"><tspan x="0" y="0" style="fill:#000000;stroke:none;">465</tspan></text>
		</g>
		<g>
			<path d="M169.27,2.159l-15.523-0.573l-12.912,8.604l-35.5,12.91L91.35,24.179l-6.451-2.156L68.763,6.964l1.072,40.876l-1.072,25.824l1.072,19.362l-1.072,22.593l0.062,4.703l96.757-29.308l1.233-4.065l18.26-59.812L169.27,2.159z"/>
			<text transform="matrix(1 0 0 1 113.5303 65.0869)"><tspan x="0" y="0" style="fill:#000000;stroke:none;">463</tspan></text>
		</g>
	</g>
</svg>
