<?xml version="1.0" encoding="iso-8859-1"?>
<!DOCTYPE svg >

<svg  width="801.082pt" height="412.875pt" viewBox="0 0 801.082 412.875" xml:space="preserve">
	<g id="Layer_x0020_1" style="fill-rule:nonzero;clip-rule:nonzero;fill:#FFFFFF;stroke:#000000;stroke-miterlimit:4; font-family:'Arial'; font-size:10;">
		<g>
			<path d="M175.664,3.375l-6.047-0.984l-43.33-0.276l-22.581,1.614L39.613,1.036L16.631,0.501L0.506,3.729l1.613,117.712l16.126-16.126l19.353-11.283l6.448-8.063l24.188-14.511l3.22-8.063l6.456-3.228l16.126,8.062l24.187-27.417l11.283-17.732l6.448,1.606v12.906
				l16.125,8.063l22.583,4.385l1-46.667z"/>
			<g>
				<text transform="matrix(1 0 0 1 48.3979 50.5391)"><tspan x="0" y="0" style="fill:#000000;stroke:none;">215</tspan></text>
			</g>
		</g>
		<g>
			<path d="M432.67,106.528l-20.158-17.124l-47.572,23.974l-6.448,9.678l-6.448,3.228v9.677l20.959,16.126l14.512,1.606l11.292,4.842l3.218,8.063l8.065,6.449h8.06l6.459,8.063l12.896-12.897l9.677,4.835l16.125,14.511l-22.573,22.575l-3.229,6.457l3.229,9.668
				l-6.457,8.063l-6.724,5.243l56.021,0.953l18.629,27.267l21.173-13.095l10.544,14.386l0.338-13.788l-3.229-25.801l-2.173-4.6l-28.668-1.448l-11.077-18.141l18.14-8.064l-3.032-14.109l1.018-21.156l-12.095-33.266l-47.375-2.015l-13.095-20.158z"/>
			<g>
				<text transform="matrix(1 0 0 1 439.5068 167.4468)"><tspan x="0" y="0" style="fill:#000000;stroke:none;">208-209</tspan></text>
			</g>
		</g>
		<g>
			<path d="M612.545,41.798L589.292,2.177l20.756-1.676h54.826l4.446,65.714l-18.941-3.479l-0.016-13.859l-20.97,9.677l6.449-24.188l-11.283,6.448l-4.842-3.22l-7.173,4.204z"/>
			<g>
				<text transform="matrix(1 0 0 1 630.1768 27.2852)"><tspan x="0" y="0" style="fill:#000000;stroke:none;">219</tspan></text>
			</g>
		</g>
		<g>
			<path d="M175.664,3.375l24.794,0.354h8.063h45.156l112.877-1.614h41.926l27.205,0.212l-11.077,22.575l16.268,6.938l33.005,45.854l-12.99,6.662l20.154,15.125l-26.045,5.243l-22.329,1.804l-20.158-17.124l-47.572,23.974l-25.801-17.731l-14.512-1.614l-3.229-1.614
				l-8.063-6.448l1.614-9.677l-9.677-9.676l4.841-12.898h-8.063l-4.842-1.614l-3.22-8.063l6.448-9.677l-4.834-6.45h-6.456l-4.835,4.834l-16.125-1.606l-4.834-4.843L244,13.405l-9.678-1.614l-12.896,12.897L205.3,23.082l-8.063,4.834h-8.062l1.614,9.678
				l-9.676,11.282l-6.45,1.165l1-46.667z"/>
			<g>
				<text transform="matrix(1 0 0 1 360.8262 60.6162)"><tspan x="0" y="0" style="fill:#000000;stroke:none;">217</tspan></text>
			</g>
		</g>
		<g>
			<path d="M637.93,62.026l12.449,0.709l18.941,3.479l0.386,16.527l1.613,17.739v12.897l1.616,20.969l4.836,69.335l3.227,41.928l1.276,18.629l-21.834,15.637l-11.691,36.685l-8.064,9.676l-1.615,11.291l-9.676-9.676l3.23-9.676l-9.68,1.614l-3.227,19.345
				l-17.732-14.511l-6.455-12.897l-12.899-3.228l-8.061-17.742l9.677-17.731l12.896-1.614l-4.834-8.063l-9.679,4.835l-3.226-4.835l3.226-11.29h16.125l11.292,9.676h9.67l-16.125-17.739l1.613-17.739l-14.511,11.291l-3.228-8.063l-17.733-3.229l-1.615-3.221
				l4.837-6.447l3.229-9.679l4.831-3.227l16.128,11.291l-3.221-19.354l-3.228-19.346l11.29-9.676l-3.229-9.676l9.679-16.126l-6.449-1.613l-8.063,3.228l-3.228,7.25l-3.228-8.866l-6.452-6.447l4.843-16.125l12.897-17.741v-6.448h6.45l4.842-9.677l22.576,1.614
				l4.832-4.842l-9.676-3.221l1.613-8.063l6.449-1.614l2.087-6.205z"/>
			<g>
				<text transform="matrix(1 0 0 1 626.8936 205.7451)"><tspan x="0" y="0" style="fill:#000000;stroke:none;">216</tspan></text>
			</g>
		</g>
		<g>
			<path d="M435.685,2.327l-11.077,22.575l16.268,6.938l33.005,45.854l-12.99,6.662l20.154,15.125l-26.045,5.243l-22.329,1.804l13.095,20.158l47.375,2.015l12.095,33.266l-1.018,21.156l3.032,14.109l-18.14,8.064l11.077,18.141l28.668,1.448l-2.661-5.078
				l9.677-9.676l1.614-4.835l-9.677-6.45l4.834-6.448v-8.063l3.229-3.228l6.45,8.063l3.227-4.836l-8.063-14.519l12.896,1.614l4.834-3.221l-1.605-6.456l-8.063-3.22l-6.457-12.904l11.291,4.841l3.229-6.447l-3.229-4.842h-6.449l-1.611-6.449l-8.064-1.614
				l-1.614-11.283l-9.677-1.614v-4.844l-4.834-6.448h9.677l3.22,3.229l4.843,4.834l14.511,3.229l1.613-1.616l-4.842-8.063l8.063-1.614l1.617-12.897l8.06,3.22V84.355l6.451-1.614l3.228,9.676h4.835l3.226-11.29l8.064,3.228l1.614-9.676l11.283,1.613l6.455-14.511
				l-6.455-6.45l8.599-13.046L589.292,2.177l-63.099-0.062h-40.312h-37.087l-13.11,0.212z"/>
			<g>
				<text transform="matrix(1 0 0 1 518.4902 62.6328)"><tspan x="0" y="0" style="fill:#000000;stroke:none;">210-211</tspan></text>
			</g>
		</g>
		<g>
			<path d="M427.552,239.562l-4.562,7.662l-14.511,6.449l-6.456,6.448l-8.062,17.739l-3.219,22.574l8.063,12.905l6.446,6.45l32.252-14.511l3.229-16.127l6.448,3.223l6.448,24.188l8.063,4.842l3.228,6.449l11.283,3.22l-4.834-11.283l3.22-6.45l16.125,29.023
				l8.065-9.677l9.674,4.842v3.22l14.513,4.842l4.843,4.834v6.449l9.677-1.614l6.447,3.228l1.615-11.291l6.447,1.616l1.615,19.352h4.834l4.834,9.678l4.842,3.22l-1.613-14.51l3.229-8.064l-11.291-11.291l-1.611-12.896l3.228-4.834l-1.616-3.228l-19.354-3.228
				l-3.22-8.063l-29.029-27.408v-4.844l4.842-1.606l14.511,12.898l16.127,14.512l3.227,6.447l11.285,3.229l3.228-6.449l-26.142-42.652l-10.544-14.386l-21.173,13.095l-18.629-27.267l-56.021-0.953z"/>
			<g>
				<text transform="matrix(1 0 0 1 437.4922 282.3398)"><tspan x="0" y="0" style="fill:#000000;stroke:none;">206-207</tspan></text>
			</g>
		</g>
		<g>
			<path d="M682.274,264.239l-21.834,15.637l-11.691,36.685l1.614,3.228l-3.229,17.739l8.06-1.614v8.063h-9.676l-4.834,17.741l25.804-4.844l3.218,4.844l-12.896,4.834l-3.229,9.676l17.738-1.613v3.228l-19.353,11.282l6.459,22.575l6.448-9.669l29.021-3.228
				l4.843-6.45l46.76-8.063l4.837-14.512l20.967-32.25l4.835,6.449l-14.511,38.7h9.676l11.283-37.086l8.065-17.739l3.225-11.291v-12.896l6.448-14.514l-53.209-1.613h-62.896l-1.944-23.298z"/>
			<g>
				<text transform="matrix(1 0 0 1 709.5361 350.8735)"><tspan x="0" y="0" style="fill:#000000;stroke:none;">218</tspan></text>
			</g>
		</g>
	</g>
</svg>
