<?xml version="1.0" encoding="iso-8859-1"?>
<!DOCTYPE svg >

<svg  width="433.328pt" height="600.414pt" viewBox="0 0 433.328 600.414" xml:space="preserve">
	<g id="Layer_x0020_1" style="fill-rule:nonzero;clip-rule:nonzero;fill:#FFFFFF;stroke:#000000;stroke-miterlimit:4; font-family:'Arial'; font-size:10;">
		<g>
			<path d="M116.916,443.249l9.523,3.568l7.137-8.328l19.046,5.949l-1.191-21.424l15.473,1.189l2.381-10.71l13.093,4.758l11.902-5.948l6.739,3.761l-7.934,15.279l7.335,33.323l-5.668,7.146l-2.856-4.762l3.809-4.76h-7.617l-3.811,3.808l-3.807-1.904l1.907-4.759
				l-4.763-1.906l-3.812,6.665l-1.901,10.473l-3.81,7.62h-2.856l-0.955-6.668l-6.659-2.854v7.612l-4.764,2.863l-10.474-5.714l-8.569,10.476l1.903,8.566l-2.855,5.233l-5.715-8.093v-12.378l5.24-16.664l-15.472-21.418z"/>
			<text transform="matrix(1 0 0 1 147.2354 463.4785)"><tspan x="0" y="0" style="fill:#000000;stroke:none;">045</tspan></text>
		</g>
		<g>
			<path d="M117.219,365.774l6.839,2.491l29.701,15.282l19.098-4.571l9.521,10.712l-13.093,23.806l-2.381,10.71l-15.473-1.189l1.191,21.424l-19.046-5.949l-7.137,8.328l-9.523-3.568v-24.997l-15.47-19.042l9.519-2.376l6.254-31.06z"/>
			<text transform="matrix(1 0 0 1 132.3809 415.5371)"><tspan x="0" y="0" style="fill:#000000;stroke:none;">043</tspan></text>
		</g>
		<g>
			<path d="M3.298,327.804l19.651,12.937l23.096-0.047l27.973,5.067l25.045,10.604l18.156,9.409l-6.254,31.06l-9.519,2.376l15.47,19.042v24.997l-26.185,22.609l-21.423-3.567l-11.9-20.234l-14.28,1.192l-13.092-8.332l-21.423-3.284l-0.478-8.379l-4.836-95.45z"/>
			<text transform="matrix(1 0 0 1 50.2588 407.209)"><tspan x="0" y="0" style="fill:#000000;stroke:none;">042</tspan></text>
		</g>
		<g>
			<path d="M75.563,217.726l10.407,8.913l4.761,14.279l20.233,4.761l26.185,26.182l5.95,33.326l23.804,16.663l23.804,14.28l2.378,27.377l17.856,10.711l29.75-2.382v17.852l-5,12.621l-11.425,1.898l0.952,9.522l-6.666,12.083l-17.534-9.749l-6.739-3.761
				l-11.902,5.948l-13.093-4.758l13.093-23.806l-9.521-10.712l-19.098,4.571l-29.701-15.282l-6.839-2.491l-18.156-9.409l-25.045-10.604l-27.973-5.067l-23.096,0.047L3.298,327.804L0.52,288.051l7.615-4.761l7.618-0.951l4.761,11.42l5.708,0.958l2.862-20.943
				l5.716-0.956l10.469,3.808l2.855-3.808l-9.519-13.329l3.805-5.713l13.332-13.331l6.665-0.953l10.475-9.522l-0.954-9.52l3.637-2.724z"/>
			<text transform="matrix(1 0 0 1 89.5322 317.9453)"><tspan x="0" y="0" style="fill:#000000;stroke:none;">049</tspan></text>
		</g>
		<g>
			<path d="M389.936,280.433l-3.804,12.38l7.612,14.284h7.625l5.706-5.714l9.519,3.805l8.575,11.431l-3.815,6.661l5.715,7.617l-0.954,7.614l-10.469-0.951l-0.951,7.621l5.713,2.852l3.81-1.905l3.804,4.761l3.808-1.901l0.956,8.567l-6.67,1.91l-11.42,14.281
				l-8.565,1.901l-3.815-6.662h-8.569l-2.852,13.327l-3.808-2.859l1.898-3.806h-4.763l-1.897,4.762l-4.762-3.812l-4.762,2.855l0.949,6.666l-3.806,4.762l-7.619-1.907l-4.756,4.761l-2.861-0.947l-1.901-7.619l-5.71,0.951l-5.72,4.762v7.616l-2.852,6.664l-4.761-3.806
				l-3.811-4.762l-2.855,3.806l1.904,7.619l-9.522,10.475v-9.522l-4.761-3.81l2.855-2.851l-2.855-3.813l-3.803,1.902l-4.764-7.612l-5.712,7.612l-5.714-5.713v5.713l-9.521,7.619l-4.76-2.857v-8.567l-8.57,11.425l-5.716,1.905l9.051-26.185l24.988-13.09
				l19.045-10.712l-5.949-24.994l21.423-4.761l-8.332-40.466l63.551-9.283z"/>
			<text transform="matrix(1 0 0 1 363.2705 351.2695)"><tspan x="0" y="0" style="fill:#000000;stroke:none;">046</tspan></text>
		</g>
		<g>
			<path d="M137.149,75.488l26.185,36.896l1.188,17.85L155,138.567l58.318,73.788l23.807,13.092l23.8-2.38l17.85,17.851l29.757-4.759l8.332-16.661l14.28-8.332l18.803,3.57l2.859,4.762l-2.859,2.854l-1.899,12.379l3.804,2.856l1.908,1.905l6.661-1.905l4.763,7.618
				l14.281,3.809h8.566l1.905,2.855l-0.952,10.471l-5.714,0.959l6.666,17.134l-63.551,9.283l8.332,40.466l-21.423,4.761l5.949,24.994l-19.045,10.712l-24.988,13.09l-9.051,26.185v10.475l3.809,3.807v3.811l-10.475-2.855l-1.9,2.855l-3.807-6.665l-13.331-1.905
				l-0.952-3.809l4.76-0.953v-5.713l9.523,0.953l-3.814-5.715h-3.807l-5.71,3.81l4.758-10.469v-5.714l-4.589-3.445l0.067-16.553l-29.75,2.382l-17.856-10.711l-2.378-27.377l-23.804-14.28L143.1,305.188l-5.95-33.326l-26.185-26.182l-20.233-4.761l-4.761-14.279
				l-10.407-8.913l1.127-2.99l6.659-1.907l4.762-12.374l-4.762-1.907v-7.616l6.666-14.28l-5.713-6.669l10.475-19.988l9.522-7.621l5.713-9.523l1.899-12.375l4.761-19.041l20.494-25.92l-0.018-0.027z"/>
			<text transform="matrix(1 0 0 1 234.7324 296.5234)"><tspan x="0" y="0" style="fill:#000000;stroke:none;">044</tspan></text>
		</g>
		<g>
			<path d="M137.167,75.515l58.537-74.054l6.662-0.953l12.381,2.854l0.954,23.802l14.28,8.573l16.184-6.667l15.236-1.906l4.758-4.76l5.716-0.949l11.422,1.901l4.758-9.519h18.098l27.611,22.849l4.761,7.621l11.422,9.52l1.904,7.616l0.955,143.774l-2.859,9.52
				l-18.803-3.57l-14.28,8.332l-8.332,16.661l-29.757,4.759l-17.85-17.851l-23.8,2.38l-23.807-13.092L155,138.567l9.521-8.333l-1.188-17.85l-26.185-36.896l0.018,0.027z"/>
			<text transform="matrix(1 0 0 1 258.5342 132.2798)"><tspan x="0" y="0" style="fill:#000000;stroke:none;">047</tspan></text>
		</g>
		<g>
			<path d="M8.879,441.467l-0.267-9.834l21.423,3.284l13.092,8.332l14.28-1.192l11.9,20.234l21.423,3.567l26.185-22.609l15.472,21.418l-5.24,16.664l-8.566,4.762l-1.908-3.806l-14.28,5.715l-7.615,5.707l-9.522,14.281l7.618,8.572l-0.95,3.807l-14.28,2.854
				l-2.862,9.522l1.91,4.761l-8.57,10.475l-8.575,2.854l-7.613,15.235l-9.996-2.617l-12.853-2.144l-12.381-11.423l-3.805-11.429l0.952-11.426l-1.912-36.179l-3.058-49.387z"/>
			<text transform="matrix(1 0 0 1 41.9268 510.751)"><tspan x="0" y="0" style="fill:#000000;stroke:none;">040</tspan></text>
		</g>
		<g>
			<path d="M29.083,561.31l0.953,17.141l8.569,5.71l6.663,0.953l4.756-11.422l1.908-7.621l-9.996-2.617l-12.853-2.144z"/>
			<g>
				<text transform="matrix(1 0 0 1 70.0635 597.167)"><tspan x="0" y="0" style="fill:#000000;stroke:none;">039</tspan></text>
				<path style="fill:none;" d="M39.35,574.476l20.685,9.851"/>
			</g>
		</g>
		<g>
			<path d="M201.019,416.064l17.534,9.749l-1.904,6.961l-7.616,12.381l2.855,4.762v4.755l-6.66,2.857v3.805l-4.808,3.333l-7.335-33.323l7.934-15.279z"/>
			<g>
				<text transform="matrix(1 0 0 1 240.043 472.6904)"><tspan x="0" y="0" style="fill:#000000;stroke:none;">048</tspan></text>
				<path style="fill:none;" d="M204.822,432.643l27.579,22.655"/>
			</g>
		</g>
	</g>
</svg>
