<?xml version="1.0" encoding="iso-8859-1"?>
<!DOCTYPE svg >

<svg  width="692.76pt" height="600.822pt" viewBox="0 0 692.76 600.822" xml:space="preserve">
	<g id="Layer_x0020_1" style="fill-rule:nonzero;clip-rule:nonzero;stroke:#000000;stroke-miterlimit:4; font-family:'Arial'; font-size:10;">
		<g>
			<path style="fill:#FFFFFF;" d="M236.226,174.485l1.745,34.234l-13.929,14.514l-4.643,24.375l4.643,17.409l-8.123,11.022l15.086,37.139l1.736,27.281h47.012l7.539-11.032l-2.321-12.181l-6.379-6.965l0.575-37.727l21.479-22.049l-15.09-20.893l15.09-11.607
				l2.322-33.657l-28.44-23.214l-9.864-0.574l-3.481,7.537l-15.089,11.608l-9.868-5.219z"/>
			<text transform="matrix(1 0 0 1 252.2559 257.7251)"><tspan x="0" y="0" style="stroke:none;">653</tspan></text>
		</g>
		<g>
			<path style="fill:#FFFFFF;" d="M592.912,465.354l29.232-7.672l18.57,10.447l18.802-9.979l7.654,9.394l6.506-0.931l-0.931-8.354l10.214,12.067l8.357,4.644l0.929,9.285l-5.572,9.282l1.854,3.719v6.498l-4.637,12.073v7.429l-5.576,3.712l-12.07-10.216
				l-6.497,17.645l-5.572,5.568l-2.784-1.852l1.853-7.432l-6.494-5.568l-3.714,3.715l5.567,3.713l-3.716,4.641l-0.926,5.572l4.642,6.498l-6.498,2.787l-3.713,3.713l5.569,11.143l-5.569,0.928l-6.5-0.928l-0.932,4.646l7.432,6.495l-1.856,10.214l-10.217,11.145
				H600.32l-33.423,0.926l-9.287-0.926l20.429-25.071l10.212-10.214l1.855-13.932l18.109-17.637l-20.316-9.285l5.013-57.902z"/>
			<text transform="matrix(1 0 0 1 625.9834 509.5859)"><tspan x="0" y="0" style="stroke:none;">638</tspan></text>
		</g>
		<g>
			<path style="fill:#FFFFFF;" d="M613.321,354.261l12.07,10.217l5.569,1.857l2.787,7.427l14.855,12.999l-1.854,9.286l10.214,25.071l-5.572,4.644l-2.788,2.782v6.499l4.641,1.86l1.859,10.211l3.714,4.644l0.699,6.392l-18.802,9.979l-18.57-10.447l-29.232,7.672
				l-18.354,4.513l-0.238-38.181l6.615-0.124l1.745-41.199l30.641-36.102z"/>
			<text transform="matrix(1 0 0 1 612.0596 427.1797)"><tspan x="0" y="0" style="stroke:none;">637</tspan></text>
		</g>
		<g>
			<path style="fill:#FFFFFF;" d="M488.13,450.561l60.309-16.675l25.882-2.199l0.238,38.181l18.354-4.513l-5.013,57.902l20.316,9.285l-18.109,17.637l-5.568-2.782l-1.857-8.354l-8.36-4.646l-36.21,0.927h-23.212l-7.958,0.066l-19.432-68.42l6.38-8.711l-5.759-7.699z
				"/>
			<text transform="matrix(1 0 0 1 536.6143 496.8174)"><tspan x="0" y="0" style="stroke:none;">639</tspan></text>
		</g>
		<g>
			<path style="fill:#FFFFFF;" d="M117.177,424.219l55.798,7.344l1.735,62.676l5.227,9.872l-8.123,10.444l2.322,8.125l-6.389,12.368l-49.323-0.65l-0.931-22.286V499.11l-0.928-30.175v-6.964l0.611-37.753z"/>
			<text transform="matrix(1 0 0 1 140.8335 489.8545)"><tspan x="0" y="0" style="stroke:none;">648</tspan></text>
		</g>
		<g>
			<path style="fill:#FFFFFF;" d="M232.741,340.458h47.012l-6.388,7.541l30.762,0.256v-0.256v51.068l44.105,2.321l35.978,48.747l34.82,62.674l-1.736,21.786l-42.603,1.657l-41.785-0.928l-22.745,0.468l-7.893-0.468l-48.285,0.696l-29.245,0.231h-29.712l-19.967-0.46
				l-7.312-0.744l6.389-12.368l-2.322-8.125l8.123-10.444l-5.227-9.872l-1.735-62.676l2.321-35.393l48.162-1.748v-35.395l9.284-18.569z"/>
			<text transform="matrix(1 0 0 1 260.8179 475.9287)"><tspan x="0" y="0" style="stroke:none;">656-657</tspan></text>
		</g>
		<g>
			<path style="fill:#FFFFFF;" d="M486.923,330.012l41.786-0.585l4.641,5.805l2.321,4.641l19.157-4.641l9.282-5.805l6.501-3.943l5.569,3.713l21.355,15.782l4.641-1.855l1.859,3.713l-4.641,1.86l4.641,5.566l3.713,1.861l5.572-1.861l-30.641,36.102l-1.745,41.199
				l-6.615,0.124l-25.882,2.199l-60.309,16.675l-27.315-33.5l16.246-22.639l3.485,6.966l13.926-8.126l6.378-17.984l-12.182-22.638l-1.745-22.628z"/>
			<text transform="matrix(1 0 0 1 533.1338 394.6836)"><tspan x="0" y="0" style="stroke:none;">636</tspan></text>
		</g>
		<g>
			<path style="fill:#FFFFFF;" d="M448.621,313.177l30.179,9.87l8.123,6.964l1.745,22.628l12.182,22.638l-6.378,17.984l-13.926,8.126l-3.485-6.966l-16.246,22.639l27.315,33.5l5.759,7.699l-6.38,8.711l19.432,68.42l-28.251-0.066h-28.791l-4.172,0.468l-21.821-0.468
				l-6.611-0.729l1.736-21.786l-34.82-62.674l-35.978-48.747l-44.105-2.321v-51.068v0.256l39.46,0.327l16.252-10.445v-23.212l88.781-1.747z"/>
			<text transform="matrix(1 0 0 1 400.0947 406.2871)"><tspan x="0" y="0" style="stroke:none;">654-655</tspan></text>
		</g>
		<g>
			<path style="fill:#FFFFFF;" d="M460.282,251.973l9.815,10.721l8.702-2.322l12.191,4.058l8.125,4.642l17.411-2.896l10.445-13.35l13.34-1.162l12.771-17.408l8.709-2.322l4.055-6.964l8.712,6.964l9.979,0.697v4.643l-5.573,2.783l-0.926,16.711l-1.858,8.362
				l-7.426,10.208l-3.719,8.36l-3.714,3.714l-5.569,10.215l2.785,14.853l12.073,13.003l-6.501,3.943l-9.282,5.805l-19.157,4.641l-2.321-4.641l-4.641-5.805l-41.786,0.585l-8.123-6.964l-30.179-9.87l1.747-37.715l-10.445-5.805l20.359-17.685z"/>
			<text transform="matrix(1 0 0 1 506.4365 304.1514)"><tspan x="0" y="0" style="stroke:none;">630</tspan></text>
		</g>
		<g>
			<path style="fill:#FFFFFF;" d="M415.551,220.326l40.035,26.696l4.696,4.951l-20.359,17.685l10.445,5.805l-1.747,37.715l-88.781,1.747v23.212l-16.252,10.445l-39.46-0.327l-30.762-0.256l6.388-7.541l7.539-11.032l-2.321-12.181l-6.379-6.965l0.575-37.727
				l21.479-22.049l13.927-2.322l2.32-17.411l64.996,6.963l25.533,13.93l8.129-31.337z"/>
			<text transform="matrix(1 0 0 1 347.4268 290.2251)"><tspan x="0" y="0" style="stroke:none;">651</tspan></text>
		</g>
		<g>
			<path style="fill:#FFFFFF;" d="M419.606,169.258l62.099-25.821l13.692,13.982l4.644,0.93l17.646,18.569l3.713,6.498l-0.932,3.713l3.713,9.285l-1.851,7.432l4.642,15.781l7.422,9.284l14.858-12.997l18.573,4.643l4.642,0.931l12.07,11.142l-9.979-0.697
				l-8.712-6.964l-4.055,6.964l-8.709,2.322l-12.771,17.408l-13.34,1.162l-10.445,13.35l-17.411,2.896l-8.125-4.642l-12.191-4.058l-8.702,2.322l-9.815-10.721l-4.696-4.951l-40.035-26.696l13.342-8.123l0.585-17.412l-9.871-25.534z"/>
			<text transform="matrix(1 0 0 1 472.7764 217.105)"><tspan x="0" y="0" style="stroke:none;">633</tspan></text>
		</g>
		<g>
			<path style="fill:#FFFFFF;" d="M119.247,252.703l100.152-5.096l4.643,17.409l-8.123,11.022l15.086,37.139l1.736,27.281l-9.284,18.569v35.395l-48.162,1.748l-2.321,35.393l-55.798-7.344l0.316-37.457v-2.785l0.462-49.677l0.469-44.103v-11.141l0.823-26.354z"/>
			<text transform="matrix(1 0 0 1 166.3677 343.6118)"><tspan x="0" y="0" style="stroke:none;">647</tspan></text>
		</g>
		<g style="stroke:none;">
			<path style="fill:#FFFFFF;stroke:#000000;" d="M303.031,120.299l55.45-0.363l62.288,19.73l-1.162,29.592l9.871,25.534l-0.585,17.412l-13.342,8.123l-8.129,31.337l-25.533-13.93l-64.996-6.963l-2.32,17.411l-13.927,2.322l-15.09-20.893l15.09-11.607l2.322-33.657
				l-28.44-23.214l29.6-26.695l-1.097-14.139z"/>
			<text transform="matrix(1 0 0 1 348.5908 179.9619)"><tspan x="0" y="0">650</tspan><tspan x="0" y="12">652</tspan></text>
		</g>
		<g>
			<path style="fill:#FFFFFF;" d="M67.354,141.634l17.41-0.231l41.197,13.928l47.014-9.86l32.497-1.746l1.735,41.208l12.767-5.805l11.031,4.06l5.221-8.703l1.745,34.234l-13.929,14.514l-4.643,24.375l-100.152,5.096l0.103-7.074l-0.925-13.93l0.925-26.922
				l1.396-13.004l-8.825-5.568l-5.573,1.855l-7.426-4.644l-9.285-15.78v-5.573l-6.499-5.572l-2.785-5.573l-13-9.285z"/>
			<text transform="matrix(1 0 0 1 161.7256 208.979)"><tspan x="0" y="0" style="stroke:none;">640</tspan></text>
		</g>
		<g>
			<path style="fill:#FFFFFF;" d="M373.216,1.994L396.05,0.5l23.215,0.926l4.641,6.501h5.572l1.851,6.502l18.109,18.102l-7.89,16.25v5.572l0.925,22.282l5.575,12.072l-2.788,7.429l10.214,14.855l8.357,11.139l8.357,12.076l9.517,9.23l-62.099,25.821l1.162-29.592
				l-62.288-19.73l3.093-43.531l17.996-1.16l9.286-47l-15.64-26.251z"/>
			<text transform="matrix(1 0 0 1 398.4971 106.8408)"><tspan x="0" y="0" style="stroke:none;">634</tspan></text>
		</g>
		<g>
			<path style="fill:#FFFFFF;" d="M246.556,3.285h28.785l42.713-0.93l6.495,0.93l29.715-0.93l18.952-0.361l15.64,26.251l-9.286,47l-17.996,1.16l-3.093,43.531l-55.45,0.363l-0.648-43.308l-30.178-15.672l-2.32-47.003l-23.213,0.577l-0.115-11.607z"/>
			<text transform="matrix(1 0 0 1 325.3774 54.6118)"><tspan x="0" y="0" style="stroke:none;">635</tspan></text>
		</g>
		<g>
			<path style="fill:#FFFFFF;" d="M212.418,4.187l14.64-0.902h19.498l0.115,11.607l23.213-0.577l2.32,47.003l30.178,15.672l0.648,43.308l1.097,14.139l-29.6,26.695l-9.864-0.574l-3.481,7.537l-15.089,11.608l-9.868-5.219l-5.221,8.703l-11.031-4.06l-12.767,5.805
				l-1.735-41.208l-32.497,1.746l0.575-57.458l-17.988-16.825l42.945-0.584l9.862-24.373l-7.541-2.322l5.805-9.863l-6.39-6.962l12.174-22.896z"/>
			<text transform="matrix(1 0 0 1 233.6855 111.4834)"><tspan x="0" y="0" style="stroke:none;">646</tspan></text>
		</g>
		<g>
			<path style="fill:#FFFFFF;" d="M212.418,4.187l-12.174,22.896l6.39,6.962l-5.805,9.863l7.541,2.322l-9.862,24.373l-42.945,0.584l17.988,16.825l-0.575,57.458l-47.014,9.86l-41.197-13.928l-17.41,0.231l3.714-8.357l2.783-8.356l7.432-5.569v-4.644l10.211-0.93
				l-5.568-4.641h3.711l0.933-5.573l-0.933-4.644l-5.573-0.922l-3.711-6.503l-1.859,1.859l-4.643,3.713l-8.356,0.931L44.142,79.426l-7.431-7.43l1.858-6.499l-2.792-6.5l-12.995-12.07l-1.854-4.641l-8.363-2.789l1.861-7.428L7.926,16.284l-4.643-2.786L0.5,8.858
				V2.355l38.999,0.93H57.14l29.713,0.928l29.712,0.931h14.857l25.996-0.931h23.212h25.071l6.716-0.026z"/>
			<text transform="matrix(1 0 0 1 100.2114 66.2183)"><tspan x="0" y="0" style="stroke:none;">644</tspan></text>
		</g>
	</g>
</svg>
