<?xml version="1.0" encoding="iso-8859-1"?>
<!DOCTYPE svg >

<svg  width="409.936pt" height="601.395pt" viewBox="0 0 409.936 601.395" xml:space="preserve">
	<g id="Layer_x0020_1" style="fill-rule:nonzero;clip-rule:nonzero;stroke:#000000;stroke-miterlimit:4; font-family:'Arial'; font-size:10;">
		<g>
			<path style="fill:#FFFFFF;" d="M409.247,212.049v-30.047v-19.62V98.15l-207.622,52.887L167.9,216.956l24.529,15.329l4.597,47.521l212.222-1.532v-66.225z"/>
			<text transform="matrix(1 0 0 1 312.0903 209.873)"><tspan x="0" y="0" style="stroke:none;">893</tspan></text>
		</g>
		<g style="stroke:none;">
			<path style="fill:#FFFFFF;stroke:#000000;" d="M409.247,294.218v37.403v46.6v52.063l0.169,14.049l0.018,0.022l-0.68,54.044l-1.691,6.13l-2.45,3.188l-1.763,5.347l-3.929,1.423l-4.724-0.698l-2.573-1.392l-1.639-6.15l-27.771,0.746l6.905,93.108l-70.609-69.805
				l-15.944-14.718l-74.054-70.965l-13.63-13.042l-45.989-41.696l-38.633-34.953l-13.133-11.322l99.898-63.795l212.222-1.532v15.944z"/>
			<text transform="matrix(1 0 0 1 299.8262 404.561)"><tspan x="0" y="0">889</tspan><tspan x="0" y="12">890</tspan></text>
		</g>
		<g>
			<path style="fill:#FFFFFF;" d="M0.96,247.309l0.153-15.024l0.615-11.037L0.5,198.559L1.114,71.017V1.111l45.374,0.308l77.877-0.308h80.327l-3.067,149.927L167.9,216.956l24.529,15.329l4.597,47.521l-99.898,63.795l-36.533-32.216l-12.877-11.649l-16.557-14.717
				l-20.443-17.348l-8.988-7.792l-0.768-12.57z"/>
			<text transform="matrix(1 0 0 1 81.2378 135.0947)"><tspan x="0" y="0" style="stroke:none;">894</tspan></text>
		</g>
		<g>
			<path style="fill:#FFFFFF;" d="M204.692,1.111L338.981,0.5h52.123l18.144,0.611v85.237V98.15l-207.622,52.887l3.067-149.927z"/>
			<text transform="matrix(1 0 0 1 292.3247 66.2295)"><tspan x="0" y="0" style="stroke:none;">898</tspan></text>
		</g>
	</g>
</svg>
