<?xml version="1.0" encoding="iso-8859-1"?>
<!DOCTYPE svg >

<svg  width="799.98pt" height="393.44pt" viewBox="0 0 799.98 393.44" xml:space="preserve">
	<g id="Layer_x0020_1" style="fill-rule:nonzero;clip-rule:nonzero;fill:none;stroke:#000000;stroke-width:0.25;stroke-miterlimit:4; font-family:'Arial'; font-size:10;">
		<g>
			<path d="M223.581,4.1l-30.219-0.622l-12.547,0.835l-45.172-0.835L88.177,4.313v0.838H67.882h-19.24H23.548L10.999,5.904H0.125v59.477L78.76,63.71l13.384-0.838l36.807,0.838h51.029h12.55l33.101-0.362L223.581,4.1z"/>
			<text transform="matrix(1 0 0 1 87.9844 41.1211)"><tspan x="0" y="0" style="fill:#000000;stroke:none;">739</tspan></text>
		</g>
		<g>
			<path d="M279.896,124.489l71.577,0.286l4.183-23.002h46.007l-6.508,38.68l-10.22,55.427l-14.64,12.548v37.645l-48.102-14.637l-41.826,2.927v-17.566v-26.773v-24.257l-0.837-30.951l0.367-10.325z"/>
			<text transform="matrix(1 0 0 1 318.5498 177.2192)"><tspan x="0" y="0" style="fill:#000000;stroke:none;">736</tspan></text>
		</g>
		<g>
			<path d="M280.366,234.362l41.826-2.927l48.102,14.637l20.914,8.368h60.652v23.004l20.911-2.091l8.456,29.253l14.965,51.057l-15.056,17.566l-10.879-8.367l2.514-8.365l-5.021-3.35l-4.183,1.678l-5.854-10.043l2.51-4.181l-5.021-4.186l-7.528,4.186l-5.856-0.834
				l-4.183-3.352l-5.021-0.831l-4.183,8.364l-8.364,1.672l-4.184-8.366l-5.019-3.345l-7.53,2.506l-5.02,2.514l-5.852-3.345h-7.528l-5.857-5.857l-22.588-1.674v-14.221l-10.874-8.362l-1.674-3.347l-5.854,0.834l-1.676,7.529l-5.852-4.181h-8.367l-3.351,4.181h-9.196
				l-11.716-15.059l-9.198-6.691h-6.697l-1.669-21.749v-32.626z"/>
			<text transform="matrix(1 0 0 1 364.5605 297.4736)"><tspan x="0" y="0" style="fill:#000000;stroke:none;">735</tspan></text>
		</g>
		<g>
			<path d="M707,108.045h-31.371l-2.091,25.095h-37.645l-2.091,27.188v25.094h18.822l3.881,29.847l40.039,3.615l4.184-8.362h20.913h14.637l4.185-50.194l27.188-2.091l4.156-61.279l-33.438,2.721l-4.183,8.365H707z"/>
			<text transform="matrix(1 0 0 1 686.6274 168.8516)"><tspan x="0" y="0" style="fill:#000000;stroke:none;">744</tspan></text>
		</g>
		<g>
			<path d="M544.118,133.149l35.311-0.009l4.186,25.097l50.189,2.091v25.094h18.822l3.881,29.847l-12.247-0.564l-12.548,10.453l-20.913,50.195L599.641,307.2l-32.761,0.344l2.092-44.741h-25.094v-73.197l10.454-29.277l-8.365-18.822l-1.85-8.357z"/>
			<text transform="matrix(1 0 0 1 582.061 217.999)"><tspan x="0" y="0" style="fill:#000000;stroke:none;">748</tspan></text>
		</g>
		<g>
			<path d="M395.154,140.453l44.154,13.601h48.102l2.092-52.281h27.188l20.913-4.186l6.767,35.562l1.599,8.357l8.365,18.822l-10.454,29.277v73.197h25.094l-2.092,44.741l-39.741,1.31l-0.111-16.561l-14.514-0.621l-2.137,11.937l-29.15,0.998l-8.456-29.253
				l-20.911,2.091V254.44h-60.652l-20.914-8.368v-37.645l14.64-12.548l10.22-55.427z"/>
			<text transform="matrix(1 0 0 1 458.6724 216.9551)"><tspan x="0" y="0" style="fill:#000000;stroke:none;">730</tspan></text>
		</g>
		<g>
			<path d="M707.833,1.805h30.953h7.53l34.297-1.673v0.836l0.839,26.77v11.709l0.839,20.08l4.588,35.986l-15.092,1.131l-33.417,3.036l-4.183,8.365H707l-2.089-48.102l12.546-4.183V43.212L707,45.304l0.833-43.499z"/>
			<text transform="matrix(1 0 0 1 741.0024 59.0547)"><tspan x="0" y="0" style="fill:#000000;stroke:none;">743</tspan></text>
		</g>
		<g>
			<path d="M595.808,3.854l0.351,62.362h-39.734v16.731l-18.822,2.091v12.548l6.516,35.562l35.311-0.009l4.186,25.097l50.189,2.091l2.091-27.188h37.645l2.091-25.095H707l-2.089-48.102l12.546-4.183V43.212L707,45.304l0.833-43.499l-10.034-1.673l-25.097,1.673
				L655.97,0.967l-3.345,0.837L604.105,2.64l-8.297,1.215z"/>
			<text transform="matrix(1 0 0 1 618.6606 95.6563)"><tspan x="0" y="0" style="fill:#000000;stroke:none;">740</tspan></text>
		</g>
		<g>
			<path d="M517.105,2.64l27.606,0.838h39.316l11.78,0.376l0.351,62.362h-39.734v16.731l-18.822,2.091v12.548l-20.913,4.186l2.088-46.012h-27.185l6.274-29.278L517.105,2.64z"/>
			<text transform="matrix(1 0 0 1 538.1431 49.6455)"><tspan x="0" y="0" style="fill:#000000;stroke:none;">746</tspan></text>
		</g>
		<g>
			<path d="M410.03,3.365l5.853,0.113h18.405h22.586h27.606l32.625-0.838l-19.238,23.842l-6.274,29.278h27.185l-2.088,46.012h-27.188l-2.092,52.281h-48.102l-44.154-13.601l6.508-38.68h6.276l-1.164-27.23l9.569-18.782L410.03,3.478V3.365z"/>
			<text transform="matrix(1 0 0 1 448.2153 90.4277)"><tspan x="0" y="0" style="fill:#000000;stroke:none;">737</tspan></text>
		</g>
		<g>
			<path d="M223.581,4.1L272,3.478l7.528,0.835h42.664h7.531l43.495-1.673l36.812,0.726v0.113l6.313,52.282l-9.569,18.782l1.164,27.23h-6.276h-46.007l-4.183,23.002l-71.577-0.286l-0.367-8.917V63.71l-50.192-0.838l-3.705,0.477L223.581,4.1z"/>
			<text transform="matrix(1 0 0 1 319.5972 61.1475)"><tspan x="0" y="0" style="fill:#000000;stroke:none;">738</tspan></text>
		</g>
		<g>
			<path d="M599.552,307.208l19.611-0.486l-2.091,31.369l92.02-6.271l4.183-10.457l31.369-2.091l-2.089-29.276l31.363,0.49l0.005-27.683l-43.916-4.18l-2.094-10.46h10.457v-16.728l-14.638-4.183l-2.091-16.73h-20.913l-4.184,8.362l-40.039-3.615l-12.247-0.564
				l-12.548,10.453l-20.913,50.195l-11.246,31.854z"/>
			<text transform="matrix(1 0 0 1 669.9009 280.7393)"><tspan x="0" y="0" style="fill:#000000;stroke:none;">745</tspan></text>
		</g>
		<g>
			<path d="M796.508,291.246l-22.59-0.886l0.005-27.558l-43.916-4.18l-2.094-10.46h10.457v-16.728l-14.638-4.183l-2.091-16.73h14.637l4.185-50.194l27.188-2.091l4.156-61.279l15.071-1.446l0.425,3.33l0.839,7.527l5.854,40.995l1.675,12.547l3.35,25.099l0.833,5.013
				l-1.672,48.522l-0.836,27.604l-0.839,25.097z"/>
			<text transform="matrix(1 0 0 1 760.8716 219.0469)"><tspan x="0" y="0" style="fill:#000000;stroke:none;">749</tspan></text>
		</g>
		<g>
			<path d="M481.227,304.606l29.15-0.998l2.137-11.937l14.514,0.621l0.111,16.561l39.741-1.31l32.761-0.344l19.522-0.479l-2.091,31.369h-23.005l-1.672,25.936l-6.69,10.876l-5.857-4.186l-5.862,1.675l-5.014-14.223l-3.35,0.839l-2.508,8.362l-5.857,6.69
				l-6.688-2.505v14.223l-5.857,1.669l-1.675-12.545l0.842-5.855l-5.024-5.021l-4.183,6.69l-5.019-0.836l-5.019,7.531l-5.857-3.352l-3.347-10.034h-5.016l-7.532-6.693l-6.69-1.67l-14.965-51.057z"/>
			<text transform="matrix(1 0 0 1 538.1431 342.4346)"><tspan x="0" y="0" style="fill:#000000;stroke:none;">734</tspan></text>
		</g>
		<g>
			<path d="M592.396,364.026l1.672-25.936h23.005l92.02-6.271l4.183-10.457l31.369-2.091l-2.089-29.276l31.363,0.49l22.59,0.761l-0.836,36.808v29.279l-0.833,35.136l-5.021,0.836l-2.514-3.347l-15.892-6.693l-14.22-5.019l-24.264-21.749l-7.526-0.834l-8.365,8.363
				l-6.69,3.344l-11.71-2.508l-3.352-5.854l-20.913,5.019l-3.347,5.021l-4.18-0.838l-26.77,6.693l-2.511,6.693l-12.55,2.508l-2.506,5.019l-4.183-2.511l-5.857-5.857l-15.895-5.852l3.347-5.021l-0.836-3.344l-6.69-2.511z"/>
			<text transform="matrix(1 0 0 1 741.0024 344.5244)"><tspan x="0" y="0" style="fill:#000000;stroke:none;">747</tspan></text>
		</g>
	</g>
</svg>
