<?xml version="1.0" encoding="iso-8859-1"?>
<!DOCTYPE svg >

<svg  width="801.315pt" height="527.744pt" viewBox="0 0 801.315 527.744" xml:space="preserve">
	<g id="Layer_x0020_1" style="fill-rule:nonzero;clip-rule:nonzero;fill:#FFFFFF;stroke:#000000;stroke-miterlimit:4; font-family:'Arial'; font-size:10;">
		<g>
			<path d="M54.964,149.439l4.455-18.713l-0.892-3.564l2.675-10.693l-1.784-7.128l3.564-8.015l-4.456-7.131l2.675-3.564l7.127,3.564v-4.456l-6.238-9.801l1.784-9.799l-5.348-10.693l1.782-16.039l-3.563-9.801l8.018-8.91L59.419,6.873l-3.564-4.455l1.781-1.785
				L69.22,7.765l6.237,3.564l2.673-0.893l-5.345-6.24l8.019-1.778l4.455,4.455l12.474-1.784l3.564-3.564l7.13-0.892l0.889,5.348l2.674,1.784l3.563,3.564l3.566,1.778l4.455-0.888l4.455-1.783l2.674-0.892l3.563-1.779l26.731,12.474l9.801,16.929l1.784,11.581
				l0.889,16.934l5.348,11.581l40.987,9.803l5.344-0.892l32.968-13.365l8.909-6.239l31.188-0.888l10.693,1.779l5.345-0.892l4.456,1.783l5.345,1.784l6.237,2.672l3.564,5.345h4.456l6.237-5.345h10.693l5.345,0.892l24.948-10.696l28.959,26.51l-15.594,8.91
				l14.258,77.743l-135.437-4.454l-4.455-11.587l-68.166,5.126l-3.34-26.731l-17.822,3.343l-13.364-2.229l-30.073,10.026h-32.301l11.139-24.505l-35.641,8.912l-11.139,14.477l-17.596,0.895z"/>
			<text transform="matrix(1 0 0 1 188.9805 119.5864)"><tspan x="0" y="0" style="fill:#000000;stroke:none;">970-971</tspan></text>
		</g>
		<g>
			<path d="M54.964,149.439V153l0.89,4.456l-5.345,23.167l0.889,7.126l-1.781,4.456l0.892,4.454v20.273l-0.892,11.702l89.771-5.466l27.845,23.389l101.354,1.116l-1.113-20.049l10.247-55.911l-4.455-11.587l-68.166,5.126l-3.34-26.731l-17.822,3.343l-13.364-2.229
				l-30.073,10.026h-32.301l11.139-24.505l-35.641,8.912l-11.139,14.477l-17.596,0.895z"/>
			<text transform="matrix(1 0 0 1 136.6157 199.7803)"><tspan x="0" y="0" style="fill:#000000;stroke:none;">973</tspan></text>
		</g>
		<g>
			<path d="M49.618,228.634l89.771-5.466l27.845,23.389l101.354,1.116l4.455,14.477l-5.568,24.505L251.88,302.25l-0.881,24.51l-1.345,37.862l-6.683,31.185l-19.994,6.863l-93.613,32.118l1.115,26.73l-67.941,4.457l-7.798,1.113l-5.568,16.708l18.934,2.227
				l1.115,40.318l-33.86,0.892l-0.889-3.563l-9.803-8.91l-6.237-16.927l-1.782-3.57v-4.453l-2.673-4.456l1.781-5.343v-13.365l3.564-8.91l-2.672-12.477l-4.456-4.458l-1.781-4.454l-4.456-2.67l-0.891-6.242l-4.455-5.34l8.018-13.365l10.693-39.211l-1.783-5.343
				l1.783-3.566l5.347-4.454l10.692-28.512l1.783-7.129l1.781-2.673l-0.892-3.563l2.674-12.475l-0.892-4.453l4.455-39.211l2.675-12.474l2.673-17.031z"/>
			<text transform="matrix(1 0 0 1 114.8906 344.7427)"><tspan x="0" y="0" style="fill:#000000;stroke:none;">974</tspan></text>
		</g>
		<g>
			<path d="M744.621,184.188l-44.999,20.046l-11.136,18.265l-40.986,0.895l-21.386,21.381v28.515l-58.809-1.783l0.893,11.587l59.029,70.391l2.45,171.967h116.725V317.841l-0.89-14.257l5.346-11.582l3.564-15.149l-1.784-9.801l5.348-8.021l-0.892-7.126l-29.403-9.802
				l0.892-3.562l-3.564-9.804l3.564-13.366l5.345-8.018l6.237-14.257l4.456-8.91z"/>
			<text transform="matrix(1 0 0 1 674.0122 314.6685)"><tspan x="0" y="0" style="fill:#000000;stroke:none;">979</tspan></text>
		</g>
		<g>
			<path d="M277.721,171.714l-10.247,55.911l1.113,20.049l4.455,14.477l-5.568,24.505L251.88,302.25l-0.881,24.51l-0.232-0.008l211.618-1.113l-4.453,109.149l55.689-1.111l0.224,91.773l5.346,0.892l110.486-0.892l-2.45-171.967l-59.029-70.391h-81.976l-0.445-86.655
				l-72.397-2.227l-0.222-18.043l-135.437-4.454z"/>
			<text transform="matrix(1 0 0 1 386.6558 270.1177)"><tspan x="0" y="0" style="fill:#000000;stroke:none;">977</tspan></text>
		</g>
		<g>
			<path d="M385.534,63.005l3.567-1.778l5.344,0.887l5.348,3.568l5.344,1.779l23.169-5.348l8.019-5.343l7.128-1.783l6.237-2.671l13.365-2.677l3.564-0.892l12.475-1.778l5.345-2.678l5.346-5.34h4.456l5.348,1.778l6.236-0.892l4.454-1.779l6.236-0.892h8.021
				l7.129,0.892l10.693-4.455l6.236-4.455l4.454-0.893l96.678-0.443l36.087-1.34l7.103,0.545l8.044,0.347l54.354,0.892l14.255,18.713l3.566,5.347l4.454-3.568l4.456,4.456l8.018,1.784l10.69,21.383l-19.601,37.427v5.345l-9.801,22.278l-12.474,30.293l-5.349,8.018
				l-8.909,4.456l-44.999,20.046l-11.136,18.265l-40.986,0.895l-21.386,21.381v28.515l-58.809-1.783l0.893,11.587h-81.976l-0.445-86.655l-72.397-2.227l-0.222-18.043L398.9,98.425l15.594-8.91l-28.959-26.51z"/>
			<text transform="matrix(1 0 0 1 582.6821 129.7813)"><tspan x="0" y="0" style="fill:#000000;stroke:none;">978</tspan></text>
		</g>
		<g>
			<path d="M222.977,402.669l19.994-6.863l6.683-31.185l1.345-37.862l-0.232-0.008l211.618-1.113l-4.453,109.149l55.689-1.111l0.224,91.773h-63.264l-88.211-1.78l-57.917,2.672h-81.976l0.446-122.739l0.055-0.933z"/>
			<text transform="matrix(1 0 0 1 355.4697 439.4126)"><tspan x="0" y="0" style="fill:#000000;stroke:none;">976</tspan></text>
		</g>
		<g>
			<path d="M222.977,402.669l-93.613,32.118l1.115,26.73l-67.941,4.457l-7.798,1.113l-5.568,16.708l18.934,2.227l1.115,40.318h29.404h29.404h94.449l0.5-123.672z"/>
			<text transform="matrix(1 0 0 1 150.5327 488.4224)"><tspan x="0" y="0" style="fill:#000000;stroke:none;">975</tspan></text>
		</g>
	</g>
</svg>
