<?xml version="1.0" encoding="iso-8859-1"?>
<!DOCTYPE svg PUBLIC "-//W3C//DTD SVG 20000303 Stylable//EN"   "http://www.w3.org/TR/2000/03/WD-SVG-20000303/DTD/svg-20000303-stylable.dtd">
<!-- Generator: Adobe Illustrator 9.0, SVG Export Plug-In  -->
<svg  width="985.278pt" height="1195.623pt" viewBox="0 0 985.278 1195.623" xml:space="preserve">
	<g id="Layer_x0020_1" style="fill-rule:nonzero;clip-rule:nonzero;fill:#FFFFFF;stroke:#000000;stroke-width:0.25;stroke-miterlimit:4; font-family:'ArialMT'; font-size:12;">
		<g style="stroke-miterlimit:1;">
			<g>
				<g>
					<path d="M594.253,715.565l33.504,22.248l14.684-5.039l-0.053-5.713l14.848,4.963l0.34,0.275l5.613-0.545l-6.006,9.797l5.104,7.078l2.777,22.723l16.324-4.559l6.012-1.84l9.41-58.166l-3.234-5.238l-19.781-2.994l-1.02,16.125l-15.023,0.949l-2.736,8.432
						l-37.236-15.439l-13.447-11.848l-10.078,18.791z"/>
					<text transform="matrix(1 0 0 1 658.7031 731.6729)"><tspan x="0" y="0" style="fill:#000000;stroke:none;">94526</tspan></text>
				</g>
				<g>
					<path d="M671.579,599.503l-13.324,9.182l0.059,5.719l-6.176-0.205l0.059,4.283l-13.723,2.314l3.516,7.412l3.967-0.064l-1.02,5.174l-6.463-2.719l-0.117,5.098l-11.168,10.406l-15.475,15.375l3.287,2.859l-5.332,11.566l16.219,11.156l9.92-6.463l23.186,14.285
						l14.801,3.674l19.781,2.994l3.234,5.238l-9.41,58.166l20.297-5.918l55.049-16.125l-6.064-19.318l11.051-12.586l2.555-14.355l14.906-6.668l1.699-6.803l-3.059-12.246l-25.623,5.039l-16.271-7.219l6.914-18.158l-8.842-7.008l-29.596-10.611l-0.223,0.07
						l-3.914-5.52l9.691-7.412l-1.529-10.271l-22.049-3.879l-0.738,11.021l-9.639,0.34l-10.436-17.824z"/>
					<text transform="matrix(1 0 0 1 681.6016 685.7354)"><tspan x="0" y="0" style="fill:#000000;stroke:none;">94517</tspan></text>
				</g>
				<g>
					<path d="M625.888,687.06l-4.084,11.836l-12.475-6.527l-4.998,4.406l13.447,11.848l37.236,15.439l2.736-8.432l15.023-0.949l1.02-16.125l-14.801-3.674l-23.186-14.285l-9.92,6.463z M640.97,702.505l-12.703-4.219l5.842-3.609l-4.646-1.289l10.752-1.301
						l3.533,4.289l-2.777,6.129z"/>
					<text transform="matrix(1 0 0 1 641.8809 711.833)"><tspan x="0" y="0" style="fill:#000000;stroke:none;">94506</tspan></text>
				</g>
				<g>
					<path d="M92.916,372.279l0.618,4.966l-23.895,6.838l-2.514,12.715l-3.621,1.005v-13.052l9.621-9.885l-11.276,0.132l-11.566,4.356l-4.479,7.55l9.299,15.375l8.9-1.225l3.401,4.219l-0.114,0.407l0.114,0.275l3.006,0.067l-0.17-0.545l2.042-2.927l0.905-0.135
						l3.63-2.994l10.866,2.824l0.595,0.604l1.157,17.373l22.696,4.005l13.213,6.829l-1.207,10.582l4.043,1.187l-2.212,9.592l6.747,3.606l-2.042,5.511l-11.282,16.192l-10.436-0.973l29.276,35.821l-3.141,4.708l10.096,14.854l5.432,0.592l-1.28-9.519l12.636,13.6
						l7.304-3.366l1.365-11.634l16.611,7.008l9.24-3.946l13.55-18.571l8.051-1.359l0.284-12.111l-9.923-9.935l0.17-8.912l-8.956,0.067l6.009-13.875l9.296-7.146l14.118,6.056l43.028,5.648l-0.17-0.478l3.176-15.715l-14.174-26.057l-29.537-22.313l-18.709-18.642
						l-2.153,3.196l-13.21-8.229l-3.516-16.67l-10.204,1.837l-1.644,7.893l-21.316-1.497l-10.374,11.566l-44.602-4.863l-6.935-0.445l-0.791-4.556l-5.048,2.517z"/>
					<text transform="matrix(1 0 0 1 143.7871 451.8262)"><tspan x="0" y="0" style="fill:#000000;stroke:none;">94952</tspan></text>
				</g>
				<g>
					<path d="M385.624,5.658l16.893,26.599l-3.346,10.137l-10.544-1.292l-8.106,12.381l5.329,8.777l-7.315,3.334l-2.833,4.421l3.97,8.777l5.839-1.362l7.087,14.897l-2.947,5.854l3.059,5.851l41.672,37.69l-2.836,3.196l10.772,3.876l-4.081,2.997l5.725,0.952
						l-1.986,6.938l6.747,2.722l1.304-3.334l0.17,8.367l-16.893,4.901l28.688,44.558l18.598,4.014l9.463,9.047l2.268,12.656l-9.41-3.064l-6.861,11.502l-15.135-8.845l-14.798,2.789l2.268,4.831l-3.457,7.005l-24.437-3.876l-17.232,9.387l-19.163-5.851l4.025,12.041
						l-8.106,3.879l-9.583-3.129l-4.591,12.448l-30.557-2.856l5.156,1.225l1.702,6.598l-9.979,12.586l15.138,16.192l13.04,14.561l-5.499,7.412l18.369,15.58l12.416,1.157l-1.532,5.988l5.215,3.536l-2.153,4.491l13.664,23.063l16.043,12.176l9.469,1.157l3.401-7.688
						l4.137,13.471l6.577,2.244l1.983,6.601l-3.062,6.598l5.672,13.333l-6.182-0.135l2.438,7.348l31.125,12.108l12.363-14.288l13.658,1.292l5.273-1.834l0.791-7.617l-10.711-17.145l9.809-1.362l1.078-3.879l-13.324-5.306l2.549-5.851l13.553,0.814l-8.73-15.167
						l4.137-15.105l2.156,0.272l55.898-0.067l16.605-0.07l1.934-9.319l-14.004-34.629l-22.852-32.927l13.102-57.281l-20.473-65.376l-6.855-10.954l-9.58,4.081l-1.137-7.008l5.221-3.946l-2.156-4.761l-1.875-8.777l-8.502-1.225l-8.678-8.505l-2.203-13.195
						l-12.305-7.485l-1.307-18.161L472.478,74.23l-5.215-23.265L450.991,16.68l-15.536,0.272l-4.931-4.629l-14.684,7.146L395.884,8.107l-5.613-8.027l-4.646,5.578z M444.47,401.327l-2.892-21.155l18.144-6.94l9.463,8.707l-3.281,4.286l5.666,1.09l-4.254,2.789
						l9.697-0.205l-3.914,8.03l-28.629,3.398z M398.605,331.732l-2.892-9.252l14.344-4.696l-17.01-17.142l5.613-2.927l15.193,5.036l-0.17,18.639l-8.842,5.171l-3.064-3.606l-3.173,8.777z"/>
					<text transform="matrix(1 0 0 1 499.4531 289.1758)"><tspan x="0" y="0" style="fill:#000000;stroke:none;">94558</tspan></text>
				</g>
				<g>
					<path d="M385.946,145.765l-3.782-5.271l-2.947,5.783l4.195,2.177l2.396-2.373l-0.981,2.306l-9.976,1.972l3.571,17.077l-8.335,2.177l-2.552,8.777l-5.78,0.68l14.455,21.565l-12.246,2.927l-8.9,8.505l-9.185-4.219l-1.359,16.395l-8.279-0.407l-4.535-12.108
						l-6.009-3.337l-34.298,19.321l9.92,3.741l4.594,2.859l-1.418,8.232l6.123,4.216l-5.273,3.674l8.619,18.029l4.931-0.885l8.505,4.354l-1.986,4.626l9.867,2.314l30.557,2.856l4.591-12.448l9.583,3.129l8.106-3.879l-4.025-12.041l19.163,5.851l17.232-9.387
						l24.437,3.876l3.457-7.005l-2.268-4.831l14.798-2.789l15.135,8.845l6.861-11.502l9.41,3.064l-2.268-12.656l-9.463-9.047l-18.598-4.014l-28.688-44.558l16.893-4.901l-15.419-0.612l-22.679-18.642l-13.491,2.587l-11.227-8.367l-1.433,3.363z"/>
					<text transform="matrix(1 0 0 1 392.2061 216.9258)"><tspan x="0" y="0" style="fill:#000000;stroke:none;">94574</tspan></text>
				</g>
				<g>
					<path d="M332.342,626.948l2.376,0.023l-0.062-0.123l-0.284-0.34l0.056-0.814h-0.454l-0.226,0.07l-0.226,0.135l-0.284,0.07l-0.454,0.27l-0.396,0.545l-0.047,0.164z"/>
					<text transform="matrix(1 0 0 1 334.6416 626.1748)"><tspan x="0" y="0" style="fill:#000000;stroke:none;">94974</tspan></text>
				</g>
				<g>
					<path d="M264.979,546.37l0.34,9.117h-3.686l-1.131,5.713l4.761,13.131l1.588-1.359l0.114-0.132l9.24-4.767l7.711,3.943l14.227,20.613l14.063,4.424l16.497-8.3l24.888,1.02l-1.248-3.264l-23.074-9.729l4.254-21.498l-10.658,2.587l-3.744-5.578l-0.281,9.656
						l-37.986-7.345l-15.873-8.232z M237.824,572.699l11.792-3.812l15.193,5.716l0.533,0.407l0.545,10.342l-5.953-1.359l-2.836,6.665l-22.506-1.837l3.231-16.122z"/>
					<text transform="matrix(1 0 0 1 289.4102 575.2188)"><tspan x="0" y="0" style="fill:#000000;stroke:none;">94973</tspan></text>
				</g>
				<g>
					<path d="M88.211,367.448l-4.025,7.143l-11.06,0.275l-9.621,9.885v13.052l3.621-1.005l2.514-12.715l23.895-6.838l-0.618-4.966l-4.705-4.831z"/>
					<text transform="matrix(1 0 0 1 59.4561 386.6758)"><tspan x="0" y="0" style="fill:#000000;stroke:none;">94972</tspan></text>
				</g>
				<g>
					<path d="M228.13,650.532l18.539,4.488l12.132,10.816l-5.045-9.117l1.075-8.168l-9.75,4.289l-16.951-2.309z"/>
					<text transform="matrix(1 0 0 1 224.3506 659.6982)"><tspan x="0" y="0" style="fill:#000000;stroke:none;">94970</tspan></text>
				</g>
				<g>
					<path d="M323.315,670.255l8.109,38.713l11.792-2.314l3.797-7.758l-3.741-15.17l-19.957-13.471z"/>
					<text transform="matrix(1 0 0 1 318.4844 693.1182)"><tspan x="0" y="0" style="fill:#000000;stroke:none;">94965</tspan></text>
				</g>
				<g>
					<path d="M329.438,626.919l7.77,4.084l5.953-3.943l-8.443-0.088l-2.376-0.023l-2.903-0.029z"/>
					<text transform="matrix(1 0 0 1 337.3018 634.6768)"><tspan x="0" y="0" style="fill:#000000;stroke:none;">94964</tspan></text>
				</g>
				<g>
					<path d="M229.653,568.814l0.97,6.129l-7.028,3.062l6.973,3.401l-1.588,4.286l5.613,3.129l3.231-16.122l-8.171-3.885z"/>
					<text transform="matrix(1 0 0 1 216.4551 586.6768)"><tspan x="0" y="0" style="fill:#000000;stroke:none;">94963</tspan></text>
				</g>
				<g>
					<path d="M266.852,572.972l0.164,0.214l5.73,8.086l9.923,3.401l2.892,12.926l-4.14,6.188l3.741,5.104l16.556-1.975l0.68-5.643l-6.123,0.334l1.869-8.977l-14.227-20.613l-7.711-3.943l-9.24,4.767l-0.114,0.132z"/>
					<text transform="matrix(1 0 0 1 267.9414 591.9883)"><tspan x="0" y="0" style="fill:#000000;stroke:none;">94960</tspan></text>
				</g>
				<g>
					<path d="M285.162,608.89l3.346,9.053l8.505,1.154l0.34-4.693l10.09-1.564l-5.725-5.924l-16.556,1.975z"/>
					<text transform="matrix(1 0 0 1 279.6221 613.5127)"><tspan x="0" y="0" style="fill:#000000;stroke:none;">94957</tspan></text>
				</g>
				<g>
					<path d="M145.188,532.138l-5.063,1.512l2.818,4.301l-10.494,2.766l8.956,2.763l-4.389,4.078l-5.209-4.248l-0.621-8.707l-4.708-0.817l1.928-8.297l-7.427-2.792l-3.401,3.334l-1.304-11.089l-3.668-1.521l-15.987,12.246l-18.686,2.15l-12.284,13.204l-1.254,32.209
						l19.28-8.897l43.937,11.836l33.167,26.06l9.296,20.883l26.42,15.445l15.762-13.945l-2.212-3.475l10.603-11.361l-14.684-18.776l2.833-4.761l-4.649-3.132l4.084-4.488l-11.338-7.755l-6.521-8.162l-9.24-0.067l-1.447-4.98l-6.032,4.254l-0.255,11.364l-6.325-13.84
						l-9.354-15.17l4.257-7.45l-12.636-13.6l1.28,9.519l-5.432-0.592z"/>
					<text transform="matrix(1 0 0 1 136.9561 575.9258)"><tspan x="0" y="0" style="fill:#000000;stroke:none;">94956</tspan></text>
				</g>
				<g>
					<path d="M279.897,359.89l-16.38,7.811l1.037,4.339l-5.3-2.341l-7.808,1.852l-7.251,10.526l4.74,2.341l-2.229,4.688l4.74,5.019l-15.006-4.354l-0.205,2.871l-0.686,6.501l-2.206-1.652l-1.928,2.684l29.537,22.313l14.174,26.057l-3.176,15.715l0.17,0.478
						l0.229-0.208l5.839-4.896l14.854,5.309l1.928,7.957l6.349,0.202l-3.346,6.059l7.6,0.952l13.831,12.243l6.747,15.038l3.006,2.312l4.365-4.421l-4.084,4.693l6.521,1.834l19.898-4.828l3.457-5.918h7.77l-3.914-7.143l5.842-3.472l-8.505-6.328l1.644-8.704
						l-41.104-26.602l-7.937-18.234l13.21-3.738l4.14-7.28l-6.976-1.292l-28.345-24.223l2.947-4.896l-8.9-16.6l0.114-7.28l-9.404-5.382z"/>
					<text transform="matrix(1 0 0 1 273.2061 430.6758)"><tspan x="0" y="0" style="fill:#000000;stroke:none;">94954</tspan></text>
				</g>
				<g>
					<path d="M246.215,358.208l-20.522-3.753l0.34,9.932h4.421l-2.268,9.932h-7.538l-7.939,7.213l18.709,18.642l1.928-2.684l2.206,1.652l0.686-6.501l0.205-2.871l15.006,4.354l-4.74-5.019l2.229-4.688l-4.74-2.341l7.251-10.526l7.808-1.852l5.3,2.341l-1.037-4.339
						l16.38-7.811l-5.865-2.549l3.902-7.389l-8.361-2.007l-8.367,6.357l-10.597-3.012l-4.395,6.917z"/>
					<text transform="matrix(1 0 0 1 230.4561 367.4258)"><tspan x="0" y="0" style="fill:#000000;stroke:none;">94951</tspan></text>
				</g>
				<g>
					<path d="M161.975,536.811l-4.257,7.45l9.354,15.17l6.325,13.84l0.255-11.364l6.032-4.254l-2.353-1.008l6.747-6.056l-6.917-2.927l-0.454-10.271l-7.43-3.946l-7.304,3.366z"/>
					<text transform="matrix(1 0 0 1 154.2168 556.8613)"><tspan x="0" y="0" style="fill:#000000;stroke:none;">94950</tspan></text>
				</g>
				<g>
					<path d="M304.779,533.649l2.153,7.415l-18.085-4.354l-4.195,5.235l-3.346-11.971l-9.58,6.53l4.081,5.716l-5.73,4.963l-1.254-1.146l-0.557-0.281l-0.773,0.8l-1.922-0.542l-0.138,0.082l-0.454,0.272l15.873,8.232l37.986,7.345l0.281-9.656l3.744,5.578
						l10.658-2.587l6.574-16.192l-4.137-15.1l-7.482,5.985l-6.747-4.286l-6.636,2.789l0.683,3.876l-10.998,1.295z"/>
					<text transform="matrix(1 0 0 1 285.8594 553.9756)"><tspan x="0" y="0" style="fill:#000000;stroke:none;">94949</tspan></text>
				</g>
				<g>
					<path d="M218.096,504.941l4.14,5.44l13.717,1.02l2.326,13.201l20.013,3.398l13.436,8.505l9.58-6.53l3.346,11.971l4.195-5.235l18.085,4.354l-2.153-7.415l-13.948-17.552l-13.151-7.075l-17.915-5.036l-22.395,4.219l-18.99-15.375l-0.284,12.111z"/>
					<text transform="matrix(1 0 0 1 245.834 520.8936)"><tspan x="0" y="0" style="fill:#000000;stroke:none;">94947</tspan></text>
				</g>
				<g>
					<path d="M169.278,533.444l7.43,3.946l0.454,10.271l6.917,2.927l-6.747,6.056l2.353,1.008l1.447,4.98l9.24,0.067l6.521,8.162l11.168-0.545l6.293-3.196l15.299,1.693l8.171,3.885l11.792-3.812l15.193,5.716l0.454-0.272l-4.761-13.131l1.131-5.713h3.686
						l-0.34-9.117l0.454-0.272l0.138-0.082l1.922,0.542l0.773-0.8l0.557,0.281l1.254,1.146l5.73-4.963l-4.081-5.716l-13.436-8.505l-20.013-3.398l-2.326-13.201l-13.717-1.02l-4.14-5.44l-8.051,1.359l-13.55,18.571l-9.24,3.946l-16.611-7.008l-1.365,11.634z"/>
					<text transform="matrix(1 0 0 1 205.8613 543.2764)"><tspan x="0" y="0" style="fill:#000000;stroke:none;">94946</tspan></text>
				</g>
				<g>
					<path d="M272.122,464.734l-43.028-5.648l-14.118-6.056l-9.296,7.146l-6.009,13.875l8.956-0.067l-0.17,8.912l9.923,9.935l18.99,15.375l22.395-4.219l17.915,5.036l13.151,7.075l13.948,17.552l10.998-1.295l-0.683-3.876l6.636-2.789l6.747,4.286l7.482-5.985
						l0.964-7.485l-10.772-9.114l-6.747-15.038l-13.831-12.243l-7.6-0.952l3.346-6.059l-6.349-0.202l-1.928-7.957l-14.854-5.309l-5.839,4.896l-0.229,0.208z"/>
					<text transform="matrix(1 0 0 1 258.1143 490.3467)"><tspan x="0" y="0" style="fill:#000000;stroke:none;">94945</tspan></text>
				</g>
				<g>
					<path d="M291.965,632.978l-18.366,7.816l-8.051,9.117l-6.973-6.258l-3.744,4.898l-1.075,8.168l5.045,9.117l-0.226,3.328l14.171,3.539l7.937,9.598l15.252,6.598l17.745,24.621l3.741-6.258l13.77,3.258l-0.05-0.598l0.284-0.955l-8.109-38.713l-6.633-11.701
						l15.99,13.061l-2.552-13.4l-0.398-0.475l-3.003-4.354l2.379-3.609l-6.463,0.475l-2.438-6.188l-5.613,1.09l-6.293-5.988l-7.594-1.359l-8.733-4.828z"/>
					<text transform="matrix(1 0 0 1 279.0313 669.2529)"><tspan x="0" y="0" style="fill:#000000;stroke:none;">94941</tspan></text>
				</g>
				<g>
					<path d="M76.817,399.423l5.895,31.702l-8.845,2.042l0.229,9.047l4.195-4.081l6.633,5.988l5.783-6.19l0.255-0.173l0.141-0.167l-1.529,10.679l13.831,27.146l4.31,1.632l6.123,13.74l6.633,2.244l3.797,14.698l5.672,2.244l5.153,7.31l3.141-4.708l-29.276-35.821
						l10.436,0.973l11.282-16.192l2.042-5.511l-6.747-3.606l2.212-9.592l-4.043-1.187l1.207-10.582l-13.213-6.829l-22.696-4.005l-1.157-17.373l-0.595-0.604l-10.866-2.824z"/>
					<text transform="matrix(1 0 0 1 87.9561 443.6758)"><tspan x="0" y="0" style="fill:#000000;stroke:none;">94940</tspan></text>
				</g>
				<g>
					<path d="M300.698,637.806l7.594,1.359l11.566-10.137l-17.461-7.418l3.516,10.412l-4.764,0.955l-0.451,4.828z"/>
					<text transform="matrix(1 0 0 1 290.4561 636.9561)"><tspan x="0" y="0" style="fill:#000000;stroke:none;">94939</tspan></text>
				</g>
				<g>
					<path d="M208.062,570.317l4.251,14.221l2.382-1.77l3.967-4.017l-6.293-6.325l1.986-5.306l-6.293,3.196z"/>
					<text transform="matrix(1 0 0 1 180.2705 580.293)"><tspan x="0" y="0" style="fill:#000000;stroke:none;">94938</tspan></text>
				</g>
				<g>
					<path d="M121.038,509.837l-23.074-25.374l1.813-3.539l-13.89-20.546l-10.263-4.148l2.212-5.306l-27.779-26.807l16.102,28.166l-0.853,11.496l8.335,4.764l2.777,14.625L61.85,533.307l-22.96,54.155l-5.045,4.286l33.618,3.062l-11.057-7.688l7.989-13.893
						l1.254-32.209l12.284-13.204l18.686-2.15l15.987-12.246l3.668,1.521l1.304,11.089l3.401-3.334l7.427,2.792l-1.928,8.297l4.708,0.817l0.621,8.707l5.209,4.248l4.389-4.078l-8.956-2.763l10.494-2.766l-2.818-4.301l5.063-1.512l-10.096-14.854l-5.153-7.31
						l-8.9-0.138z"/>
					<text transform="matrix(1 0 0 1 72.8359 512.9688)"><tspan x="0" y="0" style="fill:#000000;stroke:none;">94937</tspan></text>
				</g>
				<g>
					<path d="M214.354,567.121l-1.986,5.306l6.293,6.325l-3.967,4.017l4.816,4.216l9.469-1.292l1.588-4.286l-6.973-3.401l7.028-3.062l-0.97-6.129l-15.299-1.693z"/>
					<text transform="matrix(1 0 0 1 204.4551 572.793)"><tspan x="0" y="0" style="fill:#000000;stroke:none;">94933</tspan></text>
				</g>
				<g>
					<path d="M204.262,354.657l0.114,2.52l-0.794-0.07l-9.583-2.312l-0.17,5.033l3.516,16.67l13.21,8.229l2.153-3.196l7.939-7.213h7.538l-8.786-9.524l4.591,0.955l-1.02-5.238l-7.937,4.351l-4.989-10.204l-5.443-0.135l-0.34,0.135z"/>
					<text transform="matrix(1 0 0 1 190.4561 374.9258)"><tspan x="0" y="0" style="fill:#000000;stroke:none;">94931</tspan></text>
				</g>
				<g>
					<path d="M196.894,570.862l11.338,7.755l-4.084,4.488l4.649,3.132l-2.833,4.761l14.684,18.776l37.928,33.879l6.973,6.258l8.051-9.117l18.366-7.816l-3.457-15.035l-3.346-9.053l-3.741-5.104l4.14-6.188l-2.892-12.926l-9.923-3.401l-5.73-8.086l-0.164-0.214
						l-1.588,1.359l-0.454,0.272l0.533,0.407l0.545,10.342l-5.953-1.359l-2.836,6.665l-22.506-1.837l-5.613-3.129l-9.469,1.292l-4.816-4.216l-2.382,1.77l-4.251-14.221l-11.168,0.545z"/>
					<text transform="matrix(1 0 0 1 238.2461 615.1182)"><tspan x="0" y="0" style="fill:#000000;stroke:none;">94930</tspan></text>
				</g>
				<g>
					<path d="M73.188,402.417l-0.905,0.135l-2.042,2.927l0.17,0.545l-3.006-0.067l-0.114-0.275l0.114-0.407l-3.457-3.809l-3.855,2.991l5.897,13.336l-3.176,11.906l8.276-1.702l2.777,5.171l8.845-2.042l-5.895-31.702l-3.63,2.994z"/>
					<text transform="matrix(1 0 0 1 54.7217 419.8018)"><tspan x="0" y="0" style="fill:#000000;stroke:none;">94929</tspan></text>
				</g>
				<g>
					<path d="M193.888,348.534l0.111,6.261l9.583,2.312l0.794,0.07l-0.114-2.52l0.34-0.135l5.443,0.135l4.989,10.204l7.937-4.351l1.02,5.238l-4.591-0.955l8.786,9.524l2.268-9.932h-4.421l-0.34-9.932l-0.229-14.628l5.502-0.202l-0.284-4.901h-5.159l-15.082,1.567
						l-0.621,8.502l-15.932,3.741z"/>
					<text transform="matrix(1 0 0 1 200.4561 354.4258)"><tspan x="0" y="0" style="fill:#000000;stroke:none;">94928</tspan></text>
				</g>
				<g>
					<path d="M319.858,629.028l-11.566,10.137l6.293,5.988l5.613-1.09l2.438,6.188l6.463-0.475l9.809-7.682l-6.688-1.365l-4.424-13.201l-4.31-0.34l-2.493,5.719l-1.134-3.879z"/>
					<text transform="matrix(1 0 0 1 315.1045 642.2295)"><tspan x="0" y="0" style="fill:#000000;stroke:none;">94925</tspan></text>
				</g>
				<g>
					<path d="M196.495,638.556l5.443,14.965l12.697,6.527l13.494-9.516l16.951,2.309l9.75-4.289l3.744-4.898l-37.928-33.879l-10.603,11.361l2.212,3.475l-15.762,13.945z"/>
					<text transform="matrix(1 0 0 1 206.4561 639.1729)"><tspan x="0" y="0" style="fill:#000000;stroke:none;">94924</tspan></text>
				</g>
				<g>
					<path d="M0.112,326.424l8.786,17.824l-0.454,16.33l-5.385,7.482l7.427,14.016l6.519,2.312l1.359-7.688l7.031-1.975l20.408,12.179l4.479-7.55l11.566-4.356l-0.8-2.3l-13.163,1.682l4.184-16.063h8.312l1.922-5.086l-24.188-10.702l-23.663,2.197l-3.457-6.149
						l12.624-4.351l0.841-17.065l-4.181,2.341l0.557,12.381l-10.857,3.674l-2.499-4.793l1.09-8.918l-4.444,5.637l-4.014-1.058z"/>
					<text transform="matrix(1 0 0 1 15.2061 364.9258)"><tspan x="0" y="0" style="fill:#000000;stroke:none;">94923</tspan></text>
				</g>
				<g>
					<path d="M64.694,351.859l-3.422-3.246l-0.284-14.722l-21.188-0.671l0.278-13.72l-4.184,5.019l2.221,18.009l24.188,10.702l-1.922,5.086H52.07l-4.184,16.063l13.163-1.682l0.8,2.3l11.276-0.132l11.06-0.275l4.025-7.143l6.577-11.701l-2.268-8.438l-6.633-2.789
						l-21.193,7.339z"/>
					<text transform="matrix(1 0 0 1 59.4561 365.6758)"><tspan x="0" y="0" style="fill:#000000;stroke:none;">94922</tspan></text>
				</g>
				<g>
					<path d="M329.099,649.776l-2.379,3.609l3.003,4.354l0.398,0.475l13.151,5.854l4.989,13.33l6.407,4.494l-2.777-6.938l13.605-5.449l-6.012-9.586l-15.533-7.828l1.022-7.688l-6.067-2.309l-9.809,7.682z"/>
					<text transform="matrix(1 0 0 1 331.9268 662.9971)"><tspan x="0" y="0" style="fill:#000000;stroke:none;">94920</tspan></text>
				</g>
				<g>
					<path d="M288.508,617.942l3.457,15.035l8.733,4.828l0.451-4.828l4.764-0.955l-3.516-10.412l17.461,7.418l1.134,3.879l2.493-5.719l-1.02-0.539l2.836-5.854l-17.859-7.957l-10.09,1.564l-0.34,4.693l-8.505-1.154z"/>
					<text transform="matrix(1 0 0 1 297.4551 623.5205)"><tspan x="0" y="0" style="fill:#000000;stroke:none;">94904</tspan></text>
				</g>
				<g>
					<path d="M298.144,592.63l-1.869,8.977l6.123-0.334l-0.68,5.643l5.725,5.924l17.859,7.957l-2.836,5.854l6.973,0.27l2.903,0.029l0.047-0.164l0.396-0.545l0.454-0.27l0.284-0.07l0.226-0.135l0.226-0.07h0.454l-0.056,0.814l0.284,0.34l0.062,0.123l8.443,0.088
						l-10.377-18.914l10.828-0.75l-2.438-2.18l7.995-6.598l6.12,3.879l5.388-4.354l-8.335-11.634l1.248,3.264l-24.888-1.02l-16.497,8.3l-14.063-4.424z"/>
					<text transform="matrix(1 0 0 1 308.7959 603.79)"><tspan x="0" y="0" style="fill:#000000;stroke:none;">94901</tspan></text>
				</g>
				<g>
					<path d="M436.193,580.249l-11.851,6.396l-18.369-7.008l4.025,14.153l-4.251,8.297l5.273,19.664l6.237,0.135l9.07,0.814l7.368-3.469l-2.382-8.438l8.73-17.889l-5.215-7.008l1.362-5.648z"/>
					<text transform="matrix(1 0 0 1 402.9561 604.1729)"><tspan x="0" y="0" style="fill:#000000;stroke:none;">94806</tspan></text>
				</g>
				<g>
					<path d="M426.329,622.7l-3.574,10.002l7.09,2.045l2.833-4.629l16.043,2.52l-15.023-13.406l-7.368,3.469z"/>
					<text transform="matrix(1 0 0 1 416.0576 629.4932)"><tspan x="0" y="0" style="fill:#000000;stroke:none;">94805</tspan></text>
				</g>
				<g>
					<path d="M417.259,621.886l0.68,12.926l-18.823,0.885l2.133,4.219l5.01-0.551l3.571,10.277l12.756-2.449l8.675,3.738l-2.663,4.219l2.889,4.084l5.332-1.295l2.209-0.404l2.666-4.693l-11.848-18.094l-7.09-2.045l3.574-10.002l-9.07-0.814z"/>
					<text transform="matrix(1 0 0 1 402.7061 645.4229)"><tspan x="0" y="0" style="fill:#000000;stroke:none;">94804</tspan></text>
				</g>
				<g>
					<path d="M440.046,592.905l-8.73,17.889l2.382,8.438l15.023,13.406l1.813-6.533l9.018,3.873l5.438-3.398l-5.212-7.078l2.323-2.988l14.174-4.148l0.281-4.359l-7.143-4.418h-9.07l-20.297-10.682z"/>
					<text transform="matrix(1 0 0 1 431.9561 615.9229)"><tspan x="0" y="0" style="fill:#000000;stroke:none;">94803</tspan></text>
				</g>
				<g>
					<path d="M405.748,602.087l-8.956,1.975l-8.505,16.119l-17.687-8.027l11.449,22.318l12.984,7.688l-3.176,8.162l8.561-1.16l5.273-0.469l-4.055-8.016l-0.39-0.762l-2.133-4.219l18.823-0.885l-0.68-12.926l-6.237-0.135l-5.273-19.664z"/>
					<text transform="matrix(1 0 0 1 376.7061 629.9229)"><tspan x="0" y="0" style="fill:#000000;stroke:none;">94801</tspan></text>
				</g>
				<g>
					<path d="M468.962,669.646l-5.953,4.078l0.17,4.219l12.357-1.02l-0.563-7.828l-6.012,0.551z"/>
					<text transform="matrix(1 0 0 1 452.0781 678.4229)"><tspan x="0" y="0" style="fill:#000000;stroke:none;">94720</tspan></text>
				</g>
				<g>
					<path d="M434.775,663.177l4.931,12.797l-8.162-0.211l5.895,4.09l-3.457-0.68l0.68,4.758l5.613-4.488l3.176,12.516l8.332-2.25l-5.443-20.338l-11.563-6.193z"/>
					<text transform="matrix(1 0 0 1 402.0215 682.5479)"><tspan x="0" y="0" style="fill:#000000;stroke:none;">94710</tspan></text>
				</g>
				<g>
					<path d="M458.304,666.376l0.791,7.893l3.914-0.545l5.953-4.078l-4.934,0.809l-1.248-4.893l-4.477,0.814z"/>
					<text transform="matrix(1 0 0 1 446.9512 669.4229)"><tspan x="0" y="0" style="fill:#000000;stroke:none;">94709</tspan></text>
				</g>
				<g>
					<path d="M456.206,646.442l0.164,6.797l2.159-0.328l4.251,12.65l1.248,4.893l4.934-0.809l6.012-0.551l-0.059-2.309l-1.816-4.693l-9.404-8.877l-7.488-6.773z"/>
					<text transform="matrix(1 0 0 1 447.7832 659.708)"><tspan x="0" y="0" style="fill:#000000;stroke:none;">94708</tspan></text>
				</g>
				<g>
					<path d="M456.37,653.239l-0.164-6.797l-6.152-0.996l1.339,11.643l0.05-0.029l0.006,0.105l2.83,11.391l4.025-2.18l4.477-0.814l-4.251-12.65l-2.159,0.328z"/>
					<text transform="matrix(1 0 0 1 436.3633 651.4229)"><tspan x="0" y="0" style="fill:#000000;stroke:none;">94707</tspan></text>
				</g>
				<g>
					<path d="M451.393,657.089l-12.366,0.445l-2.209,0.404l2.153,3.199l-4.195,2.039l11.563,6.193l7.201-0.34l0.738-0.475l-2.83-11.391l-0.006-0.105l-0.05,0.029z"/>
					<text transform="matrix(1 0 0 1 411.0215 664.9229)"><tspan x="0" y="0" style="fill:#000000;stroke:none;">94706</tspan></text>
				</g>
				<g>
					<path d="M462.44,683.661l0.68,4.828l4.934-0.545l13.436,0.475l7.09-4.969l3.059,2.859l1.535-1.564l-4.482-4.828l2.098-1.975l-28.348,5.719z"/>
					<text transform="matrix(1 0 0 1 460.7031 687.7979)"><tspan x="0" y="0" style="fill:#000000;stroke:none;">94705</tspan></text>
				</g>
				<g>
					<path d="M474.974,669.095l0.563,7.828l-12.357,1.02l-0.17-4.219l-3.914,0.545l3.346,9.393l28.348-5.719l-3.457-7.072l-12.416-4.084l0.059,2.309z"/>
					<text transform="matrix(1 0 0 1 469.1348 677.6025)"><tspan x="0" y="0" style="fill:#000000;stroke:none;">94704</tspan></text>
				</g>
				<g>
					<path d="M446.339,669.37l5.443,20.338l4.819,1.98l-3.062-22.658l-7.201,0.34z"/>
					<text transform="matrix(1 0 0 1 423.4639 679.0908)"><tspan x="0" y="0" style="fill:#000000;stroke:none;">94703</tspan></text>
				</g>
				<g>
					<path d="M454.278,668.556l-0.738,0.475l3.062,22.658l3.686,0.609l2.833-3.809l-0.68-4.828l-3.346-9.393l-0.791-7.893l-4.025,2.18z"/>
					<text transform="matrix(1 0 0 1 441.4146 687.8818)"><tspan x="0" y="0" style="fill:#000000;stroke:none;">94702</tspan></text>
				</g>
				<g>
					<path d="M445.434,701.96l-17.801,7.547l20.294-4.488l-2.493-3.059z"/>
					<text transform="matrix(1 0 0 1 406.0557 706.3018)"><tspan x="0" y="0" style="fill:#000000;stroke:none;">94649</tspan></text>
				</g>
				<g>
					<path d="M530.192,751.149l6.006-5.719l-2.889-3.27l-5.895,3.68l2.777,5.309z"/>
					<text transform="matrix(1 0 0 1 515.125 750.1592)"><tspan x="0" y="0" style="fill:#000000;stroke:none;">94627</tspan></text>
				</g>
				<g>
					<path d="M438.856,717.47l7.482-7.078l-3.003-1.629l-4.479,8.707z"/>
					<text transform="matrix(1 0 0 1 422.4561 715.9229)"><tspan x="0" y="0" style="fill:#000000;stroke:none;">94626</tspan></text>
				</g>
				<g>
					<path d="M425.251,717.13l-3.741,5.033l8.391-2.719l-3.855,4.354l11.112,3.539l6.633-1.635l-6.577-7.348l-11.962-1.225z"/>
					<text transform="matrix(1 0 0 1 399.0215 726.4229)"><tspan x="0" y="0" style="fill:#000000;stroke:none;">94625</tspan></text>
				</g>
				<g>
					<path d="M487.384,755.157l-1.471,5.104l0.053,13.881l-5.555,5.373l-5.725-4.764l18.598,18.305l2.039-7.963l6.182-1.834l5.496-3l-2.889-2.859l-1.078-13.125l3.064-2.449l5.098,5.238l-0.563-5.648l9.521-5.438l-4.875-7.008l-12.926-5.309l-11.455,3.809
						l1.535,3.129l-5.051,4.559z"/>
					<text transform="matrix(1 0 0 1 486.5781 758.0283)"><tspan x="0" y="0" style="fill:#000000;stroke:none;">94621</tspan></text>
				</g>
				<g>
					<path d="M495.271,732.235l8.672,10.066l3.568-3l-0.17-4.418l5.783,0.27l1.477-7.617l5.268,8.777l0.914-3.398l5.215,5.508l7.424-4.148l-0.967,3.328l7.887,5.514l-9.469-17.689l-11.795-5.578l-1.646,4.359l-3.797-2.109l-11.338-5.174l4.195,8.162l-11.221,7.148z"
						/>
					<text transform="matrix(1 0 0 1 507.8711 730.5244)"><tspan x="0" y="0" style="fill:#000000;stroke:none;">94619</tspan></text>
				</g>
				<g>
					<path d="M468.054,687.944l-2.836,10.746l5.561,1.975l20.238,1.225l-7.541-10.951l8.162-4.629l-3.059-2.859l-7.09,4.969l-13.436-0.475z"/>
					<text transform="matrix(1 0 0 1 461.8281 699.0479)"><tspan x="0" y="0" style="fill:#000000;stroke:none;">94618</tspan></text>
				</g>
				<g>
					<path d="M513.124,735.153l-5.783-0.27l0.17,4.418l7.482-1.488l-1.869-2.66z"/>
					<text transform="matrix(1 0 0 1 494.4883 740.6025)"><tspan x="0" y="0" style="fill:#000000;stroke:none;">94613</tspan></text>
				</g>
				<g>
					<path d="M458.529,711.622l-2.607,8.977l10.884,4.758l2.666-4.348l-4.195-4.424l1.758-3.064l-2.268-1.359l-6.237-0.539z"/>
					<text transform="matrix(1 0 0 1 446.0166 718.9229)"><tspan x="0" y="0" style="fill:#000000;stroke:none;">94612</tspan></text>
				</g>
				<g>
					<path d="M491.638,686.31l-8.162,4.629l7.541,10.951l-20.238-1.225l-6.012,11.496l2.268,1.359l11.848-5.848l9.979,7.482l8.221-5.783l6.92,7.617l10.201,2.52l-0.287-6.393l-5.098-3.064l0.398-11.086l-16.043-14.221l-1.535,1.564z"/>
					<text transform="matrix(1 0 0 1 484.7734 706.9229)"><tspan x="0" y="0" style="fill:#000000;stroke:none;">94611</tspan></text>
				</g>
				<g>
					<path d="M467.034,713.521l-1.758,3.064l4.195,4.424l5.502-2.109l6.234,5.373l7.652-9.117l-9.979-7.482l-11.848,5.848z"/>
					<text transform="matrix(1 0 0 1 464.8281 718.5479)"><tspan x="0" y="0" style="fill:#000000;stroke:none;">94610</tspan></text>
				</g>
				<g>
					<path d="M463.12,688.489l-2.833,3.809l-1.758,19.324l6.237,0.539l6.012-11.496l-5.561-1.975l2.836-10.746l-4.934,0.545z"/>
					<text transform="matrix(1 0 0 1 447.9707 707.3096)"><tspan x="0" y="0" style="fill:#000000;stroke:none;">94609</tspan></text>
				</g>
				<g>
					<path d="M451.782,689.708l-8.332,2.25l1.699,4.758l-7.313,2.449l7.597,2.795l2.493,3.059l10.603,6.604l1.758-19.324l-3.686-0.609l-4.819-1.98z"/>
					<text transform="matrix(1 0 0 1 434.5068 701.7939)"><tspan x="0" y="0" style="fill:#000000;stroke:none;">94608</tspan></text>
				</g>
				<g>
					<path d="M427.633,709.507l11.622,1.635l-14.004,5.988l11.962,1.225l6.577,7.348l-6.633,1.635l-0.17,1.424l27.211,1.564l2.607-4.969l-10.884-4.758l2.607-8.977l-10.603-6.604l-20.294,4.488z M438.856,717.47l4.479-8.707l3.003,1.629l-7.482,7.078z"/>
					<text transform="matrix(1 0 0 1 431.9746 728.6787)"><tspan x="0" y="0" style="fill:#000000;stroke:none;">94607</tspan></text>
				</g>
				<g>
					<path d="M469.472,721.009l-2.666,4.348l-2.607,4.969l9.639,3l6.516,9.996l-0.504-6.873l6.176-9.047l-4.816-3.129l-6.234-5.373l-5.502,2.109z"/>
					<text transform="matrix(1 0 0 1 458.4297 734.6143)"><tspan x="0" y="0" style="fill:#000000;stroke:none;">94606</tspan></text>
				</g>
				<g>
					<path d="M507.511,739.302l-3.568,3l-1.588,1.359l12.926,5.309l4.875,7.008l9.58,8.777l12.475,8.156l2.607-0.27l2.156-2.109l1.863-11.508l-0.24-0.059l-8.256-15.85l-7.887-5.514l0.967-3.328l-7.424,4.148l-5.215-5.508l-0.914,3.398l-5.268-8.777l-1.477,7.617
						l1.869,2.66l-7.482,1.488z M530.192,751.149l-2.777-5.309l5.895-3.68l2.889,3.27l-6.006,5.719z"/>
					<text transform="matrix(1 0 0 1 519.2031 760.1729)"><tspan x="0" y="0" style="fill:#000000;stroke:none;">94605</tspan></text>
				</g>
				<g>
					<path d="M520.155,755.978l-9.521,5.438l0.563,5.648l-5.098-5.238l-3.064,2.449l1.078,13.125l25.623-12.645l-9.58-8.777z"/>
					<text transform="matrix(1 0 0 1 503.0781 769.2783)"><tspan x="0" y="0" style="fill:#000000;stroke:none;">94603</tspan></text>
				</g>
				<g>
					<path d="M488.86,715.155l-7.652,9.117l4.816,3.129l9.246,4.834l11.221-7.148l-4.195-8.162l11.338,5.174l0.568-2.59l-10.201-2.52l-6.92-7.617l-8.221,5.783z"/>
					<text transform="matrix(1 0 0 1 480.9531 728.6729)"><tspan x="0" y="0" style="fill:#000000;stroke:none;">94602</tspan></text>
				</g>
				<g>
					<path d="M486.024,727.401l-6.176,9.047l0.504,6.873l5.332,3.539l1.699,8.297l5.051-4.559l-1.535-3.129l11.455-3.809l1.588-1.359l-8.672-10.066l-9.246-4.834z"/>
					<text transform="matrix(1 0 0 1 475.2109 744.7861)"><tspan x="0" y="0" style="fill:#000000;stroke:none;">94601</tspan></text>
				</g>
				<g>
					<path d="M398.605,331.732l3.173-8.777l3.064,3.606l8.842-5.171l0.17-18.639l-15.193-5.036l-5.613,2.927l17.01,17.142l-14.344,4.696l2.892,9.252z"/>
					<text transform="matrix(1 0 0 1 389.7695 315.7295)"><tspan x="0" y="0" style="fill:#000000;stroke:none;">94599</tspan></text>
				</g>
				<g>
					<path d="M587.562,633.112l-4.248,11.156l2.83,11.561l9.24,1.23l-0.053-3.27l16.383,7.688l15.475-15.375l-11.449-18.979l-2.607-2.314l-14.004,10.277l-5.385-5.789l-6.182,3.814z"/>
					<text transform="matrix(1 0 0 1 591.2031 649.1729)"><tspan x="0" y="0" style="fill:#000000;stroke:none;">94598</tspan></text>
				</g>
				<g>
					<path d="M584.444,628.688H580.7l0.059,6.059l-8.332-1.23l0.111,4.828l-8.221,0.68l-6.744,5.648l0.451,4.488l10.43,2.66l-1.641,6.117l13.605,4.834l10.658,13.881l18.592-0.75l5.332-11.566l-3.287-2.859l-16.383-7.688l0.053,3.27l-9.24-1.23l-2.83-11.561
						l4.248-11.156l-3.117-4.424z"/>
					<text transform="matrix(1 0 0 1 578.4531 669.7979)"><tspan x="0" y="0" style="fill:#000000;stroke:none;">94596</tspan></text>
				</g>
				<g>
					<path d="M566.813,657.938l-1.418,8.508l-2.777-0.68l0.908,10.207l6.064,10.137l12.926,9.182l1.477-15.65l7.084-2.988l-10.658-13.881l-13.605-4.834z"/>
					<text transform="matrix(1 0 0 1 560.7031 678.4229)"><tspan x="0" y="0" style="fill:#000000;stroke:none;">94595</tspan></text>
				</g>
				<g>
					<path d="M500.087,473.781l-15.082,29.663l-3.006,29.115l4.424,11.294l10.43-1.975l6.809,5.104l-0.234-25.104l13.4-30.691l-6.82-11.215l-7.939,1.225l1.934-5.168l-3.914-2.247z"/>
					<text transform="matrix(1 0 0 1 482.9531 502.4258)"><tspan x="0" y="0" style="fill:#000000;stroke:none;">94591</tspan></text>
				</g>
				<g>
					<path d="M457.735,505.281v5.646l28.688,32.927l-4.424-11.294l3.006-29.115l-27.27,1.837z"/>
					<text transform="matrix(1 0 0 1 455.7031 514.1758)"><tspan x="0" y="0" style="fill:#000000;stroke:none;">94590</tspan></text>
				</g>
				<g>
					<path d="M441.294,446.365l-2.438-7.348l6.182,0.135l-5.672-13.333l3.062-6.598l-1.983-6.601l-6.577-2.244l-4.137-13.471l-3.401,7.688l-9.469-1.157l-16.043-12.176l-13.664-23.063l2.153-4.491l-5.215-3.536l1.532-5.988l-12.416-1.157l17.291,27.554l-4.989,2.991
						l-0.624,13.061l4.195,6.261l5.613-0.68l-1.418,8.64l8.616,10.887l4.424-1.702l4.761,25.512l4.875,5.716l-0.34,5.985l-5.555-2.247l2.039,8.232l-6.688,1.5l0.454,15.375l-22.336,0.952l-0.636,1.292l31.248,12.381l25.397,18.507l21.431,28.843l13.269-5.646
						l-16.5-25.512v-5.646l27.27-1.837l15.082-29.663l29.197-27.211l-30.844-1.093l-13.658-1.292l-12.363,14.288l-31.125-12.108z"/>
					<text transform="matrix(1 0 0 1 425.4561 480.4258)"><tspan x="0" y="0" style="fill:#000000;stroke:none;">94589</tspan></text>
				</g>
				<g>
					<path d="M687.399,764.954l-6.012,1.84l5.502,8.977l-4.195,15.445l-38.666,2.039l-4.875,0.07l-4.137,0.949l8.9,1.43l-1.869,4.828l11.73,0.275l7.313,14.35l20.977-15.029l17.977-3.604l13.775-5.039l-0.398-13.535l-7.26-9.047l1.535-9.867l-20.297,5.918z"/>
					<text transform="matrix(1 0 0 1 681.7363 790.1064)"><tspan x="0" y="0" style="fill:#000000;stroke:none;">94588</tspan></text>
				</g>
				<g>
					<path d="M611.146,842.31l-7.031-4.764l-5.895,3.469l6.914,12.791l-2.209,2.584l-12.926-4.084l-0.281,3.949l-9.07,1.359l-6.92-6.258l-9.75,2.449l-1.588,6.053l-10.77,0.814l-3.627-11.631l-4.313-1.424l-11.73,11.156l-0.34,13.395l9.182,12.387l2.83-4.148
						l9.076,1.154l0.393,5.033l17.578-6.328l5.045,3.539l3.404-4.758l-1.137-9.527l4.313-3.674l3,5.033l9.809-1.43l4.365,5.719l10.096-0.615l15.076-17.209l13.436,9.521l6.75-4.963l0.34-20.549l-12.188-10.342l-8.051,4.828l-13.781,6.469z"/>
					<text transform="matrix(1 0 0 1 606.2031 852.1729)"><tspan x="0" y="0" style="fill:#000000;stroke:none;">94587</tspan></text>
				</g>
				<g>
					<path d="M665.233,864.347l18.65,10.822l-21.434,14.895l14.402,5.309l4.137,10.816l-2.941,12.381l2.889,14.08l8.279,7.148l24.885-0.82l3.967-11.631l-16.893-13.881l-7.541-25.512l14.572-2.994l-17.52-9.111l-3.287-8.168l-7.201-2.449l4.705-8.771l-9.012-21.568
						l-3.064-2.719l-9.639,5.777l-7.764-11.631l-11.795-0.475l13.723,21.498l15.645,14.689l-7.764,2.314z"/>
					<text transform="matrix(1 0 0 1 679.7031 930.7979)"><tspan x="0" y="0" style="fill:#000000;stroke:none;">94586</tspan></text>
				</g>
				<g>
					<path d="M505.021,373.299l-2.156-0.272l-4.137,15.105l8.73,15.167l-13.553-0.814l-2.549,5.851l13.324,5.306l-1.078,3.879l-9.809,1.362l10.711,17.145l-0.791,7.617l-5.273,1.834l30.844,1.093l-29.197,27.211l3.914,2.247l-1.934,5.168l7.939-1.225l6.82,11.215
						l19.26-32.643l6.352,12.788h7.313l1.02,11.156l4.986-2.517l10.26,5.241l-6.176,8.977l6.803,1.16l1.588,8.432l7.594,3.812l5.842-10.682l26.59,0.478l5.385,4.626l1.301-9.39l8.051,9.999l-2.66,0.478l3.059,7.893l-16.611,16.125l15.65,2.719l7.371,7.96
						l4.646-4.693l5.725-0.067l-1.816,3.741l3.293,1.09l22.559-4.898l-3.967,14.692l-8.619,3.062l7.547,6.261l17.684-0.612l29.256-10.342l2.268-13.403l-9.188-0.34l-11.566-34.626l-18.363-0.612l-3.006-6.94l22.963-1.087l9.861-11.566l10.998,1.564l-0.621-16.125
						l14.795,0.138l0.34-39.595l-62.361-0.545v-12.855l-4.764,7.755l-20.918,8.777l-5.045-3.949l-3.117-14.692l-7.26-0.135l-0.111,8.092l-9.926-0.067l0.627-7.957l-22.506,14.42l-0.34,4.081l-20.127,6.123l-2.209-9.659l6.404-2.924l0.393-0.612l-4.588-14.833
						l-15.193-11.089l9.58-14.285l-2.209-5.851l-55.898,0.067z"/>
					<text transform="matrix(1 0 0 1 591.291 468.5107)"><tspan x="0" y="0" style="fill:#000000;stroke:none;">94585</tspan></text>
				</g>
				<g>
					<path d="M588.528,710.192l-14.801,1.904l-6.234,11.701l20.977,1.629l17.801,12.176l9.24,11.566l-7.939,10.752l31.922,18.779l25.57-7.348l-2.777-22.723l-5.104-7.078l6.006-9.797l-5.613,0.545l-0.34-0.275l-14.848-4.963l0.053,5.713l-14.684,5.039
						l-33.504-22.248l-5.725-5.373z"/>
					<text transform="matrix(1 0 0 1 618.9531 751.9229)"><tspan x="0" y="0" style="fill:#000000;stroke:none;">94583</tspan></text>
				</g>
				<g>
					<path d="M540.622,798.563l-0.117,4.354l-18.48,9.521l3.293,9.387l10.652-0.744l-3.059-3.943l13.096-3.949l-1.811-3.398l7.313-1.09l-5.162-5.379l6.404-0.404l-3.627-2.924l4.307-1.225l-9.012-7.078l-3.797,6.873z"/>
					<text transform="matrix(1 0 0 1 506.8643 816.8896)"><tspan x="0" y="0" style="fill:#000000;stroke:none;">94580</tspan></text>
				</g>
				<g>
					<path d="M529.853,793.595l-6.691-5.508l-1.137,11.426l-12.07-0.949l12.07,13.875l18.48-9.521l0.117-4.354l-10.77-4.969z"/>
					<text transform="matrix(1 0 0 1 511.3281 806.6729)"><tspan x="0" y="0" style="fill:#000000;stroke:none;">94579</tspan></text>
				</g>
				<g>
					<path d="M542.21,772.911l1.646,8.373l-6.352-3.744l-5.443,3.27l-2.268,2.238l4.477,7.963l-4.418,2.584l10.77,4.969l3.797-6.873l9.012,7.078l2.777-2.314l3.064-3.129l-4.025-2.379l-0.961-9.258l-9.469-9.047l-2.607,0.27z"/>
					<text transform="matrix(1 0 0 1 527.8516 789.2119)"><tspan x="0" y="0" style="fill:#000000;stroke:none;">94578</tspan></text>
				</g>
				<g>
					<path d="M529.735,764.755l-25.623,12.645l2.889,2.859l-5.496,3l2.836-0.615l-4.195,2.514l1.922,4.969l4.822,1.91l-3.176,3.598l3.457-2.039l0.65,4.441l2.133,0.527l12.07,0.949l1.137-11.426l6.691,5.508l4.418-2.584l-4.477-7.963l2.268-2.238l5.443-3.27
						l6.352,3.744l-1.646-8.373l-12.475-8.156z"/>
					<text transform="matrix(1 0 0 1 496.1318 784.5127)"><tspan x="0" y="0" style="fill:#000000;stroke:none;">94577</tspan></text>
				</g>
				<g>
					<path d="M331.706,211.727l4.535,12.108l8.279,0.407l1.359-16.395l-5.499,5.783l-8.675-1.904z"/>
					<text transform="matrix(1 0 0 1 324.2061 223.9258)"><tspan x="0" y="0" style="fill:#000000;stroke:none;">94576</tspan></text>
				</g>
				<g>
					<path d="M481.489,549.092l-15.363,1.972l-2.379,9.322l-5.728,3.539l10.034,11.358l7.711-6.325l5.953,1.972l-0.85-13.538l0.621-8.3z"/>
					<text transform="matrix(1 0 0 1 447.001 565.9443)"><tspan x="0" y="0" style="fill:#000000;stroke:none;">94572</tspan></text>
				</g>
				<g>
					<path d="M787.571,374.113l-10.143,0.07v15.173l-4.992,3.604l-11.168-3.674l-10.09-9.932l-36.627-0.475l-0.223,23.944l10.371,8.3l-0.111,12.313l-0.34,39.595l-0.229,15.24l-4.307,8.64l-14.344,11.089l-17.748-0.34l11.566,34.626l9.188,0.34l-2.268,13.403
						l2.719,19.661l12.076,8.572l34.699-2.654l39.568-25.781l-3.229-19.526l2.379-16.6l-9.691-3.062l0.621-3.539l17.801-35.443l5.895-3.606l-1.283-9.905l14.514-0.694l10.453-7.664l3.48-16.72l-27.287-4.881l5.227-3.483l22.646,2.092l3.117-4.992l0.598-2.323
						l-2.496-22.046l3.252-10.257l-16.084,8.962l-2.367-17.092l-35.145-0.935z"/>
					<text transform="matrix(1 0 0 1 747.7188 477.6953)"><tspan x="0" y="0" style="fill:#000000;stroke:none;">94571</tspan></text>
				</g>
				<g>
					<path d="M498.44,552.291l16.951,10.954l-9.07-10.822l-7.482-1.292l-0.398,1.16z"/>
					<text transform="matrix(1 0 0 1 506.9189 559.1934)"><tspan x="0" y="0" style="fill:#000000;stroke:none;">94569</tspan></text>
				</g>
				<g>
					<path d="M665.063,771.353l-25.57,7.348l4.875,10.816l-5.156,3.398l-0.059,0.41l4.875-0.07l38.666-2.039l4.195-15.445l-5.502-8.977l-16.324,4.559z"/>
					<text transform="matrix(1 0 0 1 646.3398 783.5635)"><tspan x="0" y="0" style="fill:#000000;stroke:none;">94568</tspan></text>
				</g>
				<g>
					<path d="M326.72,114.985l-17.575,15.645l-1.248,17.757l35.886-4.148l10.772,1.497l7.711,17.959l7.822,5.918l8.335-2.177l-3.571-17.077l9.976-1.972l0.981-2.306l-2.396,2.373l-4.195-2.177l2.947-5.783l3.782,5.271l1.433-3.363l11.227,8.367l13.491-2.587
						l22.679,18.642l15.419,0.612l-0.17-8.367l-1.304,3.334l-6.747-2.722l1.986-6.938l-5.725-0.952l4.081-2.997l-10.772-3.876l2.836-3.196l-41.672-37.69l-3.059-5.851l2.947-5.854L385.51,77.43l-5.839,1.362l-3.97-8.777l-24.434,38.303l-24.548,6.668z"/>
					<text transform="matrix(1 0 0 1 362.3652 123.3203)"><tspan x="0" y="0" style="fill:#000000;stroke:none;">94567</tspan></text>
				</g>
				<g>
					<path d="M635.017,794.274l-15.932-2.174l-5.561,4.623l16.781,12.316l7.658,0.141l-5.162,8.156l10.828,8.508l11.795,0.475l7.764,11.631l9.639-5.777l3.064,2.719l9.012,21.568l-4.705,8.771l7.201,2.449l29.59-17.074l17.121-21.223l-9.803-4.77l-0.059-17.139
						l-11.227,1.365l-12.979-12.316l-17.977,3.604l-20.977,15.029l-7.313-14.35l-11.73-0.275l1.869-4.828l-8.9-1.43z"/>
					<text transform="matrix(1 0 0 1 676.7031 828.7979)"><tspan x="0" y="0" style="fill:#000000;stroke:none;">94566</tspan></text>
				</g>
				<g>
					<path d="M659.169,556.984l-29.203-13.471H614.55v5.033l-5.162,1.564l3.855,1.43l-0.68,8.502l21.773,12.182l7.482,2.312l-2.326,9.797l7.652-4.629l10.488,9.662l15.762,5.036l-1.816,5.101l10.436,17.824l9.639-0.34l0.738-11.021l4.248-6.463l-3.627-0.064
						l-0.059-4.562l7.828-3.472l-4.822-1.767l0.229-7.822l12.586,1.02l-11.227-3.674l2.889-10.002l8.391-3.469l-2.719-19.661l-29.256,10.342l-17.684,0.612z"/>
					<text transform="matrix(1 0 0 1 648.4258 575.9258)"><tspan x="0" y="0" style="fill:#000000;stroke:none;">94565</tspan></text>
				</g>
				<g>
					<path d="M436.193,580.249l-1.362,5.648l5.215,7.008l20.297,10.682h9.07l12.135-4.969l-23.188-7.752l-12.021-13.679l-10.146,3.062z"/>
					<text transform="matrix(1 0 0 1 420.3232 590.8926)"><tspan x="0" y="0" style="fill:#000000;stroke:none;">94564</tspan></text>
				</g>
				<g>
					<path d="M475.595,653.251l-2.895,2.648l4.424,5.379l-4.025,0.814l1.816,4.693l12.416,4.084l3.457,7.072l-2.098,1.975l4.482,4.828l16.043,14.221l-0.398,11.086l5.098,3.064l10.945-1.09l10.945,9.182l-11.063-25.711l6.527,2.174l3.281-3.604l-1.418-16.465
						l-7.875-2.379l1.02-6.129l-6.07-2.918l2.156-19.799l-9.352-3.404l-9.809-1.154l-9.41,11.361l1.242,3.469l-19.441-3.398z"/>
					<text transform="matrix(1 0 0 1 492.4688 677.2061)"><tspan x="0" y="0" style="fill:#000000;stroke:none;">94563</tspan></text>
				</g>
				<g>
					<path d="M791.942,526.302l3.229,19.526l-39.568,25.781l-3.176,21.841l6.803,5.988l-12.416,1.219l3.398,13.477l36.287,0.064l0.053-5.033h18.486l24.264-0.545l0.059-5.104l23.186,0.82l3.457-2.859l-5.215-3.539l6.404-11.294l-3.967-4.491l6.691-3.876
						l-2.156-2.722l7.031,1.904l-2.666-9.047l-5.555-0.545v-8.912l-7.992-0.407l0.111-9.797l7.881-8.64l-3.398-12.111l-13.324-7.55l-3.176-6.873l-12.867,4.898l-0.738,7.825h-10.605l-6.176-5.716l-14.344,5.716z"/>
					<text transform="matrix(1 0 0 1 791.1211 576.8936)"><tspan x="0" y="0" style="fill:#000000;stroke:none;">94561</tspan></text>
				</g>
				<g>
					<path d="M592.208,885.101l-22.389,20.209l-7.143,1.359l-11.566,14.414l4.875,7.283l13.436-6.873l-0.68,5.379l23.807,5.578l1.453,2.637l1.658,3.006l2.842,5.174l1.986-3.27l5.502,1.57l2.496-8.643l9.293-4.283l-2.66-3.129l6.176-12.586l-8.391-4.898
						l-20.695-22.928z"/>
					<text transform="matrix(1 0 0 1 569.5234 917.6846)"><tspan x="0" y="0" style="fill:#000000;stroke:none;">94560</tspan></text>
				</g>
				<g>
					<path d="M444.47,401.327l28.629-3.398l3.914-8.03l-9.697,0.205l4.254-2.789l-5.666-1.09l3.281-4.286l-9.463-8.707l-18.144,6.94l2.892,21.155z"/>
					<text transform="matrix(1 0 0 1 438.2061 393.4258)"><tspan x="0" y="0" style="fill:#000000;stroke:none;">94559</tspan></text>
				</g>
				<g>
					<path d="M533.134,677.603l1.418,16.465l-3.281,3.604l-6.527-2.174l11.063,25.711l31.688,2.59l6.234-11.701l14.801-1.904l-7.201-8.232l1.189-6.668l-12.926-9.182l-1.758,5.303l-15.135-1.295l3.117-5.168l-3.914-4.488l2.098-5.168l-16.834-3l-4.031,5.309z"/>
					<text transform="matrix(1 0 0 1 539.957 709.0557)"><tspan x="0" y="0" style="fill:#000000;stroke:none;">94556</tspan></text>
				</g>
				<g>
					<path d="M599.468,875.169l-4.365-5.719l-9.809,1.43l-3-5.033l-4.313,3.674l1.137,9.527l-3.404,4.758l-5.045-3.539l-17.578,6.328l-0.393-5.033l-9.076-1.154l-2.83,4.148l9.861,23.332l0.457,13.195l11.566-14.414l7.143-1.359l22.389-20.209l7.26-9.932z"/>
					<text transform="matrix(1 0 0 1 550.9453 896.4717)"><tspan x="0" y="0" style="fill:#000000;stroke:none;">94555</tspan></text>
				</g>
				<g>
					<path d="M498.44,552.291l-6.744,7.072l2.66,4.901l-13.488-6.873l0.85,13.538l-5.953-1.972l-7.711,6.325l10.998,3.267l-7.934,0.202l14.508,13.474l-4.078,6.393l-12.135,4.969l7.143,4.418l-0.281,4.359l-14.174,4.148l-2.323,2.988l5.212,7.078l-5.438,3.398
						l16.043,23.273l19.441,3.398l-1.242-3.469l9.41-11.361l9.809,1.154l23.074-12.855l5.273-18.984l3.229-0.609l2.836,9.457l9.521-0.955l5.391-1.424l-7.488-10.547l15.252-2.314l0.398-4.084l7.711,3.404l7.143-7.348l-5.496-12.108l-7.6-3.677l5.045-6.527
						l-16.213-15.785l-29.713,14.423l-15.984-9.794l-16.951-10.954z"/>
					<text transform="matrix(1 0 0 1 504.7031 601.6758)"><tspan x="0" y="0" style="fill:#000000;stroke:none;">94553</tspan></text>
				</g>
				<g>
					<path d="M514.202,719.509l-0.568,2.59l3.797,2.109l1.646-4.359l11.795,5.578l9.469,17.689l8.256,15.85l0.24,0.059l-1.863,11.508l6.686,6.738l3.516-4.084l10.6,1.77l4.143-9.457l-2.836,10.271l12.018,2.039l-1.588,5.514l4.143,7.893l-2.613,6.328l8.279-2.449
						l1.928,10.951l20.18,4.764l-5.719,8.027h-4.77l23.988,17.004l8.051-4.828l12.188,10.342l-0.34,20.549l7.535,3.873l3.516-4.488l9.357,3.059l7.764-2.314l-15.645-14.689l-13.723-21.498l-10.828-8.508l5.162-8.156l-7.658-0.141l-16.781-12.316l5.561-4.623
						l15.932,2.174l4.137-0.949l0.059-0.41l5.156-3.398l-4.875-10.816l-31.922-18.779l7.939-10.752l-9.24-11.566l-17.801-12.176l-20.977-1.629l-31.688-2.59l-10.945-9.182l-10.945,1.09l0.287,6.393z"/>
					<text transform="matrix(1 0 0 1 564.2617 757.9111)"><tspan x="0" y="0" style="fill:#000000;stroke:none;">94552</tspan></text>
				</g>
				<g>
					<path d="M762.745,742.911l-55.049,16.125l-1.535,9.867l7.26,9.047l0.398,13.535l-13.775,5.039l12.979,12.316l11.227-1.365l0.059,17.139l9.803,4.77l-17.121,21.223l-29.59,17.074l3.287,8.168l17.52,9.111l-14.572,2.994l7.541,25.512l16.893,13.881l-3.967,11.631
						l32.994,0.141l89.063,0.949l7.547,12.246l-4.764,9.117l11.959,10.406l-1.582,10.277l5.268,2.789l-7.652,9.656l3.346,7.893l4.875-3.264l1.529,7.143l14.971,1.764l11.789,10.072l8.619-0.68l16.951,15.785l-3.973-14.561l2.666-14.426l6.803-1.699l5.842,4.488
						l5.555-5.648l-12.756-21.152l6.123-10.617l-1.588-8.637l-11.051-9.656l-1.418-6.533l8.895-4.623l0.059-5.918l-14.227-9.393l-1.477-12.041l-23.244-4.898l-9.639-8.777V710.392l-102.838,32.52z"/>
					<text transform="matrix(1 0 0 1 789.9707 875.3389)"><tspan x="0" y="0" style="fill:#000000;stroke:none;">94550</tspan></text>
				</g>
				<g>
					<path d="M556.946,619.026l-9.521,0.955l-2.836-9.457l-3.229,0.609l-5.273,18.984l-23.074,12.855l9.352,3.404l-2.156,19.799l6.07,2.918l-1.02,6.129l7.875,2.379l4.031-5.309l16.834,3l-2.098,5.168l3.914,4.488l-3.117,5.168l15.135,1.295l1.758-5.303
						l-6.064-10.137l-0.908-10.207l2.777,0.68l1.418-8.508l1.641-6.117l-10.43-2.66l-0.451-4.488l6.744-5.648l-2.098-15.369l-5.273-4.629z"/>
					<text transform="matrix(1 0 0 1 522.2031 649.9229)"><tspan x="0" y="0" style="fill:#000000;stroke:none;">94549</tspan></text>
				</g>
				<g>
					<path d="M458.02,563.925l-11.681,13.263l12.021,13.679l23.188,7.752l4.078-6.393l-14.508-13.474l7.934-0.202l-10.998-3.267l-10.034-11.358z"/>
					<text transform="matrix(1 0 0 1 444.3008 584.2754)"><tspan x="0" y="0" style="fill:#000000;stroke:none;">94547</tspan></text>
				</g>
				<g>
					<path d="M544.817,772.642l9.469,9.047l0.961,9.258l4.025,2.379l-3.064,3.129l11.115,11.361l13.717-10.271l2.613-6.328l-4.143-7.893l1.588-5.514l-12.018-2.039l2.836-10.271l-4.143,9.457l-10.6-1.77l-3.516,4.084l-6.686-6.738l-2.156,2.109z"/>
					<text transform="matrix(1 0 0 1 562.7354 791.1611)"><tspan x="0" y="0" style="fill:#000000;stroke:none;">94546</tspan></text>
				</g>
				<g>
					<path d="M525.317,821.825l6.633,36.949l11.73-11.156l4.313,1.424l3.627,11.631l10.77-0.814l1.588-6.053l9.75-2.449l-15.023-30.48l-6.914,3.059l-5.783-10.746l-13.096,3.949l3.059,3.943l-10.652,0.744z"/>
					<text transform="matrix(1 0 0 1 526.7031 843.4229)"><tspan x="0" y="0" style="fill:#000000;stroke:none;">94545</tspan></text>
				</g>
				<g>
					<path d="M558.704,820.876l15.023,30.48l6.92,6.258l9.07-1.359l0.281-3.949l12.926,4.084l2.209-2.584l-6.914-12.791l5.895-3.469l7.031,4.764l4.816-6.738h-10.594l2.438-5.238h-5.391l-1.418,4.898l-23.695-8.367l-7.313-11.297l-11.285,5.309z"/>
					<text transform="matrix(1 0 0 1 567.2793 847.2197)"><tspan x="0" y="0" style="fill:#000000;stroke:none;">94544</tspan></text>
				</g>
				<g>
					<path d="M569.989,815.567l7.313,11.297l23.695,8.367l1.418-4.898h5.391l-2.438,5.238h10.594l-4.816,6.738l13.781-6.469l-23.988-17.004h4.77l5.719-8.027l-20.18-4.764l-2.947,5.988l7.424-3.404l2.385,6.123l-28.119,0.814z"/>
					<text transform="matrix(1 0 0 1 574.9531 826.2979)"><tspan x="0" y="0" style="fill:#000000;stroke:none;">94542</tspan></text>
				</g>
				<g>
					<path d="M553.431,798.769l-4.307,1.225l3.627,2.924l-6.404,0.404l5.162,5.379l-7.313,1.09l1.811,3.398l5.783,10.746l6.914-3.059l11.285-5.309l28.119-0.814l-2.385-6.123l-7.424,3.404l2.947-5.988l-1.928-10.951l-8.279,2.449l-13.717,10.271l-11.115-11.361
						l-2.777,2.314z"/>
					<text transform="matrix(1 0 0 1 554.4707 813.0244)"><tspan x="0" y="0" style="fill:#000000;stroke:none;">94541</tspan></text>
				</g>
				<g>
					<path d="M652.36,865.776l3.293,6.732l-2.777,6.328l-17.35,5.379l4.875,24.762l20.918,47.484l19.898-8.367l7.998-8.297l-8.279-7.148l-2.889-14.08l2.941-12.381l-4.137-10.816l-14.402-5.309l21.434-14.895l-18.65-10.822l-9.357-3.059l-3.516,4.488z"/>
					<text transform="matrix(1 0 0 1 645.6895 912.3818)"><tspan x="0" y="0" style="fill:#000000;stroke:none;">94539</tspan></text>
				</g>
				<g>
					<path d="M612.903,908.028l8.391,4.898l-6.176,12.586l2.66,3.129l-9.293,4.283l-2.496,8.643l-5.502-1.57l-1.986,3.27l-2.842-5.174l-1.658-3.006l-11.654-0.527l3.346,16.324l36,0.545l4.307-3.404l10.887,4.424l9.41-3.193l10.717,10.201l4.307-2.994
						l-20.918-47.484l-4.875-24.762l-7.822,7.688l-3.234-2.039l-11.566,18.164z"/>
					<text transform="matrix(1 0 0 1 615.2031 937.7979)"><tspan x="0" y="0" style="fill:#000000;stroke:none;">94538</tspan></text>
				</g>
				<g>
					<path d="M644.825,861.903l-6.75,4.963l-13.436-9.521l-15.076,17.209l-10.096,0.615l-7.26,9.932l20.695,22.928l11.566-18.164l3.234,2.039l7.822-7.688l17.35-5.379l2.777-6.328l-3.293-6.732l-7.535-3.873z"/>
					<text transform="matrix(1 0 0 1 606.252 881.6846)"><tspan x="0" y="0" style="fill:#000000;stroke:none;">94536</tspan></text>
				</g>
				<g>
					<path d="M662.169,378.335l0.34,19.796l-24.434-2.722l-1.189,6.056l-8.391,1.154l-0.111,5.309l3.117,14.692l5.045,3.949l20.918-8.777l4.764-7.755v12.855l62.361,0.545l0.111-12.313l-10.371-8.3l0.223-23.944l0.059-5.174l-41.895-0.202l-10.43-0.138l-0.117,4.969
						z"/>
					<text transform="matrix(1 0 0 1 672.2031 403.1758)"><tspan x="0" y="0" style="fill:#000000;stroke:none;">94535</tspan></text>
				</g>
				<g>
					<path d="M579.458,363.842l-1.934,9.319l-16.605,0.07l2.209,5.851l-9.58,14.285l15.193,11.089l4.588,14.833l-0.393,0.612l-6.404,2.924l2.209,9.659l20.127-6.123l0.34-4.081l22.506-14.42l-0.627,7.957l9.926,0.067l0.111-8.092l7.26,0.135l0.111-5.309l8.391-1.154
						l1.189-6.056l24.434,2.722l-0.34-19.796l-10.43-0.275l0.223,4.898l-7.705-2.039l-12.645,13.266l-0.85-20.953l-21.885,3.606v-3.539h-6.861l1.307-5.851l-5.104-7.55l-11.848-2.584l-6.914,6.527z"/>
					<text transform="matrix(1 0 0 1 583.3496 398.9033)"><tspan x="0" y="0" style="fill:#000000;stroke:none;">94533</tspan></text>
				</g>
				<g>
					<path d="M448.721,632.638l-16.043-2.52l-2.833,4.629l11.848,18.094l-2.666,4.693l12.366-0.445l-1.339-11.643l6.152,0.996l7.488,6.773l9.404,8.877l4.025-0.814l-4.424-5.379l2.895-2.648l-16.043-23.273l-9.018-3.873l-1.813,6.533z"/>
					<text transform="matrix(1 0 0 1 438.2061 641.6729)"><tspan x="0" y="0" style="fill:#000000;stroke:none;">94530</tspan></text>
				</g>
				<g>
					<path d="M640.97,702.505l2.777-6.129l-3.533-4.289l-10.752,1.301l4.646,1.289l-5.842,3.609l12.703,4.219z"/>
					<text transform="matrix(1 0 0 1 619.3281 700.8057)"><tspan x="0" y="0" style="fill:#000000;stroke:none;">94528</tspan></text>
				</g>
				<g>
					<path d="M481.489,549.092l-0.621,8.3l13.488,6.873l-2.66-4.901l6.744-7.072l0.398-1.16l-17.35-2.039z"/>
					<text transform="matrix(1 0 0 1 472.7031 555.4258)"><tspan x="0" y="0" style="fill:#000000;stroke:none;">94525</tspan></text>
				</g>
				<g>
					<path d="M570.499,600.657l-0.398,4.084l-15.252,2.314l7.488,10.547l-5.391,1.424l5.273,4.629l2.098,15.369l8.221-0.68l-0.111-4.828l8.332,1.23l-0.059-6.059h3.744l0.738-4.969l-6.973-19.658l-7.711-3.404z"/>
					<text transform="matrix(1 0 0 1 552.9531 617.6729)"><tspan x="0" y="0" style="fill:#000000;stroke:none;">94523</tspan></text>
				</g>
				<g>
					<path d="M607.806,580.589l22.676,19.318l0.68,5.449l-15.082-1.699l-3.398,6.322l-3.914-1.295l9.92,15.715l-2.947,2.725l11.449,18.979l11.168-10.406l0.117-5.098l6.463,2.719l1.02-5.174l-3.967,0.064l-3.516-7.412l13.723-2.314l-0.059-4.283l6.176,0.205
						l-0.059-5.719l13.324-9.182l1.816-5.101l-15.762-5.036l-10.488-9.662l-7.652,4.629l2.326-9.797l-7.482-2.312l-26.531,8.364z"/>
					<text transform="matrix(1 0 0 1 623.916 612.6689)"><tspan x="0" y="0" style="fill:#000000;stroke:none;">94521</tspan></text>
				</g>
				<g>
					<path d="M561.089,558.616l16.213,15.785l-5.045,6.527l7.6,3.677l5.496,12.108l-7.143,7.348l6.973,19.658l11.619-9.861l1.588-8.707l-3.346-11.227l6.07-12.044l6.691-1.292l26.531-8.364l-21.773-12.182l0.68-8.502l-3.855-1.43l5.162-1.564v-5.033l-16.389,4.286
						l-18.65-1.972l-20.291,9.659l1.869,3.129z"/>
					<text transform="matrix(1 0 0 1 575.4531 568.1758)"><tspan x="0" y="0" style="fill:#000000;stroke:none;">94520</tspan></text>
				</g>
				<g>
					<path d="M598.39,605.151l10.377,3.533l3.914,1.295l3.398-6.322l15.082,1.699l-0.68-5.449l-22.676-19.318l-6.691,1.292l-6.07,12.044l3.346,11.227z"/>
					<text transform="matrix(1 0 0 1 596.418 598.7939)"><tspan x="0" y="0" style="fill:#000000;stroke:none;">94519</tspan></text>
				</g>
				<g>
					<path d="M598.39,605.151l-1.588,8.707l-11.619,9.861l-0.738,4.969l3.117,4.424l6.182-3.814l5.385,5.789l14.004-10.277l2.607,2.314l2.947-2.725l-9.92-15.715l-10.377-3.533z"/>
					<text transform="matrix(1 0 0 1 584.2031 624.4229)"><tspan x="0" y="0" style="fill:#000000;stroke:none;">94518</tspan></text>
				</g>
				<g>
					<path d="M258.575,133.967l1.813,12.041l-5.613,8.774l3.287,9.457l-9.296,13.74l8.599,23.728l26.833,12.604l7.201,13.4l34.298-19.321l-6.747-7.89l9.188-10.069l-1.702-33.064l5.101-0.202l12.246-12.926l-35.886,4.148l1.248-17.757l17.575-15.645l-68.145,18.981z
						"/>
					<text transform="matrix(1 0 0 1 276.5928 179.3535)"><tspan x="0" y="0" style="fill:#000000;stroke:none;">94515</tspan></text>
				</g>
				<g>
					<path d="M786.892,683.181l-1.699,6.803l-14.906,6.668l-2.555,14.355l-11.051,12.586l6.064,19.318l102.838-32.52l3.234-11.361l5.947-2.338l2.502-7.523l-3.463,0.75l0.229-6.533l-6.75-3.404l-6.457,5.238l-8.906-11.766l9.018-29.66l-14.514-3.814l-8.848,2.859
						l-8.391,14.221l3.633,4.828v14.965l-25.57-0.07l-20.355,6.398z"/>
					<text transform="matrix(1 0 0 1 796.2891 705.4521)"><tspan x="0" y="0" style="fill:#000000;stroke:none;">94514</tspan></text>
				</g>
				<g>
					<path d="M829.36,603.517l-0.059,5.104l-24.264,0.545h-18.486l-0.053,5.033l-36.287-0.064l-9.861-2.52l2.438,17.824l-2.777,14.15l8.842,7.008l-6.914,18.158l16.271,7.219l25.623-5.039l3.059,12.246l20.355-6.398l25.57,0.07v-14.965l-3.633-4.828l8.391-14.221
						l8.848-2.859l14.514,3.814l3.855-1.359l-3.287-12.316l3.287-7.078l-12.246-18.703l-23.186-0.82z"/>
					<text transform="matrix(1 0 0 1 785.7227 646.8525)"><tspan x="0" y="0" style="fill:#000000;stroke:none;">94513</tspan></text>
				</g>
				<g>
					<path d="M687.622,497.661l17.748,0.34l14.344-11.089l4.307-8.64l0.229-15.24l-14.795-0.138l0.621,16.125l-10.998-1.564l-9.861,11.566l-22.963,1.087l3.006,6.94l18.363,0.612z"/>
					<text transform="matrix(1 0 0 1 687.2031 491.6758)"><tspan x="0" y="0" style="fill:#000000;stroke:none;">94512</tspan></text>
				</g>
				<g>
					<path d="M516.827,491.187l-13.4,30.691l0.234,25.104l4.02-7.143l13.834,11.836l-0.967,6.463l20.016-0.202l6.182-12.586l29.256-29.865l-0.176-7.893l-7.594-3.812l-1.588-8.432l-6.803-1.16l6.176-8.977l-10.26-5.241l-4.986,2.517l-1.02-11.156h-7.313
						l-6.352-12.788l-19.26,32.643z"/>
					<text transform="matrix(1 0 0 1 523.0352 511.8467)"><tspan x="0" y="0" style="fill:#000000;stroke:none;">94510</tspan></text>
				</g>
				<g>
					<path d="M708.827,565.691l-8.391,3.469l-2.889,10.002l11.227,3.674l-12.586-1.02l-0.229,7.822l4.822,1.767l-7.828,3.472l0.059,4.562l3.627,0.064l-4.248,6.463l22.049,3.879l1.529,10.271l-9.691,7.412l3.914,5.52l0.223-0.07l29.596,10.611l2.777-14.15
						l-2.438-17.824l9.861,2.52l-3.398-13.477l12.416-1.219l-6.803-5.988l3.176-21.841l-34.699,2.654l-12.076-8.572z"/>
					<text transform="matrix(1 0 0 1 710.6289 600.1455)"><tspan x="0" y="0" style="fill:#000000;stroke:none;">94509</tspan></text>
				</g>
				<g>
					<path d="M343.782,144.238l-12.246,12.926l-5.101,0.202l1.702,33.064L318.95,200.5l6.747,7.89l6.009,3.337l8.675,1.904l5.499-5.783l9.185,4.219l8.9-8.505l12.246-2.927l-14.455-21.565l5.78-0.68l2.552-8.777l-7.822-5.918l-7.711-17.959l-10.772-1.497z"/>
					<text transform="matrix(1 0 0 1 330.9004 182.4414)"><tspan x="0" y="0" style="fill:#000000;stroke:none;">94508</tspan></text>
				</g>
				<g>
					<path d="M591.077,676.653l-7.084,2.988l-1.477,15.65l-1.189,6.668l7.201,8.232l5.725,5.373l10.078-18.791l4.998-4.406l12.475,6.527l4.084-11.836l-16.219-11.156l-18.592,0.75z"/>
					<text transform="matrix(1 0 0 1 584.4258 688.7412)"><tspan x="0" y="0" style="fill:#000000;stroke:none;">94507</tspan></text>
				</g>
				<g>
					<path d="M436.987,728.761l-11.057-3.193l0.624,11.566l27.779,6.527l26.194,16.195l5.385,0.404l1.471-5.104l-1.699-8.297l-5.332-3.539l-6.516-9.996l-9.639-3l-27.211-1.564z"/>
					<text transform="matrix(1 0 0 1 426.5811 739.8057)"><tspan x="0" y="0" style="fill:#000000;stroke:none;">94502</tspan></text>
				</g>
				<g>
					<path d="M480.528,759.856l-13.043,2.854l7.201,12.041l5.725,4.764l5.555-5.373l-0.053-13.881l-5.385-0.404z"/>
					<text transform="matrix(1 0 0 1 461.4531 774.915)"><tspan x="0" y="0" style="fill:#000000;stroke:none;">94501</tspan></text>
				</g>
				<g>
					<path d="M448.325,882.241l3.006,1.975l-3.63,5.918l6.293,1.564l2.833,13.26l6.861-0.334l2.607-4.354l5.783,0.949l3.914-11.566l-4.711-6.598l-19.271-6.328l-4.649,3.879l0.964,1.635z"/>
					<text transform="matrix(1 0 0 1 450.4961 889.3486)"><tspan x="0" y="0" style="fill:#000000;stroke:none;">94404</tspan></text>
				</g>
				<g>
					<path d="M442.316,887.55l3.683,4.693l-19.16,8.227l0.396,19.055l3.401-5.379l26.191-9.188l-2.833-13.26l-6.293-1.564l3.63-5.918l-3.006-1.975l-6.009,5.309z"/>
					<text transform="matrix(1 0 0 1 425.1514 904.3838)"><tspan x="0" y="0" style="fill:#000000;stroke:none;">94403</tspan></text>
				</g>
				<g>
					<path d="M435.909,881.491l-2.892,8.438l-12.981-12.041l-7.485,6.598l13.099-0.48l-4.822,9.738l2.212,3.328l-14.399,10.277l8.561,12.715l3.97,4.834l6.064-5.373l-0.396-19.055l19.16-8.227l-3.683-4.693l-5.897-6.604l-0.51,0.545z"/>
					<text transform="matrix(1 0 0 1 389.9541 917.8955)"><tspan x="0" y="0" style="fill:#000000;stroke:none;">94402</tspan></text>
				</g>
				<g>
					<path d="M420.036,877.888l12.981,12.041l2.892-8.438l0.51-0.545l5.897,6.604l6.009-5.309l-0.964-1.635l-12.7-9.727l0.738-4.354l-10.488,2.045l-4.875,9.316z"/>
					<text transform="matrix(1 0 0 1 431.5967 877.3721)"><tspan x="0" y="0" style="fill:#000000;stroke:none;">94401</tspan></text>
				</g>
				<g>
					<path d="M523.331,970.952l6.182,6.604l-4.031,5.777h3.346l2.666-4.008l5.496,3.469l-4.307,6.527l5.842,3.674l-4.137,6.328l1.529,4.764l6.633,0.41l-1.986-5.379l7.43-5.098l2.039-2.59l-0.117-0.48l-1.242-3.193l4.594,2.924l3.855-9.182l-5.332,1.225
						l-11.678-9.656l-2.607,5.982l-14.174-8.098z"/>
					<text transform="matrix(1 0 0 1 523.5391 991.2314)"><tspan x="0" y="0" style="fill:#000000;stroke:none;">94306</tspan></text>
				</g>
				<g>
					<path d="M516.868,964.354l-10.887,15.375l9.527,4.494l0.281,0.34l9.867,7.277l3.17-8.508h-3.346l4.031-5.777l-6.182-6.604l-6.463-6.598z"/>
					<text transform="matrix(1 0 0 1 501.0625 981.6045)"><tspan x="0" y="0" style="fill:#000000;stroke:none;">94305</tspan></text>
				</g>
				<g>
					<path d="M505.981,979.729l1.98,6.393l-3.457,6.328l1.758,14.156l-6.691,16.523l15.422,23.678l-5.385,0.475l1.928,4.969l25.969,16.395l1.201-23.309l-1.658-0.146l-13.014-1.143l-5.695-0.504l-2.098-15.445l4.307-0.814l-5.836-2.584l3.574-2.924l1.301-23.883
						l7.254,7.283l7.547-5.854l4.137-6.328l-5.842-3.674l4.307-6.527l-5.496-3.469l-2.666,4.008l-3.17,8.508l-9.867-7.277l-0.281-0.34l-9.527-4.494z"/>
					<text transform="matrix(1 0 0 1 492.4551 1027.1768)"><tspan x="0" y="0" style="fill:#000000;stroke:none;">94304</tspan></text>
				</g>
				<g>
					<path d="M532.062,956.667l4.646,2.584l-3.686,8.508l7.09,5.309l11.678,9.656l5.332-1.225l0.563-10.201l5.391-7.688l-0.059-0.82l-0.229-2.379l-16.834-11.906l2.262-5.719l-3.967,1.43l-2.326-15.785l-8.104,8.777l1.412,7.758l-8.895,2.59l5.725,9.111z"/>
					<text transform="matrix(1 0 0 1 531.0215 962.083)"><tspan x="0" y="0" style="fill:#000000;stroke:none;">94303</tspan></text>
				</g>
				<g>
					<path d="M516.868,964.354l6.463,6.598l14.174,8.098l2.607-5.982l-7.09-5.309l3.686-8.508l-4.646-2.584l-15.193,7.688z"/>
					<text transform="matrix(1 0 0 1 511.3047 968.8604)"><tspan x="0" y="0" style="fill:#000000;stroke:none;">94301</tspan></text>
				</g>
				<g>
					<path d="M375.531,770.603l-3.63,11.426l4.195,4.559h8.221l5.897-0.07l-6.519-18.164l-8.165,2.25z"/>
					<text transform="matrix(1 0 0 1 374.1396 782.6729)"><tspan x="0" y="0" style="fill:#000000;stroke:none;">94134</tspan></text>
				</g>
				<g>
					<path d="M376.609,718.284l2.438,9.182l5.61-0.809l1.532-5.988l-9.58-2.385z"/>
					<text transform="matrix(1 0 0 1 379.6416 720.6748)"><tspan x="0" y="0" style="fill:#000000;stroke:none;">94133</tspan></text>
				</g>
				<g>
					<path d="M326.491,768.153l2.892,18.504l17.915-0.07h1.134l3.571-1.43l0.284-7.617l-5.839,0.211l1.078-11.027l-21.035,1.43z"/>
					<text transform="matrix(1 0 0 1 309.7715 785.1748)"><tspan x="0" y="0" style="fill:#000000;stroke:none;">94132</tspan></text>
				</g>
				<g>
					<path d="M354.895,749.04l-3.062,6.867l2.496,4.699l8.446,4.553l-0.284,5.713l9.015-2.449l2.042-9.316l-10.942,1.154l1.758-6.258l-4.31-1.834l-5.159-3.129z"/>
					<text transform="matrix(1 0 0 1 348.9561 763.1729)"><tspan x="0" y="0" style="fill:#000000;stroke:none;">94131</tspan></text>
				</g>
				<g>
					<path d="M408.81,719.239l2.156-4.969l-7.09-1.02l5.162-3.539l-2.268-5.777l-6.917-0.48l3.062,13.131l5.895,2.654z"/>
					<text transform="matrix(1 0 0 1 386.7666 708.9971)"><tspan x="0" y="0" style="fill:#000000;stroke:none;">94130</tspan></text>
				</g>
				<g>
					<path d="M360.112,719.169l-16.896-2.379l-4.31,13.605l5.443,2.584l16.213-3.193l0.624-0.75l-1.075-9.867z"/>
					<text transform="matrix(1 0 0 1 330.7891 728.3389)"><tspan x="0" y="0" style="fill:#000000;stroke:none;">94129</tspan></text>
				</g>
				<g>
					<path d="M384.827,836.181l4.708,14.971l10.374,4.424l3.571-5.443l7.597,3.334l1.986-3.809l-7.485-4.084l1.532-4.764l-13.266-1.289l1.585-3.34h-10.603z"/>
					<text transform="matrix(1 0 0 1 382.2637 849.3877)"><tspan x="0" y="0" style="fill:#000000;stroke:none;">94128</tspan></text>
				</g>
				<g>
					<path d="M347.526,766.724l-1.078,11.027l5.839-0.211l1.928-6.188l8.276-0.48l0.284-5.713l-8.446-4.553l-6.803,6.117z"/>
					<text transform="matrix(1 0 0 1 337.9316 770.1748)"><tspan x="0" y="0" style="fill:#000000;stroke:none;">94127</tspan></text>
				</g>
				<g>
					<path d="M385.284,758.562l-1.588,9.791l6.519,18.164h1.418l7.313-0.879l2.153-4.219l-4.477-3.129l4.251-3.539l1.362,4.969l7.652,2.719l-2.836-7.688l4.424,0.609l0.111-3.469l-9.979-2.719l2.382-4.219l-3.173-5.098l-9.243-0.07l5.728-3.809l-12.018,2.584z"/>
					<text transform="matrix(1 0 0 1 389.6436 772.7529)"><tspan x="0" y="0" style="fill:#000000;stroke:none;">94124</tspan></text>
				</g>
				<g>
					<path d="M360.112,719.169l1.075,9.867l9.354-1.5l3.741-0.539l-1.415-7.828h-12.756z"/>
					<text transform="matrix(1 0 0 1 349.9551 722.6729)"><tspan x="0" y="0" style="fill:#000000;stroke:none;">94123</tspan></text>
				</g>
				<g>
					<path d="M344.69,742.571l-20.692,1.23l1.474,15.164l26.361-3.059l3.062-6.867l1.758-7.688l-11.962,1.219z"/>
					<text transform="matrix(1 0 0 1 323.6436 753.6631)"><tspan x="0" y="0" style="fill:#000000;stroke:none;">94122</tspan></text>
				</g>
				<g>
					<path d="M338.907,730.396l-15.138,4.758l0.229,8.648l20.692-1.23l-0.34-9.592l-5.443-2.584z"/>
					<text transform="matrix(1 0 0 1 317.5498 740.6025)"><tspan x="0" y="0" style="fill:#000000;stroke:none;">94121</tspan></text>
				</g>
				<g>
					<path d="M344.351,732.979l0.34,9.592l11.962-1.219l5.499-1.5l-1.588-10.066l-16.213,3.193z"/>
					<text transform="matrix(1 0 0 1 337.0146 739.6826)"><tspan x="0" y="0" style="fill:#000000;stroke:none;">94118</tspan></text>
				</g>
				<g>
					<path d="M362.151,739.853l-5.499,1.5l-1.758,7.688l5.159,3.129l6.691-7.828l5.725,0.48l0.964-0.68l-2.892-5.584l-8.391,1.295z"/>
					<text transform="matrix(1 0 0 1 346.4014 744.6748)"><tspan x="0" y="0" style="fill:#000000;stroke:none;">94117</tspan></text>
				</g>
				<g>
					<path d="M325.472,758.966l1.02,9.188l21.035-1.43l6.803-6.117l-2.496-4.699l-26.361,3.059z"/>
					<text transform="matrix(1 0 0 1 305.9248 764.5322)"><tspan x="0" y="0" style="fill:#000000;stroke:none;">94116</tspan></text>
				</g>
				<g>
					<path d="M361.188,729.036l-0.624,0.75l1.588,10.066l8.391-1.295l1.418-2.174l-1.418-8.848l-9.354,1.5z"/>
					<text transform="matrix(1 0 0 1 349.9023 736.1748)"><tspan x="0" y="0" style="fill:#000000;stroke:none;">94115</tspan></text>
				</g>
				<g>
					<path d="M372.47,744.821l-5.725-0.48l-6.691,7.828l4.31,1.834l-1.758,6.258l10.942-1.154l-0.85-10.957l-0.229-3.328z"/>
					<text transform="matrix(1 0 0 1 351.9004 757.6768)"><tspan x="0" y="0" style="fill:#000000;stroke:none;">94114</tspan></text>
				</g>
				<g>
					<path d="M371.506,768.423l-9.015,2.449l-8.276,0.48l-1.928,6.188l-0.284,7.617l-3.571,1.43h27.665l-4.195-4.559l3.63-11.426l-4.025-2.18z"/>
					<text transform="matrix(1 0 0 1 345.4023 783.1768)"><tspan x="0" y="0" style="fill:#000000;stroke:none;">94112</tspan></text>
				</g>
				<g>
					<path d="M384.657,726.657l0.284,1.834l3.062,1.764l4.254-2.379l-6.067-7.207l-1.532,5.988z"/>
					<text transform="matrix(1 0 0 1 387.1416 726.6748)"><tspan x="0" y="0" style="fill:#000000;stroke:none;">94111</tspan></text>
				</g>
				<g>
					<path d="M372.698,748.149l0.85,10.957l-2.042,9.316l4.025,2.18l8.165-2.25l1.588-9.791l-0.568-10.342l-12.018-0.07z"/>
					<text transform="matrix(1 0 0 1 361.4014 767.6729)"><tspan x="0" y="0" style="fill:#000000;stroke:none;">94110</tspan></text>
				</g>
				<g>
					<path d="M372.868,719.169l1.415,7.828l-3.741,0.539l1.418,8.848l8.786-4.699l-1.699-4.219l-2.438-9.182l-3.741,0.885z"/>
					<text transform="matrix(1 0 0 1 359.957 726.6748)"><tspan x="0" y="0" style="fill:#000000;stroke:none;">94109</tspan></text>
				</g>
				<g>
					<path d="M388.797,734.544l-4.479,4.219l3.46,3.334l-3.062,6.123l0.568,10.342l12.018-2.584l-2.326-13.266l2.666-1.359l-9.524,2.719l8.106-5.379l-1.699-2.924l-5.728-1.225z"/>
					<text transform="matrix(1 0 0 1 375.2998 755.0576)"><tspan x="0" y="0" style="fill:#000000;stroke:none;">94107</tspan></text>
				</g>
				<g>
					<path d="M384.036,734.005l-10.603,10.137l-0.964,0.68l0.229,3.328l12.018,0.07l3.062-6.123l-3.46-3.334l4.479-4.219l-3.287-1.904l-1.474,1.365z"/>
					<text transform="matrix(1 0 0 1 363.9531 746.4385)"><tspan x="0" y="0" style="fill:#000000;stroke:none;">94103</tspan></text>
				</g>
				<g>
					<path d="M380.746,731.685l-8.786,4.699l-1.418,2.174l2.892,5.584l10.603-10.137l-3.29-2.32z"/>
					<text transform="matrix(1 0 0 1 360.4551 741.6748)"><tspan x="0" y="0" style="fill:#000000;stroke:none;">94102</tspan></text>
				</g>
				<g>
					<path d="M580.419,973.132l5.953,5.373l8.221-0.199l-1.529,17.414l0.85,0.27l27.609,7.957l0.229-15.914l6.855-3.879l-2.607-7.553l-6.803-3.129l-15.586-8.842l-3.123-9.797l-8.561,4.219l4.934,2.918l-16.5,3l0.059,8.162z"/>
					<text transform="matrix(1 0 0 1 587.8047 980.8955)"><tspan x="0" y="0" style="fill:#000000;stroke:none;">94089</tspan></text>
				</g>
				<g>
					<path d="M578.942,1023.95l-0.223,14.965l33.902-0.199l3.914-0.07l-4.195-2.379l1.184-8.578l-7.477,1.295l-10.377-10.682l-14.514-4.623l-2.215,10.271z"/>
					<text transform="matrix(1 0 0 1 576.4434 1032.8037)"><tspan x="0" y="0" style="fill:#000000;stroke:none;">94087</tspan></text>
				</g>
				<g>
					<path d="M593.913,995.989l-9.357,10.002l-4.418,7.213l1.02,0.475l14.514,4.623l10.377,10.682l7.477-1.295l2.836-13.266l-4.594-2.379l9.809-0.34l-0.053-7.758l-27.609-7.957z"/>
					<text transform="matrix(1 0 0 1 585.1797 1011.9912)"><tspan x="0" y="0" style="fill:#000000;stroke:none;">94086</tspan></text>
				</g>
				<g>
					<path d="M391.009,812.374l-5.669,3.404l-14.288-12.656l-2.323,9.527l-6.407,3.258l-7.767-7.617l-3.346,4.148l-0.794,0.34l-0.451,0.211l8.221,13.33l-11.227,0.205l4.31,7.277l10.714,4.289l14.912-6.598l7.934,4.688h10.603l2.95,0.07l-6.012-2.309l0.211-3.797
						l6.366-2.941l3.117-9.727l-11.622-1.09l4.594-3.674l-3.744-0.205l-0.281-0.135z"/>
					<text transform="matrix(1 0 0 1 366.4551 828.6748)"><tspan x="0" y="0" style="fill:#000000;stroke:none;">94080</tspan></text>
				</g>
				<g>
					<path d="M387.552,1025.79l-6.636,60.75l2.666,2.039l-2.722-1.02l-0.85,4.148l7.368,6.873l15.422-3.129l6.577,10.541l5.669,0.615l1.585-4.084l10.263,2.314l17.347-11.496l0.908-9.732l8.051-1.969l-2.836-21.293l-8.73-4.629l-0.451-0.41l-17.689-3.738
						l1.359-21.703l-3.003,1.16l-2.722-14.695l-19.104-2.379l-12.472,11.836z"/>
					<text transform="matrix(1 0 0 1 389.957 1073.1729)"><tspan x="0" y="0" style="fill:#000000;stroke:none;">94074</tspan></text>
				</g>
				<g>
					<path d="M468.962,916.53l-17.52,4.148l-0.34,8.162l-8.391-0.475l4.084,4.148l-3.404,0.135l0.34,7.559l4.254,10.477l10.43-5.514l1.192-5.033l8.276,0.27l0.621,0.34l7.939-7.617l6.803-7.688l-6.973-0.609l-2.156-8.238l-5.045-4.078l-0.111,4.014z"/>
					<text transform="matrix(1 0 0 1 436.2988 939.6045)"><tspan x="0" y="0" style="fill:#000000;stroke:none;">94070</tspan></text>
				</g>
				<g>
					<path d="M351.268,833.802l-5.048,5.238l9.923,2.25l0.454,6.393l0.621,0.275l1.362,0.539l2.947-3.398l9.923,12.246l18.085-6.193l-4.708-14.971l-7.934-4.688l-14.912,6.598l-10.714-4.289z"/>
					<text transform="matrix(1 0 0 1 351.1973 847.9229)"><tspan x="0" y="0" style="fill:#000000;stroke:none;">94066</tspan></text>
				</g>
				<g>
					<path d="M463.688,904.624l-3.006,3.129l8.279,8.777l0.111-4.014l5.045,4.078l1.307-8.162l7.764-3.404l4.084-8.027l-12.135-2.52l-3.059,6.738l-5.783-0.949l-2.607,4.354z"/>
					<text transform="matrix(1 0 0 1 476.9834 905.5439)"><tspan x="0" y="0" style="fill:#000000;stroke:none;">94065</tspan></text>
				</g>
				<g>
					<path d="M513.739,928.993l0.146,0.445l6.551-0.393l-8.9-14.35l-8.73-2.52l-3.914,4.078l7.488,2.449l-1.816,5.648l1.359-4.693l-7.482-2.514l-3.744,10.746l-2.15-3.744l-5.725,5.238l-3.574-3.943l-6.803,7.688l7.482,7.547l10.09,8.643l2.098,1.705l4.254-6.738
						l9.07-1.43l1.928-4.219l-4.365-2.309l6.123,1.02l0.287-0.07l0.281-7.957l0.047-0.328z"/>
					<text transform="matrix(1 0 0 1 483.9531 928.6768)"><tspan x="0" y="0" style="fill:#000000;stroke:none;">94063</tspan></text>
				</g>
				<g>
					<path d="M417.2,920.063l-10.488,11.367l5.499,7.348l0.51,9.316l11.962,15.855l-19.67,6.797l32.938,6.738l-5.728,5.168l-15.308-2.18l-1.474,10.143l-15.419,23.338l19.104,2.379l2.722,14.695l3.003-1.16l-1.359,21.703l17.689,3.738l0.451,0.41l8.73,4.629
						l7.655,2.18l-2.268-3.34l7.087-23.467l-3.006-1.975l6.691-10.676l-4.025-17.215l8.443,9.521l7.658-11.906l9.58,5.104l-6.75-8.438l-5.496-17.215l8.672-3.193l2.326-2.514l-4.646-2.449l-0.68-8.982l-3.574-6.803l-9.188,5.508l-7.084-3.539l22.166-20.273
						l-7.482-7.547l-7.939,7.617l-0.621-0.34l-8.276-0.27l-1.192,5.033l-10.43,5.514l-4.254-10.477l-22.562-15.311l-3.97-4.834z"/>
					<text transform="matrix(1 0 0 1 423.9561 1005.6748)"><tspan x="0" y="0" style="fill:#000000;stroke:none;">94062</tspan></text>
				</g>
				<g>
					<path d="M483.927,940.677l-22.166,20.273l7.084,3.539l9.188-5.508l3.574,6.803l4.418,1.834l7.992-18.299l-10.09-8.643z"/>
					<text transform="matrix(1 0 0 1 461.207 957.6572)"><tspan x="0" y="0" style="fill:#000000;stroke:none;">94061</tspan></text>
				</g>
				<g>
					<path d="M380.86,1087.56l-3.967,16.939l13.436,40.271l15.814,6.059l3.574,15.445l13.096,9.861l0.226,12.246l4.424,3.539l11.848-3.264l8.73,6.867l2.153-4.283l-12.697-23.197l-3.346-26.807l39.176-1.975l3.346-0.141l0.111-17.068h11.959l-4.418-11.631
						l-8.221-6.809l-21.826-10.547l-10.037,0.275l-17.347,11.496l-10.263-2.314l-1.585,4.084l-5.669-0.615l-6.577-10.541l-15.422,3.129l-7.368-6.873l0.85-4.148z"/>
					<text transform="matrix(1 0 0 1 412.6367 1129.0518)"><tspan x="0" y="0" style="fill:#000000;stroke:none;">94060</tspan></text>
				</g>
				<g>
					<path d="M339.531,816.388l-0.284,1.43l-5.385-1.16l-1.418,36.258l-4.819,9.867l-8.561,1.5l0.34,13.535l8.619-0.34l15.308,8.508l10.09-2.66l-1.529-12.785l10.998-6.533l-4.31-15.51l-1.362-0.539l-0.621-0.275l-0.454-6.393l-9.923-2.25l5.048-5.238l-4.31-7.277
						l-7.541-11.021l0.114,0.885z"/>
					<text transform="matrix(1 0 0 1 322.4551 867.1748)"><tspan x="0" y="0" style="fill:#000000;stroke:none;">94044</tspan></text>
				</g>
				<g>
					<path d="M563.017,962.79l0.059,0.82l-5.391,7.688l-0.563,10.201l-3.855,9.182l8.953,5.174l22.336,10.137l9.357-10.002l-0.85-0.27l-12.926-3.34l0.281-19.248l-0.059-8.162l-17.572-4.559l0.229,2.379z"/>
					<text transform="matrix(1 0 0 1 553.4531 984.6768)"><tspan x="0" y="0" style="fill:#000000;stroke:none;">94043</tspan></text>
				</g>
				<g>
					<path d="M562.22,995.854l-0.902,7.072l18.82,10.277l4.418-7.213l-22.336-10.137z"/>
					<text transform="matrix(1 0 0 1 554.4531 1005.1768)"><tspan x="0" y="0" style="fill:#000000;stroke:none;">94041</tspan></text>
				</g>
				<g>
					<path d="M549.915,990.95l0.117,0.48l-2.039,2.59l11.789,11.631l4.084,3.264l-4.025-0.135l0.059,10.137l19.043,5.033l2.215-10.271l-1.02-0.475l-18.82-10.277l0.902-7.072l-8.953-5.174l-4.594-2.924l1.242,3.193z"/>
					<text transform="matrix(1 0 0 1 544.208 1021.8584)"><tspan x="0" y="0" style="fill:#000000;stroke:none;">94040</tspan></text>
				</g>
				<g>
					<path d="M320.198,902.989l1.134,10.752l9.864,17.689l6.463,0.879l-4.535-3.604l5.842-2.654l-11.566-12.656l8.956-7.887l-1.529,0.545l-0.51-0.275l-14.118-2.789z"/>
					<text transform="matrix(1 0 0 1 293.7168 918.1533)"><tspan x="0" y="0" style="fill:#000000;stroke:none;">94038</tspan></text>
				</g>
				<g>
					<path d="M319.404,877.817l3.63,14.9l-2.836,10.271l14.118,2.789l0.51,0.275l1.529-0.545l17.065-22.184l-10.09,2.66l-15.308-8.508l-8.619,0.34z"/>
					<text transform="matrix(1 0 0 1 317.4561 899.6729)"><tspan x="0" y="0" style="fill:#000000;stroke:none;">94037</tspan></text>
				</g>
				<g>
					<path d="M580.419,973.132l-0.281,19.248l12.926,3.34l1.529-17.414l-8.221,0.199l-5.953-5.373z"/>
					<text transform="matrix(1 0 0 1 570.9531 992.6729)"><tspan x="0" y="0" style="fill:#000000;stroke:none;">94035</tspan></text>
				</g>
				<g>
					<path d="M389.535,851.151l-18.085,6.193l13.661,14.965l16.611-14.895l-1.813-1.84l-10.374-4.424z"/>
					<text transform="matrix(1 0 0 1 369.9063 865.2373)"><tspan x="0" y="0" style="fill:#000000;stroke:none;">94030</tspan></text>
				</g>
				<g>
					<path d="M481.431,1000.138l6.75,8.438l-9.58-5.104l-7.658,11.906l6.75,13.201l32.314,28.91l3.516-1.699l-1.986-3.539l-1.928-4.969l5.385-0.475l-15.422-23.678l6.691-16.523l-1.758-14.156l-23.074,7.688z"/>
					<text transform="matrix(1 0 0 1 473.957 1020.1748)"><tspan x="0" y="0" style="fill:#000000;stroke:none;">94028</tspan></text>
				</g>
				<g>
					<path d="M494.017,949.319l-7.992,18.299l-4.418-1.834l0.68,8.982l4.646,2.449l-2.326,2.514l15.703-10.541l7.652-11.027l-0.791-5.918l8.449,3.404l3.229-7.283l-10.26-3.809l-12.475,6.469l-2.098-1.705z"/>
					<text transform="matrix(1 0 0 1 463.7705 973.6768)"><tspan x="0" y="0" style="fill:#000000;stroke:none;">94027</tspan></text>
				</g>
				<g>
					<path d="M513.692,929.321l-0.281,7.957l-0.287,0.07l-6.123-1.02l4.365,2.309l-1.928,4.219l-9.07,1.43l-4.254,6.738l12.475-6.469l10.26,3.809l-3.229,7.283l-8.449-3.404l0.791,5.918l-7.652,11.027l-15.703,10.541l-8.672,3.193l5.496,17.215l23.074-7.688
						l3.457-6.328l-1.98-6.393l10.887-15.375l15.193-7.688l-5.725-9.111l8.895-2.59l-1.412-7.758l8.104-8.777l-6.691-5.508l-10.488,4.969l8.678,9.117l-12.984-7.963l-6.551,0.393l-0.146-0.445l-0.047,0.328z"/>
					<text transform="matrix(1 0 0 1 475.4531 988.1768)"><tspan x="0" y="0" style="fill:#000000;stroke:none;">94025</tspan></text>
				</g>
				<g>
					<path d="M559.782,1005.651l-14.625,18.369l2.156,6.457l-4.652,3.75l13.834,2.514l3.967,8.502l4.365-2.109l-2.326,2.93l4.535,1.77l6.41-4.699l6.574,1.84l-4.078-6.059h2.777l0.223-14.965l-19.043-5.033l-0.059-10.137l4.025,0.135l-4.084-3.264z"/>
					<text transform="matrix(1 0 0 1 547.9531 1036.6729)"><tspan x="0" y="0" style="fill:#000000;stroke:none;">94024</tspan></text>
				</g>
				<g>
					<path d="M534.388,999.323l-7.547,5.854l-7.254-7.283l-1.301,23.883l-3.574,2.924l5.836,2.584l-4.307,0.814l2.098,15.445l5.695,0.504l13.014,1.143l1.658,0.146l28.33,2.496l-4.535-1.77l2.326-2.93l-4.365,2.109l-3.967-8.502l-13.834-2.514l4.652-3.75
						l-2.156-6.457l14.625-18.369l-11.789-11.631l-7.43,5.098l1.986,5.379l-6.633-0.41l-1.529-4.764z"/>
					<text transform="matrix(1 0 0 1 514.6953 1024.9307)"><tspan x="0" y="0" style="fill:#000000;stroke:none;">94022</tspan></text>
				</g>
				<g>
					<path d="M470.942,1015.378l-8.443-9.521l4.025,17.215l-6.691,10.676l3.006,1.975l-7.087,23.467l2.268,3.34l-7.655-2.18l2.836,21.293l9.354,0.205l14.177,13.195l11.789,3.199l22.904,23.742l14.854-0.135l1.529-48.439l-7.992-5.918l2.438-6.193l-8.73-5.508
						l-3.516,1.699l-32.314-28.91l-6.75-13.201z"/>
					<text transform="matrix(1 0 0 1 468.9531 1074.6748)"><tspan x="0" y="0" style="fill:#000000;stroke:none;">94020</tspan></text>
				</g>
				<g>
					<path d="M355.633,931.56l-3.29,2.52l5.613,7.418l4.764,30.34l24.832,53.953l12.472-11.836l15.419-23.338l1.474-10.143l15.308,2.18l5.728-5.168l-32.938-6.738l-12.87,8.438l-9.24,13.541l-7.146,0.545l-5.045-34.834l7.143-13.676l-3.231,1.84l-7.368-6.943
						l-4.025-26.801l-0.34,17.684l-4.875,3.814l-2.382-2.795z"/>
					<text transform="matrix(1 0 0 1 380.4668 995.3271)"><tspan x="0" y="0" style="fill:#000000;stroke:none;">94019</tspan></text>
				</g>
				<g>
					<path d="M358.58,848.497l4.31,15.51l-10.998,6.533l1.529,12.785l-17.065,22.184l-8.956,7.887l11.566,12.656l16.667,5.508l2.382,2.795l4.875-3.814l0.34-17.684l4.025,26.801l7.368,6.943l3.231-1.84l-7.143,13.676l5.045,34.834l7.146-0.545l9.24-13.541
						l12.87-8.438l19.67-6.797l-11.962-15.855l-0.51-9.316l-5.499-7.348l10.488-11.367l-8.561-12.715l-23.528-35.039l-13.661-14.965l-9.923-12.246l-2.947,3.398z"/>
					<text transform="matrix(1 0 0 1 359.2061 906.7979)"><tspan x="0" y="0" style="fill:#000000;stroke:none;">94018</tspan></text>
				</g>
				<g>
					<path d="M329.383,786.657l4.479,30l5.385,1.16l0.284-1.43l-0.114-0.885l7.541,11.021l11.227-0.205l-8.221-13.33l0.451-0.211l0.794-0.34l-3.571-5.367l-0.34-20.484l-17.915,0.07z"/>
					<text transform="matrix(1 0 0 1 310.918 803.6768)"><tspan x="0" y="0" style="fill:#000000;stroke:none;">94015</tspan></text>
				</g>
				<g>
					<path d="M347.298,786.587l0.34,20.484l3.571,5.367l3.346-4.148l7.767,7.617l6.407-3.258l2.323-9.527l-7.087-7.213l15.706-2.584l4.646-6.738h-8.221h-27.665h-1.134z"/>
					<text transform="matrix(1 0 0 1 342.1235 798.4307)"><tspan x="0" y="0" style="fill:#000000;stroke:none;">94014</tspan></text>
				</g>
				<g>
					<path d="M401.723,857.415l-16.611,14.895l23.528,35.039l14.399-10.277l-2.212-3.328l4.822-9.738l-13.099,0.48l7.485-6.598l4.875-9.316l0.056-3.404l-15.079,0.135l-8.165-7.887z"/>
					<text transform="matrix(1 0 0 1 388.457 879.2998)"><tspan x="0" y="0" style="fill:#000000;stroke:none;">94010</tspan></text>
				</g>
				<g>
					<path d="M390.215,786.517l-5.897,0.07l-4.646,6.738l-15.706,2.584l7.087,7.213l14.288,12.656l5.669-3.404l0.281,0.135l3.744,0.205l3.686,0.064v-5.508l-4.195-0.885l-2.892-19.869h-1.418z"/>
					<text transform="matrix(1 0 0 1 386.8457 805.1494)"><tspan x="0" y="0" style="fill:#000000;stroke:none;">94005</tspan></text>
				</g>
				<g>
					<path d="M456.827,904.958l-26.191,9.188l-3.401,5.379l-6.064,5.373l22.562,15.311l-0.34-7.559l3.404-0.135l-4.084-4.148l8.391,0.475l0.34-8.162l17.52-4.148l-8.279-8.777l3.006-3.129l-6.861,0.334z"/>
					<text transform="matrix(1 0 0 1 434.3828 919.9229)"><tspan x="0" y="0" style="fill:#000000;stroke:none;">94002</tspan></text>
				</g>
				<g>
					<path d="M388.003,730.255l-2.268,2.25l-0.226,0.135l3.287,1.904l5.728,1.225l-2.268-7.893l-4.254,2.379z"/>
					<text transform="matrix(1 0 0 1 389.9121 735.3848)"><tspan x="0" y="0" style="fill:#000000;stroke:none;">94105</tspan></text>
				</g>
				<g>
					<path d="M379.047,727.466l1.699,4.219l3.29,2.32l1.474-1.365l0.226-0.135l-0.794-4.014l-0.284-1.834l-5.61,0.809z"/>
					<text transform="matrix(1 0 0 1 349.6084 733.3242)"><tspan x="0" y="0" style="fill:#000000;stroke:none;">94108</tspan></text>
				</g>
				<g>
					<path d="M384.941,728.491l0.794,4.014l2.268-2.25l-3.062-1.764z"/>
					<text transform="matrix(1 0 0 1 385.6592 730.6826)"><tspan x="0" y="0" style="fill:#000000;stroke:none;">94104</tspan></text>
				</g>
				<g>
					<path d="M444.241,1093.343l10.037-0.275l21.826,10.547l8.221,6.809l4.418,11.631l22.682-0.07l-22.904-23.742l-11.789-3.199l-14.177-13.195l-9.354-0.205l-8.051,1.969l-0.908,9.732z"/>
					<text transform="matrix(1 0 0 1 470.9551 1107.1768)"><tspan x="0" y="0" style="fill:#000000;stroke:none;">94021</tspan></text>
				</g>
			</g>
			<text transform="matrix(1 0 0 1 905.1924 640.7705)"><tspan x="0" y="0" style="fill:#000000;stroke:none; font-size:72;">94</tspan></text>
		</g>
	</g>
</svg>
