<?xml version="1.0" encoding="iso-8859-1"?>
<!DOCTYPE svg PUBLIC "-//W3C//DTD SVG 20000303 Stylable//EN"   "http://www.w3.org/TR/2000/03/WD-SVG-20000303/DTD/svg-20000303-stylable.dtd">
<!-- Generator: Adobe Illustrator 9.0, SVG Export Plug-In  -->
<svg  width="656.087pt" height="749.457pt" viewBox="0 0 656.087 749.457" xml:space="preserve">
	<g id="Layer_x0020_1" style="fill-rule:nonzero;clip-rule:nonzero;fill:#FFFFFF;stroke:#000000;stroke-width:0.25;stroke-miterlimit:4; font-family:'ArialMT'; font-size:6;">
		<g style="stroke-miterlimit:1;">
			<g>
				<g>
					<path d="M40.679,150.124L0.088,190.331l73.928,41.297l0.284-17.962l11.338-10.614l-12.812-1.157l-6.407-9.656l3.686-19.324l-4.307-11.496l-5.502-10.614l-11.449,3.469l-8.168-4.148z"/>
					<text transform="matrix(1 0 0 1 34.5161 193.8755)"><tspan x="0" y="0" style="fill:#000000;stroke:none;">10998</tspan></text>
				</g>
				<g>
					<path d="M347.786,123.592l4.594,8.707l-6.234,10.816l11.848,8.845l9.58-1.632l5.104-13.131l-7.711-3.536l-8.508-16.327l-8.672,6.258z"/>
					<text transform="matrix(1 0 0 1 351.2275 145.9399)"><tspan x="0" y="0" style="fill:#000000;stroke:none;">10996</tspan></text>
				</g>
				<g>
					<path d="M351.618,324.247l3.328,8.452l-3.012,5.024l-3.357-0.378l1.025,3.384l-4.031,7.497l3.961,4.679l1.852,0.021l1.506,0.067l10.26,0.272l10.945-4.898l-2.039-9.662l-7.148-0.677l1.307-11.771l-2.783,8.03l-2.156-13.336l-9.656,3.296z"/>
					<text transform="matrix(1 0 0 1 354.2275 346.9399)"><tspan x="0" y="0" style="fill:#000000;stroke:none;">10994</tspan></text>
				</g>
				<g>
					<path d="M352.72,260.743l0.738,5.238l-4.313-1.225l4.535,2.856l12.305-0.542l-3.176-10.409l-10.09,4.081z"/>
					<text transform="matrix(1 0 0 1 358.3096 265.8872)"><tspan x="0" y="0" style="fill:#000000;stroke:none;">10993</tspan></text>
				</g>
				<g>
					<path d="M248.063,105.223l-4.989,15.17l8.394,2.722l12.753-4.421l1.646-10.137l4.986-0.067l-21.088-3.267h-1.702z"/>
					<text transform="matrix(1 0 0 1 245.1177 117.1704)"><tspan x="0" y="0" style="fill:#000000;stroke:none;">10992</tspan></text>
				</g>
				<g>
					<path d="M115.233,188.901l-8.391,3.536l-5.73-5.915l-15.475,16.529L74.3,213.666l-0.284,17.962l76.594,44.355l11.335-8.37l28.746-41.496l9.923-5.921l-27.325-21.158l-18.372,3.744l-13.942-10.752l-1.588-6.188l-6.24,0.882l-15.363,8.03l-2.549-5.854z"/>
					<text transform="matrix(1 0 0 1 128.9692 233.9126)"><tspan x="0" y="0" style="fill:#000000;stroke:none;">10990</tspan></text>
				</g>
				<g>
					<path d="M376.304,287.274l-1.189,1.157l10.09,9.592l-0.627,13.063l-11.109,4.286l-7.254,10.884l-1.307,11.771l7.148,0.677l20.578,1.228l4.359-30.48l-18.141-22.925l-2.549,0.747z"/>
					<text transform="matrix(1 0 0 1 373.8584 330.0645)"><tspan x="0" y="0" style="fill:#000000;stroke:none;">10989</tspan></text>
				</g>
				<g>
					<path d="M203.9,228.973l2.663,77.689l4.934,2.654l27.041-23.81l-0.68-31.77l7.711-14.561l-5.783-6.393l2.722-14.971L203.9,228.973z"/>
					<text transform="matrix(1 0 0 1 211.9771 269.4399)"><tspan x="0" y="0" style="fill:#000000;stroke:none;">10987</tspan></text>
				</g>
				<g>
					<path d="M337.696,200.195l-7.031,6.056l-1.471,1.157l-1.986,12.653l9.75,10.679l0.797,7.348l20.467,2.654l-1.254-13.878l13.441-16.192l-10.488-7.345l-3.176-7.825l-3.516,4.488l-3.967-4.421l-0.117,6.463l-11.449-1.837z"/>
					<text transform="matrix(1 0 0 1 340.4639 221.1216)"><tspan x="0" y="0" style="fill:#000000;stroke:none;">10986</tspan></text>
				</g>
				<g>
					<path d="M136.151,4.468l-13.037,3.267l-3.006,4.898l31.354,3.741l8.728-9.595l-15.308-6.665l-8.73,4.354z"/>
					<text transform="matrix(1 0 0 1 132.4771 11.1899)"><tspan x="0" y="0" style="fill:#000000;stroke:none;">10985</tspan></text>
				</g>
				<g>
					<path d="M357.823,378.572l-0.51,7.008l32.367,17.414l-2.15-4.688l-4.594-5.309l3.627-6.328l-1.811-2.449l-9.469-6.809l-0.346,4.699l-10.488-1.289l0.176-5.039l-6.803,2.789z"/>
					<text transform="matrix(1 0 0 1 362.4736 389.8901)"><tspan x="0" y="0" style="fill:#000000;stroke:none;">10983</tspan></text>
				</g>
				<g>
					<path d="M305.039,228.428l-16.327,14.016l29.707,13.945l15.023,0.68l12.188,2.042l7.09,1.632l10.09-4.081l2.719-2.994l-7.307-2.927l3.797-8.505l-3.797-1.494l-20.467-2.654l-0.797-7.348l-9.75-10.679l1.986-12.653l-24.155,21.021z"/>
					<text transform="matrix(1 0 0 1 310.7271 241.9399)"><tspan x="0" y="0" style="fill:#000000;stroke:none;">10980</tspan></text>
				</g>
				<g>
					<path d="M313.318,292.72l0.401,4.737l-9.073,1.497l7.655,2.854l-5.127,4.257l-2.927-0.557l2.379,8.912l4.538,0.34l0.565,4.148l-4.937,0.955l3.498,2.646l2.273,5.754l-2.897,1.901l-2.985,1.875l3.349,6.598l-4.822-1.494l-7.028,16.939l17.235,9.185l2.353-0.193
						l6.416-2.968l0.691-5.209l-0.223-1.632l-0.932-6.425l3.762-20.59l2.73-3.19l1.471-14.423l-6.686-1.292l0.51-10.342l-0.398-5.511l-11.792,1.228z"/>
					<text transform="matrix(1 0 0 1 303.5845 353.1313)"><tspan x="0" y="0" style="fill:#000000;stroke:none;">10977</tspan></text>
				</g>
				<g>
					<path d="M386.563,386.669l-3.627,6.328l4.594,5.309l11.561,0.129l-2.719-18.023l-9.809,6.258z"/>
					<text transform="matrix(1 0 0 1 382.5527 395.7759)"><tspan x="0" y="0" style="fill:#000000;stroke:none;">10976</tspan></text>
				</g>
				<g>
					<path d="M242.508,217.814l-2.722,14.971l5.783,6.393l14.684-24.287l-3.12-1.427l-14.625,4.351z"/>
					<text transform="matrix(1 0 0 1 238.1743 225.3218)"><tspan x="0" y="0" style="fill:#000000;stroke:none;">10975</tspan></text>
				</g>
				<g>
					<path d="M252.712,273.329l-14.174,12.179l-27.041,23.81l22.506,11.092l4.081-6.806l24.606,3.267l-3.343,5.104l16.72-15.038l4.652,0.34l25.907-28.98l-53.915-4.966z"/>
					<text transform="matrix(1 0 0 1 250.7153 300.6509)"><tspan x="0" y="0" style="fill:#000000;stroke:none;">10974</tspan></text>
				</g>
				<g>
					<path d="M50.771,119.374l-1.869,11.906l-13.72,13.403l5.496,5.44l8.168,4.148l11.449-3.469l5.502,10.614l4.532-3.674l9.867,10.682L102.7,146.18l-7.652-1.564l-1.755-5.174l-6.012,4.017l-4.195-8.027l-7.31-2.997l17.007-14.965l-42.012,1.904z"/>
					<text transform="matrix(1 0 0 1 60.5962 145.9487)"><tspan x="0" y="0" style="fill:#000000;stroke:none;">10973</tspan></text>
				</g>
				<g>
					<path d="M288.712,242.444l-36,30.885l53.915,4.966l-0.791,11.224l-3.803,1.43l11.285,1.772l11.792-1.228l0.398,5.511l6.779,0.615l1.834-19.257l7.828-1.494l-12.645-2.789l-1.365-8.64l6.75-2.587l-1.248-5.783l-15.023-0.68l-29.707-13.945z"/>
					<text transform="matrix(1 0 0 1 282.2271 265.6899)"><tspan x="0" y="0" style="fill:#000000;stroke:none;">10970</tspan></text>
				</g>
				<g>
					<path d="M387.53,372.179l-2.777,12.041l1.811,2.449l9.809-6.258l7.031-3l-11.906-0.129l-1.02-5.988l-2.947,0.885z"/>
					<text transform="matrix(1 0 0 1 382.9072 378.0269)"><tspan x="0" y="0" style="fill:#000000;stroke:none;">10968</tspan></text>
				</g>
				<g>
					<path d="M351.384,352.925l-7.928,3.22l-0.656-3.343l-18.146,0.463l0.223,1.632l-0.691,5.209l-6.416,2.968l-2.353,0.193l41.897,22.313l0.51-7.008l-6.182-2.517l3.973-6.46l-3.516-5.716l11.051-10.614l-10.26-0.272l-1.506-0.067z"/>
					<text transform="matrix(1 0 0 1 328.3457 368.6099)"><tspan x="0" y="0" style="fill:#000000;stroke:none;">10965</tspan></text>
				</g>
				<g>
					<path d="M387.53,398.306l2.15,4.688l9.926,5.379l-0.516-9.938l-11.561-0.129z"/>
					<text transform="matrix(1 0 0 1 385.5459 404.1665)"><tspan x="0" y="0" style="fill:#000000;stroke:none;">10964</tspan></text>
				</g>
				<g>
					<path d="M26.622,65.968l-8.109,9.393l4.307,9.932L11.54,97.875l6.75-0.882L1.62,117.947l0.51,5.101l12.697-0.952l8.391-18.574l10.547,5.854l10.77-3.334L48.56,86.79l7.714-0.683l15.19-15.782l-3.398-6.738l-41.443,2.382z"/>
					<text transform="matrix(1 0 0 1 28.6938 84.8198)"><tspan x="0" y="0" style="fill:#000000;stroke:none;">10963</tspan></text>
				</g>
				<g>
					<path d="M385.772,358.436l-9.521,8.162l-0.457,5.648l-20.18-2.651l-3.973,6.46l6.182,2.517l6.803-2.789l-0.176,5.039l10.488,1.289l0.346-4.699l9.469,6.809l2.777-12.041l-1.758-13.743z"/>
					<text transform="matrix(1 0 0 1 355.8867 377.4409)"><tspan x="0" y="0" style="fill:#000000;stroke:none;">10962</tspan></text>
				</g>
				<g>
					<path d="M372.056,338.705l2.039,9.662l8.104-3.401l3.574,13.471l1.758,13.743l2.947-0.885l2.156-31.362l-20.578-1.228z"/>
					<text transform="matrix(1 0 0 1 379.3389 347.4429)"><tspan x="0" y="0" style="fill:#000000;stroke:none;">10960</tspan></text>
				</g>
				<g>
					<path d="M92.783,117.469l-17.007,14.965l7.31,2.997l4.195,8.027l6.012-4.017l1.755,5.174l7.652,1.564l-22.503,22.245l-9.867-10.682l-4.532,3.674l4.307,11.496l-3.686,19.324l6.407,9.656l12.812,1.157l15.475-16.529l5.73,5.915l8.391-3.536l20.748-10.477
						l-14.798-7.96l7.201-5.44l-18.141-17.689l2.61-2.786l-2.666-4.696l7.482-9.252l12.812-6.533l1.588-10.541l-39.287,3.943z"/>
					<text transform="matrix(1 0 0 1 92.4771 176.6899)"><tspan x="0" y="0" style="fill:#000000;stroke:none;">10958</tspan></text>
				</g>
				<g>
					<path d="M341.95,276.868l-7.828,1.494l-1.834,19.257l-6.779-0.615l-0.51,10.342l6.686,1.292l-1.471,14.423l1.172,3.688l9.709-1.972l10.523-0.53l9.656-3.296l2.156,13.336l2.783-8.03l4.816-34.966l4.705,0.27l-0.621-3.129l1.189-1.157l-26.25-11.496l-8.104,1.09
						z"/>
					<text transform="matrix(1 0 0 1 338.9775 305.6899)"><tspan x="0" y="0" style="fill:#000000;stroke:none;">10956</tspan></text>
				</g>
				<g>
					<path d="M341.095,324.777l-9.709,1.972l-1.172-3.688l-2.73,3.19l-3.762,20.59l0.932,6.425l18.146-0.463l0.656,3.343l7.928-3.22l-1.852-0.021l-3.961-4.679l4.031-7.497l-1.025-3.384l3.357,0.378l3.012-5.024l-3.328-8.452l-10.523,0.53z"/>
					<text transform="matrix(1 0 0 1 326.4775 348.4399)"><tspan x="0" y="0" style="fill:#000000;stroke:none;">10954</tspan></text>
				</g>
				<g>
					<path d="M215.124,186.522l-0.68,16.055L203.9,221.42v7.553l38.607-11.159l14.625-4.351l4.649-1.635l0.738-15.237l-6.577-24.018l-10.714-7.412l-6.973-3.542l-2.836,9.729l-20.297,15.173z"/>
					<text transform="matrix(1 0 0 1 229.3638 199.2964)"><tspan x="0" y="0" style="fill:#000000;stroke:none;">10950</tspan></text>
				</g>
				<g>
					<path d="M98.335,29.845l-1.02,1.77L74.81,63.452l-6.744,0.135l3.398,6.738l-15.19,15.782L48.56,86.79l-4.025,19.251l-10.77,3.334l-10.547-5.854l-8.391,18.574l35.944-2.722l42.012-1.904l39.287-3.943l26.646-2.112l-7.822-10.951l28.4-6.19l8.168-18.911
						L172.04,64.952L106.784,21.75l-8.449,8.095z M124.925,56.309l-4.477-6.938l11.622-2.59l-7.146,9.527z"/>
					<text transform="matrix(1 0 0 1 102.0493 82.4243)"><tspan x="0" y="0" style="fill:#000000;stroke:none;">10940</tspan></text>
				</g>
				<g>
					<path d="M234.003,320.409l20.695,10.611l-1.532-6.735l6.182-2.312l3.343-5.104l-24.606-3.267l-4.081,6.806z"/>
					<text transform="matrix(1 0 0 1 239.4985 322.813)"><tspan x="0" y="0" style="fill:#000000;stroke:none;">10931</tspan></text>
				</g>
				<g>
					<path d="M281.341,136.585l-36.111,28.576l10.714,7.412l6.577,24.018l-0.738,15.237l8.335,0.814l3.97-5.235l30.952,21.021l24.155-21.021l1.471-1.157l-28.632-30.612l8.224-19.731l-28.916-19.321z M275.165,194.415l-10.664-4.764l1.816-17.35l11.848,0.955
						l2.496,14.15l-5.496,7.008z"/>
					<text transform="matrix(1 0 0 1 273.6021 166.0083)"><tspan x="0" y="0" style="fill:#000000;stroke:none;">10930</tspan></text>
				</g>
				<g>
					<path d="M347.786,123.592l-26.42,17.619l-3.457,4.969l2.947,0.814l-10.6,8.912l-8.224,19.731l28.632,30.612l7.031-6.056l13.324-11.361l-1.588-2.789l3.117,1.632l13.266-20.543l1.758-16.805l-9.58,1.632l-11.848-8.845l6.234-10.816l-4.594-8.707z"/>
					<text transform="matrix(1 0 0 1 326.4541 167.9214)"><tspan x="0" y="0" style="fill:#000000;stroke:none;">10928</tspan></text>
				</g>
				<g>
					<path d="M353.681,267.613l-0.85,4.151l-2.777,4.014l26.25,11.496l2.549-0.747l-10.43-8.438l-2.438-11.019l-12.305,0.542z"/>
					<text transform="matrix(1 0 0 1 364.4502 280.1724)"><tspan x="0" y="0" style="fill:#000000;stroke:none;">10927</tspan></text>
				</g>
				<g>
					<path d="M257.133,213.463l3.12,1.427l-14.684,24.287l-7.711,14.561l0.68,31.77l14.174-12.179l36-30.885l16.327-14.016l-30.952-21.021l-3.97,5.235l-8.335-0.814l-4.649,1.635z"/>
					<text transform="matrix(1 0 0 1 258.1021 239.4575)"><tspan x="0" y="0" style="fill:#000000;stroke:none;">10926</tspan></text>
				</g>
				<g>
					<path d="M200.613,220.196l-9.923,5.921l-28.746,41.496l-11.335,8.37l55.954,30.68l-2.663-77.689v-7.553l-3.287-1.225z"/>
					<text transform="matrix(1 0 0 1 176.9771 268.9399)"><tspan x="0" y="0" style="fill:#000000;stroke:none;">10925</tspan></text>
				</g>
				<g>
					<path d="M132.07,113.526l-1.588,10.541l-12.812,6.533l-7.482,9.252l2.666,4.696l-2.61,2.786l18.141,17.689l-7.201,5.44l14.798,7.96l0.627-0.202l9.973-5.309l9.188,2.247l30.896-25.31l15.363-3.943l-0.967-13.541l-34.066-21.565l-8.279,0.612l-26.646,2.112z"/>
					<text transform="matrix(1 0 0 1 147.7603 147.6128)"><tspan x="0" y="0" style="fill:#000000;stroke:none;">10924</tspan></text>
				</g>
				<g>
					<path d="M333.442,257.069l1.248,5.783l-6.75,2.587l1.365,8.64l12.645,2.789l8.104-1.09l2.777-4.014l-7.424,1.904l-6.012-5.238l4.875-1.837l1.359-7.482l-12.188-2.042z"/>
					<text transform="matrix(1 0 0 1 322.9453 272.7183)"><tspan x="0" y="0" style="fill:#000000;stroke:none;">10923</tspan></text>
				</g>
				<g>
					<path d="M136.608,178.222l1.699,6.94l-5.162,1.562l6.24-0.882l1.588,6.188l13.942,10.752l18.372-3.744l-17.52-23.877l-9.188-2.247l-9.973,5.309z"/>
					<text transform="matrix(1 0 0 1 144.3716 188.3491)"><tspan x="0" y="0" style="fill:#000000;stroke:none;">10921</tspan></text>
				</g>
				<g>
					<path d="M375.114,288.431l0.621,3.129l-4.705-0.27l-4.816,34.966l7.254-10.884l11.109-4.286l0.627-13.063l-10.09-9.592z"/>
					<text transform="matrix(1 0 0 1 367.3643 310.3452)"><tspan x="0" y="0" style="fill:#000000;stroke:none;">10920</tspan></text>
				</g>
				<g>
					<path d="M124.925,56.309l7.146-9.527l-11.622,2.59l4.477,6.938z"/>
					<text transform="matrix(1 0 0 1 117.9126 54.5454)"><tspan x="0" y="0" style="fill:#000000;stroke:none;">10919</tspan></text>
				</g>
				<g>
					<path d="M155.769,175.161l17.52,23.877l27.325,21.158l3.287,1.225l10.544-18.844l0.68-16.055l1.02-12.996l-14.115-27.618l-15.363,3.943l-30.896,25.31z"/>
					<text transform="matrix(1 0 0 1 182.6079 185.6655)"><tspan x="0" y="0" style="fill:#000000;stroke:none;">10918</tspan></text>
				</g>
				<g>
					<path d="M275.165,194.415l5.496-7.008l-2.496-14.15l-11.848-0.955l-1.816,17.35l10.664,4.764z"/>
					<text transform="matrix(1 0 0 1 264.2358 186.3579)"><tspan x="0" y="0" style="fill:#000000;stroke:none;">10917</tspan></text>
				</g>
				<g>
					<path d="M187.462,75.361l-8.168,18.911l-28.4,6.19l7.822,10.951l8.279-0.612l34.066,21.565l35.666-22.992l0.732-4.222l-8.218-21.565l-1.304-0.475l-11.057-5.44l-17.01-8.37l-12.41,6.059z"/>
					<text transform="matrix(1 0 0 1 193.2271 104.9399)"><tspan x="0" y="0" style="fill:#000000;stroke:none;">10916</tspan></text>
				</g>
				<g>
					<path d="M237.46,105.153l-0.732,4.222l-35.666,22.992l0.967,13.541l14.115,27.618l-1.02,12.996l20.297-15.173l2.836-9.729l6.973,3.542l36.111-28.576l-4.816-3.401l2.438-27.891l-1.872-0.07l-8.162-0.135l-19.163,0.135l21.088,3.267l-4.986,0.067l-1.646,10.137
						l-12.753,4.421l-8.394-2.722l4.989-15.17l-10.603-0.07z"/>
					<text transform="matrix(1 0 0 1 225.356 142.8052)"><tspan x="0" y="0" style="fill:#000000;stroke:none;">10914</tspan></text>
				</g>
				<g>
					<path d="M363.149,353.265l-11.051,10.614l3.516,5.716l20.18,2.651l0.457-5.648l9.521-8.162l-3.574-13.471l-8.104,3.401l-10.945,4.898z"/>
					<text transform="matrix(1 0 0 1 362.2256 363.9409)"><tspan x="0" y="0" style="fill:#000000;stroke:none;">10913</tspan></text>
				</g>
				<g>
					<path d="M351.021,188.833l-13.324,11.361l11.449,1.837l0.117-6.463l3.967,4.421l-2.209-11.156z"/>
					<text transform="matrix(1 0 0 1 331.3301 201.4399)"><tspan x="0" y="0" style="fill:#000000;stroke:none;">10911</tspan></text>
				</g>
				<g>
					<path d="M306.627,278.294l-25.907,28.98l-4.652-0.34l-16.72,15.038l-6.182,2.312l1.532,6.735l43.482,23.063l7.028-16.939l-8.505-4.559l3.973-6.396l-1.134-12.381l7.084,0.612l-2.379-8.912l2.927,0.557l5.127-4.257l-7.655-2.854l9.073-1.497l-0.401-4.737
						l-11.285-1.772l3.803-1.43l0.791-11.224z"/>
					<text transform="matrix(1 0 0 1 275.5962 329.1899)"><tspan x="0" y="0" style="fill:#000000;stroke:none;">10901</tspan></text>
				</g>
				<g>
					<path d="M458.962,478.105l5.502,6.252l7.143-10.336l-2.045,7.617l7.318-5.438l-0.627-7.488l-2.607,1.295l-1.986-3.943l-12.697,12.041z"/>
					<text transform="matrix(1 0 0 1 465.248 476.5493)"><tspan x="0" y="0" style="fill:#000000;stroke:none;">10805</tspan></text>
				</g>
				<g>
					<path d="M459.472,431.025l-1.189,5.988l-3.404,19.389l0.229,0.205l21.035-5.783l-2.215-14.15l-2.209-14.086l-10.658,2.379l-1.588,6.059z"/>
					<text transform="matrix(1 0 0 1 457.5811 448.103)"><tspan x="0" y="0" style="fill:#000000;stroke:none;">10804</tspan></text>
				</g>
				<g>
					<path d="M451.022,463.544l-2.32,9.592l-4.025,7.553l1.816,0.545l15.246,4.693l2.725-1.57l-5.502-6.252l-3.855-21.498l-4.084,6.938z"/>
					<text transform="matrix(1 0 0 1 445.2197 480.4761)"><tspan x="0" y="0" style="fill:#000000;stroke:none;">10803</tspan></text>
				</g>
				<g>
					<path d="M455.106,456.607l3.855,21.498l12.697-12.041l1.986,3.943l0.738-5.514l5.379,2.18l2.666-4.148l-4.529-2.039l-1.758-9.662l-21.035,5.783z"/>
					<text transform="matrix(1 0 0 1 461.2227 462.6313)"><tspan x="0" y="0" style="fill:#000000;stroke:none;">10801</tspan></text>
				</g>
				<g>
					<path d="M419.388,420.138l-1.922,16.535l11.391,5.373l9.979-1.225l6.123-16.195l-4.313-4.488l2.836-4.219l-11.73,1.91l-12.363,2.309z"/>
					<text transform="matrix(1 0 0 1 421.8115 430.0679)"><tspan x="0" y="0" style="fill:#000000;stroke:none;">10710</tspan></text>
				</g>
				<g>
					<path d="M456.524,437.013l-4.992-4.424l2.098,3.879l-5.438,3.469l4.359,2.109l3.973-5.033z"/>
					<text transform="matrix(1 0 0 1 444.0107 440.3179)"><tspan x="0" y="0" style="fill:#000000;stroke:none;">10709</tspan></text>
				</g>
				<g>
					<path d="M456.524,437.013l-3.973,5.033l-2.438,4.014l-11.279-5.238l-9.979,1.225l-2.719,6.393l-0.516,4.764l9.129,2.314l3.574-4.898l16.553,5.783l3.404-19.389h-1.758z"/>
					<text transform="matrix(1 0 0 1 431.4775 449.1519)"><tspan x="0" y="0" style="fill:#000000;stroke:none;">10708</tspan></text>
				</g>
				<g>
					<path d="M444.958,424.626l-6.123,16.195l11.279,5.238l2.438-4.014l-4.359-2.109l5.438-3.469l-2.098-3.879l4.992,4.424h1.758l1.189-5.988l-6.24-0.41l1.816-6.053l-3.738-4.213l-6.352,4.277z"/>
					<text transform="matrix(1 0 0 1 440.4775 430.1929)"><tspan x="0" y="0" style="fill:#000000;stroke:none;">10707</tspan></text>
				</g>
				<g>
					<path d="M410.317,403.884l-2.777,18.568l4.652-0.955l7.195-1.359l12.363-2.309l0.738-4.359l-10.605,1.5l3.287-6.803l-14.854-4.283z"/>
					<text transform="matrix(1 0 0 1 405.5488 417.939)"><tspan x="0" y="0" style="fill:#000000;stroke:none;">10706</tspan></text>
				</g>
				<g>
					<path d="M397.052,457.761l-1.986,6.463l18.205,6.463l4.248-18.1l-20.467,5.174z"/>
					<text transform="matrix(1 0 0 1 395.6016 464.3901)"><tspan x="0" y="0" style="fill:#000000;stroke:none;">10705</tspan></text>
				</g>
				<g>
					<path d="M417.519,452.587l-4.248,18.1l6.006,2.045l4.816,1.559l4.541-6.387l4.248-8.373l1.869-4.014l-9.129-2.314l0.516-4.764l0.563-4.623l-9.182,8.771z"/>
					<text transform="matrix(1 0 0 1 416.4775 462.4429)"><tspan x="0" y="0" style="fill:#000000;stroke:none;">10704</tspan></text>
				</g>
				<g>
					<path d="M412.192,421.498l-1.588,3.609l5.443,1.77l0.563,0.34l-0.809-0.211l-1.4,5.449l-5.104-2.244l-5.73,17.479l5.391,0.281l8.508-11.297l1.922-16.535l-7.195,1.359z"/>
					<text transform="matrix(1 0 0 1 403.1357 437.0542)"><tspan x="0" y="0" style="fill:#000000;stroke:none;">10703</tspan></text>
				</g>
				<g>
					<path d="M407.54,422.453l-10.488,35.309l20.467-5.174l9.182-8.771l-0.563,4.623l2.719-6.393l-11.391-5.373l-8.508,11.297l-5.391-0.281l5.73-17.479l5.104,2.244l1.4-5.449l0.809,0.211l-0.563-0.34l-5.443-1.77l1.588-3.609l-4.652,0.955z"/>
					<text transform="matrix(1 0 0 1 394.9727 452.6323)"><tspan x="0" y="0" style="fill:#000000;stroke:none;">10701</tspan></text>
				</g>
				<g>
					<path d="M444.278,374.151l0.516,1.119l-1.939,4.374l-3.422-3.548l-6.1,11.476l3.914-1.172l10.148-4.359l17.859,1.91l4.764-3.334l0.281,0.064l1.02-3.949l-15.475-2.648l-11.566,0.067z"/>
					<text transform="matrix(1 0 0 1 445.4707 381.4966)"><tspan x="0" y="0" style="fill:#000000;stroke:none;">10607</tspan></text>
				</g>
				<g>
					<path d="M470.3,380.681l-0.281-0.064l-4.764,3.334l-3.234,4.488l4.424,3.539l11.678,15.504l-3.797-17.543l-2.32-8.027l-0.686-5.18l-1.02,3.949z"/>
					<text transform="matrix(1 0 0 1 469.0693 396.1147)"><tspan x="0" y="0" style="fill:#000000;stroke:none;">10606</tspan></text>
				</g>
				<g>
					<path d="M484.017,383.88l-9.691,6.059l3.797,17.543l10.664,11.232l10.881-11.977l5.045-9.662l-15.926-12.105l-4.77-1.09z"/>
					<text transform="matrix(1 0 0 1 481.1709 405.9614)"><tspan x="0" y="0" style="fill:#000000;stroke:none;">10605</tspan></text>
				</g>
				<g>
					<path d="M478.122,362.382l-0.738,10.682l4.084,7.207l2.549,3.609l4.77,1.09l5.039-13.063l6.182-1.087l3.967-13.269l-1.477-9.662l-4.131,7.893l-13.664-2.924l0.68,7.893l-7.26,1.632z"/>
					<text transform="matrix(1 0 0 1 479.5088 370.5947)"><tspan x="0" y="0" style="fill:#000000;stroke:none;">10604</tspan></text>
				</g>
				<g>
					<path d="M476.593,356.122l-3.744,8.505l-5.156-6.19l-9.809-1.77l-2.039,17.417l15.475,2.648l0.686,5.18l9.463-1.641l-4.084-7.207l0.738-10.682l-1.529-6.261z"/>
					<text transform="matrix(1 0 0 1 460.3115 372.0151)"><tspan x="0" y="0" style="fill:#000000;stroke:none;">10603</tspan></text>
				</g>
				<g>
					<path d="M472.005,381.912l2.32,8.027l9.691-6.059l-2.549-3.609l-9.463,1.641z"/>
					<text transform="matrix(1 0 0 1 475.3389 386.103)"><tspan x="0" y="0" style="fill:#000000;stroke:none;">10601</tspan></text>
				</g>
				<g>
					<path d="M464.634,174l-1.758,3.132l2.941,0.34l-6.967,4.626l-6.299-0.337l-9.012,5.373l0.51,9.932l-5.385,2.924l-0.105-7.02l0.445-8.493l-5.385-1.289v-5.376l-7.939,0.885l-2.889,1.157l1.529,10.137l1.195,9.319l0.217,1.084l0.322,2.42l0.363,2.221l0.463,3.428
						l8.854,1.304l1.008,5.042l-8.414,3.041l2.402,14.186l4.418-2.314l-4.084,5.036l1.588,10.477l0.229,1.427l0.68,4.764l2.443,16.939l25.617-3.196l4.143-0.545l6.861-6.533l2.66,5.309l8.25-1.125l0.012-0.003l0.252-1.62l5.514-8.558l-1.436-9.331l-0.908-1.951
						l-6.691,4.898l-5.613-33.812l-1.816-12.179l-3.855-26.191L464.634,174z"/>
					<text transform="matrix(1 0 0 1 444.2275 232.1899)"><tspan x="0" y="0" style="fill:#000000;stroke:none;">10598</tspan></text>
				</g>
				<g>
					<path d="M574.896,195.367l-3.176,9.319l2.385,8.842l8.959,5.104l12.697-4.283l4.875-6.533l-0.961-6.668l-20.297-0.34l0.398-5.918l-4.881,0.478z"/>
					<text transform="matrix(1 0 0 1 577.833 209.7603)"><tspan x="0" y="0" style="fill:#000000;stroke:none;">10597</tspan></text>
				</g>
				<g>
					<path d="M486.741,325.782l-8.162,2.924l-0.281,10.752l-12.932,1.02l-6.234,7.89l-3.516-2.924l1.137,10.544l1.131,0.68l9.809,1.77l5.156,6.19l3.744-8.505l15.193-28.028l-5.045-2.312z"/>
					<text transform="matrix(1 0 0 1 461.7295 352.9399)"><tspan x="0" y="0" style="fill:#000000;stroke:none;">10595</tspan></text>
				</g>
				<g>
					<path d="M461.171,328.571l4.195,11.906l12.932-1.02l0.281-10.752l8.162-2.924l-13.553-9.729l-7.424,3.606l-4.594,8.912z"/>
					<text transform="matrix(1 0 0 1 462.1104 329.2651)"><tspan x="0" y="0" style="fill:#000000;stroke:none;">10594</tspan></text>
				</g>
				<g>
					<path d="M418.368,321.153l-2.379,27.009l4.652,5.783l-3.176,20.751l4.828-3.217l3.457-1.072l6.563-1.02l0.176-4.081l8.789,1.362l5.039-1.362l-7.482-8.845l2.326-5.646l-5.215-2.587l2.549-6.8l0.568-0.683l0.568-1.564l-1.137,1.362l-0.627,0.817l-5.607-1.43
						l0.621-8.979l-2.326-5.851l-12.188-3.949z"/>
					<text transform="matrix(1 0 0 1 418.2939 348.9263)"><tspan x="0" y="0" style="fill:#000000;stroke:none;">10591</tspan></text>
				</g>
				<g>
					<path d="M583.063,218.631l7.031,10.137l7.934,9.932l3.686-0.882l-1.078,4.418l20.016,28.644l17.063-9.114l-37.078-53.95l-4.875,6.533l-12.697,4.283z"/>
					<text transform="matrix(1 0 0 1 602.0439 242.3501)"><tspan x="0" y="0" style="fill:#000000;stroke:none;">10590</tspan></text>
				</g>
				<g>
					<path d="M503.411,169.105l-21.943,2.856l-12.475,1.564l3.855,26.191l14.461-6.188l3.199,6.791l3.609-10.438l0.428,5.604l11.25,1.271l11.754,10.204l10.975-6.021l7.541-16.122l0.281-19.523l-32.936,3.809z"/>
					<text transform="matrix(1 0 0 1 497.8252 185.6294)"><tspan x="0" y="0" style="fill:#000000;stroke:none;">10589</tspan></text>
				</g>
				<g>
					<path d="M433.62,177.812v5.376l5.385,1.289l-0.445,8.493l0.105,7.02l5.385-2.924l-0.51-9.932l9.012-5.373l6.809-6.668l-25.74,2.719z"/>
					<text transform="matrix(1 0 0 1 432.0469 184.5415)"><tspan x="0" y="0" style="fill:#000000;stroke:none;">10588</tspan></text>
				</g>
				<g>
					<path d="M466.444,391.978l-12.357,17.959l-4.535-4.424l1.758-8.707l-8.848,1.564l-1.582,10.271l-3.293-4.629l-5.098,9.457l-0.738,4.359l11.73-1.91l-2.836,4.219l4.313,4.488l6.352-4.277l3.738,4.213l-1.816,6.053l6.24,0.41l1.588-6.059l10.658-2.379
						l2.209,14.086l2.326-2.719l12.867-14.086l-0.334-1.154l-10.664-11.232l-11.678-15.504z"/>
					<text transform="matrix(1 0 0 1 458.5596 418.1099)"><tspan x="0" y="0" style="fill:#000000;stroke:none;">10583</tspan></text>
				</g>
				<g>
					<path d="M504.712,397.076l-5.045,9.662l13.664,13.061l-7.77,14.625l-0.334,9.393l8.273-0.615l6.744-9.246l-4.594,13.676l7.371-3.27l0.229-7.553l7.939-6.873l-1.131-5.309l6.457-1.816l0.059-0.018l-0.047-0.018l-3.691-1.137l2.66-6.059l-7.652-2.514
						l-10.096-12.182l-13.037-3.809z"/>
					<text transform="matrix(1 0 0 1 514.3525 424.1929)"><tspan x="0" y="0" style="fill:#000000;stroke:none;">10580</tspan></text>
				</g>
				<g>
					<path d="M408.788,107.47l-3.574,68.777l6.803-6.463l3.176,10.342l10.488-1.43l7.939-0.885l25.74-2.719v-0.34l2.719-42.659l16.553-18.229l-16.266,1.289l2.098-33.062l-12.193,0.885l-16.102,15.035l-19.957,12.108l-7.424-2.651z"/>
					<text transform="matrix(1 0 0 1 428.0752 138.6099)"><tspan x="0" y="0" style="fill:#000000;stroke:none;">10579</tspan></text>
				</g>
				<g>
					<path d="M536.065,184.82l-7.541,16.122l31.693-3.876l8.895-4.629l2.215-9.387l-11.455-2.651l-1.752,4.491l-3.973-1.84l0.457,4.626l-18.539-2.856z"/>
					<text transform="matrix(1 0 0 1 539.7275 195.1899)"><tspan x="0" y="0" style="fill:#000000;stroke:none;">10578</tspan></text>
				</g>
				<g>
					<path d="M503.974,357.551l-3.967,13.269l-6.182,1.087l-5.039,13.063l15.926,12.105l13.037,3.809l2.555-19.998l-9.416-13.333l-0.164-10.409l-6.75,0.407z"/>
					<text transform="matrix(1 0 0 1 499.2051 387.0151)"><tspan x="0" y="0" style="fill:#000000;stroke:none;">10577</tspan></text>
				</g>
				<g>
					<path d="M559.022,232.512l9.492,22.849l6.896,17.9l-16.611,5.921l3.568,23.742l58.283-32.045l-20.016-28.644l1.078-4.418l-3.686,0.882l-7.934-9.932l-31.072,3.744z"/>
					<text transform="matrix(1 0 0 1 576.3779 262.3462)"><tspan x="0" y="0" style="fill:#000000;stroke:none;">10576</tspan></text>
				</g>
				<g>
					<path d="M510.724,357.144l0.164,10.409l9.416,13.333l-2.555,19.998l10.096,12.182l7.652,2.514l3.346-1.494l1.359-15.51l-29.314-42.316l-0.164,0.885z"/>
					<text transform="matrix(1 0 0 1 519.46 401.9214)"><tspan x="0" y="0" style="fill:#000000;stroke:none;">10573</tspan></text>
				</g>
				<g>
					<path d="M465.425,306.188l-7.822,8.438l-11.109-0.205l-13.611,16.532l-0.621,8.979l5.607,1.43l0.627-0.817l1.137-1.362l10.318-16.802l4.699,10.069l6.521-3.879l4.594-8.912l7.424-3.606l13.553,9.729l5.045,2.312l-2.607-15.917l-19.219-10.547l-4.535,4.559z"/>
					<text transform="matrix(1 0 0 1 468.0205 315.4956)"><tspan x="0" y="0" style="fill:#000000;stroke:none;">10570</tspan></text>
				</g>
				<g>
					<path d="M415.192,180.126l-10.371,1.292l0.357-4.729l-4.893-2.408l-8.279,8.566l-36,4.354l8.959,13.538l18.539,9.114l-7.711,8.03l2.098,2.651l5.895,10.749l5.045,11.839l6.75-3.721l8.432,6.917l11.467-5.783l8.221,5.854l8.953-1.157l-1.588-10.477l4.084-5.036
						l-4.418,2.314l-2.402-14.186l8.414-3.041l-1.008-5.042l-8.854-1.304l-0.463-3.428l-0.363-2.221l-0.322-2.42l-0.217-1.084l-9.697,0.952l4.119-6.902l-0.328-4.966l1.84,4.21l2.871-2.613l-1.529-10.137l2.889-1.157l-10.488,1.43z M432.882,246.66l0.68,4.764
						l-6.744,1.975l-3.117-5.716l9.182-1.022z"/>
					<text transform="matrix(1 0 0 1 396.0303 217.8384)"><tspan x="0" y="0" style="fill:#000000;stroke:none;">10566</tspan></text>
				</g>
				<g>
					<path d="M415.479,279.112l-2.326,2.587l5.783,28.708l6.123,2.517l-0.568-8.845l5.895-9.797l13.154,2.042l5.385-7.28l-30.328-17.622l-3.117,7.69z"/>
					<text transform="matrix(1 0 0 1 416.7295 288.939)"><tspan x="0" y="0" style="fill:#000000;stroke:none;">10562</tspan></text>
				</g>
				<g>
					<path d="M536.856,165.024l-0.51,0.272l-0.281,19.523l18.539,2.856l-0.457-4.626l3.973,1.84l1.752-4.491l11.455,2.651l-2.215,9.387l-8.895,4.629l14.678-1.699l4.881-0.478l-0.398,5.918l20.297,0.34l2.15-35.985l-15.527,1.904l-11.795-6.328l-37.646,4.286z"/>
					<text transform="matrix(1 0 0 1 566.1006 176.9438)"><tspan x="0" y="0" style="fill:#000000;stroke:none;">10560</tspan></text>
				</g>
				<g>
					<path d="M443.317,461.98l-1.816,4.764l3.686,1.16l-4.934,2.648l1.301,3.879l7.148-1.295l2.32-9.592l-7.705-1.564z"/>
					<text transform="matrix(1 0 0 1 438.0459 467.8335)"><tspan x="0" y="0" style="fill:#000000;stroke:none;">10553</tspan></text>
				</g>
				<g>
					<path d="M434.751,455.517l-1.869,4.014l10.436,2.449l7.705,1.564l4.084-6.938l-0.229-0.205l-16.553-5.783l-3.574,4.898z"/>
					<text transform="matrix(1 0 0 1 436.9443 459.4429)"><tspan x="0" y="0" style="fill:#000000;stroke:none;">10552</tspan></text>
				</g>
				<g>
					<path d="M432.882,459.531l-4.248,8.373l3.287,3.533l4.084,7.213l8.672,2.039l4.025-7.553l-7.148,1.295l-1.301-3.879l4.934-2.648l-3.686-1.16l1.816-4.764l-10.436-2.449z"/>
					<text transform="matrix(1 0 0 1 423.4805 469.3569)"><tspan x="0" y="0" style="fill:#000000;stroke:none;">10550</tspan></text>
				</g>
				<g>
					<path d="M496.104,236.769l-9.135,4.04l0.908,1.951l1.436,9.331l-5.514,8.558l-0.252,1.62l-2.209,4.491l3.902,1.831l-4.412,3.466l-1.189,11.001l5.783-4.315l6.902,0.938l0.563,5.414l-4.078,2.651l6.451,1.017l1.354,8.962l5.355-18.056l2.801-0.422l7.652,14.426
						l12.234-4.043l-4.781-15.943h17.32l-10.641-2.991l1.957-2.323l-6.316-3.24l-17.086-4.321l-1.869-5.78l1.354-5.104l-7.137-2.517l0.879-7.942l-2.232-2.698z"/>
					<text transform="matrix(1 0 0 1 493.2256 274.4409)"><tspan x="0" y="0" style="fill:#000000;stroke:none;">10549</tspan></text>
				</g>
				<g>
					<path d="M366.606,226.046l-3.117,9.864l7.541,1.362l5.332,10.204l8.502,1.497l3.967-5.851l-5.045-11.839l-8.848,4.898l-2.941-8.3l-5.391-1.837z"/>
					<text transform="matrix(1 0 0 1 370.9072 243.5103)"><tspan x="0" y="0" style="fill:#000000;stroke:none;">10548</tspan></text>
				</g>
				<g>
					<path d="M421.45,192.604l-1.84-4.21l0.328,4.966l-4.119,6.902l9.697-0.952l-1.195-9.319l-2.871,2.613z"/>
					<text transform="matrix(1 0 0 1 412.7305 198.5796)"><tspan x="0" y="0" style="fill:#000000;stroke:none;">10547</tspan></text>
				</g>
				<g>
					<path d="M461.622,265.167l-2.49,10.271l6.633-10.816l-4.143,0.545z"/>
					<text transform="matrix(1 0 0 1 454.1006 273.0298)"><tspan x="0" y="0" style="fill:#000000;stroke:none;">10546</tspan></text>
				</g>
				<g>
					<path d="M476.253,433.955l11.906,5.098l-1.189,4.424l7.254,9.047l-1.248,3.264l6.352,0.205l2.209-4.623l-8.109-6.129l3.797,0.141l-1.014-3.879l4.025-0.475l-0.516,4.828l5.508-2.039l0.334-9.393l-15.645-6.527l-0.797-8.027l-12.867,14.086z"/>
					<text transform="matrix(1 0 0 1 489.0264 440.9272)"><tspan x="0" y="0" style="fill:#000000;stroke:none;">10543</tspan></text>
				</g>
				<g>
					<path d="M503.411,169.105l-1.137-7.62l5.561-11.634l-8.508,0.067l1.588-9.932l-2.098,4.424l-12.305-3.404l-2.098-5.101l-3.574,0.478l-1.811,15.1l5.725,2.18l-5.613,7.957l2.326,10.342l21.943-2.856z"/>
					<text transform="matrix(1 0 0 1 485.585 161.9351)"><tspan x="0" y="0" style="fill:#000000;stroke:none;">10541</tspan></text>
				</g>
				<g>
					<path d="M473.927,436.673l2.215,14.15l1.758,9.662l4.529,2.039l1.764,3.129l6.006-3.539l-1.301-6.328l5.326-3.264l-7.254-9.047l1.189-4.424l-11.906-5.098l-2.326,2.719z"/>
					<text transform="matrix(1 0 0 1 478.4443 452.3872)"><tspan x="0" y="0" style="fill:#000000;stroke:none;">10538</tspan></text>
				</g>
				<g>
					<path d="M560.218,197.066l-31.693,3.876l-10.975,6.021l-11.754-10.204l-11.25-1.271l-0.428-5.604l-3.609,10.438l-1.957,1.778l-11.391,9.729l-2.496,0.067l5.613,33.812l6.691-4.898l9.135-4.04l2.232,2.698l14.596-5.801l-2.889,6.056l6.293-2.109l13.037,6.19
						l2.607-4.559l7.822,20.347l5.877-9.943l5.771,9.571l17.063-3.858l-9.492-22.849l-0.111-0.343l7.822-8.774l-2.549-8.438l9.92-1.43l-2.385-8.842l3.176-9.319l-14.678,1.699z"/>
					<text transform="matrix(1 0 0 1 519.9326 223.7368)"><tspan x="0" y="0" style="fill:#000000;stroke:none;">10536</tspan></text>
				</g>
				<g>
					<path d="M459.36,174.753v0.34l-6.809,6.668l6.299,0.337l6.967-4.626l-2.941-0.34l1.758-3.132l-5.273,0.753z"/>
					<text transform="matrix(1 0 0 1 450.8428 181.0522)"><tspan x="0" y="0" style="fill:#000000;stroke:none;">10535</tspan></text>
				</g>
				<g>
					<path d="M425.751,370.407l-3.457,1.072l-4.828,3.217l-3.744,16.462l18.252-0.064l1.359-3.521l6.1-11.476l3.182-2.35l2.115-5.104l-3.451-1.975l-8.789-1.362l-0.176,4.081l-6.563,1.02z"/>
					<text transform="matrix(1 0 0 1 416.5498 385.439)"><tspan x="0" y="0" style="fill:#000000;stroke:none;">10533</tspan></text>
				</g>
				<g>
					<path d="M439.632,339.182l-0.568,1.564l-0.568,0.683l-2.549,6.8l5.215,2.587l15.592,5.171l-1.137-10.544l3.516,2.924l6.234-7.89l-4.195-11.906l-6.521,3.879l-4.699-10.069l-10.318,16.802z"/>
					<text transform="matrix(1 0 0 1 442.3115 342.1851)"><tspan x="0" y="0" style="fill:#000000;stroke:none;">10532</tspan></text>
				</g>
				<g>
					<path d="M447.396,382.041l-10.148,4.359l-2.66,4.219l9.633,2.648l-1.758,5.104l8.848-1.564l-1.758,8.707l4.535,4.424l12.357-17.959l-4.424-3.539l3.234-4.488l-17.859-1.91z"/>
					<text transform="matrix(1 0 0 1 443.167 395.4937)"><tspan x="0" y="0" style="fill:#000000;stroke:none;">10530</tspan></text>
				</g>
				<g>
					<path d="M488.786,418.714l0.334,1.154l0.797,8.027l15.645,6.527l7.77-14.625l-13.664-13.061l-10.881,11.977z"/>
					<text transform="matrix(1 0 0 1 492.7139 423.5835)"><tspan x="0" y="0" style="fill:#000000;stroke:none;">10528</tspan></text>
				</g>
				<g>
					<path d="M472.849,199.717l1.816,12.179l2.496-0.067l-0.85-9.117l12.24-0.612l1.957-1.778l-3.199-6.791l-14.461,6.188z"/>
					<text transform="matrix(1 0 0 1 477.1729 198.9644)"><tspan x="0" y="0" style="fill:#000000;stroke:none;">10527</tspan></text>
				</g>
				<g>
					<path d="M376.251,136.585l-8.508,35.851l-11.736,14.766l36-4.354l8.279-8.566l4.893,2.408l0.035-0.442l3.574-68.777l-16.951,1.632l-4.535,14.285l-10.828,8.232l-0.223,4.966z"/>
					<text transform="matrix(1 0 0 1 381.2275 154.1899)"><tspan x="0" y="0" style="fill:#000000;stroke:none;">10524</tspan></text>
				</g>
				<g>
					<path d="M441.161,350.816l-2.326,5.646l7.482,8.845l-5.039,1.362l3.451,1.975l-2.115,5.104l-3.182,2.35l3.422,3.548l1.939-4.374l-0.516-1.119l11.566-0.067l2.039-17.417l-1.131-0.68l-15.592-5.171z"/>
					<text transform="matrix(1 0 0 1 437.6719 360.7329)"><tspan x="0" y="0" style="fill:#000000;stroke:none;">10523</tspan></text>
				</g>
				<g>
					<path d="M413.722,391.158l-3.404,12.727l14.854,4.283l6.803-17.074l-18.252,0.064z"/>
					<text transform="matrix(1 0 0 1 412.8037 402.6304)"><tspan x="0" y="0" style="fill:#000000;stroke:none;">10522</tspan></text>
				</g>
				<g>
					<path d="M388.831,243.124l-3.967,5.851l4.365,4.693l18.146,17.145l-2.783,7.96l-4.535,0.34l1.699,12.996l13.723-12.996l3.117-7.69l17.408-3.059l-2.443-16.939l-6.744,1.975l-3.117-5.716l9.182-1.022l-0.229-1.427l-8.953,1.157l-8.221-5.854l-11.467,5.783
						l-8.432-6.917l-6.75,3.721z"/>
					<text transform="matrix(1 0 0 1 403.8369 262.2554)"><tspan x="0" y="0" style="fill:#000000;stroke:none;">10520</tspan></text>
				</g>
				<g>
					<path d="M574.104,213.528l-9.92,1.43l2.549,8.438l-7.822,8.774l0.111,0.343l31.072-3.744l-7.031-10.137l-8.959-5.104z"/>
					<text transform="matrix(1 0 0 1 566.4775 229.1899)"><tspan x="0" y="0" style="fill:#000000;stroke:none;">10518</tspan></text>
				</g>
				<g>
					<path d="M423.812,69.235l-41.836,5.101l-25.342,31.362l14.344,21.706l-3.633,4.963l8.906,4.219l0.223-4.966l10.828-8.232l4.535-14.285l16.951-1.632l7.424,2.651l19.957-12.108l-0.111-30.343l-12.246,1.564z"/>
					<text transform="matrix(1 0 0 1 390.5537 99.1294)"><tspan x="0" y="0" style="fill:#000000;stroke:none;">10516</tspan></text>
				</g>
				<g>
					<path d="M483.536,262.272l-8.25,1.125l-2.66-5.309l-6.861,6.533l-6.633,10.816l2.49-10.271l-25.617,3.196l-17.408,3.059l30.328,17.622l14.174,8.232l2.326,8.912l4.535-4.559l19.219,10.547l23.244-18.504l-7.652-14.426l-2.801,0.422l-5.355,18.056l-1.354-8.962
						l-6.451-1.017l4.078-2.651l-0.563-5.414l-6.902-0.938l-5.783,4.315l1.189-11.001l4.412-3.466l-3.902-1.831l2.209-4.491l-0.012,0.003z"/>
					<text transform="matrix(1 0 0 1 457.1592 288.1323)"><tspan x="0" y="0" style="fill:#000000;stroke:none;">10514</tspan></text>
				</g>
				<g>
					<path d="M529.661,56.379l-56.244,7.14l-37.359,4.151l0.111,30.343l16.102-15.035l12.193-0.885l-2.098,33.062l16.266-1.289l-16.553,18.229l-2.719,42.659l5.273-0.753l4.359-0.475l12.475-1.564l-2.326-10.342l5.613-7.957l-5.725-2.18l1.811-15.1l3.574-0.478
						l2.098,5.101l12.305,3.404l2.098-4.424l-1.588,9.932l8.508-0.067l-5.561,11.634l1.137,7.62l32.936-3.809l0.51-0.272l4.195-57.624l3.117-53.473l-14.508,2.452z"/>
					<text transform="matrix(1 0 0 1 488.2686 116.3403)"><tspan x="0" y="0" style="fill:#000000;stroke:none;">10512</tspan></text>
				</g>
				<g>
					<path d="M366.606,226.046l5.391,1.837l2.941,8.3l8.848-4.898l-5.895-10.749l-11.285,5.511z"/>
					<text transform="matrix(1 0 0 1 367.0713 231.3608)"><tspan x="0" y="0" style="fill:#000000;stroke:none;">10511</tspan></text>
				</g>
				<g>
					<path d="M448.925,289.043l-5.385,7.28l-13.154-2.042l-5.895,9.797l0.568,8.845l-6.123-2.517l-0.568,10.746l12.188,3.949l2.326,5.851l13.611-16.532l11.109,0.205l7.822-8.438l-2.326-8.912l-14.174-8.232z"/>
					<text transform="matrix(1 0 0 1 430.8896 307.9985)"><tspan x="0" y="0" style="fill:#000000;stroke:none;">10510</tspan></text>
				</g>
				<g>
					<path d="M541.052,107.4l-4.195,57.624l37.646-4.286l28.008-3.469l4.928-57.759l-66.387,7.89z"/>
					<text transform="matrix(1 0 0 1 563.7998 135.2671)"><tspan x="0" y="0" style="fill:#000000;stroke:none;">10509</tspan></text>
				</g>
				<g>
					<path d="M503.241,255.03l1.869,5.78l17.086,4.321l6.316,3.24l16.277-2.933l-4.986-5.848l-7.822-20.347l-2.607,4.559l-13.037-6.19l-6.293,2.109l2.889-6.056l-14.596,5.801l-0.879,7.942l7.137,2.517l-1.354,5.104z"/>
					<text transform="matrix(1 0 0 1 512.7764 254.019)"><tspan x="0" y="0" style="fill:#000000;stroke:none;">10507</tspan></text>
				</g>
				<g>
					<path d="M539.804,259.591l4.986,5.848l-16.277,2.933l-1.957,2.323l10.641,2.991h-17.32l4.781,15.943l11.807-4.055l-1.025,14.695l13.266,10.002l13.664-7.348l-3.568-23.742l16.611-5.921l-6.896-17.9l-17.063,3.858l-5.771-9.571l-5.877,9.943z"/>
					<text transform="matrix(1 0 0 1 539.2275 278.439)"><tspan x="0" y="0" style="fill:#000000;stroke:none;">10506</tspan></text>
				</g>
				<g>
					<path d="M574.503,160.738l11.795,6.328l15.527-1.904l0.686-7.893l-28.008,3.469z"/>
					<text transform="matrix(1 0 0 1 580.1592 165.1675)"><tspan x="0" y="0" style="fill:#000000;stroke:none;">10505</tspan></text>
				</g>
				<g>
					<path d="M512.423,293.672l-23.244,18.504l2.607,15.917l-15.193,28.028l1.529,6.261l7.26-1.632l-0.68-7.893l13.664,2.924l4.131-7.893l1.477,9.662l6.75-0.407l0.164-0.885l-12.129-18.231l49.945-27.756l-13.266-10.002l1.025-14.695l-11.807,4.055l-12.234,4.043z"
						/>
					<text transform="matrix(1 0 0 1 506.2256 315.4399)"><tspan x="0" y="0" style="fill:#000000;stroke:none;">10504</tspan></text>
				</g>
				<g>
					<path d="M433.333,387.572l-1.359,3.521l-6.803,17.074l-3.287,6.803l10.605-1.5l5.098-9.457l3.293,4.629l1.582-10.271l1.758-5.104l-9.633-2.648l2.66-4.219l-3.914,1.172z"/>
					<text transform="matrix(1 0 0 1 427.2129 410.3511)"><tspan x="0" y="0" style="fill:#000000;stroke:none;">10502</tspan></text>
				</g>
				<g>
					<path d="M488.552,202.099l-12.24,0.612l0.85,9.117l11.391-9.729z"/>
					<text transform="matrix(1 0 0 1 470.2441 209.7153)"><tspan x="0" y="0" style="fill:#000000;stroke:none;">10501</tspan></text>
				</g>
				<g>
					<path d="M446.493,481.234l-10.664,6.188l7.09,16.67l6.404-2.93l5.895-0.129l2.555,9.117l8.783-20.684l-4.816-0.885l-5.098,9.457l-3.281-3.053l-0.463-0.281l0.568,0.064l8.273-8.842l-15.246-4.693z"/>
					<text transform="matrix(1 0 0 1 438.3447 491.189)"><tspan x="0" y="0" style="fill:#000000;stroke:none;">10475</tspan></text>
				</g>
				<g>
					<path d="M403.626,531.982l-4.254,4.084l0.574,2.449l16.887,3.404l0.797-7.418l-7.652-7.482l-6.352,4.963z"/>
					<text transform="matrix(1 0 0 1 400.1592 537.4663)"><tspan x="0" y="0" style="fill:#000000;stroke:none;">10474</tspan></text>
				</g>
				<g>
					<path d="M432.94,523.615l-22.963,3.404l18.82,12.586l1.242-4.834l1.535,0.891l2.215-12.182l-0.85,0.135z"/>
					<text transform="matrix(1 0 0 1 416.1611 531.1675)"><tspan x="0" y="0" style="fill:#000000;stroke:none;">10473</tspan></text>
				</g>
				<g>
					<path d="M410.376,520.896l-0.398,6.123l22.963-3.404l-10.834-4.219l-9.012-3.398l-2.719,4.898z"/>
					<text transform="matrix(1 0 0 1 408.9834 523.0054)"><tspan x="0" y="0" style="fill:#000000;stroke:none;">10472</tspan></text>
				</g>
				<g>
					<path d="M395.065,464.224l-5.215,17.215l18.768,3.809l3.176,1.16l2.268-8.508l5.215-5.168l-6.006-2.045l-18.205-6.463z"/>
					<text transform="matrix(1 0 0 1 394.9775 478.1929)"><tspan x="0" y="0" style="fill:#000000;stroke:none;">10471</tspan></text>
				</g>
				<g>
					<path d="M428.634,467.904l-4.541,6.387l-4.816-1.559l-5.215,5.168l9.012,0.48l8.848-6.943l-3.287-3.533z"/>
					<text transform="matrix(1 0 0 1 411.9775 477.4429)"><tspan x="0" y="0" style="fill:#000000;stroke:none;">10470</tspan></text>
				</g>
				<g>
					<path d="M426.079,485.658l-3.34,18.293l0.504-0.064l19.676,0.205l-7.09-16.67l-9.75-1.764z"/>
					<text transform="matrix(1 0 0 1 424.4814 497.8745)"><tspan x="0" y="0" style="fill:#000000;stroke:none;">10469</tspan></text>
				</g>
				<g>
					<path d="M408.618,485.248l-13.154,11.496l-2.438,3.199l8.162,3.539l8.848-14.695l-1.418-3.539z"/>
					<text transform="matrix(1 0 0 1 394.3525 494.3179)"><tspan x="0" y="0" style="fill:#000000;stroke:none;">10468</tspan></text>
				</g>
				<g>
					<path d="M414.062,477.9l-2.268,8.508l-3.176-1.16l1.418,3.539l2.039,15.1l4.758,0.346l5.906-0.281l3.34-18.293l-5.385-2.045l2.379-5.232l-9.012-0.48z"/>
					<text transform="matrix(1 0 0 1 409.001 494.0601)"><tspan x="0" y="0" style="fill:#000000;stroke:none;">10467</tspan></text>
				</g>
				<g>
					<path d="M423.073,478.38l-2.379,5.232l5.385,2.045l9.75,1.764l10.664-6.188l-1.816-0.545l-8.672-2.039l-4.084-7.213l-8.848,6.943z"/>
					<text transform="matrix(1 0 0 1 424.7275 483.8179)"><tspan x="0" y="0" style="fill:#000000;stroke:none;">10466</tspan></text>
				</g>
				<g>
					<path d="M442.919,504.091l0.398,15.105l-7.881-0.75l-1.646,5.033l1.02,11.221l5.953,6.264l-0.229-5.443l7.711-2.109l15.252,5.719l-9.809-13.611l-3.686,0.885l-0.68-25.242l-6.404,2.93z"/>
					<text transform="matrix(1 0 0 1 435.4209 530.8159)"><tspan x="0" y="0" style="fill:#000000;stroke:none;">10465</tspan></text>
				</g>
				<g>
					<path d="M466.843,517.767l1.301-6.398l-4.646-8.566l3.346,14.965z"/>
					<text transform="matrix(1 0 0 1 457.4756 513.2847)"><tspan x="0" y="0" style="fill:#000000;stroke:none;">10464</tspan></text>
				</g>
				<g>
					<path d="M389.851,481.439l-2.777,7.482l7.992,3.334l0.398,4.488l13.154-11.496l-18.768-3.809z"/>
					<text transform="matrix(1 0 0 1 387.9775 488.3179)"><tspan x="0" y="0" style="fill:#000000;stroke:none;">10463</tspan></text>
				</g>
				<g>
					<path d="M422.739,503.951l-5.906,0.281l5.273,15.164l10.834,4.219l0.85-0.135l1.646-5.033l-9.188-5.039l-3.006-9.521l-0.504,0.064z"/>
					<text transform="matrix(1 0 0 1 420.04 519.7476)"><tspan x="0" y="0" style="fill:#000000;stroke:none;">10462</tspan></text>
				</g>
				<g>
					<path d="M423.243,503.886l3.006,9.521l9.188,5.039l7.881,0.75l-0.398-15.105l-19.676-0.205z"/>
					<text transform="matrix(1 0 0 1 425.9326 511.1694)"><tspan x="0" y="0" style="fill:#000000;stroke:none;">10461</tspan></text>
				</g>
				<g>
					<path d="M412.075,503.886l-1.646,3.604l-6.574,11.027l0.51,0.199l6.012,2.18l2.719-4.898l9.012,3.398l-5.273-15.164l-4.758-0.346z"/>
					<text transform="matrix(1 0 0 1 404.6357 515.3882)"><tspan x="0" y="0" style="fill:#000000;stroke:none;">10460</tspan></text>
				</g>
				<g>
					<path d="M404.364,518.716l-5.326,11.156l4.588,2.109l6.352-4.963l0.398-6.123l-6.012-2.18z"/>
					<text transform="matrix(1 0 0 1 396.3623 528.3491)"><tspan x="0" y="0" style="fill:#000000;stroke:none;">10459</tspan></text>
				</g>
				<g>
					<path d="M401.188,503.482l9.24,4.008l1.646-3.604l-2.039-15.1l-8.848,14.695z"/>
					<text transform="matrix(1 0 0 1 398.4775 503.6929)"><tspan x="0" y="0" style="fill:#000000;stroke:none;">10458</tspan></text>
				</g>
				<g>
					<path d="M401.188,503.482l-6.234,8.156l-1.359,3.879l10.26,3l6.574-11.027l-9.24-4.008z"/>
					<text transform="matrix(1 0 0 1 393.667 513.9937)"><tspan x="0" y="0" style="fill:#000000;stroke:none;">10457</tspan></text>
				</g>
				<g>
					<path d="M393.595,515.517l-4.477,6.873l5.947,0.615l-0.053,6.527l4.025,0.34l5.326-11.156l-0.51-0.199l-10.26-3z"/>
					<text transform="matrix(1 0 0 1 388.7275 522.0679)"><tspan x="0" y="0" style="fill:#000000;stroke:none;">10456</tspan></text>
				</g>
				<g>
					<path d="M395.013,529.533l-3.855-1.43l-1.699,4.488l9.914,3.475l4.254-4.084l-4.588-2.109l-4.025-0.34z"/>
					<text transform="matrix(1 0 0 1 388.3525 533.6929)"><tspan x="0" y="0" style="fill:#000000;stroke:none;">10455</tspan></text>
				</g>
				<g>
					<path d="M389.458,532.591l-6.41,4.629l3.691,3.949l5.326,3.199l7.881-5.854l-0.574-2.449l-9.914-3.475z"/>
					<text transform="matrix(1 0 0 1 382.7803 539.9858)"><tspan x="0" y="0" style="fill:#000000;stroke:none;">10454</tspan></text>
				</g>
				<g>
					<path d="M393.026,499.943l-7.424,10.951l9.352,0.744l6.234-8.156l-8.162-3.539z"/>
					<text transform="matrix(1 0 0 1 385.0479 508.7905)"><tspan x="0" y="0" style="fill:#000000;stroke:none;">10453</tspan></text>
				</g>
				<g>
					<path d="M385.603,510.894l-3.176,12.521l6.691-1.025l4.477-6.873l1.359-3.879l-9.352-0.744z"/>
					<text transform="matrix(1 0 0 1 379.5928 517.5327)"><tspan x="0" y="0" style="fill:#000000;stroke:none;">10452</tspan></text>
				</g>
				<g>
					<path d="M382.427,523.416l0.621,13.805l6.41-4.629l1.699-4.488l3.855,1.43l0.053-6.527l-5.947-0.615l-6.691,1.025z"/>
					<text transform="matrix(1 0 0 1 380.4014 527.1831)"><tspan x="0" y="0" style="fill:#000000;stroke:none;">10451</tspan></text>
				</g>
				<g>
					<path d="M233.438,654.578l-4.368,17.959l3.516,8.098l-11.224,28.641l7.597-0.955l11.452-6.123l11.848,3.064l5.728-4.283l12.586-10.547l4.195-11.227l4.535-1.904l-1.189-6.803l7.6-2.93l-3.747-2.988l-12.527-1.98l-5.728,4.77l-1.983-5.648l-11.792-1.57
						l-1.078,3.885l-15.419-9.457z"/>
					<text transform="matrix(1 0 0 1 240.6899 683.6733)"><tspan x="0" y="0" style="fill:#000000;stroke:none;">10314</tspan></text>
				</g>
				<g>
					<path d="M228.958,708.32l3.516,8.777l-7.427,1.154l3.003,10.887l5.273-2.924l5.271,8.162l22.509-11.631l-6.914-6.803l-1.931-10.682l-11.848-3.064l-11.452,6.123z"/>
					<text transform="matrix(1 0 0 1 234.728 721.2866)"><tspan x="0" y="0" style="fill:#000000;stroke:none;">10312</tspan></text>
				</g>
				<g>
					<path d="M270.231,650.699l-0.794,11.9l12.527,1.98l5.78-16.465l-17.514,2.584z"/>
					<text transform="matrix(1 0 0 1 269.2251 655.439)"><tspan x="0" y="0" style="fill:#000000;stroke:none;">10310</tspan></text>
				</g>
				<g>
					<path d="M221.361,709.275l-10.714,0.48l-5.953,5.848l2.836,17.824l4.931,2.039l1.931,9.727l20.517-5.848l3.686-4.969l-5.271-8.162l-5.273,2.924l-3.003-10.887l7.427-1.154l-3.516-8.777l-7.597,0.955z"/>
					<text transform="matrix(1 0 0 1 208.2964 725.2593)"><tspan x="0" y="0" style="fill:#000000;stroke:none;">10309</tspan></text>
				</g>
				<g>
					<path d="M252.258,705.261l1.931,10.682l6.914,6.803l6.636-7.623l-9.753-14.145l-5.728,4.283z"/>
					<text transform="matrix(1 0 0 1 251.2251 715.9429)"><tspan x="0" y="0" style="fill:#000000;stroke:none;">10308</tspan></text>
				</g>
				<g>
					<path d="M207.53,733.427l-6.352,3.809l-1.075,7.887l4.477,4.219l9.812-4.148l-1.931-9.727l-4.931-2.039z"/>
					<text transform="matrix(1 0 0 1 198.9009 744.3843)"><tspan x="0" y="0" style="fill:#000000;stroke:none;">10307</tspan></text>
				</g>
				<g>
					<path d="M270.571,690.431l-12.586,10.547l9.753,14.145l4.362,2.59l-6.803,4.969l2.323,3.059l30.103-28.916l-10.77-8.303l-9.07,5.309l-7.313-3.398z"/>
					<text transform="matrix(1 0 0 1 269.2251 704.939)"><tspan x="0" y="0" style="fill:#000000;stroke:none;">10306</tspan></text>
				</g>
				<g>
					<path d="M286.954,688.521l10.77,8.303l16.617-20.408l-6.24-9.117l-4.025-2.52l-17.121,23.742z"/>
					<text transform="matrix(1 0 0 1 292.2993 683.8042)"><tspan x="0" y="0" style="fill:#000000;stroke:none;">10305</tspan></text>
				</g>
				<g>
					<path d="M305.209,656.617l-9.407-0.955l-4.992,11.771l2.895,4.629l-14.402,5.238l-4.535,1.904l-4.195,11.227l7.313,3.398l9.07-5.309l17.121-23.742l4.025,2.52l-2.892-10.682z"/>
					<text transform="matrix(1 0 0 1 272.729 685.439)"><tspan x="0" y="0" style="fill:#000000;stroke:none;">10304</tspan></text>
				</g>
				<g>
					<path d="M233.438,654.578l15.419,9.457l1.078-3.885l11.792,1.57l1.474-10.066l-20.921-3.949l-8.842,6.873z"/>
					<text transform="matrix(1 0 0 1 238.9731 656.8687)"><tspan x="0" y="0" style="fill:#000000;stroke:none;">10303</tspan></text>
				</g>
				<g>
					<path d="M263.2,651.654l-1.474,10.066l1.983,5.648l5.728-4.77l0.794-11.9l-7.031,0.955z"/>
					<text transform="matrix(1 0 0 1 257.6294 662.0366)"><tspan x="0" y="0" style="fill:#000000;stroke:none;">10302</tspan></text>
				</g>
				<g>
					<path d="M287.745,648.115l-5.78,16.465l3.747,2.988l-7.6,2.93l1.189,6.803l14.402-5.238l-2.895-4.629l4.992-11.771l9.407,0.955l-3.8-10.682l-13.664,2.18z"/>
					<text transform="matrix(1 0 0 1 286.7271 653.939)"><tspan x="0" y="0" style="fill:#000000;stroke:none;">10301</tspan></text>
				</g>
				<g>
					<path d="M335.259,601.919l-1.418,4.629l1.43,0.439l1.066-3.568l-0.639-2.426l-0.439,0.926z"/>
					<text transform="matrix(1 0 0 1 318.8984 605.2017)"><tspan x="0" y="0" style="fill:#000000;stroke:none;">10280</tspan></text>
				</g>
				<g>
					<path d="M369.442,550.826l-2.379,3.879l8.672,6.258l0.902-6.393l-7.195-3.744z"/>
					<text transform="matrix(1 0 0 1 363.8779 556.2749)"><tspan x="0" y="0" style="fill:#000000;stroke:none;">10128</tspan></text>
				</g>
				<g>
					<path d="M378.343,561.308l-2.537,1.764l-2.32,3.24l-2.49,3.469l-3.34,4.494l-0.732,1.963l1.869-1.025l3.223-3.867l2.941-4.066l1.705-2.531l1.852-1.816l-0.17-1.623z"/>
					<text transform="matrix(1 0 0 1 366.6025 565.9429)"><tspan x="0" y="0" style="fill:#000000;stroke:none;">10044</tspan></text>
				</g>
				<g>
					<path d="M382.544,497.224l-4.254,6.662l8.502,3.879l2.666-4.764l-6.914-5.777z"/>
					<text transform="matrix(1 0 0 1 374.8525 503.6929)"><tspan x="0" y="0" style="fill:#000000;stroke:none;">10040</tspan></text>
				</g>
				<g>
					<path d="M378.231,522.05l-1.98,4.424l4.307,2.244l1.588-1.225l-0.457-9.387l-3.457,3.943z"/>
					<text transform="matrix(1 0 0 1 370.8506 526.4155)"><tspan x="0" y="0" style="fill:#000000;stroke:none;">10039</tspan></text>
				</g>
				<g>
					<path d="M345.126,601.58l-6.639,3.064l3.293,2.719l4.928-2.514l-0.738-3.475l-0.844,0.205z"/>
					<text transform="matrix(1 0 0 1 338.3662 604.8491)"><tspan x="0" y="0" style="fill:#000000;stroke:none;">10038</tspan></text>
				</g>
				<g>
					<path d="M380.558,528.718l-3.123,5.174l1.025,2.174l3.797,1.494l-0.111-10.066l-1.588,1.225z"/>
					<text transform="matrix(1 0 0 1 371.501 535.5269)"><tspan x="0" y="0" style="fill:#000000;stroke:none;">10037</tspan></text>
				</g>
				<g>
					<path d="M343.31,568.791l11.959,5.648l1.646-2.59l-3.398-1.699l-8.109-3.879l-2.098,2.52z"/>
					<text transform="matrix(1 0 0 1 339.6025 570.4429)"><tspan x="0" y="0" style="fill:#000000;stroke:none;">10036</tspan></text>
				</g>
				<g>
					<path d="M386.739,541.169l-5.561,12.926l6.914-0.205l3.973-9.521l-5.326-3.199z M378.46,536.066l3.797,1.494l1.418,9.053l-8.9-4.494l0.164-2.244l3.521-3.809z"/>
					<text transform="matrix(1 0 0 1 377.3193 552.5835)"><tspan x="0" y="0" style="fill:#000000;stroke:none;">10035</tspan></text>
				</g>
				<g>
					<path d="M382.544,497.224l6.914,5.777l5.156-10.336l-8.221-3l-3.85,7.559z"/>
					<text transform="matrix(1 0 0 1 380.1025 495.8179)"><tspan x="0" y="0" style="fill:#000000;stroke:none;">10034</tspan></text>
				</g>
				<g>
					<path d="M378.29,503.886l-3.574,6.328l8.613,3.809l3.463-6.258l-8.502-3.879z"/>
					<text transform="matrix(1 0 0 1 371.8525 509.6929)"><tspan x="0" y="0" style="fill:#000000;stroke:none;">10033</tspan></text>
				</g>
				<g>
					<path d="M374.716,510.214l-2.555,9.797l6.07,2.039l3.457-3.943l1.641-4.084l-8.613-3.809z"/>
					<text transform="matrix(1 0 0 1 369.2275 516.4429)"><tspan x="0" y="0" style="fill:#000000;stroke:none;">10032</tspan></text>
				</g>
				<g>
					<path d="M372.161,520.011l-3.797,7.072l5.443,3.809l2.443-4.418l1.98-4.424l-6.07-2.039z"/>
					<text transform="matrix(1 0 0 1 365.1025 525.8179)"><tspan x="0" y="0" style="fill:#000000;stroke:none;">10031</tspan></text>
				</g>
				<g>
					<path d="M376.251,526.474l-2.443,4.418l3.627,3l3.123-5.174l-4.307-2.244z"/>
					<text transform="matrix(1 0 0 1 368.1025 530.6929)"><tspan x="0" y="0" style="fill:#000000;stroke:none;">10030</tspan></text>
				</g>
				<g>
					<path d="M373.017,544.638l-3.574,6.188l7.195,3.744l7.037-7.957l-8.9-4.494l-1.758,2.52z"/>
					<text transform="matrix(1 0 0 1 367.4639 549.0972)"><tspan x="0" y="0" style="fill:#000000;stroke:none;">10029</tspan></text>
				</g>
				<g>
					<path d="M365.47,557.294l9.305,4.898l0.961-1.23l-8.672-6.258l-1.594,2.59z"/>
					<text transform="matrix(1 0 0 1 362.2607 559.5737)"><tspan x="0" y="0" style="fill:#000000;stroke:none;">10028</tspan></text>
				</g>
				<g>
					<path d="M368.364,527.083l-6.012,8.982l5.051,2.385l7.535,1.424l3.521-3.809l-1.025-2.174l-3.627-3l-5.443-3.809z"/>
					<text transform="matrix(1 0 0 1 362.0615 536.4819)"><tspan x="0" y="0" style="fill:#000000;stroke:none;">10027</tspan></text>
				</g>
				<g>
					<path d="M367.403,538.451l0.732,3.668l4.881,2.52l1.758-2.52l0.164-2.244l-7.535-1.424z"/>
					<text transform="matrix(1 0 0 1 362.4482 541.9194)"><tspan x="0" y="0" style="fill:#000000;stroke:none;">10026</tspan></text>
				</g>
				<g>
					<path d="M362.353,536.066l-6.404,10.822l7.143,3.533l5.045-8.303l-0.732-3.668l-5.051-2.385z"/>
					<text transform="matrix(1 0 0 1 354.4443 543.6187)"><tspan x="0" y="0" style="fill:#000000;stroke:none;">10025</tspan></text>
				</g>
				<g>
					<path d="M355.948,546.888l-3.908,6.598l7.025,3.533l4.025-6.598l-7.143-3.533z"/>
					<text transform="matrix(1 0 0 1 348.9775 553.1929)"><tspan x="0" y="0" style="fill:#000000;stroke:none;">10024</tspan></text>
				</g>
				<g>
					<path d="M352.04,553.486l-3.914,7.617l6.633,3.469l4.307-7.553l-7.025-3.533z"/>
					<text transform="matrix(1 0 0 1 344.8525 559.5679)"><tspan x="0" y="0" style="fill:#000000;stroke:none;">10023</tspan></text>
				</g>
				<g>
					<path d="M359.751,567.091l-0.797,1.289l-1.811,2.994l7.875,3.873l3.686-4.758l-8.449-4.219l-0.504,0.82z"/>
					<text transform="matrix(1 0 0 1 355.3525 572.3179)"><tspan x="0" y="0" style="fill:#000000;stroke:none;">10022</tspan></text>
				</g>
				<g>
					<path d="M365.47,557.294l-5.215,8.977l8.449,4.219l6.07-8.297l-9.305-4.898z"/>
					<text transform="matrix(1 0 0 1 359.0186 564.4429)"><tspan x="0" y="0" style="fill:#000000;stroke:none;">10021</tspan></text>
				</g>
				<g>
					<path d="M353.517,570.15l3.398,1.699l0.229-0.475l1.811-2.994l-5.438,1.77z"/>
					<text transform="matrix(1 0 0 1 347.5127 570.8647)"><tspan x="0" y="0" style="fill:#000000;stroke:none;">10020</tspan></text>
				</g>
				<g>
					<path d="M348.126,561.103l-2.719,5.168l8.109,3.879l5.438-1.77l0.797-1.289l-4.992-2.52l-6.633-3.469z"/>
					<text transform="matrix(1 0 0 1 341.4775 566.6929)"><tspan x="0" y="0" style="fill:#000000;stroke:none;">10019</tspan></text>
				</g>
				<g>
					<path d="M341.604,571.24l11.912,6.123l1.471-2.52l0.281-0.404l-11.959-5.648l-1.705,2.449z"/>
					<text transform="matrix(1 0 0 1 340.8389 574.2046)"><tspan x="0" y="0" style="fill:#000000;stroke:none;">10018</tspan></text>
				</g>
				<g>
					<path d="M356.915,571.849l-1.646,2.59l-0.281,0.404l7.541,3.814l2.49-3.41l-7.875-3.873l-0.229,0.475z"/>
					<text transform="matrix(1 0 0 1 351.9775 576.4429)"><tspan x="0" y="0" style="fill:#000000;stroke:none;">10017</tspan></text>
				</g>
				<g>
					<path d="M353.517,577.363l-2.332,3.873l7.881,4.77l3.463-7.348l-7.541-3.814l-1.471,2.52z"/>
					<text transform="matrix(1 0 0 1 348.1338 581.5522)"><tspan x="0" y="0" style="fill:#000000;stroke:none;">10016</tspan></text>
				</g>
				<g>
					<path d="M339.108,581.716l-1.922,16.125l1.301-6.809l4.084,1.43l1.811-4.078l-5.273-6.668z"/>
					<text transform="matrix(1 0 0 1 332.0615 589.4038)"><tspan x="0" y="0" style="fill:#000000;stroke:none;">10014</tspan></text>
				</g>
				<g>
					<path d="M342.571,592.462l-4.084-1.43l-1.301,6.809l-1.418,3l9.357,0.738l0.844-0.205l1.705-3.809l-5.104-5.104z"/>
					<text transform="matrix(1 0 0 1 333.374 599.3062)"><tspan x="0" y="0" style="fill:#000000;stroke:none;">10013</tspan></text>
				</g>
				<g>
					<path d="M344.382,588.384l-1.811,4.078l5.104,5.104l0.967-3.129l-2.496-5.033l-1.764-1.02z"/>
					<text transform="matrix(1 0 0 1 337.6338 594.103)"><tspan x="0" y="0" style="fill:#000000;stroke:none;">10012</tspan></text>
				</g>
				<g>
					<path d="M339.454,576.138l-0.346,5.578l5.273,6.668l1.764,1.02l3.457-5.648l-0.797-2.584l-9.352-5.033z"/>
					<text transform="matrix(1 0 0 1 336.4502 583.1929)"><tspan x="0" y="0" style="fill:#000000;stroke:none;">10011</tspan></text>
				</g>
				<g>
					<path d="M348.806,581.171l0.797,2.584l6.234,3.334l3.516,1.705l-0.287-2.789l-7.881-4.77l-2.379-0.064z"/>
					<text transform="matrix(1 0 0 1 345.9775 585.8179)"><tspan x="0" y="0" style="fill:#000000;stroke:none;">10010</tspan></text>
				</g>
				<g>
					<path d="M355.837,587.089l-4.934,8.162l8.672,2.859l-0.223-9.316l-3.516-1.705z"/>
					<text transform="matrix(1 0 0 1 347.1025 594.8179)"><tspan x="0" y="0" style="fill:#000000;stroke:none;">10009</tspan></text>
				</g>
				<g>
					<path d="M335.657,600.83l0.041,0.164l0.639,2.426l2.15,1.225l6.639-3.064l-9.357-0.738l-0.111-0.012z"/>
					<text transform="matrix(1 0 0 1 330.9775 602.6929)"><tspan x="0" y="0" style="fill:#000000;stroke:none;">10007</tspan></text>
				</g>
				<g>
					<path d="M337.755,606.408l2.262,2.045l1.764-1.09l-3.293-2.719l-0.732,1.764z"/>
					<text transform="matrix(1 0 0 1 339.126 608.6636)"><tspan x="0" y="0" style="fill:#000000;stroke:none;">10006</tspan></text>
				</g>
				<g>
					<path d="M336.337,603.419l-1.066,3.568l0.563,0.17l1.922-0.75l0.732-1.764l-2.15-1.225z"/>
					<text transform="matrix(1 0 0 1 329.7295 605.6929)"><tspan x="0" y="0" style="fill:#000000;stroke:none;">10005</tspan></text>
				</g>
				<g>
					<path d="M333.841,606.548l-0.1,1.172l0.668,0.598l1.705,1.986l3.902-1.852l-2.262-2.045l-1.922,0.75l-0.563-0.17l-1.43-0.439z"/>
					<text transform="matrix(1 0 0 1 319.6348 610.1929)"><tspan x="0" y="0" style="fill:#000000;stroke:none;">10004</tspan></text>
				</g>
				<g>
					<path d="M349.603,583.755l-3.457,5.648l2.496,5.033l2.262,0.814l4.934-8.162l-6.234-3.334z"/>
					<text transform="matrix(1 0 0 1 341.4775 590.3179)"><tspan x="0" y="0" style="fill:#000000;stroke:none;">10003</tspan></text>
				</g>
				<g>
					<path d="M348.642,594.437l-0.967,3.129l-1.705,3.809l0.738,3.475l10.318-1.09l2.549-5.648l-8.672-2.859l-2.262-0.814z"/>
					<text transform="matrix(1 0 0 1 344.8525 600.8179)"><tspan x="0" y="0" style="fill:#000000;stroke:none;">10002</tspan></text>
				</g>
				<g>
					<path d="M339.454,576.138l9.352,5.033l2.379,0.064l2.332-3.873l-11.912-6.123l-2.15,4.898z"/>
					<text transform="matrix(1 0 0 1 338.5127 577.7437)"><tspan x="0" y="0" style="fill:#000000;stroke:none;">10001</tspan></text>
				</g>
				<g>
					<path d="M345.63,259.111l-1.359,7.482l-4.875,1.837l6.012,5.238l7.424-1.904l0.85-4.151l-4.535-2.856l4.313,1.225l-0.738-5.238l-7.09-1.632z"/>
					<text transform="matrix(1 0 0 1 337.7275 270.4399)"><tspan x="0" y="0" style="fill:#000000;stroke:none;">10984</tspan></text>
				</g>
				<g>
					<path d="M135.981,178.424l-20.748,10.477l2.549,5.854l15.363-8.03l5.162-1.562l-1.699-6.94l-0.627,0.202z"/>
					<text transform="matrix(1 0 0 1 110.0801 189.4897)"><tspan x="0" y="0" style="fill:#000000;stroke:none;">10969</tspan></text>
				</g>
				<g>
					<path d="M405.179,176.69l-0.357,4.729l10.371-1.292l-3.176-10.342l-6.803,6.463l-0.035,0.442z"/>
					<text transform="matrix(1 0 0 1 401.6592 178.603)"><tspan x="0" y="0" style="fill:#000000;stroke:none;">10537</tspan></text>
				</g>
				<g>
					<path d="M306.627,314.42l-7.084-0.612l1.134,12.381l-3.973,6.396l8.505,4.559l4.822,1.494l-3.349-6.598l2.985-1.875l2.897-1.901l-2.273-5.754l-3.498-2.646l4.937-0.955l-0.565-4.148l-4.538-0.34z"/>
					<text transform="matrix(1 0 0 1 296.2896 329.2241)"><tspan x="0" y="0" style="fill:#000000;stroke:none;">10952</tspan></text>
				</g>
			</g>
			<text transform="matrix(1 0 0 1 576.001 398.9741)"><tspan x="0" y="0" style="fill:#000000;stroke:none; font-size:72;">10</tspan></text>
		</g>
	</g>
</svg>
