<?xml version="1.0" encoding="iso-8859-1"?>
<!DOCTYPE svg PUBLIC "-//W3C//DTD SVG 20000303 Stylable//EN"   "http://www.w3.org/TR/2000/03/WD-SVG-20000303/DTD/svg-20000303-stylable.dtd">
<!-- Generator: Adobe Illustrator 9.0, SVG Export Plug-In  -->
<svg  width="1247.674pt" height="511.773pt" viewBox="0 0 1247.674 511.773" xml:space="preserve">
	<g id="Numbers" style="fill-rule:nonzero;clip-rule:nonzero;fill:#FFFFFF;stroke:#000000;stroke-width:0.25;stroke-miterlimit:4; font-family:'ArialMT'; font-size:6;">
		<g style="stroke-miterlimit:1;">
			<g>
				<g>
					<path d="M586.739,259.771l-0.7,10.907l-11.563-3.866l-2.566,5.953l0.568,5.138l2.777,4.721l-1.737,4.83l-0.472,5.146l3.762,1.484l3.785-4.597l2.669,8.537l-5.118,3.121l0.99,3.134l4.907,8.049l22.796-8.774l0.053-36.399l-6.914-2.517l-13.236-4.866z"/>
					<text transform="matrix(1 0 0 1 581.9604 286.9854)"><tspan x="0" y="0" style="fill:#000000;stroke:none;">11727</tspan></text>
				</g>
				<g>
					<path d="M510.508,239.395l9.357-1.632l0.17,17.077l4.934-2.177l1.412,14.763l9.135-0.818l-0.346,12.448l16.219-12.31l4.02-3.334l-16.553-15.988l10.093-1.157l-4.989-21.431l6.463-1.427l1.699-5.171l-23.64-2.994l-28.345,3.267l5.329,21.835l5.042-0.952z"/>
					<text transform="matrix(1 0 0 1 514.125 231.8159)"><tspan x="0" y="0" style="fill:#000000;stroke:none;">11733</tspan></text>
				</g>
				<g>
					<path d="M505.466,240.347l1.699,6.466l-38.379,11.019v5.854l-6.466,2.65l17.291,8.71l3.463,11.702l6.797-7.894l5.73,8.912l-1.646,12.448l25.061-4.556l-1.137-4.693l-6.404-28.505l-4.875-4.899l3.908-18.167l-5.042,0.952z"/>
					<text transform="matrix(1 0 0 1 485.8765 273.1406)"><tspan x="0" y="0" style="fill:#000000;stroke:none;">11780</tspan></text>
				</g>
				<g>
					<path d="M684.617,284.57l0.396,11.361l-14.004,7.551l-3.398,1.975v8.979l6.404,0.407l8.786,3.4l2.098,6.329l9.583-1.633l20.01-1.156l21.489-7.214l28.4-12.79l0.117-21.224l-10.263,6.599l-11.227,6.668l-5.953-19.595l1.248-8.026l-14.965,1.699l-10.09,11.769
						l-10.148-0.067l-6.41,6.123l-12.073-1.155z"/>
					<text transform="matrix(1 0 0 1 707.9292 298.3867)"><tspan x="0" y="0" style="fill:#000000;stroke:none;">11949</tspan></text>
				</g>
				<g>
					<path d="M809.911,290.015l3.738,9.521l-5.613,6.667l1.699,8.641l10.658-6.669l6.469,6.124l7.251,3.267l-1.532-11.906l14.742,6.257l4.705-19.726l-0.51-5.442l-4.588-0.886l-37.02,4.152z"/>
					<text transform="matrix(1 0 0 1 824.1265 299.8174)"><tspan x="0" y="0" style="fill:#000000;stroke:none;">11942</tspan></text>
				</g>
				<g>
					<path d="M824.134,205.179l-27.835,9.592l-40.872,3.331l2.833,7.146l-11.622,4.556l23.013,30.411l-8.672,0.272l-6.744,26.669l10.263-6.599l-0.117,21.224l45.53-11.766l37.02-4.152l-2.44-7.688l-7.204-3.539l3.744-1.426l-5.379-6.815l-4.313-1.485l-1.421,4.422
						l-10.034-9.662l-0.902,5.988l-0.398-6.329l-10.828,7.554l1.248-3.879l-4.31-1.088l6.973-5.51l-18.823,1.905l17.235-8.028l-14.288-7.348l17.804-5.104l5.388-0.542l-6.07-7.825l20.977-10.951l-4.535-6.193l-5.218-7.14z"/>
					<text transform="matrix(1 0 0 1 777.3745 274.3174)"><tspan x="0" y="0" style="fill:#000000;stroke:none;">11901</tspan></text>
				</g>
				<g>
					<path d="M614.43,302.667l3.686,26.257l25.342,11.364l13.72-3.813l-4.081-15.986l-7.318-3.062l10.775-5.849l-2.326-3.063l-5.953-15.171l-15.305-0.475l-7.992,2.039l-3.346,8.846l-7.201-1.088z"/>
					<text transform="matrix(1 0 0 1 625.6792 321.248)"><tspan x="0" y="0" style="fill:#000000;stroke:none;">11980</tspan></text>
				</g>
				<g>
					<path d="M764.38,301.78l0.117,3.677l3.231,18.096l22.506-6.192l-5.725,17.145l8.218,6.735l-46.034,13.742v1.767l129.598-42.518v-2.178l-62.994,22.274l1.201-0.658l-7.313-6.58l2.549-12.246l-1.699-8.641l5.613-6.667l-3.738-9.521l-45.53,11.766z"/>
					<text transform="matrix(1 0 0 1 784.6245 309.6484)"><tspan x="0" y="0" style="fill:#000000;stroke:none;">11978</tspan></text>
				</g>
				<g>
					<path d="M767.729,323.553l0.281,11.563l16.5-0.611l5.725-17.145l-22.506,6.192z"/>
					<text transform="matrix(1 0 0 1 772.3101 330.2402)"><tspan x="0" y="0" style="fill:#000000;stroke:none;">11977</tspan></text>
				</g>
				<g>
					<path d="M951.297,228.171l-2.209,18.844l3.574,14.15l-10.037,5.851l5.953,4.015l-0.111,8.504l-3.463,1.838l4.819,4.49l38.212-16.872l1.02-13.13l-4.819-0.202l-0.167-8.098l-10.658-13.468l-2.783-8.165l-6.741-3.404l-12.589,5.648z"/>
					<text transform="matrix(1 0 0 1 957.7144 257.1929)"><tspan x="0" y="0" style="fill:#000000;stroke:none;">11976</tspan></text>
				</g>
				<g>
					<path d="M1010.711,239.395l9.58,14.153l9.246-3.879l-1.248-12.381l-6.92-5.648l-9.92,2.042l-0.738,5.713z"/>
					<text transform="matrix(1 0 0 1 1014.8687 241.8442)"><tspan x="0" y="0" style="fill:#000000;stroke:none;">11975</tspan></text>
				</g>
				<g>
					<path d="M930.664,137.624l-25.058,6.393l-15.026,20.818l2.481,3.009l5.106-6.545l-3.173,6.981l1.441,0.645l2.432-2.136l0.674,5.065l9.577-4.365l3.062,10.137l28.063,2.517l1.872-12.041l-17.859-1.362l0.34-4.764l-6.92,2.112l4.594-2.452l-3.454-2.517
						l6.407,1.975l4.816-10.477l9.413-2.856l-8.789-10.137z M902.656,231.028l-7.538-5.44l-3.062-8.979l7.028,1.222l3.571,13.198z M904.299,180.549l0.568-6.806l6.006,4.696l-6.574,2.109z"/>
					<text transform="matrix(1 0 0 1 905.6245 157.3169)"><tspan x="0" y="0" style="fill:#000000;stroke:none;">11971</tspan></text>
				</g>
				<g>
					<path d="M876.292,312.054v2.178l73.532-28.369l-4.819-4.49l3.463-1.838l0.111-8.504l-5.953-4.015l10.037-5.851l-3.574-14.15l2.209-18.844l-0.223-6.803l-3.006,2.312l-2.268-3.809l0.34-8.572l-17.121,24.697l-20.748,2.991l-4.254,19.253l-14.414,12.612
						l-3.844,2.491l-0.293,7.749l-10.362,0.617l0.565,4.831l5.613,1.293l-6.463,18.301l-19.898-3.267l4.477-3.808l-7.371-6.871l-4.705,19.726l-14.742-6.257l1.532,11.906l-7.251-3.267l3.853,3.741l-0.68,6.26l-5.783-0.611l3.513,4.353l-13.266,5.629l-1.201,0.658
						l62.994-22.274z"/>
					<text transform="matrix(1 0 0 1 903.355 288.5645)"><tspan x="0" y="0" style="fill:#000000;stroke:none;">11968</tspan></text>
				</g>
				<g>
					<path d="M654.227,308.516l2.326,3.063l-10.775,5.849l7.318,3.062l4.081,15.986l2.153,3.882l-8.279,16.87l0.176,0.34l0.334,1.019l0.387,0.845l1.034,1.676l3.63,13.877l9.979,2.312l-1.418-9.184l11.109-7.485l2.777-10.205l-6.352-11.769l1.307-23.809
						l-6.404-0.407v-8.979l3.398-1.975l-16.781,5.033z M643.458,391.788l8.335-2.59l1.356-4.623l12.076-0.68l36.624-12.926l7.315-7.825l7.257-1.154l-0.173,3.944l14.347-7.756l0.396,4.22l-82.828,29.659l-57.829,25.583l3.63-3.404l28.459-16.466l21.035-5.982z"/>
					<text transform="matrix(1 0 0 1 655.1245 328.3174)"><tspan x="0" y="0" style="fill:#000000;stroke:none;">11967</tspan></text>
				</g>
				<g>
					<path d="M965.187,143.676l-8.786-1.09l-4.989,9.39l-9.864,1.497l6.064,13.131l9.416,6.258l3.867-0.882l-2.965-10.412l1.137-6.803l-0.908-2.312l21.258-0.817l-3.571-9.39l-10.658,1.43z"/>
					<text transform="matrix(1 0 0 1 954.3745 150.5669)"><tspan x="0" y="0" style="fill:#000000;stroke:none;">11965</tspan></text>
				</g>
				<g>
					<path d="M958.159,152.454l0.908,2.312l-1.137,6.803l2.836,7.893l3.63-3.196l8.956,5.985l5.443,0.135l-0.111-4.896l4.875-2.314l17.174,9.935l-1.02,7.277l6.067,1.564l-5.669-12.858l4.646-4.421l-5.836-10.954l-19.506-4.081l-21.258,0.817z M975.845,142.247
						l-10.658,1.43l-0.624-1.497l-2.607-4.761l7.714-8.438l7.31,4.559l2.098,7.755l23.303,7.96l-1.758,5.174l-12.021-7.758l-2.663,4.761l-2.549-7.96l-7.544-1.225z"/>
					<text transform="matrix(1 0 0 1 972.646 163.8008)"><tspan x="0" y="0" style="fill:#000000;stroke:none;">11964</tspan></text>
				</g>
				<g>
					<path d="M946.141,211.299l-0.34,8.572l2.268,3.809l3.006-2.312l0.223,6.803l12.589-5.648l6.741,3.404l2.783,8.165l15.762-11.429l14.001-2.792l5.728-8.027l10.26-3.879l3.006-10.204l-2.895-2.856l-4.875,11.021l1.362-12.313l-5.895-0.407l-8.563,8.842
						l-11.282-2.587l0.565-10.066l-8.613-15.305l-11.227,5.101l9.352,16.327l-6.231,8.909l-9.469-3.536l-12.586,4.017l-5.897-16.397l3.457,13.333l-3.229,9.457z"/>
					<text transform="matrix(1 0 0 1 974.6245 215.8169)"><tspan x="0" y="0" style="fill:#000000;stroke:none;">11963</tspan></text>
				</g>
				<g>
					<path d="M1010.711,239.395l-11.959,2.722l-1.307,11.566l-5.329,7.075l2.95,4.765l25.225-11.974l-9.58-14.153z"/>
					<text transform="matrix(1 0 0 1 998.0796 255.4585)"><tspan x="0" y="0" style="fill:#000000;stroke:none;">11962</tspan></text>
				</g>
				<g>
					<path d="M646.575,246.608l-6.012,18.574l-7.594,27.688l15.305,0.475l5.953,15.171l16.781-5.033l14.004-7.551l-0.396-11.361l-2.839-22.043l-2.83-22.52l-8.505,0.34l-10.034-0.814l0.565,21.7l-6.179-3.536l-3.287-11.973l-4.934,0.885z"/>
					<text transform="matrix(1 0 0 1 648.8647 281.3574)"><tspan x="0" y="0" style="fill:#000000;stroke:none;">11961</tspan></text>
				</g>
				<g>
					<path d="M809.735,314.844l-2.549,12.246l7.313,6.58l13.266-5.629l-3.513-4.353l5.783,0.611l0.68-6.26l-3.853-3.741l-6.469-6.124l-10.658,6.669z"/>
					<text transform="matrix(1 0 0 1 810.8257 323.9229)"><tspan x="0" y="0" style="fill:#000000;stroke:none;">11959</tspan></text>
				</g>
				<g>
					<path d="M890.58,164.834l-26.531,11.227l4.708,5.235l8.048-7.755l6.642,3.771l3.457-1.863l-2.232,2.596l7.55,4.796l6.475-6.337l-3.337,5.692l1.184,3.688l5.496-4.523l-2.288,3.378l3.87,6.117l8.561-13.23l-3.062-10.137l-9.577,4.365l-0.674-5.065l-2.432,2.136
						l-1.441-0.645l3.173-6.981l-5.106,6.545l-2.481-3.009z M904.299,180.549l0.568-6.806l6.006,4.696l-6.574,2.109z"/>
					<text transform="matrix(1 0 0 1 881.3237 176.0786)"><tspan x="0" y="0" style="fill:#000000;stroke:none;">11958</tspan></text>
				</g>
				<g>
					<path d="M979.314,107.468l18.812,8.042l-8.616,10.345l26.417-16.058l12.932-17.689l-31.582,2.654l-15.814,7.008l-2.147,5.698z M1047.28,89.796l-8.051-6.735l1.131-3.606l10.945-5.988l16.33-1.02l-13.497,4.356l-6.858,12.993z"/>
					<text transform="matrix(1 0 0 1 990.2085 106.8169)"><tspan x="0" y="0" style="fill:#000000;stroke:none;">11957</tspan></text>
				</g>
				<g>
					<path d="M1104.766,207.898l-9.524,8.505l5.783-1.43l0.114,3.334l22.787-8.845l56.016-24.627l2.607,6.463l48.018-18.571l17.01-21.363l-8.959-7.957l-22.846-6.261l-33.902,8.71l-6.691,18.299l7.937,1.837l-0.677,5.168l-6.352,3.129l-11.789-4.896l-16.951,17.757
						l-19.107,0.067l10.998,9.659L1126.821,203l0.735-9.729l-3.343,0.275l-9.07,2.719l-2.783,8.03l-7.594,3.604z"/>
					<text transform="matrix(1 0 0 1 1199.6245 169.3169)"><tspan x="0" y="0" style="fill:#000000;stroke:none;">11954</tspan></text>
				</g>
				<g>
					<path d="M616.75,266.474l-9.861,0.68l-0.053,36.399l7.594-0.886l7.201,1.088l3.346-8.846l7.992-2.039l7.594-27.688l-23.813,1.292z"/>
					<text transform="matrix(1 0 0 1 613.2925 284.4834)"><tspan x="0" y="0" style="fill:#000000;stroke:none;">11953</tspan></text>
				</g>
				<g>
					<path d="M864.048,176.061l-39.914,29.118l5.218,7.14l22.564-2.449l5.613,8.232l18.311-8.435l-16.102-19.866l9.018-8.505l-4.708-5.235z"/>
					<text transform="matrix(1 0 0 1 841.8628 204.0815)"><tspan x="0" y="0" style="fill:#000000;stroke:none;">11952</tspan></text>
				</g>
				<g>
					<path d="M679.059,350.421l-2.777,10.205l-11.109,7.485l1.418,9.184l1.002-2.9l-0.721-2.745l0.586,0.947l0.381,0.998l11.332,0.979l1.022-5.987l16.216-2.991l2.889-8.233l-6.009-0.339l4.14-3.197l-18.369-3.404z"/>
					<text transform="matrix(1 0 0 1 675.4429 363.1924)"><tspan x="0" y="0" style="fill:#000000;stroke:none;">11951</tspan></text>
				</g>
				<g>
					<path d="M674.014,314.844l-1.307,23.809l6.352,11.769l18.369,3.404l-11.508-7.28l5.104-2.65l3.627,3.468l-9.753-22.789l-2.098-6.329l-8.786-3.4z"/>
					<text transform="matrix(1 0 0 1 665.4604 344.8154)"><tspan x="0" y="0" style="fill:#000000;stroke:none;">11950</tspan></text>
				</g>
				<g>
					<path d="M829.352,212.319l4.535,6.193l11.338,16.055l12.305-16.465l-5.613-8.232l-22.564,2.449z"/>
					<text transform="matrix(1 0 0 1 835.3179 221.4683)"><tspan x="0" y="0" style="fill:#000000;stroke:none;">11948</tspan></text>
				</g>
				<g>
					<path d="M833.887,218.512l-20.977,10.951l6.07,7.825l-5.388,0.542l5.555,8.71l5.95-0.68l12.246-4.356l7.881-6.938l-11.338-16.055z"/>
					<text transform="matrix(1 0 0 1 820.9448 235.5278)"><tspan x="0" y="0" style="fill:#000000;stroke:none;">11947</tspan></text>
				</g>
				<g>
					<path d="M835.651,266.395l5.379,6.815l-3.744,1.426l7.204,3.539l2.44,7.688l4.588,0.886l0.51,5.442l7.371,6.871l-4.477,3.808l19.898,3.267l6.463-18.301l-5.613-1.293l-0.565-4.831l10.362-0.617l0.293-7.749l3.844-2.491l-14.221,2.218l-29.139-12.926
						l-10.594,6.249z"/>
					<text transform="matrix(1 0 0 1 854.5015 286.1406)"><tspan x="0" y="0" style="fill:#000000;stroke:none;">11946</tspan></text>
				</g>
				<g>
					<path d="M954.872,114.965l-24.208,22.658l8.789,10.137l7.649,1.767l-4.761-7.415l4.708-4.559l5.78,1.904l4.084-10.406l9.185-4.017l-11.227-10.069z"/>
					<text transform="matrix(1 0 0 1 937.1245 134.0669)"><tspan x="0" y="0" style="fill:#000000;stroke:none;">11944</tspan></text>
				</g>
				<g>
					<path d="M764.38,301.78l-28.4,12.79l0.398,5.649l9.466,7.209l2.549-12.313l9.697,1.427l6.407-11.085l-0.117-3.677z"/>
					<text transform="matrix(1 0 0 1 740.4946 314.1074)"><tspan x="0" y="0" style="fill:#000000;stroke:none;">11941</tspan></text>
				</g>
				<g>
					<path d="M714.491,321.784l-0.398,12.246l7.148-0.952l0.545,15.987l10.679-0.138l-5.728-8.028l10.266,5.578l-4.764-10.068l11.848,1.769l2.209-10.408l-0.451-0.341l-9.466-7.209l-0.398-5.649l-21.489,7.214z"/>
					<text transform="matrix(1 0 0 1 728.7837 327.6523)"><tspan x="0" y="0" style="fill:#000000;stroke:none;">11940</tspan></text>
				</g>
				<g>
					<path d="M978.508,107.937l0.352-1.31l-19.91,0.246l-4.078,8.092l11.227,10.069l12.791-17.317l-0.381,0.22z"/>
					<text transform="matrix(1 0 0 1 957.3745 116.0669)"><tspan x="0" y="0" style="fill:#000000;stroke:none;">11939</tspan></text>
				</g>
				<g>
					<path d="M1019.272,194.905l2.895,2.856l-3.006,10.204l-10.26,3.879l-5.728,8.027l8.276,13.811l9.92-2.042l6.92,5.648l1.248,12.381l51.984-23.063l-14.285-18.164l8.675-15.513l10.939-2.177l-5.101-4.421l-0.454-11.974l-13.04-9.047l-16.84,14.42l-23.186-8.435
						l-16.896,2.244l11.622,0.07l-3.686,21.293z M1103.407,169.528l1.248-17.552l-3.686-8.912l-22.623-6.732l8.338-7.963l-0.967-10.679l8.678,8.842l21.085,7.758l-5.042,7.143l0.167,20.001l-7.198,8.095z"/>
					<text transform="matrix(1 0 0 1 1037.7925 208.6504)"><tspan x="0" y="0" style="fill:#000000;stroke:none;">11937</tspan></text>
				</g>
				<g>
					<path d="M883.446,177.312l-6.642-3.771l-8.048,7.755l-9.018,8.505l16.102,19.866l16.726-0.952l1.022-8.982l4.872-3.671l1.532-1.497l3.759-3.082l-0.132-0.627l-3.87-6.117l2.288-3.378l-5.496,4.523l-1.184-3.688l3.337-5.692l-6.475,6.337l-7.55-4.796
						l2.232-2.596l-3.457,1.863z"/>
					<text transform="matrix(1 0 0 1 872.1245 196.0669)"><tspan x="0" y="0" style="fill:#000000;stroke:none;">11935</tspan></text>
				</g>
				<g>
					<path d="M694.481,322.94l8.109,13.741l-5.842,3.33l-0.17,0.411l-0.908,7.553l4.934,5.032l6.574-5.442l14.607,1.5l-0.545-15.987l-7.148,0.952l0.398-12.246l-20.01,1.156z"/>
					<text transform="matrix(1 0 0 1 702.6255 345.3975)"><tspan x="0" y="0" style="fill:#000000;stroke:none;">11934</tspan></text>
				</g>
				<g>
					<path d="M699.696,223.956l6.973,11.291l-1.134,10.137l6.179,5.578l-29.936,11.566l2.839,22.043l12.073,1.155l6.41-6.123l10.148,0.067l10.09-11.769l14.965-1.699l-1.248,8.026l5.953,19.595l11.227-6.668l6.744-26.669l8.672-0.272l-23.013-30.411l11.622-4.556
						l-2.833-7.146l-34.866,7.418l-20.865-1.564z"/>
					<text transform="matrix(1 0 0 1 723.4585 255.5669)"><tspan x="0" y="0" style="fill:#000000;stroke:none;">11933</tspan></text>
				</g>
				<g>
					<path d="M1003.173,219.872l-14.001,2.792l-15.762,11.429l10.658,13.468l0.167,8.098l4.819,0.202l-1.02,13.13l7.031-3.468l-2.95-4.765l5.329-7.075l1.307-11.566l11.959-2.722l0.738-5.713l-8.276-13.811z"/>
					<text transform="matrix(1 0 0 1 980.8042 236.1841)"><tspan x="0" y="0" style="fill:#000000;stroke:none;">11932</tspan></text>
				</g>
				<g>
					<path d="M1086.851,190.753l-10.939,2.177l-8.675,15.513l14.285,18.164l19.617-8.3l-0.114-3.334l-5.783,1.43l9.524-8.505l-9.639-4.216l-8.276-12.929z"/>
					<text transform="matrix(1 0 0 1 1077.8765 211.6802)"><tspan x="0" y="0" style="fill:#000000;stroke:none;">11930</tspan></text>
				</g>
				<g>
					<path d="M326.77,364.303l-2.098,10.476l6.516,7.62l11.115-3.468l3.516,3.535l-1.928-11.361l-3.176-20.883l-7.254,2.856l-6.691,11.225z"/>
					<text transform="matrix(1 0 0 1 327.123 373.3174)"><tspan x="0" y="0" style="fill:#000000;stroke:none;">11804</tspan></text>
				</g>
				<g>
					<path d="M314.805,341.311l-7.764,5.029l1.588,13.948l10.881-1.769l1.022,4.763l6.237,1.021l6.691-11.225l7.254-2.856l-2.607-15.58l-23.303,6.669z"/>
					<text transform="matrix(1 0 0 1 314.46 352.9834)"><tspan x="0" y="0" style="fill:#000000;stroke:none;">11803</tspan></text>
				</g>
				<g>
					<path d="M299.952,343.961l-1.189,7.21l-18.278,4.645l-1.597,4.862l1.201,7.081l3.272,8.585l22.318,0.339l2.95-16.395l-1.588-13.948l0.17-3.604l-7.26,1.225z"/>
					<text transform="matrix(1 0 0 1 285.123 370.3174)"><tspan x="0" y="0" style="fill:#000000;stroke:none;">11801</tspan></text>
				</g>
				<g>
					<path d="M383.518,360.288l-19.33,5.239l2.619,17.296l12.208-4.77l3.999,3.133l14.279-3.279l-5.385-16.462l4.875-4.83l-13.266,3.673z"/>
					<text transform="matrix(1 0 0 1 372.6152 372.7197)"><tspan x="0" y="0" style="fill:#000000;stroke:none;">11798</tspan></text>
				</g>
				<g>
					<path d="M334.422,310.147l-15.876,2.656l2.042,9.933l-5.666,1.225l-0.117,17.35l23.303-6.669l-3.686-24.494z"/>
					<text transform="matrix(1 0 0 1 318.1675 332.5635)"><tspan x="0" y="0" style="fill:#000000;stroke:none;">11797</tspan></text>
				</g>
				<g>
					<path d="M523.663,388.247l8.619,6.397l9.24-2.721l-1.699-14.356l-10.831,1.225l-5.329,9.455z"/>
					<text transform="matrix(1 0 0 1 524.7534 387.1064)"><tspan x="0" y="0" style="fill:#000000;stroke:none;">11796</tspan></text>
				</g>
				<g>
					<path d="M414.485,395.331l-0.123,2.647l-2.666,14.625l2.666,2.722l6.519-0.817l1.022-5.103l3.34,6.872l12.023-3.536l-5.897-10.137l1.415-20.478l-13.945-4.151l-4.354,17.355z"/>
					<text transform="matrix(1 0 0 1 415.375 403.5684)"><tspan x="0" y="0" style="fill:#000000;stroke:none;">11795</tspan></text>
				</g>
				<g>
					<path d="M319.569,411.857l-7.482,0.407l0.621,10.681l-5.042,0.815l0.677,6.125l-3.173,0.135l3.343,12.994l5.162-1.771l3.404-1.358l2.49-28.028z"/>
					<text transform="matrix(1 0 0 1 303.125 434.4414)"><tspan x="0" y="0" style="fill:#000000;stroke:none;">11793</tspan></text>
				</g>
				<g>
					<path d="M291.11,401.652l6.179,16.258l1.192,26.329l1.646,0.475l-0.34,0.523l10.518,2.391l3.768-3.526l-0.398-2.857l-5.162,1.771l-3.343-12.994l3.173-0.135l-0.677-6.125l5.042-0.815l-0.621-10.681l7.482-0.407l-1.588-7.621l-12.527,1.972l-11.057-5.508
						l-3.287,0.952z M352.17,463.968l0.111,3.811l-78.574,17.348l-5.842-3.877l35.262-8.37l5.895-7.959l6.691,3.674l-8.048,4.83l2.607,1.767l20.751-9.524l21.146-1.698z M345.608,456.872l-1.547-3.314l7.764-0.68l0.176,5.037l0.056,2.721l-3.97,1.564l-1.784-3.831
						l0.082,3.899l-6.574,1.563l0.226-7.69l5.572,0.73z M287.509,467.57l1.175-0.097l2.484,3.707l-8.109,2.516l-4.646-7.485l1.811-3.942l7.286,5.302z M279.883,474.377l-8.051-0.817l-1.474-4.422l8.224-0.951l1.301,6.19z M272.811,454.357l1.743-0.255l2.153,9.797
						l-7.992-4.828l4.096-4.714z M260.442,471.042l-3.858-8.231l11.622,5.647l-7.764,2.584z M317.588,454.782l-2.953-0.475l3.009-6.26l7.649,4.764l-7.705,1.971z M285.426,460.987l0.129,2.028l-5.385-4.97l4.928-2.446l0.188,3.036l1.345-2.9l3.519,7.552l-4.723-2.3z
						 M319.569,459.479l-3.003,3.876h-6.237l0.967-4.42l8.273,0.544z M277.786,459.14l-1.134-6.874l6.126-2.718l-4.992,9.592z M301.493,465.365l0.686,1.761l-7.213,4.599l3.63-7.825l2.897,1.466z M294.397,456.415l2.045,4.629l-4.594-1.021l-1.646-6.533l4.195,2.925
						z M247.551,469.373l0.756,1.534l-2.892,4.829l-2.722-3.742l4.857-2.621z M272.401,463.287l-7.541-1.359l1.421-3.404l6.12,4.764z M258.854,472.54l-3.574-1.498l0.398-6.53l3.176,8.028z M319.288,459.14l-6.636-1.771l7.482-1.496l-0.847,3.267z M244.622,463.628
						l-1.192,0.951l-2.323,5.783l-1.811-4.218l5.326-2.517z M261.687,478.595l4.649-0.477l-4.649,4.965v-4.488z M294.227,468.458l-2.947-6.53l3.398,0.612l-0.451,5.918z M247.909,468.731l-4.418,2.449l3.51-5.854l0.908,3.404z M288.104,466.895l-4.025-2.521
						l5.839-0.406l-1.813,2.927z M317.644,462.269l2.379-3.197l-0.056,5.033l-2.323-1.836z M301.088,446.006l2.607,1.297l-3.8,2.313l1.192-3.609z"/>
					<text transform="matrix(1 0 0 1 296.625 471.9414)"><tspan x="0" y="0" style="fill:#000000;stroke:none;">11793</tspan></text>
				</g>
				<g>
					<path d="M669.702,225.45l-5.268,4.354l6.009,10.544l8.505-0.34l2.83,22.52l29.936-11.566l-6.179-5.578l1.134-10.137l-6.973-11.291l-29.994,1.494z"/>
					<text transform="matrix(1 0 0 1 683.6245 242.9839)"><tspan x="0" y="0" style="fill:#000000;stroke:none;">11792</tspan></text>
				</g>
				<g>
					<path d="M315.432,283.753l-1.359,7.893l4.646,0.068l-0.284,6.258l-6.064-1.699l4.591,9.387l-1.758,7.485l-18.706-4.765h-1.362l2.777,8.162l4.313-2.173l2.546,3.875l0.853,6.396l-12.357,11.294l7.31,3.879l-0.624,4.147l7.26-1.225l-0.17,3.604l7.764-5.029
						l0.117-17.35l5.666-1.225l-2.042-9.933l15.876-2.656l-4.875-18.502l-14.115-7.893z"/>
					<text transform="matrix(1 0 0 1 304.125 321.3174)"><tspan x="0" y="0" style="fill:#000000;stroke:none;">11791</tspan></text>
				</g>
				<g>
					<path d="M510.508,239.395l-3.908,18.167l4.875,4.899l6.404,28.505l14.004-9.523l3.287-2.386l0.346-12.448l-9.135,0.818l-1.752,6.939l-4.594,0.341l-2.379-6.738l5.271-1.633l-8.733-5.647l5.842-5.848l-0.17-17.077l-9.357,1.632z"/>
					<text transform="matrix(1 0 0 1 516.627 281.8174)"><tspan x="0" y="0" style="fill:#000000;stroke:none;">11790</tspan></text>
				</g>
				<g>
					<path d="M485.284,314.844l-13.494,6.601l-12.357-0.68l-10.945-3.812l-10.544,8.845l1.872,8.232l21.885,1.427l19.447-0.612l1.301-6.941l23.074-2.584l2.833-6.939l-11.112,0.816l-0.337-11.36l-11.622,7.008z"/>
					<text transform="matrix(1 0 0 1 453.6909 331.3145)"><tspan x="0" y="0" style="fill:#000000;stroke:none;">11788</tspan></text>
				</g>
				<g>
					<path d="M472.018,274.095l-5.159,2.517l1.02,10.204l-11.112-4.219l-5.104,10.136l5.385,6.463l-5.156,1.155l-5.9,10.547l-6.914,0.817l9.41,5.238l10.945,3.812l-0.624-5.783l5.329-5.377l10.828-3.061l2.947,9.184l7.371-0.884l11.622-7.008l-2.95-7.621
						l1.646-12.448l-5.73-8.912l-6.797,7.894l-3.463-11.702l-7.594-0.951z"/>
					<text transform="matrix(1 0 0 1 465.123 302.3154)"><tspan x="0" y="0" style="fill:#000000;stroke:none;">11787</tspan></text>
				</g>
				<g>
					<path d="M641.583,221.231l4.992,25.377l4.934-0.885l3.287,11.973l6.179,3.536l-0.565-21.7l10.034,0.814l-6.009-10.544l5.268-4.354l0.117-6.328l-28.236,2.109z"/>
					<text transform="matrix(1 0 0 1 646.8745 232.3169)"><tspan x="0" y="0" style="fill:#000000;stroke:none;">11786</tspan></text>
				</g>
				<g>
					<path d="M558.151,274.909l0.876,8.164l-0.847,12.801l-1.635,10.058l4.992,4.421l10.901-9.057l-0.407,5.801l7.102-2.818l-0.99-3.134l5.118-3.121l-2.669-8.537l-3.785,4.597l-3.762-1.484l0.472-5.146l1.737-4.83l-2.777-4.721l-4.67-4.603l-5.479,3.867
						l-0.281-2.531l-3.896,0.273z"/>
					<text transform="matrix(1 0 0 1 564.4604 303.1494)"><tspan x="0" y="0" style="fill:#000000;stroke:none;">11784</tspan></text>
				</g>
				<g>
					<path d="M331.985,393.962l-13.55,0.545l-0.454,9.729l1.588,7.621l-2.49,28.028l6.686-0.067l1.078-3.946l4.705,6.122l5.104-3.471l-1.307-12.449l-4.078-0.477l9.012-19.661l6.75,1.157l-2.098,13.335l-7.825,5.849l3.173,10.412l10.717,3.33l-0.967-5.1l4.028-0.343
						l-3.176-32.995l-11.511,0.953l-5.385-8.573z"/>
					<text transform="matrix(1 0 0 1 319.4478 405.3535)"><tspan x="0" y="0" style="fill:#000000;stroke:none;">11783</tspan></text>
				</g>
				<g>
					<path d="M545.43,362.263l-16.72,10.407l0.281,6.122l10.831-1.225l1.699,14.356l11.396-1.427l-3.117-12.249l8.959-8.096l-1.195-11.158l-12.135,3.269z"/>
					<text transform="matrix(1 0 0 1 535.1245 374.8174)"><tspan x="0" y="0" style="fill:#000000;stroke:none;">11782</tspan></text>
				</g>
				<g>
					<path d="M533.87,302.667l-3.571-0.205l1.134,9.454l-8.051,2.112l-3.006-12.992l-12.021,17.344l-2.833,6.939l1.078,12.18l-11.279,2.721l3.287,2.857l46.146,7.213l-1.304-18.984l-6.46-12.859l9.126-2.514l-5.165-7.371l-3.378,2.137l-3.703-8.031z"/>
					<text transform="matrix(1 0 0 1 516.123 337.8174)"><tspan x="0" y="0" style="fill:#000000;stroke:none;">11779</tspan></text>
				</g>
				<g>
					<path d="M617.662,219.872l0.908,9.252l6.917,10.069l-15.876-1.157l7.14,28.438l23.813-1.292l6.012-18.574l-4.992-25.377l-23.921-1.359z"/>
					<text transform="matrix(1 0 0 1 620.8022 253.6724)"><tspan x="0" y="0" style="fill:#000000;stroke:none;">11778</tspan></text>
				</g>
				<g>
					<path d="M552.122,218.24l-1.699,5.171l-6.463,1.427l4.989,21.431l17.575,0.747l3.797-2.672l-2.156-18.554l12.533-0.135v-6.463l-28.576-0.952z"/>
					<text transform="matrix(1 0 0 1 549.9604 234.6489)"><tspan x="0" y="0" style="fill:#000000;stroke:none;">11777</tspan></text>
				</g>
				<g>
					<path d="M566.524,247.015l-17.575-0.747l-10.093,1.157l16.553,15.988l-4.02,3.334l2.268,9.047l4.494-0.885l3.896-0.273l0.281,2.531l5.479-3.867l4.67,4.603l-0.568-5.138l2.566-5.953l11.563,3.866l0.7-10.907l-10.351-3.571l-1.644-8.64l-3.214-0.132l-1.21-3.085
						l-3.797,2.672z"/>
					<text transform="matrix(1 0 0 1 539.1265 268.626)"><tspan x="0" y="0" style="fill:#000000;stroke:none;">11776</tspan></text>
				</g>
				<g>
					<path d="M586.879,342.124l-13.38-0.406l-5.048,6.324v7.756l4.705-1.565l-2.268,3.267l9.469,15.51l19.673-1.154l17.288,5.307l3.63-7.483l-0.847-7.825l-6.75,0.68l-1.418-15.24l3.516-7.549l-28.57,2.381z"/>
					<text transform="matrix(1 0 0 1 586.5757 361.4541)"><tspan x="0" y="0" style="fill:#000000;stroke:none;">11772</tspan></text>
				</g>
				<g>
					<path d="M285.33,285.112l-0.398,6.94l4.761,0.612l-0.398,6.123l-4.02,0.818l4.02,2.174l4.254,1.022l-0.059-7.688l3.973,1.971l-0.964,11.294l18.706,4.765l1.758-7.485l-4.591-9.387l6.064,1.699l0.284-6.258l-4.646-0.068l1.359-7.893l-4.535-10.543l-6.973,1.699
						l1.869,13.944l-20.464-3.741z M293.149,260.146l-0.17-0.339l3.686-2.382l8.224,11.702h-4.761l-2.555,9.931l-7.201,0.817l5.218-7.075l-2.44-12.653z"/>
					<text transform="matrix(1 0 0 1 296.125 297.4824)"><tspan x="0" y="0" style="fill:#000000;stroke:none;">11771</tspan></text>
				</g>
				<g>
					<path d="M507.62,373.692l-0.284-0.07l0.062,3.673l-4.195,5.444l4.986,6.122l15.475-0.614l5.329-9.455l-0.281-6.122l-0.398-3.401l-20.692,4.424z"/>
					<text transform="matrix(1 0 0 1 507.9727 382.0654)"><tspan x="0" y="0" style="fill:#000000;stroke:none;">11769</tspan></text>
				</g>
				<g>
					<path d="M370.481,264.432l4.137,2.856l0.627-8.299h7.254l8.165,9.863l0.513,9.05l17.004-7.69l6.182,6.399l-0.797,6.12l16.896,0.817l3.571,2.788l14.912-29.727h-8.224v-4.219l-16.269-6.123l-36.908-2.651l-19.614-17.145l-18.313-0.34l6.293,26.121l-5.607,3.879
						l20.18,8.299z"/>
					<text transform="matrix(1 0 0 1 401.127 261.8154)"><tspan x="0" y="0" style="fill:#000000;stroke:none;">11768</tspan></text>
				</g>
				<g>
					<path d="M493.956,300.215l2.95,7.621l0.337,11.36l11.112-0.816l12.021-17.344l-1.359-5.377l-25.061,4.556z"/>
					<text transform="matrix(1 0 0 1 497.127 312.3174)"><tspan x="0" y="0" style="fill:#000000;stroke:none;">11767</tspan></text>
				</g>
				<g>
					<path d="M570.321,244.343l1.21,3.085l3.214,0.132l1.644,8.64l10.351,3.571l13.236,4.866l-3.686-15.24l-16.271-19.187l0.68-4.556l-12.533,0.135l2.156,18.554z"/>
					<text transform="matrix(1 0 0 1 572.2925 259.1484)"><tspan x="0" y="0" style="fill:#000000;stroke:none;">11766</tspan></text>
				</g>
				<g>
					<path d="M268.261,273.21l-1.699,9.113l3.516-1.837l1.925,4.084l-5.098,3.604l8.162,2.654l9.864,1.225l0.398-6.94l-3.686-16.667l-7.937,1.905l-5.446,2.859z"/>
					<text transform="matrix(1 0 0 1 267.3203 279.083)"><tspan x="0" y="0" style="fill:#000000;stroke:none;">11765</tspan></text>
				</g>
				<g>
					<path d="M580.698,219.192v6.463l-0.68,4.556l16.271,19.187l3.686,15.24l6.914,2.517l9.861-0.68l-7.14-28.438l-9.694-2.517l1.529-16.465l-20.748,0.138z"/>
					<text transform="matrix(1 0 0 1 582.5659 247.5405)"><tspan x="0" y="0" style="fill:#000000;stroke:none;">11764</tspan></text>
				</g>
				<g>
					<path d="M606.836,303.553l-22.796,8.774l-3.624,1.904l0.448,7.688l0.062,5.442l4.418-0.409l1.535,15.172l28.57-2.381l2.666-10.819l-3.686-26.257l-7.594,0.886z"/>
					<text transform="matrix(1 0 0 1 591.1401 325.3955)"><tspan x="0" y="0" style="fill:#000000;stroke:none;">11763</tspan></text>
				</g>
				<g>
					<path d="M459.432,320.765l12.357,0.68l13.494-6.601l-7.371,0.884l-2.947-9.184l-10.828,3.061l-5.329,5.377l0.624,5.783z"/>
					<text transform="matrix(1 0 0 1 460.125 319.3174)"><tspan x="0" y="0" style="fill:#000000;stroke:none;">11760</tspan></text>
				</g>
				<g>
					<path d="M338.278,436.689l-3.173-10.412l7.825-5.849l2.098-13.335l-6.75-1.157l-9.012,19.661l4.078,0.477l1.307,12.449l1.078-5.033l2.549,3.199z"/>
					<text transform="matrix(1 0 0 1 330.4165 418.0664)"><tspan x="0" y="0" style="fill:#000000;stroke:none;">11758</tspan></text>
				</g>
				<g>
					<path d="M362.711,394.167l5.771,11.795l1.201,4.193l6.272,15.281l-2.807,4.183l4.948,3.684l6.615-3.962l6.006-3.676l5.672,2.108l-1.778-6.24l-1.731-4.73l-7.21-17.667l-15.478-3.676l-7.482-1.293z"/>
					<text transform="matrix(1 0 0 1 370.5923 412.4033)"><tspan x="0" y="0" style="fill:#000000;stroke:none;">11757</tspan></text>
				</g>
				<g>
					<path d="M283.361,376.344l1.228,6.802l9.809,17.555l11.057,5.508l12.527-1.972l0.454-9.729l13.55-0.545l-4.875-6.325l3.287-2.587l-16.271-0.881l-1.641-7.486h-6.806l-22.318-0.339z"/>
					<text transform="matrix(1 0 0 1 295.2915 392.6494)"><tspan x="0" y="0" style="fill:#000000;stroke:none;">11756</tspan></text>
				</g>
				<g>
					<path d="M448.944,256.61l-14.912,29.727l17.631,6.396l5.104-10.136l11.112,4.219l-1.02-10.204l5.159-2.517l-8.563-0.817l2.839-4.696l-4.541-1.428l-1.131-6.26l-11.678-4.284z"/>
					<text transform="matrix(1 0 0 1 442.127 277.1504)"><tspan x="0" y="0" style="fill:#000000;stroke:none;">11754</tspan></text>
				</g>
				<g>
					<path d="M281.758,338.45l-7.714,2.04l-4.002,12.96l6.243-2.426l1.69,5.221l2.508-0.43l18.278-4.645l1.189-7.21l0.624-4.147l-7.31-3.879l-5.956,5.645l0.565-4.559l-6.117,1.43z"/>
					<text transform="matrix(1 0 0 1 277.1836 348.5908)"><tspan x="0" y="0" style="fill:#000000;stroke:none;">11753</tspan></text>
				</g>
				<g>
					<path d="M479.046,367.432l-0.51,10.61l17.628-3.809l-1.02-6.734l-16.099-0.067z"/>
					<text transform="matrix(1 0 0 1 478.623 372.3174)"><tspan x="0" y="0" style="fill:#000000;stroke:none;">11752</tspan></text>
				</g>
				<g>
					<path d="M473.377,363.556l0.51,5.234l-10.714,0.273l-8.733,2.381l2.783,10.002l5.666-0.816l2.663,15.035l1.307,8.3l9.636-3.47l2.042-22.453l0.51-10.61l-5.669-3.876z"/>
					<text transform="matrix(1 0 0 1 462.123 382.3174)"><tspan x="0" y="0" style="fill:#000000;stroke:none;">11751</tspan></text>
				</g>
				<g>
					<path d="M338.108,334.642l2.607,15.58l3.176,20.883l20.297-5.577l19.33-5.239l-5.839-29.048l-18.425-3.608l-1.189,13.406l-19.957-6.396z"/>
					<text transform="matrix(1 0 0 1 351.3545 357.3691)"><tspan x="0" y="0" style="fill:#000000;stroke:none;">11747</tspan></text>
				</g>
				<g>
					<path d="M349.393,299.469l1.075,19.116l8.786,9.047l18.425,3.608l5.839,29.048l13.266-3.673l28.518-7.96l0.229-13.403l0.735-11.837l-8.845-3.744l-11.505-8.023l-10.266,4.965l-13.38-2.789l-10.939-14.016l-7.992-7.075l-13.945,6.736z"/>
					<text transform="matrix(1 0 0 1 379.7051 329.5088)"><tspan x="0" y="0" style="fill:#000000;stroke:none;">11746</tspan></text>
				</g>
				<g>
					<path d="M370.481,264.432l-23.473,1.702l7.371,9.186l-15.422-4.969l8.168-6.531l-28.518,0.546l29.596-10.952l-2.555,7.073l3.797-9.118l-4.479-5.168l-29.024-7.146l-4.989,15.038l13.775,21.768l0.797,10.274l12.867-5.377l-1.304,7.211l11.449,1.837l0.855,9.662
						l13.945-6.736l7.992,7.075l12.416-5.101l-4.535-5.921l3.571-8.229l-12.132,1.633l4.477-6.19l-0.51-8.711l-4.137-2.856z"/>
					<text transform="matrix(1 0 0 1 345.4604 286.4824)"><tspan x="0" y="0" style="fill:#000000;stroke:none;">11743</tspan></text>
				</g>
				<g>
					<path d="M546.116,315.933l0.791,13.741l15.082-0.272l1.415,15.239l5.048,3.401l5.048-6.324l13.38,0.406l-1.535-15.172l-4.418,0.409l-0.062-5.442l-14.455,1.43l-1.755-10.07l-14.684,1.43l-3.855,1.225z"/>
					<text transform="matrix(1 0 0 1 563.7046 331.3271)"><tspan x="0" y="0" style="fill:#000000;stroke:none;">11742</tspan></text>
				</g>
				<g>
					<path d="M546.116,315.933l-9.126,2.514l6.46,12.859l1.304,18.984l0.677,11.973l12.135-3.269l10.887-3.196v-7.756l-5.048-3.401l-1.415-15.239l-15.082,0.272l-0.791-13.741z"/>
					<text transform="matrix(1 0 0 1 547.6226 353.8174)"><tspan x="0" y="0" style="fill:#000000;stroke:none;">11741</tspan></text>
				</g>
				<g>
					<path d="M382.783,280.557l-3.571,8.229l4.535,5.921l-12.416,5.101l10.939,14.016l2.836-10.341l5.215,0.816l4.875-9.931l6.182,1.086l-8.162-8.572l-4.881-6.462l-5.552,0.137z"/>
					<text transform="matrix(1 0 0 1 378.2285 300.1221)"><tspan x="0" y="0" style="fill:#000000;stroke:none;">11740</tspan></text>
				</g>
				<g>
					<path d="M496.223,374.507l4.251,20.546l-10.714,1.426l-2.889,7.961l3.908,2.788l3.176,1.366l0.568-4.357l1.928,5.104l12.53-0.07l7.368-13.673l-13.605-7.552l-0.964-5.918l5.616-4.832l-0.062-3.673l-11.112,0.885z"/>
					<text transform="matrix(1 0 0 1 493.6528 401.4814)"><tspan x="0" y="0" style="fill:#000000;stroke:none;">11739</tspan></text>
				</g>
				<g>
					<path d="M572.439,301.296l-10.901,9.057l-4.992-4.421l-8.619-8.166l2.045,16.942l14.684-1.43l1.755,10.07l14.455-1.43l-0.448-7.688l3.624-1.904l-4.907-8.049l-7.102,2.818l0.407-5.801z"/>
					<text transform="matrix(1 0 0 1 564.6265 314.8174)"><tspan x="0" y="0" style="fill:#000000;stroke:none;">11738</tspan></text>
				</g>
				<g>
					<path d="M343.891,371.104l1.928,11.361l-3.516-3.535l-11.115,3.468l-0.791,2.651l-3.287,2.587l4.875,6.325l5.385,8.573l11.511-0.953l-0.741-4.286l6.182,3.199l8.391-6.328l7.482,1.293l-2.376-8.165l-1.011-4.472l-2.619-17.296l-20.297,5.577z"/>
					<text transform="matrix(1 0 0 1 340.4565 390.6504)"><tspan x="0" y="0" style="fill:#000000;stroke:none;">11735</tspan></text>
				</g>
				<g>
					<path d="M289.293,301.78l-5.385,4.285l3.744,4.899l7.482-2.585h1.362l0.964-11.294l-3.973-1.971l0.059,7.688l-4.254-1.022z"/>
					<text transform="matrix(1 0 0 1 282.123 307.8174)"><tspan x="0" y="0" style="fill:#000000;stroke:none;">11732</tspan></text>
				</g>
				<g>
					<path d="M391.176,277.902l2.039,8.979l8.162,8.572l-6.182-1.086l-4.875,9.931l-5.215-0.816l-2.836,10.341l13.38,2.789l10.266-4.965l11.505,8.023l-6.917-25.848l17.405-3.264l2.552-7.011l-16.896-0.817l0.797-6.12l-6.182-6.399l-17.004,7.69z"/>
					<text transform="matrix(1 0 0 1 401.4585 290.8174)"><tspan x="0" y="0" style="fill:#000000;stroke:none;">11731</tspan></text>
				</g>
				<g>
					<path d="M496.165,374.233l-17.628,3.809l-2.042,22.453l7.201,4.762l6.064-8.778l10.714-1.426l-4.251-20.546l-0.059-0.273z"/>
					<text transform="matrix(1 0 0 1 480.3604 392.7471)"><tspan x="0" y="0" style="fill:#000000;stroke:none;">11730</tspan></text>
				</g>
				<g>
					<path d="M396.784,356.615l-4.875,4.83l5.385,16.462l0.398,0.408l10.887-6.461l10.26,6.121l6.352-19.254l0.111-10.066l-28.518,7.96z"/>
					<text transform="matrix(1 0 0 1 400.4795 366.4873)"><tspan x="0" y="0" style="fill:#000000;stroke:none;">11729</tspan></text>
				</g>
				<g>
					<path d="M368.483,405.962l-5.426-2.042l-1.834,9.258l-5.37,2.421l6.806,1.292l0.621,11.021l5.095-0.254l-2.183,9.172l11.906-3.526l-4.948-3.684l2.807-4.183l-6.272-15.281l-1.201-4.193z"/>
					<text transform="matrix(1 0 0 1 363.3462 422.293)"><tspan x="0" y="0" style="fill:#000000;stroke:none;">11726</tspan></text>
				</g>
				<g>
					<path d="M430.46,283.549l-2.552,7.011l-17.405,3.264l6.917,25.848l8.845,3.744l-0.735,11.837l14.285-1.222l-1.872-8.232l10.544-8.845l-9.41-5.238l6.914-0.817l5.9-10.547l5.156-1.155l-5.385-6.463l-17.631-6.396l-3.571-2.788z"/>
					<text transform="matrix(1 0 0 1 422.625 307.3174)"><tspan x="0" y="0" style="fill:#000000;stroke:none;">11725</tspan></text>
				</g>
				<g>
					<path d="M329.547,291.646l4.875,18.502l3.686,24.494l19.957,6.396l1.189-13.406l-8.786-9.047l-1.075-19.116l-0.855-9.662l-11.449-1.837l1.304-7.211l-12.867,5.377l4.022,5.51z"/>
					<text transform="matrix(1 0 0 1 334.125 308.3154)"><tspan x="0" y="0" style="fill:#000000;stroke:none;">11724</tspan></text>
				</g>
				<g>
					<path d="M461.7,335.457l11.678,28.099l5.669,3.876l16.099,0.067l1.02,6.734l0.059,0.273l11.112-0.885l0.284,0.07l0.967-8.644l-12.19-12.515l2.212-9.457l-3.287-2.857l11.279-2.721l-1.078-12.18l-23.074,2.584l-1.301,6.941l-19.447,0.612z"/>
					<text transform="matrix(1 0 0 1 474.123 353.8174)"><tspan x="0" y="0" style="fill:#000000;stroke:none;">11722</tspan></text>
				</g>
				<g>
					<path d="M374.618,267.288l0.51,8.711l-4.477,6.19l12.132-1.633l5.552-0.137l4.881,6.462l-2.039-8.979l-0.513-9.05l-8.165-9.863h-7.254l-0.627,8.299z"/>
					<text transform="matrix(1 0 0 1 373.8076 275.9365)"><tspan x="0" y="0" style="fill:#000000;stroke:none;">11721</tspan></text>
				</g>
				<g>
					<path d="M551.389,266.747l-16.219,12.31l-3.287,2.386l-1.418,19.452l3.463,0.684l-0.059,1.089l3.703,8.031l3.378-2.137l5.165,7.371l3.855-1.225l-2.045-16.942l8.619,8.166l1.635-10.058l0.847-12.801l-0.876-8.164l-4.494,0.885l-2.268-9.047z"/>
					<text transform="matrix(1 0 0 1 538.9585 292.4834)"><tspan x="0" y="0" style="fill:#000000;stroke:none;">11720</tspan></text>
				</g>
				<g>
					<path d="M643.458,340.288l-18.369,5.1l1.078,11.021l6.293,4.765l0.398,5.85l19.102-1.769l1.022-4.148l-1.034-1.676l-0.387-0.845l-0.334-1.019l-0.176-0.34l8.279-16.87l-2.153-3.882l-13.72,3.813z M746.694,354.982v1.767l-14.285,5.377l13.04-10.137l1.245,2.993
						z"/>
					<text transform="matrix(1 0 0 1 632.1265 357.8154)"><tspan x="0" y="0" style="fill:#000000;stroke:none;">11719</tspan></text>
				</g>
				<g>
					<path d="M451.264,403.016l-9.463-10.614l3.911-1.904l-2.268-5.106l-7.146-1.495l1.699,8.774l14.007,13.945l-6.524-8.095l5.783,4.495z"/>
					<text transform="matrix(1 0 0 1 432.627 394.8174)"><tspan x="0" y="0" style="fill:#000000;stroke:none;">11718</tspan></text>
				</g>
				<g>
					<path d="M425.53,335.252l-0.229,13.403l-0.111,10.066l24.094-5.169l-0.454,7.688l14.344,7.823l10.714-0.273l-0.51-5.234L461.7,335.457l-21.885-1.427l-14.285,1.222z"/>
					<text transform="matrix(1 0 0 1 438.875 350.0674)"><tspan x="0" y="0" style="fill:#000000;stroke:none;">11717</tspan></text>
				</g>
				<g>
					<path d="M498.608,343.077l-2.212,9.457l12.19,12.515l-0.967,8.644l20.692-4.424l0.398,3.401l16.72-10.407l-0.677-11.973l-46.146-7.213z"/>
					<text transform="matrix(1 0 0 1 512.7891 361.3838)"><tspan x="0" y="0" style="fill:#000000;stroke:none;">11716</tspan></text>
				</g>
				<g>
					<path d="M568.452,355.798l2.323,30.138l9.583-12.927l-9.469-15.51l2.268-3.267l-4.705,1.565z"/>
					<text transform="matrix(1 0 0 1 571.0659 377.2529)"><tspan x="0" y="0" style="fill:#000000;stroke:none;">11715</tspan></text>
				</g>
				<g>
					<path d="M308.629,360.288l-2.95,16.395h6.806l1.641,7.486l16.271,0.881l0.791-2.651l-6.516-7.62l2.098-10.476l-6.237-1.021l-1.022-4.763l-10.881,1.769z"/>
					<text transform="matrix(1 0 0 1 308.5239 373.4541)"><tspan x="0" y="0" style="fill:#000000;stroke:none;">11714</tspan></text>
				</g>
				<g>
					<path d="M615.45,339.743l-3.516,7.549l1.418,15.24l6.75-0.68l0.847,7.825l-3.63,7.483l6.469,1.358l9.07-11.496l-0.398-5.85l-6.293-4.765l-1.078-11.021l18.369-5.1l-25.342-11.364l-2.666,10.819z"/>
					<text transform="matrix(1 0 0 1 616.6226 343.3174)"><tspan x="0" y="0" style="fill:#000000;stroke:none;">11713</tspan></text>
				</g>
				<g>
					<path d="M276.315,406.615l4.986,5.376l-0.398,11.361l8.109,17.622l6.123,2.786l2.382,3.88l0.964-3.401l-1.192-26.329l-6.179-16.258l-14.795,4.963z"/>
					<text transform="matrix(1 0 0 1 279.7808 425.3564)"><tspan x="0" y="0" style="fill:#000000;stroke:none;">11710</tspan></text>
				</g>
				<g>
					<path d="M292.979,259.807l-11.168,4.218l-10.26-4.83l-9.697,4.354l6.407,9.662l5.446-2.859l3.627-5.102l9.015,1.973l2.722-4.761l3.176-1.296l0.902-1.02l-0.17-0.339z"/>
					<text transform="matrix(1 0 0 1 262.9604 267.1494)"><tspan x="0" y="0" style="fill:#000000;stroke:none;">11709</tspan></text>
				</g>
				<g>
					<path d="M425.19,358.722l-6.352,19.254l13.945,4.151l-1.415,20.478l5.897,10.137l14.739-6.126l-14.007-13.945l-1.699-8.774l7.146,1.495l2.268,5.106l-3.911,1.904l9.463,10.614l14.288-7.351l-2.663-15.035l-5.666,0.816l-2.783-10.002l8.733-2.381l-14.344-7.823
						l0.454-7.688l-24.094,5.169z M525.081,436.007l1.134,2.654l-75.46,19.66l-32.142,1.905l-3.97-6.124l3.627,3.943l6.463-4.283l22.169,3.129l78.179-20.885z M491.125,438.251l-7.26-4.627l7.881,0.273l-0.621,4.354z M464.477,441.11l-5.443-1.699l2.777-2.588
						l2.666,4.287z"/>
					<text transform="matrix(1 0 0 1 430.623 374.8174)"><tspan x="0" y="0" style="fill:#000000;stroke:none;">11706</tspan></text>
				</g>
				<g>
					<path d="M557.565,358.994l1.195,11.158l-8.959,8.096l3.117,12.249l17.856-4.562l-2.323-30.138l-10.887,3.196z"/>
					<text transform="matrix(1 0 0 1 555.1226 367.8174)"><tspan x="0" y="0" style="fill:#000000;stroke:none;">11705</tspan></text>
				</g>
				<g>
					<path d="M397.293,377.907l-14.279,3.279l-3.999-3.133l-12.208,4.77l1.011,4.472l2.376,8.165l15.478,3.676l7.21,17.667l1.731,4.73l4.441,4.403l2.247-3.759l0.563-4.783l-3.551-8.532l4.148-10.559l1.995-2.422l-6.765-17.566l-0.398-0.408z"/>
					<text transform="matrix(1 0 0 1 381.3882 394.9238)"><tspan x="0" y="0" style="fill:#000000;stroke:none;">11704</tspan></text>
				</g>
				<g>
					<path d="M397.692,378.315l6.765,17.566l10.028-0.551l4.354-17.355l-10.26-6.121l-10.887,6.461z"/>
					<text transform="matrix(1 0 0 1 400.1426 386.8662)"><tspan x="0" y="0" style="fill:#000000;stroke:none;">11703</tspan></text>
				</g>
				<g>
					<path d="M352.17,463.968l0.111,3.811l64.348-20.209l24.489,2.317l10.374-4.288l-28.969,1.358l-13.834-4.487l-4.084,5.033l-52.436,16.465z M404.457,395.882l10.028-0.551l-0.123,2.647l-2.666,14.625l2.666,2.722l-1.02,4.424l-6.407-4.968l-3.349,7.552
						l-2.285-0.155l0.563-4.783l-3.551-8.532l4.148-10.559l1.995-2.422z M386.237,450.566l-3.34-3.334l7.767,0.545l-5.897-1.634l5.555-4.488l13.154,2.311l-17.238,6.601z M430.973,440.09l11.396-6.667l7.538,9.456l-18.935-2.789z M360.561,457.848l-3.287-0.683
						l0.791-6.938l9.07,0.475l-6.574,7.146z M450.754,442.129l-4.307-5.035l3.686-4.012l4.878,4.354l-4.257,4.692z M423.145,446.075l-4.02-1.43l4.418-3.129l4.819,2.517l-5.218,2.042z M358.349,449.749l-0.056-5.783l3.686,1.292l-3.63,4.491z M377.055,452.266
						l-5.273-4.218l4.708-0.205l0.565,4.423z M372.18,446.758l-3.97-2.519l7.655,0.067l-3.686,2.451z M382.499,452.606l0.34-4.624l3.346,3.537l-3.686,1.087z M368.043,450.974l-3.287-2.65l4.081-0.888l-0.794,3.538z M352,457.915l4.477,1.699l-4.421,1.021
						L352,457.915z"/>
					<text transform="matrix(1 0 0 1 404.127 447.8154)"><tspan x="0" y="0" style="fill:#000000;stroke:none;">11702</tspan></text>
				</g>
				<g>
					<path d="M348.88,401.582l3.176,32.995l5.895,0.612l0.056-8.3l4.084,9.934l1.031-8.759l0.205,0.081l2.865,8.684l2.183-9.172l-5.095,0.254l-0.621-11.021l-6.806-1.292l5.37-2.421l1.834-9.258l5.426,2.042l-5.771-11.795l-8.391,6.328l-6.182-3.199l0.741,4.286z"/>
					<text transform="matrix(1 0 0 1 348.1909 427.457)"><tspan x="0" y="0" style="fill:#000000;stroke:none;">11701</tspan></text>
				</g>
				<g>
					<path d="M91.721,495.468l-29.877,7.276l-2.379,8.913l22.16-9.047l11.399-4.762l-1.304-2.381z"/>
					<text transform="matrix(1 0 0 1 60.9165 505.1914)"><tspan x="0" y="0" style="fill:#000000;stroke:none;">11697</tspan></text>
				</g>
				<g>
					<path d="M93.025,497.849l-11.399,4.762l12.308-2.517l-0.908-2.245z"/>
					<text transform="matrix(1 0 0 1 82.5 502.3164)"><tspan x="0" y="0" style="fill:#000000;stroke:none;">11695</tspan></text>
				</g>
				<g>
					<path d="M127.668,482.403l-35.947,13.064l1.304,2.381l0.908,2.245l35.259-14.15l-1.523-3.54z"/>
					<text transform="matrix(1 0 0 1 100.1675 492.415)"><tspan x="0" y="0" style="fill:#000000;stroke:none;">11694</tspan></text>
				</g>
				<g>
					<path d="M119.729,464.92l8.162,1.975l-1.189,7.142l-6.237,3.472l6.574-0.409l3.97-10.954l-5.215-18.912l-5.613,0.337l-0.059,7.825l-0.393,9.525z M140.383,467.62l-2.742-1.611l6.747-8.979l5.783,7.344l-6.747,5.037l-2.426-1.43l-0.41,3.4l-4.025-3.466
						l3.82-0.296z M127.668,482.403l6.176-4.08l2.836,5.51l-7.488,2.11l-1.523-3.54z M136.053,464.512l-1.134-7.276l7.371-1.161l-6.237,8.438z M120.18,481.657l-7.313-2.654l4.989-2.517l2.323,5.171z M132.596,475.261l-2.663-3.945l2.552-1.088l0.111,5.033z"/>
					<text transform="matrix(1 0 0 1 116.7085 463.4004)"><tspan x="0" y="0" style="fill:#000000;stroke:none;">11693</tspan></text>
				</g>
				<g>
					<path d="M133.844,478.323l2.836,5.51l12.416-2.788l-4.479-5.034l1.471-4.83l-12.243,7.143z"/>
					<text transform="matrix(1 0 0 1 136.7559 480.1748)"><tspan x="0" y="0" style="fill:#000000;stroke:none;">11692</tspan></text>
				</g>
				<g>
					<path d="M164.571,467.302l-10.318-2.928l2.722,11.228l-7.825-1.02l4.819-5.579l-3.287-2.18l-6.064,9.188l4.479,5.034l25.228-3.196l-4.251-11.909l-5.502,1.362z"/>
					<text transform="matrix(1 0 0 1 155.5146 475.042)"><tspan x="0" y="0" style="fill:#000000;stroke:none;">11691</tspan></text>
				</g>
				<g>
					<path d="M178.065,447.232l13.377,15.036l0.398,0.68l0.624,0.746l0.346,0.47l2.206-0.741l5.215-5.986l-9.24-8.912l1.699-5.376l-4.025-3.33l-10.6,7.414z"/>
					<text transform="matrix(1 0 0 1 178.1665 451.6084)"><tspan x="0" y="0" style="fill:#000000;stroke:none;">11598</tspan></text>
				</g>
				<g>
					<path d="M220.926,363.623l1.301,5.716l15.082-3.744l-2.326-5.443l-5.61,0.614l-8.446,2.857z"/>
					<text transform="matrix(1 0 0 1 220.0835 366.5674)"><tspan x="0" y="0" style="fill:#000000;stroke:none;">11596</tspan></text>
				</g>
				<g>
					<path d="M277.976,356.245l-1.69-5.221l-6.243,2.426l-29.42,14.365l9.155-1.475l2.666,8.438l6.92-1.156l4.535-1.293l4.025,8.301l16.664,2.516l-1.228-6.802l-3.272-8.585l-1.201-7.081l1.597-4.862l-2.508,0.43z"/>
					<text transform="matrix(1 0 0 1 259.3149 366.0859)"><tspan x="0" y="0" style="fill:#000000;stroke:none;">11590</tspan></text>
				</g>
				<g>
					<path d="M179.823,429.614l1.869,8.909l-6.914,2.246l2.777,6.599l0.51-0.136l10.6-7.414l4.025,3.33l8.9-3.129l1.248-4.354l-3.738-1.225l-19.277-4.827z"/>
					<text transform="matrix(1 0 0 1 181.8335 437.6504)"><tspan x="0" y="0" style="fill:#000000;stroke:none;">11581</tspan></text>
				</g>
				<g>
					<path d="M181.071,413.761l0.059,1.767l-1.307,14.087l19.277,4.827l5.839-5.847l2.49-11.365l-7.427-1.836l-18.932-1.633z"/>
					<text transform="matrix(1 0 0 1 183.6689 425.7695)"><tspan x="0" y="0" style="fill:#000000;stroke:none;">11580</tspan></text>
				</g>
				<g>
					<path d="M224.612,301.44l-1.254,12.588l10.945-1.43l-2.156-5.921l0.627-5.305l-8.162,0.067z"/>
					<text transform="matrix(1 0 0 1 220.7051 310.7002)"><tspan x="0" y="0" style="fill:#000000;stroke:none;">11579</tspan></text>
				</g>
				<g>
					<path d="M221.038,345.728l-1.922,0.533l0.659,2.869l0.129,2.724l0.325,0.732l8.092,1.437l1.052,6.743l5.61-0.614l2.326,5.443l1.758-0.408l-1.078-12.313l-7.541-1.296l-2.607-9.249l-6.803,3.398z"/>
					<text transform="matrix(1 0 0 1 225 356.0674)"><tspan x="0" y="0" style="fill:#000000;stroke:none;">11577</tspan></text>
				</g>
				<g>
					<path d="M224.665,333.757l-2.32,1.088l-9.015,5.167l0.958,3.472l4.828,2.777l1.922-0.533l6.803-3.398l3.574-9.049l-6.75,0.477z"/>
					<text transform="matrix(1 0 0 1 213.5815 341.9355)"><tspan x="0" y="0" style="fill:#000000;stroke:none;">11576</tspan></text>
				</g>
				<g>
					<path d="M254.205,415.599l-1.819,8.639l17.068,5.377l-3.062-17.757l-12.188,3.741z"/>
					<text transform="matrix(1 0 0 1 252.2969 422.2363)"><tspan x="0" y="0" style="fill:#000000;stroke:none;">11575</tspan></text>
				</g>
				<g>
					<path d="M219.959,440.703l-2.496,16.937l0.826,0.626l0.773-0.179h1.154l0.677,0.449l0.645,0.816l0.577,1.55l0.609,1.592l1.318-0.226l4.649,0.271l9.296,1.767l5.783-5.646l-4.195-6.667l3.797,0.204l-3.457-17.212l-9.24,6.804l-10.717-1.087z"/>
					<text transform="matrix(1 0 0 1 221.4165 454.4414)"><tspan x="0" y="0" style="fill:#000000;stroke:none;">11572</tspan></text>
				</g>
				<g>
					<path d="M233.735,413.283l-5.895,12.111l-4.535-2.313l-3.516,8.03l1.022,7.14l-0.853,2.452l10.717,1.087l9.24-6.804l2.777-3.334l-2.209-8.366l-5.672,1.496l3.686-9.796l-4.764-1.703z"/>
					<text transform="matrix(1 0 0 1 221.9585 434.1084)"><tspan x="0" y="0" style="fill:#000000;stroke:none;">11570</tspan></text>
				</g>
				<g>
					<path d="M245.36,333.757l2.496,2.039l-8.224,2.11l3.062,5.647l-4.705,9.32l1.078,12.313l1.131,2.039l0.425,0.59l29.42-14.365l4.002-12.96l7.714-2.04l-8.848,1.702l-17.971-13.2l-9.58,6.805z"/>
					<text transform="matrix(1 0 0 1 244.248 349.8857)"><tspan x="0" y="0" style="fill:#000000;stroke:none;">11568</tspan></text>
				</g>
				<g>
					<path d="M265.768,409.27l0.624,2.588l3.062,17.757l1.98,13.534l2.273,10.547l4.195-3.879l-1.251-5.783l5.728,4.357l2.552-6.329l6.46,5.986l3.744-4.287l-6.123-2.786l-8.109-17.622l0.398-11.361l-4.986-5.376l-10.547,2.654z M270.359,445.124l1.362,7.754
						l-4.084,4.832l-2.098-9.867l4.819-2.719z"/>
					<text transform="matrix(1 0 0 1 269.25 435.5664)"><tspan x="0" y="0" style="fill:#000000;stroke:none;">11566</tspan></text>
				</g>
				<g>
					<path d="M207.429,417.229l-2.49,11.365l5.385-3.813l8.505,3.402l-1.931-7.894l4.081-2.926l-6.914,0.275l-6.636-0.411z"/>
					<text transform="matrix(1 0 0 1 203.625 423.1914)"><tspan x="0" y="0" style="fill:#000000;stroke:none;">11565</tspan></text>
				</g>
				<g>
					<path d="M204.939,428.595l-5.839,5.847l3.738,1.225l-1.248,4.354l6.012,4.764l13.21-6.532l-1.022-7.14l-0.961-2.927l-8.505-3.402l-5.385,3.813z"/>
					<text transform="matrix(1 0 0 1 201.9985 436.4521)"><tspan x="0" y="0" style="fill:#000000;stroke:none;">11563</tspan></text>
				</g>
				<g>
					<path d="M195.072,481.316l-0.111,3.671l66.727-1.904v-4.488l-17.859-2.654l-12.981,1.43l-0.117,3.809l-1.523-3.809l-34.134,3.946z"/>
					<text transform="matrix(1 0 0 1 216.7012 482.4678)"><tspan x="0" y="0" style="fill:#000000;stroke:none;">11561</tspan></text>
				</g>
				<g>
					<path d="M240.426,271.165l-7.257,5.309l7.825-2.652l3.343,13.469l11.681,5.987l1.758,5.918l4.365,7.554l12.926-15.921l-8.162-2.654l5.098-3.604l-1.925-4.084l-3.516,1.837l1.699-9.113l-6.407-9.662l-21.428,7.617z"/>
					<text transform="matrix(1 0 0 1 249.04 284.1484)"><tspan x="0" y="0" style="fill:#000000;stroke:none;">11560</tspan></text>
				</g>
				<g>
					<path d="M174.778,440.77l-1.195,8.979l-4.418-0.68l-0.398-0.679l0.964,5.712l4.992,9.592l-4.649,2.245l4.251,11.909l5.95-8.098l-4.195,7.619l27.554,1.091l-0.167-5.376l-9.322-1.43l-3.1-0.475l1.535-6.94l-0.738-1.292l-0.398-0.68l-9.012,7.008l1.362-4.629
						l-8.563-8.436l2.326-8.844l-2.777-6.599z"/>
					<text transform="matrix(1 0 0 1 179.833 475.8584)"><tspan x="0" y="0" style="fill:#000000;stroke:none;">11559</tspan></text>
				</g>
				<g>
					<path d="M219.561,467.69l-0.847-4.538l-3.858,5.374l4.436-0.507l-1.485,1.801l-0.343,6.595l4.195,0.343l5.162-2.042l1.872-12.176l-4.649-0.271l-2.977,3.601l1.389-3.329l-0.056-0.34l-1.151,0.053l-0.141,1.658l-2.057,0.668l1.066,2.44l-0.557,0.671z
						 M205.748,469.021l-1.263,2.092l-7.77-9.255l3.064-2.855l4.986-0.067l1.872,5.439l2.552-2.785l-1.761,7.688l-1.682-0.256z M215.594,457.956l1.614,0.05l-2.862,8.347l-3.568-1.161l4.816-7.235z M214.569,457.504l0.973,0.206l-4.937,4.49l-2.153-4.222
						l6.117-0.475z M216.107,476.349l-2.777-4.829l4.192-1.563l-1.415,6.393z"/>
					<text transform="matrix(1 0 0 1 204.5801 470.1318)"><tspan x="0" y="0" style="fill:#000000;stroke:none;">11558</tspan></text>
				</g>
				<g>
					<path d="M192.69,443.148l-1.699,5.376l9.24,8.912l8.73-3.4l-1.359-9.253l-6.012-4.764l-8.9,3.129z"/>
					<text transform="matrix(1 0 0 1 191.917 449.8584)"><tspan x="0" y="0" style="fill:#000000;stroke:none;">11557</tspan></text>
				</g>
				<g>
					<path d="M259.364,373.622l4.078,17.484l2.326,18.163l10.547-2.654l14.795-4.963l3.287-0.952l-9.809-17.555l-16.664-2.516l-4.025-8.301l-4.535,1.293z"/>
					<text transform="matrix(1 0 0 1 266.4604 394.9834)"><tspan x="0" y="0" style="fill:#000000;stroke:none;">11554</tspan></text>
				</g>
				<g>
					<path d="M253.071,395.527l-4.881,21.022l6.015-0.951l12.188-3.741l-0.624-2.588l-2.326-18.163l-10.371,4.421z"/>
					<text transform="matrix(1 0 0 1 249.75 407.6494)"><tspan x="0" y="0" style="fill:#000000;stroke:none;">11553</tspan></text>
				</g>
				<g>
					<path d="M217.862,401.787l-3.797,15.854l6.914-0.275l-4.081,2.926l1.931,7.894l0.961,2.927l3.516-8.03l4.535,2.313l5.895-12.111l-0.34-8.844l-2.666,1.563l-2.83-8.639l-10.037,4.423z"/>
					<text transform="matrix(1 0 0 1 216 412.6914)"><tspan x="0" y="0" style="fill:#000000;stroke:none;">11552</tspan></text>
				</g>
				<g>
					<path d="M227.899,397.364l2.83,8.639l2.666-1.563l0.34,8.844l4.764,1.703l-3.686,9.796l5.672-1.496l3.741-8.778l3.964,2.042l4.881-21.022l-4.538,1.769l-2.833-5.848l-17.801,5.916z"/>
					<text transform="matrix(1 0 0 1 233.2085 406.3584)"><tspan x="0" y="0" style="fill:#000000;stroke:none;">11550</tspan></text>
				</g>
				<g>
					<path d="M231.415,333.28l-3.574,9.049l2.607,9.249l7.541,1.296l4.705-9.32l-3.062-5.647l8.224-2.11l-2.496-2.039l-8.903-6.805l-5.042,6.328z"/>
					<text transform="matrix(1 0 0 1 225.875 344.0674)"><tspan x="0" y="0" style="fill:#000000;stroke:none;">11548</tspan></text>
				</g>
				<g>
					<path d="M223.358,314.028l1.705,4.283l2.244,2.975l4.277-2.84l0.111,4.697l6.293,2.516l-3.686-13.061l-10.945,1.43z"/>
					<text transform="matrix(1 0 0 1 222.375 318.5674)"><tspan x="0" y="0" style="fill:#000000;stroke:none;">11547</tspan></text>
				</g>
				<g>
					<path d="M275.067,290.828l-12.926,15.921l-4.365-7.554l-25.629,7.482l2.156,5.921l3.686,13.061l-6.293-2.516l-0.111-4.697l-4.277,2.84l0.533,0.703l-3.176,11.768l6.75-0.477l5.042-6.328l8.903,6.805l9.58-6.805l17.971,13.2l8.848-1.702l6.117-1.43l-0.565,4.559
						l5.956-5.645l12.357-11.294l-0.853-6.396l-2.546-3.875l-4.313,2.173l-2.777-8.162l-7.482,2.585l-3.744-4.899l5.385-4.285l-4.02-2.174l4.02-0.818l0.398-6.123l-4.761-0.612l-9.864-1.225z"/>
					<text transform="matrix(1 0 0 1 257.0215 319.2031)"><tspan x="0" y="0" style="fill:#000000;stroke:none;">11545</tspan></text>
				</g>
				<g>
					<path d="M240.426,271.165l-6.803-2.857l-12.076,16.466l1.189,14.422l9.188-3.264l-7.313,5.509l8.162-0.067l-0.627,5.305l25.629-7.482l-1.758-5.918l-11.681-5.987l-3.343-13.469l-7.825,2.652l7.257-5.309z"/>
					<text transform="matrix(1 0 0 1 226.3403 292.6504)"><tspan x="0" y="0" style="fill:#000000;stroke:none;">11542</tspan></text>
				</g>
				<g>
					<path d="M252.444,374.778l-11.736,2.449l-17.631,3.133l-20.291,9.726l-0.627,3.742l13.324,0.272l2.379,7.687l10.037-4.423l17.801-5.916l2.833,5.848l4.538-1.769l10.371-4.421l-4.078-17.484l-6.92,1.156z"/>
					<text transform="matrix(1 0 0 1 224.6777 390.7041)"><tspan x="0" y="0" style="fill:#000000;stroke:none;">11530</tspan></text>
				</g>
				<g>
					<path d="M252.385,424.237l-2.15,11.564l4.137,14.697l5.443,1.834l-0.791-5.376l1.474,8.778l7.14,1.975l-2.098-9.867l4.819-2.719l1.075-1.976l-1.98-13.534l-17.068-5.377z"/>
					<text transform="matrix(1 0 0 1 252.0425 440.1416)"><tspan x="0" y="0" style="fill:#000000;stroke:none;">11520</tspan></text>
				</g>
				<g>
					<path d="M220.812,438.251l-13.21,6.532l1.359,9.253l5.839,3.059l2.326,0.477l0.337,0.068l2.496-16.937l0.853-2.452z"/>
					<text transform="matrix(1 0 0 1 205.4165 448.5664)"><tspan x="0" y="0" style="fill:#000000;stroke:none;">11518</tspan></text>
				</g>
				<g>
					<path d="M177.555,447.368l-2.326,8.844l8.563,8.436l-1.362,4.629l9.012-7.008l-13.377-15.036l-0.51,0.136z"/>
					<text transform="matrix(1 0 0 1 174.167 459.8994)"><tspan x="0" y="0" style="fill:#000000;stroke:none;">11516</tspan></text>
				</g>
				<g>
					<path d="M240.198,367.226l0.51,10.002l11.736-2.449l-2.666-8.438l-9.155,1.475l-0.425-0.59z"/>
					<text transform="matrix(1 0 0 1 237.3618 373.1182)"><tspan x="0" y="0" style="fill:#000000;stroke:none;">11514</tspan></text>
				</g>
				<g>
					<path d="M248.19,416.55l-3.964-2.042l-3.741,8.778l2.209,8.366l-2.777,3.334l3.457,17.212l3.46,6.262l4.195-3.199l4.421,4.354l-1.078-9.115l-4.137-14.697l2.15-11.564l1.819-8.639l-6.015,0.951z"/>
					<text transform="matrix(1 0 0 1 237.3335 442.5244)"><tspan x="0" y="0" style="fill:#000000;stroke:none;">11510</tspan></text>
				</g>
				<g>
					<path d="M195.072,481.316l-24.267-2.584l-6.179,5.916l30.334,0.339l0.111-3.671z"/>
					<text transform="matrix(1 0 0 1 172.0596 483.3613)"><tspan x="0" y="0" style="fill:#000000;stroke:none;">11509</tspan></text>
				</g>
				<g>
					<path d="M220.229,352.586l-5.511,2.228l-2.183,7.449l8.391,1.36l8.446-2.857l-1.052-6.743l-8.092-1.437z"/>
					<text transform="matrix(1 0 0 1 212.625 359.8174)"><tspan x="0" y="0" style="fill:#000000;stroke:none;">11507</tspan></text>
				</g>
				<g>
					<path d="M237.309,365.595l-15.082,3.744l-2.438,4.693l3.287,6.328l17.631-3.133l-0.51-10.002l-1.131-2.039l-1.758,0.408z"/>
					<text transform="matrix(1 0 0 1 222.126 375.7744)"><tspan x="0" y="0" style="fill:#000000;stroke:none;">11501</tspan></text>
				</g>
				<g>
					<path d="M135.543,417.707l4.424,11.021l4.986-0.205l-2.663-13.198l-6.747,2.382z"/>
					<text transform="matrix(1 0 0 1 130.998 420.1533)"><tspan x="0" y="0" style="fill:#000000;stroke:none;">11436</tspan></text>
				</g>
				<g>
					<path d="M124.375,395.799l-2.722,0.75l7.655,6.938l1.359,4.015l3.686,7.348l1.189,2.858l6.747-2.382l-5.839-10.543l-4.421-11.5l-7.655,2.517z"/>
					<text transform="matrix(1 0 0 1 120.8496 399.8691)"><tspan x="0" y="0" style="fill:#000000;stroke:none;">11435</tspan></text>
				</g>
				<g>
					<path d="M142.291,415.325l2.663,13.198l12.419,7.21l3.8-17.956l-5.502-8.915l-13.38,6.463z"/>
					<text transform="matrix(1 0 0 1 143.7739 422.4648)"><tspan x="0" y="0" style="fill:#000000;stroke:none;">11434</tspan></text>
				</g>
				<g>
					<path d="M150.514,400.224l-14.063,4.559l5.839,10.543l13.38-6.463l-2.438-6.258l-2.719-2.381z"/>
					<text transform="matrix(1 0 0 1 136.8521 409.2764)"><tspan x="0" y="0" style="fill:#000000;stroke:none;">11433</tspan></text>
				</g>
				<g>
					<path d="M133.9,392.67l-1.869,0.612l4.421,11.5l14.063-4.559l-1.137-3.133l4.591-1.292l-4.31-9.592L133.9,392.67z"/>
					<text transform="matrix(1 0 0 1 133.877 398.1611)"><tspan x="0" y="0" style="fill:#000000;stroke:none;">11432</tspan></text>
				</g>
				<g>
					<path d="M139.967,428.729l-19.336,1.087l3.29,11.429l4.538-9.251l-1.931,8.505l27.554,15.644l-1.646,6.669l15.311-12.65l-3.003-8.711l4.022,6.941l0.398,0.679l1.755-2.855l-13.547-10.48l-12.419-7.21l-4.986,0.205z"/>
					<text transform="matrix(1 0 0 1 135.375 441.9414)"><tspan x="0" y="0" style="fill:#000000;stroke:none;">11430</tspan></text>
				</g>
				<g>
					<path d="M165.025,396.752l0.908,2.317l2.209,5.914l12.642-2.923l-0.053-3.267l-1.699-6.666l-14.007,4.624z"/>
					<text transform="matrix(1 0 0 1 166.125 399.5664)"><tspan x="0" y="0" style="fill:#000000;stroke:none;">11429</tspan></text>
				</g>
				<g>
					<path d="M177.836,387.432l-14.625,6.329l1.813,2.991l14.007-4.624l0.451-1.837l-1.646-2.859z"/>
					<text transform="matrix(1 0 0 1 166.9746 392.0938)"><tspan x="0" y="0" style="fill:#000000;stroke:none;">11428</tspan></text>
				</g>
				<g>
					<path d="M155.899,384.37l7.313,9.391l14.625-6.329l-1.189-7.821l-4.421,1.292l-16.327,3.468z"/>
					<text transform="matrix(1 0 0 1 158.7422 387.8516)"><tspan x="0" y="0" style="fill:#000000;stroke:none;">11427</tspan></text>
				</g>
				<g>
					<path d="M182.714,369.198l-5.728,6.738l-4.761,4.966l4.421-1.292l1.189,7.821l1.646,2.859l10.371-2.724l-2.039-6.121l-4.078-10.883l-1.022-1.365z"/>
					<text transform="matrix(1 0 0 1 174 383.8174)"><tspan x="0" y="0" style="fill:#000000;stroke:none;">11426</tspan></text>
				</g>
				<g>
					<path d="M149.659,386.207l4.31,9.592l-4.591,1.292l1.137,3.133l2.719,2.381l12.7-3.535l-0.908-2.317l-1.813-2.991l-7.313-9.391l-6.24,1.837z"/>
					<text transform="matrix(1 0 0 1 149.5313 396.4873)"><tspan x="0" y="0" style="fill:#000000;stroke:none;">11423</tspan></text>
				</g>
				<g>
					<path d="M177.444,416.211l-10.775,20.953l4.251,9.05l-1.755,2.855l4.418,0.68l1.195-8.979l6.914-2.246l-1.869-8.909l1.307-14.087l-3.686,0.684z"/>
					<text transform="matrix(1 0 0 1 165 437.8164)"><tspan x="0" y="0" style="fill:#000000;stroke:none;">11422</tspan></text>
				</g>
				<g>
					<path d="M107.99,405.733l-8.159,4.015l1.418,7.821l12.413-4.286l-2.663-5.988l-3.009-1.562z"/>
					<text transform="matrix(1 0 0 1 97.4941 413.1553)"><tspan x="0" y="0" style="fill:#000000;stroke:none;">11421</tspan></text>
				</g>
				<g>
					<path d="M134.354,414.849l-13.608,5.241l-1.415,8.434l1.301,1.292l19.336-1.087l-4.424-11.021l-1.189-2.858z"/>
					<text transform="matrix(1 0 0 1 120.6899 425.001)"><tspan x="0" y="0" style="fill:#000000;stroke:none;">11420</tspan></text>
				</g>
				<g>
					<path d="M117.403,411.991l1.872,4.149l1.471,3.949l13.608-5.241l-3.686-7.348l-13.266,4.49z"/>
					<text transform="matrix(1 0 0 1 116.9585 414.6084)"><tspan x="0" y="0" style="fill:#000000;stroke:none;">11419</tspan></text>
				</g>
				<g>
					<path d="M119.275,399.745l-8.276,7.55l2.663,5.988l3.741-1.292l13.266-4.49l-1.359-4.015l-8.9,2.042l-1.134-5.783z"/>
					<text transform="matrix(1 0 0 1 108.333 409.1084)"><tspan x="0" y="0" style="fill:#000000;stroke:none;">11418</tspan></text>
				</g>
				<g>
					<path d="M119.275,416.141l-15.706,4.221l0.738,3.537l15.023,4.625l1.415-8.434l-1.471-3.949z"/>
					<text transform="matrix(1 0 0 1 104.3667 423.833)"><tspan x="0" y="0" style="fill:#000000;stroke:none;">11417</tspan></text>
				</g>
				<g>
					<path d="M113.662,413.283l-12.413,4.286l2.32,2.792l15.706-4.221l-1.872-4.149l-3.741,1.292z"/>
					<text transform="matrix(1 0 0 1 105.75 416.4414)"><tspan x="0" y="0" style="fill:#000000;stroke:none;">11416</tspan></text>
				</g>
				<g>
					<path d="M118.709,398.383l0.565,1.362l1.134,5.783l8.9-2.042l-7.655-6.938l-2.944,1.834z"/>
					<text transform="matrix(1 0 0 1 115.3867 403.207)"><tspan x="0" y="0" style="fill:#000000;stroke:none;">11415</tspan></text>
				</g>
				<g>
					<path d="M104.307,423.898l3.059,6.94l-2.493,5.439l6.067,2.79v4.897l7.26-0.612l-1.078-11.701l1.758,9.525l1.866-4.084l3.176,4.15l-3.29-11.429l-1.301-1.292l-15.023-4.625z"/>
					<text transform="matrix(1 0 0 1 103.875 436.6914)"><tspan x="0" y="0" style="fill:#000000;stroke:none;">11414</tspan></text>
				</g>
				<g>
					<path d="M168.256,412.81l-7.084,4.968l-3.8,17.956l13.547,10.48l-4.251-9.05l10.775-20.953l-9.188-3.401z"/>
					<text transform="matrix(1 0 0 1 155.875 431.1914)"><tspan x="0" y="0" style="fill:#000000;stroke:none;">11413</tspan></text>
				</g>
				<g>
					<path d="M153.233,402.604l2.438,6.258l5.502,8.915l7.084-4.968l-0.114-7.826l-2.209-5.914l-12.7,3.535z"/>
					<text transform="matrix(1 0 0 1 153.7915 409.0244)"><tspan x="0" y="0" style="fill:#000000;stroke:none;">11412</tspan></text>
				</g>
				<g>
					<path d="M168.142,404.983l0.114,7.826l9.188,3.401l3.686-0.684l-0.059-1.767l-0.287-11.7l-12.642,2.923z"/>
					<text transform="matrix(1 0 0 1 166.7344 409.9688)"><tspan x="0" y="0" style="fill:#000000;stroke:none;">11411</tspan></text>
				</g>
				<g>
					<path d="M78.907,397.432l-3.457,7.417l12.19,8.162l13.099-8.229l7.251,0.951l3.009,1.562l8.276-7.55l-0.565-1.362l-8.566,3.065l-3.51-3.065l-2.95-0.475l-13.154,3.946l-8.558-4.285l-3.064-0.138z"/>
					<text transform="matrix(1 0 0 1 81 408.1914)"><tspan x="0" y="0" style="fill:#000000;stroke:none;">11385</tspan></text>
				</g>
				<g>
					<path d="M90.473,391.244l-8.502,6.325l8.558,4.285l13.154-3.946l-6.064-10.681l-7.146,4.017z"/>
					<text transform="matrix(1 0 0 1 84.7031 397.542)"><tspan x="0" y="0" style="fill:#000000;stroke:none;">11379</tspan></text>
				</g>
				<g>
					<path d="M66.661,381.38l-6.914,1.904l7.201,5.783l3.686,0.885l-1.875,6.732l10.148,0.747l3.064,0.138l8.502-6.325l-2.156-9.798l-9.293,5.44l-10.266-5.033l-2.098-0.474z"/>
					<text transform="matrix(1 0 0 1 70.125 394.3174)"><tspan x="0" y="0" style="fill:#000000;stroke:none;">11378</tspan></text>
				</g>
				<g>
					<path d="M81.292,360.356l-4.992,9.729l0.454,2.313l-7.995,9.454l10.266,5.033l9.293-5.44l-1.131-7.143l-3.516-4.965l1.816-8.232l-4.195-0.75z"/>
					<text transform="matrix(1 0 0 1 72 377.8174)"><tspan x="0" y="0" style="fill:#000000;stroke:none;">11377</tspan></text>
				</g>
				<g>
					<path d="M107.032,381.515l2.546,5.78l-2.944,11.088l3.51,3.065l8.566-3.065l2.944-1.834l2.722-0.75l-5.895-7.959l-5.332-8.846l-6.117,2.521z"/>
					<text transform="matrix(1 0 0 1 105.5454 395.3877)"><tspan x="0" y="0" style="fill:#000000;stroke:none;">11375</tspan></text>
				</g>
				<g>
					<path d="M102.438,383.216l-4.819,4.012l6.064,10.681l2.95,0.475l2.944-11.088l-2.546-5.78l-4.594,1.701z"/>
					<text transform="matrix(1 0 0 1 96 389.4424)"><tspan x="0" y="0" style="fill:#000000;stroke:none;">11374</tspan></text>
				</g>
				<g>
					<path d="M87.186,374.304l1.131,7.143l2.156,9.798l7.146-4.017l4.819-4.012l-4.143-10.476l-11.109,1.563z"/>
					<text transform="matrix(1 0 0 1 86.0195 383.3252)"><tspan x="0" y="0" style="fill:#000000;stroke:none;">11373</tspan></text>
				</g>
				<g>
					<path d="M92.29,368.178l-8.619,1.161l3.516,4.965l11.109-1.563l-0.223-5.309l-5.783,0.746z"/>
					<text transform="matrix(1 0 0 1 84.375 372.1924)"><tspan x="0" y="0" style="fill:#000000;stroke:none;">11372</tspan></text>
				</g>
				<g>
					<path d="M89.339,360.356l14.174,0.612l6.237-0.136l-11.341-13.13l-10.655,8.64l1.585,4.014z"/>
					<text transform="matrix(1 0 0 1 90.627 357.3359)"><tspan x="0" y="0" style="fill:#000000;stroke:none;">11371</tspan></text>
				</g>
				<g>
					<path d="M86.732,354.031l-5.44,6.325l4.195,0.75l-1.816,8.232l8.619-1.161l-2.95-7.821l-1.585-4.014l-1.022-2.312z M94.047,347.77l-5.672-1.157l-1.532-6.734l9.923,3.404l1.875,3.671l-4.594,0.816z"/>
					<text transform="matrix(1 0 0 1 79.125 367.3174)"><tspan x="0" y="0" style="fill:#000000;stroke:none;">11370</tspan></text>
				</g>
				<g>
					<path d="M89.339,360.356l2.95,7.821l5.783-0.746l9.861-0.953l-2.552-2.176l-1.869-3.334l-14.174-0.612z"/>
					<text transform="matrix(1 0 0 1 89.625 365.4424)"><tspan x="0" y="0" style="fill:#000000;stroke:none;">11369</tspan></text>
				</g>
				<g>
					<path d="M105.382,364.303l2.552,2.176l-9.861,0.953l0.223,5.309l4.143,10.476l4.594-1.701l6.117-2.521l-2.777-6.938l7.087-3.062l-0.624-7.414l-11.452,2.722z"/>
					<text transform="matrix(1 0 0 1 97.2915 375.3174)"><tspan x="0" y="0" style="fill:#000000;stroke:none;">11368</tspan></text>
				</g>
				<g>
					<path d="M130.61,379.61l-12.92-2.928l0.791,11.157l5.895,7.959l7.655-2.517l1.869-0.612l-1.134-4.966l-2.156-8.094z"/>
					<text transform="matrix(1 0 0 1 117.001 387.7432)"><tspan x="0" y="0" style="fill:#000000;stroke:none;">11367</tspan></text>
				</g>
				<g>
					<path d="M154.367,381.38l-21.601,6.324l1.134,4.966l15.759-6.463l6.24-1.837l-1.532-2.99z"/>
					<text transform="matrix(1 0 0 1 129.832 388.8994)"><tspan x="0" y="0" style="fill:#000000;stroke:none;">11366</tspan></text>
				</g>
				<g>
					<path d="M134.919,371.923l-4.31,7.688l2.156,8.094l21.601-6.324l-3.911-10.752l-15.536,1.295z"/>
					<text transform="matrix(1 0 0 1 132.5313 380.335)"><tspan x="0" y="0" style="fill:#000000;stroke:none;">11365</tspan></text>
				</g>
				<g>
					<path d="M150.456,370.628l3.911,10.752l1.532,2.99l16.327-3.468l4.761-4.966l-13.831-12.246l-12.7,6.938z"/>
					<text transform="matrix(1 0 0 1 153.2651 377.8652)"><tspan x="0" y="0" style="fill:#000000;stroke:none;">11364</tspan></text>
				</g>
				<g>
					<path d="M168.995,351.036l-3.117-0.814l-3.404,9.794l0.683,3.675l13.38-7.075l-7.541-5.579z"/>
					<text transform="matrix(1 0 0 1 160.2539 356.957)"><tspan x="0" y="0" style="fill:#000000;stroke:none;">11363</tspan></text>
				</g>
				<g>
					<path d="M163.156,363.69l13.831,12.246l5.728-6.738l1.225-2.046l4.562-1.699l-11.965-8.838l-13.38,7.075z"/>
					<text transform="matrix(1 0 0 1 167.5835 367.5254)"><tspan x="0" y="0" style="fill:#000000;stroke:none;">11362</tspan></text>
				</g>
				<g>
					<path d="M145.068,358.653l5.388,11.975l12.7-6.938l-0.683-3.675l-4.254-5.646l-13.151,4.283z"/>
					<text transform="matrix(1 0 0 1 146.4863 362.667)"><tspan x="0" y="0" style="fill:#000000;stroke:none;">11361</tspan></text>
				</g>
				<g>
					<path d="M143.084,344.369l0.513,11.294l1.471,2.99l13.151-4.283l-4.588-7.417l-4.254-2.787l-6.293,0.203z"/>
					<text transform="matrix(1 0 0 1 141.1963 353.7451)"><tspan x="0" y="0" style="fill:#000000;stroke:none;">11360</tspan></text>
				</g>
				<g>
					<path d="M149.377,344.166l4.254,2.787l-1.761-6.665l-2.493,3.878z"/>
					<text transform="matrix(1 0 0 1 143.0039 343.2471)"><tspan x="0" y="0" style="fill:#000000;stroke:none;">11359</tspan></text>
				</g>
				<g>
					<path d="M136.736,355.05l-1.983,8.573l0.167,8.3l15.536-1.295l-5.388-11.975l-1.471-2.99l-6.861-0.613z"/>
					<text transform="matrix(1 0 0 1 132.645 367.3213)"><tspan x="0" y="0" style="fill:#000000;stroke:none;">11358</tspan></text>
				</g>
				<g>
					<path d="M121.373,345.187l1.813,8.366l13.55,1.497l6.861,0.613l-0.513-11.294l-15.416-6.941l-6.296,7.759z"/>
					<text transform="matrix(1 0 0 1 124.3594 349.5449)"><tspan x="0" y="0" style="fill:#000000;stroke:none;">11357</tspan></text>
				</g>
				<g>
					<path d="M121.373,345.187l-4.479-5.175l-8.449,2.112l-3.229,5.579l6.46,5.987l6.636-1.021l1.811,4.692l3.064-3.809l-1.813-8.366z"/>
					<text transform="matrix(1 0 0 1 105.0752 348.8574)"><tspan x="0" y="0" style="fill:#000000;stroke:none;">11356</tspan></text>
				</g>
				<g>
					<path d="M117.458,368.995l-7.087,3.062l2.777,6.938l5.332,8.846l-0.791-11.157l12.92,2.928l4.31-7.688l-0.167-8.3l-17.294,5.372z"/>
					<text transform="matrix(1 0 0 1 116.25 375.0674)"><tspan x="0" y="0" style="fill:#000000;stroke:none;">11355</tspan></text>
				</g>
				<g>
					<path d="M123.186,353.553l-3.064,3.809l-1.811-4.692l-6.636,1.021l0.056,7.416l5.104,0.475l0.624,7.414l17.294-5.372l1.983-8.573l-13.55-1.497z"/>
					<text transform="matrix(1 0 0 1 116.4136 361.333)"><tspan x="0" y="0" style="fill:#000000;stroke:none;">11354</tspan></text>
				</g>
				<g>
					<path d="M43.135,401.516l-3.516,0.271l2.496,4.216l-4.482-3.535l-1.075,4.827l10.207-1.562l-3.63-4.218z"/>
					<text transform="matrix(1 0 0 1 32.625 405.1914)"><tspan x="0" y="0" style="fill:#000000;stroke:none;">11251</tspan></text>
				</g>
				<g>
					<path d="M87.016,440.09l3.855,4.421l6.574,5.784l2.895-2.518l-3.006-5.511l-3.686-5.988l-6.633,3.812z"/>
					<text transform="matrix(1 0 0 1 84.0527 442.1611)"><tspan x="0" y="0" style="fill:#000000;stroke:none;">11239</tspan></text>
				</g>
				<g>
					<path d="M40.982,414.575l1.189,10.003l4.761,6.396l2.555-4.97l0.337-12.176l-8.842,0.747z"/>
					<text transform="matrix(1 0 0 1 37.4585 420.1494)"><tspan x="0" y="0" style="fill:#000000;stroke:none;">11238</tspan></text>
				</g>
				<g>
					<path d="M62.694,397.091l3.967,7.691l6.407,2.719l2.382-2.652l3.457-7.417l-10.148-0.747l-6.064,0.406z"/>
					<text transform="matrix(1 0 0 1 61.875 402.5664)"><tspan x="0" y="0" style="fill:#000000;stroke:none;">11237</tspan></text>
				</g>
				<g>
					<path d="M70.124,437.094l0.902,7.893l1.529,7.484l14.742,6.124l8.616-8.913l-5.042-5.171l-3.855-4.421l-5.104-5.036l-11.789,2.04z"/>
					<text transform="matrix(1 0 0 1 74.8945 449.8252)"><tspan x="0" y="0" style="fill:#000000;stroke:none;">11236</tspan></text>
				</g>
				<g>
					<path d="M48.52,479.686l-4.251,4.896l-1.189,6.872h5.388l3.454-0.138l1.251,7.008l-0.686-7.074l11.854-1.158l-0.287-3.4l-12.246-1.292l24.381,1.221l-9.24-2.583l-3.006-6.528l-15.422,2.178z"/>
					<text transform="matrix(1 0 0 1 48.375 483.9414)"><tspan x="0" y="0" style="fill:#000000;stroke:none;">11235</tspan></text>
				</g>
				<g>
					<path d="M63.034,450.77l0.454,5.511l-6.63,6.735l11.678,16.191l4.761,0.879l3.343,3.95l5.783-2.245l0.457,5.582l-2.777-0.683l4.532,3.131l11.112-5.24l-4.424-14.15l-16.948,1.497l-4.14-4.287l3.855-3.809l1.304,7.621l5.499-0.817l-1.359-5.579l9.92,2.383
						l-16.898-14.969l-1.529-7.484l-7.992,5.783z M104.249,462.402l-1.245-5.511l4.14-2.243l7.371,3.743l-10.266,4.011z M112.75,471.994l-2.546-2.174l4.532-7.552l2.666,2.584l-4.652,7.142z M94.329,463.354l6.803-8.64l0.398,6.463l-7.201,2.177z M111.62,453.558
						l-5.61-0.201l6.29-5.854l-0.68,6.055z M99.772,488.187l0.17-9.046l3.516,3.33l-3.686,5.716z M120.122,455.395l-0.393,9.525l-3.293-1.972l3.686-7.554z M108.274,470.295l-1.585-7.143l4.477,1.021l-2.892,6.122z M106.519,477.165l-4.195-3.333l7.652,0.478
						l-3.457,2.855z M115.871,457.299l-1.925-3.741l4.588-2.311l-2.663,6.052z"/>
					<text transform="matrix(1 0 0 1 75.4087 477.6123)"><tspan x="0" y="0" style="fill:#000000;stroke:none;">11234</tspan></text>
				</g>
				<g>
					<path d="M73.475,415.757l-6.217,0.321l-6.662,0.879l0.568,2.859l4.022,1.632l1.415,1.151l1.192,6.674l12.132-6.396l-6.293-7.146l-0.158,0.024z"/>
					<text transform="matrix(1 0 0 1 63 422.0664)"><tspan x="0" y="0" style="fill:#000000;stroke:none;">11233</tspan></text>
				</g>
				<g>
					<path d="M26.524,425.598l-1.022,5.376l-5.153-0.408l-11.455,10.34l8.672-2.11l9.129,5.919l5.156-0.612l4.992-2.174l-0.908-5.446l-7.257-3.332l-2.153-7.552z"/>
					<text transform="matrix(1 0 0 1 15.7422 438.1572)"><tspan x="0" y="0" style="fill:#000000;stroke:none;">11232</tspan></text>
				</g>
				<g>
					<path d="M21.081,415.394l-6.463,4.559l4.875,7.209l-2.133,1.542l9.164-3.105l5.558-5.646l-0.853-2.521l-10.148-2.038z"/>
					<text transform="matrix(1 0 0 1 15.2256 423.3828)"><tspan x="0" y="0" style="fill:#000000;stroke:none;">11231</tspan></text>
				</g>
				<g>
					<path d="M45.743,449.137l-7.087,4.626l1.699,14.356l6.691-0.886l4.875-0.682l-2.61-17.209l-3.568-0.206z"/>
					<text transform="matrix(1 0 0 1 36.166 460.627)"><tspan x="0" y="0" style="fill:#000000;stroke:none;">11230</tspan></text>
				</g>
				<g>
					<path d="M51.921,466.552l-4.875,0.682l1.474,12.452l15.422-2.178l4.594,1.699l-11.678-16.191l-4.937,3.536z"/>
					<text transform="matrix(1 0 0 1 46.1641 475.0166)"><tspan x="0" y="0" style="fill:#000000;stroke:none;">11229</tspan></text>
				</g>
				<g>
					<path d="M16.32,453.558l-11.001,14.15l8.903,4.152l10.942-8.845l2.042-2.313l-8.845-6.396l-2.042-0.75z"/>
					<text transform="matrix(1 0 0 1 7.6387 464.7109)"><tspan x="0" y="0" style="fill:#000000;stroke:none;">11228</tspan></text>
				</g>
				<g>
					<path d="M47.389,436.689l-2.496,1.154l0.85,11.293l3.568,0.206l7.43-1.632l-1.134-12.045l-8.218,1.023z"/>
					<text transform="matrix(1 0 0 1 42 443.4834)"><tspan x="0" y="0" style="fill:#000000;stroke:none;">11226</tspan></text>
				</g>
				<g>
					<path d="M49.487,426.004l-2.555,4.97l0.457,5.716l8.218-1.023l2.552-5.167l-2.833-3.813l-5.839-0.683z"/>
					<text transform="matrix(1 0 0 1 43.4199 433.3486)"><tspan x="0" y="0" style="fill:#000000;stroke:none;">11225</tspan></text>
				</g>
				<g>
					<path d="M35.199,485.193l0.056,0.339l-1.758,1.362l-0.624,0.953l-14.001,0.271l5.672,5.579l23.924-2.245H43.08l1.189-6.872l-9.07,0.612z"/>
					<text transform="matrix(1 0 0 1 28.1689 490.2666)"><tspan x="0" y="0" style="fill:#000000;stroke:none;">11224</tspan></text>
				</g>
				<g>
					<path d="M40.355,468.119l-7.538,0.951l2.382,16.123l9.07-0.612l4.251-4.896l-1.474-12.452l-6.691,0.886z"/>
					<text transform="matrix(1 0 0 1 32.543 477.2139)"><tspan x="0" y="0" style="fill:#000000;stroke:none;">11223</tspan></text>
				</g>
				<g>
					<path d="M59.747,383.284L48.52,381.04l0.908,8.571l6.179,4.012l11.341-4.556l-7.201-5.783z"/>
					<text transform="matrix(1 0 0 1 48.2783 389.665)"><tspan x="0" y="0" style="fill:#000000;stroke:none;">11222</tspan></text>
				</g>
				<g>
					<path d="M66.661,404.782l-10.201,6.734l0.419,2.262l0.032,0.375l0.05,0.531l0.149,0.931l3.486,1.342l6.662-0.879l6.217-0.321l0.158-0.024l1.195-2.243l2.49-2.991l-4.251-2.997l-6.407-2.719z"/>
					<text transform="matrix(1 0 0 1 58.7637 413.8691)"><tspan x="0" y="0" style="fill:#000000;stroke:none;">11221</tspan></text>
				</g>
				<g>
					<path d="M6.286,443.898l-1.134,3.879l11.168,5.78l2.042,0.75l8.332-9.594l-9.129-5.919l-8.672,2.11l-2.607,2.993z"/>
					<text transform="matrix(1 0 0 1 6.9653 448.2197)"><tspan x="0" y="0" style="fill:#000000;stroke:none;">11220</tspan></text>
				</g>
				<g>
					<path d="M26.694,444.714l-8.332,9.594l8.845,6.396l8.956-10.408l-4.313-6.193l-5.156,0.612z"/>
					<text transform="matrix(1 0 0 1 18.9697 454.7373)"><tspan x="0" y="0" style="fill:#000000;stroke:none;">11219</tspan></text>
				</g>
				<g>
					<path d="M35.934,436.481l0.908,5.446l-4.992,2.174l4.313,6.193l2.493,3.468l7.087-4.626l-0.85-11.293l-8.959-1.362z"/>
					<g>
						<text transform="matrix(1 0 0 1 31.875 447.1914)"><tspan x="0" y="0" style="fill:#000000;stroke:none;">11218</tspan></text>
					</g>
				</g>
				<g>
					<path d="M40.753,413.082l-9.524,4.35l0.853,2.521l10.09,4.626l-1.189-10.003l-0.229-1.493z"/>
					<text transform="matrix(1 0 0 1 28.5762 419.9541)"><tspan x="0" y="0" style="fill:#000000;stroke:none;">11217</tspan></text>
				</g>
				<g>
					<path d="M52.944,411.924l-3.12,1.904l-0.337,12.176l5.839,0.683l5.839-6.87l-0.568-2.859l-3.486-1.342l-0.149-0.931l-0.05-0.531l-0.032-0.375l-0.419-2.262l-3.516,0.407z"/>
					<text transform="matrix(1 0 0 1 46.3672 421.9355)"><tspan x="0" y="0" style="fill:#000000;stroke:none;">11216</tspan></text>
				</g>
				<g>
					<path d="M32.082,419.952l-5.558,5.646l2.153,7.552l7.257,3.332l8.959,1.362l2.496-1.154l-0.457-5.716l-4.761-6.396l-10.09-4.626z"/>
					<text transform="matrix(1 0 0 1 28.8311 431.8984)"><tspan x="0" y="0" style="fill:#000000;stroke:none;">11215</tspan></text>
				</g>
				<g>
					<path d="M25.165,463.016l-10.942,8.845l12.586,6.122l-0.343,6.394l6.299,3.383l0.65-0.952l1.84-1.274l-0.056-0.339l-2.382-16.123l-7.652-6.055z"/>
					<text transform="matrix(1 0 0 1 16.875 473.0664)"><tspan x="0" y="0" style="fill:#000000;stroke:none;">11214</tspan></text>
				</g>
				<g>
					<path d="M61.165,419.816l-5.839,6.87l2.833,3.813l6.293,0.27l3.343-1.495l-1.192-6.674l-1.415-1.151l-4.022-1.632z"/>
					<text transform="matrix(1 0 0 1 53.4375 428.292)"><tspan x="0" y="0" style="fill:#000000;stroke:none;">11213</tspan></text>
				</g>
				<g>
					<path d="M67.794,429.273l-3.343,1.495l5.672,6.325l11.789-2.04l-1.986-12.176l-12.132,6.396z"/>
					<text transform="matrix(1 0 0 1 65.0566 432.9863)"><tspan x="0" y="0" style="fill:#000000;stroke:none;">11212</tspan></text>
				</g>
				<g>
					<path d="M49.428,389.611l-6.293,11.904l3.63,4.218l3.173,0.953l3.457-8.304l9.299-1.292l6.064-0.406l1.875-6.732l-3.686-0.885l-11.341,4.556l-6.179-4.012z"/>
					<text transform="matrix(1 0 0 1 47.0977 396.9424)"><tspan x="0" y="0" style="fill:#000000;stroke:none;">11211</tspan></text>
				</g>
				<g>
					<path d="M49.311,449.343l2.61,17.209l4.937-3.536l6.63-6.735l-0.454-5.511l-6.293-3.059l-7.43,1.632z"/>
					<text transform="matrix(1 0 0 1 47.5254 457.5068)"><tspan x="0" y="0" style="fill:#000000;stroke:none;">11210</tspan></text>
				</g>
				<g>
					<path d="M6.286,443.898l-4.594,13.538l3.627,10.271l11.001-14.15l-11.168-5.78l1.134-3.879z"/>
					<text transform="matrix(1 0 0 1 0 457.3164)"><tspan x="0" y="0" style="fill:#000000;stroke:none;">11209</tspan></text>
				</g>
				<g>
					<path d="M99.831,409.748l-11.795,7.143l7.313,17.279l9.188,2.312l0.337-0.203l2.493-5.439l-3.059-6.94l-0.738-3.537l-2.32-2.792l-1.418-7.821z"/>
					<text transform="matrix(1 0 0 1 89.5781 426.1152)"><tspan x="0" y="0" style="fill:#000000;stroke:none;">11208</tspan></text>
				</g>
				<g>
					<path d="M73.068,407.501l4.251,2.997l-2.49,2.991l-1.195,2.243l6.293,7.146l1.986,12.176l5.104,5.036l6.633-3.812l3.686,5.988l8.502,1.02l-1.301-6.805l-9.188-2.312l-7.313-17.279l11.795-7.143l8.159-4.015l-7.251-0.951l-13.099,8.229l-12.19-8.162
						l-2.382,2.652z"/>
					<text transform="matrix(1 0 0 1 74.1563 418.7861)"><tspan x="0" y="0" style="fill:#000000;stroke:none;">11207</tspan></text>
				</g>
				<g>
					<path d="M62.694,397.091l-9.299,1.292l-3.457,8.304l3.006,5.237l3.516-0.407l10.201-6.734l-3.967-7.691z"/>
					<text transform="matrix(1 0 0 1 49.5 405.5664)"><tspan x="0" y="0" style="fill:#000000;stroke:none;">11206</tspan></text>
				</g>
				<g>
					<path d="M46.765,405.733l-10.207,1.562l4.195,5.787l0.229,1.493l8.842-0.747l3.12-1.904l-3.006-5.237l-3.173-0.953z"/>
					<text transform="matrix(1 0 0 1 36.96 411.4883)"><tspan x="0" y="0" style="fill:#000000;stroke:none;">11205</tspan></text>
				</g>
				<g>
					<path d="M36.163,450.295l-8.956,10.408l-2.042,2.313l7.652,6.055l7.538-0.951l-1.699-14.356l-2.493-3.468z"/>
					<text transform="matrix(1 0 0 1 25.1357 463.5176)"><tspan x="0" y="0" style="fill:#000000;stroke:none;">11204</tspan></text>
				</g>
				<g>
					<path d="M58.159,430.499l-2.552,5.167l1.134,12.045l6.293,3.059l7.992-5.783l-0.902-7.893l-5.672-6.325l-6.293-0.27z"/>
					<text transform="matrix(1 0 0 1 55 441.9834)"><tspan x="0" y="0" style="fill:#000000;stroke:none;">11203</tspan></text>
				</g>
				<g>
					<path d="M37.633,402.468l-10.26,1.291l-6.293,11.635l10.148,2.038l9.524-4.35l-4.195-5.787l1.075-4.827z"/>
					<text transform="matrix(1 0 0 1 22.793 412.9492)"><tspan x="0" y="0" style="fill:#000000;stroke:none;">11201</tspan></text>
				</g>
				<g>
					<path d="M62.243,358.653l-5.273,4.697l10.371,7.213l2.273-3.473l0.334-4.218l-7.705-4.22z"/>
					<text transform="matrix(1 0 0 1 55.7227 364.6924)"><tspan x="0" y="0" style="fill:#000000;stroke:none;">11106</tspan></text>
				</g>
				<g>
					<path d="M68.36,352.396l5.842,5.104l7.09,2.857l5.44-6.325l-2.777-4.562l-3.741,2.858l4.532-4.286l-8.162-3.809l-8.224,8.162z"/>
					<text transform="matrix(1 0 0 1 68.0977 352.3174)"><tspan x="0" y="0" style="fill:#000000;stroke:none;">11105</tspan></text>
				</g>
				<g>
					<path d="M66.661,381.38l2.098,0.474l7.995-9.454l-8.786,1.495l-1.307,7.485z"/>
					<text transform="matrix(1 0 0 1 61.9307 376.376)"><tspan x="0" y="0" style="fill:#000000;stroke:none;">11104</tspan></text>
				</g>
				<g>
					<path d="M74.202,357.499l-4.254,5.374l-0.334,4.218l6.686,2.995l4.992-9.729l-7.09-2.857z"/>
					<text transform="matrix(1 0 0 1 66.2227 365.0674)"><tspan x="0" y="0" style="fill:#000000;stroke:none;">11103</tspan></text>
				</g>
				<g>
					<path d="M68.36,352.396l-5.552,0.205l-0.565,6.053l7.705,4.22l4.254-5.374l-5.842-5.104z"/>
					<text transform="matrix(1 0 0 1 60.2227 358.3174)"><tspan x="0" y="0" style="fill:#000000;stroke:none;">11102</tspan></text>
				</g>
				<g>
					<path d="M69.614,367.091l-2.273,3.473l-10.371-7.213l-9.923,16.939l12.7,2.994l6.914-1.904l1.307-7.485l8.786-1.495l-0.454-2.313l-6.686-2.995z"/>
					<text transform="matrix(1 0 0 1 49.7227 377.4424)"><tspan x="0" y="0" style="fill:#000000;stroke:none;">11101</tspan></text>
				</g>
				<g>
					<path d="M169.73,454.103l-16.099,8.846l10.939,4.354l5.502-1.362l4.649-2.245l-4.992-9.592z"/>
					<text transform="matrix(1 0 0 1 156.0527 463.7031)"><tspan x="0" y="0" style="fill:#000000;stroke:none;">11096</tspan></text>
				</g>
				<g>
					<path d="M202.871,326.302l10.673,9.872l-0.214,3.838l9.015-5.167l-2.098-15.104l3.457-1.156l-14.177-19.322l-21.601-8.979l-9.012,2.448l1.702,8.505l-5.956,4.354l5.446,9.999l1.075-4.35l10.148,4.35l1.928-4.35l2.836,3.741l-2.953,9.793l9.729,1.527z"/>
					<text transform="matrix(1 0 0 1 190.5 309.9424)"><tspan x="0" y="0" style="fill:#000000;stroke:none;">11050</tspan></text>
				</g>
				<g>
					<path d="M192.807,368.656l1.922,1.227l0.343,0.407l7.257-4.355l-8.871,1.414l-0.65,1.308z"/>
					<text transform="matrix(1 0 0 1 196.8149 369.6143)"><tspan x="0" y="0" style="fill:#000000;stroke:none;">11042</tspan></text>
				</g>
				<g>
					<path d="M193.598,356.069l8.73,9.865l-7.257,4.355l-0.343-0.407l-1.922-1.227l-2.906,3.079l5.569,7.734l0.51-0.133l-0.144,0.22l3.744,7.366l3.205,3.163l20.291-9.726l-3.287-6.328l2.438-4.693l-1.301-5.716l-8.391-1.36l2.183-7.449l-4.222,1.456l-7.081-9.413
						l1.635,5.539l-11.452,3.674z"/>
					<text transform="matrix(1 0 0 1 199.5298 378.1797)"><tspan x="0" y="0" style="fill:#000000;stroke:none;">11040</tspan></text>
				</g>
				<g>
					<path d="M193.141,324.774l-2.83,13.333l0.639,9.815l0.624,1.951l2.024,6.195l11.452-3.674l-1.635-5.539l7.081,9.413l4.222-1.456l5.511-2.228l-0.325-0.732l-0.129-2.724l-0.659-2.869l-4.828-2.777l-0.958-3.472l0.214-3.838l-10.673-9.872l-9.729-1.527z"/>
					<text transform="matrix(1 0 0 1 193.311 342.1895)"><tspan x="0" y="0" style="fill:#000000;stroke:none;">11030</tspan></text>
				</g>
				<g>
					<path d="M182.796,333.273l3.721,0.521l-2.897-10.72l-18.085-10.818l0.056,11.296l-6.12,4.829l6.574,11.088l2.15-1.396l2.815-2.643l9.56-2.174l2.227,0.017z"/>
					<text transform="matrix(1 0 0 1 164.8711 328.8652)"><tspan x="0" y="0" style="fill:#000000;stroke:none;">11024</tspan></text>
				</g>
				<g>
					<path d="M180.57,333.257l-9.56,2.174l-2.815,2.643l-2.15,1.396l1.588,8.708l3.853-7.005l4.954-0.07l0.021,0.075l0.044,0.054l8.045-1.107l4.093,1.096l0.48-2.906l-1.195-1.564l-1.409-2.954l-3.721-0.521l-2.227-0.017z"/>
					<text transform="matrix(1 0 0 1 169.75 339.1494)"><tspan x="0" y="0" style="fill:#000000;stroke:none;">11023</tspan></text>
				</g>
				<g>
					<path d="M189.122,338.313l-0.48,2.906l-4.093-1.096l-8.045,1.107l-0.044-0.054l-0.021-0.075l-4.954,0.07l-3.853,7.005l1.362,2.858l7.541,5.579l10.544-6.804l3.87-1.889l-0.639-9.815l-1.189,0.206z"/>
					<text transform="matrix(1 0 0 1 170.5005 348.5293)"><tspan x="0" y="0" style="fill:#000000;stroke:none;">11021</tspan></text>
				</g>
				<g>
					<path d="M187.08,349.812l-10.544,6.804l11.965,8.838l4.307,3.203l0.65-1.308l8.871-1.414l-8.73-9.865l-2.024-6.195l-0.624-1.951l-3.87,1.889z"/>
					<text transform="matrix(1 0 0 1 181.542 359.8584)"><tspan x="0" y="0" style="fill:#000000;stroke:none;">11020</tspan></text>
				</g>
				<g>
					<path d="M201.763,397.703l-1.761,17.69l7.427,1.836l6.636,0.411l3.797-15.854l-2.379-7.687l-13.324-0.272l-0.396,3.875z"/>
					<text transform="matrix(1 0 0 1 198.833 408.1504)"><tspan x="0" y="0" style="fill:#000000;stroke:none;">11010</tspan></text>
				</g>
				<g>
					<path d="M183.939,367.152l3.208,3.015l2.754,1.568l2.906-3.079l-4.307-3.203l-4.562,1.699z"/>
					<text transform="matrix(1 0 0 1 175.7935 369.1357)"><tspan x="0" y="0" style="fill:#000000;stroke:none;">11005</tspan></text>
				</g>
				<g>
					<path d="M182.714,369.198l1.022,1.365l4.078,10.883l7.655-1.977l-5.569-7.734l-2.754-1.568l-3.208-3.015l-1.225,2.046z"/>
					<text transform="matrix(1 0 0 1 180.9668 377.3018)"><tspan x="0" y="0" style="fill:#000000;stroke:none;">11004</tspan></text>
				</g>
				<g>
					<path d="M180.731,398.794l0.053,3.267l0.287,11.7l18.932,1.633l1.761-17.69l-21.032,1.091z"/>
					<text transform="matrix(1 0 0 1 183.3335 407.9834)"><tspan x="0" y="0" style="fill:#000000;stroke:none;">11003</tspan></text>
				</g>
				<g>
					<path d="M195.47,379.47l-7.655,1.977l2.039,6.121l-10.371,2.724l-0.451,1.837l1.699,6.666l21.032-1.091l0.396-3.875l0.627-3.742l-3.205-3.163l-3.744-7.366l0.144-0.22l-0.51,0.133z"/>
					<text transform="matrix(1 0 0 1 184.7915 394.4834)"><tspan x="0" y="0" style="fill:#000000;stroke:none;">11001</tspan></text>
				</g>
				<g>
					<path d="M1157.492,19.513l-2.839,3.331l-2.719-3.604l3.176-4.488l-7.652-3.267l0.223,9.387l-4.588-1.225l-5.045,9.524l20.01-2.312l8.391-7.553l13.834-8.64l15.873-2.651l6.126-7.893l-8.446,0.542l-2.273,6.193l-27.152,0.747l-6.917,11.906z"/>
					<text transform="matrix(1 0 0 1 1158.6519 14.6504)"><tspan x="0" y="0" style="fill:#000000;stroke:none;">06390</tspan></text>
				</g>
				<g>
					<path d="M49.311,337.499l-5.042,8.3l-4.028,6.597l-4.307,7.553l4.992,2.517l0.504-0.813l5.218-8.982l1.588-2.584l2.382-3.879l3.574-6.194l-4.881-2.513z"/>
					<text transform="matrix(1 0 0 1 40.2773 345.5674)"><tspan x="0" y="0" style="fill:#000000;stroke:none;">00001</tspan></text>
				</g>
				<g>
					<path d="M813.593,237.831l-17.804,5.104l14.288,7.348l3.741-6.123l1.301,3.879l4.028-1.497l-5.555-8.71z"/>
					<text transform="matrix(1 0 0 1 799.3452 247.0562)"><tspan x="0" y="0" style="fill:#000000;stroke:none;">11931</tspan></text>
				</g>
				<g>
					<path d="M825.098,245.861l7.77,1.225l4.477-5.581l-12.246,4.356z"/>
					<text transform="matrix(1 0 0 1 825.7983 246.5464)"><tspan x="0" y="0" style="fill:#000000;stroke:none;">11970</tspan></text>
				</g>
				<g>
					<path d="M764.498,305.457l-6.407,11.085l-9.697-1.427l-2.549,12.313l0.451,0.341l2.722-0.612l3.63-4.899l15.082,1.295l-3.231-18.096z"/>
					<text transform="matrix(1 0 0 1 750.9468 318.2813)"><tspan x="0" y="0" style="fill:#000000;stroke:none;">11972</tspan></text>
				</g>
				<g>
					<path d="M749.017,327.157l-0.114,4.693l7.828,6.6l9.521,1.632l1.758-4.966l-0.281-11.563l-15.082-1.295l-3.63,4.899z"/>
					<text transform="matrix(1 0 0 1 750.0073 336.8154)"><tspan x="0" y="0" style="fill:#000000;stroke:none;">11960</tspan></text>
				</g>
				<g>
					<path d="M684.898,324.573l9.753,22.789l1.758-7.143l0.34-0.208l5.842-3.33l-8.109-13.741l-9.583,1.633z"/>
					<text transform="matrix(1 0 0 1 684.1226 331.8174)"><tspan x="0" y="0" style="fill:#000000;stroke:none;">11955</tspan></text>
				</g>
				<g>
					<path d="M601.446,219.054l-1.529,16.465l9.694,2.517l15.876,1.157l-6.917-10.069l-0.908-9.252l-16.216-0.817z"/>
					<text transform="matrix(1 0 0 1 601.2456 230.7915)"><tspan x="0" y="0" style="fill:#000000;stroke:none;">11789</tspan></text>
				</g>
				<g>
					<path d="M520.036,254.84l-5.842,5.848l8.733,5.647l-5.271,1.633l2.379,6.738l4.594-0.341l1.752-6.939l-1.412-14.763l-4.934,2.177z"/>
					<text transform="matrix(1 0 0 1 512.625 262.3174)"><tspan x="0" y="0" style="fill:#000000;stroke:none;">11794</tspan></text>
				</g>
				<g>
					<path d="M517.879,290.966l1.137,4.693l1.359,5.377l3.006,12.992l8.051-2.112l-1.134-9.454l3.571,0.205l0.059-1.089l-3.463-0.684l1.418-19.452l-14.004,9.523z"/>
					<text transform="matrix(1 0 0 1 517.125 302.3154)"><tspan x="0" y="0" style="fill:#000000;stroke:none;">11755</tspan></text>
				</g>
			</g>
			<text transform="matrix(1 0 0 1 733.4214 452.6924)"><tspan x="0" y="0" style="fill:#000000;stroke:none; font-size:72;">11</tspan></text>
		</g>
	</g>
</svg>
