<?xml version="1.0" encoding="iso-8859-1"?>
<!DOCTYPE svg PUBLIC "-//W3C//DTD SVG 20000303 Stylable//EN"   "http://www.w3.org/TR/2000/03/WD-SVG-20000303/DTD/svg-20000303-stylable.dtd">
<!-- Generator: Adobe Illustrator 9.0, SVG Export Plug-In  -->
<svg  width="1200.921pt" height="1559.239pt" viewBox="0 0 1200.921 1559.239" xml:space="preserve">
	<g id="Numbers" style="fill-rule:nonzero;clip-rule:nonzero;fill:#FFFFFF;stroke:#000000;stroke-width:0.25;stroke-miterlimit:4; font-family:'ArialMT'; font-size:12;">
		<g style="stroke-miterlimit:1;">
			<text transform="matrix(1 0 0 1 0 449.7124)"><tspan x="0" y="0" style="fill:#000000;stroke:none; font-size:72;">05</tspan></text>
			<g>
				<g>
					<path d="M183.445,1225.758l-6.17,126.627l132.794,5.619l18.715-0.283l0.009-0.268l3.205-63.764l-3.747-0.137l-74.382-2.354l3.923-63.379l-31.374-0.789l-42.973-1.273z M255.475,1339.522l-9.838-2.764l5.121-14.461l12.103,11.891l-6.495-0.238l-0.891,5.572z"/>
					<text transform="matrix(1 0 0 1 211.1631 1311.5806)"><tspan x="0" y="0" style="fill:#000000;stroke:none;">05250</tspan></text>
				</g>
				<g>
					<path d="M554.05,1324.208l-8.949,36.873l-69.051-3.027l-6.674,23.912l-11.355,42.99l56.08,1.143l1.117,0.02l-0.521-16.938l13.777-5.092l3.768,3.867l1.504,0.902l3.17-14.572l15.424,0.619l0.674-14.258l3.873-1.402l8.092-21.879l6.246-32.451l-17.174-0.707z"/>
					<text transform="matrix(1 0 0 1 497.9321 1377.7896)"><tspan x="0" y="0" style="fill:#000000;stroke:none;">05345</tspan></text>
				</g>
				<g>
					<path d="M564.978,1357.366l-8.092,21.879l-3.873,1.402l-0.674,14.258l-15.424-0.619l-3.17,14.572l-3.449,17.588l-15.078-0.328l-1.117-0.02l-0.686,15.449l81.826,2.438l4.84-15.254l-5.596-22.879l8.895-7.512l29.725-10.408l1.869-12.674l10.734-6.217l-9.1-9.988
						l-71.631-1.688z"/>
					<text transform="matrix(1 0 0 1 562.8716 1403.3013)"><tspan x="0" y="0" style="fill:#000000;stroke:none;">05346</tspan></text>
				</g>
				<g>
					<path d="M174.612,1417.893l-2.019,65.902l45.111,0.211l34.828,1.191l69.996,2.359l1.066-18.422l2.206-48.289l-128.813-2.252l8.423,8.688l-17.613,5.986l-6.645-15.096l-6.542-0.279z"/>
					<text transform="matrix(1 0 0 1 232.5088 1455.3521)"><tspan x="0" y="0" style="fill:#000000;stroke:none;">05201</tspan></text>
				</g>
				<g>
					<path d="M582.162,1213.147l-1.006,48.834l-3.07,24.074l56.455,1.764l4.805,8.598l2.74-8.225h7.008l-10.967-15.934l2.6-16.068l5.152-5.055l-3.861-8.803l7.113-6.98l-1.576-11.088l3.867-9.785l-65.895-1.619l-3.365,0.287z M604.375,1282.872l-1.242-5.523
						l9.768-2.422l-3.771,7.824l-4.754,0.121z"/>
					<text transform="matrix(1 0 0 1 598.063 1257.2642)"><tspan x="0" y="0" style="fill:#000000;stroke:none;">05101</tspan></text>
				</g>
				<g>
					<path d="M257.792,1227.821l-3.923,63.379l74.382,2.354l1.104-63.699l-22.242-0.781l-49.321-1.252z M310.313,1262.497l-15.691-6.184l3.492-2.934l1.934-18.92l18.601,9.859l-5.687,6.693l5.162,7.348l-7.811,4.137z"/>
					<text transform="matrix(1 0 0 1 277.9131 1284.5806)"><tspan x="0" y="0" style="fill:#000000;stroke:none;">05254</tspan></text>
				</g>
				<g>
					<path d="M632.097,944.682l-23.279,43.895l-10.775,21.285l-0.293,0.578l3.133,0.367l41,5.063l30.779,3.932l8.977-14.49l0.539-22.58l6.068-4.979l-0.467-8.689l8.408-5.836l0.504-5.449l-57.164-12.484l-7.43-0.611z"/>
					<text transform="matrix(1 0 0 1 630.5337 984.8677)"><tspan x="0" y="0" style="fill:#000000;stroke:none;">05048</tspan></text>
				</g>
				<g>
					<path d="M655.277,882.459l-12.393,23.98l-16.471,31.676l6.443,5.824l6.67,1.354l57.164,12.484l14.531,3.068l-3.797-6.531l3.041-12.939l-4.992-3.465l0.855-5.332l10.008-12.58l4.398-1.25l1.32,4.061l3.65-8.285l-1.424-12.438l-67.002-23.164l-2.004,3.537z"/>
					<text transform="matrix(1 0 0 1 663.1196 912.0103)"><tspan x="0" y="0" style="fill:#000000;stroke:none;">05047</tspan></text>
				</g>
				<g>
					<path d="M569.763,924.667l-34.072,68.297l40.42,11.469l9.691-7.605l-8.443-3.686l6.252-6.205l-5.596-6.688l1.037-10.885l18.592,8.619l-1.652,10.246l9.311-6.367l3.516,6.715l23.279-43.895l0.76-0.742l-6.443-5.824l-56.65-13.449z"/>
					<text transform="matrix(1 0 0 1 567.5825 967.1763)"><tspan x="0" y="0" style="fill:#000000;stroke:none;">05091</tspan></text>
				</g>
				<g>
					<path d="M608.121,715.858l-19.119,32.402l-18.717,30.391l1.344,0.477l64.805,23.852l37.043-61.861l-65.355-25.26z"/>
					<text transform="matrix(1 0 0 1 605.1919 762.0454)"><tspan x="0" y="0" style="fill:#000000;stroke:none;">05077</tspan></text>
				</g>
				<g>
					<path d="M476.759,672.843l-27.908,46.199l2.719,6.471l-2.479,4.361l5.918,2.109l-1.688,9.23l42.703,12.715l74.26,24.723l18.717-30.391l-7.482-0.252l1.746-14.332l-2.941-1.063l-34.854-8.32l-4.389-21.463l1.965-8.082l-33.334-10.572l-32.953-11.334z"/>
					<text transform="matrix(1 0 0 1 502.2388 728.3735)"><tspan x="0" y="0" style="fill:#000000;stroke:none;">05060</tspan></text>
				</g>
				<g>
					<path d="M543.046,694.749l-1.965,8.082l4.389,21.463l34.854,8.32l-3.264-10.252l-9.328-5.836l3.439-8.109l7.002,0.943l-2.984-4.096l-32.143-10.516z"/>
					<text transform="matrix(1 0 0 1 535.6597 713.4155)"><tspan x="0" y="0" style="fill:#000000;stroke:none;">05061</tspan></text>
				</g>
				<g>
					<path d="M575.189,705.264l2.984,4.096l-7.002-0.943l-3.439,8.109l9.328,5.836l3.264,10.252l2.941,1.063l-1.746,14.332l7.482,0.252l19.119-32.402l-32.932-10.594z"/>
					<text transform="matrix(1 0 0 1 574.9126 728.0806)"><tspan x="0" y="0" style="fill:#000000;stroke:none;">05041</tspan></text>
				</g>
				<g>
					<path d="M822.714,510.655l37.43,71.556l12.176,3.646l-12.539-22l10.363-33.145l-6.602-11.776l-40.828-8.281z"/>
					<text transform="matrix(1 0 0 1 838.3267 543.3823)"><tspan x="0" y="0" style="fill:#000000;stroke:none;">05042</tspan></text>
				</g>
				<g>
					<path d="M602.648,528.895l-22.652,53.268l29.775,10.118l1.643-7.049l-4.512-2.585l4.111-10.273l29.076,11.511l1.787-4.727l9.053,3.53l-1.91,9.041l-2.891,13.696l53.824,22.15l9.471,2.429l9.686-39.634l5.283-22.009l-35.928-14.218l-63.5-20.26l-19.961-4.884
						l-2.355-0.103z"/>
					<text transform="matrix(1 0 0 1 668.6626 583.3315)"><tspan x="0" y="0" style="fill:#000000;stroke:none;">05641</tspan></text>
				</g>
				<g>
					<path d="M864.638,286.118l-14.883,59.61l71.26,12.939l14.047-55.119l0.844-5.089l-38.99-7.245l-32.277-5.096z M898.128,336.264l-7.512-5.3l2.426-7.525l8.391,0.519l-3.305,12.306z"/>
					<text transform="matrix(1 0 0 1 867.4126 308.8315)"><tspan x="0" y="0" style="fill:#000000;stroke:none;">05849</tspan></text>
				</g>
				<g>
					<path d="M327.832,175.614l46.506,75.523l-0.932,11.143l7.676,1.496l46.207,53.385l11.18,3.035l14.121,4.135l9.205-14.38l11.262-17.975l12.744-20.117l-23.109-10.98l15.574-24.253l-32.039-14.626l5.684-24.076l-42.023-7.409l-24.659-4.327l-57.396-10.572z
						 M428.025,263.076l-6.613-5.694l8.869-8.287l4.23,4.313l-6.486,9.668z"/>
					<text transform="matrix(1 0 0 1 381.8755 228.5991)"><tspan x="0" y="0" style="fill:#000000;stroke:none;">05444</tspan></text>
				</g>
				<g>
					<path d="M180.39,326.502l-6.407,5.987l4.025,9.661l-4.365,6.327l1.477,6.054l8.273-3.81l7.26,3.199l-1.477,6.938l3.12-2.925l10.603,6.599l3.229,11.974l-6.803,12.246l6.917-2.789l4.025,3.401l1.983-7.484l10.547,1.361l-2.212-12.79l7.825-4.49l-3.574-5.716
						l-8.766-2.585l-8.241-11.429l-4.705,2.518l-1.813-3.743l4.875-2.856l-11.452-1.428l-0.817-7.45l-12.961,3.571l-0.565-10.34z M216.686,370.77l-0.24-4.912l0.861,0.183l0.428,2.899l1.207,0.612l-1.248,1.488l-1.008-0.271z"/>
					<text transform="matrix(1 0 0 1 162.4043 349.3081)"><tspan x="0" y="0" style="fill:#000000;stroke:none;">05401</tspan></text>
				</g>
				<g>
					<path d="M955.341,6.958l-11.41,44.023l5.549,1.43l-1.967,7.811l-17.982-1.422l10.594,7.313l-2.771,11.014l31,19.532l20.592,16.396l40.598-54.97l37.244-51.031l1.652-2.177L955.341,6.958z"/>
					<text transform="matrix(1 0 0 1 982.2954 61.5908)"><tspan x="0" y="0" style="fill:#000000;stroke:none;">05907</tspan></text>
				</g>
				<g>
					<path d="M1012.857,349.141l27.92,57.318l21.826-20.525l11.104,8.653l4.938,6.437l-2.348,2.408l4.014-1.55l-1.031-5.055l9.727-3.401l4.855-13.792l6.893-1.931l-2.709-7.995l7.947-6.164l3.885,1.403l-5.369,2.517l3.02,2.769l5.953-7.402l7.049,0.252
						l-57.533-36.621l-50.139,22.68z"/>
					<text transform="matrix(1 0 0 1 1050.0024 369.0864)"><tspan x="0" y="0" style="fill:#000000;stroke:none;">05906</tspan></text>
				</g>
				<g>
					<path d="M1029.542,58.084l-40.598,54.97l39.275,24.28l-50.637,60.582l11.951,7.497l57.365,34.976l58.963,36.642l-42.867,49.431l57.533,36.621l4.313-1.578l2.355-9.028l4.43,1.184l-1.102-5.471l6.533,2.206l-9.744-12.341l6.662-1.857l5.344-9.233l-13.447-10.51
						l0.375-5.082l15.064-1.449l11.6-5.634l-1.797-8.83l3.264,3.844l5.824-6.327l-1.816-4.075l-5.443,0.98l1.254-3.048l-5.814,1.503l2.783-4.626l-5.729-0.114l4.77-3.64l-1.066-11.6l4.875,1.028l-5.672-4.497l5.777-0.498l-8.873-4.973l2.59-3.917l-2.992-7.049
						l-7.975,1.387l1.125-3.108l-7.025-3.809l3.305-8.178l-8.115-3.776l1.229-12.144l-13.334-21.763l-4.121-0.075l-4.064-15.294l33.041-27.123l2.584-11.287l-4.734-5.19l8.895-6.463l-57.564-36.778l-58.547-36.765z"/>
					<text transform="matrix(1 0 0 1 1052.1997 213.2095)"><tspan x="0" y="0" style="fill:#000000;stroke:none;">05905</tspan></text>
				</g>
				<g>
					<path d="M1040.777,406.459l4.588,8.994l16.939-2.518l13.992-9.504l2.348-2.408l-4.938-6.437l-11.104-8.653l-21.826,20.525z"/>
					<text transform="matrix(1 0 0 1 1043.022 403.3198)"><tspan x="0" y="0" style="fill:#000000;stroke:none;">05904</tspan></text>
				</g>
				<g>
					<path d="M1068.439,4.876l-1.652,2.177l57.938,37.213l-36.635,50.583l57.564,36.778l5.959-8.919l-2.619-6.653l3.68-9.94l11.549-7.456l19.979-25.422l-15.59-18.913l2.992-1.443l0.518-13.605l-14.725-16.185l3.984-7.701l-17.727-9.504l-17.939,2.782l0.896-4.537
						l-58.172,0.747z"/>
					<text transform="matrix(1 0 0 1 1108.8052 70.5044)"><tspan x="0" y="0" style="fill:#000000;stroke:none;">05903</tspan></text>
				</g>
				<g>
					<path d="M1126.611,4.129l-0.896,4.537l17.939-2.782l17.727,9.504l16.77-8.361l12.896,4.178l9.797-7.846l-74.232,0.771z"/>
					<text transform="matrix(1 0 0 1 1146.5884 12)"><tspan x="0" y="0" style="fill:#000000;stroke:none;">05902</tspan></text>
				</g>
				<g>
					<path d="M1029.542,58.084l58.547,36.765l36.635-50.583l-57.938-37.213l-37.244,51.031z"/>
					<text transform="matrix(1 0 0 1 1060.4438 53.5767)"><tspan x="0" y="0" style="fill:#000000;stroke:none;">05901</tspan></text>
				</g>
				<g>
					<path d="M750.72,186.296l-29.033,48.813l-3.152,5.313l20.936,9.368l0.344-6.108l15.5,1.359l4.154-6.952l2.73-8.539l-2.662-13.518l7.139-9.538l0.697-12.838l-16.652-7.361z"/>
					<text transform="matrix(1 0 0 1 724.2417 238.3315)"><tspan x="0" y="0" style="fill:#000000;stroke:none;">05875</tspan></text>
				</g>
				<g>
					<path d="M593.595,63.132l-1.717,0.116l1.559,34.397l1.898,28.368l74.15-1.327l-0.504-4.143l-5.865-57.535l-69.521,0.123z"/>
					<text transform="matrix(1 0 0 1 613.9927 97.1382)"><tspan x="0" y="0" style="fill:#000000;stroke:none;">05874</tspan></text>
				</g>
				<g>
					<path d="M748.476,323.7l-24.51,40.077l-8.809,14.483l55.195,25.846l7.584,3.517l33.193-55.61L748.476,323.7z"/>
					<text transform="matrix(1 0 0 1 746.4556 368.2866)"><tspan x="0" y="0" style="fill:#000000;stroke:none;">05873</tspan></text>
				</g>
				<g>
					<path d="M859.333,70.459l-30.391,34.411L877.792,136l6.609-14.791l17.672,2.13l6.35-20.934l-49.09-31.947z"/>
					<text transform="matrix(1 0 0 1 851.9946 105.8569)"><tspan x="0" y="0" style="fill:#000000;stroke:none;">05872</tspan></text>
				</g>
				<g>
					<path d="M931.347,169.771l-41.139,47.764l22.088,13.654l-12.361,49.603l24.039,3.103l16.748-22.056l2.279-12.28l5.266,3.108l41.268-47.254l-11.951-7.497l-46.236-28.144z"/>
					<text transform="matrix(1 0 0 1 923.1821 229.459)"><tspan x="0" y="0" style="fill:#000000;stroke:none;">05871</tspan></text>
				</g>
				<g>
					<path d="M651.542,7.244l11.574,55.765l5.865,57.535l17.67-0.177l23.99-110.944l-59.1-2.178z"/>
					<text transform="matrix(1 0 0 1 664.4028 66.5215)"><tspan x="0" y="0" style="fill:#000000;stroke:none;">05868</tspan></text>
				</g>
				<g>
					<path d="M832.382,182.969l14.535,44.846l13.027,40.894l4.693,17.408l32.277,5.096l3.02-10.422l12.361-49.603l-22.088-13.654l-57.826-34.566z"/>
					<text transform="matrix(1 0 0 1 855.647 239.7173)"><tspan x="0" y="0" style="fill:#000000;stroke:none;">05867</tspan></text>
				</g>
				<g>
					<path d="M814.201,215.067l-31.936,53.322l61.719,27.199l15.961-26.878l-13.027-40.894l-32.717-12.749z"/>
					<text transform="matrix(1 0 0 1 804.4126 257.9531)"><tspan x="0" y="0" style="fill:#000000;stroke:none;">05866</tspan></text>
				</g>
				<g>
					<path d="M767.871,423.447l-23.854,38.314l-26.756,28.179l73.553,14.667l2.115,0.401l50.779-55.242l-43.365-9.571l1.832-9.28l-34.305-7.469z"/>
					<text transform="matrix(1 0 0 1 763.7954 466.8545)"><tspan x="0" y="0" style="fill:#000000;stroke:none;">05862</tspan></text>
				</g>
				<g>
					<path d="M805.716,89.624l-22.553,35.049l3.498,1.484l-3.172,4.958l66.676,29.818l-17.783,22.036l57.826,34.566l41.139-47.764l-19.408-11.851L877.792,136l-48.85-31.131l-23.227-15.246z"/>
					<text transform="matrix(1 0 0 1 840.5649 156.2065)"><tspan x="0" y="0" style="fill:#000000;stroke:none;">05860</tspan></text>
				</g>
				<g>
					<path d="M583.464,9.523l10.131,53.609l69.521-0.123L651.542,7.244l-68.078,2.279z"/>
					<text transform="matrix(1 0 0 1 606.6001 37.8149)"><tspan x="0" y="0" style="fill:#000000;stroke:none;">05859</tspan></text>
				</g>
				<g>
					<path d="M986.408,277.144L955.06,313.44l-6.029,7.157l29.537,34.805l13.234,5.733l21.055-11.994l50.139-22.68l-57.213-37.036l-19.375-12.281z"/>
					<text transform="matrix(1 0 0 1 989.3228 321.7661)"><tspan x="0" y="0" style="fill:#000000;stroke:none;">05858</tspan></text>
				</g>
				<g>
					<path d="M710.642,9.422l-23.99,110.944l15.652-0.299l6.352-0.095l13.668-22.327l25.93-44.786l14.209,8.66l-4.711-6.429l2.936-9.483l4.547-0.502l-2.885-7.504l19.684-3.157l-17.689-25.09l-53.701,0.069z"/>
					<text transform="matrix(1 0 0 1 726.4126 38.8315)"><tspan x="0" y="0" style="fill:#000000;stroke:none;">05857</tspan></text>
				</g>
				<g>
					<path d="M859.558,59.465l-16.693,0.34l16.469,10.654l49.09,31.947l33.412,22.614l26.518-28.362l-31-19.532l2.771-11.014l-10.594-7.313l-69.973,0.667z"/>
					<text transform="matrix(1 0 0 1 888.9165 94.5352)"><tspan x="0" y="0" style="fill:#000000;stroke:none;">05853</tspan></text>
				</g>
				<g>
					<path d="M859.945,268.709l-15.961,26.878l-61.719-27.199l-19.57,32.146l56.229,39.804l30.832,5.389l14.883-59.61l-4.693-17.408z"/>
					<text transform="matrix(1 0 0 1 796.9771 309.6841)"><tspan x="0" y="0" style="fill:#000000;stroke:none;">05851</tspan></text>
				</g>
				<g>
					<path d="M898.128,336.264l3.305-12.306l-8.391-0.519l-2.426,7.525l7.512,5.3z"/>
					<text transform="matrix(1 0 0 1 879.3345 332.4785)"><tspan x="0" y="0" style="fill:#000000;stroke:none;">05850</tspan></text>
				</g>
				<g>
					<path d="M877.048,428.773l28.963,35.438l27.908,0.319l16.148-8.511l19.885,7.919l19.377-7.591l-54.215-63.529l-58.066,35.955z"/>
					<text transform="matrix(1 0 0 1 916.4966 431.3013)"><tspan x="0" y="0" style="fill:#000000;stroke:none;">05848</tspan></text>
				</g>
				<g>
					<path d="M686.652,120.366l-17.67,0.177l0.504,4.143l-74.15,1.327l-25.805,35.219l29.52,13.232l61.664,26.689l29.496-48.69l-5.086-2.558l17.18-29.839l-15.652,0.299z"/>
					<text transform="matrix(1 0 0 1 619.2271 163.2378)"><tspan x="0" y="0" style="fill:#000000;stroke:none;">05847</tspan></text>
				</g>
				<g>
					<path d="M968.353,96.658l-26.518,28.362l-29.896,32.9l19.408,11.851l46.236,28.144l50.637-60.582l-39.275-24.28l-20.592-16.396z"/>
					<text transform="matrix(1 0 0 1 953.3872 149.9136)"><tspan x="0" y="0" style="fill:#000000;stroke:none;">05846</tspan></text>
				</g>
				<g>
					<path d="M702.304,120.067l-17.18,29.839l5.086,2.558l63.469,28.247l29.811-49.595l3.172-4.958l-3.498-1.484l-60.84-27.028l-13.668,22.327l-6.352,0.095z"/>
					<text transform="matrix(1 0 0 1 719.2056 141.8042)"><tspan x="0" y="0" style="fill:#000000;stroke:none;">05845</tspan></text>
				</g>
				<g>
					<path d="M684.82,295.569l-31.207,49.036l-2.537,4.042l64.082,29.613l8.809-14.483l-10.725-10.566l3.98-4.109l-6.826-2.38l2.08-10.273l-5.375-4.762l13.197-20.539l-35.479-15.579z"/>
					<text transform="matrix(1 0 0 1 661.9126 353.0815)"><tspan x="0" y="0" style="fill:#000000;stroke:none;">05843</tspan></text>
				</g>
				<g>
					<path d="M748.476,323.7l62.654,28.313l7.793-11.673l-56.229-39.804L748.476,323.7z"/>
					<text transform="matrix(1 0 0 1 767.0063 328.8999)"><tspan x="0" y="0" style="fill:#000000;stroke:none;">05842</tspan></text>
				</g>
				<g>
					<path d="M718.535,240.422l-29.748,49.288l-3.967,5.859l35.479,15.579l28.178,12.552l14.219-23.165l19.57-32.146L739.47,249.79l-20.936-9.368z"/>
					<text transform="matrix(1 0 0 1 716.8501 284.6865)"><tspan x="0" y="0" style="fill:#000000;stroke:none;">05841</tspan></text>
				</g>
				<g>
					<path d="M1005.783,289.425l57.213,37.036l42.867-49.431l-58.963-36.642l-41.117,49.037z"/>
					<text transform="matrix(1 0 0 1 1039.1333 286.0503)"><tspan x="0" y="0" style="fill:#000000;stroke:none;">05840</tspan></text>
				</g>
				<g>
					<path d="M767.373,193.657l-0.697,12.838l-7.139,9.538l2.662,13.518l-2.73,8.539l-4.154,6.952l-15.5-1.359l-0.344,6.108l42.795,18.599l31.936-53.322l-46.828-21.41z"/>
					<text transform="matrix(1 0 0 1 764.7339 229.9795)"><tspan x="0" y="0" style="fill:#000000;stroke:none;">05839</tspan></text>
				</g>
				<g>
					<path d="M989.535,205.412l-41.268,47.254l38.141,24.478l19.375,12.281l41.117-49.037l-57.365-34.976z"/>
					<text transform="matrix(1 0 0 1 980.895 250.0444)"><tspan x="0" y="0" style="fill:#000000;stroke:none;">05837</tspan></text>
				</g>
				<g>
					<path d="M720.298,311.147l-13.197,20.539l5.375,4.762l-2.08,10.273l6.826,2.38l-3.98,4.109l10.725,10.566l24.51-40.077l-28.178-12.552z"/>
					<text transform="matrix(1 0 0 1 708.4126 338.0815)"><tspan x="0" y="0" style="fill:#000000;stroke:none;">05836</tspan></text>
				</g>
				<g>
					<path d="M908.423,102.406l-6.35,20.934l-17.672-2.13L877.792,136l34.146,21.92l29.896-32.9l-33.412-22.614z"/>
					<text transform="matrix(1 0 0 1 893.1235 132.7896)"><tspan x="0" y="0" style="fill:#000000;stroke:none;">05833</tspan></text>
				</g>
				<g>
					<path d="M948.267,252.667l-5.266-3.108l-2.279,12.28l-16.748,22.056l-24.039-3.103l-3.02,10.422l38.99,7.245l-0.844,5.089l19.998,9.892l31.348-36.296l-38.141-24.478z"/>
					<text transform="matrix(1 0 0 1 937.1626 291.5815)"><tspan x="0" y="0" style="fill:#000000;stroke:none;">05832</tspan></text>
				</g>
				<g>
					<path d="M867.724,8.306l-8.166,51.16l69.973-0.667l17.982,1.422l1.967-7.811l-5.549-1.43l11.41-44.023l-87.617,1.348z"/>
					<text transform="matrix(1 0 0 1 890.7622 36.2153)"><tspan x="0" y="0" style="fill:#000000;stroke:none;">05830</tspan></text>
				</g>
				<g>
					<path d="M764.343,9.353l17.689,25.09l6.174,2.994l0.582,8.483l12.656,1.633l-5.156,10.081l-9.041,0.81l-2.168,8.919l7.576,10.286l-2.873,1.564l15.934,10.409l23.227,15.246l30.391-34.411l-16.469-10.654l16.693-0.34l8.166-51.16L764.343,9.353z"/>
					<text transform="matrix(1 0 0 1 807.603 48.2021)"><tspan x="0" y="0" style="fill:#000000;stroke:none;">05829</tspan></text>
				</g>
				<g>
					<path d="M818.923,340.339l-7.793,11.673l-33.193,55.61l-7.584-3.517l-2.998,2.864l4.756-0.891l2.098,7.211l-6.338,10.157l34.305,7.469l-1.832,9.28l43.365,9.571l27.809-27.769l-21.762-76.27l-30.832-5.389z"/>
					<text transform="matrix(1 0 0 1 802.7427 397.6802)"><tspan x="0" y="0" style="fill:#000000;stroke:none;">05828</tspan></text>
				</g>
				<g>
					<path d="M657.439,206.413l-30.365,49.888l-3.203,5.38l64.916,28.028l29.748-49.288l3.152-5.313l-64.248-28.696z M673.658,261.845l-6.275-12.954l-8.385,3.28l-5.391-13.934l5.865,7.402l8.93-0.415l-0.299-14.559l11.74,9.353l0.564-6.237l4.043,5.925
						l10.535-1.891l-5.352,7.075l3.037,5.994l-5.098,1.775l-1.59,7.523l-12.326,1.661z"/>
					<text transform="matrix(1 0 0 1 659.6626 277.3315)"><tspan x="0" y="0" style="fill:#000000;stroke:none;">05826</tspan></text>
				</g>
				<g>
					<path d="M762.462,61.519l-14.209-8.66l-25.93,44.786l60.84,27.028l22.553-35.049l-15.934-10.409l-27.32-17.695z"/>
					<text transform="matrix(1 0 0 1 747.3306 91.3931)"><tspan x="0" y="0" style="fill:#000000;stroke:none;">05825</tspan></text>
				</g>
				<g>
					<path d="M935.062,303.548l-14.047,55.119l14.1,34.151l54.215,63.529l14.029-5.273l-1.037-16.975l7.377-5.388l20.965-12.396l10.881,3.64l3.82-4.503l-4.588-8.994l-27.92-57.318l-21.055,11.994l-13.234-5.733l-29.537-34.805l6.029-7.157l-19.998-9.892z"/>
					<text transform="matrix(1 0 0 1 966.5005 382.5732)"><tspan x="0" y="0" style="fill:#000000;stroke:none;">05824</tspan></text>
				</g>
				<g>
					<path d="M753.679,180.71l-2.959,5.585l16.652,7.361l46.828,21.41l32.717,12.749l-14.535-44.846l17.783-22.036l-66.676-29.818l-29.811,49.595z"/>
					<text transform="matrix(1 0 0 1 783.7524 182.0918)"><tspan x="0" y="0" style="fill:#000000;stroke:none;">05822</tspan></text>
				</g>
				<g>
					<path d="M871.517,421.998l-27.809,27.769l-50.779,55.242l29.785,5.646l40.828,8.281l0.434-9.743l-5.373-1.402l17.695-17.457l2.566-8.66l5.666-7.301l21.48-10.163l-28.963-35.438l-5.531-6.775z"/>
					<text transform="matrix(1 0 0 1 832.7817 473.0933)"><tspan x="0" y="0" style="fill:#000000;stroke:none;">05821</tspan></text>
				</g>
				<g>
					<path d="M690.21,152.464l-29.496,48.69l-3.275,5.259l64.248,28.696l29.033-48.813l2.959-5.585l-63.469-28.247z"/>
					<text transform="matrix(1 0 0 1 688.8696 196.4136)"><tspan x="0" y="0" style="fill:#000000;stroke:none;">05820</tspan></text>
				</g>
				<g>
					<path d="M849.755,345.728l21.762,76.27l5.531,6.775l58.066-35.955l-14.1-34.151l-71.26-12.939z"/>
					<text transform="matrix(1 0 0 1 875.7446 389.877)"><tspan x="0" y="0" style="fill:#000000;stroke:none;">05819</tspan></text>
				</g>
				<g>
					<path d="M193.315,757.78l10.808,31.789l2.045,14.049l107.807-6.477l-6.041-36.336l-76.57,14.262l-8.08-10.117l5.291-9.715l-35.259,2.545z"/>
					<text transform="matrix(1 0 0 1 238.791 789.394)"><tspan x="0" y="0" style="fill:#000000;stroke:none;">05778</tspan></text>
				</g>
				<g>
					<path d="M264.932,975.465l-2.695,33.273l15.949-0.748l4.972,28.656l18.396,0.619l9.056-52.275l-24.123,0.68l-10.362-42.668l-9.1-0.016l-2.092,32.479z"/>
					<text transform="matrix(1 0 0 1 269.6631 1000.3306)"><tspan x="0" y="0" style="fill:#000000;stroke:none;">05777</tspan></text>
				</g>
				<g>
					<path d="M188.162,1095.235l-2.15,63.971l9.413,0.436l-3.108-5.682l6.091,2.107l29.206-17.768l-4.477-3.021l1.031-13.783l-9.949-4.83l-0.993-20.463l-13.052-0.449l-4.336-0.389l-7.676-0.129z"/>
					<text transform="matrix(1 0 0 1 187.1631 1141.3306)"><tspan x="0" y="0" style="fill:#000000;stroke:none;">05775</tspan></text>
				</g>
				<g>
					<path d="M189.346,1059.03l-1.184,36.205l7.676,0.129l4.336,0.389l13.052,0.449l48.609,2.945l0.624-22.512l-33.908-20.336l-39.205,2.73z"/>
					<text transform="matrix(1 0 0 1 208.6201 1080.3501)"><tspan x="0" y="0" style="fill:#000000;stroke:none;">05774</tspan></text>
				</g>
				<g>
					<path d="M283.157,1036.647l3.026,16.797l-19.869,25.457l-3.855-2.266l-0.624,22.512l138.629,6.457l1.025-16.791l-7.4-11.852l-14.215-6.564l-2.666,4.789l-16.184-10.537l-6.779-8.402l2.713-12.58l-4.887-0.088l-0.261-6.865l-50.259,0.553l-18.396-0.619z"/>
					<text transform="matrix(1 0 0 1 314.9736 1073.7505)"><tspan x="0" y="0" style="fill:#000000;stroke:none;">05773</tspan></text>
				</g>
				<g>
					<path d="M102.521,740.167l5.572,3.318l-1.189,14.408l11.76,3.627l3.926,20.934l-5.947,8.885l5.212,8.156l82.269-9.926l-10.808-31.789l-9.609-28.35l-81.185,10.736z"/>
					<text transform="matrix(1 0 0 1 136.6318 767.0903)"><tspan x="0" y="0" style="fill:#000000;stroke:none;">05770</tspan></text>
				</g>
				<g>
					<path d="M297.375,718.247l-59.681,7.348l-9.12,29.641l-5.291,9.715l8.08,10.117l76.57-14.262l0.516-15.592l-5.877,0.592l1.934-28.559l-7.131,1z"/>
					<text transform="matrix(1 0 0 1 249.1758 748.7817)"><tspan x="0" y="0" style="fill:#000000;stroke:none;">05769</tspan></text>
				</g>
				<g>
					<path d="M186.012,1159.206l-0.56,20.932l8.76-2.32l0.565,11.084l6.99,9.559l32.742-16.262l-2.08,24.914l-17.974,6.504l15.199,5.115l-3.237,8.301l31.374,0.789l3.012-64.541l-65.379-3.639l-9.413-0.436z"/>
					<text transform="matrix(1 0 0 1 200.6631 1178.0806)"><tspan x="0" y="0" style="fill:#000000;stroke:none;">05768</tspan></text>
				</g>
				<g>
					<path d="M434.863,735.54l-28.234,51.555l-5.139-1.973l-0.99-25.484l-43.13,18.408l-11.01,4.469l7.336,28.391l47.794-21.43l0.672,12.586l20.285,7.115l3.682-6.693l19.395,6.51l7.916,17.205l0.486-0.951l42.1-71.318l-42.703-12.715l1.688-9.23l-5.918-2.109
						l2.479-4.361l-2.719-6.471L438.187,736.6l-3.324-1.061z"/>
					<text transform="matrix(1 0 0 1 430.5044 785.2466)"><tspan x="0" y="0" style="fill:#000000;stroke:none;">05767</tspan></text>
				</g>
				<g>
					<path d="M293.684,665.188l3.691,53.058l7.131-1l-1.934,28.559l5.877-0.592l33.249,0.539l19.134-35.895l19.266,6.674l2.317-47.947l-66.642-1.465l-0.029-4.408l-22.061,2.477z"/>
					<text transform="matrix(1 0 0 1 321.3604 706.8853)"><tspan x="0" y="0" style="fill:#000000;stroke:none;">05766</tspan></text>
				</g>
				<g>
					<path d="M192.466,973.629l-1.351,32.586l-1.77,52.814l39.205-2.73l5.063-20.586l20.121-10.967l8.502-16.008l2.695-33.273l-72.466-1.836z"/>
					<text transform="matrix(1 0 0 1 210.4482 1018.9556)"><tspan x="0" y="0" style="fill:#000000;stroke:none;">05764</tspan></text>
				</g>
				<g>
					<path d="M280.219,860.356l10.137,7.008l2.197,19.131l12.48,9.258l0.205,6.504l3.135,11.057l6.105,1.266l-3.75,5.748l11.971-0.313l41.716-2.008l-35.575-59.615l-48.621,1.965z"/>
					<text transform="matrix(1 0 0 1 305.6279 891.9849)"><tspan x="0" y="0" style="fill:#000000;stroke:none;">05763</tspan></text>
				</g>
				<g>
					<path d="M402.162,802.061l0.916,24.783l27.555,46.215l-3.227,11.033l4.984,1.512l5.244-11.514l2.68-5.896l-7.107-2.641l20.232-39.355l-7.916-17.205l-19.395-6.51l-3.682,6.693l-20.285-7.115z"/>
					<text transform="matrix(1 0 0 1 409.9126 829.3306)"><tspan x="0" y="0" style="fill:#000000;stroke:none;">05762</tspan></text>
				</g>
				<g>
					<path d="M213.226,1096.202l0.993,20.463l9.949,4.83l-1.031,13.783l4.477,3.021l-29.206,17.768l-6.091-2.107l3.108,5.682l65.379,3.639l1.031-64.133l-48.609-2.945z"/>
					<text transform="matrix(1 0 0 1 226.1367 1113.6157)"><tspan x="0" y="0" style="fill:#000000;stroke:none;">05761</tspan></text>
				</g>
				<g>
					<path d="M121.854,799.495l-4.383,9.934l-3.091-4.865l-2.777,5.035l5.818,19.668l11.291,3.225l1.509,9.49l5.669,4.246l-0.516,7.748l-6.349,6.518l70.21-7.307l14.183-1.51l-7.251-48.059l-2.045-14.049l-82.269,9.926z"/>
					<text transform="matrix(1 0 0 1 145.8223 827.6587)"><tspan x="0" y="0" style="fill:#000000;stroke:none;">05760</tspan></text>
				</g>
				<g>
					<path d="M323.461,984.555l-12.853,0.436l-9.056,52.275l50.259-0.553l0.261,6.865l4.887,0.088l13.975,0.238l-3.044-61.609l-44.429,2.26z"/>
					<text transform="matrix(1 0 0 1 319.5557 1015.7271)"><tspan x="0" y="0" style="fill:#000000;stroke:none;">05759</tspan></text>
				</g>
				<g>
					<path d="M404.056,1046.17l-1.33,20.986l11.857,1.307l4.736,17.588l12.68,2.66l-10.982,6.482l3.072,8.619l15.625,3.592l11.059,10.709l-2.355,5.592l11.906,5.641l18.973-43.01l7.547-27.152l-1.811-4.783l-25.148-6.217l-55.828-2.014z"/>
					<text transform="matrix(1 0 0 1 428.0942 1090.3833)"><tspan x="0" y="0" style="fill:#000000;stroke:none;">05758</tspan></text>
				</g>
				<g>
					<path d="M262.236,1008.739l-8.502,16.008l-20.121,10.967l-5.063,20.586l33.908,20.336l3.855,2.266l19.869-25.457l-3.026-16.797l-4.972-28.656l-15.949,0.748z"/>
					<text transform="matrix(1 0 0 1 240.6768 1046.0728)"><tspan x="0" y="0" style="fill:#000000;stroke:none;">05757</tspan></text>
				</g>
				<g>
					<path d="M188.807,633.031l-0.34,5.544l-16.424,6.401l1.67,11.912l7.664,12.749l4.494,0.715l-2.165,59.078l9.609,28.35l35.259-2.545l9.12-29.641l59.681-7.348l-3.691-53.058l-1.143-10.878l-16.38,1.919l-47.798,5.367l2.37-5.953l-3.706-7.564l-18.896-2.156
						l-19.324-12.892z"/>
					<text transform="matrix(1 0 0 1 218.0186 698.0317)"><tspan x="0" y="0" style="fill:#000000;stroke:none;">05753</tspan></text>
				</g>
				<g>
					<path d="M427.406,884.092l-11.121-1.313l-5.738,17.77l18.623-8.096l-25.244,60.111l55.232,18.262l8.402,2.756l32.35-64.842l-67.52-23.137l-4.984-1.512z"/>
					<text transform="matrix(1 0 0 1 435.229 930.8071)"><tspan x="0" y="0" style="fill:#000000;stroke:none;">05751</tspan></text>
				</g>
				<g>
					<path d="M380.098,716.532l-19.266-6.674l-19.134,35.895l-12.24,23.088l27.911,9.205l43.13-18.408l0.99,25.484l5.139,1.973l28.234-51.555l-54.765-19.008z"/>
					<text transform="matrix(1 0 0 1 365.4697 751.1021)"><tspan x="0" y="0" style="fill:#000000;stroke:none;">05748</tspan></text>
				</g>
				<g>
					<path d="M377.654,643.97l4.761,24.615l-2.317,47.947l54.765,19.008l3.324,1.061l10.664-17.559l27.908-46.199l-45.182-15.627l-42.7-14.382l-11.224,1.137z"/>
					<text transform="matrix(1 0 0 1 410.5161 692.3442)"><tspan x="0" y="0" style="fill:#000000;stroke:none;">05747</tspan></text>
				</g>
				<g>
					<path d="M470.73,844.565l-11.877,2.871l-9.178,13.607l0.494,8.953l-12.535,4.094l-5.244,11.514l67.52,23.137l3.703-7.633l-12.217-4.15l11.617-23.498l-0.244-4.469l-14.52,1.408l4.201-10.66l-14.814-6.777l-6.906-8.396z"/>
					<text transform="matrix(1 0 0 1 451.313 879.2798)"><tspan x="0" y="0" style="fill:#000000;stroke:none;">05746</tspan></text>
				</g>
				<g>
					<path d="M99.932,915.163l-11.859,24.471l5.924,13.605l-6.281,22.369l18.287,11.191l7.031-5.904l-1.992-9.551l8.171-9.553l0.331-13.361l37.219-2.402l2.124,12.613l6.366,6.545l-2.537,15.449l6.132-1.447l13.046,8.932l7.523,8.361l1.699,9.734l1.351-32.586
						l2.552-54.004l-95.086-4.463z"/>
					<text transform="matrix(1 0 0 1 121.9131 938.0806)"><tspan x="0" y="0" style="fill:#000000;stroke:none;">05743</tspan></text>
				</g>
				<g>
					<path d="M356.959,1043.667l-2.713,12.58l6.779,8.402l16.184,10.537l2.666-4.789l14.215,6.564l7.4,11.852l-1.025,16.791l13.428,0.746l-0.432,14.479l15.656-0.857l-0.055-5.408l19.355,9.143l2.355-5.592l-11.059-10.709l-15.625-3.592l-3.072-8.619l10.982-6.482
						l-12.68-2.66l-4.736-17.588l-11.857-1.307l1.33-20.986l-32.958,1.598l-0.164-3.863l-13.975-0.238z"/>
					<text transform="matrix(1 0 0 1 364.1631 1061.8306)"><tspan x="0" y="0" style="fill:#000000;stroke:none;">05742</tspan></text>
				</g>
				<g>
					<path d="M261.835,1099.147l-1.031,64.133l72.905,2.395l4.523,0.23l-2.93,8.969h8.584l0.135-8.711l61.236,2.518l1.037-31.449l7.025-0.416l0.141-15.986l0.432-14.479l-13.428-0.746l-138.629-6.457z"/>
					<text transform="matrix(1 0 0 1 320.6572 1139.6353)"><tspan x="0" y="0" style="fill:#000000;stroke:none;">05739</tspan></text>
				</g>
				<g>
					<path d="M367.89,982.295l3.044,61.609l0.164,3.863l32.958-1.598l55.828,2.014l0.709-9.504l-11.779-2.156l9.119-57.412l-90.043,3.184z"/>
					<text transform="matrix(1 0 0 1 397.5532 1016.2739)"><tspan x="0" y="0" style="fill:#000000;stroke:none;">05738</tspan></text>
				</g>
				<g>
					<path d="M353.695,810.905l-32.719,14.709l7.863,32.777l35.575,59.615l46.131-17.457l5.738-17.77l11.121,1.313l3.227-11.033l-27.555-46.215l-0.916-24.783l-0.672-12.586l-47.794,21.43z"/>
					<text transform="matrix(1 0 0 1 359.1152 856.3657)"><tspan x="0" y="0" style="fill:#000000;stroke:none;">05737</tspan></text>
				</g>
				<g>
					<path d="M195.463,910.672l-0.445,8.953l-2.552,54.004l72.466,1.836l2.092-32.479l9.1,0.016l-5.042-20.67l-2.165-9.039l-73.453-2.621z"/>
					<text transform="matrix(1 0 0 1 217.6025 945.6958)"><tspan x="0" y="0" style="fill:#000000;stroke:none;">05735</tspan></text>
				</g>
				<g>
					<path d="M104.672,678.563l2.833,3.436l-5.93,16.158l2.558,9.416l-4.629,2.217l5.927,22.885l-4.052,3.131l1.143,4.361l81.185-10.736l2.165-59.078l-4.494-0.715l-76.705,8.926z"/>
					<text transform="matrix(1 0 0 1 126 707.5278)"><tspan x="0" y="0" style="fill:#000000;stroke:none;">05734</tspan></text>
				</g>
				<g>
					<path d="M308.449,745.213l-0.516,15.592l6.041,36.336l-107.807,6.477l7.251,48.059l-14.183,1.51l-0.938,10.762l9.41-0.422l-0.062,4.947l7.028-5.246l41.235-1.605l24.308-1.266l48.621-1.965l-7.863-32.777l32.719-14.709l-7.336-28.391l11.01-4.469l-27.911-9.205
						l12.24-23.088l-33.249-0.539z"/>
					<text transform="matrix(1 0 0 1 256.9131 831.5806)"><tspan x="0" y="0" style="fill:#000000;stroke:none;">05733</tspan></text>
				</g>
				<g>
					<path d="M198.299,863.948l-2.836,46.725l73.453,2.621l-13.005-51.672l-41.235,1.605l-7.028,5.246l0.062-4.947l-9.41,0.422z"/>
					<text transform="matrix(1 0 0 1 215.499 890.0845)"><tspan x="0" y="0" style="fill:#000000;stroke:none;">05732</tspan></text>
				</g>
				<g>
					<path d="M129.026,860.493l-6.498,6.865l-1.327,15.803l-19.547,20.156l2.104,8.021l-2.484,1.98l0.773-4.918l-2.115,6.762l95.086,4.463l0.445-8.953l2.836-46.725l0.938-10.762l-70.21,7.307z"/>
					<text transform="matrix(1 0 0 1 132.8936 889.0317)"><tspan x="0" y="0" style="fill:#000000;stroke:none;">05731</tspan></text>
				</g>
				<g>
					<path d="M271.081,922.333l5.042,20.67l10.362,42.668l24.123-0.68l12.853-0.436l-0.885-15.076l-13.365-11.701l-5.689-2.701l2.159-8.375l-3.437-2.014l-3.202-23.723l-27.961,1.367z"/>
					<text transform="matrix(1 0 0 1 283.9131 975.5806)"><tspan x="0" y="0" style="fill:#000000;stroke:none;">05730</tspan></text>
				</g>
				<g>
					<path d="M364.415,918.006l-41.716,2.008l-3.19,5.271l6.021-0.061l0.234,5.904l-13.761,17.654l6.823,6.457l-9.615,2.537l13.365,11.701l0.885,15.076l44.429-2.26l90.043-3.184l1.225-8.285l-55.232-18.262l25.244-60.111l-18.623,8.096l-46.131,17.457z
						 M335.212,974.323l-10.603-8.449l4.178-2.205l-4.907-3.557l3.331-0.953l-0.855-14.58l16.058-0.809l17.613,6.504l0.841,18.838l-25.655,5.211z"/>
					<text transform="matrix(1 0 0 1 367.4971 941.1313)"><tspan x="0" y="0" style="fill:#000000;stroke:none;">05701</tspan></text>
				</g>
				<g>
					<path d="M559.099,366.974l-32.793,55.063l58.838,35.785l16.643-26.955l17.406-27.519l-60.094-36.375z"/>
					<text transform="matrix(1 0 0 1 556.061 415.0239)"><tspan x="0" y="0" style="fill:#000000;stroke:none;">05682</tspan></text>
				</g>
				<g>
					<path d="M651.076,348.646l-31.883,54.703l37.039,17.396l25.277,11.708l33.648-54.195l-64.082-29.613z"/>
					<text transform="matrix(1 0 0 1 650.4868 393.1758)"><tspan x="0" y="0" style="fill:#000000;stroke:none;">05681</tspan></text>
				</g>
				<g>
					<path d="M623.871,261.681l-24.605,42.152l-7.99,12.606l62.338,28.165l31.207-49.036l3.967-5.859l-64.916-28.028z"/>
					<text transform="matrix(1 0 0 1 623.3442 306.77)"><tspan x="0" y="0" style="fill:#000000;stroke:none;">05680</tspan></text>
				</g>
				<g>
					<path d="M563.191,583.917l-21.357,49.711l50.373,16.804l20.449,8.361l26.119-56.371l-29.004-10.143l-29.775-10.118l-2.631,6.226l-14.174-4.471z"/>
					<text transform="matrix(1 0 0 1 573.6157 623.105)"><tspan x="0" y="0" style="fill:#000000;stroke:none;">05679</tspan></text>
				</g>
				<g>
					<path d="M478.207,398.486l-9.715,9.45l-1.893,23.26l19.615-0.158l4.244,10.898l-2.807,4.975l15.064,7.613l-2.578,4.871l-23.555-0.095l-2.496,3.795l1.951,5.981l15.75,9.831l6.076-10.192l5.537,2.361l9.434-16.008l3.756,1.51l6.463-11l-6.305-8.253l9.557-15.287
						l-48.1-23.552z"/>
					<text transform="matrix(1 0 0 1 479.6626 431.0815)"><tspan x="0" y="0" style="fill:#000000;stroke:none;">05677</tspan></text>
				</g>
				<g>
					<path d="M440.935,385.676l-19.355,32.873l19.654,8.769l-12.324,21.212l-16.75-4.156l-13.266,24.062l-18.281,32.832l8.736,3.728l47.32,19.879l16.334-2.035l21.697-53.111l16.449,10.68l0.639-1.503l-15.75-9.831l-1.951-5.981l2.496-3.795l23.555,0.095
						l2.578-4.871l-15.064-7.613l2.807-4.975l-4.244-10.898l-19.615,0.158l1.893-23.26l9.715-9.45l-37.271-12.81z"/>
					<text transform="matrix(1 0 0 1 424.9751 457.9014)"><tspan x="0" y="0" style="fill:#000000;stroke:none;">05676</tspan></text>
				</g>
				<g>
					<path d="M638.775,602.423l-26.119,56.371l67.992,28.511l19.305-59.731l-53.824-22.15l-7.354-3.001z"/>
					<text transform="matrix(1 0 0 1 639.6157 647.4902)"><tspan x="0" y="0" style="fill:#000000;stroke:none;">05675</tspan></text>
				</g>
				<g>
					<path d="M367.562,581.619l10.093,62.351l11.224-1.137l42.7,14.382l29.125-50.268l-6.883-2.279l-48.875-16.866l-14.013-7.305l-23.37,1.122z"/>
					<text transform="matrix(1 0 0 1 397.4438 621.4819)"><tspan x="0" y="0" style="fill:#000000;stroke:none;">05674</tspan></text>
				</g>
				<g>
					<path d="M404.945,587.802l48.875,16.866l11.314-12.946l-4.541-2.987l13.711-15.688l-3.492-2.285l10.055-11.878l-4.641-2.919l5.254-6.409l-26.707-16.729l-9.232,2.524l-40.596,52.452z"/>
					<text transform="matrix(1 0 0 1 426.5239 571.374)"><tspan x="0" y="0" style="fill:#000000;stroke:none;">05673</tspan></text>
				</g>
				<g>
					<path d="M438.468,320.196l-12.141,21.422l15.416,6.981l-19.881,31.934l19.072,5.143l37.271,12.81l48.1,23.552l32.793-55.063l-62.852-30.322l8.396-14.498l-42.85-12.204l-9.205,14.38l-14.121-4.135z"/>
					<text transform="matrix(1 0 0 1 473.7915 368.6206)"><tspan x="0" y="0" style="fill:#000000;stroke:none;">05672</tspan></text>
				</g>
				<g>
					<path d="M460.703,606.948l-29.125,50.268l45.182,15.627l32.953,11.334l27.299-52.139l-76.309-25.09z"/>
					<text transform="matrix(1 0 0 1 467.604 648.1875)"><tspan x="0" y="0" style="fill:#000000;stroke:none;">05669</tspan></text>
				</g>
				<g>
					<path d="M641.933,507.751l-16.969,26.13l63.5,20.26l18.246-28.717l-58.992-27.207l-5.785,9.533z"/>
					<text transform="matrix(1 0 0 1 659.6626 542.0815)"><tspan x="0" y="0" style="fill:#000000;stroke:none;">05667</tspan></text>
				</g>
				<g>
					<path d="M605.003,528.998l19.961,4.884l16.969-26.13l-19.945,0.68l-8.209,6.741l-3.104,12.702l-5.672,1.124z"/>
					<text transform="matrix(1 0 0 1 606.7759 523.4429)"><tspan x="0" y="0" style="fill:#000000;stroke:none;">05666</tspan></text>
				</g>
				<g>
					<path d="M481.48,549.555l-5.254,6.409l4.641,2.919l-10.055,11.878l3.492,2.285l-13.711,15.688l4.541,2.987l-11.314,12.946l6.883,2.279l76.309,25.09l4.822,1.591l21.357-49.711l-0.623-35.301l-6.883-3.353l-16.119,11.341l-20.73-11.145l-9.17,21.595
						l-28.186-17.499z"/>
					<text transform="matrix(1 0 0 1 491.8149 592.0737)"><tspan x="0" y="0" style="fill:#000000;stroke:none;">05663</tspan></text>
				</g>
				<g>
					<path d="M473.056,291.976l-11.262,17.975l42.85,12.204l-8.396,14.498l62.852,30.322l32.176-50.534l7.99-12.606l-18.244-8.845l-5.895,8.566l-24.662-11.43l-6.984,2.503l-2.115-8.007l-3.035,2.517l-9.943-6.633l-6.486,0.885l-12.902,19.069l-35.941-10.484z"/>
					<text transform="matrix(1 0 0 1 513.8403 327.3662)"><tspan x="0" y="0" style="fill:#000000;stroke:none;">05661</tspan></text>
				</g>
				<g>
					<path d="M389.35,504.995l-14.93,37.112l-17.353,41.07l10.494-1.557l23.37-1.122l14.013,7.305l40.596-52.452l9.232-2.524l26.707,16.729l28.186,17.499l9.17-21.595l16.195-37.424l-11.713-2.53l-5.607-9.117l-14.666-7.014l-0.287-8.307l-11.607-0.659
						l-16.449-10.68l-21.697,53.111l-16.334,2.035l-47.32-19.879z"/>
					<text transform="matrix(1 0 0 1 401.6626 540.5815)"><tspan x="0" y="0" style="fill:#000000;stroke:none;">05660</tspan></text>
				</g>
				<g>
					<path d="M671.261,448.944l-23.41,36.94l5.475,3.097l-5.607,9.237l58.992,27.207l11.262-17.905l-0.711-17.58l26.756-28.179l-62.508-29.307l-10.248,16.49z"/>
					<text transform="matrix(1 0 0 1 679.1802 481.5659)"><tspan x="0" y="0" style="fill:#000000;stroke:none;">05658</tspan></text>
				</g>
				<g>
					<path d="M591.275,316.44l-32.176,50.534l60.094,36.375l31.883-54.703l2.537-4.042l-62.338-28.165z"/>
					<text transform="matrix(1 0 0 1 589.6665 362.521)"><tspan x="0" y="0" style="fill:#000000;stroke:none;">05657</tspan></text>
				</g>
				<g>
					<path d="M521.419,214.556l-23.367-10.314l-19.787,32.383l-15.574,24.253l23.109,10.98l-12.744,20.117l35.941,10.484L521.9,283.39l6.486-0.885l30.275-51.466l-2.297-1.109l-34.945-15.375z"/>
					<text transform="matrix(1 0 0 1 493.9888 255.9771)"><tspan x="0" y="0" style="fill:#000000;stroke:none;">05656</tspan></text>
				</g>
				<g>
					<path d="M558.662,231.04l-30.275,51.466l9.943,6.633l3.035-2.517l2.115,8.007l6.984-2.503l24.662,11.43l5.895-8.566l18.244,8.845l24.605-42.152l3.203-5.38l-66.297-28.737l-2.115,3.476z"/>
					<text transform="matrix(1 0 0 1 561.0415 268.3257)"><tspan x="0" y="0" style="fill:#000000;stroke:none;">05655</tspan></text>
				</g>
				<g>
					<path d="M640.089,583.884l-29.076-11.511l-4.111,10.273l4.512,2.585l-1.643,7.049l29.004,10.143l7.354,3.001l2.891-13.696l-8.93-7.844z"/>
					<text transform="matrix(1 0 0 1 599.8354 595.2744)"><tspan x="0" y="0" style="fill:#000000;stroke:none;">05654</tspan></text>
				</g>
				<g>
					<path d="M599.05,174.464l-5.885,7.532l1.818,8.341l-7.16,16.96l-7.963,6.7l-5.479-3.149l-18.018,19.083l2.297,1.109l2.115-3.476l66.297,28.737l30.365-49.888l3.275-5.259l-61.664-26.689z"/>
					<text transform="matrix(1 0 0 1 591.8521 218.0098)"><tspan x="0" y="0" style="fill:#000000;stroke:none;">05653</tspan></text>
				</g>
				<g>
					<path d="M560.839,155.083l-39.42,59.473l34.945,15.375l18.018-19.083l5.479,3.149l7.963-6.7l7.16-16.96l-1.818-8.341l5.885-7.532l-29.52-13.232l-8.691-6.149z"/>
					<text transform="matrix(1 0 0 1 543.5454 195.1333)"><tspan x="0" y="0" style="fill:#000000;stroke:none;">05652</tspan></text>
				</g>
				<g>
					<path d="M585.144,457.822l-13.125,21.851l5.328,2.43l-4.072,7.014l5.625,2.285l-2.873,10.286l23.738,21.614l-3.732,6.422l6.615-0.829l2.355,0.103l5.672-1.124l3.104-12.702l8.209-6.741l19.945-0.68l5.785-9.533l5.607-9.237l-5.475-3.097l-36.063-16.339
						l-26.645-11.723z"/>
					<text transform="matrix(1 0 0 1 595.9829 496.4004)"><tspan x="0" y="0" style="fill:#000000;stroke:none;">05651</tspan></text>
				</g>
				<g>
					<path d="M656.232,420.746l-1.883,6.381l-9.941,1.775l-2.146,4.605l10.713,12.498l18.287,2.938l10.248-16.49l-25.277-11.708z"/>
					<text transform="matrix(1 0 0 1 645.1958 437.4712)"><tspan x="0" y="0" style="fill:#000000;stroke:none;">05650</tspan></text>
				</g>
				<g>
					<path d="M640.089,583.884l8.93,7.844l1.91-9.041l-9.053-3.53l-1.787,4.727z"/>
					<text transform="matrix(1 0 0 1 629.6626 587.0815)"><tspan x="0" y="0" style="fill:#000000;stroke:none;">05649</tspan></text>
				</g>
				<g>
					<path d="M619.193,403.349l-17.406,27.519l12.305,6.593l6.416-6.593l7.57,3.062l3.656,7.878l-11.633,23.35l-8.313,4.389l36.063,16.339l23.41-36.94l-18.287-2.938l-10.713-12.498l2.146-4.605l9.941-1.775l1.883-6.381l-37.039-17.396z"/>
					<text transform="matrix(1 0 0 1 627.4126 466.3315)"><tspan x="0" y="0" style="fill:#000000;stroke:none;">05648</tspan></text>
				</g>
				<g>
					<path d="M715.158,378.259l-33.648,54.195l62.508,29.307l23.854-38.314l6.338-10.157l-2.098-7.211l-4.756,0.891l2.998-2.864l-55.195-25.846z"/>
					<text transform="matrix(1 0 0 1 711.1665 422.6382)"><tspan x="0" y="0" style="fill:#000000;stroke:none;">05647</tspan></text>
				</g>
				<g>
					<path d="M585.144,457.822l26.645,11.723l8.313-4.389l11.633-23.35l-3.656-7.878l-7.57-3.062l-6.416,6.593l-12.305-6.593l-16.643,26.955z"/>
					<text transform="matrix(1 0 0 1 591.7466 452.833)"><tspan x="0" y="0" style="fill:#000000;stroke:none;">05640</tspan></text>
				</g>
				<g>
					<path d="M526.306,422.038l-9.557,15.287l6.305,8.253l-6.463,11l-3.756-1.51l-9.434,16.008l-5.537-2.361l-6.076,10.192l-0.639,1.503l11.607,0.659l0.287,8.307l14.666,7.014l5.607,9.117l11.713,2.53l-16.195,37.424l20.73,11.145l16.119-11.341l6.883,3.353
						l0.623,35.301l14.174,4.471l2.631-6.226l22.652-53.268l-6.615,0.829l3.732-6.422l-23.738-21.614l2.873-10.286l-5.625-2.285l4.072-7.014l-5.328-2.43l13.125-21.851l-58.838-35.785z"/>
					<text transform="matrix(1 0 0 1 530.2114 507.8394)"><tspan x="0" y="0" style="fill:#000000;stroke:none;">05602</tspan></text>
				</g>
				<g>
					<path d="M253.354,369.769l-2.209,17.212l2.663,4.967l-6.293,9.795l0.454,11.227l-4.934,4.557l7.031,2.178l5.098,24.932l28.641-4.034l18.375-39.451l7.465,2.007l7.84-5.558l-5.754-3.497l7.052-1.708l1.028-6.877l-7.611-11.123l-32.145-8.708l-6.803,5.783
						l-6.009-7.484l-13.89,5.782z"/>
					<text transform="matrix(1 0 0 1 264.7324 406.9395)"><tspan x="0" y="0" style="fill:#000000;stroke:none;">05495</tspan></text>
				</g>
				<g>
					<path d="M308.827,249.959l-33.885,54.82l0.987,0.19l70.98,13.613l34.172-54.807l-7.676-1.496l-64.579-12.321z"/>
					<text transform="matrix(1 0 0 1 311.3232 286.8984)"><tspan x="0" y="0" style="fill:#000000;stroke:none;">05494</tspan></text>
				</g>
				<g>
					<path d="M514.154,152.634l-40.541,5.477l-5.145,13.449l-6.117-0.122l-3.752,20.436l-5.107-0.652l-1.582,6.7l-5.684,24.076l32.039,14.626l19.787-32.383l23.367,10.314l39.42-59.473l-10.551-7.463l-36.135,5.014z"/>
					<text transform="matrix(1 0 0 1 486.8442 194.7495)"><tspan x="0" y="0" style="fill:#000000;stroke:none;">05492</tspan></text>
				</g>
				<g>
					<path d="M124.951,586.592l-4.849,6.715l1.468,9.551l-10.529,13.008l-0.009,12.287l-15.185,10.462l0.949,10.404l-6.732,11.557l1.354,8.789l12.732,4.295l0.521,4.904l76.705-8.926l-7.664-12.749l-1.67-11.912l16.424-6.401l0.34-5.544l1.84-18.838l3.281,5.687
						l18.794-1.475l-3.255-33.968l-15.249-3.015l0.823,5.505l-16.805,2.061l-1.277-8.518l-26.282,3.198l-1.843,7.021l0.58-6.885l-24.463,2.789z"/>
					<text transform="matrix(1 0 0 1 134.7041 632.1431)"><tspan x="0" y="0" style="fill:#000000;stroke:none;">05491</tspan></text>
				</g>
				<g>
					<path d="M346.91,318.583l46.646,54.344l28.306,7.605l19.881-31.934l-15.416-6.981l12.141-21.422l-11.18-3.035l-46.207-53.385l-34.172,54.807z"/>
					<text transform="matrix(1 0 0 1 377.6367 324.7808)"><tspan x="0" y="0" style="fill:#000000;stroke:none;">05489</tspan></text>
				</g>
				<g>
					<path d="M253.245,7.387l-14.303,0.245l3.923,8.231l-3.946-1.027l-5.792,16.545l-2.411-3.497l3.091-8.402l-4.037-1.85l-11.502,12.3L205.925,31.6l3.782,1.32l-7.916,18.041l2.449,9.334l5.766,4.708l10.799-8.707l18,9.272l-7.26,28.96l103.866,45.023
						l-1.509-11.613l-8.288-14.333l3.844-20.818l-19.655-3.23l-10.857-16.063l-60.984-28.749l-2.848-12.784l18.132-24.573z"/>
					<text transform="matrix(1 0 0 1 251.9121 76.0957)"><tspan x="0" y="0" style="fill:#000000;stroke:none;">05488</tspan></text>
				</g>
				<g>
					<path d="M284.71,501.042l3.182,21.042l-5.109,0.754l7.342,44.738l25.649-5.108l5.203,25.641l36.091-4.934l17.353-41.07l-24.586-6.3l-4.23-43.049l-26.622-5.845l1.983,12.381l-36.255,1.749z"/>
					<text transform="matrix(1 0 0 1 302.6631 546.5815)"><tspan x="0" y="0" style="fill:#000000;stroke:none;">05487</tspan></text>
				</g>
				<g>
					<path d="M132.665,232.271l-0.85,10.327l4.163,8.742l-3.829,5.851l3.923,5.205l-3.264,7.572l15.442,0.34l5.426,10.667l-0.507,9.274l1.471-4.232l5.678,0.639l3.047-10.348l10.67,0.661l1.383-12.218l9.768-1.225l0.299-0.625l-6.229-2.988l-0.035-7.462
						l-4.937-1.652l-0.161-8.865l-4.459-4.252l-5.379,12.696l-7.649-4.824l-4.28,6.952l-3.51-13.654l12.313-3.653l2.013-6.218l-30.507,3.293z M131.965,280.37l-5.048-2.871l4.403-5.755l0.645,8.626z"/>
					<text transform="matrix(1 0 0 1 139.5117 262.2393)"><tspan x="0" y="0" style="fill:#000000;stroke:none;">05486</tspan></text>
				</g>
				<g>
					<path d="M387.082,57.042l-88.137,16.45l10.857,16.063l19.655,3.23l92.528,16.11l12.703-40.982l-3.359-0.776l-44.248-10.096z"/>
					<text transform="matrix(1 0 0 1 350.1299 85.5967)"><tspan x="0" y="0" style="fill:#000000;stroke:none;">05483</tspan></text>
				</g>
				<g>
					<path d="M206.525,406.302l-3.261,13.198l-6.038,1.831l-1.172-7.274l-8.669-8.496l3.788-10.594l-4.447-2.795l-1.603,19.327l-12.905,11.783l3.108,8.763l-4.567,0.435l0.141,4.258l7.102-0.422l-2.136,8.008l3.486,1.803l-7.896,9.639l65.344-8.776l18.363-2.354
						l-5.098-24.932l-7.031-2.178l-36.51-11.225z"/>
					<text transform="matrix(1 0 0 1 196.2715 426.5962)"><tspan x="0" y="0" style="fill:#000000;stroke:none;">05482</tspan></text>
				</g>
				<g>
					<path d="M231.545,94.528l-4.611,5.423l-6.082,40.622l6.275-3.144l7.066,7.17l-8.631,5.959l-0.287,13.295l6.428-1.008l0.958-9.879l7.081-2.347l4.603-9.103l8.528,3.62l-1.582,8.457l31.137,13.545l61.049-23.955l-8.065-3.633L231.545,94.528z M277.424,152.49
						l1.406-4.204l-5.81-5.911l1.91-6.797l9.706-3.735l7.778,4.532l-3.141,10.299l-11.851,5.815z M209.338,171.601l4.324-7.639l6.475,1.327l-10.799,6.312z M210.879,151.226l1.163-8.395l2.177,3.041l-3.34,5.354z"/>
					<text transform="matrix(1 0 0 1 238.1631 126.5815)"><tspan x="0" y="0" style="fill:#000000;stroke:none;">05481</tspan></text>
				</g>
				<g>
					<path d="M277.424,152.49l11.851-5.815l3.141-10.299l-7.778-4.532l-9.706,3.735l-1.91,6.797l5.81,5.911l-1.406,4.204z"/>
					<text transform="matrix(1 0 0 1 266.0303 144.7925)"><tspan x="0" y="0" style="fill:#000000;stroke:none;">05478</tspan></text>
				</g>
				<g>
					<path d="M393.557,372.927l-17.423,28.43l-58.649-3.756l-7.84,5.558l-7.465-2.007l-18.375,39.451l26.871-4.081l1.189,8.068l87.029,23.845l13.266-24.062l16.75,4.156l12.324-21.212l-19.654-8.769l19.355-32.873l-19.072-5.143l-28.306-7.605z"/>
					<text transform="matrix(1 0 0 1 345.8291 423.3076)"><tspan x="0" y="0" style="fill:#000000;stroke:none;">05477</tspan></text>
				</g>
				<g>
					<path d="M498.964,2l15.863,58.874l1.348,4.85l75.703-2.476l1.717-0.116L583.464,9.523l-17.613-4.932L498.964,2z"/>
					<text transform="matrix(1 0 0 1 529.5903 36.4878)"><tspan x="0" y="0" style="fill:#000000;stroke:none;">05476</tspan></text>
				</g>
				<g>
					<path d="M158.959,123.157l-7.028,14.197l0.565,17.464l-6.059,9.396l0.674,6.409l5.493,0.918l-1.274,10.094l5.663-17.77l3.501,6.892l5.684,0.64l0.571-35.52l7.146,0.095l14.722-31.17l-0.727-6.519l11.555-6.756l-0.958-17.606l-6.39-6.918l-16.945,24.478
						l1.896,13.62l-5.092,0.979l-3.812,11.878l8.909,0.538l-3.539,10.898l-8.473-3.857l-6.516,11.008l0.888-13.348l-0.454-0.041z M197.191,134.899l-0.275-8.641l11.238-8.326l1.784,7.497l-6.281-1.198l-6.466,10.668z M184.553,145.824l4.975-8.354l2.027,2.851
						l-7.002,5.503z"/>
					<text transform="matrix(1 0 0 1 142.9131 149.8315)"><tspan x="0" y="0" style="fill:#000000;stroke:none;">05474</tspan></text>
				</g>
				<g>
					<path d="M230.013,574.727l2.505,13.62l-23.051-3.911l3.255,33.968l-18.794,1.475l-3.281-5.687l-1.84,18.838l19.324,12.892l18.896,2.156l3.706,7.564l-2.37,5.953l47.798-5.367l-9.407-61.304l-18.258-3.136l-2.854-18.959l-15.63,1.897z"/>
					<text transform="matrix(1 0 0 1 215.7949 619.8398)"><tspan x="0" y="0" style="fill:#000000;stroke:none;">05472</tspan></text>
				</g>
				<g>
					<path d="M593.437,97.645l-14.883-10.137l-13.672,3.034l-8.924,15.177l-5.67,41.9l10.551,7.463l8.691,6.149l25.805-35.219l-1.898-28.368z"/>
					<text transform="matrix(1 0 0 1 556.1216 126.9976)"><tspan x="0" y="0" style="fill:#000000;stroke:none;">05471</tspan></text>
				</g>
				<g>
					<path d="M516.175,65.723l6.328,57.1l-9.229,0.319l0.879,29.492l36.135-5.014l5.67-41.9l8.924-15.177l13.672-3.034l14.883,10.137l-1.559-34.397l-75.703,2.476z"/>
					<text transform="matrix(1 0 0 1 530.6626 86.0815)"><tspan x="0" y="0" style="fill:#000000;stroke:none;">05470</tspan></text>
				</g>
				<g>
					<path d="M254.971,506.227l-10.597,38.165l-16.271,20.607l1.91,9.728l15.63-1.897l44.481-5.253l-7.342-44.738l5.109-0.754l-3.182-21.042l-29.739,5.184z"/>
					<text transform="matrix(1 0 0 1 244.1631 559.3315)"><tspan x="0" y="0" style="fill:#000000;stroke:none;">05469</tspan></text>
				</g>
				<g>
					<path d="M213.041,206.651l-3.322,13.176l2.373,37.493l-11.742,7.783l8.59,3.041l-23.455-5.244l-0.299,0.625l10.579,5.701l-6.349,4.434l2.039,0.491l-0.785-0.116l2.982,2.735l3.129-1.346l4.506,1.075l7.811-7.157l-7.143,7.98l16.125,2.209l56.862,25.248
						l33.885-54.82l-95.786-43.308z"/>
					<text transform="matrix(1 0 0 1 230.3174 258.3413)"><tspan x="0" y="0" style="fill:#000000;stroke:none;">05468</tspan></text>
				</g>
				<g>
					<path d="M346.91,318.583l-34.711,55.813l7.611,11.123l-1.028,6.877l-7.052,1.708l5.754,3.497l58.649,3.756l17.423-28.43l-46.646-54.344z"/>
					<text transform="matrix(1 0 0 1 335.9531 362.5972)"><tspan x="0" y="0" style="fill:#000000;stroke:none;">05465</tspan></text>
				</g>
				<g>
					<path d="M428.025,263.076l6.486-9.668l-4.23-4.313l-8.869,8.287l6.613,5.694z"/>
					<text transform="matrix(1 0 0 1 411.272 258.7119)"><tspan x="0" y="0" style="fill:#000000;stroke:none;">05464</tspan></text>
				</g>
				<g>
					<path d="M134.411,129.3l7.031-5.804l-2.083-2.953l8.546-17.232h-5.086l8.815-19.381l-0.606-5.273l-12.015-4.537l-6.451,6.082l-10.125,35.682l5.376,5.205l-1.31,4.592l7.907,3.62z"/>
					<text transform="matrix(1 0 0 1 120.3486 104.3364)"><tspan x="0" y="0" style="fill:#000000;stroke:none;">05463</tspan></text>
				</g>
				<g>
					<path d="M311.865,444.59l7.116,42.322l26.622,5.845l4.23,43.049l24.586,6.3l14.93-37.112l-8.736-3.728l18.281-32.832l-87.029-23.845z"/>
					<text transform="matrix(1 0 0 1 341.6631 482.8315)"><tspan x="0" y="0" style="fill:#000000;stroke:none;">05462</tspan></text>
				</g>
				<g>
					<path d="M283.805,440.603l-28.641,4.034l-18.363,2.354l11.388,60.256l6.782-1.021l29.739-5.184l36.255-1.749l-1.983-12.381l-7.116-42.322l-1.189-8.068l-26.871,4.081z"/>
					<text transform="matrix(1 0 0 1 262.1924 474.5112)"><tspan x="0" y="0" style="fill:#000000;stroke:none;">05461</tspan></text>
				</g>
				<g>
					<path d="M253.245,7.387L235.113,31.96l2.848,12.784l60.984,28.749l88.137-16.45L341.643,36.98l-7.535-34.465l-55.125-0.36l-0.24,13.913l4.143,3.993l-23.449,11.165l-12.229-5.886l6.211-3.237l-7.122-1.775l6.949-12.94z"/>
					<text transform="matrix(1 0 0 1 294.4072 40.4517)"><tspan x="0" y="0" style="fill:#000000;stroke:none;">05459</tspan></text>
				</g>
				<g>
					<path d="M163.172,228.979l7.043-16.893l-0.847-10.313l13.216-3.913l4.371-8.102l-10.737-10.531l-2.745-10.097l-7.427,2.981l-1.146,12.967l-8.238-4.396l-12.387,5.796l-13.131,29.723l1.521,16.069l30.507-3.293z"/>
					<text transform="matrix(1 0 0 1 142.3623 203.3276)"><tspan x="0" y="0" style="fill:#000000;stroke:none;">05458</tspan></text>
				</g>
				<g>
					<path d="M334.107,2.515l7.535,34.465l45.439,20.063l44.248,10.096l-0.109-3.803l-5.941-61.874l-91.171,1.053z"/>
					<text transform="matrix(1 0 0 1 366.0293 36.9272)"><tspan x="0" y="0" style="fill:#000000;stroke:none;">05457</tspan></text>
				</g>
				<g>
					<path d="M176.965,515.982l-7.058,2.606l5.068,7.96l-8.821,2.918l-5.499-3.749l2.341,4.777l-3.208,2.856l-1.4-5.273l-7.359,3.13l1.207,8.613l-6.797-1.26l4.128,5.925l-9.568-0.497l-19.254,17.729l-0.785,10.049l11.35,1.639l-6.357,13.185l24.463-2.789
						l-0.58,6.885l1.843-7.021l26.282-3.198l1.277,8.518l16.805-2.061l-0.823-5.505l15.249,3.015l23.051,3.911l-2.505-13.62l-1.91-9.728l-9.519-53.493l-41.619,4.477z"/>
					<text transform="matrix(1 0 0 1 159.5508 553.7241)"><tspan x="0" y="0" style="fill:#000000;stroke:none;">05456</tspan></text>
				</g>
				<g>
					<path d="M329.458,92.786l-3.844,20.818l8.288,14.333l1.509,11.613l8.065,3.633l-61.049,23.955l45.404,8.476l57.396,10.572l-2.801-1.115l2.892-6.612l6.926,0.502l2.501-7.544l14.32-11.457l4.826,10.144l6.652-46.093l1.441-15.116l-92.528-16.11z"/>
					<text transform="matrix(1 0 0 1 355.1631 139.3315)"><tspan x="0" y="0" style="fill:#000000;stroke:none;">05455</tspan></text>
				</g>
				<g>
					<path d="M251.291,153.593l-13.737,20.341l-16.605,13.26l-7.907,19.458l95.786,43.308l64.579,12.321l0.932-11.143l-46.506-75.523l-45.404-8.476l-31.137-13.545z"/>
					<text transform="matrix(1 0 0 1 276.999 210.564)"><tspan x="0" y="0" style="fill:#000000;stroke:none;">05454</tspan></text>
				</g>
				<g>
					<path d="M275.93,304.97l-34.708,54.39l7.154,0.252l-1.714-2.769l6.012-4.354l17.35-6.287l15.469,7.28l-5.438,12.205l32.145,8.708l34.711-55.813l-70.98-13.613z"/>
					<text transform="matrix(1 0 0 1 277.374 342.3091)"><tspan x="0" y="0" style="fill:#000000;stroke:none;">05451</tspan></text>
				</g>
				<g>
					<path d="M431.22,63.335l0.109,3.803l3.359,0.776l-12.703,40.982l-1.441,15.116l92.73-0.87l9.229-0.319l-6.328-57.1l-1.348-4.85l-83.607,2.462z"/>
					<text transform="matrix(1 0 0 1 454.8364 95.0698)"><tspan x="0" y="0" style="fill:#000000;stroke:none;">05450</tspan></text>
				</g>
				<g>
					<path d="M425.279,1.462l5.941,61.874l83.607-2.462L498.964,2l-73.686-0.538z"/>
					<text transform="matrix(1 0 0 1 453.3657 35.0259)"><tspan x="0" y="0" style="fill:#000000;stroke:none;">05447</tspan></text>
				</g>
				<g>
					<path d="M218.08,279.532l-2.66,3.171l-20.326-5.47l6.035,2.313l0.861,19.743l4.184-1.762l4.957,5.817l11.892-6.661l3.407,1.619l-0.668,5.987l3.718-0.584l-7.022,4.02l-2.569,9.743l-9.741,4.436l-8.701-4.605l5.531-3.762l-8.854,2.544l2.965-6.028l-2.868-7.075
						l-4.503,0.762l-0.697,10.566l-13.271,3.911l-8.203-5.265l-11.643,1.945l-5.353-6.437l4.919,6.877l-5.578,1.939l17.18,8.429l-0.466,5.246l9.785-4.449l0.565,10.34l12.961-3.571l0.817,7.45l11.452,1.428l-4.875,2.856l1.813,3.743l4.705-2.518l8.241,11.429
						l5.587-9.177l14.177,3.396l-2.379,8.367l7.767-0.885l34.708-54.39l-0.987-0.19l-56.862-25.248z M151.945,303.384l1.005-12.007l-0.489,11.878l1.324,4.551l-1.84-4.422z"/>
					<text transform="matrix(1 0 0 1 197.2471 321.3662)"><tspan x="0" y="0" style="fill:#000000;stroke:none;">05446</tspan></text>
				</g>
				<g>
					<path d="M171.457,455.767l-2.643,1.559l2.197,7.885l-12.082,19.762l4.998,4.667l-5.795,4.586l8.877-2.41l4.26,7.409l-13.898,12.442l4.928,1.09l7.45-7.062l8.458,4.531l2.906-3.035l-4.148,8.791l41.619-4.477l29.604-4.258l-11.388-60.256l-65.344,8.776z"/>
					<text transform="matrix(1 0 0 1 186.0908 484.1133)"><tspan x="0" y="0" style="fill:#000000;stroke:none;">05445</tspan></text>
				</g>
				<g>
					<path d="M245.643,572.83l2.854,18.959l18.258,3.136l9.407,61.304l16.38-1.919l1.143,10.878l22.061-2.477l0.029,4.408l66.642,1.465l-4.761-24.615l-10.093-62.351l-10.494,1.557l-36.091,4.934l-5.203-25.641l-25.649,5.108l-44.481,5.253z"/>
					<text transform="matrix(1 0 0 1 297.3398 618.1523)"><tspan x="0" y="0" style="fill:#000000;stroke:none;">05443</tspan></text>
				</g>
				<g>
					<path d="M420.544,124.012l-6.652,46.093l-4.006,20.408l42.023,7.409l1.582-6.7l5.107,0.652l3.752-20.436l6.117,0.122l5.145-13.449l40.541-5.477l-0.879-29.492l-92.73,0.87z"/>
					<text transform="matrix(1 0 0 1 438.9092 153.9829)"><tspan x="0" y="0" style="fill:#000000;stroke:none;">05441</tspan></text>
				</g>
				<g>
					<path d="M161.988,119.203l15.873-43.683l-3.621-7.137l9.234-12.625l-3.311-12.274l24.938-12.735l-2.719-3.19l8.988-23.968L140.2,5.19l1.588,7.775l-7.069,0.87l9.41,2.695l-7.049,1.368l-0.747,7.23l16.767-0.795l4.523,9.362l-6.387,44.247l6.404,1.292
						l1.324,11.416l-4.717,9.313l10.57,6.892l-2.83,12.347z"/>
					<text transform="matrix(1 0 0 1 157.9131 35.8315)"><tspan x="0" y="0" style="fill:#000000;stroke:none;">05440</tspan></text>
				</g>
				<g>
					<path d="M216.686,370.77l1.008,0.271l1.248-1.488l-1.207-0.612l-0.428-2.899l-0.861-0.183l0.24,4.912z"/>
					<text transform="matrix(1 0 0 1 182.8184 371.8257)"><tspan x="0" y="0" style="fill:#000000;stroke:none;">05405</tspan></text>
				</g>
				<g>
					<path d="M241.222,359.36l-7.767,0.885h-8.619l3.574,5.716l-7.825,4.49l2.212,12.79l-10.547-1.361l-1.983,7.484l-4.025-3.401l-6.917,2.789l5.385,3.265l1.816,14.287l36.51,11.225l4.934-4.557l-0.454-11.227l6.293-9.795l-2.663-4.967l2.209-17.212l-4.989-3.538
						l4.31-13.742l-6.012,4.354l1.714,2.769l-7.154-0.252z"/>
					<text transform="matrix(1 0 0 1 209.6631 401.0815)"><tspan x="0" y="0" style="fill:#000000;stroke:none;">05403</tspan></text>
				</g>
				<g>
					<path d="M325.802,1420.846l-2.206,48.289l49.392,2.008L372.305,1489l69.996,2.34l0.074-1.367l2.176-63.738l-118.749-5.389z"/>
					<text transform="matrix(1 0 0 1 367.3857 1458.7192)"><tspan x="0" y="0" style="fill:#000000;stroke:none;">05363</tspan></text>
				</g>
				<g>
					<path d="M532.242,1407.956l-3.768-3.867l-13.777,5.092l17.545-1.225z"/>
					<text transform="matrix(1 0 0 1 506.7798 1409.2603)"><tspan x="0" y="0" style="fill:#000000;stroke:none;">05362</tspan></text>
				</g>
				<g>
					<path d="M372.305,1489l-2.402,61.648l68.677,1.844l3.721-61.152l-69.996-2.34z M433.955,1517.342l-8.566-3.389l5.111-9.23l6.545,2.787l1.025,7.35l-4.115,2.482z"/>
					<text transform="matrix(1 0 0 1 387.4126 1543.3306)"><tspan x="0" y="0" style="fill:#000000;stroke:none;">05361</tspan></text>
				</g>
				<g>
					<path d="M331.998,1293.69l-3.205,63.764l-0.009,0.268l48.958,2.135l-0.973,19.805l21.843,0.434l4.049-43.238l2.119-40.563l-72.783-2.604z"/>
					<text transform="matrix(1 0 0 1 350.0947 1339.5181)"><tspan x="0" y="0" style="fill:#000000;stroke:none;">05360</tspan></text>
				</g>
				<g>
					<path d="M483.595,1214.698l-2.764,16.51l-17.449,16.146l-4.723,19.789l-0.439,9.666l37.641,10.92l8.893,2.51l0.963-6.516l4.621-0.6l3.055-61.738l-29.797-6.688z"/>
					<text transform="matrix(1 0 0 1 472.9126 1277.0806)"><tspan x="0" y="0" style="fill:#000000;stroke:none;">05359</tspan></text>
				</g>
				<g>
					<path d="M442.375,1489.973l-0.074,1.367l-3.721,61.152l69.592,2.123l3-63.785l-68.797-0.857z"/>
					<text transform="matrix(1 0 0 1 458.186 1524.9204)"><tspan x="0" y="0" style="fill:#000000;stroke:none;">05358</tspan></text>
				</g>
				<g>
					<path d="M328.784,1357.721l-2.982,63.125l118.749,5.389l0.58,0.012l-4.799-10.707l2.467-10.334l6.146-3.932l1.324-13.775l7.945,9.066l-3.295-14.953l-56.307-1.518l-21.843-0.434l0.973-19.805l-48.958-2.135z"/>
					<text transform="matrix(1 0 0 1 375.3193 1394.6099)"><tspan x="0" y="0" style="fill:#000000;stroke:none;">05356</tspan></text>
				</g>
				<g>
					<path d="M402.662,1336.856l-4.049,43.238l56.307,1.518l14.457,0.354l6.674-23.912l5.033-18.777l-78.422-2.42z"/>
					<text transform="matrix(1 0 0 1 423.1587 1362.0356)"><tspan x="0" y="0" style="fill:#000000;stroke:none;">05355</tspan></text>
				</g>
				<g>
					<path d="M576.486,1556.977l60.861,2.137l-18.488-31.029l-13.85,4.863l3.428-10.795l-18.48-17.994l-2.285-11.098l-8.596-0.299l-2.59,64.215z"/>
					<text transform="matrix(1 0 0 1 590.2271 1528.5649)"><tspan x="0" y="0" style="fill:#000000;stroke:none;">05354</tspan></text>
				</g>
				<g>
					<path d="M510.337,1283.124l-4.621,0.6l-0.963,6.516l-8.893-2.51l-14.777,51.547l-5.033,18.777l69.051,3.027l8.949-36.873l5.139-21.635l-24.955-1.441l0.609-13.904l0.053-7.818l-24.559,3.715z"/>
					<text transform="matrix(1 0 0 1 500.9302 1322.8716)"><tspan x="0" y="0" style="fill:#000000;stroke:none;">05353</tspan></text>
				</g>
				<g>
					<path d="M252.533,1485.198l-2.944,62.527l67.793,1.674l5.147-61.842l-69.996-2.359z"/>
					<text transform="matrix(1 0 0 1 269.3701 1519.9243)"><tspan x="0" y="0" style="fill:#000000;stroke:none;">05352</tspan></text>
				</g>
				<g>
					<path d="M532.242,1407.956l-17.545,1.225l0.521,16.938l15.078,0.328l3.449-17.588l-1.504-0.902z"/>
					<text transform="matrix(1 0 0 1 506.0298 1425.0767)"><tspan x="0" y="0" style="fill:#000000;stroke:none;">05351</tspan></text>
				</g>
				<g>
					<path d="M322.529,1487.557l-5.147,61.842l52.521,1.25l2.402-61.648l0.683-17.857l-49.392-2.008l-1.066,18.422z"/>
					<text transform="matrix(1 0 0 1 328.4971 1512.52)"><tspan x="0" y="0" style="fill:#000000;stroke:none;">05350</tspan></text>
				</g>
				<g>
					<path d="M458.021,1424.956l-12.891,1.291l-0.58-0.012l-2.176,63.738l68.797,0.857l2.244-49.283l0.686-15.449l-56.08-1.143z"/>
					<text transform="matrix(1 0 0 1 461.5493 1460.5181)"><tspan x="0" y="0" style="fill:#000000;stroke:none;">05344</tspan></text>
				</g>
				<g>
					<path d="M406.939,1260.198l-2.158,36.096l-2.119,40.563l78.422,2.42l14.777-51.547l-37.641-10.92l-51.281-16.611z"/>
					<text transform="matrix(1 0 0 1 432.5708 1302.3638)"><tspan x="0" y="0" style="fill:#000000;stroke:none;">05343</tspan></text>
				</g>
				<g>
					<path d="M433.955,1517.342l4.115-2.482l-1.025-7.35l-6.545-2.787l-5.111,9.23l8.566,3.389z"/>
					<text transform="matrix(1 0 0 1 415.0396 1513.6567)"><tspan x="0" y="0" style="fill:#000000;stroke:none;">05342</tspan></text>
				</g>
				<g>
					<path d="M454.919,1381.612l3.295,14.953l-7.945-9.066l-1.324,13.775l-6.146,3.932l-2.467,10.334l4.799,10.707l12.891-1.291l11.355-42.99l-14.457-0.354z"/>
					<text transform="matrix(1 0 0 1 438.1665 1406.5552)"><tspan x="0" y="0" style="fill:#000000;stroke:none;">05341</tspan></text>
				</g>
				<g>
					<path d="M329.355,1229.854l-1.104,63.699l3.747,0.137l72.783,2.604l2.158-36.096l1.668-26.443l-3.092-0.152l-62.926-2.91l-13.233-0.838z"/>
					<text transform="matrix(1 0 0 1 351.7412 1265.7017)"><tspan x="0" y="0" style="fill:#000000;stroke:none;">05340</tspan></text>
				</g>
				<g>
					<path d="M513.416,1441.547l-2.244,49.283l-3,63.785l68.314,2.361l2.59-64.215l8.596,0.299l-6.299-19.783l1.008-15.008l1.635-6.926l11.227-7.359l-81.826-2.438z"/>
					<text transform="matrix(1 0 0 1 535.0161 1501.8872)"><tspan x="0" y="0" style="fill:#000000;stroke:none;">05301</tspan></text>
				</g>
				<g>
					<path d="M310.069,1358.004l-132.794-5.619l-2.663,65.508l6.542,0.279l15.835,0.422l128.813,2.252l2.982-63.125l-18.715,0.283z"/>
					<text transform="matrix(1 0 0 1 235.0107 1389.2407)"><tspan x="0" y="0" style="fill:#000000;stroke:none;">05262</tspan></text>
				</g>
				<g>
					<path d="M217.705,1484.006l-9.48,18.117l-6.501-1.939l-8.101,8.518l-2.789-2.381l-1.939,10.572l-20.133-12.443l-3.334,3.594l8.232,38.029l75.929,1.652l2.944-62.527l-34.828-1.191z"/>
					<text transform="matrix(1 0 0 1 193.1631 1540.3306)"><tspan x="0" y="0" style="fill:#000000;stroke:none;">05261</tspan></text>
				</g>
				<g>
					<path d="M172.594,1483.795l-4.014,2.354l0.182,18.301l20.133,12.443l1.939-10.572l2.789,2.381l8.101-8.518l6.501,1.939l9.48-18.117l-45.111-0.211z"/>
					<text transform="matrix(1 0 0 1 176.4521 1502.9692)"><tspan x="0" y="0" style="fill:#000000;stroke:none;">05260</tspan></text>
				</g>
				<g>
					<path d="M181.154,1418.172l6.645,15.096l17.613-5.986l-8.423-8.688l-15.835-0.422z"/>
					<text transform="matrix(1 0 0 1 176.5957 1428.3462)"><tspan x="0" y="0" style="fill:#000000;stroke:none;">05257</tspan></text>
				</g>
				<g>
					<path d="M310.313,1262.497l7.811-4.137l-5.162-7.348l5.687-6.693l-18.601-9.859l-1.934,18.92l-3.492,2.934l15.691,6.184z"/>
					<text transform="matrix(1 0 0 1 289.9424 1251.106)"><tspan x="0" y="0" style="fill:#000000;stroke:none;">05255</tspan></text>
				</g>
				<g>
					<path d="M255.475,1339.522l0.891-5.572l6.495,0.238l-12.103-11.891l-5.121,14.461l9.838,2.764z"/>
					<text transform="matrix(1 0 0 1 237.5596 1333.5356)"><tspan x="0" y="0" style="fill:#000000;stroke:none;">05252</tspan></text>
				</g>
				<g>
					<path d="M260.804,1163.28l-3.012,64.541l49.321,1.252l12.164-18.479l-0.973-11.564l7.752,1.973l7.652-35.328l-72.905-2.395z"/>
					<text transform="matrix(1 0 0 1 267.4131 1180.3306)"><tspan x="0" y="0" style="fill:#000000;stroke:none;">05251</tspan></text>
				</g>
				<g>
					<path d="M413.46,1120.829l-0.141,15.986l-7.025,0.416l-1.037,31.449l3.762,0.137l23.449,0.906l0.305,29.742l36.029,10.674l-0.533-20.383l-4.148-6.66l2.42-50.742l-6.217-3.008l-11.906-5.641l-19.355-9.143l0.055,5.408l-15.656,0.857z"/>
					<text transform="matrix(1 0 0 1 420.3423 1164.9771)"><tspan x="0" y="0" style="fill:#000000;stroke:none;">05161</tspan></text>
				</g>
				<g>
					<path d="M578.085,1286.055l-6.861,38.859l-6.246,32.451l71.631,1.688l-4.178-22.057l18.068-20.545l-4.389-11.768l5.82-8.621l-2.838-7.871h-7.008l-2.74,8.225l-4.805-8.598l-56.455-1.764z"/>
					<text transform="matrix(1 0 0 1 591.7642 1325.1802)"><tspan x="0" y="0" style="fill:#000000;stroke:none;">05158</tspan></text>
				</g>
				<g>
					<path d="M612.566,1140.012l-4.881,9.988l-8.324-2.682l-11.871,9.961l-1.963,55.58l65.895,1.619l-2.838-13.252l12.682-11.551l11.789-29.063l-8.314-12.104l1.957-5.076l-54.131-3.422z"/>
					<text transform="matrix(1 0 0 1 612.604 1179.8716)"><tspan x="0" y="0" style="fill:#000000;stroke:none;">05156</tspan></text>
				</g>
				<g>
					<path d="M604.375,1282.872l4.754-0.121l3.771-7.824l-9.768,2.422l1.242,5.523z"/>
					<text transform="matrix(1 0 0 1 591.3247 1281.5259)"><tspan x="0" y="0" style="fill:#000000;stroke:none;">05154</tspan></text>
				</g>
				<g>
					<path d="M522.208,1064.512l0.16,70.133l28.119-26.471l41.361,5.926l4.869-42.941l-73.959-8.777l-0.551,2.131z"/>
					<text transform="matrix(1 0 0 1 542.7739 1101.1411)"><tspan x="0" y="0" style="fill:#000000;stroke:none;">05153</tspan></text>
				</g>
				<g>
					<path d="M405.257,1168.68l-61.236-2.518l-0.135,8.711l-1.298,55.818l62.926,2.91l3.504-64.785l-3.762-0.137z"/>
					<text transform="matrix(1 0 0 1 359.1152 1202.5103)"><tspan x="0" y="0" style="fill:#000000;stroke:none;">05152</tspan></text>
				</g>
				<g>
					<path d="M596.718,1071.159l-4.869,42.941l-3.785,24.301l24.502,1.611l54.131,3.422l9.422-12.529l-14.156-6.545l10.617-42.848l-33.289-4.51l-42.572-5.844z"/>
					<text transform="matrix(1 0 0 1 615.4009 1109.9243)"><tspan x="0" y="0" style="fill:#000000;stroke:none;">05151</tspan></text>
				</g>
				<g>
					<path d="M485.033,1054.401l1.811,4.783l-7.547,27.152l-18.973,43.01l6.217,3.008l44.658,21.789l0.867-20.027l10.303,0.529l-0.16-70.133l-37.176-10.111z"/>
					<text transform="matrix(1 0 0 1 474.6567 1106.8989)"><tspan x="0" y="0" style="fill:#000000;stroke:none;">05149</tspan></text>
				</g>
				<g>
					<path d="M409.019,1168.817l-3.504,64.785l3.092,0.152l6.008-0.156l1.125-20.004l18.193,28.246l9.346,5.361l1.934-5.08l13.447,25.021l4.723-19.789l17.449-16.146l2.764-16.51l-14.793-4.559l-36.029-10.674l-0.305-29.742l-23.449-0.906z"/>
					<text transform="matrix(1 0 0 1 427.8657 1220.606)"><tspan x="0" y="0" style="fill:#000000;stroke:none;">05148</tspan></text>
				</g>
				<g>
					<path d="M513.392,1221.385l-3.055,61.738l24.559-3.715l-0.053,7.818l7.025-8.514l29.221-5.863l-1.611-7.828l8.701,1.834l0.973-7.898l2.004,3.023l1.006-48.834l-68.77,8.238z"/>
					<text transform="matrix(1 0 0 1 529.561 1252.811)"><tspan x="0" y="0" style="fill:#000000;stroke:none;">05146</tspan></text>
				</g>
				<g>
					<path d="M522.369,1134.645l-10.303-0.529l-0.867,20.027l-44.658-21.789l-2.42,50.742l4.148,6.66l0.533,20.383l14.793,4.559l29.797,6.688l68.77-8.238l3.365-0.287l1.963-55.58l0.574-18.879l-34.881-1.951l-30.814-1.805z"/>
					<text transform="matrix(1 0 0 1 509.4028 1179.4966)"><tspan x="0" y="0" style="fill:#000000;stroke:none;">05143</tspan></text>
				</g>
				<g>
					<path d="M553.183,1136.45l34.881,1.951l3.785-24.301l-23.361,8.721l-15.305,13.629z"/>
					<text transform="matrix(1 0 0 1 567.2632 1134.8774)"><tspan x="0" y="0" style="fill:#000000;stroke:none;">05144</tspan></text>
				</g>
				<g>
					<path d="M522.369,1134.645l30.814,1.805l15.305-13.629l23.361-8.721l-41.361-5.926l-28.119,26.471z"/>
					<text transform="matrix(1 0 0 1 540.4185 1124.938)"><tspan x="0" y="0" style="fill:#000000;stroke:none;">05142</tspan></text>
				</g>
				<g>
					<path d="M581.156,1261.981l-2.004-3.023l-0.973,7.898l-8.701-1.834l1.611,7.828l-29.221,5.863l-7.025,8.514l-0.609,13.904l24.955,1.441l-5.139,21.635l17.174,0.707l6.861-38.859l3.07-24.074z"/>
					<text transform="matrix(1 0 0 1 541.0044 1294.563)"><tspan x="0" y="0" style="fill:#000000;stroke:none;">05141</tspan></text>
				</g>
				<g>
					<path d="M641.882,1015.87l-2.592,61.133l33.289,4.51l2.195-26.186l6.91-15.375l-10.102-13.871l1.078-6.279l-30.779-3.932z"/>
					<text transform="matrix(1 0 0 1 643.7993 1051.3169)"><tspan x="0" y="0" style="fill:#000000;stroke:none;">05089</tspan></text>
				</g>
				<g>
					<path d="M709.423,630.003l37.447,9.054l-4.746-3.577l10.143-29.757l-23.117-16.288l-8.67,0.388l-0.287,6.327l-1.084-5.782l-9.686,39.634z"/>
					<text transform="matrix(1 0 0 1 714.1548 616.8735)"><tspan x="0" y="0" style="fill:#000000;stroke:none;">05086</tspan></text>
				</g>
				<g>
					<path d="M761.08,706.592l-25.066,52.873l6.598,1.939l21.994,7.021l5.791,1.748l6.932-7.545l24.404-52.859l-36.545-11.451l-4.107,8.273z"/>
					<text transform="matrix(1 0 0 1 752.1821 736.8735)"><tspan x="0" y="0" style="fill:#000000;stroke:none;">05083</tspan></text>
				</g>
				<g>
					<path d="M680.648,687.305l-7.172,53.813l62.537,18.348l25.066-52.873l-80.432-19.287z"/>
					<text transform="matrix(1 0 0 1 700.5884 726.0122)"><tspan x="0" y="0" style="fill:#000000;stroke:none;">05079</tspan></text>
				</g>
				<g>
					<path d="M724.392,568.359l-5.283,22.009l1.084,5.782l0.287-6.327l8.67-0.388l23.117,16.288l-10.143,29.757l4.746,3.577l4.166,1.034l20.232,5.232l9.996-4.15l19.504-78.869l-76.377,6.054z"/>
					<text transform="matrix(1 0 0 1 748.4966 589.9409)"><tspan x="0" y="0" style="fill:#000000;stroke:none;">05076</tspan></text>
				</g>
				<g>
					<path d="M733.248,776.684l-19.898,30.779l-7.371,14.959l65.689,23.068l4.207-9.863l-1.15-15.191l-31.75-31.254l-9.727-12.498z"/>
					<text transform="matrix(1 0 0 1 724.2368 813.7153)"><tspan x="0" y="0" style="fill:#000000;stroke:none;">05075</tspan></text>
				</g>
				<g>
					<path d="M764.605,768.426l-15.15,1.973l-6.48,18.783l31.75,31.254l18.951-42.248l-23.279-8.014l-5.791-1.748z"/>
					<text transform="matrix(1 0 0 1 751.6372 797.0571)"><tspan x="0" y="0" style="fill:#000000;stroke:none;">05074</tspan></text>
				</g>
				<g>
					<path d="M632.097,944.682l7.43,0.611l-6.67-1.354l-0.76,0.742z"/>
					<text transform="matrix(1 0 0 1 619.1216 947.2427)"><tspan x="0" y="0" style="fill:#000000;stroke:none;">05073</tspan></text>
				</g>
				<g>
					<path d="M673.476,741.118l-37.043,61.861l14.361,4.484l6.07-1.014l10.107-16.254l9.152-0.416l16.371,15.838l12.52-2.088l8.334,3.934l19.898-30.779l9.363-15.279l-6.598-1.939l-62.537-18.348z"/>
					<text transform="matrix(1 0 0 1 672.8345 776.9165)"><tspan x="0" y="0" style="fill:#000000;stroke:none;">05072</tspan></text>
				</g>
				<g>
					<path d="M576.111,1004.432l19.09,5.506l2.549,0.502l0.293-0.578l10.775-21.285l-3.516-6.715l-9.311,6.367l1.652-10.246l-18.592-8.619l-1.037,10.885l5.596,6.688l-6.252,6.205l8.443,3.686l-9.691,7.605z"/>
					<text transform="matrix(1 0 0 1 574.1626 1004.8306)"><tspan x="0" y="0" style="fill:#000000;stroke:none;">05071</tspan></text>
				</g>
				<g>
					<path d="M650.794,807.463l55.184,14.959l7.371-14.959l-8.334-3.934l-12.52,2.088l-16.371-15.838l-9.152,0.416l-10.107,16.254l-6.07,1.014z"/>
					<text transform="matrix(1 0 0 1 665.3813 808.729)"><tspan x="0" y="0" style="fill:#000000;stroke:none;">05070</tspan></text>
				</g>
				<g>
					<path d="M790.814,504.608l12.283,58.452l54.023,18.138l3.023,1.014l-37.43-71.556l-29.785-5.646l-2.115-0.401z"/>
					<text transform="matrix(1 0 0 1 796.7896 528.7866)"><tspan x="0" y="0" style="fill:#000000;stroke:none;">05069</tspan></text>
				</g>
				<g>
					<path d="M571.628,779.127l-40.096,56.35l63.146,22.07l2.84,1.014l38.914-55.582l-64.805-23.852z"/>
					<text transform="matrix(1 0 0 1 567.2954 821.4712)"><tspan x="0" y="0" style="fill:#000000;stroke:none;">05068</tspan></text>
				</g>
				<g>
					<path d="M584.531,879.678l-19.945,41.451l5.178,3.537l56.65,13.449l16.471-31.676l-8.326-14.17l-6.902,0.205l-17.199-0.021l-8.436,6.184l-3.738-6.236l-11.959-3.553l3.932-6.436l-5.725-2.734z"/>
					<text transform="matrix(1 0 0 1 587.0474 911.5239)"><tspan x="0" y="0" style="fill:#000000;stroke:none;">05067</tspan></text>
				</g>
				<g>
					<path d="M636.433,802.979l-38.914,55.582l38.955,13.273l18.803,10.625l2.004-3.537l48.697-56.5l-55.184-14.959l-14.361-4.484z"/>
					<text transform="matrix(1 0 0 1 635.0591 845.3462)"><tspan x="0" y="0" style="fill:#000000;stroke:none;">05065</tspan></text>
				</g>
				<g>
					<path d="M530.236,991.522l-7.477,70.859l73.959,8.777l-1.518-61.221l-19.09-5.506l-40.42-11.469l-5.455-1.441z"/>
					<text transform="matrix(1 0 0 1 543.0493 1033.9653)"><tspan x="0" y="0" style="fill:#000000;stroke:none;">05062</tspan></text>
				</g>
				<g>
					<path d="M742.611,761.405l-9.363,15.279l9.727,12.498l6.48-18.783l15.15-1.973l-21.994-7.021z"/>
					<text transform="matrix(1 0 0 1 728.6626 774.5806)"><tspan x="0" y="0" style="fill:#000000;stroke:none;">05058</tspan></text>
				</g>
				<g>
					<path d="M459.158,970.827l-1.225,8.285l-9.119,57.412l11.779,2.156l-0.709,9.504l25.148,6.217l37.176,10.111l0.551-2.131l7.477-70.859l-8.939-2.539l-53.736-15.4l-8.402-2.756z"/>
					<text transform="matrix(1 0 0 1 472.8364 1020.2935)"><tspan x="0" y="0" style="fill:#000000;stroke:none;">05056</tspan></text>
				</g>
				<g>
					<path d="M705.978,822.422l-48.697,56.5l67.002,23.164l1.605-7.4l17.666-20.854l20.73-7.816l9.357-13.674l7.418-3.543l-9.393-3.309l-65.689-23.068z"/>
					<text transform="matrix(1 0 0 1 702.481 864.8794)"><tspan x="0" y="0" style="fill:#000000;stroke:none;">05055</tspan></text>
				</g>
				<g>
					<path d="M594.679,857.547l-10.148,22.131l5.725,2.734l-3.932,6.436l11.959,3.553l3.738,6.236l8.436-6.184l17.199,0.021l-1.611-11.254l12.609-0.822l-2.18-8.564l-38.955-13.273l-2.84-1.014z"/>
					<text transform="matrix(1 0 0 1 592.1626 875.8306)"><tspan x="0" y="0" style="fill:#000000;stroke:none;">05053</tspan></text>
				</g>
				<g>
					<path d="M696.691,957.778l-0.504,5.449l-8.408,5.836l0.467,8.689l22.977-16.906l-14.531-3.068z"/>
					<text transform="matrix(1 0 0 1 682.813 970.3911)"><tspan x="0" y="0" style="fill:#000000;stroke:none;">05052</tspan></text>
				</g>
				<g>
					<path d="M800.769,562.305l-19.504,78.869l12.586,1.102l4.277,3.913l-2.672,7.225l56.518,19.145l2.818-1.83l-1.633-7.621l8.854-4.074l-3.055-5.553l5.443-0.095l5.322-7.803l-2.262-4.863l11.77-1.925l-7.586-5.165l6.707-2.47l1.084-6.543l-4.639-1.98l-4.91,4.402
						l-4.074-9.782l1.35-5.701l11.02-8.083l-4.75-7.734l-24.398-4.674l8.086-9.864l-54.023-18.138l-2.328-0.754z"/>
					<text transform="matrix(1 0 0 1 813.6626 620.0581)"><tspan x="0" y="0" style="fill:#000000;stroke:none;">05051</tspan></text>
				</g>
				<g>
					<path d="M717.261,489.94l0.711,17.58l-11.262,17.905l-18.246,28.717l35.928,14.218l76.377-6.054l2.328,0.754l-12.283-58.452l-73.553-14.667z"/>
					<text transform="matrix(1 0 0 1 729.0903 531.7764)"><tspan x="0" y="0" style="fill:#000000;stroke:none;">05046</tspan></text>
				</g>
				<g>
					<path d="M801.732,709.77l-24.404,52.859l-6.932,7.545l23.279,8.014l7.875,2.539l-1.57-9.77l6.379-1.369l5.199-9.822l17.166-11.758l1.279-17.877l8.086-3.518l3.08-4.586l-2.488-0.803l-36.949-11.455z"/>
					<text transform="matrix(1 0 0 1 789.0942 747.8735)"><tspan x="0" y="0" style="fill:#000000;stroke:none;">05045</tspan></text>
				</g>
				<g>
					<path d="M793.675,778.188l-18.951,42.248l1.15,15.191l-4.207,9.863l9.393,3.309l-0.164-9.205l12.451-16.111l-2.59-32.641l10.793-10.115l-7.875-2.539z"/>
					<text transform="matrix(1 0 0 1 766.9126 827.8306)"><tspan x="0" y="0" style="fill:#000000;stroke:none;">05043</tspan></text>
				</g>
				<g>
					<path d="M699.953,627.574l-19.305,59.731l80.432,19.287l4.107-8.273l16.863-33.872l-31.014-24.356l-4.166-1.034l-37.447-9.054l-9.471-2.429z"/>
					<text transform="matrix(1 0 0 1 714.6587 669.71)"><tspan x="0" y="0" style="fill:#000000;stroke:none;">05039</tspan></text>
				</g>
				<g>
					<path d="M592.207,650.433l15.914,65.425l65.355,25.26l7.172-53.813l-67.992-28.511l-20.449-8.361z"/>
					<text transform="matrix(1 0 0 1 619.7368 698.4028)"><tspan x="0" y="0" style="fill:#000000;stroke:none;">05038</tspan></text>
				</g>
				<g>
					<path d="M595.201,1009.938l1.518,61.221l42.572,5.844l2.592-61.133l-41-5.063l-3.133-0.367l-2.549-0.502z"/>
					<text transform="matrix(1 0 0 1 601.8521 1046.0962)"><tspan x="0" y="0" style="fill:#000000;stroke:none;">05037</tspan></text>
				</g>
				<g>
					<path d="M537.011,632.038l-27.299,52.139l33.334,10.572l32.143,10.516l32.932,10.594l-15.914-65.425l-50.373-16.804l-4.822-1.591z"/>
					<text transform="matrix(1 0 0 1 542.229 676.5752)"><tspan x="0" y="0" style="fill:#000000;stroke:none;">05036</tspan></text>
				</g>
				<g>
					<path d="M503.613,901.108l-3.703,7.633l-32.35,64.842l53.736,15.4l4.002-15.934l14.121,0.117l-0.445-15.816l-11.367-31.33l-2.949,7.824l-21.186-9.721l-0.674-11.684l11.865-7.59l-11.051-3.742z"/>
					<text transform="matrix(1 0 0 1 486.4126 973.3306)"><tspan x="0" y="0" style="fill:#000000;stroke:none;">05035</tspan></text>
				</g>
				<g>
					<path d="M514.664,904.85l-11.865,7.59l0.674,11.684l21.186,9.721l2.949-7.824l11.367,31.33l0.445,15.816l-14.121-0.117l-4.002,15.934l8.939,2.539l5.455,1.441l34.072-68.297l-5.178-3.537l-49.922-16.279z"/>
					<text transform="matrix(1 0 0 1 523.1626 929.8306)"><tspan x="0" y="0" style="fill:#000000;stroke:none;">05034</tspan></text>
				</g>
				<g>
					<path d="M782.05,664.447l-16.863,33.872l36.545,11.451l36.949,11.455l7.154-5.449l-13.377-0.803l-1.488-18.252l7.494-5.688l0.732-8.199l7.035,3.388l-2.857-8.117l6.877,0.076l1.723-5.625l-56.518-19.145l-6.768-2.342l-6.639,13.376z"/>
					<text transform="matrix(1 0 0 1 791.8911 688.7759)"><tspan x="0" y="0" style="fill:#000000;stroke:none;">05033</tspan></text>
				</g>
				<g>
					<path d="M496.025,753.928l-42.1,71.318l16.805,19.318l6.906,8.396l14.814,6.777l-4.201,10.66l14.52-1.408l0.244,4.469l19.037-41.049l9.482,3.066l40.096-56.35l-1.344-0.477l-74.26-24.723z"/>
					<text transform="matrix(1 0 0 1 496.0864 816.3208)"><tspan x="0" y="0" style="fill:#000000;stroke:none;">05032</tspan></text>
				</g>
				<g>
					<path d="M531.533,835.477l-9.482-3.066l-19.037,41.049l-11.617,23.498l12.217,4.15l11.051,3.742l49.922,16.279l19.945-41.451l10.148-22.131l-63.146-22.07z"/>
					<text transform="matrix(1 0 0 1 526.3481 879.397)"><tspan x="0" y="0" style="fill:#000000;stroke:none;">05031</tspan></text>
				</g>
				<g>
					<path d="M722.056,922.809l-1.32-4.061l-4.398,1.25l-10.008,12.58l-0.855,5.332l4.992,3.465l8.619-5.068l2.971-13.498z"/>
					<text transform="matrix(1 0 0 1 697.0747 932.688)"><tspan x="0" y="0" style="fill:#000000;stroke:none;">05001</tspan></text>
				</g>
				<g>
					<path d="M224.836,360.245h8.619l2.379-8.367l-14.177-3.396l-5.587,9.177l8.766,2.585z"/>
					<text transform="matrix(1 0 0 1 209.2646 356.9897)"><tspan x="0" y="0" style="fill:#000000;stroke:none;">05404</tspan></text>
				</g>
				<g>
					<path d="M252.674,352.49l-4.31,13.742l4.989,3.538l13.89-5.782l6.009,7.484l6.803-5.783l5.438-12.205l-15.469-7.28l-17.35,6.287z"/>
					<text transform="matrix(1 0 0 1 262.4238 359.9634)"><tspan x="0" y="0" style="fill:#000000;stroke:none;">05452</tspan></text>
				</g>
				<g>
					<path d="M385.228,186.186l24.659,4.327l4.006-20.408l-4.826-10.144l-14.32,11.457l-2.501,7.544l-6.926-0.502l-2.892,6.612l2.801,1.115z"/>
					<text transform="matrix(1 0 0 1 381.4712 177.8643)"><tspan x="0" y="0" style="fill:#000000;stroke:none;">05448</tspan></text>
				</g>
				<g>
					<path d="M762.462,61.519l27.32,17.695l2.873-1.564l-7.576-10.286l2.168-8.919l9.041-0.81l5.156-10.081l-12.656-1.633l-0.582-8.483l-6.174-2.994L762.349,37.6l2.885,7.504l-4.547,0.502l-2.936,9.483l4.711,6.429z"/>
					<text transform="matrix(1 0 0 1 762.9048 59.4551)"><tspan x="0" y="0" style="fill:#000000;stroke:none;">05855</tspan></text>
				</g>
				<g>
					<path d="M673.658,261.845l12.326-1.661l1.59-7.523l5.098-1.775l-3.037-5.994l5.352-7.075l-10.535,1.891l-4.043-5.925l-0.564,6.237l-11.74-9.353l0.299,14.559l-8.93,0.415l-5.865-7.402l5.391,13.934l8.385-3.28l6.275,12.954z"/>
					<text transform="matrix(1 0 0 1 661.9126 251.8315)"><tspan x="0" y="0" style="fill:#000000;stroke:none;">05827</tspan></text>
				</g>
				<g>
					<path d="M751.037,640.091l31.014,24.356l6.639-13.376l6.768,2.342l2.672-7.225l-4.277-3.913l-12.586-1.102l-9.996,4.15l-20.232-5.232z"/>
					<text transform="matrix(1 0 0 1 757.8931 654.8965)"><tspan x="0" y="0" style="fill:#000000;stroke:none;">05040</tspan></text>
				</g>
				<g>
					<path d="M857.121,581.197l-8.086,9.864l24.398,4.674l1.658-9.246l-2.771-0.633l-12.176-3.646l-3.023-1.014z"/>
					<text transform="matrix(1 0 0 1 845.3755 591.0923)"><tspan x="0" y="0" style="fill:#000000;stroke:none;">05081</tspan></text>
				</g>
				<g>
					<path d="M255.911,861.622l13.005,51.672l2.165,9.039l27.961-1.367l-3.504-14.852l9.7-3.857l-0.205-6.504l-12.48-9.258l-2.197-19.131l-10.137-7.008l-24.308,1.266z"/>
					<text transform="matrix(1 0 0 1 257.6631 881.0806)"><tspan x="0" y="0" style="fill:#000000;stroke:none;">05744</tspan></text>
				</g>
				<g>
					<path d="M305.238,902.256l-9.7,3.857l3.504,14.852l3.202,23.723l3.437,2.014l-2.159,8.375l5.689,2.701l9.615-2.537l-6.823-6.457l13.761-17.654l-0.234-5.904l-6.021,0.061l3.19-5.271l-11.971,0.313l3.75-5.748l-6.105-1.266l-3.135-11.057z"/>
					<text transform="matrix(1 0 0 1 293.9619 932.6431)"><tspan x="0" y="0" style="fill:#000000;stroke:none;">05765</tspan></text>
				</g>
				<g>
					<path d="M335.212,974.323l25.655-5.211l-0.841-18.838l-17.613-6.504l-16.058,0.809l0.855,14.58l-3.331,0.953l4.907,3.557l-4.178,2.205l10.603,8.449z"/>
					<text transform="matrix(1 0 0 1 325.6846 961.6724)"><tspan x="0" y="0" style="fill:#000000;stroke:none;">05736</tspan></text>
				</g>
				<g>
					<path d="M333.709,1165.674l-7.652,35.328l-7.752-1.973l0.973,11.564l-12.164,18.479l22.242,0.781l13.233,0.838l1.298-55.818h-8.584l2.93-8.969l-4.523-0.23z"/>
					<text transform="matrix(1 0 0 1 310.9131 1218.5806)"><tspan x="0" y="0" style="fill:#000000;stroke:none;">05253</tspan></text>
				</g>
				<g>
					<path d="M183.445,1225.758l42.973,1.273l3.237-8.301l-15.199-5.115l17.974-6.504l2.08-24.914l-32.742,16.262l-6.99-9.559l-0.565-11.084l-8.76,2.32l-2.007,45.621z"/>
					<text transform="matrix(1 0 0 1 190.4517 1208.7212)"><tspan x="0" y="0" style="fill:#000000;stroke:none;">05776</tspan></text>
				</g>
				<g>
					<path d="M588.064,1138.401l-0.574,18.879l11.871-9.961l8.324,2.682l4.881-9.988l-24.502-1.611z"/>
					<text transform="matrix(1 0 0 1 583.3384 1150.4653)"><tspan x="0" y="0" style="fill:#000000;stroke:none;">05150</tspan></text>
				</g>
				<g>
					<path d="M406.939,1260.198l51.281,16.611l0.439-9.666l-13.447-25.021l-1.934,5.08l-9.346-5.361l-18.193-28.246l-1.125,20.004l-6.008,0.156l-1.668,26.443z"/>
					<text transform="matrix(1 0 0 1 419.6626 1261.3306)"><tspan x="0" y="0" style="fill:#000000;stroke:none;">05155</tspan></text>
				</g>
				<g>
					<path d="M636.474,871.834l2.18,8.564l-12.609,0.822l1.611,11.254l6.902-0.205l8.326,14.17l12.393-23.98l-18.803-10.625z"/>
					<text transform="matrix(1 0 0 1 623.9731 891.7622)"><tspan x="0" y="0" style="fill:#000000;stroke:none;">05084</tspan></text>
				</g>
				<g>
					<path d="M248.188,507.248l-29.604,4.258l9.519,53.493l16.271-20.607l10.597-38.165l-6.782,1.021z"/>
					<text transform="matrix(1 0 0 1 219.4131 523.3315)"><tspan x="0" y="0" style="fill:#000000;stroke:none;">05473</tspan></text>
				</g>
				<g>
					<path d="M453.439,826.198l-20.232,39.355l7.107,2.641l-2.68,5.896l12.535-4.094l-0.494-8.953l9.178-13.607l11.877-2.871l-16.805-19.318l-0.486,0.951z"/>
					<text transform="matrix(1 0 0 1 438.2778 851.2935)"><tspan x="0" y="0" style="fill:#000000;stroke:none;">05772</tspan></text>
				</g>
			</g>
		</g>
	</g>
</svg>
