<?xml version="1.0" encoding="iso-8859-1"?>
<!DOCTYPE svg PUBLIC "-//W3C//DTD SVG 20000303 Stylable//EN"   "http://www.w3.org/TR/2000/03/WD-SVG-20000303/DTD/svg-20000303-stylable.dtd">
<!-- Generator: Adobe Illustrator 9.0, SVG Export Plug-In  -->
<svg  width="801.6pt" height="435.33pt" viewBox="0 0 801.6 435.33" xml:space="preserve">
	<g id="Layer_x0020_1" style="fill-rule:nonzero;clip-rule:nonzero;fill:#FFFFFF;stroke:#000000;stroke-miterlimit:4; font-family:'Arial'; font-size:12;">
		<g>
			<g>
				<path d="M251.43,147.77l-0.85-0.71l0.56-0.28l-0.28-1.41l-0.99-0.57h1.41l-0.71-1.13l0.28-0.28l-2.26-0.85l-0.85,1.41v-2.97l-1.84,0.14l0.85,0.28l-2.12,0.28l-3.67,2.82l0.14-0.99l-1.84-0.7l0.57-0.42l1.55,0.7l0.57-0.99l2.68-0.85l-1.55,0.14l4.38-1.84
					l-1.41-1.55l-0.71,0.71l-0.99-0.28l-0.85-1.41l-1.13,1.27l0.42-1.27l-0.42-0.42l-1.69,0.28l0.42-0.71l-0.14-1.27l-2.12-0.56l-0.14-1.27l-1.27,0.14l0.42-0.42l-0.56-0.71l0.42-0.42l-2.54-0.28l1.69-0.28l-0.42-0.42l1.41,0.56l-0.14-0.56l0.85-0.85l-1.13-1.69
					l-1.13,0.14l1.27-0.85l-0.85-1.27l-0.85,0.14l0.57-0.56l-0.42-0.56l-1.41,0.42l1.41-1.41l-2.26-0.42l1.55-0.71l-0.85-0.71l0.14-1.13l-2.4,0.42l1.98-1.13l-1.41-0.7l0.56-0.56l-0.85-0.14l-0.28-1.41h-0.56l0.28-0.71l-0.42-1.13h-0.71l-1.55,2.4l0.71,1.27
					l-0.99,0.71l0.14,0.56l-0.28,1.13h-0.85l0.71,0.99l-0.57,0.99v-1.13l-0.85-0.56l-0.57,1.55l-2.26,1.55l-0.28-1.41l-0.28,0.42l0.14-1.13l-0.85,2.12l-1.55,0.28l1.55-0.42l0.14-1.27l-0.56-1.83l-4.24,0.85l0.99-0.56l-0.28-0.71l0.85,0.56l0.99-0.56l-0.57-0.85
					l0.57-0.56l-0.99-0.14l0.56-1.27l-0.56-1.13l-3.53-0.71l4.1-0.14l-0.71-1.98l0.71-1.84l-0.56-0.71l-0.99,0.99l-0.42-0.99l-2.97-0.28l-0.56-1.55l0.71-0.56l-1.55,0.28l0.28-0.57l-0.28-1.27l-1.27,0.57l0.42-1.69l-2.68-1.55l-2.82,1.55l-5.37-1.98l-1.55,1.55
					l0.28,2.12l1.41,0.28l-1.55,4.24l1.41,0.42l-0.71,0.28l0.14,1.13l0.56,1.13l-0.42,0.85h1.13l-0.57,1.27l0.85,0.42l-1.41-0.14v1.55l-2.4,0.85v1.13l2.82,2.26l1.41,5.51l0.28,2.68l0.71-1.13l0.57,1.27l-1.27,0.28l-1.98,3.39l-4.38,3.11l1.41,2.26l0.56,5.37
					l0.85,0.85l0.99,0.14h-1.13l-1.41,1.41l0.85,1.13l-0.42,0.85l-1.27-0.85l-0.28,0.28l-0.42,0.14l0.14,1.13l-1.55-0.85l-1.69,1.13l1.27-1.55l-0.28-1.13l-1.13-1.13h-2.12l1.55-0.85l-1.98-2.54l0.28-0.99l-0.42-3.25l0.14-3.81l-6.64-0.56l-0.85,1.69l0.7-2.12
					l-1.27-1.13l-3.67-1.13l-1.27-1.98l-2.26-1.41l-4.38-1.98l-3.81,1.41l0.85-0.85V128l-1.7-5.22l-2.12-0.28l-0.28,1.27l-0.14-1.27l-1.27-1.13l0.28-0.71l0.14-5.65l1.27-3.11l-0.85-0.99l2.26-1.13l0.42-0.85l-0.28-0.57h0.56l0.56-1.27l0.85,0.56v-2.4h1.41
					l-0.74-0.25h6.35l-6.46-0.04l-0.14-0.99l2.12,0.14l1.84-0.99l-0.56-2.4l-1.98-1.13l-1.13,0.71l0.28-0.56l-2.54-1.27l-0.14,0.57l-0.56-0.57l0.42-0.56l2.82,1.41l1.41-0.28l1.98,1.69l1.27-0.99l0.14-1.41h0.42l-0.14-0.85l1.7,0.71l2.26-0.85l2.68-5.51l-4.8-0.71
					l-2.54-2.54l0.28-0.42l3.11,1.13l1.55,1.83l1.55-0.14l2.82-3.81l-0.14-1.13l-1.27-0.42l0.42-1.13h2.54l0.42,1.69l1.41,0.28l0.14-0.99l1.55,1.13l-0.85-2.12l0.28-0.71l1.41,1.69l1.69-1.13l2.82-3.53l0.14-1.55l-1.84-2.4l0.28-1.84l-0.71,0.28v-0.99l-0.71-0.85
					l1.13-0.42l0.42,0.85l1.13-1.13l0.14-1.41l-1.41-0.28l1.41-1.55l-2.12-0.71l-0.99-1.41l0.42-0.28l-0.28-1.27l-6.21-0.71v3.25l1.69,1.55l-0.99,1.13l0.99,0.56l-2.4,0.71l-0.14,1.84l-1.55,3.67l-0.14,1.84l-1.69,0.99l-2.4-4.09l0.42-2.82l0.14,0.85l0.71-0.14
					l-0.85-3.53l-1.83-2.4l-0.99,0.14l-0.71,1.27v2.12l-1.13,2.4l-0.56-1.41l0.28-1.69l-2.12-3.39l0.99,0.28l0.14-1.27l-4.09-0.99l1.69-1.98l-0.99-1.27l1.98,0.28l-3.25-4.52l-0.14-3.39l-1.41-1.69l-0.14-1.55l-1.55,0.56l-0.42-0.71l0.28-0.85l-1.13-0.42l-1.69,2.68
					l0.56,0.85l-0.14,1.41l-0.85-0.85l-0.85,0.85l-0.28,2.97l0.99,1.13l-1.27,1.84v1.98l4.8,4.09l1.55-0.42l0.14,1.55L166,68.83l0.28-1.27l-0.85,0.42l-1.13,3.81l1.27-0.14l0.42-0.71l-0.42,0.14l0.28-0.99l0.99,2.54l-2.54,3.25l-2.12-0.28l0.28,0.71l-0.28,1.41
					l0.71,0.99v1.98l-0.71-0.42l0.28-0.57l-1.13,0.57v-0.99l-0.85-0.57l0.85-0.56l-0.28-0.56l0.28-2.82l-1.41,1.27l0.28-1.69l-0.99,0.14l-0.71-1.27l-3.11,0.56l1.41,3.25l1.98-0.42v1.41l-0.28,0.42l-1.98-0.85l-0.85-1.84l-0.42,0.28l0.85,1.55l-4.38-0.57l-4.38,0.99
					l-2.26-2.68L142,75.47v-0.71l-2.12-1.41l0.57-0.28l-0.71-1.13l0.28-0.28l-1.41-1.41l-4.8,1.98l-0.99,1.7l1.84,1.41l0.71-0.28l-0.57-0.71l0.71-0.42l1.98,0.56l0.14-0.99l-0.28-0.42h0.56l-0.28-0.42l1.69-0.56l-1.27,2.68l-2.68,0.99l-0.28,0.57l0.28,0.14
					l-0.99,1.13l1.84,3.67l-0.28,0.28l0.42,0.85l-1.27,0.14v0.85l-1.41-1.84l1.27-0.42l-0.42-1.13l-1.27-0.42l-0.14-1.41l-0.42,1.41l-0.14-1.98h-1.84l-0.71-1.69l-3.95,1.98l-6.35-0.28l-1.98-1.13l0.71-0.42v-0.99l1.13-0.28l-0.57-0.28h2.26l-0.42-1.55l-2.26-2.54
					l-2.26-0.14l0.56,1.13l-2.26-0.71l-6.92-2.82l-3.67-2.68h-2.96l-0.85,2.54l-2.4,0.28l1.13-2.26l-0.99-0.14v-2.54h-0.56l0.28,0.57l-0.14,0.42l-0.42-0.14l-1.41,2.4l0.71,0.56l-1.13,0.71l-0.85,0.14l-1.55-1.98l-1.27-3.81l-1.69-1.69l-0.42,0.99l1.27,1.13
					l-3.25,3.39l0.56-1.69l-3.25,1.84l-1.55,3.11v-1.84l-4.24,2.4l2.4-2.68l1.98-0.14l2.97-2.68l0.42-0.56l-0.42-1.27l-9.46,5.93l-1.55,1.69l0.99,2.12l-0.14,0.99l-1.27-1.98l-1.55-0.14l0.85,1.41l-0.56,0.14l-2.68-1.84h-2.12l-3.95-4.09l-3.81-0.85l-0.57,0.56
					l-4.38-3.11l-4.52,0.85l-9.04-3.25l-5.37,0.14l0.42-0.56l-0.85-0.28l-0.71-0.42l0.28-1.13l-1.69,0.28l-0.71-1.13l-2.26,0.99l-1.83-2.12l-0.85,0.71l0.28,1.98l-0.28-0.14l-1.98-0.71l1.69-2.12l-2.54-1.27l-2.82,3.39l-2.68,0.28l-0.14,0.85l-0.71-0.42l1.13-1.13
					l-1.83,1.13l-0.57,0.56L20,60.5l-0.85,0.14l-0.28,1.55l-0.57-0.56l0.42-1.13l-0.42-0.56l-3.81,2.97l0.28-0.85l-0.28-0.14l-0.57,1.55l1.13,1.13l-1.69-0.99l-0.99,1.55l1.27,0.14l-1.55,0.28l0.99,0.99l-0.99-0.42l-0.28,1.55l-1.84,2.54l-5.08,0.71l-0.14,2.26h0.42
					l-1.69,0.85l5.65,3.95l0.99,1.13l0.57,2.4l1.83,0.71l0.99-1.13l-0.14,1.13l1.83-0.28l0.28,0.42l-0.85,0.99l1.27,1.27l0.14-0.85l3.81,0.71l-2.54,1.13l-2.26-0.56l-0.85-1.13l0.42,1.13l-0.14,0.85l2.26,0.28l-0.42,0.71l-0.85-0.85l-0.71,1.83l-4.09-0.56
					l-0.99-0.85l0.71-0.42v-1.41l-0.42-0.28H8.42L5.88,86.2l0.56,0.71l-1.69-0.14l-3.95,2.54L2.49,91l2.54,0.42l-1.55,0.56l1.69,3.25l2.82,0.71l2.82-0.71l1.13,0.85l0.14-0.56l-0.85-0.56h0.71l0.85,1.84l2.12-2.83l2.26,0.28l-0.42,1.27h-1.13l1.41,3.1l-0.57,1.84
					l-2.68,0.28l-1.69,2.12l-1.55,0.28l-0.85,0.57v0.85H8.42l5.82,0.46H7.88l-1.44,1.24l-0.56,2.26l-0.85,0.42l0.42,0.56l-0.56,0.85l2.12-0.71l-1.41,1.13h1.27l-0.28,0.71l0.42,1.13l0.85-0.42l0.71,0.28l-0.28,0.71l0.42,0.14h1.69L8.7,116l0.28,1.13l1.41,0.14
					l-0.99,0.28l0.7,0.85l1.84,0.28l1.41-2.26l-0.42-0.85l0.71-1.13l1.69-1.13l-1.98,2.4l1.55,3.39l-0.71,1.41l0.99,0.57l-0.42,0.42l0.42,0.85l-1.27,0.71l3.11-1.27l0.99-1.55v1.55l1.55,0.14l1.41,2.12l0.42-0.42l-0.28-0.99l0.85-1.13v0.71l0.99,0.85l2.97-1.98
					l-1.41,2.26l-0.28,1.13h0.42l-1.55,4.1l-1.13,0.85l-0.42,1.13l-3.39,1.84l-0.71,1.84l0.56,0.42l-2.26-0.85l-4.52,3.39l-0.28,0.14l0.42,0.99l0.28-0.99l1.27,0.28l-0.14-0.85l0.42,0.71l0.85-0.14l1.13-1.98h0.28l-0.14,0.99l3.67-1.83l0.42,1.13l0.42-1.41
					l1.84-0.56l-1.13-1.69l0.99,0.71l1.84-0.71l-0.42-0.28l1.27-0.28v-0.85l2.26-0.99l0.14-0.85l-0.28-0.14l1.69-1.13l0.14-0.71l0.71,0.14l0.85-1.13l1.98-0.85l-0.28-0.56l0.42-0.71l1.55-1.41l-0.85-0.85l-1.13-0.14l0.42-1.41l3.11-2.68l-0.99-1.27l1.13,0.28
					l1.84-3.11l2.4-1.69l1.13-4.66v2.12l-0.85,2.54l0.99,0.14l1.84-1.27l-1.55,1.98l2.12,0.99l-2.96-0.57l-1.98,1.13l-0.14,2.12l-1.13,2.4l0.71,0.57l1.27-0.71l-0.85,1.41h-0.99l-0.28,0.85l0.42,0.42l1.69-0.42l1.41-1.41l-0.14,0.99l0.56-1.27l0.71-0.14l0.28-1.13
					l0.14,0.99l0.42-1.69l1.98,0.42l1.13-2.4L44,115.01l0.71-1.13l-0.85-0.28l1.98-2.12l-0.28,1.69l0.42-0.28v-0.99l0.57,0.85l1.84-0.42l-0.14,0.99h0.99l-0.99,0.56l1.41-0.42l-0.56,0.71h1.27l-0.14,0.57l1.13,0.99l0.71-0.71l2.12,2.12l5.93-0.14l0.14,0.71
					l1.55,0.56l1.55-0.28l0.85-1.13l1.13,0.99l-0.42,0.28v0.99l-0.42-1.83l-0.28,1.55l-0.56,0.42l2.68,1.69l1.69-1.69l-0.42-0.42l0.56,0.42l-0.85,0.85v1.41l1.41,1.27l-0.14,0.56l2.12,1.41l1.13-0.56v-0.56l-1.98-1.69l0.28-0.42l1.41,0.99l0.42-0.71l0.56,1.55
					l-0.14,0.71l0.85-0.28l0.28,0.99l0.42-0.14l0.28-0.71l-0.99-3.11l0.14-0.99l1.55,4.23l1.41,0.71l0.56,0.99l0.71-0.71l-0.28,0.56l-0.28,0.28l0.28,0.71l0.42-0.14l1.13,1.41l-1.27-0.85v0.56l0.42-0.14v0.99l0.56,0.14l-0.71,0.56l1.41,0.28l0.28,0.85l-0.71-0.56
					l0.42,0.71l1.13,0.85l0.42,1.13l1.27,0.71l-0.85,0.28l-0.71,1.69l0.28,0.56l0.85-1.27l1.41-0.85l0.56,3.11h0.56l0.14,0.71l-0.85,0.42l0.14,0.99l1.69-0.99l0.14,1.41h-0.56l-0.28,0.99l1.13,0.71l-0.28,0.99l1.69,1.98l0.56-0.14l-0.14,1.69l0.85,1.84l0.99-0.14
					v0.71l0.85-0.28l0.28,2.96l0.71-0.56v0.85l0.42,0.14l-0.99,0.28l0.71,0.42l-0.71,0.14l0.14,0.56l1.13,0.71l1.98-0.28l-0.28,0.42l0.99,0.57l-0.42,0.56l3.39,0.42l-0.28,1.13l0.28,0.56l0.99,0.42l0.57-0.14v-0.71l0.71,1.27v0.85l0.99-0.85v1.41l1.27,0.14
					l-0.85,0.28l0.37,0.49l0.05,0.07l1.13,0.99l-0.56,0.71l0.42,0.42l0.28,1.41l-1.41,1.69l-0.28-0.42l0.71-1.27v-0.71l-4.09-0.85l-0.28,0.56l1.27,3.95h0.28l-0.14,0.71l0.42,0.28v0.71l-0.42-0.42l0.14,0.85l1.69,0.56l-1.55,0.42l-0.56,8.33l-0.56,1.55l0.56,3.11
					l0.42,1.41l-0.71,3.11l1.27,1.83l0.28,2.4l1.55,2.26l0.71,0.42l0.28-0.71l1.13,0.14l-0.85,0.57l0.56,1.13l-0.71-0.71l-0.14,0.28l0.42,1.41l1.13,0.85l-0.14,1.41l2.82,3.39l0.14,1.41l4.38,1.41l0.42,0.85l0.99,0.28l1.27,1.27l0.42,1.69l1.27,1.84l1.41,3.81
					l0.28-0.14l0.42,1.69l1.55,0.85l1.98,2.4l-0.14,1.83l-1.84-0.14v0.28l3.11,2.26l0.56,0.14l0.42-0.56l0.28,0.85l1.41,0.99l0.56,1.27l-0.28,2.4h0.85l3.11,2.68l1.13,1.83l0.99-0.7l0.14-0.85l-1.69-1.83l-0.42,0.28l-0.42-0.28l-2.12-5.93l-0.57-0.28l0.14,0.71
					l-0.28-0.28l-2.97-5.51l-0.56-0.14l-0.42-0.99l-1.55-1.27l-0.42-0.99l-0.99-4.8l1.69,1.27h0.85l1.41,0.99l0.99,3.11l1.98,3.25l1.69,1.69l1.13,0.28l0.28,1.41l2.97,2.26l-0.56,1.27l0.28,0.71l0.71-0.28v0.7l1.41,0.42l0.85,0.71l0.14,0.99l2.12,1.69l1.27,1.84
					l1.55,1.27l1.13,3.11l-0.57,1.13l0.42,0.56l-0.85,0.42l0.42,1.41l1.27,0.99l2.12,1.27l1.13,1.13l3.25,0.85l2.12,1.69l4.94,1.56l2.12,1.27l3.39,0.85l2.54-1.27l0.99-0.14l2.4,0.99l2.82,2.68l1.98,1.55l2.82,0.42l3.11,1.27h1.13l0.85-0.42h0.56l0.42,0.85h-0.42
					v0.28l3.95,4.09l-0.28,1.41l0.56,0.99l1.27,0.85l0.14-0.71l-0.42-0.28h0.56l0.99,1.27l1.69,0.85l0.14,1.27l0.71,0.28l0.14-0.56l0.56,0.71l0.28,0.57l0.28-0.42l2.26,0.28l0.99,1.27l0.71-0.28l0.28,1.27h0.71l0.99-0.71l-0.85-0.99l0.14-0.57l2.68-1.83l1.84,1.27
					l0.85,0.14l-0.71,0.99l0.99,1.41l0.42-0.85l0.42,0.14l0.71-0.85l-0.57-0.99l0.14-0.42l-1.69-1.55l-2.4-0.56h-0.99l-0.56,1.13l-0.56-0.42l-2.26,0.99l-2.12-0.42l-0.42-0.99l-0.56-0.42l-1.55-1.27l-0.85-1.69l-0.42-1.13l1.27-8.05l-1.83-1.55l-2.12-0.71
					l-7.34,0.42l-1.13-0.42l1.27-2.26l0.42-2.97l-0.71-0.56l0.56-0.85h0.28l-0.14,0.71l0.56,0.99l0.71-2.82l-0.28-0.28l0.28-0.42l-0.28-0.14l1.84-3.67l-0.42-0.71l-1.13-0.14l-0.56,0.42v-0.56l-0.71-0.14l-5.08,1.41l-0.99,4.24l-1.13,0.71l0.14,0.71l-0.71,0.42
					l-1.84-0.56l-4.52,1.27l-1.27-0.99l-1.41-0.42l-0.99-0.85l-0.85-1.83l-1.69-2.4l0.14-1.27l-1.13-1.55l0.14-2.97l-0.42-3.11l0.56-1.55l1.13-0.42v-0.85l-0.71-2.12l0.14-0.99l-0.42-0.28l0.56-0.14l-0.14-1.27l1.98-1.55l-0.14-0.71h1.84l1.13-0.56l0.56-2.26
					l0.56,0.42l-0.28,0.42l1.83-0.85l3.67,0.56l0.71-0.56l2.54,1.55h1.41l0.42-0.71l1.27,1.13l0.57-0.28l-1.13-1.13l0.71-1.41l-2.12,0.14l-0.14-0.71l4.66-0.14l0.56-1.41l0.14,1.69l1.98-0.71v0.28l1.55-0.14l2.4,1.98l2.82-0.99l2.68,2.4l0.14,3.39l0.56-0.14
					l-0.28,1.27l0.85,1.27l0.42-0.14l0.71,2.4l0.85,0.42l0.56,1.55l1.69-0.57l0.42-1.69l0.14-2.12l-3.25-9.32l1.41-3.95l0.85-0.42l-0.28-0.71h1.41l1.83-1.55l0.85-1.41l2.4-0.99l0.85-1.13l2.26-0.85v-0.57h-0.57l0.57-0.71l-0.85-0.42l0.71-0.28l0.85,0.56l0.85-0.85
					l-0.28-0.85l-0.28,0.71l-0.28-0.71h-1.27l0.14-0.99l0.28,0.71l0.85-0.42l0.71,0.28l-0.42-2.26l-1.13-0.14l0.57-0.28l-0.42-1.55l0.28-0.56l-2.26-1.7v-0.42l2.12,1.27l-0.42-0.99v-2.12l1.41-0.99l-0.85,1.84l0.42,0.14l-0.28,1.27l1.27,1.27l-0.71,1.41l0.28,0.85
					l1.84-3.96l-1.13-2.97l1.41,1.13l0.14,0.71l1.41-1.98l0.56-1.55l-0.56-0.85l0.14-0.56l2.54-1.69l3.25-0.42l0.71-0.99l0.42,0.56l2.54-0.56l-0.14-0.71l-0.14,0.71h-0.71l-1.41-1.69l1.69-4.24l2.4-0.99l0.71-1.55l1.13,0.85l2.68-1.41l0.28-0.28l-0.28-0.28
					l0.14-0.99l3.11-0.28l2.54-2.12l0.42,0.28l-1.13,1.13l0.14,0.42l3.25-0.14l-1.83,0.99l-0.57-0.71l-3.81,2.4l0.57-0.14l-0.57,1.27l0.14,1.13l1.41,0.99l2.54-2.54l0.42-0.85l1.13,0.28v-0.71l1.55-0.14l4.24-1.7l-0.85-0.28l0.14-0.57l-1.27-0.28l-0.14-0.71
					l-1.69,0.71l-2.82-0.99l0.42-0.42l-1.69-0.56l-0.42-0.71l-0.28-1.84l-0.99-0.14l1.13-2.12l-0.71-0.42l-1.27,0.56l-0.28-0.71l-1.69-0.28l1.55-0.56l1.41,0.42l2.12-1.69l-0.14-1.41l-0.13-0.07h-3.1h-3.12h-3.23l1.25-1.06l1.69-0.14l0.99-2.12l1.27-0.99h9.18
					l1.27,0.56l3.25-1.13l-0.14,0.42l0.42,0.14l3.67-3.67l3.95-0.85l2.12-2.26l-0.85-0.85l0.85,0.14z M225.21,159.82l-2.16,1.08l-2.68,2.12l-2.54,3.25l-0.85,0.42l1.84-2.12l1.13-2.26l0.85-0.42l1.13-1.84l3.29-0.24z"/>
				<path d="M225.73,159.56l1.27-0.64l3.53-0.14l1.42,0.78h-6.22z"/>
				<path d="M192.55,145.08h2.12l0.71,1.55l-2.97-1.13l0.14-0.42"/>
				<path d="M196.92,106.25l-0.42,0.56l-0.14,2.26l0.99,0.99l1.13-3.39l-1.55-0.42"/>
				<path d="M191.42,103.57l-1.69,0.99l-1.27,2.96l1.41-0.42l2.4-2.4l0.28-0.99l-1.13-0.14"/>
				<path d="M240.42,166.27l-1.7,2.68l-0.28,1.13l0.42,0.57l1.69-0.14l1.55-0.99l-0.42-0.99l-0.42,0.56h-0.99l0.71-2.4l-0.56-0.42"/>
				<path d="M91.16,154.83v-0.85l-1.84-0.14l0.71-0.71l5.37,1.84l1.83,2.82l2.26,1.55l0.99,1.98l-0.71,0.56l-2.54-0.99l0.28-0.71l-0.42,0.42l-0.56-0.42l0.42-0.56l-1.41,0.14l-0.42-0.42h0.57l-0.57-0.71l-1.55-0.42l-0.14-0.56l1.13-0.28l-2.26-0.71l-0.56-1.13
					l-0.14,0.42l-1.13-0.14l-0.14-1.13l0.85,0.14"/>
				<path d="M86.08,142.97l0.71,0.85l-0.14,0.85l-1.55-2.4l0.99,0.71"/>
				<path d="M84.53,142.97l1.13,0.57l0.42,1.27l-1.55-1.84"/>
				<path d="M84.24,141.84l0.42-0.42l0.42,0.57l-0.85-0.14"/>
				<path d="M80.85,146.5v-0.99l-0.14,0.42v-0.71h-0.42l1.27-0.71l0.28,0.57l-0.42,0.14l0.56,0.42l-0.56,0.14v0.71l1.41,2.12l-1.98-2.12"/>
				<path d="M81.14,141.55l0.57-0.42l0.14,0.56l-0.42,2.4l-1.13,0.85l-0.28-0.85l0.28-0.42l-0.99-0.56l-0.57-1.27v-0.71h1.13l-0.14,0.71l0.71-0.57l0.28,1.13l-0.99,0.56l0.71,0.14l0.71-1.55"/>
				<path d="M232.79,156.38l3.1,1.13l1.55,0.71l0.42,0.85l-1.27,0.14l-2.54-0.85l-0.42-0.7l-1.84-0.99l0.99-0.28"/>
				<path d="M184.07,88.89l1.13-0.28l0.56,1.13l0.14,1.84l1.13-0.99l0.85,0.56l-0.14,0.71l4.8,2.96l0.71,2.97l1.7-0.28l1.69,1.84l-2.12,1.55l-2.82-1.13v-1.27l-1.55-0.28l0.28-0.85l-1.41,0.42l-0.14,1.55l-3.53,3.11l-0.85-0.71l-0.14-2.97l-0.28,0.85l-2.82,0.85
					l-0.28-0.71l0.42-1.13l1.7-1.27l-0.28-2.12l0.56-4.52l0.71-1.84"/>
				<path d="M232.79,166.27l-0.14,0.56l0.71,0.99l3.81,0.28l-1.27,1.41l-0.99-0.99l-0.99,0.14l-1.84-1.41l0.71-0.99"/>
				<path d="M28.04,239.27l1.55,0.42l0.85,0.99l-0.14,0.71h-0.85l-0.85,0.85l-0.28-0.14l-0.42-1.55l0.14-1.27"/>
				<path d="M26.92,237.43l0.85,0.57l-0.71,0.28l-0.71-0.85h0.56"/>
				<path d="M24.94,236.73l1.27,0.42h-1.27v-0.42"/>
				<path d="M23.1,236.02l0.14-0.28l0.71,0.71l-0.56,0.14l-0.28-0.57"/>
				<path d="M19.72,234.32l0.7,0.28L20,235.31l-0.56-0.42l0.28-0.57"/>
				<path d="M228.55,242.94l0.28,0.56l-1.27,0.57h-1.7l-0.42-0.71l0.28-0.57l2.82,0.14"/>
				<path d="M214.58,184.34l-0.57,0.71l-3.25,0.99l0.57-0.7l3.25-0.99"/>
				<path d="M34.96,124.61l-0.42-0.28l0.28-0.42h0.99l-0.14,0.42l0.42-0.28l0.28,0.85l-1.84,0.71l-0.57-0.71l0.99-0.28"/>
				<path d="M30.3,128.42l1.55-1.27l0.7,1.13l0.14-0.99l-0.28-0.99l0.71,0.85l0.85-0.71l-0.14-0.42l0.85,0.71l0.71-0.56v1.27h0.71L35.81,128l-1.41-0.28l0.71,0.99l-1.13-0.14l-1.69,2.26l0.14-0.71l-0.42-0.7l-0.71-0.14l0.42,0.14l-0.28,0.99l-1.13-1.98"/>
				<path d="M30.45,131.81l0.42,0.14l-0.42,0.42v-0.57"/>
				<path d="M21.97,132.8l0.42,0.28l-0.28,0.99l-0.14-1.27"/>
				<path d="M17.17,136.47l0.28,0.71l-0.56-0.14v-0.71l0.28,0.14"/>
				<path d="M7.57,139.29l0.99-1.27l1.84-0.56l1.13,1.41l-2.12,0.28l-0.99,1.13l-0.85-0.99"/>
				<path d="M5.17,140.71l0.56,0.56l-0.71,0.14l0.14-0.71"/>
				<path d="M1.36,144.24l1.84-1.55l-0.57-0.71l1.84-0.14l-0.57,0.99l0.28,0.14l-0.85,0.71l-1.98,0.56"/>
				<path d="M159.51,220.06l0.99-0.71l-1.13,1.41l0.14-0.71"/>
				<path d="M108.53,204.25l0.71,0.28l-0.56,0.14l-0.14-0.42"/>
				<path d="M45.98,117.13l1.27-1.69l0.42,0.42l-1.27,1.84l-0.85,0.28l0.42-0.85"/>
				<path d="M78.88,137.74l0.56,1.13l-0.85-0.99l-0.14-0.99l0.42,0.85"/>
				<path d="M82.55,136.75l0.99,0.42l-0.56-2.97l-0.99,0.42l-0.28,1.55l0.42,0.42l0.42-1.13v1.27"/>
				<path d="M79.44,133.79l1.27,2.26l-0.71-0.56l0.28,0.85l0.85,0.71l-0.28,0.99l0.28-0.14v0.99h-0.56l-0.85-1.84l-1.27-0.56l0.56-0.14v-0.71l-0.99-0.28l0.28-1.98l-0.99,0.85l0.42-1.13l-0.14-0.56l0.85,0.14l0.28,0.99l0.71,0.14"/>
				<path d="M74.22,125.46l0.28,0.56h-0.57l0.42,0.56l-1.41-0.28l1.55,0.56V128l-1.69-1.27l0.14,1.13l-0.28,0.42l-1.13-1.69l0.28-0.56l-0.42-0.85l0.99-0.71l1.84,0.99"/>
				<path d="M81,132.66v0.56l-0.56-0.99l0.56,0.42"/>
				<path d="M79.58,132.24l-0.14,0.56l-0.56-0.42l0.71-0.14"/>
				<path d="M79.3,130.82l0.42,0.85l-0.57-0.14l0.14-0.71"/>
				<path d="M77.18,130.26l-0.28-0.71l1.69,0.42l0.28,1.27l-0.71-0.71l0.42,1.41l-0.99,0.14l-0.42-1.84"/>
				<path d="M76.34,131.39l-0.56-0.99l1.27,0.28l0.14,0.71h-0.42v2.12l-0.56-0.71v-0.71l0.42-0.28l-0.28-0.42"/>
				<path d="M75.35,127.43l0.56,0.14l-0.42,0.28l0.42,0.42l-0.42,0.14v1.27l0.85-0.71v-0.71l0.56,0.14l-0.85-2.82l-0.28-0.56l-0.85,0.56l0.42,1.84"/>
				<path d="M74.64,128.85l0.57,2.68l-0.14,1.55l-0.71-1.41l0.42-1.13l-0.42,0.56l-0.71-0.71l0.28-0.85l-0.85-0.99l0.28-0.85l1.27,1.13"/>
				<path d="M1.92,116l2.97-0.56l1.27,0.42l0.14,1.13l-1.27,1.13l-2.26-0.99L1.92,116"/>
				<path d="M250.16,150.87l-0.99,0.56l-1.69,2.26l0.42,0.28l-0.56,1.27l0.28,0.28l-0.71,0.28l-0.42,1.98l-0.71,0.42l0.28,1.13h-0.71l-0.57,1.41l-1.27,0.42l1.55,0.42l-1.84,1.69v0.56l0.71,0.56h4.94l2.26-0.99l-0.14,0.71l-0.7,0.56h1.41l0.42-0.71l1.13,0.28
					l-2.4,1.84l0.42,0.56l2.68-1.84l0.56-1.69h0.42l0.28,1.98l-0.42,1.55l1.13-0.99l0.28,1.84l0.85-0.28l0.85-2.4l-0.28-0.99l-0.71,0.71l0.56-2.26l-1.55,1.84l-0.42-0.42l0.28-0.85l-0.56-0.56l1.55-0.85l0.28-0.71l-2.12,0.57l1.13-2.97l-2.12-0.42l-1.98,0.71
					l0.42-0.99l-1.55,0.28l-0.42-0.71l1.27-0.71l-1.41-0.28l0.14-0.42l-1.55,1.69v-1.55l1.27-1.84v-1.13h0.71l0.14-0.85l-0.28-0.71l0.85-0.71l-1.41,0.14"/>
				<path d="M203.14,235.31l1.13,0.85l2.26,0.56v0.85l1.84,0.14l1.55,1.13l-2.54,0.85h-5.08l-0.28-0.14l1.55-1.41l-2.26-0.42l-1.41-1.98l-2.68-0.28l-1.41-0.99l-3.25-0.28l-0.28-0.43l0.85-0.42l-0.42-0.28h-1.83l-0.99,0.85l-1.41,0.28l-1.41,0.99l-0.85-0.28
					l0.85-0.28l0.28-1.27l1.13-0.71l2.96-0.85h1.84l3.39,0.42l1.55,1.27l1.84,0.28l1.41,0.99l1.69,0.57"/>
				<path d="M201.44,233.9l0.71,0.42v0.42h-0.28l-1.98-1.41l1.55,0.57"/>
				<path d="M190.71,234.89l0.28,0.85l-0.99,0.14l0.28-0.99h0.42"/>
				<path d="M215.28,239.69l0.42,1.55l-0.42,1.41l0.14,1.27l0.56,0.85l1.55-1.7l0.56,0.56l2.12-0.71l2.26,0.42l0.42-0.85l-0.99-0.85l-1.55-0.28l0.71-0.42l-1.27-0.14l-0.42-0.71l-1.69-0.57l-2.4,0.14"/>
				<path d="M212.6,241.81l0.42,0.56l-0.85-0.28l-0.14-0.28h0.57"/>
				<path d="M213.02,239.13l0.28,0.28l-0.42-0.14l0.14-0.14"/>
				<path d="M215.28,239.69l0.42,1.55l-0.42,1.41l0.14,1.27l-0.99-0.43l-1.27,0.28l-1.83-0.42l-0.57,0.57l-1.13-0.99v-0.28l4.24,0.14l0.14-0.42l-0.85-0.56l-0.14-1.41l-1.41-0.42l1.13-0.57l1.41,0.57l1.13-0.28"/>
				<path d="M203.42,242.94l1.69,0.56l0.28,0.71l-0.99-0.14l-0.99,0.42l-1.27-0.14l-1.41-1.13l0.99-0.57l1.69,0.28"/>
				<path d="M201.44,222.89l0.28,0.56l-2.4-0.28l2.12-0.28"/>
				<path d="M212.6,236.02l-0.14,0.71l-1.27,0.28v-0.42l1.41-0.57"/>
				<path d="M207.23,228.96l0.28,0.42h-0.42l-0.71-1.41l0.85,0.99"/>
				<path d="M205.4,226.84l0.14,1.27l-0.42-0.56l0.28-0.71"/>
				<path d="M201.87,229.81l0.42-0.56v1.13l-0.42-0.57"/>
				<path d="M201.3,227.12l0.56,0.85l-0.28,0.85l-0.99-0.85l0.28-1.13l0.42,0.28"/>
				<path d="M203.42,224.02l-0.14,1.13l-0.28-0.99l0.28-0.71l0.14,0.57"/>
				<path d="M210.2,233.19v0.71l0.42-0.99l-1.13-0.28l0.71,0.56z"/>
				<path d="M238.44,247.6l-0.71,0.28v0.85l1.13-0.71l-0.42-0.42"/>
				<path d="M118.98,219.92l-0.28-0.14l0.28-0.57v0.71"/>
				<path d="M111.92,217.52l0.14-0.28v0.71l-0.14-0.42"/>
				<path d="M124.91,217.52l0.42-0.42l0.14,0.99l-0.56-0.14v-0.42"/>
				<path d="M192.41,169.8l0.42-0.14l0.14,0.99l-0.28,0.28l-2.68-1.13h2.4"/>
			</g>
			<text transform="matrix(1 0 0 1 120.5117 187.9761)"><tspan x="0" y="0" style="fill:#000000;stroke:none;">North America</tspan></text>
		</g>
		<g>
			<g>
				<path d="M267.53,285.3l-0.14,1.13l-1.27,1.55l-1.69,0.57l-1.55-0.42l-0.14-2.54l0.71-0.42l3.11-0.28l0.99,0.42"/>
				<path d="M262.73,285.3l-0.99,0.99l-0.28-0.56l0.56-0.71l0.71-0.28l-0.42,0.42l0.42,0.14"/>
				<path d="M171.51,285.3l0.14,0.42h-0.42l0.28-0.42"/>
				<path d="M174.47,285.72l-0.28,0.56l-0.42-0.14l0.71-0.42"/>
				<path d="M173.2,285.02l-0.28,0.42l0.42,0.14l-0.14-0.56"/>
				<path d="M231.8,430.46l1.69-0.14l-1.69,0.57h-0.42l0.42-0.42"/>
				<path d="M222.34,422.41l-1.41-0.14l-0.28-0.56l-0.71,0.99l-1.55,0.14l0.71,0.57l-0.71,0.28v1.27l2.54,0.28l-1.83,1.27l0.28,1.55l1.41,0.71l-1.69-0.43l-0.14,0.28l0.42,0.28l-0.42,0.28l-1.69-1.41l0.56,0.99l-1.55,0.56l0.14,0.71h1.13l-0.14,0.56l4.09,0.57
					l0.99-0.28l1.27-0.42l3.81,0.99l1.84-0.28l0.85-0.99l-2.12-0.56l-4.09-3.25l-1.27-1.98l0.71-0.28l-1.13-1.69z"/>
				<path d="M215.14,426.93l1.98,1.55l-2.4-0.42l-0.14-0.85l0.56-0.28"/>
				<path d="M211.33,425.09l1.69,0.28l1.41,1.41l-0.42,0.99l-1.13,0.14l-0.85-0.57l-0.71-2.26"/>
				<path d="M211.47,420.85l0.99-0.28l0.28,0.71l0.42-1.13l0.42,0.99l-0.71,1.27l0.99,0.99l0.99-0.85l1.13,0.14l0.14,0.56l-2.26,1.27v0.99l-0.28-0.14l-1.13-0.99h0.85l-0.28-0.85l-0.99,0.28l-0.71-0.99l0.14-1.98"/>
				<path d="M208.5,418.03l0.56-0.99l0.14,0.85l-0.71,0.14"/>
				<path d="M209.49,416.34l-0.14,0.71h-0.28l-0.42-1.83l0.85,1.13"/>
				<path d="M207.37,413.93l1.27-0.14l-0.28,0.85l-0.99-0.71"/>
				<path d="M208.22,409.42l0.42-0.99l0.71,0.85l-0.14,3.81l-0.56-0.42v-1.41l-0.99-0.71l0.56,0.14l-0.42-0.71l0.42-0.57"/>
				<path d="M212.46,394.59l0.56,0.42l-0.14,0.85l-0.99,0.28l-0.42-0.99l0.99-0.56"/>
				<path d="M210.76,386.54l0.57,0.42l0.42,1.55l-0.71,0.71l0.42,0.7h-0.28l0.28,0.99h-0.42l-0.14,0.71l-1.13-0.14l-0.14-0.56l0.56-3.67l0.56-0.71"/>
				<path d="M219.52,431.87l3.39-0.71l0.42,0.56l-1.55-0.14l1.69,0.57l-0.71,0.42l0.85,0.28l0.42,1.13l-2.4-1.69l-0.71,0.14l0.71,0.99l-0.85-0.14l-0.56-0.71l0.56-0.57l-1.27-0.14"/>
				<path d="M223.61,431.3l2.12-0.14l0.28,0.85l-1.41,0.28l-0.85-0.28l-0.14-0.71"/>
				<path d="M171.79,284.31l0.99,2.12l-0.85,0.71l-0.42-0.71l0.56-0.7l-0.71-0.99l0.42-0.42"/>
				<path d="M201.73,268.35l0.42-0.85l0.42,0.14l0.71-0.85l-0.57-0.99l0.14-0.42l1.27,1.41v-1.41l2.54-1.98l0.14-2.12l1.41-1.13h0.99l0.14,0.42l0.71-1.13l2.12-0.14l2.12-0.99l0.56-0.84l0.85-0.57l0.99,0.57l-0.28,0.71l-1.13,0.56l0.56,1.98l-0.85,1.55v0.85
					l0.85,1.41l1.27-0.71l-0.14-0.99l-0.85-1.27v-0.99l1.41-0.99l2.4-0.57l-0.14-0.28l-0.99-0.28l0.71-1.13l0.85,1.69l2.68,0.57l0.85,1.69l4.1-0.28l1.13,0.99h1.13l2.97-0.71l-0.99-0.28l0.28-0.14h4.66l-1.98,0.7l0.7,0.28l0.57,0.99h1.41l1.69,0.99l0.42,1.41
					l-0.42,0.56l0.85,0.14l0.85-0.42l0.85,0.71h0.56l1.98,1.55l0.42,1.69l1.69,0.43l1.55,1.83l4.66-0.28l2.12,0.42v0.56l0.42-0.28l2.68,1.13l1.83,1.41l0.57,0.99l0.28-0.42l0.71,0.56l1.55,4.8l1.13,0.42l-0.42,1.41l-2.96,3.11l0.28,1.7l1.27-0.85l-0.42,0.57
					l0.56,0.42v1.13h-1.69l-0.14,0.71l0.28-0.42l4.38-0.14l0.14,1.41l0.85-1.69l1.13-0.42l0.85-1.69l2.12-0.14l3.67,1.41l0.28,0.85l0.99-0.42l0.71,0.85l-0.28,0.57l0.85,0.28l-0.28,0.99l1.98-0.85l3.67,1.27h4.38l0.99,0.42l5.37,4.24l3.53,0.42l0.71,1.13l0.56,3.11
					l-0.85,4.24l-2.4,3.11l-2.26,1.98l-1.83,3.39l-1.7,0.99l-0.42,2.82l0.28,3.11l-0.57,4.24l-0.85,1.27l-0.42,2.97l-2.68,4.24l-0.42,1.7l-1.84,1.27l-0.42,0.85l-5.08,0.28l-0.28,0.71l-4.52,1.98l-3.67,3.39l-0.85,1.7l0.14,1.98l0.42,0.71l-0.28,0.28l-0.28,2.54
					l-2.54,2.68l-1.13,2.82l-1.69,2.54l-2.68,2.12l-0.42,1.56l-2.12,2.26l-1.55,2.4l-1.69,0.85l-2.97-0.28l-2.26-0.99l-1.55-0.14l-1.13-1.13l0.14,1.55l2.54,1.98l-0.42,1.41l0.71,1.13l0.85,0.14l-0.14,2.12l-1.55,2.12l-0.28,0.99l-0.99,0.71l-6.64,1.55l-2.26-0.14
					l-0.56-0.42v1.27l0.56,0.71l-0.71,1.69l0.14,1.98l-0.42,0.7l-1.27,0.57h-1.55l-2.54-1.41l-0.56,0.57l0.42,3.53l1.13,1.13l0.85-0.14l-0.42-0.57l1.13-0.42l0.28,0.57l0.14,0.99l-0.28,0.71h-1.13l-0.71-0.85l-0.99,0.57l1.55,0.99l-1.41,0.71l-0.56,0.99v2.4
					l-0.99,1.13l0.14,0.99h-1.41l-1.41,0.71l-1.55,2.26l-0.14,0.7l0.71,1.27l1.13,1.27l2.12,0.42l0.28,1.41l-0.57,1.98l-3.53,2.97l-0.71,3.11l-1.13,0.57l-0.71-1.13l0.42,1.41l-1.27,0.99l-0.85,2.12l0.56-0.14l0.42,1.69l-0.85,0.28l0.85,0.28l1.41,2.26l-1.98-0.28
					l-3.53,1.98l-0.57,3.81h-1.27l-1.27-0.85l-0.14-0.85l0.28-0.14l0.14,0.56l1.69-1.13l0.56-0.99l-0.99-1.13h-2.68l0.71-1.13l-0.56-0.99l0.42-0.71l-1.13-0.85l0.71,0.85l-0.99-0.28l0.28,0.57l-0.28,0.56l-0.71-1.55l0.28,1.69l-0.42-0.14l-0.28-2.26l-0.99-0.99
					v-0.85l0.85-0.14l-0.14-0.42h-0.71l-0.14-0.42l0.56-0.28l-1.55-1.27l0.71-1.55l0.99-0.28l-0.28-0.57l0.28-1.13l-0.99,0.99v-3.1l1.13,0.28l-0.28-0.7l-1.13,0.14l-0.28-1.41l0.71,0.85l0.14-0.71l1.69,0.56l-0.99-1.69l-0.56,0.28l0.14-0.71l-0.99-0.42l0.99-0.71
					l-0.28-0.28l0.28-0.42l-0.56-0.71l-0.99,0.14l-0.99-0.7l-0.56,0.28l0.14,0.85l-0.56-0.43l0.14-0.85l1.69-1.13l-0.56-0.99h1.69l0.42,0.85l-0.28,0.56l0.42,0.28l0.42-0.56v0.84l0.85-0.84l0.28-0.85l-0.71,0.7l0.14-0.99l0.71-0.43l-0.42-0.14l0.56-0.56l-0.85,0.28
					l0.14-0.42l0.85-0.28l-0.56-0.42v-0.71l1.55-0.85l-0.14-1.13l-1.13-0.85l0.85-1.13l-0.42-0.99l0.71-1.41l-0.14-0.85l0.56-0.42l-0.42-0.57l0.42-0.28l0.28,0.56l-0.14-1.41l-0.71-0.14l1.13-0.99l-1.55-0.28l-0.99,0.71l-0.99-1.13l0.42-4.38l0.71-1.13l-0.56-2.68
					v-3.53l0.99-0.42l-0.14-1.41h0.56l2.82-7.91l0.42-3.39l-0.56-4.66l0.14-0.99l0.71-0.99l-0.28-2.54l1.69-5.22v-2.54l0.56-1.27l-0.28-4.8l0.71-0.99l0.28-3.25l-0.14-3.67l-0.71-4.24l-3.95-3.25l-3.25-1.27l-3.11-1.98l-2.54-2.54l-0.14-2.26l-2.82-4.09l-2.68-7.06
					l-1.27-1.13l-1.13-2.26l-2.54-1.98l0.42-0.85l-0.42-0.56l-0.42-1.98l1.98-1.97l1.13-0.85l0.14-1.13l-0.28-0.85l-0.85,0.99l-1.13-0.71v-2.82l0.99-0.71l0.71-1.98v-1.27l2.68-1.41l-0.28-0.57l0.85-0.42l0.14-1.55l1.98-0.57l0.28-0.99l1.27-1.41l-1.13-0.14
					l0.14-5.79l-1.13-1.84z"/>
			</g>
			<text transform="matrix(1 0 0 1 208.1787 312.3091)"><tspan x="0" y="0" style="fill:#000000;stroke:none;">South America</tspan></text>
		</g>
		<g>
			<g>
				<path d="M319.77,246.04l-0.7,0.14l0.14,0.42l0.56-0.57"/>
				<path d="M322.59,250.42v0.85h0.57l-0.57-0.85"/>
				<path d="M324.43,248.45l0.57,0.28l-0.42,0.28l-0.14-0.56"/>
				<path d="M395.17,276.4l-0.28,0.85h-0.71l0.42-1.13l0.57,0.28"/>
				<path d="M474.11,321.16l1.69-0.71l0.28,0.28l1.55-0.85l0.7,0.71h0.57l-0.42-1.13l0.99-0.71l0.28,0.71l0.57-0.14l-0.42-0.85l0.56-0.71l0.28-0.28v0.71l0.71-0.71l0.56-0.14l-0.71-0.56l0.42-0.71l0.28,0.28l-0.28-1.27h0.57l0.14,0.42l0.56-1.27h0.71v-1.84
					l0.85-0.71l1.55,1.98l1.27,5.51l-0.28,1.13h-0.28l-0.42-1.13h-0.42l0.14,2.68l-0.71,1.27l-0.56,3.53l-4.38,14.12l-1.13,1.41l-1.69,0.14l-1.84,0.99l-2.4-1.69l-0.56-0.85l-0.28-2.54l-0.99-2.12l-0.14-1.84l2.82-4.94l-1.27-5.36l1.13-2.26v-0.57"/>
				<path d="M390.09,283.61l0.28,0.28l-0.42,0.42l-0.28-0.42l0.42-0.28"/>
				<path d="M463.09,297.3l0.57,1.55l-0.57-0.42v-1.13"/>
				<path d="M464.36,295.89l-0.14,0.71l-0.14-1.13l0.28,0.43"/>
				<path d="M337.99,207.64l-0.57,0.14l0.57,0.42l0.42-0.14l-0.42-0.42"/>
				<path d="M340.67,219.64l-0.28,0.99h0.42l0.42-0.71l-0.56-0.28"/>
				<path d="M471.99,309.87l0.14,1.27l-0.42-0.57l0.28-0.71"/>
				<path d="M474.53,311.56v0.7l-0.56-0.42l0.56-0.28"/>
				<path d="M476.22,313.12l-0.28,0.42l-0.14-0.56l0.42,0.14"/>
				<path d="M498.25,332.18h0.99l0.14,0.85l-0.71-0.14l-0.42-0.71"/>
				<path d="M496.56,256.49l-0.14,0.42l-0.7,0.42l-1.27-0.56l0.28-0.56l1.84,0.28"/>
				<path d="M451.23,211.59l-2.12,0.71h-1.27l-0.85-0.71v0.56l-0.28,0.14v-0.57l-0.57-0.28l0.14-0.28l0.7,0.56l-0.7-0.85l-1.84,0.14l-1.13,0.42l0.42-0.42l-3.96,1.7l-4.66-1.55l-3.95-0.42l-0.57-0.85l-3.81-0.71l-0.71-1.27l-1.84-0.56l-2.4,0.28l-2.26,1.98
					l-0.14,1.13l0.42,1.27l-0.56,1.13l-2.12,0.99l-2.82-1.69l-4.09-0.99l-1.41-2.54l-2.97-1.27h-3.25l-2.12-0.99l-0.57-0.14l-0.42-0.99l-0.56,0.28l-0.99-0.56l-0.71-0.71v-0.42l0.57,0.14l0.14-0.7l1.55-1.27l0.57-1.27l-0.14-0.99l-0.85-0.57l-0.42-0.85l1.41-1.98
					l-0.14-0.57l-1.27,0.85l-0.42-0.14l-0.14-1.13l-1.27-0.28l-2.12,0.99l-1.84,0.28l-1.27-0.71l-0.71,0.57l-1.41-0.57l-2.26,1.13l-0.71-0.42l-2.26-0.14l-5.93,1.13l-2.12,0.99l-0.56,0.71l-1.98,0.28l-1.13,1.27l-1.55,0.57l-2.26-0.57l-2.96,0.42l-1.27-0.71
					l-0.99-1.27l-0.99,0.42l-1.84,4.38l-3.81,2.26l-1.69,1.98l-0.28,1.27l-1.27,1.7l-0.14,1.84l0.42,1.55l-0.71,1.27l-0.71,0.99l-2.96,2.4l-2.83,0.85l-0.14,0.42l-1.13,2.26l-2.12,1.84l-0.85,2.54l-1.98,2.68l-1.7,3.81l-0.56,0.28l-0.57,2.82l0.42-0.14l1.13,1.84
					l0.14,1.13l-0.7,0.99l0.99,2.12v1.98l-1.13,3.53v0.99l-0.71,1.27l-1.55,0.85l0.57,0.14l1.69,2.54l-0.56,0.56l0.14,0.71v1.41l1.98,1.69l2.26-0.56l-1.41,0.56l0.28,1.13l0.57,0.56l0.28,0.42l0.56-0.42l0.85,1.83l0.99,0.57l1.41,1.7l0.42,1.55l-0.28,0.28l0.71,0.99
					l1.13,1.13l1.98,0.85l4.8,4.1l3.96,1.69l0.71,0.14l2.54-1.13l2.96-0.7l3.67,0.14l2.54,0.99l4.8-2.26l1.84-0.14l0.57-0.71l1.55-0.42l1.84-0.14l3.25-0.14l1.27,0.57l0.42,0.71l0.99,0.85V274l1.7,1.27l1.41-0.42l0.57-0.57l2.26,0.42l0.28-0.85l0.28,0.28l0.28,0.42
					h0.71l0.28,0.99l1.55,0.14l-0.28,0.71l0.85,0.99l-0.57,2.4l-0.71,2.12l0.42,0.57v0.56l-0.42,0.42l1.13,0.85l-1.27-0.28l-0.14,1.55l-0.99,0.71l1.13,2.54l4.1,4.52l1.27,1.27l0.71,1.13l0.71,1.83v0.85l1.98,4.52l0.14,1.27l-0.42,0.85l0.42,1.83l0.99,1.13v1.13
					l-0.28,2.68l-1.55,1.41l-1.13,2.12l-1.55,4.94l-0.14,3.25l0.14,1.84l2.12,3.11l3.81,7.34l0.14,3.81l0.71,2.12l0.14,1.84l0.85,4.09l1.13,1.7l1.69,1.41l2.12,5.23l1.83,3.25l0.14,1.69l-0.43,0.56l-0.42-0.14l-0.14,0.71l1.27,1.98l0.14,0.99h0.71v0.71l2.68,0.99
					l0.85-0.71l3.25-0.28l1.55-0.85l5.08,0.42l0.29-0.56l1.69,0.28l0.14-0.85l3.11-0.56l3.1-2.54l3.39-3.81l2.96-4.94l2.26-1.98l0.99-4.38v-1.55l-0.28,0.56l-0.56-0.7l0.71-1.13l4.24-1.83l1.41-1.55l0.14-0.71l-0.42,0.71v-0.42l0.57-4.38l-0.28,0.14l-0.85-3.25
					l-0.71-0.71v-1.55l2.82-2.26l0.28-0.71l0.42,0.56l0.85-1.27l-0.29-0.28l1.98-1.55l3.53-1.27l1.55-1.27v-0.42l1.83-1.69l0.14-0.71l-0.42-0.14l0.71-1.13l-0.28-1.13h-0.28l-0.14-2.97v-2.54l0.85-1.84l-0.42-1.27l-1.27-0.85l-0.99-2.54l-0.42-1.27l0.71-2.82
					l-1.55-1.69l0.99-3.67l0.71-0.71l1.55-3.67l2.68-2.26l2.12-2.4l0.14-0.85l0.71-0.14l4.52-4.24l1.98-0.99l4.09-3.95l1.27-2.26l1.41-1.41l2.12-5.08l0.57-0.57l1.27-1.98l0.42-2.54l0.99-0.14l-0.71-0.14l0.28-0.42l-0.14-1.69l0.28-0.99l-1.13-0.42l-1.27,0.85
					l-1.98,0.42l-4.24,0.56l-1.69,0.99l-1.83-0.43l-1.7,0.99l-1.13,0.14l-2.68-2.54l-1.55-0.14l1.83-0.99l-0.14-0.99l-0.57-0.85l-1.41-0.99l-2.54-3.11l-1.69-0.85h-0.71l-0.7-1.13l-0.14,0.71l-0.28-0.14l-1.13-1.84l-0.85-3.53l-0.85-1.27l-2.4-1.98l-0.28-5.22
					l-0.7-0.85l-0.14-1.27l-2.82-2.54l-0.28-1.98l0.71-0.14l-1.41-1.27l-2.54-4.94l-1.13-3.67l-1.84-2.26l-0.71-1.84l0.42-1.13l1.69,3.67l1.7,1.98l0.71-0.28l0.85-3.81l-1.55-4.8z"/>
			</g>
			<text transform="matrix(1 0 0 1 410.5103 271.6411)"><tspan x="0" y="0" style="fill:#000000;stroke:none;">Africa</tspan></text>
		</g>
		<g>
			<g>
				<path d="M425.81,121.36l-1.55,0.42l0.85,0.85l1.13-0.56l-0.42-0.71z"/>
				<path d="M426.38,123.06l-2.54,0.42v0.99l0.56,0.42v0.85l0.57-1.27l1.98-0.71l-0.56-0.71"/>
				<path d="M408.73,137.6l-0.85-0.99v0.71l0.85,0.28"/>
				<path d="M399.55,137.46l-0.28,1.27l-0.14-0.56l0.42-0.71"/>
				<path d="M397.71,135.62l1.27-0.42l0.56,1.41l-0.14,0.71l-1.55,0.14l-0.85-1.69l0.7-0.14"/>
				<path d="M400.54,137.88l0.85,0.28l0.28,0.85l-1.7-0.42v-0.56l0.57-0.14"/>
				<path d="M401.67,137.88l0.71,0.28l-0.28,1.13l-0.42-1.41"/>
				<path d="M400.82,133.79l0.28,0.42l-1.41,0.71l0.56,0.42l0.28,1.55l1.13,0.14l-0.14,0.42l0.99,0.28v-0.85l0.57-0.14l-0.42-0.99l0.99-0.71l-0.71-1.84l-0.99,0.56v0.28l-0.28,0.99v-1.13l-0.85-0.14z"/>
				<path d="M360.3,107.95v-1.13l-1.13,0.14l1.13,0.99"/>
				<path d="M405.48,139.72l0.14,0.71l-1.27-0.28l0.14-0.71l0.56,0.28l-0.28-0.71l0.71,0.28v0.42"/>
				<path d="M420.03,189.28l-0.42-0.99h-0.42l0.85,0.99"/>
				<path d="M421.58,193.09l-0.28-0.99l-0.57,0.42l0.85,0.56"/>
				<path d="M424.4,192.39l-1.41,0.28l-0.57,1.13l1.13,1.41v1.13l0.42,0.42l0.42-0.85l0.71,1.7l0.71-0.99l0.99,0.99l-0.85-3.11l0.85,0.71l0.71-0.56l-0.71-1.27l-2.4-0.99"/>
				<path d="M430.9,194.22v-0.71l-0.57-0.14l0.57,0.85"/>
				<path d="M431.18,200.44l-1.55,0.14l-0.56-0.71h-0.85l-0.42,1.13l2.12,0.14l0.7,0.71l2.97-0.28l0.28-0.71l-0.71,0.28l-1.98-0.71"/>
				<path d="M431.04,188.01l0.14-0.42h0.56l0.14,0.14l-0.85,0.28z"/>
				<path d="M430.33,185.75l0.14-0.56l-0.56,0.28l0.42,0.28"/>
				<path d="M430.05,192.95l-0.99-1.55l-1.7-1.13l-0.85,0.56l2.54,1.7l0.56,0.85h0.42v-0.42"/>
				<path d="M395.74,183.63l0.71,0.56l0.42,1.27v3.81l-0.42,0.56l-0.56-0.14l-0.99,0.99l-0.71-1.13l0.14-1.84l-0.71-2.96l0.85,0.14l1.27-1.27"/>
				<path d="M410.14,192.39l-1.13,2.4l0.28,1.13l-0.28,0.85h-0.99l-0.85-0.85l-3.67-1.69l-0.28-0.85l0.28-0.71l1.27-0.14l1.13,0.71l4.24-0.85"/>
				<path d="M386.98,144.52l-0.99,0.99l0.57-0.99h0.42z"/>
				<path d="M378.94,190.13l-0.14,0.57l-0.42-0.14l0.57-0.42"/>
				<path d="M384.86,187.45l0.14,0.42l-0.85-0.42h0.71"/>
				<path d="M382.61,187.59v0.56l0.57,0.28l-0.71,1.13l-1.55-0.85l1.69-1.13"/>
				<path d="M394.19,100.18l1.13-0.7l0.57,0.56l-1.7,0.14"/>
				<path d="M410.14,70.53l0.57,1.13v0.85l0.71-1.69l0.71,0.56v0.99l-1.98,1.84l-0.28-0.99l-2.68,1.69l2.12-1.84l0.85-2.54"/>
				<path d="M388.4,106.68l0.28-0.71l-0.42,0.14l0.14,0.56"/>
				<path d="M415.51,129.84l1.69-1.84l-0.14-1.27l0.28-0.71h-0.7l-0.99,1.41l-0.14,2.4"/>
				<path d="M411.55,132.66l1.13-3.11l-0.99,1.55l-0.14,1.55"/>
				<path d="M407.6,171.63l0.57,0.85l-0.71-0.28l0.14-0.57"/>
				<path d="M396.16,178.55l0.42,2.4l-0.71,2.54l-1.13-1.27l-0.28-1.98l0.28-0.42l1.27-0.56l0.14-0.71"/>
				<path d="M425.53,116.7l0.42-1.13l-0.99,1.13h0.56"/>
				<path d="M419.74,115.29h-0.56l-0.14,1.13l0.85,0.42l-0.14-1.55"/>
				<path d="M363.69,135.06l0.28,0.99l0.14-0.99h-0.42"/>
				<path d="M372.58,114.16l-0.71,1.69l0.71,0.28l-0.14,1.27l0.42-0.56l0.14-1.69l-0.43-0.99"/>
				<path d="M361.85,141.55l1.27-1.13l-0.28-0.85l0.28,0.57l0.14-0.42l-0.99-0.56l0.14-1.13l-0.56-0.99l-2.26,0.57l0.42-0.71l-0.85-0.42l-0.42,1.41l-0.14-0.99l-1.13,0.42l-1.41,1.69l1.27,0.28l-0.85,1.41l-2.54-0.28l-0.42,0.71l0.14,0.56h-0.57l1.13,0.71
					l-0.99,0.85l0.42,0.85l1.98,0.57l-1.84,2.26l1.98-0.85l0.42,0.57l-1.98,0.42l-0.71,1.13l-0.99,0.14l0.99,0.42l-0.85,0.85h1.41l-0.99,0.85l1.27-0.42l-0.42,0.85l0.99-0.14l3.81-2.12l2.54-0.14l0.71-2.82v-2.26l-0.57-1.41l0.42-0.42z"/>
				<path d="M361.43,127.01l-0.85,1.13l1.83,1.27l0.28-0.57l-0.71-0.14l-0.57-1.69"/>
				<path d="M362.7,132.38l-0.71-0.99l-0.43,0.14l0.43,0.85h0.71z"/>
				<path d="M363.26,133.51l-1.13,1.13l0.56-1.13h0.57z"/>
				<path d="M361.71,134.35l-0.57,0.71l0.85,0.14l-0.28-0.85"/>
				<path d="M365.66,140.14l-0.71,1.27l0.71-0.42v-0.85"/>
				<path d="M366.51,144.38l-0.99-0.71l0.57,0.71h0.42z"/>
				<path d="M370.04,154.12l1.98-0.56l0.43-0.71l1.27,0.56l3.95-0.71l0.99-1.27l-1.55-0.14l-0.28-0.56l2.26-2.26l0.14-2.12l-0.99-0.85l-2.68,0.42l0.71-1.69l-1.55-1.55l1.13,0.42v-0.7l-1.69-2.83l-1.13-0.42l-0.99-3.53l-2.26-1.84h-1.55l1.41-0.85l-0.71-0.99
					l0.71-0.14l0.85-1.41l0.99-2.26l-0.14-1.13l-5.08,0.56l-0.28-0.56l0.99-0.56l-0.56-0.42l2.12-1.83v-1.13l-0.42-0.14l-3.53,0.42l-0.42,1.27l-0.56,0.14l-0.14,0.56l0.42,0.57l-1.13,0.56l0.28,1.13h-0.42v0.71l0.71,0.28l-0.71,2.12l-0.71,0.28l0.99,0.99l0.99-0.56
					l-1.13,5.08l0.99-1.69l-0.28-0.99l0.71-0.85l-0.28,1.41l0.71-0.71l0.57,0.42l-0.42,0.99l0.42,0.85l-0.71,2.12h-0.42l0.42,0.99l0.28-0.71l0.99,0.71l0.14-0.57l2.82-0.42l-1.27,1.69l0.99,1.55l1.13-0.56l-0.71,1.69l0.42,0.14l-0.42,0.99l0.28,0.28l-1.98,0.28
					l-1.98,1.83l1.27-0.42l0.42,1.55l-0.42,0.85l-2.54,1.55l0.57,0.85l1.27-0.57l0.28,0.71l0.99-0.28l0.99,0.99l1.98-0.99l-1.13,1.55l-2.4,0.28l-3.25,3.95h0.99l0.99-1.13l2.26,0.28l0.57-1.27l1.41-0.42l0.71,0.71"/>
				<path d="M361.57,123.76l-1.69,0.99v1.84l1.41-0.99l-0.14-0.56l0.57-0.42l-0.14-0.85"/>
				<path d="M439.35,113.14l-0.83-0.67l-0.17-2l1.17-2.17l4.17-3.83l1.33-1.83l0.67-2l-0.83-1.17l-1.17-0.83l-0.33-1.67l-0.17-5l-0.5-0.67l-0.83-1.5v-2.17l0.33-1.33l1.5-0.17l-0.83-1.5l-0.67-1.33l-0.5-2.17l-1.33-0.5l-0.67-1l0.67-1.67l1.33-0.67l0.5-0.83
					l-0.67-2.17l-1-1l0.5-1l-1.5-1.17l-1.5-0.33v-1.33v-1.33l0.33-0.83l1-0.83l1.86-0.61l0.71-1.27l-2.82-1.84l3.11,0.42l2.12-2.26l-2.26-1.98l-1.41,0.28l-0.28-1.27l-1.41,0.71v1.98h-1.27l0.71-1.13l-1.27,0.14l0.71-0.56l-0.42-0.42l0.99-0.28l0.28-1.13l-1.83-0.85
					l-1.27,4.24l-0.99,0.56v-3.67l-3.39,5.79l-0.42-0.42l0.56-2.26l1.55-2.54l-1.41,0.42l-0.56-1.27l-1.41,0.99l0.71,1.13l-2.97,2.97l-0.14,1.55l-0.85-0.85l0.14-0.56l-1.27,0.42l-0.99-1.13l-0.28,0.99l-0.57-0.99v1.13l0.99,0.28l0.14,2.4l-1.69-1.98l0.14,0.71
					l-1.41,0.42l-0.28,0.56l0.14,0.99l-0.85,1.55l0.14-1.13v-2.54l-1.13,1.27l-0.28,1.84l-0.14-2.12l-0.99,0.14L417.77,67l0.99,1.7l-1.7-1.98h-0.57l0.85,1.27l-0.42,0.42l-0.85-0.42L415.93,67l-0.42,1.27l0.28,0.56l-1.41,1.13l0.71,0.99l-0.42-0.14l0.14,0.71
					l-2.68,1.41l2.4,0.42l-0.71,0.85l-2.12-0.28l0.14,2.26l-0.56,0.42l-0.56-1.55l-0.99,1.69l0.28,0.99l-0.71,0.71h1.13L407.88,79l-0.85,2.82l-1.98,1.69l-0.14,0.71l0.42,0.14l-0.71,0.42l0.56,1.13l-1.97,1.84l1.13-0.57l0.28,0.99l-0.85-0.42l-0.14,1.41l-0.56,0.14
					l0.42,1.41l-0.85-0.99l-0.42,1.55l0.57-0.42l0.14,0.99l-2.26,1.27l-0.14,0.85l0.28,0.14l-0.14,1.13l-0.99-0.28l-1.84,2.4v0.71l-0.85,0.56l0.99,1.55l2.54-1.27l-2.68,2.12l-0.85-1.27l-0.99,0.56l0.28,0.71l-0.42,0.28l-0.28-0.85l-1.13,0.42l-2.26,2.12l-1.41,0.71
					l1.41,0.85l-0.14,0.56l-2.54,0.14l0.56,0.28l-0.28,0.42l0.14,0.99l-0.56-0.85l-0.71,0.99l0.28,0.56l-2.12-0.42l0.14,0.99l2.54,0.14l-2.97,0.71l0.56,0.56l-0.56,0.99l0.14,1.27l2.68-0.14l0.42-1.13v0.85l1.13,0.14l1.13-1.69l-0.42,1.55l0.71-0.14l-1.27,0.71
					l0.14,0.71l-0.57,0.28l-0.42-0.99l-3.53,0.71l0.42,0.42v0.57l-0.71-0.28l0.42,0.85l1.13-0.42l-1.13,1.55l0.28,0.85l0.57-0.56l0.14,0.85l-0.42,0.42l0.14,0.42l1.84-2.82h1.55l-0.85,0.99l-0.28-0.56l-1.7,2.68l1.27,0.14l-2.4,1.55l0.14,0.56l2.26-0.85l-0.85,2.54
					l-0.71-0.28l-0.28,1.27l1.84,1.84l0.85-0.42l-0.14,1.27h2.26l3.11-2.4l1.13-1.98l1.27,0.28l0.56-1.13l-0.42-1.84l0.56,0.71l-0.14-1.27l0.42-0.28l0.28,2.96l0.99,0.57l-0.14,0.57l0.14,1.98l0.28,0.99l0.56-0.42l0.14,0.42l-0.57,0.56l0.71,0.28v0.99h0.42
					l-0.14,1.84l2.4,3.39l-0.71,0.56l0.28,0.71l-0.57,0.14l1.13,2.26l-0.42,0.85h2.83l0.7-2.54l3.39-0.42l1.55-5.22l-0.28-1.98l0.42-0.14l0.14-1.55l-0.85-0.56l0.99-0.28l-1.41-0.42l1.7-0.28l1.27-1.55l0.85,0.57l0.85-0.99v-0.56l0.7-0.28l-2.97,0.28l-2.12-0.85
					l1.55-0.42l1.98,0.85l1.41-0.71l0.71-1.55l-1.13-1.69l0.28-0.14l-1.98-1.55l-1.55,1.98l-1.41,0.28l1.98-1.41l-0.14-4.94l0.14-0.85l0.56,0.28l0.28-2.82l-0.42-1.27l0.7,0.28l0.42-0.71v-1.55l0.43,0.71l0.71-0.99l0.99-1.55l3.96-2.4l2.4-3.11l-0.99-2.12l0.99-1.7
					L422.99,91l1.41-1.13l-0.42-0.99l0.85,0.71l0.42-1.55l3.39,0.71l0.28-0.99l2.68,2.68l0.56,2.54l-1.98,0.85l-0.28,1.41l-3.96,5.23l-1.13,1.27h-1.13l-0.14,1.13h-0.71l-0.85,1.69l0.56,1.98l-0.14,0.99l0.99,2.54h-0.42v1.41l-0.43,0.99l0.43,0.99l-0.28,0.56
					l2.68,1.69l0.71-0.42l0.57,1.69l0.57-0.42l0.28,0.56l1.98-0.42l3.39-1.84l3.95-0.56l2.12-0.56l0.4-0.6z"/>
				<path d="M462.53,165.28l-7.48,2.12l-0.99,0.99l-0.42-0.56l-0.56,0.99v0.71l-0.42-0.71l-0.42,0.57l-0.85-1.13l-0.14,0.56l-0.7-0.14l0.99,0.99l0.85-0.14l-0.14,0.56l0.85,0.28l0.42,1.13l3.39-0.42l-0.29,1.27l-2.12-0.28l-3.39,2.26l-1.27-0.42v-1.84l-1.98-0.85
					l2.82-1.69l-0.28-0.42l-4.09-0.42l0.42-0.56l-0.85-0.28h1.27l-0.71-0.99l-2.68,0.85l-0.42,1.13l-0.85-0.71l0.56,1.13l-1.41,1.27l-0.28-0.71l-0.14,1.27h0.14l-0.28,1.98l-1.41,0.99l0.42-0.99l-0.28-0.57l-0.56,3.67l-0.42,1.13l-1.13,0.85l-0.14,1.13l-0.85,0.85
					l1.13,1.69l0.28,1.13l1.98,0.85l-0.14,0.71l-3.11,0.14l-3.1,2.54l0.14-0.85l1.27-0.71l-1.69-0.28l-2.4-0.71l-1.27,0.14l-1.7,0.99l1.41,1.13l-1.13-0.42l0.42,1.13l-1.13-0.85l0.14,0.99l-1.55-1.55l0.14-0.42l-0.57,0.14v1.69l1.41,2.4l-0.85-0.56l0.14,0.99
					l-0.99,0.14l3.25,2.12l0.14,1.41l-0.99-0.85l-1.55-0.14l0.56-0.42l-1.13-0.56l-3.39,0.14l-0.85-1.55h0.85l-0.14-0.28l-0.71-0.28v0.28l-1.27-1.98l-1.98-2.26h0.28l-0.14-2.68l0.42-1.27l-0.56-0.28l-3.11-2.82l-1.83-0.56h0.99l-1.41-1.27l-1.98-0.28l-1.83-1.98
					l0.56-0.56l-0.85-0.56l-0.43-1.69l-0.7-0.71l-0.42-0.14l-0.85,1.55l-0.28-0.14l-0.56-0.99l0.14-1.13v-0.57h-0.99l-2.12,1.13v0.85l0.42,0.42l-0.42,1.13l0.42,1.41l2.4,1.69l1.27,3.11l1.27,1.41l1.13,0.85l1.83-0.42l0.28,0.28l-0.42,1.27l4.38,2.12l1.27,1.84
					l-0.28,0.71l-0.99-1.13l-1.55-0.85l-0.99,0.56l-0.56,1.69l1.27,0.85v1.27l-0.99,0.42l-0.28,1.41l-0.99,1.27h-0.71l-0.14-0.85l0.28-1.27l0.85-0.42l-1.27-3.67l-0.42,0.42l-0.99-0.71l-0.42-1.27h-0.99l-1.41-1.84h-1.55l-3.11-3.25l-0.99-0.14l-1.41-1.98
					l-0.85-2.82l-3.11-1.27l-1.41,1.41l-1.27,0.28l-3.11,2.4l-2.4-0.99l-2.26-0.42l-1.84,1.13l-0.28,0.99l0.14,1.27l0.42,0.42l-0.57,1.41l-4.94,2.97l-2.54,4.09l0.28,1.13l0.85,0.57l-0.14,0.42l-1.13,0.99l-0.71,1.98l-1.27,0.14l-1.55,2.12l-5.22,0.14l-2.4,1.84
					l-1.27-0.56l-1.27-2.26l-1.84-0.43l-3.25,0.43l0.42-4.1l-0.99,0.28l-0.71-0.85l1.7-6.35l-0.28-2.54l0.28-1.55l-0.28,0.14l-0.28-0.56l0.28-0.57l-0.99-0.99l0.57-0.85l1.27-0.14l0.57-1.13l14.12,0.99l0.99-0.71l0.85-3.39l-0.42-0.28l0.42-2.4l0.71,0.85l-0.99-1.55
					v-1.7l-1.55-0.71l-0.56-0.99l-0.14-1.27l0.85-0.14l-1.55-0.14l-0.14-0.71l-3.25-1.13l-0.85,0.14l-0.71-0.85l0.57-0.14l-0.43-0.42l0.43-0.42l-0.85,0.14l0.14-0.71l2.83-0.99l1.84,0.85l2.54-0.14l-0.85-3.67l1.27,0.14l0.56,0.99l3.39-0.28l-0.71-0.14l0.28-0.85
					l2.97-1.69l0.28-2.4l2.12-0.71l1.55-0.85l1.83-0.14l-0.85-0.42l2.12-0.71l-1.27-0.14l-0.28-0.56l1.83-3.67l0.42,0.71l-0.42,0.28v0.85l0.85,0.42l-0.14-0.85l0.57-1.27l-0.42-0.14l0.14-1.27l2.68-0.71l0.85,0.71l0.99,0.14l-0.99-0.85l0.42-0.85l0.99-0.14
					l0.71,0.14l0.28,0.85l0.71-0.42l0.42,0.85l-0.14-1.69l1.13-0.42l-0.99-1.69l0.71-0.71l-0.71-1.55v-1.69l-1.27-0.85l-0.14-3.25l0.56-2.12l4.66-3.39l0.14,1.98l-0.99,2.54h0.57l-0.28,0.71l1.55-0.14v0.71l-0.85,0.71l-0.42-0.28v0.99l-0.99,0.28l0.14,0.71h-0.71
					l0.28,0.42l-0.56,1.98l0.56,0.85h-0.42l0.71,0.28v1.13l0.42,0.57l2.12,0.14l-0.57,1.41h1.55l2.54-1.98l-0.42,0.71l1.27-0.42l2.68,2.4l0.71,0.28l0.14-0.56l-0.57-0.14l0.28-0.28l6.35-3.11l3.11-0.14l0.28,0.71l-0.71-0.28l0.71,1.55l1.83-0.71l0.99-1.84l1.7-0.85
					l-0.42,0.57l1.13,0.42l0.28-1.27l-0.7-3.81l0.14-2.12l1.55-3.25l1.83-0.85l1.84,2.68l1.69,0.56l0.42-1.13l0.42-4.8l-1.84,0.14l-0.42-1.27l0.56-0.42l-0.71-0.28l0.14-1.69l4.8-1.98l4.8,0.99l0.42-0.14l0.14,0.76l-1.17,1.33l-0.17,2l1.17,1.5l0.33,3.33l0.83,2
					l3.67,1.5l1.5,2.33l-0.33,2.17l1.33,1.33l2,1.33l1.5,2.33l-0.33,1.17l-2,0.83l-0.5,2.5l0.83,1l1.17-0.83h2.17l1.83,1.67l-0.5,1.33l1.33,0.67h1.17l0.83,3.5l3.67,0.17l3,1.5l3.17,1l1,4.67l-1.5,2.17l-1.33,1.5l0.18,1.13z"/>
				<path d="M468.68,182.31l2.5,0.5l1.83,1.67l1,2.5l1.17,1.83l-0.5,4.17l0.83,1.33l-3,0.17l-3,0.5l-1.33,1.5l-4.33-0.67l-6,0.5h-1.83l0.02,0.6l-0.42-0.42l-1.13,0.85l-1.41-0.57l-0.85,0.14l-0.85,0.99l-2.82,0.85l-4.24-2.4l-0.71,0.14l-0.28,1.55l-1.41,0.42
					l-1.27-0.42l-0.42-1.13l-0.56,0.28l-0.57-0.56l-1.13,0.56v-0.42l-1.41,0.28l1.98-1.13l-2.12,0.14l0.42-0.56l-0.71-0.57l0.28-0.56l-0.71-0.28l0.14-0.85l-1.84-0.71l0.28-1.13l0.42,0.71h1.13l-0.85-0.71l0.42-0.56l-0.57-0.99l0.28-0.99l-1.55,0.14l0.56-1.55
					l0.85-0.99l2.26,0.14l-0.14-0.57l2.54,0.28h0.42l-0.42-0.56l0.42-0.14l1.83-0.14l-1.55-0.42l-0.28-0.42l0.42-0.71l4.24,0.71l2.68-2.12l2.26-0.85l3.96-0.14l1.13,1.13l0.99-0.14l0.57,1.27l3.81,1.13l2.82-0.56l2.26,0.28l2.54-1.83l0.42-0.28l0.5-0.19z"/>
			</g>
			<text transform="matrix(1 0 0 1 395.8452 162.9751)"><tspan x="0" y="0" style="fill:#000000;stroke:none;">Europe</tspan></text>
		</g>
		<g>
			<g>
				<path d="M792.91,147.11l0.42,0.28l-0.56,0.14l0.14-0.42"/>
				<path d="M788.96,147.25l0.56,0.42l-1.41,0.57l0.85-0.99"/>
				<path d="M783.17,149.37l0.56-0.71l0.57,0.71l-0.85,0.56l-0.28-0.56"/>
				<path d="M781.47,149.79l1.27-0.85l-0.28,0.56l-0.99,0.28"/>
				<path d="M780.06,148.94l1.27,0.14l-0.42,0.85l-0.85-0.99"/>
				<path d="M775.26,148.52l0.28,0.28l-0.28,0.14v-0.42"/>
				<path d="M770.88,148.1l0.14,0.71l-0.85,0.42l0.7-1.13"/>
				<path d="M759.44,145.27l1.83,0.14l-0.85,0.42l-0.99-0.57"/>
				<path d="M801.1,101.36l-1.84,1.13l-4.8-2.26l0.28-1.41l1.83,0.85l1.56-0.28l1.69,1.55l1.27,0.14v0.28z"/>
				<path d="M800.25,145.7l0.85-0.57v-0.85l-0.85,1.41"/>
				<path d="M745.32,136.09l0.42,0.14l0.99,2.26l-0.99-0.57l-0.85-1.55l0.42-0.28"/>
				<path d="M707.34,170.83l-4.23,2.97l1.97-2.68l0.85,0.14l1.27-0.85l0.14,0.42"/>
				<path d="M701.27,173.8l0.42,0.42l-1.84,1.98l-0.14-0.42l1.55-1.98"/>
				<path d="M506.55,63.52l-0.71-1.55h0.85l-0.56-0.42l0.85-1.13l3.53,4.38l-1.7,0.57l-1.84-1.55l0.14,0.85l-0.56-1.13"/>
				<path d="M495.11,36.26l3.11-2.96l2.26,0.99l-2.26-1.69l1.27-0.42l-0.99-0.85l1.84-0.28l-1.13-1.84l2.54-0.28l-2.26-0.57l0.57-1.69h-0.85l-0.14-0.85l0.28-1.13l1.13,0.99l3.11-1.98l2.83-4.66l3.81-2.97l0.42,0.28l-0.56,1.13l1.41-0.71v-2.26l3.11,1.27l4.24-1.41
					l6.78-6.21l2.4,0.42l1.27,2.54l-0.56,1.55h0.56l-1.41,3.11l-10.17,4.94l-0.57-0.85l-4.94,5.65h-1.98l-0.28,0.71l0.85,0.71l-1.13,1.98l-1.69-0.57l0.99,1.84l-1.98-0.99l0.42,1.13l-0.71,0.99l-1.41-1.41l1.13,2.82l-1.41,1.98l-1.27-2.12l-0.56,1.55l1.27,1.13
					l-0.14,1.27l-2.26-0.71l1.55,1.7l-1.41-0.42l0.71,1.84l-0.99,1.55l-3.53-1.41l-2.26,0.57l2.12-2.68l-2.4,0.57l-0.71-1.27"/>
				<path d="M495.25,40.22l2.96-0.85l3.11,1.84l-1.69,1.69l1.27-0.28l-0.14,0.85l-1.55,0.85l0.85,0.28l-0.99,1.98v3.67l1.41,5.08l3.39,3.25l-1.69,0.71l0.99,0.28l-0.42,0.42l-0.99-1.55l-0.99,0.42l0.57,0.71l-2.26-0.85l-0.71,0.99l-0.99-1.13l0.56-0.28l-2.54-0.14
					l-0.28-1.55l1.41-0.42l-1.69-1.13l0.99-1.55l-1.27,1.27v-1.69l-3.95-0.28l-0.42-1.41l0.28-1.98l1.69,0.14l1.55-4.1l-0.42,0.42l-0.85-1.98l1.98-0.99l-0.56-0.28l0.42-0.28l-0.42-0.85l1.41-1.27"/>
				<path d="M483.96,66.9l1.13-0.42l2.54,2.68l-2.96,2.4l-1.55-0.85v0.85l-0.29-0.85l0.14-1.98l0.99-1.84"/>
				<path d="M776.67,52.93l1.84-0.28l3.25,2.26l-0.43,1.27l-2.82,1.13l-2.26-0.56l-2.4,0.99l-0.71-1.27l2.96-3.53h0.57"/>
				<path d="M689.55,33.16l-0.99-1.27l-0.99,1.13l0.14,1.69l0.71,0.56l1.13-2.12"/>
				<path d="M701.41,21.15l5.08,1.55l-0.85,1.13l6.49,1.27l-0.99,2.26l-3.39,0.85l-4.66-2.68l-1.69-4.38"/>
				<path d="M687.15,18.61l0.99,0.28L688,20.59l1.13,0.14l0.28-1.41l-0.28-2.26h1.69l1.98,2.68l-0.71,2.68l0.42,2.12l2.26,1.98l-2.4,0.85l-0.99-1.98l-4.38,2.4l-0.28-0.42l0.56-0.28l-0.71-1.55l-0.56,0.28l-0.14,0.99l0.42-0.14l-0.57,1.83l-2.96-0.99l-2.82-4.38
					l1.41-0.28l-1.13-1.98l1.55-1.84l-0.71-1.41l3.81-2.54l2.26,3.53"/>
				<path d="M678.11,21.15l-0.28,1.84l-0.71-0.71l0.28-3.81l0.99,2.12l-0.28,0.56"/>
				<path d="M678.53,33.86l0.56,0.85l-0.42,0.56l-1.41-2.82l1.27,1.41"/>
				<path d="M741.65,120.28l-1.55,0.85l0.28,0.14l-0.99,2.12l2.82-2.12l-0.56-0.99"/>
				<path d="M693.36,139.91l0.57,0.71l0.99,4.94l-0.42,1.98l0.28,2.68l2.26,7.63l0.99,2.12l-1.98-1.98l-1.69,0.42l-0.99,5.22l1.13,2.4l0.85,0.42l0.14,1.69l-0.14,0.57l-0.28-1.55l-1.7-0.42l-0.99,2.26l-0.43-0.28l-0.14-1.98l0.71-4.38l-0.71-2.26l0.71-4.38
					l-0.42-2.54l0.28-1.84l-0.99-1.69l-0.14-2.26l0.42-4.24l1.41,0.14l0.56-0.99l-0.99-2.12l0.71-0.28"/>
				<path d="M641.68,258.8l0.28,2.12l-1.69,1.27l-0.14,0.56l-1.84,1.69l-1.55,0.85l0.42-0.99l3.81-3.39l0.71-2.12"/>
				<path d="M645.07,271.08l0.28-0.42l0.7,0.28l-0.14,0.28l-0.85-0.14"/>
				<path d="M646.9,269.39h1.13l-0.71,0.42l-0.42-0.42"/>
				<path d="M654.95,262.47h0.42l1.27,1.27l0.28,0.85l-0.28,0.42l0.28,0.28l0.57,2.12l-0.71,2.54l-0.71-2.12l-0.99,0.99l-0.14,0.57l0.71,1.13l-0.56,1.13l-0.42-0.99l-0.85,0.42l-1.55-0.99l-0.42-1.55l0.42-0.99l-1.13-0.99l-0.71,0.99l-0.42-0.57l-0.71,0.85
					l-0.14-0.85h-0.42l-0.85,1.7h-0.57l-0.14-0.42l0.85-1.98l1.27-0.42l1.13-1.13l0.85,0.28l-0.14,1.27l0.99-0.42l0.28-0.71h0.71l0.42-0.99l1.55-0.14l-0.14-1.55"/>
				<path d="M651.42,262.19l0.85-0.71l0.85,0.14l-0.14,0.99l-1.27,0.14l-0.28-0.56"/>
				<path d="M651.85,259.08v1.83l-1.41,2.12v-0.85l1.41-3.11"/>
				<path d="M655.24,261.48l0.28-0.56v1.27l-0.28-0.71"/>
				<path d="M652.55,258.52l1.41,0.71l0.57,2.12h-0.42l-0.14,0.42l-0.42-0.56l-0.28-1.41l-0.42,0.14l-0.28-1.41"/>
				<path d="M649.44,259.93l0.42-0.28l0.85,0.28v0.28l-0.71,1.98v1.55l-0.28,0.28l-1.41-1.55l0.14-0.57l0.56-0.14l0.42-1.84"/>
				<path d="M647.19,257.67l1.13,0.56l1.41,0.14l-0.14,0.99l-2.26,1.55l-0.14-3.25"/>
				<path d="M652.55,256.12l1.98,0.14l0.56,0.56v1.41l0.56,1.27l-1.13-0.14l-1.98-3.25"/>
				<path d="M650.15,255.98l1.55,1.27l0.14,0.56l-1.13-0.84l-0.71,0.28l0.14-1.27"/>
				<path d="M647.33,256.26l0.28-0.28l-0.28,0.99v-0.71"/>
				<path d="M647.04,254.28l-0.14-0.42l0.57,0.14v0.56l-0.42-0.28"/>
				<path d="M647.04,250.47l0.28-0.14v0.85l-0.28-0.71"/>
				<path d="M647.89,242.56l-0.14,2.26l0.71,1.27l-0.85,1.84l-0.85,0.56l-0.71,1.27l0.42,2.12l0.85,1.13l0.57-0.14v-0.57l0.99-0.28l0.99,1.41l0.28-0.71l1.27,0.57l-0.56,0.42l0.56,0.71v0.42l0.57,0.28l-0.14,0.99l-0.42-0.57l0.28-0.14l-1.41-0.56l-1.41-1.7
					l-0.42-0.14l0.42,1.55l-1.69-1.55h-0.71l-0.57,0.57l-1.41-0.28l-0.14-0.85l0.57-1.13l-0.71-0.28l-0.14,0.85l-0.99-1.55l-0.7-2.54l1.27,0.14l0.56-5.51l0.28-0.28l2.12,0.71l0.7-0.14l0.14-0.43l0.42,0.28"/>
				<path d="M643.66,254.14l1.55-0.14l0.99,0.71v1.84l-0.57,0.28l-1.27-2.26l-0.7-0.42"/>
				<path d="M553.85,262.19l-0.28,0.14l0.71,0.57l-0.42,0.28l-0.57,2.83H553l0.28,2.96l0.85,1.7l1.27,0.14l2.26-1.69l0.14-1.83l-2.12-3.67l-1.27-1.27l-0.56-0.14"/>
				<path d="M621.63,238.61l0.85,0.14l0.28,0.85l-1.13,1.98l-1.69,1.41l-1.98-0.56l-0.42-1.98l1.98-1.55l2.12-0.28"/>
				<path d="M646.06,226.18l0.85,0.56v0.99l-2.26,6.5l-1.41-2.12l-0.28-1.83l1.98-3.53l1.13-0.56"/>
				<path d="M582.52,253.72l-0.85,3.81l0.28,0.71l0.57-4.52"/>
				<path d="M698.73,175.07l0.85-0.56l-0.57,1.41l0.42,1.27l1.13-0.14l-0.28,0.42l-4.09,1.41l-1.41,2.68l-2.97-1.83l-1.55,0.42l-1.55-0.28l-0.43,0.42l0.28,0.56l1.55,0.99l-2.4,1.13l0.14-1.69l-0.71-0.71l0.14-0.85l1.27-1.13v-1.13l1.84,0.28l0.28-0.71v-0.99
					l0.56-0.99l0.28-2.12l-0.28-1.69l0.42-0.57l3.53,3.67l2.54,1.13l0.99-0.42"/>
				<path d="M663.71,218.27l0.56-0.14l-0.56,0.71v-0.56"/>
				<path d="M660.18,223.07l0.85-0.85l-0.99,1.69l0.14-0.85"/>
				<path d="M651.14,228.16l0.28,0.28l-0.28,0.14v-0.42"/>
				<path d="M666.39,213.33l-0.14,0.42h0.42l-0.28-0.42"/>
				<path d="M667.1,204.15l-2.68,1.84l0.57,0.71v0.28l-0.42-0.42l0.14,1.13l1.13-0.14v-1.41l0.57,0.99l0.14,0.99l-0.71,1.13v1.69l0.71,0.42l0.14-1.41l0.28,0.14v1.55l1.13-0.99l1.55-3.67l-0.28-0.99l-0.56-0.14l0.14-0.99l-0.99,0.14l-0.85-0.85"/>
				<path d="M690.11,183.11h0.56l0.14,1.98l1.41,3.53l-1.27,3.39l-0.99,0.28v3.53l-0.85,1.83l0.28,1.69l-0.99,1.41l-0.99,0.71l0.43-1.98h-0.57l-0.42,1.27l-0.85-0.28l-0.71,1.69h-0.29v-1.13h-0.28l-1.13,1.27h-2.4l0.42-0.42h-0.85l-0.28-0.85l-0.57,1.13l0.71,0.57
					v0.56l-1.13,0.14l-1.41,1.84l-1.27-1.41l0.42-1.84l-2.26-0.14l-1.13,0.85l-3.11,0.28l-0.85,1.13l-2.54-0.28v-0.85l0.99-0.28l3.25-2.96l5.37-0.57v0.42l1.13,0.14l0.71-0.57v-1.27l1.13-1.27l0.57-1.84l0.71-0.42h0.42l-0.85,0.99l0.14,0.99l3.11-1.55l1.98-1.83
					l0.99-2.54l0.71-1.98v-0.56l-0.71-0.56l0.57-0.71v-1.27l0.99-1.7l0.71,1.13l0.85-0.28l0.28-0.99l-0.85,0.42l-0.14-0.57l0.14-0.42l0.57,0.14"/>
				<path d="M607.37,280.83l-0.28-0.28l-0.42,0.42l0.71-0.14"/>
				<path d="M587.88,271.65h1.13l1.41,0.71l2.68,0.28l1.7,2.26l2.4,1.55l2.68,2.68l0.56,0.28l0.43-0.28l0.71,0.99l1.41,0.71l0.42,0.56l0.14-0.28l0.71,0.56l1.13,0.14l-0.14,1.27l-0.14,0.28l0.99-0.42l0.56,0.42l0.28,0.57l-0.57,0.57l0.28,0.14l-0.42,0.85l0.14,0.42
					l1.83,0.57l0.42,1.7l0.85,0.42l-0.28,0.71l1.83,0.14l0.85,1.27l-0.42,6.21l-0.99-0.71l-0.57,0.56l-0.7-0.56l-0.28,0.14v0.71l-1.98-1.98l-2.83-1.98l-0.71-1.13l-2.68-2.83l-1.55-3.67l-1.13-1.41l-1.13-0.71l-0.99-3.11l-0.7-0.71l-1.7-0.71l-0.28-1.13l-1.13-1.41
					l-1.13-0.57l-2.4-2.26l-0.71-1.83"/>
				<path d="M660.6,279.13l0.14,2.12l-0.84,0.85l0.42,0.14l1.27-1.55l0.71,0.42v0.56l-0.85,0.71l1.13,1.13l-1.84-0.42l-0.14,0.14v1.41l0.71,1.41l-1.13-1.41l-0.85-3.11l0.42-1.41l0.85-0.99"/>
				<path d="M656.36,290.85l1.55-0.14l0.99,0.71l0.14,0.56l-0.99,0.71l-0.57-0.14l-0.85-0.7l-0.28-0.99"/>
				<path d="M652.69,287.74l1.98,0.28l-1.55,0.56l-0.42-0.85"/>
				<path d="M645.35,281.11l-0.71,0.28l-0.42,0.85l-0.71-0.14l-0.56,0.42l-0.71,1.7l0.14,1.13l-0.85,1.55v1.27l-0.99,1.83l0.28,1.84l0.99-0.14l0.42,1.41l-0.71,2.68l0.71,0.85l1.7-0.28l-0.14-4.8l-0.28-0.56l1.27-1.13l0.57,0.28l-0.28,1.41l0.28,0.56l1.13,1.13
					l0.14,1.55h0.57l0.7-0.71l1.27-0.42v-0.42l-0.42-0.14l-0.71-0.99l0.42-0.99l-2.4-3.11l0.71,0.14l1.41-0.56l1.13-1.41l1.27-0.14l-0.14-0.71l-0.56-0.14l-0.71,0.56l-1.55,0.14l-0.14,0.28l-0.85-0.14l-1.27,1.13h-0.85l-1.27-1.41l0.42-2.26l0.28-0.42l1.98-0.14
					l6.5,0.28l1.98-2.26l-0.28-0.71l-2.54,1.83h-2.26l-3.95-0.99"/>
				<path d="M632.36,299.18l0.71,0.14l-0.42,0.28l-0.28-0.42"/>
				<path d="M626.85,299.46l2.54-0.14l0.28,0.42l-1.27,0.28l-1.27-0.14l-0.28-0.43"/>
				<path d="M636.45,302.71l1.13,0.14l0.71,0.57l0.71-0.28l-0.85-0.56l0.28-0.57l0.57,0.57l0.71-0.14l0.28,0.56l0.56-0.56l0.57,0.99l-1.13,0.28l-0.42-0.28l-3.25,0.85l-0.56-0.99l0.71-0.57"/>
				<path d="M642.81,302.85l1.55-0.56l1.84,0.85l1.27-0.28l0.85,0.28l0.99-0.71v-0.56l0.28,0.71l-0.99,0.85l-3.24,0.56l-2.69-0.42l0.14-0.71"/>
				<path d="M654.25,304.97l-0.85,1.41l-1.69,0.71l-0.85-0.14l0.56-1.69l2.12-0.99l0.71-0.99l4.66-0.57l-0.14,0.71l-4.52,1.55"/>
				<path d="M660.6,291.84l-0.14-0.57l0.7-0.85l2.97-0.14l2.12,0.57l0.85,1.41l-0.14,0.42l-2.4-1.13l-1.13,0.14l-0.71-0.42l-0.85,0.57l-0.85-0.71l-0.42,0.71"/>
				<path d="M666.67,286.33l0.71-0.14v0.71l-0.42-0.14l-0.28-0.43"/>
				<path d="M666.11,284.36l0.57-0.14l1.27,0.57l-0.85,0.28l-0.99-0.71"/>
				<path d="M660.88,292.55v-0.42l0.56-0.28l-0.56,0.7"/>
				<path d="M634.62,291.42l0.28,1.27l-0.42,0.42l-0.14-1.13l0.28-0.56"/>
				<path d="M632.22,273.2l-0.57-0.42l-2.12,1.13l-0.42,0.99l-2.12,2.4l-2.68,0.42l-0.42,1.27h-0.57l-0.28,1.55l-2.26-0.42l-0.85-0.71l-1.13,1.13l-0.43,2.4l0.57,2.12l0.99,0.57l0.56,1.13l0.85,3.81l1.84,0.14l1.27-0.56l0.42,1.69l1.55-0.28l0.99-0.85l1.41,0.42
					l0.14,0.57l1.27-0.14l0.56,0.42l0.42,1.27h0.28l2.54-1.41l1.41-2.82l-0.85-0.99l1.83-1.41l0.85-1.41l0.28-1.98l0.99-0.99v-0.57l0.85,0.57l1.13-0.14l-2.26-2.26l0.28-0.85l-1.83-2.83l1.27-0.28l-0.85-0.85l0.42-0.28l0.28-0.28l0.7,0.28l1.13-0.42L639,273.2h1.13
					l1.13-0.71l-2.12-1.13l-0.57,0.14v-0.71l-0.85,0.14v-1.13l-0.85-0.42l-0.28-0.71l-0.99,0.85v-0.85l-2.12,3.11l-0.71,0.14l0.14,0.71l-0.71,0.56z"/>
				<path d="M625.44,302.43l-0.99,0.14l-1.98-0.28l-2.4-1.13l-2.12-0.14l-0.57,0.28l-3.39-0.7l-1.27-0.57l0.28-0.42l-2.54-0.56l-0.28-0.42l0.85,0.14l0.85-1.41l0.42-0.14l1.41,0.28l1.13-0.28l0.28,0.57l1.7,0.14l1.41,1.27l3.25,0.28l0.71-0.99l0.57-0.28l0.56,0.71
					l0.71-0.28l2.26,0.71l1.13,1.69l3.1,0.28l-0.14,1.41l0.42,0.85l-3.11-1.13l-0.99,0.28l-1.27-0.28"/>
				<path d="M615.7,289.73l1.13,0.42l-0.14,0.85l-1.13-0.14l0.14-1.13"/>
				<path d="M610.05,288.31l0.56-0.71l0.71,0.28l0.42-0.56l0.85,2.12l0.85,0.14v1.13l-1.27-0.42l-0.7-1.41l-1.41-0.57"/>
				<path d="M608.21,285.21l0.28-0.42l0.14,0.57h-0.28l-0.14-0.14z"/>
				<path d="M608.78,281.53l-0.14,0.56l-0.42-0.71l0.56,0.14"/>
				<path d="M595.79,286.19h0.42l0.71,1.7l-0.99-0.56l-0.14-1.13"/>
				<path d="M603.13,280.4l0.85,0.14l0.14,0.42l-0.99-0.56"/>
				<path d="M797.57,85.97l0.14-0.56l-2.82-3.53l-3.25-0.28l-0.28,0.99l-0.28-0.71l0.42-0.56l-1.13-0.56l-0.14,0.71l-1.55-0.28l0.99,0.42l-0.14,1.98l0.85,0.56l-0.56,1.13l0.14-0.99l-1.69-1.41l-0.71-3.53l0.42-0.14l-1.27-1.69l-1.13-0.28l1.13,1.84l-2.4-1.55
					l0.85-0.85l-2.12-0.56l0.42-0.42l-0.14-0.56l-0.99-0.71l-1.56-0.14l-0.28-1.13l-1.27-0.56l-0.28-1.27l-1.69-0.85l-0.85-0.28l-3.53-3.11l-5.08-2.82l-6.35,0.14l-5.37-1.41l-0.85,0.28v1.84l-0.85,0.71l1.13,0.28l0.99,2.97l-1.91,1.59l-0.63,0.53l-0.67-0.53
					l-2.86-2.3l-0.28-2.26l-0.85-1.27l-2.12,1.84l-4.1-0.56l-2.12-1.41l-3.67,0.56l-2.54,1.98V66.2l-3.53-1.69l0.85-2.68l-0.14-1.27l-2.54-3.53l-9.18-0.28l-4.8,1.27l-1.7-1.13l1.27-1.41l-1.69-1.84l-1.98,0.28l-1.13-1.55l-2.68-0.42l0.99-1.55l1.27,0.28l-0.56-2.12
					l-0.71-0.56l-18.64-4.52l-0.56,0.71l0.7,1.27l-3.11,3.95l0.28,1.27l-0.42,0.85l0.7,1.98l-1.27-0.42l-3.25,2.54l-5.36-3.39l-1.27,0.14l-0.42,1.98l-2.54-0.56l-2.12-3.95l-1.41,3.11l-0.14,2.54l-1.55,3.25l-0.85-1.55l-2.26-0.85l-1.84-4.24l-0.56,0.14l-0.28-1.83
					l1.84-1.98l-0.28-0.14l0.42-1.41l-0.85-1.55l0.56-2.97l-2.96-3.67l-2.54-0.56l-0.85,0.99l-6.21-3.39l-0.14,1.13l-0.99-0.42l-0.42,2.4l0.71,2.4l-0.56,0.71l-4.8,0.85l-5.65-1.84l-0.14-1.98l0.99-0.42l-7.2-1.69l-4.8,1.55l1.69,1.41l-1.97,0.85l-0.57-0.14
					l0.85-0.71l-0.71-0.14l0.28-2.26l-1.27-3.11l0.14,1.84l-0.85,0.85l-2.54-0.99l-0.28-1.13l0.42-0.56l-1.27,0.99l-1.69-0.99l-1.27,1.69l0.42,1.55l1.98-1.41l0.71,0.99l-2.68,1.84l-1.27-0.85l0.56,0.99l-0.42,0.42l-3.53,1.69l-2.68-0.28l-0.14,0.57v1.13l0.99,0.71
					l-1.55-0.71l-1.27,0.71l3.67-5.79l2.26,0.14l5.08-7.34l3.11-1.27v-1.13l1.27-0.42l-0.42-0.42l2.12-1.27l1.27-2.26l-0.28-1.41l0.28-0.56l-1.83-0.57l-0.99-2.12l2.12,2.12l0.99-1.98l-0.14-1.13h-0.57l-0.85-2.82l-0.71,1.41l-0.71-1.27l0.42-0.85l-3.67-3.95
					l-6.5-0.28l-1.84,2.82h-2.68l2.26-2.82l0.42-1.41l-0.14-0.85l-3.53-0.42l0.14-1.13l-3.25,1.83l3.95-3.81l-0.71-2.12l-3.67-1.69l-2.4,0.85l-3.81,5.51l-0.99,2.54l1.13,1.69l-0.56-0.14v1.13l-5.08,0.71l2.12,2.12l-0.28,2.12l-2.26-2.26l-2.26,1.69l0.28,0.99
					l-2.82,0.99l0.28-0.99l-0.57-0.28l-1.55,1.27l0.85-2.12l-0.71-0.42l-6.35,0.85v0.99l1.27-0.14l-0.14,0.99l-9.32,3.25l-2.68,3.25h-2.4l1.69,0.85l-1.27,0.56l-0.71,2.54l-1.98-1.55l-0.42,1.41l1.98,0.99l-1.69,1.55l1.83,0.99L569.1,34l-0.71,0.14l0.14,1.13
					l-12.57,2.26l-0.99,0.56l0.56,0.56l-1.13,1.13l0.57,0.42l-0.57,0.7l1.55,2.12l-0.42,1.41l0.28,1.98l3.11,1.55l0.14,0.56l-0.28,0.71l2.68,1.55l0.42,1.69l-0.85,2.54l0.99,3.95v1.98l-1.27,0.56l0.14,1.41l-2.12-1.41l0.28-2.96l-0.28-3.11l1.69-1.41l0.56-1.98
					l-3.95-0.42l-1.55-2.26l-3.39-2.26l-4.09,1.27l-0.14,0.85l1.55,0.56l-1.98,1.84l-0.85,0.14l-0.99-1.83l-0.85,0.56l0.71,2.26l2.68,1.98l0.85-0.71l1.13,2.97l-6.78-2.68l-0.43-0.56l0.71-0.28v-1.13l-0.71-2.68l0.99-1.98l-0.42-1.69l0.42-0.28l-1.27-2.4l-0.71,0.28
					l0.57,4.09l-3.67,3.11l-0.7,2.12l2.82,5.93l-1.55,5.37l0.71,2.54l-0.28,1.7l2.96,0.85l2.12-0.99l3.53,2.26l0.01,0.04l1.12,3.49l-1.27,0.85l-0.14,2.12l2.97,1.13l-2.54,0.28l-1.13-1.13l0.43-2.68l-0.43-0.57l0.28-1.27l-1.27-1.41l-0.42-1.55l-4.52,1.41L541,73.4
					l0.99,2.4l-0.14,1.83l-1.69,1.98l-0.99,2.68l-2.54,1.55l-0.14,1.84l-0.42,0.14l-4.38-0.71l-0.14-1.84l-0.57-0.57l1.55,0.42l3.25-1.41l-1.27-1.27l1.7,0.28l1.13-2.54l0.99-0.71v-2.54l0.71-1.69v-1.13l-2.12-2.54l0.42-5.22l-0.57-2.82l0.71-0.85l0.14-3.11
					l-0.42-2.26l-1.83-2.12l1.98-5.08l-0.14-3.81l-7.2-1.55L529,45.3l-1.13,5.79l-3.53,3.67l-0.28,1.55h0.85l-1.13,1.69l1.98,0.71l-0.56,2.68l0.28,1.41l-0.85,0.28l-0.14,2.68l2.82,0.71l-0.14,0.85l0.99,2.4l1.27,0.85l-1.84,3.95l-2.68-3.67l-6.5-4.52l-6.63-1.98
					l-1.84,1.41l1.41,3.11l-0.28,1.41l-2.12,1.27l0.14,1.41l-0.85,0.85l-0.99-0.71l0.71-1.69l-1.29-1.84l-3.37,2.97l-4.24-0.14l-1.69,2.4l-1.55-0.99l-0.28-1.55l0.42-1.27l-0.71-0.28l1.69-0.85l-2.54,0.56l-0.28,0.71l0.14,0.85l-0.56,0.14l-0.56-0.85l-0.85,0.99
					l0.42,0.28l-0.42,1.13l-0.71-0.99l-0.99,0.28l-8.05,5.22l-0.71,2.26v1.13l-2.4,1.98l-0.28-1.27l-1.27,0.14l-2.12-3.39l0.85-1.55l2.82-0.71l-0.56-2.12l-1.41-1.69l-5.51-1.27l1.98,2.12l-0.14,3.39l-0.57,2.54l1.55,1.98l-0.99,3.81l0.14,2.26l-0.85-1.41
					l-0.85,0.42l0.42-1.13l-2.82-1.41l-1.98,2.54l-3.53,2.4l0.14,1.55l2.12,4.52l-5.23-1.69l-0.85,0.99l-0.14-0.85l0.57-0.28l-3.1-1.83l-0.85,1.41l0.28,0.99l1.41,1.84l1.27-0.42l0.85,2.82l-1.55,0.56l-2.97-1.27l-1.41-1.69l-2.12-0.42l0.56-0.85l-0.14-1.41
					l-1.13-2.4l0.85-0.57l0.14-2.4l-6.21-6.64l0.99-0.42l2.4,2.26l1.98,0.14l0.14,0.99l9.74,2.54l2.68-1.13l2.54-2.82l0.42-1.98l-0.56-0.42l-0.28-2.4l-2.4-2.68l-3.25-1.13l-5.79-5.51l-5.51-0.28l-0.42-1.13l-0.71,0.56l0.14-0.71l-2.12-0.85l0.28-1.13l1.7,0.99
					l0.42-0.99l-2.68-1.27l0.14,0.99l-0.42-0.14l-0.28,0.99l-1.62-0.92l-2.9,0.63l-1.86,0.61l-1,0.83l-0.33,0.83v1.33v1.33l1.5,0.33l1.5,1.17l-0.5,1l1,1l0.67,2.17l-0.5,0.83l-1.33,0.67l-0.67,1.67l0.67,1l1.33,0.5l0.5,2.17l0.67,1.33l0.83,1.5l-1.5,0.17l-0.33,1.33
					v2.17l0.83,1.5l0.5,0.67l0.17,5l0.33,1.67l1.17,0.83l0.83,1.17l-0.67,2l-1.33,1.83l-4.17,3.83l-1.17,2.17l0.17,2l0.83,0.67l-0.4,0.6v1.27l-0.42-0.42l0.28,0.99l2.82,0.71l0.99,0.99l-2.54-0.14l-1.84,1.41l-0.57-0.42l-0.14,1.27l0.14,0.76l-1.17,1.33l-0.17,2
					l1.17,1.5l0.33,3.33l0.83,2l3.67,1.5l1.5,2.33l-0.33,2.17l1.33,1.33l2,1.33l1.5,2.33l-0.33,1.17l-2,0.83l-0.5,2.5l0.83,1l1.17-0.83h2.17l1.83,1.67l-0.5,1.33l1.33,0.67h1.17l0.83,3.5l3.67,0.17l3,1.5l3.17,1l1,4.67l-1.5,2.17l-1.33,1.5l0.18,1.13l0.42,0.57
					l-1.98,0.71l0.14,0.42l-1.55,0.14l-0.14,0.42l1.69,1.41l-1.27,0.28l-1.13,1.98h-1.27l-0.42,0.57l1.55,1.69l0.57-0.14l2.54,1.55l3.39,3.11l2.26,1.27l0.85,2.26v0.99l0.5-0.2l2.5,0.5l1.83,1.67l1,2.5l1.17,1.83l-0.5,4.17l0.83,1.33l-3,0.17l-3,0.5l-1.33,1.5
					l-4.33-0.67l-6,0.5h-1.83l0.02,0.6l-0.56,0.56l-0.14,1.41v0.56l0.14,2.97l-2.26,4.24l-1.13,3.81l-0.61,0.81l-0.24,0.32l1.55,4.8l0.28,0.28l-0.56,2.97l1.13,0.14l4.09,6.5l0.85,2.68l0.85,0.14l1.27,1.13l1.55,3.39l-0.14,1.13l0.71,2.96l2.26,1.41l1.27,1.41
					l0.57,1.69l1.13,1.84l1.27,0.99l0.99,2.68l0.28,1.13l-0.42,1.41l0.56,0.57l0.85,4.23l0.57,1.13l3.11-0.14l1.98-1.41h2.26l2.26-1.27l2.12-0.28l0.71-0.99l1.13-0.56l5.93-1.98l0.28-1.41l1.41-0.99l2.54-0.85l1.7,0.14l1.41-1.98l1.84-0.42l0.85-1.84l2.26-0.71
					l-0.14-2.4l0.56-0.71l0.57-0.56l0.57,0.42l2.54-3.39l0.43-1.41l-1.27-0.85l-1.27-1.83l-3.95-1.55l-1.27-1.69l-0.14-1.84l0.29-1.55l-0.71,0.57l-3.67,3.81v0.42l-0.99,0.56l-2.97-0.28l-0.71,0.42h-1.13l-0.28-0.56l-0.57-0.14v-0.85l0.28-2.97l-0.85-0.71
					l-0.85,1.69v1.7l-1.55-2.54l0.28-0.99l-0.42-1.27l-1.55-0.99l-0.14-0.85l-1.13-0.99l-0.99-1.69l-0.57-1.84l-0.71-0.14l1.13-0.85l-0.57-0.85l0.99,0.14l0.42-0.28l0.56-1.27l1.41,1.55l1.13-0.42l1.27,2.4l0.85,0.71l1.13,2.54l2.12,0.85l0.71,0.99l1.55,0.57
					l0.28,0.56l2.4,0.42l3.96-1.55l1.13,0.57l1.13,2.96l9.32,1.41l0.28,0.28l0.85-0.42l4.52-0.42l0.99,0.57l0.28-0.57l0.57,0.14l3.39-0.14l0.56,1.27l0.85,0.28l0.85,1.98l1.13,0.28l1.98,2.26h1.69l1.41-0.71l-0.14,1.13l-0.85,0.57l-2.12,0.28l0.14,0.57l3.11,2.97
					h1.69l1.55-0.71l0.71-2.97l1.41,0.28l-0.85,0.85l0.71,3.39l-0.28,1.84l0.28,1.55h0.28l-0.14,1.55l0.99,4.38l0.85,1.69l0.28,0.71l0.42-0.14l0.14,1.27l1.7,3.11l0.71,2.96l1.41,1.83l2.12,5.65l1.55,1.98h0.71l0.85-0.85l0.28-1.27l1.7-0.56v-0.71l0.85-1.56h1.13
					l-0.14-2.96l1.13-3.53l-0.42-0.99l-0.14-3.81l0.57-0.99h1.27l0.85-1.27l1.98-0.56l0.56-1.13l3.96-3.11l1.83-2.26l2.97-1.55l1.55-1.7v-1.7l1.98-0.85l0.42-0.99l0.42,1.55l0.85-0.28v-0.42l0.28,0.56l0.28-0.14l1.55-0.57l0.14,0.28l0.71-0.71l0.57,0.57l0.71-0.99
					v-0.99l0.56-0.71l0.56,0.56h1.27l0.56,1.13l0.99,3.11l1.41,1.98l1.69,0.85l0.28,0.99l-0.42-0.28l-0.14,0.42l0.71,0.71l0.14-0.42l0.99,1.84l0.42,2.68l-0.7,2.68l0.7-0.28v0.56l1.69,0.28l2.96-2.12l0.14-1.7l0.42,1.27l1.83,0.85l0.28,3.53l0.85,3.11l0.28-0.28
					l0.57,1.84l0.14,1.98l-0.28,0.28l0.71,0.42l-0.71,3.25l0.42,0.28l-0.85,2.68v1.69l0.85-0.14l3.39,4.09l0.85,4.66l1.69,3.25l4.66,3.25l0.71-0.42l0.85,0.42l0.28-0.99l-1.84-2.97v-3.95l-0.99-1.41l-1.41-1.27h-0.42l-1.41-1.55l-1.41-0.14l-0.85-0.85l-1.55-4.23
					h-1.27l-0.28-2.26l1.69-4.38l0.14-2.82l0.42-0.28l1.55,0.14l0.14,1.98h2.12l1.7,1.27l0.56,0.99l0.57,1.69l0.99-0.42v1.13l1.98,0.14l1.27,0.99l-0.57,1.41l0.14,1.69l0.42,0.14l2.4-1.84l-0.28-1.13l0.99,0.85l-0.14-0.85l0.85-1.13h1.13l1.55-0.71l2.26-1.27
					l0.28-0.85v-1.69l0.42-0.85l-1.13-5.79l-0.99-0.85l-0.28-0.99l-1.27-0.42l-1.41-1.7l-1.41-1.41l-0.28-0.99l-1.27-1.13l-0.14-1.13l0.71-1.98l1.41-1.69l1.69-1.56l1.27-0.42l0.56-0.42l0.14,0.42l0.71-0.71l1.27,0.85l1.13-0.42v1.55l0.99,1.55l0.71-0.28l-0.56-1.27
					l0.56-1.13l5.51-1.27l0.43-1.69l0.99,0.85v-1.41l0.99,1.27l0.7-0.14l-0.14-0.42h0.14l0.42,0.28l0.28-0.28l0.28-0.42l0.14,0.28l0.85-0.56l0.57,0.42l2.12-0.7l1.27-1.41l1.13-0.28l0.28-0.42v0.28l0.99-0.99v-0.85l1.27-0.28l1.41-2.12l0.42,0.14l0.71-2.12
					l-0.42-0.85l0.71-0.42l0.14,0.71l2.54-4.24l0.57,0.14l0.57-1.98l-0.14-0.56l0.7-0.14v-0.42v-0.56l-0.7,0.28l1.13-0.99l-1.83-0.99l-2.12,0.43l3.81-2.12l-1.17-1.17l-0.53-0.53l-1.27-0.85l-0.99-0.14l0.99-0.14l2.97,0.85l-2.26-2.54l-1.55-4.38l-2.26-1.41
					l1.13-1.83l0.99-0.85l0.14-0.99l0.99,0.42l0.57-0.99l-0.14-0.56l1.84-0.28l0.57-0.71h0.56l0.28,0.56l0.71-1.55l-2.4-0.28l-1.55-0.99l-2.97,1.98l-1.13-0.42l-0.56-1.55l-1.55-0.85l-0.99-1.13l0.14-0.71l0.71-1.27l1.13,0.28l1.41-0.57l0.85-1.41l2.12-1.13
					l1.55-2.12l1.55-0.42l0.85,1.69l-2.12,2.68l0.99,0.57l-0.28,0.85l-0.99,0.71l0.28,0.14l4.66-2.96l2.26-0.42l0.56,0.99l1.84,0.14l-0.56,2.12l0.42,0.28l-0.85,0.56l-0.57,1.27l0.99-0.14l-0.28,0.42l0.43,0.71l0.71-0.28l0.14-0.56l1.98,0.71l0.71,2.54l-0.42-0.42
					l-1.27,0.56l0.42,0.85l0.43-0.56l0.57,2.26l-0.99,2.54l0.57,0.28l-0.14,0.56l-0.43-0.28l-0.14,0.85l1.41-0.28l0.99-0.71l-0.28,0.42l0.28,0.14l0.28-0.85l0.28,0.42l0.71-0.85l0.99,0.42l0.57-0.85l0.71,0.14l0.85-0.71l0.71-1.84l-0.71-3.95l-1.98-2.96l-1.98-1.84
					v-1.83l1.98-0.85l2.97-2.4v-1.98l2.12-2.4l0.28-0.14l-0.14-0.57h1.13l1.41-2.4l0.42,0.99l0.71-0.56v1.27l1.97,0.56l1.7-0.56l2.26-1.7l6.78-8.61l1.13-2.54l1.83-2.83l1.98-2.26l0.85-5.22l-0.42-2.4l0.71-2.54l1.41-2.68l-0.71-0.85l0.28-0.71l-0.28-1.13
					l-2.26-0.85l2.4,0.42l0.42-0.99l-2.26-1.7l-1.27-1.98l-2.4-0.14v1.98l-0.85,0.99l0.14-0.99l-0.56,0.42l-1.98,0.42l0.85-1.13l-0.71-0.85l0.71-0.85l-0.99,0.42v0.21v0.78l-0.99,0.71v-1.48v-1.76l-2.26,0.14l-1.13-0.71l0.14-0.71l5.37-4.8l3.39-4.52l2.54-2.12
					l0.99-2.12l3.25-3.39l1.98-1.13l5.23-0.28l1.27,1.13l0.85-1.27l2.4,0.85l1.84-0.56l0.56,0.71l0.56-0.14l-0.28-0.7l0.85-0.28l-0.14-0.85l0.42-0.28l3.67,1.27l1.13-0.56l1.69,1.27l-2.26,0.85l0.57,0.99l2.54-0.71l0.71,0.42l1.69-1.27l2.82,0.42l0.56-0.28
					l-0.14-0.71l-1.98-0.56l0.28-0.56l-0.28-0.99h0.42l0.99-2.12l2.54-2.12l2.83-4.24l3.95-1.13l1.84,1.13l1.27-1.27l-0.42,1.84l-0.71,1.13l0.28,0.85l-0.42,0.71l1.27-0.14l-0.57,1.98l4.94-4.8l0.99-0.42l0.57,0.85l0.42-0.71l-0.56-0.56l0.14-1.55l1.13-1.98
					l1.84-0.7l1.27,0.85l-0.14,0.42l-1.69,0.99l-0.28,2.54l-0.42,0.71v1.27l-0.56,0.71l0.28,0.99l-3.95,1.98l-0.28,1.13l-2.96,2.97l-4.66,6.21l-2.12,1.27l-1.27-0.14l0.42,1.27l-0.56,1.69l-1.98,1.69l-0.71,4.94l0.14,3.11l2.54,13.7l3.25-3.39l0.71-3.95l2.54-0.99
					l0.57,0.28l-0.14-3.25l2.26-2.12l1.41,0.28l1.13-0.85l-0.99-3.11l0.57-1.69l1.13-0.99l-0.28-0.71l1.41-0.71l-0.56,1.27l0.7,0.99l0.71-1.13l-0.14-1.41l-0.99-0.42l-0.14-1.84l1.13-2.54l-1.27-0.71l-0.99,0.85l-0.42-0.71l0.14-1.27l1.83-3.67h0.56l0.85-3.39
					l0.99-0.56l0.42,0.56l0.85-0.85l0.99,0.99l0.57-1.69l1.98-1.41l0.28,0.42l-0.14,2.68l1.7-2.68l2.68-0.99l2.68,0.56l2.12,2.54l0.43-2.26l3.53-2.12l-0.14-0.85l0.85,0.28l-0.14-0.71l1.83-0.99l0.71-1.55l0.85,0.42l2.54-1.55l0.14-0.85l4.66-1.84l-0.42-1.69
					l0.99,1.55l0.42-0.56l3.11,1.69l1.13-1.98l-1.13-1.41l0.85-0.14l-1.13-1.84l-0.14-0.71l-0.28-1.98l-0.85-0.28l0.56-0.28l-0.56-1.41l-0.43,0.56l-1.27-0.71l-0.28-1.84h1.84l0.71,0.85l2.82-2.26l0.42-0.42l1.55-2.4l-1.27-1.84l-0.14-1.41l1.27-0.14v-0.99h0.42
					l0.57,0.99l0.85-1.13v1.41l-0.99,0.14l1.13,2.82l4.38-0.28l1.27,0.85v2.26l1.27,1.27l0.99,0.28l-0.28-0.28l0.85-0.14l-0.28,0.28l1.41,0.71l0.28,1.13l0.71-0.42l0.28,0.71l0.57-1.27l-0.14,1.41l0.85,0.28l0.28-0.85l-0.42-0.28l1.69,0.28l-1.41-1.27l0.56-0.42
					l-0.85-0.14l2.26-1.41l-1.27-0.99h0.99l0.71-1.41l1.69,0.14l-0.56-0.99v-0.99l1.7,1.27l0.14-1.69l1.98-0.99l-1.98-0.57z"/>
				<path d="M690.4,304.41l-2.97-2.4l-2.12,0.14l-0.14,0.42l-2.54,0.14l1.13-2.12l0.85-0.14l0.71,0.42l-0.42-0.71l0.42-0.14l-0.99-0.57l0.42-0.7l-1.41-2.68l-3.25-1.41l-3.39-0.71l-0.99-0.99l-0.7,0.14l-1.27-0.99v-1.41l-0.85,2.12l-1.13,0.28l-0.28-1.55l-0.99-0.85
					l-0.85-0.14v-0.28l1.55-0.14l1.13-0.57l0.99,0.14l0.28-0.14l0.28-0.99l-3.39,0.56l-0.71-0.28l-0.57-1.27l-1.98-0.42l0.71-1.13l2.54-1.13h1.13l1.13,0.85h1.41l0.42,1.13v2.54l0.57,0.85l0.14-0.56l0.28,0.14l0.56,1.27l0.71,0.42h0.85l1.83-2.54l1.41-0.14
					l0.57-0.85l1.27-0.85l3.96,1.98l3.25,0.57l0.42,14.68z"/>
				<path d="M667.8,301.3l0.71-1.41l0.43,0.14v0.85l-0.71,0.99l-0.42-0.57"/>
				<path d="M674.44,297.91l0.71,0.71l-0.42,0.84l-0.42-0.7l0.28,0.14l-0.14-0.99"/>
				<path d="M674.58,297.91v-0.42l0.71,0.57l0.14,0.56l-0.85-0.71"/>
				<path d="M674.72,296.93l0.42-0.85l0.42,0.14v1.98l-0.56-0.28v-0.85l-0.28-0.14"/>
				<path d="M672.04,296.08l0.42-0.14l-0.56,1.13l0.14-0.99"/>
			</g>
			<text transform="matrix(1 0 0 1 560.5923 146.1226)"><tspan x="0" y="0" style="fill:#000000;stroke:none;">Asia</tspan></text>
		</g>
		<g>
			<g>
				<path d="M680.09,369.08l1.69-0.56l1.7,0.84l-2.68,0.28h-0.57l-0.14-0.57"/>
				<path d="M629.68,333.64l0.14-0.28l0.14,1.84l0.85-1.55l1.98-0.71l0.99-1.27l1.83-1.13l2.12,0.28l2.4-0.99l0.85-0.71l0.99,0.14l3.11-0.99l1.27-0.99l0.7-1.55l1.13-1.13l-0.42-1.27l0.42-0.99l0.99-0.71l0.28-0.71l1.41,2.54l0.14-0.99h0.42l-0.56-1.13v-0.85
					l0.99-0.14l0.42,0.71l0.71,0.14l-0.28-0.57l0.56-1.13l-0.14-0.71l1.13-0.14l-0.14-0.99l0.7,0.28l-0.28-1.13l1.27-0.28v0.42l0.56-0.42v-1.27l0.28,0.57l1.69-0.85l1.55,0.71l1.27,1.27l-0.56,2.12l0.71-1.27l0.71-0.57h1.41l1.13,0.85l-0.14-0.56l0.28-0.28
					l-0.85-0.99l1.13-1.98l0.99-0.14v-0.56h-0.28l0.14-0.99l0.85-0.56l0.71,0.56l-0.14-0.71l0.42-0.42l2.26,0.14l1.13-0.56v-0.99l-1.41-0.71l-0.43-0.14l0.57-0.28l0.28,0.28l0.28-0.14l0.99,0.85l0.28-0.42l0.56,0.71l1.41,0.14l0.99,0.71l1.27-0.14l0.99,0.56
					l1.69-0.71l-0.28,0.42h0.42v0.99l0.99-1.41l0.28,0.85h0.71l-0.85,1.13l0.28,0.42l-0.28,0.42l-0.56-0.14l-0.14,0.71l-0.42-0.42l-0.28,1.13l0.43-0.14l-0.99,2.97l1.7,0.84l0.14,1.41l1.84-0.14l1.98,1.7l1.83,0.42l0.71,0.99l1.83,1.13l1.69-0.57l0.85-2.12
					l0.85-3.53l-0.28-3.25l0.56-2.4l-0.28-0.42l1.41-3.25l0.99-0.7l0.14,0.7l0.14,1.7l0.56,0.42v0.85l0.71,0.71l0.85,3.81l0.56,0.42l1.27-0.42l1.7,1.7l0.42,3.67l0.85,0.71l0.57,3.53l0.42,0.42l0.14,0.99l1.13,0.56h1.27l0.42,1.27l1.13,0.14l1.55,0.99l-0.28,0.85
					l0.71,0.43l0.99,1.55l0.42,2.4l0.56-0.14l0.28-0.85l1.13,1.13l0.28-0.42l0.42,2.68l3.25,2.82l1.69,2.82v3.39l0.99,3.95l-1.27,6.64l-1.13,2.82l-2.68,3.11l0.14,0.71l-1.27,3.67l-0.28-0.28l-0.85,1.83l-0.56,4.66l-1.41,0.85l-2.68,0.28l-2.96,2.26h-1.13v0.57
					l0.57-0.14l-0.28,0.85l-1.97-1.69l-0.28-0.85l-1.27,0.29l0.42-0.71l-0.42-0.71l-0.99,0.56l0.57,0.42l-2.82,1.7l-2.12-1.13l-1.41-0.43l-0.71,0.29l-2.4-1.27l-0.99-1.27l-0.56-1.27l0.14-1.13l-0.28-1.13l-0.99-1.27l0.28-0.85l-2.68,0.57l0.71-0.99v-1.27
					l-0.85-1.55l-0.85,2.54l-1.84,0.14l0.14-0.71l0.99-0.14l0.14-1.98l0.99-1.69l0.28-0.99l-0.57-1.7l-0.14,1.13l-1.13,2.12l-1.84,0.99l-0.99,1.41v1.13l-1.83-1.13v-0.42l0.71,0.42l-0.14-0.85l-1.41-2.97l-1.41-0.7l0.28-0.99l-1.98-1.13l0.14,0.28l-1.69-0.7
					l-0.71,0.28l-1.41-1.13l-1.69-0.28l-3.81,0.14l-2.54,1.27l-4.38,0.42l-4.52,2.12l-0.99,1.98l-8.05,0.28l-1.41,1.41l-1.13,0.14l-1.41,1.27h-0.71l-0.14,0.42l-3.95-0.71l-1.27-1.41l-0.99-0.28v-1.69h0.85l0.56-1.13v-3.95l-1.55-3.39l-0.28-2.82l-1.7-3.11
					l-0.56-2.26l-1.55-2.12l0.42,0.14l0.42,0.85l0.57-0.28l-0.28-1.13l0.42,0.85l0.56-0.85l-1.83-3.96v-1.13l0.85-1.41l-0.14-2.54l0.71-1.13"/>
				<path d="M705.93,382.07l0.42-0.28l0.28,0.42l-0.71-0.14"/>
				<path d="M679.8,314.86h0.71l0.28,0.99l-0.85,0.14l-0.14-1.13"/>
				<path d="M666.11,309.07l0.71,0.56l1.27-0.56l0.42,0.71l-1.13,0.85l-0.99-0.71l-0.28-0.85"/>
				<path d="M665.54,310.48l-0.14-0.42l0.42-0.57l0.71,0.85l-0.99,0.14"/>
				<path d="M686.86,320.93l0.42,0.28l-1.13,0.42l-0.14-0.28l0.85-0.42"/>
				<path d="M717.08,340.56l0.42,0.99l-0.56,1.13l0.14-2.12"/>
				<path d="M705.36,380.23l0.85,0.57l0.14,0.71l-0.42,0.14l-0.57-1.41"/>
				<path d="M698.44,382.78v1.69l1.69,3.11l-0.28,0.42l-0.42-0.85l0.42,1.84l0.99,1.41l0.85,0.28l-0.42,0.56l1.84,0.28l0.42-1.13l0.56,0.14l0.56-1.41l0.85-0.14l0.71-2.26l0.14-2.12l-0.56-1.41l-3.39,0.99l-3.95-1.41"/>
				<path d="M731.91,310.48l0.28-0.28l0.56,0.42l-0.85-0.14"/>
				<path d="M735.3,306.67l1.55,0.71l0.56,0.71l-1.13-0.14l-0.99-1.27"/>
				<path d="M731.2,304.69l1.69,0.14l1.27,1.13h-1.98l-0.99-0.7v-0.57"/>
				<path d="M733.74,302.71l1.98,2.68l-1.13-0.85l-0.85-1.83"/>
				<path d="M728.94,300.74l2.54,1.41l0.28,0.71l-2.26-1.27l-0.56-0.85"/>
				<path d="M726.12,302.29v-0.42l0.56-0.14l0.71,1.13l-1.27-0.56"/>
				<path d="M725.84,301.44l-0.14,0.56l-0.14-0.71l0.28,0.14"/>
				<path d="M724.43,298.76l2.26,1.41l-1.27-0.28l-0.99-1.13"/>
				<path d="M784.72,392.24l-0.57,0.99l-0.14-0.71l-0.42-0.14l1.13-0.14"/>
				<path d="M760.57,365.41l0.56,1.41l0.42-0.28l2.12,1.27l0.57,1.55h-0.57l1.27,1.55l-0.28,1.27l1.13,0.14l0.42,0.71v-1.84l0.71,0.43l0.56,2.54l2.4,0.99l2.12-1.27l0.99,0.43l-0.42,2.54l-0.71,0.28v1.27l-1.83,0.14l-0.71,0.85l0.42,0.99l-0.85,1.83l-2.54,3.25
					l-1.69-0.85l0.99-1.7v-1.55l-3.1-2.26l0.42-0.85l1.27-0.71l0.42-1.97l0.28-0.14v-1.97l-0.57-0.57l0.42-0.56l-0.71,0.14l-0.42-0.84v-1.41h-0.56l0.14,0.42l-1.27-1.69l-0.28-0.57l0.28-0.56l-0.42,0.42l-0.28-0.42l-1.13-2.26l0.42-0.14"/>
				<path d="M758.88,383.91l1.13-1.41l1.27,2.26l1.41-0.99h0.14l-0.14,0.99l0.42-0.85l0.42,0.28l-0.28,0.42l0.28,1.69l-1.98,3.11l-1.13,0.99l-0.14,1.41l0.71,0.85l-1.41-0.57l-1.55,1.13l-0.56-0.28l-1.69,6.21l-2.4,1.83l-1.41,0.42l-2.68-0.99l-0.28-0.71h-2.12
					l0.43-0.85l-0.57,0.57l0.14-0.57h-0.42l0.85-0.56l0.14-0.56l-0.42-0.28l0.28-0.57h0.7l-0.42-0.28l0.14-0.71l0.42-0.28l0.42,0.42v-0.71l1.55-2.26l1.98-0.57l4.09-3.25l1.13-2.97l1.13-0.85l0.42-1.55"/>
				<path d="M711.15,304.83l0.85,0.28l0.14,0.57l-0.85-0.14l-0.14-0.71"/>
				<path d="M720.47,296.08l0.57,0.14l2.12,2.12v0.71l-0.7,0.14l-0.71-0.42l-0.14-0.85l-0.99-0.99l-0.14-0.85"/>
				<path d="M706.21,296.36h3.25l0.85-1.13l-0.14,0.85l1.55,0.14l1.98-1.41l-0.14-1.27l1.27-0.14l0.42,0.57l-0.71,2.4h-0.85l-0.71,0.99l-1.41,0.56l-2.12,0.14l-0.56-0.42l-0.71,0.14l-1.41-0.71l-0.57-0.71"/>
				<path d="M705.08,296.36l0.57,0.14v0.42l-0.57-0.57"/>
				<path d="M716.66,292.83l0.42,0.85l-0.42,0.99h-0.28l-0.99-2.68l1.27,0.85z"/>
				<path d="M710.02,289.58l0.71-0.14l0.28,0.42l-0.57,0.14l-0.42-0.42"/>
				<path d="M771.59,323.19l0.57-0.14l0.57,0.42l0.28,1.41l-1.13,0.28l-1.7-0.57l0.14-0.84l1.27-0.57"/>
				<path d="M773.7,321.07l2.54-0.71l-0.99,1.13l0.56-0.43l0.14,0.71l-1.41-0.28l-0.99,0.71l-0.71-0.71l0.85-0.43"/>
				<path d="M787.26,331.94v0.42l-0.71-0.57l0.71,0.14"/>
				<path d="M746.31,316.98l0.42,1.13l0.71-0.42l0.28,1.13l-0.85,0.28l-0.56-2.12"/>
				<path d="M750.55,323.47l0.14,0.57h-0.57l0.42-0.57"/>
				<path d="M749.84,320.08l0.28,0.57l-0.71-0.14l0.42-0.42"/>
				<path d="M747.72,319.66l1.27,1.41h-0.71l-0.57-1.41"/>
				<path d="M743.2,332.65l-0.85-0.42l-1.41-1.69l-0.14-0.71l0.71,0.14l5.79,4.8l-0.43,0.42l-1.41-0.7l-2.26-1.84"/>
				<path d="M749.14,332.65h0.57v0.56l-0.57-0.56"/>
				<path d="M747.58,331.1l0.42,0.14l0.14,0.85l-0.56-0.28v-0.71"/>
				<path d="M792.48,314.15l0.71,0.14l0.28,0.71l-0.99-0.28l-0.56-0.56h0.56"/>
				<path d="M794.46,315l0.85,0.42h-1.27l-0.28-0.28l0.71-0.14"/>
				<path d="M690.4,304.41l3.53,0.28l1.27-0.85l-0.85-1.13l1.13-0.42l0.14-0.42l0.71-0.14l-0.14-0.85l0.71,0.28l0.7-0.42l3.96,1.69l0.99,1.7l0.71,0.14v0.42l1.83,1.69l4.8,0.85l0.85,0.57l0.71-0.43l-0.71-0.28l1.13-0.28l-2.26-0.71l0.43-0.42l-1.7-0.57l-0.14-0.99
					l-1.27-0.14l-1.41-1.98l-1.55-1.41l-0.56-1.27l1.83-0.28l-0.42-1.41l-3.96-1.41l-0.85-1.98l-2.54-1.83l-7.48-2.68l0.42,14.68z"/>
			</g>
			<text transform="matrix(1 0 0 1 650.0952 346.6226)"><tspan x="0" y="0" style="fill:#000000;stroke:none;">Oceania</tspan></text>
		</g>
	</g>
</svg>
