<?xml version="1.0" encoding="iso-8859-1"?>
<!DOCTYPE svg >

<svg  width="800.971pt" height="494.445pt" viewBox="0 0 800.971 494.445" xml:space="preserve">
	<g id="Layer_x0020_1" style="fill-rule:nonzero;clip-rule:nonzero;fill:#FFFFFF;stroke:#000000;stroke-miterlimit:4; font-family:'Arial'; font-size:10;">
		<g>
			<path d="M742.29,74.601l10.844,32.527l0.149,0.603l-0.149,1.355l0.149,0.602l2.712,2.108l0.602,0.15l0.301,1.055v0.751l1.503,2.562l0.305-0.754l0.299-1.808l0.305-2.409l1.2-2.408l0.755-3.617l1.505-1.354l0.151-0.752l-0.754-0.452l-0.754-2.108l3.617-3.314
				l0.604,0.453l0.601,1.505l0.45,0.452l0.455-0.601v-1.657l0.298-0.903l2.713-0.303l1.203-1.203v-1.207l0.453-0.601h1.354l1.053-0.602l0.452-0.604l0.605-2.411l-0.305-1.803l1.81-1.959v-1.204h0.753l1.955,0.3l0.906-0.451l0.597-1.055l0.754-1.809l0.754-0.15
				l1.207-2.106l2.107,0.151l1.506,1.506l2.108-3.766l1.806-0.904l2.862-2.561l0.752-1.355l0.452-0.301h0.753l1.354-0.751l0.754-1.657l-0.301-1.206l-1.207-0.602l-0.147,0.15l-0.754-0.301l0.451-1.356l0.45-0.299v-1.055l-1.2-2.41l-1.506-0.753l-0.907,0.151
				l-0.448,0.602l-1.208,0.303l-1.354-0.454l-1.204-4.818l0.451-0.601l-0.298-0.904l-0.456-0.603h-0.9l-0.456,0.451l-2.105-0.751h-1.205l-0.603-0.453l-0.902-2.86l-0.151-0.753l-6.626-21.082l-5.871-3.613l-1.507-0.151h-1.507l-0.45,0.903l-0.454,1.055h-0.751
				l-2.109,1.053l-3.013,2.409l-0.903,0.3l-1.202-1.505l0.303-2.108l-0.604-0.901h-0.903l-2.26,0.901l-4.82,16.415l-0.298,2.41l0.904,1.202l0.148,1.808l-0.604,1.206l-0.752,0.753l-0.603,1.506l1.657,6.625l-0.902,2.106v1.808l-2.411,3.162l-0.298,1.205l0.9,2.259
				l-0.149,0.302h-1.357l0.154,1.656L745.454,74l-0.753-0.151l-1.054-0.452l-1.357,1.204z"/>
			<text transform="matrix(1 0 0 1 762.4966 71.0518)"><tspan x="0" y="0" style="fill:#000000;stroke:none;">ME</tspan></text>
		</g>
		<g>
			<path d="M749.218,138.147l3.16,10.692l-0.451,1.053l-0.3,0.601l0.149,0.454l0.15,0.45l0.754,0.152l2.707-1.808l1.66-1.506v-1.203l-0.452-0.752v-1.808l1.205-1.206l0.452,0.454v1.052v2.26l0.451,0.753l0.904-0.151v-1.354h0.604l0.903-0.903l1.353-0.151
				l0.152-0.152l-1.057-1.205l-0.152-0.603l-0.598-0.15l-0.306-0.451l-1.051-0.602v-0.603l-2.561-0.604l-0.755-1.958l-0.899-0.3l-0.606-1.808l-5.418,1.355z"/>
			<g>
				<text transform="matrix(1 0 0 1 780.8794 148.3076)"><tspan x="0" y="0" style="fill:#000000;stroke:none;">RI</tspan></text>
				<path style="fill:none;" d="M753.534,142.036l25.364,5.301"/>
			</g>
		</g>
		<g>
			<path d="M725.725,129.864l10.392-2.259l16.414-3.762l0.15-0.602l0.452-0.453l0.451,0.453l0.299-0.453l-0.299-1.204l1.356-0.453l1.201-1.958l1.057-0.298l0.905,0.451l0.601,2.259l1.958,1.505l0.453,0.906l-0.302,0.601l-0.907,0.601l-0.903,1.657l-0.604,2.11
				l0.153,1.053h1.955l1.811,1.053l3.012,3.011l1.056,1.959l1.355,1.657l3.46,0.151l1.959-0.905l1.203-2.26l-0.601-0.452l-1.355-1.353l-1.807-0.753l0.15-0.903h1.353h0.606l2.256,3.313l1.356,3.313l-0.152,1.656l-1.355-1.054l-1.654,1.204l-2.409,1.054l-2.411,2.11
				h-0.753l-0.448-0.302v-0.905l-0.455-1.656h-0.45l-1.356,2.41l-1.808,2.109l-0.449,0.602l-1.057-1.205l-0.152-0.603l-0.598-0.15l-0.306-0.451l-1.051-0.602v-0.603l-2.561-0.604l-0.755-1.958l-0.899-0.3l-0.606-1.808l-5.418,1.355l-12.949,3.313l-0.152,0.752
				l-0.302,0.15l-0.904-0.902l-8.732,2.108l-0.603-0.453l0.149-13.252z"/>
			<g>
				<text transform="matrix(1 0 0 1 785.9712 130.7886)"><tspan x="0" y="0" style="fill:#000000;stroke:none;">MA</tspan></text>
				<path style="fill:none;" d="M754.168,129.077l29.64-0.237"/>
			</g>
		</g>
		<g>
			<path d="M713.531,87.854l1.052,1.803l-0.451,0.905l0.752,0.904l0.155,0.602l2.105,5.573l0.752,4.067l-0.905,1.956l0.153,2.109l2.406,5.419l-0.301,2.559l0.453,0.753l0.452-0.151l-0.302-0.602h0.903l1.505,2.41l0.906,4.668v2.71l1.053,3.164l1.505,3.161
				l10.392-2.259l-0.302-1.052l-1.202-1.205l0.149-1.959l0.452-0.601l-0.602-1.807l-0.753-7.83v-2.41l0.902-4.669l0.904-3.012l0.148-2.109l-0.904-1.655v-1.806l0.604-1.055l3.012-2.561l1.655-4.217l-1.655-2.409l-0.304-1.203l0.602-0.603v-0.902l-0.749-2.864
				l-24.545,6.177z"/>
			<g>
				<text transform="matrix(1 0 0 1 703.2837 78.7476)"><tspan x="0" y="0" style="fill:#000000;stroke:none;">VT</tspan></text>
				<path style="fill:none;" d="M709.464,79.697l16.588,11.82"/>
			</g>
		</g>
		<g>
			<path d="M758.104,119.325l-0.905-0.451l-1.057,0.298l-1.201,1.958l-1.356,0.453l0.299,1.204l-0.299,0.453l-0.451-0.453l-0.452,0.453l-0.15,0.602l-16.414,3.762l-0.302-1.052l-1.202-1.205l0.149-1.959l0.452-0.601l-0.602-1.807l-0.753-7.83v-2.41l0.902-4.669
				l0.904-3.012l0.148-2.109l-0.904-1.655v-1.806l0.604-1.055l3.012-2.561l1.655-4.217l-1.655-2.409l-0.304-1.203l0.602-0.603v-0.902l-0.749-2.864l0.602-3.613l-0.904-1.202l0.303-0.454h1.054l0.449-1.204l0.903,0.301l1.054-0.15l0.754-0.755l10.844,32.527
				l0.149,0.603l-0.149,1.355l0.149,0.602l2.712,2.108l0.602,0.15l0.301,1.055v0.751l1.503,2.562l-0.296,0.451v1.356v1.204z"/>
			<g>
				<text transform="matrix(1 0 0 1 717.5532 68.708)"><tspan x="0" y="0" style="fill:#000000;stroke:none;">NH</tspan></text>
				<path style="fill:none;" d="M724.755,70.392l16.587,11.819"/>
			</g>
		</g>
		<g>
			<path d="M530.418,312.976l1.508,1.654l-1.207,56.619l0.303,2.713l3.466,28.61l0.752-0.603l0.9-0.602l2.563,0.901l0.599-1.203l0.454-4.068l1.055-2.857l1.654,2.857l-0.151,1.057l0.754,2.26l1.809,2.561l1.657,0.147l1.354-0.147l1.956-2.11l0.454-0.149l0.899-0.754
				v-0.452l-0.297-0.451l-0.904-0.452v-0.451l0.751-1.809l-0.299-0.602l-1.206-1.052h-0.45l-0.904-0.755l-1.207-1.808l-0.147-1.355l0.452-0.45l-0.154-0.451v-0.753l42.467-4.22l-0.303-1.205l-1.954-3.008l0.298-4.973l-1.955-4.213l-0.153-3.463l0.902-2.26v-2.56
				l1.507-2.11l0.152-0.601l-1.354-1.657l0.604-1.655l-1.058-1.202l-1.354-0.907l-0.603-1.203l-0.904-2.863l-1.052-1.052l-11.294-40.508l-40.358,3.615z"/>
			<text transform="matrix(1 0 0 1 551.0103 359.0088)"><tspan x="0" y="0" style="fill:#000000;stroke:none;">AL</tspan></text>
		</g>
		<g>
			<path d="M570.777,309.361l11.294,40.508l1.052,1.052l0.904,2.863l0.603,1.203l1.354,0.907l1.058,1.202l-0.604,1.655l1.354,1.657l-0.152,0.601l-1.507,2.11v2.56l-0.902,2.26l0.153,3.463l1.955,4.213l-0.298,4.973l1.954,3.008l0.303,1.205l0.148,0.906l1.509,1.508
				l-0.15,1.202l1.052,1.507l43.972-2.709l0.6,2.106l0.603,0.903l2.41,0.299l0.452-2.255l-1.356-4.221l0.151-1.503l0.454-0.753l1.204-0.904l3.163,1.506l2.859,0.151l1.354-0.452l-0.45-3.165l-0.602-1.656v-2.105l0.301-1.657l2.257-6.628l0.454-2.859l1.053-2.708
				l1.357-2.711l1.354-1.358l0.755-0.298l0.3-0.906l-1.203-0.3v-0.454h-0.752l-2.26-0.146l-0.604-0.455l-0.604-0.901l-0.903-3.915l-1.957-2.713l-2.408-0.901l-1.205-4.063l-1.505-1.811l-0.754-2.109l-1.355-0.602l-2.712-1.053l-1.654-2.111l-1.808-1.201
				l-0.152-1.057l-0.899-1.955l-0.606-0.603l-2.558-0.902l-4.97-4.67l-2.258-0.755l-0.604-1.504l-2.107-1.807l-1.507-3.013l-1.505-1.504l-0.604-1.206l-3.159-0.602l-4.22-2.107l-1.355-1.208l1.507-3.159l1.057-0.903l0.753-1.055l0.147-0.751l-0.147-0.302
				l-23.19,3.313l-15.661,1.806z"/>
			<text transform="matrix(1 0 0 1 605.4653 355.7495)"><tspan x="0" y="0" style="fill:#000000;stroke:none;">GA</tspan></text>
		</g>
		<g>
			<path d="M653.297,355.287h-0.752l-2.26-0.146l-0.604-0.455l-0.604-0.901l-0.903-3.915l-1.957-2.713l-2.408-0.901l-1.205-4.063l-1.505-1.811l-0.754-2.109l-1.355-0.602l-2.712-1.053l-1.654-2.111l-1.808-1.201l-0.152-1.057l-0.899-1.955l-0.606-0.603l-2.558-0.902
				l-4.97-4.67l-2.258-0.755l-0.604-1.504l-2.107-1.807l-1.507-3.013l-1.505-1.504l-0.604-1.206l-3.159-0.602l-4.22-2.107l-1.355-1.208l1.507-3.159l1.057-0.903l0.753-1.055l0.147-0.751l-0.147-0.302l4.518-2.261h1.354l0.151-0.903l4.066-1.804l0.452-0.603h0.601
				l20.33-2.41l0.15,0.599l-0.303,0.605l0.601,0.754l1.507-0.754l3.01,2.408l0.457,2.41l17.463-2.256l20.635,14.302l-0.754,0.452l-1.657,1.056l-1.356,1.955l-1.956,2.408l-1.354,3.013l-0.752,2.108v2.108v1.808l-0.604,0.604l-0.456,0.9l-1.352,0.153l-0.752,0.903
				l-1.056,1.204l-1.052,1.658l-0.754,1.354l-2.559,1.807l-1.508,2.262l-1.355,1.201l-1.808,1.356l-1.205,1.206l-0.9,0.753l-1.509,0.753l-0.903,0.298l-0.452,0.606l0.151,0.603l-0.3,0.298l-0.754,1.506l-1.203,1.207h-1.204l-0.303,0.297l-0.15,0.304l0.302,0.451
				l0.603,0.149l0.3,0.307l-0.149,0.751l-0.753,0.45l-1.356,1.356l-0.45,1.053v0.299z"/>
			<text transform="matrix(1 0 0 1 642.5298 327.8521)"><tspan x="0" y="0" style="fill:#000000;stroke:none;">SC</tspan></text>
		</g>
		<g>
			<path d="M623.479,271.265l-25.448,3.161l-1.352,0.903l-63.249,5.872l-1.054-0.75l-2.557,0.297l0.599,1.053v1.812l-22.284,1.803l-1.207,2.714l-0.753,3.31l0.304,1.055l-0.753,2.86l-0.604,0.906l0.302,0.906l-0.602,1.654l-1.958,2.107l-0.753,3.917l-1.957,2.558
				l0.301,2.711l-0.151,3.312l-0.601,0.301l-1.657,1.507l32.373-2.258l40.358-3.615l15.661-1.806l0.45-4.52h1.355l0.604-0.151l1.207-1.201l0.145-1.208l-0.145-0.754l0.596-1.05l1.057-1.504l3.161-1.36l3.613-0.902l3.617-3.163l1.505-0.602l2.108-2.108l0.6-1.809
				l0.303-0.149l0.906,0.149l0.601-0.9l0.301-0.452l1.206-1.206l0.45,0.149l1.057,0.602l1.202-0.602l0.151-0.6l1.953-1.506l1.358-0.601l2.408-0.151l2.562-4.368l2.109-1.207l0.151-1.202l0.301-1.205l-0.148-1.504l0.296-1.205z"/>
			<text transform="matrix(1 0 0 1 549.0835 299.7378)"><tspan x="0" y="0" style="fill:#000000;stroke:none;">TN</tspan></text>
		</g>
		<g>
			<path d="M589.298,384.801l-42.467,4.22v0.753l0.154,0.451l-0.452,0.45l0.147,1.355l1.207,1.808l0.904,0.755h0.45l1.206,1.052l0.299,0.602l-0.751,1.809v0.451l0.904,0.452l0.297,0.451v0.452l-0.899,0.754v1.205l0.449,0.303l2.411-0.755l0.754-0.604l0.901-2.259
				l0.301-0.754l1.056,0.303h0.903l0.451-0.303l0.754,0.153l-0.152,0.601l-1.656,1.355l0.303,0.304l1.354-0.604l1.959-0.151l7.679-2.558h1.056v0.602l-1.355,1.205l0.601,0.3l3.314,0.299l3.16,1.208l3.466,1.805l0.902,0.152l-0.149-1.054l0.754-0.604l0.753,0.904
				l1.954,0.601l0.454,0.303l0.148,0.303l-0.751,0.449l0.302,0.604l4.215,3.161l0.301,1.205l-0.15,1.056l-0.3,0.751l-0.604-0.603l-0.301-0.754l-0.303,0.754l0.153,0.903l0.903,0.3l5.873-1.657l0.297-0.75l2.11-0.152l4.817-3.912h3.163v-0.754l-0.449-0.754
				l0.905-2.107l5.117-0.604l7.679,3.918l0.148,1.053l1.961,1.507l1.654,2.557l4.822,3.466l0.601,1.358l1.355,1.199l3.614-0.149l2.86,4.218l0.752,0.603l-0.3,1.204l1.206,4.218l-0.453,4.816l-1.205,4.972l0.151,4.062l0.601,1.357l2.859,1.958l0.906-1.659
				l-0.906-0.751l-0.752-2.708l0.152-0.455l1.655-0.295l1.204,2.553h0.753l0.3-1.354l0.453-0.299l0.754,0.604l-0.151,1.203l-0.752,1.354l-0.752,1.206l-1.055,3.163l-0.903,0.449v1.508l1.056,1.204l1.654,1.502l2.561,5.726l4.065,2.558l0.449-0.146l0.152-1.356h1.205
				l0.902,2.406l0.154,1.357l1.354,3.012l1.658,1.055l1.804,0.601l3.013,8.133l0.752,0.452l4.067,0.903l1.657,0.903l4.515,5.572l1.956,1.505h0.755l1.207,0.601l0.299,1.056l-0.904,0.302l-0.751-0.302h-0.449l-0.605,0.302l-0.15,0.752l0.6,0.756l2.261,0.45
				l1.205-0.75l1.809-0.153l6.625-2.562l1.504-2.71l0.153-0.601l-0.902-3.614l0.147-1.809l1.355-3.164l1.355,0.303l-1.654-6.624l0.452-3.313l-0.303-6.173l-1.354-4.971l-0.906-1.81l-4.67-6.021l-2.857-6.778l-3.615-4.815l0.149-0.604l-0.3-1.203l-1.206-2.559v-1.206
				l1.206-1.656V422.6l-4.667-6.473l-2.71-2.563l-1.808-1.054l-0.454-0.902l-3.012-4.067l-4.063-7.227l-1.056-4.219l-2.562-5.871v-1.055l-1.055-0.901l-0.601-0.454l-0.454-4.219l-0.603-1.503l-1.354,0.452l-2.859-0.151l-3.163-1.506l-1.204,0.904l-0.454,0.753
				l-0.151,1.503l1.356,4.221l-0.452,2.255l-2.41-0.299l-0.603-0.903l-0.6-2.106l-43.972,2.709l-1.052-1.507l0.15-1.202l-1.509-1.508l-0.148-0.906z"/>
			<text transform="matrix(1 0 0 1 647.1821 434.3906)"><tspan x="0" y="0" style="fill:#000000;stroke:none;">FL</tspan></text>
		</g>
		<g>
			<path d="M530.418,312.976l-32.373,2.258l-0.15,1.053l-3.014,2.711l-1.054,2.861l0.301,3.164l-0.448,1.655l-2.864,1.805l-1.959,2.714l-0.752,0.901v2.561l-1.354,1.657v1.956l-0.905,2.562l-1.656,2.557l0.755,2.864l1.356,1.654l0.146,1.96l0.606,0.601v0.753
				l-0.904,0.603l-0.304,1.655v1.055v1.655l1.959,3.917l0.3,3.615l1.058,1.956l0.901,1.053l0.148,1.807l-2.107,1.205l-0.45,0.604l-1.056,4.063l-3.012,4.668l-2.558,8.136l-0.302,6.021l30.118-1.354l0.752,0.904l-0.906,3.011v4.215l3.315,3.165l0.752,3.613
				l2.107,0.149l3.165-2.708l7.377-2.261l1.808,0.603l2.558-0.903l0.452,0.753l1.656,0.453l0.605-0.303l-3.466-28.61l-0.303-2.713l1.207-56.619l-1.508-1.654z"/>
			<text transform="matrix(1 0 0 1 502.9487 365.5508)"><tspan x="0" y="0" style="fill:#000000;stroke:none;">MS</tspan></text>
		</g>
		<g>
			<path d="M439.467,355.895l46.379-1.358v1.655l1.959,3.917l0.3,3.615l1.058,1.956l0.901,1.053l0.148,1.807l-2.107,1.205l-0.45,0.604l-1.056,4.063l-3.012,4.668l-2.558,8.136l-0.302,6.021l30.118-1.354l0.752,0.904l-0.906,3.011v4.215l3.315,3.165l0.752,3.613
				l-4.367-0.905l-3.914-1.805l-1.055-0.15l-1.053,0.599l-2.864,2.563l-0.147,1.355l1.202,1.503l1.507,0.454l3.313-0.301l1.806-1.206l1.205-0.601h1.956l0.908-0.152l0.146,0.753l-0.45,0.753l-1.205,1.054l0.301,1.204l1.208,0.604l0.902,0.302l0.753-0.755
				l1.356-2.409l3.312-1.354l1.207-0.604h0.751l0.752,1.055l-0.454,1.356l0.454,0.755l-0.154,1.05l-1.505,1.056l-2.408,3.165l-2.558,1.805l-0.153,1.808l0.906,1.354l3.309,1.959l5.725,2.258l0.753,1.053l-0.604,1.357l-1.202,0.299l-4.365,1.958l-0.452-3.614
				l-2.561-1.202l-4.971-1.958l-0.604-1.657l-0.902-0.603l-1.355,0.755l-0.755,3.463l0.456,0.449l0.146,0.753l-2.557,1.806l-1.055-0.299l-1.355-1.958l-0.752-0.152l-1.659,0.604l-0.752-0.753l-0.751,0.149l-2.259,2.409l-2.56,0.152l-0.904-0.601l-2.712-0.604
				l-4.064-4.969l-2.258-0.449l-2.26-1.057l-0.904-1.505h-0.602l-0.152-0.302l-0.301-0.301l0.301-0.902l-1.055-0.305l-0.6,0.305l-1.81-0.305l-0.453-0.298l-0.297-1.206h-1.054l-3.167,2.859l1.508,1.657l-0.603,0.604l-4.969,0.15l-8.582-1.507l-4.968-1.955
				l-11.294,1.656l-0.753-0.754l-0.304-1.207l0.453-0.602l0.451-1.201l1.205-1.207l1.502-4.216l-1.199-1.807v-1.356l0.303-0.903l-0.153-1.202l0.452-2.411l1.204-0.906l0.75-1.803l0.606-3.467v-2.105l-0.606-3.014l-1.2-2.106l-0.604-0.604l0.302-1.055l-0.606-0.753
				l-0.901-1.809l-1.053-0.899l-0.303-0.604l0.604-2.106l-1.357-2.709l-2.259-2.108l-0.753-1.207l-0.45-19.271z"/>
			<text transform="matrix(1 0 0 1 457.6167 380.6621)"><tspan x="0" y="0" style="fill:#000000;stroke:none;">LA</tspan></text>
		</g>
		<g>
			<g>
				<path d="M390.828,452.715l7.529-6.022l-8.733,10.693l-1.356-0.604l2.56-4.067"/>
				<path d="M431.788,343.995l-0.754-0.149l-0.601-0.754l-1.355-0.452l-7.68-4.066l-0.453,0.451l-2.258,0.753l-3.461-0.45h-1.358l-1.054,0.151l-2.862,1.054l-3.462,0.302l-0.902,0.449l-2.562,1.961l-2.408-1.658l-1.509-0.752v-0.453l-0.296-0.299l-1.208-0.151
					l-0.603,0.903h-0.753l-1.803-0.606l-0.151-1.204l-0.607-0.148l-1.503,0.901l-1.205,1.656l0.152,1.056l-1.057,0.755l-0.601-1.208l0.302-1.655l-0.152-0.754h-1.356l-1.656,1.207h-0.6l-3.766-2.861l-1.203,0.45l-0.604,1.958l-3.013-0.604v-1.957l-0.602-0.3
					l-1.807-1.507v-0.601l-4.063-0.603l-1.055,1.204l-1.66-0.754l-1.051-1.508l-1.205,0.304l-0.3,0.303h-0.907l-1.505-0.753l-4.212-0.753l-0.456-0.3l-0.903-1.355l0.148-0.904l-0.45-0.903l-1.806-0.907l-1.054,0.907l-3.162,0.3l-1.055-0.453l-2.259-2.863
					l-0.903-0.751l-1.657-0.302l1.205-37.191l-45.928-2.714h-0.752l-6.927,86.738l-57.673-5.422l-0.301,0.303l0.451,0.603l0.151,0.302l-0.602,1.202l0.602,1.507l0.301,0.305l3.012,1.951l0.752,1.96l1.205,2.709l3.014,1.96l8.883,10.691l7.529,6.021l0.602,1.055
					l0.451,1.357l-0.151,1.656l0.604,0.9l1.655,2.714l-0.148,6.173l0.45,1.805l2.709,4.367l11.294,8.284l7.68,4.818l2.109,0.301l1.505-0.752l1.655-2.106l1.356-1.059l3.313-7.528l1.505-2.408l1.205-0.604l2.713,0.756l0.6-0.151l0.452-1.203l0.754-0.905l1.506,0.603
					l1.356,0.901l4.365,0.604l1.205,0.602l2.71,0.754l1.506-0.603l3.464,1.958l0.753,1.957l0.602,0.301l0.302,0.754l0.602,0.152l1.507,0.901l1.954,2.711l3.315,2.858l1.657,2.563l0.15,1.203l4.97,11.896l0.753,2.412l5.422,6.172l0.45,1.505l3.764,4.064l1.055,0.604
					l1.505,1.809l0.451,1.055l-0.3,4.064l1.205,1.503l0.453,4.52l1.204,1.505l3.914,7.53l0.3,2.108l2.711,0.302l3.013,1.809l3.614,1.202l5.418,3.464l7.229,0.602l1.506,0.152l3.916,2.71l1.956,0.905l1.81-2.262l1.655,0.454l0.601-0.604v-1.056l-1.656-0.599
					l0.304-0.604l-1.658-1.959l-2.412-9.034l-1.202-3.614l1.804-5.422l-0.297-1.803l-0.456-0.307l-0.449-0.146l-0.303-0.302v-0.45l0.303-0.302l2.408-1.506l1.507-4.971l-1.208-0.449l-0.446-2.411l1.203-1.505l1.657,1.202l2.709-1.957l0.753-2.56l-1.354-1.054
					l0.601-1.204l0.604,0.301l0.754,0.15l0.601-0.755l0.903,0.45h0.903l0.752-0.295l0.15-0.604v-2.111l0.304-0.598l0.752-0.152l0.302,0.299l0.751,0.154l4.066-1.057l0.45-0.151l0.151-0.749l-0.298-0.455l-2.112-1.203v-0.903l3.768-1.058l0.603-0.751l1.051-0.299
					l0.306,0.299l-0.454,0.452l0.603,1.054h0.604l0.756-0.604l5.869-1.808l9.787-6.322l0.451-2.409l4.519-3.916l0.148-0.604l-1.955-2.707l0.448-2.109l3.015-1.204h0.602l-0.453,2.408l0.304,0.752l3.462-0.449l0.604,0.903l6.927-3.014l4.067-0.449l0.149-0.151
					l-0.149-0.451l-0.753-0.754l-0.304-1.207l0.453-0.602l0.451-1.201l1.205-1.207l1.502-4.216l-1.199-1.807v-1.356l0.303-0.903l-0.153-1.202l0.452-2.411l1.204-0.906l0.75-1.803l0.606-3.467v-2.105l-0.606-3.014l-1.2-2.106l-0.604-0.604l0.302-1.055l-0.606-0.753
					l-0.901-1.809l-1.053-0.899l-0.303-0.604l0.604-2.106l-1.357-2.709l-2.259-2.108l-0.753-1.207l-0.45-19.271v-10.245l-2.41-0.599l-2.105,0.9l-0.756-0.151l-2.408-1.805z"/>
			</g>
			<text transform="matrix(1 0 0 1 354.1606 394.333)"><tspan x="0" y="0" style="fill:#000000;stroke:none;">TX</tspan></text>
		</g>
		<g>
			<path d="M429.378,279.395l-113.088-2.41l-14.908-0.903l-0.603,9.334l45.928,2.714l-1.205,37.191l1.657,0.302l0.903,0.751l2.259,2.863l1.055,0.453l3.162-0.3l1.054-0.907l1.806,0.907l0.45,0.903l-0.148,0.904l0.903,1.355l0.456,0.3l4.212,0.753l1.505,0.753h0.907
				l0.3-0.303l1.205-0.304l1.051,1.508l1.66,0.754l1.055-1.204l4.063,0.603v0.601l1.807,1.507l0.602,0.3v1.957l3.013,0.604l0.604-1.958l1.203-0.45l3.766,2.861h0.6l1.656-1.207h1.356l0.152,0.754l-0.302,1.655l0.601,1.208l1.057-0.755l-0.152-1.056l1.205-1.656
				l1.503-0.901l0.607,0.148l0.151,1.204l1.803,0.606h0.753l0.603-0.903l1.208,0.151l0.296,0.299v0.453l1.509,0.752l2.408,1.658l2.562-1.961l0.902-0.449l3.462-0.302l2.862-1.054l1.054-0.151h1.358l3.461,0.45l2.258-0.753l0.453-0.451l7.68,4.066l1.355,0.452
				l0.601,0.754l0.754,0.149l0.452-33.88l-2.712-21.082l-0.149-9.637z"/>
			<text transform="matrix(1 0 0 1 381.6353 313.4468)"><tspan x="0" y="0" style="fill:#000000;stroke:none;">OK</tspan></text>
		</g>
		<g>
			<path d="M209.829,265.842l-15.361,108.569v0.151l14.005,1.507l1.053-8.432l26.503,3.315l-0.301-0.305l-0.602-1.507l0.602-1.202l-0.151-0.302l-0.451-0.603l0.301-0.303l57.673,5.422l6.927-86.738h0.752l0.603-9.334l-91.553-10.24z"/>
			<text transform="matrix(1 0 0 1 240.7993 322.6699)"><tspan x="0" y="0" style="fill:#000000;stroke:none;">NM</tspan></text>
		</g>
		<g>
			<path d="M319.604,218.709l98.181,2.26l6.322,4.817l-1.954,2.409l-0.454,2.409l1.056,1.207l1.658,0.753l0.902,3.312l1.503,1.053l1.508,0.302l0.602,0.454l0.451,41.709l-113.088-2.41l3.313-58.276z"/>
			<text transform="matrix(1 0 0 1 369.0103 253.6597)"><tspan x="0" y="0" style="fill:#000000;stroke:none;">KS</tspan></text>
		</g>
		<g>
			<path d="M402.122,153.658l-0.147-35.084l-4.821-4.67l-0.15-1.656l2.409-2.56l0.906-1.957l-0.154-1.658l-0.149-2.86l0.304-2.56l-2.261-6.778l-0.152-1.505v-3.464l-0.599-1.955l-0.304-9.639l-1.054-5.573l-1.654-1.809l-1.206-6.171l-0.152-5.422l0.453-3.16
				l0.45-1.356l-1.356-4.519l-0.149-1.506l26.05-0.15l0.151-4.366l0.301-2.56h1.959l2.71,1.054l0.302,4.215l0.752,2.861l-0.147,2.56l2.857,2.106l1.056-0.298l1.955,0.298l0.907,1.055l2.258-0.299l2.406,0.451l0.605,0.902v0.755l3.763-0.152l1.203-1.505L447,54.422
				l3.61,1.056h0.904l-0.603,1.054l1.204,1.054l0.601-0.303l0.604,0.604l0.603,2.56l1.354,0.752l1.506-1.807l0.755-0.453l1.505,0.453l0.899,1.807l3.016,0.752l0.901,1.205l1.355,1.052h1.959l1.957-0.449l4.971-3.465l0.752,0.453l1.356,1.656l7.528-0.149l1.205,0.298
				l0.901,0.604l1.959,1.356l1.655-0.753l3.313-0.15l-1.957,1.807l-4.368,2.56l-2.407,0.602l-1.808,0.752l-1.957,1.958l-3.917,1.656l-1.655,1.355l-6.326,6.927l-9.034,8.283l-1.052,1.355l-0.902,0.904l0.302,10.388l-1.057,1.206l-1.203,0.602l-3.916,3.163
				l-0.152,1.656l-0.45,0.452l-1.054,2.861l2.106,1.055l1.356,2.408l-1.205,2.258l0.151,1.958l-0.303,3.162v5.121l0.752,1.053l1.508,1.054l0.302,0.902l3.611,0.602l0.603,0.454l0.149,0.904l0.908,0.601l4.214,1.808l1.357,3.012l3.763,2.862l4.368,3.011l0.603,1.055
				l-0.153,2.408l0.455,3.462l-72.283,2.41z"/>
			<text transform="matrix(1 0 0 1 417.7925 113.4893)"><tspan x="0" y="0" style="fill:#000000;stroke:none;">MN</tspan></text>
		</g>
		<g>
			<path d="M402.122,153.658l72.283-2.41l0.752,2.41l1.651,1.506v1.204l-1.198,1.807l0.749,2.409l1.357,5.272l4.366,1.504l1.354,1.205l0.604,1.804l0.603,1.057l2.863,1.958l0.299,1.806l2.863,1.653l0.901,3.315l-0.148,1.657l-0.907,1.958l-1.054,1.055v1.658
				l-2.557,2.708l-2.261,0.752l-0.753,0.755l-2.86,0.148l-1.507,0.906l-0.902,1.956l0.149,1.657l1.806,1.809l0.454,1.202l-0.454,2.862l-2.106,4.667l-2.258,1.507l-0.754,1.505l0.152,1.506l-1.058,1.657l-4.367-4.368l-58.274,1.808l-0.604-0.904l-0.45-2.108
				l0.45-1.507l-1.051-1.505l-0.455-1.505l1.056-1.505l-0.601-1.507l-1.958-1.053l0.449-3.015l0.605-1.653l-0.605-1.504l-1.956-1.508l-0.604-1.657l0.604-1.505l-1.655-1.505l-0.906-3.164l-1.503-1.354l0.903-2.712v-1.356l-2.11-1.202v-1.96v-0.45l-0.298-1.958
				l-1.508-3.617l1.508-3.46l-0.304-1.659l1.057-0.904l-0.606-2.86l-1.05-1.054l0.752-1.957l-0.604-1.054l-0.452-1.205l1.207-0.149l0.9,0.149z"/>
			<text transform="matrix(1 0 0 1 441.5308 181.917)"><tspan x="0" y="0" style="fill:#000000;stroke:none;">IA</tspan></text>
		</g>
		<g>
			<path d="M429.528,289.032l68.367-3.011l-0.306,0.754l1.509,1.053l0.604,1.657l-0.304,1.506l-2.108,1.655l-1.807,2.108l-0.148,1.355l10.39-0.754l0.753-2.86l-0.304-1.055l0.753-3.31l1.207-2.714l0.9-1.354l1.961-0.903l0.752,0.454l0.905-0.604l1.506-4.819
				l-0.606-1.809l-0.752-0.601l-0.452-0.3l-0.3-0.301l-0.301-0.455h-1.056l-0.149,0.756l-0.603,0.3l-3.013-5.272v-0.753l1.207-1.203V267.8l-1.355-1.656l-0.754-3.313l-4.368-3.765l-2.107-0.753l-4.214-2.71l-2.563-2.41l-0.904-2.26l0.454-1.203l2.709-3.162
				l-0.3-2.711l0.752-2.408l-0.603-1.207l-3.614-1.804l-1.203,0.601l-1.357,1.353l-0.753-0.6l-2.557-6.93l-1.207-1.201l-4.365-3.465l-4.367-5.12l-0.301-1.354l-1.054-3.16l-0.304-3.618l0.753-2.105v-0.753l-4.367-4.368l-58.274,1.808l1.054,1.657l1.508,1.505
				l0.452,2.56l2.108,2.561l0.901,0.602l-0.452,1.956l0.303,0.604l6.322,4.817l-1.954,2.409l-0.454,2.409l1.056,1.207l1.658,0.753l0.902,3.312l1.503,1.053l1.508,0.302l0.602,0.454l0.451,41.709l0.149,9.637z"/>
			<text transform="matrix(1 0 0 1 457.9312 259.79)"><tspan x="0" y="0" style="fill:#000000;stroke:none;">MO</tspan></text>
		</g>
		<g>
			<path d="M429.528,289.032l68.367-3.011l-0.306,0.754l1.509,1.053l0.604,1.657l-0.304,1.506l-2.108,1.655l-1.807,2.108l-0.148,1.355l10.39-0.754l-0.604,0.906l0.302,0.906l-0.602,1.654l-1.958,2.107l-0.753,3.917l-1.957,2.558l0.301,2.711l-0.151,3.312
				l-0.601,0.301l-1.657,1.507l-0.15,1.053l-3.014,2.711l-1.054,2.861l0.301,3.164l-0.448,1.655l-2.864,1.805l-1.959,2.714l-0.752,0.901v2.561l-1.354,1.657v1.956l-0.905,2.562l-1.656,2.557l0.755,2.864l1.356,1.654l0.146,1.96l0.606,0.601v0.753l-0.904,0.603
				l-0.304,1.655v1.055l-46.379,1.358v-10.245l-2.41-0.599l-2.105,0.9l-0.756-0.151l-2.408-1.805l0.452-33.88l-2.712-21.082z"/>
			<text transform="matrix(1 0 0 1 460.2944 326.0791)"><tspan x="0" y="0" style="fill:#000000;stroke:none;">AR</tspan></text>
		</g>
		<g>
			<path d="M291.897,197.027l3.313-38.549l3.16-38.099l-95.018-11.596l-1.355,9.639l-6.927,47.733h-0.15l-3.01,18.674l28.308,4.366l71.679,7.831z"/>
			<text transform="matrix(1 0 0 1 238.8809 156.3936)"><tspan x="0" y="0" style="fill:#000000;stroke:none;">WY</tspan></text>
		</g>
		<g>
			<path d="M209.829,265.842l10.389-76.646l71.679,7.831l28.912,2.408l-1.205,19.275l-3.313,58.276l-14.908-0.903l-91.553-10.24z"/>
			<text transform="matrix(1 0 0 1 262.249 235.583)"><tspan x="0" y="0" style="fill:#000000;stroke:none;">CO</tspan></text>
		</g>
		<g>
			<path d="M300.027,101.708l4.82-58.276l25.897,1.804l18.372,1.357l43.218,1.203l0.149,1.506l1.356,4.519l-0.45,1.356l-0.453,3.16l0.152,5.422l1.206,6.171l1.654,1.809l1.054,5.573l0.304,9.639l0.599,1.955v3.464l0.152,1.505l2.261,6.778l-0.304,2.56l0.149,2.86
				l-100.136-4.364z"/>
			<text transform="matrix(1 0 0 1 341.2612 81.896)"><tspan x="0" y="0" style="fill:#000000;stroke:none;">ND</tspan></text>
		</g>
		<g>
			<path d="M295.21,158.478l3.16-38.099l1.657-18.67l100.136,4.364l0.154,1.658l-0.906,1.957l-2.409,2.56l0.15,1.656l4.821,4.67l0.147,35.084l-0.9-0.149l-1.207,0.149l0.452,1.205l0.604,1.054l-0.752,1.957l1.05,1.054l0.606,2.86l-1.057,0.904l0.304,1.659
				l-1.508,3.46l1.508,3.617l0.298,1.958v0.45l-3.01-2.106l-6.174-4.065l-1.507-0.455h-2.56l-1.957,1.507l-2.109,0.454l-1.956-0.454l-1.203-2.56l-1.509-1.052l-1.957,0.45h-2.56l-2.108-3.012l-77.699-4.064z"/>
			<text transform="matrix(1 0 0 1 343.8418 136.082)"><tspan x="0" y="0" style="fill:#000000;stroke:none;">SD</tspan></text>
		</g>
		<g>
			<path d="M291.897,197.027l3.313-38.549l77.699,4.064l2.108,3.012h2.56l1.957-0.45l1.509,1.052l1.203,2.56l1.956,0.454l2.109-0.454l1.957-1.507h2.56l1.507,0.455l6.174,4.065l3.01,2.106v1.96l2.11,1.202v1.356l-0.903,2.712l1.503,1.354l0.906,3.164l1.655,1.505
				l-0.604,1.505l0.604,1.657l1.956,1.508l0.605,1.504l-0.605,1.653l-0.449,3.015l1.958,1.053l0.601,1.507l-1.056,1.505l0.455,1.505l1.051,1.505l-0.45,1.507l0.45,2.108l0.604,0.904l1.054,1.657l1.508,1.505l0.452,2.56l2.108,2.561l0.901,0.602l-0.452,1.956
				l0.303,0.604l-98.181-2.26l1.205-19.275l-28.912-2.408z"/>
			<text transform="matrix(1 0 0 1 348.9785 196.4414)"><tspan x="0" y="0" style="fill:#000000;stroke:none;">NE</tspan></text>
		</g>
		<g>
			<path d="M129.568,70.685l-0.302,1.055l-0.602,0.903l0.149,2.41l-26.802-6.325l-1.958,0.906h-1.356l-1.354-0.454l-1.808-0.15l-1.053-0.452h-1.355l-1.504,0.452l-1.96-0.452h-1.656l-1.958,0.903l-1.506,0.302l-3.312-0.453l-0.903-0.603l-1.959-0.752l-6.173,0.752
				l-1.206-1.654l-5.119-1.505l-2.411-0.303l-3.162,0.303l-4.667-0.303l-3.916-2.108l-0.752-1.504l0.301-4.82l0.302-0.903l-0.452-3.012l-2.861-2.109l-2.108-0.3l-0.301-0.6L44.637,48.7l-2.409-1.054l-0.3-0.299l-2.409-1.507l-0.753-0.149l-0.452-0.152v-0.751
				l0.603-2.259l0.45-1.054v-0.905v-0.604l0.454-0.149l0.299,0.149l0.152,1.356l-0.152,0.752l-0.15,0.454l0.15,0.602l1.808-1.656l-0.149-0.604v-0.904l0.752-0.901l-0.603-1.206l-1.054-0.302l-0.151-2.862l0.452-0.299l1.053,0.299l0.302-0.449l1.958-0.455
				l-1.355-1.203v-0.301l-0.451-0.452l-1.355,0.904V30.63v-1.205l0.453-2.409l-0.304-1.807l-0.148-1.656l0.453-3.917l0.299-1.655l-1.656-5.271l0.15-3.616l0.603-1.955l0.452-2.712l9.486,6.626l4.969,2.711l3.917,1.203l2.258,1.356h1.957l0.752,0.452l0.754,1.206
				l0.299,4.667l-0.299,1.054l-1.506,1.052l-0.603,2.11v1.655l0.15,0.903l-0.15,0.905l-0.451,0.751v0.753l0.902,0.753l1.808-0.902l1.204-4.217l0.753-0.902l0.753-1.958l2.562-2.561l0.15-1.054l-1.055-3.766l-1.958-5.269l-0.15-0.904l0.602-0.303l1.055,0.303
				l1.203-2.409l-0.15-2.712h-1.656l-0.15-1.808l-0.151-3.462l20.178,5.572l19.125,5.119l31.62,7.83l-10.54,47.583l-0.602,0.754v1.657l0.904,1.505z"/>
			<text transform="matrix(1 0 0 1 82.3618 44.6787)"><tspan x="0" y="0" style="fill:#000000;stroke:none;">WA</tspan></text>
		</g>
		<g>
			<path d="M139.806,19.187l12.199,2.41l-3.313,18.37l2.259,4.971l0.601,3.162l-0.601,1.958l-0.753,0.904l0.902,1.053l1.508,2.108l3.311,3.161l2.258,5.121l0.452,2.409l1.054,2.411l2.108,0.148l0.152,1.508l2.861,0.45l0.902,1.055l-3.011,6.174l0.151,1.054
				l-1.055,0.903l-0.15,3.011l0.302,0.303l-0.152,1.656l-2.256,1.505v1.658l0.148,1.205l-0.752,1.505l2.71,2.709l0.753-0.299l4.215-3.314l0.603-0.304l0.453,0.304l0.602,1.353l0.451,0.452l0.752,0.604l-0.45,2.409v3.913l0.903,2.562l1.505,2.109v1.204l-0.904,1.657
				l1.506,2.41h1.656l1.355,1.808l0.301,1.203l-0.451,2.56v0.754l0.904,2.107l1.957,1.053l0.904-1.805l0.753-0.603l3.011,1.204l1.355,0.151l1.206-1.206l1.054-0.149l0.751,0.753l3.616,0.148l1.656,0.905l0.603-0.3h3.914l-0.149-1.507l1.655-1.355l1.959,2.109
				l0.602,2.258l1.354,1.356v-0.151l-6.927,47.733h-0.15l-42.312-7.529l-41.864-8.734l7.529-34.03l1.958-2.409l0.15-2.26l0.452-0.301l0.151-0.602l0.601-1.054l-0.904-1.505l-2.258-1.053l-0.451-1.208l0.602-2.257l3.463-5.272l2.109-1.053l1.505-1.504v-1.357
				l1.205-1.056l6.625-10.236l-0.451-2.713l-1.357-1.204l-1.205-0.301l-1.355-1.807l-0.302-1.656l-0.149-2.41l0.602-0.903l0.302-1.055l-0.904-1.505v-1.657l0.602-0.754l10.54-47.583z"/>
			<text transform="matrix(1 0 0 1 153.3135 130.6807)"><tspan x="0" y="0" style="fill:#000000;stroke:none;">ID</tspan></text>
		</g>
		<g>
			<path d="M298.37,120.379l-95.018-11.596l-1.355,9.639v0.151l-1.354-1.356l-0.602-2.258l-1.959-2.109l-1.655,1.355l0.149,1.507h-3.914l-0.603,0.3l-1.656-0.905l-3.616-0.148l-0.751-0.753l-1.054,0.149l-1.206,1.206l-1.355-0.151l-3.011-1.204l-0.753,0.603
				l-0.904,1.805l-1.957-1.053l-0.904-2.107v-0.754l0.451-2.56l-0.301-1.203l-1.355-1.808h-1.656l-1.506-2.41l0.904-1.657v-1.204l-1.505-2.109l-0.903-2.562v-3.913l0.45-2.409l-0.752-0.604l-0.451-0.452l-0.602-1.353l-0.453-0.304l-0.603,0.304l-4.215,3.314
				l-0.753,0.299l-2.71-2.709l0.752-1.505l-0.148-1.205v-1.658l2.256-1.505l0.152-1.656l-0.302-0.303l0.15-3.011l1.055-0.903l-0.151-1.054l3.011-6.174l-0.902-1.055l-2.861-0.45l-0.152-1.508l-2.108-0.148l-1.054-2.411l-0.452-2.409l-2.258-5.121l-3.311-3.161
				l-1.508-2.108l-0.902-1.053l0.753-0.904l0.601-1.958l-0.601-3.162l-2.259-4.971l3.313-18.37l14.305,2.408l38.247,6.475l39.154,6.626l61.137,6.326l-4.82,58.276l-1.657,18.67z"/>
			<text transform="matrix(1 0 0 1 229.6782 76.5127)"><tspan x="0" y="0" style="fill:#000000;stroke:none;">MT</tspan></text>
		</g>
		<g>
			<path d="M12.414,124.596l-0.754-0.905l-1.053-3.914l0.903-1.958v-1.656l1.206-3.01l-0.603-6.024l0.903-1.354l1.205-0.602l0.754-1.055l0.753-1.958l0.752-0.752l0.299-2.711l0.604-0.15l3.614-4.367l1.808-4.065l3.162-5.873l3.462-10.691l2.559-4.518l2.26-6.625
				l2.711-8.282l1.055-2.861l0.45-2.561v-0.751l1.356-0.453l1.505,0.453l0.902-0.302l2.409,1.054l1.207,1.208l0.301,0.6l2.108,0.3l2.861,2.109l0.452,3.012l-0.302,0.903l-0.301,4.82l0.752,1.504l3.916,2.108l4.667,0.303l3.162-0.303l2.411,0.303l5.119,1.505
				l1.206,1.654l6.173-0.752l1.959,0.752l0.903,0.603l3.312,0.453l1.506-0.302l1.958-0.903h1.656l1.96,0.452l1.504-0.452h1.355l1.053,0.452l1.808,0.15l1.354,0.454h1.356l1.958-0.906l26.802,6.325l0.302,1.656l1.355,1.807l1.205,0.301l1.357,1.204l0.451,2.713
				l-6.625,10.236l-1.205,1.056v1.357l-1.505,1.504l-2.109,1.053l-3.463,5.272l-0.602,2.257l0.451,1.208l2.258,1.053l0.904,1.505l-0.601,1.054l-0.151,0.602l-0.452,0.301l-0.15,2.26l-1.958,2.409l-7.529,34.03l-41.108-9.637l-57.222-15.66z"/>
			<text transform="matrix(1 0 0 1 60.1113 105.1958)"><tspan x="0" y="0" style="fill:#000000;stroke:none;">OR</tspan></text>
		</g>
		<g>
			<path d="M69.636,140.255L55.18,197.178l63.093,92.755l-0.151-0.901l0.754-1.353l1.204-4.066l-0.752-1.357l0.903-9.184l-0.604-3.616l0.754-0.904l2.26-0.45l3.011,0.752l1.053,1.356l-0.151,0.605l1.206,1.201h1.655l2.864-8.132l1.804-9.939l18.524-95.319
				l-41.864-8.734l-41.108-9.637z"/>
			<text transform="matrix(1 0 0 1 96.8086 208.5664)"><tspan x="0" y="0" style="fill:#000000;stroke:none;">NV</tspan></text>
		</g>
		<g>
			<path d="M209.829,265.842l10.389-76.646l-28.308-4.366l3.01-18.674l-42.312-7.529l-18.524,95.319l75.746,11.897z"/>
			<text transform="matrix(1 0 0 1 171.9521 219.1899)"><tspan x="0" y="0" style="fill:#000000;stroke:none;">UT</tspan></text>
		</g>
		<g>
			<path d="M194.468,374.411l15.361-108.569l-75.746-11.897l-1.804,9.939l-2.864,8.132h-1.655l-1.206-1.201l0.151-0.605l-1.053-1.356l-3.011-0.752l-2.26,0.45l-0.754,0.904l0.604,3.616l-0.903,9.184l0.752,1.357l-1.204,4.066l-0.754,1.353l0.151,0.901l-0.151,2.713
				l0.151,1.053l-0.151,0.753l1.206,2.408v1.811l0.602,1.356l0.601,2.256l0.905,0.601l0.904,1.206l0.302,1.807l-0.302,0.602l-0.602-0.451l-1.959,1.657l-2.258,0.753l-1.658,2.26l-1.204,5.268l-3.012,3.916h-1.657l-0.149,1.051l0.451,1.355l-0.15,1.055l-0.755,2.415
				l0.603,1.2l2.109,1.81l0.302,0.75l-0.602,0.906l-0.303,1.204l-1.354,1.353l-0.755-0.149l-2.408-0.453l-1.205,4.519l56.016,32.223l32.677,5.421v-0.151z"/>
			<text transform="matrix(1 0 0 1 157.9082 314.2495)"><tspan x="0" y="0" style="fill:#000000;stroke:none;">AZ</tspan></text>
		</g>
		<g>
			<g>
				<path d="M106.98,332.399l-37.194-3.611l-0.302-0.603l-0.451-1.811l0.451-1.053l0.302-0.15l-0.452-0.602h-0.301l-0.602-1.657l0.149-0.604l-0.149-6.172l-3.162-6.775l-1.809-1.806l-1.657-2.86l-3.613-3.316l-2.409,0.152l-1.205-1.353l0.755-1.809l-0.604-1.202
					l0.151-1.058l-1.356-1.507l-3.765-0.449l-2.259-0.906l-2.71-2.407l-1.656-4.214l-2.41-1.812l-2.409-0.6l-6.927-3.166h-2.259l-2.86-1.952l-1.807-1.659v-1.506l1.053-1.353l0.603-3.313l0.451-2.11l0.452-0.905l-0.604-2.408l-1.805-0.903l-0.15-2.108l0.45-0.604
					h0.453l0.15-1.958l-1.806-1.504l-4.669-8.282l-0.301-2.258l-0.903-1.809l-0.3-1.804l-3.313-4.82l0.3-4.819l0.904-0.903l0.903-0.3l1.658-1.81l0.299-3.163l-1.052-1.201l-2.41-1.056l-2.409-2.109l-0.904-2.257l0.15-6.477l0.453-0.903l-0.301-1.657l0.753-0.297
					l0.451-3.013l0.602-0.301l0.603,1.203v2.408l0.3,0.753l2.258,1.658l0.454-0.604l0.15-1.808l-1.055-3.46l-0.302-2.11l0.302-2.709l-0.452-0.152l-1.656,1.66v1.053l-0.603,0.903l-2.108-0.753l-2.258-3.162L7.144,203.5l1.055-2.109v-6.925l-3.013-3.313l-1.205-2.561
					l-2.259-5.87l1.204-1.961l-0.452-1.804l-0.299-1.505l1.205-4.218l1.353-2.111l0.454-1.052l-0.454-4.064l-1.806-4.069l-0.15-1.053l-0.451-1.055l-0.904-0.903l-0.603-1.806l-0.301-2.411l0.451-0.752l-0.15-1.958l1.958-3.162l5.423-6.023v-1.208l0.449-2.407
					l1.205-1.054l1.356-2.26l0.451-5.267l-1.053-2.412l1.053-2.56l0.754-1.054l57.222,15.66L55.18,197.178l63.093,92.755l-0.151,2.713l0.151,1.053l-0.151,0.753l1.206,2.408v1.811l0.602,1.356l0.601,2.256l0.905,0.601l0.904,1.206l0.302,1.807l-0.302,0.602
					l-0.602-0.451l-1.959,1.657l-2.258,0.753l-1.658,2.26l-1.204,5.268l-3.012,3.916h-1.657l-0.149,1.051l0.451,1.355l-0.15,1.055l-0.755,2.415l0.603,1.2l2.109,1.81l0.302,0.75l-0.602,0.906l-0.303,1.204l-1.354,1.353l-0.755-0.149l-2.408-0.453z"/>
				<path d="M49.155,312.671l3.313,5.875h-1.656l-1.657-5.875"/>
				<path d="M34.55,286.626l4.366,3.012l-3.163,0.598l-1.204-3.61"/>
				<path d="M28.827,286.922l1.957-0.451l1.204,2.561l-3.161-2.11"/>
			</g>
			<text transform="matrix(1 0 0 1 42.3877 248.4609)"><tspan x="0" y="0" style="fill:#000000;stroke:none;">CA</tspan></text>
		</g>
		<g>
			<path d="M484.041,170.37l-0.604-1.804l-1.354-1.205l-4.366-1.504l-1.357-5.272l-0.749-2.409l1.198-1.807v-1.204l-1.651-1.506l-0.752-2.41l-0.455-3.462l0.153-2.408l-0.603-1.055l-4.368-3.011l-3.763-2.862l-1.357-3.012l-4.214-1.808l-0.908-0.601l-0.149-0.904
				l-0.603-0.454l-3.611-0.602l-0.302-0.902l-1.508-1.054l-0.752-1.053v-5.121l0.303-3.162l-0.151-1.958l1.205-2.258l-1.356-2.408l-2.106-1.055l1.054-2.861l0.45-0.452l0.152-1.656l3.916-3.163l1.203-0.602l1.057-1.206l-0.302-10.388l0.902-0.904l1.052-1.355
				l1.356,0.751l1.805,0.302l2.262-0.151l3.611-2.108l6.779-3.463l1.202-0.149l0.449,0.752v1.508l-0.597,0.903v0.901l-0.754,2.711l2.558-1.206h1.356l1.658,1.509l1.503-0.303l0.758,1.056l1.957,0.3l0.902,0.752l0.602,2.259l0.903,0.451l12.648,2.559h1.505
				l2.713,2.26h1.806l0.601,0.605l0.607-0.605h0.897l3.166,0.605l1.954,0.6l0.753,0.752l-0.298,0.454l-0.151,0.601l2.106,0.602l2.411,1.206l0.303,1.807l-0.752,4.818l0.449,0.15l2.413-0.451l0.296,0.301l-0.296,1.053l-0.755,0.753l0.599,2.259l2.11,1.205
				l-0.303,0.303l-2.858,2.86l-1.807,3.614l-0.604,2.561l-0.303,1.203l0.603,0.452l2.11-1.055l2.256-4.216l2.409-1.956l1.206-0.603l0.303-1.055l1.054-0.904l0.602-1.204l-0.152-1.354l0.152-1.055l0.603-0.451l0.602-1.207l0.604-0.6l0.752-0.151l0.45,0.751
				l-0.298,2.41l-1.959,4.819l-0.905,1.205l-0.449,1.809v1.049l-1.809,3.919v3.46l-0.15,2.411l-1.809,1.807l-0.451,1.206l0.604,2.708l0.152,4.67l-0.756,1.054l-1.506,4.818l0.904,7.076l1.957,4.818l-0.451,0.754l0.302,1.053l-0.152,0.753l0.152,2.11l-39.754,2.706z"
				/>
			<text transform="matrix(1 0 0 1 488.5845 140.5088)"><tspan x="0" y="0" style="fill:#000000;stroke:none;">WI</tspan></text>
		</g>
		<g>
			<path d="M523.794,167.664l-39.754,2.706l0.603,1.057l2.863,1.958l0.299,1.806l2.863,1.653l0.901,3.315l-0.148,1.657l-0.907,1.958l-1.054,1.055v1.658l-2.557,2.708l-2.261,0.752l-0.753,0.755l-2.86,0.148l-1.507,0.906l-0.902,1.956l0.149,1.657l1.806,1.809
				l0.454,1.202l-0.454,2.862l-2.106,4.667l-2.258,1.507l-0.754,1.505l0.152,1.506l-1.058,1.657v0.753l-0.753,2.105l0.304,3.618l1.054,3.16l0.301,1.354l4.367,5.12l4.365,3.465l1.207,1.201l2.557,6.93l0.753,0.6l1.357-1.353l1.203-0.601l3.614,1.804l0.603,1.207
				l-0.752,2.408l0.3,2.711l-2.709,3.162l-0.454,1.203l0.904,2.26l2.563,2.41l4.214,2.71l2.107,0.753l4.368,3.765l0.754,3.313l1.355,1.656v0.752l-1.207,1.203v0.753l3.013,5.272l0.603-0.3l0.149-0.756h1.056l0.301,0.455l0.904-3.463l1.807-0.901l2.561,0.45
				l1.958,0.901l1.805,1.356l2.109-0.904l-0.902-3.914l-0.303-1.958l1.357-0.755l4.667-1.354l0.304-0.302l-1.508-1.956v-0.602l0.602-0.455l0.301-1.504l0.605-0.902l-0.304-0.301l-0.15-0.755v-0.753l0.752-3.613v-2.86l2.409-2.257l1.354-3.014l0.15-1.205l2.11-3.766
				l-0.604-4.216l-1.807-3.462l0.604-2.41l-0.303-1.654l0.603-0.754l-3.764-45.627l-0.753-0.452l-0.602-1.205l-0.903-4.217l-0.604-1.204l-1.354-1.205l-1.355-2.863v-3.46z"/>
			<text transform="matrix(1 0 0 1 505.6577 223.4863)"><tspan x="0" y="0" style="fill:#000000;stroke:none;">IL</tspan></text>
		</g>
		<g>
			<path d="M529.366,182.269l3.764,45.627l-0.603,0.754l0.303,1.654l-0.604,2.41l1.807,3.462l0.604,4.216l-2.11,3.766l-0.15,1.205l-1.354,3.014l-2.409,2.257v2.86l-0.752,3.613v0.753l0.15,0.755l1.205,0.15l1.202-0.452l-0.147-0.603l0.448-1.354l2.862,0.153
				l3.614-1.36l4.519,2.112l0.448,0.449l0.905-0.299l0.904-3.014l2.562-0.903l1.051,1.358l1.509,1.05l1.205-1.05l1.204-3.919l0.903-1.203l1.052,0.152l1.657,1.955l3.764-0.15l1.06-3.462l6.02-7.833v-2.858l1.204-0.905l2.562,0.603l2.107-1.657l1.656-0.45
				l0.604-1.205l-0.907-3.315v-1.055l0.603-1.354l-5.721-49.992l-0.151-0.903l-29.512,3.764l-0.902,0.752l-2.26,0.905l-1.207,0.6l-2.707,0.453l-1.96-1.506z"/>
			<text transform="matrix(1 0 0 1 549.1577 215.1279)"><tspan x="0" y="0" style="fill:#000000;stroke:none;">IN</tspan></text>
		</g>
		<g>
			<g>
				<path d="M538.402,181.064l29.512-3.764l0.151,0.903l18.673-2.409l0.304-0.905l2.257-4.52l0.901-1.201l-0.145-3.014l0.75-2.408l2.407-1.96v-2.557l0.452-0.452v-1.356l1.354-1.204l0.603,1.356l0.454,0.15l0.902-0.602l0.453-0.604l0.299-1.354l-0.449-2.56
					l0.304-3.313l-0.904-2.108l-0.604-4.668l-4.218-10.993l-4.217-1.354l-1.656,1.055l-1.957,1.955l-4.969,7.379h-0.451l-0.452-0.301l-1.958-0.752l-0.603-0.604l-0.751-1.657l0.6-3.012l0.905-1.353l2.41-1.506l0.604-1.356l0.149-1.053l0.298-1.359l1.209-0.6
					l1.052-2.409v-4.819l-0.754-2.41l-0.755-1.355l-1.504-1.807l-0.451-0.902l0.301-1.207l1.654-0.602l0.304-0.452l-1.958-3.463l-1.656-0.903l-4.969-1.959l-3.616-0.602l-1.202-1.505l-2.86-0.603l-2.712-0.905l-1.954-1.355l-1.209,1.055l-1.507,0.602l-1.506,2.711
					v2.106l0.301,0.905h0.605l0.301,0.903l-0.604,0.304l-1.205,0.602l-0.904,0.6l-1.052,1.356l-1.054,1.958l0.301,2.109l0.299,1.956l-1.202,2.258l-1.658,0.905l-0.298-1.656l0.752-1.958l-0.752-2.11l0.298-0.753L549.692,113l-0.751,0.453l-0.902,1.505l-0.299,1.806
					l-0.604,1.054h-1.055l-1.807,1.507l-0.604,1.354l-0.299,1.056l-1.507,1.805l-0.15,3.013l-0.154,3.464l-0.298,1.957l-1.206,2.561l-1.052,1.505l0.298,1.657l1.358,4.216l-0.752,2.56l1.053,2.258l2.709,5.722l1.957,4.669v3.913l0.906,0.904v0.604l-0.602,0.602
					l-0.455,4.065l-0.751,2.863l-1.056,2.86l-2.408,5.572l-2.108,1.806l-0.752,0.754z"/>
				<path d="M482.533,91.467l2.715-0.904l1.352-0.905l2.861-1.656l0.604-1.352l1.203-0.153l5.12-1.955l3.614-1.959l4.217-4.367l1.507-0.301L509.187,74l2.411-1.204l3.913-0.752l1.055,0.297l0.149,0.455l-2.106,1.504l-0.602,0.151l-0.904,1.805l-2.861,3.165
					l-1.354,1.204l-0.754,1.052l-0.6,2.712l0.6,1.808l0.452-1.056l2.409-1.958l1.657,0.151l1.052-0.3l5.271,2.26l4.217,4.514l3.313-0.449l1.657,0.298l1.204,0.603h1.053l0.456-0.148l1.202,0.451v0.602l0.753-0.602l0.601-1.204l3.766-2.71l12.047-3.012l3.163-1.807
					l1.507-0.453l0.601,0.754l-0.904,1.656v1.053l1.506,2.863l0.902,0.298l0.605-0.449l1.955,0.15l0.905-0.454l3.764-0.449l1.655,1.055l1.659,3.011l1.203,1.203l2.862,1.357l3.159-0.753h0.754l0.752,0.753l0.151,1.053l-1.199,1.204l-1.961,0.151l-1.055-0.151
					l-0.305-0.601h-0.598l-1.958,1.052l-1.354-0.452l-1.207-0.151l-3.313,0.753l-1.958-0.602l-0.75,0.602l0.451,1.808l-0.451,0.602l-0.906-0.3l-1.955-1.807l-4.972-0.601l-1.051,0.298l-1.209-0.602l-3.46,2.561h-0.755l-1.353,0.752l-0.454,0.602l-0.752,0.301
					l-1.957-0.453l-2.107,0.453l-0.15,1.656l-0.452,0.905l-4.219,3.762l-0.753-0.299l-0.45-0.605l1.808-2.406v-1.204l-2.411,0.149l-0.9,2.259l-0.907,0.904l-0.901-1.056l-0.301-2.107l-0.453,0.3l-0.448,2.711l-1.508,2.711l-0.905,2.709l-0.903,1.656l-1.959,3.013
					v2.107l-0.299,0.753l-2.11-1.205l-0.599-2.259l0.755-0.753l0.296-1.053l-0.296-0.301l-2.413,0.451l-0.449-0.15l0.752-4.818l-0.303-1.807l-2.411-1.206l-2.106-0.602l0.151-0.601l0.298-0.454l-0.753-0.752l-1.954-0.6l-3.166-0.605h-0.897l-0.607,0.605
					l-0.601-0.605h-1.806l-2.713-2.26h-1.505l-12.648-2.559l-0.903-0.451l-0.602-2.259l-0.902-0.752l-1.957-0.3l-0.758-1.056z"/>
			</g>
			<text transform="matrix(1 0 0 1 561.0972 156.9287)"><tspan x="0" y="0" style="fill:#000000;stroke:none;">MI</tspan></text>
		</g>
		<g>
			<path d="M568.065,178.204l5.721,49.992h1.21l1.501,0.752h0.907l1.654-0.903l3.013,2.258l1.052,2.71l2.262,0.906l3.162-0.304l3.161,2.261l1.206-1.659l1.052-0.148l2.714,1.055l2.257-0.304l0.301-0.449l1.053-0.603l0.452-0.755l1.807-1.353l0.754,1.201l1.505,2.111
				l1.657,0.451l1.657,1.205l0.602,0.603l1.956-0.15l1.508-2.561l1.051-0.905l0.306-1.955l-0.306-2.259l1.508-4.52h1.203l1.207,2.26l1.807-1.958l-0.602-2.411l1.506-3.31l1.355-1.208l0.151-0.753l1.204-1.354l1.204,0.299l1.806-0.451v-0.752l2.862-3.312l0.753-0.303
				l1.658-1.505l-0.152-2.257l-0.302-0.905v-1.657l0.603-1.656l1.055-6.929l-2.861-1.353l2.108-1.808l-0.752-1.957l1.054-0.902l0.451,0.148l-4.516-25.297l-7.231,3.615l-3.161,1.955l-1.207,1.056l-4.214,4.519l-1.203,0.754l-1.207-0.151h-2.407l-1.36,0.299
				l-3.458,3.012l-1.357-0.302l-2.711-0.902l-0.751,0.452l-1.055-0.303l0.752-1.205l-0.604-0.149l-2.104-0.303l-4.521-1.505l-0.9-0.301l-2.11,0.454v-0.753l-18.673,2.409z"/>
			<text transform="matrix(1 0 0 1 593.5347 207.0635)"><tspan x="0" y="0" style="fill:#000000;stroke:none;">OH</tspan></text>
		</g>
		<g>
			<path d="M508.134,285.416l22.284-1.803v-1.812l-0.599-1.053l2.557-0.297l1.054,0.75l63.249-5.872l1.352-0.903l1.054-1.055l5.423-2.556l0.605-1.359l3.009-2.108l0.151-1.357l0.45-0.752l1.506-0.904l0.152-1.653l1.506-1.36l7.83-6.775l0.452-1.504h-1.058
				l-1.054-0.751h-0.449l-0.453-0.605l-1.505-0.754l-0.755,0.151l-0.454-0.3l-1.953-3.013l-3.164-3.914l-0.299-1.206l0.149-1.202v-1.81l-0.452-2.407l-0.602-0.603l-1.657-1.205l-1.657-0.451l-1.505-2.111l-0.754-1.201l-1.807,1.353l-0.452,0.755l-1.053,0.603
				l-0.301,0.449l-2.257,0.304l-2.714-1.055l-1.052,0.148l-1.206,1.659l-3.161-2.261l-3.162,0.304l-2.262-0.906l-1.052-2.71l-3.013-2.258l-1.654,0.903h-0.907l-1.501-0.752h-1.21l-0.603,1.354v1.055l0.907,3.315l-0.604,1.205l-1.656,0.45l-2.107,1.657l-2.562-0.603
				l-1.204,0.905v2.858l-6.02,7.833l-1.06,3.462l-3.764,0.15l-1.657-1.955l-1.052-0.152l-0.903,1.203l-1.204,3.919l-1.205,1.05l-1.509-1.05l-1.051-1.358l-2.562,0.903l-0.904,3.014l-0.905,0.299l-0.448-0.449l-4.519-2.112l-3.614,1.36l-2.862-0.153l-0.448,1.354
				l0.147,0.603l-1.202,0.452l-1.205-0.15l0.304,0.301l-0.605,0.902l-0.301,1.504l-0.602,0.455v0.602l1.508,1.956l-0.304,0.302l-4.667,1.354l-1.357,0.755l0.303,1.958l0.902,3.914l-2.109,0.904l-1.805-1.356l-1.958-0.901l-2.561-0.45l-1.807,0.901l-0.904,3.463
				l0.3,0.301l0.452,0.3l0.752,0.601l0.606,1.809l-1.506,4.819l-0.905,0.604l-0.752-0.454l-1.961,0.903l-0.9,1.354z"/>
			<text transform="matrix(1 0 0 1 570.1968 264.1411)"><tspan x="0" y="0" style="fill:#000000;stroke:none;">KY</tspan></text>
		</g>
		<g>
			<path d="M632.064,190.851l-0.451-0.148l-1.054,0.902l0.752,1.957l-2.108,1.808l2.861,1.353l-1.055,6.929l-0.603,1.656v1.657l0.302,0.905l0.152,2.257l-1.658,1.505l-0.753,0.303l-2.862,3.312v0.752l-1.806,0.451l-1.204-0.299l-1.204,1.354l-0.151,0.753
				l-1.355,1.208l-1.506,3.31l0.602,2.411l-1.807,1.958l-1.207-2.26h-1.203l-1.508,4.52l0.306,2.259l-0.306,1.955l-1.051,0.905l-1.508,2.561l-1.956,0.15l0.452,2.407v1.81l-0.149,1.202l0.299,1.206l3.164,3.914l1.953,3.013l0.454,0.3l0.755-0.151l1.505,0.754
				l0.453,0.605h0.449l1.054,0.751h1.058l0.601,0.451l-0.601,1.51l2.408,2.257l3.311,1.2l1.507,0.154l1.808-1.508l0.151-1.053l1.205-0.601l1.206,1.056l0.751,0.449l1.207-0.298l3.761-1.511l0.604-2.406h0.448l0.904,0.751l3.014-2.71l1.055,0.602l2.556-3.313
				l-0.599-1.354l0.15-2.258l2.559-4.822l3.312-12.497l0.605-0.148l1.806,1.202l0.303,0.752l0.903,1.056l1.957-0.454l1.355-2.259l1.204-4.667l1.054-1.808l1.808,0.753l1.204-2.711l1.206-0.45l1.056-1.505l0.902-2.561l0.751-0.605l0.151-0.602l-0.603-0.6l0.301-3.763
				l0.302-0.604l0.601-0.452l6.93,4.368l1.052,0.299l0.305-0.299l0.748-3.766l-1.658-3.463l-0.749-0.152l-0.603-1.657l-1.205,0.453h-1.204l-1.054-0.601l-4.817,1.657l-0.454,1.353l-1.957,0.604l-1.807-0.452l-0.754-0.904l-0.902,1.959l-1.054,0.45l-1.056,1.808
				l-1.355,0.302l-3.011,3.46l-0.904,0.455l-0.751,1.353l-2.261-9.938l-14.907,2.863l-2.86-17.018z"/>
			<text transform="matrix(1 0 0 1 626.5825 238.9414)"><tspan x="0" y="0" style="fill:#000000;stroke:none;">WV</tspan></text>
		</g>
		<g>
			<path d="M712.778,256.204l-38.4,7.379l-40.355,6.627l-0.753-0.302l-1.656,0.452l-4.218,0.455l0.3-0.753l-4.216,0.753v0.45l-25.448,3.161l1.054-1.055l5.423-2.556l0.605-1.359l3.009-2.108l0.151-1.357l0.45-0.752l1.506-0.904l0.152-1.653l1.506-1.36l7.83-6.775
				l0.452-1.504l0.601,0.451l-0.601,1.51l2.408,2.257l3.311,1.2l1.507,0.154l1.808-1.508l0.151-1.053l1.205-0.601l1.206,1.056l0.751,0.449l1.207-0.298l3.761-1.511l0.604-2.406h0.448l0.904,0.751l3.014-2.71l1.055,0.602l2.556-3.313l-0.599-1.354l0.15-2.258
				l2.559-4.822l3.312-12.497l0.605-0.148l1.806,1.202l0.303,0.752l0.903,1.056l1.957-0.454l1.355-2.259l1.204-4.667l1.054-1.808l1.808,0.753l1.204-2.711l1.206-0.45l1.056-1.505l0.902-2.561l0.751-0.605l0.151-0.602l-0.603-0.6l0.301-3.763l0.302-0.604l0.601-0.452
				l6.93,4.368l1.052,0.299l0.305-0.299l0.748-3.766h1.207l1.203,0.454l1.507,0.449l-0.903,1.506l1.656,1.808h2.862l1.356,1.354l1.806,0.754l1.354,1.657l-0.299,0.904l-1.808,3.313l-1.205,3.01l0.302,2.108l2.256,0.151l1.959-1.205l1.506,1.809l0.903,0.451
				l0.753,0.152l1.206,1.051l0.603,0.15l1.053-0.6l0.603,0.15l3.463,1.804l2.411,0.753l1.354,1.508l-0.15,0.753l-0.903,0.752l0.453,2.408l-0.453,0.451l-0.755,0.453v0.301l2.715,1.204l0.9,1.96l-0.15,0.754l-0.452,0.601l-2.107-0.453l-0.301,0.902l0.753,0.905
				l0.451-0.152v0.752l-1.204,0.454h-0.604l-0.148,0.45l0.753,0.603l1.807,0.151l1.658,0.604l0.451,0.903l-1.806,1.809h-0.906l-2.256-0.754v0.901l1.503,0.752l1.355,1.207l1.658-0.601l1.655-1.206h1.654h2.259l0.15,0.302l1.813,5.27l-1.36,1.205h-0.301l0.152,0.751z
				"/>
			<text transform="matrix(1 0 0 1 666.9312 250.9409)"><tspan x="0" y="0" style="fill:#000000;stroke:none;">VA</tspan></text>
		</g>
		<g>
			<path d="M586.438,307.555l0.45-4.52h1.355l0.604-0.151l1.207-1.201l0.145-1.208l-0.145-0.754l0.596-1.05l1.057-1.504l3.161-1.36l3.613-0.902l3.617-3.163l1.505-0.602l2.108-2.108l0.6-1.809l0.303-0.149l0.906,0.149l0.601-0.9l0.301-0.452l1.206-1.206l0.45,0.149
				l1.057,0.602l1.202-0.602l0.151-0.6l1.953-1.506l1.358-0.601l2.408-0.151l2.562-4.368l2.109-1.207l0.151-1.202l0.301-1.205l-0.148-1.504l0.296-1.205v-0.45l4.216-0.753l-0.3,0.753l4.218-0.455l1.656-0.452l0.753,0.302l40.355-6.627l38.4-7.379l0.6,0.754
				l0.302,0.603l1.057,0.603l0.752,0.297l0.602,0.906l0.604,0.601l0.751,1.809l-0.3,0.602l0.152,0.153h-0.604l-0.151-0.606l-1.206,0.301h-0.753l-0.753-0.301l-0.604,0.153l0.453,0.752l-0.148,0.452l-3.614,1.656l-0.755,0.753l-1.357,1.355l-2.253,0.301l-0.455,1.506
				v0.451l0.455,0.151l0.749-0.151l2.409-1.203l2.409-0.605l1.354-0.901l2.263,0.15l0.303,0.301l-0.303,1.354l0.303,0.602l0.6,0.454l0.903-0.301l0.302-0.755l1.354-1.654h1.208l0.749,1.806l0.305,3.014l0.297,0.904v0.602l-1.956,1.506l-0.451,1.202l-0.302,0.753
				l-1.506,1.206l-1.054,0.451l-1.201,0.751l-2.564-0.149l-0.903-0.302l-0.301,0.302h-0.303l-0.447-1.204v-0.603l-0.456-0.452l-0.603-0.152l-0.449,0.455l0.449,2.26l-0.449,0.751l-0.304-0.303l0.753,1.057l1.059,0.147l1.051,1.208l-0.755,1.353l0.454,0.753
				l-2.861,3.617l-0.902,0.149l-1.658-0.605h-1.203l-0.152,0.605l1.052,0.751l3.164-0.149l1.96-0.602l2.861-1.357l0.301-1.055l0.751,0.302l1.054,0.908l-1.054,2.406l-2.258,2.56l-2.712,0.454l-1.056,0.6l-3.158,0.45l-2.561,4.369l-1.204,0.146v0.608l0.149,0.15
				l-3.013,1.958l-1.654,2.107l-1.655,3.766l-0.906,4.518l-0.753,1.201l-1.505,0.603l-6.326,1.205l-0.599,0.602l-20.635-14.302l-17.463,2.256l-0.457-2.41l-3.01-2.408l-1.507,0.754l-0.601-0.754l0.303-0.605l-0.15-0.599l-20.33,2.41h-0.601l-0.452,0.603
				l-4.066,1.804l-0.151,0.903h-1.354l-4.518,2.261l-23.19,3.313z"/>
			<text transform="matrix(1 0 0 1 662.1528 287.123)"><tspan x="0" y="0" style="fill:#000000;stroke:none;">NC</tspan></text>
		</g>
		<g>
			<g>
				<path d="M712.025,228.5l0.448,0.15l0.152,1.654l-0.152,0.903l-1.203,1.358l-0.603,1.205l-0.452,3.009l0.452,2.71v2.862l0.753,2.11l0.453-2.861l0.904-2.863l1.805-4.216l0.753-1.808l0.454-1.656l-0.151-2.408l0.151-0.904l2.106-1.656l0.302-0.754l-4.972,1.659
					l-1.201,1.505z"/>
				<path d="M702.991,194.915l-12.802,2.263l-40.357,7.828l2.261,9.938l0.751-1.353l0.904-0.455l3.011-3.46l1.355-0.302l1.056-1.808l1.054-0.45l0.902-1.959l0.754,0.904l1.807,0.452l1.957-0.604l0.454-1.353l4.817-1.657l1.054,0.601h1.204l1.205-0.453l0.603,1.657
					l0.749,0.152l1.658,3.463h1.207l1.203,0.454l1.507,0.449l-0.903,1.506l1.656,1.808h2.862l1.356,1.354l1.806,0.754l1.354,1.657l-0.299,0.904l-1.808,3.313l-1.205,3.01l0.302,2.108l2.256,0.151l1.959-1.205l1.506,1.809l0.903,0.451v-0.603l1.959-0.452l2.258,0.151
					l3.158,1.056l1.509,0.752l0.604-0.15l0.148-0.602l-0.752-0.755l-1.355-2.259l-1.352-0.301l-0.153-0.3l0.153-0.604h0.449l0.602-0.751l-1.653-0.604l-1.21-1.955l-1.05-3.314l-0.305-1.357l-0.298-1.955l0.603-3.314l-0.151-1.056l-0.602-0.6l-0.15-0.905l0.301-0.752
					l0.451-0.753l0.451-1.206l2.563-1.956l0.449-0.604l0.749-2.559l1.661,0.148l0.6,0.906l-1.203,2.108l-0.904,1.506l-0.902,1.203l-0.754,1.657l0.754,1.656l1.206,0.454l0.751,3.611l-0.15,0.604l-1.959,1.205l0.304,0.751l1.655,0.604l0.451,0.752l-0.451,1.657
					l0.451,0.902l-0.15,0.903l0.902,2.109l2.107,1.506h1.056l0.755-0.604h1.201l0.605,0.302l-0.303,1.206l1.205,2.108v0.752l0.752,1.205l1.81-0.152l0.3,0.304l1.053-1.505l4.972-1.659l0.151-0.753l0.298-1.204l1.206-6.325l-0.15-0.604l-9.639,2.112l-7.073-23.646z"
					/>
			</g>
			<g>
				<text transform="matrix(1 0 0 1 735.2593 236.9521)"><tspan x="0" y="0" style="fill:#000000;stroke:none;">MD</tspan></text>
				<path style="fill:none;" d="M712.334,221.342l20.745,9.87"/>
			</g>
		</g>
		<g>
			<path d="M719.703,216.45l-0.297-1.806l-1.057-2.709l-1.808-1.809l-2.712-1.807l-0.903-1.204l-0.604-1.207l-2.107-3.612l-0.903-1.506l-1.655-1.957l-0.603-1.358l-0.149-1.202l0.149-0.151v-0.603l0.902-3.463l-1.202-0.3l-1.658,0.147l-1.355,1.357l-0.15,1.205
				l-0.45,0.302l-0.149,0.147l7.073,23.646l9.639-2.112z"/>
			<g>
				<text transform="matrix(1 0 0 1 739.395 216.8613)"><tspan x="0" y="0" style="fill:#000000;stroke:none;">DE</tspan></text>
				<path style="fill:none;stroke-miterlimit:3.8636;" d="M714.26,213.211h22.909"/>
			</g>
		</g>
		<g>
			<path d="M649.832,205.006l40.357-7.828l12.802-2.263l0.149-0.147l0.45-0.302l0.15-1.205l1.355-1.357l1.658-0.147l1.202,0.3l3.766-2.561l0.451-2.108l2.409-2.407l2.261-1.359l0.147-0.449l-2.107-1.508l-0.752-0.904l-1.205-0.451l-0.453-0.601l-1.503-0.452
				l-0.755-2.26l-1.806-0.298l-0.303-0.303l-0.15-3.463l0.903-0.603l-0.15-1.959l-1.202-1.201v-0.604l0.297-0.604l1.811-1.657l0.449-2.859v-0.904l1.055-1.656l0.755-0.302l-1.206-1.053l-3.613-0.3l-0.149-0.452l-0.604-0.604l-0.452-1.354l-1.955-3.615l-0.902-0.301
				l-0.604-0.604l-0.454,0.152l-0.451-0.452l-0.451-1.054l-1.056-0.753l-61.737,12.348l-1.054-4.968l-3.313,3.162l-0.603,0.299l-0.452-0.601h-0.601l-0.755,1.958l-2.709,2.409l-1.204,0.753l4.516,25.297l2.86,17.018l14.907-2.863z"/>
			<text transform="matrix(1 0 0 1 667.2378 185.6694)"><tspan x="0" y="0" style="fill:#000000;stroke:none;">PA</tspan></text>
		</g>
		<g>
			<path d="M711.874,160.583l12.499,4.369l0.901,2.106l-0.901,0.904l-0.606,0.753l-0.297,1.207l0.149,2.105l-0.903,0.152l-0.603,0.451l-1.055,2.411v0.903l0.302,0.149l0.602-0.299l0.3-0.753l1.959-1.807l1.205,0.151h2.708l0.905-0.755l2.56-0.603l2.11-1.054
				l1.506-0.751l1.657-1.657l6.925-4.668l1.807-1.206l1.507-1.204l1.203-0.453l0.755-0.9l1.508-0.904l0.902-0.604l0.753-1.657l0.147-0.602l-0.301-0.299l-1.502,1.505l-1.508,0.45l-1.809,0.755l-1.053,0.9l-0.604,1.207l-1.656,0.752l-0.3-0.452l0.601-1.205
				l1.206-1.355l1.354-2.259l-0.449-0.451l-1.205,1.205l-0.752,1.204l-1.06,1.057l-3.913,2.106l-4.968,2.56l-4.067,1.959l-1.506,0.754l-1.506,2.104l-0.902-0.601l-0.302-1.503l0.604-1.809l1.351-1.055l-1.502-1.505l2.257-2.41l0.15-1.054l-1.051-1.204l-1.81-14.154
				l-0.603-0.453l0.149-13.252l-1.505-3.161l-1.053-3.164v-2.71l-0.906-4.668l-1.505-2.41h-0.903l0.302,0.602l-0.452,0.151l-0.453-0.753l0.301-2.559l-2.406-5.419l-0.153-2.109l0.905-1.956l-0.752-4.067l-2.105-5.573l-0.155-0.602l-0.752-0.904l0.451-0.905
				l-1.052-1.803l-18.07,4.516l-0.303-0.601l-0.755,0.299l-1.354,0.754l-4.368,4.516l-4.364,6.024l-0.757,1.054l0.455,0.901l-0.753,2.412l-0.905,0.902l-4.515,4.52l-0.455,0.904l0.603,1.807l0.454,0.3l1.205-0.15l0.902,0.601l0.151,0.904l-0.905,1.056l0.453,1.505
				l1.054,1.657l-0.3,2.708l-2.863,1.206l-4.215,4.518l-3.162,1.055l-7.229,2.106l-2.409-0.904l-2.259-0.45l-3.763,0.45l-3.918,0.753l-4.215,1.658l-1.955,1.355l-0.754,2.259v1.655l2.857,3.163l0.454,0.454l0.302,1.506l-0.453,1.203l-1.054,0.753l-1.056,2.71
				l-5.872,6.024l-2.257,1.657l1.054,4.968l61.737-12.348l1.056,0.753l0.451,1.054l0.451,0.452l0.454-0.152l0.604,0.604l0.902,0.301l1.955,3.615l0.452,1.354l0.604,0.604l0.149,0.452l3.613,0.3l1.206,1.053z"/>
			<text transform="matrix(1 0 0 1 691.397 131.4141)"><tspan x="0" y="0" style="fill:#000000;stroke:none;">NY</tspan></text>
		</g>
		<g>
			<path d="M726.178,143.569l8.732-2.108l0.904,0.902l0.302-0.15l0.152-0.752l12.949-3.313l3.16,10.692l-0.451,1.053l-0.3,0.601l0.149,0.454l0.15,0.45l-1.656,0.303l-4.364,1.809l-1.206-0.153l-0.453,0.453v0.753l-0.451,0.149l-2.562,0.454l-3.609,1.657
				l-0.456-0.603l-2.107,2.409l-4.967,4.217l-1.962,1.053l-1.502-1.505l2.257-2.41l0.15-1.054l-1.051-1.204l-1.81-14.154z"/>
			<g>
				<text transform="matrix(1 0 0 1 764.9468 162.4404)"><tspan x="0" y="0" style="fill:#000000;stroke:none;">CT</tspan></text>
				<path style="fill:none;" d="M763.761,161.255l-22.826-15.432"/>
			</g>
		</g>
		<g>
			<path d="M707.957,192.057l-0.902,3.463v0.603l0.603-0.303l0.904,1.655l1.207,1.507l1.051,1.206l3.468,1.807l1.049,0.302l2.409,0.452l0.902,0.15l0.153,2.257l-0.153,1.506l0.903,0.753l0.909-1.053l1.05-2.262l0.151-2.107l1.507-2.713l0.9-2.255l2.11-3.011
				l0.901-2.259l0.908-2.11v-1.505l-0.455-6.326l-0.601-5.119l-1.054-1.507l-2.112,0.604l-0.754,0.6l-0.751-0.301l-0.3-0.299l-0.602,0.299l-0.302-0.149v-0.903l1.055-2.411l0.603-0.451l0.903-0.152l-0.149-2.105l0.297-1.207l0.606-0.753l0.901-0.904l-0.901-2.106
				l-12.499-4.369l-0.755,0.302l-1.055,1.656v0.904l-0.449,2.859l-1.811,1.657l-0.297,0.604v0.604l1.202,1.201l0.15,1.959l-0.903,0.603l0.15,3.463l0.303,0.303l1.806,0.298l0.755,2.26l1.503,0.452l0.453,0.601l1.205,0.451l0.752,0.904l2.107,1.508l-0.147,0.449
				l-2.261,1.359l-2.409,2.407l-0.451,2.108l-3.766,2.561z"/>
			<g>
				<text transform="matrix(1 0 0 1 742.8247 192.7192)"><tspan x="0" y="0" style="fill:#000000;stroke:none;">NJ</tspan></text>
				<path d="M720.806,189.892h18.818"/>
			</g>
		</g>
	</g>
</svg>
