<?xml version="1.0" encoding="iso-8859-1"?>
<!DOCTYPE svg >

<svg  width="264.042pt" height="601.003pt" viewBox="0 0 264.042 601.003" xml:space="preserve">
	<g id="Layer_x0020_1" style="fill-rule:nonzero;clip-rule:nonzero;fill:#FFFFFF;stroke:#000000;stroke-miterlimit:4; font-family:'Arial'; font-size:10;">
		<g>
			<path d="M96.415,204.618l-21.658-40.199l6.191-34.021l-9.289-15.464V87.103l15.463-12.367l12.373-3.096l24.747-46.39l7.729-9.288L111.876,0.5H65.482L43.831,12.883L25.27,25.25l-9.268,24.736H0.536l8.533,122.935l0.739,31.697l3.098,34.023l31.3-5.785
				l34.796-11.597l17.413-16.641z"/>
			<text transform="matrix(1 0 0 1 62.9224 64.6787)"><tspan x="0" y="0" style="fill:#000000;stroke:none;">197</tspan></text>
		</g>
		<g>
			<path d="M96.415,204.618l34.004,30.925l12.384,27.832v34.021l-3.097,21.656l24.736,46.389l6.188,21.64l6.177,24.749l37.121,40.199l37.114,12.367l12.368,52.582h-15.466l3.098-12.369l-9.286-6.188l-18.561,12.366l12.383,15.465l-9.285,15.462l-21.641-6.178v15.464
				l18.543-3.094l30.926,6.19l6.195,46.39l-102.052-3.097H37.635l-3.077-43.293l-3.094-37.118l-6.195-80.411l-9.268-132.977l-3.096-40.215v-24.734l31.3-5.785l34.796-11.597l17.413-16.641z"/>
			<text transform="matrix(1 0 0 1 89.02 422.7485)"><tspan x="0" y="0" style="fill:#000000;stroke:none;">199</tspan></text>
		</g>
	</g>
</svg>
