<?xml version="1.0" encoding="iso-8859-1"?>
<!DOCTYPE svg >

<svg  width="424.336pt" height="601.01pt" viewBox="0 0 424.336 601.01" xml:space="preserve">
	<g id="Layer_x0020_1" style="fill-rule:nonzero;clip-rule:nonzero;fill:#FFFFFF;stroke:#000000;stroke-miterlimit:4; font-family:'Arial'; font-size:10;">
		<g>
			<path d="M14.019,211.545l-0.613-50.921v-10.43l0.613-9.203V88.844l-0.613-7.364l0.613-67.484V0.5h67.484v43.56l-0.613,22.696l0.613,19.021l0.617,3.68l23.311,29.448l-3.681,6.134l6.133,5.522v1.842l-5.52,2.454l28.222,15.337l25.154,26.994L53.592,201.575
				L36.26,204.49l-1.074,8.589l-21.167-1.534z"/>
			<text transform="matrix(1 0 0 1 43.5728 122.9487)"><tspan x="0" y="0" style="fill:#000000;stroke:none;">838</tspan></text>
		</g>
		<g>
			<path d="M155.739,177.188l11.656,20.249h3.069l5.519-3.682l1.843,5.518l3.679,4.298l3.681-0.615l4.911-0.615l6.134-1.84l3.067,1.84l-7.976,40.492l-4.292,0.612l9.201,24.541l-10.429,4.906l1.838,14.11l-4.906,2.456l1.839,5.521l-17.914,25.813l-127.484-0.657
				v-3.685l13.496-25.768l-7.362-14.724l-5.52-1.227l-3.068-3.068l-3.065,2.455l-2.458-3.681l-9.815-12.886v-14.108l-3.068-3.682v-6.135l-4.294-5.519l0.616-7.98l-0.616-8.586l21.167,1.534l1.074-8.589l17.332-2.915l102.147-24.388z"/>
			<text transform="matrix(1 0 0 1 104.0791 256.1606)"><tspan x="0" y="0" style="fill:#000000;stroke:none;">835</tspan></text>
		</g>
		<g>
			<path d="M39.174,320.137l127.484,0.657l-20.431,60.994l0.555,31.443l2.055,186.239l-133.591,0.417V456.943l-0.611-9.815l3.678-7.975l2.456-10.429l-1.229-6.752l3.682-5.521l-0.613-4.905l-20.246-6.75l0.613-2.452l-2.453-6.751l2.453-9.199l3.682-5.521
				l4.295-9.817l3.065-6.137l6.134-3.065l3.682-5.522l8.59-20.86l6.749-15.333z"/>
			<text transform="matrix(1 0 0 1 78.8359 455.9648)"><tspan x="0" y="0" style="fill:#000000;stroke:none;">836</tspan></text>
		</g>
		<g>
			<path d="M146.696,413.231l2.142,186.239l52.914-0.194l18.152,0.611l70.191,0.616l-0.612-110.432l-142.787-76.841z"/>
			<text transform="matrix(1 0 0 1 212.272 537.252)"><tspan x="0" y="0" style="fill:#000000;stroke:none;">833</tspan></text>
		</g>
		<g>
			<path d="M166.658,320.794l-20.431,60.994l0.555,31.443l142.7,76.841l0.612,110.432l57.054-0.616h4.297h40.488l2.456,0.616h28.837v-44.788v-43.557l-112.732-56.747l-8.13-63.499l-17.79-14.728l1.841-3.063l-5.523-11.041l-6.133-5.528l-6.135,3.068l-11.659-12.268
				l3.069-2.453l-0.613-7.974l-4.295-5.522l-28.833-49.694l-26.995,20.859l-9.815-8.59h-4.91l-17.914,25.813z"/>
			<text transform="matrix(1 0 0 1 235.2803 420.6885)"><tspan x="0" y="0" style="fill:#000000;stroke:none;">832</tspan></text>
		</g>
		<g>
			<path d="M302.365,391.913l7.364-6.75l18.405,2.458l6.746,1.226l0.614-6.748l6.747-3.069l4.297,4.296l21.473-3.07l4.29,3.07l12.274-3.679l9.814,1.839l-2.456-6.749l2.151-8.586l6.439-3.685l19.632,23.928h3.07v30.058v13.504v41.101l0.609,17.793l-0.609,23.311
				l-112.732-56.747l-8.13-63.499z"/>
			<text transform="matrix(1 0 0 1 367.1792 437.5576)"><tspan x="0" y="0" style="fill:#000000;stroke:none;">834</tspan></text>
		</g>
	</g>
</svg>
