<?xml version="1.0" encoding="iso-8859-1"?>
<!DOCTYPE svg >

<svg  width="353.407pt" height="601.815pt" viewBox="0 0 353.407 601.815" xml:space="preserve">
	<g id="Layer_x0020_1" style="fill-rule:nonzero;clip-rule:nonzero;fill:#FFFFFF;stroke:#000000;stroke-miterlimit:4; font-family:'Arial'; font-size:10;">
		<g>
			<path d="M204.578,163.687l47.575-1.062l10.702-0.164l4.517-0.234l-0.481,8.764l10.219,4.375l0.975,17.528l-6.325,16.067l-12.06,13.803l-4.982,5.181l-16.552,13.632l3.411,12.171l-12.658,20.934l-0.197,0.114l-24.142,0.376l-18.017-24.83h-11.686v-9.249
				l-10.319-0.237l4.48-10.472l13.147-0.972l9.736-22.885l20.928-12.658l-5.351-5.35l5.351-3.896l-2.43-12.175l-5.84-3.406v-5.355z"/>
			<text transform="matrix(1 0 0 1 219.2915 221.6968)"><tspan x="0" y="0" style="fill:#000000;stroke:none;">617</tspan></text>
		</g>
		<g>
			<path d="M201.167,401.743l35.539-0.49l-0.489,5.36l35.541-12.657l2.432,13.629l18.5,10.22l-10.712,19.965l29.209-0.49l6.333-7.789l7.298,0.489l7.499,6.713l-5.454,3.118v3.117l-7.008,15.575l-10.125,0.78l-2.339,5.453l-2.334,4.672l7.01,4.675l-4.676,8.57
				l-6.23,3.115l0.78,14.797l-6.232,0.781l-51.702-0.781l-6.325,6.332h-19.963v-8.279h-24.341l-4.504-3.598l0.126,0.192l5.841-5.842l-6.332-5.842l4.215-36.04l8.444-12.641l-3.405-10.711l3.405-6.813v-15.581z"/>
			<text transform="matrix(1 0 0 1 247.1768 462.0347)"><tspan x="0" y="0" style="fill:#000000;stroke:none;">628</tspan></text>
		</g>
		<g>
			<path d="M80.432,324.335l36.999,0.492l0.49,28.233l17.525,15.09l52.577-31.157l12.659-0.975l0.484,16.071h12.656l0.49,19.471l-11.683,16.063l-1.463,14.119v15.581l-3.405,6.813l3.405,10.711l-8.444,12.641l-4.215,36.04l6.332,5.842l-5.841,5.842l-0.126-0.192
				l-5.234-4.192h-29.208v5.839l12.657,10.712l-5.35,11.88l-2.34-6.231l-4.675-1.559l-10.122-8.568l-4.677,1.558l-3.113-1.558l-3.895-4.669l3.895-1.564l-1.561-3.112l-3.895,1.556l-17.912-13.236l-4.676-3.117l-10.125-10.908l-2.337-12.46l4.672-8.565l3.117-3.117
				l3.119-7.014l6.229-8.563l1.557-7.017l0.777-14.017l4.674-2.335v-3.898l-10.124-9.344l-3.895-0.78l-15.578-3.895L78.39,397.746l-6.229-7.788l-3.895-13.239l1.556-6.232l-3.115-7.79l0.779-3.115l-3.117-5.449l-16.721-16l28.407,2.271l4.376-16.066z"/>
			<text transform="matrix(1 0 0 1 139.7783 406.0054)"><tspan x="0" y="0" style="fill:#000000;stroke:none;">620-622</tspan></text>
		</g>
		<g>
			<path d="M69.241,243.524l17.033,0.491l6.817,3.895l5.84,3.892l25.316-10.709l40.276-0.163l10.351,0.163v9.249h11.686l18.017,24.83l24.142-0.376l7.014-0.114l0.973,21.42l-9.736,6.816l0.483,14.12l6.332,11.191l1.457,13.15l-21.419,10.711h-12.656l-0.484-16.071
				l-12.659,0.975l-52.577,31.157l-17.525-15.09l-0.49-28.233l-36.999-0.492l-6.814-14.604l3.412-11.196l-8.763-12.656l4.868-28.726l-3.894-13.63z"/>
			<text transform="matrix(1 0 0 1 130.1782 299.6304)"><tspan x="0" y="0" style="fill:#000000;stroke:none;">625-626</tspan></text>
		</g>
		<g>
			<path d="M344.731,331.18l-0.729,12.043l-6.236,6.232l1.562,3.896v3.895l-3.114,6.23l-3.896,3.113l8.57,8.567l0.774,7.01l4.677,4.677l-0.782,5.454l-1.554,5.447l3.895,13.242l-3.895,5.454l-3.896,1.556l-5.456,11.686l-2.334,7.009l-7.499-6.713l-7.298-0.489
				l-6.333,7.789l-29.209,0.49l10.712-19.965l-18.5-10.22l-2.432-13.629l-35.541,12.657l0.489-5.36l-35.539,0.49l1.463-14.119l11.683-16.063l-0.49-19.471l21.419-10.711l43.815-4.386l8.761-5.843l56.913,0.029z"/>
			<text transform="matrix(1 0 0 1 285.2861 379.522)"><tspan x="0" y="0" style="fill:#000000;stroke:none;">624</tspan></text>
		</g>
		<g>
			<path d="M259.698,222.764l85.278,12.911l0.579,21.868l-0.774,30.38v28.038l-0.05,15.219l-56.913-0.029l-8.761,5.843l-43.815,4.386l-1.457-13.15l-6.332-11.191l-0.483-14.12l9.736-6.816l-0.973-21.42l-6.949,0.073l12.791-21.007l-3.411-12.171l16.552-13.632
				l4.982-5.181z"/>
			<text transform="matrix(1 0 0 1 275.1123 287.9478)"><tspan x="0" y="0" style="fill:#000000;stroke:none;">618-619</tspan></text>
		</g>
		<g>
			<path d="M30.877,202.243l4.769,2.338l16.069,18.014l11.682,0.482l5.844,20.447l3.894,13.63l-4.868,28.726l8.763,12.656l-3.412,11.196l6.814,14.604l-4.376,16.066l-28.407-2.271l-21.448-19.833l-7.008-10.125l-7.01-9.347l-8.569-12.462l2.338-6.23l-4.675-10.13
				L0.5,251.313v-4.674L7.508,233.4l2.339-3.121l0.777-10.122l-3.896-6.233l10.131-9.343h9.342l4.675-2.338z"/>
			<text transform="matrix(1 0 0 1 29.0537 276.3745)"><tspan x="0" y="0" style="fill:#000000;stroke:none;">623</tspan></text>
		</g>
		<g>
			<path d="M344.902,127.618l-0.121,4.522l0.774,14.02l-0.774,16.36l0.774,31.154l-0.774,27.65l0.145,14.362l-85.228-12.923l12.06-13.803l6.325-16.067l-0.975-17.528l-10.219-4.375l0.481-8.764l-4.517,0.234l23.508-25.065l29.21-10.712l29.33,0.934z"/>
			<text transform="matrix(1 0 0 1 311.6006 181.6782)"><tspan x="0" y="0" style="fill:#000000;stroke:none;">609</tspan></text>
		</g>
		<g>
			<path d="M161.626,142.024l20.067,0.241l5.841,15.096l15.577,0.971l1.466,5.355v5.355l5.84,3.406l2.43,12.175l-5.351,3.896l5.351,5.35l-20.928,12.658l-9.736,22.885l-13.147,0.972l-4.512,10.546l-40.276,0.163l-25.316,10.709l-5.84-3.892l15.578-18.018
				l-10.219-8.271l16.061-2.438l3.41-18.982l-10.226-0.49l-6.818-12.166L118.896,189l20.93-18.01l-2.922-7.304h24.341l0.381-21.663z"/>
			<text transform="matrix(1 0 0 1 148.7017 204.269)"><tspan x="0" y="0" style="fill:#000000;stroke:none;">615</tspan></text>
		</g>
		<g>
			<path d="M45.872,149.574l24.826-1.467l9.734-15.088h64.753l16.06,5.844l0.381,3.161l-0.381,21.663h-24.341l2.922,7.304L118.896,189l-18.018-1.456l6.818,12.166l10.226,0.49l-3.41,18.982l-16.061,2.438l10.219,8.271L93.091,247.91l-6.817-3.895l-17.033-0.491
				l-5.844-20.447l-11.682-0.482l-16.069-18.014l-4.769-2.338l3.114-5.453l1.56-12.465l12.464-15.577v-12.073l-2.527-7.313l0.384,0.212z"/>
			<text transform="matrix(1 0 0 1 76.9805 177.6753)"><tspan x="0" y="0" style="fill:#000000;stroke:none;">614</tspan></text>
		</g>
		<g>
			<path d="M116.948,59.503h11.194l16.068,16.554l1.947,12.174l34.56,12.167h-37.971l2.438,32.621H80.432l-9.734,15.088l-24.826,1.467l-0.384-0.212l-0.59-1.642l-9.347-7.791l2.334-10.131v-2.334l4.676-10.128l20.251-2.334l10.906-0.78l24.924-14.017l3.896-14.8
				l0.778-3.12l5.451-3.893L115,72.943l1.556-10.904v-2.626l0.391,0.091z"/>
			<text transform="matrix(1 0 0 1 108.8916 116.5859)"><tspan x="0" y="0" style="fill:#000000;stroke:none;">612</tspan></text>
		</g>
		<g>
			<path d="M180.718,100.398l1.949-19.956l27.75-1.464l12.659,0.971l1.947,15.58l7.788,16.551l23.368,9.735l-13.63,19.474l10.708,11.688l-1.105,9.648l-47.575,1.062l-1.466-5.355l-15.577-0.971l-5.841-15.096l-20.067-0.241l-0.381-3.161l-16.06-5.844l-2.438-32.621
				h37.971z"/>
			<text transform="matrix(1 0 0 1 192.5435 129.2114)"><tspan x="0" y="0" style="fill:#000000;stroke:none;">613</tspan></text>
		</g>
		<g>
			<path d="M329.686,83.844l1.464,5.362l-0.487,6.813l3.409,8.765l11.207-1.028l0.277,9.688l-0.653,14.173l-29.33-0.934l-29.21,10.712l-23.508,25.065l-10.702,0.164l1.105-9.648l76.428-69.133z"/>
			<text transform="matrix(1 0 0 1 311.9014 120.481)"><tspan x="0" y="0" style="fill:#000000;stroke:none;">604</tspan></text>
		</g>
		<g>
			<path d="M335.431,55.805l-8.175,5.165l-1.947,12.167l4.377,10.708l1.464,5.362l-0.487,6.813l3.409,8.765l11.207-1.028l-0.497-19.912l-4.675-5.453l-2.341-7.006l-2.335-15.58z"/>
			<text transform="matrix(1 0 0 1 336.7217 86.4023)"><tspan x="0" y="0" style="fill:#000000;stroke:none;">606</tspan></text>
		</g>
		<g>
			<path d="M314.598,85.311l15.088-1.467l-4.377-10.708l1.947-12.167l8.175-5.165l-3.114-7.791l-8.568-10.125l-5.452-13.243l3.117-17.134l-0.779-6.233L286.362,0.5h-10.128l-32.713,0.78l-0.771,21.382l71.847,62.649z"/>
			<text transform="matrix(1 0 0 1 286.0947 35.7725)"><tspan x="0" y="0" style="fill:#000000;stroke:none;">600</tspan></text>
		</g>
		<g>
			<path d="M242.058,39.061l-19.473-0.484l-0.81,28.034l-0.162,5.071l-10.221,0.971l-0.974,6.326l-27.75,1.464l-1.949,19.956l-34.56-12.167l-1.947-12.174l-16.068-16.554l-11.39-0.044l-0.195-7.549L115,41.005l-13.243-7.01l-7.01-5.452l-1.558-9.345l-5.451-4.676
				L74.496,3.621V0.5h19.476h42.839h6.23l40.892,0.78h37.777h14.799h7.013l-0.771,21.382l-0.693,16.399z"/>
			<text transform="matrix(1 0 0 1 162.4414 45.5103)"><tspan x="0" y="0" style="fill:#000000;stroke:none;">610</tspan></text>
		</g>
		<g>
			<path d="M188.873,495.02l-5.234-4.192h-29.208v5.839l12.657,10.712l-5.35,11.88l12.456,10.904l-1.554,7.015v1.556l8.57,20.25l-4.677,3.895l-2.339,2.335v5.454l3.896,1.563l1.561,8.563l3.115,3.896l0.78,6.229l6.229,7.013l5.454-0.779l-0.78-7.011l8.57,10.125
				l-0.78-7.787l7.789-13.239l7.012-4.676h7.011l7.009,2.335l3.116,2.341l5.454,3.116l1.556,0.775l7.788,2.335l5.454,3.896l2.336,1.557l4.676,0.779l2.333-0.779l2.339-5.452v-3.894l-0.779-3.112l-3.893-5.456l-1.561-3.115l0.778-3.114l1.56-3.896l0.78-4.675
				l0.775-2.332l2.339-1.564l3.894-1.554h2.337l16.358-4.675l6.229-0.778l3.12-3.118l-4.675-7.786l-2.341-5.456l0.781-7.787l10.903-10.125l-5.45-3.114l3.115-3.121l-4.674-5.445l-51.702-0.781l-6.325,6.332h-19.963v-8.279h-24.341l-4.504-3.598z"/>
			<text transform="matrix(1 0 0 1 221.9985 546.8813)"><tspan x="0" y="0" style="fill:#000000;stroke:none;">629</tspan></text>
		</g>
		<g>
			<path d="M314.598,85.311l-57.845-3.575L221.775,66.61l0.81-28.034l19.473,0.484l0.693-16.399l71.847,62.649z"/>
			<text transform="matrix(1 0 0 1 244.4873 63.6514)"><tspan x="0" y="0" style="fill:#000000;stroke:none;">601</tspan></text>
		</g>
		<g>
			<path d="M329.686,83.844l-15.088,1.467l-57.845-3.575L221.775,66.61l-0.162,5.071l-10.221,0.971l-0.974,6.326l12.659,0.971l1.947,15.58l7.788,16.551l23.368,9.735l-13.63,19.474l10.708,11.688l76.428-69.133z"/>
			<text transform="matrix(1 0 0 1 256.4092 108.6758)"><tspan x="0" y="0" style="fill:#000000;stroke:none;">605</tspan></text>
		</g>
	</g>
</svg>
