<?xml version="1.0" encoding="iso-8859-1"?>
<!DOCTYPE svg >

<svg  width="801.493pt" height="408.568pt" viewBox="0 0 801.493 408.568" xml:space="preserve">
	<g id="Layer_x0020_1" style="fill-rule:nonzero;clip-rule:nonzero;stroke:#000000;stroke-miterlimit:4; font-family:'Arial'; font-size:10;">
		<g>
			<path style="fill:#FFFFFF;" d="M0.5,355.152v52.901l54.572-0.967l51.936,0.967l14.428-0.967l33.665,0.967l0.245-14.785l-47.497-18.035l-1.201-20.438L0.5,355.152z"/>
			<text transform="matrix(1 0 0 1 50.0347 388.7163)"><tspan x="0" y="0" style="stroke:none;">679</tspan></text>
		</g>
		<g>
			<path style="fill:#FFFFFF;" d="M654.226,327.398l-60.526-0.054l-0.011,78.782l57.709-1.442l21.162,0.479l28.854-1.922l11.542,1.922h35.586l-1.084-64.198l-94.372,18.64l1.141-32.206z"/>
			<text transform="matrix(1 0 0 1 651.9561 383.9077)"><tspan x="0" y="0" style="stroke:none;">673</tspan></text>
		</g>
		<g>
			<path style="fill:#FFFFFF;" d="M593.699,327.344l-0.011,78.782l-23.081,0.96h-45.206l-31.741-0.96l-37.51,0.96h-31.741h-25.967H377.28l-49.053-0.96l-50.012,1.927h-8.655l-0.971-110.064l93.547-0.905l24.044,12.62l82.35-1.202l1.81-70.328l32.461-11.426
				l22.908-20.889l-0.671,44.339l67.932,31.259l0.729,45.888z"/>
			<text transform="matrix(1 0 0 1 430.3467 365.8745)"><tspan x="0" y="0" style="stroke:none;">670-671</tspan></text>
		</g>
		<g>
			<path style="fill:#FFFFFF;" d="M700.57,265.219l47.494,13.226l49.855-29.449l0.156,15.264l-0.48,51.456v2.882v37.519l-0.962,3.845v36.547v6.733l-39.438,1.922h-8.655l-1.084-64.198l-94.372,18.64l1.141-32.206l1.262-53.156l45.083-9.022z"/>
			<text transform="matrix(1 0 0 1 724.0908 316.5815)"><tspan x="0" y="0" style="stroke:none;">667</tspan></text>
		</g>
		<g>
			<path style="fill:#FFFFFF;" d="M593.699,327.344l-0.729-45.888l-67.932-31.259l0.671-44.339l24.578-23.596v-25.247l15.032-0.597l31.26-7.82l58.908,25.853l-1.809,40.877l48.698-2.403l-1.807,52.293l-45.083,9.022l-1.262,53.156l-60.526-0.054z"/>
			<text transform="matrix(1 0 0 1 596.6514 234.8252)"><tspan x="0" y="0" style="stroke:none;">668</tspan></text>
		</g>
		<g>
			<path style="fill:#FFFFFF;" d="M195.909,178.995l0.311,57.975l70.329,0.596l2.039,60.423l93.547-0.905l24.044,12.62l82.35-1.202l1.81-70.328l-85.968-34.865l-1.203-24.046l-177.935-0.604l-9.325,0.337z"/>
			<text transform="matrix(1 0 0 1 346.5771 254.061)"><tspan x="0" y="0" style="stroke:none;">675</tspan></text>
		</g>
		<g>
			<path style="fill:#FFFFFF;" d="M0.5,180.098l195.409-1.103l0.311,57.975l70.329,0.596l2.039,60.423l0.971,110.064h-49.053l-8.655-0.967l-56.75,0.967l0.245-14.785l-47.497-18.035l-1.201-20.438L0.5,355.152v-33.665v-12.503v-71.177V190.68v-10.582z"/>
			<text transform="matrix(1 0 0 1 118.1479 297.3442)"><tspan x="0" y="0" style="stroke:none;">678</tspan></text>
		</g>
		<g style="stroke:none;">
			<path style="fill:#FFFFFF;stroke:#000000;" d="M720.111,0.988l23.619,18.491l8.659-0.964l4.807-3.846l1.928-1.926l3.845,6.735l5.773,0.957l0.964,4.811l-0.964,5.77h-3.846l5.768,4.81l-10.577,0.963v4.807l-7.697,5.773l-2.886,8.656l-3.843,8.655l13.463,9.619
				l2.884,5.771l6.734,5.772v5.77l9.62,16.348l7.69,4.81l5.771-1.919l9.139,5.768l-1.445,13.468l-0.961,27.893l0.961,14.426l-0.961,34.627v11.538l-0.637,30.425l-49.855,29.449l-47.494-13.226l1.807-52.293l-0.605-104.001l-8.415-1.798l2.402-57.112l25.247-1.203
				l-0.596-18.035l6.012-4.808l-7.212-7.215l0.901-17.767z"/>
			<text transform="matrix(1 0 0 1 743.5889 162.188)"><tspan x="0" y="0">641</tspan><tspan x="0" y="12">660</tspan></text>
		</g>
		<g>
			<path style="fill:#FFFFFF;" d="M374.176,62.258l93.757,1.587v5.406h104.599l-24.651,22.246l-1.204,45.686l18.643,19.238l-15.032,0.597v25.247l-24.578,23.596l-22.908,20.889l-32.461,11.426l-85.968-34.865l-1.203-24.046v-59.516l-28.25-1.203l-1.2-9.013
				l-7.214-1.202v-7.214l7.214-1.203V87.89l20.457-25.632z"/>
			<text transform="matrix(1 0 0 1 461.9971 148.2622)"><tspan x="0" y="0" style="stroke:none;">674</tspan></text>
		</g>
		<g>
			<path style="fill:#FFFFFF;" d="M572.532,2.53l4.202,60.112l-4.202,6.609l-24.651,22.246l-1.204,45.686l18.643,19.238l31.26-7.82l58.908,25.853l-1.809,40.877l48.698-2.403l-0.605-104.001l-8.415-1.798l2.402-57.112l25.247-1.203l-0.596-18.035l6.012-4.808
				l-7.212-7.215l0.901-17.767l-48.519,1.175l-24.042,0.963H624.47h-23.084l-28.854-0.701V2.53z"/>
			<text transform="matrix(1 0 0 1 617.2236 100.7188)"><tspan x="0" y="0" style="stroke:none;">664-665</tspan></text>
		</g>
		<g>
			<path style="fill:#FFFFFF;" d="M320.533,3.125l0.725,49.9h60.112l-7.194,9.232l93.757,1.587v5.406h104.599l4.202-6.609L572.532,2.53V2.425l-10.58-0.262h-9.62l-50.016,0.963h-47.127h-13.464h-36.552l-25.006-0.963l-21.161,0.963h-38.474z"/>
			<text transform="matrix(1 0 0 1 461.9971 37.6528)"><tspan x="0" y="0" style="stroke:none;">669</tspan></text>
		</g>
		<g>
			<path style="fill:#FFFFFF;" d="M320.533,3.125l0.725,49.9h60.112l-7.194,9.232L353.719,87.89v12.022l-7.214,1.203v7.214l7.214,1.202l1.2,9.013l28.25,1.203v59.516l-177.935-0.604l-1.799-99.185l-12.629-4.807l-21.642-34.27l21.938-36.271l10.166-0.038
				l58.674-0.635l50.011,0.635l10.58-0.962z"/>
			<text transform="matrix(1 0 0 1 274.4429 102.5757)"><tspan x="0" y="0" style="stroke:none;">676</tspan></text>
		</g>
		<g>
			<path style="fill:#FFFFFF;" d="M191.103,4.125l-50.431-1L79.117,2.163l-9.619,0.963H0.5v58.188v59.155v11.538v48.091l204.734-1.44l-1.799-99.185l-12.629-4.807l-21.642-34.27l21.938-36.271z"/>
			<text transform="matrix(1 0 0 1 96.5059 102.5757)"><tspan x="0" y="0" style="stroke:none;">677</tspan></text>
		</g>
	</g>
</svg>
