<?xml version="1.0" encoding="iso-8859-1"?>
<!DOCTYPE svg >

<svg  width="801.457pt" height="384.432pt" viewBox="0 0 801.457 384.432" xml:space="preserve">
	<g id="Layer_x0020_1" style="fill-rule:nonzero;clip-rule:nonzero;fill:#FFFFFF;stroke:#000000;stroke-miterlimit:4; font-family:'Arial'; font-size:10;">
		<g>
			<path d="M132.662,2.299l124.963-0.598l50.871,0.25l24.917,54.31v18.685l100.148-0.749l0.751,34.381l70.255,37.37l-35.876,16.442v18.685l-83.708,15.694l-50.822-29.894l-19.432,0.746l-48.582-20.926l-48.558-3.349l-16.466-1.136l-1.249-32.891l-0.992-26.152
				L132.662,2.299z"/>
			<text transform="matrix(1 0 0 1 326.5645 121.8208)"><tspan x="0" y="0" style="fill:#000000;stroke:none;">594</tspan></text>
		</g>
		<g>
			<path d="M308.496,1.951l11.911-0.25h34.082h84.306l83.109-0.599l69.954-0.598l-1.343,40.062h-14.948l-11.647,75.75l-4.795,28.885l-54.558,0.748l-70.255-37.37l-0.751-34.381l-100.148,0.749V56.261l-24.917-54.31z"/>
			<text transform="matrix(1 0 0 1 493.9824 72.4937)"><tspan x="0" y="0" style="fill:#000000;stroke:none;">595</tspan></text>
		</g>
		<g>
			<path d="M591.857,0.504l-1.343,40.062h-14.948l-11.647,75.75l84.146,37.106l46.337,0.748l55.309-19.433l51.246,1.496V85.41V51.327V30.998V0.504h-67.392h-70.552h-71.156z"/>
			<text transform="matrix(1 0 0 1 685.3145 79.9678)"><tspan x="0" y="0" style="fill:#000000;stroke:none;">592</tspan></text>
		</g>
		<g>
			<path d="M563.919,116.315l-4.795,28.885l65.77,140.511l39.614,8.221l5.677,41.518h62.182h3.591h65V317.4v-56.203v-4.782V228.31v-22.119v-8.374v-61.584l-51.246-1.496l-55.309,19.433l-46.337-0.748l-84.146-37.106z"/>
			<text transform="matrix(1 0 0 1 706.2422 235.4253)"><tspan x="0" y="0" style="fill:#000000;stroke:none;">593</tspan></text>
		</g>
		<g>
			<path d="M504.566,145.949l54.558-0.748l65.77,140.511l39.614,8.221l5.677,41.518h-14.349H544.027h-25.112h-22.124H417.27h-12.557h-69.958l1.645-22.087l14.202-26.158l1.495-50.824l11.19-0.01l14.543-24.247l8.221-0.759l-1.069-14.596l83.708-15.694v-18.685
				l35.876-16.442z"/>
			<text transform="matrix(1 0 0 1 492.4844 260.8369)"><tspan x="0" y="0" style="fill:#000000;stroke:none;">590</tspan></text>
		</g>
		<g>
			<path d="M219.432,199.389l-19.056,2.614l1.494,29.148h-12.705l-10.925,19.682l-27.425,9.975l-2.638,26.847l22.151,38.117l4.185,5.381l0.6,7.771l-2.991,2.391l11.36,11.958l5.98-2.988l5.979,5.384l5.38,10.761l-1.793,2.99l17.339,14.35l7.177-6.579l17.938,2.394
				l6.574,1.194l0.6-6.577l6.577-2.989l4.189,4.186l20.924-2.989l4.185,2.989l11.958-3.586l9.567,1.794l-2.391-6.579l2.094-8.37l6.277-3.588l19.134,23.318h2.99v-11.36l0.596-31.576l1.645-22.087l14.202-26.158l1.495-50.824l-31.391,0.75l-11.212,17.935h-23.168
				l-50.075-20.179v-35.127l-16.819-0.372z"/>
			<text transform="matrix(1 0 0 1 241.3613 314.6489)"><tspan x="0" y="0" style="fill:#000000;stroke:none;">597</tspan></text>
		</g>
		<g>
			<path d="M217.565,143.707l1.867,55.683l16.819,0.372v35.127l50.075,20.179h23.168l11.212-17.935l31.391-0.75l11.19-0.01l14.543-24.247l8.221-0.759l-1.069-14.596l-50.822-29.894l-19.432,0.746l-48.582-20.926l-48.558-3.349l-0.023,0.36z"/>
			<text transform="matrix(1 0 0 1 289.1948 210.0146)"><tspan x="0" y="0" style="fill:#000000;stroke:none;">596</tspan></text>
		</g>
		<g>
			<path d="M0.521,66.874l199.108,42.453l0.245-0.006l1.249,32.891l16.466,1.136l-0.023,0.36l1.867,55.683l-19.056,2.614l1.494,29.148h-12.705l-10.925,19.682l-27.425,9.975l-2.638,26.847l-5.949-10.316l-26.309,20.33l-9.566-8.37h-4.785l-1.794-5.382l4.782-2.394
				l-1.792-13.751l10.165-4.782l-8.968-23.915l4.184-0.599l7.774-39.463l-2.989-1.792l-5.979,1.792l-4.786,0.599l-3.586,0.597l-3.586-4.185l-1.794-5.382l-5.382,3.588h-2.989l-11.359-19.733l-24.515-26.306l-27.505-14.949l5.381-3.288l-5.981-6.279l3.591-5.98
				L1.717,88.998L1.12,85.41l-0.6-18.536z"/>
			<text transform="matrix(1 0 0 1 133.7363 178.6226)"><tspan x="0" y="0" style="fill:#000000;stroke:none;">598</tspan></text>
		</g>
		<g>
			<path d="M132.662,2.299l66.219,80.868l0.992,26.152l-0.245,0.006L0.521,66.874l0.6-22.122V2.299l87.894-0.598l43.648,0.598z"/>
			<text transform="matrix(1 0 0 1 79.9229 50.0713)"><tspan x="0" y="0" style="fill:#000000;stroke:none;">599</tspan></text>
		</g>
	</g>
</svg>
