<?xml version="1.0" encoding="iso-8859-1"?>
<!DOCTYPE svg >

<svg  width="801.32pt" height="580.682pt" viewBox="0 0 801.32 580.682" xml:space="preserve">
	<g id="Layer_x0020_1" style="fill-rule:nonzero;clip-rule:nonzero;stroke:#000000;stroke-miterlimit:4; font-family:'Arial'; font-size:10;">
		<g>
			<path style="fill:#FFFFFF;" d="M515.883,3.779l-14.385,24.904l6.816,54.501l-27.254,12.492l3.406,26.117l-28.389,4.541l-44.287,30.662l-6.813,11.355l-21.583,0.971l-24.068,1.072l-1.813-10.899l-4.542-5.455l-1.819-6.355l2.727-2.728l4.543,2.728l6.355-5.452
				l0.91-6.36l-5.452-2.723l6.361-5.452l-9.993-4.542l-1.818,3.632l3.637,2.729l-3.637,5.451l-2.723-0.458l-2.726-12.265l-5.451-2.722l1.816-5.452l32.702-17.261l19.988-16.35l5.452-7.271l-0.909-6.354l50.873-45.421l28.156-15.444l19.989-5.451l9.084,2.725
				l4.846,0.535z"/>
			<text transform="matrix(1 0 0 1 427.168 101.8149)"><tspan x="0" y="0" style="stroke:none;">136</tspan></text>
		</g>
		<g>
			<path style="fill:#FFFFFF;" d="M510.594,119.679l3.031,52.125l9.448,51.056l12.492,39.74l-11.358,2.271l4.545,11.355l-9.087,5.679l9.087,11.353l-28.388,9.084l-4.998,4.455l-12.035,8.037l-9.084,10.22l-30.66-2.271l2.271-17.032l-31.423-8.321l8.713-13.253
				l-7.949-6.813l5.678-13.63l-9.086-4.542l10.22-5.675l-10.22-11.356l13.628,3.406l-4.542-14.759l-15.899-1.137l-35.2-43.152l13.626-3.405l-0.009-13.732l21.583-1.03l6.813-11.355l44.287-30.662l28.389-4.541l26.127-2.114z"/>
			<text transform="matrix(1 0 0 1 449.79 235.8628)"><tspan x="0" y="0" style="stroke:none;">133-134</tspan></text>
		</g>
		<g>
			<path style="fill:#FFFFFF;" d="M528.752,335.275l17.031,2.271l23.85-15.897l11.353,7.95l14.762,1.135l12.493,11.355l-7.95,13.626l-5.676,28.385l4.542,11.359l-5.68,13.625l-20.438,1.135l-9.084,13.627l-21.698,8.137l-3.284-1.324l-11.357-14.76l9.084-17.033
				l-40.877-11.357v-15.898l32.93-24.976v-11.358z"/>
			<text transform="matrix(1 0 0 1 544.0176 378.4282)"><tspan x="0" y="0" style="stroke:none;">124</tspan></text>
		</g>
		<g>
			<path style="fill:#FFFFFF;" d="M495.822,387.507l40.877,11.357l-9.084,17.033l11.357,14.76l3.284,1.324l8.07,3.219l-22.712,9.082l-12.39,21.967l-3.278-1.524l-3.633-9.085h-9.997l-14.534-8.175l-5.451-12.718v-17.264l-10.897-13.629l28.388-16.348z"/>
			<text transform="matrix(1 0 0 1 495.9902 427.5522)"><tspan x="0" y="0" style="stroke:none;">127</tspan></text>
		</g>
		<g>
			<path style="fill:#FFFFFF;" d="M414.436,297.428l31.423,8.321l-2.271,17.032l30.66,2.271l9.084-10.22l12.035-8.037l9.541,13.714l22.708,4.543l1.137,10.222v11.358l-32.93,24.976v15.898l-28.388,16.348l-10.902-5.446l-1.82-7.27l-6.358-7.265l-5.45-0.91
				l-8.174,0.91l-63.59-0.91l-3.632,0.91h-41.788l6.586-27.027l11.355-5.677l1.134-10.22l14.763-3.405l1.136-12.492l23.847-13.627l20.437-1.135l9.458-12.863z"/>
			<text transform="matrix(1 0 0 1 411.2695 357.4526)"><tspan x="0" y="0" style="stroke:none;">137-138</tspan></text>
		</g>
		<g>
			<path style="fill:#FFFFFF;" d="M155.918,210.602l14.458-0.236l9.085,0.91l24.529,3.632l12.716,9.084l7.266,0.909l1.819,4.542l2.724-3.633l14.536-4.543l16.349-1.818l20.897,1.818l2.723,3.634l6.361-6.361h3.181l-4.542,13.401l10.22,4.541l-10.22,6.813
				l3.407,18.169l-7.949,12.493l12.49,11.352l10.219,14.765l-49.963,10.218l-26.116-4.542l-13.626,10.222h-19.303l-12.492-9.087l-19.304-3.405v-14.764l-12.491-2.268l1.136-9.085l6.813-4.542l-4.542-9.088l13.625-5.675l-24.982-30.66l10.976-16.796z"/>
			<text transform="matrix(1 0 0 1 204.373 274.2544)"><tspan x="0" y="0" style="stroke:none;">144-145</tspan></text>
		</g>
		<g>
			<path style="fill:#FFFFFF;stroke-linecap:round;stroke-linejoin:round;" d="M359.328,170.394l24.068-1.072l0.009,0.163v13.628l-13.626,3.405l35.2,43.152l15.899,1.137l4.542,14.759l-13.628-3.406l10.22,11.356l-10.22,5.675l9.086,4.542l-5.678,13.63l7.949,6.813
				l-18.17,26.116l-20.437,1.135l-23.847,13.627l-20.441-2.271l-1.134-19.303l-32.931-3.405l-10.219-14.765l-12.49-11.352l7.949-12.493l-3.407-18.169l10.22-6.813l-10.22-4.541l4.542-13.401h4.083l11.812-3.632l3.634-5.451l7.266-5.451l3.632-3.633l7.271-0.908
				l2.723-6.356l8.177-2.728l11.812,1.815l6.355-7.265v-14.537z"/>
			<text transform="matrix(1 0 0 1 340.269 268.894)"><tspan x="0" y="0" style="stroke:none;">130-131</tspan></text>
		</g>
		<g>
			<path style="fill:#FFFFFF;" d="M165.383,303.479l19.304,3.405l12.492,9.087h19.303l13.626-10.222l26.116,4.542l49.963-10.218l32.931,3.405l1.134,19.303l20.441,2.271l-1.136,12.492l-14.763,3.405l-1.134,10.22l-11.355,5.677l-6.586,27.027h-38.157h-3.632h-65.409
				h-14.53l-18.922,0.72l-12.874-23.203l-9.083,1.134l20.441-30.66l-18.169-28.386z"/>
			<text transform="matrix(1 0 0 1 248.4473 357.1519)"><tspan x="0" y="0" style="stroke:none;">148</tspan></text>
		</g>
		<g>
			<path style="fill:#FFFFFF;" d="M42.209,322.941l-8.094,7.337L0.5,351.17v32.704l30.879,1.018l39.979-1.018h14.538h62.679l9.994,0.91l26.5-0.19l-12.874-23.203l-9.083,1.134l20.441-30.66l-18.169-28.386l-6.813,20.438l-15.899,11.358l-31.794,4.542l-3.407-10.219
				l-26.116,12.49l-39.145-19.147z"/>
			<text transform="matrix(1 0 0 1 90.6074 365.0991)"><tspan x="0" y="0" style="stroke:none;">147</tspan></text>
		</g>
		<g>
			<path style="fill:#FFFFFF;" d="M155.918,210.602l-10.976,16.796l24.982,30.66l-13.625,5.675l4.542,9.088l-6.813,4.542l-1.136,9.085l12.491,2.268v14.764l-6.813,20.438l-15.899,11.358l-31.794,4.542l-3.407-10.219l-26.116,12.49l-39.145-19.147l6.44-3.567
				l16.349-8.174l9.086-14.534l3.632-3.633l9.993-3.631l4.542-8.182l-4.542-11.806l-1.813-7.269l-5.452,1.814l-4.542-9.993l-0.91-6.354l-3.634-3.636l4.544-5.45l0.909-16.354l4.542-2.725l12.716-1.818l17.259-3.633l14.536-1.813l6.355-0.908l23.697-0.674z"/>
			<text transform="matrix(1 0 0 1 100.436 304.8833)"><tspan x="0" y="0" style="stroke:none;">140-141</tspan></text>
		</g>
		<g>
			<path style="fill:#FFFFFF;" d="M515.883,3.779l65.103-0.535l68.129-1.816l1.818,8.174l-4.543,13.625l2.725,5.455l-0.907,29.974l3.638,9.992l0.905,26.345l-12.718,26.35l4.923,22.487l-44.665-31.122l-89.696,7.041l-26.127,2.043l-3.406-26.117l27.254-12.492
				l-6.816-54.501l14.385-24.904z"/>
			<text transform="matrix(1 0 0 1 572.0723 68.7256)"><tspan x="0" y="0" style="stroke:none;">129</tspan></text>
		</g>
		<g>
			<path style="fill:#FFFFFF;" d="M658.201,238.754l-79.484-1.138l-34.067-66.993l-31.024,1.18l-3.031-52.125l89.696-6.97l44.665,31.122l1.435,8.396l1.817,8.174l-5.449,12.718l1.814,10.903l7.272-6.361l8.175,9.087l-0.456,29.521l-1.362,22.486z"/>
			<text transform="matrix(1 0 0 1 589.1074 178.8716)"><tspan x="0" y="0" style="stroke:none;">128</tspan></text>
		</g>
		<g>
			<path style="fill:#FFFFFF;" d="M658.201,238.754l-0.908,24.297v28.429l1.817,2.463l-8.178,24.522l-7.082,25.921l-35.61-2.298l-12.493-11.355l-14.762-1.135l-11.353-7.95l-23.85,15.897l-17.031-2.271l-1.137-10.222l-22.708-4.543l-9.541-13.714l4.998-4.455
				l28.388-9.084l-9.087-11.353l9.087-5.679l-4.545-11.355l11.358-2.271l-12.492-39.74l-9.448-51.056l31.024-1.18l34.067,66.993l79.484,1.138z"/>
			<text transform="matrix(1 0 0 1 574.5547 293.561)"><tspan x="0" y="0" style="stroke:none;">120-121</tspan></text>
		</g>
		<g>
			<path style="fill:#FFFFFF;" d="M608.24,342.088l35.61,2.298l-8.359,33.129l-1.089,22.63l-1.642,23.7l-0.777,18.642l-16.933,3.505l-17.602,15.898l-23.274-1.135l-13.626-9.084l3.968-11.929l-14.189-4.542l-8.07-3.219l21.698-8.137l9.084-13.627l20.438-1.135
				l5.68-13.625l-4.542-11.359l5.676-28.385l7.95-13.626z"/>
			<text transform="matrix(1 0 0 1 607.666 408.6509)"><tspan x="0" y="0" style="stroke:none;">125</tspan></text>
		</g>
		<g>
			<path style="fill:#FFFFFF;stroke-linejoin:round;" d="M550.327,435.201l14.189,4.542l-3.968,11.929l13.626,9.084l23.274,1.135l-0.567,16.458l4.546,12.493l3.176,35.278l-9.989-4.166l0.904-10.899l-29.978-17.262l-3.631-1.817l-14.539-7.265l-32.146-18.461
				l12.39-21.967l22.712-9.082z"/>
			<text transform="matrix(1 0 0 1 549.3574 479.7856)"><tspan x="0" y="0" style="stroke:none;">109</tspan></text>
		</g>
		<g>
			<path style="fill:#FFFFFF;stroke-linejoin:round;" d="M631.983,442.487l-1.945,21.327v8.175l6.358,10.902l-4.544,2.722l-18.167,10.907l4.541,10.901l-0.903,6.357l-12.72,12.341l-3.176-35.278l-4.546-12.493l0.567-16.458l17.602-15.898l16.933-3.505z"/>
			<text transform="matrix(1 0 0 1 606.1367 484.3286)"><tspan x="0" y="0" style="stroke:none;">105</tspan></text>
		</g>
		<g>
			<path style="fill:#FFFFFF;stroke-linecap:round;stroke-linejoin:round;" d="M708.715,514.042l7.623-1.171l13.629-4.542l24.526-17.261l2.728-1.815l4.544,1.815l-13.481,9.994l-1.965,5.453l-5.452,4.539l-6.357,1.816l-2.73,4.54l-7.263,1.82l6.362,2.723
				l1.811,6.362l4.546,0.908l3.632-1.818l-2.726-3.633l3.636-1.819l1.817-4.543l9.085-7.264l0.909-3.632l5.447,3.632l4.54-4.546l2.73,2.728l3.633-3.635l8.173,5.453l11.813-7.271l9.986-0.906l0.91,1.813l-2.723,2.731l-45.419,20.891l-46.776,19.43l-1.088-4.16
				l16.066-7.623v-1.286l-17.914,5.061l0.085-0.295l-7.378-14.759l13.041-9.731z"/>
			<text transform="matrix(1 0 0 1 709.6953 524.9233)"><tspan x="0" y="0" style="stroke:none;">119</tspan></text>
		</g>
		<g>
			<path style="fill:#FFFFFF;" d="M708.715,514.042l-13.041,9.731l7.378,14.759l-0.085,0.295l-17.512,4.933l-15.443,1.813l-1.818,3.632l-6.355-1.812l-16.356,8.174l-4.85,0.719l-1.646-11.671l-5.505-6.082l-0.973-15.949l2.982,3.914l2.722-2.724l-0.91-5.452
				l9.997,3.633l1.814-3.633l13.633,4.543l9.987-8.175l18.168,1.82l17.813-2.468z"/>
			<text transform="matrix(1 0 0 1 651.7676 536.6821)"><tspan x="0" y="0" style="stroke:none;">115-118</tspan></text>
		</g>
		<g>
			<path style="fill:#FFFFFF;" d="M623.774,544.577l5.13-4.035l-5.114-2.408l1.431-6.704l-2.944-6.412l-3.633,3.634v4.541l-3.638-3.632l-5.446,9.084l-5.451-2.728l-3.639,4.542l-6.36-1.814l-3.629,7.266l-7.27,6.362l1.814,10.898h5.455l7.265-6.358l7.269-0.908
				l1.818,5.45l-12.723,5.445l5.453,0.911l15.786-7.665l8.426-15.469z"/>
			<text transform="matrix(1 0 0 1 598.9287 577.4351)"><tspan x="0" y="0" style="stroke:none;">110-116</tspan></text>
		</g>
		<g>
			<g>
				<path style="fill:#FFFFFF;" d="M618.077,562.034l13.053-5.222l9.502-0.527l-1.646-11.671l-5.505-6.082l-0.973-15.949l-2.97-0.293l-7.263,2.728l2.944,6.412l-1.431,6.704l5.114,2.408l-5.13,4.035l-8.426,15.469l2.729,1.988z"/>
			</g>
			<text transform="matrix(1 0 0 1 622.7168 554.6021)"><tspan x="0" y="0" style="stroke:none;">115</tspan></text>
		</g>
		<g>
			<path style="fill:#FFFFFF;" d="M556.864,575.89l15.444-9.091l7.266-7.265l-4.542-7.263l-4.541,1.812h-2.725l-5.45,5.451l-3.632,10.905l-2.731,0.904l0.911,4.546z"/>
			<text transform="matrix(1 0 0 1 540.166 569.2319)"><tspan x="0" y="0" style="stroke:none;">103</tspan></text>
		</g>
		<g>
			<path style="fill:#FFFFFF;" d="M591.39,536.825l0.903-6.36l-8.175,9.085l-1.815,7.27l5.445-0.909l3.642-9.085z"/>
			<text transform="matrix(1 0 0 1 538.1113 540.1333)"><tspan x="0" y="0" style="stroke:none;">100-102</tspan></text>
		</g>
	</g>
</svg>
