<?xml version="1.0" encoding="iso-8859-1"?>
<!DOCTYPE svg >

<svg  width="582.611pt" height="600.906pt" viewBox="0 0 582.611 600.906" xml:space="preserve">
	<g id="Layer_x0020_1" style="fill-rule:nonzero;clip-rule:nonzero;stroke:#000000;stroke-miterlimit:4; font-family:'Arial'; font-size:10;">
		<g>
			<path style="fill:#FFFFFF;" d="M3.339,120.377L2.944,91.36V74.434l1.211-29.026l54.409-1.205h3.626l65.291-3.628l15.722,1.207l43.524-3.623l3.632,7.249L224.21,57.5l31.437,16.933l-6.043,12.09l14.511,4.836l7.769-1.973l-25.906,30.991l-42.319-3.023
				l-15.114,10.579l-18.899,0.644l-26.444,0.868v10.579L3.339,120.377z"/>
			<text transform="matrix(1 0 0 1 109.7402 94.6816)"><tspan x="0" y="0" style="stroke:none;">434-435</tspan></text>
		</g>
		<g style="stroke:none;">
			<path style="fill:#FFFFFF;stroke:#000000;" d="M359.393,253.418l-3.082,49.835l-24.182,33.251l1.51,54.412l3.022,13.606l22.673,3.02l16.625-1.511l21.158,24.18l25.695-19.645l-1.511-9.068h57.432l7.559-9.069l29.72-0.898l-5.538-24.798l12.09-13.599
				l-12.09-21.161l10.579-7.555l-15.114-4.536l4.535-12.091l-39.299-10.582v-15.113l-45.339-30.229l-66.443,1.551z"/>
			<text transform="matrix(1 0 0 1 416.731 330.8618)"><tspan x="0" y="0">437</tspan><tspan x="0" y="12">438</tspan></text>
		</g>
		<g>
			<path style="fill:#FFFFFF;" d="M202.147,445.329l10.58-16.625l61.967-4.535l10.583,9.067l13.602-9.067l46.854,12.091v-15.114h12.09l1.513-13.603l-22.673-3.02l-3.022-13.606l-1.51-54.412l24.182-33.251l3.082-49.835l1.453-22.711l-25.693,7.559l-36.761,0.011
				l-1.028,28.708l-15.111-1.515l-24.184-7.556l-81.615,4.533v31.742l-60.457,1.509l4.535,21.157l52.9,25.696l-24.184,63.479l52.581,40.458l0.319-1.161z"/>
			<text transform="matrix(1 0 0 1 232.9116 361.0903)"><tspan x="0" y="0" style="stroke:none;">430-431</tspan></text>
		</g>
		<g>
			<path style="fill:#FFFFFF;" d="M359.334,407.542l16.625-1.511l21.158,24.18l25.695-19.645l-1.511-9.068h57.432l7.559-9.069l29.72-0.898l17.274-1.213l-0.748,4.531l-4.836,4.837l-8.469,2.415l-6.044,7.254l-10.88,12.092l-3.626,3.631l-13.304,10.88l-18.134,6.048
				l-10.884-9.676l-14.509,10.886l-4.836,12.09h-8.468l-10.88,9.673l-2.416,6.044l1.205,13.301l-10.88,4.837v4.836l7.255,6.044v12.09l-9.67-1.21l-2.421,8.468l-3.626,1.21h-6.044l3.623-10.882l-15.714-10.884l-7.257,3.628l-4.836,4.834l-28.717,3.024l-10.582-24.182
				l22.673-31.74l-4.532-18.137v-15.114h12.09l1.513-13.603z"/>
			<text transform="matrix(1 0 0 1 375.9224 469.9146)"><tspan x="0" y="0" style="stroke:none;">457</tspan></text>
		</g>
		<g>
			<path style="fill:#FFFFFF;" d="M202.147,445.329l10.58-16.625l61.967-4.535l10.583,9.067l13.602-9.067l46.854,12.091l4.532,18.137l-22.673,31.74l10.582,24.182l28.717-3.024l-3.632,21.766l-9.67,6.044l2.415,13.302l-2.415,21.767l-9.675,2.414l-6.048,21.77
				l-22.97,6.044l-10.884-1.211l-3.626-9.673l-4.838-4.836l-8.462-7.258l-13.302-4.836l-6.043-4.832l-4.836-22.975l-18.138,4.837l-10.88,7.257l-4.842,7.255l-14.506,1.204l-6.045,2.422l-10.881-8.469l-12.215-4.061l1.636,0.438l-34.763-22.672l1.512-13.603
				l36.273-13.603l13.604-19.648l-13.604-4.533l1.513-18.139l16.624-12.088l-6.364-4.887l0.319-1.161z"/>
			<g>
				<text transform="matrix(1 0 0 1 259.5449 512.229)"><tspan x="0" y="0" style="stroke:none;">456</tspan></text>
			</g>
		</g>
		<g>
			<path style="fill:#FFFFFF;" d="M1.733,415.399l34.161-15.411l69.488,3.71l12.137,8.126l10.535-6.916l21.193,1.124l52.581,40.458l6.364,4.887l-16.624,12.088l-1.513,18.139l13.604,4.533l-13.604,19.648l-36.273,13.603l-1.512,13.603l34.763,22.672l-1.636-0.438
				l-9.552-3.188l-15.715,8.462l-7.257,1.208l-27.807-19.348l-8.467-4.837l-10.88,1.211l-24.183-7.254v-6.044L70.654,500.04l-15.722-8.46l-3.625-7.257l-7.255,2.416l-15.716,3.631l-15.723-8.467l-12.09,2.42l1.21-32.648v-36.275z"/>
			<text transform="matrix(1 0 0 1 90.8408 478.981)"><tspan x="0" y="0" style="stroke:none;">450-451</tspan></text>
		</g>
		<g>
			<path style="fill:#FFFFFF;" d="M471.175,282.096l18.141-1.512l19.646-25.693l19.649-9.069l13.603-24.182l-9.067-12.094l48.082,9.07l-0.327,5.746l-18.135,6.044l-2.415,3.625l8.459,14.515v6.044l-1.211,9.67l1.211,16.927l-10.88,20.558l-1.211,4.837l-6.047,15.719
				l1.21,4.837l-3.625,16.926h-6.044l2.415,8.466l-4.836,6.046l1.21,4.837l-3.632,8.462l1.212,8.465l-3.624,4.833l-1.672,5.146l-17.274,1.213l-5.538-24.798l12.09-13.599l-12.09-21.161l10.579-7.555l-15.114-4.536l4.535-12.091l-39.299-10.582v-15.113z"/>
			<text transform="matrix(1 0 0 1 521.02 296.1011)"><tspan x="0" y="0" style="stroke:none;">439</tspan></text>
		</g>
		<g>
			<path style="fill:#FFFFFF;" d="M359.393,253.418l1.453-22.711l7.555-45.342l93.707-9.067v-12.09h39.296l16.625-3.024l33.251,22.672l-4.531,6.047l-9.069,7.555l-4.533,12.088l9.067,12.094l-13.603,24.182l-19.649,9.069l-19.646,25.693l-18.141,1.512
				l-45.339-30.229l-66.443,1.551z"/>
			<text transform="matrix(1 0 0 1 453.0063 232.6235)"><tspan x="0" y="0" style="stroke:none;">446</tspan></text>
		</g>
		<g>
			<path style="fill:#FFFFFF;" d="M2.229,271.113l72.96,10.983V256.4l36.275-4.532l4.532,43.831l4.535,21.157l52.9,25.696l-24.184,63.479l-21.193-1.124l-10.535,6.916l-12.137-8.126l-69.488-3.71L1.733,415.399v-8.458v-26.603v-32.649l-1.21-15.716l1.21-49.576
				v-7.254l0.496-4.03z"/>
			<text transform="matrix(1 0 0 1 55.5049 353.5337)"><tspan x="0" y="0" style="stroke:none;">453</tspan></text>
		</g>
		<g>
			<path style="fill:#FFFFFF;" d="M184.01,165.716l13.603,1.515l33.251,12.088v9.07h-12.091l12.091,25.695l68.014-1.512l-0.486,25.704l-1.028,28.708l-15.111-1.515l-24.184-7.556l-81.615,4.533v31.742l-60.457,1.509l-4.532-43.831v-7.556h16.625v-15.116
				l54.409-30.228l1.511-33.252z"/>
			<text transform="matrix(1 0 0 1 188.5088 241.6899)"><tspan x="0" y="0" style="stroke:none;">433</tspan></text>
		</g>
		<g>
			<path style="fill:#FFFFFF;" d="M184.01,165.716l-13.868-37.368l-26.94,1.097v10.579L3.339,120.377l-0.395,45.941v12.093l-1.21,32.649v27.808l0.496,32.244l72.96,10.983V256.4l36.275-4.532v-7.556h16.625v-15.116l54.409-30.228l1.511-33.252z"/>
			<text transform="matrix(1 0 0 1 72.1304 203.9038)"><tspan x="0" y="0" style="stroke:none;">458</tspan></text>
		</g>
		<g>
			<path style="fill:#FFFFFF;" d="M170.142,128.348l18.403-0.415l15.114-10.579l42.319,3.023l25.906-30.991l18.828-6.495l27.813,15.723l12.091,5.137l4.538,42.318h18.135l15.113,39.295l-7.555,45.342l-25.693,7.559l-36.761,0.011l0.486-25.704l-68.014,1.512
				l-12.091-25.695h12.091v-9.07l-33.251-12.088l-13.603-1.515l-13.868-37.368z"/>
			<text transform="matrix(1 0 0 1 277.6816 173.6758)"><tspan x="0" y="0" style="stroke:none;">448</tspan></text>
		</g>
		<g>
			<path style="fill:#FFFFFF;" d="M368.401,185.365l-15.113-39.295l33.251-30.228l75.569-1.512v-12.09h52.897l3.023,33.248l-18.134,3.024l1.509,25.696h-39.296v12.09l-93.707,9.067z"/>
			<text transform="matrix(1 0 0 1 419.7544 155.541)"><tspan x="0" y="0" style="stroke:none;">442</tspan></text>
		</g>
		<g>
			<path style="fill:#FFFFFF;" d="M579.69,79.267l-64.685,0.301v22.672l3.023,33.248l-18.134,3.024l1.509,25.696l16.625-3.024l33.251,22.672l-4.531,6.047l-9.069,7.555l-4.533,12.088l48.082,9.07l0.883-29.319v-9.675l-1.21-37.485V84.103l-1.211-4.836z"/>
			<text transform="matrix(1 0 0 1 536.1313 155.541)"><tspan x="0" y="0" style="stroke:none;">444</tspan></text>
		</g>
		<g>
			<path style="fill:#FFFFFF;" d="M318.524,98.615l15.717-7.255l38.695-12.093l13.296,1.211l39.902-3.632l24.185-21.76l20.553-18.137l22.977-7.255l21.76-9.672L579.69,0.673v21.763v56.83l-64.685,0.301v22.672h-52.897v12.09l-75.569,1.512l-33.251,30.228h-18.135
				l-4.538-42.318l-12.091-5.137z"/>
			<text transform="matrix(1 0 0 1 460.3481 85.7983)"><tspan x="0" y="0" style="stroke:none;">440</tspan></text>
		</g>
	</g>
</svg>
