<?xml version="1.0" encoding="iso-8859-1"?>
<!DOCTYPE svg >

<svg  width="801.418pt" height="440.999pt" viewBox="0 0 801.418 440.999" xml:space="preserve">
	<g id="Layer_x0020_1" style="fill-rule:nonzero;clip-rule:nonzero;stroke:#000000;stroke-miterlimit:4; font-family:'Arial'; font-size:10;">
		<g>
			<path style="fill:#FFFFFF;" d="M0.5,124.328V73.692V51.463l24.7-7.412l16.059-12.35l18.527-13.587l-1.237,7.412l18.525-9.878l28.403-14.823v44.463l20.998,1.237l20.987,0.144l1.557,46.785l-23.158,3.087l-30.875-1.543l-35.508,18.526l-21.613,12.349
				l-37.051-1.543H0.5z"/>
			<text transform="matrix(1 0 0 1 57.312 76.4712)"><tspan x="0" y="0" style="stroke:none;">164</tspan></text>
		</g>
		<g>
			<path style="fill:#FFFFFF;" d="M232.383,45.288h74.409l13.586,1.237l27.884-0.201L335.817,71.84l6.174,44.77H238.558l-20.069,4.631l4.631-29.331l9.264-46.314v-0.308z"/>
			<text transform="matrix(1 0 0 1 272.6641 92.1445)"><tspan x="0" y="0" style="stroke:none;">167</tspan></text>
		</g>
		<g>
			<path style="fill:#FFFFFF;" d="M342.311,132.046l-1.098,27.023l59.443,28.557l16.981,10.805l12.349,18.526l21.603,11.829l8.498-13.373l12.349-19.292l33.965,1.543l1.543,13.115l11.585-2.31l30.392-27.353l-6.469-25.912h-28.557l-8.494-10.808l23.936-23.157
				l0.229-23.156h-0.229l-32.421,7.72l-3.087,7.718h-13.895l-4.631,10.805l-74.104,1.543l-59.888,6.174z"/>
			<text transform="matrix(1 0 0 1 444.0264 170.876)"><tspan x="0" y="0" style="stroke:none;">177</tspan></text>
		</g>
		<g>
			<path style="fill:#FFFFFF;" d="M348.262,46.324l8.143-0.06l25.725-0.976h19.756h88.926h4.938H531.1v0.308l-0.534,52.489h-0.229l-32.421,7.72l-3.087,7.718h-13.895l-4.631,10.805l-74.104,1.543l-59.888,6.174l-0.319-15.436l-6.174-44.77l12.445-25.516z"/>
			<text transform="matrix(1 0 0 1 419.3232 95.2319)"><tspan x="0" y="0" style="stroke:none;">169</tspan></text>
		</g>
		<g>
			<path style="fill:#FFFFFF;" d="M271.744,238.569l-6.176,17.76l-3.854,6.94l-1.544,16.216l3.089,8.484l12.35,20.072l-6.176,20.844l-6.953,12.354l10.806,3.852l16.216,14.672l49.401,16.981l10.807-8.497l3.088-25.467l8.483-9.264l2.022-6.801l11.106-37.202
				l-5.409-22.898l-46.313-7.199l6.953-16.216l-12.35-11.571l-45.548,6.94z"/>
			<text transform="matrix(1 0 0 1 309.7144 312.9072)"><tspan x="0" y="0" style="stroke:none;">166</tspan></text>
		</g>
		<g>
			<path style="fill:#FFFFFF;" d="M180.618,323.563l20.888-11.657l2.31-12.352l21.613-12.352l37.83,0.767l12.35,20.072l-6.176,20.844l-6.953,12.354l-6.941,23.921l-24.484-3.606l-25.696-20.314l-24.742-17.676z"/>
			<text transform="matrix(1 0 0 1 226.3501 328.3428)"><tspan x="0" y="0" style="stroke:none;">159</tspan></text>
		</g>
		<g>
			<path style="fill:#FFFFFF;" d="M173.719,437.197l-1.543-19.548l-9.263-18.525l14.66-17.746l10.807-20.072l16.98-20.066l25.696,20.314l24.484,3.606l6.941-23.921l10.806,3.852l16.216,14.672l49.401,16.981l-14.672,38.596l-41.682,10.805l-9.263,12.091
				l-33.186-0.209l-17.295,1.236l-49.087-2.065z"/>
			<text transform="matrix(1 0 0 1 232.5254 407.0771)"><tspan x="0" y="0" style="stroke:none;">155</tspan></text>
		</g>
		<g>
			<path style="fill:#FFFFFF;" d="M88.785,438.966l-3.061-23.626l-12.351-17.76l9.261-18.525l-7.211-14.4l32.678,2.049l11.585-11.571l16.204,23.156l20.848,3.09h20.836l-14.66,17.746l9.263,18.525l1.543,19.548l-17.603-0.406l-12.351,2.472h-35.814l-19.166-0.297z"
				/>
			<text transform="matrix(1 0 0 1 115.1968 411.708)"><tspan x="0" y="0" style="stroke:none;">154</tspan></text>
		</g>
		<g>
			<path style="fill:#FFFFFF;" d="M127.02,265.566l28.173,2.337l-0.778,37.828l26.203,17.832l24.742,17.676l-16.98,20.066l-10.807,20.072h-20.836l-20.848-3.09l-16.204-23.156l-6.174-12.352l-4.631-11.582l14.659-27.011l1.545-20.849l1.936-17.772z"/>
			<text transform="matrix(1 0 0 1 144.5293 353.0459)"><tspan x="0" y="0" style="stroke:none;">156</tspan></text>
		</g>
		<g>
			<path style="fill:#FFFFFF;" d="M155.193,267.903l-0.778,37.828l26.203,17.832l20.888-11.657l2.31-12.352l21.613-12.352l37.83,0.767l-3.089-8.484l1.544-16.216l3.854-6.94l6.176-17.76l-13.117-17.746l-24.7-0.782l-11.584-10.803l-17.749-10.808l-22.39,5.408
				l-2.31,16.984l16.982,3.854l-3.087,15.437l-38.595,27.79z"/>
			<text transform="matrix(1 0 0 1 209.3691 269.6816)"><tspan x="0" y="0" style="stroke:none;">157</tspan></text>
		</g>
		<g>
			<path style="fill:#FFFFFF;" d="M127.02,265.566l28.173,2.337l38.595-27.79l3.087-15.437l-16.982-3.854l2.31-16.984l0.778-22.388l14.66-32.42l20.846-27.79l-40.139,6.174l-11.289,16.406l-22.676,11.384l-7.718,20.069l-1.543,29.331l-8.498,11.585l0.394,49.376z"/>
			<text transform="matrix(1 0 0 1 147.6162 243.4346)"><tspan x="0" y="0" style="stroke:none;">162</tspan></text>
		</g>
		<g>
			<path style="fill:#FFFFFF;" d="M342.311,132.046l-1.098,27.023l-26.243,3.087l-56.344,58.667l-24.7-0.782l-11.584-10.803l-17.749-10.808l-22.39,5.408l0.778-22.388l14.66-32.42l20.846-27.79l20.069-4.631h103.434l0.319,15.436z"/>
			<text transform="matrix(1 0 0 1 244.8745 173.9629)"><tspan x="0" y="0" style="stroke:none;">158</tspan></text>
		</g>
		<g>
			<path style="fill:#FFFFFF;" d="M127.02,265.566l-0.394-49.376l8.498-11.585l1.543-29.331l7.718-20.069l-32.418,12.349l-37.57-9.262l-1.803,33.198l-17.356,20.4l-2.713,32.854l-3.087,16.984l64.84,1.541l12.743,2.297z"/>
			<text transform="matrix(1 0 0 1 82.7773 232.6299)"><tspan x="0" y="0" style="stroke:none;">160</tspan></text>
		</g>
		<g>
			<path style="fill:#FFFFFF;" d="M2.208,333.141l49.551-5.032l32.419,14.672l-8.756,21.874l7.211,14.4l-9.261,18.525l12.351,17.76l3.061,23.626l-72.226,1.533l-13.587-1.236l-0.211-5.139l0.211-33.148V389.86v-25.937l-0.764-30.783z"/>
			<text transform="matrix(1 0 0 1 28.7451 391.6406)"><tspan x="0" y="0" style="stroke:none;">153</tspan></text>
		</g>
		<g>
			<path style="fill:#FFFFFF;" d="M2.208,333.141l49.551-5.032l32.419,14.672l-8.756,21.874l32.678,2.049l11.585-11.571l-6.174-12.352l-4.631-11.582l14.659-27.011l1.545-20.849l1.936-17.772l-12.743-2.297l-64.84-1.541l3.087-16.984l-49.553-0.615l-0.904,29.948
				l-0.333,5.867v29.639v12.351l0.472,11.207z"/>
			<text transform="matrix(1 0 0 1 40.3506 305.1895)"><tspan x="0" y="0" style="stroke:none;">150-151</tspan></text>
		</g>
		<g>
			<path style="fill:#FFFFFF;" d="M0.813,124.328l37.051,1.543l35.508,20.072l1.024,12.349l-1.803,33.198l-17.356,20.4l-2.713,32.854l-49.553-0.615v-9.883l-1.236-38.287v-59.28L0.5,131.741v-7.413h0.313z"/>
			<text transform="matrix(1 0 0 1 27.2017 187.8604)"><tspan x="0" y="0" style="stroke:none;">161</tspan></text>
		</g>
		<g>
			<path style="fill:#FFFFFF;" d="M37.864,125.872l21.613-12.349l35.508-18.526l30.875,1.543l23.158-3.087l-1.557-46.785l54.352-1.38h19.762h10.808v0.308l-9.264,46.314l-4.631,29.331l-40.139,6.174l-11.289,16.406l-22.676,11.384l-32.418,12.349l-37.57-9.262
				l-1.024-12.349l-35.508-20.072z"/>
			<text transform="matrix(1 0 0 1 121.3726 129.1958)"><tspan x="0" y="0" style="stroke:none;">163</tspan></text>
		</g>
		<g>
			<path style="fill:#FFFFFF;" d="M680.083,190.713v-11.571l-9.265-16.219l-24.7-15.436v-15.441l-7.718-6.174l3.088-23.157l37.051-20.069l-5.41-10.805l11.585-3.854l31.641-20.069l0.156-0.151l6.485,7.4l2.472,9.883l14.823,7.407l14.815,18.523v23.472l7.413,17.29
				l19.762,11.113l-47.4,15.438l-30.098,23.159l-24.7,9.262z"/>
			<text transform="matrix(1 0 0 1 694.1201 129.1958)"><tspan x="0" y="0" style="stroke:none;">184</tspan></text>
		</g>
		<g>
			<path style="fill:#FFFFFF;" d="M530.336,121.241L506.4,144.397l8.494,10.808h28.557l6.469,25.912l21.318,8.052l-3.991,32.408l32.559-9.254l80.277-7.718l-0.339,0.013l0.339-13.905v-11.571l-9.265-16.219l-24.7-15.436v-15.441l-7.718-6.174l3.088-23.157
				l-17.76-7.718l-27.01,4.631L566.607,114.3l-36.271,6.941z"/>
			<text transform="matrix(1 0 0 1 592.2275 169.335)"><tspan x="0" y="0" style="stroke:none;">186</tspan></text>
		</g>
		<g>
			<path style="fill:#FFFFFF;" d="M437.705,247.064l0.767,21.615l90.32,10.028l30.096-29.333l-1.544-12.349l8.497-4.631l1.344-10.832l4.054-32.395l-21.318-8.052l-30.392,27.353l-11.585,2.31l-1.543-13.115l-33.965-1.543l-12.349,19.292l-8.498,13.373
				l-13.884,18.278z"/>
			<text transform="matrix(1 0 0 1 491.8838 248.0654)"><tspan x="0" y="0" style="stroke:none;">178</tspan></text>
		</g>
		<g>
			<path style="fill:#FFFFFF;" d="M433.841,380.599l-11.572,36.284l7.718,20.998l26.247,0.146l20.833,0.162l10.041-0.162h28.402h30.878l37.979-0.354l-13.896-30.053l-19.303-24.697l-15.438-1.544l-6.938-9.264l-7.72-5.411l-13.129-0.767l-10.028-3.087l-17.759,6.941
				l-17.749,8.497l-28.566,2.311z"/>
			<text transform="matrix(1 0 0 1 482.6182 414.7969)"><tspan x="0" y="0" style="stroke:none;">174</tspan></text>
		</g>
		<g>
			<path style="fill:#FFFFFF;" d="M369.002,266.615l5.409,22.898l-10.577,37.521l30.646,13.426l39.36,40.139l28.566-2.311l17.749-8.497l17.759-6.941l10.028,3.087l13.129,0.767l7.72,5.411l26.244-14.673l7.718-7.72l40.309-14.328l-28.734-27.352l-45.536-29.334
				l-90.32-10.028l-0.767-21.615l-68.703,19.551z"/>
			<text transform="matrix(1 0 0 1 448.6572 329.8896)"><tspan x="0" y="0" style="stroke:none;">170</tspan></text>
		</g>
		<g>
			<path style="fill:#FFFFFF;" d="M277.917,438.991l-4.63-0.756l9.263-12.091l41.682-10.805l14.672-38.596l10.807-8.497l3.088-25.467l8.483-9.264l2.551-6.482l30.646,13.426l39.36,40.139l-11.572,36.284l7.718,20.836v0.308h-5.866l-86.452,1.236h-34.585h-6.174
				l-18.992-0.271z"/>
			<text transform="matrix(1 0 0 1 368.3789 403.9893)"><tspan x="0" y="0" style="stroke:none;">172</tspan></text>
		</g>
		<g>
			<path style="fill:#FFFFFF;" d="M716.511,47.766l-2.158-2.478l-7.41-1.236l-11.113,1.236l-86.454-1.236l-4.938,1.236h-56.813L531.1,45.451l-0.534,52.634l-0.229,23.156l36.271-6.941l30.111-14.672l27.01-4.631l17.76,7.718l37.051-20.069l-5.41-10.805l11.585-3.854
				l31.641-20.069l0.156-0.151z"/>
			<text transform="matrix(1 0 0 1 586.0537 82.8804)"><tspan x="0" y="0" style="stroke:none;">188</tspan></text>
		</g>
		<g>
			<path style="fill:#FFFFFF;" d="M258.627,220.823l56.344-58.667l26.243-3.087l59.443,28.557l16.981,10.805l12.349,18.526l21.603,11.829l-13.884,18.278l-68.703,19.551l-46.313-7.199l6.953-16.216l-12.35-11.571l-45.548,6.94l-13.117-17.746z"/>
			<text transform="matrix(1 0 0 1 351.3979 221.8242)"><tspan x="0" y="0" style="stroke:none;">168</tspan></text>
		</g>
		<g>
			<path style="fill:#FFFFFF;" d="M692.435,418.266l13.115-12.19l7.73-17.1l0.765-2.97l10.03,3.854l8.498-3.085l-3.867-6.943l12.352-11.585l-3.854-16.979l23.156,1.544l16.982,8.494l17.287-10.111l4.938,11.494l-32.11,18.525l-11.116,9.885l-8.646,7.41
				l-4.938,11.113l-12.352,6.177l-13.587,2.467l-11.113,6.171l-8.641-6.171h-3.867h-0.764z"/>
			<text transform="matrix(1 0 0 1 748.3252 379.2891)"><tspan x="0" y="0" style="stroke:none;">190</tspan></text>
		</g>
		<g>
			<path style="fill:#FFFFFF;" d="M610.613,436.791l16.979-26.861l8.484-37.815l6.175-4.631l25.479-18.526l5.397,30.098l40.151,9.921l-7.73,17.1l-12.735,12.19h-14.275l-8.648,4.943l-7.41,4.941l-3.703,9.876l-6.174-1.235h-41.99z"/>
			<text transform="matrix(1 0 0 1 653.9814 407.0771)"><tspan x="0" y="0" style="stroke:none;">193</tspan></text>
		</g>
		<g style="stroke:none;">
			<path style="fill:#FFFFFF;stroke:#000000;" d="M528.792,372.114l26.244-14.673l7.718-7.72l40.309-14.328l14.492,12.787l-0.767,7.718l4.631,3.864l7.718-3.864l13.115,11.585l-6.175,4.631l-8.484,37.815l-16.979,26.861l-17.298,1.235l-8.948-0.354l-13.896-30.053
				l-19.303-24.697l-15.438-1.544l-6.938-9.264z"/>
			<text transform="matrix(1 0 0 1 587.5967 379.2891)"><tspan x="0" y="0">173</tspan><tspan x="0" y="12">175</tspan></text>
		</g>
		<g>
			<path style="fill:#FFFFFF;" d="M685.48,321.934l-17.749,27.023l5.397,30.098l40.151,9.921l0.765-2.97l10.03,3.854l8.498-3.085l-3.867-6.943l12.352-11.585l-3.854-16.979l-3.088-13.896l-10.808-3.087l-20.069-9.264l-12.349,0.779l3.087-3.867h-8.497z"/>
			<text transform="matrix(1 0 0 1 692.5771 366.9385)"><tspan x="0" y="0" style="stroke:none;">194</tspan></text>
		</g>
		<g>
			<path style="fill:#FFFFFF;" d="M703.239,325.021l5.397-9.262l2.32-15.438l24.883-14.45l16.8,6.422l1.479,14.391l-0.248,6.604l13.588,6.174l7.412,12.349l19.76,19.384l-17.287,10.111l-16.982-8.494l-23.156-1.544l-3.088-13.896l-10.808-3.087l-20.069-9.264z"/>
			<text transform="matrix(1 0 0 1 723.4502 325.2559)"><tspan x="0" y="0" style="stroke:none;">189</tspan></text>
		</g>
		<g>
			<path style="fill:#FFFFFF;" d="M565.841,232.396l-8.497,4.631l1.544,12.349l-30.096,29.333l45.536,29.334l57.118-20.072l-3.087-8.484l15.436-5.408l-33.182-13.895l-15.441-6.175V243.2h-15.436v-9.262l-13.896-1.543z"/>
			<text transform="matrix(1 0 0 1 570.6162 283.5732)"><tspan x="0" y="0" style="stroke:none;">179</tspan></text>
		</g>
		<g>
			<path style="fill:#FFFFFF;" d="M574.328,308.042l57.118-20.072l-3.087-8.484l15.436-5.408l17.763,24.7l23.923,23.156l-17.749,27.023l-25.479,18.526l-13.115-11.585l-7.718,3.864l-4.631-3.864l0.767-7.718l-14.492-12.787l-28.734-27.352z"/>
			<text transform="matrix(1 0 0 1 629.2783 329.8896)"><tspan x="0" y="0" style="stroke:none;">195</tspan></text>
		</g>
		<g>
			<path style="fill:#FFFFFF;" d="M643.795,274.077l17.763,24.7l23.923,23.156h8.497l-3.087,3.867l12.349-0.779l5.397-9.262l2.32-15.438l24.883-14.45l4.451-28.16l7.405-4.941l3.557-9.1l-25.637-15.905l-13.893,4.631l-32.42-8.485l-1.544,16.979l-10.028,6.175
				l-2.32,11.574l-7.718,3.867l-13.898,11.571z"/>
			<text transform="matrix(1 0 0 1 689.4873 278.9424)"><tspan x="0" y="0" style="stroke:none;">180</tspan></text>
		</g>
		<g>
			<path style="fill:#FFFFFF;" d="M680.083,190.713l24.7-9.262l30.098-23.159l47.4-15.438h13.584l4.941,12.352l-12.352,8.646l-4.865,11.276l-9.958,18.364l-8.641,7.41l-18.526,17.29l-1.235,7.413l8.641,9.877l-2.617,8.188l-25.637-15.905l-13.893,4.631l-32.42-8.485
				l0.44-19.292l0.339-13.905z"/>
			<text transform="matrix(1 0 0 1 724.9951 201.7529)"><tspan x="0" y="0" style="stroke:none;">183</tspan></text>
		</g>
		<g>
			<path style="fill:#FFFFFF;" d="M567.247,221.577l-1.406,10.818l13.896,1.543v9.262h15.436v10.808l15.441,6.175l33.182,13.895l13.898-11.571l7.718-3.867l2.32-11.574l10.028-6.175l1.544-16.979l0.44-19.292l0.339-0.013l-80.277,7.718l-32.559,9.254z"/>
			<text transform="matrix(1 0 0 1 623.1045 243.4346)"><tspan x="0" y="0" style="stroke:none;">182</tspan></text>
		</g>
	</g>
</svg>
