<?xml version="1.0" encoding="iso-8859-1"?>
<!DOCTYPE svg >

<svg  width="730.47pt" height="601.403pt" viewBox="0 0 730.47 601.403" xml:space="preserve">
	<g id="Layer_x0020_1" style="fill-rule:nonzero;clip-rule:nonzero;fill:#FFFFFF;stroke:#000000;stroke-miterlimit:4; font-family:'Arial'; font-size:10;">
		<g>
			<path d="M202.897,211.729l16.291-22.404l12.564-21.727l10.181-6.79l16.974-32.25l18.67-30.551l23.765-3.395l190.096,22.067l40.736,84.863l-10.184,123.905l-23.764,10.184l-8.719,7.617l-62.567,46.696l-67.964,12.658l-13.506,0.921l-1.697-32.25l-86.563-115.416
				l-37.34-20.367l-16.974-23.762z"/>
			<text transform="matrix(1 0 0 1 364.4619 235.4917)"><tspan x="0" y="0" style="fill:#000000;stroke:none;">290-291</tspan></text>
		</g>
		<g>
			<path d="M387.904,439.167l-18.67,5.093l18.67-5.093l56.687,74.681l8.148-4.069l4.074,1.353l2.716,5.436l19.009-13.576l-1.36-8.152l8.149,1.361l14.938-5.438l8.149-4.069h8.141l4.075-10.86l6.79-5.438l-6.79-5.429l4.071-6.788v-5.431l4.078-1.359l2.71,10.866h6.79
				l17.657-16.298l10.86-8.147l-1.359-9.499l8.148-5.438l9.507-8.142h12.222l5.427-8.148h6.789l1.36-6.79h6.789l6.789-4.076l2.711-8.144l5.438,1.354l2.711-4.073l1.358-6.788l-4.069-6.79l-8.149-5.431l-2.716-6.786l1.356-10.868l5.433,1.358l-1.362,9.509
				l10.868-2.72l5.43-9.501l5.311-12.437l-70.485,13.114l-86.795-4.263l-62.567,46.696l-67.964,12.658l10.257,41.657l18.67-5.093z"/>
			<text transform="matrix(1 0 0 1 483.9395 422.4512)"><tspan x="0" y="0" style="fill:#000000;stroke:none;">294</tspan></text>
		</g>
		<g>
			<path d="M369.234,444.26l-10.257-41.657l-13.506,0.921l-23.763,30.55l-32.93,3.059l3.731,10.184l4.079,1.356l1.357,13.58v6.79l-1.357,4.068v2.721l2.712,5.431l-1.355,5.43v2.718l2.713,5.428l4.078,5.433h4.072l6.79,4.069l14.937,13.58l1.358,4.078l1.354,8.147
				l2.717,8.14l4.071,5.438l1.358,4.07l-1.358,4.072l-1.352,14.938l-2.719,8.146l1.359,5.433l2.712,4.075l1.358,2.711l5.431,4.08l5.437,1.354l24.438,8.147l1.359-6.79l5.43-4.071l1.36-8.147l5.428,4.07l14.94-12.22l5.43-6.787l-6.792-8.151l-10.86,8.151
				l-1.357-2.713l4.071-8.148l-1.36-4.077l-8.14-16.291l1.352-8.147l2.717-2.719l6.788,9.508l10.863,16.296l8.148,1.354l5.43-4.072l12.226-14.936l5.43-2.713l1.359-6.789l-12.229-4.078l1.363-5.431l4.076-1.357l10.859,1.357l-56.687-74.681l-18.67,5.093l18.67-5.093
				l-18.67,5.093z"/>
			<text transform="matrix(1 0 0 1 353.2471 495.4355)"><tspan x="0" y="0" style="fill:#000000;stroke:none;">299</tspan></text>
		</g>
		<g>
			<path d="M538.965,75.28l22.402,1.339l33.948,35.988l58.383,59.061l65.181,67.892l10.859,13.581l-12.219,8.147l-31.234,21.727l-23.082,27.156l-16.414,24.228l-70.485,13.114l-86.795-4.263l8.719-7.617l23.764-10.184l10.184-123.905l-40.736-84.863l45.83-22.067
				l1.696-19.333z"/>
			<text transform="matrix(1 0 0 1 601.0547 239.145)"><tspan x="0" y="0" style="fill:#000000;stroke:none;">295</tspan></text>
		</g>
		<g>
			<path d="M113.689,216.51l89.738-5.068l16.94,24.769l36.969,20.246l86.058,114.435l2.062,32.229l-23.418,30.815l-32.895,3.43l-4.462-4.704l1.213-12.234l-2.757-4.046l-6.85-5.354l-12.295-6.652l-6.833-3.994l-8.209-5.337l-4.137-5.39l-1.384-2.696l-0.045-4.079
				l-1.407-4.056l-5.412,1.421l-4.125-4.032l-1.39-2.696l-0.045-4.076l-2.802-8.112l-9.553-3.97l-2.772-5.4l1.304-4.085l-1.397-4.061l1.292-5.444l2.687-2.75l-1.389-2.696l-8.226-6.697l-2.757-4.047l-5.491-5.368l-8.224-6.695l-4.093-1.316l-5.443-1.29l-2.757-4.047
				l-5.498-5.368l-1.43-6.775l-8.316-14.845l-23.298-18.747l-8.164-1.267l-13.778-17.496l-4.207-12.173l-3.005-10.278z"/>
			<text transform="matrix(0.9999 -0.0112 0.0112 0.9999 235.1138 314.6572)"><tspan x="0" y="0" style="fill:#000000;stroke:none;">298</tspan></text>
		</g>
		<g>
			<path d="M174.381,1.938l-20.369,1.36l-9.505-2.712l-4.07,6.79l-21.728,5.43l-13.579,2.712l-13.579,9.507L57.604,35.884l-2.716,1.359l-14.932,4.08l-4.076,10.858l-8.149,4.071L8.722,79.339l-6.79,13.579l-1.359,4.07l14.938,14.937l13.579,5.432l9.507,12.225
				l9.502,5.43l8.149,2.711l14.937,2.719l8.148,6.789l1.359,12.219l9.501,13.579l2.717,8.147l2.711,8.149l18.977,27.077l88.299-4.673l16.291-22.404l-28.172-31.911l8.813-44.063l-19.341-23.828l12.902-21.044l-15.614-21.052l-3.395-45.488z"/>
			<text transform="matrix(1 0 0 1 96.9551 106.7539)"><tspan x="0" y="0" style="fill:#000000;stroke:none;">296</tspan></text>
		</g>
		<g>
			<path d="M174.381,1.938h35.306l17.647,1.36l14.938,1.358l37.042,2.241l-3.434,30.009l25.462,57.707l-23.765,3.395l-18.67,30.551l-16.974,32.25l-10.181,6.79l-12.564,21.727l-28.172-31.911l8.813-44.063l-19.341-23.828l12.902-21.044l-15.614-21.052l-3.395-45.488
				z"/>
			<text transform="matrix(1 0 0 1 227.6455 88.0845)"><tspan x="0" y="0" style="fill:#000000;stroke:none;">293</tspan></text>
		</g>
		<g>
			<path d="M279.315,6.897l-3.434,30.009l25.462,57.707l190.096,22.067l45.83-22.067l1.696-19.333l-14.263-0.012h-62.463h-33.947l-35.298-1.36V53.541L380.77,35.884l-8.141-10.859l-4.079-6.79l-14.937,9.507l-2.712-4.076l4.072-14.938l-44.808-1.353h-6.788
				l-24.063-0.478z"/>
			<text transform="matrix(1 0 0 1 332.8804 69.4131)"><tspan x="0" y="0" style="fill:#000000;stroke:none;">297</tspan></text>
		</g>
	</g>
</svg>
