<?xml version="1.0" encoding="iso-8859-1"?>
<!DOCTYPE svg >

<svg  width="801.043pt" height="456.012pt" viewBox="0 0 801.043 456.012" xml:space="preserve">
	<g id="Layer_x0020_1" style="fill-rule:nonzero;clip-rule:nonzero;fill:#FFFFFF;stroke:#000000;stroke-miterlimit:4; font-family:'Arial'; font-size:10;">
		<g>
			<path d="M196.615,388.8l36.16-192.281l64.267-5.946l48.812-50.183l112.129-0.331l1.283,31.305l4.588,108.488l70.882,107.101l-32.114,0.741h-28.192l-69.549,0.94H296.804h-88.34l-11.849,0.165z"/>
			<text transform="matrix(1 0 0 1 339.2139 289.2515)"><tspan x="0" y="0" style="fill:#000000;stroke:none;">575</tspan></text>
		</g>
		<g>
			<path d="M102.816,2.184L0.5,2.382v7.515v88.339v28.372V180v53.57v5.635v37.591v46.054v3.759v62.025h57.598l52.629-0.94h22.554l63.334,1.105l36.16-192.281l2.007-9.469L99.686,86.02l3.13-83.836z"/>
			<text transform="matrix(1 0 0 1 90.7524 220.1196)"><tspan x="0" y="0" style="fill:#000000;stroke:none;">577</tspan></text>
		</g>
		<g>
			<path d="M707.009,230.083l92.581-1.587v46.423l0.942,47.932l-16.914-0.941l0.939,9.397l6.575,5.641l-4.699,16.915l2.823,3.757l6.576,0.94l3.757,17.855l-8.457,7.521l1.885,11.274l-2.824,4.699l-8.457,26.316l15.038,19.732l1.879,9.398l-16.917-3.76l-2.818-7.517
				l-5.639-1.881l-5.639-11.274l-5.643-0.942l-23.492-10.336l-15.036-5.642l-6.577-0.94l-0.942-5.633l-13.154-1.882l-12.217,3.759h-15.978l-22.554-1.877l-14.331,11.828l25.843-73.624l15.272,5.875l30.542-44.64l-14.096-21.145l12.923-28.194l-1.192-27.45z"/>
			<text transform="matrix(1 0 0 1 733.3345 344.6416)"><tspan x="0" y="0" style="fill:#000000;stroke:none;">570</tspan></text>
		</g>
		<g>
			<path d="M694.75,0.541l2.878,61.986l4.7,8.223l-65.787,7.048l1.176,90.454l14.097-1.173l-2.35,19.972l35.241,15.271l-22.318,28.193l44.622-0.432l92.581-1.587v-44.737v-12.215l-0.937-22.553v-22.558V88.84v-7.518L773.28,66.284l-15.038-19.736v-9.398
				l17.856-13.155l10.336-15.037L785.495,0.5h-69.544l-21.2,0.041z"/>
			<text transform="matrix(1 0 0 1 719.2368 144.937)"><tspan x="0" y="0" style="fill:#000000;stroke:none;">572</tspan></text>
		</g>
		<g>
			<path d="M454.692,1.441h75.183h29.135h77.532l58.209-0.9l2.878,61.986l4.7,8.223l-65.787,7.048l1.176,90.454l-178.451,3.112l-1.283-31.305l-112.129,0.331L454.458,28.458l0.234-27.018z"/>
			<text transform="matrix(1 0 0 1 534.8032 86.2002)"><tspan x="0" y="0" style="fill:#000000;stroke:none;">574</tspan></text>
		</g>
		<g>
			<path d="M459.266,171.364l178.451-3.112l14.097-1.173l-2.35,19.972l35.241,15.271l-22.318,28.193l44.622-0.432l1.192,27.45l-12.923,28.194l14.096,21.145l-30.542,44.64l-15.272-5.875l-25.843,73.624l-16.686-5.255l-18.798-11.273l-20.672-15.979l-46.826,0.199
				l-70.882-107.101l-4.588-108.488z"/>
			<text transform="matrix(1 0 0 1 580.6177 282.3818)"><tspan x="0" y="0" style="fill:#000000;stroke:none;">573</tspan></text>
		</g>
		<g>
			<path d="M102.816,2.184l12.61-0.275l100.56-0.467H373.87h65.784h15.038l-0.234,27.018L345.854,140.39l-48.812,50.183l-64.267,5.946l2.007-9.469L99.686,86.02l3.13-83.836z"/>
			<text transform="matrix(1 0 0 1 251.6914 77.9766)"><tspan x="0" y="0" style="fill:#000000;stroke:none;">576</tspan></text>
		</g>
	</g>
</svg>
