<?xml version="1.0" encoding="iso-8859-1"?>
<!DOCTYPE svg >

<svg  width="595.719pt" height="601.191pt" viewBox="0 0 595.719 601.191" xml:space="preserve">
	<g id="Layer_x0020_1" style="fill-rule:nonzero;clip-rule:nonzero;stroke:#000000;stroke-miterlimit:4; font-family:'Arial'; font-size:10;">
		<g>
			<path style="fill:#FFFFFF;stroke-linecap:round;stroke-linejoin:round;" d="M528.932,391.971l14.64-7.298l6.349,6.433l-10.67,9.688l0.135,2.541l0.576,7.632l-6.205,6.203l-6.611-1.424l-7.629,7.834l0.135,5.632l-11.029,4.029l1.903-7.947l-6.572-4.816
				l-3.132-20.64l10.73-11.615l17.381,3.749z"/>
			<text transform="matrix(1 0 0 1 512.167 409.1641)"><tspan x="0" y="0" style="stroke:none;">775</tspan></text>
		</g>
		<g>
			<path style="fill:#FFFFFF;" d="M162.615,118.861V100.6V89.204V75.778V51.364v-6.918V26.543l0.045-24.822h2.036l38.248-0.813l6.512-0.408l17.902,0.408h24.821h6.104L276.187,0.5l24.412,0.408v25.225v9.361l0.409,15.054V62.35V75.37v8.547v15.868h-23.906
				l1.527-10.681l-40.69-2.543l-11.19,44.251l-11.698,14.75l-8.959-3.917l-3.839-3.562l-39.636-19.223z"/>
			<text transform="matrix(1 0 0 1 229.5957 49.939)"><tspan x="0" y="0" style="stroke:none;">790</tspan></text>
		</g>
		<g>
			<path style="fill:#FFFFFF;" d="M467.102,203.077l9.385-1.059l23.604,5.933l-0.208,2.97l-15.515,22.889l-0.509,11.95l2.289,2.801l0.17,9.339l-14.409,0.322l-23.397,2.29l-5.088-11.19l-9.833-3.813l6.154-10.111l5.111,3.269l18.579-4.292l-3.608-8.068l9.638-14.71
				l-2.362-8.521z"/>
			<text transform="matrix(1 0 0 1 465.0928 237.4482)"><tspan x="0" y="0" style="stroke:none;">751</tspan></text>
		</g>
		<g>
			<path style="fill:#FFFFFF;" d="M325.675,184.472l-0.251,19.839l1.883,4.567l9.813-0.497l10.427,14.24h43.491l4.828,6.105l-1.27,0.505l2.035,3.816l-2.799,1.781l8.646,18.564l12.465-2.795l11.216,2.046l7.431-7.134l6.154-10.111l-4.14-3.047l1.207-6.935
				l7.12-13.477l1.49-7.039l1.054-7.46l-11.189-4.068l-23.904-8.138l-1.525-5.596l-10.686-3.05l-19.675-4.818l-0.67,1.257l-6.103,4.579l-6.102,5.085l-9.155,1.018l-6.611,9.664l-7.631-9.664l-17.55,0.776v-0.013z"/>
			<text transform="matrix(1 0 0 1 384.7295 205.9136)"><tspan x="0" y="0" style="stroke:none;">760</tspan></text>
		</g>
		<g>
			<path style="fill:#FFFFFF;" d="M268.622,163.95l-22.038,35.019l-5.672,4.169l-7.553,23.295l3.813,3.053l2.293,22.128l5.084,9.404l-0.002,0.254l15.514-13.219l30.772,10.169l9.158,3.053l13.985,1.271l8.137-10.681l3.311-3.304l5.848-5.853l8.393-2.542
				l-12.357-31.289l-1.883-4.567l0.251-19.839v0.013l-17.038,0.75l0.509-8.137l5.085-0.509l0.362-21.57l-19.689,9.363l-26.281-0.432z"/>
			<text transform="matrix(1 0 0 1 273.8472 216.0859)"><tspan x="0" y="0" style="stroke:none;">795</tspan></text>
		</g>
		<g>
			<path style="fill:#FFFFFF;" d="M162.615,118.861l39.636,19.223l3.839,3.562l8.959,3.917l13.734,8.139l13.223-1.527l18.82,11.699l7.795,0.078l-22.038,35.019l-5.672,4.169l-32.474,23.804l-45.823,0.202v-24.413v-24.821v-9.766v-15.462v-27.669v-6.152z"/>
			<text transform="matrix(1 0 0 1 197.5522 183.5337)"><tspan x="0" y="0" style="stroke:none;">793</tspan></text>
		</g>
		<g>
			<path style="fill:#FFFFFF;" d="M215.05,145.562l11.698-14.75l11.19-44.251l40.69,2.543l-1.527,10.681h23.906l0.813,10.579h3.259l4.473,3.255l5.696,7.326h4.477l1.629-2.034h4.07l2.848,2.034l0.813-3.664l2.848-0.405l4.199,4.71l-11.217,15.837l-0.509,17.293
				l-9.813,0.303l-19.689,9.363l-34.076-0.509l-18.82-11.699l-13.223,1.527l-13.734-8.139z"/>
			<text transform="matrix(1 0 0 1 271.812 134.7046)"><tspan x="0" y="0" style="stroke:none;">792</tspan></text>
		</g>
		<g>
			<path style="fill:#FFFFFF;" d="M535.463,154.937l4.398,1.407l7.731,3.257l1.219,1.626l2.444-0.408l0.403,0.408l0.407,2.036l0.815,0.406l0.406,0.813l1.219,0.814l0.816,0.408l0.402,0.812l1.632-0.406l2.438,0.406l0.41-0.812l1.219-0.408l0.406,0.408h0.813
				l0.818-0.814v-0.815l1.217-0.405l0.409,0.405l1.625,1.222h0.41h1.217l1.632-0.407l0.402,0.407l0.816,0.813l0.409,15.463V191.8l-10.682-1.479l-8.14-9.664l-17.802,3.053l1.018-15.26l-0.532-13.512z"/>
			<text transform="matrix(1 0 0 1 546.4717 176.4136)"><tspan x="0" y="0" style="stroke:none;">755</tspan></text>
		</g>
		<g>
			<path style="fill:#FFFFFF;" d="M444.531,150.834l2.149-0.595l2.848,2.037l3.251-5.29l3.258,1.219l0.408,1.627l-1.631,2.443l7.734,2.848l2.848,2.848l-4.173,5.9l-0.506,9.664l10.173,11.699l5.596,16.784l-9.385,1.059l-21.68,1.824l1.054-7.46l-11.189-4.068
				l3.562-6.103l4.066-9.158l1.018-7.627l-2.544-14.243l3.144-5.408z"/>
			<text transform="matrix(1 0 0 1 447.7998 192.6899)"><tspan x="0" y="0" style="stroke:none;">750</tspan></text>
		</g>
		<g>
			<path style="fill:#FFFFFF;" d="M387.271,137.627l2.849,4.882l2.034-0.814l2.442,1.629l-1.222,4.068l5.289,4.07l7.327-8.546l3.252,0.813l3.666,3.257l1.217,0.406l1.222-0.406l1.629,4.88l2.849,1.63l2.44-3.664l2.441,0.407l2.036-3.253l2.44,2.441l-0.409,2.848
				l0.813,6.103l2.851-0.813v-6.917l3.255,1.219l2.847-3.252l1.223-4.069l1.626-0.41l3.144,6.699l-3.144,5.408l2.544,14.243l-1.018,7.627l-4.066,9.158l-3.562,6.103l-23.904-8.138l-1.525-5.596l-10.686-3.05l-19.675-4.818l6.962-14.51l-4.579-4.578l5.392-15.055z"/>
			<text transform="matrix(1 0 0 1 406.0928 168.2749)"><tspan x="0" y="0" style="stroke:none;">762</tspan></text>
		</g>
		<g>
			<path style="fill:#FFFFFF;" d="M465.396,157.972l2.034,1.222l1.22-2.443l6.105-1.219l1.219-3.256l13.021-3.256l2.034,0.408l1.627-2.441l10.175-2.441l1.626,2.848l5.695,1.221l3.257-1.627l4.071-4.07l3.66,0.408l11.802,10.577l2.52,1.035l0.532,13.512
				l-1.018,15.26l-12.465,12.208l-0.19,2.205l-21.678,0.338l-0.555,9.493l-23.604-5.933l-5.596-16.784l-10.173-11.699l0.506-9.664l4.173-5.9z"/>
			<text transform="matrix(1 0 0 1 494.5928 175.396)"><tspan x="0" y="0" style="stroke:none;">754</tspan></text>
		</g>
		<g>
			<path style="fill:#FFFFFF;" d="M534.978,183.709l17.802-3.053l8.14,9.664l10.682,1.427v0.099v4.781v8.141v10.169v17.906l-0.088,10.784L548.2,255.428l-7.553,6.178l-15.842-7.959l0.251-42.725l-3.81-4.576l1.075-8.225l0.19-2.205l12.465-12.208z"/>
			<text transform="matrix(1 0 0 1 541.3838 222.1914)"><tspan x="0" y="0" style="stroke:none;">758</tspan></text>
		</g>
		<g>
			<path style="fill:#FFFFFF;" d="M336.131,121.586l1.903,0.986v6.915l10.986,0.816l2.851,2.848h3.663l2.845,1.628l2.442-1.222l3.663-1.219l2.442,1.626l2.031,4.07l4.07-0.813l2.035-4.07l2.441,0.406l2.035,1.63l2.849,0.403l3.663-2.034l2.442,2.034l-1.224,2.037
				l-5.392,15.055l4.579,4.578l-6.962,14.51l-0.67,1.257l-6.103,4.579l-6.102,5.085l-9.155,1.018l-6.611,9.664l-7.631-9.664l-17.55,0.776l-17.038,0.75l0.509-8.137l5.085-0.509l0.362-21.57l9.813-0.303l0.509-17.293l11.217-15.837z"/>
			<text transform="matrix(1 0 0 1 340.9854 160.1377)"><tspan x="0" y="0" style="stroke:none;">763</tspan></text>
		</g>
		<g>
			<path style="fill:#FFFFFF;" d="M470.382,296.881l12.458,4.576l1.112,4.906l6.886,4.176l4.719,12.026l-4.578,20.854l-6.611,3.815l-0.761,15.006l-15.26,2.035l-7.886,1.523l-21.871-20.091l3.219-10.673l5.428-4.076l-0.831-13.063l23.977-21.015z"/>
			<text transform="matrix(1 0 0 1 461.0225 333.0703)"><tspan x="0" y="0" style="stroke:none;">778</tspan></text>
		</g>
		<g>
			<path style="fill:#FFFFFF;" d="M370.376,272.086l4.384,0.38l14.494-9.918l6.355,4.577l22.126,28.739l8.646-0.764l6.104,10.171l9.919,1.274l3.562,7.883l0.438,3.468l0.831,13.063l-5.516,4.083l-13.046,9.651h-13.731l-9.157-12.207l5.088-6.363l-18.568-6.861
				l0.767-8.647l-25.181-4.579l8.903-14.497l-1.781-3.561l0.764-6.611l-3.816-1.781l-1.585-7.499z"/>
			<text transform="matrix(1 0 0 1 408.6338 317.3047)"><tspan x="0" y="0" style="stroke:none;">765</tspan></text>
		</g>
		<g>
			<path style="fill:#FFFFFF;" d="M213.56,353.319l8.61,2.307l35.35,7.886l12.463-8.137l47.043-0.369l6.105,22.24l6.105-0.509l-0.255,2.541l-3.05,2.544l16.526,22.38l-0.252,10.172l-8.903,1.27l-28.385,73.14l-7.167-12.204l-5.287-4.07l-4.882-7.731l-2.848-10.175
				l-3.667-5.287l-0.403-2.035l-1.629-0.813l-4.477-11.395l0.407-1.628h-1.22l-3.256-11.393l-5.291-9.359l-9.766-6.512l-1.219-4.474l-13.835-10.988l-1.627-6.103l-7.325-2.441l-2.848,2.035l-6.511-0.813l-13.427-0.41l-7.094-2.895l12.013-26.774z"/>
			<text transform="matrix(1 0 0 1 284.02 395.123)"><tspan x="0" y="0" style="stroke:none;">788</tspan></text>
		</g>
		<g>
			<path style="fill:#FFFFFF;stroke-linecap:round;stroke-linejoin:round;" d="M555.065,319.512l3.239-2.599l11.512,7.687l22.532-1.017l-2.44,4.477l-0.813,2.035l-1.22,2.032l-0.406,1.219v1.222l-0.409,0.406l-1.219,1.629v1.626l0.406,2.444l0.406,2.439
				l-0.813,1.631l0.406,0.813l-1.223,0.406v4.88l3.663,4.477l-1.219,10.173l-4.477,6.104l-5.699,7.73l3.664,4.884l-23.195,8.138l-0.813,0.815l-17.564,10.17l-0.135-2.541l10.67-9.688l5.827-49.722l-9.327-14.751l8.646-7.121z"/>
			<text transform="matrix(1 0 0 1 561.2197 344.2607)"><tspan x="0" y="0" style="stroke:none;">776</tspan></text>
		</g>
		<g>
			<path style="fill:#FFFFFF;" d="M471.908,258.223l14.409-0.322l6.188-0.184l21.87,24.666l18.568,14.75l-3.054,3.558l2.796,3.818l-2.034,3.562l-35.095,14.495l-4.719-12.026l-6.886-4.176l-1.112-4.906l-12.458-4.576l0.761-16.532l0.766-22.125z"/>
			<text transform="matrix(1 0 0 1 487.4717 292.3809)"><tspan x="0" y="0" style="stroke:none;">758</tspan></text>
		</g>
		<g>
			<path style="fill:#FFFFFF;" d="M522.322,198.121l-1.075,8.225l3.81,4.576l-0.251,42.725l15.842,7.959l-26.272,20.777l-21.87-24.666l-6.188,0.184l-0.17-9.339l-2.289-2.801l0.509-11.95l15.515-22.889l0.208-2.97l0.555-9.493l21.678-0.338z"/>
			<text transform="matrix(1 0 0 1 499.6768 240.501)"><tspan x="0" y="0" style="stroke:none;">757</tspan></text>
		</g>
		<g>
			<path style="fill:#FFFFFF;" d="M389.254,262.547l6.355,4.577l22.126,28.739l8.646-0.764l6.104,10.171l9.919,1.274l3.562,7.883l0.438,3.468l23.977-21.015l0.761-16.532l0.766-22.125l-23.397,2.29l-5.088-11.19l-9.833-3.813l-7.431,7.134l-11.216-2.046
				l-12.465,2.795l-6.356,2.798l-6.868,6.356z"/>
			<text transform="matrix(1 0 0 1 430.5049 281.1904)"><tspan x="0" y="0" style="stroke:none;">766</tspan></text>
		</g>
		<g>
			<path style="fill:#FFFFFF;" d="M290.833,258.223l9.158,3.053l13.985,1.271l8.137-10.681h25.181l15.51,21.111l7.572-0.892l1.585,7.499l3.816,1.781l-0.764,6.611l1.781,3.561l-8.903,14.497l-43.486,49.083l-7.38-0.112l-47.043,0.369l18.052-24.673l0.509-22.632
				h11.699l0.258-11.189l-5.346-0.255l-4.067,2.29l-0.254-40.693z"/>
			<text transform="matrix(1 0 0 1 325.7236 298.4863)"><tspan x="0" y="0" style="stroke:none;">768</tspan></text>
		</g>
		<g>
			<path style="fill:#FFFFFF;" d="M244.547,261.273l15.514-13.219l30.772,10.169l0.254,40.693l4.067-2.29l5.346,0.255l-0.258,11.189h-11.699l-0.509,22.632l-18.052,24.673l-12.463,8.137l-35.35-7.886l-8.61-2.307l9.119-19.056l7.63-18.564l-8.646-6.359
				l-0.509-35.604l9.664-0.758l13.729-11.705z"/>
			<text transform="matrix(1 0 0 1 252.4849 303.5703)"><tspan x="0" y="0" style="stroke:none;">769</tspan></text>
		</g>
		<g style="stroke:none;">
			<path style="fill:#FFFFFF;stroke:#000000;" d="M112.816,256.849H81.28h-2.849H29.197L11.7,257.662l-10.988-0.813l4.07,12.209l14.649,18.311l6.103,4.067l5.289-0.815l7.325,12.207l2.035,2.038l3.254,1.626l4.07,3.66l9.36,11.802l18.31,11.392l0.813,2.035
				l3.664,3.664l2.032,10.172l6.512,8.951l1.625,17.496l5.701,14.242l17.902,15.871l16.278,6.103v2.849l13.427,5.695l1.221,3.255l8.139,4.883h7.323l2.441-6.915l2.847-3.664l6.105-3.254l-0.813-2.849l0.813-4.476l2.034-0.813l7.326-21.567l13.021-2.035l2.44-5.289
				l5.522,2.395l12.013-26.774l-43.016-11.936l-60.272,2.035l2.287-86.468l0.257-0.102z"/>
			<text transform="matrix(1 0 0 1 68.3604 293.3984)"><tspan x="0" y="0">798</tspan><tspan x="0" y="12">885</tspan></text>
		</g>
		<g>
			<path style="fill:#FFFFFF;" d="M112.559,256.951l-2.287,86.468l60.272-2.035l43.016,11.936l9.119-19.056l7.63-18.564l-8.646-6.359l-0.509-35.604l9.664-0.758l13.729-11.705l0.002-0.254l-5.084-9.404l-2.293-22.128l-3.813-3.053l7.553-23.295l-32.474,23.804
				l-45.823,0.202v25.231v4.067l-13.384,0.407h-16.275h-10.985h-2.443h-6.712l-0.257,0.102z"/>
			<text transform="matrix(1 0 0 1 163.9824 297.4688)"><tspan x="0" y="0" style="stroke:none;">797</tspan></text>
		</g>
		<g>
			<path style="fill:#FFFFFF;" d="M327.307,208.878l9.813-0.497l10.427,14.24h43.491l4.828,6.105l-1.27,0.505l2.035,3.816l-2.799,1.781l8.646,18.564l-6.356,2.798l-6.868,6.356l-14.494,9.918l-4.057-0.389l-1.286-0.117l-6.613,1.018l-15.51-21.111h-25.181
				l3.311-3.304l5.848-5.853l8.393-2.542l-12.357-31.289z"/>
			<text transform="matrix(1 0 0 1 361.3311 246.603)"><tspan x="0" y="0" style="stroke:none;">764</tspan></text>
		</g>
		<g>
			<path style="fill:#FFFFFF;" d="M317.025,355.006l7.38,0.112l66.883,24.414l8.903,12.205l15.004,5.088l12.97,11.698l0.252,50.61l-59,23.142l-30.263,38.146l-3.053,21.363l10.936,8.14l-9.155,8.135l0.045,0.078l-3.146-8.723l-4.883-4.479l-3.661-7.729l0.813-2.038
				v-8.544l-4.07-3.661v-11.392v-4.477l-8.134-4.067l-4.886-5.695l-5.041-8.55l28.385-73.14l8.903-1.27l0.252-10.172l-16.526-22.38l3.05-2.544l0.255-2.541l-6.105,0.509l-6.105-22.24z"/>
			<text transform="matrix(1 0 0 1 360.2227 436.0674)"><tspan x="0" y="0" style="stroke:none;">780-781</tspan></text>
		</g>
		<g>
			<path style="fill:#FFFFFF;" d="M428.417,459.134l18.67,6.457l-0.815,5.292l-4.199,2.164l-1.771-2.018l-1.762-0.685l0.816,3.386l-2.851,0.813l-2.035-2.444l-8.134,7.327l5.286,10.169l-4.88,2.852h-6.512l-0.816,4.476l2.038,2.849l-1.222,2.849l1.222,0.408
				l2.439-3.257l0.814,2.849l-2.035,5.695l-1.625,5.292l-1.222,1.626l-1.22,3.661l-4.07,4.886l-2.035-1.225l2.035-1.626l0.409-4.478h-1.632l-1.219,4.478h-2.444l0.409,2.034h-0.409h-1.219l-5.697-8.952l-1.222,0.409l4.883,8.543l-2.438,1.223l3.252,2.438
				l5.701,0.409l4.474-1.222l0.404,5.695l-2.843,3.259l0.811,2.847l-2.846,2.849l-0.409,8.14l2.848,2.439l0.351,1.681H358.99l-2.798,3.05l-18.311,2.287l9.155-8.135l-10.936-8.14l3.053-21.363l30.263-38.146l59-23.142z"/>
			<text transform="matrix(1 0 0 1 377.3506 508.292)"><tspan x="0" y="0" style="stroke:none;">783</tspan></text>
		</g>
		<g>
			<path style="fill:#FFFFFF;" d="M428.165,408.523l16.141-6.64l5.731-2.515l17.801,13.988l-0.763,10.933l4.976,5.072l-1.584,14.217l-1.816,1.261l-2.163-2.168l-1.091,5.015l-2.57,0.945l-0.277-0.945l-0.407-2.44l-8.953-3.661l1.22,5.695l-0.81,2.849l3.661-0.813
				l2.44,2.849l-2.851,2.034l1.223,1.223l4.069-1.223l1.22,2.849l-10.985,6.918l-1.629-1.223l-0.406-3.257l-3.254-4.064v2.845v7.325l-18.67-6.457l-0.252-50.61z"/>
			<text transform="matrix(1 0 0 1 440.4209 429.9648)"><tspan x="0" y="0" style="stroke:none;">779</tspan></text>
		</g>
		<g>
			<path style="fill:#FFFFFF;" d="M441.809,335.035l-3.219,10.673l21.871,20.091l7.886-1.523l2.386,16.094l-7.979,14.93l-12.716,4.07l-5.731,2.515l-2.409-12.183l-7.374,3.82l-6.866-11.699l8.392-22.126l-7.373-15.003l13.134-9.658z"/>
			<text transform="matrix(1 0 0 1 443.4717 380.1172)"><tspan x="0" y="0" style="stroke:none;">789</tspan></text>
		</g>
		<g>
			<path style="fill:#FFFFFF;stroke-linecap:round;stroke-linejoin:round;" d="M532.177,369.556l-30.769,0.819l-5.852-7.12l-11.95-1.015l-15.26,2.035l2.386,16.094l-7.979,14.93l-12.716,4.07l17.801,13.988l-0.763,10.933l4.976,5.072l-1.584,14.217l3.477-2.404
				l-2.445,7.328l1.224,1.22l17.625-12.892l2.444,1.222l-22.497,18.035l2.72,2.31l27.815-21.023l7.792-4.134l1.903-7.947l-6.572-4.816l-3.132-20.64l10.73-11.615l17.661,3.434l14.359-6.982l6.349,6.433l5.827-49.722l-16.192,1.78l-9.155,23.397l1.777,2.994z"/>
			<text transform="matrix(1 0 0 1 479.0771 399.4443)"><tspan x="0" y="0" style="stroke:none;">774</tspan></text>
		</g>
		<g>
			<path style="fill:#FFFFFF;" d="M495.557,322.565l35.095-14.495l17.295,9.407l7.119,2.034l-8.646,7.121l9.327,14.751l-16.192,1.78l-9.155,23.397l1.777,2.994l-30.769,0.819l-5.852-7.12l-11.95-1.015l0.761-15.006l6.611-3.815l4.578-20.854z"/>
			<text transform="matrix(1 0 0 1 511.6299 340.4453)"><tspan x="0" y="0" style="stroke:none;">773</tspan></text>
		</g>
		<g>
			<path style="fill:#FFFFFF;" d="M514.375,282.383l26.272-20.777l7.553-6.178l23.313-11.802l-0.321,11.187l2.441,1.222l2.035,3.258l2.441,2.845l1.629,1.629v1.628l1.219,1.219l0.406,0.816v2.032l0.813,1.223l0.816,1.219v1.222l-1.219,0.406l-0.41,0.814v1.222
				l0.813,0.813v0.406l-0.813,0.816l-0.406,0.813l1.219,1.222l0.816,2.036l1.22,0.402l1.223,0.407l0.813,0.406l-0.813,0.818l-0.41,2.033l1.629,0.406l0.815,2.44l2.032,2.033l-0.406,0.815l-0.813,1.629l-0.813,1.219l0.406,0.407l0.813,0.408l0.813,0.813l1.629,1.22
				l0.406,1.628l0.406,1.223l1.223,1.22l2.034,8.546l-0.408,1.217l-0.813,0.409l-0.813,1.626l0.406,0.815l0.813,0.406v0.813v0.813l-0.407,1.223l-0.813,1.222l0.813,1.219l-0.813,1.629v0.813l-0.816,1.629l-22.532,1.017l-11.512-7.687l-3.239,2.599l-7.119-2.034
				l-17.295-9.407l2.034-3.562l-2.796-3.818l3.054-3.558l-18.568-14.75z"/>
			<text transform="matrix(1 0 0 1 552.5771 293.3984)"><tspan x="0" y="0" style="stroke:none;">759</tspan></text>
		</g>
		<g>
			<path style="fill:#FFFFFF;" d="M337.927,558.137l2.144,5.927l2.851,10.579l15.864,4.067l3.664,4.887l3.255-0.816l16.685,10.173l6.918,1.625l9.356-1.625l3.663,2.034h6.512l1.22,3.661l4.477,2.035l16.275-1.223l0.813-5.286l-0.403-1.222l-1.224,3.254l-1.222-1.22
				l-1.625,2.439l-0.406-4.474l2.031-1.632l-1.219-0.811l-2.038,0.811l-1.217-6.104l-2.035-0.809l-2.034-9.363l-2.444-12.204l-2.089-10.12H358.99l-2.798,3.05l-18.311,2.287l0.045,0.078z"/>
			<text transform="matrix(1 0 0 1 380.9111 576.959)"><tspan x="0" y="0" style="stroke:none;">785</tspan></text>
		</g>
		<g>
			<path style="fill:#FFFFFF;" d="M367.892,306.035l-43.486,49.083l66.883,24.414l8.903,12.205l15.004,5.088l12.97,11.698l16.141-6.64l-2.409-12.183l-7.374,3.82l-6.866-11.699l8.392-22.126l-7.373-15.003h-13.731l-9.157-12.207l5.088-6.363l-18.568-6.861
				l0.767-8.647l-25.181-4.579z"/>
			<text transform="matrix(1 0 0 1 377.8936 352.1992)"><tspan x="0" y="0" style="stroke:none;">786</tspan></text>
		</g>
		<g>
			<path style="fill:#FFFFFF;" d="M445.422,204.901l21.68-1.824l2.362,8.521l-9.638,14.71l3.608,8.068l-18.579,4.292l-5.111-3.269l-4.14-3.047l1.207-6.935l7.12-13.477l1.49-7.039z"/>
			<text transform="matrix(1 0 0 1 443.1221 223.1299)"><tspan x="0" y="0" style="stroke:none;">753</tspan></text>
		</g>
	</g>
</svg>
