<?xml version="1.0" encoding="iso-8859-1"?>
<!DOCTYPE svg >

<svg  width="407.264pt" height="600.575pt" viewBox="0 0 407.264 600.575" xml:space="preserve">
	<g id="Layer_x0020_1" style="fill-rule:nonzero;clip-rule:nonzero;fill:#FFFFFF;stroke:#000000;stroke-miterlimit:4; font-family:'Arial'; font-size:10;">
		<g>
			<path d="M187.42,64.895l27.991,13.996l-11.663,23.327l23.328,10.506l-9.332,22.149l43.145,17.502l-15.153,31.484l-2.332,15.171l-10.506,11.661l-10.49,27.994h-38.497l-22.149,34.988l-7.562-8.957l-4.099-5.04l-25.659,3.49l-8.175,3.507l-3.492-19.835
				l-8.174-29.148l18.663-45.494l6.997,2.332v-26.816l4.666-12.838l-8.153-8.154l40.812-60.649l16.325,4.664l3.51-5.839z"/>
			<text transform="matrix(1 0 0 1 174.1265 186.6313)"><tspan x="0" y="0" style="fill:#000000;stroke:none;">056</tspan></text>
		</g>
		<g>
			<path d="M191.147,2.944l136.23-2.433l13.993,0.473l10.765,34.763l7.461,50.141l-6.56,57.16l8.157,1.157v6.997l-11.667,4.667l5.842,6.996l-18.662,14.925l-24.266,1.869l-14.923,18.663l-51.782-14.461l15.153-31.484l-43.145-17.502l9.332-22.149l-23.328-10.506
				l11.663-23.327L187.42,64.895l-6.997-4.664l10.486-11.664l0.237-45.623z"/>
			<text transform="matrix(1 0 0 1 275.8726 95.5732)"><tspan x="0" y="0" style="fill:#000000;stroke:none;">058</tspan></text>
		</g>
		<g>
			<path d="M191.147,2.944l-0.237,45.623l-10.486,11.664l6.997,4.664l-3.51,5.839l-16.325-4.664l-40.812,60.649l8.153,8.154l-4.666,12.838v26.816l-6.997-2.332l-18.663,45.494l8.174,29.148L0.81,250.574l26.122-54.122l-1.863-54.117l-7.466-20.529l1.87-61.576
				l-5.604-11.199l9.332-27.992L19.472,4.247l33.584-3.735l132.496,1.868l5.595,0.565z"/>
			<text transform="matrix(1 0 0 1 67.9331 134.2407)"><tspan x="0" y="0" style="fill:#000000;stroke:none;">054</tspan></text>
		</g>
		<g>
			<path d="M10.923,296.771L0.81,250.574l111.965-3.735l3.492,19.835l8.175-3.507l25.659-3.49l4.099,5.04l-9.941,19.444l20.992,20.993l10.504,24.505l19.82,8.151l-12.818,15.173l3.486,11.664l-16.324,30.324l-29.152-8.176l-3.507,13.996l13.996,1.176l-1.154,31.482
				l-9.896,2.561l-4.102,5.611l-8.176-1.176l-1.153,8.175l-12.84,1.155l-73.004-4.2l0.932-60.649l-16.793-18.659L10.14,379.335l-3.735-22.398l11.197-26.123l-3.735-16.794l-2.945-17.248z"/>
			<text transform="matrix(1 0 0 1 84.5972 359.1592)"><tspan x="0" y="0" style="fill:#000000;stroke:none;">057</tspan></text>
		</g>
		<g>
			<path d="M245.736,183.86l-2.332,15.171l-10.506,11.661l-10.49,27.994h-38.497l-22.149,34.988l-7.562-8.957l-9.941,19.444l20.992,20.993l10.504,24.505l19.82,8.151l-12.818,15.173l3.486,11.664l-16.324,30.324l-29.152-8.176l-3.507,13.996l13.996,1.176
				l-1.154,31.482l26.813,3.507l12.839,10.486l25.267-6.103l9.721-58.28l7.465-11.189l26.123-46.654l33.586-76.508l1.87-26.123l3.733-24.265l-51.782-14.461z"/>
			<text transform="matrix(1 0 0 1 213.5581 335.1816)"><tspan x="0" y="0" style="fill:#000000;stroke:none;">050</tspan></text>
		</g>
		<g>
			<path d="M341.371,0.984l64.38-0.473l-7.466,5.603l3.736,27.992l-20.53,37.323l14.926,37.323l-9.329,27.991l-31.719,26.123l-5.842-6.996l11.667-4.667v-6.997l-8.157-1.157l6.56-57.16l-7.461-50.141L341.371,0.984z"/>
			<text transform="matrix(1 0 0 1 367.0952 116.4229)"><tspan x="0" y="0" style="fill:#000000;stroke:none;">059</tspan></text>
		</g>
		<g>
			<path d="M40.93,445.576l73.004,4.2l1.173,33.833l-0.018-0.183l-5.821,0.183l-3.489,8.155l-9.328,73.486l-17.506,15.153l1.174,19.671H36.266v-58.398l4.664-96.101z"/>
			<text transform="matrix(1 0 0 1 60.769 536.9551)"><tspan x="0" y="0" style="fill:#000000;stroke:none;">052</tspan></text>
		</g>
		<g>
			<path d="M113.934,449.776l1.173,33.833l-0.018-0.183l29.169-0.993l22.168,10.507l-1.176,11.664l-15.149,10.488l55.509,0.088l7.933-22.016l-3.735-24.264l2.505-16.809l2.708-10.752l-25.267,6.103l-12.839-10.486l-26.813-3.507l-9.896,2.561l-4.102,5.611
				l-8.176-1.176l-1.153,8.175l-12.84,1.155z"/>
			<text transform="matrix(1 0 0 1 170.5757 486.4561)"><tspan x="0" y="0" style="fill:#000000;stroke:none;">051</tspan></text>
		</g>
		<g>
			<path d="M115.089,483.427l-5.821,0.183l-3.489,8.155l-9.328,73.486l-17.506,15.153l1.174,19.671h8.392h22.398h95.172l-16.803-37.868l16.413-47.079l-55.59-0.035l15.149-10.488l1.176-11.664l-22.168-10.507l-29.169,0.993z"/>
			<text transform="matrix(1 0 0 1 141.2476 568.0986)"><tspan x="0" y="0" style="fill:#000000;stroke:none;">053</tspan></text>
		</g>
	</g>
</svg>
