<?xml version="1.0" encoding="iso-8859-1"?>
<!DOCTYPE svg PUBLIC "-//W3C//DTD SVG 20000303 Stylable//EN"   "http://www.w3.org/TR/2000/03/WD-SVG-20000303/DTD/svg-20000303-stylable.dtd">
<!-- Generator: Adobe Illustrator 9.0, SVG Export Plug-In  -->
<svg  width="5864.161pt" height="6583.237pt" viewBox="0 0 5864.161 6583.237" xml:space="preserve">
	<g id="Zip_x0020_Code_x0020_Boundaries_x0020_G" style="fill-rule:nonzero;clip-rule:nonzero;fill:#FFFFFF;stroke:#000000;stroke-width:0.25;stroke-miterlimit:4; font-family:'ArialMT'; font-size:72;">
		<g>
			<path style="stroke-miterlimit:1;" d="M3046.799,2997.518l1.134-18.097l-12.586-10.204l-9.469-29.73l-31.916-31.225l-40.195-1.295l-10.148,15.308l-15.138-9.797l-9.636,1.292l-5.048-8.572l7.427-3.943l0.51-7.69l29.312-26.259l-0.964-11.294l-6.747-4.626
				l7.315-7.822l-1.646-5.443l6.067-4.219l-11.681-3.129l1.986-16.805l7.482-7.62l-6.064-10.137l-15.023-8.095l-15.082-0.612l-0.056-9.729l-25.172-13.808l-7.711-15.105l9.864-37.345l-5.329-7.213l1.588-6.94l-6.688-4.764l-12.984-21.36l-19.444-6.396l-9.524-9.727
				l-15.308-0.407l-3.741-5.988l-5.613,13.948l-12.132-0.955l-1.474-4.421l4.025-4.696l-8.73-4.421l1.869-7.688l-10.772-2.654l-7.538-18.437l-2.666,15.105l-22.846-4.219l-0.059-7.553l-16.781-2.244l-5.159-18.167l-7.257,1.837l-19.444-11.631l4.365-5.511
				l0.34-14.833l11.452-4.283l-9.92-11.499l4.816-6.463l-21.656-17.145l5.045-4.896l-1.529-18.234l3.401-4.286l-7.538-6.258l-26.93-19.796l3.627-9.322l-2.777-20.613l-6.352-5.716l-22.96,0.205l-29.253,10.884l-7.482,9.457l-12.756,3.401l-26.76,17.824
				l-76.649-52.588l-19.104-15.035l-10.717,5.783v-42.791v-131.165l-0.68-30.343l6.407-24.422l18.935-20.001l-13.207-8.979l-18.428,7.957l-13.89-15.577l0.853-6.328l-7.939-13.195l-7.881-1.157l-9.521-11.771l0.961-10.477l-7.538-14.423l10.318-9.387l-2.44-12.653
				l5.613-7.348l-8.9-10.682l-15.135-1.292l-13.099-21.976l3.401-5.713l8.845-5.581l-4.761-11.496l-4.479-0.067l1.418-10.816l-14.004,0.407l-4.761-5.646l-12.87-8.027l11.112-19.526l-7.485-8.64l2.95-15.647l-7.09-18.847l-6.234-0.202l-6.577-12.451l-11.508-3.671
				l6.123-6.735l1.928-11.227l-22.45-15.92l-16.216,0.407l-0.905-2.584l-4.025-6.396l1.529-7.617l-8.332,4.014l0.621-4.222l-5.271-2.379l0.056-25.714l37.816-3.812l5.61-4.014l-4.195-4.898l2.836-1.497l-4.251-4.081l-17.408,0.952l-6.234-6.056l2.268-7.21
				l29.877-1.77l0.624-0.545l7.597-7.14l35.036-12.044l-11.394-1.362l-1.248-9.252l-4.424-3.264l-3.627,3.943l-6.293-6.87l-5.669,5.104l-0.056-18.981l22.96,3.129l11.733-9.319l-162.369-0.34l-2.493-5.918l-14.004-6.533l-4.649-18.097l-8.218-3.469l1.983-8.912
				l29.367,4.017l15.135-5.786l20.525,7.418l-5.953-4.289l7.541-2.517l-4.705-2.991l6.858-4.219l-30.557-14.285l4.421-3.132l-7.201-2.924l3.006-3.469l-4.934-4.629l1.078-5.101l-4.251-2.244l-9.809,7.21l-2.607-10.954l-15.932-0.68l-8.276-12.313l-17.121,4.421
				l5.045-5.235l-0.454-11.637l-12.697,7.143l0.51,18.847l-4.764,6.668l-20.183,4.286l-7.711-2.859l1.532-7.415l-11.622-2.312l7.313-9.524l-2.947-4.148l5.443-8.71l-14.572-3.812l-5.045-9.592l6.407-8.165l-2.777-3.129l10.26-4.761l3.911-9.047l13.04-1.43
				l2.496-9.727l-7.146-4.629l-14.684,11.634l-19.954-19.863l-19.274-9.255l-11.511,1.157l-9.75,17.959l-19.787-8.771l-12.812,7.617l1.418-3.199l-10.377-9.999l-16.327-1.359l-6.293-4.901l-5.159,5.443l0.794,7.893l-17.347,6.258l2.607-31.157l27.838-23.877
				l-2.895-11.774l6.293-3.398l-5.045-6.325l5.104-20.004l6.858-0.68l-0.454-9.999l9.979,7.685l-8.786-12.923l12.36-2.452l8.561-12.108l37.245,5.376l5.728-11.294l5.725,1.564l7.995-9.252l9.976,0.135l11.736-17.007l27.384,8.3l-6.747-7.825l8.051-5.235
				l-9.299-7.825l8.845-2.584l5.558,4.354l14.739-4.693l5.555-9.322l-4.421-8.3l-10.998,2.042l-5.897-5.101l4.479-6.398l-2.326-8.707l8.959-15.647l4.479-10.274l7.368-0.68l0.454-4.761l-9.126-5.648l2.098-6.527l-5.897-9.864l7.767-1.567l2.777-6.325l-4.365-20.818
				l7.711-9.797l9.299-0.545l1.529-6.258l13.664-6.123l-16.157-15.715l4.535-6.328l-15.478-6.803l-8.391,1.699l-8.332-5.168l1.359,7.348l-6.917,2.039l2.663,3.809l-5.271,4.494l-7.597-2.25l-5.329,13.406l-30.047-23.61l6.519-4.351l4.989-18.167l-6.803-9.727
				l-1.418-14.493l0.114-0.27l3.627-1.567l1.359-10.679l-12.243-18.709l-3.231-5.104l-21.431-0.067l-5.329,9.935l-12.416,0.067l-0.17,16.055l-21.486,4.761l-0.114,9.864l-5.329,0.138l-0.056,4.828l-5.443,0.07l0.056,4.761l-10.6,0.07v28.708l-10.717,0.067v4.966
				l-21.486,0.138l0.284-9.932h-10.828l0.565-9.729l-32.654-0.138l-0.056-9.521l-21.372,0.135l0.056-14.763l-11.338,0.067l0.226-21.7l-5.443-1.157l-7.198,15.85l7.028,8.165l-2.947,4.286l2.438,7.005l-10.544,4.222l0.454,28.368h-4.594l-7.767-3.267l-0.396-6.53
				h-8.221v-9.864h-16.441v-9.864h-8.165l0.17,10.884l3.63,3.334l-4.31,5.306l-21.261-15.103l-4.025,8.3l-57.598,15.785l-27.668,14.42l-31.635-2.856l-6.973,5.511l-3.627,7.89l2.493,1.837l-0.34,0.272l-3.46,2.177l-0.056,12.996l-5.61-0.067l-0.114,5.303
				l-15.876-0.337l-5.61,9.727l-11.171,0.067v5.104h-42.973l0.114,4.898l-5.499,0.138l0.111,24.082l-7.368,1.77l-5.159,9.932l-4.705,0.68v9.39l-5.725-0.07l0.396,19.731l-5.897-0.205l-0.111,9.932l-12.076-0.542l-20.353-0.75l-11.112,10.002l-13.21,20.748
				l-2.552,22.043l-14.965,12.451l-54.768,3.059l-5.953-18.026l-22.166-22.79l-29.933,11.701l-7.825,7.28l-28.289,2.244l7.937,19.796l-10.828-0.067l1.702,2.856l-15.533,26.602l7.652,9.457l-5.783,8.774l6.973,9.935l-61.625,1.087l-3.913,3.469v-3.469l-71.262-0.612
				l-6.067-6.19l4.535,5.578h-13.208l-31.238,0.138l-1.134-7.485l-5.159-2.244l-3.062,4.761l3.062,5.036l-97.512-0.545l-214.526,1.087l-3.401-2.379l-1.588-21.226l-7.652-8.3l5.839-23.678l-1.078-17.959l17.065-6.53l0.454-8.912l6.123-5.036l-9.639-5.918
				l0.737-16.192l-4.818-6.19l-2.722-9.05l-7.257-4.761l1.248-9.454l-3.97-5.309l3.8-7.482l-0.681-16.939l-12.643-14.766l6.69-8.297l-6.916-27.416l2.89-5.921l-11.962-4.556l3.231-18.029l7.879-9.729l-5.669-19.321l1.418-18.097l-23.3-14.625l-15.252-1.292
				l-11.282-15.103l-0.056-3.334l-5.783-0.478l-12.869-12.653l-20.919-7.55l1.417-11.159l-17.234-13.538l-20.41-5.168l-4.422-12.111l-7.937-6.668l-38.495,3.674l-14.287,11.361l1.701,3.334l-14.344-8.64l-15.306,3.741l-30.898-14.695l-8.503,1.154l-6.691-13.061
				l2.666-6.803l-16.044-35.104l-15.081-15.58L507.92,994.81l-17.971-29.865l0.113-87.284l0.17-9.185l12.416,9.39l8.049-0.545l10.148-15.647l-1.134-7.075l9.354,8.367l23.528,2.382l1.134,8.502l12.302,2.927l18.993,8.982l2.607,8.845l13.096-7.146l22.395,1.972
				l13.039-6.735l-2.72-4.283l10.374-1.362l-0.85-8.979l8.9-1.632l-6.52-1.225l4.138-1.975l-11.508-8.707l1.02-4.966l-17.065-9.05l6.521-28.166l10.26-17.892l-3.627-0.952l-0.624-9.524l-18.199-2.039l6.293-9.457l-2.947-4.081l-14.344,7.213l-21.826,0.542
				l-14.741,13.471l-16.327-13.813l-10.545,2.927l-18.652-16.26l-5.046-18.642l7.427,0.885l7.995-15.85l11.168-3.812l1.758-8.435l-4.762-5.44l9.467-6.466l9.354-24.489l7.937-2.177l-0.68-12.111l-9.354-8.505l0.284-10.204l-12.643-2.379l-10.431-10.002l3.231-5.033
				l-3.401-7.28l13.89,1.292l5.953-17.347l-1.872-30.138l8.845-2.177l4.932-9.457l-15.365-22.518l0.568-7.008l-11.906-9.319l7.371-14.631l-1.078-10.544l-10.714-7.822l4.365-5.306l-2.326-11.836l-10.828-13.201l-2.153-16.327l4.762-8.502l-10.885-8.03l15.138-1.427
				l12.018,6.396l3.176-5.036l9.41,1.292l8.561-18.571l12.302-9.39l9.185-14.76l33.79-8.165l20.125-17.824l18.369-7.96l4.649-6.325l12.586-2.112l7.879-17.007l-1.134-12.926l-14.571,1.292l-3.627-4.898l11.792-5.918l9.979,5.851l10.658-0.747l-4.195-7.96
				l1.756-6.598l22.677-12.724l19.276-24.22l-5.782-12.586l0.68-12.313l14.004-14.83l-4.649,0.885l-7.201-7.893l-2.323-10.137l-6.803,7.28l4.137,4.556l-3.062,6.94l-8.162,0.612l-5.556-3.469l8.448,0.68l-13.324-4.764l6.407-0.609l-2.438-4.693l2.72-1.772
				l-6.122-4.828l4.591-5.171l-3.798,1.225l-2.438-19.184l-14.172-2.927l8.73,0.475l0.34-0.542l-6.747-1.09l1.758-8.095l-9.185-10.409l3.686-7.213l-7.03-2.584l10.658-5.101l5.839,15.372l0.227-0.202l3.628-28.438l-6.01-9.185l-3.797,3.199l-4.365,1.77l-8.675-8.232
				l-6.86,18.097l-2.155-13.198l-21.202,2.042l1.077,8.505l-4.876,1.494l0.17,5.306l-3.117-1.77l-0.17,5.036l-23.074,3.879l3.231,5.851l-6.917,2.924l5.159,5.783l11.849-4.491l7.54,4.831l4.252-0.202l0.057-6.735l1.418,3.876l2.777-2.517l0.51,11.021l-7.711-2.587
				l3.119,6.466l-2.38,4.556l11.054-0.475l-3.287,8.64l3.401,1.564l-2.041,6.396l-8.108,0.407l-7.028,7.688l-2.95-4.286l-7.992,1.837l-1.248-11.227l-8.221-4.556l-21.372,1.564l-2.666-5.443l0.794,7.62l-8.051,10.749l4.819,7.21l-10.204,6.668l0.794,20.956
				l-3.401,6.527l-2.949-2.039l1.645,4.559l-5.783,2.651l2.323,1.702l-9.126,3.671l-10.148-8.229l-7.427,2.109l4.138-6.19l-8.561,4.219l1.021-5.376l10.148-4.286l-9.524-14.083l-0.964-11.563L523,200.683l-31.578-15.24l-10.091,4.283l-11.622-2.584l-4.648,4.151
				l-5.67-2.654l-1.586-7.89l-12.53,0.205l-6.519-7.825l-26.817,1.632l-3.514-19.456l7.822-2.994l1.078-7.008l-8.958-3.946l-5.329-10.547l-3.289-8.364l18.652-4.017l-0.34-6.463l12.245-10.406l1.872-11.159l-3.231-1.497l5.669-7.412l20.353,6.12l7.314-17.279h19.332
				l2.836-16.397l11.848-16.802l-2.153-10.679l-1.872-10.682l12.813-9.864l-78.86,3.876L205.748,8.899l-93.94-1.359l3.798,10.204l-3.004,22.245l4.195,10.954l-3.176,31.567l-10.544,41.432l-16.044,29.118l3.911,7.96l-3.401,1.494l8.333-0.135l22.792,18.844
				l3.401-4.764l7.03,3.609l-2.438,3.741l7.994-2.856l9.582,9.932l6.179,13.4l4.479,35.309l8.73,11.566l2.495,17.145l8.503,8.842l-0.34,21.908l10.998,15.1l-1.417,15.785l10.941,40.682l-3.458,57.079l-11.565,60.208l-9.637,46.125L154.1,579.819l-5.783,10.679
				l-8.106-0.067l-2.212,7.755l3.573,5.648l-3.006,14.353l5.613,9.322l-2.722,12.243l5.783,5.241l-2.552,5.376l8.73-1.567l7.201,4.969l7.597,15.92l-12.359,62.247l-27.066,66.299l-29.458,48.062l10.318,2.517l-5.612,9.864l-5.556-5.988l-42.803,77.285
				l-43.541,89.868l2.041,11.634l-14.06,34.084l3.346,14.358l18.992,25.304l4.083,29.798l7.994,18.029l-8.958,26.124l1.531,12.791l40.024,36.668l41.046,27.416l17.064,22.248l6.52,2.039l37.304,16.192l17.065,26.124v24.22l6.519,5.78h11.112l14.968,13.608
				l24.321,26.394l14.06,27.079l14.287,8.842l14.457,33.949l29.934,18.847l6.747,24.762l0.226,26.191l6.123,15.24l-1.077,7.89l12.642,8.505l8.845,18.097l5.839,42.586l-3.628,14.833l12.189,23.335l0.454,8.572l-12.586,34.556l-9.185,7.963l-1.531,21.498
				l-5.159,9.252l2.212,2.109l-4.422,1.904l7.541,8.37l-6.747,1.767l3.344,5.101l-5.045,7.075l2.665,20.344l-5.046,5.306l5.329,4.761l-4.648,0.545l2.268,5.036l-3.741,3.469l15.306,19.796l-5.839,9.864l10.828,1.632l-1.644,7.146l-4.707,0.135l-0.453,8.572
				l2.38,5.036l4.592-1.09l4.762,10.14l-2.041,3.604l7.257,9.117l-3.176,5.033l5.556,4.286l-4.535,1.09l5.499,5.918l-4.932,1.292l2.892,12.586l13.89-1.087l-7.824,3.604l14.966,22.655l-1.134,12.519l7.711,1.837l2.777,7.482l5.728,16.257l1.189,15.038l8.333,20.001
				l0.454,18.981l-11.735,31.02l-12.813,15.105l-4.819-0.612l9.127,13.673L386.2,2102.7l9.354,2.177l17.008,22.521l13.833,9.252l5.216,15.917l23.867,15.445l4.025,8.232l-2.323,2.177l15.76,5.101l23.301,21.498l4.705,12.791l36.056,21.905l14.004,17.892l0.908,6.533
				l8.786,4.623l11.225,17.01l5.726,13.535l13.21,11.634l-2.212,5.309l11.792,5.511l7.314,9.592l-1.871,7.075l3.458,4.424l30.728,20.136l14.455,16.734l34.98,14.9l36.68,27.009l3.289,13.468l21.94,31.022l4.014,1.058l4.446-5.637l-1.09,8.918l2.5,4.793l10.856-3.674
				l-0.555-12.381l4.179-2.341l-0.839,17.065l-12.625,4.351l3.457,6.149l23.665-2.197l-2.222-18.009l4.184-5.019l-0.278,13.72l21.188,0.671l0.283,14.722l3.423,3.246l21.193-7.339l6.633,2.789l2.268,8.438l-6.577,11.701l4.705,4.831l5.046-2.517l0.794,4.556
				l6.933,0.445l44.602,4.863l10.374-11.566l21.316,1.497l1.644-7.893l10.206-1.837l0.17-5.033l-0.113-6.261l15.93-3.741l0.623-8.502l15.082-1.567h5.159l0.283,4.901l-5.499,0.202l0.227,14.628l20.522,3.753l4.395-6.917l10.595,3.012l8.367-6.357l8.363,2.007
				l-3.901,7.389l5.862,2.549l9.406,5.382l-0.114,7.28l8.9,16.6l-2.947,4.896l28.346,24.223l6.974,1.292l-4.14,7.28l-13.21,3.738l7.938,18.234l41.102,26.602l-1.644,8.704l8.503,6.328l-5.839,3.472l3.913,7.143h-7.768l-3.458,5.918l7.087,2.109l17.065-12.586
				l4.875-8.64l-1.995-5.511l0.634-1.292l22.337-0.952l-0.454-15.375l6.69-1.5l-2.041-8.232l5.555,2.247l0.34-5.985l-4.875-5.716l-4.761-25.512l-4.424,1.702l-8.616-10.887l1.418-8.64l-5.613,0.68l-4.195-6.261l0.624-13.061l4.989-2.991l-17.292-27.554
				l-18.368-15.58l5.499-7.412l-13.04-14.561l-15.138-16.192l9.979-12.586l-1.701-6.598l-5.158-1.225l-9.866-2.314l1.985-4.626l-8.505-4.354l-4.932,0.885l-8.618-18.029l5.273-3.674l-6.123-4.216l1.418-8.232l-4.594-2.859l-9.92-3.741l-7.201-13.4l-26.833-12.604
				l-8.599-23.728l9.296-13.74l-3.287-9.457l5.613-8.774l-1.815-12.041l68.145-18.981l24.549-6.668l24.434-38.303l2.834-4.421l7.314-3.334l-5.329-8.777l8.106-12.381l10.545,1.292l3.344-10.137l-16.894-26.599l4.648-5.578l5.613,8.027l19.957,11.361l14.682-7.146
				l4.932,4.629l15.535-0.272l16.27,34.286l5.216,23.265l13.378,19.462l1.305,18.161l12.303,7.485l2.209,13.195l8.675,8.505l8.505,1.225l1.869,8.777l2.156,4.761l-5.216,3.946l1.134,7.008l9.582-4.081l6.858,10.954l20.467,65.376l-13.096,57.281l22.847,32.927
				l14.002,34.629l6.917-6.527l11.851,2.584l5.101,7.55l-1.304,5.851h6.861v3.539l21.882-3.606l0.85,20.953l12.642-13.266l7.711,2.039l-0.226-4.898l10.433,0.275l0.111-4.969l10.433,0.138l41.897,0.202l-0.059,5.174l36.624,0.475l10.093,9.932l11.168,3.674
				l4.986-3.604v-15.173l10.148-0.07l35.139,0.935l2.37,17.092l16.084-8.962l-3.249,10.257l2.496,22.046l-0.604,2.323l-3.117,4.992l-22.644-2.092l-5.227,3.483l27.287,4.881l-3.48,16.72l-10.45,7.664l-14.52,0.694l1.289,9.905l-5.897,3.606l-17.801,35.443
				l-0.624,3.539l9.694,3.062l-2.382,16.6l14.344-5.716l6.182,5.716h10.6l0.738-7.825l12.867-4.898l3.176,6.873l13.324,7.55l3.401,12.111l-7.881,8.64l-0.114,9.797l7.995,0.407v8.912l5.555,0.545l2.666,9.047l-7.031-1.904l2.153,2.722l-6.688,3.876l3.97,4.491
				l-6.407,11.294l5.215,3.536l-3.457,2.859l12.246,18.709l-3.29,7.075l3.29,12.313l-3.855,1.359l-9.015,29.663l8.9,11.769l6.463-5.241l6.747,3.404l-0.226,6.533l3.457-0.75l-2.502,7.526l-5.947,2.335l-3.229,11.364v188.786l9.636,8.777l23.244,4.896l1.474,12.044
				l14.232,9.39l-0.059,5.918l-8.9,4.626l1.418,6.53l11.054,9.659l1.588,8.64l-6.123,10.614l12.756,21.155l-5.555,5.648l-5.839-4.488l-6.803,1.699l-2.666,14.423l3.967,14.561l-16.951-15.785l-8.616,0.68l-11.792-10.069l-14.965-1.767l-1.532-7.146l-4.875,3.267
				l-3.346-7.89l7.655-9.662l-5.273-2.789l1.588-10.274l-11.965-10.409l4.764-9.114l-7.541-12.246l-89.063-0.952l-32.997-0.135l-24.888,0.814l-7.992,8.3l-19.901,8.37l-4.31,2.991l-10.714-10.204l-9.41,3.196l-8.335,3.199l-26.133-1.225l1.641,9.524l15.138,9.524
				l6.806,3.129l2.607,7.553l-6.861,3.876l-0.226,15.92l0.056,7.755l-9.809,0.34l4.594,2.382l-2.836,13.266l-1.189,8.572l4.195,2.382l-3.914,0.067l-33.902,0.205h-2.777l4.084,6.056l-6.577-1.84l-6.407,4.696l-28.334-2.493l-1.203,23.309l-25.964-16.395l1.985,3.539
				l8.73,5.508l-2.438,6.193l7.992,5.918l-1.529,48.439l-14.854,0.135l-22.679,0.07h-11.962l-0.113,17.071l-3.344,0.141l-39.176,1.972l3.346,26.807l12.699,23.197l-2.155,4.283l12.076,14.288l24.151,33.539l3.573,7.96l39.571,33.334l26.758,13.743l22.792,5.44
				l22.45-1.562l1.588-8.098l3.401,3.606l-2.95-3.741l5.783-1.497l6.182,2.927l-0.454-5.578l0.454,4.488l16.269,5.238l9.923-10.544l5.725,3.469l-2.777-3.196l6.009-5.988l19.219,6.328l22.11,21.7l32.089,58.509l-2.663,0.882l14.171,28.506l7.541-3.398l-4.761,2.244
				l-4.866,12.574l-6.645,26.405l12.416,13.266l5.218-7.617l-3.404,7.143l21.601-12.519l-0.794-4.491l9.41-4.896l-1.16-4.896l3.753-6.853l24.337-3.492l-12.642-0.75l1.758-6.935l-8.25-5.561l2.279-6.735l8.874-3.609l7.529-5.394l3.741,5.988l5.039-2.197l8.537-7.251
				l1.556,4.415l6.727,2.827l2.695-6.41l-3.407-9.48l3.401-5.915l0.437,0.68l0.026,5.15l3.472,0.056l14.435,7.447l20.918,21.7l32.145,32.859l12.645-5.783l3.457,11.159l7.541,3.876l6.179,12.926l-18.539,6.94l8.561,19.658l5.728-0.202l8.276,8.572l7.257-3.809
				l8.73,3.809l5.159,11.634l26.476,1.362l10.204,9.864l3.855,10.816l9.753,9.252l-5.104,16.465l2.209,5.44l-5.95,2.379l1.075,8.303l17.631,16.939l3.176,6.87l-4.705,5.646v0.683l-4.649,8.707l1.813,3.879l4.479-4.354l34.811,0.68l9.07,21.973l4.649-0.545
				l7.822,10.752l0.34-0.208l45.697,47.692l44.956,43.336l0.284,36.123l7.541-2.856v10.477l4.705,0.067l2.323-6.12l12.642-1.09l4.025-15.715l18.539,12.381l18.48-24.489l17.235,14.08l8.903-3.059l12.697,6.255l8.335,9.322l-0.114,6.601l14.912,7.348l-0.738,4.488
				l20.013,16.125l8.73,12.313l10.148,2.722l6.519-3.132l12.756,6.668l5.839-12.108l-3.911-1.904l-6.688-31.025l-14.288-25.852l-8.672-7.143l6.574-1.154l38.777,29.048l3.176-8.774l-5.839-4.289l0.114-5.235l11.109-13.541l25.682-3.196l12.021-6.396l-0.284-42.589
				l-0.056-66.126l-146.552-136.948l-35.716-34.556l-8.505-7.825l-117.809-57.691l-6.404-19.729l-6.123-2.449l-3.117-10.679l-8.619-7.758v-8.572l-8.051-3.604l-13.151,2.651l-6.861-10.271l2.607-10.614l9.923-11.089l-19.333-17.484l0.396-6.735l6.806-4.354
				l-8.789-23.335l13.664-4.148l-0.51-10.614l7.257,0.205l2.549-4.491l-21.146-18.706l8.505-5.309l0.738-10.477l6.688-7.28l-5.385-7.96l2.777-2.789l25.228-9.117l18.595,14.766l15.138,4.421l10.544-2.856l6.521,5.851l4.764-2.927l22.277,5.988h13.893l0.226-4.898
				l39.343,0.34l8.959,14.968l53.745,0.135l0.51-23.813l11.622-16.462l10.658-4.898l7.201,8.912l12.302-1.359l8.391,17.619l14.798-3.199l7.143,3.539l-0.454-14.423l-19.954-2.924l-3.006-5.648l-4.025,2.18l2.552-5.309l-8.505-10.271l1.474-14.763l-4.14-6.261
				l-3.003,4.219l-4.734-11.013l2.071,0.264l0.621-4.898l28.802,0.07l18.99,18.571l-6.463,0.952l7.825,0.205l12.416,10.066l8.051-0.135l3.627,6.46l23.016,13.269h-4.251l14.174,17.689l0.908,11.974l19.784,27.349l-0.964,6.665l8.675,13.198l37.134-35.581
				l17.177-1.292l22.963-9.797l13.151-8.095l-0.17-41.432l29.763-0.067l12.135-0.272l1.304-9.592l136.854,0.407l-14.001-14.968l-30.445-12.108l-19.163-15.17l-5.725-26.874l-8.959-8.367l-9.58-19.523l23.244-12.381l18.425-23.543l34.641-29.728l0.624-7.485
				l7.711-2.651l-2.326-14.83l5.953-2.725l4.365,1.5l-0.738,17.347l9.809,12.724l19.219,13.4l-0.396,13.878l6.577,9.864l-3.346,5.581l26.59-3.946l3.967-13.131l11.848-9.252l5.104,38.777l15.478,4.831l-3.855,5.985l10.998,8.3l43.541-46.125l1.075,3.062l9.923-9.457
				l-0.51-7.075l3.062-0.202l12.132-38.03l14.229-5.648l8.391-21.498l7.937,0.407l2.042,0.34l8.106-3.466l3.97,8.572l10.939,4.556l15.308-4.286l9.073,2.517l17.572-0.067l0.17-26.329l58.793-4.354l9.352,11.634l-3.229,15.445l2.719,7.075l-3.516,3.401l2.61,3.129
				l-12.929,8.572l-10.315-1.157l2.212,6.873l-9.639,9.182l3.457,2.109l-2.552,2.177l7.597,1.837l5.613,14.968l9.469-18.642l12.076-8.845l11.279-18.571l3.346,4.219l6.463-3.062l1.362-16.667l6.688,7.21l8.335-9.322l46.26,9.797l6.009,5.648l3.234,16.192
				l4.875,0.138l5.045,11.836l-14.628,10.544l-11.282-3.264l-9.012,14.218l0.396,8.572l5.273,5.168l3.173-2.994l5.613,11.566l8.675,8.979l155.452-149.326l-6.747-11.974z M2172.366,3152.082l-5.78-6.938l1.983-9.252l19.389,2.312l-0.114,14.698l-0.056,9.864
				l-3.911,0.202l-1.078,5.783l-10.263-7.348l-0.17-9.322z"/>
			<text transform="matrix(1 0 0 1 152.0562 1657.864)"><tspan x="0" y="0" style="fill:#000000;stroke:none;">95</tspan></text>
		</g>
		<g style="stroke-miterlimit:1;">
			<g>
				<path d="M1370.502,3113.17l-15.589-8.845l-3.117-9.797l-8.561,4.219l4.931,2.924l-16.497,2.997l-17.575-4.562l-16.837-11.903l2.268-5.716l-3.97,1.43l-2.323-15.785l-6.691-5.511l-10.488,4.969l8.675,9.114l-12.983-7.96l-8.9-14.353l-8.73-2.52l-3.913,4.084
					l7.484,2.449l-1.815,5.646l1.362-4.693l-7.485-2.517l-3.741,10.749l-2.153-3.744l-5.728,5.238l-3.571-3.943l-6.973-0.612l-2.153-8.232l1.304-8.165l7.767-3.401l4.081-8.027l-12.132-2.52l-3.062,6.738l3.911-11.566l-4.705-6.601l-19.274-6.325l-4.649,3.879
					l-12.7-9.729l0.738-4.354l-10.488,2.042l0.056-3.401l-15.079,0.132l-8.165-7.887l-1.813-1.84l3.571-5.44l7.597,3.331l1.985-3.809l-7.484-4.081l1.531-4.764l-13.266-1.292l1.586-3.334l2.949,0.067l-6.01-2.312l0.211-3.797l6.366-2.941l3.117-9.724l-11.622-1.093
					l4.594-3.671l3.684,0.067v-5.508l-4.195-0.888l-2.89-19.866l7.313-0.885l2.153-4.216l-4.478-3.132l4.252-3.536l1.361,4.969l7.654,2.719l-2.836-7.688l4.422,0.612l0.113-3.469l-9.977-2.719l2.38-4.222l-3.174-5.101l-9.242-0.07l5.728-3.809l-2.325-13.266
					l2.665-1.359l-9.524,2.719l8.106-5.373l-1.701-2.927l-2.268-7.89l-6.066-7.21l-9.58-2.385l-3.743,0.885h-12.756l-16.894-2.382l-4.31,13.608l-15.138,4.761l0.229,8.643l1.474,15.17l1.02,9.185l2.892,18.504l4.479,30l-1.418,36.261l-4.819,9.867l-8.561,1.494
					l0.34,13.541l3.63,14.897l-2.836,10.271l1.134,10.752l9.864,17.687l6.464,0.885l-4.537-3.606l5.84-2.651l16.668,5.508l-3.29,2.517l5.613,7.418l4.762,30.34l24.832,53.95l-6.634,60.753l2.666,2.039l-2.722-1.02l-3.968,16.939l13.437,40.274l15.816,6.056
					l3.573,15.442l13.096,9.864l0.226,12.246l4.424,3.539l11.848-3.267l8.73,6.87l2.155-4.283l-12.699-23.197l-3.346-26.807l39.176-1.972l3.344-0.141l0.113-17.071h11.962l22.679-0.07l14.854-0.135l1.529-48.439l-7.992-5.918l2.438-6.193l-8.73-5.508l-1.985-3.539
					l25.964,16.395l1.203-23.309l28.334,2.493l6.407-4.696l6.577,1.84l-4.084-6.056h2.777l33.902-0.205l3.914-0.067l-4.195-2.382l1.189-8.572l2.836-13.266l-4.594-2.382l9.809-0.34l-0.056-7.755l0.226-15.92l6.861-3.876l-2.607-7.553l-6.806-3.129z"/>
				<path d="M1158.075,2843.63l-6.916-0.478l3.06,13.131l5.896,2.651l2.155-4.966l-7.087-1.02l5.159-3.536l-2.268-5.783z"/>
				<path d="M1664.455,3119.973l6.123-10.614l-1.588-8.64l-11.054-9.659l-1.418-6.53l8.9-4.626l0.059-5.918l-14.232-9.39l-1.474-12.044l-23.244-4.896l-9.636-8.777v-188.786l3.229-11.364l5.947-2.335l2.502-7.526l-3.457,0.75l0.226-6.533l-6.747-3.404l-6.463,5.241
					l-8.9-11.769l9.015-29.663l3.855-1.359l-3.29-12.313l3.29-7.075l-12.246-18.709l3.457-2.859l-5.215-3.536l6.407-11.294l-3.97-4.491l6.688-3.876l-2.153-2.722l7.031,1.904l-2.666-9.047l-5.555-0.545v-8.912l-7.995-0.407l0.114-9.797l7.881-8.64l-3.401-12.111
					l-13.324-7.55l-3.176-6.873l-12.867,4.898l-0.738,7.825h-10.6l-6.182-5.716l-14.344,5.716l2.382-16.6l-9.694-3.062l0.624-3.539l17.801-35.443l5.897-3.606l-1.289-9.905l14.52-0.694l10.45-7.664l3.48-16.72l-27.287-4.881l5.227-3.483l22.644,2.092l3.117-4.992
					l0.604-2.323l-2.496-22.046l3.249-10.257l-16.084,8.962l-2.37-17.092l-35.139-0.935l-10.148,0.07v15.173l-4.986,3.604l-11.168-3.674l-10.093-9.932l-36.624-0.475l0.059-5.174l-41.897-0.202l-10.433-0.138l-0.111,4.969l-10.433-0.275l0.226,4.898l-7.711-2.039
					l-12.642,13.266l-0.85-20.953l-21.882,3.606v-3.539h-6.861l1.304-5.851l-5.101-7.55l-11.851-2.584l-6.917,6.527l-14.002-34.629l-22.847-32.927l13.096-57.281l-20.467-65.376l-6.858-10.954l-9.582,4.081l-1.134-7.008l5.216-3.946l-2.156-4.761l-1.869-8.777
					l-8.505-1.225l-8.675-8.505l-2.209-13.195l-12.303-7.485l-1.305-18.161l-13.378-19.462l-5.216-23.265l-16.27-34.286l-15.535,0.272l-4.932-4.629l-14.682,7.146l-19.957-11.361l-5.613-8.027l-4.648,5.578l16.894,26.599l-3.344,10.137l-10.545-1.292l-8.106,12.381
					l5.329,8.777l-7.314,3.334l-2.834,4.421l-24.434,38.303l-24.549,6.668l-68.145,18.981l1.815,12.041l-5.613,8.774l3.287,9.457l-9.296,13.74l8.599,23.728l26.833,12.604l7.201,13.4l9.92,3.741l4.594,2.859l-1.418,8.232l6.123,4.216l-5.273,3.674l8.618,18.029
					l4.932-0.885l8.505,4.354l-1.985,4.626l9.866,2.314l5.158,1.225l1.701,6.598l-9.979,12.586l15.138,16.192l13.04,14.561l-5.499,7.412l18.368,15.58l17.292,27.554l-4.989,2.991l-0.624,13.061l4.195,6.261l5.613-0.68l-1.418,8.64l8.616,10.887l4.424-1.702
					l4.761,25.512l4.875,5.716l-0.34,5.985l-5.555-2.247l2.041,8.232l-6.69,1.5l0.454,15.375l-22.337,0.952l-0.634,1.292l31.248,12.381l25.399,18.507l21.429,28.843l13.267-5.646l-16.499-25.512l28.688,32.927l10.431-1.975l6.804,5.104l4.024-7.143l13.833,11.836
					l-0.964,6.463l20.013-0.202l6.18-12.586l29.254-29.865l-0.17-7.893l5.839-10.682l26.587,0.478l5.388,4.626l1.304-9.39l8.051,9.999l-2.666,0.478l3.062,7.893l-16.608,16.125l15.645,2.719l7.371,7.96l4.649-4.693l5.725-0.067l-1.813,3.741l3.287,1.09l22.564-4.898
					l-3.967,14.692l-8.619,3.062l7.541,6.261l-29.197-13.471h-15.422l-16.383,4.286l-18.65-1.972l-20.297,9.659l1.871,3.129l-29.708,14.423l-15.987-9.794l-9.07-10.822l-7.482-1.292l-17.35-2.039l-15.363,1.972l-2.38,9.322l-5.726,3.539l-11.679,13.263
					l-10.147,3.062l-11.851,6.396l-18.368-7.008l4.025,14.153l-4.252,8.3l-8.956,1.972l-8.505,16.122l-17.688-8.027l11.451,22.315l12.984,7.688l-3.176,8.162l8.561-1.157l5.273-0.475l-4.055-8.01l-0.39-0.768l5.01-0.545l3.573,10.277l12.756-2.452l8.673,3.741
					l-2.663,4.219l2.89,4.081l5.329-1.292l2.155,3.199l-4.195,2.039l4.932,12.791l-8.164-0.205l5.896,4.084l-3.458-0.68l0.68,4.761l5.613-4.491l3.176,12.519l1.699,4.761l-7.313,2.449l7.597,2.792l-17.801,7.547l11.622,1.638l-14.004,5.985l-3.741,5.033l8.391-2.719
					l-3.855,4.354l11.112,3.536l-0.17,1.427l-11.057-3.196l0.624,11.566l27.779,6.53l26.191,16.192l-13.039,2.856l7.2,12.041l18.596,18.302l2.041-7.96l6.179-1.837l2.836-0.612l-4.195,2.517l1.928,4.969l4.819,1.904l-3.176,3.604l3.458-2.042l0.652,4.441
					l2.127,0.524l12.075,13.881l3.289,9.387l6.633,36.943l-0.34,13.4l9.185,12.381l9.864,23.338l0.453,13.195l4.876,7.28l13.436-6.87l-0.68,5.373l23.81,5.578l1.453,2.643l-11.657-0.533l3.346,16.327l36,0.545l4.31-3.401l10.884,4.421l9.41-3.196l10.714,10.204
					l4.31-2.991l19.901-8.37l7.992-8.3l24.888-0.814l32.997,0.135l89.063,0.952l7.541,12.246l-4.764,9.114l11.965,10.409l-1.588,10.274l5.273,2.789l-7.655,9.662l3.346,7.89l4.875-3.267l1.532,7.146l14.965,1.767l11.792,10.069l8.616-0.68l16.951,15.785
					l-3.967-14.561l2.666-14.423l6.803-1.699l5.839,4.488l5.555-5.648l-12.756-21.155z"/>
				<path d="M1082.446,2849.618l0.284-0.952l11.792-2.317l3.797-7.752l-3.741-15.173l-19.956-13.471l-6.633-11.701l15.987,13.063l-2.55-13.403l13.151,5.851l4.989,13.333l6.407,4.491l-2.779-6.938l13.607-5.446l-6.01-9.589l-15.535-7.822l1.022-7.69l-6.067-2.312
					l-6.688-1.362l-4.424-13.198l-4.308-0.34l-1.021-0.545l6.974,0.272l7.767,4.084l5.953-3.946l-10.375-18.914l10.828-0.747l-2.438-2.177l7.995-6.601l6.122,3.879l5.386-4.354l-8.335-11.634l-23.073-9.729l4.252-21.498l6.576-16.192l-4.138-15.1l0.964-7.485
					l-10.772-9.114l3.006,2.312l4.365-4.421l-4.083,4.693l6.52,1.834l19.898-4.828l3.458-5.918h7.768l-3.913-7.143l5.839-3.472l-8.503-6.328l1.644-8.704l-41.102-26.602l-7.938-18.234l13.21-3.738l4.14-7.28l-6.974-1.292l-28.346-24.223l2.947-4.896l-8.9-16.6
					l0.114-7.28l-9.406-5.382l-5.862-2.549l3.901-7.389l-8.363-2.007l-8.367,6.357l-10.595-3.012l-4.395,6.917l-20.522-3.753l-0.227-14.628l5.499-0.202l-0.283-4.901h-5.159l-15.082,1.567l-0.623,8.502l-15.93,3.741l0.113,6.261l-0.17,5.033l-10.206,1.837
					l-1.644,7.893l-21.316-1.497l-10.374,11.566l-44.602-4.863l-6.933-0.445l-0.794-4.556l-5.046,2.517l-4.705-4.831l6.577-11.701l-2.268-8.438l-6.633-2.789L816,2491.558l-3.423-3.246l-0.283-14.722l-21.188-0.671l0.278-13.72l-4.184,5.019l2.222,18.009
					l-23.665,2.197l-3.457-6.149l12.625-4.351l0.839-17.065l-4.179,2.341l0.555,12.381l-10.856,3.674l-2.5-4.793l1.09-8.918l-4.446,5.637l-4.014-1.058l8.788,17.824l-0.454,16.33l-5.385,7.482l7.427,14.016l6.519,2.312l1.361-7.688l7.03-1.975l20.41,12.179
					l9.297,15.375l8.9-1.225l3.401,4.219l-3.457-3.809l-3.855,2.991l5.896,13.336l-3.174,11.906l8.276-1.702l2.777,5.171l0.229,9.047l4.195-4.081l6.633,5.988l5.783-6.19l0.255-0.173l0.141-0.167l-1.531,10.679l13.833,27.146l4.31,1.632l6.123,13.74l6.633,2.244
					l3.798,14.698l5.67,2.244l-8.902-0.138l-23.074-25.374l1.815-3.539l-13.89-20.546l-10.263-4.148l2.212-5.306l-27.779-26.807l16.1,28.166l-0.851,11.496l8.335,4.764l2.777,14.625l-14.569,50.139l-22.96,54.155l-5.046,4.286l33.62,3.062l-11.057-7.688
					l7.989-13.893l19.28-8.897l43.937,11.836l33.167,26.057l9.296,20.886l26.42,15.442l5.443,14.968l12.697,6.53l13.494-9.521l18.539,4.488l12.132,10.816l-0.227,3.334l14.172,3.536l7.938,9.595l15.25,6.598l17.745,24.627l3.741-6.261l13.771,3.261l-0.051-0.604z"/>
			</g>
			<text transform="matrix(1 0 0 1 868.0537 2981.8713)"><tspan x="0" y="0" style="fill:#000000;stroke:none;">94</tspan></text>
		</g>
		<g>
			<path style="stroke-miterlimit:1;" d="M2947.529,2628.649l-4.989-7.822l-1.928,4.014l-0.621-8.912l-2.44-7.482l4.479-5.581l0.114-9.047l-18.144-19.046l0.683-11.502l9.694-0.814l0.735-8.505l-22.392-1.359l-17.804-18.167l-6.803-12.176l-0.226-14.76
				l-5.499-14.086l-56.977-5.783l4.535-2.109l-7.655-16.802l6.182-17.212l9.524,6.258l21.032-14.218l-2.947-8.912l10.998-14.288l-3.457-10.813l4.875-6.806l-0.908-20.001l11.622-19.523l-55.843-46.535l-88.951-74.086l-180.794-149.736l-54.829-45.105l-0.814-46.181
				l-0.844-46.406l-0.278-20.332l-0.085-6.935l-0.059-3.243l-0.463-24.328l0.111-68.03l0.568-43.201l0.68-44.423l1.02-188.651l2.326-242.188l0.396-92.388l0.229-128.716l-0.454-152.323l-1.644-378.729l0.735-270.357l-0.34-281.106h-94.62l-194.06,0.545
				l-379.104-1.837L1590.527,7.2l-331.709-5.783l-101.934-1.292L959.026,3.661l-86.514,0.612L854.88,4.681L715.926,0.192L601.635,7.065l-96.549-1.157l-12.813,9.864l1.872,10.682l2.153,10.679L484.45,53.935l-2.836,16.397h-19.332l-7.314,17.279l-20.353-6.12
				l-5.669,7.412l3.231,1.497l-1.872,11.159l-12.245,10.406l0.34,6.463l-18.652,4.017l3.289,8.364l5.329,10.547l8.958,3.946l-1.078,7.008l-7.822,2.994l3.514,19.456l26.817-1.632l6.519,7.825l12.53-0.205l1.586,7.89l5.67,2.654l4.648-4.151l11.622,2.584
				l10.091-4.283L523,200.683l21.828,3.129l0.964,11.563l9.524,14.083l-10.148,4.286l-1.021,5.376l8.561-4.219l-4.138,6.19l7.427-2.109l10.148,8.229l9.126-3.671l-2.323-1.702l5.783-2.651l-1.645-4.559l2.949,2.039l3.401-6.527l-0.794-20.956l10.204-6.668
				l-4.819-7.21l8.051-10.749l-0.794-7.62l2.666,5.443l21.372-1.564l8.221,4.556l1.248,11.227l7.992-1.837l2.95,4.286l7.028-7.688l8.108-0.407l2.041-6.396l-3.401-1.564l3.287-8.64l-11.054,0.475l2.38-4.556l-3.119-6.466l7.711,2.587l-0.51-11.021l-2.777,2.517
				l-1.418-3.876l-0.057,6.735l-4.252,0.202l-7.54-4.831l-11.849,4.491l-5.159-5.783l6.917-2.924l-3.231-5.851l23.074-3.879l0.17-5.036l3.117,1.77l-0.17-5.306l4.876-1.494l-1.077-8.505l21.202-2.042l2.155,13.198l6.86-18.097l8.675,8.232l4.365-1.77l3.797-3.199
				l6.01,9.185l-3.628,28.438l-0.227,0.202l-5.839-15.372l-10.658,5.101l7.03,2.584l-3.686,7.213l9.185,10.409l-1.758,8.095l6.747,1.09l-0.34,0.542l-8.73-0.475l14.172,2.927l2.438,19.184l3.798-1.225l-4.591,5.171l6.122,4.828l-2.72,1.772l2.438,4.693l-6.407,0.609
				l13.324,4.764l-8.448-0.68l5.556,3.469l8.162-0.612l3.062-6.94l-4.137-4.556l6.803-7.28l2.323,10.137l7.201,7.893l4.649-0.885l-14.004,14.83l-0.68,12.313l5.782,12.586l-19.276,24.22l-22.677,12.724l-1.756,6.598l4.195,7.96l-10.658,0.747l-9.979-5.851
				l-11.792,5.918l3.627,4.898l14.571-1.292l1.134,12.926l-7.879,17.007l-12.586,2.112l-4.649,6.325l-18.369,7.96l-20.125,17.824l-33.79,8.165l-9.185,14.76l-12.302,9.39l-8.561,18.571l-9.41-1.292l-3.176,5.036l-12.018-6.396l-15.138,1.427l10.885,8.03
				l-4.762,8.502l2.153,16.327l10.828,13.201l2.326,11.836l-4.365,5.306l10.714,7.822l1.078,10.544l-7.371,14.631l11.906,9.319l-0.568,7.008l15.365,22.518l-4.932,9.457l-8.845,2.177l1.872,30.138l-5.953,17.347l-13.89-1.292l3.401,7.28l-3.231,5.033l10.431,10.002
				l12.643,2.379l-0.284,10.204l9.354,8.505l0.68,12.111l-7.937,2.177l-9.354,24.489l-9.467,6.466l4.762,5.44l-1.758,8.435l-11.168,3.812l-7.995,15.85l-7.427-0.885l5.046,18.642l18.652,16.26l10.545-2.927l16.327,13.813l14.741-13.471l21.826-0.542l14.344-7.213
				l2.947,4.081l-6.293,9.457l18.199,2.039l0.624,9.524l3.627,0.952l-10.26,17.892l-6.521,28.166l17.065,9.05l-1.02,4.966l11.508,8.707l-4.138,1.975l6.52,1.225l-8.9,1.632l0.85,8.979l-10.374,1.362l2.72,4.283l-13.039,6.735l-22.395-1.972l-13.096,7.146
				l-2.607-8.845l-18.993-8.982l-12.302-2.927l-1.134-8.502l-23.528-2.382l-9.354-8.367l1.134,7.075l-10.148,15.647l-8.049,0.545l-12.416-9.39l-0.17,9.185l-0.113,87.284l17.971,29.865l10.148,33.879l15.081,15.58l16.044,35.104l-2.666,6.803l6.691,13.061
				l8.503-1.154l30.898,14.695l15.306-3.741l14.344,8.64l-1.701-3.334l14.287-11.361l38.495-3.674l7.937,6.668l4.422,12.111l20.41,5.168l17.234,13.538l-1.417,11.159l20.919,7.55l12.869,12.653l5.783,0.478l0.056,3.334l11.282,15.103l15.252,1.292l23.3,14.625
				l-1.418,18.097l5.669,19.321l-7.879,9.729l-3.231,18.029l11.962,4.556l-2.89,5.921l6.916,27.416l-6.69,8.297l12.643,14.766l0.681,16.939l-3.8,7.482l3.97,5.309l-1.248,9.454l7.257,4.761l2.722,9.05l4.818,6.19l-0.737,16.192l9.639,5.918l-6.123,5.036
				l-0.454,8.912l-17.065,6.53l1.078,17.959l-5.839,23.678l7.652,8.3l1.588,21.226l3.401,2.379l214.526-1.087l97.512,0.545l-3.062-5.036l3.062-4.761l5.159,2.244l1.134,7.485l31.238-0.138h13.208l-4.535-5.578l6.067,6.19l71.262,0.612v3.469l3.913-3.469
				l61.625-1.087l-6.973-9.935l5.783-8.774l-7.652-9.457l15.533-26.602l-1.702-2.856l10.828,0.067l-7.937-19.796l28.289-2.244l7.825-7.28l29.933-11.701l22.166,22.79l5.953,18.026l54.768-3.059l14.965-12.451l2.552-22.043l13.21-20.748l11.112-10.002l20.353,0.75
				l12.076,0.542l0.111-9.932l5.897,0.205l-0.396-19.731l5.725,0.07v-9.39l4.705-0.68l5.159-9.932l7.368-1.77l-0.111-24.082l5.499-0.138l-0.114-4.898h42.973v-5.104l11.171-0.067l5.61-9.727l15.876,0.337l0.114-5.303l5.61,0.067l0.056-12.996l3.46-2.177l0.34-0.272
				l-2.493-1.837l3.627-7.89l6.973-5.511l31.635,2.856l27.668-14.42l57.598-15.785l4.025-8.3l21.261,15.103l4.31-5.306l-3.63-3.334l-0.17-10.884h8.165v9.864h16.441v9.864h8.221l0.396,6.53l7.767,3.267h4.594l-0.454-28.368l10.544-4.222l-2.438-7.005l2.947-4.286
				l-7.028-8.165l7.198-15.85l5.443,1.157l-0.226,21.7l11.338-0.067l-0.056,14.763l21.372-0.135l0.056,9.521l32.654,0.138l-0.565,9.729h10.828l-0.284,9.932l21.486-0.138v-4.966l10.717-0.067v-28.708l10.6-0.07l-0.056-4.761l5.443-0.07l0.056-4.828l5.329-0.138
				l0.114-9.864l21.486-4.761l0.17-16.055l12.416-0.067l5.329-9.935l21.431,0.067l3.231,5.104l12.243,18.709l-1.359,10.679l-3.627,1.567l-0.114,0.27l1.418,14.493l6.803,9.727l-4.989,18.167l-6.519,4.351l30.047,23.61l5.329-13.406l7.597,2.25l5.271-4.494
				l-2.663-3.809l6.917-2.039l-1.359-7.348l8.332,5.168l8.391-1.699l15.478,6.803l-4.535,6.328l16.157,15.715l-13.664,6.123l-1.529,6.258l-9.299,0.545l-7.711,9.797l4.365,20.818l-2.777,6.325l-7.767,1.567l5.897,9.864l-2.098,6.527l9.126,5.648l-0.454,4.761
				l-7.368,0.68l-4.479,10.274l-8.959,15.647l2.326,8.707l-4.479,6.398l5.897,5.101l10.998-2.042l4.421,8.3l-5.555,9.322l-14.739,4.693l-5.558-4.354l-8.845,2.584l9.299,7.825l-8.051,5.235l6.747,7.825l-27.384-8.3l-11.736,17.007l-9.976-0.135l-7.995,9.252
				l-5.725-1.564l-5.728,11.294l-37.245-5.376l-8.561,12.108l-12.36,2.452l8.786,12.923l-9.979-7.685l0.454,9.999l-6.858,0.68l-5.104,20.004l5.045,6.325l-6.293,3.398l2.895,11.774l-27.838,23.877l-2.607,31.157l17.347-6.258l-0.794-7.893l5.159-5.443l6.293,4.901
				l16.327,1.359l10.377,9.999l-1.418,3.199l12.812-7.617l19.787,8.771l9.75-17.959l11.511-1.157l19.274,9.255l19.954,19.863l14.684-11.634l7.146,4.629l-2.496,9.727l-13.04,1.43l-3.911,9.047l-10.26,4.761l2.777,3.129l-6.407,8.165l5.045,9.592l14.572,3.812
				l-5.443,8.71l2.947,4.148l-7.313,9.524l11.622,2.312l-1.532,7.415l7.711,2.859l20.183-4.286l4.764-6.668l-0.51-18.847l12.697-7.143l0.454,11.637l-5.045,5.235l17.121-4.421l8.276,12.313l15.932,0.68l2.607,10.954l9.809-7.21l4.251,2.244l-1.078,5.101l4.934,4.629
				l-3.006,3.469l7.201,2.924l-4.421,3.132l30.557,14.285l-6.858,4.219l4.705,2.991l-7.541,2.517l5.953,4.289l-20.525-7.418l-15.135,5.786l-29.367-4.017l-1.983,8.912l8.218,3.469l4.649,18.097l14.004,6.533l2.493,5.918l162.369,0.34l-11.733,9.319l-22.96-3.129
				l0.056,18.981l5.669-5.104l6.293,6.87l3.627-3.943l4.424,3.264l1.248,9.252l11.394,1.362l-35.036,12.044l-7.597,7.14l-0.624,0.545l-29.877,1.77l-2.268,7.21l6.234,6.056l17.408-0.952l4.251,4.081l-2.836,1.497l4.195,4.898l-5.61,4.014l-37.816,3.812
				l-0.056,25.714l5.271,2.379l-0.621,4.222l8.332-4.014l-1.529,7.617l4.025,6.396l0.905,2.584l16.216-0.407l22.45,15.92l-1.928,11.227l-6.123,6.735l11.508,3.671l6.577,12.451l6.234,0.202l7.09,18.847l-2.95,15.647l7.485,8.64l-11.112,19.526l12.87,8.027
				l4.761,5.646l14.004-0.407l-1.418,10.816l4.479,0.067l4.761,11.496l-8.845,5.581l-3.401,5.713l13.099,21.976l15.135,1.292l8.9,10.682l-5.613,7.348l2.44,12.653l-10.318,9.387l7.538,14.423l-0.961,10.477l9.521,11.771l7.881,1.157l7.939,13.195l-0.853,6.328
				l13.89,15.577l18.428-7.957l13.207,8.979l-18.935,20.001l-6.407,24.422l0.68,30.343v131.165v42.791l10.717-5.783l19.104,15.035l76.649,52.588l26.76-17.824l12.756-3.401l7.482-9.457l29.253-10.884l22.96-0.205l6.352,5.716l2.777,20.613l-3.627,9.322l26.93,19.796
				l7.538,6.258l-3.401,4.286l1.529,18.234l-5.045,4.896l21.656,17.145l-4.816,6.463l9.92,11.499l-11.452,4.283l-0.34,14.833l-4.365,5.511l19.444,11.631l7.257-1.837l5.159,18.167l16.781,2.244l0.059,7.553l22.846,4.219l2.666-15.105l7.538,18.437l10.772,2.654
				l-1.869,7.688l8.73,4.421l-4.025,4.696l1.474,4.421l12.132,0.955l5.613-13.948l3.741,5.988l15.308,0.407l9.524,9.727l19.444,6.396l12.984,21.36l5.61-1.904l9.299,8.777l7.482-5.988l13.154,0.888l9.806-6.126l4.764-7.688l1.869-17.619l-3.853-12.451l16.213-21.838
				z"/>
			<text transform="matrix(1 0 0 1 2686.0981 877.8618)"><tspan x="0" y="0" style="fill:#000000;stroke:none;">96</tspan></text>
		</g>
		<g style="stroke-miterlimit:1;">
			<g>
				<path d="M2296.468,5415.351l1.646-6.601l-7.541-11.701l-0.229,6.261l-9.524,8.572l-9.07,3.059l-7.427-4.014l-21.486,17.959l14.229,2.93l10.204-4.629l28.348,12.516l5.783-4.148l30.442-1.632l-20.238-18.231l-15.138-0.34z"/>
				<path d="M2756.136,5445.351l2.607-10.611l12.416-8.845l-24.094-14.692l-6.806,4.078l-5.669-2.651l-12.981,8.64l1.755,7.617l-6.12,7.553l-12.53,3.674l-27.609-4.488l-14.798-15.99l-14.965-2.517l-11.171-8.027l-29.253,5.309l-26.646-13.813l-34.526-4.354
					l-2.947,5.648l2.836,4.354l-6.521,2.312l12.812,3.132l17.52,15.577l-6.234,16.737l7.482,18.709l31.86,13.605l33.902,0.542l8.616-3.196l12.305,2.927l39.006-19.321l52.553-5.033l7.201-6.873z"/>
				<path d="M2510.71,5460.181l-17.687,2.587l-19.562-12.589l-2.663-9.791l4.025-15.65l-8.165-1.02l-18.425,11.906l-28.459-4.219l-21.261,13.673l-29.537-2.856l-11.449,5.101l23.13,20.546l16.553,32.725l37.813,20.546l8.449-9.39l27.721-4.556l18.088-14.833
					l28.345-4.424l-5.385-10.204l-1.532-17.552z"/>
				<path d="M2802.51,5953.001l-19.274-5.921l-20.186-11.698l-15.023,9.524l-9.979-5.033l2.836,7.14l4.934,12.316l11.622,12.381l26.361,9.117l16.667,2.856l16.951-3.536l9.75-6.398l-8.672-3.196l-15.987-17.552z"/>
				<path d="M2172.536,3161.404l10.263,7.348l1.078-5.783l3.911-0.202l0.056-9.864l0.114-14.698l-19.389-2.312l-1.983,9.252l5.78,6.938l0.17,9.322z"/>
				<path d="M4243.189,4285.552l-29.593-5.235l1.078-9.662l19.954-0.067v-42.926l-116.956-0.275l-10.828-22.925l-8.619-18.167l-3.006-21.428l-14.171-13.878l4.875-9.932l-3.46-25.649l2.326-6.806l-10.603-16.6l2.323-18.299l-3.853-4.151l2.153-10.477l-3.006-7.688
					l3.006-16.324l-4.594-13.063l8.675-20.344l-5.215-7.755l-10.658-6.12l-15.023,0.34l-18.029-10.887l-15.023-17.824l-18.026-51.498l-36.683-50.411l-30.952,2.651l-8.335-7.415l-11.054,4.216l-9.018-5.44l-1.075-6.94l-6.123,9.797l-18.029-5.985l-13.321-18.639
					l-17.291,10.951l-8.73-41.977l9.979-4.761l-1.928-22.995l7.937-19.931l5.61-5.174l13.664,0.885l18.539-15.645l-12.018-7.213l-4.992-12.993l-4.986-2.722l-0.624-0.612l-8.675-4.354l-13.266-10.409l-13.266-26.191l12.416-13.336l0.905-8.229l22.509,9.794
					l6.404-2.927l3.404-18.026l-4.424-52.386l21.601-11.836l10.488-16.937l12.926-43.406l-5.104-23.268l9.073-41.159l9.976-16.327l5.953-28.233l27.665-4.69l29.877,12.176l10.488-20.481l21.659-2.786l1.983-9.322l7.652-8.027l-309.712-275.391l-341.52-296.818
					l-51.079-44.086l-154.433-132.39l-301.775-255.319l-11.622,19.523l0.908,20.001l-4.875,6.806l3.457,10.813l-10.998,14.288l2.947,8.912L2838,2457.755l-9.524-6.258l-6.182,17.212l7.655,16.802l-4.535,2.109l56.977,5.783l5.499,14.086l0.226,14.76l6.803,12.176
					l17.804,18.167l22.392,1.359l-0.735,8.505l-9.694,0.814l-0.683,11.502l18.144,19.046l-0.114,9.047l-4.479,5.581l2.44,7.482l0.621,8.912l1.928-4.014l4.989,7.822l-16.213,21.838l3.853,12.451l-1.869,17.619l-4.764,7.688l-9.806,6.126l-13.154-0.888l-7.482,5.988
					l-9.299-8.777l-5.61,1.904l6.688,4.764l-1.588,6.94l5.329,7.213l-9.864,37.345l7.711,15.105l25.172,13.808l0.056,9.729l15.082,0.612l15.023,8.095l6.064,10.137l-7.482,7.62l-1.986,16.805l11.681,3.129l-6.067,4.219l1.646,5.443l-7.315,7.822l6.747,4.626
					l0.964,11.294l-29.312,26.259l-0.51,7.69l-7.427,3.943l5.048,8.572l9.636-1.292l15.138,9.797l10.148-15.308l40.195,1.295l31.916,31.225l9.469,29.73l12.586,10.204l-1.134,18.097l6.747,11.974l-155.452,149.326l-8.675-8.979l-5.613-11.566l-3.173,2.994
					l-5.273-5.168l-0.396-8.572l9.012-14.218l11.282,3.264l14.628-10.544l-5.045-11.836l-4.875-0.138l-3.234-16.192l-6.009-5.648l-46.26-9.797l-8.335,9.322l-6.688-7.21l-1.362,16.667l-6.463,3.062l-3.346-4.219l-11.279,18.571l-12.076,8.845l-9.469,18.642
					l-5.613-14.968l-7.597-1.837l2.552-2.177l-3.457-2.109l9.639-9.182l-2.212-6.873l10.315,1.157l12.929-8.572l-2.61-3.129l3.516-3.401l-2.719-7.075l3.229-15.445l-9.352-11.634l-58.793,4.354l-0.17,26.329l-17.572,0.067l-9.073-2.517l-15.308,4.286l-10.939-4.556
					l-3.97-8.572l-8.106,3.466l-2.042-0.34l-7.937-0.407l-8.391,21.498l-14.229,5.648l-12.132,38.03l-3.062,0.202l0.51,7.075l-9.923,9.457l-1.075-3.062l-43.541,46.125l-10.998-8.3l3.855-5.985l-15.478-4.831l-5.104-38.777l-11.848,9.252l-3.967,13.131l-26.59,3.946
					l3.346-5.581l-6.577-9.864l0.396-13.878l-19.219-13.4l-9.809-12.724l0.738-17.347l-4.365-1.5l-5.953,2.725l2.326,14.83l-7.711,2.651l-0.624,7.485l-34.641,29.728l-18.425,23.543l-23.244,12.381l9.58,19.523l8.959,8.367l5.725,26.874l19.163,15.17l30.445,12.108
					l14.001,14.968l-136.854-0.407l-1.304,9.592l-12.135,0.272l-29.763,0.067l0.17,41.432l-13.151,8.095l-22.963,9.797l-17.177,1.292l-37.134,35.581l-8.675-13.198l0.964-6.665l-19.784-27.349l-0.908-11.974l-14.174-17.689h4.251l-23.016-13.269l-3.627-6.46
					l-8.051,0.135l-12.416-10.066l-7.825-0.205l6.463-0.952l-18.99-18.571l-28.802-0.07l-0.621,4.898l-2.071-0.264l4.734,11.013l3.003-4.219l4.14,6.261l-1.474,14.763l8.505,10.271l-2.552,5.309l4.025-2.18l3.006,5.648l19.954,2.924l0.454,14.423l-7.143-3.539
					l-14.798,3.199l-8.391-17.619l-12.302,1.359l-7.201-8.912l-10.658,4.898l-11.622,16.462l-0.51,23.813l-53.745-0.135l-8.959-14.968l-39.343-0.34l-0.226,4.898h-13.893l-22.277-5.988l-4.764,2.927l-6.521-5.851l-10.544,2.856l-15.138-4.421l-18.595-14.766
					l-25.228,9.117l-2.777,2.789l5.385,7.96l-6.688,7.28l-0.738,10.477l-8.505,5.309l21.146,18.706l-2.549,4.491l-7.257-0.205l0.51,10.614l-13.664,4.148l8.789,23.335l-6.806,4.354l-0.396,6.735l19.333,17.484l-9.923,11.089l-2.607,10.614l6.861,10.271l13.151-2.651
					l8.051,3.604v8.572l8.619,7.758l3.117,10.679l6.123,2.449l6.404,19.729l117.809,57.691l8.505,7.825l35.716,34.556l146.552,136.948l0.056,66.126l0.284,42.589l-12.021,6.396l-25.682,3.196l-11.109,13.541l-0.114,5.235l5.839,4.289l-3.176,8.774l-38.777-29.048
					l-6.574,1.154l8.672,7.143l14.288,25.852l6.688,31.025l3.911,1.904l-5.839,12.108l-12.756-6.668l-6.519,3.132l-10.148-2.722l-8.73-12.313l-20.013-16.125l0.738-4.488l-14.912-7.348l0.114-6.601l-8.335-9.322l-12.697-6.255l-8.903,3.059l-17.235-14.08
					l-18.48,24.489l-18.539-12.381l-4.025,15.715l-12.642,1.09l-2.323,6.12l-4.705-0.067v-10.477l-7.541,2.856l-0.284-36.123l-44.956-43.336l-45.697-47.692l-0.34,0.208l-7.822-10.752l-4.649,0.545l-9.07-21.973l-34.811-0.68l-4.479,4.354l-1.813-3.879l4.649-8.707
					v-0.683l4.705-5.646l-3.176-6.87l-17.631-16.939l-1.075-8.303l5.95-2.379l-2.209-5.44l5.104-16.465l-9.753-9.252l-3.855-10.816l-10.204-9.864l-26.476-1.362l-5.159-11.634l-8.73-3.809l-7.257,3.809l-8.276-8.572l-5.728,0.202l-8.561-19.658l18.539-6.94
					l-6.179-12.926l-7.541-3.876l-3.457-11.159l-12.645,5.783l-32.145-32.859l-20.918-21.7l-14.435-7.447l-3.472-0.056l-0.026-5.15l-0.437-0.68l-3.401,5.915l3.407,9.48l-2.695,6.41l-6.727-2.827l-1.556-4.415l-8.537,7.251l-5.039,2.197l-3.741-5.988l-7.529,5.394
					l-8.874,3.609l-2.279,6.735l8.25,5.561l-1.758,6.935l12.642,0.75l-24.337,3.492l-3.753,6.853l1.16,4.896l-9.41,4.896l0.794,4.491l-21.601,12.519l3.404-7.143l-5.218,7.617l-12.416-13.266l-5.329,47.08l-9.92,25.849l-14.628,22.521l-7.708,4.898l-4.365,1.632
					l-7.825-0.885l-1.248-3.741l3.401-0.067l-7.313-6.261l-18.595-13.061l-3.911,13.198l-8.051,5.171l-5.558,16.805l-7.143,3.809l13.664,12.721l3.457-4.081l9.185,6.735l0.51,8.572l-1.134,3.267l5.218,0.814l-1.418,9.729l-6.917,3.943l-8.051-3.671l-1.078,3.671
					l9.354,9.595l-4.646,9.727l10.26,20.479l-2.836,6.873l13.834,39.319l-1.248,24.223l9.979,14.897l-6.574,19.934l4.022,2.719l-19.333,28.028l23.982-29.115l21.545,17.484l7.992,19.116l13.494,10.342l22.11,7.008l13.436,12.448l19.219,7.143l10.544,13.811
					l13.21,8.098l26.136,33.469l3.176,16.67l16.327,17.892l7.992,26.736l37.813,11.089l7.315,6.598l8.391,18.571l5.44,26.874l4.479,3.062l-3.287,4.356l6.463,11.224l-1.022,10.204l29.367,22.518l12.814,20.206l24.492,20.751l12.188,15.715l-0.738,8.367l5.953,3.401
					l0.059,28.233l15.135,16.192l1.816,16.939l8.561-1.497l16.667,10.204l11.962,0.067l14.572,11.704l3.627-5.921l9.92,3.469l24.891,29.391l14.625,31.16l27.554,28.23l27.554,31.5l20.634,0.885l12.246,9.047l23.188-1.228l17.232,22.998l5.048,13.878l1.134,14.15
					l-3.401,2.924l4.195,0.885l0.226,9.524l-5.555,28.913l-9.299,25.582l-4.025,1.837l0.624,8.095l-1.644,8.03l21.601,21.495l1.415,6.53l40.254,19.456l14.455,12.182l3.686,0.135l-0.738-10.137l9.018-2.722l0.214,0.999l0.829,0.111l0.322-0.832l-0.686-0.891
					l3.571-2.856l-3.346,2.786l7.313,3.472l8.789-0.612l20.408,15.308l12.642,3.334l7.09,12.788l2.663,7.688l1.758,11.294l-1.813,47.42l-8.561,38.64l-13.04,48.645l14.229,1.427l4.195,7.62l0.17,6.393l13.04,9.255l3.853,10.066l-15.814,65.244l20.918,34.966
					l-28.403,87.012l6.976,3.267l1.189,8.095l10.488,4.629l20.637-2.517l33.108,18.164l11.563,12.586l3.46,11.496l11.224,13.4l2.722,18.504l10.433,4.017l6.463-6.396l57.032-4.966l26.25-8.027l38.607,0.205l48.642-2.109l29.821,8.977l45.636-0.202l29.256,17.145
					l17.689,0.952l24.943,16.532l20.977,3.741l3.797-7.893l8.561-0.75l24.381,2.317l13.605,5.508l14.795,6.396l18.653-4.286l6.237-7.55l14.965-2.385l27.838-2.379l18.879,5.511l9.75-0.814l12.756,12.176l34.072,14.558l6.691-0.612l13.037,15.173l7.939-0.75
					l21.032,24.563l9.41-2.859l39.8,35.309l6.519-5.036l15.533,30.275l27.894,59.391l7.313,0.747l8.221,3.744l16.102,13.605l20.127,14.15l21.542,0.138l14.174,7.957l-3.741-4.828l4.025-3.469l-3.234-6.056l2.836-3.536l41.897-28.438l-7.257-11.294l5.555,0.478
					l6.352-11.977l9.07-2.584l12.697-16.327l6.182,0.68l0.226-7.822l9.015-0.135l13.945-8.505l16.67,0.952l-4.819-5.783l1.925-2.927l22.395,0.545l-2.889,2.856l-2.836,8.777l2.777,2.722l30.785,7.553l11.279,3.674l6.691-3.404l19.673,11.364l7.822-1.5l0.284-6.188
					l4.989-3.337l-1.248-5.373l12.36-8.435l12.981-2.517l6.917,0.135l0.114-16.125l-2.438-18.911l-8.675-21.498l-10.374-25.239l-12.642-31.295l-26.08-63.132l-42.067-101.438l48.586,0.817l118.772,1.567l0.114,27.958l34.298,0.615h6.009l38.156-25.515l1.415-5.851
					l17.52,7.553l1.813,9.114l-9.126,5.241l8.332,7.752l-2.323,1.84l23.64,12.176l-31.181,0.272l-25.397,17.212l84.586,0.68l5.159,2.927l-3.63,10.069l8.109,15.507l-2.438,6.059l-21.035,7.89l-4.934,11.566l-12.642,0.545l-6.009,8.502l12.246,7.485l-1.529,10.951
					l14.227-0.135l6.691,11.496l-10.658,17.35l2.607,0.68l-0.226,0.478l6.803,1.767l3.516-5.168l6.688,8.364l12.53-4.011l46.318-33.472l41.385,26.599l2.268,3.334l-5.897,4.693l-10.318,3.949l1.758,4.283l-7.594,13.063l0.281,16.122l-16.497,17.212l-7.711,1.975
					l1.983,6.396l-7.424,1.154l-10.828,6.19l7.764,7.008l28.916,11.361l-0.85-5.033l7.198,6.598l16.781-7.893l0.964,9.867l4.764,4.626l20.01,9.454l7.201-1.02l19.843,14.083l10.658-0.75l3.457,15.445l18.313-0.138l-0.059,19.594l5.842,0.138l13.945,0.135
					l17.121-0.475l10.374-11.499l28.122-0.135l-1.872,11.021l8.276-0.138l-0.111,11.227l3.343-0.07h4.025l3.741-10.477l33.111,0.545l14.001,0.135l9.712-44.851l8.657-40.189l-2.663-33.334l-1.307-18.504l-1.983-30l-2.098-60.275l-0.114-40.348l-3.967,0.07
					l-0.023-27.521l-0.091-19.828l-0.396-110.824l0.111-21.633h20.241l-0.114-109.529l0.624-96.401l0.056-2.517v-80.751l122.572-53.203l38.663-21.771l19.163-21.36l25.002-3.062l5.045-7.62l-1.134,89.599l9.466,0.542l10.998-0.067h156.645l12.756-0.135
					l-2.552-28.099l3.176-212.461l1.02-57.284z M1492.02,3739.03l-10.415-4.354l2.256-3.243l8.312,5.145l-0.152,2.452z"/>
			</g>
			<text transform="matrix(1 0 0 1 3636.0776 2895.8391)"><tspan x="0" y="0" style="fill:#000000;stroke:none;">93</tspan></text>
		</g>
		<g style="stroke-miterlimit:1;">
			<g>
				<path d="M4124.587,6394.253l2.777-6.053l-3.003-1.907l2.722,0.27l-4.819-5.508l3.117-0.885l-3.967,0.205l-3.911-14.016l-8.675-11.294l3.627-6.396l-8.106,1.702l-3.516-4.286l4.479,1.157l1.758-9.39l-9.753-6.393l-11.789-8.37l-12.984,8.303l0.624,13.673
					l17.517-3.196l13.664,10.746l13.38,23.742l6.858,34.834l8.279-4.017l-8.279-12.923z"/>
				<path d="M4241.036,6413.776l-4.31-11.974l-7.597,0.612l-15.082,7.96l-16.723-3.129l2.153,6.056l-7.368,0.202l-0.114-5.646l-12.756,2.654l-26.704-2.997l-7.708-9.387l-4.649,11.159l2.098,20.613h-9.75l0.056,15.984l31.919-3.398l116.561-11.974l-5.443-9.457
					l-34.582-7.28z"/>
				<path d="M5822.429,5242.821l-10.603-9.861l-11.282-21.501l-27.894-11.291l-20.862-23.47l-13.55-3.337l-8.051-14.625l-15.759-10.204l-4.479-5.988l-7.655,0.34l-13.321,2.177l-7.371-7.482l4.878-33.609l-1.588-15.237l-13.778-27.144l-17.291-16.465l5.897-4.761
					l0.621-6.533l-8.276-7.482l-1.529-14.355l-9.354-9.932l4.251-6.601l-11.622-30.885l-9.354-2.994l-36.964-34.219l-17.572-43.116l-23.897-21.322l-6.208-16.383l3.571-17.824l-1.418-61.295l-71.83-69.393l-469.189-447.51l-33.958-32.112l-178.755-166.743
					l-501.504-460.916l-248.997-223.55l-7.652,8.027l-1.983,9.322l-21.659,2.786l-10.488,20.481l-29.877-12.176l-27.665,4.69l-5.953,28.233l-9.976,16.327l-9.073,41.159l5.104,23.268l-12.926,43.406l-10.488,16.937l-21.601,11.836l4.424,52.386l-3.404,18.026
					l-6.404,2.927l-22.509-9.794l-0.905,8.229l-12.416,13.336l13.266,26.191l13.266,10.409l8.675,4.354l0.624,0.612l4.986,2.722l4.992,12.993l12.018,7.213l-18.539,15.645l-13.664-0.885l-5.61,5.174l-7.937,19.931l1.928,22.995l-9.979,4.761l8.73,41.977
					l17.291-10.951l13.321,18.639l18.029,5.985l6.123-9.797l1.075,6.94l9.018,5.44l11.054-4.216l8.335,7.415l30.952-2.651l36.683,50.411l18.026,51.498l15.023,17.824l18.029,10.887l15.023-0.34l10.658,6.12l5.215,7.755l-8.675,20.344l4.594,13.063l-3.006,16.324
					l3.006,7.688l-2.153,10.477l3.853,4.151l-2.323,18.299l10.603,16.6l-2.326,6.806l3.46,25.649l-4.875,9.932l14.171,13.878l3.006,21.428l8.619,18.167l10.828,22.925l116.956,0.275v42.926l-19.954,0.067l-1.078,9.662l29.593,5.235l-1.02,57.284l-3.176,212.461
					l2.552,28.099l-12.756,0.135h-156.645l-10.998,0.067l-9.466-0.542l1.134-89.599l-5.045,7.62l-25.002,3.062l-19.163,21.36l-38.663,21.771l-122.572,53.203v80.751l-0.056,2.517l-0.624,96.401l0.114,109.529h-20.241l-0.111,21.633l0.396,110.824l0.091,19.828
					l0.023,27.521l3.967-0.07l0.114,40.348l2.098,60.275l1.983,30l1.307,18.504l7.764,6.598l15.99,0.955l7.881,9.864l15.759,5.306l-19.444,6.601l4.535,4.488l-2.496,5.104l-7.313,0.545l1.922,4.266l9.246,31.655l11.962-17.212l20.297-0.885l26.646,15.372
					l6.803-0.882l11.282,18.231l14.684,12.858l-2.722,2.654l-1.359,2.177l-1.646-3.609l-24.094,11.977l-4.025-5.578v6.53v11.089l5.443-0.067l-20.353,20.206l-0.056,9.864l-4.878,19.931l-0.396,6.533l-0.114,23.197l10.743,0.021l0.369,18.981l0.108,20.505
					l-0.563,2.197l-10.26,3.946l-0.059,13.945l4.594,0.205l-0.229,24.152l8.845,11.019l-7.031,7.553l2.326,3.741l14.115-8.707l9.598,6.161l2.938,8.66l-2.915,1.31l7.784,3.498l27.214,2.889l17.232,7.688l4.649,7.755l-12.357,0.885l-21.715,10.611l-5.44-5.915
					l-18.369-3.064l-19.559,3.539l7.597,25.307l9.75,6.908l9.044-9.85l11.285,1.31l-12.744,6.99l8.373,6.557l-14.637,1.31l-0.981,4.6l11.021,9.246l13.702,2.32l10.195,7.975l-12.41-5.253l-6.463,23.13l-9.07,10.477l-8.391-8.3l-22.395-2.651l-11.338-2.792
					l-1.362-31.228l-25.286-8.162l-15.079-19.046l-16.837-22.521l-15.082-19.526l-4.816-6.732l-0.738-0.955l-31.805-26.326l-29.481-24.425l-6.803-5.848l0.056-9.595l-5.045-0.135l-0.111-4.969l-8.449,0.07l-7.028,11.156l-6.46,0.091l-8.736-0.296l4.31-6.94
					l-0.674-1.737l-4.837,3.24l-2.227-5.259l-6.606,10.969l-24.718-6.806l-4.251,15.65l3.346,0.067l-0.059,10.002l-4.705-0.07l4.649,4.901l-7.313-1.907l2.323,6.803l1.248,3.129l-11.906,3.132l-16.327,1.02l-4.989,2.449v4.966l5.045,0.343l0.226,14.42l-4.931,1.972
					l0.114,7.146l3.686-2.722l1.304,3.606l-4.594,0.407l-0.34,1.699l2.212,11.297l-15.422,5.033l-5.555,5.033l3.797,0.952l-3.686,8.774h3.744l16.497-3.809l1.351,5.314l-0.973,3.229l-4.348,1.799l0.302,12.996l-13.069-12.088l-0.044,4.808l-14.684,0.202l-2.493,7.62
					l-0.908,4.014l0.738,17.145v4.014l-0.17,9.727l-20.016,3.199l7.09,9.252l19.049,22.383l24.659,21.36l17.634,10.819l15.475,16.192l27.894,8.912l10.772,6.938l11.848,6.938l14.854,15.785l16.556,5.985l13.775,18.914l16.022,19.767l9.773,16.154l12.246,2.719
					l-2.777-2.856l7.822-0.542l22.11,14.42l20.297,21.976l7.878,14.83l27.328,14.355l23.81,21.431l57.202,80.071l3.8,4.764l21.885,30.68l8.845,13.131l17.121,38.438l13.151,38.78l6.803,21.088l4.31,16.33l5.669,28.436l0.34,2.244l4.591,40.207l-4.816,13.333
					l-7.485,0.817l-4.705,8.095l0.68,11.769l10.831,11.771l4.535,31.157l28.061-0.475l4.594-0.205l7.767,11.701l-0.964,1.564l-1.02-0.475l-1.588-0.952l-1.078-0.545l-1.529-0.407l-0.284-0.138l-0.114-0.407l-0.281-0.407l-0.513-0.07l-1.245,0.07l-0.34,0.202
					l-2.042,0.612l-0.738,0.138l-2.607,0.68l-1.078,0.202l-1.585-1.02l-5.558-4.898l-2.607,3.472l-5.443-6.738l-9.126,1.564l-2.607,23.065l7.992,37.62l5.613-14.355l-3.741-4.966l1.925-14.558l7.26-2.382l-4.989,6.665l6.803-7.479l-3.686-3.812l5.045,1.904
					l1.248-4.148l3.741-0.817l6.577,1.43l-8.956,1.699l21.316-1.564l0.111,10.342l14.514,10.884l8.73,5.309l10.603,9.387l-4.421,3.129l3.117,8.232l3.967-16.939l14.684-6.668l12.076,2.247l-4.875,5.78l3.627,12.586l12.7-4.761l11.906-12.926l-1.702-6.463
					l4.025-1.837l-2.493-12.586l-4.989-2.314l-0.624,4.626l-2.268-4.424l-7.146,4.084l-0.111-12.246l-5.215,0.275l1.418-1.907l2.947-3.674l1.134-1.02l-2.44-12.586l7.201-4.424l-3.062-4.488l-6.688-2.452l6.064-4.963l1.307,2.856l4.421-7.005l17.405-1.975
					l10.714-1.022l-0.284,11.496l16.67,2.452l-2.156,4.148l4.588,4.767l1.808,2.227l2.739,0.357l-0.861,4.389l11.06,7.562l4.397-0.252l0.132,0.574l2.716,4.128l6.457-6.48l-4.614-2.394l16.878-13.518l-3.062-14.353l10.204,6.393l10.148-1.494l3.117,5.238
					l14.35-19.714l25.834-0.472l-20.555-3.797l3.105-6.97l-5.385-7.69l2.719-4.831l-8.332-3.876l3.627-9.524l8.221,5.78l8.165-24.829l6.519-4.898l-0.794-21.976l2.44,2.18l5.385-18.981l6.744-7.075l8.675-5.921l-0.68-12.721l19.049-6.601l26.191,9.595l5.839-12.586
					l6.917-0.135l4.479-8.643l13.436,1.497l6.691,10.069l10.544,4.491l8.616-13.743l26.988,27.823l5.385,14.49l12.132,9.393l0.284,6.8l12.018,9.117l7.711,12.721l9.864,5.851l1.248-5.376l3.571,0.817l5.839,11.977l-2.493,2.584l1.644,4.011l-5.273,4.901l1.588,3.943
					l15.363-0.135l8.675,8.707l1.418-6.595l7.427-5.106l24.434-10.816l0.056,8.572l-9.521,4.966l0.17,14.695h4.646l0.059,9.797l9.58,0.138l0.284-9.797l50.399,0.475l-1.869,69.732l7.992-0.272l0.34,45.038l26.531,16.734l27.498-0.952l4.195-4.761l-0.114,17.484
					l251.66-22.998l171.264-14.938l13.327-1.184l122.622-10.33l223.547-18.718h3.627l10.204-18.302l7.257,5.443l40.594,6.396l1.189-4.289l18.879-0.27v-5.033h9.809v-4.898l14.344-0.208l0.056-4.828l6.917-0.135l-2.212-24.697l35.036-35.171l0.056-26.124
					l-1.644-10.069l4.368-7.348l-8.051-10.137l-1.702-9.932l6.973-11.294l0.114-10.137l-13.834-0.612l-5.329-26.191l-8.106-11.974l-31.863-5.918l-15.193,8.502l-14.514-3.401l-11.224-13.195l-9.24,10.951l-7.427-7.348l-8.561-27.961l-10.772-4.216l5.104-24.902
					l11.282-23.537l3.398-41.364l-9.296-17.007l9.864-8.777l-5.725-10.271l-22.793-8.572l-4.646-9.592l13.266-14.968l5.669-19.731l-5.273-20.476l-10.204-15.305l13.38-2.314l7.767-6.463l21.771,2.924l12.756-13.535l2.382-15.65l17.291-28.708l12.926-7.143
					l4.875-5.104l1.189-10.271l19.673-14.423l-7.143-12.179l-2.153-13.945l10.6-14.355l-5.271-7.755l3.797-6.53l-4.931-12.313l10.828-5.851l-9.185-4.491l-0.624-5.985l4.195-7.011l15.592-7.479l1.304-7.553l-10.093-18.369l4.025-17.35l-13.151-37.008l3.683-8.572
					l-5.725-18.094l14.229-6.396l1.813-7.825l-12.697-16.6l7.597,0.68l2.153-5.238l-14.965-13.336l-0.284-6.053l7.652-14.288l12.416-4.148l23.13-22.45l-3.741-11.089l14.399-5.646l2.892-41.092l13.438-20.613l25.623-5.851l7.541-9.797l18.369-3.809l18.99-21.703
					l17.689-1.77l15.363-9.729l2.153-11.021l33.507-31.564l0.794-6.601l18.823-0.475l-3.855-29.118z"/>
			</g>
			<text transform="matrix(1 0 0 1 5784.0752 5023.8486)"><tspan x="0" y="0" style="fill:#000000;stroke:none;">92</tspan></text>
		</g>
		<g style="stroke-miterlimit:1;">
			<g>
				<path d="M3679.491,5470.18l-9.126-2.514l-27.554-2.856l-10.544-7.146l-11.681-21.021l-7.767-2.924l6.237-5.174l16.837,0.68l-7.822-13.603l-7.257,5.235l-9.469,4.629l-6.404-2.449l-1.418,4.556l-10.488,1.362l-16.67-10.477l-3.855,3.267l7.541,2.856l-7.822,6.053
					l-12.756-4.148l-7.881,0.135l-7.143-2.379l-0.059-5.376l-7.538,0.067l0.056-0.34l0.284-0.612l2.268-11.429l2.663-17.892l2.892-6.598l-12.87-0.067v-3.609l7.031-13.605l-6.349,0.545l-5.388-8.845l3.12-3.741l-2.836-1.02l-24.434-2.042l0.565,7.143l-4.816,0.75
					l0.68,5.646l-10.207,1.09l-0.34,1.225l-10.09-16.263l-2.268-5.37h-0.284l-1.418,0.337l-18.993-0.952l-7.822,1.77l-1.588,1.77l-5.045,2.789l-1.474,0.609l-2.663,1.975l-9.413-0.612l0.284,5.716l-5.045,3.398l-3.176,5.514l-12.814,1.497l-0.961-6.601l-13.436-0.68
					l-7.939-0.612l-2.722,0.475l-14.739,0.753l-6.747-0.48l-12.416,0.41l-9.41-0.205l-13.661,1.837l-11.906-3.267l-2.212-4.421l-17.461-2.584l-0.794,0.067l-4.594,0.135l3.914,1.907l-6.633,8.572l-5.672-7.62l-6.803,2.856l-2.833,5.238l2.607,1.632l-8.845,2.856
					l2.042,16.67l-6.123,5.033l6.293,4.424l-16.951,10.749l-10.942-5.581l5.613-1.837l-14.344-5.373l2.212,5.306l-0.229,0.34l-7.087,5.376l-5.839-7.485l-39.457-6.396l-3.062-5.78l-14.402,2.177l-7.934-7.553l-7.43-0.407l3.064-4.626l-1.928-10.477l-23.584,6.87
					l-25.002-5.168l-2.326,7.755l8.051-4.084l3.741,3.879l-17.575,4.693l0.85,7.28l-9.976,6.19l-8.903-0.34l-3.513,12.176l3.741,4.286l28.799,13.878l48.984,6.735l24.548,22.315l12.7-14.285l22.846-7.485l35.036,1.02l8.276-5.643l57.375-1.635l26.985,9.39
					l5.897,4.556l3.568,3.606l5.728,6.601l4.195,7.415l9.809,11.021l3.513,10.406l5.795-3.706l-3.697,4.729l16.102,31.02l3.574,7.825l8.048,19.049l5.783,17.01l-0.51,5.848l4.931,3.267l-1.755,23.2l-19.333,20.136l6.088,10.421l3.492,12.709l28.913,2.654
					l15.478,10.547l7.184,3.246l5.121,2.329l9.806,6.396l9.639-2.312l-4.195-4.764l1.529-6.598l4.538,7.348l-1.362-8.367l3.006,3.876l-3.63-13.605l4.535-6.328l-3.176,6.328l5.897,11.974l-3.401-9.659l5.273,3.671l7.937-14.218l3.343,6.735l13.608-1.635
					l-14.174,0.343l-1.644-4.626l6.123,0.272l1.078-4.084l1.529,3.132l-0.738-3.609l1.872,3.064l0.34-4.559l4.251,3.132l-0.961-6.668l-10.207-1.497l9.07-2.997l1.816,4.222l3.686,5.575l3.457-4.488l-4.705,12.721l5.385,4.151l-2.663-6.056l3.457-1.972l1.644,3.943
					l3.46-4.148l3.513,6.261l-8.162,2.722l11.678,0.68l-0.85-10.477l-9.75-5.514l-2.156-6.735h0.85l5.558,6.735l15.987-1.699l30.615,10.544l-1.307,3.267l8.9,4.693l19.506,16.26l-7.09-9.252l20.016-3.199l0.17-9.727v-4.014l-0.738-17.145l0.908-4.014l2.493-7.62
					l14.684-0.202l0.044-4.808l13.069,12.088l-0.302-12.996l4.348-1.799l0.973-3.229l-1.351-5.314l-16.497,3.809h-3.744l3.686-8.774l-3.797-0.952l5.555-5.033l15.422-5.033l-2.212-11.297l0.34-1.699l4.594-0.407l-1.304-3.606l-3.686,2.722l-0.114-7.146l4.931-1.972
					l-0.226-14.42l-5.045-0.343v-4.966l4.989-2.449l16.327-1.02l11.906-3.132l-1.248-3.129l-2.323-6.803l7.313,1.907l-4.649-4.901l4.705,0.07l0.059-10.002l-3.346-0.067l4.251-15.65z"/>
				<path d="M3354.697,6178.048l-28.459-36.601l-3.8-12.788l-7.254-5.716l-1.588-10.207l-6.463-6.393l-7.427,3.536l-3.855-4.963l-7.031,2.584l0.513,11.903l10.374,3.132l8.332,27.891l12.87,16.67l2.212,18.097l9.354,9.117l5.725,13.603l7.427,4.286l4.081,18.302
					l37.872,24.627l4.31,9.935l17.572-15.853l21.943,5.511l4.137-3.062l-61.737-57.964l-19.107-15.647z"/>
				<path d="M3448.526,5895.107l-3.346-9.457l-20.807-21.565l1.248-11.156l-38.496-13.541l-24.718-15.032l-11.282,4.761l-2.153-7.825l-8.221-2.856l-12.642-13.878l-7.087,3.062l-31.579-4.081l18.879,21.431l-0.17,5.643l32.484,9.322l1.872,2.449l6.237-9.727
					l-2.552,6.665l10.544,5.716l7.937,24.012l-6.519,6.466l-2.098,11.291l13.266,20.818l24.322,6.193l27.041-2.109l28.119,14.285l11.452-6.261l1.022-8.162l-7.26-15.375l-5.496-1.087z"/>
			</g>
			<text transform="matrix(1 0 0 1 3214.0645 5573.8569)"><tspan x="0" y="0" style="fill:#000000;stroke:none;">90</tspan></text>
		</g>
		<g style="stroke-miterlimit:1;">
			<g>
				<path d="M3970.327,5546.378l-27.214-2.889l-7.784-3.498l2.915-1.31l-2.938-8.66l-9.598-6.161l-14.115,8.707l-2.326-3.741l7.031-7.553l-8.845-11.019l0.229-24.152l-4.594-0.205l0.059-13.945l10.26-3.946l0.563-2.197l-0.108-20.505l-0.369-18.981l-10.743-0.021
					l0.114-23.197l0.396-6.533l4.878-19.931l0.056-9.864l20.353-20.206l-5.443,0.067v-11.089v-6.53l4.025,5.578l24.094-11.977l1.646,3.609l1.359-2.177l2.722-2.654l-14.684-12.858l-11.282-18.231l-6.803,0.882l-26.646-15.372l-20.297,0.885l-11.962,17.212
					l-9.246-31.655l-1.922-4.266l7.313-0.545l2.496-5.104l-4.535-4.488l19.444-6.601l-15.759-5.306l-7.881-9.864l-15.99-0.955l-7.764-6.598l2.663,33.334l-8.657,40.189l-9.712,44.851l-14.001-0.135l-33.111-0.545l-3.741,10.477h-4.025l-3.343,0.07l0.111-11.227
					l-8.276,0.138l1.872-11.021l-28.122,0.135l-10.374,11.499l-17.121,0.475l-13.945-0.135l-5.842-0.138l0.059-19.594l-18.313,0.138l-3.457-15.445l-10.658,0.75l-19.843-14.083l-7.201,1.02l-20.01-9.454l-4.764-4.626l-0.964-9.867l-16.781,7.893l-7.198-6.598
					l0.85,5.033l-28.916-11.361l-7.764-7.008l10.828-6.19l7.424-1.154l-1.983-6.396l7.711-1.975l16.497-17.212l-0.281-16.122l7.594-13.063l-1.758-4.283l10.318-3.949l5.897-4.693l-2.268-3.334l-41.385-26.599l-46.318,33.472l-12.53,4.011l-6.688-8.364l-3.516,5.168
					l-6.803-1.767l0.226-0.478l-2.607-0.68l10.658-17.35l-6.691-11.496l-14.227,0.135l1.529-10.951l-12.246-7.485l6.009-8.502l12.642-0.545l4.934-11.566l21.035-7.89l2.438-6.059l-8.109-15.507l3.63-10.069l-5.159-2.927l-84.586-0.68l25.397-17.212l31.181-0.272
					l-23.64-12.176l2.323-1.84l-8.332-7.752l9.126-5.241l-1.813-9.114l-17.52-7.553l-1.415,5.851l-38.156,25.515h-6.009l-34.298-0.615l-0.114-27.958l-118.772-1.567l-48.586-0.817l42.067,101.438l26.08,63.132l12.642,31.295l10.374,25.239l8.675,21.498l2.438,18.911
					l-0.114,16.125l-6.917-0.135l-12.981,2.517l-12.36,8.435l1.248,5.373l-4.989,3.337l-0.284,6.188l-7.822,1.5l-19.673-11.364l-6.691,3.404l-11.279-3.674l-30.785-7.553l-2.777-2.722l2.836-8.777l2.889-2.856l-22.395-0.545l-1.925,2.927l4.819,5.783l-16.67-0.952
					l-13.945,8.505l-9.015,0.135l-0.226,7.822l-6.182-0.68l-12.697,16.327l-9.07,2.584l-6.352,11.977l-5.555-0.478l7.257,11.294l-41.897,28.438l-2.836,3.536l3.234,6.056l-4.025,3.469l3.741,4.828l14.569,1.907l15.647,11.294l11.622,2.514l-3.741-4.286l3.513-12.176
					l8.903,0.34l9.976-6.19l-0.85-7.28l17.575-4.693l-3.741-3.879l-8.051,4.084l2.326-7.755l25.002,5.168l23.584-6.87l1.928,10.477l-3.064,4.626l7.43,0.407l7.934,7.553l14.402-2.177l3.062,5.78l39.457,6.396l5.839,7.485l7.087-5.376l0.229-0.34l-2.212-5.306
					l14.344,5.373l-5.613,1.837l10.942,5.581l16.951-10.749l-6.293-4.424l6.123-5.033l-2.042-16.67l8.845-2.856l-2.607-1.632l2.833-5.238l6.803-2.856l5.672,7.62l6.633-8.572l-3.914-1.907l4.594-0.135l0.794-0.067l17.461,2.584l2.212,4.421l11.906,3.267
					l13.661-1.837l9.41,0.205l12.416-0.41l6.747,0.48l14.739-0.753l2.722-0.475l7.939,0.612l13.436,0.68l0.961,6.601l12.814-1.497l3.176-5.514l5.045-3.398l-0.284-5.716l9.413,0.612l2.663-1.975l1.474-0.609l5.045-2.789l1.588-1.77l7.822-1.77l18.993,0.952
					l1.418-0.337h0.284l2.268,5.37l10.09,16.263l0.34-1.225l10.207-1.09l-0.68-5.646l4.816-0.75l-0.565-7.143l24.434,2.042l2.836,1.02l-3.12,3.741l5.388,8.845l6.349-0.545l-7.031,13.605v3.609l12.87,0.067l-2.892,6.598l-2.663,17.892l-2.268,11.429l-0.284,0.612
					l-0.056,0.34l7.538-0.067l0.059,5.376l7.143,2.379l7.881-0.135l12.756,4.148l7.822-6.053l-7.541-2.856l3.855-3.267l16.67,10.477l10.488-1.362l1.418-4.556l6.404,2.449l9.469-4.629l7.257-5.235l7.822,13.603l-16.837-0.68l-6.237,5.174l7.767,2.924l11.681,21.021
					l10.544,7.146l27.554,2.856l9.126,2.514l24.718,6.806l6.606-10.969l2.227,5.259l4.837-3.24l0.674,1.737l-4.31,6.94l8.736,0.296l6.46-0.091l7.028-11.156l8.449-0.07l0.111,4.969l5.045,0.135l-0.056,9.595l6.803,5.848l29.481,24.425l31.805,26.326l0.738,0.955
					l4.816,6.732l15.082,19.526l16.837,22.521l15.079,19.046l25.286,8.162l1.362,31.228l11.338,2.792l22.395,2.651l8.391,8.3l9.07-10.477l6.463-23.13l12.41,5.253l-10.195-7.975l-13.702-2.32l-11.021-9.246l0.981-4.6l14.637-1.31l-8.373-6.557l12.744-6.99
					l-11.285-1.31l-9.044,9.85l-9.75-6.908l-7.597-25.307l19.559-3.539l18.369,3.064l5.44,5.915l21.715-10.611l12.357-0.885l-4.649-7.755l-17.232-7.688z"/>
				<path d="M4140.179,6409.288l-7.313-2.112l-8.279,4.017l0.738,19.187l3.967,15.984l3.29-0.478l-0.056-15.984h9.75l-2.098-20.613z"/>
				<path d="M4702.743,6376.224l-27.498,0.952l-26.531-16.734l-0.34-45.038l-7.992,0.272l1.869-69.732l-50.399-0.475l-0.284,9.797l-9.58-0.138l-0.059-9.797h-4.646l-0.17-14.695l9.521-4.966l-0.056-8.572l-24.434,10.816l-7.427,5.106l-1.418,6.595l-8.675-8.707
					l-15.363,0.135l-1.588-3.943l5.273-4.901l-1.644-4.011l2.493-2.584l-5.839-11.977l-3.571-0.817l-1.248,5.376l-9.864-5.851l-7.711-12.721l-12.018-9.117l-0.284-6.8l-12.132-9.393l-5.385-14.49l-26.988-27.823l-8.616,13.743l-10.544-4.491l-6.691-10.069
					l-13.436-1.497l-4.479,8.643l-6.917,0.135l-5.839,12.586l-26.191-9.595l-19.049,6.601l0.68,12.721l-8.675,5.921l-6.744,7.075l-5.385,18.981l-2.44-2.18l0.794,21.976l-6.519,4.898l-8.165,24.829l-8.221-5.78l-3.627,9.524l8.332,3.876l-2.719,4.831l5.385,7.69
					l-3.105,6.97l20.555,3.797l-25.834,0.472l-14.35,19.714l-3.117-5.238l-10.148,1.494l-10.204-6.393l3.062,14.353l-16.878,13.518l4.614,2.394l-6.457,6.48l-2.716-4.128l-0.132-0.574l-4.397,0.252l-11.06-7.562l0.861-4.389l-2.739-0.357l-1.808-2.227l-4.588-4.767
					l2.156-4.148l-16.67-2.452l0.284-11.496l-10.714,1.022l-17.405,1.975l-4.421,7.005l-1.307-2.856l-6.064,4.963l6.688,2.452l3.062,4.488l-7.201,4.424l2.44,12.586l-1.134,1.02l-2.947,3.674l-1.418,1.907l5.215-0.275l0.111,12.246l7.146-4.084l2.268,4.424
					l0.624-4.626l4.989,2.314l2.493,12.586l-4.025,1.837l1.702,6.463l-11.906,12.926l-12.7,4.761l-3.627-12.586l4.875-5.78l-12.076-2.247l-14.684,6.668l-3.967,16.939l-1.418,7.146l-0.34,11.496l8.051-2.382l5.725,13.673l-6.463,6.668l6.237-0.817l7.708,9.387
					l26.704,2.997l12.756-2.654l0.114,5.646l7.368-0.202l-2.153-6.056l16.723,3.129l15.082-7.96l7.597-0.612l4.31,11.974l34.582,7.28l5.443,9.457l55.5-5.581l126.938-12.516l81.469-8.027l68.426-6.466l93.431-8.977l0.114-17.484l-4.195,4.761z"/>
			</g>
			<text transform="matrix(1 0 0 1 4432.0654 6559.8584)"><tspan x="0" y="0" style="fill:#000000;stroke:none;">91</tspan></text>
		</g>
	</g>
</svg>
