<?xml version="1.0" encoding="iso-8859-1"?>
<!DOCTYPE svg PUBLIC "-//W3C//DTD SVG 20000303 Stylable//EN"   "http://www.w3.org/TR/2000/03/WD-SVG-20000303/DTD/svg-20000303-stylable.dtd">
<!-- Generator: Adobe Illustrator 9.0, SVG Export Plug-In  -->
<svg  width="2029.512pt" height="1127.875pt" viewBox="0 0 2029.512 1127.875" xml:space="preserve">
	<g id="Zip_x0020_Code_x0020_Boundaries_x0020_G" style="fill-rule:nonzero;clip-rule:nonzero;fill:#FFFFFF;stroke:#000000;stroke-width:0.25;stroke-miterlimit:4; font-family:'ArialMT'; font-size:72;">
		<g style="stroke-miterlimit:1;">
			<g>
				<path d="M1542.112,248.512l3.287-2.38l-2.839-2.517l-0.448,4.897z"/>
				<path d="M1537.12,237.694l1.245-3.059l-4.644-0.885l3.398,3.943z"/>
				<path d="M1566.036,159.461l-3.349,3.059l3.574,3.267l-0.226-6.325z"/>
				<path d="M1554.358,157.485l6.12,1.838l4.875-4.625l-10.828-3.608l-0.167,6.394z"/>
				<path d="M1602.074,192.751l0.188,0.179l1.072,0.567l0.287,0.113l-0.284,0.274l-0.003-0.139l-1.102-0.604l-0.311,0.129l-0.797-0.067l0.586-0.209l0.27-0.335l-0.176-2.991l-0.527-0.13l-0.316,0.13h-0.627l0.059-0.545h0.964h0.114l-8.736-3.13l-4.928,7.484
					l1.755-9.592l5.502,1.293l2.833-0.614l-1.661-5.005l0.091-0.037l0.038-0.331l-0.343,0.067l-0.51,0.204l-3.492,1.361l-0.226,0.125l0.026-0.086l0.07-0.038l-1.535-1.43l-0.149-0.305l0.097-0.17l0.182,0.199l0.041,0.208l1.928,0.205l-0.284-3.743l0.038-0.025
					l-0.103-0.015l6.888-6.741l-0.662,0.032l0.475-0.125l0.17-0.135l4.594-0.204l-6.469-5.851l-15.814-4.83l-1.137,5.644l2.186,0.366l0.088,4.739l0.117-0.057l0.164-0.079v0.476l-0.199-0.237l-5.531,0.1l0.041,0.335l0.023,0.211l-0.231,0.135l-0.167,0.07h-0.287
					l-0.135,0.665l0.158-0.136l0.205-0.19l0.457,0.069l0.278,0.067l0.056,0.272l0.176,0.34l-0.287-0.135l-0.17-0.07l-0.035-0.311l-0.521,0.041l-0.293,0.475l-0.343-0.135l0.179-0.158l0.267-0.943l0.182-0.262l-0.229-0.407l-1.339-0.687l-0.018,0.007l-5.73-1.225
					l3.855,3.81l-0.088,0.35l-0.082,0.33l-0.501-0.42l-0.349,3.684l0.029,0.743l-0.141-0.129l0.111-0.34l-2.836-1.973l2.156-1.972l-5.218-4.831l-6.067,1.906l-2.666,6.596l-4.078-9.592l3.911-1.497l-4.532-4.283l-4.254,3.674l4.986-9.729l-12.076,2.653l11.625-8.162
					l22.676,10.204l-10.887-13.812l-23.414-5.918l2.525,6.781l-5.47-5.079l-3.349,5.646l3.12-7.417l-9.354,0.478l5.502-3.063l-5.218-2.584l12.132,3.81l-4.251-10.002l-8.391-0.271l-11.455,10.34l-1.585-2.858l4.365-1.972l-6.123,0.272l6.691-1.02l-5.502-5.102
					l5.385,3.672l1.588-10.818l-8.449-6.939l-11.859,6.27l9.993-6.27l-4.594-1.497l19.277,3.741l-3.976-14.004l-2.619-7.784l9.656,4.917l14.569,34.425l8.276-1.225L1527.367,49.8l-1.755-33.955l-17.745,7.688l-20.977-14.628l-16.608-2.789l-50.739,15.785
					l-15.196,2.924l-12.7,17.689l-6.006,18.234l-27.671-7.351l-11.054-2.925l-19.389,8.845l-8.9,9.592l0.34,38.575l-23.871-6.192l-17.971,7.008l-21.882,26.805l-42.519-0.885l-50.229-1.499l-48.073-1.494l-61.799-1.702l-42.577-1.226l-25.966-0.68l-71.543-2.313
					l-46.887-1.292l-73.477-2.651l-97.512-2.996l-73.131-2.651l-26.361-0.954l-32.994-1.157l-46.433-1.564l-44.109-1.427l-64.966-2.043l-26.479-0.885l-50.004-1.292l-54.99-1.361l-79.711-1.904l-57.489-1.359l-23.751,76.942l-25.629,82.793l-17.859,58.304
					l-15.475,50.276l-15.023,48.844l-12.984,42.387l-13.04,42.586l-14.112,46.67l6.404,24.899l34.072-0.612l61.397,1.77l18.202,0.478l70.354,2.651l67.465,2.382l123.759,2.177l12.132,0.135l-1.811,26.464l28.348-3.671l3.967-9.527l-3.006-3.469l4.313,0.747
					l3.229-6.258l-2.326-4.081l23.643-0.478l32.145,2.109l26.42,1.907l2.209,4.081l13.945,0.202l28.746-6.393h41.61l52.784,0.814l53.572,0.814l40.482,0.48l36.396,0.542l19.954,1.022l60.492,1.225l61.966,1.699l44.845,0.612l3.117,10.477l67.008-2.312l51.141-1.497
					l15.984-0.407l36.627-1.975l-0.117-32.317l-3.229-26.804l-3.003-6.87l4.532-2.312l13.154-9.729l0.056-16.872l8.048-0.885l19.11-14.423l15.759,0.407l-1.248-6.527l11.227-2.52l23.133-5.985l-4.708-6.396l7.995-3.334l-2.725-3.744l7.714-8.569l-1.702-9.659
					l16.781-0.545l-3.176-15.513l-10.714-29.115l-0.853-12.246l-3.062-43.881l9.243,2.651l4.875-4.966l15.138-0.135l0.794-8.232l3.967,1.225l4.025-9.592l-3.117-24.082l4.365-7.893l13.605-12.653l20.695,16.329l8.273,10.885l6.75,6.527l-2.44,2.657l18.255,0.337
					l11.906,0.208l5.443-12.182l4.025-13.74l-4.31-18.507l10.544-0.814l6.24,0.545l8.276,8.912l-1.362,9.457l13.834-1.159l15.984,21.089l3.858-3.539l5.101,11.637l7.09,1.427l7.371-0.27l0.111,5.713l13.037-12.519l-5.725-0.747l-6.75,6.867l5.9-9.929l5.438,1.292
					l7.6-6.873l6.234-1.154l1.137,27.554l10.093-4.764l4.931,5.104l4.482-3.062l-15.252-5.443l-2.95-3.674l3.173-2.927l-4.761,0.545l0.853-13.333l7.594-6.735l15.706,3.946l7.995-11.837l3.908,2.108l-3.343-2.653l14.684-8.367l7.767,1.904l4.646-11.36l-13.266,9.183
					l7.658-10.954l-2.725-4.695l2.725-2.584l-12.076-1.768l-6.861,13.334l-6.747,2.584l2.774-5.578l-3.34-9.728l2.32,2.585l6.803-9.729l2.839,3.129l-2.552-3.876l3.741-1.159l-2.382-2.313l-8.73,7.008l-1.699-8.232l-6.747,9.39l0.281-12.179l6.067-4.557
					l-2.209,5.442l6.744,1.564l6.691-6.122l3.627,2.858l5.555-4.422l6.299-0.239l0.223,0.101l0.105-0.114l9.475-0.36l16.664-8.64l13.33-5.987l-4.764,9.457h3.624l22.169-13.54l2.326,5.102l7.594-3.129l9.413-0.681l8.335-7.891l-0.398-5.581l6.803-8.64l-5.232-1.811z
					"/>
				<path d="M1593.813,175.313l1.477,4.08l0.111-0.27l3.231-2.656l0.343-0.475l-0.182,0.083l1.822-2.805l-6.803,2.042z"/>
				<path d="M1628.91,189.054l7.286-3.483l-0.261-3.185l16.271-5.102l-0.738-10.544l-0.565-7.279l-15.308-0.138l1.872-18.097l-5.95-3.198l-5.839,4.355l-3.12-1.632l-16.67,19.116l3.231,6.188l0.114-0.201l0.568,0.201l-0.448,0.237l-2.048,2.893l0.416-0.916
					l-0.255-0.788l-0.39,1.704l4.705,9.253l-3.908,5.646l-1.986-2.379l-1.266,5.701l-0.311-0.088l-0.217,0.221l0.264,0.154l7.652,1.834h0.457l2.663,0.683l0.278,0.28l-0.108,0.262l-3.059,2.815l4.122-1.141l3.413-1.809l-1.986,4.534l-3.454,1.453l3.46,7.958
					l-4.79,8.448l4.79,0.192l1.532-6.734l10.77-8.572l-1.477-8.843l-1.078-1.633l-0.188-0.079l-0.094,0.214l-0.398-0.066l0.041-0.144l0.527-0.196l0.337,0.133l0.454,0.07l-0.056,0.271l0.741,1.43z"/>
				<path d="M1524.479,126.94l2.209-4.83l-4.251,2.651l2.042,2.178z"/>
			</g>
			<text transform="matrix(1 0 0 1 584.8896 72)"><tspan x="0" y="0" style="fill:#000000;stroke:none;">01</tspan></text>
		</g>
		<g style="stroke-miterlimit:1;">
			<g>
				<path d="M1430.482,391.923l1.137-5.578l-4.482,0.68l3.346,4.898z"/>
				<path d="M1415.459,399.133l7.084-7.825l-10.315,5.309l3.231,2.517z"/>
				<path d="M1516.996,1113.734l15.533,6.601l2.098-6.396l-5.897-4.354l-11.733,4.148z"/>
				<path d="M1706.805,1048.015l-5.499-3.876l0.396-11.294l-3.967-5.851l4.588-6.19l1.705,3.264l-2.268-5.03l-0.021-0.05l-0.07-0.038l-23.607-12.366l6.741,6.873l-4.928,1.837l-8.505-7.21l0.343-5.581l-6.803,4.831l4.307-13.605l4.764,1.359l1.866-6.463
					l-7.084-18.911l-13.154,7.143l3.8,4.626l-10.884,15.785l-0.114-7.28l6.521-7.893l-5.385,1.09l6.627-4.898l-7.992,1.02l1.189-17.212l-18.82,9.797l4.819-0.34l0.735,13.266l-1.811-7.008l-6.917-2.789l2.552-3.062l-12.873,4.148l-9.24,12.451l-16.383,6.056
					l-6.237,16.6l-11.054,7.755l-20.525,29.936l3.858,4.556l-4.427,11.634l4.143,3.199l-13.723-3.949l0.967-8.162l8.613,0.07v-6.94l-8.159,3.674l-14.399-5.306l-14.229,1.497l-2.098,5.848l20.974,21.633l14.063,8.165l6.516-12.041l13.951-10.409l50.112-8.232
					l25.228-1.904l62.648,1.702l13.708-1.497h-21.249l6.691-4.424z"/>
				<path d="M1831.753,1076.999l9.724,12.855l11.479-0.135l-5.496-7.72l-15.706-5.001z"/>
				<path d="M1813.729,1062.168l4.134,2.446l7.482-4.148l-13.775-1.497l2.159,3.199z"/>
				<path d="M1675.398,1007.128l-0.343,0.272l-0.167,0.275l0.167,0.132l0.51-0.132l0.513-0.478l0.111-0.202l-0.17-0.343h-0.34l-0.281,0.475z"/>
				<path d="M1669.272,998.691v0.346l0.226,0.27l0.229-0.067l0.281-0.478v-0.475l-0.17-0.135l-0.398,0.202l-0.167,0.337z"/>
				<path d="M1676.925,1006.042l0.062,0.202l0.223,0.34h0.343l0.677-0.407l0.059-0.34l-0.287-0.545l-0.565-0.68l-0.624-1.087l-0.337-0.41l-1.075-1.904l-0.574-1.292l-0.448-1.228l-0.229-1.289l-0.114-0.407v-0.343l-0.111-0.885l-0.111-0.34l-0.686,0.067l0.059,1.362
					l-0.17,1.295l0.17,0.475l0.738,0.68l0.281,0.545l0.117,0.612v0.817l0.281,0.882l0.735,0.683l0.284,1.02l0.568,0.814l0.735,1.362z"/>
				<path d="M1624.372,826.37l5.728,7.213l0.68-11.224l-6.407,4.011z"/>
				<path d="M2003.986,1085.773l-27.211-47.212l-16.102-15.853l14.631,16.125l-3.744,18.981l-18.088,21.768l-16.778,7.758l7.31,2.991l1.307-4.898l12.188-5.168l23.701-31.362l-3.574,5.575l6.75,0.952l5.215,10.137l-8.449,7.348l-10.772,1.837l5.446,7.008l7.371,0.68
					l-7.09,2.859l2.777,1.157l-3.006,3.674l-0.794-8.165l-11.792,7.143l-10.377-0.814l-3,5.713l-11.341,7.688l-4.875-7.213l4.14-2.312l-7.937-4.896l-49.72,1.087l-9.188,3.943l8.959,2.314l-4.934,8.232l5.385-2.449l-6.627,4.219l1.471-3.267l-9.697,1.157
					l57.094,22.45l57.656,2.789l15.082-3.539l12.979-6.325l3.176-8.232l-0.056-9.659l-7.485-14.221z"/>
				<path d="M1996.618,892.021l9.923-41.637l-4.31,5.716l-2.159,17.212l-5.777,3.946l-3.234,25.172l-11.508,12.448l7.031,5.921l9.182-9.05l0.853-19.729z"/>
				<path d="M2022.186,737.046l-3.12,4.488l2.895,0.885l0.226-5.373z"/>
				<path d="M2021.052,781.742l-3.231-3.536l3.973,1.494l-4.143-7.28l-2.892,5.648l3.516,4.219l2.777-0.545z"/>
				<path d="M2016.689,803.31l0.621-6.328l-6.691,1.837l6.07,4.491z"/>
				<path d="M2025.247,738.951l-0.677,7.213l-5.218,2.174l-5.897-12.311l-6.463,4.283l5.101-7.143l6.296,6.258l4.705-5.851l-9.413-42.724l-9.861-29.32l-13.099-29.593l-31.69-46.942l-25.456-17.347L1901.43,556.9l-33.677-2.927l-13.775,5.716l-4.022,7.348
					l4.532,2.042l-0.018-0.668l-0.056-2.493l6.48,1.731l-4.195,2.382l18.791,19.468l-1.67-2.938l3.003,1.635l9.354-16.125l19.107-4.764l25.963,15.647l10.488,19.729l2.156,12.041l0.738-4.283l3.231,3.809l4.421-2.244l-3.516,4.761l-4.875-1.43l1.248,22.793
					l6.009,54.287l-0.343-23.402l7.43-6.053l-8.786-1.567l0.735-4.896l4.816,3.264l20.303-4.828l0.732,9.182l-4.535-3.741l-0.905,3.062l8.329,9.387l3.803-0.475l-2.895-3.334l15.478-0.814l-9.58,5.235l4.594,4.629l-3.231,4.148l4.931,2.452l-5.783,6.665
					l-2.552,5.238l3.627,37.69l4.819-1.362l-6.404,4.084l2.892,2.856l-5.215,4.626l3.176,0.272l-8.224,5.168l-0.51,4.901l-59.183,18.642l-32.147,5.168l-31.181,12.176l-2.836,3.812l3.782,0.606l-15.463,8.646l-12.422,2.789l-3.507-0.34l-21.372,2.215l-9.812-1.603
					l3.63-1.77l-0.574-1.477v-0.003l-1.356-3.486l-10.6,1.225l8.789-1.702l-5.804-5.235h23.209l8.789,5.168l-2.271-3.469l15.422-0.545l-11.736-6.19l-49.491-3.129l-36.062-9.319l-27.378-14.698l-14.341,1.635l0.053-1.295l14.514-2.312l-4.611-2.751l-15.082-13.421
					l-4.57-6.073l-2.098-3.809l-0.513-10.207l9.354-18.639l-3.686-21.023l-5.613-7.89l-2.833-5.783l4.649-11.361l-17.007-9.457l-8.391-6.601l-20.921,5.786l-17.918-25.649l12.252,21.838l-10.664-2.109l-24.832-22.652l-3.686-9.457l-4.362-2.314l-3.686,4.966
					l1.477-6.598l13.661-10.682l4.365,8.979l5.953-2.517l-0.791-7.143l-4.084-0.272l4.025-3.879l-0.111-14.897l11.168,1.087l-11.566-3.943l0.226-5.443l0.624,4.354l3.627-0.475l-3.627-5.446l1.008-1.058l2.795,3.647l1.811,4.011l0.398-8.774l3.571,0.202l-1.418,7.28
					l5.104-0.407l-1.532,4.898l20.581,22.585l-14.063,14.423l14.288-9.592l7.594,2.994l-23.81-30l-3.967-17.417l1.474-4.562l4.137-1.767l-2.098-6.533l-21.598-23.332l-14.229-24.63l-3.797,2.587l6.009,3.196l6.691,13.676l-8.508-5.376l-0.059-5.44l-7.594-1.635
					l3.343-0.885l-3.454-6.396l-8.848,0.612l10.831-3.943l-2.496-12.451l2.889-8.707l-4.497,0.715l-1.055-5.273l6.117,1.567l-23.467-17.077l-7.028-18.097l-3.293,0.68l0.513,9.659l-6.803,1.157l-5.669-1.497l5.552-5.716l-3-3.741l-20.807-7.28l-17.918-5.03
					l-14.227-25.717l-15.193,1.564l-7.541,2.517l6.633,2.856l14.396-3.059l-1.02,7.412l5.956,9.524l-7.201,2.112l13.21-0.34l-1.078,4.693l6.917,1.904l-6.63,3.401l5.209,2.109l6.07-0.067l-6.914,0.68l-0.346,4.488l-11.678-15.372l-1.983,2.651l6.179,8.777
					l-3.853,7.143l-9.864-6.533l1.301-4.351l-10.204,0.747l-0.396,4.966l-9.527,5.036l-0.281,0.202l-3.343-0.272l1.304-4.151l8.558-1.834l-2.889-4.969l-0.398,4.151l-23.358,8.505l-0.621-0.205l-13.605-7.008l7.934-1.972l9.979,6.19l2.156-3.472l-4.875-3.738
					l8.218-0.683l-1.866-13.336v5.581l-10.154,5.716l-13.775-1.5l-12.07-10.477l-2.783-4.828l8.502-2.52l-0.621-6.393l9.867-4.356l-13.723,3.337l-4.137,6.053l-9.357-4.761l5.162,6.732l-4.424,4.219l-3.229-11.903l-5.385-1.972l3.741,0.202l0.958-6.668l6.806,1.09
					l-7.652-6.806l0.398-4.011l17.118-1.09l3.287-4.084l-2.663-3.671l-15.817,2.584l2.719-3.334l7.881-2.719l-12.076-5.376l-5.098,4.898l-2.385,1.497l2.783-3.946l2.777-5.783l-2.042-5.783l-4.421,0.205l-0.287-0.545l6.973-5.511l-6.914-3.196l6.858,1.154
					l-4.31-4.761l9.018,1.157l-3.574,9.457l2.098,4.693l9.188,0.067l11.224,11.634l-0.229-5.918l8.505,1.494l2.836-3.943l-9.639-3.946l3.176-7.963l-4.705-1.292l-2.098,4.154l-3.63-3.267l4.31-4.626l8.279,1.427l-0.967,7.688l13.436-0.747l-0.51,10.682l11.338,8.572
					l-9.521-10.749l-1.134-16.942l2.944-2.312l-7.881-2.382l-5.666-10.544l3.855-10.749l-0.111-5.713l-7.371,0.27l-7.09-1.427l-5.101-11.637l-3.858,3.539l-15.984-21.089l-13.834,1.159l1.362-9.457l-8.276-8.912l-6.24-0.545l-10.544,0.814l4.31,18.507l-4.025,13.74
					l-5.443,12.182l-11.906-0.208l-18.255-0.337l2.44-2.657l-6.75-6.527l-8.273-10.885l-20.695-16.329l-13.605,12.653l-4.365,7.893l3.117,24.082l-4.025,9.592l-3.967-1.225l-0.794,8.232l-15.138,0.135l-4.875,4.966l-9.243-2.651l3.062,43.881l0.853,12.246
					l10.714,29.115l3.176,15.513l-16.781,0.545l1.702,9.659l-7.714,8.569l2.725,3.744l-7.995,3.334l4.708,6.396l-23.133,5.985l-11.227,2.52l1.248,6.527l-15.759-0.407l-19.11,14.423l-8.048,0.885l-0.056,16.872l-13.154,9.729l-4.532,2.312l3.003,6.87l3.229,26.804
					l0.117,32.317l22.617-0.407l43.488-0.683l0.056,22.995v47.42l-0.231,15.032l24.381-3.536l2.663,24.557l-4.644,12.249l3.964,5.985l-6.803,8.435l3.683,16.875l7.26,12.108l18.709,9.659l18.99,9.524l22.055,30.343l-0.454-14.692l9.694,4.623l-5.725,6.193
					l4.137,3.738l7.711-8.912l0.624,9.797l19.444-10.477l-1.242,11.769l-3.803-2.106l-8.449,11.224l-6.744,11.021l13.55-0.407l-2.435,5.171l23.977,5.326l0.513,0.114l-0.671,10.313l-0.009,0.437h-0.021l-0.208,2.042l-3.967,17.145l3.401-6.87l2.549,11.358
					l-3.571,3.472l-1.644-0.75l0.853,1.087l4.195,7.893l6.064,64.564l18.536-6.601l-5.44-1.904l-0.167-9.864l-12.946-12.665l-1.685-7.474l9.24,4.966l12.249,15.718l3.601,0.439l4.506,4.937l0.853-3.542l4.872-10.611l-4.872-14.08l3.287-5.241l7.482,12.788
					l0.331,14.713l0.012,0.46l0.056,2.382l3.398,2.719l2.212,0.955l5.613,7.55l1.046-0.158l0.144-0.114l0.123,0.1l-0.396,0.062l-0.861,0.179l-0.202,0.053l-4.274-0.325l-2.552-6.8l-3.797-1.087l-0.062,0.064v-0.272l-3.568,1.362l-0.173,3.196l-14.566-2.584
					l-0.117,0.021l-4.758,2.361l26.473,6.87l3.346,12.791l-0.34-10.477l9.012-5.854l10.433-5.646l12.929,2.244l1.245-17.007l-5.159,0.747l-0.275-7.318l9.135,3.41l-0.923-1.33l3.062-4.559l-0.129,8.534l8.918,14.394l-0.964-8.229l4.708-7.213l10.711-1.359
					l-12.697-31.228l-3.346-0.135l-0.794,7.072l-4.028-9.932l3.574-1.225l-1.758-6.053l13.21,15.372l6.009-10.679l-1.477-11.701l4.937-2.177l6.009,12.243l6.58,3.062l-7.488-18.097l3.571-4.623l6.349-0.272l3.234-5.514l10.887,4.764l2.039,17.077l7.031,12.586
					l3.797-9.662l-6.064-18.844l8.162-3.062l8.391,2.177l6.237-6.94l4.251,7.348l5.215-3.126l-2.098-8.098l-11.162-6.278l4.075-5.016l26.136,4.286l-2.268,3.539l5.613,3.469l-1.699-4.084l6.627-3.671l-5.039-16.805l12.129,1.564l-12.642-24.762l0.343-3.202
					l4.816,2.859l0.17-6.803l1.811,10.002l21.489,21.088l0.226-10.544l-8.561-9.797l8.335,3.196l1.644-4.761l-24.434-22.992l20.748,15.167l-0.223-8.845l8.104-8.229l5.443,2.449l-6.463,2.244l0.621,6.261l12.475,3.334l-5.44-5.171l7.371,3.401l1.301-3.946
					l6.407,9.864l7.992,1.564l-12.188,16.462l14.514-17.959l-4.992-5.78l8.848,1.699l-13.21-9.39l6.519,1.022l-2.379-2.382l2.944-1.904l10.034,5.508l-1.131-6.053l9.188-2.379l-1.875,6.325l12.645-5.036l-11.625,5.716l-0.565,6.056l-2.353,1.831l7.395-2.104
					l-0.393,1.553l-0.797,15.999l-3.633-2.317l-0.674-4.351l3.574-1.359l-4.31,1.359l1.181,4.207l-5.32-3.39l5.385,7.485l-12.697,4.011l-9.07,9.117l9.352-0.407l9.639-8.438l0.229,7.893l5.438-2.109l-4.134,7.482l6.577-0.478l-8.139,5.44l-0.17-0.064l0.029,0.138
					l-8.619-3.062l-4.986,4.966l18.82,5.036l-0.621-5.443l3.117,4.286l-7.825,8.297l-1.075-3.059l-11.396,3.126l-1.359,5.446l5.215-2.654l1.298,4.84l-2.774-0.214l4.254,7.62l-7.26,9.252l8.959,2.039l-3.908,3.949l1.529,4.081l-2.496-6.533l-4.477,0.067
					l5.218,13.676l2.153-2.449l-0.964,6.735l-7.146,9.319l-4.14,15.445l4.937-0.135l-4.143,2.924l-15.249,5.78v5.104l2.663,0.885l-0.565-5.306l4.649,1.02l3.686,6.665l1.758-3.809l6.123,5.101l7.313-12.721l29.988-7.685l23.133-5.104l10.658,4.148l-7.031-4.283
					l8.221-7.485l0.451-6.056l-12.076,13.403l12.252-18.097l4.365,4.488l2.493-3.129l-0.738,6.261l-1.189,6.53l10.09-11.361l2.382,6.803l-3.234-3.809l-14.625,16.122l23.358-4.488l20.124-22.793l9.697-13.535l30.498-2.587l8.449-8.095l-4.421-2.449l7.878-5.716
					l7.488-1.292l-2.543,1.904l8.774-0.747l2.212,0.612l5.273,2.312l2.666,3.879l13.148-6.328l11.227,1.77l-2.607-6.803l1.986-3.879l9.07,1.43l-1.055-6.791l4.172,1.893l-1.02,5.238l8.162,7.55l-8.449,1.702l-2.549,7.415l-4.591-1.632l4.532-2.856l-5.44,1.157
					l2.098,11.156l10.374-12.586l14.739-5.716l-5.839-1.154l5.956-0.885l0.226-4.222l-0.287,5.648l13.21-4.761l0.513-6.53l8.443-8.232l-7.594,12.381l21.715-3.196l23.692-3.53l10.608-2.663l4.248-4.148l0.343,3.196l23.81-2.106l0.738-0.431l4.418-0.521l14.344-3.539
					l17.294,10.477l12.753,1.157l7.828-14.016l-3.176-8.024l1.816-12.316l-21.208-0.952l8.622-0.885l-6.973-4.626l10.427,2.042l-1.134-3.949l-6.006-2.244l-9.527,5.443l-3.006-4.421l3.855-5.988l2.271-4.966l11.903-1.632l-2.552-6.873l4.819-8.297l-12.073-0.205
					l10.884-3.129l-4.764-3.469l4.025-1.77l-2.66-2.654l-0.457-1.292l5.329-1.09l-4.819,1.837l4.477,2.379l2.098,9.322l8.848-2.789l-5.329-5.713l8.903-1.567l-5.616,4.017l5.728,7.008l-3.176,3.196l6.293,12.246l-1.477,43.948l-7.368,13.605l-5.101,1.087l0.34,5.171
					l2.52-2.681l10.119-15.686l2.555-48.439l-4.14-46.397z M1375.038,374.099l-0.964-0.205l-0.229-0.475l-0.281-0.817l0.908-0.205l1.131,1.972l-0.565-0.27z"/>
				<path d="M1488.197,995.565l-10.318-1.225l-2.953,6.601l3.006,2.244l19.506-0.952l10.6-7.418l-4.986-11.361l-14.854,12.111z"/>
				<path d="M1467.953,1000.531l-4.986-4.488l-7.313,6.12l0.056,5.101l-5.385-0.064l0.908,4.014l22.734-9.39l-12.36-0.202l6.346-1.09z"/>
				<path d="M1605.379,942.5l-0.621-4.151l-12.305,1.975l5.666,5.985l7.26-3.809z"/>
				<path d="M1517.617,989.375l12.814-1.567l0.51-3.809l-3.231,2.449l1.761-3.536l-4.313-4.219l-8.561-0.475l-4.764,6.258l5.783,4.898z"/>
				<path d="M1534.401,971.89l-2.101,11.563l8.619,2.517l17.004-10.271l1.14-11.361l27.041-9.319l3.059-3.334l-3.173-3.606l5.388-4.966l-9.243-3.606l-47.733,32.385z"/>
				<path d="M1588.539,940.666l4.31-5.514l-6.463,1.359l2.153,4.154z"/>
				<path d="M1526.406,886.85l-4.251-0.135l-4.424-9.729l-3.457,1.087l-2.329,5.716l11.115,9.252l3.346-6.19z"/>
				<path d="M1387.258,937.106l-0.428-0.457l-0.114,0.205l1.884,2.15l4.579-4.125l-5.839,2.177l0.021-0.07l-0.103,0.12z"/>
				<path d="M1392.452,931.255l-0.519,0.088l0.565,0.75l0.17-0.817l-0.217-0.021z"/>
			</g>
			<text transform="matrix(1 0 0 1 1746.3877 711.5024)"><tspan x="0" y="0" style="fill:#000000;stroke:none;">02</tspan></text>
		</g>
	</g>
</svg>
