<?xml version="1.0" encoding="iso-8859-1"?>
<!DOCTYPE svg PUBLIC "-//W3C//DTD SVG 20000303 Stylable//EN"   "http://www.w3.org/TR/2000/03/WD-SVG-20000303/DTD/svg-20000303-stylable.dtd">
<!-- Generator: Adobe Illustrator 9.0, SVG Export Plug-In  -->
<svg  width="610.369pt" height="921.974pt" viewBox="0 0 610.369 921.974" xml:space="preserve">
	<g id="Layer_x0020_1" style="fill-rule:nonzero;clip-rule:nonzero;fill:#FFFFFF;stroke:#000000;stroke-width:0.25;stroke-miterlimit:4; font-family:'ArialMT'; font-size:6;">
		<g>
			<path style="stroke-miterlimit:1;" d="M498.563,258.916l1.588,0.067l2.496-9.387l-8.619,1.225l4.535,8.095z"/>
			<text transform="matrix(1 0 0 1 490.373 255.5439)"><tspan x="0" y="0" style="fill:#000000;stroke:none;">90840</tspan></text>
		</g>
		<g>
			<path style="stroke-miterlimit:1;" d="M424.014,271.569l-0.287,3.267l3.346,6.735l13.611-1.635l-14.18,0.343l-1.641-4.626l6.123,0.272l1.078-4.084l1.529,3.132l-0.738-3.609l1.875,3.064l0.34-4.559l4.248,3.132l-0.961-6.668l-14.344,5.235z"/>
			<text transform="matrix(1 0 0 1 423.2363 279.5703)"><tspan x="0" y="0" style="fill:#000000;stroke:none;">90822</tspan></text>
		</g>
		<g>
			<path style="stroke-miterlimit:1;" d="M478.102,234.767l0.053,9.182l-0.34,4.898l16.494,10.002l0.914,0.067h3.34l-4.535-8.095l8.619-1.225l-2.496,9.387l8.279,0.205l2.66-7.688l8.906-16.529l-41.895-0.205z"/>
			<text transform="matrix(1 0 0 1 486.1113 247.2007)"><tspan x="0" y="0" style="fill:#000000;stroke:none;">90815</tspan></text>
		</g>
		<g>
			<path style="stroke-miterlimit:1;" d="M468.797,258.714l0.059,4.693l28.857,0.814l-2.49-5.306l-0.914-0.067l-25.512-0.135z"/>
			<text transform="matrix(1 0 0 1 474.916 264.9746)"><tspan x="0" y="0" style="fill:#000000;stroke:none;">90814</tspan></text>
		</g>
		<g>
			<path style="stroke-miterlimit:1;" d="M435.691,248.779l3.059,4.966l-10.6,11.092l9.07-2.997l1.816,4.222l6.973-3.744l0.627-5.306l0.393,5.713h0.85v-4.488l20.918,0.478v-9.867l-21.088-0.202l-12.018,0.135z"/>
			<text transform="matrix(1 0 0 1 440.8613 255.9453)"><tspan x="0" y="0" style="fill:#000000;stroke:none;">90813</tspan></text>
		</g>
		<g>
			<path style="stroke-miterlimit:1;" d="M438.979,210.274h-7.711l-4.307,14.218l7.201,0.205l-4.822,16.939l6.352,7.143l12.018-0.135l0.568-33.879l-0.85-4.629l-8.449,0.138z"/>
			<text transform="matrix(1 0 0 1 431.4023 237.5703)"><tspan x="0" y="0" style="fill:#000000;stroke:none;">90810</tspan></text>
		</g>
		<g>
			<path style="stroke-miterlimit:1;" d="M492.949,210.137l-9.861,0.138v9.659l-12.305,3.129l0.568,10.752l6.75,0.952l41.895,0.205l7.992-6.261l-0.059-3.062l-10.547-0.542l-1.418-4.562l-4.875-0.135l-18.141-0.407v-9.867z"/>
			<text transform="matrix(1 0 0 1 486.1309 229.7681)"><tspan x="0" y="0" style="fill:#000000;stroke:none;">90808</tspan></text>
		</g>
		<g>
			<path style="stroke-miterlimit:1;" d="M448.277,214.766l6.574,19.184l16.5-0.135l-0.568-10.752l-1.986-16.324l-20.52,8.027z"/>
			<text transform="matrix(1 0 0 1 451.4785 223.8477)"><tspan x="0" y="0" style="fill:#000000;stroke:none;">90807</tspan></text>
		</g>
		<g>
			<path style="stroke-miterlimit:1;" d="M448.277,214.766l-0.568,33.879l21.088,0.202l9.357-4.898l-0.053-9.182l-6.75-0.952l-16.5,0.135l-6.574-19.184z"/>
			<text transform="matrix(1 0 0 1 453.9863 242.0703)"><tspan x="0" y="0" style="fill:#000000;stroke:none;">90806</tspan></text>
		</g>
		<g>
			<path style="stroke-miterlimit:1;" d="M457.576,183.878l-12.193,2.789l4.535,14.558l-2.49,8.912l0.85,4.629l20.52-8.027l11.906-5.648l-0.111-6.053l-2.438-7.28l-20.578-3.879z"/>
			<text transform="matrix(1 0 0 1 454.707 198.9453)"><tspan x="0" y="0" style="fill:#000000;stroke:none;">90805</tspan></text>
		</g>
		<g>
			<path style="stroke-miterlimit:1;" d="M468.797,248.847v9.867l25.512,0.135l-16.494-10.002l0.34-4.898l-9.357,4.898z"/>
			<text transform="matrix(1 0 0 1 468.3418 256.4053)"><tspan x="0" y="0" style="fill:#000000;stroke:none;">90804</tspan></text>
		</g>
		<g>
			<path style="stroke-miterlimit:1;" d="M495.223,258.916l2.49,5.306l-28.857-0.814l0.568,4.354l30.615,10.544l11.789-8.232l-3.398-10.884l-8.279-0.205l-1.588-0.067h-3.34z"/>
			<text transform="matrix(1 0 0 1 486.5059 275.1143)"><tspan x="0" y="0" style="fill:#000000;stroke:none;">90803</tspan></text>
		</g>
		<g>
			<path style="stroke-miterlimit:1;" d="M439.037,266.062l3.686,5.575l3.457-4.488l-4.705,12.721l5.385,4.151l-2.66-6.056l3.457-1.972l1.641,3.943l3.457-4.148l3.516,6.261l-8.162,2.722l11.678,0.68l-0.85-10.477l-9.75-5.514l-2.156-6.735l-0.393-5.713
				l-0.627,5.306l-6.973,3.744z M447.879,262.725v-4.488l20.918,0.478l0.059,4.693l0.568,4.354l-15.99,1.699l-5.555-6.735z M427.646,265.007l0.504-0.17l10.207,1.497l-14.344,5.235l3.633-6.563z"/>
			<text transform="matrix(1 0 0 1 449.7188 278.8613)"><tspan x="0" y="0" style="fill:#000000;stroke:none;">90802</tspan></text>
		</g>
		<g>
			<path style="stroke-miterlimit:1;" d="M423.047,196.194l-9.861,0.27l0.053,6.123l17.637,0.272l-0.516-6.87l-7.313,0.205z"/>
			<text transform="matrix(1 0 0 1 413.6855 201.8047)"><tspan x="0" y="0" style="fill:#000000;stroke:none;">90747</tspan></text>
		</g>
		<g>
			<path style="stroke-miterlimit:1;" d="M413.467,183.468l-5.842,2.792l-1.758,18.299l9.018,9.797l16.383-4.081l-0.393-7.415l-17.637-0.272l-0.053-6.123l9.861-0.27l-0.17-9.797l-7.201,1.222l2.215-4.286l-4.424,0.135z"/>
			<text transform="matrix(1 0 0 1 409.4785 210.9746)"><tspan x="0" y="0" style="fill:#000000;stroke:none;">90746</tspan></text>
		</g>
		<g>
			<path style="stroke-miterlimit:1;" d="M402.527,203.334l-1.699,32.522l0.451,7.688l12.246-0.955l0.393-3.809l15.422,2.856l4.822-16.939l-7.201-0.205l4.307-14.218l-16.383,4.081l-9.018-9.797l-3.34-1.225z"/>
			<text transform="matrix(1 0 0 1 408.4824 230.9443)"><tspan x="0" y="0" style="fill:#000000;stroke:none;">90745</tspan></text>
		</g>
		<g>
			<path style="stroke-miterlimit:1;" d="M401.279,243.544l2.725,4.828l-5.502-0.205l-3.346,5.921l3.117,18.844l7.77-10.614l5.215,12.996l16.389-10.307l0.504-0.17l10.6-11.092l-3.059-4.966l-6.352-7.143l-15.422-2.856l-0.393,3.809l-12.246,0.955z"/>
			<text transform="matrix(1 0 0 1 408.6113 256.8008)"><tspan x="0" y="0" style="fill:#000000;stroke:none;">90744</tspan></text>
		</g>
		<g>
			<path style="stroke-miterlimit:1;" d="M507.633,286.265l19.506,16.26l-7.09-9.252l-12.416-7.008z"/>
			<text transform="matrix(1 0 0 1 500.7041 297.8984)"><tspan x="0" y="0" style="fill:#000000;stroke:none;">90742</tspan></text>
		</g>
		<g>
			<path style="stroke-miterlimit:1;" d="M508.43,259.188l3.398,10.884l-11.789,8.232l-1.307,3.267l8.9,4.693l12.416,7.008l20.016-3.199l0.17-9.727v-4.014l-0.738-17.145l0.908-4.014l-17.408-3.267l-1.641,7.96l-5.783-0.135l-4.482-8.232l-2.66,7.688z"/>
			<text transform="matrix(1 0 0 1 516.6113 271.6953)"><tspan x="0" y="0" style="fill:#000000;stroke:none;">90740</tspan></text>
		</g>
		<g>
			<path style="stroke-miterlimit:1;" d="M388.295,256.265l-3.744,2.039l-1.131,3.533l4.576,0.841l-2.555,8.115l3.176,3.932l-5.262,3.938l-0.105,9.847l-8.221,7.011l7.184,3.246l5.479,1.521l1.781-1.646l1.512-1.348l-2.238-15.243l3.803,1.497l3.176-8.777
				l-3.404-0.378l2.051-3.53l-3.639-1.942l3.346-3.606l-4.758-9.319l-1.025,0.272z"/>
			<text transform="matrix(1 0 0 1 375.2363 296.4453)"><tspan x="0" y="0" style="fill:#000000;stroke:none;">90732</tspan></text>
		</g>
		<g>
			<path style="stroke-miterlimit:1;" d="M389.32,255.992l4.758,9.319l-3.346,3.606l3.639,1.942l-2.051,3.53l3.404,0.378l-3.176,8.777l-3.803-1.497l2.238,15.243l-1.512,1.348l-1.781,1.646l-5.479-1.521l5.121,2.329l9.803,6.396l9.645-2.312l-4.195-4.764
				l1.523-6.598l4.541,7.348l-1.365-8.367l3.012,3.876l-3.633-13.605l4.535-6.328l-3.176,6.328l5.895,11.974l-3.398-9.659l5.273,3.671l7.934-14.218l0.287-3.267l3.633-6.563l-16.389,10.307l-5.215-12.996l-7.77,10.614l-3.117-18.844l-5.836,1.904z"/>
			<text transform="matrix(1 0 0 1 394.3613 285.1953)"><tspan x="0" y="0" style="fill:#000000;stroke:none;">90731</tspan></text>
		</g>
		<g>
			<path style="stroke-miterlimit:1;" d="M462.732,165.986l-2.666,5.578l-2.098,5.036l3.803,2.517l-4.195,4.761l20.578,3.879l4.875-6.463l-0.111-8.982l-7.488-9.797l-1.641,4.764l-11.057-1.292z"/>
			<text transform="matrix(1 0 0 1 462.7168 184.2646)"><tspan x="0" y="0" style="fill:#000000;stroke:none;">90723</tspan></text>
		</g>
		<g>
			<path style="stroke-miterlimit:1;" d="M519.996,234.972l-8.906,16.529l4.482,8.232l5.783,0.135l1.641-7.96l17.408,3.267l2.49-7.62l2.613-3.536l-2.613-6.396l-14.795-2.584l-0.111-6.328l-7.992,6.261z"/>
			<text transform="matrix(1 0 0 1 519.9629 243.9453)"><tspan x="0" y="0" style="fill:#000000;stroke:none;">90720</tspan></text>
		</g>
		<g>
			<path style="stroke-miterlimit:1;" d="M377.977,237.351v14.083l6.293,1.699l0.281,5.171l3.744-2.039l1.248-18.164l-11.566-0.75z"/>
			<text transform="matrix(1 0 0 1 375.4238 251.3311)"><tspan x="0" y="0" style="fill:#000000;stroke:none;">90717</tspan></text>
		</g>
		<g>
			<path style="stroke-miterlimit:1;" d="M515.965,220.546l1.418,4.562l10.547,0.542l1.02-6.396l-11.619-3.604l-1.365,4.896z"/>
			<text transform="matrix(1 0 0 1 513.9863 224.8203)"><tspan x="0" y="0" style="fill:#000000;stroke:none;">90716</tspan></text>
		</g>
		<g>
			<path style="stroke-miterlimit:1;" d="M507.914,210.682l3.176,9.729l4.875,0.135l1.365-4.896l11.619,3.604l1.418-8.64l-22.453,0.067z"/>
			<text transform="matrix(1 0 0 1 510.8047 215.334)"><tspan x="0" y="0" style="fill:#000000;stroke:none;">90715</tspan></text>
		</g>
		<g>
			<path style="stroke-miterlimit:1;" d="M492.949,195.307v14.83v9.867l18.141,0.407l-3.176-9.729l-5.496-13.266l-9.469-2.109z"/>
			<text transform="matrix(1 0 0 1 490.3613 205.6953)"><tspan x="0" y="0" style="fill:#000000;stroke:none;">90713</tspan></text>
		</g>
		<g>
			<path style="stroke-miterlimit:1;" d="M480.592,195.037l0.111,6.053l-11.906,5.648l1.986,16.324l12.305-3.129v-9.659l9.861-0.138v-14.83l-12.357-0.27z"/>
			<text transform="matrix(1 0 0 1 468.4121 211.0537)"><tspan x="0" y="0" style="fill:#000000;stroke:none;">90712</tspan></text>
		</g>
		<g>
			<path style="stroke-miterlimit:1;" d="M394.758,233.064l-5.953-2.584l0.738,7.62l-1.248,18.164l1.025-0.272l5.836-1.904l3.346-5.921l5.502,0.205l-2.725-4.828l-0.451-7.688l-6.07-2.792z"/>
			<text transform="matrix(1 0 0 1 386.6855 240.8779)"><tspan x="0" y="0" style="fill:#000000;stroke:none;">90710</tspan></text>
		</g>
		<g>
			<path style="stroke-miterlimit:1;" d="M472.09,145.303l-0.059,9.864l-4.764,2.725l8.162,4.623l7.488,9.797l0.17-5.511l18.592,0.548l-0.85-4.969h-3.006l-0.053-7.28l-25.682-9.797z"/>
			<text transform="matrix(1 0 0 1 476.1348 162.3125)"><tspan x="0" y="0" style="fill:#000000;stroke:none;">90706</tspan></text>
		</g>
		<g>
			<path style="stroke-miterlimit:1;" d="M271.395,496.754l1.872,2.449l6.237-9.727l-2.552,6.662l10.544,5.719l7.937,24.012l-6.519,6.469l-2.098,11.285l13.266,20.824l24.322,6.188l27.041-2.109l28.119,14.285l11.455-6.258l1.02-8.162l-7.26-15.375l-5.496-1.084
				l-3.346-9.457l-20.807-21.568l1.248-11.156l-38.496-13.541l-24.718-15.035l-11.282,4.764l-2.153-7.822l-8.221-2.859l-12.642-13.875l-7.087,3.059l-31.579-4.078l18.879,21.428l-0.17,5.643l32.484,9.322z M263.232,851.135l-9.354-9.117l-2.212-18.1l-12.87-16.67
				l-8.332-27.891l-10.374-3.129l-0.513-11.906l7.031-2.584l3.855,4.963l7.427-3.539l6.463,6.398l1.588,10.207l7.254,5.713l3.8,12.791l28.459,36.598l19.107,15.645l61.737,57.967l-4.137,3.064l-21.943-5.514l-17.572,15.85l-4.307-9.932l-37.875-24.627l-4.081-18.305
				l-7.427-4.283l-5.725-13.6z"/>
			<text transform="matrix(1 0 0 1 297.4673 694.625)"><tspan x="0" y="0" style="fill:#000000;stroke:none;">90704</tspan></text>
		</g>
		<g>
			<path style="stroke-miterlimit:1;" d="M532.465,182.246l-9.867,1.154l-0.973,3.879v2.93v0.009l-3.34,1.963l5.918-0.492l-0.135,8.417l-0.029,1.729l-1.131,4.046l-1.98-2.276l-8.912-2.886l3.006-13.438l-12.545-4.898l-0.059,15.035l5.496,13.266l22.453-0.067h0.229
				l11.959-13.538h5.051v-4.898l-0.117-6.328l-15.023-3.604z"/>
			<text transform="matrix(1 0 0 1 530.4863 190.6953)"><tspan x="0" y="0" style="fill:#000000;stroke:none;">90703</tspan></text>
		</g>
		<g>
			<path style="stroke-miterlimit:1;" d="M515.021,187.279l-3.006,13.438l8.912,2.886l1.98,2.276l1.131-4.046l0.029-1.729l0.135-8.417l-5.918,0.492l3.34-1.963v-0.009v-2.93h-6.604z"/>
			<text transform="matrix(1 0 0 1 508.7363 197.4453)"><tspan x="0" y="0" style="fill:#000000;stroke:none;">90701</tspan></text>
		</g>
		<g>
			<path style="stroke-miterlimit:1;" d="M557.865,235.104l-3.287,2.52l3.047,4.922l13.066,12.088l-0.299-12.996l4.348-1.799l0.973-3.229l-1.354-5.314l-16.494,3.809z"/>
			<text transform="matrix(1 0 0 1 554.9316 243.4678)"><tspan x="0" y="0" style="fill:#000000;stroke:none;">90680</tspan></text>
		</g>
		<g>
			<path style="stroke-miterlimit:1;" d="M516.363,129.521l-5.953,9.797l-2.66,3.946l3.797,6.668l1.137,2.177l15.135,1.154l-0.111,9.117l7.477,5.036l-1.752,4.963l6.574,2.382l-2.49,3.539l-9.867-5.443l4.816,9.39l15.023,3.604l-0.059-13.538l-4.986-1.154
				l-0.111-8.71l-9.697,0.067l0.111-10.137l4.822-2.106l-2.098-12.041l-0.287-4.356l-7.535-7.755l-3.457,7.28l-7.828-3.879z"/>
			<text transform="matrix(1 0 0 1 514.3613 144.1953)"><tspan x="0" y="0" style="fill:#000000;stroke:none;">90670</tspan></text>
		</g>
		<g>
			<path style="stroke-miterlimit:1;" d="M523.793,85.777l-0.68,4.764l-12.023,5.982l-16.043,27.486l0.229,0.272l15.135,15.035l5.953-9.797l-3.34-1.699l14.115-25.512l14.965-20.001l-6.404-2.449l-1.418,4.556l-10.488,1.362z"/>
			<text transform="matrix(1 0 0 1 498.3613 122.3203)"><tspan x="0" y="0" style="fill:#000000;stroke:none;">90660</tspan></text>
		</g>
		<g>
			<path style="stroke-miterlimit:1;" d="M500.83,162.38l0.85,4.969l0.797,15.032l12.545,4.898h6.604l0.973-3.879l9.867-1.154l-4.816-9.39l9.867,5.443l2.49-3.539l-6.574-2.382l1.752-4.963l-7.477-5.036l0.111-9.117l-15.135-1.154l-8.566-0.75l-3.287,11.021z"/>
			<text transform="matrix(1 0 0 1 507.4082 170.1577)"><tspan x="0" y="0" style="fill:#000000;stroke:none;">90650</tspan></text>
		</g>
		<g>
			<path style="stroke-miterlimit:1;" d="M482.35,83.463l-0.791,5.376l10.26,7.685l-0.568,4.424l1.758,11.021l-5.045,3.809l7.084,8.232l16.043-27.486l12.023-5.982l0.68-4.764l-16.67-10.477l-3.855,3.267l7.541,2.856l-7.822,6.053l-12.756-4.148l-7.881,0.135z"/>
			<text transform="matrix(1 0 0 1 494.834 93.1953)"><tspan x="0" y="0" style="fill:#000000;stroke:none;">90640</tspan></text>
		</g>
		<g>
			<path style="stroke-miterlimit:1;" d="M544.77,162.447h-2.438l0.111,8.71l4.986,1.154l0.059,13.538l0.117,6.328l9.861-0.067v-5.171l14.795-9.797v-4.966l4.992-2.449v-7.415h-10.031l0.053-5.171l-6.234-2.587l-8.561,2.247l3.059,5.578l-10.77,0.067z"/>
			<text transform="matrix(1 0 0 1 552.2363 174.1953)"><tspan x="0" y="0" style="fill:#000000;stroke:none;">90638</tspan></text>
		</g>
		<g>
			<path style="stroke-miterlimit:1;" d="M573.568,121.631l-10.6,8.435l9.352-0.952l5.156-0.814l-0.053,5.101l-6.744,6.19l13.09,0.612l-6.457,2.517l0.053,12.108l-0.111,7.485v7.415l16.324-1.02l11.906-3.132l-1.242-3.129l-2.326-6.803l7.313,1.907l-4.646-4.901
				l4.699,0.07l0.059-10.002l-3.34-0.067l4.248-15.65l-9.123-2.514l-27.557-2.856z"/>
			<text transform="matrix(1 0 0 1 584.8945 148.9346)"><tspan x="0" y="0" style="fill:#000000;stroke:none;">90631</tspan></text>
		</g>
		<g>
			<path style="stroke-miterlimit:1;" d="M530.367,210.614l-1.418,8.64l-1.02,6.396l0.059,3.062l0.111,6.328l14.795,2.584l2.613,6.396l-2.613,3.536l14.684-0.202l0.047-4.808l-3.047-4.922l3.287-2.52h-3.744h-6.234l0.059-4.693h4.875l-0.117-9.999l-6.973,0.067
				l-2.836-4.898l-12.299-4.966h-0.229z"/>
			<text transform="matrix(1 0 0 1 531.9336 234.9453)"><tspan x="0" y="0" style="fill:#000000;stroke:none;">90630</tspan></text>
		</g>
		<g>
			<path style="stroke-miterlimit:1;" d="M530.596,210.614l12.299,4.966l4.875-3.741l0.117-4.216l-5.045-0.07l4.764-10.477h-5.051l-11.959,13.538z"/>
			<text transform="matrix(1 0 0 1 530.9023 209.832)"><tspan x="0" y="0" style="fill:#000000;stroke:none;">90623</tspan></text>
		</g>
		<g>
			<path style="stroke-miterlimit:1;" d="M557.467,192.11l0.287,9.999l15.023,1.904l0.34-1.699l4.594-0.407l-1.307-3.606l-3.686,2.722l-0.117-7.146l4.934-1.972l-0.223-14.42l-5.051-0.343l-14.795,9.797v5.171z"/>
			<text transform="matrix(1 0 0 1 559.25 194.082)"><tspan x="0" y="0" style="fill:#000000;stroke:none;">90621</tspan></text>
		</g>
		<g>
			<path style="stroke-miterlimit:1;" d="M547.605,192.178v4.898l-4.764,10.477l5.045,0.07l-0.117,4.216l-4.875,3.741l2.836,4.898l6.973-0.067l0.117,9.999h-4.875l-0.059,4.693h6.234l3.686-8.774l-3.797-0.952l5.555-5.033l15.422-5.033l-2.209-11.297l-15.023-1.904
				l-0.287-9.999l-9.861,0.067z"/>
			<text transform="matrix(1 0 0 1 553.5723 212.2373)"><tspan x="0" y="0" style="fill:#000000;stroke:none;">90620</tspan></text>
		</g>
		<g>
			<path style="stroke-miterlimit:1;" d="M527.139,102.31l-14.115,25.512l3.34,1.699l7.828,3.879l3.457-7.28l7.535,7.755l4.992-6.46l-4.195-7.146l-8.842-17.959z"/>
			<text transform="matrix(1 0 0 1 519.0078 117.8457)"><tspan x="0" y="0" style="fill:#000000;stroke:none;">90606</tspan></text>
		</g>
		<g>
			<path style="stroke-miterlimit:1;" d="M562.969,130.065l-4.822,0.817l-9.75-3.129v5.508l-3.064-2.244l-9.861,7.213l2.098,12.041l-4.822,2.106l-0.111,10.137l9.697-0.067h2.438l-4.313-13.605l9.527-8.162l4.992-3.062l7.652,3.943l9.691-12.448l-9.352,0.952z"/>
			<text transform="matrix(1 0 0 1 537.7637 139.2646)"><tspan x="0" y="0" style="fill:#000000;stroke:none;">90605</tspan></text>
		</g>
		<g>
			<path style="stroke-miterlimit:1;" d="M549.984,140.68l-9.527,8.162l4.313,13.605l10.77-0.067l-3.059-5.578l8.561-2.247l6.234,2.587l-0.053,5.171h10.031l0.111-7.485l-27.381-14.147z"/>
			<text transform="matrix(1 0 0 1 548.2383 153.0674)"><tspan x="0" y="0" style="fill:#000000;stroke:none;">90604</tspan></text>
		</g>
		<g>
			<path style="stroke-miterlimit:1;" d="M549.984,140.68l27.381,14.147l-0.053-12.108l6.457-2.517l-13.09-0.612l6.744-6.19l0.053-5.101l-5.156,0.814l-9.691,12.448l-7.652-3.943l-4.992,3.062z"/>
			<text transform="matrix(1 0 0 1 559.873 146.7354)"><tspan x="0" y="0" style="fill:#000000;stroke:none;">90603</tspan></text>
		</g>
		<g>
			<path style="stroke-miterlimit:1;" d="M557.297,119.454l-3.516-3.882l-5.836,4.696H535.98l4.195,7.146l-4.992,6.46l0.287,4.356l9.861-7.213l3.064,2.244v-5.508l9.75,3.129l1.307-4.898l-5.953-4.424l3.686-1.767l0.111-0.34z"/>
			<text transform="matrix(1 0 0 1 538.9824 127.4082)"><tspan x="0" y="0" style="fill:#000000;stroke:none;">90602</tspan></text>
		</g>
		<g>
			<path style="stroke-miterlimit:1;" d="M551.572,77.68l-9.469,4.629l-14.965,20.001l8.842,17.959h11.965l5.836-4.696l3.516,3.882l-0.111,0.34l-3.686,1.767l5.953,4.424l-1.307,4.898l4.822-0.817l10.6-8.435l-10.541-7.146l-11.684-21.021l-7.77-2.924l6.24-5.174
				l16.834,0.68l-7.816-13.603l-7.26,5.235z"/>
			<text transform="matrix(1 0 0 1 538.8926 106.9189)"><tspan x="0" y="0" style="fill:#000000;stroke:none;">90601</tspan></text>
		</g>
		<g>
			<path style="stroke-miterlimit:1;" d="M374.121,182.586l2.215,4.081l2.66-1.02l-4.875-3.062z"/>
			<text transform="matrix(1 0 0 1 368.2227 188.1318)"><tspan x="0" y="0" style="fill:#000000;stroke:none;">90506</tspan></text>
		</g>
		<g>
			<path style="stroke-miterlimit:1;" d="M352.465,223.338l-0.85,15.577l7.764,0.75l15.48,15.782l3.117-4.014v-14.083l-0.34-10.271l-25.172-3.741z"/>
			<text transform="matrix(1 0 0 1 355.7891 235.8965)"><tspan x="0" y="0" style="fill:#000000;stroke:none;">90505</tspan></text>
		</g>
		<g>
			<path style="stroke-miterlimit:1;" d="M378.996,185.647l-2.66,1.02l-13.494,5.918l0.68,9.864h14.625l10.6-0.067l-0.053-9.797l-2.385-9.729l-7.313,2.792z"/>
			<text transform="matrix(1 0 0 1 367.4551 200.6592)"><tspan x="0" y="0" style="fill:#000000;stroke:none;">90504</tspan></text>
		</g>
		<g>
			<path style="stroke-miterlimit:1;" d="M350.824,202.449l1.641,20.889l25.172,3.741l0.51-24.63h-14.625h-12.697z"/>
			<text transform="matrix(1 0 0 1 356.1465 218.2695)"><tspan x="0" y="0" style="fill:#000000;stroke:none;">90503</tspan></text>
		</g>
		<g>
			<path style="stroke-miterlimit:1;" d="M394.307,202.449l0.451,30.615l6.07,2.792l1.699-32.522l-8.221-0.885z"/>
			<text transform="matrix(1 0 0 1 389.1113 216.4824)"><tspan x="0" y="0" style="fill:#000000;stroke:none;">90502</tspan></text>
		</g>
		<g>
			<path style="stroke-miterlimit:1;" d="M378.146,202.449l-0.51,24.63l0.34,10.271l11.566,0.75l-0.738-7.62l5.953,2.584l-0.451-30.615l-5.561-0.067l-10.6,0.067z"/>
			<text transform="matrix(1 0 0 1 378.6113 227.1201)"><tspan x="0" y="0" style="fill:#000000;stroke:none;">90501</tspan></text>
		</g>
		<g>
			<path style="stroke-miterlimit:1;" d="M307.169,86.797l-16.951,10.679l-5.613,4.494l4.195,7.415l16.497-10.342l6.691-5.238l-4.819-7.008z"/>
			<text transform="matrix(1 0 0 1 289.9556 101.5947)"><tspan x="0" y="0" style="fill:#000000;stroke:none;">90405</tspan></text>
		</g>
		<g>
			<path style="stroke-miterlimit:1;" d="M297.021,77.747l-11.224,10.957l4.421,8.771l16.951-10.679l-2.552-2.382l-7.597-6.668z"/>
			<text transform="matrix(1 0 0 1 288.1421 91.1182)"><tspan x="0" y="0" style="fill:#000000;stroke:none;">90404</tspan></text>
		</g>
		<g>
			<path style="stroke-miterlimit:1;" d="M289.708,77.68l-14.399,14.083l3.568,3.606l6.92-6.665l11.224-10.957l0.34-0.337l-3.97-3.267l-3.683,3.536z"/>
			<text transform="matrix(1 0 0 1 281.1108 83.4453)"><tspan x="0" y="0" style="fill:#000000;stroke:none;">90403</tspan></text>
		</g>
		<g>
			<path style="stroke-miterlimit:1;" d="M283.072,64.892l-6.688,10.749l-1.872-4.491l-3.513,4.559l-1.588,11.499l5.897,4.556l14.399-14.083l-6.636-12.788z"/>
			<text transform="matrix(1 0 0 1 273.9858 73.8096)"><tspan x="0" y="0" style="fill:#000000;stroke:none;">90402</tspan></text>
		</g>
		<g>
			<path style="stroke-miterlimit:1;" d="M278.877,95.369l5.728,6.601l5.613-4.494l-4.421-8.771l-6.92,6.665z"/>
			<text transform="matrix(1 0 0 1 268.3652 100.3408)"><tspan x="0" y="0" style="fill:#000000;stroke:none;">90401</tspan></text>
		</g>
		<g>
			<path style="stroke-miterlimit:1;" d="M369.023,125.507l-0.059,17.687l14.906-0.135v-17.212l-8.613,2.452l-1.248-5.921l-4.986,3.129z"/>
			<text transform="matrix(1 0 0 1 368.4863 134.791)"><tspan x="0" y="0" style="fill:#000000;stroke:none;">90305</tspan></text>
		</g>
		<g>
			<path style="stroke-miterlimit:1;" d="M354.164,143.126l2.438,9.864l12.363,0.07v-9.867l-14.801-0.067z"/>
			<text transform="matrix(1 0 0 1 353.2285 149.3486)"><tspan x="0" y="0" style="fill:#000000;stroke:none;">90304</tspan></text>
		</g>
		<g>
			<path style="stroke-miterlimit:1;" d="M368.965,143.193v9.867l6.352,4.966l7.934-4.966l0.621-10.002l-14.906,0.135z"/>
			<text transform="matrix(1 0 0 1 368.0762 154.0479)"><tspan x="0" y="0" style="fill:#000000;stroke:none;">90303</tspan></text>
		</g>
		<g>
			<path style="stroke-miterlimit:1;" d="M354.111,120.406l-0.229,10.339l15.141-5.238l4.986-3.129v-3.946l-13.213,0.07l-6.686,1.904z"/>
			<text transform="matrix(1 0 0 1 355.6074 123.9453)"><tspan x="0" y="0" style="fill:#000000;stroke:none;">90302</tspan></text>
		</g>
		<g>
			<path style="stroke-miterlimit:1;" d="M353.883,130.745l-4.816,7.415l5.098,0.07v4.896l14.801,0.067l0.059-17.687l-15.141,5.238z"/>
			<text transform="matrix(1 0 0 1 350.7031 137.8555)"><tspan x="0" y="0" style="fill:#000000;stroke:none;">90301</tspan></text>
		</g>
		<g>
			<path style="stroke-miterlimit:1;" d="M304.219,131.835l16.102,31.02l4.365,0.07l-3.908-9.864l10.992-0.272l-17.402-14.763l5.273,0.067l1.078-7.482l-6.123,1.02l-4.875,2.312l-1.758-3.536l-3.744,1.43z"/>
			<text transform="matrix(1 0 0 1 302.8154 150.5439)"><tspan x="0" y="0" style="fill:#000000;stroke:none;">90293</tspan></text>
		</g>
		<g>
			<path style="stroke-miterlimit:1;" d="M312.609,110.812l-14.001,9.595l3.513,10.406l5.795-3.706l-3.697,4.729l3.744-1.43l12.867-11.563l-8.221-8.03z"/>
			<text transform="matrix(1 0 0 1 301.3784 124.8271)"><tspan x="0" y="0" style="fill:#000000;stroke:none;">90292</tspan></text>
		</g>
		<g>
			<path style="stroke-miterlimit:1;" d="M288.8,109.385l9.809,11.021l14.001-9.595l-7.313-11.769L288.8,109.385z"/>
			<text transform="matrix(1 0 0 1 292.3667 113.2285)"><tspan x="0" y="0" style="fill:#000000;stroke:none;">90291</tspan></text>
		</g>
		<g>
			<path style="stroke-miterlimit:1;" d="M223.717,9.242l-4.594,0.135l3.914,1.907l-6.633,8.572l-5.672-7.62l-6.803,2.856l-2.833,5.238l2.607,1.632l-8.845,2.856l2.042,16.67l-6.123,5.033l6.293,4.424l7.198-1.702l11.511,10.274l8.446-4.356l19.957-38.982
				l-2.212-4.421l-17.461-2.584l-0.794,0.067z"/>
			<text transform="matrix(1 0 0 1 209.1401 37.8506)"><tspan x="0" y="0" style="fill:#000000;stroke:none;">90290</tspan></text>
		</g>
		<g>
			<path style="stroke-miterlimit:1;" d="M432.574,132.989l4.025,2.722l-1.307,10.887l6.633,2.109l0.281-5.648l2.496,6.056l16.16,1.77l1.869,15.103l11.057,1.292l1.641-4.764l-8.162-4.623l4.764-2.725l0.059-9.864l1.758-6.598l-20.578-7.008l-16.957-2.106
				l-0.164,4.011l-4.195-4.488l0.621,3.876z"/>
			<text transform="matrix(1 0 0 1 444.6113 143.4395)"><tspan x="0" y="0" style="fill:#000000;stroke:none;">90280</tspan></text>
		</g>
		<g>
			<path style="stroke-miterlimit:1;" d="M349.289,177.755l-0.791,14.763l-6.404,0.067l3.738,11.227l4.992-1.362h12.697l-0.68-9.864h-3.744l0.059-14.897h-4.365l-5.502,0.067z"/>
			<text transform="matrix(1 0 0 1 345.2363 196.6953)"><tspan x="0" y="0" style="fill:#000000;stroke:none;">90278</tspan></text>
		</g>
		<g>
			<path style="stroke-miterlimit:1;" d="M345.832,203.812l-8.109,2.927l-0.504,5.848l4.928,3.267l-1.752,23.2l11.221-0.138l0.85-15.577l-1.641-20.889l-4.992,1.362z"/>
			<text transform="matrix(1 0 0 1 331.7881 227.6328)"><tspan x="0" y="0" style="fill:#000000;stroke:none;">90277</tspan></text>
		</g>
		<g>
			<path style="stroke-miterlimit:1;" d="M383.314,265.411l-6.592-0.026l1.951,9.097l-6.967,8.974l-10.043,0.126l-8.502-8.238l-0.105-11.188l-6.656-3.812l5.326-3.688l7.377,3.935l-1.939-8.484l-4.207-0.615l2.461-3.935l-6.252-1.107l-4.717,8.118h-9.422
				l0.41,10.939l-8.291,4.104l3.492,12.709l28.916,2.654l15.475,10.547l8.221-7.011l0.105-9.847l5.262-3.938l-3.176-3.932l2.555-8.115l-4.576-0.841l-0.105,3.574z"/>
			<text transform="matrix(1 0 0 1 331.4502 279.3652)"><tspan x="0" y="0" style="fill:#000000;stroke:none;">90275</tspan></text>
		</g>
		<g>
			<path style="stroke-miterlimit:1;" d="M340.395,239.053l-19.336,20.136l6.088,10.421l8.291-4.104l-0.41-10.939h9.422l4.717-8.118l6.252,1.107l-2.461,3.935l4.207,0.615l1.939,8.484l-7.377-3.935l-5.326,3.688l6.656,3.812l0.105,11.188l8.502,8.238l10.043-0.126
				l6.967-8.974l-1.951-9.097l6.592,0.026l0.105-3.574l1.131-3.533l-0.281-5.171l-6.293-1.699l-3.117,4.014l-15.48-15.782l-7.764-0.75l-11.221,0.138z"/>
			<text transform="matrix(1 0 0 1 356.626 267.627)"><tspan x="0" y="0" style="fill:#000000;stroke:none;">90274</tspan></text>
		</g>
		<g>
			<path style="stroke-miterlimit:1;" d="M256.09,19.446l-11.906-3.267l-19.957,38.982l16.441,5.921l1.758,16.734l26.985,9.39l1.588-11.499l3.513-4.559l1.872,4.491l6.688-10.749l-11.733-17.895l-1.588-29.388l-13.661,1.837z"/>
			<text transform="matrix(1 0 0 1 246.3589 51.6953)"><tspan x="0" y="0" style="fill:#000000;stroke:none;">90272</tspan></text>
		</g>
		<g>
			<path style="stroke-miterlimit:1;" d="M453.094,109.25l-5.045-1.022l0.229,4.966l8.613,1.157l-0.451,3.741l11.396,1.564l-3.457-8.572l-3.744-1.494l-6.574-0.545l-0.967,0.205z"/>
			<text transform="matrix(1 0 0 1 452.8613 117.1953)"><tspan x="0" y="0" style="fill:#000000;stroke:none;">90270</tspan></text>
		</g>
		<g>
			<path style="stroke-miterlimit:1;" d="M323.895,170.68l8.051,19.049l10.148,2.856l6.404-0.067l0.791-14.763v-5.033l-25.395-2.042z"/>
			<text transform="matrix(1 0 0 1 323.6631 186.2627)"><tspan x="0" y="0" style="fill:#000000;stroke:none;">90266</tspan></text>
		</g>
		<g>
			<path style="stroke-miterlimit:1;" d="M29.771,21.081l-2.326,7.755l8.051-4.084l3.741,3.879l-17.575,4.693l0.85,7.28l-9.976,6.19l-8.903-0.34L0.12,58.631l3.741,4.286L32.66,76.795l48.984,6.735l24.548,22.315l12.7-14.285l22.846-7.485l35.036,1.02l8.276-5.643
				l57.375-1.635l-1.758-16.734l-16.441-5.921l-8.446,4.356L204.27,49.244l-7.198,1.702L180.12,61.695l-10.942-5.581l5.613-1.837l-14.344-5.373l2.212,5.306l-0.229,0.34l-7.087,5.376l-5.839-7.485l-39.457-6.396l-3.062-5.78l-14.402,2.177l-7.934-7.553l-7.43-0.407
				l3.064-4.626l-1.928-10.477l-23.584,6.87l-25.002-5.168z M160.846,82.783l0.905-7.825l4.591,4.562l-5.496,3.264z"/>
			<text transform="matrix(1 0 0 1 112.9321 66.1162)"><tspan x="0" y="0" style="fill:#000000;stroke:none;">90265</tspan></text>
		</g>
		<g>
			<path style="stroke-miterlimit:1;" d="M160.846,82.783l5.496-3.264l-4.591-4.562l-0.905,7.825z"/>
			<text transform="matrix(1 0 0 1 155.2544 82.376)"><tspan x="0" y="0" style="fill:#000000;stroke:none;">90263</tspan></text>
		</g>
		<g>
			<path style="stroke-miterlimit:1;" d="M435.463,148.3l-1.189,9.864l3.686,8.502l9.299-1.292l4.875,4.219l1.137-3.267l-0.398,3.401l7.195,1.837l2.666-5.578l-1.869-15.103l-16.16-1.77l-2.496-6.056l-0.281,5.648l-6.633-2.109l0.17,1.702z"/>
			<text transform="matrix(1 0 0 1 441.2363 160.3203)"><tspan x="0" y="0" style="fill:#000000;stroke:none;">90262</tspan></text>
		</g>
		<g>
			<path style="stroke-miterlimit:1;" d="M349.289,172.722v5.033l5.502-0.067l-5.502-4.966z"/>
			<text transform="matrix(1 0 0 1 333.5186 177.1953)"><tspan x="0" y="0" style="fill:#000000;stroke:none;">90261</tspan></text>
		</g>
		<g>
			<path style="stroke-miterlimit:1;" d="M354.791,177.688h4.365l-0.059,14.897h3.744l13.494-5.918l-2.215-4.081l0.967-4.898h-6.064v-4.898l-19.734-0.067l5.502,4.966z"/>
			<text transform="matrix(1 0 0 1 357.4531 183.4453)"><tspan x="0" y="0" style="fill:#000000;stroke:none;">90260</tspan></text>
		</g>
		<g>
			<path style="stroke-miterlimit:1;" d="M429.34,113.328l2.613,15.785l4.195,4.488l0.164-4.011l16.957,2.106l-5.162-12.176l8.332-1.43l0.451-3.741l-8.613-1.157l-0.059,3.946l-4.816-0.545l-6.234-7.755l-7.828,4.488z"/>
			<text transform="matrix(1 0 0 1 432.1113 126.0581)"><tspan x="0" y="0" style="fill:#000000;stroke:none;">90255</tspan></text>
		</g>
		<g>
			<path style="stroke-miterlimit:1;" d="M331.945,189.729l5.777,17.01l8.109-2.927l-3.738-11.227l-10.148-2.856z"/>
			<text transform="matrix(1 0 0 1 322.21 203.9873)"><tspan x="0" y="0" style="fill:#000000;stroke:none;">90254</tspan></text>
		</g>
		<g>
			<path style="stroke-miterlimit:1;" d="M356.602,152.99l-2.438,1.292v3.677l-4.758,0.067l4.365,5.511l-4.424,2.312l-0.059,6.873l19.734,0.067v4.898h6.064l4.248-4.966v-9.867l4.535,0.07l-0.621-9.864l-7.934,4.966l-6.352-4.966l-12.363-0.07z"/>
			<text transform="matrix(1 0 0 1 357.2441 167.5283)"><tspan x="0" y="0" style="fill:#000000;stroke:none;">90250</tspan></text>
		</g>
		<g>
			<path style="stroke-miterlimit:1;" d="M383.871,162.925l-4.535-0.07v9.867l-4.248,4.966l-0.967,4.898l4.875,3.062l7.313-2.792l2.496-10.134h4.934v-9.797h-9.867z"/>
			<text transform="matrix(1 0 0 1 377.8613 169.3203)"><tspan x="0" y="0" style="fill:#000000;stroke:none;">90249</tspan></text>
		</g>
		<g>
			<path style="stroke-miterlimit:1;" d="M401.959,162.854l0.51,29.798l-13.775-0.067l0.053,9.797l5.561,0.067l8.221,0.885l3.34,1.225l1.758-18.299l5.842-2.792l0.059-10.951l-9.809,0.205v-9.867h-1.758z"/>
			<text transform="matrix(1 0 0 1 389.8613 197.4453)"><tspan x="0" y="0" style="fill:#000000;stroke:none;">90248</tspan></text>
		</g>
		<g>
			<path style="stroke-miterlimit:1;" d="M393.738,162.925v9.797h-4.934l-2.496,10.134l2.385,9.729l13.775,0.067l-0.51-29.798l-8.221,0.07z"/>
			<text transform="matrix(1 0 0 1 387.9277 179.3838)"><tspan x="0" y="0" style="fill:#000000;stroke:none;">90247</tspan></text>
		</g>
		<g>
			<path style="stroke-miterlimit:1;" d="M331.77,152.788l-10.992,0.272l3.908,9.864l-4.365-0.07l3.574,7.825l25.395,2.042l0.059-6.873l4.424-2.312l-4.365-5.511l4.758-0.067v-3.677l-22.395-1.494z"/>
			<text transform="matrix(1 0 0 1 328.2383 165.2368)"><tspan x="0" y="0" style="fill:#000000;stroke:none;">90245</tspan></text>
		</g>
		<g>
			<path style="stroke-miterlimit:1;" d="M482.918,172.312l0.111,8.982l-4.875,6.463l2.438,7.28l12.357,0.27l9.469,2.109l0.059-15.035l-0.797-15.032l-18.592-0.548l-0.17,5.511z"/>
			<text transform="matrix(1 0 0 1 484.3516 188.5732)"><tspan x="0" y="0" style="fill:#000000;stroke:none;">90242</tspan></text>
		</g>
		<g>
			<path style="stroke-miterlimit:1;" d="M473.848,138.705l-1.758,6.598l25.682,9.797l0.053,7.28h3.006l3.287-11.021l8.566,0.75l-1.137-2.177l-29.25-17.35l-8.449,6.123z"/>
			<text transform="matrix(1 0 0 1 484.0449 149.4863)"><tspan x="0" y="0" style="fill:#000000;stroke:none;">90241</tspan></text>
		</g>
		<g>
			<path style="stroke-miterlimit:1;" d="M490.682,125.709l-8.385,6.873l29.25,17.35l-3.797-6.668l2.66-3.946l-15.135-15.035l-4.594,1.427z"/>
			<text transform="matrix(1 0 0 1 488.5801 137.2373)"><tspan x="0" y="0" style="fill:#000000;stroke:none;">90240</tspan></text>
		</g>
		<g>
			<path style="stroke-miterlimit:1;" d="M354.281,82.648l-27.609,15.103l3.855,5.851l5.045-7.008l5.273,6.598l4.764-10.611l8.672-9.932z"/>
			<text transform="matrix(1 0 0 1 332.1348 96.6289)"><tspan x="0" y="0" style="fill:#000000;stroke:none;">90232</tspan></text>
		</g>
		<g>
			<path style="stroke-miterlimit:1;" d="M345.609,92.58l-4.764,10.611l-5.273-6.598l-5.045,7.008l-5.215,8.435l6.691,6.601l6.574-0.475l5.953,3.126l4.758-7.96l-5.326,0.138l3.176-7.755l-3.123-5.578l8.279-2.18l0.398-4.488l-7.084-0.885z"/>
			<text transform="matrix(1 0 0 1 325.998 112.3979)"><tspan x="0" y="0" style="fill:#000000;stroke:none;">90230</tspan></text>
		</g>
		<g>
			<path style="stroke-miterlimit:1;" d="M434.273,158.164l-14.566,4.011l0.563,9.935l18.199-0.41l-0.51-5.033l-3.686-8.502z"/>
			<text transform="matrix(1 0 0 1 419.8613 170.8203)"><tspan x="0" y="0" style="fill:#000000;stroke:none;">90222</tspan></text>
		</g>
		<g>
			<path style="stroke-miterlimit:1;" d="M437.959,166.666l0.51,5.033l3.457,23.133l-2.947,15.442l8.449-0.138l2.49-8.912l-4.535-14.558l12.193-2.789l4.195-4.761l-3.803-2.517l2.098-5.036l-7.195-1.837l0.398-3.401l-1.137,3.267l-4.875-4.219l-9.299,1.292z"/>
			<text transform="matrix(1 0 0 1 439.2793 177.8281)"><tspan x="0" y="0" style="fill:#000000;stroke:none;">90221</tspan></text>
		</g>
		<g>
			<path style="stroke-miterlimit:1;" d="M420.27,172.109l-6.744,0.407l-0.059,10.951l4.424-0.135l-2.215,4.286l7.201-1.222l0.17,9.797l7.313-0.205l0.516,6.87l0.393,7.415h7.711l2.947-15.442l-3.457-23.133l-18.199,0.41z"/>
			<text transform="matrix(1 0 0 1 419.3574 183.2422)"><tspan x="0" y="0" style="fill:#000000;stroke:none;">90220</tspan></text>
		</g>
		<g>
			<path style="stroke-miterlimit:1;" d="M329.051,62.237l0.17,0.205l4.254,6.668l9.357-2.042l0.111-6.803l-13.893,1.972z"/>
			<text transform="matrix(1 0 0 1 329.1113 66.9453)"><tspan x="0" y="0" style="fill:#000000;stroke:none;">90212</tspan></text>
		</g>
		<g>
			<path style="stroke-miterlimit:1;" d="M342.943,60.266l-0.111,6.803l3.621-4.014l4.143,2.449l0.51-6.598l-8.162-1.975v3.334z"/>
			<text transform="matrix(1 0 0 1 338.8496 62.8203)"><tspan x="0" y="0" style="fill:#000000;stroke:none;">90211</tspan></text>
		</g>
		<g>
			<path style="stroke-miterlimit:1;" d="M315.785,16.657l0.281,19.251l4.254,5.581l-4.137-1.77l0.621,3.809l7.371,8.165l4.875,10.544l13.893-1.972v-3.334l-0.059-5.851l-3.686-9.864l2.379-7.482l-3.457-9.185l-0.961-6.601l-13.436-0.68l-7.939-0.612z"/>
			<text transform="matrix(1 0 0 1 319.8594 40.6943)"><tspan x="0" y="0" style="fill:#000000;stroke:none;">90210</tspan></text>
		</g>
		<g>
			<path style="stroke-miterlimit:1;" d="M456.439,118.092l-8.332,1.43l5.162,12.176l20.578,7.008l8.449-6.123l8.385-6.873l-22.846-6.053l-11.396-1.564z"/>
			<text transform="matrix(1 0 0 1 461.0527 131.9023)"><tspan x="0" y="0" style="fill:#000000;stroke:none;">90201</tspan></text>
		</g>
		<g>
			<path style="stroke-miterlimit:1;" d="M332.004,118.637l-11.174,0.205l-12.867,11.563l1.758,3.536l4.875-2.312l23.982-13.468l-6.574,0.475z"/>
			<text transform="matrix(1 0 0 1 320.2734 124.6836)"><tspan x="0" y="0" style="fill:#000000;stroke:none;">90094</tspan></text>
		</g>
		<g>
			<path style="stroke-miterlimit:1;" d="M404.057,93.125l0.85-1.632l0.34-0.478l-2.66-1.427l-0.34-0.272l-1.418-0.75l-0.287-0.067l-1.811,0.067l-0.059,0.34l0.059,0.545l-0.059,0.817l5.385,2.856z"/>
			<text transform="matrix(1 0 0 1 393.623 93.1953)"><tspan x="0" y="0" style="fill:#000000;stroke:none;">90089</tspan></text>
		</g>
		<g>
			<path style="stroke-miterlimit:1;" d="M313.066,17.132l-14.742,0.753l7.597,35.851l18.255-2.042l-7.371-8.165l-0.621-3.809l4.137,1.77l-4.254-5.581l-0.281-19.251l-2.719,0.475z"/>
			<text transform="matrix(1 0 0 1 301.4097 33.2021)"><tspan x="0" y="0" style="fill:#000000;stroke:none;">90077</tspan></text>
		</g>
		<g>
			<path style="stroke-miterlimit:1;" d="M418.512,68.091l-0.281,0.475l-1.477,1.77v0.272l0.229,0.34l0.398,0.34l1.248,0.885l0.563,0.542l2.273-2.924l-2.613-2.106l-0.34,0.407z"/>
			<text transform="matrix(1 0 0 1 411.1426 71.8291)"><tspan x="0" y="0" style="fill:#000000;stroke:none;">90071</tspan></text>
		</g>
		<g>
			<path style="stroke-miterlimit:1;" d="M341.578,33.734l-2.379,7.482l3.686,9.864l10.998-2.106l0.908-16.397l-3.176,3.741l-10.037-2.584z"/>
			<text transform="matrix(1 0 0 1 338.6563 45.333)"><tspan x="0" y="0" style="fill:#000000;stroke:none;">90069</tspan></text>
		</g>
		<g>
			<path style="stroke-miterlimit:1;" d="M372.422,6.453l-1.477,0.609l-2.66,1.975l-9.41-0.612l0.281,5.716l-5.045,3.398l10.377,5.106l3.908,12.583l20.127-0.952l-0.85-31.904l-10.207,1.292l-5.045,2.789z"/>
			<text transform="matrix(1 0 0 1 368.3594 21.1953)"><tspan x="0" y="0" style="fill:#000000;stroke:none;">90068</tspan></text>
		</g>
		<g>
			<path style="stroke-miterlimit:1;" d="M325.137,65.709l1.418,5.306l4.535,0.952l2.385-2.856l-4.254-6.668l-4.084,3.267z"/>
			<text transform="matrix(1 0 0 1 313.374 69.96)"><tspan x="0" y="0" style="fill:#000000;stroke:none;">90067</tspan></text>
		</g>
		<g>
			<path style="stroke-miterlimit:1;" d="M311.988,93.805l-6.691,5.238l7.313,11.769l8.221,8.03l11.174-0.205l-6.691-6.601l5.215-8.435l-3.855-5.851l-6.463-10.137l-8.221,6.19z"/>
			<text transform="matrix(1 0 0 1 309.9023 106.5703)"><tspan x="0" y="0" style="fill:#000000;stroke:none;">90066</tspan></text>
		</g>
		<g>
			<path style="stroke-miterlimit:1;" d="M420.27,21.148l-0.34,1.225l5.502,6.53l-2.666,2.994l2.895,9.387l4.248,8.572l5.725,1.632l10.717-10.816l-4.307-13.948l-6.352-4.963l-1.078-8.098l-4.816,0.75l0.68,5.646l-10.207,1.09z"/>
			<text transform="matrix(1 0 0 1 425.9199 39.8105)"><tspan x="0" y="0" style="fill:#000000;stroke:none;">90065</tspan></text>
		</g>
		<g>
			<path style="stroke-miterlimit:1;" d="M326.555,71.015l-21.938,13.4l2.552,2.382l4.819,7.008l8.221-6.19l14.965-1.907l2.666-7.348l-6.75-6.393l-4.535-0.952z"/>
			<text transform="matrix(1 0 0 1 315.8184 83.6123)"><tspan x="0" y="0" style="fill:#000000;stroke:none;">90064</tspan></text>
		</g>
		<g>
			<path style="stroke-miterlimit:1;" d="M454.682,62.917l-7.201,20.004l17.748,6.668l2.385-13.813l0.053-0.34l0.287-0.612l2.262-11.429l-15.533-0.478z"/>
			<text transform="matrix(1 0 0 1 450.9863 84.1953)"><tspan x="0" y="0" style="fill:#000000;stroke:none;">90063</tspan></text>
		</g>
		<g>
			<path style="stroke-miterlimit:1;" d="M384.211,94.619v8.845l-0.053,10.002l9.58-0.205V94.145l-9.527,0.475z"/>
			<text transform="matrix(1 0 0 1 380.6094 110.3105)"><tspan x="0" y="0" style="fill:#000000;stroke:none;">90062</tspan></text>
		</g>
		<g>
			<path style="stroke-miterlimit:1;" d="M403.77,147.415l-0.053,15.439v9.867l9.809-0.205l0.111-25.239l-9.867,0.138z"/>
			<text transform="matrix(1 0 0 1 399.9863 153.1953)"><tspan x="0" y="0" style="fill:#000000;stroke:none;">90061</tspan></text>
		</g>
		<g>
			<path style="stroke-miterlimit:1;" d="M413.637,147.277l-0.111,25.239l6.744-0.407l-0.563-9.935l14.566-4.011l1.189-9.864l-21.826-1.022z"/>
			<text transform="matrix(1 0 0 1 416.8613 158.4453)"><tspan x="0" y="0" style="fill:#000000;stroke:none;">90059</tspan></text>
		</g>
		<g>
			<path style="stroke-miterlimit:1;" d="M426,91.833l0.111,21.155l3.229,0.34l7.828-4.488l6.234,7.755l4.816,0.545l0.059-3.946l-0.229-4.966l5.045,1.022l0.967-0.205l6.574,0.545l-23.244-14.698L426,91.833z"/>
			<text transform="matrix(1 0 0 1 432.3105 106.6572)"><tspan x="0" y="0" style="fill:#000000;stroke:none;">90058</tspan></text>
		</g>
		<g>
			<path style="stroke-miterlimit:1;" d="M402.697,59.246l-0.85,3.196l0.961,2.722v2.651l4.992,2.725l3.68-6.466l-8.842-7.553l0.059,2.725z"/>
			<text transform="matrix(1 0 0 1 397.7363 63.1953)"><tspan x="0" y="0" style="fill:#000000;stroke:none;">90057</tspan></text>
		</g>
		<g>
			<path style="stroke-miterlimit:1;" d="M352.295,97.953l-8.279,2.18l3.123,5.578l-3.176,7.755l5.326-0.138l-4.758,7.96l9.58-0.882l6.686-1.904l0.34-10.617l-6.686-0.609l-2.156-9.322z"/>
			<text transform="matrix(1 0 0 1 344.2109 113.5288)"><tspan x="0" y="0" style="fill:#000000;stroke:none;">90056</tspan></text>
		</g>
		<g>
			<path style="stroke-miterlimit:1;" d="M279.161,17.814l-9.41-0.205l1.588,29.388l11.733,17.895l6.636,12.788l3.683-3.536l3.97,3.267l12.7-10.816l-5.045-6.396l0.905-6.463l-7.597-35.851l-6.747-0.48l-12.416,0.41z"/>
			<text transform="matrix(1 0 0 1 278.3589 43.3418)"><tspan x="0" y="0" style="fill:#000000;stroke:none;">90049</tspan></text>
		</g>
		<g>
			<path style="stroke-miterlimit:1;" d="M353.883,48.975l-10.998,2.106l0.059,5.851l8.162,1.975l-0.51,6.598l7.084,0.814l1.195-17.344h-4.992z"/>
			<text transform="matrix(1 0 0 1 342.6113 54.7402)"><tspan x="0" y="0" style="fill:#000000;stroke:none;">90048</tspan></text>
		</g>
		<g>
			<path style="stroke-miterlimit:1;" d="M384.158,113.466l-0.287,12.381v17.212l-0.621,10.002l0.621,9.864h9.867v-49.664l-9.58,0.205z"/>
			<text transform="matrix(1 0 0 1 380.1582 146.0439)"><tspan x="0" y="0" style="fill:#000000;stroke:none;">90047</tspan></text>
		</g>
		<g>
			<path style="stroke-miterlimit:1;" d="M338.121,24.55l3.457,9.185l10.037,2.584l3.176-3.741l-0.908,16.397h4.992l9.973,0.27v-7.482l-0.451-6.533l-3.908-12.583l-10.377-5.106l-3.176,5.514l-12.814,1.497z"/>
			<text transform="matrix(1 0 0 1 344.1465 31.3965)"><tspan x="0" y="0" style="fill:#000000;stroke:none;">90046</tspan></text>
		</g>
		<g>
			<path style="stroke-miterlimit:1;" d="M344.531,121.288l-5.953-3.126l-23.982,13.468l6.123-1.02l-1.078,7.482l-5.273-0.067l17.402,14.763l22.395,1.494l2.438-1.292l-2.438-9.864v-4.896l-5.098-0.07l4.816-7.415l0.229-10.339l-9.58,0.882z"/>
			<text transform="matrix(1 0 0 1 327.1484 139.7275)"><tspan x="0" y="0" style="fill:#000000;stroke:none;">90045</tspan></text>
		</g>
		<g>
			<path style="stroke-miterlimit:1;" d="M393.738,113.261v49.664l8.221-0.07h1.758l0.053-15.439l-0.164-34.017l-9.867-0.138z"/>
			<text transform="matrix(1 0 0 1 390.418 129.9717)"><tspan x="0" y="0" style="fill:#000000;stroke:none;">90044</tspan></text>
		</g>
		<g>
			<path style="stroke-miterlimit:1;" d="M361.137,107.885l-0.34,10.617l13.213-0.07v3.946l1.248,5.921l8.613-2.452l0.287-12.381l0.053-10.002l-23.074,4.421z"/>
			<text transform="matrix(1 0 0 1 365.168 113.8037)"><tspan x="0" y="0" style="fill:#000000;stroke:none;">90043</tspan></text>
		</g>
		<g>
			<path style="stroke-miterlimit:1;" d="M458.197,13.323l-9.861,8.438l-5.332-1.09l-0.961,6.053l4.307,13.948l9.357-5.376l0.393,4.424l2.496,2.517l4.307-7.008l7.031-13.605l-6.352,0.545l-5.385-8.845z"/>
			<text transform="matrix(1 0 0 1 446.4863 27.9102)"><tspan x="0" y="0" style="fill:#000000;stroke:none;">90042</tspan></text>
		</g>
		<g>
			<path style="stroke-miterlimit:1;" d="M434.051,6.521l0.563,7.143l1.078,8.098l6.352,4.963l0.961-6.053l5.332,1.09l9.861-8.438l3.123-3.741l-2.836-1.02l-24.434-2.042z"/>
			<text transform="matrix(1 0 0 1 439.3438 16.0039)"><tspan x="0" y="0" style="fill:#000000;stroke:none;">90041</tspan></text>
		</g>
		<g>
			<path style="stroke-miterlimit:1;" d="M466.248,98.363l-1.869,12.721l3.457,8.572l22.846,6.053l4.594-1.427l-0.229-0.272l-7.084-8.232l5.045-3.809l-1.758-11.021l-25.002-2.584z"/>
			<text transform="matrix(1 0 0 1 470.7363 110.7256)"><tspan x="0" y="0" style="fill:#000000;stroke:none;">90040</tspan></text>
		</g>
		<g>
			<path style="stroke-miterlimit:1;" d="M407.285,0.74l-1.418,0.337l7.711,27.416l-6.457,12.179l12.586,5.851l1.582-5.238h4.371l-2.895-9.387l2.666-2.994l-5.502-6.53L409.84,6.11l-2.268-5.37h-0.287z"/>
			<text transform="matrix(1 0 0 1 408.4238 35.6357)"><tspan x="0" y="0" style="fill:#000000;stroke:none;">90039</tspan></text>
		</g>
		<g>
			<path style="stroke-miterlimit:1;" d="M368.848,41.762v7.482l3.117-0.067l16.617-0.135l-0.059-7.758l-19.676,0.478z"/>
			<text transform="matrix(1 0 0 1 371.5918 47.5508)"><tspan x="0" y="0" style="fill:#000000;stroke:none;">90038</tspan></text>
		</g>
		<g>
			<path style="stroke-miterlimit:1;" d="M393.738,94.145v19.116l9.867,0.138l5.045-0.205V97.071L393.738,93.6v0.545z"/>
			<text transform="matrix(1 0 0 1 390.9863 103.3203)"><tspan x="0" y="0" style="fill:#000000;stroke:none;">90037</tspan></text>
		</g>
		<g>
			<path style="stroke-miterlimit:1;" d="M368.848,49.244l-9.973-0.27l-1.195,17.344l13.834-0.272l0.34-1.154l0.059-3.129l0.053-2.722v-9.864l-3.117,0.067z"/>
			<text transform="matrix(1 0 0 1 357.2363 57.9453)"><tspan x="0" y="0" style="fill:#000000;stroke:none;">90036</tspan></text>
		</g>
		<g>
			<path style="stroke-miterlimit:1;" d="M350.596,65.504l-4.143-2.449l-3.621,4.014l-9.357,2.042l-2.385,2.856l6.75,6.393l2.32-3.671l14.121,3.129l3.398-11.499l-7.084-0.814z"/>
			<text transform="matrix(1 0 0 1 336.0488 74.2139)"><tspan x="0" y="0" style="fill:#000000;stroke:none;">90035</tspan></text>
		</g>
		<g>
			<path style="stroke-miterlimit:1;" d="M337.84,78.359l-2.666,7.348l-14.965,1.907l6.463,10.137l27.609-15.103l0.059-3.744l-0.059-1.087l-14.121-3.129l-2.32,3.671z"/>
			<text transform="matrix(1 0 0 1 337.3613 83.4453)"><tspan x="0" y="0" style="fill:#000000;stroke:none;">90034</tspan></text>
		</g>
		<g>
			<path style="stroke-miterlimit:1;" d="M452.074,61.83l-16.723,6.735l-1.248,9.05l0.34,2.039l0.398,0.067l12.639,3.199l7.201-20.004l-2.607-1.087z"/>
			<text transform="matrix(1 0 0 1 437.8613 70.3203)"><tspan x="0" y="0" style="fill:#000000;stroke:none;">90033</tspan></text>
		</g>
		<g>
			<path style="stroke-miterlimit:1;" d="M462.902,35.229l-4.307,7.008L456.1,39.72l-0.68,6.938l-6.521,5.716v3.267l5.051-1.295l-1.875,7.485l2.607,1.087l15.533,0.478l2.666-17.892l2.889-6.598l-12.867-0.067v-3.609z"/>
			<text transform="matrix(1 0 0 1 454.3613 56.8203)"><tspan x="0" y="0" style="fill:#000000;stroke:none;">90032</tspan></text>
		</g>
		<g>
			<path style="stroke-miterlimit:1;" d="M446.35,40.672l-10.717,10.816l-0.281,17.077l16.723-6.735l1.875-7.485l-5.051,1.295v-3.267l6.521-5.716l0.68-6.938l-0.393-4.424l-9.357,5.376z"/>
			<text transform="matrix(1 0 0 1 437.4863 51.1953)"><tspan x="0" y="0" style="fill:#000000;stroke:none;">90031</tspan></text>
		</g>
		<g>
			<path style="stroke-miterlimit:1;" d="M388.523,41.284l0.059,7.758l14.004-0.138l4.195-8.232l-18.258,0.612z"/>
			<text transform="matrix(1 0 0 1 392.8613 45.9453)"><tspan x="0" y="0" style="fill:#000000;stroke:none;">90029</tspan></text>
		</g>
		<g>
			<path style="stroke-miterlimit:1;" d="M368.396,35.229l0.451,6.533l19.676-0.478v-7.008l-20.127,0.952z"/>
			<text transform="matrix(1 0 0 1 370.7363 39.5703)"><tspan x="0" y="0" style="fill:#000000;stroke:none;">90028</tspan></text>
		</g>
		<g>
			<path style="stroke-miterlimit:1;" d="M386.877,0.125l-7.822,1.77l-1.588,1.77l10.207-1.292l0.85,31.904v7.008l18.258-0.612h0.34l6.457-12.179l-7.711-27.416l-18.99-0.952z"/>
			<text transform="matrix(1 0 0 1 390.8594 25.6953)"><tspan x="0" y="0" style="fill:#000000;stroke:none;">90027</tspan></text>
		</g>
		<g>
			<path style="stroke-miterlimit:1;" d="M406.781,40.672l-4.195,8.232l0.053,7.617l8.842,7.553l6.973,3.334l6.633-12.721l-0.451-0.41l5.273-4.421l-4.248-8.572h-4.371l-1.582,5.238l-12.586-5.851h-0.34z"/>
			<text transform="matrix(1 0 0 1 407.9082 53.4189)"><tspan x="0" y="0" style="fill:#000000;stroke:none;">90026</tspan></text>
		</g>
		<g>
			<path style="stroke-miterlimit:1;" d="M325.137,65.709l-11.449,7.143l-3.627-6.258l-12.7,10.816l-0.34,0.337l7.597,6.668l21.938-13.4l-1.418-5.306z"/>
			<text transform="matrix(1 0 0 1 299.8608 78.5703)"><tspan x="0" y="0" style="fill:#000000;stroke:none;">90025</tspan></text>
		</g>
		<g>
			<path style="stroke-miterlimit:1;" d="M305.921,53.735l-0.905,6.463l5.045,6.396l3.627,6.258l11.449-7.143l4.084-3.267l-0.17-0.205l-4.875-10.544l-18.255,2.042z"/>
			<text transform="matrix(1 0 0 1 306.2358 59.1143)"><tspan x="0" y="0" style="fill:#000000;stroke:none;">90024</tspan></text>
		</g>
		<g>
			<path style="stroke-miterlimit:1;" d="M434.842,79.722l2.549,15.17l23.244,14.698l3.744,1.494l1.869-12.721l-1.02-8.774l-17.748-6.668l-12.639-3.199z"/>
			<text transform="matrix(1 0 0 1 442.875 96.9082)"><tspan x="0" y="0" style="fill:#000000;stroke:none;">90023</tspan></text>
		</g>
		<g>
			<path style="stroke-miterlimit:1;" d="M467.613,75.775l-2.385,13.813l1.02,8.774l25.002,2.584l0.568-4.424l-10.26-7.685l0.791-5.376l-7.143-2.379l-0.059-5.376l-7.535,0.067z"/>
			<text transform="matrix(1 0 0 1 468.9863 97.6953)"><tspan x="0" y="0" style="fill:#000000;stroke:none;">90022</tspan></text>
		</g>
		<g>
			<path style="stroke-miterlimit:1;" d="M425.432,77.548l-3.404,3.059l-4.025,6.463L426,91.833l11.391,3.059l-2.549-15.17l-0.398-0.067l-9.012-2.106z"/>
			<text transform="matrix(1 0 0 1 419.3574 89.7236)"><tspan x="0" y="0" style="fill:#000000;stroke:none;">90021</tspan></text>
		</g>
		<g>
			<path style="stroke-miterlimit:1;" d="M371.965,59.041l-0.053,2.722l29.936,0.68l0.85-3.196l-30.732-0.205z"/>
			<text transform="matrix(1 0 0 1 378.9629 61.6221)"><tspan x="0" y="0" style="fill:#000000;stroke:none;">90020</tspan></text>
		</g>
		<g>
			<path style="stroke-miterlimit:1;" d="M357.68,66.318l-3.398,11.499l0.059,1.087l21.938-0.135l12.469-0.067l-0.053-10.887l-17.18-1.77l-13.834,0.272z"/>
			<text transform="matrix(1 0 0 1 363.1777 75.9805)"><tspan x="0" y="0" style="fill:#000000;stroke:none;">90019</tspan></text>
		</g>
		<g>
			<path style="stroke-miterlimit:1;" d="M388.746,78.702l-12.469,0.067l-2.268,14.695l10.201,1.154l9.527-0.475V93.6l-0.111-14.897h-4.881z"/>
			<text transform="matrix(1 0 0 1 375.5352 90.166)"><tspan x="0" y="0" style="fill:#000000;stroke:none;">90018</tspan></text>
		</g>
		<g>
			<path style="stroke-miterlimit:1;" d="M411.48,64.074l-3.68,6.466l9.129,5.101l2.262-2.927l-0.563-0.542l-1.248-0.885l-0.398-0.34l-0.229-0.34v-0.272l1.477-1.77l0.281-0.475l0.34-0.407l-0.398-0.275l-6.973-3.334z"/>
			<text transform="matrix(1 0 0 1 402.9043 69.2393)"><tspan x="0" y="0" style="fill:#000000;stroke:none;">90017</tspan></text>
		</g>
		<g>
			<path style="stroke-miterlimit:1;" d="M354.34,78.904l-0.059,3.744l-8.672,9.932l7.084,0.885h21.316l2.268-14.695l-21.938,0.135z"/>
			<text transform="matrix(1 0 0 1 353.7266 92.6211)"><tspan x="0" y="0" style="fill:#000000;stroke:none;">90016</tspan></text>
		</g>
		<g>
			<path style="stroke-miterlimit:1;" d="M407.801,70.54l-4.195,8.502l10.313,5.783l4.084,2.244l4.025-6.463l-5.098-4.966l-9.129-5.101z"/>
			<text transform="matrix(1 0 0 1 402.2363 83.4453)"><tspan x="0" y="0" style="fill:#000000;stroke:none;">90015</tspan></text>
		</g>
		<g>
			<path style="stroke-miterlimit:1;" d="M416.93,75.641l5.098,4.966l3.404-3.059l-6.24-4.834l-2.262,2.927z"/>
			<text transform="matrix(1 0 0 1 412.3613 77.8203)"><tspan x="0" y="0" style="fill:#000000;stroke:none;">90014</tspan></text>
		</g>
		<g>
			<path style="stroke-miterlimit:1;" d="M419.191,72.714l6.24,4.834l9.012,2.106l-0.34-2.039l-12.639-7.825l-2.273,2.924z"/>
			<text transform="matrix(1 0 0 1 428.8203 79.894)"><tspan x="0" y="0" style="fill:#000000;stroke:none;">90013</tspan></text>
		</g>
		<g>
			<path style="stroke-miterlimit:1;" d="M429.908,49.856l-5.273,4.421l0.451,0.41l-6.633,12.721l0.398,0.275l2.613,2.106l12.639,7.825l1.248-9.05l0.281-17.077l-5.725-1.632z"/>
			<text transform="matrix(1 0 0 1 421.7363 60.1953)"><tspan x="0" y="0" style="fill:#000000;stroke:none;">90012</tspan></text>
		</g>
		<g>
			<path style="stroke-miterlimit:1;" d="M413.918,84.825l-5.268,12.246v16.122l4.928,0.067l12.533-0.272L426,91.833l-7.998-4.764l-4.084-2.244z"/>
			<text transform="matrix(1 0 0 1 409.584 110.8438)"><tspan x="0" y="0" style="fill:#000000;stroke:none;">90011</tspan></text>
		</g>
		<g>
			<path style="stroke-miterlimit:1;" d="M371.912,61.763l-0.059,3.129l30.955,0.272l-0.961-2.722l-29.936-0.68z"/>
			<text transform="matrix(1 0 0 1 379.3672 64.3438)"><tspan x="0" y="0" style="fill:#000000;stroke:none;">90010</tspan></text>
		</g>
		<g>
			<path style="stroke-miterlimit:1;" d="M352.693,93.465l-0.398,4.488l2.156,9.322l6.686,0.609l23.074-4.421v-8.845l-10.201-1.154h-21.316z"/>
			<text transform="matrix(1 0 0 1 359.9199 99.5703)"><tspan x="0" y="0" style="fill:#000000;stroke:none;">90008</tspan></text>
		</g>
		<g>
			<path style="stroke-miterlimit:1;" d="M393.627,78.702l0.111,14.897l14.912,3.472l5.268-12.246l-10.313-5.783l-9.979-0.34z M404.057,93.125l-5.385-2.856l0.059-0.817l-0.059-0.545l0.059-0.34l1.811-0.067l0.287,0.067l1.418,0.75l0.34,0.272l2.66,1.427
				l-0.34,0.478l-0.85,1.632z"/>
			<text transform="matrix(1 0 0 1 395.4336 86.4453)"><tspan x="0" y="0" style="fill:#000000;stroke:none;">90007</tspan></text>
		</g>
		<g>
			<path style="stroke-miterlimit:1;" d="M388.693,67.815l0.053,10.887h4.881l9.979,0.34l4.195-8.502l-4.992-2.725h-14.115z"/>
			<text transform="matrix(1 0 0 1 386.9082 74.3105)"><tspan x="0" y="0" style="fill:#000000;stroke:none;">90006</tspan></text>
		</g>
		<g>
			<path style="stroke-miterlimit:1;" d="M371.854,64.892l-0.34,1.154l17.18,1.77h14.115v-2.651l-30.955-0.272z"/>
			<text transform="matrix(1 0 0 1 379.9473 67.2354)"><tspan x="0" y="0" style="fill:#000000;stroke:none;">90005</tspan></text>
		</g>
		<g>
			<path style="stroke-miterlimit:1;" d="M388.582,49.042l-16.617,0.135v9.864l30.732,0.205l-0.059-2.725l-0.053-7.617l-14.004,0.138z"/>
			<text transform="matrix(1 0 0 1 380.3262 55.2456)"><tspan x="0" y="0" style="fill:#000000;stroke:none;">90004</tspan></text>
		</g>
		<g>
			<path style="stroke-miterlimit:1;" d="M408.65,113.193l-5.045,0.205l0.164,34.017l9.867-0.138v-14.15l-0.059-19.866l-4.928-0.067z"/>
			<text transform="matrix(1 0 0 1 400.2793 121.0596)"><tspan x="0" y="0" style="fill:#000000;stroke:none;">90003</tspan></text>
		</g>
		<g>
			<path style="stroke-miterlimit:1;" d="M413.637,133.127v14.15l21.826,1.022l-0.17-1.702l1.307-10.887l-4.025-2.722l-18.938,0.138z"/>
			<text transform="matrix(1 0 0 1 416.7793 144.1484)"><tspan x="0" y="0" style="fill:#000000;stroke:none;">90002</tspan></text>
		</g>
		<g>
			<path style="stroke-miterlimit:1;" d="M413.578,113.261l0.059,19.866l18.938-0.138l-0.621-3.876l-2.613-15.785l-3.229-0.34l-12.533,0.272z"/>
			<text transform="matrix(1 0 0 1 413.8613 129.5703)"><tspan x="0" y="0" style="fill:#000000;stroke:none;">90001</tspan></text>
		</g>
	</g>
</svg>
