<?xml version="1.0" encoding="iso-8859-1"?>
<!DOCTYPE svg PUBLIC "-//W3C//DTD SVG 20000303 Stylable//EN"   "http://www.w3.org/TR/2000/03/WD-SVG-20000303/DTD/svg-20000303-stylable.dtd">
<!-- Generator: Adobe Illustrator 9.0, SVG Export Plug-In  -->
<svg  width="716.627pt" height="753.728pt" viewBox="0 0 716.627 753.728" xml:space="preserve">
	<g id="Numbers" style="fill-rule:nonzero;clip-rule:nonzero;fill:#FFFFFF;stroke:#000000;stroke-width:0.25;stroke-miterlimit:4; font-family:'ArialMT'; font-size:12;">
		<g>
			<path style="stroke-miterlimit:1;" d="M332.065,419.358h7.154v-2.443l-6.82-2.039l-0.334,4.482z"/>
			<text transform="matrix(1.0068 0 0 1 337.8369 419.4409)"><tspan x="0" y="0" style="fill:#000000;stroke:none;">20580</tspan></text>
		</g>
		<g>
			<path style="stroke-miterlimit:1;" d="M215.382,399.02l2.039,15.855l1.371,4.887l1.371,1.617l6.82,7.33l1.02,0.809l1.02,6.1l38.549,34.154l2.725-2.443l-3.41-10.969l-9.545-5.291l4.43-7.717l7.506-2.443l0.686-2.848l4.096-1.23l5.801,2.443l-1.02,1.635
				l12.621,16.664l0.668,2.848l-4.43,1.23l-7.506-0.826l-2.373,6.1l-5.467,1.635l2.373,6.1l5.133,3.656l3.41,2.848l6.152,6.908l11.25,15.855l6.469,8.947l6.152,15.451l4.781,8.543l4.078,8.543l3.41,7.313l3.762,8.139l2.039,2.848l1.371,0.404l1.371-1.617l1.02-6.1
				l0.668-8.947l-1.688-19.125l-0.352-8.525l-0.668-8.139l-1.371-5.695l-2.039-4.465l-2.391-4.887l-2.742-4.465l-2.391-4.482l-4.764-5.291l-5.115-6.504l-15.697-14.221l2.725-2.039l9.211,2.039l23.555,21.551l3.41,7.313l5.449,11.391l6.469-0.404h2.391l5.801,0.404
				l2.742-0.404l2.039,0.404v5.273v2.848v7.33v4.061v6.504v2.848h-5.801v10.582v2.426l1.02-2.426l1.02-7.734l4.781,2.039l5.133-0.404l3.41-2.848l6.135-9.352l5.801-11.795l-4.781-4.078l-1.02-0.809l-0.334-1.617l-0.352-3.656v-3.674l1.02-2.021v-4.078v-5.695v-2.83
				v-4.078l0.352-3.252v-3.656v-10.16l-0.352-2.443v-3.656v-2.039v-2.039v-2.848l-0.334-4.061h-10.564l-10.248-0.404l-8.877-0.404l-7.488,0.404h-6.82l-3.762,0.404l-3.762,1.213l0.352,3.252h-6.82l-2.742,0.826l-4.078,0.809l-0.352-1.635v-4.465l-4.781,0.404
				l-7.488-0.404v-6.504v-4.887v-3.252v-4.061l-3.762-0.809l-1.02-3.674l1.02-2.021l0.668-2.039v-12.604l-2.039,2.039h-4.43h-2.391l-1.371,0.404h-2.725l-3.41-0.404h-1.705h-3.41v4.061l-0.352,3.656l0.352,5.695h-3.762l-2.725-2.039l-0.334,2.039l-5.467-0.404
				l-5.783,0.404h-5.801v-5.695h-7.857l-3.41-0.809l-0.686-6.908l-0.668-2.443l-4.447-0.404l-4.096-6.926l-2.391,1.23l-4.781,0.404h-4.078l-2.391,0.404z M338.886,455.551h-3.762l-3.059-0.404v-6.117h3.059l3.762,1.23v5.291z"/>
			<text transform="matrix(1.0068 0 0 1 281.835 485.9263)"><tspan x="0" y="0" style="fill:#000000;stroke:none;">20024</tspan></text>
		</g>
		<g>
			<path style="stroke-miterlimit:1;" d="M298.632,419.762v6.1v4.061v3.252v4.887v6.504l7.488,0.404l4.781-0.404l0.352-6.1v-4.482v-4.061l0.334-3.656v-6.504h-5.467h-7.488z"/>
			<text transform="matrix(1.0068 0 0 1 276.9707 439.0142)"><tspan x="0" y="0" style="fill:#000000;stroke:none;">20250</tspan></text>
		</g>
		<g>
			<path style="stroke-miterlimit:1;" d="M295.538,417.319l-0.668,2.039l-1.02,2.021l1.02,3.674l3.762,0.809v-6.1l-3.094-2.443z"/>
			<text transform="matrix(1.0068 0 0 1 276 429.5825)"><tspan x="0" y="0" style="fill:#000000;stroke:none;">20228</tspan></text>
		</g>
		<g>
			<path style="stroke-miterlimit:1;" d="M57.073,311.182l3.41,21.146l6.152,6.1l22.852,17.49l36.176,13.008l8.859,0.404l7.506,0.826l29.338,2.021l23.203,8.139l18.07,8.139l-2.391-3.252l-1.354-2.848l0.686-1.23l2.725-3.252h2.057l0.334-4.061l2.725-4.482
				l0.686-2.021l3.076-4.078l1.02-4.869l4.078-5.291l10.582-2.848l0.352-2.039l-1.705-1.617l-2.391-2.039l-2.391-2.443l-2.373-2.426l-9.229-4.887l-12.287-10.986l2.742-7.717l-3.41-2.443l-1.02-0.809l-15.012-0.826l-10.23-0.387l-1.371-0.422l-1.371,3.252
				l-1.371,1.635l-2.725,2.039l-2.057-2.848l-2.039-2.848l-2.391-3.252l-2.725-3.674l-1.02-1.617l4.43-1.23l5.801-1.213l3.41,0.809l2.057,0.826l4.43,0.404l3.762-1.23l-0.352-3.252l-5.115-5.291l-0.334-5.273v-7.734l-0.352-5.291h-4.096h-3.744h-7.172h-4.43h-4.096
				h-5.115h-4.096l-3.076,0.422l-5.449,4.869l-3.762,1.23l-6.469-0.826l-3.762-6.1l-4.096,1.635h-8.525h-4.43h-3.762h-5.801l-7.84-1.635l-3.41,0.404l-2.391,5.695l-1.02,2.443l-0.703,2.443l-1.02,1.617v3.27l-2.707,3.656l-2.742,10.564h-6.152l-0.668-3.656
				l-2.742-4.061l-4.078,6.1l-1.723,2.443l-1.688,1.617l-2.742,3.656z M164.194,363.635h-7.154h-5.467h-1.688l-7.857-0.404l-3.744-0.404l-1.371-0.404l-5.449-1.635l2.707-8.121l-1.688-4.061l-2.391-4.482l-0.352-4.061l-0.668-4.482l8.859,0.404l8.859,0.422h3.094
				l5.449-0.422h3.059l0.352,2.443h13.307v5.291l0.334,4.465v3.674h-4.43l-4.43,0.404v3.656l0.334,4.869l0.334,2.848z"/>
			<text transform="matrix(1.0068 0 0 1 124.0186 323.9438)"><tspan x="0" y="0" style="fill:#000000;stroke:none;">20007</tspan></text>
		</g>
		<g>
			<path style="stroke-miterlimit:1;" d="M233.118,344.528l2.391,2.039l1.705,1.617l-0.352,2.039l-10.582,2.848l-4.078,5.291l-1.02,4.869l-3.076,4.078l-0.686,2.021l-2.725,4.482l-0.334,4.061h-2.057l-2.725,3.252l-0.686,1.23l1.354,2.848l2.391,3.252l-0.334,1.617
				l1.705,4.078l1.371,4.869l2.391-0.404h4.078l4.781-0.404l2.391-1.23l4.096,6.926l4.447,0.404l7.154-0.404l5.467,3.656l-0.352-3.656v-4.887l-0.352-4.061h-11.602v-4.482h-4.43l-0.334-13.008h1.705l1.371,2.039l2.039,0.404l1.371-0.809l2.391-1.23l5.449,7.33h2.039
				l0.352-1.635v-1.617l-0.352-4.078v-4.465l-0.334-8.543l-1.354-0.404l1.688-2.443l-0.334-3.252v-1.635l0.334-4.061l-0.668-4.887v-4.869h-2.742l-4.43-0.809l-6.135,0.809h-1.371l-1.02,1.213z"/>
			<text transform="matrix(1.0068 0 0 1 212.7354 375.0083)"><tspan x="0" y="0" style="fill:#000000;stroke:none;">20037</tspan></text>
		</g>
		<g>
			<path style="stroke-miterlimit:1;" d="M248.815,343.315v4.869l0.668,4.887l-0.334,4.061v1.635l0.334,3.252l-1.688,2.443l1.354,0.404l0.334,8.543v4.465h5.801h5.467h6.135l7.172-0.404h3.059h6.838l6.486-0.404l0.334-4.482l-0.334-8.121v-3.252v-3.674v-2.83
				l-0.352-2.443v-4.078v-2.83v-3.27l-6.82,0.422h-6.152l-10.898,0.809l-0.352-2.443l-1.371,1.635l-4.43,0.809h-2.391h-3.059h-5.801z"/>
			<text transform="matrix(1.0068 0 0 1 243.9805 355.3647)"><tspan x="0" y="0" style="fill:#000000;stroke:none;">20036</tspan></text>
		</g>
		<g>
			<path style="stroke-miterlimit:1;" d="M290.774,372.583h4.096l3.059-7.313l-1.354-0.809h-6.135l0.334,8.121z"/>
			<text transform="matrix(1.0068 0 0 1 254.3867 368.0034)"><tspan x="0" y="0" style="fill:#000000;stroke:none;">20416</tspan></text>
		</g>
		<g>
			<path style="stroke-miterlimit:1;" d="M249.483,377.874l0.352,4.078v1.617l-0.352,1.635l0.352,4.869h5.115l-5.115,8.947v4.887l0.352,3.656v6.908h5.801l3.059-1.617l-5.115-2.848l1.705-1.635v-1.617h6.135l5.115-0.826v4.887v3.656l-5.115,0.404v4.887l5.467,0.404
				l0.334-2.039l2.725,2.039h3.762l-0.352-5.695l0.352-3.656v-4.061v-4.482v-3.252v-4.482h-7.172h-5.801v-4.061h5.801l7.172,1.635h5.115h9.545h5.467v-5.291v-4.869v-4.887h-3.744l-6.486,0.404h-6.838h-3.059l-7.172,0.404h-6.135h-5.467h-5.801z M266.886,404.311
				h-5.115v-5.291l5.115-0.809v6.1z M284.288,386.821l-0.334-4.465l6.486-0.404l-1.723,4.465l-4.43,0.404z"/>
			<text transform="matrix(1.0068 0 0 1 247.1777 383.3335)"><tspan x="0" y="0" style="fill:#000000;stroke:none;">20006</tspan></text>
		</g>
		<g>
			<path style="stroke-miterlimit:1;" d="M259.046,412.854l-3.059,1.617v5.695l5.783-0.404v-4.887l5.115-0.404v-3.656v-4.887l-5.115,0.826l-2.725,6.1z"/>
			<text transform="matrix(1.0068 0 0 1 241.8174 428.2603)"><tspan x="0" y="0" style="fill:#000000;stroke:none;">20240</tspan></text>
		</g>
		<g>
			<path style="stroke-miterlimit:1;" d="M295.538,417.319l3.094,2.443V409.18v-4.465h-3.094v12.604z"/>
			<text transform="matrix(1.0068 0 0 1 264.9541 418.8882)"><tspan x="0" y="0" style="fill:#000000;stroke:none;">20230</tspan></text>
		</g>
		<g>
			<path style="stroke-miterlimit:1;" d="M294.185,394.151v4.061v3.656l-5.115-0.404l-0.686,2.848l0.686,2.443h4.43l2.039-2.039h3.094v4.465v10.582h7.488v-13.834l5.133,1.635l4.43,1.213l2.725,1.23l6.82,2.021l3.41,1.635l3.762,1.213l6.82,2.039v2.443h-7.154v6.908
				v3.656l-0.352,3.656l14.66-0.404l1.371,4.887h-1.02h-0.352l-7.84,2.848l-6.135,1.617l-7.857,0.404l0.352-4.869l-6.486,0.404h-7.154l-0.352,6.1v4.465l0.352,1.635l4.078-0.809l2.742-0.826h6.82l-0.352-3.252l3.762-1.213l3.762-0.404h6.82l7.488-0.404l8.877,0.404
				l10.248,0.404v-6.504l7.84-1.23l2.725-0.404v1.635l3.076-0.404l7.84-0.404v-2.848v-5.291l0.686-5.291l7.506-3.252l-4.43-0.809l-3.076,0.404l-8.191-0.404l-3.41,0.404h-2.725l-2.057-0.404h-5.783h-3.094h-2.039h-4.096l-31.043-10.986h-6.82l-0.334-5.273h7.154
				v-4.482l0.334-4.869h-7.154l-3.076,0.387h-3.744l-5.115,0.422l-7.84-0.809h-4.447z"/>
			<text transform="matrix(1.0068 0 0 1 349.0449 429.8345)"><tspan x="0" y="0" style="fill:#000000;stroke:none;">20004</tspan></text>
		</g>
		<g>
			<path style="stroke-miterlimit:1;" d="M249.483,385.204h-2.039l-5.449-7.33l-2.391,1.23l-1.371,0.809l-2.039-0.404l-1.371-2.039h-1.705l0.334,13.008h4.43v4.482h11.602l0.352,4.061l5.115-8.947h-5.115l-0.352-4.869z"/>
			<text transform="matrix(1.0068 0 0 1 212.9033 385.2271)"><tspan x="0" y="0" style="fill:#000000;stroke:none;">20052</tspan></text>
		</g>
		<g>
			<path style="stroke-miterlimit:1;" d="M395.839,428.709v2.848h4.113v2.021l0.334,4.887l-4.447-0.404l-0.668,6.1h-5.133h-3.059h-5.801l-5.115,0.404l0.334,4.061v2.848v2.039v2.039v3.656l0.352,2.443v10.16v3.656l-0.352,3.252v4.078v2.83v5.695v4.078l-1.02,2.021
				v3.674l0.352,3.656l0.334,1.617l1.02,0.809l4.781,4.078l4.096-7.33l1.02-5.678v-15.047l5.801-0.404l2.039,0.404h2.391h3.076h5.115l4.43-0.826h1.723l8.859,0.826h3.762h4.43h3.41l4.096-0.826v5.695v2.848v5.695l1.705,4.061l3.41-2.426l36.158-19.934l18.439-4.887
				l2.707-1.617l0.686-3.252l10.582-18.703l8.191-21.551l-2.725,0.404l-7.172-4.482l-3.059-3.656l-8.191,1.635l-0.352,4.465v2.848l-8.859-0.404l-1.037-1.213l-2.039,0.404l-5.467,0.809l-6.135-0.404h-5.115h-4.781h-6.152h-9.879l0.352,2.848h-2.057h-2.725h-2.057
				h-4.764l-0.352-2.443h-3.059h-3.762l-4.43-0.809l-3.762,0.404h-7.84h-3.41h-3.762h-2.725h-2.391h-2.057h-2.391z"/>
			<text transform="matrix(1.0068 0 0 1 429.8779 471.2837)"><tspan x="0" y="0" style="fill:#000000;stroke:none;">20003</tspan></text>
		</g>
		<g>
			<path style="stroke-miterlimit:1;" d="M376.397,278.663v3.656v2.848v2.426v3.674l-0.334,5.273l0.334,4.078l-0.334,4.465l0.334,4.078v4.465v5.291v2.426v2.443v3.252v3.252v2.848v2.443v3.656v2.443l0.352,1.635l-0.352,4.465l-0.334,4.482l0.334,2.848v2.021v4.078
				l0.352,2.848l-0.352,4.465v3.656v4.887l0.352,4.887v2.426v2.039l0.334,2.443l-0.334,2.848v5.678l-0.352,3.674l-0.334,2.021v5.291l6.486,0.404h4.781l0.668,5.695l7.172-0.809v2.443v4.465l0.334,4.061l0.334,4.078h2.391h2.057h2.391h2.725h3.762h3.41h7.84
				l3.762-0.404l4.43,0.809h3.762h3.059l0.352,2.443h4.764h2.057h2.725h2.057l-0.352-2.848h9.879h6.152h4.781h5.115l6.135,0.404l5.467-0.809l2.039-0.404l1.037,1.213l8.859,0.404v-2.848l0.352-4.465l8.191-1.635l3.059,3.656l7.172,4.482l2.725-0.404l-4.096-9.352
				l1.02-5.291l8.543-14.203l0.844-4.43l-0.844-15.521l9.211-16.277l3.41-4.465l14.66-3.252l1.371-2.039l13.992-27.246l26.262-3.656l6.135-4.061l-41.607-3.674l-1.371,1.23l-7.172,1.617l-17.736-0.809h-2.057l-15.346-0.809l-11.936,0.809h-9.211h-8.191h-2.039
				h-2.742l-9.211,1.635l-12.621,4.869l-8.859,4.078l-4.447,2.021l-5.467,2.039l-4.078,1.213l-1.02,1.23l-1.02-2.443l-1.371-2.443l-0.352-1.617l-1.688-3.674l-0.352-6.908l4.781-4.887l2.391-2.83l1.354-1.635l6.486-6.1l2.725-4.061l-6.135-4.482l-0.352,5.291
				l-7.172-2.443l-4.764,2.039l1.354-10.986l-1.02-3.656h-3.744h-4.447h-7.488h-4.096h-3.076l-6.82-0.404l-1.705-0.404l-8.525-2.443l-1.371-1.635l-0.352-1.617l-2.391,0.809l-1.688,0.404l-2.742,0.404l-3.41,0.422z M510.519,448.959l16.348-20.654l-2.391-30.498
				l18.756-33.75l5.115-6.117l0.352,5.695l-13.324,24.398l1.037,9.773l0.334,2.021l-7.84,28.477l-17.051,22.764l-1.301-0.773l-0.035-1.336z M523.456,411.219l1.02,12.604l-5.133,1.635l2.391-6.504l1.723-7.734z"/>
			<text transform="matrix(1.0068 0 0 1 470.4834 369.2251)"><tspan x="0" y="0" style="fill:#000000;stroke:none;">20002</tspan></text>
		</g>
		<g>
			<path style="stroke-miterlimit:1;" d="M290.089,342.084v3.27v2.83v4.078l0.352,2.443v2.83v3.674v3.252h6.135l1.354,0.809l-3.059,7.313h-4.096l-0.334,4.482h3.744v4.887v4.869v5.291v2.039h4.447l7.84,0.809l5.115-0.422h3.744v-6.082l-0.668-4.482l0.334-2.021
				l0.334-4.887l-0.668-4.061l0.668-1.635l-0.334-7.313v-6.117l0.334-5.273v-4.482l-0.334-3.252v-2.848l-3.744,0.422l-2.057-0.422l-3.076,0.422h-4.43h-3.762l-7.84-0.422z"/>
			<text transform="matrix(1.0068 0 0 1 289.9121 360.0054)"><tspan x="0" y="0" style="fill:#000000;stroke:none;">20005</tspan></text>
		</g>
		<g>
			<path style="stroke-miterlimit:1;" d="M457.257,175.374l-10.916-3.656l-3.41-0.422l-7.506-0.809l-6.469,0.809l-3.094,1.23l-7.154,2.021l-10.564,1.23l-1.371,0.404l-1.371,0.404l-1.371,0.404h-2.039l-2.039-0.404l1.371,4.887l5.098,15.047l1.371,3.656
				l7.172,20.742h-1.371h-3.076l-3.076,0.404h-5.801h-4.764l1.354,9.756l1.723,4.061l0.668,5.291l1.02,6.1l1.723-0.809h1.354l1.037,0.404h1.354l1.705,0.404l2.039,0.404l1.723,1.213l3.41,0.422l3.41,3.656l-6.152,2.848l-8.191,4.465l-1.688,0.404l-2.391,1.23
				l-9.896,11.391l-2.725,2.426l-1.723,1.635l0.352,1.617l1.371,1.635l8.525,2.443l1.705,0.404l6.82,0.404h3.076h4.096h7.488h4.447h3.744l4.113-0.404h7.154h7.857l8.174-0.404h4.096l2.039-0.404v-1.635v-2.443l-0.334-4.465l5.801-0.404v-4.078v-4.061l-1.037-3.656
				l-0.668-4.482v-4.061l-0.352-3.656v-4.482l5.133-0.404h6.135l-0.334-2.443l-0.352-2.021l-0.668-8.543v-5.695v-4.061l-0.703-3.252l-0.334-1.635l-0.686-4.887l1.723-1.213l1.688-3.252l2.391-2.848l0.352-1.617l2.391-2.443l1.688-0.809l-3.41-2.848l-19.441-18.299
				l-3.41-2.848z"/>
			<text transform="matrix(1.0068 0 0 1 418.2764 232.186)"><tspan x="0" y="0" style="fill:#000000;stroke:none;">20017</tspan></text>
		</g>
		<g>
			<path style="stroke-miterlimit:1;" d="M344.687,263.211l0.668,3.252l-5.115,1.213l-11.936,1.213l-10.916,1.23l-4.447,0.809l1.02,4.061l0.352,3.674l0.352,4.061l0.334,4.061l-0.334,4.078l-0.352,5.273l0.686,6.504l-0.334,6.521v4.465l-0.352,4.887l0.352,6.1
				l-0.352,2.848l0.352,2.426l0.334,6.521v5.678v2.848l0.334,3.252v4.482l-0.334,5.273v6.117l0.334,7.313l-0.668,1.635l0.668,4.061l-0.334,4.887l-0.334,2.021l0.668,4.482v6.082l3.076-0.387h7.154l-0.334,4.869v4.482v5.273l31.043,10.986h4.096h2.039h3.094h5.783
				l2.057,0.404h2.725l3.41-0.404l1.705-6.504l6.82,1.213l-0.668-5.695h-4.781l-6.486-0.404v-5.291l0.334-2.021l0.352-3.674v-5.678h-8.543h-2.373l-0.334-3.252v-1.635l11.25-0.404v-2.039v-2.426l-0.352-4.887v-4.887v-3.656l0.352-4.465l-0.352-2.848v-4.078v-2.021
				l-0.334-2.848l0.334-4.482l0.352-4.465l-0.352-1.635v-2.443v-3.656v-2.443v-2.848v-3.252v-3.252v-2.443v-2.426v-5.291v-4.465l-0.334-4.078l0.334-4.465l-0.334-4.078l0.334-5.273v-3.674v-2.426v-2.848v-3.656l-10.564,1.617v-5.695l-0.334-3.656l-0.352-1.617
				l-2.039-3.252l-5.133-1.23l1.723-1.213l1.688-1.23l1.02-0.809l1.037-1.635l-8.191,1.23l-3.076,0.809l-7.488,1.23z M335.476,301.831l-0.352-5.695l-2.039-10.16l-3.076,0.404l-0.334-1.635v-2.426l-0.352-3.252l-1.02-1.635l4.43-1.617h4.781v1.617l2.039,6.926
				l4.781,5.678v4.078l0.686,6.504l-9.545,1.213z M351.841,394.538h-9.545v-3.234v-2.848h9.545v6.082z"/>
			<text transform="matrix(1.0068 0 0 1 333.6904 345.4419)"><tspan x="0" y="0" style="fill:#000000;stroke:none;">20001</tspan></text>
		</g>
		<g>
			<path style="stroke-miterlimit:1;" d="M486.595,483.202l2.057,1.617l2.391,1.23l3.41,1.617l1.688,1.23l1.371,0.404l2.039,1.213l1.371,0.809l3.762,1.635l2.039,1.213l1.371,0.826l1.705-1.23l2.057-1.213l1.354-0.809l2.057-1.23l2.039-1.213l1.705-0.404
				l2.725-2.039l2.391-1.635l3.41-1.617l4.781-3.252l1.705-1.23l3.076-1.617l1.688,0.809l2.057-1.635l2.391,1.23l5.467,3.252l3.41,1.635l4.43,2.426l11.936,6.1l9.896,4.078l4.096,2.021l17.068,8.543l3.744,1.635l7.154,3.656l2.742,1.617l1.02-0.809l1.371-1.617
				l1.688-2.039l2.057-2.039l1.705-1.617l2.039-1.635l1.371-1.617l1.371-0.404l1.705-2.039l2.039-2.039l2.057-2.021l2.039-1.635l4.43-4.061l3.076-3.252l2.057-1.23l4.078-3.656l5.467-5.695l8.191-8.139l4.096-4.061l3.059-1.213l2.391-2.848l2.391-2.443l2.742-2.039
				l2.039-2.426l2.039-2.039l3.076-2.848l2.725-2.039l3.076-3.252l2.373-2.039l3.428-3.252l5.467-4.869l3.41-3.656l1.02-1.23l1.354-1.213l2.725-1.635l3.41-3.656l1.037-0.809l3.744-3.656l-4.078-4.482l-2.057-2.021l-1.354-1.23l-2.391-2.443l-2.742-2.021
				l-2.039-1.635l-0.686-1.213l-2.725-2.039l-3.076-2.443l-1.02-1.213l-1.037-1.213l-2.039-1.635l-3.059-3.252l-1.723-1.23l-4.078-3.656l-1.371-0.809l-0.686-1.213l-2.725-2.848l-2.039-1.23l-7.523-7.313l-2.725-2.848l-2.373-1.635l-4.113-4.465l-1.705-1.635
				l-3.076-2.848l-3.059-3.252l-3.059-2.021l-3.094-3.656l-3.41-2.848l-1.02-1.23l-1.02-0.809l-3.059-2.039l-3.762-4.061l-1.371-1.213l-2.391-3.674l-6.82-6.1l-2.039-2.021l-4.096-2.848l-3.744-3.252l-6.152-5.695l-3.41,4.465l-10.582,8.947l-23.537,3.656
				l-9.211,20.338l-6.486,12.604l-7.154,15.451l13.307,2.848l-3.41,1.23l-12.973-0.404l-2.725,6.908l-1.705,4.869l1.705,4.482l0.334,1.617l-4.43,28.477l-2.039,5.273l-3.762,8.947l-10.23,11.391l-9.896,8.947l-1.02,2.039l-1.037,2.426l-8.191,12.199l-12.955,3.674z"
				/>
			<text transform="matrix(1.0068 0 0 1 584.7764 418.2329)"><tspan x="0" y="0" style="fill:#000000;stroke:none;">20019</tspan></text>
		</g>
		<g>
			<path style="stroke-miterlimit:1;" d="M338.886,455.551v-5.291l-3.762-1.23h-3.059v6.117l3.059,0.404h3.762z"/>
			<g>
				<text transform="matrix(1.0068 0 0 1 318.1172 461.6372)"><tspan x="0" y="0" style="fill:#000000;stroke:none;">20590</tspan></text>
			</g>
		</g>
		<g>
			<path style="stroke-miterlimit:1;" d="M325.228,412.028v7.734l6.838-0.404l0.334-4.482l-3.762-1.213l-3.41-1.635z"/>
			<text transform="matrix(1.0068 0 0 1 327.3496 413.2114)"><tspan x="0" y="0" style="fill:#000000;stroke:none;">20408</tspan></text>
		</g>
		<g>
			<path style="stroke-miterlimit:1;" d="M311.587,419.762v6.504l-0.334,3.656v4.061v4.482h7.154l6.486-0.404h7.506h6.486h7.488h0.352h1.02l-1.371-4.887l-14.66,0.404l0.352-3.656v-3.656v-6.908l-6.838,0.404h-7.154h-6.486z"/>
			<text transform="matrix(1.0068 0 0 1 312.2314 437.5581)"><tspan x="0" y="0" style="fill:#000000;stroke:none;">20560</tspan></text>
		</g>
		<g>
			<path style="stroke-miterlimit:1;" d="M351.841,394.538v-6.082h-9.545v2.848v3.234h9.545z"/>
			<text transform="matrix(1.0068 0 0 1 328.2813 389.145)"><tspan x="0" y="0" style="fill:#000000;stroke:none;">20548</tspan></text>
		</g>
		<g>
			<path style="stroke-miterlimit:1;" d="M325.228,403.502h-7.154l0.334,5.273h6.82v-5.273z"/>
			<text transform="matrix(1.0068 0 0 1 322.8623 404.1216)"><tspan x="0" y="0" style="fill:#000000;stroke:none;">20535</tspan></text>
		</g>
		<g>
			<path style="stroke-miterlimit:1;" d="M237.565,404.311l0.668,2.443l0.686,6.908l3.41,0.809h7.857v-6.908l-5.467-3.656l-7.154,0.404z"/>
			<text transform="matrix(1.0068 0 0 1 208.0615 409.1802)"><tspan x="0" y="0" style="fill:#000000;stroke:none;">20520</tspan></text>
		</g>
		<g>
			<path style="stroke-miterlimit:1;" d="M250.187,414.471v5.695h5.801v-5.695h-5.801z"/>
			<text transform="matrix(1.0068 0 0 1 221.6055 419.6353)"><tspan x="0" y="0" style="fill:#000000;stroke:none;">20551</tspan></text>
		</g>
		<g>
			<path style="stroke-miterlimit:1;" d="M379.474,419.762l8.191,0.404l3.076-0.404l4.43,0.809v-4.465v-2.443l-7.172,0.809l-6.82-1.213l-1.705,6.504z"/>
			<text transform="matrix(1.0068 0 0 1 376.5342 418.897)"><tspan x="0" y="0" style="fill:#000000;stroke:none;">20510</tspan></text>
		</g>
		<g>
			<path style="stroke-miterlimit:1;" d="M363.442,259.942l-1.037,1.635l-1.02,0.809l-1.688,1.23l-1.723,1.213l5.133,1.23l2.039,3.252l0.352,1.617l0.334,3.656v5.695l10.564-1.617l3.41-0.422l2.742-0.404l1.688-0.404l2.391-0.809l1.723-1.635l2.725-2.426
				l9.896-11.391l-8.543-2.443l-2.725,0.809l-5.467,0.404h-1.688h-1.371l-6.135,0.422l-11.602-0.422z"/>
			<text transform="matrix(1.0068 0 0 1 362.0264 273.0474)"><tspan x="0" y="0" style="fill:#000000;stroke:none;">20422</tspan></text>
		</g>
		<g>
			<path style="stroke-miterlimit:1;" d="M284.288,386.821l4.43-0.404l1.723-4.465l-6.486,0.404l0.334,4.465z"/>
			<text transform="matrix(1.0068 0 0 1 280.7256 381.7104)"><tspan x="0" y="0" style="fill:#000000;stroke:none;">20420</tspan></text>
		</g>
		<g>
			<path style="stroke-miterlimit:1;" d="M266.886,404.311v-6.1l-5.115,0.809v5.291h5.115z"/>
			<text transform="matrix(1.0068 0 0 1 240.54 403.2524)"><tspan x="0" y="0" style="fill:#000000;stroke:none;">20405</tspan></text>
		</g>
		<g>
			<path style="stroke-miterlimit:1;" d="M376.749,386.417l-11.25,0.404v1.635l0.334,3.252h2.373h8.543l0.334-2.848l-0.334-2.443z"/>
			<text transform="matrix(1.0068 0 0 1 365.8184 388.7202)"><tspan x="0" y="0" style="fill:#000000;stroke:none;">20401</tspan></text>
		</g>
		<g>
			<path style="stroke-miterlimit:1;" d="M317.054,678.389l-2.742,30.498l17.051-0.422h1.371h3.059l7.172,0.422l3.41-1.23l1.723-4.869v-3.674l-0.352-2.83l-4.781,0.404h-1.02h-2.039l-2.039,0.404l-1.371-0.404l-1.371-0.404l1.02-6.117l-1.02-1.213l-1.371-1.635
				l-1.354-1.617l-2.391-2.039l-2.057-1.617l-2.725-2.039l-1.02-1.213l-0.334-1.635l-6.82,1.23z"/>
			<text transform="matrix(1.0068 0 0 1 313.0713 704.5981)"><tspan x="0" y="0" style="fill:#000000;stroke:none;">20375</tspan></text>
		</g>
		<g>
			<path style="stroke-miterlimit:1;" d="M385.96,503.926l15.012-5.273l8.859-0.404l2.742,0.809l18.422,5.695l6.82-4.078l-1.705-4.061v-5.695v-2.848v-5.695l-4.096,0.826h-3.41h-4.43h-3.762l-8.859-0.826h-1.723l-4.43,0.826h-5.115h-3.076h-2.391l-2.039-0.404
				l-5.801,0.404v15.047l-1.02,5.678z"/>
			<text transform="matrix(1.0068 0 0 1 396.5908 496.4497)"><tspan x="0" y="0" style="fill:#000000;stroke:none;">20374</tspan></text>
		</g>
		<g>
			<path style="stroke-miterlimit:1;" d="M394.485,517.356l-5.115,12.604l-2.391,3.252l-2.039,2.848l-2.742,4.869l-1.688,1.635l-3.428,2.848l-5.801,3.656l-5.449,3.252l-2.057,1.23l-1.02,0.809v0.809v0.826l-6.82,7.717l-0.352,0.809l0.686,0.404l-0.686,1.23
				l0.352,0.404l0.668,1.617l-2.373,1.635l-9.211,19.107l-2.057,0.826h-1.371l-1.354,2.426l-3.076,6.504l-1.371,6.1l-0.668,1.23l-4.781,16.26l-3.744,14.238l-0.334,3.656l-3.094,11.391l-0.316,3.252l-0.703,2.443l-4.43,16.664l-0.668,4.482l6.82-1.23l0.334,1.635
				l1.02,1.213l2.725,2.039l2.057,1.617l2.391,2.039l1.354,1.617l1.371,1.635l1.02,1.213l-1.02,6.117l1.371,0.404l1.371,0.404l2.039-0.404h2.039h1.02l4.781-0.404l-0.668-2.039v-4.482v-1.617v-3.252v-2.443v-2.443l1.02-2.021v-3.27l1.02-2.021l2.039-3.252
				l2.039-3.656l3.41-5.291l2.057-3.252l3.41-5.291l5.467-8.139l4.43-6.504l3.41-4.887l1.705-4.869l1.037-4.887l0.668-9.756l1.02-3.252v-4.061l0.703-7.33l1.02-8.121l5.449-11.391l7.506-29.285l1.354-2.848l2.391-3.656l0.703-1.617l3.059-10.582l0.686-1.617v-5.291
				l-3.076-4.465l-1.705-0.422l-1.02-0.809l-2.391-0.809z"/>
			<text transform="matrix(1.0068 0 0 1 335.5537 628.8892)"><tspan x="0" y="0" style="fill:#000000;stroke:none;">20332</tspan></text>
		</g>
		<g>
			<path style="stroke-miterlimit:1;" d="M340.925,501.905l2.391,43.102l1.02,1.617l1.705,0.826l1.705-0.404l3.762-1.635l3.059-1.635v-2.426v-10.582h5.801v-2.848v-6.504v-4.061v-7.33v-2.848v-5.273l-2.039-0.404l-2.742,0.404l-5.801-0.404h-2.391l-6.469,0.404z"/>
			<text transform="matrix(1.0068 0 0 1 333.8486 529.854)"><tspan x="0" y="0" style="fill:#000000;stroke:none;">20319</tspan></text>
		</g>
		<g>
			<path style="stroke-miterlimit:1;" d="M342.296,234.735v2.443v1.617l-0.703,2.848v2.443l0.703,3.656v2.848l1.354,3.252h1.371l1.02,3.252l-1.705-0.404l-0.352,2.848l0.703,3.674l7.488-1.23l3.076-0.809l8.191-1.23l11.602,0.422l6.135-0.422h1.371h1.688
				l5.467-0.404l2.725-0.809l8.543,2.443l2.391-1.23l1.688-0.404l-2.039-2.443l-1.371-10.564l-1.02-6.1l-0.668-5.291l-1.723-4.061l-1.354-9.756h-5.115l-2.057-0.404l-3.076-1.635l-1.688-1.617l-2.391-2.848l-4.096-2.443l-8.191-7.33l-1.705,1.23l-3.059,5.273
				l-3.094,4.078l-3.744,4.061l-2.391,4.078l-0.686,1.213l-3.41,4.061l-1.688,0.404l-1.371,1.635l-1.371,2.039l-5.449,1.617z"/>
			<text transform="matrix(1.0068 0 0 1 356.542 239.5161)"><tspan x="0" y="0" style="fill:#000000;stroke:none;">20317</tspan></text>
		</g>
		<g>
			<path style="stroke-miterlimit:1;" d="M311.253,407.563l0.334,12.199h6.486l0.334-9.756l-2.725-1.23l-4.43-1.213z"/>
			<text transform="matrix(1.0068 0 0 1 311.0244 428.312)"><tspan x="0" y="0" style="fill:#000000;stroke:none;">20224</tspan></text>
		</g>
		<g>
			<path style="stroke-miterlimit:1;" d="M288.718,392.112l0.352,9.352l5.115,0.404v-3.656v-4.061v-2.039h-5.467z"/>
			<text transform="matrix(1.0068 0 0 1 294.3291 393.314)"><tspan x="0" y="0" style="fill:#000000;stroke:none;">20220</tspan></text>
		</g>
		<g>
			<path style="stroke-miterlimit:1;" d="M401.64,246.53l1.371,10.564l2.039,2.443l8.191-4.465l6.152-2.848l-3.41-3.656l-3.41-0.422l-1.723-1.213l-2.039-0.404l-1.705-0.404h-1.354l-1.037-0.404h-1.354l-1.723,0.809z"/>
			<text transform="matrix(1.0068 0 0 1 392.1201 254.8267)"><tspan x="0" y="0" style="fill:#000000;stroke:none;">20064</tspan></text>
		</g>
		<g>
			<path style="stroke-miterlimit:1;" d="M335.476,301.831l9.545-1.213l-0.686-6.504v-4.078l-4.781-5.678l-2.039-6.926v-1.617h-4.781l-4.43,1.617l1.02,1.635l0.352,3.252v2.426l0.334,1.635l3.076-0.404l2.039,10.16l0.352,5.695z"/>
			<text transform="matrix(1.0068 0 0 1 319.874 294.2017)"><tspan x="0" y="0" style="fill:#000000;stroke:none;">20059</tspan></text>
		</g>
		<g>
			<path style="stroke-miterlimit:1;" d="M395.839,546.624l-1.354,2.848l-7.506,29.285l-5.449,11.391l-1.02,8.121l-0.703,7.33v4.061l-1.02,3.252l-0.668,9.756l-1.037,4.887l-1.705,4.869l-3.41,4.887l-4.43,6.504l-5.467,8.139l-3.41,5.291l-2.057,3.252l-3.41,5.291
				l-2.039,3.656l-2.039,3.252l-1.02,2.021v3.27l-1.02,2.021v2.443v2.443v3.252v1.617v4.482l0.668,2.039l0.352,2.83v3.674l-1.723,4.869l-3.41,1.23l-7.172-0.422h-3.059h-1.371l-17.051,0.422l-0.686,17.068l-1.354,2.443l8.191,15.451l2.039,5.291l11.25,3.252
				l12.973,0.404l4.43-0.404l1.371,0.809l1.705,0.404l22.166-21.146l9.563-8.93l16.717-17.49l4.096-1.23l1.371-1.213l5.801-6.1l1.688-2.039l3.762-2.021l2.039-4.078l10.934-10.564l4.764-4.078l1.354-1.213l5.133-4.482l0.668-1.213l1.371-1.213l6.152-5.291
				l4.781-4.061l1.02-1.23l2.039-1.213l7.172-5.695l5.449-4.887l5.115-4.465l7.857-9.352l2.039-1.635l4.096-3.656l7.154-6.908l-6.82,1.617l-5.449,2.039l-5.801,0.404l-2.039-4.465l-4.113-9.352l-2.725-4.482l-5.115,1.23l-2.039,0.404l-3.076,1.213l-2.057,0.809
				l-11.918,3.674l-2.057-0.404l13.307-17.086l-4.43-3.656l-19.793-14.238l-13.307-10.16l-8.525-6.504l-14.344-10.178l-1.02-1.213l-1.371-1.23z"/>
			<text transform="matrix(1.0068 0 0 1 398.9404 659.9673)"><tspan x="0" y="0" style="fill:#000000;stroke:none;">20032</tspan></text>
		</g>
		<g>
			<path style="stroke-miterlimit:1;" d="M486.595,483.202l-1.354,0.404l-1.02,2.848l-20.813,8.543l-1.723,1.617l-15.346,7.717l-4.764,2.443l-14.678,9.352l-24.908-5.678l-7.506,6.908l2.391,0.809l1.02,0.809l1.705,0.422l3.076,4.465v5.291l-0.686,1.617
				l-3.059,10.582l-0.703,1.617l-2.391,3.656l1.371,1.23l1.02,1.213l14.344,10.178l8.525,6.504l13.307,10.16l19.793,14.238l4.43,3.656l-13.307,17.086l2.057,0.404l11.918-3.674l2.057-0.809l3.076-1.213l2.039-0.404l5.115-1.23l2.725,4.482l4.113,9.352l2.039,4.465
				l5.801-0.404l5.449-2.039l6.82-1.617l3.076-3.252l3.076-2.039l2.391-2.443l2.725-2.021l1.705-2.039l4.096-3.252l2.725-2.443l3.41-2.848l2.742-2.848l1.688-2.021l2.391-2.039l4.43-4.482l4.781-4.869l12.973-11.795l4.096-2.848l2.391-3.252l2.725-2.443l1.705-1.617
				l3.744-4.078l13.658-11.373l2.725-2.848l3.762-3.656l3.744-3.674l3.076-2.443l3.41-3.252l3.41-3.252l4.43-3.656l3.41-3.252l2.391-1.617l2.039-2.039l1.723-1.635l-2.742-1.617l-7.154-3.656l-3.744-1.635l-17.068-8.543l-4.096-2.021l-9.896-4.078l-11.936-6.1
				l-4.43-2.426l-3.41-1.635l-5.467-3.252l-2.391-1.23l-2.057,1.635l-1.688-0.809l-3.076,1.617l-1.705,1.23l-4.781,3.252l-3.41,1.617l-2.391,1.635l-2.725,2.039l-1.705,0.404l-2.039,1.213l-2.057,1.23l-1.354,0.809l-2.057,1.213l-1.705,1.23l-1.371-0.826
				l-2.039-1.213l-3.762-1.635l-1.371-0.809l-2.039-1.213l-1.371-0.404l-1.688-1.23l-3.41-1.617l-2.391-1.23l-2.057-1.617z"/>
			<text transform="matrix(1.0068 0 0 1 487.042 554.8501)"><tspan x="0" y="0" style="fill:#000000;stroke:none;">20020</tspan></text>
		</g>
		<g>
			<path style="stroke-miterlimit:1;" d="M428.253,283.127l1.02,3.656l-1.354,10.986l4.764-2.039l7.172,2.443l0.352-5.291l6.135,4.482l-2.725,4.061l-6.486,6.1l-1.354,1.635l-2.391,2.83l-4.781,4.887l0.352,6.908l1.688,3.674l0.352,1.617l1.371,2.443l1.02,2.443
				l1.02-1.23l4.078-1.213l5.467-2.039l4.447-2.021l8.859-4.078l12.621-4.869l9.211-1.635h2.742h2.039h8.191h9.211l11.936-0.809l15.346,0.809h2.057l17.736,0.809l7.172-1.617l1.371-1.23l41.607,3.674l3.744-4.482l2.057-3.252l-6.82-6.504l-16.717-15.855
				l-23.871-22.359l-4.781-4.482l-5.133-3.252l-1.688-2.039l-5.467-5.291l-1.354-0.404l-1.037-2.021l-4.096-3.656l-4.43-4.078l-1.02-0.809l-3.41-3.252l-3.41-2.848l-5.801-4.887l-3.762-4.061l-8.191-7.313l-5.801-5.291l-4.078-3.656l-9.914-9.352l-1.688,0.809
				l-2.391,2.443l-0.352,1.617l-2.391,2.848l-1.688,3.252l-1.723,1.213l0.686,4.887l0.334,1.635l0.703,3.252v4.061v5.695l0.668,8.543l0.352,2.021l0.334,2.443h-6.135l-5.133,0.404v4.482l0.352,3.656v4.061l0.668,4.482l1.037,3.656v4.061v4.078l-5.801,0.404
				l0.334,4.465v2.443v1.635l-2.039,0.404h-4.096l-8.174,0.404h-7.857h-7.154l-4.113,0.404z"/>
			<text transform="matrix(1.0068 0 0 1 499.3115 272.0356)"><tspan x="0" y="0" style="fill:#000000;stroke:none;">20018</tspan></text>
		</g>
		<g>
			<path style="stroke-miterlimit:1;" d="M97.679,155.44l-2.391,1.635l-1.02,0.809l-3.762,4.061l-2.725,2.848l-1.354,0.809l-1.723,1.635l-3.744,3.656l-3.076,3.252l-1.02,1.23l-3.762,3.656l-1.354,0.809l-2.391,1.635l-3.744,4.061l-1.723,2.443l-1.688,1.213
				l-1.723,0.826l-3.41,3.252l-6.135,4.869l-16.365,15.451L23.64,222.94l-1.371,1.23l-4.078,4.465l-4.096,3.656l-3.744,3.27l-1.371,1.617l-1.723,1.617l-7.154,6.117l8.525,12.182l1.723,9.369l1.688,3.656l18.773,21.146l22.852,21.955v-3.656l3.41,1.617l2.742-3.656
				l1.688-1.617l1.723-2.443l4.078-6.1l2.742,4.061l0.668,3.656h6.152l2.742-10.564l2.707-3.656v-3.27l1.02-1.617l0.703-2.443l1.02-2.443l2.391-5.695l3.41-0.404l7.84,1.635h5.801h3.762h4.43h8.525l4.096-1.635l3.762,6.1l6.469,0.826l3.762-1.23l5.449-4.869
				l3.076-0.422h4.096h5.115h4.096h4.43h7.172h3.744h4.096v-5.678l-0.352-4.887v-5.291v-4.465v-3.252v-4.887v-2.443v-4.465v-3.656l-0.316-4.078h-6.838h-10.23h-3.41v-13.008v-3.656l-0.334-4.078l0.334-3.234v-2.443v-2.039l0.686-4.061l2.725-0.404l-2.391-3.252
				l-1.02-3.27l0.686-3.252l1.02-4.061l1.705-3.656l0.686-2.848l-0.686-1.635v-4.061l-1.037-2.443l-1.02-2.443l-2.039-3.656l-0.686-1.617l-5.467-7.33h-8.859h-9.211h-1.705l-5.467-0.404l-6.135,0.809l-7.84-1.213l-8.877,0.404h-6.82z"/>
			<text transform="matrix(1.0068 0 0 1 73.5342 239.5161)"><tspan x="0" y="0" style="fill:#000000;stroke:none;">20016</tspan></text>
		</g>
		<g>
			<path style="stroke-miterlimit:1;" d="M226.28,36.295l-4.078,4.482l-2.742,2.021l-2.039,2.848l-1.371,1.635l-1.354,1.617l-2.391,2.443l-4.43,2.443l-4.447,4.061l-4.078,4.078l-4.781,4.465l-1.02,0.809l-4.43,3.674l-4.113,4.061l-2.725,2.021l-3.076,2.848
				l-6.82,6.521l-1.705,2.848l-3.744,2.426l-2.742,4.482l-1.02,0.809l-5.449,3.656l-3.762,3.252l-2.039,1.23l-3.076,2.848l-3.076,2.83l-1.354,1.23l-1.371,1.617l-3.076,2.443l-6.82,6.926l-6.469,5.678l-2.391,2.443l-6.152,4.887l-1.688,1.213l-1.723,2.443
				l-3.41,3.252l-3.059,2.848l-3.076,4.061l-1.371,2.039l-6.135,3.656h6.82l8.877-0.404l7.84,1.213l6.135-0.809l5.467,0.404h1.705h9.211h8.859h11.602l3.762-5.695l0.686-2.426h7.154l0.686-1.23l5.115,3.656l3.41,0.826l5.467,1.617l4.447,0.404l10.23,1.635
				l3.059,4.061l3.41-1.617l4.43-6.926l-0.668-10.564l6.82-0.809l5.801-1.23l7.506-1.213l9.211,6.1l9.545-0.809l1.371-0.404l1.371-2.039l2.039-1.635l-12.973-14.221l-0.668-2.848l7.84-13.43l3.762-8.121l7.84-0.826l5.801-3.656l1.371-2.848l1.02-4.061l-1.02-4.887
				l-0.686-5.273l-13.307-8.139l-2.391-7.313l4.43-2.039h5.133l4.764-7.313l-7.506-6.117l-0.352,1.635l-11.584-2.443l-13.992-5.291l-10.248-4.061z"/>
			<text transform="matrix(1.0068 0 0 1 180.5615 113.3813)"><tspan x="0" y="0" style="fill:#000000;stroke:none;">20015</tspan></text>
		</g>
		<g>
			<path style="stroke-miterlimit:1;" d="M272.019,91.596l7.84-1.617l-1.02,4.465h5.115v2.443l-0.334,3.252v3.252v3.656v5.291v3.252l10.23,0.404l11.936,0.826v-2.848l6.486,0.404l1.354-0.826v1.635l5.115-0.404h5.801l6.152,0.404l4.781-0.404h4.078v2.848v1.617
				l6.152,0.826l6.469-0.826l0.352-4.465h3.744h4.447l-2.391-5.695l-2.057-4.465l1.037-0.826h3.059h3.076h4.096l0.668,3.252l8.191,0.422v3.656h-7.488l3.059,3.252l4.43,0.404h6.82h9.563l-2.391-2.443l-3.059-2.848l-1.371-1.617l-4.096-3.252l-1.705-1.23l-1.02-1.617
				l-5.467-4.887l-3.41-3.252l-6.486-6.1l-1.705-1.635l-1.705-1.617l-2.391-2.443l-3.744-3.656l-5.467-4.482l-3.744-3.252l-2.057-2.021l-2.725-2.443l-1.354-1.23l-7.523-7.313l-3.059-2.443l-3.076-3.252l-3.41-2.848l-4.764-4.465l-5.133-4.482l-1.371-1.617
				l-4.078-3.656l-4.781-4.482l-4.43-3.252l-1.723-2.443l-1.688-1.617l-1.723-1.635l-3.41-2.848l-2.725-2.426l-1.705-1.23l-1.02-1.213l-3.076-4.482l-12.621-8.947l-3.41,2.443L251.206,14.34l-3.41,3.252l-19.441,17.086l-2.074,1.617l10.248,4.061l13.992,5.291
				l11.584,2.443l0.352-1.635l7.506,6.117l-4.764,7.313h-5.133l-4.43,2.039l2.391,7.313l13.307,8.139l0.686,5.273l1.02,4.887l-1.02,4.061z M284.974,93.635l-0.334-2.848l-0.352-6.1l3.41-4.887l6.152-6.504l2.725-1.617l10.564-0.404h9.211l0.352,2.021l-0.686,6.1
				l-1.02,9.352l-0.334,4.482h-16.031h-4.781l-8.877,0.404z"/>
			<text transform="matrix(1.0068 0 0 1 292.7334 65.4751)"><tspan x="0" y="0" style="fill:#000000;stroke:none;">20012</tspan></text>
		</g>
		<g>
			<path style="stroke-miterlimit:1;" d="M272.019,91.596l-1.371,2.848l-5.801,3.656l-7.84,0.826l-3.762,8.121l-7.84,13.43l0.668,2.848l12.973,14.221l3.762,5.695l4.764,3.252l-5.801,4.887l-2.373,6.1l2.373,8.543l-7.84,7.717l-1.371,4.482l-7.506,6.1l6.152,13.008
				l-8.877,4.869l-6.135,7.734l-5.801,15.855l1.688,1.635v5.695l11.285,3.252l1.688,8.121l6.152-2.021l15.68-2.039l7.84-4.061l7.857-4.078v2.443h3.076l6.135,1.23l3.744,0.809l-0.668-2.039h10.916h1.705h6.469h2.391h5.133h2.039h4.43l5.801-0.809l8.543,0.809
				l5.449-1.617l1.371-2.039l1.371-1.635l1.688-0.404l3.41-4.061l0.686-1.213l2.391-4.078l3.744-4.061l3.094-4.078l3.059-5.273l1.705-1.23l8.191,7.33l4.096,2.443l2.391,2.848l1.688,1.617l3.076,1.635l2.057,0.404h5.115h4.764h5.801l3.076-0.404h3.076h1.371
				l-7.172-20.742l-1.371-3.656l-5.098-15.047l-1.371-4.887l2.039,0.404h2.039l1.371-0.404l1.371-0.404l1.371-0.404l10.564-1.23l7.154-2.021l3.094-1.23l6.469-0.809l7.506,0.809l3.41,0.422l10.916,3.656l-8.525-8.139l-5.115-4.869l-3.41-2.039l-3.41-4.078
				l-1.371-1.213l-1.705-1.617l-1.037-0.826l-6.82-6.1l-8.859-8.121l-1.705-2.039l-2.725-2.848l-1.371-1.213l-1.02-0.826l-2.742-2.021l-2.725-2.848l-1.705-2.039l-4.078-3.656l-3.428-3.252l-2.725-2.848h-9.563h-6.82l-4.43-0.404l-3.059-3.252h7.488v-3.656
				l-8.191-0.422l-0.668-3.252h-4.096h-3.076h-3.059l-1.037,0.826l2.057,4.465l2.391,5.695h-4.447h-3.744l-0.352,4.465l-6.469,0.826l-6.152-0.826v-1.617v-2.848h-4.078l-4.781,0.404l-6.152-0.404h-5.801l-5.115,0.404v-1.635l-1.354,0.826l-6.486-0.404v2.848
				l-11.936-0.826l-10.23-0.404v-3.252v-5.291v-3.656v-3.252l0.334-3.252v-2.443h-5.115l1.02-4.465l-7.84,1.617z"/>
			<text transform="matrix(1.0068 0 0 1 327.4766 172.6138)"><tspan x="0" y="0" style="fill:#000000;stroke:none;">20011</tspan></text>
		</g>
		<g>
			<path style="stroke-miterlimit:1;" d="M245.054,244.491l-3.059,4.482l-5.801,4.061l-0.352,2.443l5.133,2.039l8.859,6.504l5.449,11.795l2.057-0.422l1.705-0.404h3.762l-3.076-2.021l-1.705-2.039l-0.686-2.039l6.135,2.443h2.742l8.508,0.404h5.467l3.076,0.422
				l6.469-0.826h5.801h10.248l7.154-0.404l4.447-0.809l10.916-1.23l11.936-1.213l5.115-1.213l-0.668-3.252l-0.703-3.674l0.352-2.848l1.705,0.404l-1.02-3.252h-1.371l-1.354-3.252v-2.848l-0.703-3.656v-2.443l0.703-2.848v-1.617v-2.443l-8.543-0.809l-5.801,0.809
				h-4.43h-2.039h-5.133h-2.391h-6.469h-1.705H294.87l0.668,2.039l-3.744-0.809l-6.135-1.23h-3.076v-2.443l-7.857,4.078l-7.84,4.061l-15.68,2.039l-6.152,2.021z"/>
			<text transform="matrix(1.0068 0 0 1 274.1357 259.4321)"><tspan x="0" y="0" style="fill:#000000;stroke:none;">20010</tspan></text>
		</g>
		<g>
			<path style="stroke-miterlimit:1;" d="M262.808,274.989l-3.41,3.252l-3.076,3.674l1.354,0.809l-2.725,3.252l-1.02,0.809l-9.896,0.809l-2.391,2.443l0.352,2.039l-2.391,0.404l-5.133,7.33l2.057,2.021l3.076,7.33l1.688,2.021l1.371,0.422l1.371,0.387l2.039,3.27
				l2.391,4.061l0.686,1.213l0.334,2.848l0.703,3.656l0.334,2.039l-1.705,1.213l0.334,6.117l-0.334,3.252v3.656h5.801h3.059h2.391l4.43-0.809l1.371-1.635l0.352,2.443l10.898-0.809h6.152l6.82-0.422l7.84,0.422h3.762h4.43l3.076-0.422l2.057,0.422l3.744-0.422
				v-5.678l-0.334-6.521l-0.352-2.426l0.352-2.848l-0.352-6.1l0.352-4.887v-4.465l0.334-6.521l-0.686-6.504l0.352-5.273l0.334-4.078l-0.334-4.061l-0.352-4.061l-0.352-3.674l-1.02-4.061l-7.154,0.404h-10.248h-5.801l-6.469,0.826l-3.076-0.422h-5.467l-8.508-0.404
				h-2.742l-6.135-2.443l0.686,2.039l1.705,2.039l3.076,2.021z"/>
			<text transform="matrix(1.0068 0 0 1 257.9287 311.481)"><tspan x="0" y="0" style="fill:#000000;stroke:none;">20009</tspan></text>
		</g>
		<g>
			<path style="stroke-miterlimit:1;" d="M152.593,155.844l5.467,7.33l0.686,1.617l2.039,3.656l1.02,2.443l1.037,2.443v4.061l0.686,1.635l-0.686,2.848l-1.705,3.656l-1.02,4.061l-0.686,3.252l1.02,3.27l2.391,3.252l-2.725,0.404l-0.686,4.061v2.039v2.443
				l-0.334,3.234l0.334,4.078v3.656v13.008h3.41h10.23h6.838l0.316,4.078v3.656v4.465v2.443v4.887v3.252v4.465v5.291l0.352,4.887v5.678l0.352,5.291v7.734l0.334,5.273l5.115,5.291l0.352,3.252l-3.762,1.23l-4.43-0.404l-2.057-0.826l-3.41-0.809l-5.801,1.213
				l-4.43,1.23l1.02,1.617l2.725,3.674l2.391,3.252l2.039,2.848l2.057,2.848l2.725-2.039l1.371-1.635l1.371-3.252l1.371,0.422l10.23,0.387l15.012,0.826l1.02,0.809l3.41,2.443l-2.742,7.717l12.287,10.986l9.229,4.887l2.373,2.426l2.391,2.443l1.02-1.213h1.371
				l6.135-0.809l4.43,0.809h2.742v-3.656l0.334-3.252l-0.334-6.117l1.705-1.213l-0.334-2.039l-0.703-3.656l-0.334-2.848l-0.686-1.213l-2.391-4.061l-2.039-3.27l-1.371-0.387l-1.371-0.422l-1.688-2.021l-3.076-7.33l-2.057-2.021l5.133-7.33l2.391-0.404l-0.352-2.039
				l2.391-2.443l9.896-0.809l1.02-0.809l2.725-3.252l-1.354-0.809l3.076-3.674l3.41-3.252h-3.762l-1.705,0.404l-2.057,0.422l-5.449-11.795l-8.859-6.504l-5.133-2.039l0.352-2.443l5.801-4.061l3.059-4.482l-1.688-8.121l-11.285-3.252v-5.695l-1.688-1.635
				l5.801-15.855l6.135-7.734l8.877-4.869l-6.152-13.008l7.506-6.1l1.371-4.482l7.84-7.717l-2.373-8.543l2.373-6.1l5.801-4.887l-4.764-3.252l-3.762-5.695l-2.039,1.635l-1.371,2.039l-1.371,0.404l-9.545,0.809l-9.211-6.1l-7.506,1.213l-5.801,1.23l-6.82,0.809
				l0.668,10.564l-4.43,6.926l-3.41,1.617l-3.059-4.061l-10.23-1.635l-4.447-0.404l-5.467-1.617l-3.41-0.826l-5.115-3.656l-0.686,1.23h-7.154l-0.686,2.426l-3.762,5.695h-11.602z"/>
			<text transform="matrix(1.0068 0 0 1 184.4521 213.9224)"><tspan x="0" y="0" style="fill:#000000;stroke:none;">20008</tspan></text>
		</g>
		<g>
			<path style="stroke-miterlimit:1;" d="M164.194,363.635l-0.334-2.848l-0.334-4.869v-3.656l4.43-0.404h4.43v-3.674l-0.334-4.465v-5.291h-13.307l-0.352-2.443h-3.059l-5.449,0.422h-3.094l-8.859-0.422l-8.859-0.404l0.668,4.482l0.352,4.061l2.391,4.482l1.688,4.061
				l-2.707,8.121l5.449,1.635l1.371,0.404l3.744,0.404l7.857,0.404h1.688h5.467h7.154z"/>
			<text transform="matrix(1.0068 0 0 1 133.9326 354.9868)"><tspan x="0" y="0" style="fill:#000000;stroke:none;">20057</tspan></text>
		</g>
		<g>
			<path style="stroke-miterlimit:1;" d="M395.171,420.571l-7.506,3.252l-0.686,5.291l8.859-0.404l-0.334-4.078l-0.334-4.061z"/>
			<text transform="matrix(1.0068 0 0 1 382.2793 428.1577)"><tspan x="0" y="0" style="fill:#000000;stroke:none;">20543</tspan></text>
		</g>
		<g>
			<path style="stroke-miterlimit:1;" d="M386.979,429.114v5.291v2.848v6.908h3.059h5.133l0.668-6.1l4.447,0.404l-0.334-4.887v-2.021h-4.113v-2.848l-8.859,0.404z"/>
			<text transform="matrix(1.0068 0 0 1 387.8271 438.4263)"><tspan x="0" y="0" style="fill:#000000;stroke:none;">20540</tspan></text>
		</g>
		<g>
			<path style="stroke-miterlimit:1;" d="M386.979,437.252l-7.84,0.404l-3.076,0.404v-1.635l-2.725,0.404l-7.84,1.23v6.504h10.564l5.115-0.404h5.801v-6.908z"/>
			<text transform="matrix(1.0068 0 0 1 373.0215 448.5806)"><tspan x="0" y="0" style="fill:#000000;stroke:none;">20515</tspan></text>
		</g>
		<g>
			<path style="stroke-miterlimit:1;" d="M324.894,438.061l-0.352,4.869l7.857-0.404v-4.465h-7.506z"/>
			<text transform="matrix(1.0068 0 0 1 298.3486 449.8198)"><tspan x="0" y="0" style="fill:#000000;stroke:none;">20591</tspan></text>
		</g>
		<g>
			<path style="stroke-miterlimit:1;" d="M332.399,438.061v4.465l6.135-1.617l0.352-2.848h-6.486z"/>
			<text transform="matrix(1.0068 0 0 1 330.1709 448.6089)"><tspan x="0" y="0" style="fill:#000000;stroke:none;">20201</tspan></text>
		</g>
		<g>
			<path style="stroke-miterlimit:1;" d="M338.886,438.061l-0.352,2.848l7.84-2.848h-7.488z"/>
			<text transform="matrix(1.0068 0 0 1 344.9912 439.4673)"><tspan x="0" y="0" style="fill:#000000;stroke:none;">20546</tspan></text>
		</g>
		<g>
			<path style="stroke-miterlimit:1;" d="M261.771,406.754h-6.135v1.617l-1.705,1.635l5.115,2.848l2.725-6.1z"/>
			<text transform="matrix(1.0068 0 0 1 241.0537 410.7778)"><tspan x="0" y="0" style="fill:#000000;stroke:none;">20415</tspan></text>
		</g>
		<g>
			<path style="stroke-miterlimit:1;" d="M274.058,392.112v2.426v4.482v3.252v4.482h3.41h1.705l3.41,0.404h2.725l1.371-0.404h2.391l-0.686-2.443l0.686-2.848l-0.352-9.352h-9.545h-5.115z"/>
			<text transform="matrix(1.0068 0 0 1 274.0996 402.2837)"><tspan x="0" y="0" style="fill:#000000;stroke:none;">20500</tspan></text>
		</g>
		<g>
			<path style="stroke-miterlimit:1;" d="M266.886,390.477h-5.801v4.061h5.801v-4.061z"/>
			<text transform="matrix(1.0068 0 0 1 228.9072 394.0806)"><tspan x="0" y="0" style="fill:#000000;stroke:none;">20549</tspan></text>
		</g>
		<g>
			<path style="stroke-miterlimit:1;" d="M318.407,410.006l-0.334,9.756h7.154v-7.734l-6.82-2.021z"/>
			<text transform="matrix(1.0068 0 0 1 318.1953 419.8755)"><tspan x="0" y="0" style="fill:#000000;stroke:none;">20530</tspan></text>
		</g>
		<g>
			<path style="stroke-miterlimit:1;" d="M266.886,390.477v4.061h7.172v-2.426l-7.172-1.635z"/>
			<text transform="matrix(1.0068 0 0 1 262.4307 391.7466)"><tspan x="0" y="0" style="fill:#000000;stroke:none;">20547</tspan></text>
		</g>
		<g>
			<path style="stroke-miterlimit:1;" d="M306.12,419.762h5.467l-0.334-12.199l-5.133-1.635v13.834z"/>
			<text transform="matrix(1.0068 0 0 1 288.0664 410.8364)"><tspan x="0" y="0" style="fill:#000000;stroke:none;">20260</tspan></text>
		</g>
		<g>
			<path style="stroke-miterlimit:1;" d="M284.974,93.635l8.877-0.404h4.781h16.031l0.334-4.482l1.02-9.352l0.686-6.1l-0.352-2.021h-9.211l-10.564,0.404l-2.725,1.617l-6.152,6.504l-3.41,4.887l0.352,6.1l0.334,2.848z"/>
			<text transform="matrix(1.0068 0 0 1 283.6982 87.8345)"><tspan x="0" y="0" style="fill:#000000;stroke:none;">20307</tspan></text>
		</g>
	</g>
</svg>
