<?xml version="1.0" encoding="iso-8859-1"?>
<!DOCTYPE svg PUBLIC "-//W3C//DTD SVG 20000303 Stylable//EN"   "http://www.w3.org/TR/2000/03/WD-SVG-20000303/DTD/svg-20000303-stylable.dtd">
<!-- Generator: Adobe Illustrator 9.0, SVG Export Plug-In  -->
<svg  width="1054.824pt" height="1774.847pt" viewBox="0 0 1054.824 1774.847" xml:space="preserve">
	<g id="Numbers" style="fill-rule:nonzero;clip-rule:nonzero;fill:#FFFFFF;stroke:#000000;stroke-width:0.25;stroke-miterlimit:4; font-family:'ArialMT'; font-size:12;">
		<g>
			<path style="stroke-miterlimit:1;" d="M536.837,1705.873l0.735,4.624l-20.777,9.084l6.888,49.901l49.945,1.245l8.276-25.057l1.588-21.769l-3.844-5.839l-11.689,2.303l2.326-5.446l-7.315-2.651l3.8-3.878l-2.268-5.919l-27.665,3.401z"/>
			<text transform="matrix(1 0 0 1 533.4565 1739.7842)"><tspan x="0" y="0" style="fill:#000000;stroke:none;">03049</tspan></text>
		</g>
		<g>
			<path style="stroke-miterlimit:1;" d="M667.118,1604.506l1.131,5.444l-21.246,2.812l-21.782,2.971l5.382,27.93l0.003,0.031l8.54,44.021l22.811,1.017l14.572,16.597l9.144-12.284l-2.481-14.954l10.201-1.443l-8.845-68.492l-17.429-3.648z"/>
			<text transform="matrix(1 0 0 1 642.6167 1658.1016)"><tspan x="0" y="0" style="fill:#000000;stroke:none;">03053</tspan></text>
		</g>
		<g>
			<path style="stroke-miterlimit:1;" d="M658.704,1540.945l-6.419-0.477l6.439,21.995l0.565,2.652l7.828,39.39l17.429,3.648l20.106,3.646l9.75-31.166l3.334-26.613l-59.033-13.076z"/>
			<text transform="matrix(1 0 0 1 668.3218 1579.3193)"><tspan x="0" y="0" style="fill:#000000;stroke:none;">03032</tspan></text>
		</g>
		<g>
			<path style="stroke-miterlimit:1;" d="M635.234,1576.22l9.879,21.433l1.89,15.109l21.246-2.812l-1.131-5.444l-7.828-39.39l-8.558,1.837l3.683,2.722l-4.591,6.056l-14.59,0.489z"/>
			<text transform="matrix(1 0 0 1 644.0522 1593.124)"><tspan x="0" y="0" style="fill:#000000;stroke:none;">03109</tspan></text>
		</g>
		<g>
			<path style="stroke-miterlimit:1;" d="M517.537,1531.721l1.559,14.429l-1.151,5.375l5.013,1.524l8.265,34.729l68.092-7.559l-0.381-2.891l-13.049-1.792l2.883-6.867l9.311,4.079l-7.667-37.021l-3.296-14.035l-69.577,10.028z"/>
			<text transform="matrix(1 0 0 1 541.7358 1557.9199)"><tspan x="0" y="0" style="fill:#000000;stroke:none;">03045</tspan></text>
		</g>
		<g>
			<path style="stroke-miterlimit:1;" d="M847.042,912.813l-13.799,0.618l1.219,25.731l-17.098,0.646l0.334-26.807l-31.934,0.28l-12.22,12.756l-5.88-1.359l0.387,7.046l-7.266,7.564l11.786,6.792l6.176,17.811l11.991-2.492l-1.002,7.934l10.447,14.837l-0.598,9.586
				l84.563-18.167l1.409-3.639l-0.662-32.915l-32.534-0.155l-1.532-26.212l-3.788,0.144z"/>
			<text transform="matrix(1 0 0 1 818.48 967.3975)"><tspan x="0" y="0" style="fill:#000000;stroke:none;">03849</tspan></text>
		</g>
		<g>
			<path style="stroke-miterlimit:1;" d="M847.51,1135.627l-33.457-21.872l-19.843-7.497l-6.226,7.833l-12.064-7.321l-30.141,35.743l-7.128,7.933l-5.599-2.063l-2.191,14.722l-11.288,5.191l16.415,9.238l8.2,4.632l5.288-4.679l13.148,15.986l5.306-5.502
				l20.382,13.66l20.353-22.884l38.06-41.962l0.785-1.159z"/>
			<text transform="matrix(1 0 0 1 766.853 1157.1279)"><tspan x="0" y="0" style="fill:#000000;stroke:none;">03894</tspan></text>
		</g>
		<g>
			<path style="stroke-miterlimit:1;" d="M817.686,1223.695l13.052,57.491l1.541-1.733l34.942-39.458l-7.286-31.778l-16.86,1.613l-10.002,13.975l-2.543-4.058l-12.844,3.948z"/>
			<text transform="matrix(1 0 0 1 825.7632 1247.8867)"><tspan x="0" y="0" style="fill:#000000;stroke:none;">03887</tspan></text>
		</g>
		<g>
			<path style="stroke-miterlimit:1;" d="M704.295,947.23l0.026,6.713l-17.297,9.335l-0.999,6.129l-5.279-0.968l1.512,8.518l-8.335,5.681l10.304,4.069l7.664,2.358l10.532-4.218l27.929,14.825l-20.81,7.278l-20.815,0.765l5.326,28.19l28.26,5.349l20.637-26.882
				l20.725-7.551l-3.158-10.406l3.352-0.772l-1.148-6.78l7.441-2.32l-9.882-46.976l-55.983,7.663z M755.278,971.617l-8.83-1.298l-13.646-15.401l8.648,0.876l0.715-4.389l5.525-0.76l7.588,20.972z"/>
			<text transform="matrix(1 0 0 1 701.2866 980.5518)"><tspan x="0" y="0" style="fill:#000000;stroke:none;">03886</tspan></text>
		</g>
		<g>
			<path style="stroke-miterlimit:1;" d="M930.731,1532.081l-1.336,6.43l-12.475,7.015l1.79,8.64l-5.004,12.217l2.622,4.641l28.219,17.212l0.305-0.123l10.893-23.13l5.232-15.356l-24.064-19.599h4.711v-7.578l-10.893,9.633z"/>
			<text transform="matrix(1 0 0 1 921.6528 1563.5264)"><tspan x="0" y="0" style="fill:#000000;stroke:none;">03885</tspan></text>
		</g>
		<g>
			<path style="stroke-miterlimit:1;" d="M783.872,1333.661l-21.914,24.681l-14.578,16.531l-6.457,7.158l64.456,47.947l23.739-30.717l-11.15-2.992l-12.17-11.046l-5.701,1.284l4.465-5.871l-8.174-7.409l16.729-15.788l-0.583-0.416l-28.661-23.362z"/>
			<text transform="matrix(1 0 0 1 765.0366 1398.3018)"><tspan x="0" y="0" style="fill:#000000;stroke:none;">03884</tspan></text>
		</g>
		<g>
			<path style="stroke-miterlimit:1;" d="M684.227,986.708l4.5,21.009l20.815-0.765l20.81-7.278l-27.929-14.825l-10.532,4.218l-7.664-2.358z"/>
			<text transform="matrix(1 0 0 1 689.2866 1002.3018)"><tspan x="0" y="0" style="fill:#000000;stroke:none;">03883</tspan></text>
		</g>
		<g>
			<path style="stroke-miterlimit:1;" d="M889.475,1054.339l-6.516-3.595l-6.861,13.996l-9.404,2.257l4.125,3.907l-6.205,8.489l5.745,24.75l3.337,2.436l7.295-5.483l10.91,1.905l-2.426-48.662z"/>
			<text transform="matrix(1 0 0 1 861.7866 1091.5518)"><tspan x="0" y="0" style="fill:#000000;stroke:none;">03882</tspan></text>
		</g>
		<g>
			<path style="stroke-miterlimit:1;" d="M933.965,1379.392l-11.561,15.713l23.303,21.433l26.654-14.35l-1.658-6.101l-9.557-2.091l-2.487-5.938l-11.142-5.336l-0.68-7.007l-8.165-2.787l-4.708,6.463z"/>
			<text transform="matrix(1 0 0 1 930.6929 1397.917)"><tspan x="0" y="0" style="fill:#000000;stroke:none;">03878</tspan></text>
		</g>
		<g>
			<path style="stroke-miterlimit:1;" d="M760.279,939.568l9.882,46.976l3.475,16.649l3.352-1.22l22.6-8.217l0.598-9.586l-10.447-14.837l1.002-7.934l-11.991,2.492l-6.176-17.811l-11.786-6.792l-0.507,0.28z"/>
			<text transform="matrix(1 0 0 1 763.5425 974.4253)"><tspan x="0" y="0" style="fill:#000000;stroke:none;">03875</tspan></text>
		</g>
		<g>
			<path style="stroke-miterlimit:1;" d="M927.561,1632.126l1.761,13.606l16.608,2.789l20.959,14.661l18.691-7.741l0.952-11.871l-4.661-4.599l-0.694-4.823l-6.882,4.665l-14.08-5.802l-32.654-0.886z"/>
			<text transform="matrix(1 0 0 1 940.355 1650.8389)"><tspan x="0" y="0" style="fill:#000000;stroke:none;">03874</tspan></text>
		</g>
		<g>
			<path style="stroke-miterlimit:1;" d="M779.424,1595.459l-25.184-3.196l2.174,30.557l0.258,5.429l34.752,9.46l4.556,0.338l2.098,0.139l-1.761-42.318l-16.893-0.407z"/>
			<text transform="matrix(1 0 0 1 759.4702 1618.4072)"><tspan x="0" y="0" style="fill:#000000;stroke:none;">03873</tspan></text>
		</g>
		<g>
			<path style="stroke-miterlimit:1;" d="M846.725,1136.786l-38.06,41.962l9.021,44.947l12.844-3.948l2.543,4.058l10.002-13.975l16.86-1.613l7.286,31.778l14.139-16.416l21.158-23.077l4.761,0.369l1.579-7.465l-12.223-12.592l-1.412-22.803l-9.217-0.573
				l-5.619-6.856l-33.662-13.796z"/>
			<text transform="matrix(1 0 0 1 842.0698 1191.5752)"><tspan x="0" y="0" style="fill:#000000;stroke:none;">03872</tspan></text>
		</g>
		<g>
			<path style="stroke-miterlimit:1;" d="M945.708,1416.537l10.146,10.611l26.15,7.6l6.99-19.518l-4.661-8.512l-11.971-4.531l-26.654,14.35z"/>
			<text transform="matrix(1 0 0 1 950.6616 1421.6523)"><tspan x="0" y="0" style="fill:#000000;stroke:none;">03869</tspan></text>
		</g>
		<g>
			<path style="stroke-miterlimit:1;" d="M885.836,1314.441l-5.689,6.294l-10.506-6.787l-25.564-2.287l-8.701,12.727l-18.492-7.829l-8.432,6.853l-11.186-4.849l-6.973,7.913l-6.422,7.186l28.661,23.362l0.583,0.416l29.209,24.565l-9.164,11.883l3.299,1.644
				l14.959-10.769l17.405,1.306l0.627,0.057l3.929,2.838l5.238-11.382l4.893,2.612l8.704,11.098l-2.382,10.325l18,13.354l7.043-9.567l-6.835-8.032l6.419-4.311l5.959,4.561l1.986-2.517l11.561-15.713l4.708-6.463l1.192-3.267l-6.293-0.814l6.123-3.402l-8.625-6.084
				l-0.105-8.367l-10.641-6.633l-0.044-4.721l-12.577,2.212l-7.213-6.662l-6.709,17.655l-2.241-7.172l3.366-13.45l-8.01-19.033l-1.061,1.251z"/>
			<text transform="matrix(1 0 0 1 845.1812 1366.501)"><tspan x="0" y="0" style="fill:#000000;stroke:none;">03867</tspan></text>
		</g>
		<g>
			<path style="stroke-miterlimit:1;" d="M773.635,1003.193l-9.961,3.63l-20.725,7.551l-20.637,26.882l19.611,3.081l25.102,46.078l-10.67,3.15l-10.562,11.686l0.765,14.898l-5.895,3.268l5.115,19.096l30.141-35.743l12.064,7.321l6.226-7.833l19.843,7.497
				l33.457,21.872l26.186-29.048l-3.337-2.436l-63.46-45.42l25.266-29.689l-3.935-3.747l3.776-1.053l-10.283-10.825l1.424,12.252l-4.846,8.888l-21.891,1.584l-2.268-15.704l-8.704-2.903l-3.041-11.852l-5.411-3.7l-3.352,1.22z"/>
			<text transform="matrix(1 0 0 1 776.314 1087.4277)"><tspan x="0" y="0" style="fill:#000000;stroke:none;">03864</tspan></text>
		</g>
		<g>
			<path style="stroke-miterlimit:1;" d="M955.745,1564.981l-10.893,23.13l58.734,12.925l7.761-2.278l4.178-7.477l-14.435-10.247l-13.421-2.945l8.15-9.026l-9.606-1.646l-30.469-2.435z"/>
			<text transform="matrix(1 0 0 1 958.4995 1590.1924)"><tspan x="0" y="0" style="fill:#000000;stroke:none;">03862</tspan></text>
		</g>
		<g>
			<path style="stroke-miterlimit:1;" d="M833.43,837.067l-46.869-1.083l1.737,14.307l3.981,20.966l5.643,24.308l21.618,5.852l15-13.636l17.294-4.006l4.559,6.13l8.2,0.267l18.202-4.947l-1.875-44.092l-5.309,0.81l-0.378-5.522l-41.804,0.646z"/>
			<text transform="matrix(1 0 0 1 817.9878 871.8862)"><tspan x="0" y="0" style="fill:#000000;stroke:none;">03860</tspan></text>
		</g>
		<g>
			<path style="stroke-miterlimit:1;" d="M867.766,1640.597l-18.325,0.373l-13.151,24.494l-4.937,5.51l19.333,11.157l12.7-17.689l19.049-3.604l-4.931-7.414l2.039-2.79l-6.012-3.268l3.234-4.489l-9-2.279z"/>
			<text transform="matrix(1 0 0 1 840.2036 1664.5488)"><tspan x="0" y="0" style="fill:#000000;stroke:none;">03858</tspan></text>
		</g>
		<g>
			<path style="stroke-miterlimit:1;" d="M874.135,1512.766l-0.604,20.034l21.557,3.579l35.643-4.298l10.893-9.633v7.578l8.203-1.935l0.826-13.447l1.008-0.805l-32.9-6.597l-44.625,5.522z"/>
			<text transform="matrix(1 0 0 1 895.9058 1524.9951)"><tspan x="0" y="0" style="fill:#000000;stroke:none;">03857</tspan></text>
		</g>
		<g>
			<path style="stroke-miterlimit:1;" d="M873.532,1532.8l-0.328,12.743l45.507,8.622l-1.79-8.64l12.475-7.015l1.336-6.43l-35.643,4.298l-21.557-3.579z"/>
			<text transform="matrix(1 0 0 1 885.2769 1546.3076)"><tspan x="0" y="0" style="fill:#000000;stroke:none;">03856</tspan></text>
		</g>
		<g>
			<path style="stroke-miterlimit:1;" d="M788.313,1201.632l-16.195,18.221l18.176,106.623l6.973-7.913l33.472-37.376l-13.052-57.491l-9.021-44.947l-20.353,22.884z"/>
			<text transform="matrix(1 0 0 1 784.7358 1255.7949)"><tspan x="0" y="0" style="fill:#000000;stroke:none;">03855</tspan></text>
		</g>
		<g>
			<path style="stroke-miterlimit:1;" d="M712.305,1102.259v26.656l-23.971,3.176l2.496,8.312l-2.643-0.516l31.386,28.409l11.288-5.191l2.191-14.722l5.599,2.063l7.128-7.933l-5.115-19.096l-10.008-15.921l-18.352-5.237z"/>
			<text transform="matrix(1 0 0 1 702.0366 1145.5518)"><tspan x="0" y="0" style="fill:#000000;stroke:none;">03853</tspan></text>
		</g>
		<g>
			<path style="stroke-miterlimit:1;" d="M881.36,1223.579l2.139,17.266l11.203,2.135l4.535-1.488l7.532-19.327l-4.251-21.662l-21.158,23.077z"/>
			<text transform="matrix(1 0 0 1 877.3726 1224.9248)"><tspan x="0" y="0" style="fill:#000000;stroke:none;">03852</tspan></text>
		</g>
		<g>
			<path style="stroke-miterlimit:1;" d="M867.221,1239.995l-34.942,39.458l53.558,34.988l1.061-1.251l1.646-19.721l0.439-7.483l14.235-16.385l-3.378-7.482l3.27-12.687l-8.408-6.453l-11.203-2.135l-2.139-17.266l-14.139,16.416z"/>
			<text transform="matrix(1 0 0 1 851.0581 1272.1943)"><tspan x="0" y="0" style="fill:#000000;stroke:none;">03851</tspan></text>
		</g>
		<g>
			<path style="stroke-miterlimit:1;" d="M828.807,1596.344l-1.893,42.355l-4.813,0.887l-12.091,12.293l5.3-1.519l20.979,15.104l13.151-24.494l18.325-0.373l-6.161-31.954l21.173-11.824l-51.592-0.545l-2.379,0.07z"/>
			<text transform="matrix(1 0 0 1 829.7036 1634.0527)"><tspan x="0" y="0" style="fill:#000000;stroke:none;">03848</tspan></text>
		</g>
		<g>
			<path style="stroke-miterlimit:1;" d="M733.37,733.155l-23.924,61.758l37.896-1.768l14.06,6.388l2.637-6.328l12.047,3.252l32.291,5.32l17.297,2.082l0.035-75.718l-87.712-6.048l-4.626,11.063z"/>
			<text transform="matrix(1 0 0 1 750.8862 766.1611)"><tspan x="0" y="0" style="fill:#000000;stroke:none;">03846</tspan></text>
		</g>
		<g>
			<path style="stroke-miterlimit:1;" d="M923.424,1595.321l4.137,36.805l32.654,0.886l14.08,5.802l6.882-4.665l0.694,4.823l-0.422-8.001l-14.186-3.104l-5.813-12.284l-9.703-4.131l-1.099-6.591l-13.79-14.029l-13.436,4.489z"/>
			<text transform="matrix(1 0 0 1 932.2866 1628.5518)"><tspan x="0" y="0" style="fill:#000000;stroke:none;">03844</tspan></text>
		</g>
		<g>
			<path style="stroke-miterlimit:1;" d="M944.547,1588.234l-7.688,2.598l13.79,14.029l1.099,6.591l9.703,4.131l5.813,12.284l14.186,3.104l0.422,8.001l4.661,4.599l-1.26-5.253l3.155,0.43l2.643-13.394l6.457-0.826l-1.825-8.354l7.884-15.138l-58.734-12.925
				l-0.305,0.123z"/>
			<text transform="matrix(1 0 0 1 962.5327 1611.5254)"><tspan x="0" y="0" style="fill:#000000;stroke:none;">03842</tspan></text>
		</g>
		<g>
			<path style="stroke-miterlimit:1;" d="M756.672,1628.248l6.568,35.596l4.986-4.027l5.019,7.754l1.755-3.741l7.26,2.449l17.733,1.852l3.712-4.852l6.135-11.094l-6.475,3.711l1.058-3.81l-7.403-1.27l-5.596-11.94v-1.168l-34.752-9.46z"/>
			<text transform="matrix(1 0 0 1 762.6313 1656.624)"><tspan x="0" y="0" style="fill:#000000;stroke:none;">03841</tspan></text>
		</g>
		<g>
			<path style="stroke-miterlimit:1;" d="M657.139,1241.222l-6.217,6.822l8.66,19.703l8.953,8.874l12.311,1.267l-8.508,11.22l3.188,5.987l-17.848,20.849l26.687,16.853l37.222-48.73l8.766-10.055l-20.783-14.111l-8.221-37.891l-44.209,19.213z"/>
			<text transform="matrix(1 0 0 1 670.0366 1266.3018)"><tspan x="0" y="0" style="fill:#000000;stroke:none;">03837</tspan></text>
		</g>
		<g>
			<path style="stroke-miterlimit:1;" d="M799.586,993.757l-22.6,8.217l5.411,3.7l3.041,11.852l8.704,2.903l2.268,15.704l21.891-1.584l4.846-8.888l-1.424-12.252l10.283,10.825l9.785-0.356l4.406,4.457l8.689-5.85l13.154,9.667l12.823-4.729l6.445,2.571
				l-1.752-58.044l-1.409,3.639l-84.563,18.167z"/>
			<text transform="matrix(1 0 0 1 834.4595 1006.2275)"><tspan x="0" y="0" style="fill:#000000;stroke:none;">03836</tspan></text>
		</g>
		<g>
			<path style="stroke-miterlimit:1;" d="M830.738,1281.187l-33.472,37.376l11.186,4.849l8.432-6.853l18.492,7.829l8.701-12.727l25.564,2.287l10.506,6.787l5.689-6.294l-53.558-34.988l-1.541,1.733z"/>
			<text transform="matrix(1 0 0 1 824.8608 1305.1064)"><tspan x="0" y="0" style="fill:#000000;stroke:none;">03835</tspan></text>
		</g>
		<g>
			<path style="stroke-miterlimit:1;" d="M873.204,1545.543l1.652,9.201l-39.387-0.383l-4.283,41.912l51.592,0.545l40.646-1.497l13.436-4.489l7.688-2.598l-28.219-17.212l-2.622-4.641l5.004-12.217l-45.507-8.622z"/>
			<text transform="matrix(1 0 0 1 863.1733 1585.3652)"><tspan x="0" y="0" style="fill:#000000;stroke:none;">03833</tspan></text>
		</g>
		<g>
			<path style="stroke-miterlimit:1;" d="M873.696,1106.579l-26.186,29.048l-0.785,1.159l33.662,13.796l5.619,6.856l9.217,0.573l-0.053-6.491l-0.457-10.204l-2.813-38.315l-10.91-1.905l-7.295,5.483z"/>
			<text transform="matrix(1 0 0 1 854.2866 1132.7383)"><tspan x="0" y="0" style="fill:#000000;stroke:none;">03830</tspan></text>
		</g>
		<g>
			<path style="stroke-miterlimit:1;" d="M882.778,1596.818l-21.173,11.824l6.161,31.954l9,2.279l-3.234,4.489l6.012,3.268l-2.039,2.79l4.931,7.414l46.887-15.104l-1.761-13.606l-4.137-36.805l-40.646,1.497z"/>
			<text transform="matrix(1 0 0 1 878.7729 1631.2627)"><tspan x="0" y="0" style="fill:#000000;stroke:none;">03827</tspan></text>
		</g>
		<g>
			<path style="stroke-miterlimit:1;" d="M791.424,1637.708v1.168l5.596,11.94l7.403,1.27l-1.058,3.81l6.475-3.711l0.17-0.306l12.091-12.293l-24.023-1.401l-2.098-0.139l-4.556-0.338z"/>
			<text transform="matrix(1 0 0 1 790.0737 1649.9863)"><tspan x="0" y="0" style="fill:#000000;stroke:none;">03826</tspan></text>
		</g>
		<g>
			<path style="stroke-miterlimit:1;" d="M868.824,1386.068l-17.405-1.306l-14.959,10.769l-3.299-1.644l-4.043,5.374l-23.739,30.717l3.138,2.402l6.041,4.377l51.387,37.878l3.041-4.315l13.169-19.069l25.679-36.28l-18-13.354l-16.453-12.653l-3.929-2.838
				l-0.627-0.057z"/>
			<text transform="matrix(1 0 0 1 839.9165 1432.8848)"><tspan x="0" y="0" style="fill:#000000;stroke:none;">03825</tspan></text>
		</g>
		<g>
			<path style="stroke-miterlimit:1;" d="M914.187,1461.127l-12.838,7.049l-5.221,8.874l-27.144-6.729l-3.041,4.315l-26.244,38.321l34.436-0.191l44.625-5.522l32.9,6.597l0.563-10.38l5.619,3.191l-4.125-4.92l2.396-11.661l-2.739-4.796l11.323-5.061l-44.338-17.147
				l-6.173-1.939z"/>
			<text transform="matrix(1 0 0 1 890.5083 1498.667)"><tspan x="0" y="0" style="fill:#000000;stroke:none;">03824</tspan></text>
		</g>
		<g>
			<path style="stroke-miterlimit:1;" d="M920.418,1397.621l-5.959-4.561l-6.419,4.311l6.835,8.032l-7.043,9.567l-25.679,36.28l-13.169,19.069l27.144,6.729l5.221-8.874l12.838-7.049l6.173,1.939l44.338,17.147l-3.234-2.517l5.332-1.837l7.729,12.136l8.209-2.456
				l-7.433-16.893l5.839-18.844l-4.705-9.797l5.569-5.259l-26.15-7.6l-10.146-10.611l-23.303-21.433l-1.986,2.517z"/>
			<text transform="matrix(1 0 0 1 909.1685 1443.7129)"><tspan x="0" y="0" style="fill:#000000;stroke:none;">03820</tspan></text>
		</g>
		<g>
			<path style="stroke-miterlimit:1;" d="M796.317,1595.866l1.761,42.318l24.023,1.401l4.813-0.887l1.893-42.355l-32.49-0.478z"/>
			<text transform="matrix(1 0 0 1 795.8716 1620.9111)"><tspan x="0" y="0" style="fill:#000000;stroke:none;">03819</tspan></text>
		</g>
		<g>
			<path style="stroke-miterlimit:1;" d="M778.191,873.117l-114.12-0.05l2.314,13.941l9.533,58.696l1.119,5.265l19.767-2.622l-1.553-6.382l7.274-1.165l1.77,6.431l55.983-7.663l0.507-0.28l7.266-7.564l-0.387-7.046l5.88,1.359l12.22-12.756l31.934-0.28
				l-0.334,26.807l17.098-0.646l-1.219-25.731l13.799-0.618l0.732-21.151l-13.233-3.88l-15,13.636l-21.618-5.852l-5.643-24.308l-14.089,1.859z"/>
			<text transform="matrix(1 0 0 1 727.2319 907.2979)"><tspan x="0" y="0" style="fill:#000000;stroke:none;">03818</tspan></text>
		</g>
		<g>
			<path style="stroke-miterlimit:1;" d="M755.278,971.617l-7.588-20.972l-5.525,0.76l-0.715,4.389l-8.648-0.876l13.646,15.401l8.83,1.298z"/>
			<text transform="matrix(1 0 0 1 727.3491 964.3164)"><tspan x="0" y="0" style="fill:#000000;stroke:none;">03817</tspan></text>
		</g>
		<g>
			<path style="stroke-miterlimit:1;" d="M712.305,1102.259l18.352,5.237l10.008,15.921l5.895-3.268l-0.765-14.898l10.562-11.686l10.67-3.15l-25.102-46.078l-49.134,53.676v6.75l19.515-2.504z"/>
			<text transform="matrix(1 0 0 1 713.2163 1087.0615)"><tspan x="0" y="0" style="fill:#000000;stroke:none;">03816</tspan></text>
		</g>
		<g>
			<path style="stroke-miterlimit:1;" d="M813.116,1357.439l-16.729,15.788l8.174,7.409l-4.465,5.871l5.701-1.284l12.17,11.046l11.15,2.992l4.043-5.374l9.164-11.883l-29.209-24.565z"/>
			<text transform="matrix(1 0 0 1 802.6655 1381.5361)"><tspan x="0" y="0" style="fill:#000000;stroke:none;">03815</tspan></text>
		</g>
		<g>
			<path style="stroke-miterlimit:1;" d="M832.006,1024.234l-3.776,1.053l3.935,3.747l-25.266,29.689l63.46,45.42l-5.745-24.75l6.205-8.489l-4.125-3.907l9.404-2.257l6.861-13.996l6.516,3.595l-2.165-24.344l-6.445-2.571l-12.823,4.729l-13.154-9.667l-8.689,5.85
				l-4.406-4.457l-9.785,0.356z"/>
			<text transform="matrix(1 0 0 1 831.4966 1066.498)"><tspan x="0" y="0" style="fill:#000000;stroke:none;">03814</tspan></text>
		</g>
		<g>
			<path style="stroke-miterlimit:1;" d="M834.541,887.781l13.233,3.88l-0.732,21.151l3.788-0.144l1.532,26.212l32.534,0.155l-2.101-53.811l-18.202,4.947l-8.2-0.267l-4.559-6.13l-17.294,4.006z"/>
			<text transform="matrix(1 0 0 1 852.0366 911.5513)"><tspan x="0" y="0" style="fill:#000000;stroke:none;">03813</tspan></text>
		</g>
		<g>
			<path style="stroke-miterlimit:1;" d="M647.029,775.067l14.323,7.389l6.398,24.507l-3.117,14.769l8.537,19.586l11.268-0.013l-20.367,31.762l114.12,0.05l-2.81-20.785l12.917-2.041l-1.737-14.307l46.869,1.083l-6.809-1.838l-0.949-31.37l-17.297-2.082
				l-7.274,15.382l-7.251,4.518l-6.838,1.863l-3.252-6.185l-12.659,0.986l5.54-5.298l-4.113-9.877l3.557-6.709l-12.047-3.252l-2.637,6.328l-14.06-6.388l-37.896,1.768l-2.827,16.749l-2.37,14.186l-13.723,4.02l-4.248-4.359l0.22-20.458l-8.092-29.73l-15.583-8.946
				l-5.815-24.327l-11.651,1.917l-5.484,0.851l7.157,30.252z"/>
			<text transform="matrix(1 0 0 1 719.9604 844.7656)"><tspan x="0" y="0" style="fill:#000000;stroke:none;">03812</tspan></text>
		</g>
		<g>
			<path style="stroke-miterlimit:1;" d="M763.241,1663.844l0.741,5.171l11.188,15.293l-2.719,11.429l10.658-1.564l3.48,4.796l19.365-8.878l9.41,2.518l-0.237-13.675l-11.423-15.654l-3.712,4.852l-17.733-1.852l-7.26-2.449l-1.755,3.741l-5.019-7.754l-4.986,4.027z"
				/>
			<text transform="matrix(1 0 0 1 780.3921 1683.2451)"><tspan x="0" y="0" style="fill:#000000;stroke:none;">03811</tspan></text>
		</g>
		<g>
			<path style="stroke-miterlimit:1;" d="M735.989,1177.534l-25.465,1.164l0.047,9.783l-15.094-0.354l5.871,33.881l8.221,37.891l20.783,14.111l-8.766,10.055l23.074,17.467l45.633,24.943l-18.176-106.623l16.195-18.221l-20.382-13.66l-5.306,5.502l-13.148-15.986
				l-5.288,4.679l-8.2-4.632z M746.436,1249.105l-5.297-2.115l-6.791-15.574l12.598-7.967l4.242,4.211l1.84,20.178l-6.592,1.268z"/>
			<text transform="matrix(1 0 0 1 738.5366 1279.3018)"><tspan x="0" y="0" style="fill:#000000;stroke:none;">03809</tspan></text>
		</g>
		<g>
			<path style="stroke-miterlimit:1;" d="M975.875,1528.523l8.323-2.457l4.705,28.983l15.885,4.249l21.987-26.905l3.173-5.782l-9.24-2.244l6.067-3.131l-10.377-9.865l-2.376,3.063l-1.137-8.503l-25.811-16.846l-17.537,3.26l-7.189-6.62l3.311,18.708l-5.273,2.518
				l2.496,1.427l-4.037,4.116l0.694,7.518l8.391-4.693l0.513,6.395l5.525,0.912l1.907,5.899z M1028.363,1521.983l-4.72-4.51l4.377,0.226l0.343,4.284z"/>
			<text transform="matrix(1 0 0 1 972.0366 1516.0518)"><tspan x="0" y="0" style="fill:#000000;stroke:none;">03801</tspan></text>
		</g>
		<g>
			<path style="stroke-miterlimit:1;" d="M363.684,811.451l-17.83,48.894l-10.857,29.086l81.48,10.137l14.229-58.203l-35.81-16.213l-31.213-13.701z M291.107,783.64l2.725-0.495l4.046,1.667l1.553,7.969l-6.246-2.136l-0.393-3.875l-1.43-0.076l-0.255-3.054z"/>
			<text transform="matrix(1 0 0 1 370.5366 868.8013)"><tspan x="0" y="0" style="fill:#000000;stroke:none;">03785</tspan></text>
		</g>
		<g>
			<path style="stroke-miterlimit:1;" d="M143.536,1098.066l1.775,12.504l-7.887,10.342l-0.592,11.24l-8.06,4.327l-3.621,11.722l3.097,12.211l49.846,7.325l1.629-13.497l-16.078-4.367l-0.439-15.77l-9.217,0.429l-4.705-15.775l-5.578-5.09l6.252-8.225l-2.733-0.096
				l1.585-5.823l-5.273-1.457z"/>
			<text transform="matrix(1 0 0 1 126.7866 1153.0518)"><tspan x="0" y="0" style="fill:#000000;stroke:none;">03784</tspan></text>
		</g>
		<g>
			<path style="stroke-miterlimit:1;" d="M248.796,1264.628l-4.069,23.828l2.824,6.101l-4.172-0.229l-1.025,27.434l-0.577,24.557l-9.12-1.521l-4.301,11.244l-7.986,3.076l3.284,18.348l3.267-0.496l2.355,21.755l14.912,0.178l33.773,0.25l-0.896-4.095l-13.945-45.934
				l6.442-10.906l1.254-2.06l15.114-26.356l1.641-21.043l-6.261-8.076l2.353-12.184l-34.866-3.871z"/>
			<text transform="matrix(1 0 0 1 244.5366 1318.0518)"><tspan x="0" y="0" style="fill:#000000;stroke:none;">03782</tspan></text>
		</g>
		<g>
			<path style="stroke-miterlimit:1;" d="M128.249,1160.412l-27.598,17.579l-1.248,23.37l-8.854,14.108l67.219,4.898l8.177-9.074l3.19,3.004l5.016-9.973l8.083-4.992l-3.894-4.817l19.175-13.483l3.231-8.948l-4.605-1.557l-18.047-2.79l-49.846-7.325z"/>
			<text transform="matrix(1 0 0 1 128.9604 1193.5742)"><tspan x="0" y="0" style="fill:#000000;stroke:none;">03781</tspan></text>
		</g>
		<g>
			<path style="stroke-miterlimit:1;" d="M270.125,868.409l-2.098,5.468l-6.571-1.163l1.978,9.267l-7.058-3.015l-0.445,7.682l-7.116,5.993l1.444,17.123l14.063-0.488l-5.777,8.123l73.767,28.935l-0.316-3.369l5.294,1.953l-2.291-55.485l-14.681-6.961l-19.257-8.75
				l-1.693,4.771l5.396,2.326l-1.148,3.246l-33.489-15.655z"/>
			<text transform="matrix(1 0 0 1 276.3589 910.5552)"><tspan x="0" y="0" style="fill:#000000;stroke:none;">03779</tspan></text>
		</g>
		<g>
			<path style="stroke-miterlimit:1;" d="M258.543,917.397l-11.162,7.835l1.406,14.055l-5.027,9.437l-3.715-1.271l-12.082,9.448l-2.15,6.995l-8.566,2.905l2.256,8.449l79.412,23.247l35.76-46.764l-2.364-5.401l-73.767-28.935z"/>
			<text transform="matrix(1 0 0 1 257.2729 971.1333)"><tspan x="0" y="0" style="fill:#000000;stroke:none;">03777</tspan></text>
		</g>
		<g>
			<path style="stroke-miterlimit:1;" d="M291.362,786.694l4.257,12.763l-5.165,9.234l-5.449-1.233l-1.266,6.315l3.703,8.02l3.964-4.66l5.484,2.537l-3.179,8.508l6.328-1.066l-0.357-10.594l25.31-6.672l9.694-10.157l-36.809-14.877l1.553,7.969l-6.246-2.136
				l-0.393-3.875l-1.43-0.076z"/>
			<text transform="matrix(1 0 0 1 292.522 809.6802)"><tspan x="0" y="0" style="fill:#000000;stroke:none;">03774</tspan></text>
		</g>
		<g>
			<path style="stroke-miterlimit:1;" d="M185.292,1233.464l-9.606,13.238l-14.145-2.641l-0.17,36.201l1.143,62.71l57.809,15.873l0.047,0.272l7.986-3.076l4.301-11.244l9.12,1.521l0.577-24.557l1.025-27.434l4.172,0.229l-2.824-6.101l4.069-23.828l2.229-15.681
				l-11.25-10.583l-6.905,11.181l-40.512-13.611l-7.066-2.47z"/>
			<text transform="matrix(1 0 0 1 189.5112 1299.4756)"><tspan x="0" y="0" style="fill:#000000;stroke:none;">03773</tspan></text>
		</g>
		<g>
			<path style="stroke-miterlimit:1;" d="M327.842,661.543l-27.627,10.044l-7.857,17.525l-11.396,4.904l1.834,3.844l-5.859,6.898l4.816-1.381l-1.336,8.068l8.115,12.605l-3.199,16.132l5.396,3.441l8.408-8.946l-3.92-4.585l10.441-5.687l30.1-42.264l9.545,3.961
				l8.862-13.036l-26.323-11.525z"/>
			<text transform="matrix(1 0 0 1 295.8589 690.7686)"><tspan x="0" y="0" style="fill:#000000;stroke:none;">03771</tspan></text>
		</g>
		<g>
			<path style="stroke-miterlimit:1;" d="M219.502,975.25l-10.784,10.295l3.117,14.892l-3.958,9.688l3.316,7.522l-12.545,17.043l0.574,9.529l72.041,19.846l9.902,2.866l17.748-68.435l-79.412-23.247z"/>
			<text transform="matrix(1 0 0 1 232.0913 1024.2754)"><tspan x="0" y="0" style="fill:#000000;stroke:none;">03768</tspan></text>
		</g>
		<g>
			<path style="stroke-miterlimit:1;" d="M148.809,1099.523l-1.585,5.823l2.733,0.096l-6.252,8.225l5.578,5.09l4.705,15.775l9.217-0.429l0.439,15.77l16.078,4.367l-1.629,13.497l18.047,2.79l27.129-50.009l-23.332-6.742l-51.129-14.253z"/>
			<text transform="matrix(1 0 0 1 172.0444 1147.2109)"><tspan x="0" y="0" style="fill:#000000;stroke:none;">03766</tspan></text>
		</g>
		<g>
			<path style="stroke-miterlimit:1;" d="M334.686,799.688l-9.694,10.157l-25.31,6.672l0.357,10.594l-6.328,1.066l-3.352,1.16l6.249,5.795l-11.666,1.396l2.552,4.544l-5.622,7.994l-5.95,0.633l3.932,4.742l-9.448,4.585l-0.281,9.382l33.489,15.655l1.148-3.246
				l-5.396-2.326l1.693-4.771l19.257,8.75l-6.911-15.823l17.566,4.217l6.756-10.62l8.127,0.101l17.83-48.894l-28.998-11.763z"/>
			<text transform="matrix(1 0 0 1 300.2153 845.0605)"><tspan x="0" y="0" style="fill:#000000;stroke:none;">03765</tspan></text>
		</g>
		<g>
			<path style="stroke-miterlimit:1;" d="M199.223,1044.22l-8.815,4.791l-9.331,13.266l-20.584,7.62l-15.747,19.028l-1.21,9.142l5.273,1.457l51.129,14.253l3.624-12.129l-11.203-7.898l15.396-2.894l5.607,4.321l3.894-15.811l6.99-3.81l10.175-2.87l10.67,5.149
				l-0.062,16.236l26.235-30.007l-72.041-19.846z"/>
			<text transform="matrix(1 0 0 1 192.7095 1069.1836)"><tspan x="0" y="0" style="fill:#000000;stroke:none;">03755</tspan></text>
		</g>
		<g>
			<path style="stroke-miterlimit:1;" d="M217.126,1178.05l-10.673,15.895l-0.375,24.2l-13.72,17.789l40.512,13.611l6.905-11.181l11.25,10.583l10.799-22.465l-10.711-1.679l11.511-16.083l-16.421-6.359l7.6-10.342l-36.677-13.97z"/>
			<text transform="matrix(1 0 0 1 210.8013 1216.9844)"><tspan x="0" y="0" style="fill:#000000;stroke:none;">03753</tspan></text>
		</g>
		<g>
			<path style="stroke-miterlimit:1;" d="M199.938,1113.776l23.332,6.742l21.759-26.446l0.062-16.236l-10.67-5.149l-10.175,2.87l-6.99,3.81l-3.894,15.811l-5.607-4.321l-15.396,2.894l11.203,7.898l-3.624,12.129z"/>
			<text transform="matrix(1 0 0 1 201.0366 1108.8018)"><tspan x="0" y="0" style="fill:#000000;stroke:none;">03750</tspan></text>
		</g>
		<g>
			<path style="stroke-miterlimit:1;" d="M223.27,1120.519l-27.129,50.009l4.605,1.557l16.38,5.966l36.677,13.97l-7.6,10.342l16.421,6.359l12.132-16.565l27.964-39.531l-79.45-32.105z"/>
			<text transform="matrix(1 0 0 1 232.7417 1167.8037)"><tspan x="0" y="0" style="fill:#000000;stroke:none;">03748</tspan></text>
		</g>
		<g>
			<path style="stroke-miterlimit:1;" d="M90.549,1215.47l-1.078,6.367l10.23,12.811l-6.152,15.653l-2.865,26.438l70.688,3.524l0.17-36.201l14.145,2.641l9.606-13.238l0.829-6.79l-3.516-2.348l2.915-3.944l-16.386-6.084l-3.19-3.004l-8.177,9.074l-67.219-4.898z"/>
			<text transform="matrix(1 0 0 1 121.1089 1248.9629)"><tspan x="0" y="0" style="fill:#000000;stroke:none;">03745</tspan></text>
		</g>
		<g>
			<path style="stroke-miterlimit:1;" d="M90.684,1276.738l-0.527,19.98l-10.664,15.146l1.066,9.053l13.62,4.36l-8.991,13.851l29.64,1.661l-1.799,8.701l8.109-0.414l1.69-6.545l39.686,0.44l-1.143-62.71l-70.688-3.524z"/>
			<text transform="matrix(1 0 0 1 104.3159 1316.3008)"><tspan x="0" y="0" style="fill:#000000;stroke:none;">03743</tspan></text>
		</g>
		<g>
			<path style="stroke-miterlimit:1;" d="M298.915,998.497l-17.748,68.435l-9.902-2.866l-26.235,30.007l-21.759,26.446l79.45,32.105l7.983-11.056l60.064,14.332l4.313-10.026l-5.854-2.553l2.396-4.735l-5.71-2.399l1.708-10.008l-2.871-1.532l15.451-29.063
				l-27.58-7.23l12.021-57.36l-12.858-4.455l-9.431-12.854l-43.438-15.188z"/>
			<text transform="matrix(1 0 0 1 283.0454 1098.3848)"><tspan x="0" y="0" style="fill:#000000;stroke:none;">03741</tspan></text>
		</g>
		<g>
			<path style="stroke-miterlimit:1;" d="M285.333,740.184l-7.957,18.68l16.456,24.281l4.046,1.667l36.809,14.877l28.998,11.763l-13.236-67.289l-44.789-19.755l-10.441,5.687l3.92,4.585l-8.408,8.946l-5.396-3.441z"/>
			<text transform="matrix(1 0 0 1 303.8394 771.1152)"><tspan x="0" y="0" style="fill:#000000;stroke:none;">03740</tspan></text>
		</g>
		<g>
			<path style="stroke-miterlimit:1;" d="M64.425,1478.532l5.106,9.252l-5.889,11.824l4.488,13.174l-17.818,20.236l4.131,21.527l55.444,3.53l4.62,0.217l-4.283-31.715l-4.503-30.797l-13.676-0.315l-1.289-6.55l-8.754-1.308l5.484-6.047l-11.112-1.217l-3.788,3.638
				l-8.162-5.45z"/>
			<text transform="matrix(1 0 0 1 69.7202 1530.5967)"><tspan x="0" y="0" style="fill:#000000;stroke:none;">03608</tspan></text>
		</g>
		<g>
			<path style="stroke-miterlimit:1;" d="M184.115,1416.292l-5.52,4.959l-28.784-0.423l-9.715-4.4l4.143,12.279l-22.963,5.845l4.582,23.191l39.606-4.52l24.097-3.563l-3.231-20.219l-2.215-13.15z"/>
			<text transform="matrix(1 0 0 1 138.728 1445.6367)"><tspan x="0" y="0" style="fill:#000000;stroke:none;">03607</tspan></text>
		</g>
		<g>
			<path style="stroke-miterlimit:1;" d="M178.384,1384.296l5.73,31.996l2.215,13.15l8.751,5.32l6.864-1.594l11.517-18.11l24.545,18.125l4.459-1.763l1.723-32.519l-14.912-0.178l-2.355-21.755l-3.267,0.496l-45.27,6.83z"/>
			<text transform="matrix(1 0 0 1 194.5972 1409.0498)"><tspan x="0" y="0" style="fill:#000000;stroke:none;">03606</tspan></text>
		</g>
		<g>
			<path style="stroke-miterlimit:1;" d="M186.33,1429.442l3.231,20.219l35.848-4.879l16.351-2.43l0.706-10.932l-4.459,1.763l-24.545-18.125l-11.517,18.11l-6.864,1.594l-8.751-5.32z"/>
			<text transform="matrix(1 0 0 1 198.0366 1444.0518)"><tspan x="0" y="0" style="fill:#000000;stroke:none;">03605</tspan></text>
		</g>
		<g>
			<path style="stroke-miterlimit:1;" d="M85.188,1339.129l-1.98,5.552l8.373,10.641l-7.743,23.063l-16.163,18.191l1.283,8.3l0.328-1.665l0.346-0.074l-0.094,0.468l-0.275,1.326l-0.023,0.668l-3.176,16.238l2.537,6.23l-7.98,11.185l3.457,4.667l-4.084,14.948
				l9.22,0.999l14.64,1.268l-5.637-24.357l42.023-7.259l-8.074-36.376l66.22-8.845l45.27-6.83l-3.284-18.348l-0.047-0.272l-57.809-15.873l-39.686-0.44l-1.69,6.545l-8.109,0.414l1.799-8.701l-29.64-1.661z"/>
			<text transform="matrix(1 0 0 1 119.1343 1374.8154)"><tspan x="0" y="0" style="fill:#000000;stroke:none;">03603</tspan></text>
		</g>
		<g>
			<path style="stroke-miterlimit:1;" d="M120.239,1429.517l-42.023,7.259l5.637,24.357l-14.64-1.268l0.264,16.388l8.487,0.647l25.271,1.79l2.487,17.091l4.503,30.797l29.068-2.431l37.002-3.855l-10.831-67.068l-39.606,4.52l-4.582-23.191l-1.037-5.035z"/>
			<text transform="matrix(1 0 0 1 114.2866 1488.8018)"><tspan x="0" y="0" style="fill:#000000;stroke:none;">03602</tspan></text>
		</g>
		<g>
			<path style="stroke-miterlimit:1;" d="M178.384,1384.296l-66.22,8.845l8.074,36.376l1.037,5.035l22.963-5.845l-4.143-12.279l9.715,4.4l28.784,0.423l5.52-4.959l-5.73-31.996z"/>
			<text transform="matrix(1 0 0 1 131.4507 1412.6084)"><tspan x="0" y="0" style="fill:#000000;stroke:none;">03601</tspan></text>
		</g>
		<g>
			<path style="stroke-miterlimit:1;" d="M507.028,588.424l-30.129,21.724l-12.905-0.381l-5.165,6.097l-10.444-3.119l37.752,49.411l5.61-2.836l56.487,21.579l-5.224-28.695l40.764-5.769l-10.635-61.125l-48.516,23.912l-17.596-20.798z"/>
			<text transform="matrix(1 0 0 1 499.3901 636.2896)"><tspan x="0" y="0" style="fill:#000000;stroke:none;">03598</tspan></text>
		</g>
		<g>
			<path style="stroke-miterlimit:1;" d="M583.774,646.435l-40.764,5.769l5.224,28.695l6.442,34.072l38.789-5.643l0.984,5.043l20.361-3.013l14.953,7.292l15.592,25.314l11.651-1.917l5.815,24.327l15.583,8.946l8.092,29.73l-0.22,20.458l4.248,4.359l13.723-4.02
				l2.37-14.186l-4.942,0.817l-8.508-42.472l7.222-12.409l0.299-10.871l12.372-12.595l3.662-10.184l-12.275,2.347l-10.251-4.537l-9.234,9.347l-5.604-25.172l64.787-11.049l5.991-38.042l-8.101,0.151l-101.104,45.117l-7.922-51.473l-47.341,6.892l-1.896-11.096z"/>
			<text transform="matrix(1 0 0 1 581.7866 694.3013)"><tspan x="0" y="0" style="fill:#000000;stroke:none;">03595</tspan></text>
		</g>
		<g>
			<path style="stroke-miterlimit:1;" d="M641.445,55.163l11.019,6.256l3.091,8.021l-22.828,41.865l5.927,10.683l-11.566,9.151l-11.496,19.346l-16.784,9.416l0.103,10.77l-4.172,2.24l7.939,5.304l-6.202,20.6l21.246-0.17l7.491-16.449l19.594-12.198l19.172,7.611
				l21.299-0.028l-4.579-3.067l7.008-1.033l16.655,8.599l4.854-8.498l74.616,14.764l-9.732,46.975l20.355,3.306l2.004-10.313l52.939-2.369L838.206,55.473l-5.634-55.37L821.401,7.65l-1.169,10.727l-5.285,3.224l-8.669,19.354l-8.572,3.853l-8.525-7.192
				l-10.658,7.129l-9.85-9.797l-18.615,3.092l-7.585-12.533l-8.499-2.933l-3.088-14.287l-8.959-1.182l-2.074-4.934l-29.473,19.979l-13.77,2.199l1.942,11.227l-11.021,5.728l-4.661,7.863l-9.223-6.252l-10.857,6.681l-12.621-3.857l11.276,9.423z"/>
			<text transform="matrix(1 0 0 1 705.3765 122.5513)"><tspan x="0" y="0" style="fill:#000000;stroke:none;">03592</tspan></text>
		</g>
		<g>
			<path style="stroke-miterlimit:1;" d="M539.53,363.092l-8.473,10.197l-8.118,2.533l3.475,15.579l4.515,0.945l13.336,21.763l-1.233,12.142l8.118,3.776l-3.305,8.177l7.025,3.812l-1.125,3.108l7.972-1.389l2.991,7.049l-2.59,3.918l8.877,4.973l-2.619,2.47
				l3.023,3.177l-5.074-1.055l1.14,11.905l-4.661,2.73l15.563,8.877l-7.641,8.036l-3.316-2.895l3.261,6.021l-6.275,5.458l-20.763,2.455l-0.65,4.62l13.98,10.477l54.267,23.24l16.887-7.775l-4.919,0.114l-0.416-11.266l-12.188,0.403l-2.795-74.058l-3.328-1.9
				l42.674-5.624l-17.994-92.525l-89.619,10.532z"/>
			<text transform="matrix(1 0 0 1 570.7866 410.5513)"><tspan x="0" y="0" style="fill:#000000;stroke:none;">03590</tspan></text>
		</g>
		<g>
			<path style="stroke-miterlimit:1;" d="M744.145,694.886l-64.787,11.049l5.604,25.172l9.234-9.347l10.251,4.537l12.275-2.347l-3.662,10.184l-12.372,12.595l-0.299,10.871l-7.222,12.409l8.508,42.472l4.942-0.817l2.827-16.749l23.924-61.758l-3.58-8.585
				l2.268-13.581l9.87-6.272l2.218-9.831z"/>
			<text transform="matrix(1 0 0 1 693.7866 718.8013)"><tspan x="0" y="0" style="fill:#000000;stroke:none;">03589</tspan></text>
		</g>
		<g>
			<path style="stroke-miterlimit:1;" d="M696.737,408.549l-0.92,35.956l5.944,33.009l-9.372,22.775l-13.192,30.984l131.792-2.533l20.728-54.831l33.073-0.894l-3.466-67.74l-164.587,3.272z"/>
			<text transform="matrix(1 0 0 1 755.3042 471.4609)"><tspan x="0" y="0" style="fill:#000000;stroke:none;">03588</tspan></text>
		</g>
		<g>
			<path style="stroke-miterlimit:1;" d="M354.166,673.069l-8.862,13.036l-9.545-3.961l-30.1,42.264l44.789,19.755l13.236,67.289l31.213,13.701l22.623-61.668l17.543,5.089l22.576-52.56l-26.818-12.302l-76.655-30.642z"/>
			<text transform="matrix(1 0 0 1 364.9585 752.2949)"><tspan x="0" y="0" style="fill:#000000;stroke:none;">03585</tspan></text>
		</g>
		<g>
			<path style="stroke-miterlimit:1;" d="M692.389,500.289l-54.193,26.105l0.325,5.694l-10.406,5.328l-16.887,7.775l-54.267-23.24l-4.661,9.158l-7.764,2.556l9.545,13.137l-9.489,0.939l-2.35,9.558l-11.021,0.894l-4.195,7.162l-5.288,0.551l-1.063-4.169l-4.69,3.448
				l-1.761,2.878l4.799,4.014l-8.396,3.924l-3.598,12.423l17.596,20.798l48.516-23.912l64.31-10.532l5.47,29.354l18.902,6.614l-1.274-25.431l-5.013,0.151l23.663-54.192l13.192-30.984z"/>
			<text transform="matrix(1 0 0 1 581.0151 564.7026)"><tspan x="0" y="0" style="fill:#000000;stroke:none;">03584</tspan></text>
		</g>
		<g>
			<path style="stroke-miterlimit:1;" d="M573.139,585.31l10.635,61.125l1.896,11.096l47.341-6.892l18.949-2.72l2.66,13.532l10.863-1.737l-3.662-48.968l-18.902-6.614l-5.47-29.354l-64.31,10.532z"/>
			<text transform="matrix(1 0 0 1 602.6206 621.2998)"><tspan x="0" y="0" style="fill:#000000;stroke:none;">03583</tspan></text>
		</g>
		<g>
			<path style="stroke-miterlimit:1;" d="M629.149,352.56l17.994,92.525l-42.674,5.624l3.328,1.9l2.795,74.058l12.188-0.403l0.416,11.266l4.919-0.114l10.406-5.328l-0.325-5.694l54.193-26.105l9.372-22.775l-5.944-33.009l0.92-35.956l-1.74-52.649l-19.884-1.72
				l1.62-7.245l-47.584,5.625z"/>
			<text transform="matrix(1 0 0 1 645.7866 473.5513)"><tspan x="0" y="0" style="fill:#000000;stroke:none;">03582</tspan></text>
		</g>
		<g>
			<path style="stroke-miterlimit:1;" d="M742.036,656.995l8.101-0.151l-5.991,38.042l-2.218,9.831l-9.87,6.272l-2.268,13.581l3.58,8.585l4.626-11.063l87.712,6.048l31.289-1.674l-1.125-31.213l19.526-0.732l-4.957-105.899l-81.009,1.522l-0.199-7.951l-49.137,0.873
				l1.939,73.929z"/>
			<text transform="matrix(1 0 0 1 785.9019 660.8594)"><tspan x="0" y="0" style="fill:#000000;stroke:none;">03581</tspan></text>
		</g>
		<g>
			<path style="stroke-miterlimit:1;" d="M457.639,716.012l-22.576,52.56l-17.543-5.089l-22.623,61.668l35.81,16.213l1.767-6.435l10.787,4.721l25.676-59.249l82.523,31.566l24.979-58.343l-118.799-37.613z"/>
			<text transform="matrix(1 0 0 1 470.98 770.873)"><tspan x="0" y="0" style="fill:#000000;stroke:none;">03580</tspan></text>
		</g>
		<g>
			<path style="stroke-miterlimit:1;" d="M694.997,355.899l1.74,52.649l164.587-3.272l-6.501-104.542l-97.286,5.253l1.134,21.062l-64.664,2.048l0.99,26.802z"/>
			<text transform="matrix(1 0 0 1 765.9761 371.8271)"><tspan x="0" y="0" style="fill:#000000;stroke:none;">03579</tspan></text>
		</g>
		<g>
			<path style="stroke-miterlimit:1;" d="M617.72,198.646l-9.085,7.614l-13.611-3.948l-18.322,9.948l-2.32,6.313l9.797,13.578l4.251-0.122l-2.657,18.193l15.299,18.297l-19.978,25.425l-11.549,7.456l-3.612,8.946l2.426,7.972l-14.725,15.056l4.734,5.193
				l-2.203,10.729l-16.635,13.796l89.619-10.532l47.584-5.625l-1.62,7.245l19.884,1.72l-0.99-26.802l64.664-2.048l-1.134-21.062l97.286-5.253l-5.426-74.788l-52.939,2.369l-2.004,10.313l-20.355-3.306l9.732-46.975l-74.616-14.764l-4.854,8.498l-16.655-8.599
				l-7.008,1.033l4.579,3.067l-21.299,0.028l-19.172-7.611l-19.594,12.198l-7.491,16.449z"/>
			<text transform="matrix(1 0 0 1 680.4858 269.7314)"><tspan x="0" y="0" style="fill:#000000;stroke:none;">03576</tspan></text>
		</g>
		<g>
			<path style="stroke-miterlimit:1;" d="M486.136,662.156l-55.315,41.555l26.818,12.302l118.799,37.613l70.591,21.442l-7.157-30.252l5.484-0.851l-15.592-25.314l-14.953-7.292l-20.361,3.013l-0.984-5.043l-38.789,5.643l-6.442-34.072l-56.487-21.579l-5.61,2.836z"
				/>
			<text transform="matrix(1 0 0 1 501.0366 711.3013)"><tspan x="0" y="0" style="fill:#000000;stroke:none;">03574</tspan></text>
		</g>
		<g>
			<path style="stroke-miterlimit:1;" d="M679.197,531.273l-23.663,54.192l5.013-0.151l1.274,25.431l3.662,48.968l-10.863,1.737l-2.66-13.532l-18.949,2.72l7.922,51.473l101.104-45.117l-1.939-73.929l49.137-0.873l0.199,7.951l81.009-1.522l-5.651-115.605
				l-33.073,0.894l-20.728,54.831l-131.792,2.533z"/>
			<text transform="matrix(1 0 0 1 719.0366 566.3013)"><tspan x="0" y="0" style="fill:#000000;stroke:none;">03570</tspan></text>
		</g>
		<g>
			<path style="stroke-miterlimit:1;" d="M448.384,612.745l-13.037,4.491l-11.868,14.476l-1.989,15.838l-13.638,6.533l-2.306,5.937l-10.723-0.122l2.197,13.56l-4.427,3.312l-3.155-0.354l2.309-3.516l-5.944-11.47l-18.917-9.526l-8.851,3.79l-2.285,6.142
				l-27.908-0.293l26.323,11.525l76.655,30.642l55.315-41.555l-37.752-49.411z"/>
			<text transform="matrix(1 0 0 1 414.7866 676.8013)"><tspan x="0" y="0" style="fill:#000000;stroke:none;">03561</tspan></text>
		</g>
		<g>
			<path style="stroke-miterlimit:1;" d="M170.342,1694.091l-20.977-1.021l-4.506,7.865l-12.636-2.157l-21.272,11.742l-6.088-5.519l-1.022,7.587l-11.019-3.495l-0.393,5.849l-8.936-1.028l-0.111,8.996l-9.439-3.39l-10.143,20.893l-8.977-7.319l3.51,21.422
				l140.373,4.863l-8.396-48.574l-0.976-7.884l-8.241-0.407l-2.027-8.239l-8.725-0.183z"/>
			<text transform="matrix(1 0 0 1 115.4121 1738.7412)"><tspan x="0" y="0" style="fill:#000000;stroke:none;">03470</tspan></text>
		</g>
		<g>
			<path style="stroke-miterlimit:1;" d="M117.579,1629.34l-18.188,32.986l-5.754,9.565l22.354,1.444l3.422,22.871l12.812,2.57l12.636,2.157l4.506-7.865l20.977,1.021l-5.291-6.15l4.301-17.873l5.52-6.885l12.984,8.139l-0.483-12.648l0.448-14.979l-7.403-2.148
				l4.743-8.866l-3.756-0.918l-63.826-2.421z"/>
			<text transform="matrix(1 0 0 1 124.0562 1658.9893)"><tspan x="0" y="0" style="fill:#000000;stroke:none;">03469</tspan></text>
		</g>
		<g>
			<path style="stroke-miterlimit:1;" d="M54.444,1554.546l8.821,6.761l-1.28,7.416l-9,1.667l0.65,9.626l-7.072,8.226l-33.683,12.067l3.706,13.137l40.175,2.254l48.832,2.933l-8.435-31.536l11.112-2.714l1.617-26.306l-55.444-3.53z"/>
			<text transform="matrix(1 0 0 1 48.0366 1603.8018)"><tspan x="0" y="0" style="fill:#000000;stroke:none;">03467</tspan></text>
		</g>
		<g>
			<path style="stroke-miterlimit:1;" d="M16.586,1613.445l-0.39,15.178l4.679,4.995l14.373-3.322l18.12,5.77l3.393-20.366l-40.175-2.254z"/>
			<text transform="matrix(1 0 0 1 19.7886 1627.9404)"><tspan x="0" y="0" style="fill:#000000;stroke:none;">03466</tspan></text>
		</g>
		<g>
			<path style="stroke-miterlimit:1;" d="M187.856,1671.321l0.152,4.02l-4.676-0.138l-4.266,19.07l2.027,8.239l8.241,0.407l0.976,7.884l12.674,0.289l5.256-3.07l-0.618-4.414l11.73,0.286l-0.724-6.601l20.335,0.029l-4.075-24.363l-4.342,1.026l-1.031-5.068
				l-23.285,3.41l-11.385-14.411l-7.474,0.756l0.483,12.648z"/>
			<text transform="matrix(1 0 0 1 192.3237 1691.6904)"><tspan x="0" y="0" style="fill:#000000;stroke:none;">03465</tspan></text>
		</g>
		<g>
			<path style="stroke-miterlimit:1;" d="M212.987,1478.798l-8.83,37.936l-3.129,15.538l14.168,0.714l-0.85,19.668l1.228-5.075l11.892,0.599l-1.125,5.422l54.879,2.115l9.07-43.117l2.244-31.656l-79.547-2.143z"/>
			<text transform="matrix(1 0 0 1 230.0903 1520.4404)"><tspan x="0" y="0" style="fill:#000000;stroke:none;">03464</tspan></text>
		</g>
		<g>
			<path style="stroke-miterlimit:1;" d="M56.761,1615.699l-3.393,20.366l22.406,0.251l5.669,10.499l9.677,3.394l8.271,12.117l18.188-32.986l-9.199,0.004l-2.786-10.712l-48.832-2.933z"/>
			<text transform="matrix(1 0 0 1 59.7847 1632.1982)"><tspan x="0" y="0" style="fill:#000000;stroke:none;">03462</tspan></text>
		</g>
		<g>
			<path style="stroke-miterlimit:1;" d="M262.393,1709.201l7.295,52.417l84.826,2.727l-9.056-51.941l-16.772-0.542l-66.293-2.66z"/>
			<text transform="matrix(1 0 0 1 291.7632 1739.958)"><tspan x="0" y="0" style="fill:#000000;stroke:none;">03461</tspan></text>
		</g>
		<g>
			<path style="stroke-miterlimit:1;" d="M352.003,1580.104l1.392,17.43l-5.344,1.437l-4.099,8.741l1.146,1.775l-32.555,5.911l-0.325,0.049l0.035,0.201l-6.044-1.573l5.66-0.656l-1.148-6.68l-31.925-0.639l0.642-14.391l-22.834-1.651l-2.947,9.05l3.023,4.924
				l20.083,18.114l-51.161-0.835l4.617,25.407l4.233,0.228l1.688,10.808l83.464,2.45l9.082,51.658l16.772,0.542l21.729,0.164l9.097-40.172l4.157-7.648l3.85,1.083l-2.906-14.619l-6.82-45.267l-10.295,0.688l-4.453-5.638l14.687-1.602l-16.017-0.535l1.887-19.258
				l-8.37,0.503z"/>
			<text transform="matrix(1 0 0 1 288.2593 1649.2686)"><tspan x="0" y="0" style="fill:#000000;stroke:none;">03458</tspan></text>
		</g>
		<g>
			<path style="stroke-miterlimit:1;" d="M214.346,1552.653l-0.328,10.573l-1.055,15.571l-0.287,14.912l6.668,0.334l37.26-3.986l22.834,1.651l1.324-26.619l0.457-9.376l-54.879-2.115l1.125-5.422l-11.892-0.599l-1.228,5.075z"/>
			<text transform="matrix(1 0 0 1 230.2573 1573.9961)"><tspan x="0" y="0" style="fill:#000000;stroke:none;">03457</tspan></text>
		</g>
		<g>
			<path style="stroke-miterlimit:1;" d="M189.561,1449.661l-24.097,3.563l10.831,67.068l27.861-3.559l8.83-37.936l12.422-34.016l-35.848,4.879z"/>
			<text transform="matrix(1 0 0 1 175.7476 1479.7217)"><tspan x="0" y="0" style="fill:#000000;stroke:none;">03456</tspan></text>
		</g>
		<g>
			<path style="stroke-miterlimit:1;" d="M219.344,1594.044l4.957,19.676l-35.947,3.93l-0.038,10.927l-6.911,3.185l3.756,0.918l-4.743,8.866l7.403,2.148l-0.448,14.979l7.474-0.756l11.385,14.411l23.285-3.41l1.031,5.068l4.342-1.026l-2.707-15.354l3.958,0.146
				l-1.688-10.808l-4.233-0.228l-4.617-25.407l51.161,0.835l-20.083-18.114l-3.023-4.924l2.947-9.05l-37.26,3.986z"/>
			<text transform="matrix(1 0 0 1 193.2334 1645.8721)"><tspan x="0" y="0" style="fill:#000000;stroke:none;">03455</tspan></text>
		</g>
		<g>
			<path style="stroke-miterlimit:1;" d="M236.14,1657.753l-3.958-0.146l2.707,15.354l4.075,24.363l1.567,11.236l21.861,0.642l66.293,2.66l-9.082-51.658l-83.464-2.45z"/>
			<text transform="matrix(1 0 0 1 263.7437 1687.917)"><tspan x="0" y="0" style="fill:#000000;stroke:none;">03452</tspan></text>
		</g>
		<g>
			<path style="stroke-miterlimit:1;" d="M0.125,1665.121l8.487,32.501l18.451,16.182l0.272,9.226l-3.999,4.553l13.324-5.042l21.674,31.975l-3.51-21.422l-11.057-64.548l-43.644-3.424z"/>
			<text transform="matrix(1 0 0 1 14.5405 1696.0029)"><tspan x="0" y="0" style="fill:#000000;stroke:none;">03451</tspan></text>
		</g>
		<g>
			<path style="stroke-miterlimit:1;" d="M280.762,1565.09l-1.324,26.619l-0.642,14.391l31.925,0.639l1.148,6.68l-5.66,0.656l6.044,1.573l-0.035-0.201l0.325-0.049l32.555-5.911l-1.146-1.775l4.099-8.741l5.344-1.437l-1.392-17.43l-2.229-6.293l-5.584-0.511
				l5.479-1.434l-2.455-16.226l-66.451,9.449z"/>
			<text transform="matrix(1 0 0 1 299.4038 1588.8281)"><tspan x="0" y="0" style="fill:#000000;stroke:none;">03449</tspan></text>
		</g>
		<g>
			<path style="stroke-miterlimit:1;" d="M238.964,1697.323l-20.335-0.029l0.724,6.601l-11.73-0.286l0.618,4.414l-5.256,3.07l-12.674-0.289l8.396,48.574l70.98,2.24l-7.295-52.417l-21.861-0.642l-1.567-11.236z"/>
			<text transform="matrix(1 0 0 1 213.3091 1732.6416)"><tspan x="0" y="0" style="fill:#000000;stroke:none;">03447</tspan></text>
		</g>
		<g>
			<path style="stroke-miterlimit:1;" d="M170.342,1694.091l8.725,0.183l4.266-19.07l4.676,0.138l-0.152-4.02l-12.984-8.139l-5.52,6.885l-4.301,17.873l5.291,6.15z"/>
			<text transform="matrix(1 0 0 1 158.8394 1679.9121)"><tspan x="0" y="0" style="fill:#000000;stroke:none;">03446</tspan></text>
		</g>
		<g>
			<path style="stroke-miterlimit:1;" d="M16.197,1628.623l-2.915,11.042l-11.584,7.43l-1.573,18.026l43.644,3.424l49.869,3.347l5.754-9.565l-8.271-12.117l-9.677-3.394l-5.669-10.499l-22.406-0.251l-18.12-5.77l-14.373,3.322l-4.679-4.995z"/>
			<text transform="matrix(1 0 0 1 28.0688 1661.4414)"><tspan x="0" y="0" style="fill:#000000;stroke:none;">03443</tspan></text>
		</g>
		<g>
			<path style="stroke-miterlimit:1;" d="M43.768,1668.545l11.057,64.548l8.977,7.319l10.143-20.893l9.439,3.39l0.111-8.996l8.936,1.028l0.393-5.849l11.019,3.495l1.022-7.587l6.088,5.519l21.272-11.742l-12.812-2.57l-3.422-22.871l-22.354-1.444l-49.869-3.347z"/>
			<text transform="matrix(1 0 0 1 60.3042 1692.6631)"><tspan x="0" y="0" style="fill:#000000;stroke:none;">03441</tspan></text>
		</g>
		<g>
			<path style="stroke-miterlimit:1;" d="M290.29,1512.597l-9.07,43.117l-0.457,9.376l66.451-9.449l8.32-2.272l-1.893-13.805l10.746-5.959l-2.473-22.778l3.527-13.477l-75.152,15.247z"/>
			<text transform="matrix(1 0 0 1 306.4116 1534.4043)"><tspan x="0" y="0" style="fill:#000000;stroke:none;">03440</tspan></text>
		</g>
		<g>
			<path style="stroke-miterlimit:1;" d="M110.225,1526.578l4.283,31.715l-4.62-0.217l-1.617,26.306l-11.112,2.714l8.435,31.536l2.786,10.712l9.199-0.004l63.826,2.421l6.911-3.185l0.038-10.927l35.947-3.93l-4.957-19.676l-6.668-0.334l0.287-14.912l-16.037-0.437
				l-3.369-4.46l20.461-10.675l0.328-10.573l0.85-19.668l-14.168-0.714l-33.876,4.49l5.546,31.613l-25.945,6.592l-7.459-50.819l-29.068,2.431z"/>
			<text transform="matrix(1 0 0 1 134.2866 1602.3018)"><tspan x="0" y="0" style="fill:#000000;stroke:none;">03431</tspan></text>
		</g>
		<g>
			<path style="stroke-miterlimit:1;" d="M570.52,1503.73l19.743,12.683l21.026-24.576l-8.915-19.237l-13.793,12.996l-4.157-1.248l10.831-11.392l-16.321-17.621l-11.865,19.225l3.563,3.026l-0.111,26.145z"/>
			<text transform="matrix(1 0 0 1 571.5366 1499.5518)"><tspan x="0" y="0" style="fill:#000000;stroke:none;">03304</tspan></text>
		</g>
		<g>
			<path style="stroke-miterlimit:1;" d="M501.702,1312.387l-26.672,11.15l8.824,14.646l-0.439,7.369l11.32,11.333l17.695,30.343l-3.527,1.308l1.433,9.183l16.588,4.24l28.896-14.59l-5.452-1.937l-3.015-12.259l1.345-10.798l-9.665-0.176l5.186-8.029l-13.436-1.973
				l1.512-7.157l-7.005,1.402l-2.2-16.873l-8.358-8.597l-1.409-13.987l-11.619,5.4z"/>
			<text transform="matrix(1 0 0 1 498.7339 1357.6563)"><tspan x="0" y="0" style="fill:#000000;stroke:none;">03303</tspan></text>
		</g>
		<g>
			<path style="stroke-miterlimit:1;" d="M625.54,1295.816l-1.438,19.12l-40.62,47.462l-2.854-4.615l-33.275,15.391l3.015,12.259l5.452,1.937l-28.896,14.59l-16.588-4.24l-1.433-9.183l3.527-1.308l-17.695-30.343l-11.32-11.333l0.439-7.369l-8.824-14.646
				l-39.563,17.034l34.16,61.903l32.35-10.797l37.222,64.513l-36.718,8.572l15.056,66.958l69.577-10.028l3.721-0.545l-0.571-4.734l-19.743-12.683l0.111-26.145l-3.563-3.026l11.865-19.225l16.321,17.621l-10.831,11.392l4.157,1.248l13.793-12.996l8.915,19.237
				l5.52-6.571l0.439-12.76l-17.643-12.287l-0.029-6.463l5.013-1.061l-8.681-4.272l6.961-4.959l-5.32-11.886l13.863-1.292l-1.658-13.397l7.371-5.476l1.418-9.299l7.623-0.381l58.198-68.938l-26.687-16.853l-32.139-20.127z"/>
			<text transform="matrix(1 0 0 1 543.2271 1416.9531)"><tspan x="0" y="0" style="fill:#000000;stroke:none;">03301</tspan></text>
		</g>
		<g>
			<path style="stroke-miterlimit:1;" d="M803.407,1439.565l-8.684,12.047l3.305,5.979l14.455,4.988l3.135,4.715l-4.175,0.504l4.872,2.17l1.98,9.196l-5.555,0.518l8.317,0.625l1.79,7.804l-20.968,2.198l-13.251-11.438l-5.42,6.989l-8.988-6.881l-3.466,4.498
				l-6.542,8.613l9.393,1.865l-13.324,22.198l46.62,9.85l5.065-12.789l27.732-0.259l26.244-38.321l-51.387-37.878l-11.15,2.808z"/>
			<text transform="matrix(1 0 0 1 798.7866 1505.5518)"><tspan x="0" y="0" style="fill:#000000;stroke:none;">03290</tspan></text>
		</g>
		<g>
			<path style="stroke-miterlimit:1;" d="M350.887,1209.054l-32.045,42.322l40.327,22.403l-7.368,10.877l14.684,10.027l13.131,25.95l15.639-16.749l-7.26-13.418l7.951-7.415l-5.379-7.707l-0.709-1.132l3.029-3.023l1.872,1.534l6.521-2.624l-17.262-3.9l-2.388-4.877
				l10.219-5.578l-7.447-13.456l-10.506,10.911l-20.593-47.248l-2.417,3.103z"/>
			<text transform="matrix(1 0 0 1 332.3726 1257.4775)"><tspan x="0" y="0" style="fill:#000000;stroke:none;">03287</tspan></text>
		</g>
		<g>
			<path style="stroke-miterlimit:1;" d="M517.522,872.223l-26.391,60.461l-4.553,10.157l-20.566-7.586l3.633,33.268l10.236,0.564l11.953,14.292l54.07-8.49l3.753-38.622l-10.86-30.083l-13.808-37.551l-2.142,5.918l-5.326-2.328z"/>
			<text transform="matrix(1 0 0 1 495.7866 957.3013)"><tspan x="0" y="0" style="fill:#000000;stroke:none;">03285</tspan></text>
		</g>
		<g>
			<path style="stroke-miterlimit:1;" d="M262.625,1208.721l-11.511,16.083l10.711,1.679l-10.799,22.465l-2.229,15.681l34.866,3.871l24.064,2.775l11.115-19.898l32.045-42.322l-74.859-10.57l-1.271-6.328l-12.132,16.565z"/>
			<text transform="matrix(1 0 0 1 283.1499 1234.9014)"><tspan x="0" y="0" style="fill:#000000;stroke:none;">03284</tspan></text>
		</g>
		<g>
			<path style="stroke-miterlimit:1;" d="M332.31,946.333l2.364,5.401l-35.76,46.764l43.438,15.188l24.472,7.849l46.022-55.616l-75.425-17.336l-0.135-3.665l-5.294-1.953l0.316,3.369z"/>
			<text transform="matrix(1 0 0 1 339.189 985.4336)"><tspan x="0" y="0" style="fill:#000000;stroke:none;">03282</tspan></text>
		</g>
		<g>
			<path style="stroke-miterlimit:1;" d="M465.828,1473.677l-43.764,10.21l13.515,58.533l3.155,12.621l8.792-1.564l1.304,5.53l70.266-12.857l-1.559-14.429l-15.056-66.958l-36.653,8.914z"/>
			<text transform="matrix(1 0 0 1 453.8892 1515.0684)"><tspan x="0" y="0" style="fill:#000000;stroke:none;">03281</tspan></text>
		</g>
		<g>
			<path style="stroke-miterlimit:1;" d="M244.188,1398.902l-1.723,32.519l-0.706,10.932l-16.351,2.43l-12.422,34.016l79.547,2.143l8.355-21.319l-7.585-15.246l15.759-3.621l-18.451-23.722l-2.186-21.797l-11.361-0.178l0.896,4.095l-33.773-0.25z"/>
			<text transform="matrix(1 0 0 1 248.0366 1457.8018)"><tspan x="0" y="0" style="fill:#000000;stroke:none;">03280</tspan></text>
		</g>
		<g>
			<path style="stroke-miterlimit:1;" d="M334.997,889.431l2.291,55.485l0.135,3.665l75.425,17.336l14.118-44.29l6.387-20.027l-16.875-2.033l-81.48-10.137z"/>
			<text transform="matrix(1 0 0 1 367.4839 930.8594)"><tspan x="0" y="0" style="fill:#000000;stroke:none;">03279</tspan></text>
		</g>
		<g>
			<path style="stroke-miterlimit:1;" d="M395.254,1303.885l-15.639,16.749l20.531,47.068l-17.818,3.511l-15.51-11.263l-4.482,4.893l11.027,8.159l-15.979,2.953l23.643,47.424l53.508-12.592l35.092-8.313l-34.16-61.903l-27.858,11.962l-1.881-53.146l-10.474,4.497z"
				/>
			<text transform="matrix(1 0 0 1 398.8159 1391.5674)"><tspan x="0" y="0" style="fill:#000000;stroke:none;">03278</tspan></text>
		</g>
		<g>
			<path style="stroke-miterlimit:1;" d="M526.551,1248.593l-1.462,7.478l4.796,10.606l-4.916,0.326l1.816,24.975l-9.179,0.68l-4.286,14.329l1.409,13.987l101.499-30.928l-45.088-29.228l8.045-4.034l-2.288-15.974l7.298,1.246l7.682-15.322l-65.326,21.858z"/>
			<text transform="matrix(1 0 0 1 535.0845 1289.0381)"><tspan x="0" y="0" style="fill:#000000;stroke:none;">03276</tspan></text>
		</g>
		<g>
			<path style="stroke-miterlimit:1;" d="M626.167,1401.733l-7.623,0.381l-1.418,9.299l-7.371,5.476l1.658,13.397l-13.863,1.292l5.32,11.886l-6.961,4.959l8.681,4.272l-5.013,1.061l0.029,6.463l17.643,12.287l-0.439,12.76l-0.018,3.253l62.361,10.681l21.785-41.213
				l-55.945-11.115l7.69-14.941l-33.706-21.149l7.189-9.047z"/>
			<text transform="matrix(1 0 0 1 632.2866 1473.3018)"><tspan x="0" y="0" style="fill:#000000;stroke:none;">03275</tspan></text>
		</g>
		<g>
			<path style="stroke-miterlimit:1;" d="M516.778,1172.181l-36.012,30.255l10.43,6.17l-1.969,7.464l6.855,10.816l14.578,9.15l8.338-2.674l7.553,15.23l65.326-21.858l4.336-21.026l-2.824-9.851l-76.611-23.677z"/>
			<text transform="matrix(1 0 0 1 521.8022 1213.5713)"><tspan x="0" y="0" style="fill:#000000;stroke:none;">03269</tspan></text>
		</g>
		<g>
			<path style="stroke-miterlimit:1;" d="M405.728,1299.388l1.881,53.146l27.858-11.962l39.563-17.034l26.672-11.15l-0.718-5.021l-9.445-4.893l-2.968-10.429l-3.984,1.308l1.418-14.52l4.031-1.625l-2.994-10.422l-20.232,7.591l-61.081,25.011z"/>
			<text transform="matrix(1 0 0 1 437.0229 1312.8438)"><tspan x="0" y="0" style="fill:#000000;stroke:none;">03268</tspan></text>
		</g>
		<g>
			<path style="stroke-miterlimit:1;" d="M366.825,1021.533l-24.472-7.849l9.431,12.854l12.858,4.455l13.603,20.306l5.347-24.589l57.319,17.367l5.338,1.661l25.131-59.227l-58.532-20.594l-46.022,55.616z"/>
			<text transform="matrix(1 0 0 1 399.1772 1013.7939)"><tspan x="0" y="0" style="fill:#000000;stroke:none;">03266</tspan></text>
		</g>
		<g>
			<path style="stroke-miterlimit:1;" d="M426.965,921.628l-14.118,44.29l58.532,20.594l-25.131,59.227l-5.338-1.661l-4.564,10.778l10.037,3.428l-6.557,13.775l12.627,4.581l4.271,9.188l8.265,16.54l42.771-21.898l-10.143-20.098l-5.288-10.061l9.135-14.253
				l-30.073,0.054l20.443-52.732l-11.953-14.292l-10.236-0.564l-3.633-33.268l-2.021-0.747l-37.025-12.88z"/>
			<text transform="matrix(1 0 0 1 453.0366 1055.5518)"><tspan x="0" y="0" style="fill:#000000;stroke:none;">03264</tspan></text>
		</g>
		<g>
			<path style="stroke-miterlimit:1;" d="M684.365,1332.796l-58.198,68.938l-7.189,9.047l33.706,21.149l24.302-45.946l55.617,11.845l8.32-15.797l6.457-7.158l-16.5-11.313l-46.515-30.764z"/>
			<text transform="matrix(1 0 0 1 668.2866 1374.3018)"><tspan x="0" y="0" style="fill:#000000;stroke:none;">03263</tspan></text>
		</g>
		<g>
			<path style="stroke-miterlimit:1;" d="M430.707,841.365l-14.229,58.203l16.875,2.033l-6.387,20.027l37.025,12.88l8.792-8.798l15.87,2.782l2.479,4.192l26.391-60.461l-74.262-32.572l-10.787-4.721l-1.767,6.435z"/>
			<text transform="matrix(1 0 0 1 450.3062 887.9043)"><tspan x="0" y="0" style="fill:#000000;stroke:none;">03262</tspan></text>
		</g>
		<g>
			<path style="stroke-miterlimit:1;" d="M732.602,1397.828l-9.762,19.992l10.816,5.791l-4.667,7.144l7.002,5.253l-1.397,7.658l57.671,11.28l2.458-3.334l8.684-12.047l11.15-2.808l-6.041-4.377l-3.138-2.402l-64.456-47.947l-8.32,15.797z"/>
			<text transform="matrix(1 0 0 1 745.0083 1435.6729)"><tspan x="0" y="0" style="fill:#000000;stroke:none;">03261</tspan></text>
		</g>
		<g>
			<path style="stroke-miterlimit:1;" d="M283.663,1268.499l-2.353,12.184l6.261,8.076l-1.641,21.043l20.121-2.074l42.697-9.287l-6.973-8.586l10.025-5.198l7.368-10.877l-40.327-22.403l-11.115,19.898l-24.064-2.775z"/>
			<text transform="matrix(1 0 0 1 303.5493 1283.7725)"><tspan x="0" y="0" style="fill:#000000;stroke:none;">03257</tspan></text>
		</g>
		<g>
			<path style="stroke-miterlimit:1;" d="M513.561,1101.763l-4.963,38.279l4.072,5.906l-8.32,4.503l0.835,6.735l-12.829,6.279l-9.627,0.626l-4.383-4.851l-10.031,4.563l-1.734,4.247l8.83,7.409l-7.154,9.613l12.51,17.361l36.012-30.255l68.49-59.146l-33.914-15.224
				l-37.793,3.952z"/>
			<text transform="matrix(1 0 0 1 528.7866 1125.3018)"><tspan x="0" y="0" style="fill:#000000;stroke:none;">03256</tspan></text>
		</g>
		<g>
			<path style="stroke-miterlimit:1;" d="M285.93,1309.802l-15.114,26.356l-1.254,2.06l-6.442,10.906l13.945,45.934l46.184-11.374l0.346-3.709l17.432-0.718l-34.975-71.529l-20.121,2.074z"/>
			<text transform="matrix(1 0 0 1 285.3823 1354.5771)"><tspan x="0" y="0" style="fill:#000000;stroke:none;">03255</tspan></text>
		</g>
		<g>
			<path style="stroke-miterlimit:1;" d="M694.053,1035.907l-90.343,9.45l-11.578,14.368l39.882,37.532l37.693,29.756l18.48,12.873l2.643,0.516l-2.496-8.312l23.971-3.176v-26.656l-19.515,2.504v-6.75l49.134-53.676l-19.611-3.081l-28.26-5.349z"/>
			<text transform="matrix(1 0 0 1 648.7866 1078.8018)"><tspan x="0" y="0" style="fill:#000000;stroke:none;">03254</tspan></text>
		</g>
		<g>
			<path style="stroke-miterlimit:1;" d="M585.268,1113.034l-68.49,59.146l76.611,23.677v-9.845l-13.875-10.744l-0.832-13.688l12.533-3.456l22.916-17.945l10.764,7.72l16.424,3.035v-4.624l13.494-1.058l0.659-4.162l10.462,4.162l-4.418-17.794l8.191-0.445
				l-37.693-29.756l-8.332,5.354l-13.998-9.383l-24.416,19.805z"/>
			<text transform="matrix(1 0 0 1 594.5522 1131.7285)"><tspan x="0" y="0" style="fill:#000000;stroke:none;">03253</tspan></text>
		</g>
		<g>
			<path style="stroke-miterlimit:1;" d="M576.438,753.625l-24.979,58.343l-82.523-31.566l-25.676,59.249l74.262,32.572l5.326,2.328l2.142-5.918l13.808,37.551l127.588-19.176l-2.314-13.941l20.367-31.762l-11.268,0.013l-8.537-19.586l3.117-14.769l-6.398-24.507
				l-14.323-7.389l-70.591-21.442z"/>
			<text transform="matrix(1 0 0 1 561.1587 845.0898)"><tspan x="0" y="0" style="fill:#000000;stroke:none;">03251</tspan></text>
		</g>
		<g>
			<path style="stroke-miterlimit:1;" d="M669.708,1127.014l-8.191,0.445l4.418,17.794l-10.462-4.162l-0.659,4.162l-13.494,1.058v4.624l-16.424-3.035l-10.764-7.72l-22.916,17.945l-12.533,3.456l0.832,13.688l13.875,10.744v9.845l2.824,9.851h5.382l5.054,10.348
				l18.425,11.482l3.202-4.449l28.863,18.133l44.209-19.213l-5.871-33.881l15.094,0.354l-0.047-9.783l25.465-1.164l-16.415-9.238l-31.386-28.409l-18.48-12.873z"/>
			<text transform="matrix(1 0 0 1 627.645 1198.3027)"><tspan x="0" y="0" style="fill:#000000;stroke:none;">03246</tspan></text>
		</g>
		<g>
			<path style="stroke-miterlimit:1;" d="M501.464,1036.059l-9.135,14.253l5.288,10.061l19.699-1.665l33.334,30.481l0.703,8.622l33.688-3.545l-4.192-35.294h-3.908l2.326-10.866l-3.258-21.442l-3.135,0.224l-71.411,9.172z"/>
			<text transform="matrix(1 0 0 1 524.2866 1055.5518)"><tspan x="0" y="0" style="fill:#000000;stroke:none;">03245</tspan></text>
		</g>
		<g>
			<path style="stroke-miterlimit:1;" d="M309.063,1440.754l-15.759,3.621l7.585,15.246l-8.355,21.319l-2.244,31.656l75.152-15.247l-3.527,13.477l2.473,22.778l16.805,13.163l54.387-4.348l-13.515-58.533l-26.282,6.191l-32.443-62.514l-54.275,13.189z"/>
			<text transform="matrix(1 0 0 1 328.2437 1482.3506)"><tspan x="0" y="0" style="fill:#000000;stroke:none;">03244</tspan></text>
		</g>
		<g>
			<path style="stroke-miterlimit:1;" d="M417.385,1198.053l3.984,10.396l-8.921,8.143l5.821,13.771l-7.582,2.987l7.189,11.971l7.011-2.807l40.708-16.425l23.631-10.02l1.969-7.464l-10.43-6.17l-12.51-17.361l-3.873-3.729l-14.502,0.932l-9.724,9.955l-4.195-5.572
				l-7.075,1.579l-11.502,9.814z"/>
			<text transform="matrix(1 0 0 1 434.2515 1216.5166)"><tspan x="0" y="0" style="fill:#000000;stroke:none;">03243</tspan></text>
		</g>
		<g>
			<path style="stroke-miterlimit:1;" d="M381.028,1423.379l-17.689,4.186l32.443,62.514l26.282-6.191l43.764-10.21l-31.292-62.89l-53.508,12.592z"/>
			<text transform="matrix(1 0 0 1 397.894 1453.6182)"><tspan x="0" y="0" style="fill:#000000;stroke:none;">03242</tspan></text>
		</g>
		<g>
			<path style="stroke-miterlimit:1;" d="M383.591,1026.71l-5.347,24.589l-13.603-20.306l-12.021,57.36l27.58,7.23l21.908,4.968l-5.215,6.91l30.744,14.864l17.613-10.251v-4.476h-8.203v-9.619l3.252-6.75l16.424-5.402l-4.271-9.188l-12.627-4.581l6.557-13.775
				l-10.037-3.428l4.564-10.778l-57.319-17.367z"/>
			<text transform="matrix(1 0 0 1 387.9829 1077.7031)"><tspan x="0" y="0" style="fill:#000000;stroke:none;">03241</tspan></text>
		</g>
		<g>
			<path style="stroke-miterlimit:1;" d="M302.72,1152.624l-27.964,39.531l1.271,6.328l74.859,10.57l2.417-3.103l37.925-45.192l-20.461-4.858l-60.064-14.332l-7.983,11.056z"/>
			<text transform="matrix(1 0 0 1 316.3022 1178.4951)"><tspan x="0" y="0" style="fill:#000000;stroke:none;">03240</tspan></text>
		</g>
		<g>
			<path style="stroke-miterlimit:1;" d="M616.229,1290.046l9.311,5.771l32.139,20.127l17.848-20.849l-3.188-5.987l8.508-11.22l-12.311-1.267l-8.953-8.874l-8.66-19.703l-34.693,42.002z"/>
			<text transform="matrix(1 0 0 1 631.8472 1285.1787)"><tspan x="0" y="0" style="fill:#000000;stroke:none;">03237</tspan></text>
		</g>
		<g>
			<path style="stroke-miterlimit:1;" d="M465.596,1226.089l2.549,2.681l-5.063,9.238l3.064,9.545l-5.713,0.533l-3.229,7.509l0.311,10.28l9.293,8.502l20.232-7.591l2.994,10.422l-4.031,1.625l-1.418,14.52l3.984-1.308l2.968,10.429l9.445,4.893l0.718,5.021
				l11.619-5.4l4.286-14.329l9.179-0.68l-1.816-24.975l4.916-0.326l-4.796-10.606l1.462-7.478l-7.553-15.23l-8.338,2.674l-14.578-9.15l-6.855-10.816l-23.631,10.02z"/>
			<text transform="matrix(1 0 0 1 479.2866 1256.5518)"><tspan x="0" y="0" style="fill:#000000;stroke:none;">03235</tspan></text>
		</g>
		<g>
			<path style="stroke-miterlimit:1;" d="M732.602,1397.828l-55.617-11.845l-24.302,45.946l-7.69,14.941l55.945,11.115l21.902-40.166l9.762-19.992z"/>
			<text transform="matrix(1 0 0 1 672.1069 1425.1699)"><tspan x="0" y="0" style="fill:#000000;stroke:none;">03234</tspan></text>
		</g>
		<g>
			<path style="stroke-miterlimit:1;" d="M351.801,1284.656l-10.025,5.198l6.973,8.586l17.736-3.757l-14.684-10.027z"/>
			<text transform="matrix(1 0 0 1 337.4399 1294.7324)"><tspan x="0" y="0" style="fill:#000000;stroke:none;">03233</tspan></text>
		</g>
		<g>
			<path style="stroke-miterlimit:1;" d="M456.725,1085.828l-16.424,5.402l-3.252,6.75v9.619h8.203v4.476l19.737-9.707l-8.265-16.54z"/>
			<text transform="matrix(1 0 0 1 434.3306 1102.1377)"><tspan x="0" y="0" style="fill:#000000;stroke:none;">03232</tspan></text>
		</g>
		<g>
			<path style="stroke-miterlimit:1;" d="M424.888,1242.514l4.819,14.462l9.926,1.382l-1.898-3.832l4.061-7.462l4.242,6.162l11.168,2.369l3.229-7.509l5.713-0.533l-3.064-9.545l5.063-9.238l-2.549-2.681l-40.708,16.425z"/>
			<text transform="matrix(1 0 0 1 429.8276 1245.4082)"><tspan x="0" y="0" style="fill:#000000;stroke:none;">03231</tspan></text>
		</g>
		<g>
			<path style="stroke-miterlimit:1;" d="M391.229,1160.759l-37.925,45.192l20.593,47.248l10.506-10.911l7.447,13.456l26.027-10.424l-7.189-11.971l7.582-2.987l-5.821-13.771l8.921-8.143l-3.984-10.396l-17.889-45.546l-8.268,8.252z"/>
			<text transform="matrix(1 0 0 1 370.6479 1207.3105)"><tspan x="0" y="0" style="fill:#000000;stroke:none;">03230</tspan></text>
		</g>
		<g>
			<path style="stroke-miterlimit:1;" d="M434.536,1410.787l31.292,62.89l36.653-8.914l36.718-8.572l-37.222-64.513l-32.35,10.797l-35.092,8.313z"/>
			<text transform="matrix(1 0 0 1 470.1753 1435.8613)"><tspan x="0" y="0" style="fill:#000000;stroke:none;">03229</tspan></text>
		</g>
		<g>
			<path style="stroke-miterlimit:1;" d="M675.918,945.704l-114.926,15.267l11.883,65.916l3.135-0.224l3.258,21.442l24.442-2.748l90.343-9.45l-5.326-28.19l-4.5-21.009l-10.304-4.069l8.335-5.681l-1.512-8.518l-3.709-17.471l-1.119-5.265z M674.893,1009.444
				l-27.445-4.376l-10.38-6.135l3.103-9.96l34.488-2.571l6.762,14.441l-6.527,8.601z"/>
			<text transform="matrix(1 0 0 1 589.0854 996.0898)"><tspan x="0" y="0" style="fill:#000000;stroke:none;">03227</tspan></text>
		</g>
		<g>
			<path style="stroke-miterlimit:1;" d="M579.268,1048.105l-2.326,10.866h3.908l4.192,35.294l-33.688,3.545l33.914,15.224l24.416-19.805l13.998,9.383l8.332-5.354l-39.882-37.532l11.578-14.368l-24.442,2.748z"/>
			<text transform="matrix(1 0 0 1 583.5366 1087.8018)"><tspan x="0" y="0" style="fill:#000000;stroke:none;">03226</tspan></text>
		</g>
		<g>
			<path style="stroke-miterlimit:1;" d="M744.661,1301.532l-8.139,4.476l1.521,40.684l-9.07,10.453l1.907,6.415l16.5,11.313l14.578-16.531l21.914-24.681l6.422-7.186l-45.633-24.943z"/>
			<text transform="matrix(1 0 0 1 746.2866 1342.0518)"><tspan x="0" y="0" style="fill:#000000;stroke:none;">03225</tspan></text>
		</g>
		<g>
			<path style="stroke-miterlimit:1;" d="M616.229,1290.046l-101.499,30.928l8.358,8.597l2.2,16.873l7.005-1.402l-1.512,7.157l13.436,1.973l-5.186,8.029l9.665,0.176l-1.345,10.798l33.275-15.391l2.854,4.615l40.62-47.462l1.438-19.12l-9.311-5.771z"/>
			<text transform="matrix(1 0 0 1 553.4458 1334.7949)"><tspan x="0" y="0" style="fill:#000000;stroke:none;">03224</tspan></text>
		</g>
		<g>
			<path style="stroke-miterlimit:1;" d="M538.797,906.184l10.86,30.083l-3.753,38.622l-54.07,8.49l-20.443,52.732l30.073-0.054l71.411-9.172l-11.883-65.916l114.926-15.267l-9.533-58.696l-127.588,19.176z"/>
			<text transform="matrix(1 0 0 1 571.2866 931.5513)"><tspan x="0" y="0" style="fill:#000000;stroke:none;">03223</tspan></text>
		</g>
		<g>
			<path style="stroke-miterlimit:1;" d="M507.76,1080.47l-42.771,21.898l-19.737,9.707l-17.613,10.251l-30.744-14.864l5.215-6.91l-21.908-4.968l-15.451,29.063l2.871,1.532l-1.708,10.008l5.71,2.399l-2.396,4.735l5.854,2.553l-4.313,10.026l20.461,4.858
				l8.268-8.252l17.889,45.546l11.502-9.814l7.075-1.579l4.195,5.572l9.724-9.955l14.502-0.932l3.873,3.729l7.154-9.613l-8.83-7.409l1.734-4.247l10.031-4.563l4.383,4.851l9.627-0.626l12.829-6.279l-0.835-6.735l8.32-4.503l-4.072-5.906l4.963-38.279l-5.801-21.293z
				"/>
			<text transform="matrix(1 0 0 1 426.4653 1144.4453)"><tspan x="0" y="0" style="fill:#000000;stroke:none;">03222</tspan></text>
		</g>
		<g>
			<path style="stroke-miterlimit:1;" d="M348.749,1298.44l-42.697,9.287l34.975,71.529l-17.432,0.718l-0.346,3.709l-46.184,11.374l11.361,0.178l2.186,21.797l18.451,23.722l54.275-13.189l17.689-4.186l-23.643-47.424l15.979-2.953l-11.027-8.159l4.482-4.893
				l15.51,11.263l17.818-3.511l-20.531-47.068l-13.131-25.95l-17.736,3.757z"/>
			<text transform="matrix(1 0 0 1 338.2866 1353.3018)"><tspan x="0" y="0" style="fill:#000000;stroke:none;">03221</tspan></text>
		</g>
		<g>
			<path style="stroke-miterlimit:1;" d="M591.877,1226.734l-7.682,15.322l-7.298-1.246l2.288,15.974l-8.045,4.034l45.088,29.228l34.693-42.002l6.217-6.822l-28.863-18.133l-3.202,4.449l-18.425-11.482l-5.054-10.348h-5.382l-4.336,21.026z"/>
			<text transform="matrix(1 0 0 1 591.4497 1260.0625)"><tspan x="0" y="0" style="fill:#000000;stroke:none;">03220</tspan></text>
		</g>
		<g>
			<path style="stroke-miterlimit:1;" d="M721.586,1284.065l-37.222,48.73l46.515,30.764l-1.907-6.415l9.07-10.453l-1.521-40.684l8.139-4.476l-23.074-17.467z"/>
			<text transform="matrix(1 0 0 1 697.8237 1326.9971)"><tspan x="0" y="0" style="fill:#000000;stroke:none;">03218</tspan></text>
		</g>
		<g>
			<path style="stroke-miterlimit:1;" d="M507.76,1080.47l5.801,21.293l37.793-3.952l-0.703-8.622l-33.334-30.481l-19.699,1.665l10.143,20.098z"/>
			<text transform="matrix(1 0 0 1 510.7866 1094.5518)"><tspan x="0" y="0" style="fill:#000000;stroke:none;">03217</tspan></text>
		</g>
		<g>
			<path style="stroke-miterlimit:1;" d="M417.877,1245.32l-26.027,10.424l-10.219,5.578l2.388,4.877l17.262,3.9l-6.521,2.624l-4.192,2.621l5.379,7.707l-7.951,7.415l7.26,13.418l10.474-4.497l61.081-25.011l-9.293-8.502l-0.311-10.28l-11.168-2.369l-4.242-6.162
				l-4.061,7.462l1.898,3.832l-9.926-1.382l-4.819-14.462l-7.011,2.807z"/>
			<text transform="matrix(1 0 0 1 423.5327 1276.3838)"><tspan x="0" y="0" style="fill:#000000;stroke:none;">03216</tspan></text>
		</g>
		<g>
			<path style="stroke-miterlimit:1;" d="M531.221,1587.777l4.77,21.662l14.988-2.313l6.943,32.01l66.521-10.057l-4.553-24.642l-8.109-12.927l-9.126,1.158l-3.343-12.451l-68.092,7.559z"/>
			<text transform="matrix(1 0 0 1 561.5874 1612.8623)"><tspan x="0" y="0" style="fill:#000000;stroke:none;">03110</tspan></text>
		</g>
		<g>
			<path style="stroke-miterlimit:1;" d="M611.29,1491.837l-21.026,24.576l0.571,4.734l-3.721,0.545l3.296,14.035l12.87-2.042l9.41,11.022l10.6-6.193l3.064,16.192l32.37,7.757l-6.439-21.995l6.419,0.477l20.449-41.746l-62.361-10.681l0.018-3.253l-5.52,6.571z"/>
			<text transform="matrix(1 0 0 1 616.4429 1527.0488)"><tspan x="0" y="0" style="fill:#000000;stroke:none;">03106</tspan></text>
		</g>
		<g>
			<path style="stroke-miterlimit:1;" d="M612.69,1544.708l-3.797,7.687l6.516,13.741l2.941,3.192l2.083,1.321l0.363,3.991l12.243,0.885l2.194,0.694l14.59-0.489l4.591-6.056l-3.683-2.722l8.558-1.837l-0.565-2.652l-32.37-7.757l-3.064-16.192l-10.6,6.193z"/>
			<text transform="matrix(1 0 0 1 619.0366 1565.0518)"><tspan x="0" y="0" style="fill:#000000;stroke:none;">03104</tspan></text>
		</g>
		<g>
			<path style="stroke-miterlimit:1;" d="M620.796,1574.641l-2.042,4.014v7.825l-4.664-1.336l-2.309,6.368l8.109,12.927l4.553,24.642l-0.656,5.211l-18.642,28.255l6.788,0.993l1.277-7.919l7.881-1.535l2.757-12.173l6.741,1.755l0.015,0.026l-0.003-0.031
				l-5.382-27.93l21.782-2.971l-1.89-15.109l-9.879-21.433l-2.194-0.694l-12.243-0.885z"/>
			<text transform="matrix(1 0 0 1 614.2866 1609.0518)"><tspan x="0" y="0" style="fill:#000000;stroke:none;">03103</tspan></text>
		</g>
		<g>
			<path style="stroke-miterlimit:1;" d="M590.41,1535.728l7.667,37.021l-9.311-4.079l-2.883,6.867l13.049,1.792l0.381,2.891l3.343,12.451l9.126-1.158l2.309-6.368l1.037-2.338l0.281-16.67l-6.516-13.741l3.797-7.687l-9.41-11.022l-12.87,2.042z"/>
			<text transform="matrix(1 0 0 1 585.0366 1548.3018)"><tspan x="0" y="0" style="fill:#000000;stroke:none;">03102</tspan></text>
		</g>
		<g>
			<path style="stroke-miterlimit:1;" d="M615.409,1566.136l-0.281,16.67l-1.037,2.338l4.664,1.336v-7.825l2.042-4.014l-0.363-3.991l-2.083-1.321l-2.941-3.192z"/>
			<text transform="matrix(1 0 0 1 600.7544 1579.4922)"><tspan x="0" y="0" style="fill:#000000;stroke:none;">03101</tspan></text>
		</g>
		<g>
			<path style="stroke-miterlimit:1;" d="M693.391,1676.646l-10.201,1.443l2.481,14.954l-9.144,12.284l-1.617,10.934l5.73-0.231l1.459,7.423l37.711,8.325l27.129-42.095l-3.322-17.698l-50.227,4.661z"/>
			<text transform="matrix(1 0 0 1 694.2349 1705.0674)"><tspan x="0" y="0" style="fill:#000000;stroke:none;">03087</tspan></text>
		</g>
		<g>
			<path style="stroke-miterlimit:1;" d="M411.555,1660.082l9.768,53.017l51.967-6.654l-6.018-36.424l-2.42-15.985l-53.297,6.047z"/>
			<text transform="matrix(1 0 0 1 425.7319 1686.751)"><tspan x="0" y="0" style="fill:#000000;stroke:none;">03086</tspan></text>
		</g>
		<g>
			<path style="stroke-miterlimit:1;" d="M381.385,1651.211l2.906,14.619l-3.85-1.083l-4.157,7.648l-9.097,40.172l47.977,1.292l6.158-0.761l-9.768-53.017l-2.561-13.096l-11.35,1.53l-16.26,2.694z"/>
			<text transform="matrix(1 0 0 1 377.5679 1683.6074)"><tspan x="0" y="0" style="fill:#000000;stroke:none;">03084</tspan></text>
		</g>
		<g>
			<path style="stroke-miterlimit:1;" d="M421.844,1602.445l-10.764,18.683l5.689,1.932l-9.914,6.428l2.669,11.933l-13.192,1.647l1.313,5.449l11.35-1.53l2.561,13.096l53.297-6.047l2.42,15.985l17.367-2.939l-5.291-25.021l-10.942-1.019l-5.552-19.8l-5.496-24.3
				l-35.514,5.504z"/>
			<text transform="matrix(1 0 0 1 423.7954 1636.665)"><tspan x="0" y="0" style="fill:#000000;stroke:none;">03082</tspan></text>
		</g>
		<g>
			<path style="stroke-miterlimit:1;" d="M743.618,1671.985l3.322,17.698l-27.129,42.095l13.919,2.94l8.162,8.979l12.243-2.789l23.871,6.191l-2.438-36.126l11.021-12.007l-3.48-4.796l-10.658,1.564l2.719-11.429l-11.188-15.293l-20.364,2.971z"/>
			<text transform="matrix(1 0 0 1 734.5103 1720.5752)"><tspan x="0" y="0" style="fill:#000000;stroke:none;">03079</tspan></text>
		</g>
		<g>
			<path style="stroke-miterlimit:1;" d="M750.385,1514.161l-17.432,43.511l-3.604,9.201l56.596,12.189l9.674-24.865l11.282-28.192l-46.62-9.85l-9.896-1.994z"/>
			<text transform="matrix(1 0 0 1 752.437 1555.7969)"><tspan x="0" y="0" style="fill:#000000;stroke:none;">03077</tspan></text>
		</g>
		<g>
			<path style="stroke-miterlimit:1;" d="M674.911,1716.262l-13.011,57.234l52.383,1.226l27.609-31.023l-8.162-8.979l-13.919-2.94l-37.711-8.325l-1.459-7.423l-5.73,0.231z"/>
			<text transform="matrix(1 0 0 1 677.2056 1755.2285)"><tspan x="0" y="0" style="fill:#000000;stroke:none;">03076</tspan></text>
		</g>
		<g>
			<path style="stroke-miterlimit:1;" d="M345.458,1712.403l9.056,51.941l69.955,2.213l-9.305-52.698l-47.977-1.292l-21.729-0.164z"/>
			<text transform="matrix(1 0 0 1 368.2749 1742.6641)"><tspan x="0" y="0" style="fill:#000000;stroke:none;">03071</tspan></text>
		</g>
		<g>
			<path style="stroke-miterlimit:1;" d="M448.83,1559.007l8.528,37.935l5.496,24.3l55.383-8.707l17.754-3.095l-4.77-21.662l-8.265-34.729l-5.013-1.524l1.151-5.375l-70.266,12.857z"/>
			<text transform="matrix(1 0 0 1 475.7183 1586.8809)"><tspan x="0" y="0" style="fill:#000000;stroke:none;">03070</tspan></text>
		</g>
		<g>
			<path style="stroke-miterlimit:1;" d="M566.77,1708.391l-3.8,3.878l7.315,2.651l-2.326,5.446l11.689-2.303l3.844,5.839l-1.588,21.769l16.784-7.822l2.777-6.396l-0.114-2.313l-1.529-18.436l-9.867-7.62l-17.291-2.244l-5.895,7.551z"/>
			<text transform="matrix(1 0 0 1 563.7866 1721.0518)"><tspan x="0" y="0" style="fill:#000000;stroke:none;">03063</tspan></text>
		</g>
		<g>
			<path style="stroke-miterlimit:1;" d="M581.905,1745.671l-8.276,25.057l52.497,1.682l-1.248-19.661l-18.592-6.736l-4.819-14.56l-2.777,6.396l-16.784,7.822z"/>
			<text transform="matrix(1 0 0 1 581.2866 1764.3018)"><tspan x="0" y="0" style="fill:#000000;stroke:none;">03062</tspan></text>
		</g>
		<g>
			<path style="stroke-miterlimit:1;" d="M615.186,1704.443l-3.973,6.466l-9.803-2.519l-1.761-7.551l-9.694,2.244l9.867,7.62l1.529,18.436l0.114,2.313l4.819,14.56l18.592,6.736l1.248,19.661l9.41,0.27l-3.627-37.417l-10.374-14.558l1.245-8.641l-3.955-5.499
				l-3.639-2.121z"/>
			<text transform="matrix(1 0 0 1 594.7866 1742.5518)"><tspan x="0" y="0" style="fill:#000000;stroke:none;">03060</tspan></text>
		</g>
		<g>
			<path style="stroke-miterlimit:1;" d="M462.854,1621.241l5.552,19.8l10.942,1.019l5.291,25.021l3.838-0.53l-1.359-5.44l16.154-1.771l1.764-10.913l13.942-1.742l-3.422-13.623l2.681-20.527l-55.383,8.707z"/>
			<text transform="matrix(1 0 0 1 479.5576 1635.6592)"><tspan x="0" y="0" style="fill:#000000;stroke:none;">03057</tspan></text>
		</g>
		<g>
			<path style="stroke-miterlimit:1;" d="M484.639,1667.081l-17.367,2.939l6.018,36.424l2.997,19.225l13.321-1.427l-1.986-13.333l27.785-2.585l1.389,11.257l20.777-9.084l-0.735-4.624l-5.9-19.661l-10.146-3.469l-9.015-13.742l-7.371,0.681l-1.134-10.342
				l-16.154,1.771l1.359,5.44l-3.838,0.53z"/>
			<text transform="matrix(1 0 0 1 478.3984 1697.6895)"><tspan x="0" y="0" style="fill:#000000;stroke:none;">03055</tspan></text>
		</g>
		<g>
			<path style="stroke-miterlimit:1;" d="M624.444,1629.08l-66.521,10.057l-4.195,0.608l10.775,62.727l2.268,5.919l5.895-7.551l17.291,2.244l9.694-2.244l1.761,7.551l9.803,2.519l3.973-6.466l-6.973-14.013l-3.067-27.885l18.642-28.255l0.656-5.211z"/>
			<text transform="matrix(1 0 0 1 566.395 1661.1777)"><tspan x="0" y="0" style="fill:#000000;stroke:none;">03054</tspan></text>
		</g>
		<g>
			<path style="stroke-miterlimit:1;" d="M630.59,1643.667l-6.741-1.755l-2.757,12.173l-7.881,1.535l-1.277,7.919l-6.788-0.993l3.067,27.885l6.973,14.013l3.639,2.121l21.914-8.438l-1.594-10.412l-8.54-44.021l-0.015-0.026z"/>
			<text transform="matrix(1 0 0 1 607.5366 1685.8018)"><tspan x="0" y="0" style="fill:#000000;stroke:none;">03052</tspan></text>
		</g>
		<g>
			<path style="stroke-miterlimit:1;" d="M639.145,1687.715l1.594,10.412l-21.914,8.438l3.955,5.499l-1.245,8.641l10.374,14.558l3.627,37.417l26.364,0.817l13.011-57.234l1.617-10.934l-14.572-16.597l-22.811-1.017z"/>
			<text transform="matrix(1 0 0 1 634.3198 1725.124)"><tspan x="0" y="0" style="fill:#000000;stroke:none;">03051</tspan></text>
		</g>
		<g>
			<path style="stroke-miterlimit:1;" d="M421.323,1713.099l-6.158,0.761l9.305,52.698l59.074,1.77l-7.257-42.658l-2.997-19.225l-51.967,6.654z"/>
			<text transform="matrix(1 0 0 1 429.3306 1747.9033)"><tspan x="0" y="0" style="fill:#000000;stroke:none;">03048</tspan></text>
		</g>
		<g>
			<path style="stroke-miterlimit:1;" d="M360.374,1579.601l-1.887,19.258l16.017,0.535l-14.687,1.602l4.453,5.638l10.295-0.688l6.82,45.267l16.26-2.694l-1.313-5.449l13.192-1.647l-2.669-11.933l9.914-6.428l-5.689-1.932l10.764-18.683l-6.779-3.966l-1.137-6.349
				l3.876-2.891l-28.318,4.271l-3.987-16.823l-25.125,2.912z"/>
			<text transform="matrix(1 0 0 1 377.2866 1611.3018)"><tspan x="0" y="0" style="fill:#000000;stroke:none;">03047</tspan></text>
		</g>
		<g>
			<path style="stroke-miterlimit:1;" d="M795.62,1554.197l-9.674,24.865l-6.521,16.396l16.893,0.407l32.49,0.478l2.379-0.07l4.283-41.912l-39.85-0.164z"/>
			<text transform="matrix(1 0 0 1 792.7563 1582.4551)"><tspan x="0" y="0" style="fill:#000000;stroke:none;">03044</tspan></text>
		</g>
		<g>
			<path style="stroke-miterlimit:1;" d="M381.192,1546.768l4.354,13.62l-6.656-0.979l0.82,6.621l5.789,10.658l3.987,16.823l28.318-4.271l-3.876,2.891l1.137,6.349l6.779,3.966l35.514-5.504l-8.528-37.935l-1.304-5.53l-8.792,1.564l-3.155-12.621l-54.387,4.348z"/>
			<text transform="matrix(1 0 0 1 401.4331 1575.6182)"><tspan x="0" y="0" style="fill:#000000;stroke:none;">03043</tspan></text>
		</g>
		<g>
			<path style="stroke-miterlimit:1;" d="M839.7,1512.957l-27.732,0.259l-5.065,12.789l-11.282,28.192l39.85,0.164l39.387,0.383l-1.652-9.201l0.328-12.743l0.604-20.034l-34.436,0.191z"/>
			<text transform="matrix(1 0 0 1 818.5503 1536.9385)"><tspan x="0" y="0" style="fill:#000000;stroke:none;">03042</tspan></text>
		</g>
		<g>
			<path style="stroke-miterlimit:1;" d="M684.546,1608.154l8.845,68.492l50.227-4.661l20.364-2.971l-0.741-5.171l-6.568-35.596l-0.258-5.429l-51.762-11.019l-20.106-3.646z"/>
			<text transform="matrix(1 0 0 1 708.2407 1649.5859)"><tspan x="0" y="0" style="fill:#000000;stroke:none;">03038</tspan></text>
		</g>
		<g>
			<path style="stroke-miterlimit:1;" d="M722.84,1417.82l-21.902,40.166l-21.785,41.213l71.232,14.962l9.896,1.994l13.324-22.198l-9.393-1.865l6.542-8.613l3.466-4.498l8.988,6.881l5.42-6.989l1.992-2.487l-9.94-5.724l11.584-15.715l-57.671-11.28l1.397-7.658
				l-7.002-5.253l4.667-7.144l-10.816-5.791z"/>
			<text transform="matrix(1 0 0 1 710.0171 1486.1729)"><tspan x="0" y="0" style="fill:#000000;stroke:none;">03037</tspan></text>
		</g>
		<g>
			<path style="stroke-miterlimit:1;" d="M717.737,1554.021l-3.334,26.613l-9.75,31.166l51.762,11.019l-2.174-30.557l25.184,3.196l6.521-16.396l-56.596-12.189l3.604-9.201l-15.217-3.65z"/>
			<text transform="matrix(1 0 0 1 722.6089 1590.2734)"><tspan x="0" y="0" style="fill:#000000;stroke:none;">03036</tspan></text>
		</g>
		<g>
			<path style="stroke-miterlimit:1;" d="M679.153,1499.199l-20.449,41.746l59.033,13.076l15.217,3.65l17.432-43.511l-71.232-14.962z"/>
			<text transform="matrix(1 0 0 1 687.8569 1531.6211)"><tspan x="0" y="0" style="fill:#000000;stroke:none;">03034</tspan></text>
		</g>
		<g>
			<path style="stroke-miterlimit:1;" d="M476.287,1725.669l7.257,42.658l40.14,1.155l-6.888-49.901l-1.389-11.257l-27.785,2.585l1.986,13.333l-13.321,1.427z"/>
			<text transform="matrix(1 0 0 1 483.9614 1751.4199)"><tspan x="0" y="0" style="fill:#000000;stroke:none;">03033</tspan></text>
		</g>
		<g>
			<path style="stroke-miterlimit:1;" d="M518.237,1612.534l-2.681,20.527l3.422,13.623l-13.942,1.742l-1.764,10.913l1.134,10.342l7.371-0.681l9.015,13.742l10.146,3.469l5.9,19.661l27.665-3.401l-10.775-62.727l4.195-0.608l-6.943-32.01l-14.988,2.313
				l-17.754,3.095z"/>
			<text transform="matrix(1 0 0 1 517.1968 1669.6846)"><tspan x="0" y="0" style="fill:#000000;stroke:none;">03031</tspan></text>
		</g>
		<g>
			<path style="stroke-miterlimit:1;" d="M825.708,728.141l-0.035,75.718l0.949,31.37l6.809,1.838l41.804-0.646l0.378,5.522l5.309-0.81l-5.522-146.612l-19.526,0.732l1.125,31.213l-31.289,1.674z"/>
			<text transform="matrix(1 0 0 1 835.0366 774.3013)"><tspan x="0" y="0" style="fill:#000000;stroke:none;">04058</tspan></text>
		</g>
		<g>
			<path style="stroke-miterlimit:1;" d="M776.084,796.457l-3.557,6.709l4.113,9.877l-5.54,5.298l12.659-0.986l3.252,6.185l6.838-1.863l7.251-4.518l7.274-15.382l-32.291-5.32z"/>
			<text transform="matrix(1 0 0 1 773.0493 813.1841)"><tspan x="0" y="0" style="fill:#000000;stroke:none;">03838</tspan></text>
		</g>
		<g>
			<path style="stroke-miterlimit:1;" d="M788.298,850.292l-12.917,2.041l2.81,20.785l14.089-1.859l-3.981-20.966z"/>
			<text transform="matrix(1 0 0 1 767.1401 864.8887)"><tspan x="0" y="0" style="fill:#000000;stroke:none;">03845</tspan></text>
		</g>
		<g>
			<path style="stroke-miterlimit:1;" d="M320.316,882.47l14.681,6.961l10.857-29.086l-8.127-0.101l-6.756,10.62l-17.566-4.217l6.911,15.823z"/>
			<text transform="matrix(1 0 0 1 312.939 878.0225)"><tspan x="0" y="0" style="fill:#000000;stroke:none;">03780</tspan></text>
		</g>
		<g>
			<path style="stroke-miterlimit:1;" d="M463.991,934.508l2.021,0.747l20.566,7.586l4.553-10.157l-2.479-4.192l-15.87-2.782l-8.792,8.798z"/>
			<text transform="matrix(1 0 0 1 460.8706 937.4614)"><tspan x="0" y="0" style="fill:#000000;stroke:none;">03293</tspan></text>
		</g>
		<g>
			<path style="stroke-miterlimit:1;" d="M674.893,1009.444l6.527-8.601l-6.762-14.441l-34.488,2.571l-3.103,9.96l10.38,6.135l27.445,4.376z"/>
			<text transform="matrix(1 0 0 1 641.6021 1001.0518)"><tspan x="0" y="0" style="fill:#000000;stroke:none;">03259</tspan></text>
		</g>
		<g>
			<path style="stroke-miterlimit:1;" d="M677.038,950.969l3.709,17.471l5.279,0.968l0.999-6.129l17.297-9.335l-0.026-6.713l-1.77-6.431l-7.274,1.165l1.553,6.382l-19.767,2.622z"/>
			<text transform="matrix(1 0 0 1 673.9878 958.2886)"><tspan x="0" y="0" style="fill:#000000;stroke:none;">03897</tspan></text>
		</g>
		<g>
			<path style="stroke-miterlimit:1;" d="M770.161,986.544l-7.441,2.32l1.148,6.78l-3.352,0.772l3.158,10.406l9.961-3.63l-3.475-16.649z"/>
			<text transform="matrix(1 0 0 1 750.3882 999.8682)"><tspan x="0" y="0" style="fill:#000000;stroke:none;">03890</tspan></text>
		</g>
		<g>
			<path style="stroke-miterlimit:1;" d="M746.436,1249.105l6.592-1.268l-1.84-20.178l-4.242-4.211l-12.598,7.967l6.791,15.574l5.297,2.115z"/>
			<text transform="matrix(1 0 0 1 726.9976 1239.4619)"><tspan x="0" y="0" style="fill:#000000;stroke:none;">03810</tspan></text>
		</g>
		<g>
			<path style="stroke-miterlimit:1;" d="M394.759,1272.724l-1.872-1.534l-3.029,3.023l0.709,1.132l4.192-2.621z"/>
			<text transform="matrix(1 0 0 1 375.6167 1276.4531)"><tspan x="0" y="0" style="fill:#000000;stroke:none;">03265</tspan></text>
		</g>
		<g>
			<path style="stroke-miterlimit:1;" d="M200.747,1172.084l-3.231,8.948l-19.175,13.483l3.894,4.817l-8.083,4.992l-5.016,9.973l16.386,6.084l-2.915,3.944l3.516,2.348l-0.829,6.79l7.066,2.47l13.72-17.789l0.375-24.2l10.673-15.895l-16.38-5.966z"/>
			<text transform="matrix(1 0 0 1 176.4419 1207.1934)"><tspan x="0" y="0" style="fill:#000000;stroke:none;">03770</tspan></text>
		</g>
		<g>
			<path style="stroke-miterlimit:1;" d="M59.993,1458.866l-3.352,10.979l7.784,8.687l8.162,5.45l3.788-3.638l1.588-3.444l-8.487-0.647l-0.264-16.388l-9.22-0.999z"/>
			<text transform="matrix(1 0 0 1 50.6118 1474.6094)"><tspan x="0" y="0" style="fill:#000000;stroke:none;">03609</tspan></text>
		</g>
		<g>
			<path style="stroke-miterlimit:1;" d="M76.375,1480.345l11.112,1.217l-5.484,6.047l8.754,1.308l1.289,6.55l13.676,0.315l-2.487-17.091l-25.271-1.79l-1.588,3.444z"/>
			<text transform="matrix(1 0 0 1 74.3599 1489.5244)"><tspan x="0" y="0" style="fill:#000000;stroke:none;">03604</tspan></text>
		</g>
		<g>
			<path style="stroke-miterlimit:1;" d="M214.018,1563.227l-20.461,10.675l3.369,4.46l16.037,0.437l1.055-15.571z"/>
			<text transform="matrix(1 0 0 1 187.0972 1574.1963)"><tspan x="0" y="0" style="fill:#000000;stroke:none;">03445</tspan></text>
		</g>
		<g>
			<path style="stroke-miterlimit:1;" d="M364.387,1533.604l-10.746,5.959l1.893,13.805l-8.32,2.272l2.455,16.226l-5.479,1.434l5.584,0.511l2.229,6.293l8.37-0.503l25.125-2.912l-5.789-10.658l-0.82-6.621l6.656,0.979l-4.354-13.62l-16.805-13.163z"/>
			<text transform="matrix(1 0 0 1 348.1772 1560.0391)"><tspan x="0" y="0" style="fill:#000000;stroke:none;">03442</tspan></text>
		</g>
		<g>
			<path style="stroke-miterlimit:1;" d="M792.265,1454.946l-11.584,15.715l9.94,5.724l-1.992,2.487l13.251,11.438l20.968-2.198l-1.79-7.804l-8.317-0.625l5.555-0.518l-1.98-9.196l-4.872-2.17l4.175-0.504l-3.135-4.715l-14.455-4.988l-3.305-5.979l-2.458,3.334z"/>
			<text transform="matrix(1 0 0 1 785.0757 1474.1445)"><tspan x="0" y="0" style="fill:#000000;stroke:none;">03291</tspan></text>
		</g>
		<g>
			<path style="stroke-miterlimit:1;" d="M873.379,1388.963l16.453,12.653l2.382-10.325l-8.704-11.098l-4.893-2.612l-5.238,11.382z"/>
			<text transform="matrix(1 0 0 1 866.105 1392.7852)"><tspan x="0" y="0" style="fill:#000000;stroke:none;">03839</tspan></text>
		</g>
		<g>
			<path style="stroke-miterlimit:1;" d="M888.543,1293.47l-1.646,19.721l8.01,19.033l-3.366,13.45l2.241,7.172l6.709-17.655l-11.303-24.605l-0.645-17.115z"/>
			<text transform="matrix(1 0 0 1 877.0034 1326.3418)"><tspan x="0" y="0" style="fill:#000000;stroke:none;">03868</tspan></text>
		</g>
		<g>
			<path style="stroke-miterlimit:1;" d="M1043.67,1530.625l2.379-10.954l-15.814,0.34l7.708,1.634l-4.594,6.259l10.321,2.722z"/>
			<text transform="matrix(1 0 0 1 1021.4546 1528.334)"><tspan x="0" y="0" style="fill:#000000;stroke:none;">03854</tspan></text>
		</g>
		<g>
			<path style="stroke-miterlimit:1;" d="M988.903,1555.05l-3.032,4.666l5.177,2.597l-4.834,5.104l9.606,1.646l-8.15,9.026l13.421,2.945l14.435,10.247l3.621-11.45l9.448-8.246l-5.235,0.076l-0.905-5.484l4.503,1.629l-0.636-4.688l18.132-23.613l-3.935-7.364
				l-6.826,1.104v-4.863l-6.917,4.013l-21.987,26.905l-15.885-4.249z"/>
			<text transform="matrix(1 0 0 1 998.4712 1563.0156)"><tspan x="0" y="0" style="fill:#000000;stroke:none;">03870</tspan></text>
		</g>
		<g>
			<path style="stroke-miterlimit:1;" d="M950.653,1514.645l-0.826,13.447l-8.203,1.935h-4.711l24.064,19.599l-5.232,15.356l30.469,2.435l4.834-5.104l-5.177-2.597l3.032-4.666l-4.705-28.983l-8.323,2.457l-18.448-4.925l-6.773-8.954z"/>
			<text transform="matrix(1 0 0 1 955.2896 1547.2148)"><tspan x="0" y="0" style="fill:#000000;stroke:none;">03840</tspan></text>
		</g>
		<g>
			<path style="stroke-miterlimit:1;" d="M809.84,1652.185l-6.135,11.094l11.423,15.654l0.237,13.675l29.314,7.758l6.006-18.234l-19.333-11.157l4.937-5.51l-20.979-15.104l-5.3,1.519l-0.17,0.306z"/>
			<text transform="matrix(1 0 0 1 810.5054 1678.5459)"><tspan x="0" y="0" style="fill:#000000;stroke:none;">03865</tspan></text>
		</g>
		<g>
			<path style="stroke-miterlimit:1;" d="M176.295,1520.292l-37.002,3.855l7.459,50.819l25.945-6.592l-5.546-31.613l33.876-4.49l3.129-15.538l-27.861,3.559z"/>
			<text transform="matrix(1 0 0 1 140.2866 1537.0518)"><tspan x="0" y="0" style="fill:#000000;stroke:none;">03448</tspan></text>
		</g>
	</g>
</svg>
