<?xml version="1.0" encoding="iso-8859-1"?>
<!DOCTYPE svg >

<svg  width="337.744pt" height="572.117pt" viewBox="0 0 337.744 572.117" xml:space="preserve">
	<g id="Layer_x0020_1" style="fill-rule:nonzero;clip-rule:nonzero;fill:#FFFFFF;stroke:#000000;stroke-miterlimit:4; font-family:'Arial'; font-size:10;">
		<g>
			<g>
				<path d="M278.373,351.987l0.067,0.137v0.274l-0.067,0.137h-0.071h-0.134l-0.068-0.068h-0.068v-0.068h-0.069v-0.274l0.138-0.069h0.068h0.134l0.071-0.067z"/>
				<path d="M276.114,355v0.137l-0.275,0.272l-0.273,0.206l-0.068,0.138l-0.068,0.067l-0.068,0.071l-0.341,0.272l-0.071,0.065l-0.067,0.14l-0.135,0.138h-0.412h-0.137v-0.343l-0.138-0.069l-0.069-0.137l-0.135-0.066v-0.276l0.135-0.271l0.207-0.137l0.137-0.14
					l0.204-0.204v-0.138v-0.274l0.137-0.204l0.273-0.137l0.549-0.138l0.068-0.068h0.138h0.342h0.069v0.138l-0.275,0.137l-0.136,0.068l-0.206,0.069l-0.206,0.202l-0.069,0.207l0.275-0.068h0.068h0.138h0.271v0.068v0.068v0.136l0.14,0.07z"/>
				<path style="stroke-linecap:round;stroke-linejoin:round;" d="M273.1,357.943l-0.162-1.826l0.661-1.918l1.638-1.204l1.308-1.219l1.636-1.843l0.323-2.916l-2.302-0.479l-0.665-2.655l-1.327-2.699l-0.022-2.28l-1.69-1.774l-1.321,1.356l-0.573,1.021l-0.835,1.109
					l-0.788,1.169l-0.575,1.445l-1.841,1.493l-1.272,0.308l-1.219-0.216l-1.11,0.477l-1.164-0.417l-0.854-0.938h-0.157l-1.322-0.582l-1.22-0.206l-1.376,0.32l-1.22-0.244l-0.416,1.259l-0.636,0.93l-1.639-0.416l-1.432,0.179l-1.105-0.398l-1.165,0.406l-0.897,0.725
					l-2.382,0.597l-1.007,0.567l-1.164,0.467l-1.108-0.324l-1.006-0.587l-0.905-0.904l-0.842-2.494l-0.48-1.107v-1.267l0.474-1.375l0.109-1.268l0.794-0.897l-0.37-1.213l-0.636-1.219l-0.952-0.628l0.212-1.588l-1.156-0.521l-1.377,0.109l-0.102,1l-0.953,1.115
					l-1.212,0.375l-1.109,0.434l-0.848,0.801l-1.163,0.28l-1.213,0.124l-1.588,0.397l-1.424,0.718l-1.479-0.02l-1.534-0.54l-1.313-0.646l-1.164-0.121l-1.212,0.567l1.259,1.066l0.842,0.872l-0.273,1.271l0.048,1.212l0.314,1.206l0.685,0.929l1.322,0.179l0.794,0.878
					l-1.116,0.561l-1.377,0.772l-0.635,1.345l-1.323,0.519l-2.176,0.971l-1.218,0.632l-0.953,0.726l-1.376,0.268l-1.329-0.151l-1.06-0.747l-0.787-1.176l-1.062-0.474l-0.316-1.151l-0.841-0.957l-2.437,0.609l-1.062,0.645l-1.171,0.12l-4.293,0.284l-0.485,1.189
					l0.048,1.212l1.226,0.234l1.109,0.449l0.314,1.096l-1.376-0.121l-1.17,0.396l-1.005,0.917v1.156l0.211,1.199l1.013,0.781l0.803,1.102l0.32,1.253l0.165,1.148l-0.159,1.227l-0.252,1.391l-0.205,1.542l-0.2,1.121l-0.361,1.186l-0.254,1.233l-0.444,2.613
					l-0.199,0.699l-1.322,0.459l-1.314,0.307l-3.888,1.451l-1.316,0.686l-1.148,0.828l-0.877,0.917l-0.829,1.021l-1.012,1.766l-0.281,1.391l0.041,1.518l-1.306,0.384l-0.487,1.404l-0.636,1.527l-0.063,1.265l0.671,1.192l0.636,1.566l1.152,1.309l1.019,0.698
					l-0.314,1.335l1.321,0.411l1.159,0.055l0.669,1.096l1.225,0.631l1.664-0.178l1.185-0.721l1.875-1.698l0.611,1.003l0.082,2.601l-0.007,1.142l0.034,1.143l1.37,0.376l1.185-0.443l0.671-0.143l1.197-0.028l1.308,0.232l1.712-0.049l1.143-0.272l2.772-1.396
					l1.684-1.643l1.575-1.844l1.089-0.362l1.302-0.158l1.251-0.204l1.252,0.165l0.59,1.066l0.082,1.562l0.021,1.144l-0.185,1.202l-0.35,1.104l0.281,1.132l0.487,1.018l0.794,0.801l1.937,1.338l1.349,0.273l2.123,0.048l1.089,0.232l0.787,0.91l1.041,0.651l2.582,0.63
					l0.986,0.964l1.238,0.192l1.698,0.033l0.986,0.61l1.029,0.766l0.565,1.232l0.104,1.131l0.568,1.177l-0.103,1.274l-0.561,1.073l0.773,2.293l0.458,1.171l1.17,0.207l1.473,0.156l1.473,0.104l1.575,0.06l1.013,0.472l-0.165,1.111l-0.006,1.219l0.595,0.964
					l1.102,0.974l0.74,1.524l0.288,1.215l-0.082,2.408l-0.108,1.199l-0.515,0.992l-0.315,1.144l0.177,1.396l-0.649,0.335l0.465,2.485l-0.102,4.537l1.356,0.954l1.607,0.466l1.083,0.076l1.127-0.227l1.705,0.335l1.207,0.862l0.203,1.232l0.161,1.226l0.013,1.212
					l0.342,1.566l1.572,0.528l1.173-0.15l1.045,0.377l0.201,1.163l-0.556,3.013l-0.28,2.101l1.151-0.1l0.938,0.417l0.65,2.312l0.026,1.425l-0.226,1.698l-0.988,0.903l-1.348,0.699l-1.279,0.232l-1.186,1.369l-0.965,0.72l-1.923,1.573l-0.633,0.918l-0.721,0.903
					l-0.879,1.23l-0.808,0.858l-0.938,0.718l-1.602,1.67l-0.739,0.492l1.136,0.111l0.979-0.72l1.136,0.486l1.11,1.074l0.863,1.294l0.697,0.933l0.979-0.699l1.287,1.761l0.932,0.348l0.979,0.439l0.534,0.925l0.917,0.621l1.095,0.535l0.404,1.497l0.848,0.796
					l0.741,0.93l-0.761,0.81l-0.467,1.048l-0.163,1.185l-0.007,1.088l1.719-1.23l1.5-1.898l0.69-1.931l1.473-1.232l3.527-2.425l2.565-3.779l0.733-1.922l1.3-1.883l1.595-1.863l1.548-1.198l0.917-0.587l0.761-1.918l0.473-1.931l-0.109-1.979l0.411-4.565l3.229-3.032
					l1.926-1.487l1.636-1.505l1.847-0.493l2.213-1.117l1.122,0.768l1.697-1.814l1.794,0.179l-0.457-1.356l2.43-0.081l1.759,0.512l1.794,0.19l1.829-0.122l1.794,0.206l0.206-1.624l3.845-1.51l0.248-1.952l0.849-1.869l2.065-1.719l0.852-1.869l2.074-1.705l0.546-1.909
					l0.234-1.944l0.533-1.905l1.389-1.127l0.226-1.946l0.565-2.224l0.866-2.183l-0.101-1.986l0.198-1.944l-0.124-1.995l0.508-1.894l0.559-2.549l2.021-1.034l1.739-1.397l1.8-2.037l1.13-1.802l1.443-1.754l1.049-0.822l2.033-1l1.103-1.471l1.738-1.36l1.104-1.459
					l2.239-3.561l0.506-2.526l-0.191-1.992l-1.034-4.724l-0.855-2.418l-2.26-1.012l-1.979,0.02l-1.951-0.623l-1.252-1.49l-1.924-1.26l-2.533-2.967l-5.799-4.704l-1.975-0.263l-1.982,0.4l-1.975-0.248l-1.948-1.217l-1.967-0.234l-1.951-1.202l-1.964-0.549
					l-1.985,0.759l-2.308,0.405l0.686-1.884l-0.959-1.731l-0.645-1.692l-1.97,0.454l-0.646-1.369l-2.621-0.904l-1.966-0.835l-2.292-1.515l-2.295-0.197l-1.313,0.546l-1.328,2.828l-1.24-0.073l-1.448,3.213l-0.537,0.141l0.138-2.396l-5.34-0.274l0.067-2.464
					l-1.028-0.753l0.891-0.489l-0.12-0.609l-0.907,0.208l-0.614,1.164l-0.823-0.205z"/>
				<path d="M280.63,354.588h-0.068l-0.138,0.068l-0.205,0.068h-0.751l-0.068-0.068v-0.206l0.137-0.135h0.068l0.409-0.344l0.205-0.068h0.205l0.138,0.068h0.14v0.069v0.341l-0.071,0.206z"/>
				<path d="M284.398,355.752v1.712l-0.072,0.344l-0.546,0.615l-0.273,0.41l-0.547,0.753l-0.205,0.136l-0.138,0.137l-0.615,0.413l-0.275,0.066l-0.136,0.07l-0.549,0.204l-0.411,0.069l-0.272,0.066l-0.068-0.066l-0.958,0.273h-0.206l-0.139,0.066l-0.272-0.135
					l-1.506-0.139l-0.617-0.272l-0.205-0.409v-0.96l-0.067-0.273l-0.138-0.41v-0.48v-0.411l-0.067-0.205v-1.712l0.067-0.206l0.138-0.065l0.685-0.276l0.135-0.138v-0.066l0.209-0.069h0.068l0.203-0.068h0.138l0.067-0.068l0.891,0.068l0.272,0.068h0.139l0.206,0.136
					l0.617,0.207l0.613,0.07l0.618-0.14l0.342-0.067h0.068l0.479-0.07l0.547,0.07l0.206-0.07l0.34,0.07h0.142l0.137,0.067l0.271,0.069l0.276,0.137l0.137,0.136l0.136,0.206l-0.068,0.068l0.206,0.069z"/>
				<path d="M277.416,351.987l-0.207,0.137l-0.341,0.411v0.412l0.479,0.615l0.614,0.136l0.547,0.206h0.547l0.07-0.55l-0.411-0.34l-0.547-0.135l-0.48-0.413l-0.271-0.479z"/>
				<path d="M277.003,353.698h0.069l0.065,0.137v0.069v0.274l-0.339-0.068h-0.071l-0.067-0.138v-0.138v-0.067l0.067-0.069h0.207h0.068z"/>
			</g>
			<text transform="matrix(1 0 0 1 278.0923 391.2583)"><tspan x="0" y="0" style="fill:#000000;stroke:none;">Brazil</tspan></text>
		</g>
		<g>
			<g>
				<path style="stroke-linecap:round;stroke-linejoin:round;" d="M45.081,94.178l-2.228-0.394l0.575-0.827l0.998,0.296l0.431-0.837l-0.37-0.407l1.572-2.844l0.024-0.289l-1.3-0.174l-2.025,0.713l0.226-1.001l1.493-1.067l1.099-2.219l-0.241-2.493l-0.283-1.04
					l0.661-0.966l0.238-0.273l0.276-0.705l0.414-1.567l0.138-1.185l-0.528-0.984l0.716-1.871l-1.499,1.069l-0.739-1.172l-1.526-1.102l-0.393-1.667l0.052-2.142l0.235-2.526l-0.363-2.145l1.385-1.767l-1.592-0.242l-0.832-1.665l-0.359-2.29l-2.49-3.505l-0.331-2.456
					l0.021-2.673l0.145-1.843l-0.902-1.502L37.5,44.482l-1.934,1.754l-2.343,0.303l-0.881-1.59l-1.916-0.484l-2.003-0.682l-1.311-1.806l1.74,0.225l0.131-1.386l2.362-0.163l2.259-1.182l1.498,1.354l1.716,0.149l-0.722-1.394l-2.18-1.125l-1.793-0.366l-2.122,0.624
					l-2.125-0.231l-1.638-0.965l-1.506,0.216l0.061,1.917l-2.055-0.104l-1.748-0.319l-2.134-1.246l-2.441-1.122l-2.077-0.229l-3.804-2.814l-1.938,0.065l-1.34-1.661l-1.731-1.736l-1.366-1.933l-1.446-0.987l-1.265-1.793L0.5,25.02l1.081-0.952l0.838,1.04
					l2.105,0.703l1.666,1.798l1.019,2.072l2.461,0.432l2.048,1.5l2.197,0.704l1.867,0.844l2.434-0.811l2.367-0.984l-0.787-1.11l-0.179-1.614l-1.518,0.085l1.518-2.41l-0.972-3.131l-1.05-1.014l1.492-1.446l1.51,0.003l2.079-2.04l-2.179-1.16l-0.446-1.845
					l2.058-2.137l1.79,0.431l0.747,0.714l0.312-0.267l-0.336-2.208L24.861,11l1.794-2.499l2.973,0.213l1.715,0.542l1.096,1.833l0.747-0.233l1.086,1.03l0.071,0.952l1.889,0.643l0.982,2.258l2.152-0.288l1.428-1.547l0.261-0.176l0.569,1.1l0.782-0.066l0.202-1.013
					l-1.121-1.419l-1.37-1.032l0.243-2.067l-0.847-2.219l0.195-2.835l1.278-0.975l1.49,0.262l0.065-1.748L43.073,0.5l2.02,1.388l1.366,1.649l1.398,1.6l0.302,1.42l-1.675,0.647l0.651,2.742l0.097,1.276l1.096,0.754l-0.054-1.838l0.401,0.066l1.213,3.653l0.46-0.052
					l-0.423-3.743l1.127-0.129l-0.598-2.045l0.212-1.402l2.223-1.569l0.895-2.359l1.178-1.819l2.116-0.213l0.683,1.712l1.109,1.854l1.673,0.328l2.017-0.06l2.078,1.044l0.776,1.523l2.247,1.368l0.746,1.847l2.408,0.917l-0.053,2.258l-0.781,1.102l1.001,2.37
					L70.105,18.8l1.51,3.224l0.094,2.428l0.956,1.661l0.029,1.842l1.131,1.128l0.917,1.402l0.247,3.445l-8.257,6.418l-7.652,6.139l-7.599,6.288l-7.42,6.354l-0.446,1.042l0.471,0.423l0.258,0.608l0.477,0.416l0.698,0.404l0.418,0.504l-0.871,0.972l-0.003,0.784
					l-0.29,0.99l-0.276,1.838l0.035,0.867l-0.465,0.988l0.359,0.726l0.803,0.08l0.557,0.348l0.976-0.358l0.979-0.294l0.6,0.338l0.7,0.106l0.494,0.396l-0.27,1.003l-0.107,0.922l-0.272,1.229l-0.487,1.192l0.253,0.688l0.075,0.8L48.329,77.3l-0.273,1.078
					l-0.198,1.104l-0.262,1.093l-0.345,1.15l-0.232,1.088l-0.493,1.065l-0.149,1l-0.399,1.08l0.14,0.914l0.864,1.34l0.301,1.819l0.391,0.592l-0.701,1.225l-0.84,1.039l-0.741,1.084l-0.324,0.214l0.014-0.006z"/>
				<path d="M184.25,184.75l-1.099,1.004l-3.292,1.05l-0.782,0.665l-0.028,0.362l0.309-0.192l0.272,0.239l4.832-2.091l0.693-0.456l-0.657,0.021l-1.073,0.642l0.826-1.244z"/>
				<path d="M131.347,158.265l-4.593,2.766l-2.485,1.913l0.189,0.378l1.093,0.013l2.048-1.003l0.266,0.314l-0.168,1.223l1.896,0.003l1.07-0.644l1.479-0.246l2.624-1.83l1.713-0.447l0.122,0.301l-2.032,1.729l-0.068,0.869l0.469-0.399l1.027-0.065l0.901,0.58
					l0.93,1.164l1.733,0.211l1.603-0.894l3.011-0.271l0.075,0.878l1.658,0.275l0.367-0.043l0.333,1.335l0.807,0.863l-1.328,0.186l-0.479-0.401l-0.19,0.567l-0.441,0.036l-1.532-0.918l-0.596,0.173l-0.397,0.403l-1.556,0.314l-1.238,0.92l0.007-1.017l-1.542,1.043
					l-2.144,3.174l-0.449,1.055l1.69-1.102l0.147-0.935l0.793-0.81l0.105,0.518l-1.288,2.441l-0.786,3.503l-0.726,1.833l-0.018,3.926l0.57,2.009l0.475,0.474l0.857,0.212l1.535-0.97l1.405-3.017l0.147-1.878l-0.832-2.393l0.532-2.141l0.313-0.265l0.137-1.734
					l0.43-0.839l1.313-0.915l0.198,1.179l0.47-0.4l0.18-1.367l1.277-0.481l-0.311-0.679l0.341-0.626l1.661,0.202l2.713,1.668l0.312,0.678l-0.241,0.271l0.461,2.509l-0.75,1.178l-0.709,0.67l-0.441,0.985l0.478,0.4l0.38-0.188l0.821-1.171l1.349-0.477l0.963,1.677
					l0.22,1.835l0.311,0.679l-0.293,1.868l-0.658,0.02l-0.391,0.333l-0.05,0.651l-0.588,0.972l-0.051,0.65l-0.961,1.088l1.188,0.675l1.933,0.443l1.997-0.353l1.927-1.302l3.771-1.593l3.206-2.729l-0.668-1.726l2.84-0.868l1.646,0.422l1.917-0.286l1.318-0.985
					l0.892-0.223l-0.071-0.951l-0.328-0.461l0.475-0.472l-0.691-0.49l1.179-1.07l0.364-0.917l1.904-1.958l10.022-1.32l0.459-1.201l2.17-0.702l-0.096-0.661l0.504-0.833l-0.141-1.901l0.37-1.935l0.03-1.307l1.242-2.809l0.575,0.117l0.533,0.623l0.653,0.053
					l1.469-1.048l1.52,1.064l1.234,5.624l0.859,0.213l0.479,1.347l1.008,0.151l0.234-0.2l0.3,0.824l-0.184,0.494l0.489,0.257l-0.263,0.561l-1.909,1.085l-1.284,1.499l-0.63-0.339l-0.452,0.182l-0.311-0.678l-0.302,0.122l-0.538,2.212l-0.436-0.034l-0.576,0.827
					l-0.423-0.18l-0.214,0.857l-0.55-0.407l-0.72,0.815l-1.183,3.906l0.032,0.512l0.408,0.396l-0.689,1.328l0.909,0.508l0.767,1.368l0.569,0.191l1.025-0.065l0.079-1.011l0.205,1.107l-1.602,0.891l-0.697-0.419l-1.082,0.788l-0.673-0.707l-0.308,1.139l-0.542,0.395
					l-4.396,1.18l-0.173,0.349l-2.528,1.546l-0.514,0.978l-0.208,0.783l0.896,0.653l0.027,0.583l-0.14,0.862l-0.308,0.194l-0.09,1.155l-1.844,3.056l-0.145-0.956l-1.5-0.41l-0.656-0.923l0.077,0.878l1.78,3.339l-2.149,6.011l-0.431-0.106l-0.2-1.18l0.969-2.104
					l-0.496-0.185l-0.355-1.046l-0.724-0.058l-0.409-0.395l-0.087-0.733l0.397-0.405l-0.149-0.885l-0.491-0.257l0.409-0.549l-0.156-0.812l0.645-0.75l-0.034-0.511l-0.284-0.096l-0.346,0.7l-1.168,0.925l0.486,3.094l-0.301,0.122l0.407,0.395l0.366,0.902
					l-1.471-0.771l-1.505-0.336l0.057-0.724l-0.23,0.127l-0.057,0.723l3.027,1.4l0.45,0.764l-0.364,0.917l0.639,1.141l-0.469,0.401l0.529,0.695l-0.818,0.226l-0.024,0.288l1.729,0.282l0.292,1.841l0.422,1.124l-0.792-0.133l-1.378,0.835l-0.505-0.984l0.025,1.529
					l1.917-0.286l0.356,1.047l0.52-1.05l0.405,1.34l-1.194,1.288l-0.657,0.021l-0.603-0.702l-0.396,0.406l-0.73,0.015l1.192,0.603l-0.61,1.26l0.882-0.076l0.01,0.801l-0.927,0.655l-1.327,0.185l-1.144,0.637l-1.386,1.854l-2.248,0.77l-1.234,0.847l-1.217,1.576
					l0.009,0.802l-2.958,2.385l-2.269,0.114l0.42,1.124l-1.228,0.776l0.195,0.306l-0.708,0.671l-1.613,3.801l-0.182,1.367l1.659,5.801l1.676,2.821l0.157,2.631l1.79,4.139l-0.073,3.703l-0.803,2.773l-1.384,0.91l-1.544,0.168l-0.408-0.396l0.069-0.867l-0.684-1.508
					l-1.253-0.753l-0.989-2.259l0.263-0.561l-0.439,0.036l-0.128-1.172l-0.665,0.094l-1.222-2.061l-0.089-0.735l0.407-1.421l-0.554-0.407l-0.051,0.649l-0.356-0.099l-0.06-1.097l0.4-2.294l-0.354-1.991l-1.192-0.603l-1.008-1.098l-0.027-0.584l-2.054-1.688
					l-0.871-0.068l-0.486,0.617l-3.269,0.76l-0.852-1.231l-2.79-1.602l0.251-0.416l-0.285-0.095l-2.642,0.229l0.05-0.652l-1.228,0.777l-1.997,0.351l-0.074-2.768l-0.907,2.255l-2.737-0.433l-2.159,0.556l-1.905-0.803l-0.893,0.22l-0.274,0.706l0.545,0.48l1.484-0.32
					l0.227,0.817l0.292,0.022l1.137-0.563l0.351,0.172l-0.292,0.924l-0.771,0.519l-0.34,0.627l0.456,0.691l0.975,0.586l0.161,0.739l-0.754,0.304l-0.649-0.996l-1.46-0.916l-0.738,1.033l-1.65-0.347l-0.602,0.241l-1.416-0.547l-0.639-1.141l-1.795-1.304l-0.652-0.052
					l-0.654,0.894l-3.623-1.229l-2.24-0.25l-3.136,0.917l0.475-0.471l-0.501-0.112l0.057-0.723l-0.368,0.043l-0.544,2.284l-0.754,1.25l-1.451,0.831l-1.791,0.514l1.216-0.631l-1.256,0.191l-0.021-0.656l-0.475,0.472l-0.4-0.467l-0.178,0.42l-0.479-0.4l-0.185,0.496
					l0.238,0.673l-0.953,0.069l-0.643,0.75l-0.964,0.216l-0.102,0.355l0.43,0.107l-0.414,0.623l-0.954,0.069l0.24,0.673l-0.326,1.357l-1.015-0.081l-0.089,0.211l0.618,0.484l-0.42,1.641l0.664,3.614l-1.149-0.236l-1.176-0.819l-1.793-0.359l-0.891-0.726
					l-0.999-0.295l-0.952-0.876l-0.94-1.964l-0.468-3.31l-1.014-1.025l-0.405-1.34l-0.845-1.304l-0.765-3.258l-2.214-3.375l-3.662-0.723l-0.737,0.088l-2.19,2.808l-0.59,0.1l-1.053-0.52l-2.344-2.657l-0.688-1.436l0.007-1.017l-0.241-2.492l-2.205-2.573l-1.94-3.134
					l-6.292-1.586l-0.422,1.64l-9.375-2.265l-11.281-9.54l0.25-0.417l-7.858-2.072l0.399-2.296l-0.089-0.735l-1.177-2.638l-1.298-1.118l0.141-0.862l-0.312-0.679l-0.414-0.324l-0.389,0.333l-2.098-3l-0.64-0.196l-1.911-1.678l0.695-2.344l-0.5-1.058l0.202-0.713
					l-0.745-1.657l-0.814-3.556l0.308-1.138l0.524-0.177l0.274-0.706l-0.087-0.733l-0.619-0.485l-0.227-0.818l0.415-2.512l0.324-0.411l0.207,0.162l0.381,1.63l0.093-2.102l1.25-0.121l-1.298-1.121l-0.431,0.84l-0.379,0.188l-0.706-1.219l0.248-1.289l-0.71-3.037
					l0.55-2.357l0.683-1.255l-0.385-3.448l0.359-0.845l1.227-0.775l1.42-2.288l0.521-1.995l0.395-2.224l0.912-2.328l0.971-1.231l0.983-0.432l0.045-0.579l2.028-2.604l1.124-2.238l1.873-2.471l1.046-2.173l0.458-0.253l1.537,0.848l-0.444-0.834l-1.164-0.964
					l0.363-0.918l0.027,0.584l0.29,0.023l0.437-0.911l-0.251-0.528l0.72-0.816l-0.049-0.294l-0.44,0.039l0.774-2.412l0.097-2.174l0.431-0.839l0.692-0.454l1.313,1.849l2.473,1.939l-0.359,0.845l-1.602,0.891l-0.262,0.562l0.351,0.173l0.106-0.428l1.59-0.748
					l0.352,0.172l0.039,0.439l0.413-0.623l0.639-1.622l-0.222-0.889l0.524-0.176l0.251-0.416l0.425,0.177l-0.668-0.78l0.001-0.943l3.715,2.188l4.128,2.29l3.712,1.936l3.829,1.878l3.765,1.744l4.415,1.91l3.979,1.607l4.88,1.832l3.772,1.308l3.547,1.151l3.362,1.021
					l3.017,0.864l3.634,0.976l2.905,0.723l2.878,0.67l4.009,0.861l5.876,1.116l4.847,0.788l0.764-0.624l0.582-0.907l0.377,1.229l0.278,1.187l0.704,0.614l0.874,0.193l0.758,0.475l0.803,0.172l0.88-0.15l0.836,0.205l0.874,0.586l0.684,0.589l0.808,0.572l0.72,0.676
					l0.759,0.373l0.825-0.299l1.69,0.481l0.933,0.083l0.897,0.39z"/>
				<path d="M218.348,281.887l0.67-0.188l-0.314-0.125l-0.523,0.292l0.167,0.021z"/>
				<path d="M217.345,281.615l-0.417,0.648l-0.416,0.208l-1.151,0.146l-1.943-0.062l-1.003,0.188l-0.898-0.043l0.083-1.148l-0.398-0.502l0.398-0.25v-0.334l0.313,0.021l0.69-0.021l0.521-0.063h1.714l1.296,0.146l0.377-0.146l1.189,0.335l0.125,0.354l-0.063,0.251
					l-0.419,0.271z"/>
			</g>
			<text transform="matrix(1 0 0 1 108.4565 202.7231)"><tspan x="0" y="0" style="fill:#000000;stroke:none;">U.S.A.</tspan></text>
		</g>
		<g>
			<g>
				<path d="M218.331,559.771l0.137,1.164l0.068,0.139l0.274,2.12l0.412,3.218l0.204,1.37l0.07,0.206v0.274l0.067,0.204h0.207l0.274-0.204l0.342-0.207h0.343l0.274,0.068l0.205,0.068l0.136,0.07h0.343h0.341l0.411-0.07l0.754,0.137l0.41,0.069l0.274,0.068
					l0.411,0.275l0.342,0.066l0.136-0.134l0.685-0.276l0.275-0.136l0.478,0.066l0.411,0.069l0.275-0.206h0.204l0.138-0.272v-0.48v-0.205l-0.479,0.069l-0.479,0.068l-0.547-0.068l-0.685-0.409l-0.275-0.139l-0.615-0.479L223.809,566l-0.207-0.271l-0.274-0.067
					l-0.205-0.071l-0.205-0.204l-0.273-0.137l-0.206-0.138l-0.343-0.068l-0.272-0.273l-0.205-0.273l-0.207-0.207l-0.409-0.204l-0.412-0.273l-0.205-0.207l-0.206-0.341l-0.206-0.411l-0.204-0.343l-0.273-0.274l-0.274-0.068l-0.207-0.342v-0.341l0.274-0.07l0.273,0.07
					l0.207,0.203v-0.137l-0.207-0.342l-0.273-0.412l-0.41-0.476l-0.204-0.275l-0.07-0.138l-0.274-0.138"/>
				<path d="M228.942,567.645l0.205-0.067l0.341-0.139l0.07,0.071h0.411l0.343-0.139h0.204l0.067,0.067v0.139v0.067l-0.135,0.068l-0.479-0.068l-0.275,0.068v0.206h-0.136l-0.273-0.068l-0.273,0.137l-0.069,0.136l-0.136-0.068h-0.207h-0.068v-0.204l0.136-0.206
					l0.07-0.067l0.206,0.067"/>
				<path style="stroke-linecap:round;stroke-linejoin:round;" d="M218.974,558.428l-1.432-1.874l-1.211-3.21l0.173-1.988l1.087-1.382l1.601-0.754l0.446-3.969l1.164-1.369l1.607-1.391l1.205-1.368l0.295-1.98l-0.322-1.294l-1.992,0.089l-1.45-1.246l-1.233-1.245
					l-0.411-1.942l0.726-2.008l0.835-1.028l1.759-1.067l1.615-0.067l-0.088-1.301l1.116-0.699l-0.125-1.964l-0.313-1.295l0.628-1.334l1.83-1.369l-1.947-0.59l1.364-1.356l1.025,1.274l1.438-0.032l0.198-0.987l-0.568-1.952l-2.127,1.039l-1.507-0.93l-0.131-2.286
					l-0.608-1.943l0.931-1.014l1.533,0.932l1.514,0.614l2.458-0.063l1.945-1.011l0.214-1.315l-0.529-0.973l1.178-3.285l-1.047-1.294l0.211-1.645l0.787,0.974l2.286-0.029l2.288-0.335l1.527-0.335l2.04-0.32l2.047-0.638l1.546-0.637l1.822-0.957l0.563-1.625
					l1.34-1.607l1.11-1.939l-0.199-1.97l-1.307-0.356l-0.746-1.644l0.854-1.952l-1.032-1.327l-2.656-1.342l-0.52-1.314l0.561-1.3l-0.333-1.568l0.51-1.671l0.507-0.972l0.111-1.514l0.028-1.341l0.106-1.165l0.617-1.705l0.069-1.129l0.207-1.356l-0.022-1.408
					l0.705-0.858l0.739-0.492l1.602-1.67l0.938-0.718l0.808-0.858l0.879-1.23l0.721-0.903l0.633-0.918l1.923-1.573l0.965-0.72l1.186-1.369l1.279-0.232l1.348-0.699l0.988-0.903l0.226-1.698l-0.026-1.425l-0.65-2.312l-0.938-0.417l-1.151,0.1l-0.199,1.379
					l-0.292,1.223l-0.721,1.495l-1.231,1.144l-1.355,0.945l-1.055,0.628l-1.411,0.102l-1.142,0.398l-1.59-0.267l-1.066-0.729l-1.684-0.403l-1.179-0.107l-1.082-0.201l0.254-1.321l0.78-1.785l1.41-2.074l0.027-1.438l-0.707-0.968l-1.381-0.635l-0.85-0.925
					l-2.204-1.17l-1.205-0.87l-0.967-0.39l-1.25-0.145l-1.357-0.095l-1.021-0.473l-0.732-1.206l-1.95-1.35l-1.923-1.827l-0.754-1.355l-0.985-0.568l-0.445-0.088l-0.937-0.575l-1.09-0.369l-1.281-0.022l-1.082-0.067l-0.91,0.762l-0.308,1.08l-1.135-0.205
					l-0.904-0.759l-1.137-0.261l-1.917-0.076l-1.096-0.451l-0.863-0.754l-0.891,1.123l-0.896,0.82l-0.834,1.069l-0.486,1l-0.472,0.362l0.444,1.054l-0.124,1.467l-0.183,1.171l-0.481,1.04l-2.957,1.505l-0.91,0.915l0.227,1.289l-0.363,1.125l0.186,1.333l0.28,1.37
					l0.254,1.696l0.418,1.26l-0.863,1.281l-0.752,0.746l-0.439,1.068l-0.383,1.198l-0.855,1.033l-0.556,1.301l-0.224,1.788l-0.385,1.554l-0.172,1.219l0.172,2.519l-0.309,1.172l-0.452,1.08l-0.3,1.118l-0.425,1.307l0.02,1.177l0.658,1.131l0.123,1.294l0.541,1.403
					l0.5,0.993l0.123,1.328l0.781,1.189l0.351,1.746l-0.391,1.876l-0.424,0.993l-0.158,1.453l-0.617,1.127l0.233,1.761l0.328,1.397l-0.656,1.034l-0.973,0.84l-0.124,1.164l0.034,1.697l0.103,1.22l0.219,1.457l0.725,2.54l-0.541,1.034l-0.35,1.479l-0.369,2.821
					l-0.109,4.553l0.128,1.233l0.693,0.978l0.24,1.179l-0.542,1.189l-0.15,1.159l0.198,1.389l0.556,1.132l0.143,1.264l0.59,1.186l0.129,1.144l0.049,1.144l1.121,0.137l0.481,1.287l-1.118,0.055l0.892,1.253l-0.125,1.211l0.247,2.697l0.212,1.158l0.097,1.138
					l-0.486,2.297l-0.795,1.804l0.123,1.21l0.445,1.171l-0.136,1.539l-0.375,1.302l-0.802,2l-0.151,1.09l0.09,1.301l0.184,1.39l0.336,1.085l0.781-0.142l0.828-0.082l0.664-0.268l0.383,1.118l0.247,1.251l0.192,1.316l0.533,1.243l0.72,0.364h0.719l1.869-0.158h0.813
					l1.7-0.232l0.97,0.229l1.59,0.216l1.013,0.362z"/>
			</g>
			<text transform="matrix(1 0 0 1 209.647 491.7007)"><tspan x="0" y="0" style="fill:#000000;stroke:none;">Argentina</tspan></text>
		</g>
		<g>
			<g>
				<path d="M236.952,307.965h-0.069l-0.342,0.137l-0.41,0.342l-0.274,0.137l0.206,0.137l0.548-0.41l0.342-0.343"/>
				<path d="M235.174,310.361l-0.276,0.273v0.205v0.342l-0.068,0.138v0.138l0.068,0.341l0.137,0.137v0.411l-0.07,0.206l-0.477,0.342l-0.411,0.138l-0.344,0.066h-2.052l-0.069-0.137l0.138-0.068l0.685-0.204l0.203-0.138h0.07l0.206-0.068l0.137-0.343l0.069-0.137
					v-0.275v-0.202l0.067-0.413v-0.206l-0.205-0.069h-0.137l-0.275-0.068l-0.068-0.273h0.206l0.206-0.137l0.069-0.069h0.205h0.411l0.617-0.068h0.136l0.548-0.137l0.137-0.068h0.139v0.342"/>
				<path style="stroke-linecap:round;stroke-linejoin:round;" d="M195.21,308.026l-0.273,0.624l-1.616,0.821l0.548,1.869l0.589,1.567l-1.014,1.39l-1.041,2.041l0.932,1.22l0.274,1.594l2.294-0.843l0.068-2.28l-1.227-2.169l0.083-2.28l2.622-1.56l2.945-0.96
					l0.889-0.067l-0.068-0.685l-1.78-0.206l0.22-1.087l0.565-0.863l0.926,0.169l0.892,2.512l0.937-0.177l1.917,0.185l1.581,0.876l0.282,1.609l0.609,1.267l2.267-0.466l2.259-0.129l1.614-0.412l1.616-0.075l0.624,0.951l1.601,0.582l2.253,0.233l1.938-0.725
					l0.915-0.793l1.758-0.108l0.344-0.297l-1.907-0.275l0.573-0.376l7.103-0.172l0.711,0.243l-1.261,0.594l-1.881,0.065l-0.315,0.572l1.381,0.495l0.938,1.792l1.295-0.351l1.601,0.638l2.041,0.917l1.026,1.643l0.108,1.394l-0.929,0.455v0.204l1.629,0.329l1.28-0.729
					l1.814,1.045l-0.247,0.896l-2.094,0.896l-1.056,0.632l-0.628,0.999l0.154,1.157l1.001,0.781l-2.109,1.272l-0.267,1.425l-0.368,1.267l1.682,2.039l0.732,1.055l-0.102,1l-0.953,1.115l-1.212,0.375l-1.109,0.434l-0.848,0.801l-1.163,0.28l-1.213,0.124l-1.588,0.397
					l-1.424,0.718l-1.479-0.02l-1.534-0.54l-1.313-0.646l-1.164-0.121l-1.212,0.567l1.259,1.066l0.842,0.872l-0.273,1.271l0.048,1.212l0.314,1.206l0.685,0.929l1.322,0.179l0.794,0.878l-1.116,0.561l-1.377,0.772l-0.635,1.345l-1.323,0.519l-2.176,0.971
					l-1.218,0.632l-0.953,0.726l-1.376,0.268l-1.329-0.151l-1.06-0.747l-0.787-1.176l-0.054,0.009l-0.529-1.405l-1.103-2.535l-0.999-1.107l-0.843-0.849l0.903-0.843l0.753-0.885l0.006-1.163l-0.575-0.963l-0.896-0.69l-0.198-1.202l-0.307-1.089l0.505-2.606
					l0.651-1.145l0.171-1.164l0.384-1.225l-1.152-0.31l-1.116,0.486l-1.164,0.391l-1.164-0.033l-1.204-0.344l-1.063,0.487l-1.102-0.343l-0.724-0.944l-0.767-1.144l-0.773-0.78l-1.207-0.329l-1.265-0.165l-2.651,0.739l-1.573-0.128l-0.986-0.747l-1.151-0.471
					l-0.021-1.201l0.042-1.301l-1.494-2.874l-1.062-1.199l-0.602-0.869l0.67-1.048l0.541-1.862l0.535-1.656l1.212-1.712l1.8-1.924l1.151-1.39l1.737-0.514z"/>
			</g>
			<text transform="matrix(1 0 0 1 199.3066 322.3989)"><tspan x="0" y="0" style="fill:#000000;stroke:none;">Venezuela</tspan></text>
		</g>
		<g>
			<path style="stroke-linecap:round;stroke-linejoin:round;" d="M244.339,485.901l1.588,1.656l2.156,0.034l1.046,1l1.864,0.699l1.891-0.275l2.127,0.397l1.631-0.274l1.663-0.916l1.429-1.255l0.352-1.293l0.007-1.088l0.163-1.185l0.467-1.048l0.761-0.81l-0.741-0.93
				l-0.848-0.796l-0.404-1.497l-1.095-0.535l-0.917-0.621l-0.534-0.925l-0.979-0.439l-0.932-0.348l-1.287-1.761l-0.979,0.699l-0.697-0.933l-0.863-1.294l-1.11-1.074l-1.136-0.486l-0.979,0.72l-1.136-0.111l-0.705,0.858l0.022,1.408l-0.207,1.356l-0.069,1.129
				l-0.617,1.705l-0.106,1.165l-0.028,1.341l-0.111,1.514l-0.507,0.972l-0.51,1.671l0.333,1.568z"/>
			<text transform="matrix(1 0 0 1 246.27 484.814)"><tspan x="0" y="0" style="fill:#000000;stroke:none;">Uruguay</tspan></text>
		</g>
		<g>
			<path style="stroke-linecap:round;stroke-linejoin:round;" d="M258.312,453.174l0.28-2.101l0.556-3.013l-0.201-1.163l-1.045-0.377l-1.173,0.15l-1.572-0.528l-0.342-1.566l-0.013-1.212l-0.161-1.226l-0.203-1.232l-1.207-0.862l-1.705-0.335l-1.127,0.227
				l-1.083-0.076l-1.607-0.466l-1.356-0.954l0.102-4.537l-0.465-2.485l-1.519-2.109l-1.089-0.956l-1.15-0.357l-2.246-0.007l-1.103,0.048l-2.342,0.603l-2.093,0.616l-1.144,0.404l-1.096,0.259l-0.534,1.159l-1.116,1.998l-0.424,1.443l0.033,2.267l-0.602,2.321
				l-0.329,0.642l-0.191,0.352l0.445,0.088l0.985,0.568l0.754,1.355l1.923,1.827l1.95,1.35l0.732,1.206l1.021,0.473l1.357,0.095l1.25,0.145l0.967,0.39l1.205,0.87l2.204,1.17l0.85,0.925l1.381,0.635l0.707,0.968l-0.027,1.438l-1.41,2.074l-0.78,1.785l-0.254,1.321
				l1.082,0.201l1.179,0.107l1.684,0.403l1.066,0.729l1.59,0.267l1.142-0.398l1.411-0.102l1.055-0.628l1.355-0.945l1.231-1.144l0.721-1.495l0.292-1.223l0.199-1.379z"/>
			<text transform="matrix(1 0 0 1 233.6323 442.6108)"><tspan x="0" y="0" style="fill:#000000;stroke:none;">Paraguay</tspan></text>
		</g>
		<g>
			<path style="stroke-linecap:round;stroke-linejoin:round;" d="M202.975,422.491l-0.261-1.048l0.652-1.206l0.862-1.068l0.615-0.949l-0.355-1.151l-0.898-0.657l-0.258-1.205l0.204-1.185l0.623-0.958l-0.457-1.151l0.102-1.231l0.732-0.917l-0.348-2.444l0.103-1.296
				l0.013-1.136l0.239-1.822l0.589-1.011l-1.307-1.993l-2.252-3.593l1.197-0.028l1.308,0.232l1.712-0.049l1.143-0.272l2.772-1.396l1.684-1.643l1.575-1.844l1.089-0.362l1.302-0.158l1.251-0.204l1.252,0.165l0.59,1.066l0.082,1.562l0.021,1.144l-0.185,1.202
				l-0.35,1.104l0.281,1.132l0.487,1.018l0.794,0.801l1.937,1.338l1.349,0.273l2.123,0.048l1.089,0.232l0.787,0.91l1.041,0.651l2.582,0.63l0.986,0.964l1.238,0.192l1.698,0.033l0.986,0.61l1.029,0.766l0.565,1.232l0.104,1.131l0.568,1.177l-0.103,1.274l-0.561,1.073
				l0.773,2.293l0.458,1.171l1.17,0.207l1.473,0.156l1.473,0.104l1.575,0.06l1.013,0.472l-0.165,1.111l-0.006,1.219l0.595,0.964l1.102,0.974l0.74,1.524l0.288,1.215l-0.082,2.408l-0.108,1.199l-0.515,0.992l-0.315,1.144l0.177,1.396l-0.649,0.335l-1.519-2.109
				l-1.089-0.956l-1.15-0.357l-2.246-0.007l-1.103,0.048l-2.342,0.603l-2.093,0.616l-1.144,0.404l-1.096,0.259l-0.534,1.159l-1.116,1.998l-0.424,1.443l0.033,2.267l-0.602,2.321l-0.329,0.642l-0.191,0.352l-0.937-0.575l-1.09-0.369l-1.281-0.022l-1.082-0.067
				l-0.91,0.762l-0.308,1.08l-1.135-0.205l-0.904-0.759l-1.137-0.261l-1.917-0.076l-1.096-0.451l-0.863-0.754l-0.891,1.123l-0.896,0.82l-0.834,1.069l-0.486,1l-0.472,0.362l-0.486,0.021l-1.109,0.255l-1.137-0.234l-0.356-1.156l-0.377-1.451l-0.13-1.568
				l-0.313-1.268l-0.35-1.061l-0.308-1.124l-0.924-0.643l-0.164-1.232l-0.755-1.054l0.693-1.032l-0.061-1.193l-0.167-1.245l-0.881-0.645l-0.862-1.108l-0.445-2.835l-0.795-0.862l-0.903-0.849z"/>
			<text transform="matrix(1 0 0 1 209.0308 421.103)"><tspan x="0" y="0" style="fill:#000000;stroke:none;">Bolivia</tspan></text>
		</g>
		<g>
			<path style="stroke-linecap:round;stroke-linejoin:round;" d="M201.571,396.468l-0.671,0.143l-1.185,0.443l-1.37-0.376l-0.034-1.143l0.007-1.142l-0.082-2.601l-0.611-1.003l-1.875,1.698l-1.185,0.721l-1.664,0.178l-1.225-0.631l-0.669-1.096l-1.159-0.055
				l-1.321-0.411l0.314-1.335l-1.019-0.698l-1.152-1.309l-0.636-1.566l-0.671-1.192l0.063-1.265l0.636-1.527l0.487-1.404l1.306-0.384l-0.041-1.518l0.281-1.391l1.012-1.766l0.829-1.021l0.877-0.917l1.148-0.828l1.316-0.686l3.888-1.451l1.314-0.307l1.322-0.459
				l-0.965-0.624l-1.117-0.39l-0.279-1.198l1.101-1.343l0.726-1.108l-0.595-1.172l-1.007-0.614l-1.438-0.529l-1.274,0.419l-1.164,0.09l-1.541-0.302l-0.944,0.82l-1.219,0.261l-1.118-0.17l-1.328,0.114l-0.649-1.309l-0.596-0.997l-0.966-0.706l-0.218-1.245
				l-1.013-0.589l-1.177-0.515l-0.645-0.89l-0.745-0.876l-0.802-0.761l-1.116-0.31l-1.013-0.148l-1.013,0.842l0.753,0.869l0.597,1.308l-0.686,0.967l-1.309,2.561l-0.89,1.148l-1,1.001l-0.938,1.156l-1.526,1.021l-3.006,1.347l-1.11,0.604l-0.984,1.227l-0.931,0.85
				l-0.87,1.424l-0.231,1.185l-0.014,1.472l-0.871,1.007l-1.082,0.925l-1.129-0.376l-0.568-0.981l-1.165,0.152l-1.184-0.418l-1.122-0.063l-0.247-1.069l1.144-0.784l-0.371-1.789l-1.758,1.601l-1.91,1.898l0.063,1.615l0.725,1.851l1.389,1.765l-1.247,1.472
				l1.35,0.795l1.998,0.703l1.361,1.126l1.384,1.45l0.767,2.186l2.013,1.052l1.398,1.786l2.272,5.608l2.082,2.375l0.766,1.87l1.404,1.807l0.726,1.224l1.362,1.166l0.766,1.883l1.45,2.465l-0.178,1.985l1.726,1.781l2.707,2.347l2.635,1.389l1.902,0.154l1.993,1.457
				l2.595,1.087l1.267,0.221l1.957,1.156l1.931,0.836l1.35,1.533l1.279,0.567l1.069,1.41l0.67-0.596l1.151-0.178l0.75-0.91l0.857-1.108l-0.261-1.048l0.652-1.206l0.862-1.068l0.615-0.949l-0.355-1.151l-0.898-0.657l-0.258-1.205l0.204-1.185l0.623-0.958
				l-0.457-1.151l0.102-1.231l0.732-0.917l-0.348-2.444l0.103-1.296l0.013-1.136l0.239-1.822l0.589-1.011l-1.307-1.993l-2.252-3.593z"/>
			<text transform="matrix(1 0 0 1 180.1875 404.3442)"><tspan x="0" y="0" style="fill:#000000;stroke:none;">Peru</tspan></text>
		</g>
		<g style="stroke-miterlimit:10;">
			<g>
				<path d="M223.74,570.111h-0.07h-0.275l-0.068-0.071h-0.069v-0.271l0.137-0.067l0.139-0.07l0.067,0.07l0.068,0.136l0.07,0.274z"/>
				<path d="M223.809,569.152h-0.207l-0.067-0.069l-0.068-0.069h-0.071l-0.068-0.067l-0.205-0.138v-0.066h0.136h0.069l0.068,0.066h0.139v0.068l0.067-0.068l0.068,0.068l0.07,0.137v0.069l0.068,0.069z"/>
				<path d="M224.15,569.494l0.273-0.067l0.138,0.135v0.14l-0.205,0.136l-0.137-0.068l-0.069-0.138v-0.137z"/>
				<path d="M218.331,559.771v-0.138l-0.274-0.273l-0.342,0.273l-0.411,0.138h-0.409l-0.411-0.684l-0.413,0.342l-0.204,0.41l-0.068,0.411l-0.413,0.137l-0.136,0.137l-0.344-0.202l-0.683,0.136l0.479,0.066l0.136,0.273l0.206,0.276l-0.069,0.341l-0.273,0.137
					l-0.205-0.203l-0.207,0.066l0.069,0.548v0.479l0.206,0.275l0.273,0.136l0.343,0.206l0.41-0.206l0.479-0.203l0.48-0.14l0.344,0.066l0.274,0.276l-0.07,0.547l-0.548,0.205l-0.546,0.207l-0.069,0.205h-0.411l-0.068,0.343l0.136,0.546l0.275,0.756l0.138,0.136
					L216.55,566l0.412,0.07l0.411,0.137l0.205,0.344h-0.41v0.205l-0.413-0.41h-0.341v0.41l-0.41-0.344l-0.206-0.205l-0.208,0.274l0.07,0.207l0.409,0.137l-0.272,0.069l-0.07,0.204l-0.273-0.343l-0.549-0.274l-0.409-0.136l-0.687-0.548l0.07,0.409l0.479,0.274
					l0.138,0.274l-0.069,0.139l-0.137-0.069h-0.067l-0.138,0.201h-0.411l0.068,0.277l-0.546,0.136l-0.071,0.071l0.206,0.135l0.068,0.343l-0.068,0.136l0.343-0.068l0.136-0.136l0.617,0.068l-0.205,0.274v0.066h0.274l0.068,0.138l-0.206,0.137h0.411l0.204-0.137
					l0.48,0.137l0.411,0.139l0.548-0.067v-0.14l0.959-0.068l0.684,0.068l0.618,0.411l0.204-0.204h0.343l-0.138-0.275h0.479l-0.067-0.204v-0.274l-0.07-0.206l-0.204-1.37l-0.412-3.218l-0.274-2.12l-0.068-0.139l-0.137-1.164z"/>
				<path style="stroke-linecap:round;stroke-linejoin:round;" d="M206.144,556.76l0.173,1.5l0.718,0.143l0.859-1.166l1.126,1.233l0.167,0.848l-0.542,0.86l0.779,0.323l2.127-0.455l1.18,0.821l-0.384,1.354l-1.965,1.172l0.747,0.923l1.827,0.494l0.712-0.39
					l-0.302-1.953l0.098-1.991l1.627-1.117l0.987-0.072l0.068-0.995l1.197-0.082l1.631,0.218l-1.013-0.362l-1.59-0.216l-0.97-0.229l-1.7,0.232h-0.813l-1.869,0.158H210.3l-0.72-0.364l-0.533-1.243l-0.192-1.316l-0.247-1.251l-0.383-1.118l-0.664,0.268l-0.828,0.082
					l-0.781,0.142l-0.336-1.085l-0.184-1.39l-0.09-1.301l0.151-1.09l0.802-2l0.375-1.302l0.136-1.539l-0.445-1.171l-0.123-1.21l0.795-1.804l0.486-2.297l-0.097-1.138l-0.212-1.158l-0.247-2.697l0.125-1.211l-0.892-1.253l1.118-0.055l-0.481-1.287l-1.121-0.137
					l-0.049-1.144l-0.129-1.144l-0.59-1.186l-0.143-1.264l-0.556-1.132l-0.198-1.389l0.15-1.159l0.542-1.189l-0.24-1.179l-0.693-0.978l-0.128-1.233l0.109-4.553l0.369-2.821l0.35-1.479l0.541-1.034l-0.725-2.54l-0.219-1.457l-0.103-1.22l-0.034-1.697l0.124-1.164
					l0.973-0.84l0.656-1.034l-0.328-1.397l-0.233-1.761l0.617-1.127l0.158-1.453l0.424-0.993l0.391-1.876l-0.351-1.746l-0.781-1.189l-0.123-1.328l-0.5-0.993l-0.541-1.403l-0.123-1.294l-0.658-1.131l-0.02-1.177l0.425-1.307l0.3-1.118l0.452-1.08l0.309-1.172
					l-0.172-2.519l0.172-1.219l0.385-1.554l0.224-1.788l0.556-1.301l0.855-1.033l0.383-1.198l0.439-1.068l0.752-0.746l0.863-1.281l-0.418-1.26l-0.254-1.696l-0.28-1.37l-0.186-1.333l0.363-1.125l-0.227-1.289l0.91-0.915l2.957-1.505l0.481-1.04l0.183-1.171
					l0.124-1.467l-0.444-1.054l-0.486,0.021l-1.109,0.255l-1.137-0.234l-0.356-1.156l-0.377-1.451l-0.13-1.568l-0.313-1.268l-0.35-1.061l-0.308-1.124l-0.924-0.643l-0.164-1.232l-0.755-1.054l0.693-1.032l-0.061-1.193l-0.167-1.245l-0.881-0.645l-0.862-1.108
					l-0.445-2.835l-0.795-0.862l-0.903-0.849l-0.857,1.108l-0.75,0.91l-1.151,0.178l-0.67,0.596l0.889,0.09l0.11,1.959l0.445,2.264l0.774,2.569l-0.187,1.978l0.124,1.959l0.433,1.936l-0.344,3.95l-0.758,2.021l0.287,3.916l-0.151,1.979l0.451,1.937l0.131,1.632
					l-0.78,1.362l0.774,2.244l-0.946,2.691l0.178,1.959l-0.691,2.021l-0.102,1.978l-0.672,2.018l0.698,1.26l0.542,2.589l-1.027,1.063l-0.077,1.976l1,4.197l0.144,1.302l0.693,1.267l-0.808,2.689l0.492,1.938l-0.663,1.362l-0.042,1.979l-0.562,2.021l-0.814,2.04
					l-0.541,4.004l-0.692,0.719l0.273,1.953l-1.294,0.117l-0.186,2.328l1.008,1.559l0.238,1.621l1.034,3.541l-0.951,2.068l0.355,2.279l-0.232,1.671l0.508,1.607l0.69,1.255l1.253,0.211l0.288-1.343l1.548,0.523l-0.527,1.361l0.813,0.589l-0.623,0.718l0.396,2.602
					l-0.451,1.698l0.671,1.26l-0.678,1.711l1.417,1.007l0.275,1.575l-1.576,0.96v0.886l-0.136,1.44l0.429-0.244l0.049,0.86l-0.41,0.408l0.237,1.663l-0.275,0.366l-0.214-0.519l-0.273-0.063l-0.296,0.814h-0.343l-0.279-1.821l-1.252-0.336l-1.132,0.336l0.093,0.855
					l0.582-0.214l0.143,0.427l-0.754,0.409l-0.89,1.232l0.094,1.569l0.59-0.063l-0.163-1.162l0.368-0.345l1.466,0.896l0.488-0.551l1.263,0.752l-0.821,1.984l1.301,0.48l-0.274,0.546l0.855,0.335l0.061-0.398l1.527,1.681l-0.252,0.165l-0.97-0.593l-1.837-0.095
					l0.136,0.96l0.889,1.095l-0.014,1.158l0.631,2.403l0.273,0.068l0.137-0.892l0.548-0.478l-0.139,1.778l-0.614,0.549l0.068,1.232l-0.479,0.685l0.583,0.673l1.059,0.285l0.343,0.41l-0.479-0.135l-0.137,0.341l0.616,0.615l0.523,0.013l0.093,0.264l-0.827,0.225
					l-0.133,0.391l0.616,0.82l0.954,0.716l0.417,0.86z"/>
				<path d="M214.428,563.743h0.069l0.068,0.069l0.068,0.341l0.068,0.274l0.204,0.616l0.069,0.206l0.137,0.274v0.138h-0.137l-0.137-0.138l-0.205-0.207l-0.206-0.067l0.069,0.412l0.205,0.338l0.204,0.14h0.275l0.136,0.206l-0.067,0.066l-0.206-0.066l-0.273-0.068
					l-0.206-0.207l-0.274-0.206l-0.205-0.273l-0.137-0.341v-0.275l0.068-0.068l0.137-0.068h0.207l0.068-0.138l-0.068-0.203l-0.136-0.207v-0.137l0.136-0.204l0.068-0.206z"/>
				<path d="M211.485,565.043h0.066l0.068,0.068l0.139,0.138l0.137,0.067l0.137,0.137v0.137v0.207l0.138,0.138l0.067-0.273l0.137-0.208h0.273l0.137,0.208l0.138-0.071l0.137,0.207l0.067,0.202l0.14,0.207l0.066-0.137h0.206l0.137,0.207l0.136,0.273l-0.204,0.274
					h-0.275l-0.135-0.069v-0.067l-0.138-0.207h-0.412l-0.411-0.069l-0.067,0.205l0.067,0.071v0.067l-0.342-0.067l-0.137-0.207l-0.273-0.136l-0.274-0.068l-0.069-0.207l-0.069-0.206l-0.205-0.41h0.205l0.206-0.137l0.136-0.273h0.07z"/>
				<path d="M198.407,518.214l0.138-0.067l0.069,0.412l0.069,0.136l0.204-0.069h0.205l0.205,0.069l0.137,0.137l0.412,0.754l0.068,0.273l0.273,0.477l0.067,0.276l-0.479,0.137l-0.136,0.615l-0.205-0.067l-0.067,0.273v0.204l0.272,0.344h0.275l0.206,0.343l-0.48,0.136
					l0.136,0.273l0.344,0.481l0.068,0.478h-0.479l0.273,0.616l-0.206,0.343l-0.409,0.067l-1.028-0.203l-0.411-0.617l0.138-0.616l0.136-1.301l-0.067-0.548l-0.137-0.617l-0.069-0.617l0.069-0.613l-0.069-0.617l0.069-0.344l0.205-0.066l0.138-0.411l0.067-0.069z"/>
				<path d="M214.291,569.768v-0.067l-0.067-0.07l0.067-0.204l0.137-0.137l0.206-0.07l0.137,0.207l0.067,0.204l0.068,0.138l-0.068,0.136h-0.136l-0.137-0.067l-0.274-0.068z"/>
				<path d="M218.331,568.946l0.069,0.067l-0.48,0.139l-0.341,0.138h-0.274l-0.205,0.137h-0.069l-0.135-0.069l-0.07-0.205l-0.068-0.344l0.207-0.066l0.067,0.066l0.206-0.066l0.273-0.067l0.069,0.067h0.479l0.206,0.066l0.068,0.138z"/>
				<path d="M216.688,569.768l0.067-0.067l0.618-0.14l0.614-0.204l0.275-0.138l0.137-0.067l0.205-0.069h0.547l0.549-0.274h0.272l0.206,0.205l0.137,0.069l0.137,0.274l-0.205,0.069l-0.275,0.067h-0.272l-0.618-0.204l-0.069,0.067l0.137,0.137l0.344,0.137l0.616,0.07
					h0.342l0.137,0.067l0.068,0.205l0.07,0.066l-0.343,0.071h-0.273l-0.138,0.065v0.071l0.343,0.136h0.342l0.274,0.138l0.069,0.273l0.205,0.068l0.068,0.343l0.136,0.272v0.139h-0.068l-0.274-0.205l-0.137-0.206l-0.069-0.274h-0.206l-0.342-0.272l-0.478,0.204
					l-0.138,0.068l-0.275-0.205l-0.068-0.343l-0.206-0.068l-0.068-0.139l-0.205-0.137h-0.548l-0.137,0.208l0.206,0.273l0.41,0.342l0.205,0.273h-0.136h-0.548h-0.137l-0.137-0.205v-0.137l-0.548-0.341v-0.07l0.275-0.207l0.204-0.137l0.069-0.136v-0.067l-0.273,0.067
					l-0.275,0.207l-0.273,0.137h-0.273l-0.207-0.071l-0.067-0.203v-0.137v-0.068z"/>
				<path d="M220.795,569.083l-0.067-0.137h-0.275l-0.068-0.069l-0.068-0.202h0.068l0.411-0.071l0.207-0.068l0.341-0.068l0.684,0.137h0.342h0.411l0.138,0.205l0.205,0.618l0.069,0.135v0.14l-0.207,0.203l-0.205,0.136h-0.205l-0.069-0.066l-0.068-0.205l-0.069-0.067
					l-0.205-0.07h-0.205l0.068,0.206h-0.273l-0.068-0.068l0.068-0.067h-0.479l-0.273-0.07l-0.069-0.204l-0.069-0.207c0,0-0.136-0.343-0.068-0.137z"/>
			</g>
			<text transform="matrix(1 0 0 1 202.9663 446.9946)"><tspan x="0" y="0" style="fill:#000000;stroke:none;">Chile</tspan></text>
		</g>
		<g>
			<g>
				<path style="stroke-linecap:round;stroke-linejoin:round;" d="M158.952,371.663l1.473-0.787l0.602-2.034l0.63-1.382l-1.643,0.218l-0.282,1.994l-1.69-1.719l-1.327-0.465l0.644-0.741l-0.041-1.944l-0.699-2.498l1.643-0.879l-0.02-1.941l1.636-1.52l0.315-2.636
					l4.622-2.886l0.505,0.155l2.726,0.813l1.595,0.69l0.965,0.938l0.693,0.814l1.492-0.338l1.226-0.031l1.225-0.351l1.169-0.131l1.228,0.659l1.068,0.417l-1.013,0.842l0.753,0.869l0.597,1.308l-0.686,0.967l-1.309,2.561l-0.89,1.148l-1,1.001l-0.938,1.156
					l-1.526,1.021l-3.006,1.347l-1.11,0.604l-0.984,1.227l-0.931,0.85l-0.87,1.424l-0.231,1.185l-0.014,1.472l-0.871,1.007l-1.082,0.925l-1.129-0.376l-0.568-0.981l-1.165,0.152l-1.184-0.418l-1.122-0.063l-0.247-1.069l1.144-0.784l-0.371-1.789z"/>
			</g>
			<text transform="matrix(1 0 0 1 161.2861 363.6313)"><tspan x="0" y="0" style="fill:#000000;stroke:none;">Ecuador</tspan></text>
		</g>
		<g>
			<path style="stroke-linecap:round;stroke-linejoin:round;" d="M170.367,330.535l0.387,0.449l-0.375,1.663l0.26,2.553l-0.049,1.945l0.287,1.908l-0.69,2.027l1.3,1.138l-1.342,1.777l-1.013,2.397l-2.308,0.289l-1.334,2.113l0.314,1.575l-1.649,0.542l0.658,1.53
				l0.505,0.155l2.726,0.813l1.595,0.69l0.965,0.938l0.693,0.814l1.492-0.338l1.226-0.031l1.225-0.351l1.169-0.131l1.228,0.659l1.068,0.417l1.013,0.148l1.116,0.31l0.802,0.761l0.745,0.876l0.645,0.89l1.177,0.515l1.013,0.589l0.218,1.245l0.966,0.706l0.596,0.997
				l0.649,1.309l1.328-0.114l1.118,0.17l1.219-0.261l0.944-0.82l1.541,0.302l1.164-0.09l1.274-0.419l1.438,0.529l1.007,0.614l0.595,1.172l-0.726,1.108l-1.101,1.343l0.279,1.198l1.117,0.39l0.965,0.624l0.199-0.699l0.444-2.613l0.254-1.233l0.361-1.186l0.2-1.121
				l0.205-1.542l0.252-1.391l0.159-1.227l-0.165-1.148l-0.32-1.253l-0.803-1.102l-1.013-0.781l-0.211-1.199v-1.156l1.005-0.917l1.17-0.396l1.376,0.121l-0.314-1.096l-1.109-0.449l-1.226-0.234l-0.048-1.212l0.485-1.189l4.293-0.284l1.171-0.12l1.062-0.645
				l2.437-0.609l0.841,0.957l0.316,1.151l1.062,0.474l-0.054,0.009l-0.529-1.405l-1.103-2.535l-0.999-1.107l-0.843-0.849l0.903-0.843l0.753-0.885l0.006-1.163l-0.575-0.963l-0.896-0.69l-0.198-1.202l-0.307-1.089l0.505-2.606l0.651-1.145l0.171-1.164l0.384-1.225
				l-1.152-0.31l-1.116,0.486l-1.164,0.391l-1.164-0.033l-1.204-0.344l-1.063,0.487l-1.102-0.343l-0.724-0.944l-0.767-1.144l-0.773-0.78l-1.207-0.329l-1.265-0.165l-2.651,0.739l-1.573-0.128l-0.986-0.747l-1.151-0.471l-0.021-1.201l0.042-1.301l-1.494-2.874
				l-1.062-1.199l-0.602-0.869l0.67-1.048l0.541-1.862l0.535-1.656l1.212-1.712l1.8-1.924l1.151-1.39l1.737-0.514l0.761-1.095l-0.603-0.917l-1.274-0.211l-1.334,1.094l-1.021,1.39l-1.643,0.808l-1.337,1.104l-1.982,1.169l-2.575-0.048l-1.035,1.404l-1.608-0.145
				l-1.657,0.829l-1.033,1.418l-0.41,1.985l-0.09,1.945l-1.643,0.519l-1.048,1.739l-2.026,1.855l-0.051,1.359l0.094,0.466l-0.125,0.293l-0.334,0.063l-0.272-0.272l0.272-0.48l-0.125-0.166l-0.084,0.083l-0.189-0.104l0.084-0.084l-0.961-1.128l-0.354-0.167
				l-0.585-0.754l-0.25,0.524l0.417,0.626l0.042,0.375l0.376,0.523l0.313,0.836l-0.438,0.188l-0.313,0.479l0.104,0.336l-0.313,0.334l-0.773,0.46l-0.565-0.836l-0.188,0.21l0.188,0.583l-0.438,0.294l-0.314,1.003l0.021,0.021l0.982,1.064l-0.167,0.272l0.083,0.189
				h0.167l0.293,0.502l0.121,0.572z"/>
			<text transform="matrix(1 0 0 1 172.7568 342.0269)"><tspan x="0" y="0" style="fill:#000000;stroke:none;">Colombia</tspan></text>
		</g>
		<g>
			<path style="stroke-linecap:round;stroke-linejoin:round;" d="M260.943,343.936l0.854,0.938l1.164,0.417l1.11-0.477l1.219,0.216l1.272-0.308l1.841-1.493l0.575-1.445l0.788-1.169l0.835-1.109l0.573-1.021l1.321-1.356l-0.294-0.306l-1.314-1.063l-1.979-1.418
				l-1.642-1.395l-1.973-1.083l-1.636-0.724l-0.846-0.252l-0.626,0.922l-0.787,0.809l-0.308,1.087l0.013,1.213l0.22,1.541l0.642,1.293l0.645,1.081l-0.206,1.466l-0.514,2.726l-0.949,0.91z"/>
			<text transform="matrix(1 0 0 1 264.4839 341.7505)"><tspan x="0" y="0" style="fill:#000000;stroke:none;">French Guyana</tspan></text>
		</g>
		<g>
			<path style="stroke-linecap:round;stroke-linejoin:round;" d="M250.301,329.374l2.282,0.383l1.95,0.055l1.95-0.267l1.951,0.07l1.961,0.402l1.957,0.732l0.461,0.14l-0.626,0.922l-0.787,0.809l-0.308,1.087l0.013,1.213l0.22,1.541l0.642,1.293l0.645,1.081
				l-0.206,1.466l-0.514,2.726l-0.949,0.91h-0.157l-1.322-0.582l-1.22-0.206l-1.376,0.32l-1.22-0.244l-0.416,1.259l-0.636,0.93l-1.639-0.416l-0.848-0.813l-0.746-0.864l-0.685-1.067l-0.535-1.021l-0.478-1.329l-1.165-0.552l-0.69-0.96l-1.008-1.286l-0.314-1.11
				l0.419-1.048l0.102-1.211l1-0.672l1.103-0.19l0.529-1.096l0.25-1.102l0.41-1.302z"/>
			<text transform="matrix(1 0 0 1 249.8989 336.1675)"><tspan x="0" y="0" style="fill:#000000;stroke:none;">Suriname</tspan></text>
		</g>
		<g>
			<path style="stroke-linecap:round;stroke-linejoin:round;" d="M239.759,319.836l0.452,0.261l0.37-0.287l3.518,2.93l0.658,1.642l-0.23,1.355l0.229,0.215l1.301-0.248l1.837,0.853l1.423,1.489l0.985,1.328l-0.41,1.302l-0.25,1.102l-0.529,1.096l-1.103,0.19
				l-1,0.672l-0.102,1.211l-0.419,1.048l0.314,1.11l1.008,1.286l0.69,0.96l1.165,0.552l0.478,1.329l0.535,1.021l0.685,1.067l0.746,0.864l0.848,0.813l-1.432,0.179l-1.105-0.398l-1.165,0.406l-0.897,0.725l-2.382,0.597l-1.007,0.567l-1.164,0.467l-1.108-0.324
				l-1.006-0.587l-0.905-0.904l-0.842-2.494l-0.48-1.107v-1.267l0.474-1.375l0.109-1.268l0.794-0.897l-0.37-1.213l-0.636-1.219l-0.952-0.628l0.212-1.588l-1.156-0.521l-1.377,0.109l-0.732-1.055l-1.682-2.039l0.368-1.267l0.267-1.425l2.109-1.272l-1.001-0.781
				l-0.154-1.157l0.628-0.999l1.056-0.632l2.094-0.896l0.247-0.896z"/>
			<text transform="matrix(1 0 0 1 238.145 328.0063)"><tspan x="0" y="0" style="fill:#000000;stroke:none;">Guyana</tspan></text>
		</g>
		<g style="stroke-linecap:square;">
			<g>
				<path d="M187.635,269.24l0.166-0.25l0.314,0.083l-0.314,0.231l-0.166-0.064"/>
				<path d="M188.095,265.375l-0.377,0.167l-0.479-0.21v-0.167h0.563l0.314,0.167l0.439,0.083l0.168,0.126l-0.085,0.104l-0.543-0.271z"/>
				<path d="M187.635,269.24l0.166-0.25l0.314,0.083l-0.314,0.231l-0.166-0.064"/>
				<path d="M187.76,270.556l-0.438,0.71l-1.61,0.209h-0.479l-0.147-0.313l0.229-0.376l0.482-0.292l0.355-0.021l0.125-0.125l0.521,0.293l0.523-0.293l0.271-0.439l0.251,0.084l-0.167,0.313l0.083,0.25z"/>
				<path d="M184.083,265.166l0.334-0.522l0.085-0.23l-0.169-0.438h-0.229l-0.313,0.396l0.083,0.086h0.209l0.231,0.165l-0.064,0.189l-0.25,0.376l-0.252,0.189l-0.438,0.188l-0.375,0.5l0.375-0.333l0.608-0.106l0.166-0.458z"/>
				<path d="M182.997,264.058l-0.251-0.083l-0.251-0.355l0.167-0.146l0.815,0.46l0.146,0.042l-0.042,0.105l-0.583-0.022z"/>
				<path d="M181.868,258.604l-0.083-0.333l0.083-0.273l0.209,0.147l-0.146,0.376l-0.063,0.083z"/>
				<path d="M180.301,260.005l0.104-0.209l0.25,0.083l-0.168,0.168l-0.187-0.042z"/>
				<path d="M175.808,259.921v-0.083h0.167l0.795,0.772l0.354,0.23"/>
				<path d="M176.562,260.547l0.563,0.293l-0.563-0.293l-0.753-0.626"/>
				<path d="M175.454,254.948l-0.042-0.481l0.167-0.647l-0.981-1.002l-1.128-0.397l-0.356-0.398l-0.042,0.022v0.063l-0.02,0.271l0.417,0.189l0.417,0.166l0.669,0.21l0.899,0.836l-0.147,0.647l-0.146,0.104l0.083,0.334l-0.167,0.167l-0.167,0.167l0.293,0.188
					l0.251-0.438z"/>
				<path d="M170.146,246.402l1.401,1.17l0.334,0.187l0.188,0.92l-0.563,0.293l-0.209,1.545l-0.189-0.083l-0.063-0.251l-0.377-0.166l0.565-0.608l-0.125-0.562l0.083-0.481l0.188-0.501l-0.542-0.459l-0.085-0.293l-0.48-0.48l-0.125-0.23l-0.565-0.167l-0.354-0.063
					h-0.334l1.252,0.23z"/>
				<path d="M170.104,254.3l-0.063-0.104l0.419-0.251l0.5,0.083l-0.335,0.271h-0.522z"/>
				<path d="M168.956,256.703l0.229-0.187l0.042-0.293l-0.083-0.69l-0.272-0.229l-0.607-1.274l-0.124-0.335l-0.607-0.271l-0.104,0.021l0.188,0.814l-0.25,0.44l0.063,0.125l-0.292,0.563l0.354,0.438l-0.063,0.21h-0.375l-0.084-0.376l-0.522,0.209l0.606,0.648h0.521
					l0.523,0.836l0.083-0.083l0.166-0.21l0.229-0.021l0.168-0.335h0.209z"/>
				<path d="M166.093,247.573l-0.649,0.271l-0.667-0.522l0.5,0.167l0.543-0.293l0.146-0.523l0.899,0.335l0.229-0.125l1.169,0.083l0.168-0.083l0.104,0.209l-0.165,0.146l-2.278,0.334z"/>
				<path d="M169.458,259.545h0.375l0.209-0.502l-0.084-0.292l-0.377-1.003l-0.124,0.376l-0.167-0.167l0.146-0.292l0.063-0.21l-0.208-0.187l-0.836,1.022l0.333,0.147l0.168,0.627l0.396,0.166v0.23l0.105,0.083z"/>
				<path d="M177.856,256.829l-0.459-0.71l-0.146-0.46H177l0.836,1.254l0.438,0.586l-0.272,0.334l0.479,0.083l0.169-0.167l-0.334-0.313l-0.314-0.397l-0.146-0.209z"/>
				<path d="M179.486,261.677l0.042,0.48l0.482,0.209l0.521,0.71l-0.042,0.084l-0.563-0.71l-0.397-0.083l-0.209-0.229l0.063-0.482l-0.25-0.584l-0.292-0.523l-0.126-0.438l0.543,0.48l-0.021,0.376l0.083,0.271l0.167,0.439z"/>
				<path d="M179.319,262.137h-0.25l0.02-0.126l0.23,0.126"/>
				<path d="M163.376,250.979h0.564l-0.271,0.418l-0.355-0.042l0.062-0.375z"/>
			</g>
			<text transform="matrix(1 0 0 1 182.8525 253.3696)"><tspan x="0" y="0" style="fill:#000000;stroke:none;">Bahamas</tspan></text>
		</g>
		<g style="stroke-linecap:square;">
			<g>
				<path d="M148.641,317.591l-0.272-0.084l-0.125,0.168l0.166,0.335l-0.396,0.229l0.021,1.526l0.816,0.667l-0.648,0.376l-0.167,0.481l0.334,0.604l-0.042,0.314l-0.689,0.564l-0.084,0.208l0.334,0.209l0.106,0.982l0.103-0.126l-0.063-0.668l0.125-0.125l0.732-0.208
					l0.732,0.208l0.229-0.147l0.272,0.147l0.125-0.043l0.168-0.188l0.355,0.105l0.167,0.375l1.024,0.022l0.146,0.208l0.752,0.125l0.085,0.188l0.563,1.463h0.21l0.062,0.188l0.876,0.335h0.294v-0.42l0.104-0.021v-0.333l0.459-0.125l0.063,0.125l-0.022,0.167
					l0.398,0.919l0.188,0.606v0.645l0.209,0.232l1.609-0.083l0.522-0.294l0.105-0.25l1.4-0.376v-0.375l-1.4-1.756l-0.439-0.438l-0.021-0.397l0.46-0.564l0.25,0.083l0.565-0.167l1.734-1.107l-0.083-0.083l-0.084-0.167l0.271-0.354l-0.041-0.168l0.167-0.313l0.71-0.25
					l0.063-0.271l0.188-0.084l1.421-0.042l1.317,0.876l0.083-0.062l0.626,0.544l0.564,0.564v0.231l0.48,0.604l0.188-0.314l0.46-0.083l0.042,0.292l0.438-0.209l0.273,0.167l-0.21,0.355l-0.146-0.083l-0.25,0.272l-0.229,0.061l-0.084,0.146l0.21,0.313l-0.125,0.251
					l-0.691,0.146l-0.02,0.334l0.542,0.92v0.292l0.543,0.711l0.982,1.064l0.125,0.147l0.314-1.003l0.438-0.294l-0.188-0.583l0.188-0.21l0.565,0.836l0.773-0.46l0.313-0.334l-0.104-0.336l0.313-0.479l0.438-0.188l-0.313-0.836l-0.376-0.523l-0.042-0.375l-0.417-0.626
					l0.25-0.524l-0.397-0.124l-1.525-1.65l-0.271-0.021l-0.523-0.585l-1.526-0.626l-0.918-0.209l-1.254-0.126l-0.522-0.208l0.167-0.25h-0.104l-2.34-0.335l-0.271,0.397l-1.735,1.171l-2.152,0.688l-1.128,0.71l-1.776,0.398l-0.919-0.105l-1.274-1.17l-0.042-0.251
					l-0.209-0.041l-0.043,0.249l0.377,0.523h-0.522l-0.689,0.021l-0.647-0.25l-0.041-0.502l0.208-0.25l0.146,0.041h0.021l-0.375-0.271l-0.168,0.168l-0.146-0.042l-0.126-0.608l0.126-0.208l-0.877-0.752v0.041l-0.167,0.231l-0.732-0.438z"/>
				<path d="M164.479,323.317v-0.565l0.23-0.104l0.25,0.333l-0.333,0.502l-0.147-0.167z"/>
				<path d="M163.79,323.484l0.125-0.126l-0.042,0.126h-0.084z"/>
				<path d="M154.993,326.492l0.46-0.126l0.083,0.126h-0.188l-0.356,0.104v-0.104z"/>
				<path d="M152.465,326.931l-0.229-0.399l0.396-0.478l0.125-0.063l0.293,0.46l-0.167,0.146l0.354,0.543l-0.25,0.062l-0.523-0.271z"/>
				<path style="stroke-linecap:butt;" d="M162.139,320.496l-0.711-0.711l-0.292,0.063l-0.543-0.982"/>
			</g>
			<text transform="matrix(1 0 0 1 134.4497 333.4233)"><tspan x="0" y="0" style="fill:#000000;stroke:none;">Panama</tspan></text>
		</g>
		<g>
			<path style="stroke-linecap:square;" d="M136.794,311.114l0.063,0.041l-0.188,0.189l0.02,0.271l-0.773,0.125l0.459,0.355l0.397,0.126l0.084,0.794l-0.607,0.396v0.417l-0.27,0.188l0.083,0.69l0.71,1.17l1.087,0.355l0.752,0.793l0.313,0.335l0.543-0.649
				l0.313-0.083l0.125-0.313l-0.209-0.229l-0.354-0.167l-0.731-0.607l-0.083-0.354l0.146-0.084l0.419,0.084l1.002,0.794l0.439,0.125l0.459,0.711l-0.251,0.501l0.607,0.626l1.085,0.168l0.439,0.438l0.836,0.356l1.21,1.087l0.231,0.959l-0.146,0.25v0.271l-0.459,0.356
				l0.647,0.731h0.251l0.835,0.314l0.042-0.125l-0.042-0.503l-0.481-0.334v-0.313l0.315-0.083l0.919,0.688l0.084,0.439l-0.104,0.481l0.104,0.083l0.73,0.668l0.105,0.544l0.043-0.021l-0.106-0.982l-0.334-0.209l0.084-0.208l0.689-0.564l0.042-0.314l-0.334-0.604
				l0.167-0.481l0.648-0.376l-0.816-0.667l-0.021-1.526l0.396-0.229l-0.166-0.335l0.125-0.168l0.272,0.084l0.732,0.438l0.167-0.231v-0.041l-0.21-0.188l-0.521-0.083l-1.17-1.462l-1.547-1.86l-0.856-1.983l-0.042,0.124l-0.501,0.314l-0.605,0.167l-0.335-0.292
				l-0.48,0.082l-0.397-0.166v-0.313l-0.564-0.48h-0.438l-0.794-0.439l-1.003,0.522l-1.817-0.919h-0.481l-0.439-0.375l-0.521,0.667l-0.021,0.043z"/>
			<text transform="matrix(1 0 0 1 144.3887 313.6733)"><tspan x="0" y="0" style="fill:#000000;stroke:none;">Costa Rica</tspan></text>
		</g>
		<g>
			<path style="stroke-linecap:square;" d="M130.443,302.672l1.211,0.083l0.396-0.293l0.021-0.48l0.439-0.46l0.335,0.106l0.229-0.168l-0.083-0.146l-0.104-1.651l0.835-0.125l0.858,0.084l0.793-0.836l0.48-0.334l0.209,0.293l0.396,0.229l0.439,0.397h0.23v-0.397
				l0.877-0.522l0.899-0.837l0.23-0.041l0.333-0.229l-0.083-0.168l0.313-0.751l0.294,0.083l0.188-0.209l-0.167-0.188l0.083-0.084l0.042-0.167l0.564-0.355h0.376l0.313,0.521l0.962,0.272l0.522-0.272l0.23,0.084l0.125-0.25l0.461,0.083l0.146-0.209l0.605,0.085
				l0.794-0.252l0.313-0.272h0.25l0.524-0.438l0.563-0.042l0.565,0.231h-0.021l-0.397,0.981l0.418,1.756l-1.128,1.672l-0.481,2.465l0.167,2.006l-0.21,0.354l0.147,1.107v0.377h-0.397l-0.271,0.522l-0.168,0.96h-0.229l-0.084,0.084l0.229,0.522l0.083,0.356
				l0.126,0.855l-0.543,0.544l-0.376,0.459l0.438,1.546l0.481,0.565l-0.042,0.124l-0.501,0.314l-0.605,0.167l-0.335-0.292l-0.48,0.082l-0.397-0.166v-0.313l-0.564-0.48h-0.438l-0.794-0.439l-1.003,0.522l-1.817-0.919h-0.481l-0.439-0.375l-0.521,0.667l-0.021,0.043
				l-0.544-0.376l-0.333-0.564l-2.548-2.403l-0.69-1.086l0.042-0.292l-1.358-1.106l-1.525-1.526l-0.438-0.438l-0.503-0.357l-0.021-0.125l0.396-0.377l0.919,0.586l0.252-0.377z"/>
			<text transform="matrix(1 0 0 1 147.2832 304.5034)"><tspan x="0" y="0" style="fill:#000000;stroke:none;">Nicaragua</tspan></text>
		</g>
		<g>
			<g>
				<path d="M97.054,246.534l-0.599,1.115l0.697-0.526l-0.295,0.995l-0.476,0.471l-1.148-0.234l-0.235,0.199l-0.324,1.355l-0.893,1.166l-0.268,3.396l0.209,1.982l-0.899,4.944l0.331,1.336l1.175,1.766l-0.052,0.649l-0.492,0.689l0.156,0.813l1.055,2.336l1.447,2.006
					l0.825,3.41l1.742,1.954l2.48,0.923l1.81,2.034l1.013,0.08l1.669-0.814l0.805-0.081l1.025,0.104l0.231,0.168l-0.043,0.125l0.167,0.083l0.167-0.334l0.439,0.042l1.233-0.376l0.167-0.229l0.521-0.188l1.485-0.125h0.669l0.335,0.479l-0.127,0.125l-0.208-0.167
					l-0.231,0.167l0.083,0.104l0.439-0.02l0.209,0.396l-0.083,0.146l0.125,0.126l0.313-0.23l0.751,0.104l0.293-0.271l0.271-0.085l0.606-0.397l-0.021-0.438l-0.689-0.439l0.104-0.125l0.899-0.397l2.006-1.463l0.188-1.233l0.293-0.646l0.668-0.439v-0.356l0.25-2.339
					v-0.48l0.23-0.46l0.459-1.065l1.944-0.879l4.137-0.438l0.731-0.397l0.648-0.166l0.669,0.125l0.648-0.25l1.17,0.292l0.397,0.293h0.208l1.63,0.335l0.459-0.251l-0.167-0.251l0.48-0.167l0.543,0.753l0.376,0.208v0.691l0.167,0.396l-0.375,1.003l-1.61,1.692
					l-0.836,1.107l-0.167,1.211l-0.084,0.313l-0.313,0.167l-0.271,0.356l-0.418,0.25l0.063,0.146l0.398,0.334l0.709-0.041l-0.042,0.167l-0.397,0.396l-0.439,0.231v0.48l0.397-0.271l0.125,0.105l-1.399,3.99l-0.209,0.272l-0.022,0.252l-0.104-0.022l0.083-0.397
					l-0.168-0.501l-0.543-0.439l0.209-0.481l-0.084-0.897l-0.584,0.438l0.063,0.209l-0.564,0.836h-0.773l-0.313,0.688l-0.354,0.396l-0.084,0.21l-0.648,0.919l-0.836-0.396l-0.418,0.188v0.293l-0.083,0.23l-7.209-0.355l-0.293,2.276l-1.609,0.084l0.418,0.209
					l0.835,1.107l0.355,0.209l0.856,0.563l0.356,0.564l0.042,0.334l0.313,0.314l0.647,0.542l-0.209,0.46l-0.062,0.689l-5.14-0.251l-2.132,3.49l0.46,0.627l-0.335,0.334v0.313l-0.25,0.292l0.125,0.752l-0.314,0.48h-0.02l-2.361-2.631l-1.652-1.86l-0.661-0.922
					l-4.056-2.211l-1.828,0.074l-2.043,0.93l-2.828,0.722l-5.745-2.052l-1.47-0.769l-2.178-1.99l-0.658,0.022l-7.573-3.868l-0.377-0.756l-1.861-1.383l-0.306-0.751l-0.964-0.73l-1.081-0.157l-4.417-2.238l-1.413-2.438l-1.559-1.504l-1.277-0.464l-0.741-0.786
					l-1.713-2.316l-0.459-2.508l0.476-0.472l1.038-0.211l-0.428-1.05l0.865-0.806l0.369-0.986l-0.86-2.977l-0.146-2.776l-2.188-2.789l-0.71-2.092l-0.622-0.412l-0.127-1.172l-2.916-3.721l0.131-1.663l-0.98-1.458l-0.797-0.063l-1.364-1.198l0.167-1.223l-0.602,0.243
					l-0.786-0.207l-0.039-1.383l1.231-1.723l-0.896-1.598l-0.931-0.218l-0.728-1.876l-1.347-1.415l-0.194-1.251l0.392-1.278l-1.604-0.926l-2.047-3.652l-0.532-2.513l-0.572-1.063l0.064-1.741l-0.438-0.907l0.09-1.157l-0.403-2.285l0.249-2.235l-1.504-1.283
					l0.106-0.426l-0.395-0.542l-1.355-0.397l-1.847-2.472l0.178,0.522l-0.736,2.851l0.133,1.1l-0.558,3.375l0.355,1.989l0.423,0.18l1.334,2.505l0.146,1.829l0.903,0.58l0.226,1.764l0.54,0.55l-0.12,2.463l0.878,1.815l0.104,1.462l0.594,0.773l0.081,1.751
					l0.391,0.612l-0.048-1.239l0.734,0.857l0.286,1.913l-0.171,2.169l0.835,1.447l-0.319,1.284l0.532,1.569l-0.32,1.283l0.261,1.33l0.597,0.774l0.764-0.448l1.186,1.62l0.842,2.248l0.034,0.511l-0.586,0.972l-1.603,0.893l-0.356-0.101l-0.459-2.508l-0.639-1.141
					l-2.922-3.647l-0.422-1.124l-0.63-0.342l-0.088-0.734l-0.773-0.351l-0.04-0.439l-0.463,0.325l1.029-1.954l0.316-2.155l-0.331-2.28l-1.438-1.206l-0.477-1.346l0.029-1.308l-0.927,0.656l-0.842-0.43l-1.335-1.561l-0.033-0.51l-1.105-0.814l-0.053-1.168
					l-1.057-1.391l-0.441,0.038l0.191-0.567l1.338,0.616l1.237,0.024l0.327,0.462l0.136-0.791l0.597-0.171l0.373-1.935l-1.618-3.543l-0.327-1.409l-0.563-0.262l-0.3-0.822l-1.209-1.333l0.228-2.891l-0.44,0.04l0.165-2.097l-0.731-3.693l0.309-1.14l-0.479-1.346
					l0.065-1.738l-0.322-0.535l7.858,2.072l-0.25,0.417l11.281,9.54l9.375,2.265l0.422-1.64l6.292,1.586l1.94,3.134l2.205,2.573l0.241,2.492l-0.007,1.017l0.688,1.436l2.344,2.657l1.053,0.52l0.59-0.1l2.19-2.808l0.737-0.088l3.662,0.723l2.214,3.375l0.765,3.258
					l0.845,1.304l0.405,1.34l1.014,1.025l0.468,3.31l0.94,1.964l0.952,0.876l0.999,0.295l0.891,0.726l1.793,0.359l1.176,0.819l1.149,0.236"/>
				<path d="M95.851,248.841l0.167,0.667l-0.391,0.333l-0.178-0.524l0.402-0.476"/>
			</g>
			<text transform="matrix(1 0 0 1 74.2881 263.5479)"><tspan x="0" y="0" style="fill:#000000;stroke:none;">Mexico</tspan></text>
		</g>
		<g style="stroke-linecap:square;">
			<g>
				<path d="M182.031,274.047l1.609-0.146l0.417-0.607l-0.396-0.333h-0.668l-0.607-0.501l-0.397-0.398l-0.605-0.437l-0.335-0.042l-0.417-0.21l-0.607,0.063l-0.314-0.146l-0.375,0.209l-0.397-0.313l-0.396,0.167l-0.523-0.25l-0.166,0.125l-0.211-0.125v-0.272
					l0.334-0.126l-0.041-0.333h0.25l0.063-0.418l-0.794-0.417l-0.334,0.207h-0.334l-0.167,0.042l-0.438-0.249l-0.377-0.356l-0.962-0.23l-0.146,0.084l0.021,0.229l-0.354-0.166l0.125-0.147l-1.526-0.898l-0.605-0.522l-0.188,0.354l-0.146,0.209l-0.23-0.063
					l-0.084-0.334l-0.188-0.126l0.085-0.125l0.585,0.167v-0.126l-1.004-0.751l-0.794,0.083l-0.626-0.209l-0.377-0.396l-0.229,0.04l-0.939-0.897l-0.753-0.334l-1.379-0.751l-0.229,0.166l-0.355-0.271h-1.651l-1.357-1.086l-0.836-0.751l-0.898-0.565l-0.565,0.042
					h-0.71l-0.606-0.396l-0.355-0.397l-1.254,0.187l-0.125-0.167l-0.669,0.292l-0.354-0.48l-0.815,0.168l-0.355,0.146l-0.084-0.355l-0.897-0.042l-0.836-0.21l-1.317,0.126l-0.877,0.397l-1.086,0.084l-0.605,0.189l-0.209-0.147l-0.481,0.272l-0.271-0.147
					l-0.647,0.481l-0.104-0.042l-0.522,0.084l-0.459,0.23l-0.919,0.271l-0.523,0.083l-1.316,1.337l-0.313,0.752l0.313,0.336v0.417l-0.104-0.021l-0.67-0.042l-1.316,0.522l-0.271-0.041l-0.042,0.125l0.209,0.209l1.421-0.418l0.251,0.25l-0.042,0.106v0.291
					l0.647-0.375l1.149-0.229l0.168-0.314l-0.105-0.125l0.063-0.083l0.251-0.314l0.792-0.208h0.732h0.565l0.605-0.585l0.188,0.021l0.355-0.313l1.212-0.92l0.355-0.167l0.438,0.084l2.466-0.043l1.004,0.272l0.397,0.397l-0.25,0.293l-1.694,0.23l-0.02,0.146
					l0.794,0.417l0.398,0.376l1.524,0.043l0.376,0.354l0.501-0.126l0.042-0.271l0.125-0.25l0.083,0.083l0.167,0.522l0.482,0.25l1.921-0.062l-0.083-0.313l0.104-0.083l0.293,0.208l0.043,0.438l0.918,0.731l0.648,0.522l0.354-0.041l0.334,0.271l0.168-0.125
					l0.668,0.252l0.878,0.229l0.375,0.209h0.585l1.568-0.23l0.354,0.313l0.648,1.212l-0.126,0.147l0.126,0.647l0.396,0.481l0.251,0.062l1.002,0.9h0.752l1.547,0.25l0.626-0.167l0.564,0.356l-0.125,0.25l0.481,0.23l0.084,0.25l-0.229,0.522l-1.171,0.711l-1.17,1.253
					l0.125,0.125l1.232-0.063l0.376-0.188l1.003,0.042l0.753-0.208l0.773,0.041l1.88-0.354l0.586,0.314l0.731-0.272l0.898,0.397l1.4,0.041l0.667-0.565l0.168,0.146l-0.208,0.335l0.584-0.083l0.501-0.44l0.732-0.062z"/>
				<path d="M148.704,267.694l-0.25-0.355v-0.124l0.479,0.146l0.168-0.146l-0.375-0.879l0.564-0.564l0.96,0.273l0.042,0.585l0.354,0.146l0.085,0.564l-1.171,0.543l-0.856-0.188z"/>
			</g>
			<text transform="matrix(1 0 0 1 172.4331 272.7563)"><tspan x="0" y="0" style="fill:#000000;stroke:none;">Cuba</tspan></text>
		</g>
		<g style="stroke-linecap:square;">
			<g>
				<path d="M189.01,274.047l-0.084-0.084l0.314-0.125l0.834,0.355h-0.417l-0.647-0.146z"/>
				<path d="M187.756,279.125l-0.188-0.272l0.104-0.209h0.544l1.107,0.564l0.125,0.251l-0.084,0.106l-1.608-0.565v0.126z"/>
				<path d="M193.69,275.299h-0.271l-0.168,0.21l-0.313-0.23l-0.563,0.104l-0.521-0.146l-0.168-0.125l-0.355,0.125l-0.67-0.355l-1.211-0.418l-1.044,0.085l-0.648,0.166l-0.69,0.333l-0.229,0.461l0.125,0.25h0.313l0.607,0.043l0.563,0.083l1.4,0.752l-0.166,0.167
					v0.188l0.083,0.125l-0.23,0.251l0.397,0.605l-0.355,0.106v0.208l1.004,1.023l0.793,0.46l-0.083,0.396l-1.065,0.083l-0.293,0.481l-0.793,0.042h-0.607l-0.25-0.126h-0.669l-1.481-0.083l-0.315-0.25l-0.208,0.083l-0.399-0.146l-1.169-0.355l-0.897,0.167
					l-0.335,0.858l0.25,0.396l0.543,0.063l0.919,0.355l0.752,0.835l0.376-0.083l-0.167-0.419l0.397-0.292l1.19-0.25l2.153,0.48l1.003-0.188l0.396-0.125l2.152-0.041l0.856,0.688l0.042-0.02l0.105-0.229l-0.085-0.482l0.209-0.396l-0.731-0.522l0.083-0.125
					l-0.354-0.439v-0.125l0.48-0.022l0.565-0.689l-0.167-0.605l-0.356-0.209l0.731-0.836l0.021-0.188l-0.48-0.48l0.252-0.669l-0.189-0.501l-0.063-0.502z"/>
			</g>
			<text transform="matrix(1 0 0 1 177.1572 285.0674)"><tspan x="0" y="0" style="fill:#000000;stroke:none;">Haiti</tspan></text>
		</g>
		<g>
			<path style="stroke-linecap:square;" d="M174.405,283.26l-1.003-0.521l-0.522,0.585h-0.188l-0.251-0.23l-0.354,0.521l0.084,0.21l-0.167,0.084l-1.003-0.607h-0.606l-0.835-0.126l-0.292-0.605l-0.314-0.042l-0.522-0.668l-1.004-0.084l-0.125-0.124l0.084-0.523
				l0.438-0.355l1.254-0.126l2.152,0.084l1.253,0.251l0.606,0.083l0.709,0.501l1.484,0.438l0.647,1.003l-0.292,0.209l-1.232,0.041z"/>
			<text transform="matrix(1 0 0 1 140.1572 280.3174)"><tspan x="0" y="0" style="fill:#000000;stroke:none;">Jamaica</tspan></text>
		</g>
		<g>
			<path style="stroke-linecap:square;" d="M206.332,280.732l-0.063,0.481l-0.46,0.167l0.063,0.229l0.333,0.126l0.126-0.042l0.084-0.084l-0.607-0.229l-0.146-0.292l-0.648-0.522h-0.835l-0.502,0.042h-0.815l-0.502-0.147l-0.166,0.105l-0.711-0.25l-0.794,0.292
				l-0.418,0.689l-0.92,0.168l-0.564,0.104l-0.313-0.439l0.042-0.23l-0.333-0.251l-0.23,0.043l-0.482,0.397l-0.208-0.021l-0.104,0.251l-0.689-0.063l-0.084,0.961l-0.96,1.357l-0.168,0.502l-0.104,0.104l-0.563-0.648h-0.355l-0.211-0.877l-0.396-0.314l0.042-0.02
				l0.105-0.229l-0.085-0.482l0.209-0.396l-0.731-0.522l0.083-0.125l-0.354-0.439v-0.125l0.48-0.022l0.565-0.689l-0.167-0.605l-0.356-0.209l0.731-0.836l0.021-0.188l-0.48-0.48l0.252-0.669l-0.189-0.501l-0.063-0.502l-0.021-0.251l0.585-0.5l1.211,0.249l0.605-0.083
				l0.564-0.334l0.794,0.251l0.92,0.48l0.438-0.147l0.816,0.585h0.585l0.585-0.188l0.229,0.083l0.104,0.521l0.083,0.022l0.063,0.396l0.523,0.523l1.63-0.146l0.167-0.126l0.313,0.271l-0.167,0.334h-1.546l0.022,0.396l0.667,0.126l0.146-0.083l0.877,0.397h0.396
				l0.837-0.021l1.609,1.003l0.647,0.542l-0.564,1.044l-0.48,0.084z"/>
			<text transform="matrix(1 0 0 1 201.6255 273.5811)"><tspan x="0" y="0" style="fill:#000000;stroke:none;">Rep. Dom.</tspan></text>
		</g>
		<g>
			<g>
				<path d="M171.914,171.927l1.904-1.958l10.022-1.32l0.459-1.201l2.17-0.702l-0.096-0.661l0.504-0.833l-0.141-1.901l0.37-1.935l0.03-1.307l1.242-2.809l0.575,0.117l0.533,0.623l0.653,0.053l1.469-1.048l1.52,1.064l1.234,5.624l0.859,0.213l0.479,1.347l1.008,0.151
					l0.234-0.2l2.258-0.419l1.753-1.155l1.808-1.938l0.098,1.461l1.809-0.847l-1.563,1.891l-1.034,1.003l-1.375,1.811l-0.349,1.921l0.863,1.638l1.703,0.71l2.298-3.537l0.632-1.651l1.439-0.388l1.647-1.58l2.577-1.884l2.161-1.429l0.063-1.544l-1.694-0.606
					l-1.496,0.086l-1.44,1.188l-1.962,0.194l-2.459-0.811l-1.804-0.25l-1.445-1.846l-0.828-2.376l0.022-1.861l-2.1,1.291l-2.299-1.628l2.701-0.689l1.177-1.056l1.29-1.47l-0.364-1.387l-1.155-0.791l-1.931-0.209l-3.804,1.714l-1.545,1.464l-1.417,1.052l-1.586,1.439
					l-1.308,1.715l-0.82,1.964l-1.821,3.217l-1.751,1.025l0.935-1.593l0.691-1.559l0.9-1.609l1.459-3.529l1.293-1.715l1.415-2.128l1.768-0.406l0.043-1.836l0.772-1.648l1.778-1.191l3.219-0.88l1.836-0.896l1.591-0.107l3.185-1.007l1.489,0.269l1.798-0.993
					l2.319-0.829l0.793-1.827l1.101-3.527l1.654-1.833l2.28-1.356l1.828-3.594l-1.887-2.33l-0.314-1.85l-2.354-1.313l-1.7,0.754l-0.859-1.587l-2.396,0.627l1.35-2.134l-1.514-0.527l-2.178,0.52l-1.252-1.043l-2.536,0.614l-0.972-1.537l-2.193-0.318l-1.378-1.019
					l-0.703-2.018l0.424-1.668l-1.418-0.613l-0.462-1.347l-1.515-0.962l-1.723-1.642l-1.527-1.712l-1.842-1.614l-2.733-2.812l-0.576,1.665l-0.53,1.266l1.084,1.149l-0.35,1.941l-1.26,1.479l-0.328,1.552l-1.845,1.602l-2.015-2.021l-1.302-0.038l-1.447-1.45
					l-0.322-1.364l-0.311-2.083l-0.912-1.584l-0.071-1.78l-1.563,0.008l-1.477,0.333l-1.694-0.714l0.203-1.466l-1.655-0.727l-1.555-1.119l-1.616-0.766l-2.119,1.062l-1.276,0.19l-1.854-0.437l-1.961-0.11l-1.164,1.181l0.185,1.722l1.254,0.906l-0.299,1.781
					l-0.484,1.787l1.131,0.924l0.569,2.03l0.2,1.726l-0.874,1.836l-1.387,0.487l-0.051,1.392l1.395,1.259l1.342,0.565l1.005,2.331l1.404,4.031l0.323,2.759l-0.977,1.858l-1.593,1.903l-1.669,1.542l-1.719,1.173l0.936,1.665l0.748,1.689l0.396,2.4l0.158,2.071
					l1.229,1.995l-1.339,2.192l-2.067,1.525l0.303,1.368l-1.819-1.284l-0.955-1.682l-1.344-1.327l-1.131-1.689l-1.741-1.672l0.352-2.08l-0.06-1.727l-0.66-1.711l0.501-3.125l-2.016-0.986l-4.757,0.033l-2.341-1.754l-1.941-0.744l-1.531-0.745l-1.274-1.789
					l-2.018-1.495l-2.232-0.852l-2.138-1.564l-1.761,0.516l-1.393,0.546l0.159-1.372l-0.542-1.801l0.199-1.708l-0.612-2.505l-1.388-0.533l-1.478,0.146l-0.462-1.81l0.313-2.048l0.537-2.366l1.51-3.261l1.282-1.914l1.208-1.577l1.379-0.524l0.239-2.053l3.792-1.004
					l0.026-2.07l1.427-2.302l2.735,0.18l2.875-4.014l0.061-2.066l1.767-2.728l-1.223-1.404l2.08-0.31l0.692,1.036l2.251,0.672l1.753-1.782l1.966-1.824l0.249-2.437l-2.026-0.931l-0.093-2.073l1.598-1.125l-0.162-2.55l-2.118-0.443l-0.299-1.376l-1.941-0.639
					L144.25,68.4l-0.009,2.071l0.119,2.417l-0.009,2.421l-1.712,1.356l-0.04,1.718l-1.226,0.661l-1.357-2.478l0.358-2.05l0.078-1.726l-1.262-2.143l-1.689,2.652l-1.765-3.971l-1.452-1.198l1.727-1.552l-0.59-2.14l-0.859-1.493l-0.892-1.852l-0.571-2.176
					l-1.149,0.149l-1.283,1.2l-0.944,2.079l-1.106,2.116l1.081,2.653l2.118,2.079l-1.23,1.561l0.307,2.148l-1.72,1.828l-0.523-0.019l-0.863,1.88l-1.32-1.573l0.315-2.33l-1.465-1.142l-1.291,1.135l-0.659,2.333l-2.01-0.115l-2.512-1.36l-1.568-1.672l-1.944-1.986
					l-0.831-2.697l-4.125-0.121l-1.592,0.863l1.3,1.637l-1.119,1.432l-1.336-1.283l-1.042-1.572l-2.193-0.217l-2.322-0.328l-1.339-1.443l-1.632-0.856l1.001-1.048l1.634,0.216l0.007-1.963l-1.274-1.875l-1.887-1.231l-1.228-1.813l-1.206-2.009l-0.458-2.166
					l-1.961-1.383l-1.74,1.165l-0.855-0.904l1.379-2.042l-2.548,1.144l-0.517-1.321l0.765-2.098l-0.084-2.844l-2.137,1.402l-1.446-0.346l0.74-1.715L82.755,43.5l-1.617,0.06l-0.289-0.763l-1.333,0.243l-1.774,0.123l-1.25-0.702l-0.523-2.252l0.08-2.045l-0.193-2.079
					L74.99,33.93l-8.257,6.418l-7.652,6.139l-7.599,6.288l-7.42,6.354l-0.446,1.042l0.471,0.423l0.258,0.608l0.477,0.416l0.698,0.404l0.418,0.504l-0.871,0.972l-0.003,0.784l-0.29,0.99l-0.276,1.838l0.035,0.867l-0.465,0.988l0.359,0.726l0.803,0.08l0.557,0.348
					l0.976-0.358l0.979-0.294l0.6,0.338l0.7,0.106l0.494,0.396l-0.27,1.003l-0.107,0.922l-0.272,1.229l-0.487,1.192l0.253,0.688l0.075,0.8L48.329,77.3l-0.273,1.078l-0.198,1.104l-0.262,1.093l-0.345,1.15l-0.232,1.088l-0.493,1.065l-0.149,1l-0.399,1.08l0.14,0.914
					l0.864,1.34l0.301,1.819l0.391,0.592l-0.701,1.225l-0.84,1.039l-0.741,1.084l-0.324,0.214l-0.322,0.564l-1.949,1.22l-0.188,1.273l-1.774-0.061l-0.519,2.439l0.482,1.82l-0.339,3.02l0.886,2.092l-0.736,2.212l0.05,1.872l-0.81,1.216l0.795,2.404l1.238,1.785
					l1.069,2.069l1.116,4.254l0.785,1.799l1.891-0.105l-1.078,1.908l0.441,1.547l-0.077,0.046l3.715,2.188l4.128,2.29l3.712,1.936l3.829,1.878l3.765,1.744l4.415,1.91l3.979,1.607l4.88,1.832l3.772,1.308l3.547,1.151l3.362,1.021l3.017,0.864l3.634,0.976
					l2.905,0.723l2.878,0.67l4.009,0.861l5.876,1.116l4.847,0.788l0.764-0.624l0.582-0.907l0.377,1.229l0.278,1.187l0.704,0.614l0.874,0.193l0.758,0.475l0.803,0.172l0.88-0.15l0.836,0.205l0.874,0.586l0.684,0.589l0.808,0.572l0.72,0.676l0.759,0.373l0.825-0.299
					l1.69,0.481l0.933,0.083l0.897,0.39l1.127-0.42l1.458-1.848l-0.002,0.944l0.302-0.121l0.765-1.394l-0.212,0.855l0.115,0.373l0.229-0.127l0.8-0.883l0.001-0.943l0.317-0.34l1.696,0.717l0.915,2.253l0.083-1.958l1.794,0.359l1.233,2.86l0.551,0.407l2.348-0.179
					l-0.331,1.428l0.918,1.308l-0.214,0.855l0.167,0.67l0.697,0.417l-0.324,0.411l0.207,0.162l-0.182,0.421l0.102,0.59l0.367-0.043l0.101-0.356l0.218,0.017l0.416,1.197l0.966-0.214l1.767,0.719l1.109-0.202l2.071,0.527l1.389-0.036l0.107,0.516l2.179,0.1
					l0.489,0.257l0.362,0.972l0.812,0.792l0.646,0.122l0.23,0.818l-0.163,0.206l1.074,1.174l-0.596,0.172l-0.498-0.184l0.217,0.961l-0.173,0.351l-1.444-0.187l-0.614-0.557l-0.551,0.538l-0.083-0.805l-0.224,0.053l0.063-0.795l-0.462,0.328l-0.477-1.348l-0.864-0.14
					l0.771,2.241l-0.213,0.856l-0.921,1.527l0.172,2.414l-0.146,0.935l-1.401,1.123l-0.591,0.101l-0.293,1.868l0.385,0.684l-0.113,0.5l-0.741,0.16l-0.629-0.34l-0.588,0.972l-0.051,0.65l2.108,0.093l1.268-1.281l0.813-0.156l0.594-1.043l1.356-0.547l1.794,0.359
					l1.473-1.12l1.992-0.279l1.662,0.203l-0.668-1.726l-1.035,0.211l-1.289-0.321l1.842-2.109l3.075-1.067l3.351,0.047l-0.651-0.998l0.664-0.094l0.195,0.305l2.734-1.383l0.654-0.895z"/>
				<path d="M152.789,167.514l0.604-0.243l0.113,1.317l0.164-0.205l0.273-0.707l0.223-0.055l-0.471,1.346l-2.151-0.461l-1.75-0.937l2.995-0.056"/>
				<path d="M152.299,137.59l1.193-0.343l1.148,0.236l0.888,1.67l-0.94-0.074l-1.042-0.664l-1.5-0.409l0.252-0.416"/>
				<path d="M213.103,152.626l-0.21-0.089l0.105,0.517l-0.949,3.707l0.166,1.613l1.699,0.642l1.089-0.86l1.475-2.064l-0.273-0.239l-0.167-0.668l-0.573-0.118l-0.137,0.791l-0.254-0.456l-1.017,0.863l0.292-0.922l-0.358-0.101l-0.04-2.258l-0.467-0.545l-0.381,0.188"
					/>
				<path d="M38.561,114.97l0.503-0.833l-0.753-0.641l-0.039-0.438l-0.614,0.388l-0.227-0.818l0.396-0.405l0.715,0.201l1.995,3.356l2.004,2.34l-0.157,1.077l0.404,2.286l-0.292,0.922l1.218,2.133l0.211,1.033l-0.384,2.079l-0.022,0.29l0.308-0.193l-0.136,0.788
					l-0.753,0.305l-0.344-0.245l-1.031-1.753l-0.944-0.947l0.702-0.6l-0.736,0.088l-0.153-0.812l0.088-0.211l0.663-0.094l-0.399-0.468l-0.374,0.116l-0.836-0.502l-0.166-0.666l0.556,0.333l-0.053-1.167l-1.33-1.632l0.123-0.645l1.422,0.475l-0.753-0.64l0.113-0.5
					l-0.369,0.042l0.046-0.577l-0.372-0.829l-0.445,0.11l-0.106-0.516l0.547-0.468l-0.25-0.528l-0.391,0.333l-0.021-0.656l-0.92-0.363l0.493-0.688l0.05-0.651l0.769,0.425l0.044,0.366"/>
				<path d="M200.501,143.199l3.992,0.241l1.125,0.525l0.958-0.143l0.736,0.858l-1.369,0.692l-3.272-0.111l-0.813-0.792l-2.43-0.627l-0.127-0.229l1.199-0.415"/>
				<path d="M217.673,129.79l-0.812,1.026l0.066,1.024l-0.34,0.627l0.155,0.813l-0.587,0.972l0.496,0.184l-0.18,0.423l0.122,1.245l0.562,0.262l-0.702,0.598l-0.064,1.74l0.371,0.832l-0.373,0.116l-0.203,0.71l-0.04,0.505l0.575,0.119l0.236,0.673l-0.89,0.221
					l-0.015,2.037l-0.318,0.337l-0.271-0.239l-0.65,0.821l1.642-0.454l0.339,0.317l-1.482,3.084l0.161,0.74l0.405,0.395l0.664-0.092l2.299-1.42l3.649-0.948l1.462-0.976l0.755-1.25l0.217,0.962l-0.582,0.898l1.657-0.669l0.152-1.005l1.401-0.182l-0.694,1.4
					l-0.243,1.217l-0.938,0.8l0.106,0.516l0.584-0.027l1.017-0.863l0.531-2.14l0.854-0.662l-0.18-2.34l0.379-0.188l1.291,2.137l0.258,2.273l0.442-0.038l0.365-1.86l0.351,0.172l0.455,1.635l0.479,0.401l0.274-0.703l0.668-0.167l-0.376-3.52l-0.423-1.125
					l-0.363-0.028l-0.12,1.517l-0.351-0.172l-0.305-0.752l-0.185-2.269l-0.598,1.117l-0.071,1.812l-0.234,0.201l-0.623-0.413l-0.133-1.102l-0.835-0.502l1.314-1.86l-0.021-0.656l-0.195-0.306l-0.898,1.238l-0.861,0.733l-0.207-0.162l0.249-1.291l-0.647-0.124
					l0.273-1.649l0.116-0.5l0.168-0.279l-1.602-0.052l-0.771,0.521l-0.562-0.261l-1.839,2.036l0.042-1.452l-0.352,0.773l-1.413,0.326l-0.167-0.667l-0.511,0.031l0.994-1.521l-1.635,0.38l-0.098-0.589l-0.302,0.122l-0.641,2.568l-0.399-0.469l-0.268-1.257
					l0.505-2.723l-0.476-1.347l0.338,0.317l0.337-0.555l-0.122-1.246l-0.495-0.184l-0.118-0.374l0.536-0.32l0.068-0.869l-0.188-0.377l-1.412,1.27"/>
				<path d="M203.834,155.532l0.01,0.801l1.168,0.893l0.75-0.233l1.594,0.126l2.344-1.053l0.122,0.301l-0.883,1.02l0.229,0.819l-0.463,0.327l-0.725-0.057l-0.317-0.608l-0.501-0.111l-0.108,0.427l-1.024,0.065l-0.647-0.123l-0.333-0.391l-0.519,0.104l-0.485-0.327
					l-0.045-0.368l-0.792-0.135l-0.176-0.522l0.675-1.183l0.129,0.228"/>
				<path d="M224.353,147.766l0.479,1.346l0.161-0.206l-0.361-0.973l-0.278-0.168"/>
				<path d="M198.881,115.584l-0.066-0.077l-0.224,0.055l0.29,0.022z"/>
				<path d="M142.068,74.831l0.158,1.685l-0.106,0.428l-0.618-0.485l0.041-1.451l0.244-0.345l0.281,0.168"/>
				<path d="M179.1,102.832l-0.134-0.157l0.15,0.883l0.137,0.085l0.661-0.968l-0.177-0.522l-0.446,0.111l-0.19,0.567"/>
				<path d="M183.789,96.074l0.78,0.279l0.227,0.819l-0.668,0.164l-0.692-0.489l-0.3,0.121L183.09,96.6l0.699-0.526"/>
				<path d="M146.854,84.441l0.985,1.388l-0.725-0.057l-0.529-0.695l-0.701-1.292l0.97,0.657"/>
				<path d="M158.942,93.027l1.207,0.387l0.318,0.605l-0.791-0.133l-0.484-0.33l-0.25-0.529"/>
				<path d="M157.148,94.486l0.396-0.405l0.938,0.146l0.452,0.763l-0.488,0.617l-1.297-1.122"/>
				<path d="M127.652,68.025l-0.178-0.522l-0.35-0.174l0.101-0.355l-0.753-0.642l-0.736,1.034l0.048,0.293l-0.506-0.038l0.003,0.872l-0.395,0.404l-1.251,0.12l-0.274,0.705l0.468,0.546l0.017-0.216l0.374-0.117l0.451,0.762l0.307-0.193l1.068,1.247l1.694,0.715
					l0.403-0.477l0.686-0.383l0.424,0.179l0.402-0.477l-0.448,0.11l-0.327-0.462l-0.194-1.251l-1.034-1.681"/>
				<path style="stroke-linecap:round;stroke-linejoin:round;" d="M157.153,76.534l0.94,1.971l1.813-0.614l0.896-1.194l-0.029-1.754l-0.996-1.242l-1.787,0.273l-0.836,2.56"/>
				<path d="M130.138,32.736l0.223-0.055l0.511,0.913l-1.086-0.087l-0.227-0.816l0.58,0.046"/>
				<path d="M133.099,43.294l-0.569,0.754l-0.286-0.095l0.034-0.433l0.681-0.311l0.168-0.278l0.261,0.385l0.05,0.294l-0.235,0.202l-0.104-0.519z"/>
				<path d="M160.82,74.706l0.57-0.754l0.194,0.306l0.931,0.219l0.383,0.683l-0.245,0.346l-1.167-0.02l-0.483-0.33l-0.184-0.451"/>
				<path d="M133.379,49.933l1.834-0.146l0.752,0.64l0.3-0.123l0.178,0.524l1.1-0.057l1.125,0.523l-0.538,1.268l-0.435-0.035l-0.089,0.211l0.14,0.083l-0.018,0.216l-0.354,0.773l-0.45,0.182l0.212,0.09l-0.181,0.421l-0.987,1.449l-1.276-0.464l-1.389,0.038
					l0.557,0.333l0.361,0.974l-1.062,1.444l-1.11,0.203l-0.273-0.239l0.468-0.4l-0.345-0.244l0.147-0.936l0.48-0.543l-0.447,0.112l-0.305-0.752l0.074-0.938l0.13-0.719l0.154-0.132l0.345-2.518l0.163-0.205l0.951,0.874l-0.405-0.396l0.046-0.578l-0.34-0.318
					l0.111-0.5l0.375-0.114"/>
				<path d="M150.604,42.344l-0.046,0.577l0.335,0.391l-0.881,0.076l0.313-1.212l0.279,0.167"/>
				<path d="M118.261,32.6l0.243,0.602l-0.234,0.2l-0.879-0.871l0.871,0.068"/>
				<path d="M154.27,69.901l0.442-0.038l-0.035,0.434l-0.234,0.199l-0.304,1.066l-0.831,0.372l0.207-0.783l0.576-0.828l0.013-0.145l0.166-0.276z"/>
				<path style="stroke-linecap:round;stroke-linejoin:round;" d="M147.883,100.105l1.613-0.388l1.694-1.795l-0.018-0.343l-1.273,0.053l-1.414,0.732l-0.603,1.741"/>
				<path style="stroke-linecap:round;stroke-linejoin:round;" d="M154.803,99.087l0.013,2.43l0.909,0.972l0.672-1.793l0.013-1.737l-1.606,0.128"/>
				<path style="stroke-linecap:round;stroke-linejoin:round;" d="M141.271,93.84l2.468,0.063l0.129,2.069l1.726-0.337l2.28-3.129l1.374-0.037l1.571,0.974l1.62,1.297l1.582-1.837l-1.905-0.914l-0.998-1.679l-1.399-1.316l-2.106-1.314l-1.761-1.709l-0.574-2.068
					l-1.717,1.712l-0.465,1.724l-0.341,2.403l0.4,2.423l-1.883,1.676"/>
				<path style="stroke-linecap:round;stroke-linejoin:round;" d="M138.66,60.187l1.201,1.811l0.896,2.129l1.196,1.773l2.207,1.432l2.012-0.001l2.877,0.604l1.406-0.427l2.289,1.563l1.136-0.806l1.079-2.198l1.033,1.614l2.693,1.719l-0.075,2.815l1.521-1.64
					l1.474,1.853l2.152,1.006l0.926,1.942l0.883,1.589l-0.787,1.575l-0.89,1.937l-1.135,1.612l1.904,1.778l-1.46,1.667l-2.294,0.357l-2.679-0.342l-0.119,1.409l-0.978,0.454l-0.41,1.785l1.231,1.608l2.701-0.325l1.19-1.223l1.98,0.041l1.964,0.721l1.772,0.372
					l1.709,0.724l0.353,1.7l1.83,1.039l1.54,0.361l2.023,0.232l0.872,0.862l1.984,0.562l1.917,0.195l1.98-0.223l-0.503-1.675l-1.779-0.934l-2.002-1.248l-1.724-0.979l-1.188-1.497l2.357,0.447l2.025,0.878l2.363,0.747l2.259-0.739l-0.44-2.819l-1.868-1.223
					l-0.793-1.953l-1.557-0.966l-2.335-1.1l-1.563-1.73l-0.377-2.8l3.307,1.169l1.581,2.05l2.384,0.662l-0.156-2.18l1.646-1.369l-0.232-1.791l0.14-2.703l-1.654-0.85l-4.115-1.45l-1.928-1.177l-2.349,0.767l-2.469-1.088l-0.579-2.009l1.702-1.234l-2.139-1.171
					l0.08-1.84l-1.721-1.67l-2.255-0.825l-2.552-1.873l-1.741-0.676l-2.098,0.075l-0.394-2.044l-0.665-1.282l-1.692,0.639l-1.46-0.618l-1.286-0.252l-1.28,1.542l-1.463,0.14l-1.168,1.333l0.266-2.095l-0.946-1.877l0.272-1.891l-0.659-0.998l-1.433,0.418
					l-1.636,1.427l-1.391,1.737l-0.228,3.8l0.426,1.728l-1.291-1.396l-0.142-3.459l0.535-1.718l0.705-1.166l1.75-1.12l-1.653-0.124l-1.836-0.028l-1.208,0.99l-1.393,1.657l-0.722,1.68l-0.65,1.681l-0.191,2.414"/>
				<path style="stroke-linecap:round;stroke-linejoin:round;" d="M150.396,51.918l-0.277,1.404l0.54,1.766l1.684,0.467l1.152-0.752l1.988,0.229l0.019-1.264l-0.651-1.652l-1.37-0.653l-1.661-0.02l-1.424,0.476"/>
				<path style="stroke-linecap:round;stroke-linejoin:round;" d="M132.668,45.812l1.205,0.99l1.625,0.883l0.31-2.193l-0.564-1.55l-1.203-0.196l-1.373,2.066z"/>
				<path style="stroke-linecap:round;stroke-linejoin:round;" d="M134.655,37.606l-0.357,1.477l0.822,1.896l1.842-0.072l0.945,1.166l0.138,1.755l-0.539,1.673l-0.054,2.084l2.114,1.103l2.025,0.401l1.86,0.276l1.961,0.008l1.175-1.405l1.703,0.97l1.888-0.818
					l0.483-1.781l-0.152-1.582l-1.892-0.891l-1.546,0.074l-1.808-0.375l-1.979,0.958l-2.054-0.569l-1.359-1.272l0.558-0.719l-1.006-0.915l-0.371-1.213l-1.677-0.198l-1.101-1.274l-1.619-0.759"/>
				<path style="stroke-linecap:round;stroke-linejoin:round;" d="M137.748,25.648l0.663,1.295l0.279,1.645l-0.585,1.385l0.014,1.885l0.92,1.65l2.347,0.206l1.071-1.464l0.747-1.903l1.072-1.014l0.015-1.59l-1.301-0.517l0.427-1.714l-0.552-1.061l-1.533-0.441
					l-0.611-1.305l-0.238-1.911l-0.995-0.121l-0.372,1.832l-1.064,1.305l-0.305,1.838"/>
				<path style="stroke-linecap:round;stroke-linejoin:round;" d="M141.528,19.859l0.139,2.098l1.077,1.452l1.863,0.044l1.336-0.572l1.891-0.113l1.921-0.691l-1.132,1.321l-1.939,0.835l-0.781,0.928l-1.529-0.672l-0.625,2.277l1.106,0.698l0.006,1.869l0.479,1.587
					l-1.146,0.483l-1.377,2.387l1.709,1.071l-2.129,0.292l-0.079,1.731l0.891,0.718l-1.099,0.444l-1.324,1.167l-0.121,1.724l1.7,0.445l2.55,0.389l1.144-0.7l1.325,0.298l1.022-0.748l0.668,1.339l1.873-1.212l0.993-1.856l-1.599-1.558l1.267-1.544l-0.473-1.33
					l1.821-0.613l0.339-2.17l-0.373-2.043l0.377-2.183l1.647-1.279l0.554-2.22l0.342-1.753l0.869-1.867l0.804-2.351l-0.331-0.985l0.524-1.479l0.289-1.264l-0.364-0.821l-1.099-0.13l-1.129-0.678l-1.511,0.02l-1.458-0.283l-1.34,0.34l-0.909,0.61l-1.212-0.073
					l-1.92,0.78l-0.872,1.442l-2.242,1.897l-0.021,0.901l-1.366-0.057l-1.026,1.657"/>
				<path style="stroke-linecap:round;stroke-linejoin:round;" d="M134.449,25.396l1.176,0.914l-0.443-1.876l-0.732,0.962"/>
				<path style="stroke-linecap:round;stroke-linejoin:round;" d="M128.647,26.647l0.017,0.89l1.094,1.119l-1.046,0.957l0.348,1.14l1.458,1.039l1.1,0.306l0.261,1.859l1.164-0.432l2.625,0.19l0.574-1.167l-0.163-1.083l-1.452-1.764l-0.509,1.661l-0.713,1.537
					l-0.787-0.396l0.017-1.497l0.412-1.611l-0.745-1.556l-1.192-0.349l-0.685-1.021l-1.029-0.357l-0.75,0.536"/>
				<path style="stroke-linecap:round;stroke-linejoin:round;" d="M134.403,34.881l1.473,1.112l1.728,0.747l0.857-0.797l-0.024-0.976l-2.167-0.447l-1.866,0.362"/>
				<path style="stroke-linecap:round;stroke-linejoin:round;" d="M126.959,32.812l-0.391,1.991l1.039,0.793l-0.044-1.544l0.282-1.293l-0.885,0.053"/>
				<path style="stroke-linecap:round;stroke-linejoin:round;" d="M126.04,37.263l0.145,1.874l-0.198,1.395l0.466,1.964l1.755-0.429l0.319,2.526l2.354,0.563l0.972-1.98l0.202-1.723l0.333-1.551l-1.154-1.472l-1.596-0.556l-0.942,0.952l-0.56,1.642l-0.518-1.741
					l-0.594-1.355l-0.983-0.107"/>
				<path style="stroke-linecap:round;stroke-linejoin:round;" d="M124.295,43.104l1.215,0.328l-0.245-1.531l-0.971,1.203"/>
				<path style="stroke-linecap:round;stroke-linejoin:round;" d="M123.503,52.441l0.354,1.338l-0.042,1.647l1.329,0.359l0.813,1.999l0.694,2.295l1.809-1.015l1.949-0.319l0.659-2.34l-0.075-2.398l-1.533-1.087l1.562-1.66l-0.341-2.179l-1.403,0.61l-1.418-0.701
					l-1.385,0.349l-0.559,1.287l0.557,2.152l-1.724-0.614l-1.247,0.278"/>
				<path style="stroke-linecap:round;stroke-linejoin:round;" d="M121.5,27.772l1.42,0.483l0.531,0.863l1.158,0.374l0.826-0.473l-1.058-1.378l-1.833-0.508l-1.043,0.639"/>
				<path style="stroke-linecap:round;stroke-linejoin:round;" d="M119.514,28.264l0.068,1.074l0.684,0.133l0.531-1.289l-1.283,0.082"/>
				<path style="stroke-linecap:round;stroke-linejoin:round;" d="M120.658,29.677l-0.373,1.376l1.074,0.912l1.74-0.336l0.903-1.646l-0.886-0.324l-1.184,0.117l-1.274-0.101"/>
				<path style="stroke-linecap:round;stroke-linejoin:round;" d="M111.177,34.581l0.65,0.916l0.953-0.717l1.13-1.184l-1.513,0.201l-1.22,0.784"/>
				<path style="stroke-linecap:round;stroke-linejoin:round;" d="M108.933,29.562l-0.102,1.933l1.08,0.537l0.917,1.06l1.684-0.543l1.241-0.854l0.733,1.439l2.004-0.831l0.433-1.514l1.39-0.409l-0.461-1.468l-1.321,0.586l-1.217-0.939l-1.317,0.041l-1.538,0.286
					l-1.784,0.682l-1.74-0.006"/>
				<path style="stroke-linecap:round;stroke-linejoin:round;" d="M111.983,36.746l1.052,1.188l0.673,1.182l1.507-0.53l0.31,1.726l-1.599,0.107l0.068,1.06l1.087,0.943l1.297,0.096l1.471-0.547l1.5-0.244l2.011,1.051l1.38,0.153l0.793-1.632l0.886-1.45l-1.047-1.049
					l-0.981-1.809l0.24-2.009l-1.099,0.51l-1.242,0.956l0.574,0.947l-0.677,0.914l0.068,1.547l-1.787-1.114l0.095-1.57l-0.221-1.27l-0.907-1.642l-1.114-0.851l-1.266,0.875l-3.074,2.463"/>
				<path style="stroke-linecap:round;stroke-linejoin:round;" d="M102.675,48.934l0.902,1.701l-1.105,0.967l0.572,1.725l1.834,1.432l1.79,0.795l1.128,1.885l-2.145,0.1l-1.876-0.999l-1.653-0.682l-0.851,2.485l1.104,1.804l1.855,0.976l-0.34,2.939l2.063,0.678
					l2.479,0.646l2.601-0.058l2.101,0.072l1.979-0.762l0.798,1.817l1.412,1.696l1.959,0.016l1.893-0.768l-0.3-1.66l1.719,0.106l0.719-1.813l-2.051-1.353l-1.572-1.629l-0.811-1.933l0.984-2.227l-0.006-2.343l0.17-1.774l1.606-1.504l1.046-1.254l-0.558-1.434
					l-1.791-0.489l-1.672,1.591l-1.429,1.677l-1.27-2.027l-1.651-0.05l-0.792-1.437l-2.144,0.646l0.655-2.398l-1.239-0.65l-1.543,0.504l-1.713-0.1l-1.602,0.259l-0.611,1.015l-1.497,0.391l-1.148,1.421"/>
				<path style="stroke-linecap:round;stroke-linejoin:round;" d="M97.208,42.563l0.394,2.518l-0.648,2.582l2.063,0.184l1.487,0.59l2.148-1.089l1.957-2.072l4.222-0.447l2.092-0.262l-0.852-2.074l-0.099-2.089l-1.765-1.097l-1.048-1.967l-1.98-0.127l-2.014-0.647
					l-0.868,2.42l-1.543,1.55l-3.546,2.026"/>
				<path d="M78.144,41.007l-0.391,0.333l-0.113,0.499l0.207,1.106l0.289,0.024l0.214-1.802l-0.207-0.161"/>
				<path d="M79.343,41.537l0.208,0.161l0.099-0.354l0.468,0.545l0.229-0.127L80.14,41.6l0.596-0.17l0.174-0.351l0.144,0.012l-0.358,0.844l0.407,0.395l-0.457,0.254l-1.998,0.353l-0.255-0.456l0.284,0.095l0.084-0.139l-0.039-0.44l0.437-0.91l0.183,0.45"/>
			</g>
			<text transform="matrix(1 0 0 1 87.3735 118.8745)"><tspan x="0" y="0" style="fill:#000000;stroke:none;">Canada</tspan></text>
		</g>
		<g>
			<path style="stroke-linecap:square;" d="M122.418,296.257l0.627-0.605l0.208,0.042l0.126-0.481l-0.292-0.688l0.334-0.481l-0.126-0.271l1.567-0.835l2.402-1.818l0.167,0.168l0.313-0.083l0.564-0.356l0.919-0.438l0.522,0.021l0.084,0.25l0.522,0.273l0.48-0.189
				l1.839,0.439l0.438-0.188l0.962,0.083l0.377-0.063l0.354,0.167l0.521-0.167l0.523-0.271l0.731-0.125l0.021-0.294l0.167-0.103l1.692,0.605l1.672-0.167l0.292-0.167l1.318,0.522l0.167,0.458l0.522-0.083l0.084-0.168l0.918,0.104l1.254,1.462l0.836,0.481
				l1.274,0.669l0.438,0.774l0.252,0.166l-0.063,0.147h0.021l-0.565-0.231l-0.563,0.042l-0.524,0.438h-0.25l-0.313,0.272l-0.794,0.252l-0.605-0.085l-0.146,0.209l-0.461-0.083l-0.125,0.25l-0.23-0.084l-0.522,0.272l-0.962-0.272l-0.313-0.521h-0.376l-0.564,0.355
				l-0.042,0.167l-0.083,0.084l0.167,0.188l-0.188,0.209l-0.294-0.083l-0.313,0.751l0.083,0.168l-0.333,0.229l-0.23,0.041l-0.899,0.837l-0.877,0.522v0.397h-0.23l-0.439-0.397l-0.396-0.229l-0.209-0.293l-0.48,0.334l-0.793,0.836l-0.858-0.084l-0.835,0.125
				l0.104,1.651l0.083,0.146l-0.229,0.168l-0.335-0.106l-0.439,0.46l-0.021,0.48l-0.396,0.293l-1.211-0.083l-0.084-0.313l-0.397-0.398l-0.209-0.501l0.439-0.417l-0.208-0.083l-0.314,0.165l-0.354-0.165l-0.167,0.188l-0.439-0.084l-0.125-0.062l0.375-0.293
				l-0.25-0.481l0.439-1.044l-0.479-0.397l-0.836,0.042l-0.25-0.313l-0.523-0.146l-0.627,0.418h-0.479l-0.084-0.354l-0.835-0.314l-0.063-0.292l-0.396-0.126l-0.355-0.354l-0.439-0.439l-0.523-0.292l-0.835-0.355"/>
			<text transform="matrix(1 0 0 1 133.373 296.0034)"><tspan x="0" y="0" style="fill:#000000;stroke:none;">Honduras</tspan></text>
		</g>
		<g>
			<path style="stroke-linecap:square;" d="M111.26,293.604v-0.313l0.335-0.334l-0.46-0.627l2.132-3.49l5.14,0.251l0.062-0.689l0.209-0.46l-0.647-0.542l-0.313-0.314l-0.042-0.334l-0.356-0.564l-0.856-0.563l-0.355-0.209l-0.835-1.107l-0.418-0.209l1.609-0.084
				l0.293-2.276l7.209,0.355v0.919l-0.273,3.781l-0.271,3.364h1.001l0.398,0.272l0.522,0.25l0.229,0.438l0.522-0.563l-0.271-0.273h0.271l1.045,0.732l0.125,0.104l-2.402,1.818l-1.567,0.835l0.126,0.271l-0.334,0.481l0.292,0.688l-0.126,0.481l-0.208-0.042
				l-0.627,0.605l-0.773,0.083l-0.104,0.168l0.188,0.522l-0.794,0.481l-0.209,0.312l-0.356-0.126l-1.044,0.815l-0.125,0.523l-0.021,0.021l-1.817-0.941l-2.737-0.167l-1.026-0.501l-2.61-2.111l-0.188-0.209h0.02l0.314-0.48l-0.125-0.752l0.25-0.292z"/>
			<text transform="matrix(1 0 0 1 75.4399 300.4438)"><tspan x="0" y="0" style="fill:#000000;stroke:none;">Guatemala</tspan></text>
		</g>
		<g>
			<path style="stroke-linecap:square;" d="M122.418,296.257l0.835,0.355l0.523,0.292l0.439,0.439l0.355,0.354l0.396,0.126l0.063,0.292l0.835,0.314l0.084,0.354h0.479l0.627-0.418l0.523,0.146l0.25,0.313l0.836-0.042l0.479,0.397l-0.439,1.044l0.25,0.481
				l-0.375,0.293l-0.147-0.084l-0.125,0.062v0.168l0.188,0.209l-0.711,0.522l-2.089-0.209l-0.313-0.313l-0.125,0.188l-1.295-0.419l-1.672-0.898l-1.965-0.312l-0.292-0.397l-0.856-0.459l0.021-0.021l0.125-0.523l1.044-0.815l0.356,0.126l0.209-0.312l0.794-0.481
				l-0.188-0.522l0.104-0.168l0.773-0.083z"/>
			<text transform="matrix(1 0.0041 -0.0041 1 74.3276 308.6816)"><tspan x="0" y="0" style="fill:#000000;stroke:none;">El Salvador</tspan></text>
		</g>
		<g>
			<path style="stroke-linecap:square;" d="M127.433,279.772h0.083l-0.042-0.208h-0.773l-0.313,0.688l-0.354,0.396l-0.084,0.21l-0.648,0.919l-0.836-0.396l-0.418,0.188v0.293l-0.083,0.23v0.919l-0.273,3.781l-0.271,3.364h1.001l0.712-0.96l0.354-0.397h0.46
				l0.479-0.522l0.23-0.523l0.293-0.354l0.48-1.819l-0.292-0.648l0.417-1.189l-0.125-0.439l0.209-0.606l0.669-1.797l-0.125-0.773l-0.543-0.041h-0.333l-0.126-0.189l0.25-0.125z"/>
			<text transform="matrix(1 0 0 1 128.4917 286.1821)"><tspan x="0" y="0" style="fill:#000000;stroke:none;">Belize</tspan></text>
		</g>
	</g>
</svg>
