<?xml version="1.0" encoding="iso-8859-1"?>
<!DOCTYPE svg >

<svg  width="711.248pt" height="601.749pt" viewBox="0 0 711.248 601.749" xml:space="preserve">
	<g id="Layer_x0020_1" style="fill-rule:nonzero;clip-rule:nonzero;stroke:#000000;stroke-miterlimit:4; font-family:'Arial'; font-size:10;">
		<g>
			<path style="fill:#FFFFFF;stroke-linecap:round;stroke-linejoin:round;" d="M454.001,323.141l7.55,0.971l2.044-3.136h2.343l4.507,5.786l5.275-13.523l3.44,3.229l2.982,0.335l2.984,4.233l7.979-1.095l1.521-2.71l4.043,3.411l4.946-2.132l6.366,2.344l5.269-0.605
				l9.772,4.963l8.309,9.655l9.507,6.64l4.29,6.88l5.029,3.046l3.019,4.817l-0.085-0.154l-0.889,0.976l-2.135,10.355l-3.957,7.918l0.607,3.045l2.133,1.825l7.004,0.308l0.913-1.219l3.959-1.526l4.266,3.045l-1.522,3.352l2.136,7.007l11.878,14.01l6.699,4.875
				l2.124,2.436l53.003,18.577l16.44-0.61l-3.043,4.873l-46.294,48.729l-20.407,0.302l-9.137,4.266l-7.912,6.704l-10.364,3.349l-5.171,2.742l-1.22,1.522l-8.834,0.299l-10.356-5.176l-12.183,3.046l-4.563,5.174l-7.623,3.965l-7.611-0.303l-7.303-1.835l-5.182-0.298
				l-6.391-2.129l-3.664-3.658l-11.875-7.304l-5.482-2.44l-9.744,0.304l-4.261-1.524v-12.487l-2.438-1.525l-7.006-1.521l-3.048-1.825l-7.916-18.582l-7.314-4.264l-2.428-2.434l-1.828-2.745l-0.617-3.042l-2.739-3.352l-2.743-1.521l-3.346-0.912h-2.74l-6.39-3.046
				l1.521-2.439l1.825-1.521l-0.305-4.873l3.043-0.912l7.308,0.605l5.793-3.651l-0.306-18.89l1.524-8.523l-0.615-5.18l1.217,0.612l2.751-6.092l2.433-1.825h3.649l1.218-1.522l2.44-12.491l10.356-15.231l2.74-3.044l2.74-0.911l2.124-2.435l4.271-18.275l-0.413-4.247
				l0.107,0.166z"/>
			<text transform="matrix(1 0 0 1 479.5317 436.8574)"><tspan x="0" y="0" style="stroke:none;">Ethiopia</tspan></text>
		</g>
		<g>
			<path style="fill:#FFFFFF;" d="M91.275,171.896l-0.911,24.976l0.598,1.827l4.88,10.966l3.652,3.35l7.007,3.656l-4.568,7.005l-4.875,23.753l-2.432,29.54l-29.24,31.678v3.351l-1.826,0.916l0.308,3.042l-2.744,0.305l-1.224,1.522l-0.302,2.13l0.609,1.217
				l4.875,1.829l3.651,2.746l1.83,2.433l1.218,6.701l5.173,1.219l3.657-0.611l4.262,1.524l2.437-0.609l2.445,4.569l-1.524,3.961l-3.357,2.133l-4.566,1.521l-0.611-0.307l1.224,1.523l1.828,8.833l2.437,4.872l-1.831,15.839l2.746,6.395l4.863,6.398l0.924,4.868
				l-1.829,1.524l-10.967-1.828l-5.788,0.914l-2.738,2.435l-0.308,4.877l0.608,3.654l3.35,4.565l2.443,1.526l6.393,2.132l3.049,3.65l3.346,8.834l1.517,10.965l1.226,1.83l1.215-0.917l4.571-0.608l5.175,0.608l3.049-2.741l4.569-0.607l0.3-2.438l1.832-0.61
				l1.822,0.304l0.923,1.832l3.341,3.042l2.131-1.83l2.749-0.604l4.258-2.743l6.697-2.739l4.569,0.305l2.443-1.218h7.917l1.53-3.05l3.042-1.213l0.913-2.74l2.434-2.441l-2.739-3.654l0.911-2.433l3.051-1.221l9.74-0.304l6.396-1.829l3.65,0.612l2.444-0.914
				l2.435-3.351l5.786-2.134l2.129-4.57l5.187-4.872l2.736-1.216l2.124-3.047l1.831-0.605v-4.875l1.831-3.654l1.52-1.83l13.398-2.741l2.747-1.219l-0.305-2.433l-0.92-3.049l-3.041-3.045l-4.267-10.657l-1.216-4.875l0.309-5.174l-7.922,1.824v-4.87l3.039-7.917
				l0.617-7.619l3.655-3.044l-0.311-7.919l5.184-5.479l3.35-5.482l1.522-3.044l0.911-6.094l7.005-1.525l10.962-0.304l-0.917-64.259l-2.433-0.308L108.33,166.415l-17.055,5.481z"/>
			<text transform="matrix(1 0 0 1 140.7329 293.2114)"><tspan x="0" y="0" style="stroke:none;">Chad</tspan></text>
		</g>
		<g>
			<path style="fill:#FFFFFF;" d="M250.858,26.318l-2.124,0.611l-2.748,4.566l0.919,3.046l1.217,14.009l-2.438,1.524l-1.219,2.437l0.61,5.482l2.74,3.959l-0.608,3.349l4.877,4.569l3.957,119.998l0.609,32.894l-16.148,0.303v9.745l-2.433-0.308L108.33,166.415
				l-17.055,5.481l-5.175,1.526l-3.049-3.96l-6.703-4.263l-2.744-0.614l-11.57-1.216l-21.926-0.303l-2.437,0.915l-1.829-5.787l-4.566-8.531l-8.526-3.956h-8.835l-3.963-4.264l-0.607-9.138l-2.743-4.57l-4.867-6.091l-1.214-3.652l0.605-2.441l5.785-2.435
				l1.523-15.838l1.214-6.087l0.305-3.354l-0.607-2.436l0.917-14.314l-1.213-6.395l-5.792-9.749l0.91-4.264l2.744-1.824l0.307-0.612l3.653-0.304l3.653-2.133l4.57-5.175l0.609-2.438l-1.22-7.308l0.31-2.435l1.821-2.441l6.091-3.045l1.832-2.742l10.044-6.698
				l1.528-2.437l0.608-10.354l13.708,5.787l6.09,0.302l5.484-1.523l10.958,1.831l20.104,7.612l1.52,1.522l0.917,6.699l2.745,3.962l3.958,4.261l6.097,2.133l10.04,0.609l12.485,3.657l3.964,2.741l4.872,1.214l6.396,6.397l4.27,1.524h3.953l5.481-2.134l5.484-4.57
				l3.35-5.479l0.302-2.133l-1.526-3.046v-2.737l-1.825-2.743v-3.958l0.919-3.352l5.79-5.787l5.478-3.96l4.568-2.129l7.92-1.829l8.528-0.306l12.184,3.658l2.742,1.523l0.298,2.432l-0.915,0.308l0.617,1.826l2.738,2.131l6.699,0.612l7.919,2.741l11.578,0.916
				l2.432,1.217l1.823,3.653z"/>
			<text transform="matrix(1 0 0 1 134.6982 107.0991)"><tspan x="0" y="0" style="stroke:none;">Libya</tspan></text>
		</g>
		<g>
			<path style="fill:#FFFFFF;" d="M572.479,371.077l-5.484,9.746l-1.522,3.352l2.136,7.007l11.878,14.01l6.699,4.875l2.124,2.436l53.003,18.577l16.44-0.61l-3.043,4.873l-46.294,48.729l-20.407,0.302l-9.137,4.266l-7.912,6.704l-10.364,3.349l-5.171,2.742
				l-1.22,1.522l-7.005,11.876l-7.923,7.613l0.306,64.869l9.44,11.579v1.521l16.449-18.884l2.136-4.266l-1.226-1.213l0.915-1.221l1.222,0.308l3.647-0.918l11.274-12.49l24.362-21.624l8.834-2.742l6.397-4.257l8.218-8.227l1.831-4.569l8.229-6.095l5.168-6.695
				l7.309-6.697l5.79-8.528l3.653-8.835l10.968-10.966l2.129-5.784l2.131-9.442l9.443-18.883l0.915-5.785l4.264-4.872l1.221-4.264l2.432-3.05l2.132-5.18l3.048-3.042l0.914-4.57l-0.302-5.173l1.217-10.354l1.827-1.223l2.132-0.305l2.137,1.217l0.909-0.605v-1.218
				l-2.437-1.218l-0.917,0.912l-2.125-0.305l2.125-2.738l-0.918-7.311l0.614-1.526l-1.821-1.822l-0.308-2.745l2.129-3.96v-3.653l-3.348-0.612l-3.352-2.13h-2.74l-2.442,0.61l-1.205,3.351l-5.489,2.435l-4.264,1.223l-6.093,0.303l-1.222,1.217l-3.346,0.302
				l-5.179,2.134l-5.786-0.608l-5.787,3.043l-8.528,0.913l-3.349-1.217l-3.649,0.61l-3.355,3.044l-3.045,0.917l-2.743,2.74l-3.046,0.607h-3.346l-2.437-1.522l-3.651,0.304l-4.272-1.523l-1.518,1.523l-6.703,3.047l-4.869,3.35h-6.703l-2.133,0.609l-6.394-3.351
				l-5.475-5.179l-6.709-8.527l-2.435-2.133z"/>
			<text transform="matrix(1 0 0 1 621.4321 416.4395)"><tspan x="0" y="0" style="stroke:none;">Somalia</tspan></text>
		</g>
		<g>
			<path style="fill:#FFFFFF;" d="M250.858,26.318l0.913,1.526l1.827,0.609l9.141-1.22l15.537,2.133l5.475,1.823l3.655,2.133l6.403,0.914l2.734,1.829l7.926,0.304l7.305,3.654l8.528-3.349l3.961-3.047l7.311-4.26l6.391-1.22l0.608,0.609l-3.349,1.22l-0.604,1.214
				l0.909,0.305l5.178-1.217l2.436-2.434l9.746,0.911l3.353-1.521l1.214,2.133l2.742,1.823l0.917,1.526l-4.873-3.657l-0.911,0.308l-0.305,1.823l0.305,1.526h3.957l-0.614,1.826l0.918,1.827l2.127-0.61l0.302-1.827l-0.905-1.828l3.042,1.219l2.751,2.742h5.773
				l2.134-1.217l1.527,1.521l6.392-0.914l4.877-2.132l3.044-2.435l9.134,21.015l6.098,11.879l-4.572,18.271v6.395l-3.047,2.131l-2.435-0.302l-2.437-1.524l-10.662-11.57l-1.521-4.873l-8.532-10.662l-1.826-5.48l-1.823-3.045l-1.225,1.218l0.619,1.217l-1.226,1.829
				l-0.293,3.045l4.257,4.87l1.517,7.008l4.879,7.611l5.781,5.786l3.667,2.132l1.21,6.702l4.876,6.394l4.563,11.879l4.268,6.392l2.133,4.572l3.041,3.658l11.576,19.489l10.659,9.135v0.913l-3.962-0.913l-0.909,0.913l1.208,2.742l0.621,7.006l1.518,3.656
				l-6.091,5.786l-3.955-1.521l-3.352,8.833l-8.526,2.433l-1.828,7.01l-7.618,0.604l-6.095-3.958h-28.928l0.919-3.047l-1.832-0.608l-2.437,3.655l-102.027,0.306L252.083,69.87l-4.877-4.569l0.608-3.349l-2.74-3.959l-0.61-5.482l1.219-2.437l2.438-1.524
				l-1.217-14.009l-0.919-3.046l2.748-4.566l2.124-0.611z"/>
			<text transform="matrix(1 0 0 1 308.8599 124.9722)"><tspan x="0" y="0" style="stroke:none;">Egypt</tspan></text>
		</g>
		<g>
			<path style="fill:#FFFFFF;" d="M427.81,170.376l-6.091,5.786l-3.955-1.521l-3.352,8.833l-8.526,2.433l-1.828,7.01l-7.618,0.604l-6.095-3.958h-28.928l0.919-3.047l-1.832-0.608l-2.437,3.655l-102.027,0.306l0.609,32.894l-16.148,0.303v9.745l0.917,64.259
				l-10.962,0.304l-7.005,1.525l-0.911,6.094l-1.522,3.044l-3.35,5.482l-5.184,5.479l0.311,7.919l-3.655,3.044l-0.617,7.619l-3.039,7.917v4.87l7.922-1.824l-0.309,5.174l1.216,4.875l4.267,10.657l3.041,3.045l0.92,3.049l0.305,2.433l-2.747,1.219l13.705,17.364
				l1.521,4.868l-2.43,10.663l0.604,4.265l3.354,3.046l7.612,1.516l2.139,4.576l3.346,1.521l7.004,0.302l5.482,4.264l0.607,1.22l-0.304,3.353l1.828,3.346l11.57,7.617l2.744,3.349l3.354,1.831l2.737,6.696l2.433,3.049l0.617,3.35l3.044,0.909l9.435,6.099l1.83,3.039
				l0.61,3.655l1.527,2.131l2.122,3.65l3.965,2.742l3.655,5.789l7.313,3.046l1.826-1.216l2.125-2.436l8.225,1.825l3.658-0.298l4.261-3.352l3.349,2.129l7.921,8.22l4.264,2.438l4.867,4.563h1.839l2.432-1.827l4.262-0.293l3.657,1.208l7.004-1.208l1.829,2.741
				l9.749-1.533l4.263-1.817h10.955l8.226-5.187v-1.214v1.214l5.176-6.39l3.659-2.139l17.362,0.308l6.701-0.913v-12.487l-2.438-1.525l-7.006-1.521l-3.048-1.825l-7.916-18.582l-7.314-4.264l-2.428-2.434l-1.828-2.745l-0.617-3.042l-2.739-3.352l-2.743-1.521
				l-3.346-0.912h-2.74l-6.39-3.046l1.521-2.439l1.825-1.521l-0.305-4.873l3.043-0.912l7.308,0.605l5.793-3.651l-0.306-18.89l1.524-8.523l-0.615-5.18l1.217,0.612l2.751-6.092l2.433-1.825h3.649l1.218-1.522l2.44-12.491l10.356-15.231l2.74-3.044l2.74-0.911
				l2.124-2.435l4.271-18.275l-0.413-4.247l-1.11-11.287l0.916-5.481l1.825-4.263l2.13-10.354l0.618-8.835l1.819-9.136l3.963-0.302l2.434-1.827l1.526-2.137l12.48-5.477l1.83-4.571l0.309-3.045l-0.917-2.74h-1.522l-1.217-0.914l-1.527,0.604l-1.823-3.652
				l-1.831-1.521l-6.696-2.438l-2.131-1.218l-1.831-2.438l-3.958-16.14l-2.43-21.625l0.904,0.302l-0.904-1.829l-4.572-5.172l-1.835-8.227l-3.648-4.873l-3.05-1.218l-3.653-3.958l-7.916-3.35l-4.266-5.48z"/>
			<text transform="matrix(1 0 0 1 318.146 341.6089)"><tspan x="0" y="0" style="stroke:none;">Sudan</tspan></text>
		</g>
		<g>
			<path style="fill:#FFFFFF;stroke-linecap:round;stroke-linejoin:round;" d="M454.001,323.141l7.55,0.971l2.044-3.136h2.343l4.507,5.786l5.275-13.523l3.44,3.229l2.982,0.335l2.984,4.233l7.979-1.095l1.521-2.71l4.043,3.411l4.946-2.132l6.366,2.344l5.269-0.605
				l9.772,4.963l8.309,9.655l9.507,6.64l4.29,6.88l5.029,3.046l3.019,4.817l-0.085-0.154l2.161-2.377l9.74-5.785l-1.522-1.828l-1.83,0.611l-1.823-0.917l-1.828-3.652l-4.257-1.218l-3.359-6.091l-3.041-1.219l-2.441-3.958l-1.521,0.301l-2.74-1.217l-0.304-1.522
				l-7.614-9.746l-2.438-1.217h-3.349l-3.044-1.521l-2.438-3.05l-2.437-1.218l-1.824-0.302l-1.526,1.215l-1.519-0.302l-3.357-4.265v-3.653h-1.216l-1.216-1.528l-2.139,1.528l1.529,2.432l-0.31,1.832l-2.433-0.611v-2.133l-2.131-4.26l-2.742-1.221l-1.218-3.655
				l-3.044-2.739l-8.229-27.104l-5.169-8.833l-1.829-0.61l-0.309,3.045l-1.83,4.571l-12.48,5.477l-1.526,2.137l-2.434,1.827l-3.963,0.302l-1.819,9.136l-0.618,8.835l-2.13,10.354l-1.825,4.263l-0.916,5.481l1.11,11.287l0.107,0.166z"/>
			<text transform="matrix(1 0 0 1 467.7505 306.0273)"><tspan x="0" y="0" style="stroke:none;">Eritrea</tspan></text>
		</g>
		<g>
			<path style="fill:#FFFFFF;" d="M572.479,371.077l-5.484,9.746l-4.266-3.045l-3.959,1.526l-0.913,1.219l-7.004-0.308l-2.133-1.825l-0.607-3.045l3.957-7.918l2.135-10.355l0.981-1.08l2.068-2.273l9.74-5.785l5.484,7.005l0.604,6.7l-1.522,1.523l-3.347,0.61
				l-1.521,1.827l-2.438,0.61l-1.829,3.654l-2.437-0.61l-0.306,0.61l2.134,1.522l1.216-1.218l7.306-0.914l2.139,1.827z"/>
			<g>
				<text transform="matrix(1 0 0 1 581.4829 352.0713)"><tspan x="0" y="0" style="stroke:none;">Djibouti</tspan></text>
				<path style="fill:none;" d="M561.915,359.118l17.247-8.083"/>
			</g>
		</g>
		<g style="stroke:none;">
			<path style="fill:#FFFFFF;stroke:#000000;" d="M220.098,378.996l-13.398,2.741l-1.52,1.83l-1.831,3.654v4.875l-1.831,0.605l-2.124,3.047l-2.736,1.216l-5.187,4.872l-2.129,4.57l-5.786,2.134l-2.435,3.351l-2.444,0.914l-3.65-0.612l-6.396,1.829l-9.74,0.304
				l-3.051,1.221l-0.911,2.433l2.739,3.654l-2.434,2.441l-0.913,2.74l-3.042,1.213l-1.53,3.05h-7.917l-2.443,1.218l-4.569-0.305l-6.697,2.739l-4.258,2.743l-2.749,0.604l-2.131,1.83l-3.341-3.042l-0.923-1.832l-1.822-0.304l-1.832,0.61l-0.3,2.438l-4.569,0.607
				l-3.049,2.741l-5.175-0.608l-4.571,0.608l-1.215,0.917l-3.05,7.917l-5.784,10.047l-6.399,8.227l-0.297,3.964l1.212,4.566v10.651l13.711,24.066l3.35,4.257l7.61,6.397l2.135-0.305l2.736-4.259l5.488-4.873l7.308-4.873l6.392-0.911l10.664,5.173l5.177-1.217
				l4.879-2.126l1.828-1.83l3.95-0.911l-0.911-2.443l1.526-10.657l2.43-1.522l1.83-4.878l6.401-5.48l9.137,0.61l2.431,3.04l1.223,2.742l6.083,5.789l2.443,0.614l2.434-2.438l4.571,3.043l7.302,1.826h15.842l2.434-0.909l0.61-5.484l4.27-2.734l5.781,0.901
				l3.043,1.833l9.142-3.964l8.217-1.22l3.659-2.13h1.827v2.13l2.441,0.922l2.428-0.922h3.968l0.908-3.954l6.399,1.22l11.873-2.44l4.566,4.873l1.83-2.433l3.956,2.433l2.447-3.349h8.83l-1.527-2.131l-0.61-3.655l-1.83-3.039l-9.435-6.099l-3.044-0.909l-0.617-3.35
				l-2.433-3.049l-2.737-6.696l-3.354-1.831l-2.744-3.349l-11.57-7.617l-1.828-3.346l0.304-3.353l-0.607-1.22l-5.482-4.264l-7.004-0.302l-3.346-1.521l-2.139-4.576l-7.612-1.516l-3.354-3.046l-0.604-4.265l2.43-10.663l-1.521-4.868l-13.705-17.364z"/>
			<text transform="matrix(1 0 0 1 157.1841 451.6035)"><tspan x="0" y="0">Central African</tspan><tspan x="0" y="12"> Republican</tspan></text>
		</g>
	</g>
</svg>
