<?xml version="1.0" encoding="iso-8859-1"?>
<!DOCTYPE svg PUBLIC "-//W3C//DTD SVG 20000303 Stylable//EN"   "http://www.w3.org/TR/2000/03/WD-SVG-20000303/DTD/svg-20000303-stylable.dtd">
<!-- Generator: Adobe Illustrator 9.0, SVG Export Plug-In  -->
<svg  width="495.77pt" height="430.68pt" viewBox="0 0 495.77 430.68" xml:space="preserve">
	<g id="Layer_x0020_1" style="fill-rule:nonzero;clip-rule:nonzero;fill:#FFFFFF;stroke:#000000;stroke-miterlimit:4; font-family:'ArialMT'; font-size:11.5586;">
		<g>
			<g>
				<path d="M358.75,226.51l-2.39-0.65l-0.44-1.09l-4.35,0.22l-2.39,1.74l-2.61-0.21l-2.83-2.61l-2.17,0.87v-1.31l2.82-3.26l-10.21,5.43l-2.83,0.22l-0.22-2.17l-4.78,1.96l3.26-3.91l6.52-4.78l-4.57-1.08l-2.39,0.43l-6.08-3.48l-7.61-0.65l-2.17-4.57l-0.22,3.04
					l-118.45-0.22l2.17,1.75l-1.08,1.52l0.87,0.65l0.43,2.82l-2.61,3.27l-0.65-0.87l1.31-2.4v-1.3l-7.83-1.74l-0.44,1.09l2.39,7.61h0.43l-0.22,1.52l0.87,0.43v1.31l-0.87-0.87l0.22,1.73l3.26,1.08l-2.82,0.88l-1.09,15.86l-1.09,3.04l1.09,6.08l0.65,2.61l-1.31,6.08
					l2.39,3.47l0.65,4.57l3.04,4.34l1.3,0.86l0.44-1.3l2.17,0.22l-1.52,1.08l1.09,2.18l-1.3-1.3l-0.43,0.44l0.87,2.82l2.17,1.53l-0.22,2.83l5.44,6.52l0.22,2.61l8.48,2.82l0.87,1.52l1.74,0.65l2.61,2.39l0.65,3.26l10-0.87l16.08,7.17l11.74-0.43v-2.17h7.82l6.3,5.65
					l0.87,2.83l1.52,2.39l4.78,3.04l2.39-3.91l5.22-0.43l3.48,3.48l1.31,3.69l3.26,3.7l2.61,5.65l8.69,2.82l-1.52-4.13l0.22-1.74l-0.65-0.66l1.08-0.22l-0.43-2.61l3.91-2.82l-0.21-1.52h3.48l2.17-0.88l1.09-4.35l1.09,0.65l-0.66,0.87l3.7-1.52l6.96,0.87l1.52-0.87
					l4.78,2.83h2.61l0.87-1.31l2.61,2.18l0.87-0.65l-2.17-2.18l1.52-2.61l-4.13,0.22l-0.22-1.31l8.91-0.21l1.09-2.82l0.21,3.26l3.91-1.31v0.43l3.04-0.22l4.56,3.91l5.43-1.96l5.22,4.57l0.21,6.52l1.09-0.22l-0.65,2.39l1.73,2.39l0.65-0.22l1.52,4.56l1.52,0.87
					l1.09,3.04l3.26-1.09l0.87-3.26l0.22-4.13l-6.31-17.82l2.83-7.61l1.52-0.87l-0.43-1.3h2.61l3.7-3.05l1.52-2.61l4.78-1.96l1.52-2.18l4.34-1.73v-1.09h-1.08l1.08-1.31l-1.52-0.86l1.3-0.44l1.52,1.09l1.74-1.74l-0.65-1.53l-0.43,1.3l-0.65-1.3h-2.39l0.21-1.96
					l0.66,1.31l1.52-0.65l1.52,0.43l-0.87-4.34l-2.17-0.23l1.09-0.64l-0.87-3.04l0.65-0.87l-4.35-3.47v-0.65l3.91,2.39l-0.87-1.96v-4.13l2.83-1.74l-1.52,3.48l0.65,0.22l-0.43,2.39l2.39,2.61l-1.3,2.61l0.43,1.74l3.7-7.6l-2.18-5.87l2.61,2.18l0.22,1.52l2.82-3.91
					l1.09-2.83l-1.09-1.74l0.22-1.09l5-3.26l6.08-0.87l1.52-1.74l0.65,0.87l5-0.87l-0.21-1.53l-0.44,1.53h-1.3l-2.61-3.48l3.26-8.04l4.57-1.96l1.3-3.04l2.17,1.73l5.21-2.61l0.43-0.65l-0.43-0.65l0.22-1.74l-1.96-0.43l-0.22-2.17l-1.08-0.44v-8.26l-2.17-2.17
					l-2.39,1.31l-2.39-1.74l-2.61,3.91l-2.61,9.13l-3.26,0.44l-0.87,1.73h-14.56l-3.26,2.39l-2.61,2.83l1.09,0.43l-0.65,0.87l0.44,1.96l-3.48,1.3l-5-0.65l-4.13,1.3l0.87,2.39l-4.56,3.48l-8.04,3.69h-5.22l-1.74-0.87l1.3-1.74l0.87-2.17l0.65-1.3h0.65l0.65-2.6
					l-1.96-5.87l-1.74,0.65l-1.52,1.52l-1.09-0.22l2.61-4.13l-0.65-5.21l-4.13-2.39h-2.39v1.95l-1.96,0.44v2.17l-0.87,0.65l-0.21-1.74l-2.39,2.61l-1.09,6.09l1.09,3.26v2.82l-1.96,3.92l-1.96,1.73l-1.74-1.09l-1.09-2.82l-0.21-5.22l1.74-7.82l1.74-3.7l-0.43-0.87
					l-0.87,2.83l-2.61,1.52l0.65-1.52l2.83-4.78l2.17-1.53v1.3l5.87-2.6l2.17,1.3l0.65-1.09l2.83,0.21l-1.52-2.82h-0.65z"/>
				<path style="stroke-miterlimit:1;" d="M20.57,167.18l-0.65,0.21l0.87,1.96l0.43-1.96l2.61,0.66l-0.43-1.74l0.87,1.52l1.74-0.44l2.17-3.69h0.44l-0.22,1.96l6.96-3.7l0.87,2.17l0.87-2.61l3.48-1.09l-2.17-3.26l1.96,1.3l3.48-1.3l-0.87-0.65l2.61-0.43v-1.74
					l4.35-1.74l0.22-1.74l-0.65-0.22l3.48-2.17l0.22-1.52l1.31,0.43l1.52-2.17l3.91-1.74l-0.43-1.08l0.65-1.31l3.04-2.83l-1.52-1.52l-2.17-0.22l0.65-2.83l6.09-5l-1.96-2.61l2.17,0.65l3.48-6.08l4.78-3.26l2.17-8.91v4.13l-1.74,4.78l1.96,0.43l3.48-2.61l-3.04,3.91
					l4.13,1.74l-5.65-0.87l-3.91,2.17l-0.22,3.91l-2.17,4.78l1.3,0.87l2.39-1.3l-1.52,2.83H69.9l-0.44,1.52l0.87,0.87l3.04-0.87l2.82-2.61l-0.22,1.74l1.09-2.39l1.31-0.22l0.65-2.17l0.22,1.95l0.65-3.26l3.91,0.87l2.18-4.78l-2.39,0.65l1.3-2.17l-1.52-0.65
					l3.69-3.91l-0.65,3.04l0.87-0.43v-1.96l1.08,1.74l3.69-0.87l-0.43,1.96h1.95l-1.95,1.09l2.82-0.87l-1.09,1.3h2.39l-0.22,1.09l2.17,1.96l1.3-1.31l4.13,4.13l11.3-0.43l0.22,1.31l3.04,1.3l3.04-0.65l1.52-2.17l2.39,1.96l-0.87,0.43v1.96l-0.87-3.48l-0.65,2.83
					l-1.09,0.87l5.22,3.26l1.96-1.52v2.61l2.83,2.61l-0.43,0.87l4.13,2.83l2.17-1.08v-1.09l-3.69-3.26l0.43-0.87l2.83,1.96l0.65-1.31l1.09,2.83l-0.22,1.52l1.74-0.65l0.43,1.95l0.87-0.22l0.43-1.31l-1.74-6.08l0.21-1.96l3.04,8.26l2.61,1.3l1.09,1.96l1.31-1.3
					l-0.44,0.87l-0.65,0.65l0.65,1.3l0.87-0.22l2.17,2.61l-2.61-1.52v1.09l0.87-0.22v1.96l1.09,0.21l-1.31,1.09l2.61,0.44l0.65,1.74l-1.3-1.09l0.65,1.31l2.17,1.52l0.87,2.18l2.39,1.52l-1.52,0.44l-1.52,3.26l0.65,1.08l1.52-2.39l2.82-1.74l1.09,6.08h1.09l0.22,1.3
					l-1.52,0.87l0.22,1.96l3.26-1.96l0.22-7.39l-8.04-4.56l-8.04-16.3l-2.61-1.74l-4.35-7.82l-3.69,1.96l-1.74,3.48l-3.48,1.95l-1.09-2.6l-6.3-6.96l0.22-2.39l-3.48,1.3l-4.35-1.09V29.38l-1.09,1.09l-8.48-5.87l-8.7,1.52l-17.39-6.09l-10.21,0.22l0.65-1.09
					l-1.52-0.65l-1.3-0.65l0.44-2.17l-3.26,0.43l-1.3-2.17l-4.35,1.96l-3.48-4.13l-1.74,1.31l0.65,3.91l-0.65-0.43l-3.69-1.31l3.26-3.91l-5-2.61l-5.43,6.52l-5.21,0.65l-0.22,1.52l-1.3-0.87l2.17-2.17l-3.48,2.17l-1.09,1.31l2.61,1.73l-1.52,0.44l-0.65,2.83
					l-1.08-1.09l0.87-2.17l-0.87-1.08l-7.39,5.87l0.65-1.74l-0.65-0.21l-1.09,2.83l2.17,2.17l-3.26-1.74l-1.74,3.04l2.39,0.22l-3.04,0.43l1.96,1.96l-1.96-0.87l-0.43,3.04l-3.7,4.78l-9.78,1.52l-0.22,4.35h0.87l-3.26,1.52l10.87,7.61l1.96,2.17l1.09,4.56l3.48,1.52
					l1.96-2.17l-0.43,2.17l3.69-0.65l0.44,0.87l-1.52,1.95l2.39,2.39l0.21-1.74l7.39,1.52l-5,2.17l-4.35-1.09l-1.52-2.17l0.87,2.17l-0.44,1.52L31,69.16l-0.65,1.3l-1.74-1.74l-1.31,3.69l-7.82-1.09l-1.96-1.74l1.3-0.87v-2.61l-0.87-0.43h-2.83l-5,3.48l1.08,1.3
					l-3.26-0.22l-7.61,4.78l3.26,3.26l5,0.87l-3.04,1.09l3.26,6.3l5.43,1.31l5.44-1.31l2.17,1.52l0.22-1.08l-1.52-1.09h1.3l1.52,3.7l4.13-5.65l4.35,0.65L31,86.98h-2.17l2.83,6.08l-1.09,3.48l-5.22,0.44l-3.26,4.13l-3.04,0.65l-1.52,1.09v1.52h-2.39l-3.91,3.26
					l-1.08,4.35l-1.52,0.87l0.65,1.09l-1.09,1.74l4.13-1.52l-2.61,2.17h2.39l-0.65,1.52l0.87,2.17l1.74-0.87l1.3,0.43l-0.65,1.3l0.87,0.44h3.26l-3.26,5.22l0.65,2.17l2.61,0.22l-1.96,0.43l1.52,1.74l3.48,0.44l2.61-4.35l-0.65-1.52l1.3-2.17l3.26-2.17l-3.91,4.57
					l3.04,6.52l-1.3,2.83l1.96,0.87l-0.87,0.87l0.87,1.74l-2.61,1.31l6.09-2.39l1.96-3.04v3.04l2.82,0.22l2.83,4.13l0.87-0.87l-0.65-1.96l1.74-2.17v1.3l1.74,1.74l5.87-3.91L46,140.44l-0.44,2.17h0.87l-3.04,8.04l-2.17,1.52l-0.87,2.17l-6.52,3.48l-1.3,3.69
					l1.09,0.65l-4.35-1.52l-8.69,6.52z"/>
				<path d="M13.39,171.31l1.96-2.61l3.48-0.87l2.18,2.61l-4.13,0.44l-1.74,2.17l-1.74-1.74z"/>
				<path d="M8.83,173.91L9.92,175l-1.3,0.22l0.22-1.31z"/>
				<path d="M1.44,180.87l3.48-3.04l-1.09-1.3l3.69-0.44l-1.08,1.96l0.43,0.22l-1.52,1.3l-3.91,1.31z"/>
				<path d="M2.53,126.53l5.65-1.3l2.61,0.87l0.22,2.17l-2.39,2.17l-4.34-1.74l-1.74-2.17z"/>
				<path d="M12.09,122.84l1.52-1.52l3.04,2.17l-1.96,1.74l-2.61-2.39z"/>
			</g>
			<text transform="matrix(1 0 0 1 281.5913 271.1182)"><tspan x="0" y="0" style="fill:#000000;stroke:none;">U.S.A.</tspan></text>
		</g>
		<g>
			<g>
				<path style="stroke-miterlimit:1;" d="M482.64,187.61l-1.52-1.52l1.09-0.44l-0.65-2.6l-1.96-1.31h2.83l-1.31-2.18l0.44-0.43l-4.35-1.74l-1.52,2.82v-5.65l-3.7,0.22l1.74,0.44l-4.13,0.65l-6.96,5.43l0.22-1.96l-3.48-1.3l1.09-0.87l2.83,1.52l1.09-1.96l5.22-1.74
					l-3.04,0.22l8.48-3.48l-2.61-3.04l-1.52,1.52l-1.74-0.66l-1.73-2.61l-2.17,2.4l0.86-2.4l-0.86-0.87l-3.26,0.43l0.87-1.3l-0.22-2.39l-4.13-1.09l-0.21-2.39l-2.61,0.22l0.87-0.87l-1.08-1.3l0.87-0.87l-5-0.43l3.26-0.65l-0.65-0.65l2.61,0.87l-0.22-0.87l1.52-1.74
					l-2.17-3.26l-2.17,0.21l2.61-1.52l-1.74-2.39l-1.52,0.21l1.09-1.09l-0.87-1.09l-2.82,0.65l2.82-2.61l-4.35-0.87l3.04-1.3l-1.73-1.31l0.21-2.17l-4.56,0.87l3.91-2.17l-2.83-1.52l1.09-1.09l-1.52-0.22l-0.65-2.82h-1.09l0.65-1.31l-0.86-2.17h-1.31l-3.04,4.78
					l1.3,2.39l-1.96,1.3l0.43,1.09l-0.65,2.17h-1.52l1.3,1.96l-1.09,1.95v-2.17l-1.74-1.3l-1.09,3.04l-4.35,3.04l-0.44-2.61l-0.65,0.66l0.44-2.17l-1.74,4.13l-3.04,0.44l3.04-0.65l0.22-2.39l-1.09-3.69l-8.05,1.74l1.96-1.09l-0.65-1.3l1.74,0.87l1.74-0.87
					l-1.09-1.74l1.09-1.09l-1.74-0.22l1.09-2.61l-1.09-2.17l-6.95-1.31l8.04-0.22l-1.52-3.7l1.52-3.69l-1.09-1.31l-1.96,1.96l-0.87-1.96l-5.65-0.65l-1.08-2.83l1.3-1.09l-3.04,0.44l0.65-1.09l-0.65-2.39l-2.39,1.09l0.87-3.26l-5.21-3.04l-5.43,3.04l-10.44-3.91
					l-2.82,3.04l0.43,4.13l2.83,0.66l-3.04,8.04l2.6,0.87l-1.3,0.44l0.44,2.17l0.87,2.17l-0.65,1.74h2.17l-1.08,2.39l1.52,0.87l-2.61-0.44v3.04l-4.56,1.74v2.17l5.21,4.35l2.83,10.44l0.65,5.21l1.3-2.17l1.09,2.61l-2.39,0.43l-3.91,6.52l-8.48,6.09l2.82,4.35
					l1.09,10.21l1.52,1.53l1.96,0.43h-2.17l-2.83,2.61l1.74,2.17l-0.87,1.74l-2.39-1.74l-0.65,0.65l-0.65,0.22l0.22,2.17l-3.04-1.74l-3.26,2.17l2.39-2.82l-0.43-2.17l-2.17-2.17h-4.13l3.04-1.74l-3.69-4.78l0.43-1.96l-0.87-6.3l0.44-7.17l-12.83-1.31l-1.74,3.48
					l1.52-4.13l-2.61-2.17l-6.96-2.17l-2.61-3.91l-4.35-2.61l-8.26-3.91l-7.39,2.82l1.74-1.74v-2.61l-3.48-10l-3.91-0.65l-0.65,2.39l-0.65-2.82l-1.96-1.74l0.44-1.31l0.21-10.87l2.61-6.09l-1.74-1.95l4.35-2.17l0.87-1.52l-0.44-1.09h0.87l1.3-2.39l1.52,1.08v-4.78
					h2.82l-1.74-0.43l-0.21-1.96l4.13,0.22l3.47-1.74l-1.08-4.78l-3.91-2.17l-2.17,1.52l0.65-1.09l-5-2.61l-0.22,1.3l-1.09-1.3l0.87-0.87l5.43,2.6l2.61-0.44l3.91,3.04l2.39-1.74l0.21-2.82h0.87l-0.22-1.52l3.26,1.3l4.35-1.74l5.22-10.43l-9.35-1.3l-5-5l0.65-0.87
					l5.87,2.17l3.04,3.69l3.04-0.44l5.44-7.39l-0.22-2.17l-2.61-0.65l0.87-2.17h5l0.65,3.26l2.83,0.43l0.22-1.73l3.04,2.17l-1.74-4.13l0.66-1.52l2.83,3.48l3.04-2.17l5.65-6.96l0.21-3.04l-3.7-4.57l0.65-3.47l-1.31,0.65v-1.96l-1.52-1.74l2.17-0.65l0.87,1.52
					l2.17-2.17l0.44-2.83l-2.83-0.43l2.83-3.04l-4.13-1.31l-1.95-2.61l0.87-0.65l-0.65-2.39l-11.96-1.3v6.09l3.26,3.04l-1.96,2.17l1.96,1.09l-4.56,1.3l-0.22,3.7l-3.04,6.95l-0.22,3.48l-3.26,1.96l-4.57-7.83l0.65-5.43l0.22,1.52l1.52-0.22l-1.74-6.74l-3.47-4.56
					l-1.96,0.22l-1.3,2.39v4.13l-2.17,4.56l-1.08-2.61l0.65-3.48l-4.13-6.52l1.96,0.65l0.22-2.39l-8.04-1.96l3.48-3.69l-1.95-2.61l3.69,0.65l-6.08-8.69l-0.44-6.52l-2.61-3.26l-0.43-3.04l-2.83,1.09l-0.87-1.3l0.65-1.74l-2.17-0.65l-3.48,5l1.31,1.74l-0.44,2.61
					l-1.52-1.52l-1.74,1.52l-0.44,5.87l1.96,2.17l-2.61,3.48v3.7l9.34,8.04l2.83-0.87l0.43,3.04l-1.09,0.43l0.44-2.39l-1.52,0.65l-2.17,7.39l2.39-0.22l0.87-1.31l-0.87,0.22l0.65-1.96l1.74,5l-4.78,6.09l-4.13-0.44l0.65,1.31l-0.65,2.82l1.3,1.96v3.7l-1.3-0.87
					l0.65-1.09l-2.17,1.09v-1.96l-1.74-0.87l1.74-1.31l-0.65-0.87l0.65-5.65l-2.83,2.6l0.65-3.26l-5.88,2.34l2.4-4.51l-5.87,1.09l2.83,6.09l3.69-0.65v2.61l-0.65,0.87l-3.69-1.52l-1.52-3.7l-0.87,0.65l1.52,3.04l-8.48-1.31l-8.26,1.96l-4.35-5l-6.09,0.21v-1.52
					l-3.91-2.61l0.87-0.43l-1.3-2.17l0.65-0.65l-2.82-2.83l-9.13,3.91l-1.96,3.26l3.48,2.83l1.52-0.65l-1.3-1.3l1.52-0.87l3.7,1.09l0.43-1.96l-0.65-0.65h1.09l-0.44-0.87l3.05-1.08l-2.39,5l-5,1.95l-0.65,1.09l0.65,0.43l-1.96,2.18l3.48,6.95l-0.65,0.44l0.87,1.74
					l-2.39,0.22v1.74l-2.82-3.69l2.61-0.65l-0.87-2.17l-2.39-0.87l-0.22-2.83l-0.87,2.83l-0.44-3.69h-3.48l-1.31-3.48l-7.61,3.91l-12.17-0.43l-3.91-2.18l1.31-0.87v-1.96l2.39-0.65l-1.3-0.44h4.35l-0.65-3.04l-4.35-4.78l-4.35-0.43l1.09,2.17l-4.35-1.31l-13.47-5.43
					l-6.96-5h-5.65l-1.74,4.78l-4.56,0.43l2.17-4.35l-1.96-0.22V24.6h-1.08l0.65,1.09l-0.43,0.87l-0.65-0.43l-2.82,4.78l1.3,0.87l-2.17,1.52l-1.52,0.22l-3.04-3.91l-2.39-7.17l-3.26-3.26l-0.87,1.74l2.39,2.17l-6.09,6.52l1.09-3.04l-6.3,3.48l-3.04,5.87v-3.48
					l-8.04,4.57l4.57-5.21l3.91-0.22l5.65-5l0.87-1.3l-0.87-2.39l-18.26,11.52l-3.04,3.26l1.96,4.13l-0.22,1.74l-2.39-3.69l-3.04-0.22l1.52,2.61l-1.08,0.22l-5-3.48h-4.13l-7.61-7.83l-7.39-1.74v96.72l4.35,1.09l3.48-1.3l-0.22,2.39l6.3,6.96l1.09,2.6l3.48-1.95
					l1.74-3.48l3.69-1.96l4.35,7.82l2.61,1.74l8.04,16.3l8.04,4.56l-0.22,7.39l0.22,2.61h-1.08l-0.44,1.96l2.18,1.52l-0.65,1.73l3.26,3.91l1.09-0.44l-0.22,3.48l1.52,3.47l1.96-0.43v1.52l1.74-0.65l0.44,5.65l1.52-0.87v1.52l0.65,0.22l-1.96,0.65l1.52,0.65
					l-1.52,0.44l0.43,1.08l2.17,1.3l3.69-0.65l-0.43,0.87l1.96,1.09l-0.87,1.09l6.52,0.87l-0.65,2.17l0.65,1.08l1.74,0.87l1.09-0.22v-1.52l1.52,2.39v1.73l1.74-1.73v2.82l2.61,0.22l-1.74,0.65l0.87,1.08l118.45,0.22l0.22-3.04l2.17,4.57l7.61,0.65l6.08,3.48
					l2.39-0.43l4.57,1.08l1.73-0.87l2.18-3.04l0.44,1.31l1.52-2.83v2.39l1.52-3.48l2.82,0.88l1.3,3.48v-3.04l3.04,0.22l2.61,5.21l3.48-0.21l-0.22,2.17l1.3,1.74v2.6l1.09,0.44l-0.22,2.61h0.65l0.21-0.65l0.65,1.53l14.35,2.61l3.04,3.26v1.3l1.74,1.96l-1.74-0.44
					v1.96l-2.82-1.08l-0.87,0.86l-0.21-2.17l-0.87,0.22l-0.43-1.95l-1.52-0.22l1.08,3.26l-1.52,3.47l-0.21,4.78l-2.83,1.74l-0.65,2.6l0.65,1.52l-1.96-0.22l-0.87,2.17l2.83,0.22l5.65-4.13l2.39,0.65l2.17-1.3h5.22l-0.87-2.39l-3.04-0.43l2.61-2.61l4.56-1.3
					l4.56,0.21l-0.65-1.52l1.09,0.44l5.22-2.83l3.26-2.39h14.56l0.87-1.73l3.26-0.44l2.61-9.13l2.61-3.91l2.39,1.74l2.39-1.31l2.17,2.17v8.26l1.08,0.44l0.22,2.17l1.96,0.43l6.08-0.65l4.78-4.13l0.87,0.65l-2.17,2.17l0.22,0.87l6.3-0.21l-3.48,1.74l-1.09-1.3
					l-7.39,4.56l1.09-0.22l-1.09,2.39l0.22,2.17l2.83,1.96l4.78-4.78l0.87-1.74l2.17,0.44v-1.3l3.04-0.22l8.04-3.26l-1.52-0.43l0.21-1.3l-2.39-0.44l-0.44-1.3l-3.26,1.3l-5.43-1.96l0.87-0.65l-3.26-1.3l-0.87-1.3l-0.44-3.48l-1.95-0.22l2.17-4.13l-1.31-0.87
					l-2.39,1.08l-0.65-1.31l-3.26-0.65l3.04-0.87l2.61,0.65l4.13-3.26l-0.22-2.61l-3.04-1.73l-6.74,0.43l-7.61,3.69l-5.22,4.13l-4.78,6.09l-1.74,0.87l3.48-3.91l2.17-4.35l1.74-0.87l2.17-3.48l3.48-3.04l3.26-0.44l1.96-3.91l2.39-1.96h17.6l2.61,1.09l6.09-2.17
					l-0.22,0.87l0.87,0.22l6.96-7.17l7.6-1.52l4.13-4.35l-1.52-1.52l1.52,0.22z"/>
				<path d="M480.24,193.48l-1.96,1.09l-3.25,4.35l0.87,0.65l-1.09,2.39l0.44,0.65l-1.3,0.44l-0.87,3.91l-1.3,0.65l0.65,2.17h-1.52l-1.09,2.82l-2.38,0.87l3.04,0.65l-3.48,3.26v1.08l1.3,1.09h9.57l4.35-1.74l-0.44,1.3l-1.3,1.08h2.82l0.65-1.52l2.17,0.65l-4.56,3.48
					l0.87,1.09l5.22-3.48l1.09-3.27h0.65l0.65,3.7l-0.87,3.04l2.17-1.73l0.65,3.47l1.52-0.65l1.74-4.56l-0.65-1.96l-1.31,1.53l1.09-4.35l-3.04,3.48l-0.87-0.87l0.65-1.74l-1.09-0.87l3.04-1.74l0.44-1.31l-4.13,1.09l2.17-5.87l-3.91-0.65l-3.91,1.3l0.87-1.95
					l-3.04,0.65l-0.87-1.52l2.61-1.31l-2.82-0.43l0.21-0.87l-2.83,3.26v-3.04l2.39-3.48v-2.17h1.31l0.22-1.52l-0.44-1.52l1.52-1.3l-2.61,0.22z"/>
			</g>
			<text transform="matrix(1 0 0 1 236.2534 130.3628)"><tspan x="0" y="0" style="fill:#000000;stroke:none;">Canada</tspan></text>
		</g>
		<g>
			<path d="M389.18,413.86l-0.22,0.87l1.08,1.96l-1.52,1.52l-0.65-0.22l-0.87,1.52l-1.96-2.61l1.3-1.96l-1.52-0.22l-3.48-2.39l-5.21,3.48l-0.22,1.09l1.52,1.96l-1.96,1.3h-1.31l-0.43-2.38l-1.3,0.43l-1.96-2.39l-4.35-0.65l-0.65,0.87l-0.44-1.09l1.3-3.04l-0.87-0.43
				v-1.09l1.3-0.87l1.31,0.87l0.65,1.96l4.13,0.65l4.35-1.74l1.08,0.65l1.09-2.17h1.95l4.57,1.08l3.26,3.04z"/>
			<text transform="matrix(1 0 0 1 329.3892 426.9307)"><tspan x="0" y="0" style="fill:#000000;stroke:none;">Panama</tspan></text>
		</g>
		<g>
			<path d="M366.79,409.51l-2.82-2.38l-1.74-3.26l-1.96,0.87l-1.74-1.09l-5.22-0.43l-0.43,2.82l0.87,1.96l2.61,1.52l0.22-1.3l-0.87-0.65h1.09l1.96,2.61l3.26,1.52l0.22,2.39l1.52,0.65l0.22-1.08l1.08,1.3l1.3-3.04l-0.87-0.43v-1.09l1.3-0.87z"/>
			<text transform="matrix(1 0 0 1 294.229 414.9092)"><tspan x="0" y="0" style="fill:#000000;stroke:none;">Costa Rica</tspan></text>
		</g>
		<g>
			<path d="M362.23,403.86l-0.65-2.17l2.39-15.43l-4.35,1.52l-2.17-0.86l-1.52,2.17l-2.61,1.74l-1.74-0.65l-0.65,1.52h-1.74l-0.22,1.74l-1.09,1.08l-1.3,0.44h-0.87v0.43l7.6,7.83l5.22,0.43l1.74,1.09l1.96-0.87z"/>
			<text transform="matrix(1 0 0 1 366.7427 400.7881)"><tspan x="0" y="0" style="fill:#000000;stroke:none;">Nicaragua</tspan></text>
		</g>
		<g>
			<path d="M305.07,336.7l-8.69-2.82l-2.61-5.65l-3.26-3.7l-1.31-3.69l-3.48-3.48l-5.22,0.43l-2.39,3.91l-4.78-3.04l-1.52-2.39l-0.87-2.83l-6.3-5.65h-7.82v2.17l-11.74,0.43L229,303.23l-10,0.87l2.61,3.48l2.61,7.38l0.65-0.21l0.65,3.26l3.04,1.52l3.91,4.78
				l-0.43,3.48l-3.48-0.44v0.65l6.09,4.34l1.08,0.22l0.65-1.09l0.65,1.74l2.83,1.95l0.87,2.39l-0.43,4.56h1.74l5.87,5.21l2.17,3.48l1.96-1.31l0.22-1.73l-3.26-3.48l-0.87,0.44l-0.87-0.44l-3.91-11.3l-1.08-0.66l0.22,1.31l-0.43-0.43l-5.87-10.65l-1.09-0.22
				l-0.87-1.95l-2.83-2.39l-0.87-1.96l-1.96-9.12l3.26,2.39h1.74l2.61,1.96l1.96,5.87l3.91,6.3l3.04,3.26l2.17,0.44l0.65,2.82l5.66,4.35l-1.09,2.39l0.65,1.3l1.3-0.43v1.3l2.83,0.87l1.52,1.3l0.22,1.95l4.13,3.26l2.39,3.48l3.04,2.39l2.17,6.08l-1.09,2.17l0.87,1.09
				l-1.74,0.65l0.87,2.82l2.39,1.96l4.13,2.39l2.17,2.17l6.3,1.53l3.92,3.47l9.56,2.83l4.13,2.39l6.52,1.73l5-2.38l1.74-0.22l4.78,1.74l5.22,5.21l0.65-2.18l2.83-4.34l3.91-0.21l-1.09-2.83l-3.26-3.04l2.61,0.43l0.22-2.17h7.17l1.52-0.43l1.3-2.17l0.65-0.22
				l0.87-1.53h0.65l-0.22,1.31l1.08,1.96l1.31-5.43l-0.66-0.66l0.66-0.65l-0.66-0.44l3.69-6.96l-0.87-1.3l-2.17-0.43l-1.09,0.87v-1.1l-1.31-0.21l-9.78,2.61l-1.96,8.26l-2.17,1.3l0.22,1.31l-1.3,0.87l-3.48-1.09l-8.7,2.39l-2.39-1.74l-2.83-0.87l-1.96-1.73
				l-1.52-3.48l-3.26-4.56l0.22-2.39l-2.17-3.04l0.22-5.65l-0.87-6.08l1.3-3.04l2.17-0.87v-1.52z"/>
			<text transform="matrix(1 0 0 1 263.4507 343.5225)"><tspan x="0" y="0" style="fill:#000000;stroke:none;">Mexico</tspan></text>
		</g>
		<g>
			<path d="M363.97,386.26l-3.7-3.04l-3.91-1.52l-14.13,0.87l-0.22,1.09l-3.69,2.61l0.21,1.31l-0.87,1.08l3.91,2.39h2.61l0.44,2.17h1.09l0.87,1.74l1.3-0.44l1.09-1.08l0.22-1.74h1.74l0.65-1.52l1.74,0.65l2.61-1.74l1.52-2.17l2.17,0.86l4.35-1.52z"/>
			<text transform="matrix(1 0 0 1 364.1577 384.5615)"><tspan x="0" y="0" style="fill:#000000;stroke:none;">Honduras</tspan></text>
		</g>
		<g>
			<path d="M334.84,391.69l5.87,2.39h2.18l1.74-0.88l-0.44-2.17h-2.61l-3.91-2.39l-2.83,3.04z"/>
			<text transform="matrix(1 4.100000e-003 -4.100000e-003 1 281.813 402.3857)"><tspan x="0" y="0" style="fill:#000000;stroke:none; font-size:11.5587;">El Salvador</tspan></text>
		</g>
		<g>
			<path d="M340.06,381.69l2.39-4.35l0.87-5.65l-1.3-1.09l-0.65,0.22l-1.3,2.17l-1.52,0.43l-0.21,8.26h1.74z"/>
			<text transform="matrix(1 0 0 1 347.1919 374.0049)"><tspan x="0" y="0" style="fill:#000000;stroke:none;">Belize</tspan></text>
		</g>
		<g>
			<path d="M342.23,382.57l-2.17-0.87h-1.74l0.21-8.26h-7.17l-0.22,2.17l-2.61-0.43l3.26,3.04l1.09,2.83l-3.91,0.21l-2.83,4.34l-0.65,2.18l3.91,3.05l5.43,0.87l2.83-3.04l0.87-1.08l-0.21-1.31l3.69-2.61l0.22-1.09z"/>
			<text transform="matrix(1 0 0 1 264.5669 391.54)"><tspan x="0" y="0" style="fill:#000000;stroke:none;">Guatemala</tspan></text>
		</g>
	</g>
</svg>
