<?xml version="1.0" encoding="iso-8859-1"?>
<!DOCTYPE svg >

<svg  width="411.792pt" height="601.101pt" viewBox="0 0 411.792 601.101" xml:space="preserve">
	<g id="Layer_x0020_1" style="fill-rule:nonzero;clip-rule:nonzero;stroke:#000000;stroke-miterlimit:4; font-family:'Arial'; font-size:10;">
		<g style="fill:#FFFFFF;">
			<g>
				<path d="M278.386,104.765l0.153,0.31v0.619l-0.153,0.309h-0.158h-0.306l-0.156-0.153h-0.151v-0.155h-0.158v-0.619l0.31-0.156h0.156h0.306l0.158-0.153z"/>
				<path d="M273.286,111.568v0.308l-0.621,0.616l-0.616,0.465l-0.157,0.31l-0.155,0.153l-0.152,0.159l-0.769,0.616l-0.162,0.147l-0.149,0.315l-0.306,0.312h-0.93h-0.311v-0.774l-0.311-0.158l-0.156-0.308l-0.305-0.151v-0.623l0.305-0.613l0.467-0.308l0.311-0.316
					l0.46-0.46v-0.312v-0.619l0.308-0.461l0.617-0.309l1.238-0.311l0.157-0.155h0.31h0.772h0.155v0.312l-0.621,0.308l-0.307,0.154l-0.467,0.156l-0.464,0.457l-0.155,0.468l0.619-0.154h0.157h0.31h0.614v0.154v0.155v0.306l0.313,0.16z"/>
				<path style="stroke-linecap:round;stroke-linejoin:round;" d="M266.482,118.212l-0.365-4.123l1.491-4.331l3.7-2.717l2.948-2.753l3.695-4.158l0.73-6.584l-5.197-1.083l-1.503-5.994l-2.992-6.094l-0.053-5.148l-3.815-4.006l-2.986,3.062l-1.291,2.304l-1.886,2.505
					l-1.779,2.639l-1.3,3.262l-4.155,3.371l-2.873,0.696l-2.752-0.488l-2.505,1.077l-2.631-0.942l-1.927-2.117h-0.354l-2.987-1.314l-2.752-0.466l-3.108,0.725l-2.752-0.551l-0.941,2.842l-1.434,2.098l-3.7-0.939l-3.229,0.403l-2.499-0.899l-2.629,0.917l-2.026,1.636
					l-5.378,1.347l-2.273,1.281l-2.627,1.054l-2.503-0.731l-2.27-1.326l-2.043-2.042l-1.9-5.631l-1.084-2.499v-2.86l1.069-3.104l0.247-2.862l1.792-2.026l-0.835-2.738l-1.436-2.753l-2.15-1.417l0.479-3.585l-2.611-1.177l-3.109,0.248l-0.229,2.257l-2.15,2.517
					l-2.737,0.847l-2.501,0.978l-1.916,1.808l-2.625,0.634l-2.738,0.279l-3.585,0.897l-3.217,1.622l-3.337-0.045l-3.463-1.218l-2.966-1.458l-2.628-0.273l-2.735,1.281l2.842,2.407l1.901,1.968l-0.615,2.871l0.108,2.736l0.709,2.723l1.546,2.097l2.984,0.404
					l1.792,1.981l-2.518,1.266l-3.109,1.743l-1.434,3.037l-2.985,1.171l-4.914,2.19l-2.75,1.426l-2.153,1.637l-3.104,0.605l-3-0.343l-2.393-1.687l-1.776-2.653l-2.399-1.069l-0.714-2.6l-1.898-2.161l-5.5,1.376l-2.396,1.454l-2.645,0.273l-9.691,0.64l-1.096,2.686
					l0.109,2.735l2.766,0.529l2.504,1.014l0.709,2.475l-3.106-0.274l-2.643,0.894l-2.271,2.07v2.61l0.477,2.707l2.288,1.763l1.811,2.488l0.724,2.829l0.371,2.592l-0.356,2.771l-0.57,3.139l-0.463,3.482l-0.452,2.529l-0.814,2.675l-0.574,2.787l-1.003,5.899
					l-0.448,1.579l-2.985,1.036l-2.967,0.692l-8.778,3.276l-2.972,1.547l-2.592,1.869l-1.98,2.071l-1.872,2.306l-2.284,3.986l-0.634,3.139l0.09,3.426l-2.948,0.867l-1.099,3.17l-1.437,3.449l-0.142,2.854l1.516,2.691l1.435,3.538l2.6,2.954l2.3,1.575l-0.708,3.015
					l2.982,0.929l2.615,0.123l1.512,2.474l2.767,1.423l3.755-0.401l2.675-1.626l4.234-3.834l1.378,2.265l0.185,5.87l-0.017,2.578l0.077,2.581l3.092,0.846l2.674-0.999l1.516-0.323l2.702-0.064l2.954,0.526l3.864-0.11l2.581-0.617l6.258-3.152l3.802-3.707
					l3.556-4.164l2.459-0.818l2.939-0.357l2.826-0.46l2.826,0.372l1.332,2.408l0.185,3.524l0.047,2.582l-0.417,2.714l-0.789,2.494l0.631,2.556l1.101,2.297l1.793,1.808l4.373,3.02l3.044,0.618l4.791,0.108l2.46,0.525l1.775,2.053l2.349,1.472l5.83,1.421l2.225,2.177
					l2.795,0.433l3.832,0.076l2.227,1.378l2.322,1.728l1.276,2.783l0.234,2.552l1.283,2.656l-0.231,2.878l-1.267,2.422l1.748,5.177l1.033,2.643l2.64,0.469l3.326,0.352l3.324,0.236l3.558,0.134l2.286,1.066l-0.375,2.508l-0.01,2.752l1.341,2.176l2.487,2.198
					l1.672,3.441l0.649,2.742l-0.185,5.438l-0.245,2.706l-1.16,2.241l-0.712,2.581l0.396,3.152l-1.464,0.756l1.048,5.611l-0.229,10.244l3.062,2.153l3.63,1.051l2.444,0.173l2.547-0.512l3.845,0.757l2.726,1.946l0.461,2.782l0.363,2.766l0.027,2.736l0.772,3.535
					l3.548,1.194l2.648-0.338l2.36,0.85l0.455,2.626l-1.257,6.8l-0.632,4.744l2.6-0.225l2.122,0.94l1.463,5.219l0.06,3.217l-0.505,3.834l-2.234,2.04l-3.04,1.579l-2.89,0.524l-2.675,3.091l-2.18,1.624l-4.341,3.553l-1.428,2.07l-1.627,2.039l-1.987,2.778
					l-1.821,1.939l-2.119,1.618l-3.613,3.773l-1.669,1.111l2.564,0.252l2.208-1.629l2.563,1.1l2.508,2.424l1.95,2.923l1.572,2.104l2.209-1.577l2.907,3.977l2.104,0.785l2.211,0.989l1.205,2.088l2.069,1.401l2.473,1.21l0.911,3.38l1.914,1.795l1.676,2.102
					l-1.718,1.829l-1.055,2.364l-0.368,2.672l-0.016,2.457l3.88-2.776l3.384-4.288l1.561-4.359l3.327-2.781l7.963-5.473l5.791-8.535l1.655-4.336l2.935-4.252l3.603-4.204l3.493-2.708l2.07-1.324l1.717-4.33l1.067-4.359l-0.247-4.465l0.928-10.306l7.291-6.847
					l4.347-3.357l3.693-3.398l4.169-1.114l4.995-2.521l2.534,1.732l3.829-4.095l4.053,0.403l-1.034-3.063l5.487-0.181l3.97,1.155l4.051,0.429l4.128-0.274l4.05,0.463l0.468-3.665l8.678-3.408l0.56-4.408l1.917-4.219l4.666-3.882l1.919-4.219l4.684-3.85l1.231-4.308
					l0.53-4.392l1.204-4.301l3.132-2.543l0.513-4.395l1.274-5.02l1.955-4.928l-0.227-4.484l0.45-4.389l-0.282-4.504l1.147-4.275l1.262-5.754l4.562-2.335l3.93-3.154l4.062-4.599l2.55-4.067l3.26-3.96l2.368-1.856l4.589-2.258l2.49-3.32l3.925-3.071l2.492-3.292
					l5.054-8.039l1.142-5.704l-0.43-4.497l-2.337-10.663l-1.93-5.461l-5.103-2.282l-4.468,0.043l-4.402-1.406l-2.827-3.365l-4.344-2.845l-5.72-6.696l-13.092-10.621l-4.458-0.593l-4.476,0.905l-4.459-0.56l-4.398-2.747l-4.438-0.53l-4.404-2.714l-4.434-1.239
					l-4.482,1.714l-5.212,0.915l1.551-4.252l-2.167-3.909l-1.455-3.821l-4.448,1.024l-1.453-3.089l-5.918-2.042l-4.439-1.886l-5.174-3.419l-5.183-0.445l-2.962,1.231l-3,6.385l-2.801-0.165l-3.27,7.254l-1.21,0.316l0.31-5.41l-12.053-0.619l0.15-5.563l-2.322-1.7
					l2.013-1.104l-0.273-1.377l-2.047,0.47l-1.39,2.628l-1.856-0.462z"/>
				<path d="M283.483,110.64h-0.152l-0.313,0.154l-0.466,0.154h-1.69l-0.157-0.154v-0.465l0.311-0.305h0.151l0.924-0.775l0.462-0.155h0.466l0.313,0.155h0.313v0.157v0.769l-0.161,0.466z"/>
				<path d="M291.988,113.267v3.866l-0.162,0.774l-1.231,1.389l-0.616,0.925l-1.236,1.701l-0.464,0.307l-0.31,0.31l-1.389,0.932l-0.624,0.15l-0.306,0.158l-1.236,0.462l-0.931,0.155l-0.616,0.149l-0.154-0.149l-2.163,0.617h-0.465l-0.313,0.15l-0.615-0.303
					l-3.398-0.314l-1.395-0.614l-0.462-0.922v-2.168l-0.152-0.619l-0.311-0.925v-1.084v-0.929l-0.153-0.462v-3.865l0.153-0.465l0.311-0.148l1.543-0.625l0.31-0.311v-0.149l0.468-0.157h0.154l0.458-0.155h0.311l0.153-0.154l2.011,0.154l0.615,0.155h0.313l0.465,0.306
					l1.396,0.468l1.386,0.16l1.394-0.316l0.772-0.151h0.153l1.083-0.16l1.235,0.16l0.462-0.16l0.77,0.16h0.316l0.312,0.151l0.609,0.157l0.625,0.308l0.309,0.308l0.308,0.465l-0.154,0.153l0.464,0.157z"/>
				<path d="M276.224,104.765l-0.466,0.31l-0.77,0.928v0.931l1.081,1.388l1.387,0.308l1.234,0.464h1.234l0.159-1.241l-0.928-0.767l-1.234-0.305l-1.085-0.932l-0.613-1.084z"/>
				<path d="M275.292,108.629h0.157l0.152,0.309v0.155v0.62l-0.768-0.154h-0.163l-0.152-0.311v-0.31v-0.154l0.152-0.155h0.47h0.151z"/>
			</g>
			<text transform="matrix(1 0 0 1 249.0845 188.0908)"><tspan x="0" y="0" style="fill:#000000;stroke:none;">Brazil</tspan></text>
		</g>
		<g style="fill:#FFFFFF;">
			<g>
				<path d="M142.835,573.859l0.309,2.625l0.153,0.313l0.618,4.786l0.93,7.268l0.462,3.092l0.158,0.466v0.617l0.149,0.461h0.468l0.619-0.461l0.769-0.466h0.775l0.62,0.154l0.463,0.152l0.307,0.159h0.776h0.77l0.928-0.159l1.701,0.311l0.928,0.156l0.616,0.153
					l0.928,0.623l0.773,0.149l0.308-0.302l1.545-0.624l0.622-0.308l1.08,0.151l0.927,0.156l0.619-0.467h0.461l0.313-0.615v-1.083v-0.464l-1.083,0.157l-1.082,0.154l-1.236-0.154l-1.546-0.924l-0.62-0.312l-1.39-1.083l-0.771-0.624l-0.464-0.61l-0.621-0.152
					l-0.463-0.158l-0.465-0.464l-0.617-0.309l-0.463-0.313l-0.775-0.153l-0.615-0.618l-0.461-0.614l-0.469-0.47l-0.922-0.46l-0.93-0.618l-0.464-0.469l-0.464-0.768l-0.466-0.929l-0.458-0.773l-0.617-0.621l-0.62-0.152l-0.467-0.772v-0.769l0.62-0.158l0.617,0.158
					l0.468,0.458v-0.308l-0.468-0.773l-0.617-0.93l-0.924-1.072l-0.461-0.624l-0.158-0.308l-0.619-0.312"/>
				<path d="M166.792,591.635l0.463-0.151l0.77-0.314l0.157,0.16h0.93l0.773-0.313h0.46l0.151,0.152v0.314v0.151l-0.303,0.153l-1.081-0.153l-0.623,0.153v0.464h-0.307l-0.618-0.155l-0.618,0.313l-0.154,0.306l-0.306-0.154h-0.468h-0.154v-0.464l0.305-0.462
					l0.159-0.151l0.464,0.151"/>
				<path style="stroke-linecap:round;stroke-linejoin:round;" d="M144.288,570.827l-3.231-4.232l-2.733-7.247l0.39-4.487l2.454-3.122l3.615-1.701l1.007-8.961l2.627-3.088l3.629-3.142l2.722-3.086l0.664-4.471l-0.728-2.924l-4.498,0.199l-3.273-2.812l-2.783-2.811
					l-0.929-4.384l1.64-4.534l1.887-2.323l3.972-2.407l3.646-0.153l-0.2-2.937l2.52-1.577l-0.28-4.434l-0.708-2.924l1.419-3.011l4.131-3.091l-4.395-1.333l3.081-3.062l2.316,2.876l3.246-0.074l0.447-2.226l-1.284-4.408l-4.802,2.346l-3.402-2.101l-0.298-5.16
					l-1.372-4.388l2.102-2.29l3.46,2.107l3.417,1.383l5.549-0.14l4.391-2.281l0.484-2.97l-1.193-2.194l2.658-7.419l-2.364-2.919l0.475-3.712l1.776,2.196l5.162-0.066l5.165-0.758l3.449-0.755l4.604-0.722l4.621-1.44l3.49-1.438l4.116-2.159l1.266-3.669l3.026-3.627
					l2.505-4.38l-0.449-4.45l-2.949-0.802l-1.686-3.712l1.928-4.405l-2.329-2.998l-5.997-3.029l-1.172-2.968l1.264-2.932l-0.753-3.543l1.151-3.772l1.144-2.194l0.254-3.414l0.063-3.027l0.238-2.63l1.394-3.852l0.157-2.548l0.467-3.062l-0.049-3.181l1.593-1.936
					l1.669-1.111l3.613-3.773l2.119-1.618l1.821-1.939l1.987-2.778l1.627-2.039l1.428-2.07l4.341-3.553l2.18-1.624l2.675-3.091l2.89-0.524l3.04-1.579l2.234-2.04l0.505-3.834l-0.06-3.217l-1.463-5.219l-2.122-0.94l-2.6,0.225l-0.447,3.113l-0.66,2.761l-1.629,3.374
					l-2.778,2.581l-3.063,2.136l-2.379,1.417l-3.187,0.229l-2.578,0.9l-3.588-0.601l-2.408-1.646l-3.801-0.912l-2.659-0.242l-2.443-0.453l0.573-2.984l1.76-4.03l3.185-4.682l0.063-3.246l-1.598-2.184l-3.117-1.434l-1.918-2.086l-4.977-2.644l-2.72-1.963l-2.182-0.88
					l-2.824-0.327l-3.064-0.214l-2.305-1.066l-1.653-2.722l-4.404-3.048l-4.34-4.127l-1.702-3.057l-2.226-1.286l-1.004-0.199l-2.114-1.297l-2.462-0.834l-2.893-0.051l-2.441-0.15l-2.055,1.719l-0.696,2.438l-2.562-0.464l-2.043-1.713l-2.566-0.587l-4.328-0.171
					l-2.474-1.021l-1.947-1.701l-2.012,2.536l-2.023,1.85l-1.884,2.417l-1.095,2.257l-1.066,0.817l1.003,2.38l-0.28,3.311l-0.414,2.644l-1.086,2.348l-6.675,3.395l-2.056,2.07l0.512,2.907l-0.819,2.541l0.418,3.01l0.633,3.091l0.572,3.833l0.943,2.842l-1.949,2.893
					l-1.699,1.687l-0.992,2.41l-0.865,2.705l-1.929,2.336l-1.257,2.935l-0.503,4.035l-0.869,3.51l-0.388,2.752l0.388,5.685l-0.697,2.645l-1.02,2.439l-0.678,2.523l-0.959,2.949l0.047,2.658l1.483,2.552l0.278,2.922l1.22,3.169l1.128,2.242l0.276,2.995l1.762,2.689
					l0.793,3.941l-0.883,4.235l-0.957,2.241l-0.356,3.282l-1.393,2.544l0.528,3.975l0.74,3.152l-1.481,2.335l-2.196,1.897l-0.279,2.629l0.076,3.83l0.232,2.754l0.495,3.289l1.637,5.734l-1.221,2.335l-0.789,3.34l-0.834,6.367l-0.245,10.278l0.29,2.784l1.564,2.207
					l0.542,2.66l-1.223,2.688l-0.34,2.614l0.448,3.137l1.252,2.555l0.324,2.852l1.331,2.677l0.292,2.581l0.111,2.582l2.529,0.311l1.086,2.905l-2.523,0.122l2.012,2.827l-0.281,2.736l0.559,6.09l0.478,2.613l0.218,2.568l-1.096,5.186l-1.793,4.074l0.276,2.73
					l1.005,2.644l-0.31,3.476l-0.846,2.938l-1.812,4.514l-0.341,2.463l0.202,2.935l0.416,3.141l0.759,2.447l1.763-0.323l1.87-0.183l1.5-0.604l0.862,2.523l0.559,2.827l0.433,2.973l1.204,2.806l1.626,0.821h1.623l4.217-0.354h1.838l3.838-0.528l2.19,0.518
					l3.589,0.486l2.288,0.819z"/>
			</g>
			<text transform="matrix(1 0 0 1 129.8979 420.8506)"><tspan x="0" y="0" style="fill:#000000;stroke:none;">Argentina</tspan></text>
		</g>
		<g>
			<g>
				<path style="fill:#FFFFFF;stroke-linecap:round;stroke-linejoin:round;" d="M90.638,5.519l-0.617,1.41l-3.647,1.854l1.237,4.22l1.331,3.539l-2.29,3.139l-2.35,4.605l2.102,2.753l0.619,3.6l5.179-1.905l0.154-5.147l-2.77-4.897l0.187-5.147l5.92-3.521
					l6.648-2.168l2.007-0.152l-0.154-1.546l-4.019-0.463l0.495-2.455l1.276-1.947l2.092,0.382l2.013,5.671l2.115-0.398l4.327,0.417l3.568,1.977l0.637,3.632l1.375,2.861l5.117-1.053l5.102-0.292l3.643-0.929l3.649-0.17l1.407,2.148l3.615,1.313l5.086,0.526
					l4.375-1.637l2.065-1.791l3.97-0.245l0.777-0.672l-4.305-0.621l1.293-0.85l16.035-0.389l1.604,0.549l-2.846,1.341l-4.247,0.147l-0.712,1.291l3.12,1.118l2.116,4.047l2.923-0.792l3.615,1.44l4.608,2.072l2.315,3.707l0.247,3.147l-2.097,1.028v0.461l3.677,0.74
					l2.89-1.646l4.095,2.358l-0.557,2.025l-4.728,2.023l-2.382,1.427l-1.418,2.255l0.349,2.612l2.26,1.762l-4.762,2.872l-0.603,3.219l-0.829,2.859l3.797,4.603l1.653,2.382l-0.229,2.257l-2.15,2.517l-2.737,0.847l-2.501,0.978l-1.916,1.808l-2.625,0.634
					l-2.738,0.279l-3.585,0.897l-3.217,1.622l-3.337-0.045l-3.463-1.218l-2.966-1.458l-2.628-0.273l-2.735,1.281l2.842,2.407l1.901,1.968l-0.615,2.871l0.108,2.736l0.709,2.723l1.546,2.097l2.984,0.404l1.792,1.981l-2.518,1.266l-3.109,1.743l-1.434,3.037
					l-2.985,1.171l-4.914,2.19l-2.75,1.426l-2.153,1.637l-3.104,0.605l-3-0.343l-2.393-1.687l-1.776-2.653l-0.123,0.02l-1.194-3.172l-2.489-5.724l-2.255-2.5l-1.903-1.917l2.039-1.902l1.702-1.998l0.014-2.627l-1.297-2.172l-2.025-1.559l-0.447-2.715l-0.693-2.457
					l1.14-5.886l1.471-2.583l0.386-2.628l0.867-2.765l-2.602-0.699l-2.518,1.098l-2.628,0.881l-2.629-0.075l-2.717-0.775l-2.398,1.101l-2.489-0.775l-1.634-2.132l-1.731-2.582l-1.745-1.762l-2.725-0.743l-2.854-0.371l-5.987,1.669l-3.551-0.291l-2.225-1.686
					l-2.599-1.064l-0.047-2.71l0.096-2.936l-3.374-6.489l-2.396-2.706l-1.358-1.963l1.514-2.366l1.22-4.204l1.208-3.739l2.736-3.865l4.065-4.344l2.598-3.138l3.922-1.161z"/>
			</g>
			<text transform="matrix(1 0 0 1 111.2207 39.3022)"><tspan x="0" y="0" style="stroke:none;">Venezuela</tspan></text>
		</g>
		<g>
			<path style="fill:#FFFFFF;stroke-linecap:round;stroke-linejoin:round;" d="M201.553,407.091l3.586,3.739l4.866,0.074l2.363,2.259l4.205,1.577l4.27-0.619l4.804,0.896l3.681-0.619l3.754-2.067l3.229-2.833l0.792-2.921l0.016-2.457l0.368-2.672l1.055-2.364
				l1.718-1.829l-1.676-2.102l-1.914-1.795l-0.911-3.38l-2.473-1.21l-2.069-1.401l-1.205-2.088l-2.211-0.989l-2.104-0.785l-2.907-3.977l-2.209,1.577l-1.572-2.104l-1.95-2.923l-2.508-2.424l-2.563-1.1l-2.208,1.629l-2.564-0.252l-1.593,1.936l0.049,3.181
				l-0.467,3.062l-0.157,2.548l-1.394,3.852l-0.238,2.63l-0.063,3.027l-0.254,3.414l-1.144,2.194l-1.151,3.772l0.753,3.543z"/>
			<text transform="matrix(1 0 0 1 204.5776 404.6348)"><tspan x="0" y="0" style="stroke:none;">Uruguay</tspan></text>
		</g>
		<g>
			<path style="fill:#FFFFFF;stroke-linecap:round;stroke-linejoin:round;" d="M233.096,333.207l0.632-4.744l1.257-6.8l-0.455-2.626l-2.36-0.85l-2.648,0.338l-3.548-1.194l-0.772-3.535l-0.027-2.736l-0.363-2.766l-0.461-2.782l-2.726-1.946l-3.845-0.757
				l-2.547,0.512l-2.444-0.173l-3.63-1.051l-3.062-2.153l0.229-10.244l-1.048-5.611l-3.428-4.762l-2.458-2.159l-2.598-0.808l-5.072-0.015l-2.489,0.106l-5.289,1.363l-4.723,1.389l-2.582,0.914l-2.475,0.584l-1.206,2.617l-2.521,4.512l-0.956,3.256l0.076,5.118
				l-1.358,5.24l-0.745,1.45l-0.43,0.792l1.004,0.199l2.226,1.286l1.702,3.057l4.34,4.127l4.404,3.048l1.653,2.722l2.305,1.066l3.064,0.214l2.824,0.327l2.182,0.88l2.72,1.963l4.977,2.644l1.918,2.086l3.117,1.434l1.598,2.184l-0.063,3.246l-3.185,4.682l-1.76,4.03
				l-0.573,2.984l2.443,0.453l2.659,0.242l3.801,0.912l2.408,1.646l3.588,0.601l2.578-0.9l3.187-0.229l2.379-1.417l3.063-2.136l2.778-2.581l1.629-3.374l0.66-2.761l0.447-3.113z"/>
			<text transform="matrix(1 0 0 1 177.3799 309.3579)"><tspan x="0" y="0" style="stroke:none;">Paraguay</tspan></text>
		</g>
		<g>
			<path style="fill:#FFFFFF;stroke-linecap:round;stroke-linejoin:round;" d="M108.168,263.936l-0.589-2.367l1.473-2.722l1.944-2.412l1.392-2.143l-0.803-2.601l-2.028-1.483l-0.584-2.72l0.46-2.675l1.407-2.162l-1.033-2.6l0.229-2.779l1.654-2.07l-0.785-5.519
				l0.234-2.925l0.028-2.565l0.539-4.114l1.33-2.282l-2.952-4.5L105,205.187l2.702-0.064l2.954,0.526l3.864-0.11l2.581-0.617l6.258-3.152l3.802-3.707l3.556-4.164l2.459-0.818l2.939-0.357l2.826-0.46l2.826,0.372l1.332,2.408l0.185,3.524l0.047,2.582l-0.417,2.714
				l-0.789,2.494l0.631,2.556l1.101,2.297l1.793,1.808l4.373,3.02l3.044,0.618l4.791,0.108l2.46,0.525l1.775,2.053l2.349,1.472l5.83,1.421l2.225,2.177l2.795,0.433l3.832,0.076l2.227,1.378l2.322,1.728l1.276,2.783l0.234,2.552l1.283,2.656l-0.231,2.878
				l-1.267,2.422l1.748,5.177l1.033,2.643l2.64,0.469l3.326,0.352l3.324,0.236l3.558,0.134l2.286,1.066l-0.375,2.508l-0.01,2.752l1.341,2.176l2.487,2.198l1.672,3.441l0.649,2.742l-0.185,5.438l-0.245,2.706l-1.16,2.241l-0.712,2.581l0.396,3.152l-1.464,0.756
				l-3.428-4.762l-2.458-2.159l-2.598-0.808l-5.072-0.015l-2.489,0.106l-5.289,1.363l-4.723,1.389l-2.582,0.914l-2.475,0.584l-1.206,2.617l-2.521,4.512l-0.956,3.256l0.076,5.118l-1.358,5.24l-0.745,1.45l-0.43,0.792l-2.114-1.297l-2.462-0.834l-2.893-0.051
				l-2.441-0.15l-2.055,1.719l-0.696,2.438l-2.562-0.464l-2.043-1.713l-2.566-0.587l-4.328-0.171l-2.474-1.021l-1.947-1.701l-2.012,2.536l-2.023,1.85l-1.884,2.417l-1.095,2.257l-1.066,0.817l-1.097,0.047l-2.504,0.575l-2.566-0.529l-0.804-2.611l-0.851-3.276
				l-0.295-3.542l-0.708-2.861l-0.789-2.394l-0.696-2.539l-2.085-1.45l-0.37-2.781l-1.706-2.38l1.564-2.33l-0.136-2.695l-0.378-2.81l-1.99-1.456l-1.947-2.503l-1.004-6.399l-1.795-1.948l-2.039-1.915z"/>
			<text transform="matrix(1 0 0 1 134.5068 257.4683)"><tspan x="0" y="0" style="stroke:none;">Bolivia</tspan></text>
		</g>
		<g>
			<path style="fill:#FFFFFF;stroke-linecap:round;stroke-linejoin:round;" d="M105,205.187l-1.516,0.323l-2.674,0.999l-3.092-0.846l-0.077-2.581l0.017-2.578l-0.185-5.87l-1.378-2.265l-4.234,3.834l-2.675,1.626l-3.755,0.401l-2.767-1.423l-1.512-2.474
				l-2.615-0.123l-2.982-0.929l0.708-3.015l-2.3-1.575l-2.6-2.954l-1.435-3.538l-1.516-2.691l0.142-2.854l1.437-3.449l1.099-3.17l2.948-0.867l-0.09-3.426l0.634-3.139l2.284-3.986l1.872-2.306l1.98-2.071l2.592-1.869l2.972-1.547l8.778-3.276l2.967-0.692
				l2.985-1.036l-2.179-1.41l-2.522-0.879l-0.629-2.706l2.486-3.031l1.638-2.502l-1.343-2.646l-2.273-1.388l-3.245-1.194l-2.876,0.945l-2.627,0.204l-3.478-0.682l-2.132,1.851l-2.751,0.589l-2.524-0.382l-2.997,0.257l-1.467-2.955l-1.344-2.251l-2.182-1.594
				l-0.49-2.812l-2.288-1.33l-2.658-1.161l-1.457-2.008l-1.681-1.978l-1.811-1.717l-2.519-0.699l-2.286-0.335l-2.288,1.901l1.7,1.96l1.347,2.952l-1.548,2.183l-2.953,5.781l-2.01,2.593l-2.256,2.26l-2.118,2.61l-3.445,2.304l-6.786,3.041l-2.507,1.361l-2.221,2.771
				l-2.104,1.917l-1.963,3.213l-0.523,2.674l-0.032,3.323l-1.965,2.272l-2.443,2.088l-2.55-0.849l-1.281-2.215l-2.631,0.344l-2.673-0.943l-2.531-0.142l-0.558-2.414l2.583-1.77l-0.838-4.04l-3.969,3.613L0.5,157.084l0.142,3.647l1.637,4.177l3.136,3.983
				l-2.814,3.323l3.046,1.795l4.511,1.587l3.075,2.542l3.124,3.275l1.731,4.932l4.543,2.375l3.157,4.033l5.131,12.661l4.699,5.362l1.729,4.221l3.17,4.08l1.64,2.762l3.076,2.632l1.729,4.25l3.273,5.566l-0.4,4.48l3.896,4.023l6.11,5.298l5.947,3.135l4.294,0.348
				l4.5,3.289l5.857,2.454l2.859,0.498l4.418,2.61l4.359,1.889l3.048,3.46l2.886,1.281l2.414,3.183l1.514-1.345l2.599-0.399l1.694-2.057l1.936-2.501l-0.589-2.367l1.473-2.722l1.944-2.412l1.392-2.143l-0.803-2.601l-2.028-1.483l-0.584-2.72l0.46-2.675l1.407-2.162
				l-1.033-2.6l0.229-2.779l1.654-2.07l-0.785-5.519l0.234-2.925l0.028-2.565l0.539-4.114l1.33-2.282l-2.952-4.5L105,205.187z"/>
			<text transform="matrix(1 0 0 1 56.7246 222.9673)"><tspan x="0" y="0" style="stroke:none;">Peru</tspan></text>
		</g>
		<g style="fill:#FFFFFF;stroke-miterlimit:10;">
			<g>
				<path d="M155.048,597.201h-0.158h-0.62l-0.153-0.161h-0.156v-0.613l0.309-0.151l0.314-0.159l0.153,0.159l0.152,0.305l0.158,0.621z"/>
				<path d="M155.202,595.039h-0.464l-0.153-0.161l-0.153-0.155h-0.161l-0.153-0.152l-0.463-0.311v-0.149h0.307h0.156l0.153,0.149h0.314v0.155l0.153-0.155l0.152,0.155l0.158,0.308v0.155l0.154,0.161z"/>
				<path d="M155.973,595.808l0.616-0.153l0.311,0.307v0.314l-0.46,0.305l-0.311-0.153l-0.155-0.311v-0.309z"/>
				<path d="M142.835,573.859v-0.314l-0.619-0.615l-0.773,0.615l-0.926,0.314h-0.924l-0.93-1.546l-0.931,0.773l-0.462,0.926l-0.15,0.927l-0.934,0.312l-0.306,0.307l-0.776-0.455l-1.54,0.304l1.081,0.151l0.308,0.617l0.466,0.623l-0.157,0.771l-0.616,0.309
					l-0.462-0.458l-0.465,0.149l0.155,1.235v1.083l0.463,0.622l0.617,0.306l0.773,0.466l0.925-0.466l1.083-0.458l1.083-0.315l0.778,0.15l0.616,0.623l-0.156,1.235l-1.238,0.461l-1.232,0.469l-0.157,0.462h-0.929l-0.154,0.773l0.307,1.234l0.62,1.707l0.313,0.305
					l1.232,0.458l0.93,0.158l0.929,0.307l0.46,0.777h-0.926v0.465l-0.93-0.928h-0.771v0.928l-0.924-0.775l-0.464-0.467l-0.47,0.623l0.158,0.465l0.924,0.311l-0.613,0.155l-0.159,0.46l-0.618-0.771l-1.24-0.619l-0.922-0.309l-1.549-1.237l0.159,0.923l1.081,0.623
					l0.31,0.619l-0.156,0.312l-0.309-0.155h-0.153l-0.311,0.452h-0.928l0.153,0.627l-1.231,0.307l-0.161,0.16l0.465,0.306l0.156,0.774l-0.156,0.306l0.773-0.154l0.308-0.309l1.393,0.157l-0.462,0.617v0.151h0.618l0.153,0.31l-0.463,0.309h0.928l0.46-0.309
					l1.083,0.309l0.927,0.314l1.238-0.152v-0.315l2.167-0.155l1.542,0.155l1.396,0.928l0.461-0.46h0.772l-0.312-0.623h1.081l-0.149-0.461v-0.617l-0.158-0.466l-0.462-3.092l-0.93-7.268l-0.618-4.786l-0.153-0.313l-0.309-2.625z"/>
				<path style="stroke-linecap:round;stroke-linejoin:round;" d="M115.323,567.062l0.389,3.386l1.621,0.321l1.939-2.633l2.542,2.783l0.378,1.914l-1.223,1.945l1.759,0.728l4.801-1.027l2.664,1.854l-0.866,3.06l-4.438,2.645l1.687,2.083l4.123,1.116l1.609-0.879
					l-0.683-4.412l0.221-4.494l3.673-2.521l2.229-0.165l0.154-2.244l2.703-0.186l3.681,0.492L142,570.008l-3.589-0.486l-2.19-0.518l-3.838,0.528h-1.838l-4.217,0.354h-1.623l-1.626-0.821l-1.204-2.806l-0.433-2.973l-0.559-2.827l-0.862-2.523l-1.5,0.604l-1.87,0.183
					l-1.763,0.323l-0.759-2.447l-0.416-3.141l-0.202-2.935l0.341-2.463l1.812-4.514l0.846-2.938l0.31-3.476l-1.005-2.644l-0.276-2.73l1.793-4.074l1.096-5.186l-0.218-2.568l-0.478-2.613l-0.559-6.09l0.281-2.736l-2.012-2.827l2.523-0.122l-1.086-2.905l-2.529-0.311
					l-0.111-2.582l-0.292-2.581l-1.331-2.677l-0.324-2.852l-1.252-2.555l-0.448-3.137l0.34-2.614l1.223-2.688l-0.542-2.66l-1.564-2.207l-0.29-2.784l0.245-10.278l0.834-6.367l0.789-3.34l1.221-2.335l-1.637-5.734l-0.495-3.289l-0.232-2.754l-0.076-3.83l0.279-2.629
					l2.196-1.897l1.481-2.335l-0.74-3.152l-0.528-3.975l1.393-2.544l0.356-3.282l0.957-2.241l0.883-4.235l-0.793-3.941l-1.762-2.689l-0.276-2.995l-1.128-2.242l-1.22-3.169l-0.278-2.922l-1.483-2.552l-0.047-2.658l0.959-2.949l0.678-2.523l1.02-2.439l0.697-2.645
					l-0.388-5.685l0.388-2.752l0.869-3.51l0.503-4.035l1.257-2.935l1.929-2.336l0.865-2.705l0.992-2.41l1.699-1.687l1.949-2.893l-0.943-2.842l-0.572-3.833l-0.633-3.091l-0.418-3.01l0.819-2.541l-0.512-2.907l2.056-2.07l6.675-3.395l1.086-2.348l0.414-2.644
					l0.28-3.311l-1.003-2.38l-1.097,0.047l-2.504,0.575l-2.566-0.529l-0.804-2.611l-0.851-3.276l-0.295-3.542l-0.708-2.861l-0.789-2.394l-0.696-2.539l-2.085-1.45l-0.37-2.781l-1.706-2.38l1.564-2.33l-0.136-2.695l-0.378-2.81l-1.99-1.456l-1.947-2.503l-1.004-6.399
					l-1.795-1.948l-2.039-1.915l-1.936,2.501l-1.694,2.057l-2.599,0.399l-1.514,1.345l2.008,0.203l0.248,4.423l1.004,5.111l1.75,5.8l-0.42,4.465l0.278,4.423l0.976,4.37l-0.777,8.917l-1.712,4.562l0.648,8.84l-0.341,4.467l1.019,4.371l0.297,3.686l-1.761,3.074
					l1.747,5.067l-2.136,6.076l0.402,4.421l-1.561,4.562l-0.229,4.465l-1.518,4.557l1.576,2.843l1.223,5.847l-2.318,2.397l-0.174,4.46l2.259,9.476l0.324,2.938l1.563,2.857l-1.824,6.074l1.111,4.378l-1.495,3.076l-0.095,4.467l-1.269,4.561l-1.839,4.604
					l-1.219,9.039l-1.563,1.623l0.618,4.408l-2.922,0.269l-0.418,5.255l2.277,3.52l0.537,3.659l2.335,7.992l-2.146,4.67l0.801,5.146l-0.523,3.771l1.146,3.63l1.558,2.835l2.829,0.474l0.65-3.028l3.494,1.181l-1.188,3.074l1.836,1.329l-1.406,1.619l0.895,5.874
					l-1.017,3.835l1.515,2.842l-1.532,3.864l3.198,2.271l0.622,3.557l-3.558,2.169v1.998l-0.307,3.255l0.968-0.555l0.111,1.942l-0.925,0.92l0.535,3.757l-0.621,0.827l-0.481-1.172l-0.618-0.142l-0.668,1.84h-0.775l-0.628-4.114l-2.829-0.754l-2.556,0.754
					l0.209,1.936l1.313-0.485l0.322,0.964l-1.701,0.923l-2.008,2.784l0.212,3.54l1.333-0.14l-0.368-2.624l0.831-0.776l3.308,2.021l1.103-1.245l2.852,1.699l-1.854,4.479l2.938,1.086l-0.618,1.232l1.93,0.757l0.138-0.901l3.447,3.796l-0.569,0.373l-2.19-1.341
					l-4.146-0.21l0.307,2.164l2.008,2.472l-0.031,2.614l1.425,5.427l0.617,0.154l0.309-2.015l1.238-1.075l-0.314,4.014l-1.386,1.24l0.153,2.78l-1.082,1.547l1.317,1.517l2.39,0.645l0.775,0.927l-1.082-0.303l-0.309,0.768l1.39,1.389l1.182,0.03l0.21,0.592
					l-1.866,0.511l-0.301,0.881l1.39,1.854l2.154,1.617l0.94,1.94z"/>
				<path d="M134.025,582.825h0.156l0.153,0.155l0.155,0.771l0.154,0.62l0.459,1.39l0.157,0.466l0.308,0.618v0.313h-0.308l-0.309-0.313l-0.462-0.467l-0.464-0.151l0.156,0.931l0.462,0.763l0.459,0.316h0.622l0.307,0.463l-0.152,0.152l-0.462-0.152l-0.618-0.155
					l-0.465-0.466l-0.619-0.466l-0.464-0.613l-0.31-0.772v-0.622l0.154-0.154l0.307-0.153h0.468l0.154-0.313l-0.154-0.455l-0.308-0.47v-0.308l0.308-0.463l0.154-0.463z"/>
				<path d="M127.38,585.761h0.15l0.155,0.153l0.313,0.313l0.31,0.151l0.31,0.309v0.313v0.463l0.31,0.311l0.151-0.615l0.311-0.471h0.618l0.309,0.471l0.311-0.158l0.309,0.463l0.151,0.458l0.316,0.465l0.149-0.307h0.466l0.307,0.466l0.308,0.618l-0.461,0.621h-0.62
					l-0.304-0.156v-0.154l-0.312-0.465h-0.929l-0.929-0.156l-0.151,0.462l0.151,0.159v0.154l-0.77-0.154l-0.31-0.465l-0.617-0.309l-0.619-0.155l-0.155-0.466l-0.154-0.466l-0.461-0.926h0.461l0.463-0.309l0.306-0.617h0.159z"/>
				<path d="M97.856,480.041l0.312-0.152l0.156,0.931l0.156,0.304l0.46-0.155h0.463l0.462,0.155l0.31,0.311l0.929,1.701l0.155,0.616l0.618,1.077l0.15,0.625l-1.082,0.307l-0.307,1.392l-0.463-0.153l-0.153,0.616v0.464l0.616,0.776h0.621l0.464,0.772l-1.084,0.304
					l0.307,0.619l0.778,1.087l0.154,1.076h-1.083l0.616,1.394l-0.464,0.773l-0.923,0.15l-2.319-0.457l-0.929-1.393l0.311-1.392l0.306-2.935l-0.15-1.24l-0.312-1.394l-0.155-1.393l0.155-1.384l-0.155-1.394l0.155-0.776l0.462-0.151l0.312-0.927l0.152-0.155z"/>
				<path d="M133.716,596.427v-0.151l-0.153-0.159l0.153-0.462l0.309-0.308l0.464-0.157l0.31,0.465l0.152,0.462l0.152,0.311l-0.152,0.307h-0.308l-0.309-0.153l-0.619-0.153z"/>
				<path d="M142.835,594.57l0.155,0.152l-1.084,0.316l-0.771,0.308h-0.617l-0.464,0.308h-0.155l-0.305-0.155l-0.16-0.46l-0.154-0.779l0.467-0.149l0.152,0.149l0.465-0.149l0.616-0.152l0.156,0.152h1.082l0.465,0.149l0.154,0.311z"/>
				<path d="M139.125,596.427l0.153-0.151l1.396-0.314l1.386-0.462l0.621-0.31l0.31-0.15l0.464-0.161h1.234l1.239-0.618h0.613l0.466,0.463l0.311,0.155l0.309,0.621l-0.463,0.155l-0.622,0.153h-0.613l-1.395-0.461l-0.156,0.152l0.311,0.309l0.776,0.309l1.387,0.159
					h0.774l0.309,0.151l0.153,0.464l0.157,0.149l-0.775,0.161h-0.618l-0.312,0.146v0.161l0.777,0.308h0.771l0.621,0.31l0.156,0.619l0.463,0.153l0.154,0.775l0.306,0.615v0.312h-0.153l-0.617-0.465l-0.309-0.462l-0.157-0.623h-0.464l-0.771-0.611l-1.078,0.459
					l-0.312,0.152l-0.621-0.459l-0.154-0.775l-0.464-0.153l-0.155-0.315l-0.46-0.308h-1.238l-0.309,0.469l0.464,0.617l0.925,0.772l0.462,0.618h-0.305h-1.238h-0.309l-0.31-0.466v-0.306l-1.238-0.77v-0.159l0.621-0.469l0.461-0.308l0.156-0.307v-0.153l-0.617,0.153
					l-0.621,0.468l-0.616,0.308h-0.617l-0.467-0.161l-0.153-0.457v-0.311v-0.153z"/>
				<path d="M148.399,594.878l-0.153-0.308h-0.619l-0.156-0.155l-0.153-0.457h0.153l0.928-0.162l0.466-0.153l0.77-0.155l1.546,0.309h0.773h0.925l0.31,0.464l0.465,1.395l0.155,0.307v0.314l-0.466,0.458l-0.465,0.307h-0.459l-0.157-0.149l-0.154-0.464l-0.154-0.151
					l-0.464-0.159h-0.462l0.152,0.464h-0.617l-0.153-0.153l0.153-0.151h-1.082l-0.617-0.159l-0.156-0.462l-0.157-0.465c0,0-0.307-0.774-0.153-0.312z"/>
			</g>
			<text transform="matrix(1 0 0 1 108.1494 319.2554)"><tspan x="0" y="0" style="fill:#000000;stroke:none;">Chile</tspan></text>
		</g>
		<g>
			<g>
				<path style="fill:#FFFFFF;stroke-linecap:round;stroke-linejoin:round;" d="M8.782,149.186l3.326-1.777l1.359-4.591l1.423-3.12l-3.71,0.492l-0.636,4.501l-3.816-3.88l-2.998-1.05l1.454-1.673l-0.093-4.39l-1.578-5.639l3.708-1.985l-0.045-4.382l3.693-3.431
					l0.71-5.951l10.436-6.515l1.14,0.351l6.154,1.836l3.602,1.559l2.178,2.121l1.564,1.837l3.368-0.762l2.767-0.071l2.765-0.791l2.64-0.294l2.771,1.485l2.412,0.943l-2.288,1.901l1.7,1.96l1.347,2.952l-1.548,2.183l-2.953,5.781l-2.01,2.593l-2.256,2.26l-2.118,2.61
					l-3.445,2.304l-6.786,3.041l-2.507,1.361l-2.221,2.771l-2.104,1.917l-1.963,3.213l-0.523,2.674l-0.032,3.323l-1.965,2.272l-2.443,2.088l-2.55-0.849l-1.281-2.215l-2.631,0.344l-2.673-0.943l-2.531-0.142l-0.558-2.414l2.583-1.77l-0.838-4.04z"/>
			</g>
			<text transform="matrix(1 0 0 1 9.3857 129.7212)"><tspan x="0" y="0" style="stroke:none;">Ecuador</tspan></text>
		</g>
		<g>
			<path style="fill:#FFFFFF;stroke-linecap:round;stroke-linejoin:round;" d="M34.553,56.336l0.875,1.013l-0.848,3.755l0.587,5.763l-0.109,4.392l0.648,4.309l-1.558,4.576l2.935,2.568l-3.029,4.013l-2.287,5.414l-5.209,0.651l-3.014,4.771l0.71,3.556l-3.723,1.223
				l1.485,3.455l1.14,0.351l6.154,1.836l3.602,1.559l2.178,2.121l1.564,1.837l3.368-0.762l2.767-0.071l2.765-0.791l2.64-0.294l2.771,1.485l2.412,0.943l2.286,0.335l2.519,0.699l1.811,1.717l1.681,1.978l1.457,2.008l2.658,1.161l2.288,1.33l0.49,2.812l2.182,1.594
				l1.344,2.251l1.467,2.955l2.997-0.257l2.524,0.382l2.751-0.589l2.132-1.851l3.478,0.682l2.627-0.204l2.876-0.945l3.245,1.194l2.273,1.388l1.343,2.646l-1.638,2.502l-2.486,3.031l0.629,2.706l2.522,0.879l2.179,1.41l0.448-1.579l1.003-5.899l0.574-2.787
				l0.814-2.675l0.452-2.529l0.463-3.482l0.57-3.139l0.356-2.771l-0.371-2.592l-0.724-2.829l-1.811-2.488l-2.288-1.763l-0.477-2.707v-2.61l2.271-2.07l2.643-0.894l3.106,0.274l-0.709-2.475l-2.504-1.014l-2.766-0.529l-0.109-2.735l1.096-2.686l9.691-0.64
				l2.645-0.273l2.396-1.454l5.5-1.376l1.898,2.161l0.714,2.6l2.399,1.069l-0.123,0.02l-1.194-3.172l-2.489-5.724l-2.255-2.5l-1.903-1.917l2.039-1.902l1.702-1.998l0.014-2.627l-1.297-2.172l-2.025-1.559l-0.447-2.715l-0.693-2.457l1.14-5.886l1.471-2.583
				l0.386-2.628l0.867-2.765l-2.602-0.699l-2.518,1.098l-2.628,0.881l-2.629-0.075l-2.717-0.775l-2.398,1.101l-2.489-0.775l-1.634-2.132l-1.731-2.582l-1.745-1.762l-2.725-0.743l-2.854-0.371l-5.987,1.669l-3.551-0.291l-2.225-1.686l-2.599-1.064l-0.047-2.71
				l0.096-2.936l-3.374-6.489l-2.396-2.706l-1.358-1.963l1.514-2.366l1.22-4.204l1.208-3.739l2.736-3.865l4.065-4.344l2.598-3.138l3.922-1.161l1.718-2.471l-1.361-2.071L88.118,0.5l-3.011,2.471l-2.303,3.139l-3.71,1.825l-3.019,2.491l-4.475,2.64l-5.813-0.109
				l-2.336,3.17l-3.631-0.327l-3.741,1.871l-2.333,3.201l-0.926,4.482l-0.204,4.39l-3.708,1.17l-2.367,3.927l-4.575,4.189l-0.115,3.067l0.211,1.052l-0.283,0.663l-0.754,0.141l-0.614-0.613l0.614-1.086l-0.282-0.374l-0.19,0.188l-0.427-0.236l0.192-0.19
				l-2.171-2.546l-0.8-0.377l-1.322-1.702l-0.563,1.184l0.94,1.413l0.095,0.848l0.85,1.181l0.706,1.888l-0.99,0.423l-0.708,1.082l0.235,0.759l-0.707,0.754l-1.746,1.039l-1.274-1.889l-0.425,0.475l0.425,1.315l-0.989,0.665l-0.708,2.266l0.049,0.046l2.216,2.402
				l-0.377,0.615l0.187,0.427h0.377l0.661,1.134l0.272,1.292z"/>
			<text transform="matrix(1 0 0 1 47.9482 79.6128)"><tspan x="0" y="0" style="stroke:none;">Colombia</tspan></text>
		</g>
		<g>
			<path style="fill:#FFFFFF;stroke-linecap:round;stroke-linejoin:round;" d="M239.037,86.59l1.927,2.117l2.631,0.942l2.505-1.077l2.752,0.488l2.873-0.696l4.155-3.371l1.3-3.262l1.779-2.639l1.886-2.505l1.291-2.304l2.986-3.062l-0.664-0.69l-2.968-2.398
				l-4.468-3.201l-3.708-3.149l-4.453-2.444l-3.691-1.634l-1.908-0.568l-1.415,2.081l-1.777,1.825l-0.693,2.454l0.028,2.738l0.496,3.479l1.452,2.918l1.45,2.441l-0.462,3.308l-1.16,6.153l-2.144,2.055z"/>
			<text transform="matrix(1 0 0 1 245.0308 78.9897)"><tspan x="0" y="0" style="stroke:none;">French Guyana</tspan></text>
		</g>
		<g>
			<path style="fill:#FFFFFF;stroke-linecap:round;stroke-linejoin:round;" d="M215.014,53.714l5.15,0.864l4.403,0.123l4.404-0.601l4.404,0.159l4.427,0.908l4.418,1.654l1.04,0.316l-1.415,2.081l-1.777,1.825l-0.693,2.454l0.028,2.738l0.496,3.479l1.452,2.918
				l1.45,2.441l-0.462,3.308l-1.16,6.153l-2.144,2.055h-0.354l-2.987-1.314l-2.752-0.466l-3.108,0.725l-2.752-0.551l-0.941,2.842l-1.434,2.098l-3.7-0.939l-1.914-1.837l-1.686-1.95l-1.544-2.41l-1.209-2.303l-1.078-3.001l-2.627-1.246l-1.562-2.167l-2.275-2.903
				l-0.708-2.506l0.945-2.366l0.229-2.734l2.259-1.518l2.49-0.429l1.193-2.474l0.566-2.487l0.926-2.939z"/>
			<text transform="matrix(1 0 0 1 210.771 70.3862)"><tspan x="0" y="0" style="stroke:none;">Suriname</tspan></text>
		</g>
		<g>
			<path style="fill:#FFFFFF;stroke-linecap:round;stroke-linejoin:round;" d="M191.212,32.183l1.021,0.589l0.834-0.647l7.942,6.613l1.488,3.708l-0.522,3.059l0.519,0.485l2.936-0.56l4.145,1.926l3.213,3.361l2.227,2.998l-0.926,2.939l-0.566,2.487l-1.193,2.474
				l-2.49,0.429l-2.259,1.518l-0.229,2.734l-0.945,2.366l0.708,2.506l2.275,2.903l1.562,2.167l2.627,1.246l1.078,3.001l1.209,2.303l1.544,2.41l1.686,1.95l1.914,1.837l-3.229,0.403l-2.499-0.899l-2.629,0.917l-2.026,1.636l-5.378,1.347l-2.273,1.281l-2.627,1.054
				l-2.503-0.731l-2.27-1.326l-2.043-2.042l-1.9-5.631l-1.084-2.499v-2.86l1.069-3.104l0.247-2.862l1.792-2.026l-0.835-2.738l-1.436-2.753l-2.15-1.417l0.479-3.585l-2.611-1.177l-3.109,0.248l-1.653-2.382l-3.797-4.603l0.829-2.859l0.603-3.219l4.762-2.872
				l-2.26-1.762l-0.349-2.612l1.418-2.255l2.382-1.427l4.728-2.023l0.557-2.025z"/>
			<text transform="matrix(1 0 0 1 187.5698 50.6274)"><tspan x="0" y="0" style="stroke:none;">Guyana</tspan></text>
		</g>
	</g>
</svg>
