<?xml version="1.0" encoding="iso-8859-1"?>
<!DOCTYPE svg >

<svg  width="801.686pt" height="397.253pt" viewBox="0 0 801.686 397.253" xml:space="preserve">
	<g id="Layer_x0020_1" style="fill-rule:nonzero;clip-rule:nonzero;fill:#FFFFFF;stroke:#000000;stroke-miterlimit:4; font-family:'Arial'; font-size:10;">
		<g style="fill:#000000;stroke:none;">
			<path style="fill:#FFFFFF;stroke:#000000;" d="M475.721,158.878l-3.599,3.591h10.794v7.201l32.381-7.201l3.597,10.801h7.193l7.198,10.79l7.196-3.595l-17.992-79.156l-17.985,25.182v7.198h-7.197l-17.988,10.798h-10.793v10.787l7.195,3.604z"/>
			<text transform="matrix(1 0 0 1 484.3213 149.6733)"><tspan x="0" y="0">Southeast</tspan><tspan x="0" y="6.859">Fairbanks</tspan></text>
		</g>
		<g>
			<path d="M328.21,270.416l14.387-7.201l14.392,14.391l21.59-10.797l-3.598,7.204l-3.598,7.19v14.396l-28.786,21.58v17.99l43.175-28.778l32.383-35.976h-10.798l-3.591-10.803l10.786-14.387v-32.382h3.603v-17.991l-7.195,3.601l-3.603,25.183h-50.368l-28.778,46.779
				z"/>
			<text transform="matrix(1 0 0 1 351.5127 251.7241)"><tspan x="0" y="0" style="fill:#000000;stroke:none;">Dillingham</tspan></text>
		</g>
		<g>
			<path d="M292.231,220.044l-3.603,7.19l14.395,14.393h17.983l7.203,10.795l-3.602,7.19l3.602,10.803l28.778-46.779h50.368l3.603-25.183h-68.362l3.597,3.6l-14.384,3.595h-10.803l-28.775,14.396z"/>
			<text transform="matrix(1 0 0 1 314.7646 225.8892)"><tspan x="0" y="0" style="fill:#000000;stroke:none;">Bethel</tspan></text>
		</g>
		<g style="fill:#000000;stroke:none;">
			<path style="fill:#FFFFFF;stroke:#000000;" d="M339.003,180.465h-7.193l-7.201-7.195l-7.198,3.589l-10.79-7.188l-7.193,14.39l-17.991,17.993l10.795,17.991l28.775-14.396h10.803l14.384-3.595l-3.597-3.6h-3.594v-17.988z"/>
			<text transform="matrix(1 0 0 1 293.8311 191.4839)"><tspan x="0" y="0">Wade</tspan><tspan x="0" y="6.859">Hampton</tspan></text>
		</g>
		<g>
			<g>
				<path d="M313.813,97.712l-35.977,14.392l10.792,10.797v14.387l14.395,7.198l21.585,3.594l14.395-10.792l3.594,25.181l-14.387,3.601l-3.602,7.2l7.201,7.195h7.193l3.594-10.795l7.198-7.201l3.6-25.181v-10.798H317.41l-3.597-7.19V97.712z"/>
				<path d="M257.491,138.865l-0.202-1.768l-7.334-7.987l-7.82-2.907l-1.647-4.265l2.572-5.119l6.454,6.656l6.689,0.585l1.484,1.701l-0.018,2.878l3.857,4.718l6.844,3.165l-0.646,2.518l-5.166-1.77l-2.543,2.238l-2.525-0.644"/>
			</g>
			<text transform="matrix(1 0 0 1 299.3193 137.1509)"><tspan x="0" y="0" style="fill:#000000;stroke:none;">Nome</tspan></text>
		</g>
		<g>
			<path d="M310.217,68.932l10.79,17.985l14.399,3.599v21.588H317.41V97.712h-3.597V119.3l3.597,7.19h35.984v-10.79h7.193v-3.596h10.795v-7.191h7.195v3.599h3.597v-3.599l10.793,3.599v-7.204h7.2v-3.597h3.598V86.917h-7.202v-7.193l-7.198-3.602v-3.594
				l-79.148-3.597z"/>
			<text transform="matrix(1 0 0 1 350.3105 94.54)"><tspan x="0" y="0" style="fill:#000000;stroke:none;">Kobuk</tspan></text>
		</g>
		<g>
			<path d="M310.217,68.932l79.148,3.597l79.16-7.196V54.538l39.573-7.201l-7.19-25.179l-21.59-10.79l-10.793,7.199l-35.981-7.199l-10.792,3.599l-10.793-3.599V7.764l-32.381-7.191l-3.598,7.191h-17.992l-14.392,10.803L331.81,29.353l-3.6,10.792l-7.203,7.191
				H306.62l-7.193,10.797l10.79,10.798z"/>
			<text transform="matrix(1 0 0 1 410.9092 36.5659)"><tspan x="0" y="0" style="fill:#000000;stroke:none;">North Slope</tspan></text>
		</g>
		<g>
			<path d="M389.365,72.529v3.594l7.198,3.602v7.193h7.202v10.795h-3.598v3.597h-7.2v7.204l-10.793-3.599v3.599h-3.597v-3.599h-7.195v7.191h-10.795v3.596h-7.193v21.588l-3.6,25.181l-7.198,7.201l-3.594,10.795v17.988h3.594h68.362l7.195-3.601V184.06h10.792
				l21.589-17.99h14.391v-3.601h7.196l3.599-3.591l-7.195-3.604v-10.787h-3.6l-10.793-7.198v-10.798l21.588-7.19l7.195,7.19l14.391-3.589v10.787h7.197v-7.198l17.985-25.182l-14.391-53.972l-39.573,7.201v10.795l-79.16,7.196z"/>
			<text transform="matrix(1 0 0 1 418.5127 101.5767)"><tspan x="0" y="0" style="fill:#000000;stroke:none;">Yukon-Koyukuk</tspan></text>
		</g>
		<g style="fill:#000000;stroke:none;">
			<path style="fill:#FFFFFF;stroke:#000000;" d="M468.525,209.249v14.388l3.597,14.391l3.599-10.792l-3.599-7.19l21.581-3.604l25.19,14.392l21.588-7.195l10.797,3.599l-3.602-10.795l-7.195-35.975l-7.196,3.595l-7.198-10.79h-7.193l-3.597-10.801l-32.381,7.201
				l3.595,17.983h-7.192l3.598,17.994l-14.391,3.601z"/>
			<text transform="matrix(1 0 0 1 491.2002 198.1772)"><tspan x="0" y="0">Valdez</tspan><tspan x="0" y="6.859">Cordova</tspan></text>
		</g>
		<g style="fill:#000000;stroke:none;">
			<path style="fill:#FFFFFF;stroke:#000000;" d="M418.154,184.06v28.784h21.585v3.596h3.595l7.201-3.596l17.99-3.596l14.391-3.601l-3.598-17.994h7.192l-3.595-17.983v-7.201h-17.99v3.601h-14.391l-21.589,17.99h-10.792z"/>
			<text transform="matrix(1 0 0 1 424.3262 189.7856)"><tspan x="0" y="0">Matanuska</tspan><tspan x="0" y="6.859">Susitna</tspan></text>
		</g>
		<g>
			<g>
				<path d="M414.552,212.844v32.382l-10.786,14.387l3.591,10.803h10.798l3.598-7.201h-10.793l32.375-46.774h-3.595v-3.596h-25.188z"/>
				<path d="M450.535,220.044l-10.796,7.19l-3.6,21.59l7.194-3.599l-7.194,7.196l3.6,3.593l21.588-14.388l10.795-3.601l-3.597-14.391l-17.99-3.592z"/>
			</g>
			<text transform="matrix(1 0 0 1 439.5801 236.938)"><tspan x="0" y="0" style="fill:#000000;stroke:none;">Kenai</tspan></text>
		</g>
		<g>
			<g>
				<path d="M427.211,278.379l-2.158-1.251l1.563-1.979l4.835-0.496l-0.459,2.211l2.305-1.129l0.466,2.755l0.674-0.439l0.518,1.961l-9.334,3.229l-3.163-3.076l1.566-1.981l3.188,0.196"/>
				<path d="M405.348,297.471l-0.615-0.361l1.592,0.103l-0.028-2.078l2.418-2.724l3.905-1.032l1.1,0.228l-1.071,1.848l2.363,3.034l1.725,0.592l-0.366-4.34l1.158-0.572l-2.983-3.387l0.461-2.212l1.774-0.213l2.267,4.633l2.109-2.906l2.568-0.155l-1.137-2.313
					l3.497,0.385l0.903,3.415l3.392-2.986l1.185,6.484l3.675,0.067l-1.31,2.96l-7.253-1.749l-0.586,1.733l3.934,1.05l0.952,2.617l-2.209-0.467l-0.39-1.463l-3.464,1.699l1.543,0.901l-3.732,0.722l-3.076,3.165l0.279,3.062l-0.894,1.538l-3.964,1.828l1.671-3.573
					l-1.983-1.568l0.156-2.389l-2.647-1.132l0.564,1.155l0.543,4.036l-1.338,0.872l-2.291-1.743l-1.98-6.534l-2.416-2.229"/>
			</g>
			<text transform="matrix(1 0 0 1 438.9609 289.1655)"><tspan x="0" y="0" style="fill:#000000;stroke:none;">Kodiak</tspan></text>
		</g>
		<g>
			<g>
				<path d="M342.597,317.179v17.99l-21.59,10.785l-35.977,14.392l-7.193-3.589l7.193-7.201l17.993-3.602l17.983-14.379h10.803l10.787-14.396z"/>
				<path d="M144.723,389.132l28.786,7.198l-3.602-3.604l-7.196-3.594h-17.988z"/>
				<path d="M244.524,376.225l-0.69-1.646l5.441-0.129l4.167-5.014l1.49,1.694l1.513-1.181l-2.467-1.443l-0.542-4.03l3.856-0.235l2.19,3.338l2.41-2.724l1.801,1.88l-3.495,4.576l1.163-0.573l0.207,1.778l-5.479,3.009l-11.566,0.7"/>
				<path d="M223.218,381.583l6.807-8.843l4.474,0.123l0.821-2.831l6.061,0.23l-0.564,3.803l-17.599,7.518"/>
				<path d="M76.963,366.347l1.8-1.798l1.532,0.865v2.062l-1.532,0.67l-1.281-0.481l-0.52-1.317z"/>
				<path d="M61.971,371.141l3.601,3.594l7.194,3.607l-7.194-7.201h-3.601z"/>
				<path d="M49.979,362.746l3.597-3.598l1.201-5.996l-4.798,5.996v3.598z"/>
				<path d="M0.809,313.588l3.599,7.198h7.193l-7.193-7.198H0.809z"/>
				<path d="M114.741,384.338l3.596,3.6l4.8,1.194l-4.8-4.794h-3.596z"/>
				<path d="M125.529,387.938l1.206,4.788h10.789l-3.595-3.594l-8.399-1.194z"/>
			</g>
			<text transform="matrix(1 0 0 1 129.9976 366.7456)"><tspan x="0" y="0" style="fill:#000000;stroke:none;">Aleutian Islands</tspan></text>
		</g>
		<g>
			<path d="M612.434,252.422l10.793,14.386l21.593,14.395l3.594-3.598l-7.193-10.797l-10.792-14.386l-10.795-3.598l-7.199,3.598z"/>
			<text transform="matrix(1 0 0 1 613.5078 267.3657)"><tspan x="0" y="0" style="fill:#000000;stroke:none;">Sitka</tspan></text>
		</g>
		<g>
			<path d="M374.98,274.012h14.385v-7.204h-10.787l-3.598,7.204z"/>
			<g>
				<text transform="matrix(1 0 0 1 301.5479 288.6187)"><tspan x="0" y="0" style="fill:#000000;stroke:none;">Bristol Bay</tspan></text>
				<path d="M353.47,287.752l30.32-17.617"/>
			</g>
		</g>
		<g>
			<path d="M450.535,212.844v7.2l17.99,3.592v-14.388l-17.99,3.596z"/>
			<g>
				<text transform="matrix(1 0 0 1 483.749 241.3423)"><tspan x="0" y="0" style="fill:#000000;stroke:none;">Anchorage</tspan></text>
				<path style="fill:none;" d="M462.048,216.461l21.716,19.256"/>
			</g>
		</g>
		<g>
			<path d="M612.434,230.832l3.603-3.597l-14.39-3.599l7.197-10.792l3.59,7.2l10.793-3.604l7.201,7.196l-10.795,3.599l7.195,14.393l-14.395-10.796z"/>
			<g>
				<text transform="matrix(1 0 0 1 634.165 212.2505)"><tspan x="0" y="0" style="fill:#000000;stroke:none;">Haines</tspan></text>
				<path style="fill:none;" d="M622.662,221.379l9.015-7.785"/>
			</g>
		</g>
		<g>
			<path d="M619.633,227.235l7.195,14.393h7.198l7.193,3.599l3.6-7.199l-14.392-14.391l-10.795,3.599z"/>
			<g>
				<text transform="matrix(1 0 0 1 652.2979 224.1753)"><tspan x="0" y="0" style="fill:#000000;stroke:none;">Juneau</tspan></text>
				<path style="fill:none;" d="M636.188,236.536l12.287-11.063"/>
			</g>
		</g>
		<g>
			<path d="M641.22,266.808l7.193,10.797l-3.594,3.598l7.188,7.198l3.597-17.985h7.201l10.787-10.803L659.2,248.825l-17.98,17.983z"/>
			<g>
				<text transform="matrix(1 0 0 1 673.4883 243.3833)"><tspan x="0" y="0" style="fill:#000000;stroke:none;">Wrangell-Petersburg</tspan></text>
				<path style="fill:none;" d="M657.488,259.484l13.932-14.345"/>
			</g>
		</g>
		<g>
			<path d="M684.391,259.613l10.787,3.602l7.202,14.391v14.388l-25.188,10.8l-25.185-14.392l3.597-17.985h7.201l10.787-10.803h10.799z"/>
			<g>
				<text transform="matrix(1 0 0 1 573.8369 320.3843)"><tspan x="0" y="0" style="fill:#000000;stroke:none;">Prince of Wales-Outer Ketchikan</tspan></text>
				<path style="fill:none;" d="M671.42,286.937l-9.423,18.433"/>
			</g>
		</g>
		<g>
			<g>
				<path d="M547.677,216.44l3.602,10.795h14.387l39.581,17.991l7.188,7.196l7.199-3.598l10.795,3.598l10.792,14.386l17.98-17.983l-14.381-10.798l-3.6,7.199l-7.193-3.599h-7.198l-14.395-10.796l3.603-3.597l-14.39-3.599l-7.198,7.195l-25.184-14.392v-7.191
					l-21.588,7.191z"/>
				<path d="M608.844,212.844l3.59,7.2l10.793-3.604l-7.19-7.191l-7.192,3.596z"/>
			</g>
			<g style="fill:none;">
				<text transform="matrix(1 0 0 1 551.791 180.4429)"><tspan x="0" y="0" style="fill:#000000;stroke:none;">Skagaway-Yakutat-Angoon</tspan></text>
				<path d="M599.947,185.153l5.916,54.252"/>
				<path d="M614.061,213.594l-13.921-27.812"/>
			</g>
		</g>
		<g>
			<path d="M682.128,277.605v7.19l3.603,7.197v-3.592h7.192v-10.796l-3.596-7.189l-7.199,7.189z"/>
			<g>
				<text transform="matrix(1 0 0 1 715.5283 283.2446)"><tspan x="0" y="0" style="fill:#000000;stroke:none;">Ketchikan Gateway</tspan></text>
				<path style="fill:none;" d="M688.328,279.968l22.949,0.821"/>
			</g>
		</g>
		<g style="fill:#000000;stroke:none;">
			<path style="fill:#FFFFFF;stroke:#000000;" d="M454.133,126.491v10.798l10.793,7.198h14.393l17.988-10.798v-10.787l-14.391,3.589l-7.195-7.19l-21.588,7.19z"/>
			<text transform="matrix(1 0 0 1 451.9854 130.229)"><tspan x="0" y="0">Fairbanks</tspan><tspan x="0" y="6.859">North Star</tspan></text>
		</g>
	</g>
</svg>
