<?xml version="1.0" encoding="iso-8859-1"?>
<!DOCTYPE svg >

<svg  width="678.156pt" height="601.043pt" viewBox="0 0 678.156 601.043" xml:space="preserve">
	<g id="Layer_x0020_1" style="fill-rule:nonzero;clip-rule:nonzero;fill:#FFFFFF;stroke:#000000;stroke-miterlimit:4; font-family:'Arial'; font-size:10;">
		<g>
			<path d="M440.8,428.548l-2.437-7.317l-3.661-6.096l-1.212-12.193l-9.761-2.438l-2.436-12.197l-24.389-1.221l2.435-41.466h1.223h12.193v-15.848l30.486,1.217l10.975,1.216l25.613,36.586l6.095,1.223l-7.317,37.807l-9.754,4.874l-1.22,12.198l8.539,10.97
				l-35.373-7.314z"/>
			<text transform="matrix(1 0 0 1 421.1777 374.8887)"><tspan x="0" y="0" style="fill:#000000;stroke:none;">Arkansas</tspan></text>
		</g>
		<g>
			<path d="M361.533,533.423v12.198l-23.169,20.732l3.662,4.876l-2.441,10.976l9.755,14.633l81.706,1.225l1.224-64.64h-70.736z"/>
			<text transform="matrix(1 0 0 1 373.3574 568.7881)"><tspan x="0" y="0" style="fill:#000000;stroke:none;">Ashley</tspan></text>
		</g>
		<g>
			<path d="M335.93,2.946l-53.663-1.223l-1.216,36.586l20.729,26.831v12.194v15.852l14.638-1.215l-1.22-14.636h13.411V66.361l-1.218-7.319h8.538V44.406V2.946z"/>
			<text transform="matrix(1 0 0 1 292.207 37.0918)"><tspan x="0" y="0" style="fill:#000000;stroke:none;">Baxter</tspan></text>
		</g>
		<g>
			<path d="M103.005,2.946h-3.664H74.954V1.724L0.569,0.509L7.88,57.821l1.221,10.975l29.268-4.876l1.219-10.976l59.754-3.655l2.441-1.222l1.222-9.757V2.946z"/>
			<text transform="matrix(1 0 0 1 33.5015 33.4292)"><tspan x="0" y="0" style="fill:#000000;stroke:none;">Benton</tspan></text>
		</g>
		<g>
			<path d="M242.024,1.724l-60.973,1.223v65.85h47.559l8.537,1.222l1.222-62.197l4.877,1.222l-1.222-7.318z"/>
			<text transform="matrix(1 0 0 1 194.6392 45.627)"><tspan x="0" y="0" style="fill:#000000;stroke:none;">Boone</tspan></text>
		</g>
		<g>
			<path d="M313.978,479.769v45.121l-8.534,17.073l2.435,7.317l7.32,4.88l9.75,2.435l12.199,14.635h4.879l-3.662-4.876l23.169-20.732v-12.198v-53.654h-47.556z"/>
			<text transform="matrix(1 0 0 1 320.1943 539.5205)"><tspan x="0" y="0" style="fill:#000000;stroke:none;">Bradley</tspan></text>
		</g>
		<g>
			<path d="M277.39,462.695v14.634l-17.074,10.976l1.22,12.198l-9.756,7.311l1.217,6.098l25.613,23.176l9.753,8.534l6.099-1.222l1.222,7.318l12.194-2.438l-2.435-7.317l8.534-17.073v-45.121l-2.438-15.85l-34.15-1.224z"/>
			<text transform="matrix(1 0 0 1 265.9941 515.3125)"><tspan x="0" y="0" style="fill:#000000;stroke:none;">Calhoun</tspan></text>
		</g>
		<g>
			<path d="M181.052,2.946h-1.221h-2.436l-1.221-1.223l-35.364,1.223h-1.22h-36.585V38.31l26.824-1.218l17.077,29.27l8.533,1.22l25.612,1.214V2.946z"/>
			<text transform="matrix(1 0 0 1 133.4004 28.5552)"><tspan x="0" y="0" style="fill:#000000;stroke:none;">Carroll</tspan></text>
		</g>
		<g>
			<path d="M468.854,600.495l-14.637-2.433h-19.515h-3.656l1.224-64.64v-28.047h12.193v6.098h14.632l3.662-6.098l2.435,2.438l12.194,28.052l-4.876,8.534l4.876,10.979l10.98-3.661l-6.102,18.292l-12.192,4.877l4.879,15.857l-6.098,9.751z"/>
			<text transform="matrix(1 0 0 1 438.8242 560.2578)"><tspan x="0" y="0" style="fill:#000000;stroke:none;">Chicot</tspan></text>
		</g>
		<g>
			<path d="M156.663,368.791l1.222,37.806l12.192,28.045l10.976,12.197l3.657,8.539l23.174,12.196h10.974l14.628-7.318l2.445-7.319l-4.877-24.389h7.316v-26.824l-19.512-2.444l-8.541-14.63l-36.583-4.882v-9.754h-7.318l-9.752-1.223z"/>
			<text transform="matrix(1 0 0 1 186.4551 418.791)"><tspan x="0" y="0" style="fill:#000000;stroke:none;">Clark</tspan></text>
		</g>
		<g>
			<path d="M583.483,44.406l-57.318-6.096l1.22-20.729l-6.096-15.858h30.489l47.556-1.214l10.982,6.1l2.434,10.972l7.32,3.655l-2.443,18.292l-13.411,13.416l-19.513-1.218l-1.22-7.319z"/>
			<text transform="matrix(1 0 0 1 563.7324 26.1143)"><tspan x="0" y="0" style="fill:#000000;stroke:none;">Clay</tspan></text>
		</g>
		<g>
			<path d="M381.048,139.53l-59.754-1.221l-1.22,58.532l21.952,1.221h35.366l1.219-12.194l6.099-3.655l1.215-14.638v-29.267l-4.877,1.221z"/>
			<text transform="matrix(1 0 0 1 332.7109 166.3545)"><tspan x="0" y="0" style="fill:#000000;stroke:none;">Cleburne</tspan></text>
		</g>
		<g>
			<path d="M365.195,415.135l-3.662,48.784v15.85h-47.556l-2.438-15.85l-17.078-46.348l18.29-1.22h12.196l40.247-1.217z"/>
			<text transform="matrix(1 0 0 1 309.8965 436.9023)"><tspan x="0" y="0" style="fill:#000000;stroke:none;">Cleveland</tspan></text>
		</g>
		<g>
			<path d="M206.662,522.45v12.193h17.072v62.194l-34.143-1.22h-31.146l1.223-40.239h3.09l10.976-31.71l32.929-1.219z"/>
			<text transform="matrix(1 0 0 1 170.6758 560.4834)"><tspan x="0" y="0" style="fill:#000000;stroke:none;">Columbia</tspan></text>
		</g>
		<g>
			<path d="M281.051,241.968l-7.318,3.656l-58.538,1.221l15.859-15.853l10.971,1.221l1.222-51.222l50.001,1.221l-1.221,14.628v15.857l-7.318,7.319l4.876,10.975l-8.533,10.975z"/>
			<text transform="matrix(1 0 0 1 249.5698 211.4785)"><tspan x="0" y="0" style="fill:#000000;stroke:none;">Conway</tspan></text>
		</g>
		<g>
			<path d="M589.583,87.087l-12.196-1.213l-1.223,7.313H513.97l-3.651,14.635h-23.172l1.22,31.708l101.217-1.221V87.087z"/>
			<text transform="matrix(1 0 0 1 516.5098 121.2373)"><tspan x="0" y="0" style="fill:#000000;stroke:none;">Craighead</tspan></text>
		</g>
		<g>
			<path d="M17.64,128.555l2.437,18.292l4.881,36.583l10.974,2.438l2.438,9.761l7.318,4.875l14.636-3.662l7.319-13.411l7.312-1.217l8.537-20.733h-8.537v-14.633h10.98l10.975-17.077l-79.269-1.215z"/>
			<text transform="matrix(1 0 0 1 27.8438 145.6724)"><tspan x="0" y="0" style="fill:#000000;stroke:none;">Crawford</tspan></text>
		</g>
		<g>
			<path d="M573.734,285.868l1.211-12.195v-39.024l-13.407-1.223v-49.995H590.8h18.292l-4.876,8.536l2.437,3.662l8.541-4.885l2.434,4.885l-1.214,10.973l6.099,26.824l-9.762,9.763h-9.754l-10.975,14.625l3.655,13.419l-13.412,9.759l-8.53,4.876z"/>
			<text transform="matrix(1 0 0 1 568.7285 229.9546)"><tspan x="0" y="0" style="fill:#000000;stroke:none;">Crittenden</tspan></text>
		</g>
		<g>
			<path d="M488.366,182.213l-1.22,17.072l1.22,34.14h73.172v-49.995l-73.172-1.217z"/>
			<text transform="matrix(1 0 0 1 511.8936 209.0376)"><tspan x="0" y="0" style="fill:#000000;stroke:none;">Cross</tspan></text>
		</g>
		<g>
			<path d="M312.752,416.352l-20.726-12.193l-25.61-2.435h-28.047v26.824h-7.316l4.877,24.389l-2.445,7.319l43.904,2.439l34.15,1.224l-17.078-46.348l18.29-1.22z"/>
			<text transform="matrix(1 0 0 1 256.1792 440.7393)"><tspan x="0" y="0" style="fill:#000000;stroke:none;">Dallas</tspan></text>
		</g>
		<g>
			<path d="M440.8,428.548l35.373,7.314l-8.539-10.97l1.22-12.198l9.754-4.874l23.165-1.224l-6.092,25.614l-9.756-7.318v34.143l-9.752,9.76l9.752,9.754l-7.317,4.874l-12.198-8.531l-2.432,2.438l8.532,15.854l-9.753,12.192l-3.662,6.098h-14.632v-6.098H432.27
				v-40.245h-13.42l1.225-32.92l17.068-4.877l1.221-6.104l2.437,7.317z"/>
			<text transform="matrix(1 0 0 1 439.7637 457.8184)"><tspan x="0" y="0" style="fill:#000000;stroke:none;">Desha</tspan></text>
		</g>
		<g>
			<path d="M418.85,465.131l-57.316-1.212v15.85v53.654h70.736v-28.047v-40.245h-13.42z"/>
			<text transform="matrix(1 0 0 1 384.0156 501.7129)"><tspan x="0" y="0" style="fill:#000000;stroke:none;">Drew</tspan></text>
		</g>
		<g>
			<path d="M342.026,198.062l-1.22,48.784l1.22,9.755l-15.855,1.213l-1.223,12.202H301.78l-18.294-3.66l-8.531-10.971l7.312-6.098l-1.216-7.319l8.533-10.975l-4.876-10.975l7.318-7.319v-15.857h28.048l21.952,1.221z"/>
			<text transform="matrix(1 0 0 1 290.7734 248.4648)"><tspan x="0" y="0" style="fill:#000000;stroke:none;">Faulkner</tspan></text>
		</g>
		<g>
			<path d="M96.908,127.333l28.044,1.221v64.63l-6.097,1.22l-6.096-4.873l-1.222,15.849l-14.629,1.221v14.631l-17.073,2.441l-6.095-1.22l1.214-40.241l8.537-20.733h-8.537v-14.633h10.98l10.975-17.077v-2.437z"/>
			<text transform="matrix(1 0 0 1 82.2402 186.4995)"><tspan x="0" y="0" style="fill:#000000;stroke:none;">Franklin</tspan></text>
		</g>
		<g>
			<path d="M431.046,1.724l-1.222,1.223l-28.042-1.223l-62.197,1.223h-3.655v41.46l62.191,1.221h17.072V30.998h14.631l1.222-29.274z"/>
			<text transform="matrix(1 0 0 1 369.5918 24.8994)"><tspan x="0" y="0" style="fill:#000000;stroke:none;">Fulton</tspan></text>
		</g>
		<g>
			<path d="M212.759,298.065l-31.707-1.223l-12.195,3.657l-1.222,59.76l62.198,1.214l4.876-19.503h15.856l-10.979-21.957l-14.631-1.221l1.22-20.728h-13.416z"/>
			<text transform="matrix(1 0 0 1 186.4331 334.6514)"><tspan x="0" y="0" style="fill:#000000;stroke:none;">Garland</tspan></text>
		</g>
		<g>
			<path d="M324.948,343.18H301.78l1.22,7.317h-25.61l-9.756,7.322l-1.218,43.904l25.61,2.435l20.726,12.193h12.196l3.661-71.951l-3.661-1.221z"/>
			<text transform="matrix(1 0 0 1 290.4951 385.8643)"><tspan x="0" y="0" style="fill:#000000;stroke:none;">Grant</tspan></text>
		</g>
		<g>
			<path d="M518.852,60.263V38.31h7.313l57.318,6.096l1.22,7.319l19.513,1.218l-26.829,32.93l-1.223,7.313H513.97l13.415-31.703l-8.533-1.22z"/>
			<text transform="matrix(1 0 0 1 541.1973 65.1406)"><tspan x="0" y="0" style="fill:#000000;stroke:none;">Greene</tspan></text>
		</g>
		<g>
			<path d="M110.323,426.109l51.214,9.753l-4.875,82.931h-34.146l-17.076-23.174l-14.63-10.973v-13.418l19.512,1.223v-46.342z"/>
			<text transform="matrix(1 0 0 1 100.0669 485.8652)"><tspan x="0" y="0" style="fill:#000000;stroke:none;">Hempstead</tspan></text>
		</g>
		<g>
			<path d="M167.635,360.26l-1.22,9.754h7.318v9.754l36.583,4.882l8.541,14.63l19.512,2.444h28.047l1.218-43.904l-2.44-10.978l-14.628-4.871h-15.856l-4.876,19.503l-62.198-1.214z"/>
			<text transform="matrix(1 0 0 1 204.9878 377.3311)"><tspan x="0" y="0" style="fill:#000000;stroke:none;">Hot Spring</tspan></text>
		</g>
		<g>
			<path d="M51.785,394.405l-2.437-26.834h45.118l1.22,28.054l18.167-0.707l-3.505,31.553l-0.025,45.98l-19.512-1.223l-16.52-24.477l-7.263-51.082l-15.243-1.265z"/>
			<text transform="matrix(1 0 0 1 73.582 411.4746)"><tspan x="0" y="0" style="fill:#000000;stroke:none;">Howard</tspan></text>
		</g>
		<g>
			<path d="M446.897,134.653l17.08-21.953l-1.221-4.878h-19.515h-13.418l-1.218-8.538h-34.144h-6.099l-12.192,17.076l4.876,23.171l4.877-1.221v29.267h28.051l29.267,1.221v-17.072l3.655-17.072z"/>
			<text transform="matrix(1 0 0 1 386.5664 122.3662)"><tspan x="0" y="0" style="fill:#000000;stroke:none;">Independence</tspan></text>
		</g>
		<g>
			<path d="M335.93,44.406v14.636h-8.538l1.218,7.319l1.225,1.22l4.873-2.441l4.878,9.753l7.315,2.441l-4.874,4.876l-1.22,17.072l8.533-2.437l1.218,6.098l8.541-4.877l17.073,18.291l12.192-17.076h6.099l3.658-53.657l-62.191-1.221z"/>
			<text transform="matrix(1 0 0 1 358.957 73.6802)"><tspan x="0" y="0" style="fill:#000000;stroke:none;">Izard</tspan></text>
		</g>
		<g>
			<path d="M443.242,151.725v17.072l-29.267-1.221l-1.22,15.855h32.927h1.215h10.98v13.411l29.269,2.444l1.22-17.072V139.53l-1.22-31.708h-24.39l1.221,4.878l-17.08,21.953l-3.655,17.072z"/>
			<text transform="matrix(1 0 0 1 445.6348 177.7373)"><tspan x="0" y="0" style="fill:#000000;stroke:none;">Jackson</tspan></text>
		</g>
		<g>
			<path d="M328.609,344.4l-3.661,71.951l40.247-1.217l28.048-2.44l2.44-14.633l17.072,4.88l7.318,13.41l7.319-6.098l7.309,4.881l-1.212-12.193l-9.761-2.438l-2.436-12.197l-24.389-1.221l2.435-41.466l-46.339-1.22h-24.392z"/>
			<text transform="matrix(1 0 0 1 341.0566 384.6494)"><tspan x="0" y="0" style="fill:#000000;stroke:none;">Jefferson</tspan></text>
		</g>
		<g>
			<path d="M124.952,128.555h25.613v6.098l46.337,1.215l-15.851,67.071l-17.071-2.436l2.435-7.318l-12.197-6.096l-4.874,4.877l-24.392,1.218v-64.63z"/>
			<text transform="matrix(1 0 0 1 137.7588 163.9209)"><tspan x="0" y="0" style="fill:#000000;stroke:none;">Johnson</tspan></text>
		</g>
		<g>
			<path d="M122.517,518.793h34.146v4.876h17.07l-10.976,31.71h-2.998l-1.222,40.239h-7.972h-41.462l-3.662-19.511l15.855-4.878l7.318-19.512l-6.097-32.925z"/>
			<text transform="matrix(1 0 0 1 111.9434 585.1768)"><tspan x="0" y="0" style="fill:#000000;stroke:none;">Lafayette</tspan></text>
		</g>
		<g>
			<path d="M513.97,93.187l-3.651,14.635h-23.172h-24.39h-19.515l3.655-63.416l9.762,3.661l10.975,4.876l14.631,9.755l36.587-2.436l8.533,1.22L513.97,93.187z"/>
			<text transform="matrix(1 0 0 1 456.9277 84.6514)"><tspan x="0" y="0" style="fill:#000000;stroke:none;">Lawrence</tspan></text>
		</g>
		<g>
			<path d="M551.778,317.579l6.097-6.098l7.316,4.878l2.44-3.663l-9.757-9.755v-4.876l9.757,1.219l6.103-13.416l1.211-12.195h-96.338l1.223,7.319l-1.223,20.729l7.317,1.22l1.222,14.638h64.632z"/>
			<text transform="matrix(1 0 0 1 515.3867 298.0654)"><tspan x="0" y="0" style="fill:#000000;stroke:none;">Lee</tspan></text>
		</g>
		<g>
			<path d="M438.363,421.23l-1.221,6.104l-17.068,4.877l-1.225,32.92l-57.316-1.212l3.662-48.784l28.048-2.44l2.44-14.633l17.072,4.88l7.318,13.41l7.319-6.098l7.309,4.881l3.661,6.096z"/>
			<text transform="matrix(1 0 0 1 374.959 440.7393)"><tspan x="0" y="0" style="fill:#000000;stroke:none;">Lincoln</tspan></text>
		</g>
		<g>
			<path d="M20.077,434.642l-1.216,51.224l1.216,1.223l1.219,6.096l2.442,1.222l1.22,2.435l3.656,2.446l2.444,1.217l1.211,2.433l4.882-1.223l7.314,1.223l1.221-2.433l3.662-1.217l1.215,1.217h2.44l2.441-2.444v-2.439l3.657-1.214l1.221,1.214l4.875,3.667h1.223
				h3.657l4.876-1.228l1.219,1.228l2.441,2.427l9.754,3.663l17.073-9.757l-14.63-10.973v-13.418l-40.247-7.31l-20.73-18.295l2.436-7.319l-12.192-3.663z"/>
			<text transform="matrix(1 0 0 1 28.167 480.9863)"><tspan x="0" y="0" style="fill:#000000;stroke:none;">Little River</tspan></text>
		</g>
		<g>
			<path d="M181.052,202.939l3.657,2.442l-2.437,15.852l-21.953,1.222l-12.195,12.195l-23.172,1.222v19.515l-60.972-6.098v-8.54v-6.099h17.07l-1.215-10.975l17.073-2.441v-14.631l14.629-1.221l1.222-15.849l6.096,4.873l6.097-1.22l24.392-1.218l4.874-4.877
				l12.197,6.096l-2.435,7.318l17.071,2.436z"/>
			<text transform="matrix(1 0 0 1 119.5884 218.7969)"><tspan x="0" y="0" style="fill:#000000;stroke:none;">Logan</tspan></text>
		</g>
		<g>
			<path d="M384.71,251.722l-8.538,1.215l-18.297-6.091h-17.068l1.22,9.755h4.874l-3.661,64.635l9.762,1.22V344.4l46.339,1.22h1.223l7.318-14.631l-7.318-18.293l-1.223-41.463h-13.415l-1.215-19.511z"/>
			<text transform="matrix(1 0 0 1 355.7949 303.3457)"><tspan x="0" y="0" style="fill:#000000;stroke:none;">Lonoke</tspan></text>
		</g>
		<g>
			<path d="M103.005,38.31l-1.222,9.757l-2.441,1.222l-7.311,23.17l-1.22,52.435l6.097,2.439l28.044,1.221h25.613l-2.441-18.29l10.977-15.857l-3.662-26.826l-8.533-1.22l-17.077-29.27l-26.824,1.218z"/>
			<text transform="matrix(1 0 0 1 107.2749 93.1865)"><tspan x="0" y="0" style="fill:#000000;stroke:none;">Madison</tspan></text>
		</g>
		<g>
			<path d="M282.267,1.724l-29.27,1.223l-1.217-1.223h-9.755l1.222,7.318l-4.877-1.222l-1.222,62.197l7.322-1.222l-1.224,7.316l58.534,1.223V65.141L281.051,38.31l1.216-36.586z"/>
			<text transform="matrix(1 0 0 1 248.6924 54.168)"><tspan x="0" y="0" style="fill:#000000;stroke:none;">Marion</tspan></text>
		</g>
		<g>
			<path d="M105.441,495.619l-17.073,9.757l-9.754-3.663l1.221,46.348v45.118l29.269,2.439l-3.662-19.511l15.855-4.878l7.318-19.512l-6.097-32.925l-17.076-23.174z"/>
			<text transform="matrix(1 0 0 1 89.8398 543.1846)"><tspan x="0" y="0" style="fill:#000000;stroke:none;">Miller</tspan></text>
		</g>
		<g>
			<path d="M609.092,183.431l7.321-6.094l2.438,7.312l9.759-1.218l3.656-13.414l9.752-3.663l1.221-7.311l4.879-13.417l-9.758-4.875l1.221-8.538l28.048-15.854l-1.22-12.195l10.979-4.88l-9.76-13.41h-34.142l-43.903,1.213v51.222l1.217,45.122h18.292z"/>
			<text transform="matrix(1 0 0 1 600.7764 117.5757)"><tspan x="0" y="0" style="fill:#000000;stroke:none;">Mississippi</tspan></text>
		</g>
		<g>
			<path d="M444.463,272.452h7.316l6.099-14.638l14.632-1.213l1.221,24.392h6.1l-1.223,20.729l7.317,1.22l1.222,14.638l-1.222,30.483h6.1l1.22,23.172l-7.319-1.221l-6.095-1.223l-25.613-36.586l-10.975-1.216l-1.222-3.658l-8.53-2.442v-9.75h9.752l1.221-42.687z"/>
			<text transform="matrix(1 0 0 1 448.2383 327.3311)"><tspan x="0" y="0" style="fill:#000000;stroke:none;">Monroe</tspan></text>
		</g>
		<g>
			<path d="M168.856,300.5l-1.222,59.76l-1.22,9.754l-9.752-1.223l-62.196-1.22l1.22-52.433l29.266-14.639h43.904z"/>
			<text transform="matrix(1 0 0 1 104.0278 340.2021)"><tspan x="0" y="0" style="fill:#000000;stroke:none;">Montgomery</tspan></text>
		</g>
		<g>
			<path d="M207.883,467.574l-1.221,54.876l-32.929,1.219h-17.07v-4.876l4.875-82.931l8.539-1.221l10.976,12.197l3.657,8.539l23.174,12.196z"/>
			<text transform="matrix(1 0 0 1 165.0386 494.4053)"><tspan x="0" y="0" style="fill:#000000;stroke:none;">Nevada</tspan></text>
		</g>
		<g>
			<path d="M155.439,67.582l3.662,26.826l-10.977,15.857l2.441,18.29v6.098l46.337,1.215l31.708,1.221V68.796h-47.559l-25.612-1.214z"/>
			<text transform="matrix(1 0 0 1 175.0723 106.6011)"><tspan x="0" y="0" style="fill:#000000;stroke:none;">Newton</tspan></text>
		</g>
		<g>
			<path d="M233.485,460.256l-14.628,7.318h-10.974l-1.221,54.876v12.193h17.072l54.876,2.443l-25.613-23.176l-1.217-6.098l9.756-7.311l-1.22-12.198l17.074-10.976v-14.634l-43.904-2.439z"/>
			<text transform="matrix(1 0 0 1 219.2158 480.5781)"><tspan x="0" y="0" style="fill:#000000;stroke:none;">Ouachita</tspan></text>
		</g>
		<g>
			<path d="M283.486,266.356l-8.531-10.971l7.312-6.098l-1.216-7.319l-7.318,3.656l-58.538,1.221l-34.143,30.484v19.513l31.707,1.223l-1.221-15.856h45.122l-1.218-8.537l28.045-7.317z"/>
			<text transform="matrix(1 0 0 1 219.1074 267.5771)"><tspan x="0" y="0" style="fill:#000000;stroke:none;">Perry</tspan></text>
		</g>
		<g>
			<path d="M478.607,407.82l23.165-1.224l-2.431-7.317l18.29,2.444v-6.099l-10.972-3.663l2.431-6.098l21.957-10.976l-1.221-12.194l21.951-6.098l1.218-18.288l4.879-3.657l-6.097-17.072h-64.632l-1.222,30.483h6.1l1.22,23.172l-7.319-1.221l-7.317,37.807z"/>
			<text transform="matrix(1 0 0 1 500.5713 348.0625)"><tspan x="0" y="0" style="fill:#000000;stroke:none;">Phillips</tspan></text>
		</g>
		<g>
			<path d="M94.466,367.571l62.196,1.22l1.222,37.806l12.192,28.045l-8.539,1.221l-50.889-9.691l3.205-31.253l-18.167,0.707l-1.22-28.054z"/>
			<text transform="matrix(1 0 0 1 122.5454 401.7236)"><tspan x="0" y="0" style="fill:#000000;stroke:none;">Pike</tspan></text>
		</g>
		<g>
			<path d="M488.366,139.53v42.683l73.172,1.217H590.8l-1.217-45.122l-101.217,1.221z"/>
			<text transform="matrix(1 0 0 1 523.957 163.9209)"><tspan x="0" y="0" style="fill:#000000;stroke:none;">Poinsett</tspan></text>
		</g>
		<g>
			<path d="M22.518,301.722l71.948,9.76l1.22,3.657l-1.22,52.433H49.349l2.437,26.834l-31.708-2.443l1.219-53.653l1.222-36.587z"/>
			<text transform="matrix(1 0 0 1 49.376 343.1797)"><tspan x="0" y="0" style="fill:#000000;stroke:none;">Polk</tspan></text>
		</g>
		<g>
			<path d="M228.611,137.089l-31.708-1.221l-15.851,67.071l3.657,2.442l30.485,34.146l8.54-8.533h6.099l12.192,1.221l1.222-51.222l6.097-43.903h-20.732z"/>
			<text transform="matrix(1 0 0 1 199.8608 194.4048)"><tspan x="0" y="0" style="fill:#000000;stroke:none;">Pope</tspan></text>
		</g>
		<g>
			<path d="M431.046,241.968h-17.07l-2.445,12.192l-17.067-6.094l-9.753,3.656l1.215,19.511h13.415l1.223,41.463l7.318,18.293l-7.318,14.631h12.193v-15.848l30.486,1.217l-1.222-3.658l-8.53-2.442v-9.75h9.752l1.221-42.687v-23.165h-9.761l-3.656-7.319z"/>
			<text transform="matrix(1 0 0 1 408.6045 295.6221)"><tspan x="0" y="0" style="fill:#000000;stroke:none;">Prairie</tspan></text>
		</g>
		<g>
			<path d="M342.026,256.601h4.874l-3.661,64.635l9.762,1.22V344.4h-24.392l-3.661-1.221v-14.63l-42.682-18.291v-12.193h-12.193l-2.439-15.856H256.66l-1.218-8.537l28.045-7.317l18.294,3.66h23.168l1.223-12.202l15.855-1.213z"/>
			<text transform="matrix(1 0 0 1 296.6338 298.0654)"><tspan x="0" y="0" style="fill:#000000;stroke:none;">Pulaski</tspan></text>
		</g>
		<g>
			<path d="M526.165,38.31l1.22-20.729l-6.096-15.858H473.73h-37.808l21.955,31.706l-1.219,14.638l10.975,4.876l14.631,9.755l36.587-2.436V38.31h7.313z"/>
			<text transform="matrix(1 0 0 1 468.1738 29.7769)"><tspan x="0" y="0" style="fill:#000000;stroke:none;">Randolph</tspan></text>
		</g>
		<g>
			<path d="M561.538,233.426h-73.172l-2.441,24.388l-13.415-1.213l1.221,24.392h6.1l-1.223-7.319h96.338v-39.024l-13.407-1.223z"/>
			<text transform="matrix(1 0 0 1 501.0566 257.814)"><tspan x="0" y="0" style="fill:#000000;stroke:none;">St. Francis</tspan></text>
		</g>
		<g>
			<path d="M211.538,282.209l1.221,15.856h13.416l-1.22,20.728l14.631,1.221l10.979,21.957l14.628,4.871l2.44,10.978l9.756-7.322H303l-1.22-7.317h23.168v-14.63l-42.682-18.291v-12.193h-12.193l-2.439-15.856h-56.096z"/>
			<text transform="matrix(1 0 0 1 256.1743 327.4209)"><tspan x="0" y="0" style="fill:#000000;stroke:none;">Saline</tspan></text>
		</g>
		<g>
			<path d="M23.738,261.476l-1.22,40.246l71.948,9.76l1.22,3.657l29.266-14.639v-45.115l-60.972-6.098v-8.54l-10.976,4.876v18.291l-29.266-2.439z"/>
			<text transform="matrix(1 0 0 1 69.6558 282.2095)"><tspan x="0" y="0" style="fill:#000000;stroke:none;">Scott</tspan></text>
		</g>
		<g>
			<path d="M228.611,68.796v68.293h20.732h23.172v-12.195l29.265,1.219V93.187V77.335l-58.534-1.223l1.224-7.316l-7.322,1.222l-8.537-1.222z"/>
			<text transform="matrix(1 0 0 1 250.8545 105.3818)"><tspan x="0" y="0" style="fill:#000000;stroke:none;">Searcy</tspan></text>
		</g>
		<g>
			<path d="M24.958,183.431l1.216,7.313l-2.436,70.732l29.266,2.439v-18.291l10.976-4.876v-6.099h17.07l-1.215-10.975l-6.095-1.22l1.214-40.241l-7.312,1.217l-7.319,13.411l-14.636,3.662l-7.318-4.875l-2.438-9.761l-10.974-2.438z"/>
			<text transform="matrix(1 0 0 1 28.5527 231.5332)"><tspan x="0" y="0" style="fill:#000000;stroke:none;">Sebastian</tspan></text>
		</g>
		<g>
			<path d="M20.077,391.962l31.708,2.443l15.294,1.507l7.211,50.84l16.52,24.477l-40.247-7.31l-20.73-18.295l2.436-7.319l-12.192-3.663v-42.68z"/>
			<text transform="matrix(1 0 0 1 35.626 432.1191)"><tspan x="0" y="0" style="fill:#000000;stroke:none;">Sevier</tspan></text>
		</g>
		<g>
			<path d="M457.878,33.429l-1.219,14.638l-9.762-3.661l-3.655,63.416h-13.418l-1.218-8.538h-34.144l3.658-53.657h17.072V30.998h14.631l1.222-29.274h4.877l21.955,31.706z"/>
			<text transform="matrix(1 0 0 1 407.9512 70.0176)"><tspan x="0" y="0" style="fill:#000000;stroke:none;">Sharp</tspan></text>
		</g>
		<g>
			<path d="M328.609,66.361v10.974h-13.411l1.22,14.636l-14.638,1.215v32.927v10.976l19.514,1.22l59.754,1.221l-4.876-23.171l-17.073-18.291l-8.541,4.877l-1.218-6.098l-8.533,2.437l1.22-17.072l4.874-4.876l-7.315-2.441l-4.878-9.753l-4.873,2.441l-1.225-1.22z"/>
			<text transform="matrix(1 0 0 1 317.9805 117.5757)"><tspan x="0" y="0" style="fill:#000000;stroke:none;">Stone</tspan></text>
		</g>
		<g>
			<path d="M223.734,534.644v62.194h36.582l86.584,2.437l2.439-2.437l-9.755-14.633l2.441-10.976h-4.879l-12.199-14.635l-9.75-2.435l-7.32-4.88l-12.194,2.438l-1.222-7.318l-6.099,1.222l-9.753-8.534l-54.876-2.443z"/>
			<text transform="matrix(1 0 0 1 257.0093 567.5752)"><tspan x="0" y="0" style="fill:#000000;stroke:none;">Union</tspan></text>
		</g>
		<g>
			<path d="M249.343,137.089l-6.097,43.903l50.001,1.221l-1.221,14.628h28.048l1.22-58.532l-19.514-1.22v-10.976l-29.265-1.219v12.195h-23.172z"/>
			<text transform="matrix(1 0 0 1 259.0098 161.4805)"><tspan x="0" y="0" style="fill:#000000;stroke:none;">Van Buren</tspan></text>
		</g>
		<g>
			<path d="M9.101,68.796l29.268-4.876l1.219-10.976l59.754-3.655l-7.311,23.17l-1.22,52.435l6.097,2.439v2.437l-79.269-1.215L9.101,68.796z"/>
			<text transform="matrix(1 0 0 1 26.7856 96.8472)"><tspan x="0" y="0" style="fill:#000000;stroke:none;">Washington</tspan></text>
		</g>
		<g>
			<path d="M385.925,167.576l-1.215,14.638l-6.099,3.655l-1.219,12.194h-35.366l-1.22,48.784h17.068l18.297,6.091l8.538-1.215l9.753-3.656l17.067,6.094l2.445-12.192h17.07l1.224-10.975l8.53-8.539v-12.196l-7.31-1.22l1.212-12.196l12.195-9.752l-1.215-3.659
				h-32.927l1.22-15.855h-28.051z"/>
			<text transform="matrix(1 0 0 1 376.8066 224.8955)"><tspan x="0" y="0" style="fill:#000000;stroke:none;">White</tspan></text>
		</g>
		<g>
			<path d="M487.146,199.286l-29.269-2.444v-13.411h-10.98h-1.215l1.215,3.659l-12.195,9.752l-1.212,12.196l7.31,1.22v12.196l-8.53,8.539l-1.224,10.975l3.656,7.319h9.761v23.165h7.316l6.099-14.638l14.632-1.213l13.415,1.213l2.441-24.388l-1.22-34.14z"/>
			<text transform="matrix(1 0 0 1 439.4414 242.7344)"><tspan x="0" y="0" style="fill:#000000;stroke:none;">Woodruff</tspan></text>
		</g>
		<g>
			<path d="M215.194,246.846l-34.143,30.484v19.513l-12.195,3.657h-43.904v-45.115v-19.515l23.172-1.222l12.195-12.195l21.953-1.222l2.437-15.852l30.485,34.146l8.54-8.533h7.319l-15.859,15.853z"/>
			<text transform="matrix(1 0 0 1 154.8789 262.7012)"><tspan x="0" y="0" style="fill:#000000;stroke:none;">Yell</tspan></text>
		</g>
	</g>
</svg>
