<?xml version="1.0" encoding="iso-8859-1"?>
<!DOCTYPE svg >

<svg  width="518.793pt" height="600.724pt" viewBox="0 0 518.793 600.724" xml:space="preserve">
	<g id="Layer_x0020_1" style="fill-rule:nonzero;clip-rule:nonzero;stroke:#000000;stroke-miterlimit:4; font-family:'Arial'; font-size:10;">
		<g>
			<path style="fill:#FFFFFF;" d="M147.479,288.124l-0.451-1.359l-1.357-1.355l-2.262-0.904v-15.376l0.45-2.259l-21.705,7.236l-0.453-3.621l-6.785-2.26l-2.713-1.355l-1.356-3.167l-4.069-1.811v1.36l0.453,4.521l1.357,2.262l5.427,4.07l2.262,7.235l1.356,3.165
				l5.877,4.07l1.356,1.358l1.357-0.454l0.906-1.355h18.087h2.263z"/>
			<text transform="matrix(1 0 0 1 109.6533 279.9834)"><tspan x="0" y="0" style="stroke:none;">Alameda</tspan></text>
		</g>
		<g>
			<path style="fill:#FFFFFF;" d="M228.43,198.127l-9.498,11.307l-0.905,0.904v12.213v1.354v2.262l1.356,0.906l0.905,0.903l8.592,4.522l1.81-2.262l3.165-1.355l2.26,0.452l0.906,3.165l0.903,0.904l1.357,0.903l5.88-10.401l-3.618-5.427l1.81-7.686l-14.924-12.665z"
				/>
			<text transform="matrix(1 0 0 1 217.6953 218.9312)"><tspan x="0" y="0" style="stroke:none;">Alpine</tspan></text>
		</g>
		<g>
			<path style="fill:#FFFFFF;" d="M170.996,236.567l1.355,4.522h4.522l19.447-14.47l14.472-3.167l7.236-0.901v-12.213l-2.261,0.454l-4.975,4.974l-3.167,3.617l-18.089,3.168l-8.593-2.714L170.089,223l0.907,13.566z"/>
			<text transform="matrix(1 0 0 1 163.0737 228.6597)"><tspan x="0" y="0" style="stroke:none;">Amador</tspan></text>
		</g>
		<g>
			<path style="fill:#FFFFFF;" d="M149.287,135.266l19.446,18.542l-2.261,0.904l-2.262,4.523l-4.521-0.45l-3.167,0.902l-2.261,4.071l-1.809,5.878l-8.595,3.618l-4.068-0.45l-14.02,0.45l0.906-5.427l1.355-9.951l-6.331,0.454l-1.355-1.808l3.164-9.95l-5.427-4.975
				v-5.878l11.76,0.453l4.522-2.262l-0.454-1.358l1.81-3.165l3.165-0.452l0.452-2.713l1.811-0.904v-3.167l6.783-2.261v-2.26l2.262,0.451v2.715l2.714,1.809l-3.619,5.879v6.782z"/>
			<text transform="matrix(1 0 0 1 131.7334 150.6416)"><tspan x="0" y="0" style="stroke:none;">Butte</tspan></text>
		</g>
		<g>
			<path style="fill:#FFFFFF;" d="M172.351,241.089h4.522l19.447-14.47l14.472-3.167l7.236-0.901v1.354v2.262l1.356,0.906l-7.235,5.879l-23.065,33.01l-13.113-15.375l-1.809-1.355l-0.905-2.716l-0.905-4.067v-1.361z"/>
			<text transform="matrix(1 0 0 1 168.8369 243.3511)"><tspan x="0" y="0" style="stroke:none;">Calaveras</tspan></text>
		</g>
		<g>
			<path style="fill:#FFFFFF;" d="M84.164,167.376l4.523,0.452h25.326l-0.453-1.807h6.784v1.355l6.332,0.452l-0.906,5.427l-1.809,1.809l0.454,4.071l-0.907,1.808l3.167,5.879l2.26,0.906l2.715,4.975l-2.264,0.902l0.455,2.262l-29.397,0.451l-4.975-7.236l1.358-8.591
				l-1.81-2.261l-7.689,0.453l-4.975-4.975l-0.451-3.165l2.26-3.166z"/>
			<text transform="matrix(1 0 0 1 95.2822 182.752)"><tspan x="0" y="0" style="stroke:none;">Colusa</tspan></text>
		</g>
		<g style="stroke:none;">
			<path style="fill:#FFFFFF;stroke:#000000;" d="M129.387,251.039l2.264,2.716l4.069-0.452l1.357-4.07l3.617-0.906l1.81,0.906l-0.904,2.715l1.809,1.355l-1.809,1.806l1.809,4.071l-1.357,4.977l2.262,1.357l-0.455,1.356l-21.705,7.236l-0.453-3.621l-6.785-2.26
				l-2.713-1.355l-1.356-3.167l-4.069-1.811l-4.974-4.068l2.26-4.069h3.619l1.809-2.262l4.975,1.356l1.81-1.356l4.521-0.454l3.62,0.909l1.807,0.449l1.809-1.358h1.356z"/>
			<text transform="matrix(1 0 0 1 112.1211 260.0854)"><tspan x="0" y="0">Contra</tspan><tspan x="1.946" y="12">Costa</tspan></text>
		</g>
		<g>
			<path style="fill:#FFFFFF;" d="M18.138,36.679l1.356-1.358l10.855,0.905v4.975h5.427l-0.906-6.331l2.262-1.81l-2.712-2.263l-1.811-3.164l1.811-4.975l1.356-3.616l-1.811-1.358l2.264-9.044l5.425-3.618l0.904-3.167H27.636L10.451,2.309l-1.81,6.332l-0.905,3.166
				l0.905,2.714l3.619,3.165l0.904,2.714l1.356,5.877l3.166,4.976h-1.809l2.261,5.427z"/>
			<text transform="matrix(1 0 0 1 2.8984 13.1626)"><tspan x="0" y="0" style="stroke:none;">Del Norte</tspan></text>
		</g>
		<g>
			<path style="fill:#FFFFFF;" d="M218.932,209.434l-0.905,0.904l-2.261,0.454l-4.975,4.974l-3.167,3.617l-18.089,3.168l-8.593-2.714L170.089,223l-5.426-13.567l-0.905,1.358v-0.907l5.427-12.209l8.595-2.714l2.71-3.618l12.213,5.882l6.781-7.237l9.498,0.451
				l5.879-3.166h6.332l0.452,4.974l6.785,5.879l-9.498,11.307z"/>
			<text transform="matrix(1 0 0 1 173.1816 208.0776)"><tspan x="0" y="0" style="stroke:none;">El Dorado</tspan></text>
		</g>
		<g>
			<path style="fill:#FFFFFF;" d="M200.389,383.997l-12.209-11.759l2.26-4.07l-2.712-1.355l-0.452-2.262l0.452-1.357l0.452-0.9l4.07-0.907v-9.497l-15.377-16.732l18.09-18.995l3.618,4.975l1.358,7.237l3.165,3.617l4.974,1.357l24.874-6.785l3.165-7.234l4.524-2.261
				l1.356-3.167h1.808l1.358-2.262l-1.358-2.713l3.166,0.454l1.81,1.808l4.069-2.711l2.714-2.262l0.903-8.595l14.926-16.278l4.069,1.355l4.524,4.976l3.165-0.452l1.357,1.81l0.452,1.358l-1.809,2.261l1.357,1.809l-0.904,1.805l4.068,1.357l2.263,3.621l-0.906,1.807
				l0.906,5.429l10.853,5.879l4.522,10.399l-0.452,3.165l-2.262,1.358l1.81,1.357l0.452,3.165l-3.167,0.905h-28.039v5.428h-15.827l-0.452,5.424l-7.238-0.448l-5.876,5.877l-4.977,3.617l-3.618,0.905l-0.903,1.357h-9.95v13.113l-16.278,15.828l-1.811,1.813
				l-6.333-3.621z"/>
			<text transform="matrix(1 0 0 1 218.2944 336.0605)"><tspan x="0" y="0" style="stroke:none;">Fresno</tspan></text>
		</g>
		<g>
			<path style="fill:#FFFFFF;" d="M73.311,141.149l44.771,0.449l5.427,4.975l-1.355,4.521l-1.809,5.429l1.355,1.808l6.331-0.454l-1.355,9.951l-6.332-0.452v-1.355h-6.784l0.453,1.807H88.688l-4.523-0.452l0.904-3.166l-1.808-3.619v-5.88h-7.235l-0.452-8.139
				l-1.358-2.714h-1.356l0.452-2.709z"/>
			<text transform="matrix(1 0 0 1 89.8164 153.8076)"><tspan x="0" y="0" style="stroke:none;">Glenn</tspan></text>
		</g>
		<g>
			<path style="fill:#FFFFFF;" d="M35.776,41.202h8.139l2.263,9.045l2.714,3.617l-3.619,5.428l3.619,4.521l-2.714,3.616l-1.81,3.168l-2.714-1.809l-2.26,0.904l-0.904,3.618l2.26,0.904v6.783l1.357,0.907l0.906,46.58H19.949l-2.714-2.714l-1.357-4.522l-4.071-2.262
				l-9.045-8.592l-0.452-1.356l0.905-3.618l-0.905-2.713L0.5,99.993v-3.621l2.715-6.782l11.756-26.23l-2.711-7.687l0.904-3.167l1.808,0.906v-5.427l1.809-7.689l1.358-3.617l1.356-1.358l10.855,0.905v4.975h5.427z"/>
			<text transform="matrix(1 0 0 1 2.166 93.209)"><tspan x="0" y="0" style="stroke:none;">Humboldt</tspan></text>
		</g>
		<g>
			<path style="fill:#FFFFFF;" d="M488.016,587.956l7.233-0.111l1.846-1.607l1.382-4.557l2.304-2.821l-0.027-7.667l-2.826-3.159l-6.342-0.438l-2.144-1.834l-0.469-3.182l0.86-8.547l-2.372-2.611l1.067-3.326l-0.442-3.004l1.809-1.532l-70.171,0.082l-0.901,51.098
				l69.193-6.783z"/>
			<text transform="matrix(1 0 0 1 440.834 567.6074)"><tspan x="0" y="0" style="stroke:none;">Imperial</tspan></text>
		</g>
		<g>
			<path style="fill:#FFFFFF;" d="M311.64,348.723l-0.904,2.716l2.713,3.163l1.809-0.452l-0.451,2.715l3.164,2.714l5.88,30.3l-1.357,4.521l18.997,0.451l99.041-3.164l-11.761-10.85l-64.669-61.96l-33.917-30.753l-45.676,0.905l0.452,1.358l-1.809,2.261l1.357,1.809
				l-0.904,1.805l4.068,1.357l2.263,3.621l-0.906,1.807l0.906,5.429l10.853,5.879l4.522,10.399l-0.452,3.165l-2.262,1.358l1.81,1.357l0.452,3.165l1.357,2.713l-2.261,1.359l7.687,10.852z"/>
			<text transform="matrix(1 0 0 1 340.6304 344.2002)"><tspan x="0" y="0" style="stroke:none;">Inyo</tspan></text>
		</g>
		<g>
			<path style="fill:#FFFFFF;" d="M212.148,395.755h34.369l75.976-1.355l18.997,0.451l-1.358,61.052l-62.409,0.454l-17.637,0.451v-2.714l-2.261-1.809l-7.689-1.354h-1.355l0.452-9.951l-4.974-1.808l0.45-5.883l-5.427,0.455l-0.452-5.427h-6.332l-0.453-5.879
				l-3.166,0.452l-0.451-5.429l-5.879-0.451l-5.426-4.975l0.451-5.881h-5.427v-10.401z"/>
			<text transform="matrix(1 0 0 1 279.8237 425.1504)"><tspan x="0" y="0" style="stroke:none;">Kern</tspan></text>
		</g>
		<g>
			<path style="fill:#FFFFFF;" d="M206.722,387.618l3.166,2.26l-0.454,2.711l2.263,1.357l0.452,1.809h34.369l-0.453-23.064v-7.235l3.168-0.448v-8.599h-2.715l-0.453-5.424h-1.806l-4.977,3.617l-3.618,0.905l-0.903,1.357h-9.95v13.113l-16.278,15.828l-1.811,1.813z"
				/>
			<text transform="matrix(1 0 0 1 219.0869 381.2822)"><tspan x="0" y="0" style="stroke:none;">Kings</tspan></text>
		</g>
		<g>
			<path style="fill:#FFFFFF;" d="M76.025,154.712v3.619l-9.95,1.81l-0.451,4.974l4.066,13.115l-3.164,1.81l-1.809,5.426l1.809,2.713v2.262l4.523,1.808l1.809,5.879l1.809-0.451l5.426,3.166l9.045,12.665l7.689-2.262l4.522-7.235l-0.454-3.168l-0.452-4.523
				l-4.975-7.236l1.358-8.591l-1.81-2.261l-7.689,0.453l-4.975-4.975l-0.451-3.165l2.26-3.166l0.904-3.166l-1.808-3.619v-5.88h-7.235z"/>
			<text transform="matrix(1 0 0 1 71.0615 188.1777)"><tspan x="0" y="0" style="stroke:none;">Lake</tspan></text>
		</g>
		<g>
			<path style="fill:#FFFFFF;" d="M220.74,147.025l0.453-94.064H153.81l0.905,46.125h13.114l-0.903,12.214l7.686,4.973l2.262-0.905v-2.261l5.881-5.427l9.496,2.262l12.209,11.307l3.166-0.452l4.976,9.947l3.165,2.713l0.904,3.621l-0.904,5.878l-1.809,4.07h6.783z"/>
			<text transform="matrix(1 0 0 1 177.0322 85.0684)"><tspan x="0" y="0" style="stroke:none;">Lassen</tspan></text>
		</g>
		<g>
			<path style="fill:#FFFFFF;" d="M277.723,456.356l62.409-0.454l0.904,34.373l-4.523,16.28h-1.806l-1.811,2.714l0.905,1.81l-9.497,0.905v2.26l-5.879,5.878v2.261l-4.069-1.356l-3.168,1.356l-1.809,2.715l-6.33-3.168l1.355-3.164v-1.809l-4.521-9.948l-3.618-1.809
				l-12.211,0.902l-1.81-0.902l-5.878-1.359l-0.905-0.452v-2.262l8.593-4.523l5.879,0.452l-0.452-4.522h1.807l0.453-2.258l-14.019-33.919z"/>
			<text transform="matrix(1 0 0 1 282.5894 501.5791)"><tspan x="0" y="0" style="stroke:none;">Los Angeles</tspan></text>
		</g>
		<g>
			<path style="fill:#FFFFFF;" d="M194.806,315.746l3.563,5.015l1.279,7.25l3.125,3.652l4.96,1.412l24.944-6.514l3.244-7.201l4.546-2.213l1.391-3.151l1.81,0.019l1.381-2.245l-1.328-2.729l3.161,0.488l1.788,1.826l4.099-2.667l2.739-2.231l0.997-8.584l15.1-16.117
				l-0.426-2.265l-4.451-6.834l-2.251-0.927l-3.627,0.865l-1.797-0.924l-1.337-1.823l-14.167,13.414l-0.045,4.069l-3.67,4.937l-5.428-0.061l-15.078,14.309l-13.135,1.669l-8.179,3.528l-3.209,4.034z"/>
			<text transform="matrix(0.9999 0.0108 -0.0108 0.9999 204.981 316.3101)"><tspan x="0" y="0" style="stroke:none;">Madera</tspan></text>
		</g>
		<g>
			<path style="fill:#FFFFFF;" d="M73.311,236.567l1.809-1.355l7.689,6.331l5.427,3.167l3.167-0.453l4.068,3.618h2.262l-1.357,5.428l2.262,1.355l-0.905,1.809l0.905,3.164l1.808,3.169l-0.904,0.452l-1.808-1.36H97.28l0.452,4.071l-1.357-0.449l-3.618-2.713
				l-3.618-3.169l-1.356,0.905l-2.715-1.806l-2.259-1.358l-1.355-2.264l-2.264-1.806h-2.26l-0.904-2.714l-1.357,1.359l-0.453,2.26l-2.261,1.355l-0.452-1.355l1.808-10.402l-0.905-2.263l0.905-0.453l1.357,1.811h2.262l-2.715-4.52l-0.904-1.813z"/>
			<text transform="matrix(1 0 0 1 76.1851 253.7544)"><tspan x="0" y="0" style="stroke:none;">Marin</tspan></text>
		</g>
		<g>
			<path style="fill:#FFFFFF;" d="M219.384,306.665l14.923-14.472h5.428l3.619-4.974v-4.069l14.019-13.568l-11.759-8.593l-13.115,8.593l-14.924-2.713l-2.714,2.713l-1.355-0.906l-5.429,3.619l-3.166-0.453l-0.903,1.81l-1.356,4.974l4.973,10.853l-0.452,2.713
				l4.975,5.88v3.167l7.235,5.424z"/>
			<text transform="matrix(1 0 0 1 203.7949 281.3408)"><tspan x="0" y="0" style="stroke:none;">Mariposa</tspan></text>
		</g>
		<g>
			<path style="fill:#FFFFFF;" d="M43.013,128.484h31.202l0.453,3.166l-2.714,2.714l1.356,6.786l-0.452,2.709h1.356l1.358,2.714l0.452,8.139v3.619l-9.95,1.81l-0.451,4.974l4.066,13.115l-3.164,1.81l-1.809,5.426l1.809,2.713v2.262l4.523,1.808l1.809,5.879
				l1.809-0.451l5.426,3.166H66.979l-20.802,6.783l-4.523-4.523l-3.618-3.617l-2.714-2.713l-0.902-2.259l1.809-6.784l-2.715-5.879l-2.713-7.238l-1.357-4.069v-5.882l1.357-4.068l1.355-3.615l-0.902-9.045l-1.356-3.168v-3.614l-4.525-4.072l-1.355-2.713l-4.068-5.88
				h23.064z"/>
			<text transform="matrix(1 0 0 1 24.8813 165.5684)"><tspan x="0" y="0" style="stroke:none;">Mendocino</tspan></text>
		</g>
		<g>
			<path style="fill:#FFFFFF;" d="M159.237,321.137l-0.905-4.069l2.261-3.167l-1.808-0.903l1.355-3.166l12.664-13.116l-0.454-3.167l30.301-14.922l4.973,10.853l-0.452,2.713l4.975,5.88v3.167l7.235,5.424l-13.116,1.812l-8.14,3.617l-3.164,4.069l-18.09,18.995
				l-12.21-5.88l-4.069-4.523l-1.356-3.617z"/>
			<text transform="matrix(1 0 0 1 168.7944 308.0234)"><tspan x="0" y="0" style="stroke:none;">Merced</tspan></text>
		</g>
		<g>
			<path style="fill:#FFFFFF;" d="M221.193,52.961V1.405L176.42,0.5l-29.393,1.355l0.451,51.106h6.331h67.383z"/>
			<text transform="matrix(1 0 0 1 166.8413 29.4429)"><tspan x="0" y="0" style="stroke:none;">Modoc</tspan></text>
		</g>
		<g>
			<path style="fill:#FFFFFF;" d="M301.69,262.346l-36.631-32.11l-9.496-8.591l-12.209-10.853l-1.81,7.686l3.618,5.427l-5.88,10.401l1.808,8.594l10.402,4.974l4.522,3.619v5.425l7.236,7.238l-4.521,7.235l1.809,0.904l3.618-0.904l2.26,0.904l4.522,6.785l0.453,2.26
				l4.069,1.355l4.524,4.976l3.165-0.452l1.357,1.81l45.676-0.905l-28.493-25.778z"/>
			<text transform="matrix(1 0 0 1 267.9282 261.4414)"><tspan x="0" y="0" style="stroke:none;">Mono</tspan></text>
		</g>
		<g>
			<path style="fill:#FFFFFF;" d="M200.389,383.997l6.333,3.621l3.166,2.26l-0.454,2.711l2.263,1.357l0.452,1.809h-54.722l-8.14-9.044l-1.356-4.07l-8.141-11.304l-3.166-3.169l-4.523-2.26l-2.26-2.261l-3.166-10.855l-2.261-4.972v-3.168l2.261-3.616l4.975-0.455
				l1.355-7.687v-6.784l1.808-1.807l3.165,0.449l0.905,0.906l0.452,2.259l6.785,6.334l2.261,1.358l-0.905,2.26l0.905,1.81l5.878,1.356l2.261,3.164l-1.357,1.81l1.357,3.618h2.714l10.4,11.758v3.621l5.88-3.169l9.497,7.689l1.358-0.905l-1.358-5.88l2.262,1.809
				l0.452,2.262l2.712,1.355l-2.26,4.07l12.209,11.759z"/>
			<text transform="matrix(1 0 0 1 141.1064 375.8574)"><tspan x="0" y="0" style="stroke:none;">Monterey</tspan></text>
		</g>
		<g>
			<path style="fill:#FFFFFF;" d="M89.139,213.506l7.689-2.262l4.522-7.235l-0.454-3.168l5.88,1.81l2.26,9.496l4.523,4.07l1.809,6.333l-0.903,1.809l-0.452,4.974l4.068,5.878h-8.14v9.044l0.904,1.357l-2.714,0.904l-5.878-2.261l0.454-2.261l-3.167-8.139
				l-1.808-0.904l0.451-1.81l-2.258-0.907l0.903-2.711l-3.168-2.264l-5.425-7.233l0.904-4.521z"/>
			<text transform="matrix(1 0 0 1 92.1099 219.8364)"><tspan x="0" y="0" style="stroke:none;">Napa</tspan></text>
		</g>
		<g>
			<path style="fill:#FFFFFF;" d="M221.193,171.898l0.452-8.14l-25.325,0.452l-5.88-6.333l-4.973,2.264l-2.712,3.618l-11.759,1.81l-2.263,0.453l-4.07,1.355l-1.356,3.166h-1.807l-0.906,2.713l-3.167,1.356l-0.45,7.238v5.425l0.903,2.715l3.164,1.355l3.167-1.81
				l4.072,2.264l8.138-11.308l7.689-6.33l4.07-2.262h33.013z"/>
			<text transform="matrix(1 0 0 1 152.894 178.4248)"><tspan x="0" y="0" style="stroke:none;">Nevada</tspan></text>
		</g>
		<g>
			<path style="fill:#FFFFFF;" d="M333.801,511.079l5.879,4.068l2.261,5.879h1.355l2.716,2.26l1.808,4.073l1.809-0.454l1.81,2.261l-4.07,6.787l0.904,2.71l-0.904,1.358l-0.454,1.356l-3.164,0.904l0.453,1.359l-4.976-3.169l-7.689-8.14l-2.711-0.908l-2.715-2.259
				l-7.687-6.783v-2.261l5.879-5.878v-2.26l9.497-0.905z"/>
			<text transform="matrix(1 0 0 1 318.9326 525.998)"><tspan x="0" y="0" style="stroke:none;">Orange</tspan></text>
		</g>
		<g>
			<path style="fill:#FFFFFF;" d="M221.193,187.274v-2.714l0.452-3.164l-0.452-9.498H188.18l-4.07,2.262l-7.689,6.33l-8.138,11.308l-4.072-2.264l-3.167,1.81l-3.164-1.355l-2.26-0.455l-4.977,2.714v4.523h-2.26l-1.355,12.211l16.73,0.903l5.427-12.209l8.595-2.714
				l2.71-3.618l12.213,5.882l6.781-7.237l9.498,0.451l5.879-3.166h6.332z"/>
			<text transform="matrix(1 0 0 1 179.4341 184.1089)"><tspan x="0" y="0" style="stroke:none;">Placer</tspan></text>
		</g>
		<g>
			<path style="fill:#FFFFFF;" d="M168.733,153.808l2.263-1.806l2.711-2.263l-0.451-4.521l4.524-2.713l9.496,6.783l1.357-1.355l25.324-0.906l1.809-4.07l0.904-5.878l-0.904-3.621l-3.165-2.713l-4.976-9.947l-3.166,0.452l-12.209-11.307l-9.496-2.262l-5.881,5.427
				v2.261l-2.262,0.905l-7.686-4.973l0.903-12.214h-13.114l-8.592,0.454l0.451,5.428l4.523,1.356l1.357,1.808v4.523l-5.425,3.618l0.903,1.357l2.262,0.451v2.715l2.714,1.809l-3.619,5.879v6.782l19.446,18.542z"/>
			<text transform="matrix(1 0 0 1 164.7246 129.3872)"><tspan x="0" y="0" style="stroke:none;">Plumas</tspan></text>
		</g>
		<g>
			<path style="fill:#FFFFFF;" d="M489.895,543.56l4.409-4.445l-0.932-1.739l2.705-0.621l2.276-5.854l-0.946-4.363l1.407-1.933l-1.247-12.196l4.412-4.427l-0.507-1.357l1.998-4.046L345.56,505.65l-5.88,9.497l2.261,5.879h1.355l2.716,2.26l1.808,4.073l1.809-0.454
				l1.81,2.261l-4.07,6.787l0.904,2.71l12.661,5.428l58.791-0.449l70.171-0.082z"/>
			<text transform="matrix(1 0 0 1 388.4834 522.8359)"><tspan x="0" y="0" style="stroke:none;">Riverside</tspan></text>
		</g>
		<g>
			<path style="fill:#FFFFFF;" d="M147.028,208.982l-5.88-0.451l-1.358,2.713l1.358,3.163l1.355,0.454l3.167,4.07v2.259l-2.262,2.714l2.714,1.356l-1.359,3.169v3.616l-2.712,2.26l-0.452,1.359l-0.905,6.785l-3.617,2.712l-2.713,4.972h-1.357l-3.62,0.905l2.264,2.716
				l4.069-0.452l1.357-4.07l3.617-0.906l1.81,0.906v-0.906l-0.452-0.902l4.977-8.595l4.068,1.811l16.732-4.975l3.167,0.902L170.089,223l-5.426-13.567l-0.905,1.358v-0.907l-16.73-0.903z"/>
			<text transform="matrix(1 0 0 1 130.9868 233.1074)"><tspan x="0" y="0" style="stroke:none;">Sacramento</tspan></text>
		</g>
		<g style="stroke:none;">
			<path style="fill:#FFFFFF;stroke:#000000;" d="M159.237,321.137l1.356,3.617l4.069,4.523l12.21,5.88l15.377,16.732v9.497l-4.07,0.907l-0.452,0.9l-0.452,1.357l-2.262-1.809l1.358,5.88l-1.358,0.905l-9.497-7.689l-5.88,3.169v-3.621l-10.4-11.758h-2.714
				l-1.357-3.618l1.357-1.81l-2.261-3.164l-5.878-1.356l-0.905-1.81l0.905-2.26l-2.261-1.358l-6.785-6.334l-0.452-2.259l1.358-1.811l2.711,0.904l1.809-0.904l1.359-3.618l2.713-0.451l10.402,1.355z"/>
			<text transform="matrix(1 0 0 1 159.3857 343.2969)"><tspan x="0" y="0">San</tspan><tspan x="-5.281" y="12">Benito</tspan></text>
		</g>
		<g>
			<path style="fill:#FFFFFF;" d="M503.471,502.577l12.066-10.474l2.691-1.023l-0.389-2.205l-11.805-10.446l-4.084-15.358l-6.318-6.298l1.507-3.168l-3.143-1.747l-1.436-5.095l0.042-3.595l-52.073-51.481l-99.041,3.164l-1.358,61.052l0.904,34.373l-4.523,16.28
				h-1.806l-1.811,2.714l0.905,1.81l5.879,4.068l5.88-9.497l157.911-3.073z"/>
			<text transform="matrix(1 0 0 1 377.7422 452.2852)"><tspan x="0" y="0" style="stroke:none;">San Bernardino</tspan></text>
		</g>
		<g>
			<path style="fill:#FFFFFF;" d="M348.272,538.663l12.661,5.428l58.791-0.449l-0.901,51.098l-51.106,5.429v-4.975l-1.807-2.714l-0.905-1.357h0.905l-0.453-3.166l-0.903,0.454l-1.809,2.261l-0.905-0.902v-2.718l1.355-1.354l-2.262-5.429l1.357-4.069l-1.357-6.784
				l-9.495-18.091l-7.234-7.683l-0.453-1.359l3.164-0.904l0.454-1.356l0.904-1.358z"/>
			<text transform="matrix(1 0 0 1 363.8149 570.3193)"><tspan x="0" y="0" style="stroke:none;">San Diego</tspan></text>
		</g>
		<g style="stroke:none;">
			<path style="fill:#FFFFFF;stroke:#000000;" d="M97.732,274.105l2.712,0.452l2.262-0.452l1.809-2.714l-0.904-0.907v-2.711h-1.809l-1.809-0.453l-1.811,0.904l-1.808,0.904l1.357,4.977z"/>
			<text transform="matrix(1 0 0 1 66.5103 273.3423)"><tspan x="0" y="0">San Francisco</tspan><tspan x="63.916" y="0">&#xC8;</tspan></text>
		</g>
		<g style="stroke:none;">
			<path style="fill:#FFFFFF;stroke:#000000;" d="M170.996,236.567l1.355,4.522v1.361l0.905,4.067l0.905,2.716l1.809,1.355l-0.453,3.167l-0.452,15.375l-3.165,1.355l-11.307,4.073l-13.115,13.567l-0.451-1.359l-1.357-1.355l-2.262-0.904v-15.376l0.45-2.259
				l0.455-1.356l-2.262-1.357l1.357-4.977l-1.809-4.071l1.809-1.806l-1.809-1.355l0.904-2.715v-0.906l-0.452-0.902l4.977-8.595l4.068,1.811l16.732-4.975l3.167,0.902z"/>
			<text transform="matrix(1 0 0 1 149.8887 258.2764)"><tspan x="0" y="0">San</tspan><tspan x="-8.618" y="12">Joaquin</tspan></text>
		</g>
		<g style="stroke:none;">
			<path style="fill:#FFFFFF;stroke:#000000;" d="M248.78,450.932l0.452-9.951l-4.974-1.808l0.45-5.883l-5.427,0.455l-0.452-5.427h-6.332l-0.453-5.879l-3.166,0.452l-0.451-5.429l-5.879-0.451l-5.426-4.975l0.451-5.881h-5.427v-10.401h-54.722l1.358,4.522
				l6.783,4.977l7.688,9.947l6.331,0.453l0.903,7.237l-1.805,1.81l2.258,5.878l5.88,3.166l4.068,0.452l1.358,2.711l-1.358,7.236v3.168l6.784-2.265l9.498,5.431l-0.452-6.334l6.331-1.357l4.523-4.973l12.211,4.973l5.425,3.622h3.62l7.234,4.971l2.716-0.448z"/>
			<text transform="matrix(1 0 0 1 192.8516 421.082)"><tspan x="0" y="0">San</tspan><tspan x="-0.276" y="12">Luis</tspan><tspan x="-6.946" y="24">Obispo</tspan></text>
		</g>
		<g>
			<path style="fill:#FFFFFF;" d="M114.413,300.828l-2.249-2.274l-0.427-4.073l0.476-4.521l2.258,0.468l3.631-2.242l-2.696-2.729l-4.062-1.83l-3.149-2.735l-4.513-1.383l0.467-2.708l-1.342-2.721l-2.265,0.439l-2.71-0.469l-0.466,2.259l0.891,2.718l-1.814,0.893
				l0.87,5.885l1.808,0.461l0.896,1.363l0.877,4.529l1.355,0.459l-0.021,3.618l-0.938,5.874l0.892,2.267l1.796,2.27l1.791,2.725l0.016-2.715l8.154-1.761l0.474-4.066z"/>
			<text transform="matrix(1 0.0057 -0.0057 1 82.626 286.1738)"><tspan x="0" y="0" style="stroke:none;">San Mateo</tspan></text>
		</g>
		<g style="stroke:none;">
			<path style="fill:#FFFFFF;stroke:#000000;" d="M250.135,450.932h-1.355l-2.716,0.448l-7.234-4.971h-3.62l-5.425-3.622l-12.211-4.973l-4.523,4.973l-6.331,1.357l0.452,6.334l-9.498-5.431l-6.784,2.265l-0.452,1.356l2.264,4.524l-0.906,3.163l0.906,4.523
				l-1.812,7.688l0.455,3.161l5.878,1.359l3.164,4.978l24.422,0.45l3.166,1.811l11.306,1.357l4.072-1.357l7.234,2.259l-0.453-31.654z"/>
			<text transform="matrix(1 0 0 1 209.9351 460.4248)"><tspan x="0" y="0">Santa</tspan><tspan x="-4.722" y="12">Barbara</tspan></text>
		</g>
		<g>
			<path style="fill:#FFFFFF;" d="M114.466,300.786l-2.264-2.259l-0.45-4.069l0.45-4.523l2.264,0.453l3.616-2.263l0.454,0.905l2.261,0.451h1.357l1.355-0.904l1.356,1.358l1.357-0.454l0.906-1.355h18.087h2.263l-0.451,1.81l0.451,2.259l1.356,2.264h2.261
				l-0.903,3.616v2.713l-1.357,0.455l2.714,7.685l1.357-1.356l2.714,0.907l2.26-1.36l2.261,2.716l-1.355,3.166l1.808,0.903l-2.261,3.167l0.905,4.069l-10.402-1.355l-2.713,0.451l-1.359,3.618l-1.809,0.904l-2.711-0.904l-2.264-3.166l-1.809,0.453v-3.169h-2.261
				l-0.903-2.709l-3.165-0.904l-0.455-1.812l-9.042-4.067l-0.906-2.262l-3.163-1.811l-1.36-2.262l-0.45-1.355z"/>
			<text transform="matrix(1 0 0 1 107.96 302.1411)"><tspan x="0" y="0" style="stroke:none;">Santa Clara</tspan></text>
		</g>
		<g style="stroke:none;">
			<path style="fill:#FFFFFF;stroke:#000000;" d="M140.244,323.85l-2.264-3.166l-1.809,0.453v-3.169h-2.261l-0.903-2.709l-3.165-0.904l-0.455-1.812l-9.042-4.067l-0.906-2.262l-3.163-1.811l-1.36-2.262l-0.45-1.355l-0.452,4.07l-8.141,1.809v2.714l0.453,1.808h1.807
				l2.263,4.072l5.426,4.522l3.618,0.902l2.715-0.452l2.712,0.905l0.905-1.355l3.617,1.809l3.62,4.521l1.808-1.807l3.165,0.449l0.905,0.906l1.358-1.811z"/>
			<text transform="matrix(1 0 0 1 105.4688 313.4482)"><tspan x="0" y="0">Santa</tspan><tspan x="2.51" y="12">Cruz</tspan></text>
		</g>
		<g>
			<path style="fill:#FFFFFF;" d="M97.28,104.063l48.842-4.523l8.592-0.454l-0.905-46.125h-6.331h-46.128l-0.454-1.812l-5.877,1.812l2.261,5.879l-5.878,1.808l1.807,1.357l-0.452,2.713l-2.713,0.907l-3.166,8.59l-2.714,9.045l-2.71,1.358l3.164,6.784l-18.09,14.47
				v3.62l3.619-1.812l1.356,0.905l1.808-1.356l2.263-0.905l6.782-1.809l4.073,2.713l7.687-4.522l3.166,1.357z"/>
			<text transform="matrix(1 0 0 1 105.6831 79.6421)"><tspan x="0" y="0" style="stroke:none;">Shasta</tspan></text>
		</g>
		<g>
			<path style="fill:#FFFFFF;" d="M188.633,147.932l-1.357,1.355l-9.496-6.783l-4.524,2.713l0.451,4.521l-2.711,2.263l-0.454,4.068l-1.809,3.618l1.356,0.453l0.907,5.428l11.759-1.81l2.712-3.618l4.973-2.264l5.88,6.333l25.325-0.452l-0.905-16.733h-6.783
				l-25.324,0.906z"/>
			<text transform="matrix(1 0 0 1 188.9932 155.9917)"><tspan x="0" y="0" style="stroke:none;">Sierra</tspan></text>
		</g>
		<g>
			<path style="fill:#FFFFFF;" d="M35.776,41.202h8.139l2.263,9.045l2.714,3.617l6.33,1.809l2.261,4.072h4.071l4.522,1.354l3.166,3.168l0.905-2.263l2.259,3.166l0.905-2.715l-0.905-1.808l-2.259-0.452v-6.783l5.427-2.263l4.521,3.167l1.81-5.878l7.687-4.073
				l1.357-2.711l4.071,2.261l-2.262,7.234l2.262,1.812l5.877-1.812l0.454,1.812h46.128l-0.451-51.106h-41.61H57.482H42.558l-0.904,3.167l-5.425,3.618l-2.264,9.044l1.811,1.358l-1.356,3.616l-1.811,4.975l1.811,3.164l2.712,2.263l-2.262,1.81l0.906,6.331z"/>
			<text transform="matrix(1 0 0 1 77.7573 24.9209)"><tspan x="0" y="0" style="stroke:none;">Siskiyou</tspan></text>
		</g>
		<g>
			<path style="fill:#FFFFFF;" d="M115.369,222.551l1.81-0.454l2.714,2.262l2.26-2.262l4.975-0.907l9.042-0.452v14.926l3.166-0.453l2.262,0.453l-0.905,6.785l-3.617,2.712l-2.713,4.972h-1.357l-3.62,0.905h-1.356l-1.809,1.358l-1.807-0.449l-3.62-0.909l-4.521,0.454
				l-1.81,1.356l-4.975-1.356l3.618,0.455l1.357,0.449v-0.904l-2.264-1.359l-2.26-1.355l-1.81-0.453v-1.81l2.714-0.904l-0.904-1.357v-9.044h8.14l-4.068-5.878l0.452-4.974l0.903-1.809z"/>
			<text transform="matrix(1 0 0 1 109.7485 242.4497)"><tspan x="0" y="0" style="stroke:none;">Solano</tspan></text>
		</g>
		<g>
			<path style="fill:#FFFFFF;" d="M80.094,200.841l9.045,12.665l-0.904,4.521l5.425,7.233l3.168,2.264l-0.903,2.711l2.258,0.907l-0.451,1.81l1.808,0.904l3.167,8.139l-0.454,2.261l-1.357-0.451l-2.259,3.167l-2.712-0.907l1.807,1.81H95.47l-4.068-3.618l-3.167,0.453
				l-5.427-3.167l-7.689-6.331l-1.809,1.355l-2.713-2.261H68.79l-2.714-7.233L59.743,223l-3.165-2.262l-4.522-6.783l-2.261-3.618l-2.713-0.904l-0.905-1.809l20.802-6.783h13.115z"/>
			<text transform="matrix(1 0 0 1 53.7822 218.4775)"><tspan x="0" y="0" style="stroke:none;">Sonoma</tspan></text>
		</g>
		<g>
			<path style="fill:#FFFFFF;" d="M175.97,250.588l-0.453,3.167l-0.452,15.375l-3.165,1.355l-11.307,4.073l-13.115,13.567l-0.451,1.81l0.451,2.259l1.356,2.264h2.261l-0.903,3.616v2.713l-1.357,0.455l2.714,7.685l1.357-1.356l2.714,0.907l2.26-1.36l2.261,2.716
				l12.664-13.116l-0.454-3.167l30.301-14.922l-13.569-12.664l-13.113-15.375z"/>
			<text transform="matrix(1 0 0 1 148.8315 283.603)"><tspan x="0" y="0" style="stroke:none;">Stanislaus</tspan></text>
		</g>
		<g>
			<path style="fill:#FFFFFF;" d="M139.79,172.805l-14.02,0.45l-1.809,1.809l0.454,4.071l-0.907,1.808l3.167,5.879l2.26,0.906l2.715,4.975l-2.264,0.902l0.455,2.262l0.451,3.618l4.071,0.902l2.713,7.238l2.713-2.26l1.358,3.167l5.88,0.451l1.355-12.211h2.26v-4.523
				l-6.785,2.264l-1.807,2.714l-1.357-8.145l-0.45-11.756l-1.358-1.812l1.358-1.354l-0.454-1.355z"/>
			<text transform="matrix(1 0 0 1 119.2134 183.2046)"><tspan x="0" y="0" style="stroke:none;">Sutter</tspan></text>
		</g>
		<g>
			<path style="fill:#FFFFFF;" d="M146.122,99.54l0.451,5.428l4.523,1.356l1.357,1.808v4.523l-5.425,3.618l0.903,1.357v2.26l-6.783,2.261v3.167l-1.811,0.904l-0.452,2.713l-3.165,0.452l-1.81,3.165l0.454,1.358l-4.522,2.262l-11.76-0.453v5.878l-44.771-0.449
				l-1.356-6.786l2.714-2.714l-0.453-3.166l-3.618-5.879l-0.451-5.427V111.3l-3.619-1.809l3.619-1.812l1.356,0.905l1.808-1.356l2.263-0.905l6.782-1.809l4.073,2.713l7.687-4.522l3.166,1.357l48.842-4.523z"/>
			<text transform="matrix(1 0 0 1 89.894 123.5068)"><tspan x="0" y="0" style="stroke:none;">Tehama</tspan></text>
		</g>
		<g>
			<path style="fill:#FFFFFF;" d="M48.891,53.864l6.33,1.809l2.261,4.072h4.071l4.522,1.354l3.166,3.168l0.905-2.263l2.259,3.166l0.905-2.715l-0.905-1.808l-2.259-0.452v-6.783l5.427-2.263l4.521,3.167l1.81-5.878l7.687-4.073l1.357-2.711l4.071,2.261l-2.262,7.234
				l2.262,1.812l2.261,5.879l-5.878,1.808l1.807,1.357l-0.452,2.713l-2.713,0.907l-3.166,8.59l-2.714,9.045l-2.71,1.358l3.164,6.784l-18.09,14.47v3.62l3.619,1.809l0.451,11.305l3.618,5.879H43.013l-0.906-46.58l-1.357-0.907v-6.783l-2.26-0.904l0.904-3.618
				l2.26-0.904l2.714,1.809l1.81-3.168l2.714-3.616l-3.619-4.521l3.619-5.428z"/>
			<text transform="matrix(1 0 0 1 49.0317 83.2593)"><tspan x="0" y="0" style="stroke:none;">Trinity</tspan></text>
		</g>
		<g>
			<path style="fill:#FFFFFF;" d="M303.953,337.871l7.687,10.852l-0.904,2.716l2.713,3.163l1.809-0.452l-0.451,2.715l3.164,2.714l5.88,30.3l-1.357,4.521l-75.976,1.355l-0.453-23.064v-7.235l3.168-0.448v-8.599h-2.715l-0.453-5.424h-1.806l5.876-5.877l7.238,0.448
				l0.452-5.424h15.827v-5.428h28.039l3.167-0.905l1.357,2.713l-2.261,1.359z"/>
			<text transform="matrix(1 0 0 1 270.0674 368.6221)"><tspan x="0" y="0" style="stroke:none;">Tulare</tspan></text>
		</g>
		<g>
			<path style="fill:#FFFFFF;" d="M218.803,227.231l0.925,0.884l8.693,4.327l1.758-2.302l3.134-1.427l2.269,0.401l0.977,3.144l0.925,0.884l1.376,0.873l2.002,8.55l10.512,4.739l4.604,3.515l0.123,5.424l7.396,7.07l-4.355,7.337l-1.398-1.777l-11.95-8.325
				l-12.918,8.887l-14.98-2.375l-2.652,2.775l-1.375-0.875l-5.345,3.74l-3.176-0.381l-2.106,6.833l-13.852-12.355l22.313-33.524l7.101-6.042z"/>
			<text transform="matrix(0.9997 -0.0226 0.0226 0.9997 204.5879 253.7905)"><tspan x="0" y="0" style="stroke:none;">Tuolumne</tspan></text>
		</g>
		<g>
			<path style="fill:#FFFFFF;" d="M250.135,450.932l7.689,1.354l2.261,1.809v2.714l17.637-0.451l14.019,33.919l-0.453,2.258h-1.807l0.452,4.522l-5.879-0.452l-8.593,4.523v2.262l-8.14-2.262l-3.165-2.711l-3.618-8.597l-4.524-1.804l-5.427-5.43l-0.453-31.654z"/>
			<text transform="matrix(1 0 0 1 248.2764 478.0664)"><tspan x="0" y="0" style="stroke:none;">Ventura</tspan></text>
		</g>
		<g>
			<path style="fill:#FFFFFF;" d="M129.842,195.867l0.451,3.618l4.071,0.902l2.713,7.238l2.713-2.26l1.358,3.167l-1.358,2.713l1.358,3.163l1.355,0.454l3.167,4.07v2.259l-2.262,2.714l2.714,1.356l-1.359,3.169v3.616l-2.712,2.26l-0.452,1.359l-2.262-0.453
				l-3.166,0.453v-14.926l-9.042,0.452l-4.975,0.907l-2.26,2.262l-2.714-2.262l-1.81,0.454l-1.809-6.333l-4.523-4.07l-2.26-9.496l-5.88-1.81l-0.452-4.523l29.397-0.451z"/>
			<text transform="matrix(1 0 0 1 114.8672 210.792)"><tspan x="0" y="0" style="stroke:none;">Yolo</tspan></text>
		</g>
		<g>
			<path style="fill:#FFFFFF;" d="M168.733,153.808l2.263-1.806l-0.454,4.068l-1.809,3.618l1.356,0.453l0.907,5.428l-2.263,0.453l-4.07,1.355l-1.356,3.166h-1.807l-0.906,2.713l-3.167,1.356l-0.45,7.238v5.425l0.903,2.715l-2.26-0.455l-4.977,2.714l-6.785,2.264
				l-1.807,2.714l-1.357-8.145l-0.45-11.756l-1.358-1.812l1.358-1.354l-0.454-1.355l4.068,0.45l8.595-3.618l1.809-5.878l2.261-4.071l3.167-0.902l4.521,0.45l2.262-4.523l2.261-0.904z"/>
			<text transform="matrix(1 0 0 1 136.9165 180.502)"><tspan x="0" y="0" style="stroke:none;">Yuba</tspan></text>
		</g>
	</g>
</svg>
