<?xml version="1.0" encoding="iso-8859-1"?>
<!DOCTYPE svg >

<svg  width="801.188pt" height="574.569pt" viewBox="0 0 801.188 574.569" xml:space="preserve">
	<g id="Layer_x0020_1" style="fill-rule:nonzero;clip-rule:nonzero;stroke:#000000;stroke-miterlimit:4; font-family:'Arial'; font-size:10;">
		<g>
			<path style="fill:#FFFFFF;" d="M457.724,175.037l-1.014-17.351v-14.289h103.075l50.012-1.021v38.787h-41.841h-74.512l-17.348,1.015v-4.081l-18.373-3.061z"/>
			<text transform="matrix(1 0 0 1 517.6953 166.8677)"><tspan x="0" y="0" style="stroke:none;">Adams</tspan></text>
		</g>
		<g>
			<path style="fill:#FFFFFF;" d="M410.784,467.945l-2.046,25.514L377.1,524.08h-32.659l-1.021-7.142v-48.993h67.364z"/>
			<text transform="matrix(1 0 0 1 357.647 495.5029)"><tspan x="0" y="0" style="stroke:none;">Alamosa</tspan></text>
		</g>
		<g>
			<path style="fill:#FFFFFF;" d="M456.71,192.385h3.059l1.023,2.042l2.033-1.021v-2.037h8.174l-1.027-4.089l6.125-1.015v-4.088l17.348-1.015h74.512h41.841v25.516H503.651H458.75l-2.04-14.293z"/>
			<text transform="matrix(1 0 0 1 506.4648 195.4492)"><tspan x="0" y="0" style="stroke:none;">Arapahoe</tspan></text>
		</g>
		<g>
			<path style="fill:#FFFFFF;" d="M185.678,574.069h110.794l-14.286-23.454v-8.164L273,539.386l-1.02-21.428h-3.065l-50.006,1.017l-1.024-5.104h-33.677l1.471,60.199z"/>
			<text transform="matrix(1 0 0 1 214.1128 549.5947)"><tspan x="0" y="0" style="stroke:none;">Archuleta</tspan></text>
		</g>
		<g>
			<path style="fill:#FFFFFF;" d="M682.253,574.069h8.174h14.284h15.308h30.62h23.472h18.374h7.145v-57.131l1.017-35.723l-80.627,1.024h-37.766v91.829z"/>
			<text transform="matrix(1 0 0 1 730.7578 532.1465)"><tspan x="0" y="0" style="stroke:none;">Baca</tspan></text>
		</g>
		<g>
			<path style="fill:#FFFFFF;" d="M645.521,393.445v88.795h36.731h37.766v-88.795h-74.497z"/>
			<text transform="matrix(1 0 0 1 673.248 441.7637)"><tspan x="0" y="0" style="stroke:none;">Bent</tspan></text>
		</g>
		<g>
			<path style="fill:#FFFFFF;" d="M386.285,153.605l4.085-45.924h66.34v35.716v14.289l-39.808,1.02v-4.08l-31.637,1.021l1.02-2.042z"/>
			<text transform="matrix(1 0 0 1 403.7554 137.2744)"><tspan x="0" y="0" style="stroke:none;">Boulder</tspan></text>
		</g>
		<g>
			<path style="fill:#FFFFFF;" d="M361.789,312.817l-7.141,10.207l2.039,5.104l-2.039,5.102l3.061,1.02l3.059,2.042l2.045,14.286l-17.352,17.352l-3.06-2.043l-6.126,4.086l-15.309,1.016l-12.242-9.186l-11.229-52.05l13.263-2.036l1.025-7.149l-32.663-11.227
				l4.087-8.16l42.863-1.023l3.063,2.043l-1.023,3.061l33.678,27.557z"/>
			<text transform="matrix(1 0 0 1 310.6885 329.1499)"><tspan x="0" y="0" style="stroke:none;">Chaffee</tspan></text>
		</g>
		<g>
			<path style="fill:#FFFFFF;" d="M799.629,342.417v-11.23v-51.03l-128.597,1.023v63.276l128.597-2.04z"/>
			<text transform="matrix(1 0 0 1 714.5781 316.8979)"><tspan x="0" y="0" style="stroke:none;">Cheyenne</tspan></text>
		</g>
		<g style="stroke:none;">
			<path style="fill:#FFFFFF;stroke:#000000;" d="M383.226,168.914l-2.045,4.079l-12.244-1.021l-12.25,17.354l3.066,2.044l14.284,9.182l-2.042,3.063l-4.081,2.04l1.023,2.038h48.988l-1.022-25.516l-7.142-2.038l-13.271-9.184l-7.142-5.103l-6.122,3.061z"/>
			<text transform="matrix(1 0 0 1 379.438 188.3027)"><tspan x="0" y="0">Clear</tspan><tspan x="-1.389" y="12">Creek</tspan></text>
		</g>
		<g>
			<path style="fill:#FFFFFF;" d="M380.164,532.246l-1.023,41.823h4.084h-32.665h-54.088l-14.286-23.454v-8.164L273,539.386l-1.02-21.428l71.44-1.02l1.021,7.142H377.1l3.064,8.166z"/>
			<text transform="matrix(1 0 0 1 312.8257 550.6152)"><tspan x="0" y="0" style="stroke:none;">Conejos</tspan></text>
		</g>
		<g>
			<path style="fill:#FFFFFF;" d="M379.141,574.069h4.084h54.086l9.188-24.475l1.02-7.144l-2.041-9.182l5.107-17.354l-8.168-29.597l-11.224-6.125l-17.353,9.185l-5.104,4.08L377.1,524.08l3.064,8.166l-1.023,41.823z"/>
			<text transform="matrix(1 0 0 1 399.4917 539.3857)"><tspan x="0" y="0" style="stroke:none;">Costilla</tspan></text>
		</g>
		<g>
			<path style="fill:#FFFFFF;" d="M621.022,413.858l-48.988-5.106v-52.049l62.257,1.021l-1.021,35.722v13.264l-12.247-1.015v8.164z"/>
			<text transform="matrix(1 0 0 1 583.5703 389.3618)"><tspan x="0" y="0" style="stroke:none;">Crowley</tspan></text>
		</g>
		<g>
			<path style="fill:#FFFFFF;" d="M374.037,395.488l34.701,52.047l14.288-8.165l8.168,1.021l11.224-10.204l16.332,13.263v-48.985l-84.713,1.022z"/>
			<text transform="matrix(1 0 0 1 409.3218 417.9385)"><tspan x="0" y="0" style="stroke:none;">Custer</tspan></text>
		</g>
		<g>
			<path style="fill:#FFFFFF;" d="M109.705,293.427l13.267-10.206l3.059-3.064l5.104,1.023l7.146-2.045l6.123,3.065l4.083,1.021l24.49-18.373l5.106-5.105l1.021,77.566l-101.04,1.021v-25.514l31.639-19.39z"/>
			<text transform="matrix(1 0 0 1 125.3311 315.8223)"><tspan x="0" y="0" style="stroke:none;">Delta</tspan></text>
		</g>
		<g>
			<path style="fill:#FFFFFF;" d="M138.281,463.864l-2.046,7.147l-9.184,1.022l-3.057,4.078l2.036,7.142H3.558V450.6l26.537-4.083l62.258,1.019l7.147,7.146l24.495-4.081l14.287,13.265z"/>
			<text transform="matrix(1 0 0 1 60.8364 466.9307)"><tspan x="0" y="0" style="stroke:none;">Dolores</tspan></text>
		</g>
		<g>
			<path style="fill:#FFFFFF;" d="M458.75,206.679h44.901l-1.016,63.273h-40.824h-34.705l31.644-63.273z"/>
			<text transform="matrix(1 0 0 1 455.7139 246.4785)"><tspan x="0" y="0" style="stroke:none;">Douglas</tspan></text>
		</g>
		<g>
			<path style="fill:#FFFFFF;" d="M300.555,237.297l23.476-1.023l-4.086-23.477l10.206-11.224l-5.102-7.145l-10.207-6.125l-13.263-13.266l-2.044-16.331l-23.473-1.02h-40.825h-13.264v65.316v14.295h78.583z"/>
			<text transform="matrix(1 0 0 1 261.231 201.5728)"><tspan x="0" y="0" style="stroke:none;">Eagle</tspan></text>
		</g>
		<g>
			<path style="fill:#FFFFFF;" d="M503.651,206.679l-1.016,63.273h68.378l1.021,37.765l37.763-1.024V206.679H503.651z"/>
			<text transform="matrix(1 0 0 1 545.708 243.415)"><tspan x="0" y="0" style="stroke:none;">Elbert</tspan></text>
		</g>
		<g>
			<path style="fill:#FFFFFF;" d="M502.636,269.952h68.378l1.021,37.765v48.986l-100.016,1.021v-19.392v-21.434h-14.295l4.088-46.946h40.824z"/>
			<text transform="matrix(1 0 0 1 499.6914 315.8774)"><tspan x="0" y="0" style="stroke:none;">El Paso</tspan></text>
		</g>
		<g>
			<path style="fill:#FFFFFF;" d="M472.019,338.332l-33.684-1.021v-6.124h-12.243l-71.444,2.043l3.061,1.02l3.059,2.042l2.045,14.286l-17.352,17.352l28.576,27.559l84.713-1.022l13.269-1.02v-35.722v-19.392z"/>
			<text transform="matrix(1 0 0 1 398.2861 365.8862)"><tspan x="0" y="0" style="stroke:none;">Fremont</tspan></text>
		</g>
		<g>
			<path style="fill:#FFFFFF;" d="M235.236,157.686v-24.495h-35.719l-1.022,24.495l-12.245,1.02v12.25h-59.199v17.347l-69.399,1.022v6.124H1.522L0.5,216.885l1.022,19.389l184.728,1.023h35.722v-14.295v-65.316h13.264z"/>
			<text transform="matrix(1 0 0 1 119.7515 213.8184)"><tspan x="0" y="0" style="stroke:none;">Garfield</tspan></text>
		</g>
		<g>
			<path style="fill:#FFFFFF;" d="M416.902,158.706v-4.08l-31.637,1.021v1.016l-2.04,5.104v7.146l6.122-3.061l7.142,5.103l13.271,9.184l7.142,2.038v-23.472z"/>
			<text transform="matrix(1 0 0 1 390.854 165.853)"><tspan x="0" y="0" style="stroke:none;">Gilpin</tspan></text>
		</g>
		<g>
			<path style="fill:#FFFFFF;" d="M386.285,153.605l-1.02,2.042v1.016l-2.04,5.104v7.146l-2.045,4.079l-12.244-1.021l-12.25,17.354l-6.125,1.021h-6.12l2.041-3.066l-12.246-17.347l-11.229-4.08l-4.08-7.147h-6.126h-13.268l-23.473-1.02l-1.022-60.213L273,84.206
				l8.166,8.163l74.499,2.042l9.191-18.375l25.516,31.646l-4.085,45.924z"/>
			<text transform="matrix(1 0 0 1 319.3174 130.1318)"><tspan x="0" y="0" style="stroke:none;">Grand</tspan></text>
		</g>
		<g>
			<path style="fill:#FFFFFF;" d="M320.966,370.988l-83.687,1.023l-2.043,38.786l-64.294-1.022l-2.044-13.271l-6.123-7.142l16.331-1.02V337.31l-1.021-77.566l2.04-2.037l6.126-3.066l5.104-4.081l2.036,7.147v4.08l10.207,8.165l27.559,3.063l7.141,7.142l-2.038,3.064
				l16.329,7.142l8.164,1.024l1.021-4.084l4.081-5.104l7.146,1.021l4.085,3.059l2.036,3.06l32.663,11.227l-1.025,7.149l-13.263,2.036l11.229,52.05l12.242,9.186z"/>
			<text transform="matrix(1 0 0 1 216.8931 332.21)"><tspan x="0" y="0" style="stroke:none;">Gunnison</tspan></text>
		</g>
		<g>
			<path style="fill:#FFFFFF;" d="M170.942,409.774l64.294,1.022l1.023,28.573l-12.252-2.042l-3.058,3.063l-3.065,73.479h-33.677v-30.616l-1.023-24.492l-6.124-3.061L174,438.35l-5.103-3.061l2.044-4.081l4.082-2.043l3.061-8.161l-6.126-3.065l-1.016-8.164z"/>
			<text transform="matrix(1 0 0 1 185.1646 434.2686)"><tspan x="0" y="0" style="stroke:none;">Hinsdale</tspan></text>
		</g>
		<g>
			<path style="fill:#FFFFFF;" d="M528.149,464.887l-73.485,63.275l-9.186,5.107l5.107-17.354l-8.168-29.597l-11.224-6.125l-17.353,9.185l-5.104,4.08l2.046-25.514l-2.046-20.41l14.288-8.165l8.168,1.021l11.224-10.204l16.332,13.263l5.101,4.085l40.819-3.061
				l34.701,13.266l-11.222,7.146z"/>
			<text transform="matrix(1 0 0 1 454.5078 479.1729)"><tspan x="0" y="0" style="stroke:none;">Huerfano</tspan></text>
		</g>
		<g>
			<path style="fill:#FFFFFF;" d="M326.071,1.537l21.43,37.759l13.266,30.619l4.087,3.063v3.058l-9.191,18.375l-74.499-2.042L273,84.206l1.02-10.208l-5.104-15.308l6.124-30.618l-4.08-10.207l-7.147,4.083l-14.288-11.23l3.064-10.206l59.195,1.023h14.288z"/>
			<text transform="matrix(1 0 0 1 292.416 59.7061)"><tspan x="0" y="0" style="stroke:none;">Jackson</tspan></text>
		</g>
		<g>
			<path style="fill:#FFFFFF;" d="M427.106,269.952h-2.039l-5.103-1.023l-2.041-61.235l-1.022-25.516v-23.472l39.808-1.02l1.014,17.351l-1.014,17.349l2.04,14.293l-31.644,63.273z"/>
			<text transform="matrix(1 0 0 1 416.8354 203.6152)"><tspan x="0" y="0" style="stroke:none;">Jefferson</tspan></text>
		</g>
		<g>
			<path style="fill:#FFFFFF;" d="M799.629,391.4v-48.984l-128.597,2.04v10.206l-36.741,1.016v2.045l-1.021,35.722h12.252h74.497l79.61-2.045z"/>
			<text transform="matrix(1 0 0 1 706.4004 373.0322)"><tspan x="0" y="0" style="stroke:none;">Kiowa</tspan></text>
		</g>
		<g>
			<path style="fill:#FFFFFF;" d="M800.646,280.157l-1.017-12.242v-62.26l-1.021-1.023l-83.693,1.023h-40.821l-3.061,75.525l129.613-1.023z"/>
			<text transform="matrix(1 0 0 1 706.8848 245.457)"><tspan x="0" y="0" style="stroke:none;">Kit Carson</tspan></text>
		</g>
		<g>
			<path style="fill:#FFFFFF;" d="M324.031,236.274h6.119l2.044,5.102l-3.061,36.745l-3.063,2.036l-42.863,1.023l-1.021-4.083l18.368-36.743v-3.058l23.476-1.023z"/>
			<text transform="matrix(1 0 0 1 298.8931 264.8486)"><tspan x="0" y="0" style="stroke:none;">Lake</tspan></text>
		</g>
		<g>
			<path style="fill:#FFFFFF;" d="M120.929,488.356l-42.578,85.713h107.328l-1.471-60.199v-30.616H126.03l-5.102,5.103z"/>
			<text transform="matrix(1 0 0 1 124.0142 530.2031)"><tspan x="0" y="0" style="stroke:none;">La Plata</tspan></text>
		</g>
		<g>
			<path style="fill:#FFFFFF;" d="M347.501,39.296l13.266,30.619l4.087,3.063v3.058l25.516,31.646h66.34v-13.27l13.262-1.021l-1.019-92.876l-37.759,1.023H326.071l21.43,37.759z"/>
			<text transform="matrix(1 0 0 1 394.8477 44.3979)"><tspan x="0" y="0" style="stroke:none;">Larimer</tspan></text>
		</g>
		<g>
			<path style="fill:#FFFFFF;" d="M454.664,528.162l-9.186,5.107l2.041,9.182l-1.02,7.144l-9.188,24.475h138.806h106.136V482.24h-36.731h-73.487v-13.271l-32.663-11.229l-11.222,7.146l-73.485,63.275z"/>
			<text transform="matrix(1 0 0 1 533.9375 535.3047)"><tspan x="0" y="0" style="stroke:none;">Las Animas</tspan></text>
		</g>
		<g>
			<path style="fill:#FFFFFF;" d="M609.797,206.679l64.296-1.023l-3.061,75.525v63.276v10.206l-36.741,1.016v2.045l-62.257-1.021v-48.986l37.763-1.024V206.679z"/>
			<text transform="matrix(1 0 0 1 623.5498 297.5093)"><tspan x="0" y="0" style="stroke:none;">Lincoln</tspan></text>
		</g>
		<g>
			<path style="fill:#FFFFFF;" d="M730.227,1.537H648.58l-23.471,1.02v66.34l14.285,1.019v12.247h76.547l12.242-1.023l1.021-43.881l1.021-35.72z"/>
			<text transform="matrix(1 0 0 1 666.3164 44.3979)"><tspan x="0" y="0" style="stroke:none;">Logan</tspan></text>
		</g>
		<g>
			<path style="fill:#FFFFFF;" d="M186.25,237.297l-2.043,7.14l7.147,6.123l-5.104,4.081l-6.126,3.066l-2.04,2.037l-5.106,5.105l-24.49,18.373l-4.083-1.021l-6.123-3.065l-7.146,2.045l-5.104-1.023l-3.059,3.064l-13.267,10.206l-31.639,19.39v25.514v21.438H1.522
				V236.274l184.728,1.023z"/>
			<text transform="matrix(1 0 0 1 59.7163 275.0522)"><tspan x="0" y="0" style="stroke:none;">Mesa</tspan></text>
		</g>
		<g>
			<path style="fill:#FFFFFF;" d="M236.259,439.37l12.244-4.081l4.085,6.124l18.37,8.164l1.021,5.104l-3.065,63.277l-50.006,1.017l-1.024-5.104l3.065-73.479l3.058-3.063l12.252,2.042z"/>
			<text transform="matrix(1 0 0 1 229.0483 480.1943)"><tspan x="0" y="0" style="stroke:none;">Mineral</tspan></text>
		</g>
		<g>
			<path style="fill:#FFFFFF;" d="M184.208,113.802l2.043-15.309V65.832l7.14,1.022v-7.148h7.146V1.537l-70.419-1.023L1.522,4.595v47.973l1.021,62.255l181.664-1.021z"/>
			<text transform="matrix(1 0 0 1 82.6313 53.5854)"><tspan x="0" y="0" style="stroke:none;">Moffat</tspan></text>
		</g>
		<g>
			<path style="fill:#FFFFFF;" d="M78.351,574.069H3.603l-0.045-90.815H126.03l-5.102,5.103l-42.578,85.713z"/>
			<text transform="matrix(1 0 0 1 26.4297 526.1211)"><tspan x="0" y="0" style="stroke:none;">Montezuma</tspan></text>
		</g>
		<g>
			<path style="fill:#FFFFFF;" d="M78.065,338.332l101.04-1.021v51.032l-16.331,1.02l2.042-6.124l-58.175,1.021l5.102,10.207h8.168l9.184,6.125l-1.019,8.162l-3.063,1.022H3.558l-2.036-50.005h76.543v-21.438z"/>
			<text transform="matrix(1 0 0 1 65.3867 378.1353)"><tspan x="0" y="0" style="stroke:none;">Montrose</tspan></text>
		</g>
		<g>
			<path style="fill:#FFFFFF;" d="M625.109,68.897l14.285,1.019v12.247l-1.021,60.214h-28.577l-50.012,1.021l2.044-74.5h63.28z"/>
			<text transform="matrix(1 0 0 1 587.7441 96.4502)"><tspan x="0" y="0" style="stroke:none;">Morgan</tspan></text>
		</g>
		<g>
			<path style="fill:#FFFFFF;" d="M621.022,413.858v-8.164l12.247,1.015v-14.286v1.022h12.252v88.795h-73.487v-13.271v-60.217l48.988,5.106z"/>
			<text transform="matrix(1 0 0 1 595.251 445.4971)"><tspan x="0" y="0" style="stroke:none;">Otero</tspan></text>
		</g>
		<g>
			<path style="fill:#FFFFFF;" d="M162.775,389.362l6.123,7.142l2.044,13.271l1.016,8.164l6.126,3.065l-3.061,8.161l-4.082,2.043l-2.044,4.081l-6.123,1.021l2.042,4.081l-7.146,6.125l-5.103-1.02v-4.084l-5.104-7.145l-13.266-7.146l1.02-12.247l-4.083-1.017h-3.058
				l-3.063-4.084l3.063-1.022l1.019-8.162l-9.184-6.125h-8.168l-5.102-10.207l58.175-1.021l-2.042,6.124z"/>
			<text transform="matrix(1 0 0 1 137.9321 414.875)"><tspan x="0" y="0" style="stroke:none;">Ouray</tspan></text>
		</g>
		<g>
			<path style="fill:#FFFFFF;" d="M361.789,312.817l-33.678-27.557l1.023-3.061l-3.063-2.043l3.063-2.036l3.061-36.745l-2.044-5.102l4.087-2.046l11.224,3.07l24.499-26.542l-1.022-3.062h48.988l2.041,61.235l5.103,1.023l1.025,61.235l-71.444,2.043l2.039-5.102
				l-2.039-5.104l7.141-10.207z"/>
			<text transform="matrix(1 0 0 1 368.8604 271.9941)"><tspan x="0" y="0" style="stroke:none;">Park</tspan></text>
		</g>
		<g>
			<path style="fill:#FFFFFF;" d="M797.588,82.162V45.42v-1.022v-6.12l-68.383-1.021l-1.021,43.881l69.404,1.023z"/>
			<text transform="matrix(1 0 0 1 749.085 62.772)"><tspan x="0" y="0" style="stroke:none;">Phillips</tspan></text>
		</g>
		<g>
			<path style="fill:#FFFFFF;" d="M191.355,250.56l2.036,7.147v4.08l10.207,8.165l27.559,3.063l7.141,7.142l-2.038,3.064l16.329,7.142l8.164,1.024l1.021-4.084l4.081-5.104l7.146,1.021l4.085,3.059l2.036,3.06l4.087-8.16l-1.021-4.083l18.368-36.743v-3.058h-78.583
				H186.25l-2.043,7.14l7.147,6.123z"/>
			<text transform="matrix(1 0 0 1 236.2769 260.7666)"><tspan x="0" y="0" style="stroke:none;">Pitkin</tspan></text>
		</g>
		<g>
			<path style="fill:#FFFFFF;" d="M800.646,481.216v-13.271l-1.017-74.5V391.4l-79.61,2.045v88.795l80.627-1.024z"/>
			<text transform="matrix(1 0 0 1 742.5078 439.3701)"><tspan x="0" y="0" style="stroke:none;">Prowers</tspan></text>
		</g>
		<g>
			<path style="fill:#FFFFFF;" d="M458.75,394.465v48.985l5.101,4.085l40.819-3.061l34.701,13.266l32.663,11.229v-60.217v-52.049l-100.016,1.021v35.722l-13.269,1.02z"/>
			<text transform="matrix(1 0 0 1 499.3086 409.7744)"><tspan x="0" y="0" style="stroke:none;">Pueblo</tspan></text>
		</g>
		<g>
			<path style="fill:#FFFFFF;" d="M235.236,133.191v-18.368l-51.028-1.021L2.543,114.823l-1.021,80.626h56.13v-6.124l69.399-1.022v-17.347h59.199v-12.25l12.245-1.02l1.022-24.495h35.719z"/>
			<text transform="matrix(1 0 0 1 79.4019 148.5024)"><tspan x="0" y="0" style="stroke:none;">Rio Blanco</tspan></text>
		</g>
		<g>
			<path style="fill:#FFFFFF;" d="M271.98,454.681l-3.065,63.277h3.065l71.44-1.02v-48.993l-59.195-1.015l-1.018-13.272l-11.228,1.022z"/>
			<text transform="matrix(1 0 0 1 281.1108 494.4805)"><tspan x="0" y="0" style="stroke:none;">Rio Grande</tspan></text>
		</g>
		<g>
			<path style="fill:#FFFFFF;" d="M184.208,113.802l2.043-15.309V65.832l7.14,1.022v-7.148h7.146V1.537l52.051-1.023l-3.064,10.206l14.288,11.23l7.147-4.083l4.08,10.207l-6.124,30.618l5.104,15.308L273,84.206l2.039,13.267l1.022,60.213h-40.825v-24.495v-18.368
				l-51.028-1.021z"/>
			<text transform="matrix(1 0 0 1 225.3286 71.9556)"><tspan x="0" y="0" style="stroke:none;">Routt</tspan></text>
		</g>
		<g>
			<path style="fill:#FFFFFF;" d="M235.236,410.797l1.023,28.573l12.244-4.081l4.085,6.124l18.37,8.164l1.021,5.104l11.228-1.022l1.018,13.272l59.195,1.015h67.364l-2.046-20.41l-34.701-52.047l-28.576-27.559l-3.06-2.043l-6.126,4.086l-15.309,1.016l-83.687,1.023
				l-2.043,38.786z"/>
			<text transform="matrix(1 0 0 1 292.3213 422.0176)"><tspan x="0" y="0" style="stroke:none;">Saguache</tspan></text>
		</g>
		<g style="stroke:none;">
			<path style="fill:#FFFFFF;stroke:#000000;" d="M152.568,445.497l5.103,1.02l7.146-6.125l-2.042-4.081l6.123-1.021L174,438.35l3.06,17.352l6.124,3.061l1.023,24.492H126.03l-2.036-7.142l3.057-4.078l9.184-1.022l2.046-7.147l14.287-18.367z"/>
			<text transform="matrix(1 0 0 1 151.8394 463.8643)"><tspan x="0" y="0">San</tspan><tspan x="-1.946" y="12">Juan</tspan></text>
		</g>
		<g>
			<path style="fill:#FFFFFF;" d="M138.281,463.864L123.995,450.6L99.5,454.681l-7.147-7.146l-62.258-1.019L3.558,450.6v-40.825h121.456l3.063,4.084h3.058l4.083,1.017l-1.02,12.247l13.266,7.146l5.104,7.145v4.084l-14.287,18.367z"/>
			<text transform="matrix(1 0 0 1 52.0313 433.2471)"><tspan x="0" y="0" style="stroke:none;">San Miguel</tspan></text>
		</g>
		<g>
			<path style="fill:#FFFFFF;" d="M797.588,38.278l-1.023-36.741h-62.257h-4.081l-1.021,35.72l68.383,1.021z"/>
			<text transform="matrix(1 0 0 1 744.5469 23.9868)"><tspan x="0" y="0" style="stroke:none;">Sedgwick</tspan></text>
		</g>
		<g>
			<path style="fill:#FFFFFF;" d="M330.15,236.274h-6.119l-4.086-23.477l10.206-11.224l-5.102-7.145l-10.207-6.125l-13.263-13.266l-2.044-16.331h13.268h6.126l4.08,7.147l11.229,4.08l12.246,17.347l-2.041,3.066h6.12l6.125-1.021l3.066,2.044l14.284,9.182
				l-2.042,3.063l-4.081,2.04l1.023,2.038l1.022,3.062l-24.499,26.542l-11.224-3.07l-4.087,2.046z"/>
			<text transform="matrix(1 0 0 1 331.5776 209.7358)"><tspan x="0" y="0" style="stroke:none;">Summit</tspan></text>
		</g>
		<g>
			<path style="fill:#FFFFFF;" d="M425.067,269.952h2.039h34.705l-4.088,46.946h14.295v21.434l-33.684-1.021v-6.124h-12.243l-1.025-61.235z"/>
			<text transform="matrix(1 0 0 1 431.4863 297.5093)"><tspan x="0" y="0" style="stroke:none;">Teller</tspan></text>
		</g>
		<g>
			<path style="fill:#FFFFFF;" d="M639.395,82.162h76.547l-1.027,123.493h-40.821l-64.296,1.023v-25.516v-38.787h28.577l1.021-60.214z"/>
			<text transform="matrix(1 0 0 1 641.748 165.853)"><tspan x="0" y="0" style="stroke:none;">Washington</tspan></text>
		</g>
		<g>
			<path style="fill:#FFFFFF;" d="M625.109,2.557l-55.116-2.043h-101.04l1.019,92.876l-13.262,1.021v13.27v35.716h103.075l2.044-74.5h63.28V2.557z"/>
			<text transform="matrix(1 0 0 1 517.8672 55.6255)"><tspan x="0" y="0" style="stroke:none;">Weld</tspan></text>
		</g>
		<g>
			<path style="fill:#FFFFFF;" d="M798.607,204.632l-1.02-60.213l1.02-2.042l-1.02-46.95V82.162l-69.404-1.023l-12.242,1.023l-1.027,123.493l83.693-1.023z"/>
			<text transform="matrix(1 0 0 1 739.8965 132.1689)"><tspan x="0" y="0" style="stroke:none;">Yuma</tspan></text>
		</g>
		<g>
			<path style="fill:#FFFFFF;" d="M476.097,178.097l-18.373-3.061l-1.014,17.349h3.059l1.023,2.042l2.033-1.021v-2.037h8.174l-1.027-4.089l6.125-1.015v-4.088v-4.081z"/>
			<text transform="matrix(1 0 0 1 445.084 185.0483)"><tspan x="0" y="0" style="stroke:none;">Denver</tspan></text>
		</g>
	</g>
</svg>
