<?xml version="1.0" encoding="iso-8859-1"?>
<!DOCTYPE svg >

<svg  width="801.505pt" height="356.967pt" viewBox="0 0 801.505 356.967" xml:space="preserve">
	<g id="Layer_x0020_1" style="fill-rule:nonzero;clip-rule:nonzero;fill:#FFFFFF;stroke:#000000;stroke-miterlimit:4; font-family:'Arial'; font-size:10;">
		<g>
			<path d="M452.7,253.05l-18.143,10.926l-19.122,9.978l2.111,10.571l7.852,7.584l-0.898,3.875l24.144,1.513l-0.1-5.786l17.907-24.429l-3.126-13.451L452.7,253.05z"/>
			<text transform="matrix(0.9999 -0.0173 0.0173 0.9999 428.9087 277.5796)"><tspan x="0" y="0" style="fill:#000000;stroke:none;">Adair</tspan></text>
		</g>
		<g>
			<path d="M324.792,336.211h21.22l24.116,1.928v-13.504l-7.715-5.79l-2.893-15.435l-11.576-6.748h-2.894l-22.189,22.183l1.931,17.366z"/>
			<text transform="matrix(1 0 0 1 333.9316 323.668)"><tspan x="0" y="0" style="fill:#000000;stroke:none;">Allen</tspan></text>
		</g>
		<g>
			<path d="M462.73,149.073l4.82-2.891l1.934-9.646l1.926-1.931l13.508,6.754l1.925-1.931l4.824,0.965l1.935,18.327l-8.684,2.897l-9.647-0.965l-3.86,8.679l-15.43-2.89l-1.931-8.681l8.681-8.687z"/>
			<text transform="matrix(1 0 0 1 452.9048 156.7935)"><tspan x="0" y="0" style="fill:#000000;stroke:none;">Anderson</tspan></text>
		</g>
		<g>
			<path d="M63.383,293.764l-13.504,2.898l-16.401-2.898l-8.68-4.823l-0.965-9.645l9.646-16.396l8.681-5.788h8.687l12.538,36.653z"/>
			<text transform="matrix(1 0 0 1 26.5225 283.3101)"><tspan x="0" y="0" style="fill:#000000;stroke:none;">Ballard</tspan></text>
		</g>
		<g>
			<path d="M360.48,265.793l13.509,1.928l19.292-2.896l-0.965,7.72l1.926,36.654l-24.115,15.436l-7.715-5.79l-2.893-15.435l-11.576-6.748l5.788-16.401l3.858,0.966l2.891-15.434z"/>
			<text transform="matrix(1 0 0 1 357.0503 293.7637)"><tspan x="0" y="0" style="fill:#000000;stroke:none;">Barren</tspan></text>
		</g>
		<g>
			<path d="M584.275,126.89l0.961-1.931l14.469-12.54l10.612,0.967l6.752,4.823l-0.965,5.789l6.752,1.925l3.857,1.931l-1.925,4.822l5.782,0.967l8.685,7.714l-0.964,3.857l-10.611-0.964l-0.967,6.754l-6.748-3.858l-9.648,5.789l-5.787-4.822l-1.931-6.755
				l-18.324-14.468z"/>
			<text transform="matrix(1 0 0 1 600.0317 134.604)"><tspan x="0" y="0" style="fill:#000000;stroke:none;">Bath</tspan></text>
		</g>
		<g>
			<path d="M640.218,333.315l-3.856-9.647l1.93-22.184l-6.754-7.721h-4.824l1.931,1.932l-17.363,18.327l-5.787,1.932l-6.752,10.611l-20.257,16.396l37.619,0.966l24.114-10.611z"/>
			<text transform="matrix(1 0 0 1 610.6626 328.4912)"><tspan x="0" y="0" style="fill:#000000;stroke:none;">Bell</tspan></text>
		</g>
		<g>
			<path d="M510.959,48.755l4.822-2.893l0.966-16.399l-2.89-22.185l-12.545-6.752l-9.646,1.931l-4.824,4.822l-0.961,6.749l2.894,5.789l-1.933,10.613l7.724,6.754l16.394,11.572z"/>
			<text transform="matrix(1 0 0 1 487.8237 31.3926)"><tspan x="0" y="0" style="fill:#000000;stroke:none;">Boone</tspan></text>
		</g>
		<g>
			<path d="M560.156,102.773l11.576,13.505l13.504,8.681l-0.961,1.931l-11.579,10.611l-20.257,7.714l-10.608-7.714l0.967-9.646l-2.898-1.931l-4.821-10.612l12.541-1.926l12.537-10.613z"/>
			<text transform="matrix(1 0 0 1 542.2173 126.8896)"><tspan x="0" y="0" style="fill:#000000;stroke:none;">Bourbon</tspan></text>
		</g>
		<g>
			<path d="M734.752,118.209l0.965-5.79l-1.93-8.679v-9.646l-2.893-7.72l-3.864-3.856l-16.396,19.292l4.825,1.932l-3.857,5.789v9.646l18.326-2.897l4.824,1.932z"/>
			<text transform="matrix(1 0 0 1 712.8364 112.5332)"><tspan x="0" y="0" style="fill:#000000;stroke:none;">Boyd</tspan></text>
		</g>
		<g>
			<path d="M502.282,192.481l-31.832,3.862v6.749l-1.933,10.612l20.258,3.856l2.892-4.822l20.26-11.574l-9.645-8.683z"/>
			<text transform="matrix(1 0 0 1 471.4458 206.9507)"><tspan x="0" y="0" style="fill:#000000;stroke:none;">Boyle</tspan></text>
		</g>
		<g>
			<path d="M560.156,74.802l-3.856-34.728l19.292,5.788l8.684-0.964l6.752,3.857l-7.721,23.149h-7.715l-11.578,6.755h-4.82l0.963-3.857z"/>
			<text transform="matrix(1 0 0 1 554.354 55.5073)"><tspan x="0" y="0" style="fill:#000000;stroke:none;">Bracken</tspan></text>
		</g>
		<g>
			<path d="M662.405,196.343l18.326,7.714l12.542,13.503l1.93,1.933l-14.472-2.898l-5.787,7.72l0.967,8.682l-8.682-5.788l-20.259,13.502l-8.679-3.857l-6.754,4.823v-17.361l-4.824-4.822l8.682-16.401l11.575-9.646l15.435,2.897z"/>
			<text transform="matrix(1 0 0 1 634.1392 220.458)"><tspan x="0" y="0" style="fill:#000000;stroke:none;">Breathitt</tspan></text>
		</g>
		<g>
			<path d="M302.603,210.812l2.898-3.861l20.258,2.895l10.606-4.822l12.542-27.975l-35.692-29.902l-4.824,5.789l1.932,6.75l-1.932,2.898h-5.788l-1.926,7.713l-4.824,0.965l-2.896,11.572l3.863,15.436l5.783,12.542z"/>
			<text transform="matrix(1 0 0 1 289.2817 188.624)"><tspan x="0" y="0" style="fill:#000000;stroke:none;">Breckinridge</tspan></text>
		</g>
		<g>
			<path d="M392.316,179.942l-4.825-9.646l-10.611-9.646l-1.93-7.716l1.93-2.896l19.292-7.714l17.362,1.926l14.468-7.716l-8.683,12.538l-5.785,3.862l3.863,4.824l-10.612,9.645l-2.898,6.749l-11.571,5.789z"/>
			<text transform="matrix(1 0 0 1 385.877 156.7935)"><tspan x="0" y="0" style="fill:#000000;stroke:none;">Bullitt</tspan></text>
		</g>
		<g>
			<path d="M270.773,259.043l30.871-24.115l13.502,4.823l1.926,4.822l7.719,20.252l-7.719,2.896l-3.857-4.822l-12.538,0.966l-6.752,23.15l-27.975-7.72l5.788-6.75l-5.788-1.93l4.823-11.572z"/>
			<text transform="matrix(1 0 0 1 274.1133 264.8257)"><tspan x="0" y="0" style="fill:#000000;stroke:none;">Butler</tspan></text>
		</g>
		<g>
			<path d="M172.381,237.819l-29.899,21.224l-0.964,6.75l5.788,0.964l18.327,28.938l9.646-1.932l4.824-5.784l5.79-19.291l-12.543-13.508l-5.79-10.608l4.824-6.754z"/>
			<text transform="matrix(1 0 0 1 142.377 267.0664)"><tspan x="0" y="0" style="fill:#000000;stroke:none;">Caldwell</tspan></text>
		</g>
		<g>
			<path d="M99.076,355.505h46.299l-0.966-22.189l-4.823-10.612l-40.511-0.96v33.762z"/>
			<text transform="matrix(1 0 0 1 100.9736 341.0352)"><tspan x="0" y="0" style="fill:#000000;stroke:none;">Calloway</tspan></text>
		</g>
		<g>
			<path d="M538.935,44.897l17.364-9.646l-8.681-20.258l-12.541-6.749l-2.897-5.789l-5.785,1.926l2.892,11.577l3.862,9.646L532.18,39.11l6.755,5.788z"/>
			<text transform="matrix(1 0 0 1 525.5317 33.3213)"><tspan x="0" y="0" style="fill:#000000;stroke:none;">Campbell</tspan></text>
		</g>
		<g>
			<path d="M64.348,295.695l-0.965-1.932l-13.504,2.898l-16.401-2.898l0.967,9.646l-5.788,9.648l1.931,3.86l33.76,1.926v-23.149z"/>
			<text transform="matrix(1 0 0 1 31.2773 313.793)"><tspan x="0" y="0" style="fill:#000000;stroke:none;">Carlisle</tspan></text>
		</g>
		<g>
			<path d="M455.014,76.728l10.612-1.926l15.429-7.72l-11.571-16.396l-11.575,8.68h-5.792l-7.714-4.822l-6.754-0.965l12.545,23.149h4.82z"/>
			<text transform="matrix(1 0 0 1 443.1841 68.0479)"><tspan x="0" y="0" style="fill:#000000;stroke:none;">Carroll</tspan></text>
		</g>
		<g>
			<path d="M654.687,111.455l9.646-1.926V96.021l7.721-12.539l21.219,15.435l17.361,2.893l4.825,1.932l-3.857,5.789v9.646l-12.543,9.645l-18.328-3.861l-10.608-7.716l-6.749,8.681l-8.687-7.714v-6.755z"/>
			<text transform="matrix(1 0 0 1 672.6274 112.4194)"><tspan x="0" y="0" style="fill:#000000;stroke:none;">Carter</tspan></text>
		</g>
		<g>
			<path d="M466.587,230.104l-13.504,23.15l10.61,0.965l2.894,13.502l11.579,11.574l7.715,1.932l17.364-26.046l1.928-14.47l-16.398-11.572v-11.578l-20.258-3.856l-1.93,16.399z"/>
			<text transform="matrix(1 0 0 1 464.9575 246.499)"><tspan x="0" y="0" style="fill:#000000;stroke:none;">Casey</tspan></text>
		</g>
		<g>
			<path d="M185.891,338.139l0.96-45.335l-6.75-4.824l5.79-19.291l14.468,4.823l22.184-5.791l8.68,16.397l-7.714,53.054l-33.762,0.966h-3.856z"/>
			<text transform="matrix(1 0 0 1 187.3794 302.4502)"><tspan x="0" y="0" style="fill:#000000;stroke:none;">Christian</tspan></text>
		</g>
		<g>
			<path d="M552.439,145.215l20.257-7.714l13.507,24.115l-6.752,9.646l1.93,3.857h-8.685l-17.359-5.789l-3.86-5.788l-5.789,1.931l6.752-20.258z"/>
			<text transform="matrix(1 0 0 1 553.311 159.6851)"><tspan x="0" y="0" style="fill:#000000;stroke:none;">Clark</tspan></text>
		</g>
		<g>
			<path d="M636.362,254.219l-4.824,39.544h-4.824l-4.823-0.96l-18.325-8.685l-10.613,0.965l3.858-4.823l-3.858-11.572l-7.716-2.896l1.93-12.539l17.364-12.543l15.436,0.966l2.891,4.822l9.646,5.789l3.859,1.932z"/>
			<text transform="matrix(1 0 0 1 603.2075 265.793)"><tspan x="0" y="0" style="fill:#000000;stroke:none;">Clay</tspan></text>
		</g>
		<g>
			<path d="M441.512,338.139l8.682-29.904l1.923-5.784l10.613,8.682l4.82-3.859l4.825,12.537l-0.966,6.756l6.757,12.538l-34.731-0.965h-1.923z"/>
			<text transform="matrix(1 0 0 1 444.2739 331.3887)"><tspan x="0" y="0" style="fill:#000000;stroke:none;">Clinton</tspan></text>
		</g>
		<g>
			<path d="M158.877,224.315l-9.646-8.681l-6.75,3.859l-3.861,3.857l-7.716,0.965l-20.257,5.789l17.366,24.115v17.361l13.504-5.787l0.964-6.75l29.899-21.224l-15.43-8.681l1.926-4.823z"/>
			<text transform="matrix(1 0 0 1 120.9541 240.7896)"><tspan x="0" y="0" style="fill:#000000;stroke:none;">Crittenden</tspan></text>
		</g>
		<g>
			<path d="M425.112,339.104l16.4-0.965l8.682-29.904l-4.824-6.75l2.891-3.855l-24.116-1.934l-4.824,8.682l-5.785,0.965l-3.859,5.79l-0.964,3.855l9.646,7.716l6.755,16.4z"/>
			<text transform="matrix(1 0 0 1 401.7329 314.0225)"><tspan x="0" y="0" style="fill:#000000;stroke:none;">Cumberland</tspan></text>
		</g>
		<g>
			<path d="M214.828,197.304l30.865,15.435l7.719,0.966l24.116-16.401l-3.862-3.857l2.895-3.858l0.967-6.754l-17.368-20.25l-4.822,3.857l-6.749,14.467l-3.863,0.967l-1.926-4.825l-9.646-2.896l-6.754-5.788l-2.892,11.577l4.823,3.856l-11.577,6.756l-1.927,6.749z"/>
			<text transform="matrix(1 0 0 1 229.8408 192.4814)"><tspan x="0" y="0" style="fill:#000000;stroke:none;">Daviess</tspan></text>
		</g>
		<g>
			<path d="M317.072,244.573l31.835-1.931l11.573,15.433v7.717l-2.891,15.434l-3.858-0.966l-10.613-6.749l-6.753,3.857l-11.574-12.544l-7.719-20.252z"/>
			<text transform="matrix(1 0 0 1 316.3232 261.9346)"><tspan x="0" y="0" style="fill:#000000;stroke:none;">Edmonson</tspan></text>
		</g>
		<g>
			<path d="M663.374,125.924l6.749-8.681l10.608,7.716l18.328,3.861l1.932,8.681l-14.472,16.396l-17.363-2.892l-11.573-3.858v-5.789l6.751-6.754l-0.96-8.68z"/>
			<text transform="matrix(1 0 0 1 667.5405 140.3921)"><tspan x="0" y="0" style="fill:#000000;stroke:none;">Elliott</tspan></text>
		</g>
		<g>
			<path d="M570.769,212.739l-3.856-12.538l4.819-3.857l0.964-15.436l-2.895-3.858l2.895-1.93h8.685l11.571,9.646l7.721-0.966l9.645,6.756l-13.507,13.503l-1.927,8.681l-7.718-1.927l-16.396,1.927z"/>
			<text transform="matrix(1 0 0 1 573.7183 198.2695)"><tspan x="0" y="0" style="fill:#000000;stroke:none;">Estill</tspan></text>
		</g>
		<g>
			<path d="M552.439,145.215l-10.608-7.714l0.967-9.646l-2.898-1.931l-25.08,10.611l-0.961,2.892l-3.861,13.508l21.223,8.681l3.858,10.612l5.785,0.961v-6.749l4.824-0.967l6.752-20.258z"/>
			<text transform="matrix(1 0 0 1 517.4351 147.1465)"><tspan x="0" y="0" style="fill:#000000;stroke:none;">Fayette</tspan></text>
		</g>
		<g>
			<path d="M591.027,85.414l-3.861,6.749l3.861,4.824l1.925,8.681l4.821-0.962l1.932,7.715l10.612,0.967l6.752,4.823l-0.965,5.789l6.752,1.925l11.576-7.714l5.786-14.469l-2.894-5.79l-9.645-0.964l-1.934-10.612l-4.821-3.856l-22.184,7.718l-7.715-4.821z"/>
			<text transform="matrix(1 0 0 1 596.3921 105.6665)"><tspan x="0" y="0" style="fill:#000000;stroke:none;">Fleming</tspan></text>
		</g>
		<g>
			<path d="M728.964,190.555l7.714,2.892l-3.856,1.932l0.966,24.116l-2.893,15.434l-9.645,12.537l-5.791-9.646v-8.681l-18.327-7.719l5.783-6.75l-7.713-26.045l4.823,2.896l17.363-5.789l11.575,4.824z"/>
			<text transform="matrix(1 0 0 1 704.1987 208.8818)"><tspan x="0" y="0" style="fill:#000000;stroke:none;">Floyd</tspan></text>
		</g>
		<g>
			<path d="M488.775,105.667l12.538,0.965l1.933,21.223l-15.434,7.714l-0.97,3.858l-1.925,1.931l-13.508-6.754l0.966-15.429l5.791-9.646h-3.857l6.746-4.825l7.72,0.962z"/>
			<text transform="matrix(1 0 0 1 470.9917 125.9238)"><tspan x="0" y="0" style="fill:#000000;stroke:none;">Franklin</tspan></text>
		</g>
		<g>
			<path d="M0.683,355.505l6.754-18.332l12.539,10.61l5.788-3.856v-7.716l4.824-12.543l28.936,31.837l-52.087,0.959l-6.754-0.959z"/>
			<text transform="matrix(1 0 0 1 23.4409 353.5176)"><tspan x="0" y="0" style="fill:#000000;stroke:none;">Fulton</tspan></text>
		</g>
		<g>
			<path d="M481.055,67.082l0.969-0.962l10.607-4.822h5.793v-8.686l12.535-2.891v-0.966l-16.394-11.572h-2.899l1.935,9.646h-10.614l-13.503,3.856l11.571,16.396z"/>
			<text transform="matrix(1 0 0 1 466.9995 55.5073)"><tspan x="0" y="0" style="fill:#000000;stroke:none;">Gallatin</tspan></text>
		</g>
		<g>
			<path d="M505.173,177.049l12.542,2.894l-2.896,7.714l4.821,1.932l4.821-4.823l4.825,2.892l3.862,11.577l10.606,16.401v3.859l-6.749,5.788l-3.857-2.898v1.932l-21.223-18.326v-4.825l-9.645-8.683l3.856-2.893l-0.965-12.54z"/>
			<text transform="matrix(1 0 0 1 503.3774 205.0234)"><tspan x="0" y="0" style="fill:#000000;stroke:none;">Garrard</tspan></text>
		</g>
		<g>
			<path d="M498.424,61.297l-0.967,7.715l15.433,19.291h6.75l1.933-0.964l9.646-5.788l-6.758-33.763l-8.68-1.927l-4.822,2.893v0.966l-12.535,2.891v8.686z"/>
			<text transform="matrix(1 0 0 1 501.353 69.9785)"><tspan x="0" y="0" style="fill:#000000;stroke:none;">Grant</tspan></text>
		</g>
		<g>
			<path d="M63.383,354.537l30.869,1.927l4.824-0.959v-33.762v-26.048H64.348v23.149l-0.965,35.692z"/>
			<text transform="matrix(1 0 0 1 65.5933 327.5264)"><tspan x="0" y="0" style="fill:#000000;stroke:none;">Graves</tspan></text>
		</g>
		<g>
			<path d="M301.644,234.928l13.502,4.823l1.926,4.822l31.835-1.931l10.612-0.966l2.893-12.538l-6.755-13.504l-3.857-6.752l-6.75-0.967l-5.788-3.857l-2.896,0.966l-10.606,4.822l-20.258-2.895l-2.898,3.861l-1.926,3.858l-5.789-3.858l-1.931,4.823l8.687,19.293z"/>
			<text transform="matrix(1 0 0 1 310.7192 225.2817)"><tspan x="0" y="0" style="fill:#000000;stroke:none;">Grayson</tspan></text>
		</g>
		<g>
			<path d="M434.758,263.865l-15.438-26.046l-10.608-7.715v-4.822l-2.894-0.966l-4.82,4.823l-2.894,33.76l7.714,7.716l9.646,2.897l19.295-9.647z"/>
			<text transform="matrix(1 0 0 1 399.7935 256.7246)"><tspan x="0" y="0" style="fill:#000000;stroke:none;">Green</tspan></text>
		</g>
		<g>
			<path d="M672.054,83.481l4.819-2.891l9.646-22.19v-3.856l14.472-3.858l3.858,18.327l4.821,3.857l10.613,3.858l6.747,5.789l-16.396,19.292l-17.361-2.893l-21.219-15.435z"/>
			<text transform="matrix(1 0 0 1 679.6011 84.4473)"><tspan x="0" y="0" style="fill:#000000;stroke:none;">Greenup</tspan></text>
		</g>
		<g>
			<path d="M276.562,189.588l0.967-6.754l-17.368-20.25l18.326-7.723l8.688,10.612l8.678-0.964v6.753l-2.896,11.572l3.863,15.436l-20.259-8.681z"/>
			<text transform="matrix(1 0 0 1 262.897 173.189)"><tspan x="0" y="0" style="fill:#000000;stroke:none;">Hancock</tspan></text>
		</g>
		<g>
			<path d="M336.365,205.023l2.896-0.966l5.788,3.857l6.75,0.967l3.857,6.752l6.755,13.504h13.503l2.896-16.4l7.715-5.788l12.539-17.362l-7.716-5.79l0.966-3.856l-4.825-9.646l-10.611-9.646l-1.93-7.716l-4.824-0.966h-3.857l3.857,16.396l-4.824,7.72l-16.396,0.963
				l-12.542,27.975z"/>
			<text transform="matrix(1 0 0 1 353.4717 195.3779)"><tspan x="0" y="0" style="fill:#000000;stroke:none;">Hardin</tspan></text>
		</g>
		<g>
			<path d="M640.218,333.315l36.655-11.572l3.857-11.577l12.542-3.858l10.609-4.823l0.967-9.646l-7.717-6.755l-23.156,7.72l0.968-4.824l-4.821-3.861L646.97,302.45l-8.679-0.966l-1.93,22.184l3.856,9.647z"/>
			<text transform="matrix(1 0 0 1 648.645 312.0947)"><tspan x="0" y="0" style="fill:#000000;stroke:none;">Harlan</tspan></text>
		</g>
		<g>
			<path d="M531.219,81.552l5.787-1.926l23.149-4.824l-0.963,3.857h4.82l-1.926,3.858l7.714,8.68l-9.646,11.576l-12.537,10.613l-12.541,1.926L521.573,87.34l9.646-5.788z"/>
			<text transform="matrix(1 0 0 1 524.8618 94.0938)"><tspan x="0" y="0" style="fill:#000000;stroke:none;">Harrison</tspan></text>
		</g>
		<g>
			<path d="M348.907,242.643l10.612-0.966l2.893-12.538h13.503h25.082l-2.894,33.76l-4.822,1.927l-19.292,2.896l-13.509-1.928v-7.717l-11.573-15.433z"/>
			<text transform="matrix(1 0 0 1 370.3262 251.3223)"><tspan x="0" y="0" style="fill:#000000;stroke:none;">Hart</tspan></text>
		</g>
		<g>
			<path d="M180.102,202.127l-3.856-15.43l-6.756-1.932l-8.681-18.325l3.858-2.898l8.681,5.788l9.646-2.89l2.897,3.856l-0.967,4.822l4.824,1.93l2.892-2.896l0.965-7.713l-1.931-3.857l1.931-3.864h2.893l1.932,4.823h5.788l5.788-1.926l6.75,0.967l7.72,3.857
				l1.925,1.925l-2.892,11.577l4.823,3.856l-11.577,6.756l-1.927,6.749l-10.611,4.823h-24.115z"/>
			<text transform="matrix(1 0 0 1 174.6987 184.8442)"><tspan x="0" y="0" style="fill:#000000;stroke:none;">Henderson</tspan></text>
		</g>
		<g>
			<path d="M444.403,106.632l29.906,2.897l6.746-4.825l7.72,0.962l-23.148-30.865l-10.612,1.926L438.615,87.34l-2.895,8.681l8.683,10.611z"/>
			<text transform="matrix(1 0 0 1 447.4673 97.9502)"><tspan x="0" y="0" style="fill:#000000;stroke:none;">Henry</tspan></text>
		</g>
		<g>
			<path d="M30.588,323.668v-6.749l33.76,1.926l-0.965,35.692l-3.859,0.968l-28.936-31.837z"/>
			<text transform="matrix(1 0 0 1 27.5352 325.252)"><tspan x="0" y="0" style="fill:#000000;stroke:none;">Hickman</tspan></text>
		</g>
		<g>
			<path d="M217.72,211.774l-14.469,12.542l-9.647,1.926l-21.223,11.578l-4.824,6.754l5.79,10.608l12.543,13.508l14.468,4.823l22.184-5.791l0.966-6.752l-6.754-8.681l10.612-16.399l-7.716-5.785l-1.931-18.33z"/>
			<text transform="matrix(1 0 0 1 177.4717 254.2192)"><tspan x="0" y="0" style="fill:#000000;stroke:none;">Hopkins</tspan></text>
		</g>
		<g>
			<path d="M559.193,217.561l4.82-4.822h6.756l16.396-1.927l7.718,1.927v4.822l-1.932,3.858l11.578,19.292l-17.364,12.543l-7.715-0.967l-13.507-7.714l0.969-5.788l-7.72-21.224z"/>
			<text transform="matrix(1 0 0 1 564.9634 237.8193)"><tspan x="0" y="0" style="fill:#000000;stroke:none;">Jackson</tspan></text>
		</g>
		<g>
			<path d="M428.002,136.535l-14.468,7.716l-17.362-1.926l-19.292,7.714l-1.93,2.896l-4.824-0.966l4.824-8.68v-8.685l2.896-4.823l8.681-14.469l3.858-0.96l3.856,1.926l8.688-6.749l0.958-6.756l15.433,11.579l4.824,0.96l4.825,3.863l-0.967,15.429v1.931z"/>
			<text transform="matrix(1 0 0 1 383.4111 130.7471)"><tspan x="0" y="0" style="fill:#000000;stroke:none;">Jefferson</tspan></text>
		</g>
		<g>
			<path d="M509.997,152.935l21.223,8.681l3.858,10.612l-4.824,0.961v5.788l-5.792,5.788l-4.821,4.823l-4.821-1.932l2.896-7.714l-12.542-2.894l0.965-3.86v-0.961l3.858-19.293z"/>
			<text transform="matrix(1 0 0 1 497.6743 171.2622)"><tspan x="0" y="0" style="fill:#000000;stroke:none;">Jessamine</tspan></text>
		</g>
		<g>
			<path d="M691.344,157.759l2.89-4.824l35.694,16.395l-3.857,11.577l2.894,9.647l-11.575-4.824l-17.363,5.789l-4.823-2.896l-6.755-17.362l4.825-4.822l-1.929-8.681z"/>
			<text transform="matrix(1 0 0 1 688.8364 178.0107)"><tspan x="0" y="0" style="fill:#000000;stroke:none;">Johnson</tspan></text>
		</g>
		<g>
			<path d="M515.782,45.862l8.68,1.927l14.474-2.892l-6.755-5.788l0.969-13.504l-3.862-9.646l-2.892-11.577l-12.537,2.896l2.89,22.185l-0.966,16.399z"/>
			<text transform="matrix(1 0 0 1 507.6567 18.8506)"><tspan x="0" y="0" style="fill:#000000;stroke:none;">Kenton</tspan></text>
		</g>
		<g>
			<path d="M721.25,247.465l-2.901,2.892l-13.5,1.931l-15.435,8.681l-13.504-9.646v-18.325l-0.967-8.682l5.787-7.72l14.472,2.898l1.93,1.926l18.327,7.719v8.681l5.791,9.646z"/>
			<text transform="matrix(1 0 0 1 680.6362 243.6069)"><tspan x="0" y="0" style="fill:#000000;stroke:none;">Knott</tspan></text>
		</g>
		<g>
			<path d="M592.952,285.084l10.613-0.965l18.325,8.685l4.823,0.96l1.931,1.932l-17.363,18.327l-5.787,1.932l-6.752,10.611l-3.858-2.897h-6.756l-20.257-31.829l3.861-1.931l11.574-0.968l9.646-3.856z"/>
			<text transform="matrix(1 0 0 1 583.4868 304.377)"><tspan x="0" y="0" style="fill:#000000;stroke:none;">Knox</tspan></text>
		</g>
		<g>
			<path d="M418.357,211.774l-6.75,3.86l-2.896-4.823v-10.611l-9.646-10.612l-12.539,17.362l-7.715,5.788l-2.896,16.4h25.082l4.82-4.823l2.894,0.966l14.469-0.966l-4.823-12.542z"/>
			<text transform="matrix(1 0 0 1 382.5737 219.3354)"><tspan x="0" y="0" style="fill:#000000;stroke:none;">Larue</tspan></text>
		</g>
		<g>
			<path d="M587.166,253.254l-1.93,12.539l7.716,2.896l3.858,11.572l-3.858,4.823l-9.646,3.856l-11.574,0.968l-3.861,1.931l-4.821,2.891l-9.648-0.966l-2.891,3.865l-7.713-2.899l6.747-10.611l1.932-15.43l7.717-19.292l6.751-4.824l13.507,7.714l7.715,0.967z"/>
			<text transform="matrix(1 0 0 1 556.8696 275.4385)"><tspan x="0" y="0" style="fill:#000000;stroke:none;">Laurel</tspan></text>
		</g>
		<g>
			<path d="M744.397,160.651l1.928-4.824l-16.396-24.114l4.824-4.823v-8.68l-4.824-1.932l-18.326,2.897l-12.543,9.645l1.932,8.681l-14.472,16.396l4.825,3.863l2.89-4.824l35.694,16.395l5.789-9.645l8.68,0.966z"/>
			<text transform="matrix(1 0 0 1 695.7095 150.0391)"><tspan x="0" y="0" style="fill:#000000;stroke:none;">Lawrence</tspan></text>
		</g>
		<g>
			<path d="M610.317,190.555h2.893l22.186,12.538l-8.682,16.401l-4.823-2.898l-21.218,5.788l-5.789-4.823v-4.822l1.927-8.681l13.507-13.503z"/>
			<text transform="matrix(1 0 0 1 605.8325 208.8818)"><tspan x="0" y="0" style="fill:#000000;stroke:none;">Lee</tspan></text>
		</g>
		<g>
			<path d="M670.123,284.119L646.97,302.45l-8.679-0.966l-6.754-7.721l4.824-39.544l7.72-9.646l8.678,3.858l1.928,6.75l11.576,9.645l4.822,7.72l-0.963,11.573z"/>
			<text transform="matrix(1 0 0 1 636.7974 277.3696)"><tspan x="0" y="0" style="fill:#000000;stroke:none;">Leslie</tspan></text>
		</g>
		<g>
			<path d="M704.849,291.839l1.93-4.824l13.505-5.788v-9.647l16.395-10.611l-18.329-10.612l-13.5,1.931l-15.435,8.681l-7.715,26.046l-6.756,0.965l-0.968,4.824l23.156-7.72l7.717,6.755z"/>
			<text transform="matrix(1 0 0 1 687.9419 274.5498)"><tspan x="0" y="0" style="fill:#000000;stroke:none;">Letcher</tspan></text>
		</g>
		<g>
			<path d="M620.925,82.517l0.965-10.613l-2.89-8.68l12.537-6.75l17.365,5.783l8.68,6.755l4.822-1.931l11.571-0.962l3.865-5.788l8.678-5.787V58.4l-9.646,22.19l-4.819,2.891l-7.721,12.539v13.508l-9.646,1.926l-2.891-7.714l-5.79-3.859l-8.682-1.931l-9.645-0.964
				l-1.934-10.612l-4.821-3.856z"/>
			<text transform="matrix(1 0 0 1 638.0444 80.5903)"><tspan x="0" y="0" style="fill:#000000;stroke:none;">Lewis</tspan></text>
		</g>
		<g>
			<path d="M511.926,201.165v4.825l21.223,18.326l-5.788,19.292l-4.823-4.822l-19.292,16.396l1.928-14.47l-16.398-11.572v-11.578l2.892-4.822l20.26-11.574z"/>
			<text transform="matrix(1 0 0 1 496.0815 228.1729)"><tspan x="0" y="0" style="fill:#000000;stroke:none;">Lincoln</tspan></text>
		</g>
		<g>
			<path d="M128.013,271.58v-17.361l-17.366-24.115h-2.892l-4.822,1.926l-2.896,1.932l-0.961,2.893l-0.966,5.789l-1.932,4.822l-0.965,3.857l1.933,3.859l4.822,6.753l0.966,3.858v4.822l-2.896,6.754l-2.891,0.964l-5.791-0.964l7.721,6.749l15.429-1.926l11.576,9.646
				l1.933-20.259z"/>
			<text transform="matrix(1 0 0 1 83.7759 263.3223)"><tspan x="0" y="0" style="fill:#000000;stroke:none;">Livingston</tspan></text>
		</g>
		<g>
			<path d="M251.48,337.173l1.932-56.912l6.749-0.966h5.79l27.975,7.72l7.719,17.362l-9.649,5.789l-4.82,9.644l-2.897,16.401l-32.797,0.962z"/>
			<text transform="matrix(1 0 0 1 260.7271 306.3076)"><tspan x="0" y="0" style="fill:#000000;stroke:none;">Logan</tspan></text>
		</g>
		<g>
			<path d="M141.518,265.793l5.788,0.964l18.327,28.938l-30.868,11.577l-8.684-15.434l1.933-20.259l13.504-5.787z"/>
			<text transform="matrix(1 0 0 1 131.8252 287.98)"><tspan x="0" y="0" style="fill:#000000;stroke:none;">Lyon</tspan></text>
		</g>
		<g>
			<path d="M99.076,295.695v-11.577l-7.721-6.749l-2.892-1.931l-6.754-4.823l-9.646-2.894l-1.926-0.964l-6.754-3.858l-3.859-2.896l-8.679-2.892l12.538,36.653l0.965,1.932h34.728z"/>
			<text transform="matrix(1 0 0 1 54.4985 288.9404)"><tspan x="0" y="0" style="fill:#000000;stroke:none;">McCracken</tspan></text>
		</g>
		<g>
			<path d="M503.246,340.069l0.965-5.789l15.43-28.938l14.47-9.646l8.688-0.966l7.713,2.899l-6.755,16.394l0.965,14.469l14.473,14.47l-55.947-2.892z"/>
			<text transform="matrix(1 0 0 1 505.9263 336.4375)"><tspan x="0" y="0" style="fill:#000000;stroke:none;">McCreary</tspan></text>
		</g>
		<g>
			<path d="M204.217,202.127l10.611-4.823l30.865,15.435l7.719,0.966l-7.719,12.537l1.931,6.755l-20.257,2.892l-7.716-5.785l-1.931-18.33l-13.503-9.647z"/>
			<text transform="matrix(1 0 0 1 216.332 220.458)"><tspan x="0" y="0" style="fill:#000000;stroke:none;">McLean</tspan></text>
		</g>
		<g>
			<path d="M535.078,172.228l5.785,0.961v-6.749l4.824-0.967l5.789-1.931l3.86,5.788l17.359,5.789l-2.895,1.93l2.895,3.858l-0.964,15.436l-4.819,3.857l3.856,12.538h-6.756l-4.82,4.822l-15.438-1.927l-10.606-16.401l-3.862-11.577l-4.825-2.892l5.792-5.788v-5.788
				l4.824-0.961z"/>
			<text transform="matrix(1 0 0 1 533.5396 191.5195)"><tspan x="0" y="0" style="fill:#000000;stroke:none;">Madison</tspan></text>
		</g>
		<g>
			<path d="M688.448,171.262l6.755,17.362l7.713,26.045l-5.783,6.75l-1.93-1.926l-14.472-15.436l-18.326-7.714l-0.964-5.789l16.4-24.114l10.606,4.822z"/>
			<text transform="matrix(1 0 0 1 660.6802 197.3037)"><tspan x="0" y="0" style="fill:#000000;stroke:none;">Magoffin</tspan></text>
		</g>
		<g>
			<path d="M470.45,203.092l-27.015-0.965l-8.677-3.857l-3.859-8.681l-2.896,2.893l-9.646,19.292l4.823,12.542h12.54l7.715,5.789l16.402-2.895l6.75,2.895l1.93-16.399l1.933-10.612z"/>
			<text transform="matrix(1 0 0 1 422.3657 209.8457)"><tspan x="0" y="0" style="fill:#000000;stroke:none;">Marion</tspan></text>
		</g>
		<g>
			<path d="M126.081,291.839l-11.576-9.646l-15.429,1.926v11.577v26.048l40.511,0.96l-4.822-15.431l-8.684-15.434z"/>
			<text transform="matrix(1 0 0 1 96.5771 311.1318)"><tspan x="0" y="0" style="fill:#000000;stroke:none;">Marshall</tspan></text>
		</g>
		<g>
			<path d="M762.723,186.697l-10.61-13.508l-0.966-6.749l-6.75-5.789l-8.68-0.966l-5.789,9.645l-3.857,11.577l2.894,9.647l7.714,2.892l17.365,3.857l-1.931-5.784l10.61-4.822z"/>
			<text transform="matrix(1 0 0 1 729.5396 182.834)"><tspan x="0" y="0" style="fill:#000000;stroke:none;">Martin</tspan></text>
		</g>
		<g>
			<path d="M583.306,71.904l7.721-23.149l22.183,15.434L619,63.224l2.89,8.68l-0.965,10.613l-22.184,7.718l-7.715-4.821l-3.861-12.543l-3.859-0.966z"/>
			<text transform="matrix(1 0 0 1 588.5571 72.8701)"><tspan x="0" y="0" style="fill:#000000;stroke:none;">Mason</tspan></text>
		</g>
		<g>
			<path d="M348.907,177.049l16.396-0.963l4.824-7.72l-3.857-16.396l-7.715,3.858l-3.857-4.822l-9.647-0.966l-6.752-4.824l-1.932-11.571l-1.925-6.754h-8.682l-0.967,3.857l1.926,1.929l3.864,2.893l-5.791,1.932l-7.719-2.897l-1.926,3.862l2.893,4.823l-4.824,3.857
				l35.692,29.902z"/>
			<text transform="matrix(1 0 0 1 334.5854 163.5425)"><tspan x="0" y="0" style="fill:#000000;stroke:none;">Meade</tspan></text>
		</g>
		<g>
			<path d="M643.114,150.039l-4.822-4.824l-10.611-0.964l-0.967,6.754l-6.748-3.858l-9.648,5.789l-4.823,0.961l-0.964,11.577l17.36,9.646l6.754,0.966l4.821-5.789l7.717-8.681l1.932-11.577z"/>
			<text transform="matrix(1 0 0 1 605.0679 164.5088)"><tspan x="0" y="0" style="fill:#000000;stroke:none;">Menifee</tspan></text>
		</g>
		<g>
			<path d="M471.41,169.33l1.933,0.967l-2.893,26.046l31.832-3.862l3.856-2.893l-0.965-12.54l0.965-3.86v-0.961h-7.714l-4.823-13.509l-8.684,2.897l-9.647-0.965l-3.86,8.679z"/>
			<text transform="matrix(1 0 0 1 473.2183 180.9072)"><tspan x="0" y="0" style="fill:#000000;stroke:none;">Mercer</tspan></text>
		</g>
		<g>
			<path d="M393.281,264.826l4.822-1.927l7.714,7.716l9.646,2.897l1.935,10.606l7.714,7.72l-0.968,3.856l-4.824,8.682l-5.785,0.965l-3.859,5.79l-15.434-1.933l-1.926-36.654l0.965-7.72z"/>
			<text transform="matrix(1 0 0 1 389.0024 297.8916)"><tspan x="0" y="0" style="fill:#000000;stroke:none;">Metcalfe</tspan></text>
		</g>
		<g>
			<path d="M370.127,338.139l22.189,1.931l32.796-0.966l-6.755-16.4l-9.646-7.716l0.964-3.855l-15.434-1.933l-24.115,15.436v13.504z"/>
			<text transform="matrix(1 0 0 1 379.2197 326.5654)"><tspan x="0" y="0" style="fill:#000000;stroke:none;">Monroe</tspan></text>
		</g>
		<g>
			<path d="M572.696,137.501l11.579-10.611l18.324,14.468l1.931,6.755l5.787,4.822l-4.823,0.961l-0.964,11.577l-12.542,0.967l-5.785-4.824l-13.507-24.115z"/>
			<text transform="matrix(1 0 0 1 563.2388 148.1133)"><tspan x="0" y="0" style="fill:#000000;stroke:none;">Montgomery</tspan></text>
		</g>
		<g>
			<path d="M657.583,141.358v5.789l11.573,3.858l17.363,2.892l4.825,3.863l1.929,8.681l-4.825,4.822l-10.606-4.822l-16.4,24.114l-7.716-8.681l-20.26-11.577l7.717-8.681l1.932-11.577l14.469-8.681z"/>
			<text transform="matrix(1 0 0 1 641.5942 167.4043)"><tspan x="0" y="0" style="fill:#000000;stroke:none;">Morgan</tspan></text>
		</g>
		<g>
			<path d="M227.367,235.889l20.257-2.892l-2.897,9.646h2.897l3.856-3.857l6.755,3.857l1.925,8.68l10.612,7.721l-4.823,11.572l5.788,1.93l-5.788,6.75h-5.79l-6.749,0.966l-22.189,3.857l-8.68-16.397l0.966-6.752l-6.754-8.681l10.612-16.399z"/>
			<text transform="matrix(1 0 0 1 219.2871 261.9346)"><tspan x="0" y="0" style="fill:#000000;stroke:none;">Muhlenberg</tspan></text>
		</g>
		<g>
			<path d="M399.066,189.588l-7.716-5.79l0.966-3.856l11.571-5.789l2.898-6.749l10.612-9.645l-3.863-4.824l5.785-3.862l12.544,13.511l22.186-4.824l1.931,8.681l-12.545,7.713l-7.715,6.754l-4.821,8.681l-2.896,2.893l-9.646,19.292l-6.75,3.86l-2.896-4.823v-10.611
				l-9.646-10.612z"/>
			<text transform="matrix(1 0 0 1 406.6548 177.0488)"><tspan x="0" y="0" style="fill:#000000;stroke:none;">Nelson</tspan></text>
		</g>
		<g>
			<path d="M587.166,92.162l-1.93,2.896l-15.435-3.862l-9.646,11.576l11.576,13.505l13.504,8.681l14.469-12.54l-1.932-7.715l-4.821,0.962l-1.925-8.681l-3.861-4.824z"/>
			<text transform="matrix(1 0 0 1 562.2056 108.561)"><tspan x="0" y="0" style="fill:#000000;stroke:none;">Nicholas</tspan></text>
		</g>
		<g>
			<path d="M253.413,213.705l24.116-16.401l-3.862-3.857l2.895-3.858l20.259,8.681l5.783,12.542l-1.926,3.858l-5.789-3.858l-1.931,4.823l8.687,19.293l-30.871,24.115l-10.612-7.721l-1.925-8.68l-6.755-3.857l-3.856,3.857h-2.897l2.897-9.646l-1.931-6.755
				l7.719-12.537z"/>
			<text transform="matrix(1 0 0 1 265.0347 227.209)"><tspan x="0" y="0" style="fill:#000000;stroke:none;">Ohio</tspan></text>
		</g>
		<g>
			<path d="M424.144,115.312l13.505-1.926l6.754-6.754l-8.683-10.611l2.895-8.681l-13.503-5.788l-6.755,8.683l-11.571,4.824l-2.898,7.714l15.433,11.579l4.824,0.96z"/>
			<text transform="matrix(1 0 0 1 405.6724 104.7041)"><tspan x="0" y="0" style="fill:#000000;stroke:none;">Oldham</tspan></text>
		</g>
		<g>
			<path d="M465.626,74.802l23.148,30.865l12.538,0.965l18.327-18.328h-6.75l-15.433-19.291l0.967-7.715h-5.793l-10.607,4.822l-0.969,0.962l-15.429,7.72z"/>
			<text transform="matrix(1 0 0 1 476.6802 85.4136)"><tspan x="0" y="0" style="fill:#000000;stroke:none;">Owen</tspan></text>
		</g>
		<g>
			<path d="M626.713,219.494l-4.823-2.898l-21.218,5.788l-5.789-4.823l-1.932,3.858l11.578,19.292l15.436,0.966l2.891,4.822l9.646,5.789l-0.965-10.611v-17.361l-4.824-4.822z"/>
			<text transform="matrix(1 0 0 1 595.8521 234.9277)"><tspan x="0" y="0" style="fill:#000000;stroke:none;">Owsley</tspan></text>
		</g>
		<g>
			<path d="M524.461,47.789l14.474-2.892l17.364-9.646v4.822l3.856,34.728l-23.149,4.824l-5.787,1.926l-6.758-33.763z"/>
			<text transform="matrix(1 0 0 1 527.0249 67.0815)"><tspan x="0" y="0" style="fill:#000000;stroke:none;">Pendleton</tspan></text>
		</g>
		<g>
			<path d="M675.911,232.997v18.325l13.504,9.646l-7.715,26.046l-6.756,0.965l-4.821-3.861l0.963-11.573l-4.822-7.72l-11.576-9.645l-1.928-6.75l-8.678-3.858l-7.72,9.646l-3.859-1.932l-0.965-10.611l6.754-4.823l8.679,3.857l20.259-13.502l8.682,5.788z"/>
			<text transform="matrix(1 0 0 1 651.4282 247.4648)"><tspan x="0" y="0" style="fill:#000000;stroke:none;">Perry</tspan></text>
		</g>
		<g>
			<path d="M736.678,260.969l7.719-4.823l7.716-1.927l13.503-6.754l5.788-6.754l28.938-26.042l-17.359-1.931l-4.824-12.538l-4.822,3.857l-10.613-17.36l-10.61,4.822l1.931,5.784l-17.365-3.857l-3.856,1.932l0.966,24.116l-2.893,15.434l-9.645,12.537l-2.901,2.892
				l18.329,10.612z"/>
			<text transform="matrix(1 0 0 1 748.1743 225.2817)"><tspan x="0" y="0" style="fill:#000000;stroke:none;">Pike</tspan></text>
		</g>
		<g>
			<path d="M586.203,161.616l-6.752,9.646l1.93,3.857l11.571,9.646l7.721-0.966l9.645,6.756h2.893l8.681-15.436l-17.36-9.646l-12.542,0.967l-5.785-4.824z"/>
			<text transform="matrix(1 0 0 1 585.9438 178.0107)"><tspan x="0" y="0" style="fill:#000000;stroke:none;">Powell</tspan></text>
		</g>
		<g>
			<path d="M503.246,255.181l19.292-16.396l4.823,4.822l24.115,25.082l-1.932,15.43l-6.747,10.611l-8.688,0.966l-14.47,9.646l-11.573-14.47l-17.362-1.932l-4.823-7.713l17.364-26.046z"/>
			<text transform="matrix(1 0 0 1 503.522 284.1187)"><tspan x="0" y="0" style="fill:#000000;stroke:none;">Pulaski</tspan></text>
		</g>
		<g>
			<path d="M583.306,71.904h-7.715l-11.578,6.755l-1.926,3.858l7.714,8.68l15.435,3.862l1.93-2.896l3.861-6.749l-3.861-12.543l-3.859-0.966z"/>
			<text transform="matrix(1 0 0 1 554.4458 84.4473)"><tspan x="0" y="0" style="fill:#000000;stroke:none;">Robertson</tspan></text>
		</g>
		<g>
			<path d="M527.361,243.607l24.115,25.082l7.717-19.292l6.751-4.824l0.969-5.788l-7.72-21.224l-15.438-1.927v3.859l-6.749,5.788l-3.857-2.898v1.932l-5.788,19.292z"/>
			<text transform="matrix(1 0 0 1 518.3442 241.6768)"><tspan x="0" y="0" style="fill:#000000;stroke:none;">Rockcastle</tspan></text>
		</g>
		<g>
			<path d="M637.325,97.95l8.682,1.931l5.79,3.859l2.891,7.714v6.755l8.687,7.714l0.96,8.68l-6.751,6.754l-14.469,8.681l-4.822-4.824l0.964-3.857l-8.685-7.714l-5.782-0.967l1.925-4.822l-3.857-1.931l11.576-7.714l5.786-14.469l-2.894-5.79z"/>
			<text transform="matrix(1 0 0 1 630.4419 130.7471)"><tspan x="0" y="0" style="fill:#000000;stroke:none;">Rowan</tspan></text>
		</g>
		<g>
			<path d="M485.881,281.227l-7.715-1.932l-11.579-11.574l-18.327,24.118v5.79l-2.891,3.855l4.824,6.75l1.923-5.784l10.613,8.682l4.82-3.859l13.505-14.469l2.897,1.926l6.752-5.789l-4.823-7.713z"/>
			<text transform="matrix(1 0 0 1 455.0161 289.9082)"><tspan x="0" y="0" style="fill:#000000;stroke:none;">Russell</tspan></text>
		</g>
		<g>
			<path d="M521.573,87.34l13.505,27.972l4.821,10.612l-25.08,10.611l-0.961,2.892l-10.612-11.572l-1.933-21.223l18.327-18.328l1.933-0.964z"/>
			<text transform="matrix(1 0 0 1 506.3208 117.2432)"><tspan x="0" y="0" style="fill:#000000;stroke:none;">Scott</tspan></text>
		</g>
		<g>
			<path d="M428.002,134.604l0.967-15.429l-4.825-3.863l13.505-1.926l6.754-6.754l29.906,2.897h3.857l-5.791,9.646l-0.966,15.429l-1.926,1.931l-1.934,9.646l-4.82,2.891l-20.257-9.646l-14.471-4.823z"/>
			<text transform="matrix(1 0 0 1 435.8696 126.8896)"><tspan x="0" y="0" style="fill:#000000;stroke:none;">Shelby</tspan></text>
		</g>
		<g>
			<path d="M284.277,336.211l22.189,1.928l18.325-1.928l-1.931-17.366l0.966-4.822l-18.326-2.891l-3.857-6.755l-9.649,5.789l-4.82,9.644l-2.897,16.401z"/>
			<text transform="matrix(1 0 0 1 284.1162 329.457)"><tspan x="0" y="0" style="fill:#000000;stroke:none;">Simpson</tspan></text>
		</g>
		<g>
			<path d="M428.002,136.535l-8.683,12.538l12.544,13.511l22.186-4.824l8.681-8.687l-20.257-9.646l-14.471-4.823v1.931z"/>
			<text transform="matrix(1 0 0 1 419.9917 151.9692)"><tspan x="0" y="0" style="fill:#000000;stroke:none;">Spencer</tspan></text>
		</g>
		<g>
			<path d="M423.18,224.315l-14.469,0.966v4.822l10.608,7.715l15.438,26.046l18.325-10.611l13.504-23.15l-6.75-2.895l-16.402,2.895l-7.715-5.789h-12.54z"/>
			<text transform="matrix(1 0 0 1 426.2407 242.6426)"><tspan x="0" y="0" style="fill:#000000;stroke:none;">Taylor</tspan></text>
		</g>
		<g>
			<path d="M223.509,337.173l7.714-53.054l22.189-3.857l-1.932,56.912h-4.824h-23.147z"/>
			<text transform="matrix(1 0 0 1 229.061 315.9541)"><tspan x="0" y="0" style="fill:#000000;stroke:none;">Todd</tspan></text>
		</g>
		<g>
			<path d="M144.409,333.315l41.482,4.823l0.96-45.335l-6.75-4.824l-4.824,5.784l-9.646,1.932l-30.868,11.577l4.822,15.431l4.823,10.612z"/>
			<text transform="matrix(1 0 0 1 149.6025 317.8799)"><tspan x="0" y="0" style="fill:#000000;stroke:none;">Trigg</tspan></text>
		</g>
		<g>
			<path d="M455.014,76.728L438.615,87.34l-13.503-5.788l0.964-6.75l-1.932-13.504l3.858-4.823l9.646-2.896l12.545,23.149h4.82z"/>
			<text transform="matrix(1 0 0 1 419.2388 74.8018)"><tspan x="0" y="0" style="fill:#000000;stroke:none;">Trimble</tspan></text>
		</g>
		<g>
			<path d="M180.102,202.127l-3.856-15.43l-6.756-1.932l-8.681-18.325l-0.965,15.434l-11.579-0.967l-13.501,12.539l-0.966,9.646l2.896,6.753l5.788,9.648l6.75-3.859l9.646,8.681l21.225-22.188z"/>
			<text transform="matrix(1 0 0 1 142.9233 201.1646)"><tspan x="0" y="0" style="fill:#000000;stroke:none;">Union</tspan></text>
		</g>
		<g>
			<path d="M293.925,287.015l6.752-23.15l12.538-0.966l3.857,4.822l7.719-2.896l11.574,12.544l6.753-3.857l10.613,6.749l-5.788,16.401h-2.894l-22.189,22.183l0.966-4.822l-18.326-2.891l-3.857-6.755l-7.719-17.362z"/>
			<text transform="matrix(1 0 0 1 303.7627 289.9082)"><tspan x="0" y="0" style="fill:#000000;stroke:none;">Warren</tspan></text>
		</g>
		<g>
			<path d="M471.41,169.33l-15.43-2.89l-12.545,7.713l-7.715,6.754l-4.821,8.681l3.859,8.681l8.677,3.857l27.015,0.965v-6.749l2.893-26.046l-1.933-0.967z"/>
			<text transform="matrix(1 0 0 1 422.0415 191.5195)"><tspan x="0" y="0" style="fill:#000000;stroke:none;">Washington</tspan></text>
		</g>
		<g>
			<path d="M478.167,339.104l-6.757-12.538l0.966-6.756l-4.825-12.537l13.505-14.469l2.897,1.926l6.752-5.789l17.362,1.932l11.573,14.47l-15.43,28.938l-0.965,5.789h-6.755l-18.324-0.966z"/>
			<text transform="matrix(1 0 0 1 477.2554 314.1797)"><tspan x="0" y="0" style="fill:#000000;stroke:none;">Wayne</tspan></text>
		</g>
		<g>
			<path d="M158.877,224.315l21.225-22.188h24.115l13.503,9.647l-14.469,12.542l-9.647,1.926l-21.223,11.578l-15.43-8.681l1.926-4.823z"/>
			<text transform="matrix(1 0 0 1 170.7563 219.5718)"><tspan x="0" y="0" style="fill:#000000;stroke:none;">Webster</tspan></text>
		</g>
		<g>
			<path d="M559.193,342.961h19.292l20.257-16.396l-3.858-2.897h-6.756l-20.257-31.829l-4.821,2.891l-9.648-0.966l-2.891,3.865l-6.755,16.394l0.965,14.469l14.473,14.47z"/>
			<text transform="matrix(1 0 0 1 546.7368 325.0195)"><tspan x="0" y="0" style="fill:#000000;stroke:none;">Whitley</tspan></text>
		</g>
		<g>
			<path d="M613.209,190.555l8.681-15.436l6.754,0.966l4.821-5.789l20.26,11.577l7.716,8.681l0.964,5.789l-15.435-2.897l-11.575,9.646l-22.186-12.538z"/>
			<text transform="matrix(1 0 0 1 626.5649 187.6567)"><tspan x="0" y="0" style="fill:#000000;stroke:none;">Wolfe</tspan></text>
		</g>
		<g>
			<path d="M486.842,139.427l0.97-3.858l15.434-7.714l10.612,11.572l-3.861,13.508l-3.858,19.293h-7.714l-4.823-13.509l-1.935-18.327l-4.824-0.965z"/>
			<text transform="matrix(1 0 0 1 479.7261 149.0728)"><tspan x="0" y="0" style="fill:#000000;stroke:none;">Woodford</tspan></text>
		</g>
	</g>
</svg>
