<?xml version="1.0" encoding="iso-8859-1"?>
<!DOCTYPE svg >

<svg  width="596.115pt" height="601.393pt" viewBox="0 0 596.115 601.393" xml:space="preserve">
	<g id="Layer_x0020_1" style="fill-rule:nonzero;clip-rule:nonzero;stroke:#000000;stroke-miterlimit:4; font-family:'Arial'; font-size:10;">
		<g>
			<path style="fill:#FFFFFF;" d="M246.536,395.04l35.001-4.237l-8.488-13.792h9.548l3.181,12.726l-1.063,11.669l10.605,12.724l9.543,3.184l2.123,16.967l11.666,6.361h-13.789l-2.115,4.244h-10.607l-8.485-11.665l-9.542-2.128l-8.485,12.729l-5.302-5.302h-8.488
				l4.248-10.602l-2.121-7.428l-5.302-1.062l2.12-11.662l-4.247-12.727z"/>
			<text transform="matrix(1 0 0 1 249.5361 415.188)"><tspan x="0" y="0" style="stroke:none;">St. Martin</tspan></text>
		</g>
		<g>
			<path style="fill:#FFFFFF;" d="M301.68,457.608l29.694-3.178l19.09,27.571l-3.181,10.603l-27.572-10.603l-5.302-13.789l-12.729-10.604z"/>
			<text transform="matrix(1 0 0 1 308.9272 480.939)"><tspan x="0" y="0" style="stroke:none;">St. Martin</tspan></text>
		</g>
		<g>
			<path style="fill:#FFFFFF;" d="M171.246,379.133h15.91h28.63v5.302h7.425l5.301,19.087l-18.03,25.455l-13.783,12.724l-23.332-6.367l-2.121-56.2z"/>
			<text transform="matrix(1 0 0 1 181.4097 407.7661)"><tspan x="0" y="0" style="stroke:none;">Acadia</tspan></text>
		</g>
		<g>
			<path style="fill:#FFFFFF;" d="M174.427,317.628l-3.181,60.445h-16.967l-1.062,7.422l-42.418,2.12v-26.512h19.086v-40.297l19.091-2.123l11.667-1.056h13.784z"/>
			<text transform="matrix(1 0 0 1 141.0386 354.7446)"><tspan x="0" y="0" style="stroke:none;">Allen</tspan></text>
		</g>
		<g>
			<path style="fill:#FFFFFF;" d="M375.917,399.282l16.971,13.789l6.362,9.54l6.361-5.299v8.478l-34.995,6.368l-1.061,9.543h-22.271l12.727-40.296l15.906-2.123z"/>
			<text transform="matrix(1 0 0 1 352.8472 423.6772)"><tspan x="0" y="0" style="stroke:none;">Ascension</tspan></text>
		</g>
		<g>
			<path style="fill:#FFFFFF;" d="M369.555,441.701h-22.271l-11.663,5.302l-4.246,7.428l19.09,27.571l-3.181,10.603l5.302,12.724l8.485-12.724l13.786-27.572l-5.302-23.331z"/>
			<text transform="matrix(1 0 0 1 325.4048 461.8481)"><tspan x="0" y="0" style="stroke:none;">Assumption</tspan></text>
		</g>
		<g>
			<path style="fill:#FFFFFF;" d="M263.505,261.419l-11.668-3.179v8.482l-7.416,1.061l-1.066-16.968h-8.482l-8.485,6.363l-10.603-4.24l3.184,54.085H205.18l12.729,8.481v9.543h1.06l48.779,1.061V308.08l8.487-12.722l1.06-4.243l1.055-12.728l4.247-1.06l1.058-3.182
				l-8.484-2.123l-11.664-10.604z"/>
			<text transform="matrix(1 0 0 1 227.3535 294.2964)"><tspan x="0" y="0" style="stroke:none;">Avoyelles</tspan></text>
		</g>
		<g>
			<path style="fill:#FFFFFF;" d="M129.885,320.807v40.297h-19.086v26.512v2.12h-29.69V377.01l-11.669,1.063v10.602H39.746l-1.056-2.116l2.118-4.245l-1.062-6.361l-1.056-6.362v-4.24l3.179-4.246l1.06-1.058v-3.185l1.062-3.181l3.179-5.302l2.122-5.302l6.36-11.665
				l2.122-4.242v-2.122l2.124-4.241h69.987z"/>
			<text transform="matrix(1 0 0 1 63.459 351.561)"><tspan x="0" y="0" style="stroke:none;">Beauregard</tspan></text>
		</g>
		<g>
			<path style="fill:#FFFFFF;" d="M84.287,92.804h13.785l-1.056-7.424h10.604l-2.124-18.024l33.938-1.062l1.056,19.086h12.728v31.814l-6.364,14.853h-12.722h-28.635l-4.241-13.79H76.864l7.423-25.453z"/>
			<text transform="matrix(1 0 0 1 104.1143 109.2856)"><tspan x="0" y="0" style="stroke:none;">Bienville</tspan></text>
		</g>
		<g>
			<path style="fill:#FFFFFF;" d="M37.626,74.776L27.022,2.666h36.056l9.543,37.117l1.061,53.021h10.604l-7.423,25.453h-6.36l-11.667-16.97l-12.728-8.482l-8.482-18.028z"/>
			<text transform="matrix(1 0 0 1 36.8613 59.9307)"><tspan x="0" y="0" style="stroke:none;">Bossier</tspan></text>
		</g>
		<g>
			<path style="fill:#FFFFFF;" d="M58.836,118.257l-7.423-9.542l-19.087-7.428l-19.092,22.271H1.572V94.928V48.265V21.752V0.543l25.45,2.123l10.604,72.11l8.482,18.028l12.728,8.482l11.667,16.97H58.836z"/>
			<text transform="matrix(1 0 0 1 8.0474 89.6265)"><tspan x="0" y="0" style="stroke:none;">Caddo</tspan></text>
		</g>
		<g>
			<path style="fill:#FFFFFF;" d="M42.929,440.64l85.901,5.302v-7.423l12.721-1.06l-2.117-10.605h-11.666l-5.302-32.877h-11.667v-4.241h-29.69V377.01l-11.669,1.063v10.602H39.746l-3.18,1.061v12.729l9.542,11.663l-3.179,26.512z"/>
			<text transform="matrix(1 0 0 1 59.1533 416.2495)"><tspan x="0" y="0" style="stroke:none;">Calcasieu</tspan></text>
		</g>
		<g>
			<path style="fill:#FFFFFF;" d="M239.114,112.954l-31.811-1.062l-1.063,21.21v32.875h37.114l11.669-1.062l1.061-6.358l-3.184-14.85l6.365-7.42l-3.181-4.241l-8.488-3.186l-3.175-15.907h-5.307z"/>
			<text transform="matrix(1 0 0 1 208.918 145.4634)"><tspan x="0" y="0" style="stroke:none;">Caldwell</tspan></text>
		</g>
		<g>
			<path style="fill:#FFFFFF;" d="M25.962,489.418l5.301-1.061l28.634-7.419h23.329l2.123-2.123l12.723,1.061l30.758,8.481l9.542,6.364l33.934,15.908v-65.746h-14.848l-28.627,1.058l-85.901-5.302l-11.666,15.903l-14.847,20.154l9.545,12.721z"/>
			<text transform="matrix(1 0 0 1 75.3901 467.1509)"><tspan x="0" y="0" style="stroke:none;">Cameron</tspan></text>
		</g>
		<g>
			<path style="fill:#FFFFFF;" d="M243.355,165.977l11.669-1.062l1.061-6.358l14.846,14.845l12.724-9.542l2.123-5.303h4.241l2.121,11.661l3.18,2.123l3.188,18.031l-18.033,2.118l-7.425,16.967l-2.118-3.177l-6.364,4.24l6.364,20.148l6.364,2.124l-2.125,3.178
				l-7.422-1.062l-3.182-7.42l-2.12,1.057l1.06,32.875l-11.668-3.179v8.482l-7.416,1.061l-1.066-16.968v-84.838z"/>
			<text transform="matrix(1 0 0 1 246.7676 187.187)"><tspan x="0" y="0" style="stroke:none;">Catahoula</tspan></text>
		</g>
		<g>
			<path style="fill:#FFFFFF;" d="M158.52,3.727h-31.813l-29.69-1.061l8.48,64.689l33.938-1.062l7.419-24.387h10.605l1.062-38.18z"/>
			<text transform="matrix(1 0 0 1 107.4287 29.1772)"><tspan x="0" y="0" style="stroke:none;">Claiborne</tspan></text>
		</g>
		<g>
			<path style="fill:#FFFFFF;" d="M288.955,299.598l-11.66-8.482l1.055-12.728l4.247-1.06l1.058-3.182l-8.484-2.123l-11.664-10.604l-1.06-32.875l2.12-1.057l3.182,7.42l7.422,1.062l2.125-3.178l-6.364-2.124l-6.364-20.148l6.364-4.24l2.118,3.177l7.425-16.967
				l18.033-2.118l21.205,1.056l-5.302,15.907l-7.425-1.055l-2.123,5.302l8.488,2.116l-2.124,6.364l-8.479,2.123l4.238,20.148l-8.479-2.123l-2.127,7.424l4.241,5.304l-1.061,6.362l-11.662,3.181l3.181,9.543l-1.061,11.666l5.301,8.482l-6.364,7.426z"/>
			<text transform="matrix(1 0 0 1 262.9858 221.124)"><tspan x="0" y="0" style="stroke:none;">Concordia</tspan></text>
		</g>
		<g>
			<path style="fill:#FFFFFF;" d="M58.836,118.257l-7.423-9.542l-19.087-7.428l-19.092,22.271H1.572l-1.061,28.637l6.363,3.177l5.303,8.488l6.358,7.419l4.246,4.24l51.963,2.125l2.119-14.845l5.3,2.117l-1.055-7.42l-22.273-16.967l5.303-8.481l-5.303-13.79z"/>
			<text transform="matrix(1 0 0 1 15.3188 145.8296)"><tspan x="0" y="0" style="stroke:none;">De Soto</tspan></text>
		</g>
		<g style="stroke:none;">
			<path style="fill:#FFFFFF;stroke:#000000;" d="M325.015,348.379l1.058-2.121l56.208-3.181l-8.486,10.604l-6.359,5.302v30.753l8.481,9.546l-15.906,2.123l-14.848,1.061l-11.662-6.362l4.239-11.668v-9.542l-8.48-1.061l2.115-7.428l-5.302-3.182l-1.058-14.844z"/>
			<text transform="matrix(1 0 0 1 342.5806 356.8618)"><tspan x="0" y="0">East</tspan><tspan x="-3.062" y="12">Baton</tspan><tspan x="-4.729" y="24">Rouge</tspan></text>
		</g>
		<g style="stroke:none;">
			<path style="fill:#FFFFFF;stroke:#000000;" d="M354.706,70.533l-6.361-1.058l-4.241,3.182h-34.994l-1.061-4.239l12.724-27.573l6.361-36.056l12.729,2.118l-2.123,11.667l7.423-1.062l2.121-5.302l5.302,2.124l-8.482,21.209l4.241,6.365l5.302,2.118l-2.118,6.363
				l-7.425,4.242l1.06,9.543l10.604-4.242l5.304,2.124l-6.365,7.421v1.058z"/>
			<text transform="matrix(1 0 0 1 322.4292 51.4492)"><tspan x="0" y="0">East</tspan><tspan x="-4.719" y="12">Carroll</tspan></text>
		</g>
		<g style="stroke:none;">
			<path style="fill:#FFFFFF;stroke:#000000;" d="M380.158,302.777l2.123,40.301l-56.208,3.181l7.428-14.846l6.362-28.636h15.904h24.391z"/>
			<text transform="matrix(1 0 0 1 345.7622 326.1089)"><tspan x="0" y="0">East</tspan><tspan x="-10.005" y="12">Feliciana</tspan></text>
		</g>
		<g>
			<path style="fill:#FFFFFF;" d="M205.18,307.024l-4.242-7.426l-3.181,1.062l-9.548,12.72l-13.783,4.249l-3.181,60.445v1.06h15.91l5.302-9.543h21.211l10.603-21.211v-12.727l-5.302-5.303v-5.302h-1.06v-9.543l-12.729-8.481z"/>
			<text transform="matrix(1 0 0 1 174.0771 343.0776)"><tspan x="0" y="0" style="stroke:none;">Evangeline</tspan></text>
		</g>
		<g>
			<path style="fill:#FFFFFF;" d="M304.862,92.804l-19.085-1.06l-13.783,13.789l-8.488,22.266l-7.421,4.247l3.181,4.241l-6.365,7.42l3.184,14.85l14.846,14.845l12.724-9.542l2.123-5.303h4.241l2.121,11.661l3.18,2.123l6.361-9.543l2.127-36.054l-5.301-3.187
				l4.24-15.906l3.179-3.178l-1.063-11.669z"/>
			<text transform="matrix(1 0 0 1 264.813 141.5884)"><tspan x="0" y="0" style="stroke:none;">Franklin</tspan></text>
		</g>
		<g>
			<path style="fill:#FFFFFF;" d="M221.084,230.668l-8.479-2.124l-11.666-24.389l3.181-14.846l-3.181-5.301h-29.693v11.666l-40.299,2.118l28.635,27.572l4.241,19.088l57.262-13.783z"/>
			<text transform="matrix(1 0 0 1 169.3462 216.8828)"><tspan x="0" y="0" style="stroke:none;">Grant</tspan></text>
		</g>
		<g>
			<path style="fill:#FFFFFF;" d="M331.375,454.43l4.246-7.428l-6.361-6.362h-10.608h-13.789l-2.115,4.244h-10.607l-8.485-11.665l-9.542-2.128l-8.485,12.729l-5.302-5.302h-8.488l-5.301,6.365l2.126,27.57l12.726,1.06l1.058,4.241l-4.241,2.121v7.427h7.422
				l24.392-30.76l4.242-1.055l7.42,2.119l29.694-3.178z"/>
			<text transform="matrix(1 0 0 1 256.3003 457.6079)"><tspan x="0" y="0" style="stroke:none;">Iberia</tspan></text>
		</g>
		<g>
			<path style="fill:#FFFFFF;" d="M282.596,377.01h21.211l18.024,25.455h23.331l14.848-1.061l-12.727,40.296l-11.663,5.302l-6.361-6.362h-10.608l-11.666-6.361l-2.123-16.967l-9.543-3.184l-10.605-12.724l1.063-11.669l-3.181-12.726z"/>
			<text transform="matrix(1 0 0 1 308.8433 420.4897)"><tspan x="0" y="0" style="stroke:none;">Iberville</tspan></text>
		</g>
		<g>
			<path style="fill:#FFFFFF;" d="M207.303,111.892l-1.063,21.21l-59.388-1.056l6.364-14.853V85.38h16.968l1.061-5.301h23.332l1.061,12.726l11.666,19.088z"/>
			<text transform="matrix(1 0 0 1 160.0234 114.0776)"><tspan x="0" y="0" style="stroke:none;">Jackson</tspan></text>
		</g>
		<g>
			<path style="fill:#FFFFFF;" d="M457.575,495.786l5.301-18.03l-13.79-14.848v-23.325l14.847,3.179l3.186,22.271l9.542-4.24l4.24,5.302l-8.479,18.027l10.604,25.448l-1.063,16.97l-5.304-4.24l2.126,40.295l-7.428,7.423V528.66l-5.302-1.06l-6.364-11.67
				l1.064-16.968l-3.182-3.177z"/>
			<text transform="matrix(1 0 0 1 459.3647 512.7554)"><tspan x="0" y="0" style="stroke:none;">Jefferson</tspan></text>
		</g>
		<g style="stroke:none;">
			<path style="fill:#FFFFFF;stroke:#000000;" d="M173.366,435.333l-2.121-56.2v-1.06h-16.967l-1.062,7.422l-42.418,2.12v2.12v4.241h11.667l5.302,32.877h11.666l2.117,10.605l-12.721,1.06v7.423l28.627-1.058l15.909-9.551z"/>
			<text transform="matrix(1 0 0 1 127.4395 406.7056)"><tspan x="0" y="0">Jefferson</tspan><tspan x="7.974" y="12">Davis</tspan></text>
		</g>
		<g>
			<path style="fill:#FFFFFF;" d="M228.511,403.522l-18.03,25.455l23.332,1.058l2.121,8.484l10.602,6.365l5.301-6.365l4.248-10.602l-2.121-7.428l-5.302-1.062l2.12-11.662l-4.247-12.727l-8.482-2.123l-9.542,10.605z"/>
			<text transform="matrix(1 0 0 1 214.3018 427.9175)"><tspan x="0" y="0" style="stroke:none;">Lafayette</tspan></text>
		</g>
		<g>
			<path style="fill:#FFFFFF;" d="M361.071,492.604l13.786-27.572l28.633,2.119l12.723-1.058l9.548,12.723l10.606,5.305l3.177,10.602l18.031,1.063l3.182,3.177l-1.064,16.968l6.364,11.67l5.302,1.06v41.356l-19.085,13.783l-14.85-37.115L386.52,485.18l-25.449,7.424
				z"/>
			<text transform="matrix(1 0 0 1 408.8237 506.3882)"><tspan x="0" y="0" style="stroke:none;">Lafourche</tspan></text>
		</g>
		<g>
			<path style="fill:#FFFFFF;" d="M243.355,165.977h-37.114l-5.302,18.031l3.181,5.301l-3.181,14.846l11.666,24.389l8.479,2.124l13.789,20.147h8.482v-84.838z"/>
			<text transform="matrix(1 0 0 1 203.0151 206.2793)"><tspan x="0" y="0" style="stroke:none;">La Salle</tspan></text>
		</g>
		<g>
			<path style="fill:#FFFFFF;" d="M139.434,66.294l7.419-24.387h10.605l25.451,4.24l-1.057,7.419l12.726,1.063v11.665v13.785h-23.332l-1.061,5.301h-16.968h-12.728l-1.056-19.086z"/>
			<text transform="matrix(1 0 0 1 153.2788 66.2939)"><tspan x="0" y="0" style="stroke:none;">Lincoln</tspan></text>
		</g>
		<g>
			<path style="fill:#FFFFFF;" d="M373.794,353.681h39.237l1.061,24.393l11.668,22.27l5.302,6.362l-25.451,10.606l-6.361,5.299l-6.362-9.54l-16.971-13.789l-8.481-9.546v-30.753l6.359-5.302z"/>
			<text transform="matrix(1 0 0 1 370.3726 387.6157)"><tspan x="0" y="0" style="stroke:none;">Livingston</tspan></text>
		</g>
		<g>
			<path style="fill:#FFFFFF;" d="M349.405,121.441l16.97-2.124l6.362-14.844l-12.727-7.426l-1.063-11.667h-5.301l-4.241-10.604l2.123,1.062l7.419,5.301l3.187-3.179l-7.428-7.427l-6.361-1.058l-4.241,3.182h-34.994l-4.247,20.147l1.063,11.669l-3.179,3.178
				l-4.24,15.906l33.928-2.117l8.488-5.303h5.302l3.181,5.303z"/>
			<text transform="matrix(1 0 0 1 314.6011 100.2329)"><tspan x="0" y="0" style="stroke:none;">Madison</tspan></text>
		</g>
		<g>
			<path style="fill:#FFFFFF;" d="M310.164,4.789h-3.179l-71.051-1.062l-2.121,2.119l2.121,40.301l8.487,2.118l8.479,9.547l1.063,20.148l6.361-8.485h12.724l13.789-14.846l9.542-29.693l7.428-4.241l6.356-15.907z"/>
			<text transform="matrix(1 0 0 1 238.4907 39.7827)"><tspan x="0" y="0" style="stroke:none;">Morehouse</tspan></text>
		</g>
		<g>
			<path style="fill:#FFFFFF;" d="M138.372,174.464l-4.241-42.417h-28.635l5.303,24.389l-13.783,1.06l-3.185,10.605h-7.419l-4.248-3.185l-5.3-2.117l-2.119,14.845v18.03h10.604l1.063,26.512l11.66,1.058v25.454h27.573l4.241,2.119l29.696-25.452l-28.635-27.572
				l2.122-23.327h5.303z"/>
			<text transform="matrix(1 0 0 1 74.4692 187.187)"><tspan x="0" y="0" style="stroke:none;">Natchitoches</tspan></text>
		</g>
		<g>
			<path style="fill:#FFFFFF;" d="M480.9,466.093l-4.24-5.302l-9.542,4.24l-3.186-22.271l19.094-3.179l10.604-13.793l4.241-2.112l2.12,6.357l6.361,1.057h6.364l5.302,4.242l-3.178,6.367l-3.187,1.061l-4.241-3.179l-8.483,11.66h-15.903l-3.186,6.365l9.547,5.3
				l2.122,7.426l-10.609-4.24z"/>
			<text transform="matrix(1 0 0 1 466.5796 448.062)"><tspan x="0" y="0" style="stroke:none;">Orleans</tspan></text>
		</g>
		<g>
			<path style="fill:#FFFFFF;" d="M194.577,66.294v13.785l1.061,12.726l11.666,19.088l31.811,1.062l14.85-34.994L252.9,57.812l-8.479-9.547l-8.487-2.118l-20.148,19.086l-21.208,1.061z"/>
			<text transform="matrix(1 0 0 1 205.3149 85.3799)"><tspan x="0" y="0" style="stroke:none;">Ouachita</tspan></text>
		</g>
		<g>
			<path style="fill:#FFFFFF;" d="M491.509,470.333l-10.609-4.24l-8.479,18.027l10.604,25.448l-1.063,16.97h7.424l4.242,3.182l6.361,1.06l2.121,16.968l15.906,2.122l3.184-2.122l4.241,9.541h5.301l5.305,4.247l5.305-3.183l5.301,13.789l10.603,6.355l1.061,10.608
				l-7.423,9.545l4.242,2.118l5.301-6.362l6.365-10.607h5.305l6.361,11.668l3.18-1.061l-2.121-7.421l2.121-5.302l4.238-1.061l4.247,2.12l5.305-6.361l-4.247-4.24l4.247-2.126v-5.302h-14.854l-1.058-6.361h-4.246v-4.241l-7.417-2.123h-8.486v-6.359l-5.302-5.304
				l-10.609-3.184l-5.3,1.06v-7.422l-8.483-10.607l-1.059-7.417l-3.182-4.241l3.182-4.247l6.361-3.181l-27.573-14.843l-15.903-15.91z"/>
			<text transform="matrix(1 0 0 1 498.6567 544.5659)"><tspan x="0" y="0" style="stroke:none;">Plaquemines</tspan></text>
		</g>
		<g style="stroke:none;">
			<path style="fill:#FFFFFF;stroke:#000000;" d="M273.048,377.01h9.548h21.211l9.543-2.117l9.543-18.031l-3.182-9.544l-3.182-9.543l-23.331,2.118v-7.42l6.361-3.184l1.061-12.722l-4.241-4.243h-5.301l5.301,9.542l-9.542,1.063l-2.124-22.271l-8.479-5.301
				l-8.487,12.722v18.029l7.422,20.149l-2.121,30.752z"/>
			<text transform="matrix(1 0 0 1 277.9624 352.6216)"><tspan x="0" y="0">Pointe</tspan><tspan x="-3.338" y="12">Coupee</tspan></text>
		</g>
		<g>
			<path style="fill:#FFFFFF;" d="M159.582,225.363l4.241,19.088l57.262-13.783l13.789,20.147l-8.485,6.363l-10.603-4.24l3.184,54.085H205.18l-4.242-7.426l-3.181,1.062l-9.548,12.72l-13.783,4.249h-13.784l-11.667,1.056l-1.061-53.023l-18.03-14.845l29.696-25.452z
				"/>
			<text transform="matrix(1 0 0 1 164.5635 277.3286)"><tspan x="0" y="0" style="stroke:none;">Rapides</tspan></text>
		</g>
		<g style="stroke:none;">
			<path style="fill:#FFFFFF;stroke:#000000;" d="M76.864,118.257h24.391l4.241,13.79l5.303,24.389l-13.783,1.06l-3.185,10.605h-7.419l-4.248-3.185l-1.055-7.42l-22.273-16.967l5.303-8.481l-5.303-13.79h11.667h6.36z"/>
			<text transform="matrix(1 0 0 1 76.1768 136.2871)"><tspan x="0" y="0">Red</tspan><tspan x="-2.495" y="12">River</tspan></text>
		</g>
		<g>
			<path style="fill:#FFFFFF;" d="M253.964,77.96l-14.85,34.994h5.307l3.175,15.907l8.488,3.186l7.421-4.247l8.488-22.266l13.783-13.789l19.085,1.06l4.247-20.147l-1.061-4.239l-16.97-1.062l1.061-11.666l-5.302-1.061l-13.789,14.846h-12.724l-6.361,8.485z"/>
			<text transform="matrix(1 0 0 1 261.0171 84.3257)"><tspan x="0" y="0" style="stroke:none;">Richland</tspan></text>
		</g>
		<g>
			<path style="fill:#FFFFFF;" d="M74.745,177.644l-51.963-2.125v4.247l3.181,3.182l1.06,2.121v5.303l2.118,3.178l2.123,3.181v3.184l-3.179,1.062l-1.062,2.118v3.185l2.118,2.117v1.06l-2.118,2.125l-1.06,2.116l3.178,3.185l2.123,5.302l3.179,1.058l3.184,1.061
				l2.119,1.06l-2.119,2.124l-1.061,5.304l4.242,1.054l2.122,6.365l5.303,5.303l-1.062,2.122l-2.122,4.241l-2.12,3.181l1.062,1.06l2.117,1.062l2.124,2.122l4.241,3.181l1.061,4.242l1.063,3.184l3.177,3.181h3.181l3.184-12.729h9.544l6.363-12.723l18.026,1.062
				v-25.454l-11.66-1.058l-1.063-26.512H74.745v-18.03z"/>
			<text transform="matrix(1 0 0 1 43.2671 216.8828)"><tspan x="0" y="0" style="stroke:none;">Sabine</tspan></text>
		</g>
		<g>
			<path style="fill:#FFFFFF;" d="M498.929,451.243h-15.903l-3.186,6.365l9.547,5.3l2.122,7.426l15.903,15.91l27.573,14.843l12.729-7.425l4.241-14.846l9.542-1.061l19.087-19.088l-5.304-2.124l-3.174-7.415l6.361-10.609l-6.361-4.24l5.298-7.425l-3.178-2.124
				l-16.971,14.853l-16.967-2.123l-4.241,5.302l-7.424,20.146l-10.606,3.186l-6.364-7.426l-8.482-2.124l-4.242-5.301z"/>
			<text transform="matrix(1 0 0 1 500.1519 478.8159)"><tspan x="0" y="0" style="stroke:none;">St. Bernard</tspan></text>
		</g>
		<g>
			<path style="fill:#FFFFFF;" d="M416.212,466.093v-19.091l7.426-2.118l7.424-13.793l7.422,6.368l10.602,2.123v23.325l13.79,14.848l-5.301,18.03l-18.031-1.063l-3.177-10.602l-10.606-5.305l-9.548-12.723z"/>
			<text transform="matrix(1 0 0 1 412.6919 471.3999)"><tspan x="0" y="0" style="stroke:none;">St. Charles</tspan></text>
		</g>
		<g style="stroke:none;">
			<path style="fill:#FFFFFF;stroke:#000000;" d="M414.092,302.777h-33.935l2.123,40.301l-8.486,10.604h39.237l1.061-50.904z"/>
			<text transform="matrix(1 0 0 1 391.0142 323.9868)"><tspan x="0" y="0">St.</tspan><tspan x="-9.731" y="12">Helena</tspan></text>
		</g>
		<g>
			<path style="fill:#FFFFFF;" d="M405.903,425.969l-35.082,5.864l-1.196,9.527l4.968,23.405l28.601,2.526l-3.935-21.269l4.284-3.116l2.36-16.938z"/>
			<text transform="matrix(0.9999 0.0143 -0.0143 0.9999 371.3198 452.9253)"><tspan x="0" y="0" style="stroke:none;">St. James</tspan></text>
		</g>
		<g style="stroke:none;">
			<path style="fill:#FFFFFF;stroke:#000000;" d="M431.062,406.706l-25.451,10.606v8.478l-2.121,16.972l-4.24,3.181l4.24,21.209l12.723-1.058v-19.091l7.426-2.118l7.424-13.793v-11.663l9.543-13.782l-9.543,1.06z"/>
			<text transform="matrix(1 0 0 1 400.9263 432.3345)"><tspan x="0" y="0">St. John</tspan><tspan x="-5.28" y="12">the Baptist</tspan></text>
		</g>
		<g>
			<path style="fill:#FFFFFF;" d="M218.969,325.048v5.302l5.302,5.303v12.727l-10.603,21.211h-21.211l-5.302,9.543h28.63v5.302h7.425l5.301,19.087l9.542-10.605l8.482,2.123l35.001-4.237l-8.488-13.792l2.121-30.752l-7.422-20.149l-48.779-1.061z"/>
			<text transform="matrix(1 0 0 1 220.5645 370.6509)"><tspan x="0" y="0" style="stroke:none;">St. Landry</tspan></text>
		</g>
		<g>
			<path style="fill:#FFFFFF;" d="M347.284,492.604l-27.572-10.603l-5.302-13.789l-12.729-10.604l-7.42-2.119l-4.242,1.055l-24.392,30.76l24.392-4.247l2.121,1.064l-6.362,13.785v4.241h9.542l4.241,10.608l-2.117,4.239l12.721-2.124l5.307,6.364l7.423,3.184
				l6.366-1.061l5.302-10.603l5.302-4.241l4.24,1.055l8.482-4.241l-5.302-12.724z"/>
			<text transform="matrix(1 0 0 1 298.978 500.0259)"><tspan x="0" y="0" style="stroke:none;">St. Mary</tspan></text>
		</g>
		<g>
			<path style="fill:#FFFFFF;" d="M452.273,390.802l20.148,3.175l9.542,14.85l9.546-1.061l15.903,9.546l27.573,5.299l-8.482-8.482l-1.061-15.91l-7.425-15.904l-8.482-13.786l-8.485-18.03l-20.15-1.054l-29.687-7.429l1.06,48.787z"/>
			<text transform="matrix(1 0 0 1 457.1167 383.3745)"><tspan x="0" y="0" style="stroke:none;">St. Tammany</tspan></text>
		</g>
		<g>
			<path style="fill:#FFFFFF;" d="M439.543,301.72h-24.389l-1.063,1.057l-1.061,50.904l1.061,24.393l11.668,22.27l5.302,6.362l9.543-1.06l11.668-14.844l-1.06-48.787l-11.67-40.295z"/>
			<text transform="matrix(1 0 0 1 412.6265 362.1665)"><tspan x="0" y="0" style="stroke:none;">Tangipahoa</tspan></text>
		</g>
		<g>
			<path style="fill:#FFFFFF;" d="M319.711,191.428l5.304-1.056l6.359-1.063l-10.603-5.301l1.06-6.364l4.241-3.18l10.604,2.119l-2.115-5.304l14.844-20.148l-2.121-9.542h9.549l3.178-4.241l6.364-8.486l-2.123-3.179l-12.724,9.545l-9.548-3.181l1.061-9.548
				l6.364-1.057l-3.181-5.303h-5.302l-8.488,5.303l-33.928,2.117l5.301,3.187l-2.127,36.054l-6.361,9.543l3.188,18.031l21.205,1.056z"/>
			<text transform="matrix(1 0 0 1 307.0503 153.2544)"><tspan x="0" y="0" style="stroke:none;">Tensas</tspan></text>
		</g>
		<g>
			<path style="fill:#FFFFFF;" d="M352.585,505.328l8.485-12.724l25.449-7.424l50.903,61.504l1.061,8.487l-7.422,12.724l-5.302-2.121v-8.485l-12.729-8.479l2.123,11.664l-8.485,4.24l-5.304,6.364v6.365l-15.906,5.3l-5.302-2.12l-12.723-11.669l-16.971-4.24
				l-5.302-22.272l-6.361-2.116l-3.181-9.546h-5.3l-1.062-7.422l5.302-10.603l5.302-4.241l4.24,1.055l8.482-4.241z"/>
			<text transform="matrix(1 0 0 1 359.103 533.9614)"><tspan x="0" y="0" style="stroke:none;">Terrebonne</tspan></text>
		</g>
		<g>
			<path style="fill:#FFFFFF;" d="M233.813,5.846L158.52,3.727l-1.062,38.18l25.451,4.24l-1.057,7.419l12.726,1.063v11.665l21.208-1.061l20.148-19.086l-2.121-40.301z"/>
			<text transform="matrix(1 0 0 1 187.8745 31.3008)"><tspan x="0" y="0" style="stroke:none;">Union</tspan></text>
		</g>
		<g>
			<path style="fill:#FFFFFF;" d="M210.481,428.977l-13.783,12.724l-23.332-6.367l-15.909,9.551h14.848v65.746l38.175,4.24l5.304-2.115l20.148-4.241l3.181-5.307l-2.121-1.061h-6.362l-2.121-9.543l-4.241,1.058l-4.247-6.358l7.428-4.247l1.06,5.302l4.241-3.178
				l9.542-5.304l6.367-7.422l-2.126-27.57l-10.602-6.365l-2.121-8.484l-23.332-1.058z"/>
			<text transform="matrix(1 0 0 1 188.8574 468.2124)"><tspan x="0" y="0" style="stroke:none;">Vermilion</tspan></text>
		</g>
		<g>
			<path style="fill:#FFFFFF;" d="M63.079,295.358l-1.063,3.178l-2.117,1.061l-2.124,4.24l1.062,2.124l2.119,1.063v2.116v2.124l-1.057,3.179l-2.124,3.186l2.124,3.179h69.987l19.091-2.123l-1.061-53.023l-18.03-14.845l-4.241-2.119H98.072l-18.026-1.062
				l-6.363,12.723h-9.544l-3.184,12.729h-3.181l5.305,22.271z"/>
			<text transform="matrix(1 0 0 1 86.4697 287.9302)"><tspan x="0" y="0" style="stroke:none;">Vernon</tspan></text>
		</g>
		<g>
			<path style="fill:#FFFFFF;" d="M501.05,350.498v-9.542l12.728-32.875l-3.178-6.36l-10.609-1.06l-50.905,1.06h-9.542l11.67,40.295l29.687,7.429l20.15,1.054z"/>
			<text transform="matrix(1 0 0 1 448.3198 326.1089)"><tspan x="0" y="0" style="stroke:none;">Washington</tspan></text>
		</g>
		<g>
			<path style="fill:#FFFFFF;" d="M97.016,2.666H67.318h-4.24l9.543,37.117l1.061,53.021h10.604h13.785l-1.056-7.424h10.604l-2.124-18.024l-8.48-64.689z"/>
			<text transform="matrix(1 0 0 1 76.3667 42.9639)"><tspan x="0" y="0" style="stroke:none;">Webster</tspan></text>
		</g>
		<g style="stroke:none;">
			<path style="fill:#FFFFFF;stroke:#000000;" d="M303.807,377.01l18.024,25.455h23.331l-11.662-6.362l4.239-11.668v-9.542l-8.48-1.061l2.115-7.428l-5.302-3.182l-1.058-14.844l-5.304-1.062l3.182,9.544l-9.543,18.031l-9.543,2.117z"/>
			<text transform="matrix(1 0 0 1 312.6567 377.0103)"><tspan x="0" y="0">West</tspan><tspan x="-1.768" y="12">Baton</tspan><tspan x="-3.435" y="24">Rouge</tspan></text>
		</g>
		<g style="stroke:none;">
			<path style="fill:#FFFFFF;stroke:#000000;" d="M327.133,4.789h-16.97l-6.356,15.907l-7.428,4.241l-9.542,29.693l5.302,1.061l-1.061,11.666l16.97,1.062l12.724-27.573l6.361-36.056z"/>
			<text transform="matrix(1 0 0 1 297.8101 33.4185)"><tspan x="0" y="0">West</tspan><tspan x="-3.426" y="12">Carroll</tspan></text>
		</g>
		<g style="stroke:none;">
			<path style="fill:#FFFFFF;stroke:#000000;" d="M339.863,302.777l-48.784-1.057l-2.124-2.122l-11.66-8.482l-1.06,4.243l8.479,5.301l2.124,22.271l9.542-1.063l-5.301-9.542h5.301l4.241,4.243l-1.061,12.722l-6.361,3.184v7.42l23.331-2.118l3.182,9.543l5.304,1.062
				l1.058-2.121l7.428-14.846l6.362-28.636z"/>
			<text transform="matrix(1 0 0 1 306.2925 317.6284)"><tspan x="0" y="0">West</tspan><tspan x="-8.711" y="12">Feliciana</tspan></text>
		</g>
		<g>
			<path style="fill:#FFFFFF;" d="M138.372,174.464l-4.241-42.417h12.722l59.388,1.056v32.875l-5.302,18.031h-29.693v11.666l-40.299,2.118l2.122-23.327h5.303z"/>
			<text transform="matrix(1 0 0 1 158.7935 164.9155)"><tspan x="0" y="0" style="stroke:none;">Winn</tspan></text>
		</g>
	</g>
</svg>
