<?xml version="1.0" encoding="iso-8859-1"?>
<!DOCTYPE svg >

<svg  width="801.067pt" height="412.868pt" viewBox="0 0 801.067 412.868" xml:space="preserve">
	<g id="Layer_x0020_1" style="fill-rule:nonzero;clip-rule:nonzero;stroke:#000000;stroke-miterlimit:4; font-family:'Arial'; font-size:10;">
		<g>
			<path style="fill:#FFFFFF;" d="M208.516,3.729h-8.061l-74.169-1.615l-22.582,1.615L77.91,60.167l16.126,8.063l24.187-27.415l11.283-17.733l6.447,1.606v12.904l16.126,8.064l19.353,4.834l9.678-1.614l9.675-11.285l-1.614-9.675h8.063l8.062-4.836l8.063-9.676
				l-4.843-9.676z"/>
			<text transform="matrix(1 0 0 1 133.6777 20.4155)"><tspan x="0" y="0" style="stroke:none;">Allegany</tspan></text>
		</g>
		<g style="stroke:none;">
			<path style="fill:#FFFFFF;stroke:#000000;" d="M501.996,116.604l-16.125,20.959l-9.674,6.457l1.614,6.448l14.511,8.063l8.06,11.283l4.842,20.967l-6.455,22.575l3.228,9.675l11.293-3.229l1.604,9.679h16.125l-4.832-9.679l9.674-9.674l1.614-4.838l-9.673-6.444
				l4.831-6.452v-8.06l3.228-3.23l6.451,8.063l3.229-4.832l-8.065-14.521l12.897,1.613l4.836-3.217l-1.608-6.457l-8.06-3.223l-6.457-12.904l11.289,4.842l3.228-6.448l-3.228-4.842h-6.446l-1.614-6.448l-8.064-1.614l-1.614-11.282l-9.675-1.612l-8.064-6.451
				l-12.896,4.834z"/>
			<text transform="matrix(1 0 0 1 501.6108 144.019)"><tspan x="0" y="0">Anne</tspan><tspan x="-5.557" y="12">Arundel</tspan></text>
		</g>
		<g>
			<path style="fill:#FFFFFF;" d="M526.185,2.114h-40.314l-17.739,66.115l1.615,19.353l12.896,4.834l6.455,12.897l12.897,11.29l12.896-4.834l-12.896-8.063l-1.614-20.97l33.864-1.611l-3.229,29.029l4.842,4.834l14.512,3.23l1.613-1.617l-4.842-8.063l8.064-1.614
				l1.615-12.896l8.059,3.22V84.354l6.451-1.617l-27.407-33.861l-11.293-6.448l-6.446-40.314z"/>
			<text transform="matrix(1 0 0 1 490.5542 63.395)"><tspan x="0" y="0" style="stroke:none;">Baltimore</tspan></text>
		</g>
		<g>
			<path style="fill:#FFFFFF;" d="M505.223,277.855l-1.613-4.834l-1.614-49.991l11.293-3.229l1.604,9.679h16.125l3.229,25.799l-1.614,12.9l27.418,43.539l-3.228,6.449l-11.283-3.229l-3.229-6.448l-16.125-14.511l-14.513-12.896l-4.84,1.605l-1.609-4.834z"/>
			<text transform="matrix(1 0 0 1 511.9624 279.4683)"><tspan x="0" y="0" style="stroke:none;">Calvert</tspan></text>
		</g>
		<g>
			<path style="fill:#FFFFFF;" d="M680.985,245.605l-3.225-41.929l-4.838-69.331l-16.124,9.674l-17.739,29.021v11.293v14.512l8.063,8.06l-16.128,12.896l-4.831,11.293l11.283,6.448l24.185-4.834l19.354,12.896z"/>
			<text transform="matrix(1 0 0 1 631.7261 202.063)"><tspan x="0" y="0" style="stroke:none;">Caroline</tspan></text>
		</g>
		<g>
			<path style="fill:#FFFFFF;" d="M485.871,2.114h-37.083h-40.313l-8.065,22.573l-6.457-1.606l3.229,8.064l8.065,1.605l11.291,12.906l9.668,6.448L424.6,63.395l-8.063,24.187l12.896-3.228l40.313,3.228l-1.615-19.353l17.739-66.115z"/>
			<text transform="matrix(1 0 0 1 424.3862 37.5918)"><tspan x="0" y="0" style="stroke:none;">Carroll</tspan></text>
		</g>
		<g>
			<path style="fill:#FFFFFF;" d="M664.86,0.502h-54.822l-22.581,1.612l25.799,38.7l6.451-3.222l4.843,3.222l11.282-6.448l-6.448,24.187l20.964-9.676v12.904h-12.901l-1.614,6.448l-6.448,1.614l-1.616,8.063l9.679,3.22l9.676,1.611l12.895-3.217l9.68,3.217
				L664.86,0.502z"/>
			<text transform="matrix(1 0 0 1 626.3325 26.3018)"><tspan x="0" y="0" style="stroke:none;">Cecil</tspan></text>
		</g>
		<g>
			<path style="fill:#FFFFFF;" d="M503.61,273.021l-11.288-8.063v-12.907l-12.899-6.446l-30.635-1.613l-8.063,8.06l-6.457-17.739l-8.063,4.843l-3.221,8.064l-14.51,6.448l-6.457,6.449l-8.065,17.738l-3.217,22.573l8.06,12.904l6.451,6.448l32.25-14.511l3.229-16.127
				l6.444,3.223l6.452,24.188l8.063,4.844l3.229,6.446l11.283,3.221l-4.837-11.283l3.218-6.448l-3.218-4.842l11.283-29.022l22.58-1.613l-1.613-4.834z"/>
			<text transform="matrix(1 0 0 1 428.3296 279.4683)"><tspan x="0" y="0" style="stroke:none;">Charles</tspan></text>
		</g>
		<g>
			<path style="fill:#FFFFFF;" d="M682.603,264.958l-1.618-19.354l-19.354-12.896l-24.185,4.834l-4.837,20.959l-12.902,3.229h-9.669l-11.292-9.679h-16.125l-3.227,11.292l3.227,4.836l9.679-4.836l4.834,8.063l-12.899,1.615l-9.674,17.73l8.061,17.739l12.896,3.228
				l6.455,12.897l17.734,14.511l3.228-19.346l9.675-1.613l-3.226,9.676l9.676,9.679l1.615-11.293l8.06-9.676l3.222-4.835l9.675-30.635l20.973-16.125z"/>
			<text transform="matrix(1 0 0 1 593.3667 293.4829)"><tspan x="0" y="0" style="stroke:none;">Dorchester</tspan></text>
		</g>
		<g>
			<path style="fill:#FFFFFF;" d="M408.475,2.114h-41.929l-12.902,24.188l-9.671,3.229l-12.904,51.595l-6.449,12.905l14.514,1.614l25.798,17.731l48.375-24.188l3.231-1.606l8.063-24.187l1.605-11.291l-9.668-6.448L405.247,32.75l-8.065-1.605l-3.229-8.064
				l6.457,1.606l8.065-22.573z"/>
			<text transform="matrix(1 0 0 1 355.3877 64.9985)"><tspan x="0" y="0" style="stroke:none;">Frederick</tspan></text>
		</g>
		<g>
			<path style="fill:#FFFFFF;" d="M103.704,3.729L16.631,0.502L0.506,3.729L2.12,121.438l16.125-16.125l19.353-11.283l6.449-8.063l24.188-14.511l3.22-8.063l6.456-3.229l25.794-56.437z"/>
			<text transform="matrix(1 0 0 1 22.0386 40.814)"><tspan x="0" y="0" style="stroke:none;">Garrett</tspan></text>
		</g>
		<g>
			<path style="fill:#FFFFFF;" d="M587.457,2.114h-61.271l6.446,40.314l11.293,6.448l27.407,33.861l3.229,9.679h4.834l3.227-11.291l8.064,3.228l1.614-9.677l11.282,1.614l6.456-14.511l-6.456-6.451l9.674-14.516l-25.799-38.7z"/>
			<text transform="matrix(1 0 0 1 554.6597 42.4282)"><tspan x="0" y="0" style="stroke:none;">Harford</tspan></text>
		</g>
		<g>
			<path style="fill:#FFFFFF;" d="M413.306,89.188l3.231-1.606l12.896-3.228l40.313,3.228l12.896,4.834l6.455,12.897l12.897,11.29l-16.125,20.959l-9.674,6.457l-9.679-4.842l-11.283-4.832l-9.676-8.065v-6.448l-32.253-30.644z"/>
			<text transform="matrix(1 0 0 1 444.4546 111.7695)"><tspan x="0" y="0" style="stroke:none;">Howard</tspan></text>
		</g>
		<g>
			<path style="fill:#FFFFFF;" d="M671.309,113.376v-12.897l-1.613-17.742l-9.68-3.217l-12.895,3.217l-9.676-1.611l-4.837,4.842l-22.571-1.614l-4.842,9.677h-6.45v6.448l-12.898,17.741l-4.842,16.125l6.451,6.446l1.614,9.676l3.229-1.611l1.613-6.451l8.06-3.229
				l6.452,1.614l11.282-12.896v-8.063l6.456-8.063l29.021-4.842l16.125,6.449z"/>
			<text transform="matrix(1 0 0 1 616.7007 101.4473)"><tspan x="0" y="0" style="stroke:none;">Kent</tspan></text>
		</g>
		<g>
			<path style="fill:#FFFFFF;" d="M466.518,139.177l-11.283-4.832l-9.676-8.065v-6.448l-32.253-30.644l-48.375,24.188l-6.445,9.676l-6.451,3.229v9.677l20.961,16.127l14.511,1.604l11.288,4.842l3.223,8.063l8.06,6.448h8.065l6.457,8.063l12.896-12.894l9.673,4.831
				l19.349-33.864z"/>
			<text transform="matrix(1 0 0 1 379.0728 142.4053)"><tspan x="0" y="0" style="stroke:none;">Montgomery</tspan></text>
		</g>
		<g style="stroke:none;">
			<path style="fill:#FFFFFF;stroke:#000000;" d="M476.197,144.019l-9.679-4.842l-19.349,33.864l16.131,14.511l-22.575,22.576l-3.229,6.456l3.229,9.667l-6.457,8.062l6.457,17.739l8.063-8.06l30.635,1.613l12.899,6.446v12.907l11.288,8.063l-1.614-49.991
				l-3.228-9.675l6.455-22.575l-4.842-20.967l-8.06-11.283l-14.511-8.063l-1.614-6.448z"/>
			<text transform="matrix(1 0 0 1 458.8003 216.7925)"><tspan x="0" y="0">Prince</tspan><tspan x="-5.959" y="12">George&apos;s</tspan></text>
		</g>
		<g style="stroke:none;">
			<path style="fill:#FFFFFF;stroke:#000000;" d="M672.922,134.345l-1.613-20.969l-16.125-6.449l-29.021,4.842l-6.456,8.063v8.063l-11.282,12.896l-9.679,16.125l3.227,9.676l-11.287,9.676l3.228,19.349l14.512-4.837l1.613-11.288l29.021,4.842v-11.293l17.739-29.021
				l16.124-9.674z"/>
			<text transform="matrix(1 0 0 1 611.1499 152.0845)"><tspan x="0" y="0">Queen</tspan><tspan x="-0.119" y="12">Anne&apos;s</tspan></text>
		</g>
		<g style="stroke:none;">
			<path style="fill:#FFFFFF;stroke:#000000;" d="M505.223,277.855l-22.58,1.613l-11.283,29.022l3.218,4.842l16.131,29.021l8.06-9.676l9.679,4.844v3.219l14.51,4.842l4.844,4.834v6.449l9.673-1.615l6.451,3.229l1.614-11.29l6.445,1.616l1.614,19.351h4.837
				l4.832,9.677l4.842,3.22l-1.611-14.508l3.226-8.065l-11.288-11.29l-1.613-12.895l3.228-4.837l-1.614-3.229l-19.354-3.228l-3.223-8.063l-29.026-27.408v-4.842l-1.609-4.834z"/>
			<text transform="matrix(1 0 0 1 503.1099 311.7183)"><tspan x="0" y="0">St.</tspan><tspan x="-8.452" y="12">Mary&apos;s</tspan></text>
		</g>
		<g>
			<path style="fill:#FFFFFF;" d="M698.728,392.342l-4.846,6.449l-29.022,3.23l-6.447,9.669l-6.457-22.576l19.354-11.282v-3.229l-17.738,1.613l3.228-9.673l12.897-4.837l-3.221-4.842l-25.801,4.842l4.831-17.739h9.679v-8.063l16.125-9.677l11.294,4.835l3.217-6.448
				l12.908,4.842l11.281,22.576l-4.837,4.832l4.837,12.904l-19.347,11.282l8.065,11.29z"/>
			<text transform="matrix(1 0 0 1 663.0913 354.7612)"><tspan x="0" y="0" style="stroke:none;">Somerset</tspan></text>
		</g>
		<g>
			<path style="fill:#FFFFFF;" d="M639.059,184.333v14.512l8.063,8.06l-16.128,12.896l-4.831,11.293l11.283,6.448l-4.837,20.959l-12.902,3.229l-16.125-17.738l1.614-17.741l-14.511,11.292l-3.229-8.063l-17.733-3.229l-1.614-3.221l4.837-6.446l3.229-9.679
				l4.831-3.229l16.128,11.294l-3.221-19.354l14.512-4.837l1.613-11.288l29.021,4.842z"/>
			<text transform="matrix(1 0 0 1 593.6284 223.6909)"><tspan x="0" y="0" style="stroke:none;">Talbot</tspan></text>
		</g>
		<g>
			<path style="fill:#FFFFFF;" d="M366.546,2.114L253.672,3.729h-45.156l4.843,9.676l-8.063,9.676l16.125,1.606l12.896-12.896l9.679,1.614l19.352,12.896l4.835,4.843l16.124,1.605l4.836-4.833h6.455l4.834,6.449l-6.448,9.676l3.22,8.063l4.842,1.614h8.063
				l-4.84,12.896l9.674,9.677l-1.614,9.677l8.063,6.448l3.228,1.614l6.449-12.905l12.904-51.595l9.671-3.229l12.902-24.188z"/>
			<text transform="matrix(1 0 0 1 278.2129 22.3032)"><tspan x="0" y="0" style="stroke:none;">Washington</tspan></text>
		</g>
		<g>
			<path style="fill:#FFFFFF;" d="M747.099,287.531h-62.894l-1.603-22.572l-20.973,16.125l-9.675,30.635l-3.222,4.835l1.613,3.228l-3.226,17.741l8.063-1.616l16.125-9.677l11.294,4.835l3.217-6.448l12.908,4.842l45.143-3.229l8.063-16.124l-4.834-22.574z"/>
			<text transform="matrix(1 0 0 1 678.6636 313.3325)"><tspan x="0" y="0" style="stroke:none;">Wicomico</tspan></text>
		</g>
		<g>
			<path style="fill:#FFFFFF;" d="M800.308,289.143l-53.209-1.612l4.834,22.574l-8.063,16.124l-45.143,3.229l11.281,22.576l-4.837,4.832l4.837,12.904l-19.347,11.282l8.065,11.29l46.76-8.06l4.832-14.513l20.967-32.248l4.837,6.446l-14.511,38.701h9.674
				l11.283-37.087l8.064-17.739l3.225-11.29v-12.895l6.449-14.516z"/>
			<text transform="matrix(1 0 0 1 717.5903 343.146)"><tspan x="0" y="0" style="stroke:none;">Worcester</tspan></text>
		</g>
		<g style="stroke:none;">
			<path style="fill:#FFFFFF;stroke:#000000;" d="M531.017,110.155l3.229-29.029l-33.864,1.611l1.614,20.97l12.896,8.063l8.064,6.451v-4.844l-4.836-6.449h9.68l3.217,3.228z"/>
			<text transform="matrix(1 0 0 1 495.3882 90.8022)"><tspan x="0" y="0">Baltimore</tspan><tspan x="12.508" y="12">City</tspan></text>
		</g>
	</g>
</svg>
