<?xml version="1.0" encoding="iso-8859-1"?>
<!DOCTYPE svg >

<svg  width="801.036pt" height="346.339pt" viewBox="0 0 801.036 346.339" xml:space="preserve">
	<g id="Layer_x0020_1" style="fill-rule:nonzero;clip-rule:nonzero;fill:#FFFFFF;stroke:#000000;stroke-miterlimit:4; font-family:'Arial'; font-size:10;">
		<g>
			<path d="M529.535,265.416h-40.191l-0.818,40.191h40.188l0.821-40.191z"/>
			<text transform="matrix(1 0 0 1 495.106 284.2827)"><tspan x="0" y="0" style="fill:#000000;stroke:none;">Adams</tspan></text>
		</g>
		<g>
			<path d="M571.358,67.758l-0.813,39.367v20.505h-41.831v-21.325h-0.821l-0.821-38.546h44.287z"/>
			<text transform="matrix(1 0 0 1 531.1138 99.7441)"><tspan x="0" y="0" style="fill:#000000;stroke:none;">Antelope</tspan></text>
		</g>
		<g>
			<path d="M191.623,185.861v-39.37h50.851h1.639v39.37h-52.49z"/>
			<text transform="matrix(1 0 0 1 206.7124 164.5361)"><tspan x="0" y="0" style="fill:#000000;stroke:none;">Arthur</tspan></text>
		</g>
		<g>
			<path d="M66.138,149.775l-65.613,0.817l0.816,16.403l0.821,18.865l63.154,1.639v-5.739l0.821-31.985z"/>
			<text transform="matrix(1 0 0 1 21.3101 169.4575)"><tspan x="0" y="0" style="fill:#000000;stroke:none;">Banner</tspan></text>
		</g>
		<g>
			<path d="M401.585,106.304l-45.108-0.822l-8.202,0.822l0.82,38.55l51.669,0.82l0.821-39.37z"/>
			<text transform="matrix(1 0 0 1 363.083 126.8081)"><tspan x="0" y="0" style="fill:#000000;stroke:none;">Blaine</tspan></text>
		</g>
		<g>
			<path d="M570.544,127.629h-41.831v18.862l-0.821,29.526l18.043,0.821l4.918-4.921l19.691-1.639v-23.788v-18.862z"/>
			<text transform="matrix(1 0 0 1 535.5815 157.9771)"><tspan x="0" y="0" style="fill:#000000;stroke:none;">Boone</tspan></text>
		</g>
		<g>
			<path d="M57.938,66.939v40.186h4.099v9.021l4.918,0.821l58.233-1.641l1.642-8.202l-3.279-0.82l-0.821-40.189l-2.463,1.643l-62.329-0.819z"/>
			<text transform="matrix(1 0 0 1 67.4224 90.7212)"><tspan x="0" y="0" style="fill:#000000;stroke:none;">Box Butte</tspan></text>
		</g>
		<g>
			<path d="M526.25,14.446L508.208,0.502l-68.894,0.821v22.142l22.964-9.84l20.505,8.203l28.705,7.381l16.403,0.82l-1.643-15.583z"/>
			<text transform="matrix(1 0 0 1 483.689 16.9053)"><tspan x="0" y="0" style="fill:#000000;stroke:none;">Boyd</tspan></text>
		</g>
		<g>
			<path d="M401.585,32.487l2.459,73.817h-2.459l-45.108-0.822l-2.463-85.297l31.169,9.024l16.402,3.277z"/>
			<text transform="matrix(1 0 0 1 365.2671 61.1948)"><tspan x="0" y="0" style="fill:#000000;stroke:none;">Brown</tspan></text>
		</g>
		<g>
			<path d="M424.549,225.228l0.821,42.65l22.147,1.64l20.502,2.463l10.662-1.642l10.661-4.923l-0.818-39.367l-0.821-0.821h-42.649h-20.505z"/>
			<text transform="matrix(1 0 0 1 440.2427 250.6553)"><tspan x="0" y="0" style="fill:#000000;stroke:none;">Buffalo</tspan></text>
		</g>
		<g>
			<path d="M687.826,146.491l-0.821-31.165h22.967v-3.279l8.202-0.821l7.382,8.202l1.638,12.303l3.282,12.301l-3.282,9.844h-29.524v-7.384h-9.843z"/>
			<text transform="matrix(1 0 0 1 698.3394 130.9092)"><tspan x="0" y="0" style="fill:#000000;stroke:none;">Burt</tspan></text>
		</g>
		<g>
			<path d="M623.853,187.5l11.482-0.817l21.326-6.563l-0.823,46.751l-42.65-0.821v-40.188l10.665,1.639z"/>
			<text transform="matrix(1 0 0 1 621.4526 203.0854)"><tspan x="0" y="0" style="fill:#000000;stroke:none;">Butler</tspan></text>
		</g>
		<g>
			<path d="M696.026,230.15v26.247l55.771,0.817l1.643-4.918l-0.821-4.923l2.464-7.38v-4.101l-4.923-11.487l-13.123-0.816l-16.403,7.381l-10.661-4.923l-3.283,0.821l0.821,2.459l-11.483,0.821z"/>
			<text transform="matrix(1 0 0 1 713.3394 242.4521)"><tspan x="0" y="0" style="fill:#000000;stroke:none;">Cass</tspan></text>
		</g>
		<g>
			<path d="M645.173,29.209l-13.12-4.923l-5.739-0.821l-0.821-4.917l-11.482-1.643l-10.662,3.28v46.754h10.662l-0.822,10.659l31.17-0.821l0.815-47.567z"/>
			<text transform="matrix(1 0 0 1 609.4136 47.2529)"><tspan x="0" y="0" style="fill:#000000;stroke:none;">Cedar</tspan></text>
		</g>
		<g>
			<path d="M249.856,266.237l1.638,38.549l-67.252,1.637v-10.659v-29.526h65.614z"/>
			<text transform="matrix(1 0 0 1 201.7734 287.563)"><tspan x="0" y="0" style="fill:#000000;stroke:none;">Chase</tspan></text>
		</g>
		<g>
			<path d="M354.015,2.145h-94.319h-77.097l4.923,104.98l54.953-0.82h53.312h52.49l8.202-0.822l-2.463-85.297V2.145z"/>
			<text transform="matrix(1 0 0 1 259.4585 52.9917)"><tspan x="0" y="0" style="fill:#000000;stroke:none;">Cherry</tspan></text>
		</g>
		<g>
			<path d="M65.317,187.5l-0.821,43.472h65.615h3.28l0.82-25.427l-2.459-24.604l-66.435,0.82v5.739z"/>
			<text transform="matrix(1 0 0 1 79.4297 206.3657)"><tspan x="0" y="0" style="fill:#000000;stroke:none;">Cheyenne</tspan></text>
		</g>
		<g>
			<path d="M570.544,266.237l1.637,39.37h-43.468l0.821-40.191l41.01,0.821z"/>
			<text transform="matrix(1 0 0 1 540.0376 290.022)"><tspan x="0" y="0" style="fill:#000000;stroke:none;">Clay</tspan></text>
		</g>
		<g>
			<path d="M645.173,145.674h11.488v34.445l-21.326,6.563l-11.482,0.817l-0.821-40.187l22.142-1.639z"/>
			<text transform="matrix(1 0 0 1 626.0845 169.4575)"><tspan x="0" y="0" style="fill:#000000;stroke:none;">Colfax</tspan></text>
		</g>
		<g>
			<path d="M687.004,115.326l1.641-8.202h-24.604h-18.046l-0.821,38.549h11.488l31.164,0.817l-0.821-31.165z"/>
			<text transform="matrix(1 0 0 1 649.0649 128.8481)"><tspan x="0" y="0" style="fill:#000000;stroke:none;">Cuming</tspan></text>
		</g>
		<g>
			<path d="M400.765,145.674l-51.669-0.82v41.007l3.281,40.188l72.172-0.821h20.505l-0.819-39.367v-40.187h-43.47z"/>
			<text transform="matrix(1 0 0 1 381.1177 182.5806)"><tspan x="0" y="0" style="fill:#000000;stroke:none;">Custer</tspan></text>
		</g>
		<g>
			<path d="M116.987,1.323H97.304L51.373,2.145l2.464,64.794h4.102l62.329,0.819l-3.28-66.435z"/>
			<text transform="matrix(1 0 0 1 68.0747 37.4097)"><tspan x="0" y="0" style="fill:#000000;stroke:none;">Dawes</tspan></text>
		</g>
		<g>
			<path d="M352.377,226.049v39.367l21.325,0.821l28.705-0.821l2.459,2.462h20.505l-0.821-42.65l-72.172,0.821z"/>
			<text transform="matrix(1 0 0 1 372.0415 248.1963)"><tspan x="0" y="0" style="fill:#000000;stroke:none;">Dawson</tspan></text>
		</g>
		<g>
			<path d="M134.21,205.544l-0.82,25.427h50.03l0.821-25.427H134.21z"/>
			<text transform="matrix(1 0 0 1 147.394 219.4888)"><tspan x="0" y="0" style="fill:#000000;stroke:none;">Deuel</tspan></text>
		</g>
		<g>
			<path d="M682.903,57.093l-2.459-6.56l-4.92-1.642l-4.923-9.839l-4.923-0.822l-20.505-9.021l-0.815,47.567l0.815,10.664h18.867l8.201-1.643l0.821-29.526l9.84,0.821z"/>
			<text transform="matrix(1 0 0 1 647.978 53.813)"><tspan x="0" y="0" style="fill:#000000;stroke:none;">Dixon</tspan></text>
		</g>
		<g>
			<path d="M656.662,145.674v34.445l30.343,2.461l9.843,4.102l11.483,0.817l-8.203-10.661l-2.459-22.963v-7.384h-9.843l-31.164-0.817z"/>
			<text transform="matrix(1 0 0 1 663.2466 164.5361)"><tspan x="0" y="0" style="fill:#000000;stroke:none;">Dodge</tspan></text>
		</g>
		<g>
			<path d="M709.149,209.646l-2.461-8.202l-9.841-14.762l11.483,0.817l36.905-1.639v4.923l5.744,4.1l-3.282,5.74l0.818,9.021h-39.367z"/>
			<text transform="matrix(1 0 0 1 704.7437 198.1626)"><tspan x="0" y="0" style="fill:#000000;stroke:none;">Douglas</tspan></text>
		</g>
		<g>
			<path d="M251.494,304.786l0.82,39.366l-8.2,0.821l-59.05-0.821l-0.821-37.729l67.252-1.637z"/>
			<text transform="matrix(1 0 0 1 202.5947 326.9272)"><tspan x="0" y="0" style="fill:#000000;stroke:none;">Dundy</tspan></text>
		</g>
		<g>
			<path d="M613.188,265.416l-42.644,0.821l1.637,39.37l41.007,0.815v-41.007z"/>
			<text transform="matrix(1 0 0 1 575.7271 287.563)"><tspan x="0" y="0" style="fill:#000000;stroke:none;">Fillmore</tspan></text>
		</g>
		<g>
			<path d="M446.697,305.607l2.456,40.188l9.024-0.821h32.807l-2.459-39.366h-41.828z"/>
			<text transform="matrix(1 0 0 1 446.1382 326.1118)"><tspan x="0" y="0" style="fill:#000000;stroke:none;">Franklin</tspan></text>
		</g>
		<g>
			<path d="M373.702,266.237v29.526h-9.843v9.844h-8.203h-52.49h-0.82l-0.822-40.191h50.853l21.325,0.821z"/>
			<text transform="matrix(1 0 0 1 320.3833 285.1021)"><tspan x="0" y="0" style="fill:#000000;stroke:none;">Frontier</tspan></text>
		</g>
		<g>
			<path d="M355.656,305.607l0.821,40.188l50.031-0.821v0.821v-41.009l-1.643,0.821h-41.007h-8.203z"/>
			<text transform="matrix(1 0 0 1 366.3433 326.1118)"><tspan x="0" y="0" style="fill:#000000;stroke:none;">Furnas</tspan></text>
		</g>
		<g>
			<path d="M655.019,305.607l0.819,38.545h8.202l33.628,0.821l-1.643-29.526v-28.705h-41.007v18.865z"/>
			<text transform="matrix(1 0 0 1 663.2925 323.6499)"><tspan x="0" y="0" style="fill:#000000;stroke:none;">Gage</tspan></text>
		</g>
		<g>
			<path d="M183.42,115.326l-55.768,0.82l4.099,64.794l2.459,24.604h50.031l0.821-19.684h6.56v-39.37l-6.56-0.817l-1.643-30.348z"/>
			<text transform="matrix(1 0 0 1 144.5981 162.8945)"><tspan x="0" y="0" style="fill:#000000;stroke:none;">Garden</tspan></text>
		</g>
		<g>
			<path d="M486.064,106.304l0.818,40.187l-42.647-0.817l-1.637-40.192l43.466,0.822z"/>
			<text transform="matrix(1 0 0 1 448.8735 128.4507)"><tspan x="0" y="0" style="fill:#000000;stroke:none;">Garfield</tspan></text>
		</g>
		<g>
			<path d="M404.866,267.877v37.729h-41.007v-9.844h9.843v-29.526l28.705-0.821l2.459,2.462z"/>
			<text transform="matrix(1 0 0 1 372.8877 287.563)"><tspan x="0" y="0" style="fill:#000000;stroke:none;">Gosper</tspan></text>
		</g>
		<g>
			<path d="M187.521,107.125l54.953-0.82v40.187h-50.851l-6.56-0.817l-1.643-30.348h4.101v-8.202z"/>
			<text transform="matrix(1 0 0 1 201.2632 128.4507)"><tspan x="0" y="0" style="fill:#000000;stroke:none;">Grant</tspan></text>
		</g>
		<g>
			<path d="M486.882,146.491h41.831l-0.821,29.526v10.665l-41.01-0.821v-39.37z"/>
			<text transform="matrix(1 0 0 1 489.8794 170.2788)"><tspan x="0" y="0" style="fill:#000000;stroke:none;">Greeley</tspan></text>
		</g>
		<g>
			<path d="M528.713,226.049h-40.188l0.818,39.367h40.191l-0.821-18.862v-20.505z"/>
			<text transform="matrix(1 0 0 1 501.2349 248.1963)"><tspan x="0" y="0" style="fill:#000000;stroke:none;">Hall</tspan></text>
		</g>
		<g>
			<path d="M528.713,246.554l0.821,18.862l41.01,0.821v-40.188v-14.76l-4.923,7.38l-8.203,3.279l-28.705,24.606z"/>
			<text transform="matrix(1 0 0 1 529.4888 253.9355)"><tspan x="0" y="0" style="fill:#000000;stroke:none;">Hamilton</tspan></text>
		</g>
		<g>
			<path d="M406.508,304.786v41.009h42.645l-2.456-40.188l-40.188-0.821z"/>
			<text transform="matrix(1 0 0 1 412.2837 327.7485)"><tspan x="0" y="0" style="fill:#000000;stroke:none;">Harlan</tspan></text>
		</g>
		<g>
			<path d="M301.524,265.416l0.822,40.191l-50.853-0.821l-1.638-38.549l8.202-0.821h43.467z"/>
			<text transform="matrix(1 0 0 1 260.2886 286.7417)"><tspan x="0" y="0" style="fill:#000000;stroke:none;">Hayes</tspan></text>
		</g>
		<g>
			<path d="M251.494,304.786l0.82,39.366l51.674,0.821l-0.821-39.366h-0.82l-50.853-0.821z"/>
			<text transform="matrix(1 0 0 1 255.2476 324.4683)"><tspan x="0" y="0" style="fill:#000000;stroke:none;">Hitchcock</tspan></text>
		</g>
		<g>
			<path d="M439.315,23.465l22.964-9.84l20.505,8.203l28.705,7.381l16.403,0.82l-0.821,37.729l0.821,38.546h-41.828l-43.466-0.822l-3.283-82.017z"/>
			<text transform="matrix(1 0 0 1 477.1724 59.5571)"><tspan x="0" y="0" style="fill:#000000;stroke:none;">Holt</tspan></text>
		</g>
		<g>
			<path d="M242.474,106.304h53.312v39.37l-51.672,0.817h-1.639v-40.187z"/>
			<text transform="matrix(1 0 0 1 252.6011 126.8081)"><tspan x="0" y="0" style="fill:#000000;stroke:none;">Hooker</tspan></text>
		</g>
		<g>
			<path d="M487.704,225.228l-0.821-39.367l41.01,0.821l0.821,39.367h-40.188l-0.821-0.821z"/>
			<text transform="matrix(1 0 0 1 490.979 206.3657)"><tspan x="0" y="0" style="fill:#000000;stroke:none;">Howard</tspan></text>
		</g>
		<g>
			<path d="M613.188,306.422l41.831-0.815l0.819,38.545l-42.65,0.821v-38.551z"/>
			<text transform="matrix(1 0 0 1 614.0376 327.7485)"><tspan x="0" y="0" style="fill:#000000;stroke:none;">Jefferson</tspan></text>
		</g>
		<g>
			<path d="M696.026,286.742v28.705l35.266-0.821V285.92l-35.266,0.821z"/>
			<text transform="matrix(1 0 0 1 694.3462 299.0435)"><tspan x="0" y="0" style="fill:#000000;stroke:none;">Johnson</tspan></text>
		</g>
		<g>
			<path d="M489.343,265.416l-0.818,40.191h-41.828l0.821-36.09l20.502,2.463l10.662-1.642l10.661-4.923z"/>
			<text transform="matrix(1 0 0 1 448.5786 286.7417)"><tspan x="0" y="0" style="fill:#000000;stroke:none;">Kearney</tspan></text>
		</g>
		<g>
			<path d="M184.242,205.544l-0.821,25.427h74.637l-1.643-45.932l-12.302,0.821h-52.49h-6.56l-0.821,19.684z"/>
			<text transform="matrix(1 0 0 1 208.1104 211.2886)"><tspan x="0" y="0" style="fill:#000000;stroke:none;">Keith</tspan></text>
		</g>
		<g>
			<path d="M439.315,1.323h-24.604l-60.697,0.821v18.041l31.169,9.024l16.402,3.277l11.483,1.643l7.379-2.464l6.565-4.915l12.302-3.285V1.323z"/>
			<text transform="matrix(1 0 0 1 373.8428 16.9053)"><tspan x="0" y="0" style="fill:#000000;stroke:none;">Keya Paha</tspan></text>
		</g>
		<g>
			<path d="M65.317,187.5l-0.821,43.472l-18.862,0.821L1.341,230.15l0.821-44.29l63.154,1.639z"/>
			<text transform="matrix(1 0 0 1 19.3965 207.187)"><tspan x="0" y="0" style="fill:#000000;stroke:none;">Kimball</tspan></text>
		</g>
		<g>
			<path d="M603.348,20.185h-13.942l-19.686-1.637l-11.48,10.662l-15.587-4.923l-16.403-9.84l1.643,15.583l-0.821,37.729h44.287l31.99-0.819V20.185z"/>
			<text transform="matrix(1 0 0 1 559.9614 46.4316)"><tspan x="0" y="0" style="fill:#000000;stroke:none;">Knox</tspan></text>
		</g>
		<g>
			<path d="M655.838,226.87v39.367l-0.819,20.505h41.007v-30.345V230.15v-4.102l-40.188,0.821z"/>
			<text transform="matrix(1 0 0 1 653.5659 258.0347)"><tspan x="0" y="0" style="fill:#000000;stroke:none;">Lancaster</tspan></text>
		</g>
		<g>
			<path d="M349.096,185.861h-41.007l-51.674-0.821l1.643,45.932v34.444h43.467h50.853v-39.367l-3.281-40.188z"/>
			<text transform="matrix(1 0 0 1 288.96 221.9473)"><tspan x="0" y="0" style="fill:#000000;stroke:none;">Lincoln</tspan></text>
		</g>
		<g>
			<path d="M308.089,145.674l41.007-0.82v41.007h-41.007v-40.187z"/>
			<text transform="matrix(1 0 0 1 313.8672 168.6362)"><tspan x="0" y="0" style="fill:#000000;stroke:none;">Logan</tspan></text>
		</g>
		<g>
			<path d="M442.598,105.482l-38.554,0.822h-2.459l-0.821,39.37h43.47l-1.637-40.192z"/>
			<text transform="matrix(1 0 0 1 410.9702 125.9863)"><tspan x="0" y="0" style="fill:#000000;stroke:none;">Loup</tspan></text>
		</g>
		<g>
			<path d="M295.786,145.674l-51.672,0.817v39.37l12.302-0.821l51.674,0.821v-40.187h-12.303z"/>
			<text transform="matrix(1 0 0 1 250.8101 163.7158)"><tspan x="0" y="0" style="fill:#000000;stroke:none;">McPherson</tspan></text>
		</g>
		<g>
			<path d="M614.01,107.125h-43.466v20.505v18.862h42.644l0.822-39.367z"/>
			<text transform="matrix(1 0 0 1 573.7876 126.8081)"><tspan x="0" y="0" style="fill:#000000;stroke:none;">Madison</tspan></text>
		</g>
		<g>
			<path d="M591.09,193.304l0.835-7.38l-9.022-0.018l-0.018,9.84l-31.996,1.58l-4.923,3.27l-15.587-0.03l-0.787-13.943l-1.643-0.002l0.745,39.367l-0.042,20.505l28.755-24.548l8.208-3.263l4.937-7.371l16.435-14.734l4.917-0.811l-0.813-2.46z"/>
			<text transform="matrix(1 0.002 -0.002 1 534.4741 212.875)"><tspan x="0" y="0" style="fill:#000000;stroke:none;">Merrick</tspan></text>
		</g>
		<g>
			<path d="M127.653,116.146l4.099,64.794l-66.435,0.82l0.821-31.985l0.817-32.808l58.233-1.641l2.464,0.82z"/>
			<text transform="matrix(1 0 0 1 86.1538 149.7754)"><tspan x="0" y="0" style="fill:#000000;stroke:none;">Morrill</tspan></text>
		</g>
		<g>
			<path d="M582.846,185.861l0.815-14.765l-13.117-0.817l-19.691,1.639l-4.918,4.921l-18.043-0.821v10.665h1.643l0.816,13.942h15.584l4.918-3.281l31.993-1.642v-9.84z"/>
			<text transform="matrix(1 0 0 1 541.3228 188.3208)"><tspan x="0" y="0" style="fill:#000000;stroke:none;">Nance</tspan></text>
		</g>
		<g>
			<path d="M736.214,315.447l45.108-1.637l-1.638-4.102l-7.384-2.465l1.643-6.558l-5.741-13.944l-4.104-2.459l-32.807,1.638v28.705l4.923,0.821z"/>
			<text transform="matrix(1 0 0 1 731.2603 303.1431)"><tspan x="0" y="0" style="fill:#000000;stroke:none;">Nemaha</tspan></text>
		</g>
		<g>
			<path d="M528.713,305.607l1.638,39.366h31.166H573l-0.819-39.366h-43.468z"/>
			<text transform="matrix(1 0 0 1 527.8599 327.7485)"><tspan x="0" y="0" style="fill:#000000;stroke:none;">Nuckolls</tspan></text>
		</g>
		<g>
			<path d="M696.026,256.397l55.771,0.817l-0.816,5.742l6.558,5.742l4.102,5.739v5.744l2.459,4.101l-32.807,1.638l-35.266,0.821v-30.345z"/>
			<text transform="matrix(1 0 0 1 717.1714 271.1587)"><tspan x="0" y="0" style="fill:#000000;stroke:none;">Otoe</tspan></text>
		</g>
		<g>
			<path d="M736.214,315.447l0.821,29.526h-19.684h-19.684l-1.643-29.526l35.266-0.821l4.923,0.821z"/>
			<text transform="matrix(1 0 0 1 699.2837 332.6714)"><tspan x="0" y="0" style="fill:#000000;stroke:none;">Pawnee</tspan></text>
		</g>
		<g>
			<path d="M258.058,265.416l-8.202,0.821h-65.614v-0.821v-4.917l-0.821-29.527h74.637v34.444z"/>
			<text transform="matrix(1 0 0 1 204.4771 251.4751)"><tspan x="0" y="0" style="fill:#000000;stroke:none;">Perkins</tspan></text>
		</g>
		<g>
			<path d="M447.518,269.517l-0.821,36.09l-40.188-0.821l-1.643,0.821v-37.729h20.505l22.147,1.64z"/>
			<text transform="matrix(1 0 0 1 409.2612 287.563)"><tspan x="0" y="0" style="fill:#000000;stroke:none;">Phelps</tspan></text>
		</g>
		<g>
			<path d="M571.358,67.758l-0.813,39.367h43.466l-0.822-29.526l0.822-10.659h-10.662l-31.99,0.819z"/>
			<text transform="matrix(1 0 0 1 579.3325 87.4409)"><tspan x="0" y="0" style="fill:#000000;stroke:none;">Pierce</tspan></text>
		</g>
		<g>
			<path d="M613.188,146.491h-42.644v23.788l13.117,0.817l-0.815,14.765h9.017l-0.816,7.381l10.661-5.743l11.48-1.639l10.665,1.639l-0.821-40.187l-9.844-0.821z"/>
			<text transform="matrix(1 0 0 1 584.8208 166.9961)"><tspan x="0" y="0" style="fill:#000000;stroke:none;">Platte</tspan></text>
		</g>
		<g>
			<path d="M613.188,185.861l-11.48,1.639l-10.661,5.743l0.816,2.459l-4.918,0.821l-16.4,14.766v14.76h42.644v-40.188z"/>
			<text transform="matrix(1 0 0 1 583.7788 211.2886)"><tspan x="0" y="0" style="fill:#000000;stroke:none;">Polk</tspan></text>
		</g>
		<g>
			<path d="M303.166,305.607l0.821,39.366h1.638l50.853,0.821l-0.821-40.188h-52.49z"/>
			<text transform="matrix(1 0 0 1 303.5859 328.5698)"><tspan x="0" y="0" style="fill:#000000;stroke:none;">Red Willow</tspan></text>
		</g>
		<g>
			<path d="M736.214,315.447l45.108-1.637l11.483,10.658l2.461,5.742l-1.64,5.738l6.563,6.566l-1.643,0.815l-41.01,0.821l-20.502,0.821l-0.821-29.526z"/>
			<text transform="matrix(1 0 0 1 738.8071 331.0288)"><tspan x="0" y="0" style="fill:#000000;stroke:none;">Richardson</tspan></text>
		</g>
		<g>
			<path d="M401.585,32.487l2.459,73.817l38.554-0.822l-3.283-82.017l-12.302,3.285l-6.565,4.915l-7.379,2.464l-11.483-1.643z"/>
			<text transform="matrix(1 0 0 1 411.52 78.4194)"><tspan x="0" y="0" style="fill:#000000;stroke:none;">Rock</tspan></text>
		</g>
		<g>
			<path d="M655.838,266.237l-0.819,20.505v18.865l-41.831,0.815v-41.007l42.65,0.821z"/>
			<text transform="matrix(1 0 0 1 620.6157 285.9204)"><tspan x="0" y="0" style="fill:#000000;stroke:none;">Saline</tspan></text>
		</g>
		<g>
			<path d="M709.971,226.049l-1.641-6.56l1.641-3.284l-0.822-6.559h39.367l0.821,2.459l3.28,7.384l-2.459,4.917l-13.123-0.816l-16.403,7.381l-10.661-4.923z"/>
			<text transform="matrix(1 0 0 1 714.9497 219.4888)"><tspan x="0" y="0" style="fill:#000000;stroke:none;">Sarpy</tspan></text>
		</g>
		<g>
			<path d="M709.149,209.646l-2.461-8.202l-9.841-14.762l-9.843-4.102l-30.343-2.461l-0.823,46.751l40.188-0.821v4.102l11.483-0.821l-0.821-2.459l3.283-0.821l-1.641-6.56l1.641-3.284l-0.822-6.559z"/>
			<text transform="matrix(1 0 0 1 657.7056 209.3799)"><tspan x="0" y="0" style="fill:#000000;stroke:none;">Saunders</tspan></text>
		</g>
		<g>
			<path d="M66.956,116.967l-0.817,32.808l-65.613,0.817l0.816-34.447h60.696l4.918,0.821z"/>
			<text transform="matrix(1 0 0 1 6.4912 134.188)"><tspan x="0" y="0" style="fill:#000000;stroke:none;">Scotts Bluff</tspan></text>
		</g>
		<g>
			<path d="M613.188,226.049v39.367l42.65,0.821V226.87l-42.65-0.821z"/>
			<text transform="matrix(1 0 0 1 615.6499 252.6499)"><tspan x="0" y="0" style="fill:#000000;stroke:none;">Seward</tspan></text>
		</g>
		<g>
			<path d="M182.599,2.145l-65.612-0.821l3.28,66.435l2.463-1.643l0.821,40.189l3.279,0.82l-1.642,8.202l2.464,0.82l55.768-0.82h4.101v-8.202l-4.923-104.98z"/>
			<text transform="matrix(1 0 0 1 136.3418 61.1948)"><tspan x="0" y="0" style="fill:#000000;stroke:none;">Sheridan</tspan></text>
		</g>
		<g>
			<path d="M444.235,185.861h42.647l0.821,39.367h-42.649l-0.819-39.367z"/>
			<text transform="matrix(1 0 0 1 444.4497 207.187)"><tspan x="0" y="0" style="fill:#000000;stroke:none;">Sherman</tspan></text>
		</g>
		<g>
			<path d="M51.373,2.145H0.525v44.287l0.816,69.714h60.696v-9.021h-4.099V66.939h-4.102L51.373,2.145z"/>
			<text transform="matrix(1 0 0 1 16.7231 58.7358)"><tspan x="0" y="0" style="fill:#000000;stroke:none;">Sioux</tspan></text>
		</g>
		<g>
			<path d="M645.995,107.125H614.01l-0.822,39.367l9.844,0.821l22.142-1.639l0.821-38.549z"/>
			<text transform="matrix(1 0 0 1 612.355 130.8701)"><tspan x="0" y="0" style="fill:#000000;stroke:none;">Stanton</tspan></text>
		</g>
		<g>
			<path d="M572.181,305.607L573,344.973h40.188v-38.551l-41.007-0.815z"/>
			<text transform="matrix(1 0 0 1 575.4849 327.7485)"><tspan x="0" y="0" style="fill:#000000;stroke:none;">Thayer</tspan></text>
		</g>
		<g>
			<path d="M295.786,106.304h52.49l0.82,38.55l-41.007,0.82h-12.303v-39.37z"/>
			<text transform="matrix(1 0 0 1 301.5078 126.8081)"><tspan x="0" y="0" style="fill:#000000;stroke:none;">Thomas</tspan></text>
		</g>
		<g>
			<path d="M672.242,85.798h34.446l2.461,5.744l-2.461,5.739l11.485,13.945l-8.202,0.821v3.279h-22.967l1.641-8.202h-24.604V87.441l8.201-1.643z"/>
			<text transform="matrix(1 0 0 1 667.2729 98.9243)"><tspan x="0" y="0" style="fill:#000000;stroke:none;">Thurston</tspan></text>
		</g>
		<g>
			<path d="M444.235,145.674l42.647,0.817v39.37h-42.647v-40.187z"/>
			<text transform="matrix(1 0 0 1 451.4907 168.6362)"><tspan x="0" y="0" style="fill:#000000;stroke:none;">Valley</tspan></text>
		</g>
		<g>
			<path d="M708.331,187.5l-8.203-10.661l-2.459-22.963h29.524l6.563,4.917l-2.464,8.203l7.385,4.921l4.917,5.743l1.643,8.2l-36.905,1.639z"/>
			<text transform="matrix(1 0 0 1 704.8813 175.6006)"><tspan x="0" y="0" style="fill:#000000;stroke:none;">Washington</tspan></text>
		</g>
		<g>
			<path d="M613.188,77.598l0.822,29.526h31.984h18.046V87.441h-18.867l-0.815-10.664l-31.17,0.821z"/>
			<text transform="matrix(1 0 0 1 620.7817 95.6416)"><tspan x="0" y="0" style="fill:#000000;stroke:none;">Wayne</tspan></text>
		</g>
		<g>
			<path d="M488.525,305.607l2.459,39.366l18.046-0.821l21.321,0.821l-1.638-39.366h-40.188z"/>
			<text transform="matrix(1 0 0 1 487.2212 326.9272)"><tspan x="0" y="0" style="fill:#000000;stroke:none;">Webster</tspan></text>
		</g>
		<g>
			<path d="M486.064,106.304l0.818,40.187h41.831v-18.862v-21.325h-0.821h-41.828z"/>
			<text transform="matrix(1 0 0 1 489.5903 128.4507)"><tspan x="0" y="0" style="fill:#000000;stroke:none;">Wheeler</tspan></text>
		</g>
		<g>
			<path d="M570.544,226.049v40.188l42.644-0.821v-39.367h-42.644z"/>
			<text transform="matrix(1 0 0 1 581.0708 251.4375)"><tspan x="0" y="0" style="fill:#000000;stroke:none;">York</tspan></text>
		</g>
		<g>
			<path d="M706.688,85.798l-5.739-8.2l0.821-14.763l-4.102-2.461l-14.766-3.28l-9.84-0.821l-0.821,29.526h34.446z"/>
			<text transform="matrix(1 0 0 1 672.8032 71.8589)"><tspan x="0" y="0" style="fill:#000000;stroke:none;">Dakota</tspan></text>
		</g>
	</g>
</svg>
