<?xml version="1.0" encoding="iso-8859-1"?>
<!DOCTYPE svg >

<svg  width="334.082pt" height="601.432pt" viewBox="0 0 334.082 601.432" xml:space="preserve">
	<g id="Layer_x0020_1" style="fill-rule:nonzero;clip-rule:nonzero;fill:#FFFFFF;stroke:#000000;stroke-miterlimit:4; font-family:'Arial'; font-size:10;">
		<g>
			<path d="M192.442,363.105l-4.914,9.835l-22.972,3.284l-1.634,18.04h-9.845l-1.64,8.201l19.685,29.523l13.118-3.274l52.491,39.36l16.401-19.684l-4.927-31.163l8.201-9.845l-19.676-6.557l-44.29-37.722z"/>
			<text transform="matrix(1 0 0 1 185.8613 417.228)"><tspan x="0" y="0" style="fill:#000000;stroke:none;">Belknap</tspan></text>
		</g>
		<g>
			<path d="M290.852,413.944l-34.443-6.561l-19.676-6.557l-44.29-37.722l-9.844-37.732l36.089-6.554l-11.483-65.609l13.127,9.844l3.274,13.115l14.759-31.16h37.731l4.915-9.844l6.56,116.457l3.281,62.322z"/>
			<text transform="matrix(1 0 0 1 228.5664 345.0601)"><tspan x="0" y="0" style="fill:#000000;stroke:none;">Carroll</tspan></text>
		</g>
		<g>
			<path d="M92.391,504.155l-24.605-1.634l1.646-11.486l-47.565,11.486L0.538,563.202l14.768,32.805h34.438l63.972,3.283l-16.402-54.131h-6.565l1.644-41.004z"/>
			<text transform="matrix(1 0 0 1 31.373 561.5601)"><tspan x="0" y="0" style="fill:#000000;stroke:none;">Cheshire</tspan></text>
		</g>
		<g>
			<path d="M281.011,235.165l-4.915,9.844h-37.731l-14.759,31.16l-3.274-13.115l-13.127-9.844l-6.562-9.845l-21.318-1.64l-4.923-9.836l-21.323-8.2l-6.558-11.484l27.881-22.959l8.197-24.605l-13.119-32.806l18.049-32.803l-3.287-24.602l6.562-4.927L210.487,28.5
				l-6.558-11.475l13.114-4.927l13.121-11.475l18.042,11.475l19.686-9.834l13.118,232.901z"/>
			<text transform="matrix(1 0 0 1 215.2168 176.1191)"><tspan x="0" y="0" style="fill:#000000;stroke:none;">Coos</tspan></text>
		</g>
		<g>
			<path d="M207.204,253.209l-6.562-9.845l-21.318-1.64l-4.923-9.836l-21.323-8.2l-6.558-11.484l-16.404,13.119l-21.321,1.64l-13.122,16.401l-3.282,21.328l-1.644,22.963l-29.52,67.245l-22.96,41.007l77.082,14.759l14.767-14.759l3.281,9.836l18.041-3.278
				l1.64-8.201h9.845l1.634-18.04l22.972-3.284l4.914-9.835l-9.844-37.732l36.089-6.554l-11.483-65.609z"/>
			<text transform="matrix(1 0 0 1 108.5215 330.2983)"><tspan x="0" y="0" style="fill:#000000;stroke:none;">Grafton</tspan></text>
		</g>
		<g>
			<path d="M210.487,530.398l-19.685-14.762l-21.323,1.646l-6.557-19.687l-32.807,6.56l-13.124-18.035l-18.045,3.274l-6.557,3.283v11.478l-1.644,41.004h6.565l16.402,54.131h4.92l108.254,1.641l14.758-6.566l-3.282-8.201l-18.033-1.634l-13.127-13.127l-3.274-21.317
				l14.758-4.926l-8.2-14.761z"/>
			<text transform="matrix(1 0 0 1 126.9287 556.6421)"><tspan x="0" y="0" style="fill:#000000;stroke:none;">Hillsborough</tspan></text>
		</g>
		<g>
			<path d="M151.438,402.465l-18.041,3.278l-3.281-9.836l-14.767,14.759l-29.518,47.565l13.115,31.162l18.045-3.274l13.124,18.035l32.807-6.56l6.557,19.687l21.323-1.646l19.685,14.762l26.245-62.323l-52.491-39.36l-13.118,3.274l-19.685-29.523z"/>
			<text transform="matrix(1 0 0 1 133.0195 468.0747)"><tspan x="0" y="0" style="fill:#000000;stroke:none;">Merrimack</tspan></text>
		</g>
		<g>
			<path d="M333.501,512.356l-14.761-9.835h-8.201l-4.927,8.201l-32.803,1.634l8.201-11.479l-44.278-32.803l-26.245,62.323l8.2,14.761l-14.758,4.926l3.274,21.317l13.127,13.127l18.033,1.634l3.282,8.201h8.201v-13.119l8.2-6.558l9.845,1.642l8.203-11.485
				l24.602-4.917l11.476,4.917l21.328-34.445l-3.286-6.559l3.286-11.483z"/>
			<text transform="matrix(1 0 0 1 241.7461 540.2407)"><tspan x="0" y="0" style="fill:#000000;stroke:none;">Rockingham</tspan></text>
		</g>
		<g>
			<path d="M318.74,502.521l-1.642-29.528l-21.327-19.676l-6.561-19.688l1.641-19.686l-34.443-6.561l-8.201,9.845l4.927,31.163l-16.401,19.684l44.278,32.803l-8.201,11.479l32.803-1.634l4.927-8.201h8.201z"/>
			<text transform="matrix(1 0 0 1 257.0117 476.2759)"><tspan x="0" y="0" style="fill:#000000;stroke:none;">Strafford</tspan></text>
		</g>
		<g>
			<path d="M115.35,410.667l-77.082-14.759l-6.561,9.836l-13.127,75.45l3.286,21.327l47.565-11.486l-1.646,11.486l24.605,1.634v-11.478l6.557-3.283l-13.115-31.162l29.518-47.565z"/>
			<text transform="matrix(1 0 0 1 35.5205 456.4976)"><tspan x="0" y="0" style="fill:#000000;stroke:none;">Sullivan</tspan></text>
		</g>
	</g>
</svg>
