<?xml version="1.0" encoding="iso-8859-1"?>
<!DOCTYPE svg >

<svg  width="410.25pt" height="601.621pt" viewBox="0 0 410.25 601.621" xml:space="preserve">
	<g id="Layer_x0020_1" style="fill-rule:nonzero;clip-rule:nonzero;fill:#FFFFFF;stroke:#000000;stroke-miterlimit:4; font-family:'Arial'; font-size:10.0155;">
		<g>
			<path d="M159.988,242.188l4.909-26.989l5.521-4.911l3.682-2.453l-9.203-26.375l1.227-9.202H54.481l4.908,26.375l-1.227,2.453l-2.454-0.613l1.226,5.524l1.839-3.069l7.975-7.362l-7.975,30.058l31.285,28.217l53.981-0.613l9.813-2.455l6.135-8.586z"/>
			<text transform="matrix(1 0 0 1 97.5684 215.8081)"><tspan x="0" y="0" style="fill:#000000;stroke:none;">Churchill</tspan></text>
		</g>
		<g>
			<path d="M390.132,506.437l-27.78,0.746l6.906,93.144l-70.636-69.833l-15.949-14.722v-71.77l126.917,0.521l-0.681,54.059l-1.692,6.136l-2.453,3.192l-1.761,5.347l-3.933,1.424l-4.725-0.701l-2.576-1.39l-1.637-6.152z"/>
			<text transform="matrix(1 0 0 1 337.0464 488.4556)"><tspan x="0" y="0" style="fill:#000000;stroke:none;">Clark</tspan></text>
		</g>
		<g>
			<path d="M33.625,252.004l15.948,1.224v42.325l-1.837,4.294L31.17,285.127l-20.242-17.178l-9.201-7.974l-0.614-6.747v-3.681l32.511,2.457z"/>
			<text transform="matrix(1 0 0 1 9.731 267.3389)"><tspan x="0" y="0" style="fill:#000000;stroke:none;">Douglas</tspan></text>
		</g>
		<g>
			<path d="M409.039,162.444l-119.002-0.613H274.7l-10.43-45.395V86.99l-28.83-1.225l-30.058,0.614l-0.614-85.267L339.109,0.5h52.141l17.789,0.612l0.613,85.267l-0.613,76.065z"/>
			<text transform="matrix(1 0 0 1 319.5508 72.8838)"><tspan x="0" y="0" style="fill:#000000;stroke:none;">Elko</tspan></text>
		</g>
		<g>
			<path d="M194.341,344.626l-34.353-39.871l-44.776,50.301h-4.909l38.645,34.967l46.006,41.71l-0.613-87.108z"/>
			<text transform="matrix(1 0 0 1 135.4404 358.123)"><tspan x="0" y="0" style="fill:#000000;stroke:none;">Esmeralda</tspan></text>
		</g>
		<g>
			<path d="M290.648,166.124l-4.293,79.746h-51.528l0.614-160.104l28.83,1.225v29.446l10.43,45.395h15.336l0.612,4.293z"/>
			<text transform="matrix(1 0 0 1 251.4707 196.7954)"><tspan x="0" y="0" style="fill:#000000;stroke:none;">Eureka</tspan></text>
		</g>
		<g>
			<path d="M47.735,90.671l-0.615-0.613l-0.614-23.922h2.454L48.347,1.726l76.065-0.614h80.357l0.614,85.267l1.227,30.672l-16.563,0.609l-3.681,9.816v-13.493l-24.54-0.614l0.615-14.109l-76.064,0.612v-8.586l-38.643-0.615z"/>
			<text transform="matrix(1 0 0 1 109.1128 53.8662)"><tspan x="0" y="0" style="fill:#000000;stroke:none;">Humboldt</tspan></text>
		</g>
		<g>
			<path d="M159.988,242.188l-6.135,8.586l26.991-4.294l53.982-0.611l0.614-160.104l-30.058,0.614l1.227,30.672l-16.563,0.609l-3.681,9.816l-20.243,44.782l-1.227,9.202l9.203,26.375l-3.682,2.453l-5.521,4.911l-4.909,26.989z"/>
			<text transform="matrix(1 0 0 1 191.0171 177.7783)"><tspan x="0" y="0" style="fill:#000000;stroke:none;">Lander</tspan></text>
		</g>
		<g>
			<path d="M409.589,444.523l0.161-13.428l-0.099-52.73l-0.613-46.619V294.33v-7.364l-65.024,0.614v53.369l-61.341,1.226v101.829l126.917,0.521z"/>
			<text transform="matrix(1 0 0 1 333.2607 388.9971)"><tspan x="0" y="0" style="fill:#000000;stroke:none;">Lincoln</tspan></text>
		</g>
		<g>
			<path d="M23.81,237.891l3.683-2.452l6.746-3.683l2.453-2.453l12.881-22.697l7.362-0.609l1.839-3.069l7.975-7.362l-7.975,30.058l31.285,28.217l-14.721-0.613l-6.748,12.267l0.614,7.977l6.746,0.609l-0.612,36.196l-14.722,1.224l-12.881-11.654l1.837-4.294v-42.325
				l-15.948-1.224l-9.815-14.113z"/>
			<text transform="matrix(1 0 0 1 46.2612 247.0928)"><tspan x="0" y="0" style="fill:#000000;stroke:none;">Lyon</tspan></text>
		</g>
		<g>
			<path d="M90.059,253.842l-14.721-0.613l-6.748,12.267l0.614,7.977l6.746,0.609l-0.612,36.196l-14.722,1.224l49.687,43.554h4.909l44.776-50.301l-34.963-38.644l-0.613-7.362l19.628-5.52l-53.981,0.613z"/>
			<text transform="matrix(1 0 0 1 92.0425 301.686)"><tspan x="0" y="0" style="fill:#000000;stroke:none;">Mineral</tspan></text>
		</g>
		<g>
			<path d="M194.341,344.626l0.613,87.108l87.719,84.038v-71.77V342.173l61.341-1.226v-53.369l-57.659-41.71h-51.528l-53.982,0.611l-26.991,4.294l-9.813,2.455l-19.628,5.52l0.613,7.362l34.963,38.644l34.353,39.871z"/>
			<text transform="matrix(1 0 0 1 230.3716 346.0146)"><tspan x="0" y="0" style="fill:#000000;stroke:none;">Nye</tspan></text>
		</g>
		<g>
			<path d="M47.735,90.671v81.587h6.746h111.643l20.243-44.782v-13.493l-24.54-0.614l0.615-14.109l-76.064,0.612v-8.586l-38.643-0.615z"/>
			<text transform="matrix(1 0 0 1 88.6978 138.5195)"><tspan x="0" y="0" style="fill:#000000;stroke:none;">Pershing</tspan></text>
		</g>
		<g>
			<path d="M23.198,217.037l-0.614,18.403l-1.227,1.839l2.453,0.613l3.683-2.452l6.746-3.683l2.453-2.453l12.881-22.697l-3.066,0.615l-23.309,9.815z"/>
			<text transform="matrix(1 0 0 1 19.7651 221.3315)"><tspan x="0" y="0" style="fill:#000000;stroke:none;">Storey</tspan></text>
		</g>
		<g>
			<path d="M22.584,235.439l-1.227,1.839l-19.629,7.976l-0.614-12.881l0.614-11.042L0.5,198.634L1.114,71.044V1.112h43.554l3.679,0.614l0.613,64.409h-2.454l0.614,23.922l0.615,0.613v81.587h6.746l4.908,26.375l-1.227,2.453l-2.454-0.613l1.226,5.524l-7.362,0.609
				l-3.066,0.615l-23.309,9.815l-0.614,18.403z"/>
			<text transform="matrix(1 0 0 1 2.9673 129.5264)"><tspan x="0" y="0" style="fill:#000000;stroke:none;">Washoe</tspan></text>
		</g>
		<g>
			<path d="M286.355,245.869l57.659,41.71l65.024-0.614l0.613-74.835v-30.06l-0.613-19.626l-119.002-0.613l0.612,4.293l-4.293,79.746z"/>
			<text transform="matrix(1 0 0 1 329.001 219.4893)"><tspan x="0" y="0" style="fill:#000000;stroke:none;">White Pine</tspan></text>
		</g>
		<g>
			<path d="M33.625,252.004l-32.511-2.457l0.614-4.293l19.629-7.976l2.453,0.613l9.815,14.113z"/>
			<text transform="matrix(1 0 0 1 1.9893 247.708)"><tspan x="0" y="0" style="fill:#000000;stroke:none;">Ormsby</tspan></text>
		</g>
	</g>
</svg>
