<?xml version="1.0" encoding="iso-8859-1"?>
<!DOCTYPE svg >

<svg  width="585.741pt" height="601.12pt" viewBox="0 0 585.741 601.12" xml:space="preserve">
	<g id="Layer_x0020_1" style="fill-rule:nonzero;clip-rule:nonzero;fill:#FFFFFF;stroke:#000000;stroke-miterlimit:4; font-family:'Arial'; font-size:10;">
		<g>
			<path d="M152.929,561.909l4.838-62.901h13.304l26.614-7.254l14.51,9.677l2.422,64.104l-6.048,2.419l-10.884-8.467l-21.774-7.256l-15.725,8.464l-7.257,1.215z"/>
			<text transform="matrix(1 0 0 1 168.8164 531.6699)"><tspan x="0" y="0" style="fill:#000000;stroke:none;">Adams</tspan></text>
		</g>
		<g>
			<path d="M127.527,179.685l-31.451,1.21l1.211,8.468H64.633l-1.21,6.048l-4.836,1.208v21.774h21.769v3.626l48.383,2.423v-30.24l-1.211-14.518z"/>
			<text transform="matrix(1 0 0 1 89.8027 206.2988)"><tspan x="0" y="0" style="fill:#000000;stroke:none;">Allen</tspan></text>
		</g>
		<g>
			<path d="M359.763,153.079l-25.403-1.211h-10.88l-1.215,13.308l2.422,29.028l4.84,3.625v10.888l7.257,1.207v29.032l14.513-2.418v-18.144H364.6v-53.219l-6.048-1.211l1.211-10.885z"/>
			<text transform="matrix(1 0 0 1 328.7681 190.8208)"><tspan x="0" y="0" style="fill:#000000;stroke:none;">Ashland</tspan></text>
		</g>
		<g>
			<path d="M579.901,79.292V22.446V0.673l-64.104,19.354v20.558v38.707h64.104z"/>
			<text transform="matrix(1 0 0 1 526.7974 48.8457)"><tspan x="0" y="0" style="fill:#000000;stroke:none;">Ashtabula</tspan></text>
		</g>
		<g>
			<path d="M415.406,471.19l2.414-6.048l1.212-9.674l-10.885-2.421l-6.049-7.26l1.212-20.557l-27.823-1.216v-15.727l-15.724-1.203v14.51h-14.517l-1.213,14.516l-1.203,15.725l4.837,1.212l-1.211,14.518l68.949,3.625z"/>
			<text transform="matrix(1 0 0 1 358.7085 449.4219)"><tspan x="0" y="0" style="fill:#000000;stroke:none;">Athens</tspan></text>
		</g>
		<g>
			<path d="M128.739,243.793v-19.351l-48.383-2.423v-3.626H58.587l-9.682,1.212l2.423,55.637h1.211l10.884-4.84v-18.144l49.591,1.212v-9.678h15.724z"/>
			<text transform="matrix(1 0 0 1 62.3872 240.1631)"><tspan x="0" y="0" style="fill:#000000;stroke:none;">Auglaize</tspan></text>
		</g>
		<g>
			<path d="M539.986,358.704l4.836-6.049l-2.413-8.47h6.048l3.624-16.93l-1.21-4.84l6.047-15.727l-7.257-2.417l-14.512,1.205l-47.172-2.412l-1.211,37.494l-1.208,13.301l54.428,4.844z"/>
			<text transform="matrix(1 0 0 1 499.8735 334.5117)"><tspan x="0" y="0" style="fill:#000000;stroke:none;">Belmont</tspan></text>
		</g>
		<g>
			<path d="M105.757,538.925l7.258-79.83l15.724,1.209l-1.211,38.704h30.24l-4.838,62.901l-27.818-19.357l-8.467-4.837l-10.886,1.21z"/>
			<text transform="matrix(1 0 0 1 115.7764 523.1982)"><tspan x="0" y="0" style="fill:#000000;stroke:none;">Brown</tspan></text>
		</g>
		<g>
			<path d="M47.695,402.241l18.144,1.214v49.593l-64.105-1.212v-36.287v-8.463h45.962v-4.845z"/>
			<text transform="matrix(1 0 0 1 20.1221 432.4814)"><tspan x="0" y="0" style="fill:#000000;stroke:none;">Butler</tspan></text>
		</g>
		<g>
			<path d="M506.121,209.923l22.98-1.207v14.515l7.259,1.212l1.205,6.047l-1.205,7.257h-7.259l-3.632,22.983l-44.751-3.635v-20.558l-7.256-1.21l1.207-13.308l9.674-1.209v-10.888h21.777z"/>
			<text transform="matrix(1 0 0 1 490.186 235.3271)"><tspan x="0" y="0" style="fill:#000000;stroke:none;">Carroll</tspan></text>
		</g>
		<g>
			<path d="M109.384,288.546l62.899,4.837l8.464,1.211l-2.417,20.563l-1.21,16.932l-68.948-6.048v-22.976l1.211-14.52z"/>
			<text transform="matrix(1 0 0 1 117.6831 310.3203)"><tspan x="0" y="0" style="fill:#000000;stroke:none;">Champaign</tspan></text>
		</g>
		<g>
			<path d="M161.398,372.002l6.048,1.211l9.674-41.124l-68.948-6.048l-3.627,27.819v4.844l30.24,6.048v3.624l26.613,3.626z"/>
			<text transform="matrix(1 0 0 1 129.1655 351.4443)"><tspan x="0" y="0" style="fill:#000000;stroke:none;">Clark</tspan></text>
		</g>
		<g>
			<path d="M70.681,500.216l10.886,25.405v6.049l24.19,7.255l7.258-79.83h-2.419l-32.661-1.211l-7.253,8.468v33.864z"/>
			<text transform="matrix(1 0 0 1 73.3784 499.0078)"><tspan x="0" y="0" style="fill:#000000;stroke:none;">Clermont</tspan></text>
		</g>
		<g>
			<path d="M168.651,439.74l1.211-27.816l-12.095-2.424l-42.336-2.414l-4.836,52.009h2.419l15.724,1.209h7.258l32.655-20.563z"/>
			<text transform="matrix(1 0 0 1 121.6421 436.1113)"><tspan x="0" y="0" style="fill:#000000;stroke:none;">Clinton</tspan></text>
		</g>
		<g>
			<path d="M560.549,234.115l2.416-3.626l18.144-6.047l1.212-35.079v-9.679l-50.803-1.208h-25.397v31.447l22.98-1.207v14.515l7.259,1.212l1.205,6.047l22.984,3.626z"/>
			<text transform="matrix(1 0 0 1 516.9321 202.668)"><tspan x="0" y="0" style="fill:#000000;stroke:none;">Columbiana</tspan></text>
		</g>
		<g>
			<path d="M357.344,253.471l65.312,3.624v10.892l12.096,2.416l-1.205,24.191l-7.256-1.211l1.211,13.307l-7.26-1.212l-64.109-2.412l-1.206-10.889l2.418-38.706z"/>
			<text transform="matrix(1 0 0 1 368.5122 284.9199)"><tspan x="0" y="0" style="fill:#000000;stroke:none;">Coshocton</tspan></text>
		</g>
		<g>
			<path d="M283.557,163.963h-14.509l-37.499,1.211v49.589l35.076-1.206l16.932-2.423v-47.171z"/>
			<text transform="matrix(1 0 0 1 237.8774 191.7798)"><tspan x="0" y="0" style="fill:#000000;stroke:none;">Crawford</tspan></text>
		</g>
		<g>
			<path d="M399.676,115.58l-1.211-13.304h-13.299l1.202-21.769l39.922-3.634l24.188-21.77v9.673l14.513,1.211l-2.417,37.496l-25.399-1.208l3.624,14.516h-15.72l-25.403-1.211z"/>
			<text transform="matrix(1 0 0 1 399.8599 93.8057)"><tspan x="0" y="0" style="fill:#000000;stroke:none;">Cuyahoga</tspan></text>
		</g>
		<g>
			<path d="M51.328,275.242h1.211l1.204,25.399l1.21,47.172l-8.461,1.212l-44.758-1.212l-1.21-15.725l1.21-49.59v-7.257h49.594z"/>
			<text transform="matrix(1 0 0 1 15.0098 313.9453)"><tspan x="0" y="0" style="fill:#000000;stroke:none;">Darke</tspan></text>
		</g>
		<g>
			<path d="M80.356,136.14l-1.211-43.538l-14.511,1.203L2.945,91.392l1.211,26.605l-1.211,3.631h45.96v6.047l14.519,1.211l1.21,7.253h15.723z"/>
			<text transform="matrix(1 0 0 1 24.3345 113.1602)"><tspan x="0" y="0" style="fill:#000000;stroke:none;">Defiance</tspan></text>
		</g>
		<g>
			<path d="M282.353,284.92l1.204-12.095l-25.396-1.214v-8.466l-14.515-1.208l-29.028-4.843v33.874h8.465l1.208,18.142l56.854,2.416l1.209-26.606z"/>
			<text transform="matrix(1 0 0 1 226.1499 287.334)"><tspan x="0" y="0" style="fill:#000000;stroke:none;">Delaware</tspan></text>
		</g>
		<g>
			<path d="M269.048,113.16l-4.839-21.769l26.608-8.471l27.822,15.729l15.721-7.259v21.769h-65.312z"/>
			<text transform="matrix(1 0 0 1 283.1343 103.4844)"><tspan x="0" y="0" style="fill:#000000;stroke:none;">Erie</tspan></text>
		</g>
		<g>
			<path d="M321.056,346.608l-42.335-2.423h-3.626l-2.422,24.19l-1.211,39.913h13.307l15.728-1.203l1.205-7.262l14.516,1.214l2.422-9.679h13.302v-14.512h-3.628l1.214-14.519l-10.888-1.208l2.417-14.513z"/>
			<text transform="matrix(1 0 0 1 281.5044 375.6367)"><tspan x="0" y="0" style="fill:#000000;stroke:none;">Fairfield</tspan></text>
		</g>
		<g>
			<path d="M218.242,315.157l6.048-1.212v-4.835l56.854,2.416l-2.423,32.659h-3.626l-2.422,24.19l-56.846-1.208l-2.421-19.354h3.627l-3.627-6.049l-1.211-16.933h7.259l-1.212-9.675z"/>
			<text transform="matrix(1 0 0 1 227.0732 338.1377)"><tspan x="0" y="0" style="fill:#000000;stroke:none;">Franklin</tspan></text>
		</g>
		<g>
			<path d="M65.839,82.921L58.587,44.22h3.625l65.315-3.634l-2.417,42.335H65.839z"/>
			<text transform="matrix(1 0 0 1 77.3433 65.9888)"><tspan x="0" y="0" style="fill:#000000;stroke:none;">Fulton</tspan></text>
		</g>
		<g>
			<path d="M344.034,572.79l9.682-2.417l2.417-21.774l-2.417-13.304l9.677-6.049l3.631-21.768l4.84-4.841l-31.454-3.63l-15.722-2.417l-3.631,30.239l-15.721,1.208v10.887h12.095l2.415,15.723l15.727,1.211l-1.212,14.515l9.674,2.417z"/>
			<text transform="matrix(1 0 0 1 321.5767 537.7148)"><tspan x="0" y="0" style="fill:#000000;stroke:none;">Gallia</tspan></text>
		</g>
		<g>
			<path d="M464.992,65.989h10.89l2.417-12.096l24.188-1.21V40.585h13.311v38.707v24.192h-53.223l2.417-37.496z"/>
			<text transform="matrix(1 0 0 1 470.1841 81.71)"><tspan x="0" y="0" style="fill:#000000;stroke:none;">Geauga</tspan></text>
		</g>
		<g>
			<path d="M160.186,382.896l1.212-10.894l-26.613-3.626v-3.624l-30.24-6.048l-6.046,2.417l-3.626,43.543l20.559,2.422l42.336,2.414l2.419-26.604z"/>
			<text transform="matrix(1 0 0 1 112.0615 390.1455)"><tspan x="0" y="0" style="fill:#000000;stroke:none;">Greene</tspan></text>
		</g>
		<g>
			<path d="M420.242,305.478l-1.21,37.499l4.836,1.209v15.72h15.729v-10.88l25.395-3.627l1.212-6.047l20.563,1.208l1.211-37.494l-15.727-1.216l-1.212-6.047l-37.492-1.209l-7.256-1.211l1.211,13.307l-7.26-1.212z"/>
			<text transform="matrix(1 0 0 1 431.2192 326.041)"><tspan x="0" y="0" style="fill:#000000;stroke:none;">Guernsey</tspan></text>
		</g>
		<g>
			<path d="M0.523,484.495l12.096-2.42l15.728,8.467l15.721-3.63l7.259-2.417l3.625,7.259l15.728,8.462v-33.864l7.253-8.468l-1.206-3.629l-10.889-1.207l-64.105-1.212l-1.21,32.659z"/>
			<text transform="matrix(1 0 0 1 20.7144 473.6104)"><tspan x="0" y="0" style="fill:#000000;stroke:none;">Hamilton</tspan></text>
		</g>
		<g>
			<path d="M190.426,165.175l-1.211-30.239l-61.687,1.205v43.544l1.211,14.518h48.381l6.048-29.028h7.258z"/>
			<text transform="matrix(1 0 0 1 136.9746 166.8848)"><tspan x="0" y="0" style="fill:#000000;stroke:none;">Hancock</tspan></text>
		</g>
		<g>
			<path d="M190.426,247.422l-1.211-30.24h-1.209l-7.258-2.418l-3.627-20.561h-48.381v30.24v19.351l24.19,1.207l22.982,3.634l14.515-1.212z"/>
			<text transform="matrix(1 0 0 1 145.457 222.0195)"><tspan x="0" y="0" style="fill:#000000;stroke:none;">Hardin</tspan></text>
		</g>
		<g>
			<path d="M471.039,295.803l1.212,6.047l15.727,1.216l47.172,2.412l1.211-44.748h-10.891l-44.751-3.635l-1.209,22.987h-7.259l-1.212,15.721z"/>
			<text transform="matrix(1 0 0 1 486.0161 283.7061)"><tspan x="0" y="0" style="fill:#000000;stroke:none;">Harrison</tspan></text>
		</g>
		<g>
			<path d="M64.633,93.806l1.206-10.885h59.271l1.206,10.885l1.211,42.334H80.356l-1.211-43.538l-14.511,1.203z"/>
			<text transform="matrix(1 0 0 1 87.5835 113.1602)"><tspan x="0" y="0" style="fill:#000000;stroke:none;">Henry</tspan></text>
		</g>
		<g>
			<path d="M200.099,468.768v-10.884l-3.625,2.42l-1.21-13.305l3.625-7.259h-30.238l-32.655,20.563h-7.258l-1.211,38.704h30.24h13.304l26.614-7.254l2.414-22.986z"/>
			<text transform="matrix(1 0 0 1 144.0781 477.2383)"><tspan x="0" y="0" style="fill:#000000;stroke:none;">Highland</tspan></text>
		</g>
		<g>
			<path d="M284.769,408.289v14.519l-2.416,16.933l61.681-3.629l1.213-14.516h14.517v-14.51l-26.611-6.048l-1.211-9.679h-13.302l-2.422,9.679l-14.516-1.214l-1.205,7.262l-15.728,1.203z"/>
			<text transform="matrix(1 0 0 1 298.1528 424.0156)"><tspan x="0" y="0" style="fill:#000000;stroke:none;">Hocking</tspan></text>
		</g>
		<g>
			<path d="M351.296,236.537v-18.144H364.6h65.314v4.837l-2.413,1.212v32.652h-4.846l-65.312-3.624v-18.144l-6.048,1.21z"/>
			<text transform="matrix(1 0 0 1 375.4683 240.1631)"><tspan x="0" y="0" style="fill:#000000;stroke:none;">Holmes</tspan></text>
		</g>
		<g>
			<path d="M267.837,120.42l1.211-7.26h65.312v38.707h-10.88l-1.215,13.308l-38.708-1.211h-14.509l-1.211-43.543z"/>
			<text transform="matrix(1 0 0 1 285.6284 141.9834)"><tspan x="0" y="0" style="fill:#000000;stroke:none;">Huron</tspan></text>
		</g>
		<g>
			<path d="M277.51,473.61h3.634l-1.214-7.259l32.662,4.839l-1.212,4.834l14.513,3.635l-1.206,16.932l-3.631,30.239l-15.721,1.208l-10.888-1.208l-14.518-2.42l2.423-13.307h-7.258l2.415-37.493z"/>
			<text transform="matrix(1 0 0 1 280.9458 500.2158)"><tspan x="0" y="0" style="fill:#000000;stroke:none;">Jackson</tspan></text>
		</g>
		<g>
			<path d="M556.917,306.689l1.212-4.84l10.885-20.563l-1.212-16.933l1.212-9.674v-6.047l-8.465-14.519l-22.984-3.626l-1.205,7.257h-7.259l-3.632,22.983h10.891l-1.211,44.748l14.512-1.205l7.257,2.417z"/>
			<text transform="matrix(1 0 0 1 544.7896 272.9092)"><tspan x="0" y="0" style="fill:#000000;stroke:none;">Jefferson</tspan></text>
		</g>
		<g>
			<path d="M336.784,238.955h-38.708l-2.422,33.87h-12.097l-1.204,12.095l72.573,7.257l2.418-38.706v-18.144l-6.048,1.21l-14.513,2.418z"/>
			<text transform="matrix(1 0 0 1 314.4966 267.9863)"><tspan x="0" y="0" style="fill:#000000;stroke:none;">Knox</tspan></text>
		</g>
		<g>
			<path d="M464.992,65.989l-14.513-1.211v-9.673l20.56-18.144l22.986-7.259l21.772-9.673v20.558h-13.311v12.097l-24.188,1.21l-2.417,12.096h-10.89z"/>
			<text transform="matrix(1 0 0 1 469.8755 47.8452)"><tspan x="0" y="0" style="fill:#000000;stroke:none;">Lake</tspan></text>
		</g>
		<g>
			<path d="M273.885,572.79l13.308,4.84l8.461,7.256l4.843,4.837l3.624,9.682l10.889,1.209l22.979-6.049l6.046-21.774l-9.674-2.417l1.212-14.515l-15.727-1.211l-2.415-15.723h-12.095v-10.887l-10.888-1.208l-4.842,26.608h-9.676l3.627,14.515l-9.672,4.837z"/>
			<text transform="matrix(1 0 0 1 289.7007 576.4219)"><tspan x="0" y="0" style="fill:#000000;stroke:none;">Lawrence</tspan></text>
		</g>
		<g>
			<path d="M282.353,284.92l-1.209,26.606l-2.423,32.659l42.335,2.423l27.823,1.205l6.047-7.254l1.206-37.494l-1.206-10.889l-72.573-7.257z"/>
			<text transform="matrix(1 0 0 1 303.0747 322.416)"><tspan x="0" y="0" style="fill:#000000;stroke:none;">Licking</tspan></text>
		</g>
		<g>
			<path d="M128.739,243.793l24.19,1.207l22.982,3.634l-3.628,44.749l-62.899-4.837l2.421-4.84l1.21-30.235v-9.678h15.724z"/>
			<text transform="matrix(1 0 0 1 128.1406 270.4023)"><tspan x="0" y="0" style="fill:#000000;stroke:none;">Logan</tspan></text>
		</g>
		<g>
			<path d="M334.36,113.16V91.392l38.71-12.099l13.299,1.215l-1.202,21.769h13.299l1.211,13.304h-13.308v12.096l-13.299,1.211v10.884h-13.307v13.307l-25.403-1.211V113.16z"/>
			<text transform="matrix(1 0 0 1 348.2817 114.3721)"><tspan x="0" y="0" style="fill:#000000;stroke:none;">Lorain</tspan></text>
		</g>
		<g>
			<path d="M125.11,82.921l2.417-42.335l15.727,1.212l43.541-3.625l3.631,7.25l33.864,12.096l-35.076,2.423h-21.769l-41.13,33.865l-1.206-10.885z"/>
			<text transform="matrix(1 0 0 1 135.96 56.3159)"><tspan x="0" y="0" style="fill:#000000;stroke:none;">Lucas</tspan></text>
		</g>
		<g>
			<path d="M178.331,315.157h39.912l1.212,9.675h-7.259l1.211,16.933l3.627,6.049h-3.627l2.421,19.354l-2.421,18.145l-53.22-2.417l1.212-10.894l6.048,1.211l9.674-41.124l1.21-16.932z"/>
			<text transform="matrix(1 0 0 1 175.2461 357.8506)"><tspan x="0" y="0" style="fill:#000000;stroke:none;">Madison</tspan></text>
		</g>
		<g>
			<path d="M582.321,179.685l-1.212-37.496l-64.104-2.417v24.192h-10.885v14.513h25.397l50.803,1.208z"/>
			<g>
				<text transform="matrix(1 0 0 1 528.0356 166.3799)"><tspan x="0" y="0" style="fill:#000000;stroke:none;">Mahoning</tspan></text>
			</g>
		</g>
		<g>
			<path d="M231.55,214.764l35.076-1.206l1.211,8.462l-14.519,1.211v26.611l-9.673,2.417v9.679l-29.028-4.843l-1.211-10.885l-22.98,1.212l-1.211-30.24l42.335-2.418z"/>
			<text transform="matrix(1 0 0 1 210.2188 236.5371)"><tspan x="0" y="0" style="fill:#000000;stroke:none;">Marion</tspan></text>
		</g>
		<g>
			<path d="M425.08,116.792l-25.403-1.211h-13.308v12.096l-13.299,1.211v10.884h-13.307v13.307l-1.211,10.885l6.048,1.211h60.479v-48.383z"/>
			<text transform="matrix(1 0 0 1 380.8638 147.0308)"><tspan x="0" y="0" style="fill:#000000;stroke:none;">Medina</tspan></text>
		</g>
		<g>
			<path d="M371.863,502.638l7.256-3.63l15.721,10.889l-3.625,10.886h6.048l3.624-1.208l2.424-8.471l9.672,1.208v-12.096l-7.255-6.048v-4.834l10.882-4.839l-1.203-13.305l-68.949-3.625l-4.836,1.202l-1.212,30.24l31.454,3.63z"/>
			<text transform="matrix(1 0 0 1 360.938 488.1201)"><tspan x="0" y="0" style="fill:#000000;stroke:none;">Meigs</tspan></text>
		</g>
		<g>
			<path d="M51.328,275.242l-2.423-55.637l1.211-7.259l-48.383-1.212v27.82v36.287h49.594z"/>
			<text transform="matrix(1 0 0 1 9.1597 243.793)"><tspan x="0" y="0" style="fill:#000000;stroke:none;">Mercer</tspan></text>
		</g>
		<g>
			<path d="M108.172,303.065v22.976l-3.627,27.819l-14.516-2.416v-4.836l-35.076,1.205l-1.21-47.172l54.429,2.424z"/>
			<text transform="matrix(1 0 0 1 65.812 324.832)"><tspan x="0" y="0" style="fill:#000000;stroke:none;">Miami</tspan></text>
		</g>
		<g>
			<path d="M513.375,409.5l6.048-7.259l8.468-2.417l4.84-4.833l2.419-9.679l3.625-4.841l-1.209-8.47l3.633-8.462l-1.212-4.836l-54.428-4.844h-9.677l-1.212,27.823h6.049l-2.42,16.933l4.837,3.625l30.239,1.214v6.045z"/>
			<text transform="matrix(1 0 0 1 490.3735 382.8955)"><tspan x="0" y="0" style="fill:#000000;stroke:none;">Monroe</tspan></text>
		</g>
		<g>
			<path d="M54.953,347.813l35.076-1.205v4.836l14.516,2.416v4.844l-6.046,2.417l-3.626,43.543l-29.034-1.209l-18.144-1.214l-1.204-53.216l8.461-1.212z"/>
			<text transform="matrix(1 0 0 1 52.3574 375.5947)"><tspan x="0" y="0" style="fill:#000000;stroke:none;">Montgomery</tspan></text>
		</g>
		<g>
			<path d="M371.863,370.8l52.005,3.625h6.047v12.096l9.683,1.208l-1.212,14.513h-18.144l1.211,15.729l-14.518-1.211l-3.625,8.472l-27.823-1.216v-15.727l3.632-27.817h-8.47l1.214-9.672z"/>
			<text transform="matrix(1 0 0 1 391.1938 396.1943)"><tspan x="0" y="0" style="fill:#000000;stroke:none;">Morgan</tspan></text>
		</g>
		<g>
			<path d="M266.625,213.558l16.932-2.423h15.73l-1.212,27.82l-2.422,33.87h-12.097l-25.396-1.214v-8.466l-14.515-1.208v-9.679l9.673-2.417V223.23l14.519-1.211l-1.211-8.462z"/>
			<text transform="matrix(1 0 0 1 257.2178 246.21)"><tspan x="0" y="0" style="fill:#000000;stroke:none;">Morrow</tspan></text>
		</g>
		<g>
			<path d="M356.132,303.065l64.109,2.412l-1.21,37.499l4.836,1.209v15.72v14.52l-52.005-3.625l1.207-6.048h-13.307v-15.727l-10.884-1.212l6.047-7.254l1.206-37.494z"/>
			<text transform="matrix(1 0 0 1 364.4399 350.2334)"><tspan x="0" y="0" style="fill:#000000;stroke:none;">Muskingum</tspan></text>
		</g>
		<g>
			<path d="M486.766,340.56l-1.208,13.301h-9.677l-1.212,27.823h6.049l-2.42,16.933l-13.307,1.208l-9.674-8.465l-1.211,10.882h-15.722l1.212-14.513l-9.683-1.208v-12.096h-6.047v-14.52h15.729v-10.88l25.395-3.627l1.212-6.047l20.563,1.208z"/>
			<text transform="matrix(1 0 0 1 437.4146 375.6367)"><tspan x="0" y="0" style="fill:#000000;stroke:none;">Noble</tspan></text>
		</g>
		<g>
			<path d="M189.214,59.941l35.076-2.423l31.451,16.941l-6.048,12.096h-49.595v-7.263h-10.884V59.941z"/>
			<text transform="matrix(1 0 0 1 207.2422 75.6621)"><tspan x="0" y="0" style="fill:#000000;stroke:none;">Ottawa</tspan></text>
		</g>
		<g>
			<path d="M57.375,167.588h6.048l1.21-31.448l-1.21-7.253l-14.519-1.211v-6.047H2.945v44.751l54.43,1.208z"/>
			<text transform="matrix(1 0 0 1 12.5137 145.8193)"><tspan x="0" y="0" style="fill:#000000;stroke:none;">Paulding</tspan></text>
		</g>
		<g>
			<path d="M371.863,370.8l1.207-6.048h-13.307v-15.727l-10.884-1.212l-27.823-1.205l-2.417,14.513l10.888,1.208l-1.214,14.519h3.628v14.512l1.211,9.679l26.611,6.048l15.724,1.203l3.632-27.817h-8.47l1.214-9.672z"/>
			<text transform="matrix(1 0 0 1 340.5571 384.0977)"><tspan x="0" y="0" style="fill:#000000;stroke:none;">Perry</tspan></text>
		</g>
		<g>
			<path d="M272.673,368.376l-1.211,39.913h13.307v14.519l-72.574-6.048l1.211-31.447l2.421-18.145l56.846,1.208z"/>
			<text transform="matrix(1 0 0 1 220.106 398.6162)"><tspan x="0" y="0" style="fill:#000000;stroke:none;">Pickaway</tspan></text>
		</g>
		<g>
			<path d="M197.685,491.754l2.414-22.986l77.412,4.843l-2.415,37.493l-55.641-3.625v-6.048h-7.259l-14.51-9.677z"/>
			<text transform="matrix(1 0 0 1 229.082 492.959)"><tspan x="0" y="0" style="fill:#000000;stroke:none;">Pike</tspan></text>
		</g>
		<g>
			<path d="M462.575,103.484h53.223l1.208,36.287v24.192h-10.885h-42.332l-1.214-60.479z"/>
			<text transform="matrix(1 0 0 1 476.5122 137.3486)"><tspan x="0" y="0" style="fill:#000000;stroke:none;">Portage</tspan></text>
		</g>
		<g>
			<path d="M46.492,349.025l1.204,53.216v4.845H1.733v-26.614v-32.658l44.758,1.212z"/>
			<text transform="matrix(1 0 0 1 9.0503 384.0977)"><tspan x="0" y="0" style="fill:#000000;stroke:none;">Preble</tspan></text>
		</g>
		<g>
			<path d="M80.356,136.14h47.171v43.544l-31.451,1.21l1.211,8.468H64.633l-1.21-7.256l-6.048-1.212v-13.307h6.048l1.21-31.448h15.723z"/>
			<text transform="matrix(1 0 0 1 72.7979 166.3799)"><tspan x="0" y="0" style="fill:#000000;stroke:none;">Putnam</tspan></text>
		</g>
		<g>
			<path d="M322.265,165.175l-38.708-1.211v47.171h15.73l-1.212,27.82h38.708v-29.032l-7.257-1.207v-10.888l-4.84-3.625l-2.422-29.028z"/>
			<text transform="matrix(1 0 0 1 285.8794 207.5068)"><tspan x="0" y="0" style="fill:#000000;stroke:none;">Richland</tspan></text>
		</g>
		<g>
			<path d="M198.889,439.74l13.306-22.98l72.574,6.048l-2.416,16.933l-2.423,26.611l1.214,7.259h-3.634l-77.412-4.843v-10.884l-3.625,2.42l-1.21-13.305l3.625-7.259z"/>
			<text transform="matrix(1 0 0 1 228.6289 446.999)"><tspan x="0" y="0" style="fill:#000000;stroke:none;">Ross</tspan></text>
		</g>
		<g>
			<path d="M189.214,79.292l1.211,41.127h77.411l1.211-7.26l-4.839-21.769l-14.516-4.836h-49.595v-7.263h-10.884z"/>
			<text transform="matrix(1 0 0 1 208.3804 103.4844)"><tspan x="0" y="0" style="fill:#000000;stroke:none;">Sandusky</tspan></text>
		</g>
		<g>
			<path d="M214.617,565.534l-2.422-64.104h7.259v6.048l55.641,3.625h7.258l-2.423,13.307l14.518,2.42l-4.842,26.608h-9.676l3.627,14.515l-9.672,4.837l-6.048-4.837L263,544.974l-18.144,4.836l-10.884,7.26l-4.843,7.256l-14.512,1.209z"/>
			<text transform="matrix(1 0 0 1 237.0088 532.8779)"><tspan x="0" y="0" style="fill:#000000;stroke:none;">Scioto</tspan></text>
		</g>
		<g>
			<path d="M269.048,163.963l-1.211-43.543h-77.411l-1.211,14.516l1.211,30.239h41.124l37.499-1.211z"/>
			<text transform="matrix(1 0 0 1 212.1709 147.0308)"><tspan x="0" y="0" style="fill:#000000;stroke:none;">Seneca</tspan></text>
		</g>
		<g>
			<path d="M52.539,275.242l1.204,25.399l54.429,2.424l1.211-14.52l2.421-4.84l1.21-30.235l-49.591-1.212v18.144l-10.884,4.84z"/>
			<text transform="matrix(1 0 0 1 71.1152 283.7061)"><tspan x="0" y="0" style="fill:#000000;stroke:none;">Shelby</tspan></text>
		</g>
		<g>
			<path d="M429.915,178.476v39.917v4.837l19.355-2.42l25.399,1.209l9.674-1.209v-10.888h21.777v-31.447v-14.513h-42.332l-3.634,1.211v13.301h-30.24z"/>
			<text transform="matrix(1 0 0 1 454.5337 197.8276)"><tspan x="0" y="0" style="fill:#000000;stroke:none;">Stark</tspan></text>
		</g>
		<g>
			<path d="M462.575,103.484l-25.399-1.208l3.624,14.516h-15.72v48.383l4.835-1.211v14.513h30.24v-13.301l3.634-1.211l-1.214-60.479z"/>
			<text transform="matrix(1 0 0 1 427.4849 149.4478)"><tspan x="0" y="0" style="fill:#000000;stroke:none;">Summit</tspan></text>
		</g>
		<g>
			<path d="M581.109,142.188V84.132l-1.208-4.84h-64.104v24.192l1.208,36.287l64.104,2.417z"/>
			<text transform="matrix(1 0 0 1 529.9849 113.7061)"><tspan x="0" y="0" style="fill:#000000;stroke:none;">Trumbull</tspan></text>
		</g>
		<g>
			<path d="M429.915,223.23l19.355-2.42l25.399,1.209l-1.207,13.308l7.256,1.21v20.558l-1.209,22.987h-7.259l-1.212,15.721l-37.492-1.209l1.205-24.191l-12.096-2.416v-10.892h4.846v-32.652l2.413-1.212z"/>
			<text transform="matrix(1 0 0 1 431.7231 266.3955)"><tspan x="0" y="0" style="fill:#000000;stroke:none;">Tuscarawas</tspan></text>
		</g>
		<g>
			<path d="M214.617,257.095l-1.211-10.885l-22.98,1.212l-14.515,1.212l-3.628,44.749l8.464,1.211l-2.417,20.563h39.912l6.048-1.212v-4.835l-1.208-18.142h-8.465v-33.874z"/>
			<text transform="matrix(1 0 0 1 181.0283 288.417)"><tspan x="0" y="0" style="fill:#000000;stroke:none;">Union</tspan></text>
		</g>
		<g>
			<path d="M64.633,189.363l-1.21-7.256l-6.048-1.212v-13.307l-54.43-1.208v12.096l-1.211,32.659l48.383,1.212l-1.211,7.259l9.682-1.212V196.62l4.836-1.208l1.21-6.048z"/>
			<text transform="matrix(1 0 0 1 12.8052 190.5713)"><tspan x="0" y="0" style="fill:#000000;stroke:none;">Van Wert</tspan></text>
		</g>
		<g>
			<path d="M346.457,467.565l1.211-14.518l-4.837-1.212l1.203-15.725l-61.681,3.629l-2.423,26.611l32.662,4.839l-1.212,4.834l14.513,3.635l-1.206,16.932l15.722,2.417l1.212-30.24l4.836-1.202z"/>
			<text transform="matrix(1 0 0 1 300.9224 456.6719)"><tspan x="0" y="0" style="fill:#000000;stroke:none;">Vinton</tspan></text>
		</g>
		<g>
			<path d="M94.873,404.664l20.559,2.422l-4.836,52.009l-32.661-1.211l-1.206-3.629l-10.889-1.207v-49.593l29.034,1.209z"/>
			<text transform="matrix(1 0 0 1 72.6191 436.1113)"><tspan x="0" y="0" style="fill:#000000;stroke:none;">Warren</tspan></text>
		</g>
		<g>
			<path d="M417.82,465.143l1.212-9.674l-10.885-2.421l-6.049-7.26l1.212-20.557l3.625-8.472l14.518,1.211l-1.211-15.729h18.144h15.722l1.211-10.882l9.674,8.465l13.307-1.208l4.837,3.625l30.239,1.214v6.045l-10.888,12.096l-3.625,3.636l-13.304,10.88
				l-18.146,6.048l-10.887-9.678l-14.516,10.893l-4.835,12.095h-8.471l-10.885,9.674z"/>
			<text transform="matrix(1 0 0 1 430.3071 426.4326)"><tspan x="0" y="0" style="fill:#000000;stroke:none;">Washington</tspan></text>
		</g>
		<g>
			<path d="M364.6,218.394h65.314v-39.917v-14.513l-4.835,1.211H364.6v53.219z"/>
			<text transform="matrix(1 0 0 1 379.4634 196.6196)"><tspan x="0" y="0" style="fill:#000000;stroke:none;">Wayne</tspan></text>
		</g>
		<g>
			<path d="M64.633,93.806l1.206-10.885L58.587,44.22L4.156,45.422L2.945,74.459v16.933l61.688,2.414z"/>
			<text transform="matrix(1 0 0 1 13.3657 72.0366)"><tspan x="0" y="0" style="fill:#000000;stroke:none;">Williams</tspan></text>
		</g>
		<g>
			<path d="M126.316,93.806l41.13-33.865h21.769v19.352l1.211,41.127l-1.211,14.516l-61.687,1.205l-1.211-42.334z"/>
			<text transform="matrix(1 0 0 1 147.2148 110.7437)"><tspan x="0" y="0" style="fill:#000000;stroke:none;">Wood</tspan></text>
		</g>
		<g>
			<path d="M190.426,165.175h41.124v49.589l-42.335,2.418h-1.209l-7.258-2.418l-3.627-20.561l6.048-29.028h7.258z"/>
			<text transform="matrix(1 0 0 1 185.251 195.4111)"><tspan x="0" y="0" style="fill:#000000;stroke:none;">Wyandot</tspan></text>
		</g>
		<g>
			<path d="M213.406,385.313l-53.22-2.417l-2.419,26.604l12.095,2.424l-1.211,27.816h30.238l13.306-22.98l1.211-31.447z"/>
			<text transform="matrix(1 0 0 1 170.1201 405.876)"><tspan x="0" y="0" style="fill:#000000;stroke:none;">Fayette</tspan></text>
		</g>
	</g>
</svg>
