<?xml version="1.0" encoding="iso-8859-1"?>
<!DOCTYPE svg >

<svg  width="801.301pt" height="440.935pt" viewBox="0 0 801.301 440.935" xml:space="preserve">
	<g id="Layer_x0020_1" style="fill-rule:nonzero;clip-rule:nonzero;fill:#FFFFFF;stroke:#000000;stroke-miterlimit:4; font-family:'Arial'; font-size:10;">
		<g>
			<path d="M425.293,395.979l11.114-6.178l24.695-3.702l7.413-7.409l18.522,12.35l6.174,25.933l-7.411,1.229l1.237,19.758h-30.872h-32.107l1.234-41.98z"/>
			<text transform="matrix(1 0 0 1 444.3071 418.2017)"><tspan x="0" y="0" style="fill:#000000;stroke:none;">Adams</tspan></text>
		</g>
		<g>
			<path d="M53.603,274.964h61.742l-1.235,6.175l-7.409,7.404v6.174l7.409,4.945l1.235,18.521l-9.881,6.175l-1.23,27.162l-9.883,7.412l-13.584-4.939l3.709-6.175l-35.81-12.349l-23.468-27.167l24.698-22.226h3.707v-11.112z"/>
			<text transform="matrix(1 0 0 1 52.6309 314.4761)"><tspan x="0" y="0" style="fill:#000000;stroke:none;">Allegheny</tspan></text>
		</g>
		<g>
			<path d="M115.345,193.462l6.176,16.051l7.411,3.707l3.699,7.404l28.401-1.23l20.995-9.881v24.695v22.233l-32.107,44.45l-16.051-7.404l1.235-6.175l-13.583-12.349h-6.176v-81.502z"/>
			<text transform="matrix(1 0 0 1 124.3931 250.2671)"><tspan x="0" y="0" style="fill:#000000;stroke:none;">Armstrong</tspan></text>
		</g>
		<g>
			<path d="M52.368,245.322l1.235,29.643v11.112h-3.707l-24.698,22.226l-23.46,1.233v-29.634l1.235-35.81l49.396,1.229z"/>
			<text transform="matrix(1 0 0 1 13.0645 276.1948)"><tspan x="0" y="0" style="fill:#000000;stroke:none;">Beaver</tspan></text>
		</g>
		<g>
			<path d="M566.066,305.837l60.508-17.294l2.473-9.876l13.578-4.94l46.928,38.281l-22.23,37.048l-6.175,1.229l-18.522,16.056l-39.512-30.872l-37.047-29.632z"/>
			<text transform="matrix(1 0 0 1 622.439 324.3579)"><tspan x="0" y="0" style="fill:#000000;stroke:none;">Berks</tspan></text>
		</g>
		<g>
			<path d="M331.445,363.869l-16.057-12.349l-2.467-8.639l-2.472,6.175l-20.988-9.883l-1.238,8.645l-9.882-8.645l-14.814-3.704l-3.709,14.816l-13.578,28.404v41.984l-6.173,17.285l56.798,1.235l27.169-58.04l-3.701-4.937l8.639-4.938l2.473-7.412z"/>
			<text transform="matrix(1 0 0 1 265.7749 398.4487)"><tspan x="0" y="0" style="fill:#000000;stroke:none;">Bedford</tspan></text>
		</g>
		<g>
			<path d="M300.573,265.081l-61.742,1.237l-14.821,40.749l-7.409,14.818l-11.114,19.761l16.059-2.473l7.403,9.883l30.871,1.229l3.709-14.816l7.41-7.409l4.94-25.933l7.409-4.939l17.286-32.107z"/>
			<text transform="matrix(1 0 0 1 224.874 320.6509)"><tspan x="0" y="0" style="fill:#000000;stroke:none;">Cambria</tspan></text>
		</g>
		<g>
			<path d="M342.557,192.228l-7.409-11.115l-19.759-2.47l-55.57-3.704v6.174l-12.348-2.47l-7.404,20.993v35.81l-1.236,30.872l61.742-1.237l2.467-13.584l20.994-20.987l1.236-6.175l6.174,2.465l7.409-8.64v-7.409l-6.174-13.584l9.876-4.938z"/>
			<text transform="matrix(1 0 0 1 259.6938 225.5688)"><tspan x="0" y="0" style="fill:#000000;stroke:none;">Clearfield</tspan></text>
		</g>
		<g>
			<path d="M351.203,136.657v17.289l-16.056,27.167l7.409,11.115l20.996-17.289v12.349l14.815,1.235l7.41,12.349l23.46,4.939l8.647,22.226l49.396-16.051l-1.237-4.939l-13.585-17.291l-27.165-18.523l-12.349-14.814l-9.881-20.996l-51.86,1.235z"/>
			<text transform="matrix(1 0 0 1 383.7974 179.8784)"><tspan x="0" y="0" style="fill:#000000;stroke:none;">Clinton</tspan></text>
		</g>
		<g>
			<path d="M398.126,262.617l-9.876,2.464l-13.584-2.464l-17.288,8.638l-24.698-8.638l-13.584,14.813l7.409,6.175l-2.471,12.349l8.646-3.702l-4.944,12.35l4.944,1.237l-19.758,37.044l2.467,8.639l16.057,12.349l30.872,9.883l6.172,7.403l23.463-34.571l-7.412-17.286
				l-9.874,1.235l-8.646-4.942v-7.407l8.646-13.583l-2.475-9.883l13.586-12.348h7.41l4.939-19.753z"/>
			<text transform="matrix(1 0 0 1 325.627 346.5835)"><tspan x="0" y="0" style="fill:#000000;stroke:none;">Huntingdon</tspan></text>
		</g>
		<g>
			<path d="M270.938,328.06l4.94-25.933l7.409-4.939l17.286-32.107l32.107-2.464l-13.584,14.813l7.409,6.175l-2.471,12.349l8.646-3.702l-4.944,12.35l4.944,1.237l-19.758,37.044l-2.472,6.175l-20.988-9.883l-1.238,8.645l-9.882-8.645l-14.814-3.704l7.41-7.409z"/>
			<text transform="matrix(1 0 0 1 291.8066 309.5356)"><tspan x="0" y="0" style="fill:#000000;stroke:none;">Blair</tspan></text>
		</g>
		<g>
			<path d="M604.348,45.281h-56.803h-51.868l7.409,71.619h7.413l82.729,6.174l1.238-16.048l11.114-1.238l-1.232-60.507z"/>
			<text transform="matrix(1 0 0 1 528.3687 84.792)"><tspan x="0" y="0" style="fill:#000000;stroke:none;">Bradford</tspan></text>
		</g>
		<g>
			<path d="M767.345,381.155l2.472-9.874l-8.646-4.939l-64.209-49.396l11.11-14.818l8.643-6.175l18.522-11.111l1.235,2.472l16.059,4.938l1.227,20.987l13.587,6.178l7.409,12.347l18.523,18.523l6.175,12.349l-32.107,18.521z"/>
			<text transform="matrix(1 0 0 1 738.9155 335.4692)"><tspan x="0" y="0" style="fill:#000000;stroke:none;">Bucks</tspan></text>
		</g>
		<g>
			<path d="M116.583,189.755l-1.238,3.707v81.502H53.603l-1.235-29.643V218.16l8.646-9.884l12.348-17.286l43.221-1.234z"/>
			<text transform="matrix(1 0 0 1 67.7051 244.0923)"><tspan x="0" y="0" style="fill:#000000;stroke:none;">Butler</tspan></text>
		</g>
		<g>
			<path d="M320.334,111.959l-29.643,1.237l-1.229,2.467l2.464,33.342h20.996l2.467,29.637l19.759,2.47l16.056-27.167v-17.289h-8.646l-22.223-24.698z"/>
			<text transform="matrix(1 0 0 1 300.9995 142.832)"><tspan x="0" y="0" style="fill:#000000;stroke:none;">Cameron</tspan></text>
		</g>
		<g>
			<path d="M674.732,198.402l-17.287,3.699l2.473,14.824l-34.579,16.048l33.342,29.644l9.877-4.945l9.881-3.702l18.524-4.938l-13.585-22.232l11.112-8.64l-19.758-19.758z"/>
			<text transform="matrix(1 0 0 1 648.4565 237.9185)"><tspan x="0" y="0" style="fill:#000000;stroke:none;">Carbon</tspan></text>
		</g>
		<g>
			<path d="M467.281,211.986l-49.396,16.051l-8.647-22.226l-23.46-4.939l-7.41-12.349l-14.815-1.235v-12.349l-20.996,17.289l-9.876,4.938l6.174,13.584v7.409l-7.409,8.64l-6.174-2.465l-1.236,6.175l-20.994,20.987l-2.467,13.584l32.107-2.464l24.698,8.638
				l17.288-8.638l13.584,2.464l9.876-2.464l39.517-16.06l29.638-34.571z"/>
			<text transform="matrix(1 0 0 1 362.1235 235.4458)"><tspan x="0" y="0" style="fill:#000000;stroke:none;">Centre</tspan></text>
		</g>
		<g>
			<path d="M642.625,366.341l18.522-16.056l6.175-1.229h12.349l33.343,29.634l-27.168,27.162l-7.407,12.35l-8.646,4.945l-7.409,4.938l-3.702,9.874l-6.175-1.234h-41.983l16.052-25.928l8.646-39.517l7.405-4.939z"/>
			<text transform="matrix(1 0 0 1 649.814 388.5669)"><tspan x="0" y="0" style="fill:#000000;stroke:none;">Chester</tspan></text>
		</g>
		<g>
			<path d="M146.217,153.946l8.64-1.235l2.471-7.404h25.936v17.284l-1.237,46.923l-20.995,9.881l-28.401,1.23l-3.699-7.404l-7.411-3.707l-6.176-16.051l1.238-3.707l9.876-25.925l19.758-3.71v-6.174z"/>
			<text transform="matrix(1 0 0 1 134.0791 192.228)"><tspan x="0" y="0" style="fill:#000000;stroke:none;">Clarion</tspan></text>
		</g>
		<g>
			<path d="M559.892,173.704l7.411-7.409l14.814-1.237l1.237,20.996l4.937,8.646h4.937l2.473,32.1l-8.645,9.885l-3.701,13.583l-11.114,7.404l-4.938-9.877l-13.583-1.237l1.234-4.938v-14.82l-8.646-8.64l1.237-7.409l-8.649-2.475l-3.702-14.813h6.174l18.524-19.759z"
				/>
			<text transform="matrix(1 0 0 1 546.1831 211.9858)"><tspan x="0" y="0" style="fill:#000000;stroke:none;">Columbia</tspan></text>
		</g>
		<g>
			<path d="M126.459,74.916L0.5,73.681v58.04l1.238,4.937h14.819l56.805-1.235l24.697-22.226l29.635,1.238l-1.235-39.519z"/>
			<text transform="matrix(1 0 0 1 29.6128 107.0254)"><tspan x="0" y="0" style="fill:#000000;stroke:none;">Crawford</tspan></text>
		</g>
		<g>
			<path d="M425.293,395.979l11.114-6.178l24.695-3.702l7.413-7.409l14.815-13.584l13.581-2.472v-7.404l9.879-3.71l-7.404-8.639v-8.647l-66.689,8.647l4.945-8.647l-35.814,25.933l23.465,35.813z"/>
			<text transform="matrix(1 0 0 1 414.1089 367.5786)"><tspan x="0" y="0" style="fill:#000000;stroke:none;">Cumberland</tspan></text>
		</g>
		<g>
			<path d="M548.781,294.717l-20.996-16.05l-13.583,1.234l-18.524,6.175l-6.174,6.174l6.174,16.052l-12.346,16.056l16.056,9.876v8.647l7.404,8.639l7.41,4.939l11.11,12.35l19.761-12.35l-14.815-48.157l18.523-13.585z"/>
			<text transform="matrix(1 0 0 1 493.1108 328.0601)"><tspan x="0" y="0" style="fill:#000000;stroke:none;">Dauphin</tspan></text>
		</g>
		<g>
			<path d="M705.603,424.375l-8.641-6.174h-18.524l7.407-12.35l27.168-27.162l12.348,14.813l4.94,22.233l-13.586,2.465l-11.112,6.174z"/>
			<text transform="matrix(1 0 0 1 679.5425 409.562)"><tspan x="0" y="0" style="fill:#000000;stroke:none;">Delaware</tspan></text>
		</g>
		<g>
			<path d="M289.462,115.664h-7.41l-1.238-4.939l-61.742,1.235v32.109l-14.821-1.237l-3.702,17.288l16.051-4.94l32.107,18.523l-1.236,4.939l12.348,2.47v-6.174l55.57,3.704l-2.467-29.637h-20.996l-2.464-33.342z"/>
			<text transform="matrix(1 0 0 1 251.6436 147.7715)"><tspan x="0" y="0" style="fill:#000000;stroke:none;">Elk</tspan></text>
		</g>
		<g>
			<path d="M126.459,46.517l-20.996-1.236V0.825l-28.4,14.821l-18.521,9.876l1.236-7.412L41.254,31.697L25.198,44.044L0.5,51.456v22.225l125.959,1.235V46.517z"/>
			<text transform="matrix(1 0 0 1 63.2349 50.2178)"><tspan x="0" y="0" style="fill:#000000;stroke:none;">Erie</tspan></text>
		</g>
		<g>
			<path d="M93.116,370.043h16.055l16.051,7.412l19.761-11.114l27.168,19.758l-17.293,29.638l6.175,4.938l-4.938,16.051l-12.349,2.47h-35.809H90.649l-4.939-4.935l-1.235-29.638l-11.114-6.174l1.23-7.409l17.293-4.94l-1.235-7.409l4.938-1.234l-2.472-7.412z"/>
			<text transform="matrix(0.9994 0.0354 -0.0354 0.9994 103.7446 397.3062)"><tspan x="0" y="0" style="fill:#000000;stroke:none;">Fayette</tspan></text>
		</g>
		<g>
			<path d="M141.278,114.435l77.795-2.475v32.109l-14.821-1.237l-3.702,17.288l-17.286,2.47v-17.284h-25.936l-2.471,7.404l-8.64,1.235l1.238-11.114h-7.411l1.234-28.397z"/>
			<text transform="matrix(1 0 0 1 165.3838 134.1846)"><tspan x="0" y="0" style="fill:#000000;stroke:none;">Forest</tspan></text>
		</g>
		<g>
			<path d="M395.654,344.111l6.175,16.056l23.465,35.813l-1.234,41.98l-86.44,1.235l16.052-25.933l7.409-20.988l7.41-11.119l23.463-34.571l3.702-2.473z"/>
			<text transform="matrix(1 0 0 1 372.9326 410.7974)"><tspan x="0" y="0" style="fill:#000000;stroke:none;">Franklin</tspan></text>
		</g>
		<g>
			<path d="M368.489,381.155l-6.172-7.403l-30.872-9.883l-2.473,7.412l-8.639,4.938l3.701,4.937l-27.169,58.04h6.175h34.578l16.052-25.933l7.409-20.988l7.41-11.119z"/>
			<text transform="matrix(1 0 0 1 322.4873 408.3276)"><tspan x="0" y="0" style="fill:#000000;stroke:none;">Fulton</tspan></text>
		</g>
		<g>
			<path d="M90.649,439.195l-4.939-4.935l-1.235-29.638l-11.114-6.174l-7.41-7.409l-8.646,3.704l-9.876-4.942l-9.882,1.238l-34.574,9.876v38.279l13.584,1.24l74.093-1.24z"/>
			<text transform="matrix(1 0 0 1 19.6401 421.9116)"><tspan x="0" y="0" style="fill:#000000;stroke:none;">Greene</tspan></text>
		</g>
		<g>
			<path d="M149.919,300.892l1.236,4.945l8.647,6.171l20.989,3.702l23.46,8.647l3.708-4.942l8.642,2.47l7.409-14.818l14.821-40.749l1.236-30.872l-58.041-1.237v22.233l-32.107,44.45z"/>
			<text transform="matrix(1 0 0 1 186.6167 283.604)"><tspan x="0" y="0" style="fill:#000000;stroke:none;">Indiana</tspan></text>
		</g>
		<g>
			<path d="M247.471,178.643l1.236-4.939l-32.107-18.523l-16.051,4.94l-17.286,2.47l-1.237,46.923v24.695l58.041,1.237v-35.81l7.404-20.993z"/>
			<text transform="matrix(1 0 0 1 189.9502 190.9897)"><tspan x="0" y="0" style="fill:#000000;stroke:none;">Jefferson</tspan></text>
		</g>
		<g>
			<path d="M449.992,272.493l30.872,2.472l14.813,7.405l-28.396,7.408l-8.649,8.647l-24.698,11.11l-19.756,13.587l-18.523,20.988l-3.702,2.473l-7.412-17.286l2.472-9.882l33.338-28.4l-1.23-4.938l30.872-13.584z"/>
			<text transform="matrix(1 0 0 1 422.7495 297.188)"><tspan x="0" y="0" style="fill:#000000;stroke:none;">Juniata</tspan></text>
		</g>
		<g>
			<path d="M698.191,107.025h-37.044l-14.815,39.511l19.758,12.349l6.175,27.168l7.406,4.937l7.409-11.111l4.938-1.235l8.646-9.878l-2.473-61.74z"/>
			<text transform="matrix(1 0 0 1 660.2388 137.895)"><tspan x="0" y="0" style="fill:#000000;stroke:none;">Lackawanna</tspan></text>
		</g>
		<g>
			<path d="M525.312,368.809l19.761-12.35l58.04-20.99l39.512,30.872l-7.405,4.939l-8.646,39.517l-16.052,25.928l-17.294,1.234l-41.98-55.567l-13.586-1.237l-12.35-12.346z"/>
			<text transform="matrix(1 0 0 1 566.3335 382.3921)"><tspan x="0" y="0" style="fill:#000000;stroke:none;">Lancaster</tspan></text>
		</g>
		<g>
			<path d="M61.014,208.276l-8.646,9.884v27.162l-49.396-1.229v-9.884l-1.235-38.282l50.63,2.476l8.646,9.874z"/>
			<text transform="matrix(1 0 0 1 8.6582 213.2202)"><tspan x="0" y="0" style="fill:#000000;stroke:none;">Lawrence</tspan></text>
		</g>
		<g>
			<path d="M566.066,305.837l-17.285-11.12l-18.523,13.585l14.815,48.157l58.04-20.99l-37.047-29.632z"/>
			<text transform="matrix(1 0 0 1 542.894 330.5327)"><tspan x="0" y="0" style="fill:#000000;stroke:none;">Lebanon</tspan></text>
		</g>
		<g>
			<path d="M678.438,253.969l-9.881,3.702l-9.877,4.945l-16.056,11.11l46.928,38.281l7.41,4.938l11.11-14.818l8.643-6.175l-8.643-7.409l2.468-7.404l-29.635-18.522l-2.468-8.647z"/>
			<text transform="matrix(1 0 0 1 669.6011 286.0767)"><tspan x="0" y="0" style="fill:#000000;stroke:none;">Lehigh</tspan></text>
		</g>
		<g>
			<path d="M679.67,190.99l-7.406-4.937l-6.175-27.168l-19.758-12.349l-62.977,8.644l-1.237,9.877l1.237,20.996l4.937,8.646h4.937l2.473,32.1l29.638,6.174l34.579-16.048l-2.473-14.824l17.287-3.699l4.938-7.412z"/>
			<text transform="matrix(1 0 0 1 610.978 189.7554)"><tspan x="0" y="0" style="fill:#000000;stroke:none;">Luzerne</tspan></text>
		</g>
		<g>
			<path d="M403.063,135.422l1.237-7.409l79.031-1.232l19.755-9.881h7.413l9.876,33.342l18.521,16.053l20.996,7.409l-18.524,19.759h-6.174l-12.347-2.473l-7.409-2.467l-13.586,7.403l-7.412-1.227l-4.937,9.876l-23.46,2.471l-13.585-17.291l-27.165-18.523
				l-12.349-14.814l-9.881-20.996z"/>
			<text transform="matrix(1 0 0 1 457.1772 167.5298)"><tspan x="0" y="0" style="fill:#000000;stroke:none;">Lycoming</tspan></text>
		</g>
		<g>
			<path d="M320.334,46.517l-13.587-1.236h-85.202v30.872l-3.71,1.235l1.237,34.572l61.742-1.235l1.238,4.939h7.41l1.229-2.467l29.643-1.237V46.517z"/>
			<text transform="matrix(1 0 0 1 251.3594 78.6177)"><tspan x="0" y="0" style="fill:#000000;stroke:none;">McKean</tspan></text>
		</g>
		<g>
			<path d="M73.361,135.422l-56.805,1.235H1.738v59.269l50.63,2.476l8.646,9.874l12.348-17.286v-55.567z"/>
			<text transform="matrix(1 0 0 1 20.7607 165.0571)"><tspan x="0" y="0" style="fill:#000000;stroke:none;">Mercer</tspan></text>
		</g>
		<g>
			<path d="M398.126,262.617l39.517-16.06v6.175v16.059l12.349,3.702l-30.872,13.584l1.23,4.938l-33.338,28.4l-2.472,9.882l-9.874,1.235l-8.646-4.942v-7.407l8.646-13.583l-2.475-9.883l13.586-12.348h7.41l4.939-19.753z"/>
			<text transform="matrix(1 0 0 1 403.6831 273.7271)"><tspan x="0" y="0" style="fill:#000000;stroke:none;">Mifflin</tspan></text>
		</g>
		<g>
			<path d="M745.122,225.569l1.235-7.409l18.524-17.288l-22.23-11.116l2.471-14.816l-34.581,2.47l-18.523,1.234l-4.938,1.235l-7.409,11.111l-4.938,7.412l19.758,19.758l-11.112,8.64l13.585,22.232l19.753-6.175l19.758-14.82l8.648-2.468z"/>
			<text transform="matrix(1 0 0 1 702.2349 209.5132)"><tspan x="0" y="0" style="fill:#000000;stroke:none;">Monroe</tspan></text>
		</g>
		<g>
			<path d="M667.322,349.056l22.23-37.048l7.41,4.938l64.209,49.396l-13.585,14.813l-17.285-6.172l-3.702,4.941l7.409,7.405l-8.647,6.174l-12.348-14.813l-33.343-29.634h-12.349z"/>
			<text transform="matrix(1 0 0 1 691.3999 362.6343)"><tspan x="0" y="0" style="fill:#000000;stroke:none;">Montgomery</tspan></text>
		</g>
		<g>
			<path d="M535.194,193.462l3.702,14.813l8.649,2.475l-1.237,7.409l8.646,8.64v14.82l-4.944-2.472l-11.114-13.579l-23.458,2.468l7.409-37.047l12.347,2.473z"/>
			<text transform="matrix(1 0 0 1 521.7905 224.3345)"><tspan x="0" y="0" style="fill:#000000;stroke:none;">Montour</tspan></text>
		</g>
		<g>
			<path d="M735.238,284.841l-18.522,11.111l-8.643-7.409l2.468-7.404l-29.635-18.522l-2.468-8.647l18.524-4.938l19.753-6.175l19.758-14.82l8.648-2.468l8.637,9.877l-6.172,17.286l-7.403,4.939l-4.945,27.17z"/>
			<text transform="matrix(1 0 0 1 691.521 270.02)"><tspan x="0" y="0" style="fill:#000000;stroke:none;">Northampton</tspan></text>
		</g>
		<g>
			<path d="M522.847,190.99l-7.409,37.047l23.458-2.468l11.114,13.579l4.944,2.472l-1.234,4.938l13.583,1.237l4.938,9.877l-44.456,20.996l-13.583,1.234l-18.524,6.175v-3.707l12.35-16.052l1.237-17.286l6.174-8.648l-3.701-1.235l-7.412-12.349l2.467-19.753
				l-4.939-11.12l13.586-7.403l7.409,2.467z"/>
			<text transform="matrix(1 0 0 1 516.6304 260.144)"><tspan x="0" y="0" style="fill:#000000;stroke:none;">Northumberland</tspan></text>
		</g>
		<g>
			<path d="M495.677,282.37v3.707l-6.174,6.174l6.174,16.052l-12.346,16.056l16.056,9.876l-66.689,8.647l4.945-8.647l-35.814,25.933l-6.175-16.056l18.523-20.988l19.756-13.587l24.698-11.11l8.649-8.647l28.396-7.408z"/>
			<text transform="matrix(1 0 0 1 435.5737 325.5903)"><tspan x="0" y="0" style="fill:#000000;stroke:none;">Perry</tspan></text>
		</g>
		<g>
			<path d="M730.301,415.737l12.35-6.175l4.936-11.113l8.647-7.409l11.111-9.885l2.472-9.874l-8.646-4.939l-13.585,14.813l-17.285-6.172l-3.702,4.941l7.409,7.405l-8.647,6.174l4.94,22.233z"/>
			<text transform="matrix(1 0 0 1 717.8784 389.8013)"><tspan x="0" y="0" style="fill:#000000;stroke:none;">Philadelphia</tspan></text>
		</g>
		<g>
			<path d="M764.881,200.872l8.638-7.409l14.822-29.632l12.349-8.65l-4.939-12.348h-13.584l-19.758-11.112l-7.412-17.286l-18.523,23.46l-16.048,14.816l-8.647,1.235l6.172,8.645l-7.409,14.818l34.581-2.47l-2.471,14.816l22.23,11.116z"/>
			<text transform="matrix(1 0 0 1 741.5679 161.355)"><tspan x="0" y="0" style="fill:#000000;stroke:none;">Pike</tspan></text>
		</g>
		<g>
			<path d="M401.829,45.281h-19.753l-61.742,1.236v65.442l22.223,24.698h8.646l51.86-1.235l1.237-7.409l-2.472-82.732z"/>
			<text transform="matrix(1 0 0 1 347.7397 94.6738)"><tspan x="0" y="0" style="fill:#000000;stroke:none;">Potter</tspan></text>
		</g>
		<g>
			<path d="M572.241,257.671l11.114-7.404l3.701-13.583l8.645-9.885l29.638,6.174l33.342,29.644l-16.056,11.11l-13.578,4.94l-2.473,9.876l-60.508,17.294l-17.285-11.12l-20.996-16.05l44.456-20.996z"/>
			<text transform="matrix(1 0 0 1 557.5757 284.8413)"><tspan x="0" y="0" style="fill:#000000;stroke:none;">Schuylkill</tspan></text>
		</g>
		<g>
			<path d="M437.643,252.732v16.059l12.349,3.702l30.872,2.472l14.813,7.405l12.35-16.052l1.237-17.286l6.174-8.648l-3.701-1.235h-22.233l-51.86,13.584z"/>
			<text transform="matrix(1 0 0 1 462.5483 263.8462)"><tspan x="0" y="0" style="fill:#000000;stroke:none;">Snyder</tspan></text>
		</g>
		<g>
			<path d="M259.819,350.286l-30.871-1.229l-7.403-9.883l-16.059,2.473l-33.336,44.453l-17.293,29.638l6.175,4.938l-4.938,16.051l66.682,2.47l17.292-1.235l6.173-17.285V378.69l13.578-28.404z"/>
			<text transform="matrix(1 0 0 1 182.855 403.3872)"><tspan x="0" y="0" style="fill:#000000;stroke:none;">Somerset</tspan></text>
		</g>
		<g>
			<path d="M510.5,116.899l82.729,6.174l-9.873,32.107l-1.237,9.877l-14.814,1.237l-7.411,7.409l-20.996-7.409l-18.521-16.053l-9.876-33.342z"/>
			<text transform="matrix(1 0 0 1 533.7378 147.7715)"><tspan x="0" y="0" style="fill:#000000;stroke:none;">Sullivan</tspan></text>
		</g>
		<g>
			<path d="M695.727,45.281l-86.44-1.236l-4.938,1.236l1.232,60.507l55.566,1.238h37.044l-2.464-61.745z"/>
			<text transform="matrix(1 0 0 1 619.1714 82.3247)"><tspan x="0" y="0" style="fill:#000000;stroke:none;">Susquehanna</tspan></text>
		</g>
		<g>
			<path d="M495.677,45.281h-4.937h-88.912l2.472,82.732l79.031-1.232l19.755-9.881l-7.409-71.619z"/>
			<text transform="matrix(1 0 0 1 436.4331 89.7368)"><tspan x="0" y="0" style="fill:#000000;stroke:none;">Tioga</tspan></text>
		</g>
		<g>
			<path d="M501.852,195.926l-7.412-1.227l-4.937,9.876l-23.46,2.471l1.237,4.939l-29.638,34.571v6.175l51.86-13.584h22.233l-7.412-12.349l2.467-19.753l-4.939-11.12z"/>
			<text transform="matrix(1 0 0 1 469.0308 228.0366)"><tspan x="0" y="0" style="fill:#000000;stroke:none;">Union</tspan></text>
		</g>
		<g>
			<path d="M73.361,135.422l24.697-22.226l29.635,1.238h13.584l-1.234,28.397h7.411l-1.238,11.114v6.174l-19.758,3.71l-9.876,25.925l-43.221,1.234v-55.567z"/>
			<text transform="matrix(1 0 0 1 85.7197 152.7109)"><tspan x="0" y="0" style="fill:#000000;stroke:none;">Venango</tspan></text>
		</g>
		<g>
			<path d="M221.545,45.281h-19.76l-75.327,1.236v28.398l1.235,39.519h13.584l77.795-2.475l-1.237-34.572l3.71-1.235V45.281z"/>
			<text transform="matrix(1 0 0 1 158.4111 81.0898)"><tspan x="0" y="0" style="fill:#000000;stroke:none;">Warren</tspan></text>
		</g>
		<g>
			<path d="M93.116,370.043l-4.938-2.465l6.173-8.646l-13.584-4.939l3.709-6.175l-35.81-12.349l-23.468-27.167l-23.46,1.233v12.35l1.235,41.983v25.933v11.114l34.574-9.876l9.882-1.238l9.876,4.942l8.646-3.704l7.41,7.409l1.23-7.409l17.293-4.94l-1.235-7.409
				l4.938-1.234l-2.472-7.412z"/>
			<text transform="matrix(1 0 0 1 13.7998 363.8687)"><tspan x="0" y="0" style="fill:#000000;stroke:none;">Washington</tspan></text>
		</g>
		<g>
			<path d="M754.997,114.435l-18.523,23.46l-16.048,14.816l-8.647,1.235l6.172,8.645l-7.409,14.818l-18.523,1.234l8.646-9.878l-2.473-61.74l-2.464-61.745l11.111-1.236l7.412,1.236l8.639,9.876l2.472,9.881l14.822,7.405l14.813,18.523v23.468z"/>
			<text transform="matrix(1 0 0 1 707.5132 108.2603)"><tspan x="0" y="0" style="fill:#000000;stroke:none;">Wayne</tspan></text>
		</g>
		<g>
			<path d="M115.345,274.964h6.176l13.583,12.349l-1.235,6.175l16.051,7.404l1.236,4.945l8.647,6.171l20.989,3.702l23.46,8.647l3.708-4.942l8.642,2.47l-11.114,19.761l-33.336,44.453l-27.168-19.758l-19.761,11.114l-16.051-7.412H93.116l-4.938-2.465l6.173-8.646
				l9.883-7.412l1.23-27.162l9.881-6.175l-1.235-18.521l-7.409-4.945v-6.174l7.409-7.404l1.235-6.175z"/>
			<text transform="matrix(1 0 0 1 117.7754 342.8813)"><tspan x="0" y="0" style="fill:#000000;stroke:none;">Westmoreland</tspan></text>
		</g>
		<g>
			<path d="M593.228,123.073l1.238-16.048l11.114-1.238l55.566,1.238l-14.815,39.511l-62.977,8.644l9.873-32.107z"/>
			<text transform="matrix(1 0 0 1 599.605 130.4858)"><tspan x="0" y="0" style="fill:#000000;stroke:none;">Wyoming</tspan></text>
		</g>
		<g>
			<path d="M468.516,378.69l14.815-13.584l13.581-2.472v-7.404l9.879-3.71l7.41,4.939l11.11,12.35l12.35,12.346l13.586,1.237l41.98,55.567h-46.92h-30.87h-28.399l-1.237-19.758l7.411-1.229l-6.174-25.933l-18.522-12.35z"/>
			<text transform="matrix(1 0 0 1 511.7905 405.8521)"><tspan x="0" y="0" style="fill:#000000;stroke:none;">York</tspan></text>
		</g>
	</g>
</svg>
