<?xml version="1.0" encoding="iso-8859-1"?>
<!DOCTYPE svg >

<svg  width="801.293pt" height="451.548pt" viewBox="0 0 801.293 451.548" xml:space="preserve">
	<g id="Layer_x0020_1" style="fill-rule:nonzero;clip-rule:nonzero;fill:#FFFFFF;stroke:#000000;stroke-miterlimit:4; font-family:'Arial'; font-size:10;">
		<g>
			<path d="M588.948,228.091l104.535-0.927v42.557l-5.553,14.801l4.627,1.848l-6.475,5.55l-21.275,2.777H548.244l-0.927-20.353l40.704-1.853l0.927-44.401z"/>
			<text transform="matrix(1 0 0 1 625.4507 257.9854)"><tspan x="0" y="0" style="fill:#000000;stroke:none;">Adams</tspan></text>
		</g>
		<g>
			<path d="M744.365,389.054l56.429,0.926v-21.275l-4.628-5.548v-9.254l-6.474-8.321l0.927-12.033l-18.502,0.927l-3.701-5.548l-0.926,8.321l-12.953-0.921l-4.622,3.701v33.302l-6.477,0.922l0.927,14.802z"/>
			<text transform="matrix(1 0 0 1 762.8052 367.2266)"><tspan x="0" y="0" style="fill:#000000;stroke:none;">Asotin</tspan></text>
		</g>
		<g>
			<path d="M497.363,412.182l3.703-0.927l12.948-1.848l5.553-2.776l5.549-5.548h4.626l5.551,1.85l6.477-0.926l4.624-1.848l6.478-0.926h8.327l7.4,0.926l11.102-4.626l6.474-4.627l4.624-0.927l1.851-5.551l-11.102-19.426l-20.349-6.474l-3.703-36.076l-16.652-19.43
				l-0.926-2.778l-8.325-1.848l-7.399,9.251l-27.753,1.85l0.924,74.931v27.753z"/>
			<text transform="matrix(1 0 0 1 517.5962 367.7803)"><tspan x="0" y="0" style="fill:#000000;stroke:none;">Benton</tspan></text>
		</g>
		<g>
			<path d="M411.331,58.8h-14.803l-23.127,11.099l3.699,23.127l7.401,13.876l5.551,6.478h-3.702l-5.549,12.024l-4.624-1.846L366,127.255l-1.85,24.055l8.325,3.697l-1.849,6.475l2.775,9.251l-7.401,5.55l1.851,8.325l14.801,16.655l89.732,26.828v-8.326l-0.921-3.699
				l-21.279-7.403l-1.85-6.474l12.949-25.905l-1.849-7.398l9.251-6.477l6.478,0.925l7.4-1.852l8.324-9.251l4.624-13.877h-19.426l-8.324-14.796l-22.201-11.104l0.921-7.399l-23.127-13.876l-1.85-8.329l-7.4-9.251l0.926-12.95l-3.7-1.848z"/>
			<text transform="matrix(1 0 0 1 405.6606 149.4575)"><tspan x="0" y="0" style="fill:#000000;stroke:none;">Chelan</tspan></text>
		</g>
		<g>
			<path d="M11.689,145.757h106.386v3.7l58.282-0.926l1.85-21.276l-9.25-11.102l-6.477-2.773l-3.698,3.699l-44.407-3.699l-5.55-2.779l-14.8,0.926l-28.68-4.625l-11.099-7.399l-26.828-9.251l-8.327-5.55l-9.252-3.7l-9.251,1.848l0.926,4.625l4.626,0.926l-0.926,7.403
				l-4.626,16.65l2.777,10.177l0.926,12.025l5.548,5.55l1.85,5.551z"/>
			<text transform="matrix(1 0 0 1 75.5059 129.1035)"><tspan x="0" y="0" style="fill:#000000;stroke:none;">Clallam</tspan></text>
		</g>
		<g>
			<path d="M195.785,411.255l0.924,17.581l5.55,12.025l42.556,10.177l5.549-0.927l1.85-66.606l-11.101,13.876l-10.174-3.701h-7.401l-12.027,8.327l-8.324-1.848l-2.777,4.625l1.85,4.623l-6.474,1.848z"/>
			<text transform="matrix(1 0 0 1 213.7202 422.3623)"><tspan x="0" y="0" style="fill:#000000;stroke:none;">Clark</tspan></text>
		</g>
		<g>
			<path d="M690.699,389.054l0.924,0.926l37.006-1.842l0.008-42.552h-6.477l-5.545-16.657l-12.952-0.002l2.78-20.35l-5.554,4.625l-20.349,1.842l-7.404,3.697l-6.475-4.626l-2.781,37.003l12.951,0.93l-0.003,11.103l12.949,0.003l0.921,25.9z"/>
			<text transform="matrix(1 2.000000e-004 -2.000000e-004 1 679.8423 355.7666)"><tspan x="0" y="0" style="fill:#000000;stroke:none;">Columbia</tspan></text>
		</g>
		<g>
			<path d="M152.305,370.552l-0.925-28.677l101.759-0.921l-0.925,42.551l-11.101,13.876l-10.174-3.701h-7.401l-12.027,8.327l-8.324-1.848l-2.777,4.625l1.85,4.623l-6.474,1.848l-1.85-12.021l-10.177-17.576l-27.753-12.953l-3.7,1.848z"/>
			<text transform="matrix(1 0 0 1 190.0313 364.4512)"><tspan x="0" y="0" style="fill:#000000;stroke:none;">Cowlitz</tspan></text>
		</g>
		<g>
			<path d="M495.512,138.354l-4.624,13.877l-8.324,9.251l-7.4,1.852l-6.478-0.925l-9.251,6.477l1.849,7.398l-12.949,25.905l1.85,6.474l21.279,7.403l0.921,3.699v8.326l0.926,2.773l1.854,2.777l2.773,0.924l4.627-0.924l-0.927-12.95l10.175-6.479v-4.625l4.627-3.699
				l35.152-1.853v-11.098l13.879-12.029l7.4-0.925l12.024-33.3l8.327-4.625l1.85-5.553h12.027l3.698-5.55l-9.251-15.728l-9.25-1.848l-17.578,3.699l-4.622,2.773v5.552l-7.402,0.926l-9.251-3.699l-13.876,12.025l-4.626-7.401l0.924-7.403l-11.1-2.773l-10.174,8.325
				l0.921,12.95z"/>
			<text transform="matrix(1 0 0 1 491.0425 172.5845)"><tspan x="0" y="0" style="fill:#000000;stroke:none;">Douglas</tspan></text>
		</g>
		<g>
			<path d="M601.899,136.506l12.024,9.251l3.7-5.551l15.729,1.853l1.853,6.472l16.649,3.7l1.853-6.474v-18.502l11.101-2.776l9.248-23.128l-6.475-31.451l12.028-24.054l-2.777-14.798l-7.402-10.177l-1.849-18.501h-65.682v134.138z"/>
			<text transform="matrix(1 0 0 1 623.7964 74.4097)"><tspan x="0" y="0" style="fill:#000000;stroke:none;">Ferry</tspan></text>
		</g>
		<g>
			<path d="M540.842,303.023l16.652,19.43l3.703,36.076l20.349,6.474l27.753-12.953l34.228-39.776l23.127,1.847l3.701-4.622l-3.701-1.85l-1.847-12.951H548.244v8.326h-7.401z"/>
			<text transform="matrix(1 0 0 1 579.7876 327.7822)"><tspan x="0" y="0" style="fill:#000000;stroke:none;">Franklin</tspan></text>
		</g>
		<g>
			<path d="M728.634,388.13l15.73,0.924l-0.927-14.802l6.477-0.922v-33.302l4.622-3.701l12.953,0.921l0.926-8.321l-4.626-12.954l-12.027-5.551v-4.623l-7.397-6.475l-12.025,2.773l-9.254-3.7l-16.65,10.177l-2.777,20.353h12.954l5.548,16.654h6.475v42.549z"/>
			<text transform="matrix(1 0 0 1 718.5278 330.7744)"><tspan x="0" y="0" style="fill:#000000;stroke:none;">Garfield</tspan></text>
		</g>
		<g>
			<path d="M588.948,139.28l-1.849-2.774h-12.027l-1.85,5.553l-8.327,4.625l-12.024,33.3l-7.4,0.925l-13.879,12.029v11.098l-35.152,1.853l-4.627,3.699v4.625l-10.175,6.479l0.927,12.95v12.024l-4.627,7.403l8.327,20.35l-0.927,5.551l4.627,10.177l-3.7,7.398
				l0.926,5.553h4.622l4.627,7.4l27.753-1.85l7.399-9.251l8.325,1.848l0.926,2.778h7.401v-8.326l-0.927-20.353l40.704-1.853l0.927-44.401V139.28z"/>
			<text transform="matrix(1 0 0 1 518.1636 245.666)"><tspan x="0" y="0" style="fill:#000000;stroke:none;">Grant</tspan></text>
		</g>
		<g style="fill:#000000;stroke:none;">
			<path style="fill:#FFFFFF;stroke:#000000;" d="M154.155,251.217v12.024l3.7,0.927l0.926,24.979l-23.128-0.924l-69.381,0.924l-3.702-15.728l3.702,0.926l1.849,5.551l3.7,1.848l0.926-2.773l-0.926-4.625l23.127-10.177l-10.174-2.773h-8.327l-3.699-6.478
				l-7.402,0.927l-3.699,10.177l-0.926-1.853l-5.549-35.152l-9.25-9.25l-3.703-10.178l-3.7-11.102l1.851-6.473h82.332l2.776,59.204h28.679z"/>
			<text transform="matrix(1 0 0 1 86.6118 236.5273)"><tspan x="0" y="0">Grays</tspan><tspan x="-1.948" y="12">Harbor</tspan></text>
		</g>
		<g>
			<path d="M207.812,109.68l4.625,3.7h3.809l2.665,12.95l1.85,3.699l5.552,2.779l-1.852,2.771l2.775,1.853l2.775-2.777h4.627l0.925,8.325l5.549,1.85l2.776-10.174l-12.026-13.877l-3.699,0.926l-1.85,5.145l-2.775-6.071l-3.703-12.025l-5.548-3.699l-6.475-0.925
				v-1.853l6.475-1.848v-3.704l3.699,0.926l1.849-2.773l4.627,1.847l3.702-1.847l-1.85-5.553l-6.479-1.851l-0.923-3.699h-6.474l-10.178,17.575l5.552,8.33z"/>
			<text transform="matrix(1 0 0 1 215.6343 105.8682)"><tspan x="0" y="0" style="fill:#000000;stroke:none;">Island</tspan></text>
		</g>
		<g>
			<path d="M122.701,192.013l-1.849-7.405h52.729l1.853-3.699l12.025-6.473l1.852-7.404h3.699l-1.85-5.55l0.924-5.548l3.703,4.627l0.924-7.404l3.7,4.625l-0.925,5.552l5.552-1.852l-0.926-4.626l4.625-0.921l5.552-6.477l-3.703-10.177l2.776-7.398l-0.923-10.177
				l-4.625-2.774v10.172l-2.775-3.699l-4.627,4.625l-1.849-7.398l4.625-3.7l-0.927-3.703l-7.4,1.851l-2.777,5.552l3.295,6.472l-3.295,4.626h-2.772l2.772-4.626l-5.549-1.848v-5.55l-6.474-0.926l-1.852,6.477l-1.85,21.276l-58.282,0.926v-3.7H11.689l5.553,4.626
				l7.4,3.698l1.849,5.553l4.625,3.699l9.251,28.679h82.332z"/>
			<g>
				<text transform="matrix(1 0 0 1 93.8545 170.5146)"><tspan x="0" y="0" style="fill:#000000;stroke:none;">Jefferson</tspan></text>
			</g>
		</g>
		<g>
			<path d="M367.851,184.608l-25.903,17.581l-10.176,12.951l3.699,8.324l10.177,4.627l-1.851,4.625l4.626,1.85v10.175l-7.401-0.921l-1.851,1.847l2.775,5.551l-18.501-3.698l-5.55-4.626l-16.652-2.779l-8.326,3.706h-10.176l-16.653-5.554l-4.625-8.323h-22.202
				l-1.849-8.33l10.173-6.473l-9.25-27.752l6.479-0.927l0.923-3.7l-4.625-2.776l-2.776-3.701l3.703-1.847v-11.103l128.587-1.852l2.775,9.251l-7.401,5.55l1.851,8.325z"/>
			<text transform="matrix(1 0 0 1 291.2373 204.0361)"><tspan x="0" y="0" style="fill:#000000;stroke:none;">King</tspan></text>
		</g>
		<g>
			<path d="M195.785,208.663l-1.85-12.024l-16.651-1.854l2.775-4.625l12.949-11.098l9.251-1.852l4.626-12.951l9.251-11.101l6.475,1.85l-5.55-14.801l11.102,6.478l1.849,6.474l-0.926,4.625l3.703,6.477l-3.703,2.774l-4.624-3.699l-4.627,7.399l-3.698-4.627
				l-3.7,1.853l2.773,3.699l4.624,13.876l-3.698,0.926l-6.477-4.625v4.625l2.777,1.853l-2.777,2.772l5.55,2.774l8.327-4.625l5.548,8.33l-3.698,12.95l-29.603-1.852z"/>
			<text transform="matrix(1 0 0 1 198.5405 202.189)"><tspan x="0" y="0" style="fill:#000000;stroke:none;">Kitsap</tspan></text>
		</g>
		<g>
			<path d="M482.564,233.642l-4.627,0.924l-2.773-0.924l-1.854-2.777l-0.926-2.773l-89.732-26.828l-14.801-16.655l-25.903,17.581l-10.176,12.951l3.699,8.324l10.177,4.627l-1.851,4.625l4.626,1.85v10.175l-7.401-0.921l-1.851,1.847l2.775,5.551l9.251,0.927
				l12.951,7.398l12.028,13.877l41.627,0.926v11.104l12.027,0.921l0.924,9.249l55.508,0.926l3.7-7.398l-4.627-10.177l0.927-5.551l-8.327-20.35l4.627-7.403v-12.024z"/>
			<text transform="matrix(1 0 0 1 397.2495 248.4453)"><tspan x="0" y="0" style="fill:#000000;stroke:none;">Kittitas</tspan></text>
		</g>
		<g>
			<path d="M326.221,428.836l11.104,1.848l5.548-0.927l4.627,1.854l5.551,1.853l6.475,2.773l3.699,5.551h4.627l6.477-5.551h11.101l5.548,0.927l25.903-11.104l3.702-1.848l5.55,0.921l5.551,3.703l5.552,1.848l24.05-5.551l8.327-5.546l7.399-1.853l6.475-2.773
				l13.878-2.779v-27.753l-169.289,0.928h-10.177v33.305l8.324,0.926l-1.85,3.698l1.85,5.551z"/>
			<text transform="matrix(1 0 0 1 376.5264 413.1084)"><tspan x="0" y="0" style="fill:#000000;stroke:none;">Klickitat</tspan></text>
		</g>
		<g>
			<path d="M333.621,290.073l10.177,10.172l-6.474,5.554l2.774,2.775l-2.774,7.398l0.924,2.774l-3.701,0.926v10.177l5.551,10.179l-13.878,0.926h-73.082l-101.759,0.921l-12.95-0.921l-0.926-21.281l-1.85-0.926v-30.524l23.128,0.924v3.7h96.208l5.552,1.851h16.652
				l2.773-0.927l11.104,3.701l7.398-5.552l35.153-1.847z"/>
			<text transform="matrix(1 0 0 1 224.6309 317.8252)"><tspan x="0" y="0" style="fill:#000000;stroke:none;">Lewis</tspan></text>
		</g>
		<g>
			<path d="M588.948,139.28v88.811l104.535-0.927h14.802v-73.083l-18.502-0.924l-6.475,6.477l-7.403-6.477l-10.174-13.877l-12.024,6.477l-1.853,6.474l-16.649-3.7l-1.853-6.472l-15.729-1.853l-3.7,5.551l-12.024-9.251l-12.951,2.774z"/>
			<text transform="matrix(1 0 0 1 632.3081 188.314)"><tspan x="0" y="0" style="fill:#000000;stroke:none;">Lincoln</tspan></text>
		</g>
		<g>
			<path d="M154.155,251.217l8.324,0.927l1.85-3.698l1.853-2.779l7.398-0.926l6.479-7.401h-11.103l2.774-5.549h4.627l-1.851,2.775h8.324l2.777-9.248l9.251-3.705l0.926-12.95l-1.85-12.024l-16.651-1.854l-9.251,14.803l0.924,2.774l5.55,0.925l14.803-6.472
				l-0.704,3.997l-14.099,6.175l-12.95-0.921l12.024-31.458h-52.729l1.849,7.405l2.776,59.204h28.679z"/>
			<text transform="matrix(1 0 0 1 135.4839 225.5347)"><tspan x="0" y="0" style="fill:#000000;stroke:none;">Mason</tspan></text>
		</g>
		<g>
			<path d="M403.931,47.697l-0.926,5.552l8.327,5.551l3.7,1.848l-0.926,12.95l7.4,9.251l1.85,8.329l23.127,13.876l-0.921,7.399l22.201,11.104l8.324,14.796h19.426l-0.921-12.95l10.174-8.325l11.1,2.773l-0.924,7.403l4.626,7.401l13.876-12.025l9.251,3.699
				l7.402-0.926v-5.552l4.622-2.773l17.578-3.699l9.25,1.848l9.251,15.728l-3.698,5.55l1.849,2.774l12.951-2.774V2.368H394.68l-0.927,6.474h9.251l-1.851,9.251l4.625,11.104l7.402,8.325l-9.25,10.176z"/>
			<text transform="matrix(1 0 0 1 482.6157 64.3477)"><tspan x="0" y="0" style="fill:#000000;stroke:none;">Okanogan</tspan></text>
		</g>
		<g>
			<path d="M138.43,340.954l-0.926-21.281l-1.85-0.926v-30.524l-69.381,0.924l-0.927,6.473l2.776,3.705l3.7-0.927l3.701,0.927l2.776-3.705l2.774,1.853l4.625-3.701l6.478,5.554l-6.478,3.699l-1.849,5.551l-5.551,1.848l7.4,13.878l-2.774,2.779l0.925,7.396l-1.85,7.4
				l-6.477,1.854l-1.85-25.903l-1.851-6.477l-2.774-0.927l-1.853,1.852l1.853,38.853l1.85,1.851l1.85-2.771l6.474,0.921l3.702,4.624l3.701,2.779l13.876-3.7l-0.926-12.027h23.127l15.729-1.848z"/>
			<text transform="matrix(1 0 0 1 93.1743 321.5264)"><tspan x="0" y="0" style="fill:#000000;stroke:none;">Pacific</tspan></text>
		</g>
		<g style="fill:#000000;stroke:none;">
			<path style="fill:#FFFFFF;stroke:#000000;" d="M747.135,124.479h41.631l0.926-101.762V2.368l-41.63-1.85l-20.35,44.406l11.102,0.921l8.321,78.634z"/>
			<text transform="matrix(1 0 0 1 755.6665 65.0928)"><tspan x="0" y="0">Pend</tspan><tspan x="-2.771" y="12">Oreille</tspan></text>
		</g>
		<g>
			<path d="M341.948,251.217l-8.327,12.951v5.554l-6.474,9.248l6.474,6.479v4.624l-35.153,1.847l-7.398,5.552l-11.104-3.701l-2.773,0.927h-16.652l-5.552-1.851l-8.325-0.927l-4.625-7.397l-11.101-2.779l-12.027-13.874l-7.401-1.849v-1.853l-3.699-4.626
				l-3.702-10.175l7.4,0.926l15.727-23.128l-0.924-4.625l7.399,6.477l5.551,0.927h22.202l4.625,8.323l16.653,5.554h10.176l8.326-3.706l16.652,2.779l5.55,4.626l18.501,3.698z"/>
			<text transform="matrix(1 0 0 1 258.395 256.7695)"><tspan x="0" y="0" style="fill:#000000;stroke:none;">Pierce</tspan></text>
		</g>
		<g>
			<path d="M194.859,221.613l0.926-12.95l29.603,1.852l-0.926,0.925l-1.85,5.548l-2.777,1.852l2.777,9.252l-11.101-3.7l0.927-5.552l-0.297-3.402l-2.48,0.63l-5.55,5.546l-0.924,3.705l2.773,6.473l-2.773,7.401l-3.702-0.926l-2.775-5.55l2.775-12.024l-0.924-7.405
				l-2.775-0.925l-0.926,9.251z"/>
			<text transform="matrix(1 0 0 1 200.5596 219.6563)"><tspan x="0" y="0" style="fill:#000000;stroke:none;">Pierce</tspan></text>
		</g>
		<g>
			<g>
				<path d="M190.232,61.573l1.85,2.774l0.926,8.329l5.552,1.848l-1.852,4.625l-4.627,0.925l-1.85-0.925v-3.699l-4.624-2.774l-0.923-3.704l3.698-0.921l1.849-6.478z"/>
				<path d="M185.608,39.373h4.624l12.954,7.399l-5.551,6.477l-2.776-0.926l-2.777-6.478l-3.292,0.412l3.292,8.84l-8.324-2.774l-4.625,2.774l1.849-9.251l4.626-6.473z"/>
				<path d="M164.33,53.249l2.777-0.926l7.4,9.25l5.552,3.701l-2.775,3.699l2.775,4.625l-2.775,0.926l-4.627-3.7l-8.327-3.699l-2.773-3.699v-3.704l2.773-6.473z"/>
			</g>
			<text transform="matrix(1 0 0 1 171.1753 62.1948)"><tspan x="0" y="0" style="fill:#000000;stroke:none;">San Juan</tspan></text>
		</g>
		<g>
			<path d="M403.931,47.697l-0.926,5.552l8.327,5.551h-14.803l-23.127,11.099l3.699,23.127l-135.062,1.853l-17.578-11.104l-0.924-5.552l-4.626,1.852l-5.551-1.852l0.926-2.773l-3.703-4.626l3.703-2.773l5.548,0.921l1.853,4.625l3.7-1.848l5.551,3.7l0.924-8.326
				l-0.924-5.552l4.625-1.851v-4.625l-5.552-5.548l173.919-1.851z"/>
			<text transform="matrix(1 0 0 1 296.5991 70.8242)"><tspan x="0" y="0" style="fill:#000000;stroke:none;">Skagit</tspan></text>
		</g>
		<g>
			<path d="M250.364,450.111l34.228-13.875l9.251-6.479l32.377-0.921l-1.85-5.551l1.85-3.698l-8.324-0.926v-33.305h10.177v-9.251h-2.777l0.924-35.151h-73.082l-0.925,42.551l-1.85,66.606z"/>
			<g>
				<text transform="matrix(1 0 0 1 262.3579 391.832)"><tspan x="0" y="0" style="fill:#000000;stroke:none;">Skamania</tspan></text>
			</g>
		</g>
		<g>
			<path d="M377.101,93.026l7.401,13.876l5.551,6.478h-3.702l-5.549,12.024l-4.624-1.846L366,127.255l-1.85,24.055l8.325,3.697l-1.849,6.475l-128.587,1.852l-0.926-5.552l9.251-20.349l7.401-3.703l1.85-6.475l-6.476,0.927l-8.324-7.403l-2.776-17.575v-8.325
				l135.062-1.853z"/>
			<text transform="matrix(1 0 0 1 293.8081 129.1035)"><tspan x="0" y="0" style="fill:#000000;stroke:none;">Snohomish</tspan></text>
		</g>
		<g>
			<path d="M708.285,154.082l9.251-1.85l3.702-9.25l10.175,14.801l4.622-2.774l-0.921-30.529h12.021h41.631l0.926,11.101v78.633l-0.926,13.878l-80.481-0.927v-73.083z"/>
			<text transform="matrix(1 0 0 1 732.9497 181.8354)"><tspan x="0" y="0" style="fill:#000000;stroke:none;">Spokane</tspan></text>
		</g>
		<g>
			<path d="M653.707,145.757l12.024-6.477l10.174,13.877l7.403,6.477l6.475-6.477l18.502,0.924l9.251-1.85l3.702-9.25l10.175,14.801l4.622-2.774l-0.921-30.529h12.021l-8.321-78.634l-11.102-0.921l20.35-44.406l-80.481,1.85l1.849,18.501l7.402,10.177l2.777,14.798
				l-12.028,24.054l6.475,31.451l-9.248,23.128l-11.101,2.776v18.502z"/>
			<text transform="matrix(1 0 0 1 688.3687 84.7017)"><tspan x="0" y="0" style="fill:#000000;stroke:none;">Stevens</tspan></text>
		</g>
		<g>
			<path d="M158.782,289.146v3.7h96.208l-8.325-0.927l-4.625-7.397l-11.101-2.779l-12.027-13.874l-7.401-1.849v-1.853l-3.699-4.626l-3.702-10.175l-3.701-6.475l-3.7-0.927v6.479l-2.774-2.779l-4.625-0.926l0.922,13.875h-3.699l-2.775-10.17l-1.85,3.698l-2.775-0.927
				l5.552-8.324l-2.777-1.853l-9.251,8.327l0.924-4.627l-7.398,0.926l-1.853,2.779l-1.85,3.698l-8.324-0.927v12.024l3.7,0.927l0.926,24.979z"/>
			<text transform="matrix(1 0 0 1 166.8018 275.2715)"><tspan x="0" y="0" style="fill:#000000;stroke:none;">Thurston</tspan></text>
		</g>
		<g>
			<path d="M129.179,361.304l0.924,5.551l2.775,1.85l3.699,3.7l3.703,1.848l4.624-0.922l4.626-1.853l2.774-0.926l-0.925-28.677l-12.95-0.921l-15.729,1.848H99.574l0.926,12.027l5.55-2.779l3.701,1.853l3.699,1.848l7.402,0.926l7.4-0.926l5.551,2.779l3.7,3.7
				l-0.926,3.697l-3.699-0.924l-3.699-3.699z"/>
			<text transform="matrix(1 0 0 1 98.9136 351.9434)"><tspan x="0" y="0" style="fill:#000000;stroke:none;">Wahkiakum</tspan></text>
		</g>
		<g>
			<path d="M590.797,389.979l99.912-0.926l-0.927-25.897h-12.951V352.05l-12.951-0.924l2.773-37.006l-23.127-1.847l-34.228,39.776l-27.753,12.953l11.102,19.426l-1.851,5.551z"/>
			<text transform="matrix(1 0 0 1 607.3286 367.7803)"><tspan x="0" y="0" style="fill:#000000;stroke:none;">Walla Walla</tspan></text>
		</g>
		<g>
			<path d="M230.012,49.548l173.919-1.851l9.25-10.176l-7.402-8.325l-4.625-11.104l1.851-9.251h-9.251l0.927-6.474L203.186,5.142v2.779h-4.625l-0.925,2.774h5.551v2.771l-3.702,1.853v3.7l7.401,4.624l0.926,7.403l5.549,1.848l-0.923,5.552l2.773,0.926l4.624-6.478
				h4.627l6.477,5.552l-3.702,1.851l2.775,9.251z"/>
			<text transform="matrix(1 0 0 1 277.3525 28.2705)"><tspan x="0" y="0" style="fill:#000000;stroke:none;">Whatcom</tspan></text>
		</g>
		<g>
			<path d="M708.285,227.165l80.481,0.927v15.728l0.926,76.78l0.927,12.948l-18.502,0.927l-3.701-5.548l-4.626-12.954l-12.027-5.551v-4.623l-7.397-6.475l-12.025,2.773l-9.254-3.7l-16.65,10.177l-5.551,4.625l-20.354,1.848l-7.401,3.7l-6.475-4.627l3.701-4.622
				l-3.701-1.85l-1.847-12.951l21.275-2.777l6.475-5.55l-4.627-1.848l5.553-14.801v-42.557h14.802z"/>
			<text transform="matrix(1 0 0 1 720.9341 269.7217)"><tspan x="0" y="0" style="fill:#000000;stroke:none;">Whitman</tspan></text>
		</g>
		<g>
			<path d="M341.948,251.217l-8.327,12.951v5.554l-6.474,9.248l6.474,6.479v4.624l10.177,10.172l-6.474,5.554l2.774,2.775l-2.774,7.398l0.924,2.774l-3.701,0.926v10.177l5.551,10.179l-13.878,0.926l-0.924,35.151h2.777v9.251l169.289-0.928l-0.924-74.931l-4.627-7.4
				h-4.622l-0.926-5.553l-55.508-0.926l-0.924-9.249l-12.027-0.921v-11.104l-41.627-0.926l-12.028-13.877l-12.951-7.398l-9.251-0.927z"/>
			<text transform="matrix(1 0 0 1 393.1772 332.625)"><tspan x="0" y="0" style="fill:#000000;stroke:none;">Yakima</tspan></text>
		</g>
	</g>
</svg>
