<?xml version="1.0" encoding="iso-8859-1"?>
<!DOCTYPE svg >

<svg  width="643.458pt" height="600.869pt" viewBox="0 0 643.458 600.869" xml:space="preserve">
	<g id="Layer_x0020_1" style="fill-rule:nonzero;clip-rule:nonzero;stroke:#000000;stroke-miterlimit:4; font-family:'Arial'; font-size:10;">
		<g>
			<path style="fill:#FFFFFF;" d="M326.601,363.327l-0.969,11.613l-10.643,6.77l-1.937,8.711l7.742,14.51l-1.936,5.802l14.511,16.449l5.806,18.749h21.287v-46.804v-34.832h-14.513l-19.348-0.968z"/>
			<text transform="matrix(1 0 0 1 322.6436 395.2578)"><tspan x="0" y="0" style="stroke:none;">Adams</tspan></text>
		</g>
		<g>
			<path style="fill:#FFFFFF;" d="M218.241,106.951l-3.87-60.949l6.771,1.931l18.385-10.639l15.476,9.675l1.936,48.373h11.612l-0.969,10.638l14.513,0.97v22.253h-39.996l-23.857,0.965v-23.218z"/>
			<text transform="matrix(1 0 0 1 225.3271 118.561)"><tspan x="0" y="0" style="stroke:none;">Ashland</tspan></text>
		</g>
		<g>
			<path style="fill:#FFFFFF;" d="M148.582,220.145v-45.472h-53.21l-12.863,0.968v58.047l54.227-0.968l11.846,0.968v-13.543z"/>
			<text transform="matrix(1 0 0 1 100.6821 206.6021)"><tspan x="0" y="0" style="stroke:none;">Barron</tspan></text>
		</g>
		<g>
			<path style="fill:#FFFFFF;" d="M148.582,105.981l-2.9-78.361l27.087-7.743l7.744-5.805l7.736,0.969l16.45-6.771l5.805-4.837l8.706-2.905l13.543,4.837l1.938,1.936l-2.907,9.675l-5.807,4.836l-2.898,6.772l1.937,6.772l-10.645,10.645l3.87,60.949l-69.66-0.97z"/>
			<text transform="matrix(1 0 0 1 167.5596 70.5566)"><tspan x="0" y="0" style="stroke:none;">Bayfield</tspan></text>
		</g>
		<g>
			<path style="fill:#FFFFFF;" d="M504.611,304.313l0.972,13.545h4.836l-0.969,46.438l17.412,0.968l16.448-1.936v-9.673h13.545v-44.506l-14.513,6.773l-3.869,7.737l-9.676,1.938l-1.936-4.836l5.804-14.511h-25.153l-2.901-1.938z"/>
			<text transform="matrix(1 0 0 1 520.4312 343.0078)"><tspan x="0" y="0" style="stroke:none;">Brown</tspan></text>
		</g>
		<g>
			<path style="fill:#FFFFFF;" d="M150.519,316.89h-13.783l-41.364,0.968l-3.868,19.351l-2.9,3.871l17.412,6.769l11.611,24.186l30.956,20.319v-12.576l-6.769-10.643l8.706-5.807V316.89z"/>
			<text transform="matrix(1 0 0 1 109.8872 345.915)"><tspan x="0" y="0" style="stroke:none;">Buffalo</tspan></text>
		</g>
		<g>
			<path style="fill:#FFFFFF;" d="M93.439,105.981l-26.123,0.97l-0.97,10.643l-46.435,25.156l-4.837,13.542l-7.738,6.774L1.53,176.609h37.729l0.968-11.611h42.281v10.644l12.863-0.968l-1.933-68.692z"/>
			<text transform="matrix(1 0 0 1 42.4893 149.5171)"><tspan x="0" y="0" style="stroke:none;">Burnett</tspan></text>
		</g>
		<g>
			<path style="fill:#FFFFFF;" d="M488.162,364.295l0.972,41.601h25.153l-0.968,6.775h12.575l0.968-47.408l-17.412-0.968h-21.288z"/>
			<text transform="matrix(1 0 0 1 488.894 393.3193)"><tspan x="0" y="0" style="stroke:none;">Calumet</tspan></text>
		</g>
		<g>
			<path style="fill:#FFFFFF;" d="M148.582,220.145l67.84,0.968v35.794v25.154h-79.687v-49.34l11.846,0.968v-13.543z"/>
			<text transform="matrix(1 0 0 1 154.4058 256.9067)"><tspan x="0" y="0" style="stroke:none;">Chippewa</tspan></text>
		</g>
		<g>
			<path style="fill:#FFFFFF;" d="M282.208,305.28v34.83h-52.355v-10.645l-13.43-0.968V316.89v-34.829v-25.154h65.786v48.374z"/>
			<text transform="matrix(1 0 0 1 240.7041 302.2109)"><tspan x="0" y="0" style="stroke:none;">Clark</tspan></text>
		</g>
		<g>
			<path style="fill:#FFFFFF;" d="M339.174,445.931l9.674,10.276l10.644,0.968v22.25l-10.644,6.771l-1.936,6.77h75.465l0.968-47.035h-26.123h-36.761h-21.287z"/>
			<text transform="matrix(1 0 0 1 370.2959 472.6523)"><tspan x="0" y="0" style="stroke:none;">Columbia</tspan></text>
		</g>
		<g>
			<path style="fill:#FFFFFF;" d="M243.396,475.557h-57.081l15.476,21.287l-9.673,12.575l-3.87,12.575l3.87,10.64l9.673,0.968l42.572-25.151l-0.968-32.894z"/>
			<text transform="matrix(1 0 0 1 201.8271 506.5146)"><tspan x="0" y="0" style="stroke:none;">Crawford</tspan></text>
		</g>
		<g>
			<path style="fill:#FFFFFF;" d="M422.377,504.579v49.205H383.68h-50.311l0.968-47.27l2.9-6.774l9.675-6.774h75.465v11.613z"/>
			<text transform="matrix(1 0 0 1 369.7881 526.8271)"><tspan x="0" y="0" style="stroke:none;">Dane</tspan></text>
		</g>
		<g>
			<path style="fill:#FFFFFF;" d="M435.921,445.931h-12.576l-0.968,47.035v11.613l51.273,0.968h13.543l1.939-47.404v-12.212h-53.212z"/>
			<text transform="matrix(1 0 0 1 442.4722 474.5859)"><tspan x="0" y="0" style="stroke:none;">Dodge</tspan></text>
		</g>
		<g>
			<path style="fill:#FFFFFF;" d="M558.792,307.219h40.629l6.774-18.384l12.576-14.511v-6.775l4.836-6.773l2.906-7.737l7.737-4.839l0.97-12.576l7.737-8.71v-2.901l-5.808-1.936l-6.769,1.936l-3.868,3.869l1.933,6.774l-14.511,3.872v6.774l-4.839,9.672l-3.869,1.933
				l-6.774,16.45l1.936,4.837l-3.867,4.836l-1.936-4.836l-3.869-1.936l-2.903,3.867l-13.547,1.936l-15.475,25.158z"/>
			<text transform="matrix(1 0 0 1 577.9409 294.6357)"><tspan x="0" y="0" style="stroke:none;">Door</tspan></text>
		</g>
		<g>
			<path style="fill:#FFFFFF;" d="M93.439,105.981l-26.123,0.97V70.189l-0.97-30.961l7.743-1.934l3.871-6.774l3.869-2.9l1.935,6.769l3.868-6.769l14.515,8.706l21.286-1.937l16.444-6.769h5.805l2.9,78.361H93.439z"/>
			<text transform="matrix(1 0 0 1 87.6699 70.189)"><tspan x="0" y="0" style="stroke:none;">Douglas</tspan></text>
		</g>
		<g>
			<path style="fill:#FFFFFF;" d="M82.508,233.688l54.227-0.968v49.34v23.22H82.508v-24.188v-47.404z"/>
			<text transform="matrix(1 0 0 1 98.8975 273.3564)"><tspan x="0" y="0" style="stroke:none;">Dunn</tspan></text>
		</g>
		<g>
			<path style="fill:#FFFFFF;" d="M136.735,282.061h79.687v34.829h-27.204h-38.699h-13.783V305.28v-23.22z"/>
			<text transform="matrix(1 0 0 1 146.4028 300.4434)"><tspan x="0" y="0" style="stroke:none;">Eau Clair</tspan></text>
		</g>
		<g>
			<path style="fill:#FFFFFF;" d="M524.929,156.291l-1.936,8.707l-37.732-0.968l-28.055,0.968l-0.968-39.668l15.481-0.964l45.467,11.607l2.906,5.807l-4.839,4.837l2.9,6.773l6.774,2.9z"/>
			<text transform="matrix(1 0 0 1 467.7407 147.585)"><tspan x="0" y="0" style="stroke:none;">Florence</tspan></text>
		</g>
		<g>
			<path style="fill:#FFFFFF;" d="M513.319,412.671v46.434l-24.186-0.962v-12.212h-53.212v-35.198l53.212,0.967v-5.804h25.153l-0.968,6.775z"/>
			<text transform="matrix(1 0 0 1 448.7593 431.0498)"><tspan x="0" y="0" style="stroke:none;">Fond du Lac</tspan></text>
		</g>
		<g>
			<path style="fill:#FFFFFF;" d="M456.239,125.33l0.968,39.668l28.055-0.968l-0.968,47.118h-27.087h-26.604v-12.288h-13.061l0.967-57.756l-0.967-9.967h11.605l0.97-14.513l7.742,4.837l13.544,0.968l4.836,2.9z"/>
			<text transform="matrix(1 0 0 1 438.2007 183.3804)"><tspan x="0" y="0" style="stroke:none;">Forest</tspan></text>
		</g>
		<g>
			<path style="fill:#FFFFFF;" d="M247.264,599.39l-11.609-19.352l-14.513-3.868l-19.351-9.675l-9.673-33.861l9.673,0.968l42.572-25.151l9.676-3.871l15.475,0.968v52.243l1.937,41.6h-24.188z"/>
			<text transform="matrix(1 0 0 1 226.4214 554.2246)"><tspan x="0" y="0" style="stroke:none;">Grant</tspan></text>
		</g>
		<g>
			<path style="fill:#FFFFFF;" d="M332.401,599.39l50.31,0.968h0.969v-46.573h-50.311v4.006l-0.968,41.6z"/>
			<text transform="matrix(1 0 0 1 345.5957 581.0059)"><tspan x="0" y="0" style="stroke:none;">Green</tspan></text>
		</g>
		<g style="stroke:none;">
			<path style="fill:#FFFFFF;stroke:#000000;" d="M435.921,410.732v35.198h-12.576h-26.123l0.969-15.849h8.706l-0.969-7.737l-2.899-0.968v-9.678h2.899l-0.968-12.572l30.961,0.968v10.638z"/>
			<text transform="matrix(1 0 0 1 407.5132 422.3447)"><tspan x="0" y="0">Green</tspan><tspan x="3.055" y="12">Lake</tspan></text>
		</g>
		<g>
			<path style="fill:#FFFFFF;" d="M294.67,509.419l-7.738-4.84l-9.674-0.968l-7.744,1.936v52.243h63.854v-4.006l0.968-47.27l-19.349-0.968l-3.87,5.808l-16.449-1.936z"/>
			<text transform="matrix(1 0 0 1 287.0137 534.5693)"><tspan x="0" y="0" style="stroke:none;">Iowa</tspan></text>
		</g>
		<g>
			<path style="fill:#FFFFFF;" d="M270.482,51.807l-15.479-4.837l1.936,48.373h11.612l-0.969,10.638l14.513,0.97v22.253h28.443l11.226,1.933l0.964-43.537l-21.283-5.805l-7.742-20.314l-23.219-9.674z"/>
			<text transform="matrix(1 0 0 1 284.123 96.3076)"><tspan x="0" y="0" style="stroke:none;">Iron</tspan></text>
		</g>
		<g>
			<path style="fill:#FFFFFF;" d="M216.422,316.89h-27.204l0.968,68.694l20.318,1.933v-7.74l6.769-3.868l64.936,0.962v-13.543V340.11h-52.355v-10.645l-13.43-0.968V316.89z"/>
			<text transform="matrix(1 0 0 1 212.4746 356.5586)"><tspan x="0" y="0" style="stroke:none;">Jackson</tspan></text>
		</g>
		<g>
			<path style="fill:#FFFFFF;" d="M473.651,505.547l-51.273-0.968v49.205h25.154h26.119v-48.237z"/>
			<g>
				<text transform="matrix(1 0 0 1 426.9526 532.8008)"><tspan x="0" y="0" style="stroke:none;">Jefferson</tspan></text>
			</g>
		</g>
		<g>
			<path style="fill:#FFFFFF;" d="M326.601,363.327h-44.393v13.543v58.051v11.01h56.967l-5.806-18.749l-14.511-16.449l1.936-5.802l-7.742-14.51l1.937-8.711l10.643-6.77l0.969-11.613z"/>
			<text transform="matrix(1 0 0 1 290.8462 431.0498)"><tspan x="0" y="0" style="stroke:none;">Juneau</tspan></text>
		</g>
		<g>
			<path style="fill:#FFFFFF;" d="M497.836,599.39h12.582l42.568,0.968l-0.968-16.445l2.896-5.804l-43.532-1.938l-0.965,7.742h-11.611l-0.971,15.478z"/>
			<text transform="matrix(1 0 0 1 508.0913 593.5869)"><tspan x="0" y="0" style="stroke:none;">Kenosha</tspan></text>
		</g>
		<g>
			<path style="fill:#FFFFFF;" d="M556.855,353.654h26.122l-0.968-7.739l7.736-23.218l9.675-15.479h-40.629l-1.937,1.93v44.506z"/>
			<text transform="matrix(1 0 0 1 566.4214 333.3379)"><tspan x="0" y="0" style="stroke:none;">Kewaunee</tspan></text>
		</g>
		<g>
			<path style="fill:#FFFFFF;" d="M210.503,387.517l-20.318-1.933l-19.349,4.837l0.968,8.706l-11.611-0.968l16.448,19.348l4.837,5.806l-0.968,10.644h35.792l1.937-45.472l-7.738-0.968z"/>
			<text transform="matrix(1 0 0 1 170.2993 409.8662)"><tspan x="0" y="0" style="stroke:none;">La Crosse</tspan></text>
		</g>
		<g>
			<path style="fill:#FFFFFF;" d="M271.452,599.39h53.21h7.739l0.968-41.6h-63.854l1.937,41.6z"/>
			<text transform="matrix(1 0 0 1 278.9365 582.9443)"><tspan x="0" y="0" style="stroke:none;">Lafayette</tspan></text>
		</g>
		<g>
			<path style="fill:#FFFFFF;" d="M456.978,210.646l-26.601,0.358l-0.167-12.285l-13.06,0.176l-39.678-0.434l1.611,47.78l20.873-0.282l0.165,12.189l26.528-0.357l-0.157-11.614l35.795-0.481l-0.168-12.573l-4.835,0.064l-0.306-22.541z"/>
			<text transform="matrix(0.9999 -0.0134 0.0134 0.9999 396.0239 230.1406)"><tspan x="0" y="0" style="stroke:none;">Langlade</tspan></text>
		</g>
		<g>
			<path style="fill:#FFFFFF;" d="M377.874,197.892v-10.64l-67.336-0.968v24.667v34.738h68.304l-0.968-47.798z"/>
			<text transform="matrix(1 0 0 1 331.0674 219.1772)"><tspan x="0" y="0" style="stroke:none;">Lincoln</tspan></text>
		</g>
		<g>
			<path style="fill:#FFFFFF;" d="M556.855,353.654h26.122l1.933,18.379l-13.542,7.743l-6.775,14.511l-1.931,18.384h-36.768l0.968-47.408l16.448-1.936v-9.673h13.545z"/>
			<text transform="matrix(1 0 0 1 548.1714 385.7158)"><tspan x="0" y="0" style="stroke:none;">Manitowoc</tspan></text>
		</g>
		<g>
			<path style="fill:#FFFFFF;" d="M310.537,245.689H294.67l-0.969,11.217h-11.494v48.374l51.548-0.968l65.96,0.968v-47.402v-12.188h-20.875h-68.304z"/>
			<text transform="matrix(1 0 0 1 322.8887 277.2256)"><tspan x="0" y="0" style="stroke:none;">Marathon</tspan></text>
		</g>
		<g>
			<path style="fill:#FFFFFF;" d="M575.234,248.2l-16.442-10.64v-8.711l5.801-7.736l0.968-6.774l-1.931-3.869l-18.389,3.869l-2.898-3.869l7.738-15.479l-0.966-9.675l2.904-6.774l-2.904-5.801l2.904-3.874l-3.872-4.836l-18.381-9.675l-4.837,1.936l-1.936,8.707
				l-37.732-0.968l-0.968,47.118h12.575l0.968,23.509h12.582l0.965,11.608h6.771v11.614l38.7,5.804v3.867l15.479-6.773l2.899-12.576z"/>
			<text transform="matrix(1 0 0 1 496.3452 202.7275)"><tspan x="0" y="0" style="stroke:none;">Marinette</tspan></text>
		</g>
		<g>
			<path style="fill:#FFFFFF;" d="M404.96,399.127h-44.499v46.804h36.761l0.969-15.849h8.706l-0.969-7.737l-2.899-0.968v-9.678h2.899l-0.968-12.572z"/>
			<text transform="matrix(1 0 0 1 362.1353 426.2139)"><tspan x="0" y="0" style="stroke:none;">Marquette</tspan></text>
		</g>
		<g>
			<path style="fill:#FFFFFF;" d="M523.961,553.784l0.968-48.237h18.381l2.901,15.479l-1.932,8.707l5.801,7.74l0.968,15.478l-27.087,0.833z"/>
			<text transform="matrix(1 0 0 1 533.6714 530.7031)"><tspan x="0" y="0" style="stroke:none;">Milwaukee</tspan></text>
		</g>
		<g>
			<path style="fill:#FFFFFF;" d="M210.503,387.517v-7.74l6.769-3.868l64.936,0.962v58.051l-65.903-0.965l1.937-45.472l-7.738-0.968z"/>
			<text transform="matrix(1 0 0 1 233.2144 409.7695)"><tspan x="0" y="0" style="stroke:none;">Monroe</tspan></text>
		</g>
		<g>
			<path style="fill:#FFFFFF;" d="M484.293,211.147h-27.087v22.541h4.837v12.576h3.384v34.829h39.184v23.22l2.901,1.938h25.153l0.971-7.741l5.808-5.803l1.93-5.807l8.707-9.675l6.774-9.677v-3.867l-38.7-5.804v-11.614h-6.771l-0.965-11.608h-12.582l-0.968-23.509
				h-12.575z"/>
			<text transform="matrix(1 0 0 1 496.228 270.4502)"><tspan x="0" y="0" style="stroke:none;">Oconto</tspan></text>
		</g>
		<g>
			<path style="fill:#FFFFFF;" d="M310.537,141.104v45.18l67.336,0.968v10.64l39.668,0.968l0.967-57.756h-14.512l-0.968,6.481h-12.58v-6.481h-79.912z"/>
			<text transform="matrix(1 0 0 1 350.1382 167.9028)"><tspan x="0" y="0" style="stroke:none;">Oneida</tspan></text>
		</g>
		<g>
			<path style="fill:#FFFFFF;" d="M505.583,317.857h-39.669l-13.543,0.969v45.469h35.791h21.288l0.969-46.438h-4.836z"/>
			<text transform="matrix(1 0 0 1 456.8325 338.1738)"><tspan x="0" y="0" style="stroke:none;">Outagamie</tspan></text>
		</g>
		<g>
			<path style="fill:#FFFFFF;" d="M527.83,459.104l-2.9,46.442h18.381l1.931-17.417l9.675-19.347l2.907-9.679H527.83z"/>
			<text transform="matrix(1 0 0 1 535.4468 484.5957)"><tspan x="0" y="0" style="stroke:none;">Ozaukee</tspan></text>
		</g>
		<g>
			<path style="fill:#FFFFFF;" d="M136.735,305.28H82.508v19.349H63.446l8.708,11.611l16.45,4.839l2.9-3.871l3.868-19.351l41.364-0.968V305.28z"/>
			<text transform="matrix(1 0 0 1 98.1738 314.3145)"><tspan x="0" y="0" style="stroke:none;">Pepin</tspan></text>
		</g>
		<g>
			<path style="fill:#FFFFFF;" d="M82.508,305.28v-24.188l-65.5-0.968l-4.836,15.479l7.738,6.775l6.773,1.934l15.476,14.514l18.385,3.871l2.9,1.932h19.063V305.28z"/>
			<text transform="matrix(1 0 0 1 39.5996 304.3125)"><tspan x="0" y="0" style="stroke:none;">Pierce</tspan></text>
		</g>
		<g>
			<path style="fill:#FFFFFF;" d="M82.508,175.641v-10.644H40.228l-0.968,11.611H1.53l-0.968,6.771l14.512,2.903l12.575,17.415l-10.64,18.379l-0.968,11.611h66.467v-58.047z"/>
			<text transform="matrix(1 0 0 1 43.0767 204.666)"><tspan x="0" y="0" style="stroke:none;">Polk</tspan></text>
		</g>
		<g>
			<path style="fill:#FFFFFF;" d="M399.716,305.28v59.015h-39.255h-14.513v-35.797h-12.193v-24.186l65.96,0.968z"/>
			<text transform="matrix(1 0 0 1 353.5859 336.2402)"><tspan x="0" y="0" style="stroke:none;">Portage</tspan></text>
		</g>
		<g>
			<path style="fill:#FFFFFF;" d="M242.098,129.204v45.469v36.278h68.439v-24.667v-45.18v-11.899h-28.443h-39.996z"/>
			<text transform="matrix(1 0 0 1 265.8667 172.7402)"><tspan x="0" y="0" style="stroke:none;">Price</tspan></text>
		</g>
		<g>
			<path style="fill:#FFFFFF;" d="M497.836,553.784l0.971,30.128h11.611l0.965-7.742l43.532,1.938l1.939-14.511l-5.807-10.646l-27.087,0.833h-26.125z"/>
			<text transform="matrix(1 0 0 1 515.1655 567.4629)"><tspan x="0" y="0" style="stroke:none;">Racine</tspan></text>
		</g>
		<g>
			<path style="fill:#FFFFFF;" d="M294.67,509.419l-7.738-4.84l-9.674-0.968l-7.744,1.936l-15.475-0.968l-9.676,3.871l-0.968-32.894l1.933-18.382h36.879l13.432,0.968l-0.969,51.276z"/>
			<text transform="matrix(1 0 0 1 250.0591 484.2607)"><tspan x="0" y="0" style="stroke:none;">Richland</tspan></text>
		</g>
		<g>
			<path style="fill:#FFFFFF;" d="M383.68,600.357h46.437h18.379l-0.964-46.573h-25.154H383.68v46.573z"/>
			<text transform="matrix(1 0 0 1 403.8608 579.5469)"><tspan x="0" y="0" style="stroke:none;">Rock</tspan></text>
		</g>
		<g>
			<path style="fill:#FFFFFF;" d="M242.098,210.951v-36.278h-93.517v45.472l67.84,0.968v-10.162h25.676z"/>
			<text transform="matrix(1 0 0 1 182.6636 199.8271)"><tspan x="0" y="0" style="stroke:none;">Rusk</tspan></text>
		</g>
		<g>
			<path style="fill:#FFFFFF;" d="M82.508,233.688H16.041l-1.936,19.35l2.904,27.086l65.5,0.968v-47.404z"/>
			<text transform="matrix(1 0 0 1 28.7974 258.8423)"><tspan x="0" y="0" style="stroke:none;">St. Croix</tspan></text>
		</g>
		<g>
			<path style="fill:#FFFFFF;" d="M339.174,445.931h-56.967v11.244l13.432,0.968l-0.969,51.276l16.449,1.936l3.87-5.808l19.349,0.968l2.9-6.774l9.675-6.774l1.936-6.77l10.644-6.771v-22.25l-10.644-0.968l-9.674-10.276z"/>
			<text transform="matrix(1 0 0 1 312.7607 484.4463)"><tspan x="0" y="0" style="stroke:none;">Sauk</tspan></text>
		</g>
		<g>
			<path style="fill:#FFFFFF;" d="M148.582,105.981v68.692h93.517v-45.469l-23.857,0.965v-23.218l-69.66-0.97z"/>
			<text transform="matrix(1 0 0 1 176.7173 146.1523)"><tspan x="0" y="0" style="stroke:none;">Sawyer</tspan></text>
		</g>
		<g>
			<path style="fill:#FFFFFF;" d="M399.716,257.878v47.402l66.197,0.971v11.606h39.669l-0.972-13.545v-23.22h-39.184h-18.863v-9.065h-20.318v-14.149h-26.529z"/>
			<text transform="matrix(1 0 0 1 425.7144 294.6357)"><tspan x="0" y="0" style="stroke:none;">Shawano</tspan></text>
		</g>
		<g>
			<path style="fill:#FFFFFF;" d="M465.427,281.093v-34.829h-3.384h-35.798v11.614v14.149h20.318v9.065h18.863z"/>
			<text transform="matrix(1 0 0 1 420.439 267.5615)"><tspan x="0" y="0" style="stroke:none;">Menominee</tspan></text>
		</g>
		<g>
			<path style="fill:#FFFFFF;" d="M525.894,412.671h36.768v8.706l2.898,13.544l-7.737,24.184H527.83h-14.511v-46.434h12.575z"/>
			<text transform="matrix(1 0 0 1 514.144 438.793)"><tspan x="0" y="0" style="stroke:none;">Sheboygan</tspan></text>
		</g>
		<g>
			<path style="fill:#FFFFFF;" d="M310.537,210.951h-68.439h-25.676v10.162v35.794h65.786h11.494l0.969-11.217h15.867v-34.738z"/>
			<text transform="matrix(1 0 0 1 247.4717 238.5278)"><tspan x="0" y="0" style="stroke:none;">Taylor</tspan></text>
		</g>
		<g>
			<path style="fill:#FFFFFF;" d="M189.218,316.89h-38.699v46.438l-8.706,5.807l6.769,10.643v12.576l11.612,5.807l11.611,0.968l-0.968-8.706l19.349-4.837l-0.968-68.694z"/>
			<text transform="matrix(1 0 0 1 141.562 376.8701)"><tspan x="0" y="0" style="stroke:none;">Trempealeau</tspan></text>
		</g>
		<g>
			<path style="fill:#FFFFFF;" d="M216.304,433.956h-35.792l-1.938,4.837l2.906,7.735l-0.968,11.614l2.901,7.737l2.902,9.677h57.081l1.933-18.382h36.879v-11.244v-11.01l-65.903-0.965z"/>
			<text transform="matrix(1 0 0 1 205.5967 453.3701)"><tspan x="0" y="0" style="stroke:none;">Vernon</tspan></text>
		</g>
		<g>
			<path style="fill:#FFFFFF;" d="M430.117,116.624l-6.771-3.869l-13.548-4.837l-24.187-3.868L322.727,87.6l-0.964,43.537l-11.226-1.933v11.899h79.912v6.481h12.58l0.968-6.481h14.512l-0.967-9.967h11.605l0.97-14.513z"/>
			<text transform="matrix(1 0 0 1 358.4199 123.3984)"><tspan x="0" y="0" style="stroke:none;">Vilas</tspan></text>
		</g>
		<g>
			<path style="fill:#FFFFFF;" d="M448.496,600.357h8.711l40.63-0.968l0.971-15.478l-0.971-30.128h-24.186h-26.119l0.964,46.573z"/>
			<text transform="matrix(1 0 0 1 451.1655 585.916)"><tspan x="0" y="0" style="stroke:none;">Walworth</tspan></text>
		</g>
		<g>
			<path style="fill:#FFFFFF;" d="M93.439,105.981l1.933,68.692h53.21v-68.692H93.439z"/>
			<text transform="matrix(1 0 0 1 98.8584 144.0522)"><tspan x="0" y="0" style="stroke:none;">Washburn</tspan></text>
		</g>
		<g>
			<path style="fill:#FFFFFF;" d="M489.133,458.143l-1.939,47.404h37.735l2.9-46.442h-14.511l-24.186-0.962z"/>
			<text transform="matrix(1 0 0 1 481.2944 492.0039)"><tspan x="0" y="0" style="stroke:none;">Washington</tspan></text>
		</g>
		<g>
			<path style="fill:#FFFFFF;" d="M524.929,505.547h-37.735h-13.543v48.237h24.186h26.125l0.968-48.237z"/>
			<text transform="matrix(1 0 0 1 476.3374 537.4736)"><tspan x="0" y="0" style="stroke:none;">Waukesha</tspan></text>
		</g>
		<g>
			<path style="fill:#FFFFFF;" d="M465.914,317.857l-13.543,0.969v45.469h-16.449h-36.205V305.28l66.197,0.971v11.606z"/>
			<text transform="matrix(1 0 0 1 406.2769 338.1738)"><tspan x="0" y="0" style="stroke:none;">Waupaca</tspan></text>
		</g>
		<g>
			<path style="fill:#FFFFFF;" d="M399.716,364.295h-39.255v34.832h44.499l30.961,0.968v-35.8h-36.205z"/>
			<text transform="matrix(1 0 0 1 379.5244 387.6475)"><tspan x="0" y="0" style="stroke:none;">Waushara</tspan></text>
		</g>
		<g>
			<path style="fill:#FFFFFF;" d="M435.921,364.295v35.8v10.638l53.212,0.967v-5.804l-0.972-41.601h-35.791h-16.449z"/>
			<text transform="matrix(1 0 0 1 436.814 387.4482)"><tspan x="0" y="0" style="stroke:none;">Winnebago</tspan></text>
		</g>
		<g>
			<path style="fill:#FFFFFF;" d="M333.756,304.313v24.186h12.193v35.797l-19.348-0.968h-44.393V340.11v-34.83l51.548-0.968z"/>
			<text transform="matrix(1 0 0 1 300.0801 339.1436)"><tspan x="0" y="0" style="stroke:none;">Wood</tspan></text>
		</g>
	</g>
</svg>
