<?xml version="1.0" encoding="iso-8859-1"?>
<!DOCTYPE svg PUBLIC "-//W3C//DTD SVG 20000303 Stylable//EN"   "http://www.w3.org/TR/2000/03/WD-SVG-20000303/DTD/svg-20000303-stylable.dtd">
<!-- Generator: Adobe Illustrator 9.0, SVG Export Plug-In  -->
<svg  width="801.6pt" height="549.39pt" viewBox="0 0 801.6 549.39" xml:space="preserve">
	<g id="Layer_x0020_1" style="fill-rule:nonzero;clip-rule:nonzero;fill:#FFFFFF;stroke:#000000;stroke-miterlimit:4; font-family:'Arial'; font-size:12;">
		<g>
			<g>
				<path d="M130.14,18.37l1.55-2.97l1.27-0.42l0.57,1.13l-0.42,0.85l0.28,1.84l1.13,1.41l-1.13,2.12l2.26,0.71l-0.85,1.83l1.84-0.99l0.56,1.98l0.42-3.39l2.26,1.27l0.57,2.68l-1.55,5.08l-5.08,0.85l-0.85-0.28l0.42-0.42l-0.28-0.85l-8.75,5.93l-3.11-0.85
					l-0.99-1.27l0.14-0.71l2.96-2.12l2.97,0.28l1.69-2.68l-2.96,1.13l-0.99-0.99l-0.28,1.27l-2.26,0.85l-0.28-0.56l0.56-0.85l-0.14-1.41l0.99-0.85l-1.41,0.28l-0.42,1.55l-0.85-0.71l0.28,1.98l-0.85,0.85l-1.69-1.13v1.27l-1.41-0.85l-0.14-1.13l-3.11-0.42l0.99-1.98
					l2.54-0.14l2.12-1.98l-3.11,1.55L114.04,26l5.51-2.4l-4.52,0.56l0.56-2.68l3.95-0.14l-2.68-1.13l2.12-1.98l1.84,0.71v2.12l3.67,0.14l1.55,2.4l-0.85,0.99l1.55-0.28l0.57,2.82l5.23,0.14l0.14-1.55l-2.4-1.84l1.55-1.13l-2.4-2.82l-0.28-1.13l0.99-0.42"/>
				<path d="M163.6,13.29l-3.25-0.14l-0.99,1.13l1.41,1.55l-1.55,0.28l4.38,5.08l3.95-1.13l2.4,6.92l-0.99,1.84l-0.14,1.69l1.69,0.85l-0.99,0.85l0.14,1.55l1.27,1.55l1.69-1.69l-0.56,0.85l0.71,0.99v-1.13l2.54,1.98l0.71-0.99l-0.42-1.13l1.13,0.85l0.42-1.41
					l0.14,0.14l0.42,0.28l-0.14,2.4l0.57,0.14l6.21-0.56v-0.99l0.85,1.41l0.42-1.69l0.28,1.41l2.97-0.42l0.71-1.41l-0.85-1.41l1.13,0.85l0.14,1.69l0.71,0.85l1.98,0.42l3.81-1.27l-0.85-3.81l1.98-2.12l-0.42-2.12l-5.65-2.96l-8.61,3.25l1.27,1.13l-2.54,0.42
					l0.56-0.56l-2.26-1.7l-0.42,1.41l-0.42-1.13l-0.99,0.99l-0.85-1.84l-0.56,2.4l-1.84-1.41l0.99-0.56l0.28-1.27l-0.42-0.56l-3.11-1.13l-0.99,1.55l0.42-1.41l-0.14-0.28l1.69-0.42l-2.68-1.27l4.52,0.28l0.71-1.84l-4.94-1.41l2.4-0.14l-2.54-2.4l-4.66,2.83
					l0.56-3.81l-3.39-2.26"/>
				<path d="M107.68,13.43l2.82-3.53l3.95,0.56l0.28-0.71l-0.85-0.71l1.55-0.99l2.26,2.68l-1.98,1.27l0.99,1.98l-0.99,0.57l0.99,1.98l-2.4,1.41l-0.14,2.4l-1.98-1.41l0.56-3.53l-1.27,0.28l-0.42,0.99l0.28,1.27l-1.27,0.56l0.85,1.41l-0.85,1.98l-1.55-2.12l0.28,1.98
					l-0.71,0.42l0.71,1.13l-1.69,1.41l-0.99-3.67l-0.99,2.54l-1.41-1.98l-1.41,1.98l-0.42-0.42l0.56-1.69l-0.99-0.14l1.13-2.26h1.69l0.85-2.54l2.26-1.41l-0.28-0.14l0.56-1.55"/>
				<path d="M157.67,23.03l-0.14-4.52l-1.69-1.84l-1.41,1.98l-2.96-1.69l-1.27,1.55l2.12,1.55l-1.13,0.57l1.27,0.28l-0.42,0.42l1.13,1.7l-4.8-4.38l-0.71,2.4h0.56l0.14,2.12l0.99-0.42l-0.42,0.99l0.71,1.13l-1.69-0.85l-0.57,0.99l0.42,0.85l-0.71,0.56l7.63-1.41
					l-3.81,2.96l1.27,1.69l-1.13,0.28l0.14,1.41l5.37,0.28l-0.28-1.55l1.13,0.57l-1.13-1.84l0.85-1.55l-0.14-0.85l1.13,1.84v-3.11l-0.99-0.14l0.56-1.98"/>
				<path d="M152.59,56.5l-0.71-1.55l-2.54-0.56l-2.26-3.95l0.28-1.41l0.85-0.42l1.84,2.54l2.12-0.85l-0.28-0.99l0.56-0.28l-0.85-1.98l1.13,0.14l-3.25-2.26l1.69,0.28l-0.14-1.13l-1.27-0.99l2.4-0.28l-0.71-0.99l0.42-0.42l2.96,1.41l3.39-1.41l0.85,0.99l-1.27,2.12
					l0.71,1.27l-1.27,0.85l-1.27,2.54l1.84-0.85l1.13,1.98l-0.14,0.99l1.13-0.99l0.56,2.12l-0.56,1.13l0.42,3.39l-1.84,1.69l-1.69-0.14l0.28,1.27l-0.99,1.13l-1.41-0.42l-0.85-2.68l-1.27-1.27"/>
				<path d="M199.47,43.51l3.53,1.13l2.68,4.52l-7.34,1.27l-1.41-0.99l-0.42-2.54l-1.55-1.13l0.28-2.26h4.24"/>
				<path d="M185.35,0.58l-0.56,1.98l-1.55,0.14l0.42-2.12h1.69z"/>
				<path d="M183.23,0.58l-0.85,1.41l-2.12,0.28l0.99-0.85h-0.99l-0.14-0.85h3.11z"/>
				<path d="M181.96,19.93v-2.12l-0.71,2.26l-1.55-1.84l-0.14,1.69l-0.56,0.14L178,19.5l-0.28-2.54l-0.28,2.4l-0.28-1.27l-0.85,1.41l-0.85-1.41l0.28-1.98l2.12-2.54l3.81-1.41l-0.99-0.14l0.71-1.84l-1.69,0.14l-1.27-2.82l-0.14-1.84l4.09-0.56l1.69,4.24l2.97,1.27
					l2.12-0.71l-0.42-0.85l0.28-0.85l-2.82,0.14l0.28-2.26l-0.56,1.41l-0.85-0.99l0.42-1.13h-0.7l1.41-0.85l-2.26-0.14l3.95-2.4l-1.84-0.57l0.28-0.85h21.04l-0.85,1.13h-2.97l3.11,0.71l-0.85,1.84l-5.08-0.14l0.57,2.97l0.85,0.71l-1.41,2.68l-4.94,0.85l-2.54-2.12
					l0.85,1.84l-1.69,0.42l0.42,1.69l5.37-1.27l0.99,1.13l-0.71,0.85l0.85,1.69l1.55-1.41l0.56,1.98l-0.28,1.69l-6.64,4.23l-0.14-0.56l0.42-1.41l-0.42-1.13h-1.84l-1.41-1.98l0.85,1.69l-1.27,1.27l-1.69-3.67l0.57,1.98l-0.71,1.27l-1.69-2.12l-0.71,2.12l-1.13-1.27
					l1.27,2.54l-4.66-0.85z"/>
				<path d="M208.64,81.77l0.99-0.85l1.83,1.98l-2.12,0.14l-0.71-1.27"/>
				<path d="M205.11,79.94l2.4,0.57l0.42,1.27l-0.14,2.82l-1.27,1.41h-2.82L203,84.32l0.14-1.69l1.98-2.68"/>
				<path d="M188.45,93.35l1.13,1.84l-1.55-0.99l-0.99-1.69l1.41,0.85"/>
				<path d="M182.24,80.22l0.14,2.96l-0.85-0.71v-2.12l0.71-0.14"/>
				<path d="M163.46,39.7l3.53-0.71l7.06,2.12l-0.99,2.54h-0.71l-0.28,2.4l-0.85,0.42l0.42,0.14l-0.28,0.85l-1.41,2.97l-4.94-0.28l1.98,2.12l-1.41,2.82l-1.84,0.56l-0.57-0.28l0.57-0.85l-0.57-0.28v-1.55l0.57-1.13l-1.41-0.99l-0.14-1.69v-6.36l2.26,0.85l-1.69-2.26
					l0.71-1.41"/>
				<path d="M163.6,26.28l3.25,3.67v4.52l-2.54,0.71l-3.81-3.53l-0.28-1.55l1.7-1.69l-0.71-0.42l2.4-1.69"/>
				<path d="M197.77,33.34l0.57-0.56l-0.42-0.99l-1.98,0.85l1.83,0.71"/>
				<path d="M198.76,22.75l-0.28,1.13l0.71,0.99h-1.83l0.85-2.54l0.56,0.42"/>
				<path d="M200.45,106.63h1.55l0.56,0.99l-0.71,0.57l-1.41-1.55"/>
				<path d="M196.5,70.62l1.84,0.42l-1.41,0.71v0.99l-0.99-1.98l0.56-0.14"/>
				<path d="M163.46,6.09l4.24,1.13l-0.71,0.56v1.84l-3.39-0.14l-2.54-2.26l2.4-1.13"/>
				<path d="M177.86,0.58l-0.28,1.41l-0.85-1.27l1.13-0.14z"/>
				<path d="M175.46,0.58l0.56,1.69l-1.55-1.69l-0.99,0.14l0.99,1.84l-4.09-0.85l-0.57-0.99l5.65-0.14z"/>
				<path d="M118.98,3.97l1.13-1.13l1.69,2.68l-1.27,0.99l-1.55-2.54"/>
				<path d="M125.62,2.98h4.94l-3.81,2.4l2.68,0.28l-0.14,2.82l-4.24,1.55l-2.26-1.84l-0.28-2.68l3.11-2.54"/>
				<path d="M120.96,14.7l0.99,1.55l-2.82-0.85l1.84-0.71"/>
				<path d="M112.34,22.61l0.99,0.14l-1.98,4.66L109.38,26l2.97-3.39"/>
				<path d="M143.41,28.12l0.99,2.4l-0.28,0.56l-2.54-0.56l0.71-2.26l1.13-0.14"/>
				<path d="M145.67,23.88l2.12-0.28l-2.26,1.84l-0.56-0.28l0.71-1.27"/>
				<path d="M145.81,22.47l0.99,0.56l-2.97,0.99l1.98-1.55"/>
				<path d="M145.81,20.07l0.99,0.71l-1.13,1.55l-3.25-0.85l3.39-1.41"/>
				<path d="M150.19,16.11l1.13,0.28l-0.71,0.71l-1.84,0.56l1.41-1.55"/>
				<path d="M143.55,17.38l-1.41,0.28l1.27,2.12l2.26-0.56l-2.12-1.84"/>
				<path d="M141.29,7.78l1.69,3.81l-1.84,0.28l-1.98-5.79l2.12,1.69"/>
				<path d="M148.07,3.83l2.4,1.7l-2.68,0.42l-1.13-1.69l1.41-0.42"/>
				<path d="M153.58,0.58l1.13,1.98l-0.57,2.12l-1.69,0.71l-1.41-1.13l-0.99-3.53l-0.71-0.14h4.24z"/>
				<path d="M163.88,0.58l-0.28,1.27l0.57,1.27l-0.71,0.85l-4.66,1.55l0.28-1.13l-1.55-1.83l2.12-1.27l-2.12-0.71h6.35z"/>
				<path d="M160.49,26.42l-0.71,1.84l-0.85-0.99l1.55-1.55l0.71,0.56l-0.14,1.27l-0.56-1.13"/>
				<path d="M159.36,72.31l-2.26-2.26l-0.85,1.84l0.28,0.56h-0.85l0.28,1.27l-2.26,1.41l-0.14,1.13l7.2,2.54l2.4-2.12l-0.56,0.28l-3.25-4.66"/>
				<path d="M155.55,41.95l1.69-2.26l-3.53,1.84l1.84,0.42"/>
				<path d="M159.93,48.45l-0.28-1.41l-0.99,0.56l0.42,1.55l0.85-0.71"/>
				<path d="M141.43,47.6l0.99-3.67l-0.7-0.99l-3.53-0.42l-1.41,2.12l3.81,4.38l0.85-1.41"/>
				<path d="M119.4,73.87l-3.81-1.13l-1.84-3.67l6.64-1.98l4.24,0.56l0.85-0.99l-3.95-1.98l-3.53,1.13l-4.66-0.71l-1.55-2.68l5.51-2.26l-0.57-0.42l1.13-0.85l-5.79,1.27l-0.28-0.57l0.99-0.56v-0.99l-2.4,0.14l-0.28-1.55l2.12-2.68l-0.85-0.99l0.56-1.98l7.77-5.51
					l0.99,0.56l0.42,2.4l-1.13,2.96l2.12-0.71l0.14-1.84l1.13-0.85l3.95,2.68l-1.55,2.54l4.52-1.84l-0.56-0.85h0.71l-1.41-2.26l2.12,0.71l1.98,2.82l0.42,3.53l0.56,0.57l-0.28,1.55l0.56,0.56l1.55-1.83l-0.85-2.54l-0.99-6.64l0.71-0.42l-0.42-0.85l2.68,1.27
					l-0.14-0.85h0.56l2.97,3.53l-0.14,0.71l0.42,0.71l0.57,4.38l1.41,3.11l-0.28,3.53l2.54,2.97l1.41-0.14l2.83,3.25h1.27l0.14,0.99l-0.28,2.12h-0.57l-0.42-1.69l-0.42,1.69l-0.56-0.14l-0.42-1.41l-1.27,1.13l0.28,1.27l-1.41-0.14l0.14,1.98l2.12-1.55l0.42,0.28
					l-0.56,1.55l1.41,0.42l-3.11,2.26l-5.08-0.99l0.56-0.99l-3.11-0.71v-1.27l-0.56-0.57l-1.69,3.11l-2.82,0.28l-1.98,1.98l-8.33,0.99l0.56-0.56l-1.13-0.99l-0.28-0.99l0.14-1.13l-2.82-1.27"/>
				<path d="M98.36,40.26l0.85,1.13l-2.4,5.79l0.71,1.27l-1.13,0.28l0.28,2.54l-1.98,4.52l3.95,1.69l2.12,4.52l3.25-2.97l0.71,0.85l1.69-0.99l0.42-1.41l-0.14-1.69l0.71-2.12l1.98-0.56l0.71-2.54l8.19-6.07l-4.94-6.21l-2.82,0.14l-0.85,1.98l0.14-1.83l-1.41,1.41
					l0.28-1.41l-4.1-3.11l-3.53,0.71v1.13l-0.42-1.13l-3.11,0.85l0.85,1.41l-0.28,0.71l0.28,1.13"/>
				<path d="M200.6,74.29h-0.42l-0.14-0.85h0.7l-0.14,0.85z"/>
				<path d="M200.31,74.71l-0.56-0.57l-1.41,2.26l1.27-0.56l0.71-1.13z"/>
				<path d="M330.79,105.78l-2.68-1.69l-3.25,0.28l-0.14-1.27l1.98-0.56v-0.85l-0.71,0.14l0.71-1.27l-0.57,0.42L325,99.14l-2.97,0.28l2.54-1.41l1.98,0.14l0.28-0.99l-1.69,0.28l1.55-1.55l-1.55-0.85l-4.52,0.71l0.42-0.85l1.27,0.28l-0.85-1.27l1.98,0.85l-1.13-1.13
					l0.42-0.14l-0.56-0.85l0.85-0.14l-0.28-0.42l2.54,1.69v-1.41l-0.99-0.57l0.85-0.28l-1.41-0.42l0.14-0.71l1.41,0.14l2.4,2.26l-0.42,0.42l0.57,0.85l-0.99,0.28l0.85,0.71l0.43,1.98l0.7-0.99l0.14-1.27l0.99,0.42l0.14-2.96l1.84,2.12l0.14-1.69l1.55-0.85l1.41,2.97
					l-0.42-2.83l1.41,0.99l0.71-0.99h1.98l-0.28-1.69l0.71-0.28l1.69,1.98l1.83-1.27l-0.99,1.98l0.85-0.14l-0.14,1.98l1.7,0.14l0.71,1.27l-0.28,0.85l0.71,0.28l-0.56,1.69l-1.55,1.13l0.56,0.14l-1.55,2.12l-0.99-0.85l-2.12,2.4l-1.69,0.14l-3.53,2.82l-2.96-0.85"/>
				<path d="M356.63,61.86l-1.55,1.69l1.98-0.99l0.56-1.27l-0.99,0.57"/>
				<path d="M224.6,108.6l-2.26-2.68l-0.56-0.85l0.56-0.28l1.41,1.55l0.85-0.56l2.12,2.68l2.68,0.28l1.41,2.12l0.28-0.14l-0.56-1.55l1.13,0.28l-0.28-0.99l-0.85-1.13v-0.99l0.99,0.85l0.28-2.12l-0.42-1.55l-1.41-0.57l0.56-2.26l-0.85-0.71l-0.56,0.56l-0.14-1.27
					l-1.41,0.28l0.42-0.71h-1.13l-0.14,0.71l-0.71-2.12l-0.56-0.14v-2.12h-1.55l0.14-1.41l1.69-0.42l-2.26-2.4l0.85-0.42l1.27,0.99l-0.56-1.27h1.27l-0.14,1.13l2.26,1.27l0.14,0.71l1.13-0.14v1.69l0.99,1.41l0.57-0.42l-0.14,1.13l0.42,0.56l0.71-0.28l1.41,1.69
					l0.85-2.12l-0.42-2.4l1.55,0.99l0.7-2.12l0.71-0.28l-1.13-0.28l0.57-1.13l-0.57-0.14l1.98,0.28l0.28-0.28l-0.42-0.56l0.85-1.13l-1.84-2.12l-2.54,0.57l0.71-2.26l-2.54,0.42l0.56-1.13l-1.27-2.26l-1.41-0.28l0.28-1.27l-2.12,0.99l-0.7-0.71l0.42-0.71l-0.28-0.57
					h-1.55l0.42-0.99l-3.67-1.41l1.41-0.42l-0.99-1.27l0.85-0.71l-1.69-1.13l4.52-0.56l-5.23-1.69l3.53-1.13l0.42-0.71l-0.28-0.56l-2.12-2.4l-0.28,1.13l-1.69,0.99l0.85-1.41l-2.26,0.14l2.54-1.41l0.14-1.41l-2.4-1.13l-1.98,1.69l1.13-2.26l-2.12,1.27l0.71-1.84
					l-0.14-0.85h-3.39l2.12-0.71l0.28-0.56l-0.85-1.84l-2.54-1.55l-0.71,1.27h-0.99l0.14,1.55l-0.85-0.85V58.9l-0.99,0.71l1.13-2.4l-3.25,0.85l1.41-1.27l0.14-1.41l-1.98-0.42l0.42-1.41l-1.55-1.98l-4.23-1.27l-2.26,1.41l0.56,1.41l-1.55,0.85l-1.69-0.71l-0.14-1.27
					l-0.56,2.26l-1.84,2.12l-0.14-0.99l0.85-0.42l-0.56-0.42l1.13-4.09l-0.99-1.41l0.42-1.27l-1.84-1.27l0.56-0.71l-0.71-3.11l-4.66,1.13l-0.71,0.85l0.57,0.56v0.85l-1.84-0.99l0.28,1.55l-1.55-0.85l-0.14,0.71l0.42,0.56l2.4,0.99l-3.81-0.28l3.39,2.4l-3.81-0.99
					l0.42,3.39l1.55,0.42l-2.54,2.82l1.41,2.12l1.41,0.28l-0.28,4.1l-0.28,0.85l-0.14-1.55l-3.53,0.99l3.67-1.84l-2.97-4.24l-0.42-1.13l0.42-2.4l-0.85-1.83l0.99-4.24l2.82-4.38l-5.51,0.14l-3.81,4.66l-0.56,2.54l0.42,0.28h-0.71l-0.85,2.82l0.14,1.41h0.57
					l-1.13,1.41l0.56,1.55l-0.42,2.4l6.5,2.97l-5.08-0.42l0.28,0.42l-0.28,0.71l2.82,3.81l2.4,0.28l1.13-1.13l0.14,1.27l1.27,1.55l6.35,0.14l2.54,1.27l0.85-0.99l1.13,1.27h0.42l-0.28-0.42l-1.41-1.98l3.81,0.99l0.42,0.99l1.98-0.42l0.28-0.42l-0.85-2.4l-0.85-0.28
					l1.55-0.14l1.27,1.41l1.27-0.28l0.14,2.54h1.55l0.14,0.85l-0.56,0.42l2.97,2.26l0.14,0.99l-0.71,0.71l-1.41-0.28l0.14,2.4l2.26-1.69l1.55-0.14v0.85l1.41,1.84V77.4l0.85,0.28l0.14,2.12l1.84,1.13l1.55,5.08l-1.41,1.69l-0.14,1.41l-3.25,3.11l1.98,2.96v0.99
					l-1.41-0.56l-2.54,1.55l-4.52-0.99l0.28,0.42h-0.42l0.14,0.99l-1.27,0.85l-0.42,1.84l0.85,1.41l2.26,0.85l1.98-0.85l-0.14-0.85l0.42-0.28l2.4,0.99l0.28-0.42l-0.99-1.55l0.71-0.42l0.14,0.99l2.4,0.42l1.27,3.25l3.67,1.83l-1.27,0.85l-0.42-0.56l1.83,2.68
					l2.12,1.13l0.85-0.71l0.28,0.85l0.85-0.28l0.85,1.84l0.57-0.28l0.56,0.99l2.68,1.13l1.13-0.42l0.99,1.27l0.85-0.14l-0.28-2.12l-3.39-3.25"/>
				<path d="M282.49,108.6l0.42,0.42l-0.56,0.28l-2.4,0.99l1.13,1.13l0.42,2.97l-1.27,2.4l-0.42,3.25l-1.69,0.14l0.99,0.56l0.28,1.27l-2.12-0.14l-0.14-0.57l-1.27,1.13l-1.13-0.71l0.56-1.69l-0.7,0.57l-0.14-0.99l-0.57,0.85l-0.42-0.99l0.71-1.13l-0.99,0.56
					l0.56-0.71l-0.85,0.14l0.14-0.56l-4.94,1.13l1.27-0.99l-3.25-1.69l1.84-0.56h-2.26l0.56-0.71l-0.99-1.13l0.99-0.85l-1.41,0.42l-0.28-0.42l0.71-0.28l-1.69-1.84l0.28-1.27l-0.56,0.42l-0.28-1.27l-0.56-0.14l-1.69-3.11l0.28-0.56l-0.42,0.14v-1.83l2.96-1.98
					l-1.27-0.42l0.42-0.71l1.13,0.28l-1.41-0.99l-1.27,0.71l-0.99,2.12l-0.85,0.14v-2.12l0.57-0.85l-1.13-1.13l0.14-1.41h-0.56l0.71-0.71l-1.13-0.28v-1.27l-0.99,0.42l0.71-1.41l-0.71,0.42l-0.56-0.99l0.99-0.99h-1.27l0.57-0.42l-0.71-0.42l0.14-0.99l0.85,0.14
					l-0.56-0.71l0.85-1.55h-1.27l-0.71-0.99l0.42-2.12l0.85-0.56l-0.71-0.14l0.42-0.57l-0.14-1.27l1.7-0.71l-1.41-0.71l5.51,0.14l-1.27-1.13l0.71-0.99l-2.68,1.41l-0.99-0.14l-0.14-0.99l0.71-0.99l3.11-0.14l0.42-1.13l-0.71-0.14l0.57-0.42L261.45,75l1.55,0.28
					l-0.28-0.42l0.57-0.42l-0.28-0.71l-1.27,0.14v-0.99l0.56-0.28l-0.28-0.85l0.56-0.28l-0.14-0.71l0.71-0.28l-0.14-1.27l-4.38-0.42l-3.39-1.98l-1.27-1.98l3.67-0.42l4.8,2.68V66.1l-0.71,0.14l-0.71-0.85l0.71,0.28l0.42-0.85l-0.71-0.42l0.71-0.28l-2.54-1.84
					l1.13,0.56v-1.27l-1.7,0.28l1.13-1.55l-1.98,1.27l1.41-1.98l-2.4,0.28l2.54-1.84l-2.82-0.28l0.42-1.41l-0.71,0.7l-0.71-1.41v1.27l-1.27,1.41l0.28,1.13l-2.97,0.42l-0.71-1.27l-0.14-0.71l0.42-0.56l1.55-1.55l-1.55-0.42l1.84-2.4l0.28-3.67l-2.26-1.41l0.85-1.13
					l-0.42-0.42l0.57-1.13l-0.99,0.42l0.14-1.27l-0.99-0.99l0.42-1.69l-1.13-1.55l0.28-1.84l-0.99-0.57l0.71-0.71l-1.13-0.14l1.27-0.42l-1.69-1.69l0.14-1.55l-2.54-2.12l-0.56-2.4l-0.42,0.42l0.56-1.69l-0.71-1.69l-10.17-5.51l-4.8,3.11l-0.71-0.56l0.42-1.69
					l-1.13-0.42l-0.56,1.69l-1.69-1.27l-0.56,0.99l1.98,2.4l-4.1-1.41l-3.11-3.53l3.11-2.68l-3.81-0.7l-0.28-0.85l0.56-1.69l-1.84,2.26l-1.69-2.26l2.4-2.26l10.17,0.14l-1.69-2.12l1.41-0.85l-0.71-1.98l-8.76,1.55l0.99-1.84l-2.12,0.42l0.99-1.83l-2.4,0.85
					l-2.26-1.84l-1.55-2.4l0.81-0.88l113.85,0.04l-0.42,1.41l0.71,0.28l-1.27,3.81l0.85,0.71l1.55-3.25l3.53,2.54l0.43,1.41l-0.57,0.42l-2.96-1.69l-0.28,0.7l1.13,1.27l-0.99,0.42l0.99,0.85l-0.85,0.14l5.08,0.85l0.28,3.25l-0.56,2.12l-5.08-1.27l-2.12,0.56
					l1.84,0.42l-4.09,1.13l1.98,2.54l-1.13,0.28l1.41-0.14v1.69l4.24,1.27l-2.83,1.27l3.25,2.26l0.28,3.81l-0.28,1.27l-5.08-3.67l0.71,0.85l-1.27-0.14l3.25,2.4l-2.12,1.84l1.98-0.14l-0.28,2.68l-0.42,0.28h3.39l0.85,1.98l-0.99,1.55l-5.65-2.54l0.28,1.55L325,38.14
					h0.85l-0.56,1.98l4.52,1.55l-0.28,2.68l-4.24,1.98l-3.95-4.1l-0.56,1.7l-1.27-0.71l0.42,1.27l-2.4,1.98l-2.26-0.42l0.99,0.42l-0.85,0.99l4.09,0.56l-4.09,2.54l3.11-0.85l1.41,0.99l0.14,1.41l-1.69,0.42l0.28,0.42v1.69l0.57-1.69l0.99-0.28l4.66,3.67l-1.27,2.26
					l2.54-0.99L325,59.6v1.13l1.69-1.41l-0.14,2.68l-0.56,0.28l0.71,0.42l-0.14,1.27l0.57,2.26l-1.55-0.14L325,63.98l-0.14,2.4l-1.84-0.28l-1.41-1.69l-0.42-2.26l-1.13-1.69l-6.35-3.53l0.14,1.27l-0.57,0.14l1.13,1.13h3.25l0.56,1.69l-0.56-0.42l0.28,0.71
					l-2.12,1.55h-3.53l0.42,1.13l-0.28,0.99l-1.7,1.13l5.08,0.28l-4.38,2.54l1.55,0.14l5.51-2.26l3.81,1.69l3.67-0.28l-0.56,1.41h-1.7l-0.28,0.42l0.57,0.56l-1.98,0.28l0.42,0.56l-0.14,0.71l-1.41-0.14l0.57,0.99l-2.68,1.13l0.71,0.85h-1.41l0.42,0.71l-1.84,1.69
					l-7.06,2.68l-0.99-0.85l-0.71,1.83l-1.13-1.13l0.56,1.27l-1.27-0.71l-0.28,0.42l0.42,0.42h-1.55l-0.42-0.99l0.42-0.28l-1.41-0.85l-0.56-1.41l-0.42,0.56l0.71,1.98l0.99,0.85l-0.57,1.13l-2.26,0.99l0.14,0.85l-0.85,1.13v1.7l-0.85,0.85l0.14,0.71l-0.71,0.99
					l-0.42-0.71l-0.71,2.12l-0.71-0.42l-0.42,0.99l-1.27-0.85l0.28,1.13l-0.71,1.7l-0.99-0.71l-0.42,1.13l-1.27-1.41v0.99l-0.42-0.28l0.28,0.71l-1.13-0.99l1.41-1.69l-1.55-0.56l-0.57,0.28l0.71,0.71l-0.85,0.71l0.28,0.85l-0.85-0.28l-0.14,0.71l0.71,0.42
					l-0.28,0.85l-3.25-0.14l-0.99,0.85l0.85,1.27l-0.85,1.27l-2.12-0.28l-0.28,0.85h0.42l1.69,2.82l-2.68,0.42l1.84,0.7l0.28,2.12l-1.84-0.28l1.41,1.27l-0.85,0.56l-0.14,0.99l-0.85-0.42v0.99l0.42,0.28l-1.55-0.42l0.99,0.71"/>
				<path d="M319.63,63.14l0.14,1.55l-0.42,0.42l-5.51,0.85l0.14-1.13l1.84-1.55l2.82-1.27l0.99,1.13"/>
				<path d="M333.61,18.37v4.38l-0.99-4.66l0.71-0.42l0.28,0.71z"/>
				<path d="M254.25,67.09l2.54,0.99l2.82,3.81l-2.96,1.83l-1.98-0.42l1.55-0.85l-3.11-0.56l1.13-0.42l-1.27-1.13l1.41-0.42l-1.13-1.41l0.99-1.41"/>
				<path d="M324.01,50.29l2.12,1.69l0.14,0.85l-1.69,0.14l1.27,0.85l-0.28,1.13l-3.67-2.68l-1.27-2.82l3.39,0.85"/>
				<path d="M326.83,37.44l-0.57,1.27l1.84,0.99l2.26-0.99l-1.27-0.85l-2.26-0.42"/>
				<path d="M335.3,29.39l-0.57,0.99l0.57,0.99l0.99-0.42l-0.28,1.69l-2.82-1.27v-2.12l2.12,0.14"/>
				<path d="M335.87,4.39l0.42,0.57l-0.28,1.41l-0.99,0.71l0.85-2.68"/>
				<path d="M318.5,46.47l2.82,1.55l2.96-1.13l-4.52-1.98l-1.27,1.55"/>
				<path d="M326.27,49.16l-0.56,0.56l0.56,0.71l-0.56,0.14l-5.22-2.12l2.96-0.57l2.82,1.27"/>
				<path d="M221.49,10.61l3.81-1.41l2.97,1.84l-6.78-0.42"/>
			</g>
			<text transform="matrix(1 0 0 1 257.0127 36.9307)"><tspan x="0" y="0" style="fill:#000000;stroke:none;">Greenland</tspan></text>
		</g>
		<g>
			<g>
				<path d="M251.43,153.22l-0.85-0.71l0.56-0.28l-0.28-1.41l-0.99-0.57h1.41l-0.71-1.13l0.28-0.28L248.6,148l-0.85,1.41v-2.97l-1.84,0.14l0.85,0.28l-2.12,0.28l-3.67,2.82l0.14-0.99l-1.84-0.7l0.57-0.42l1.55,0.7l0.57-0.99l2.68-0.85l-1.55,0.14l4.38-1.84
					l-1.41-1.55l-0.71,0.71l-0.99-0.28l-0.85-1.41l-1.13,1.27l0.42-1.27l-0.42-0.42l-1.69,0.28l0.42-0.71l-0.14-1.27l-2.12-0.56l-0.14-1.27l-1.27,0.14l0.42-0.42l-0.56-0.71l0.42-0.42l-2.54-0.28l1.69-0.28l-0.42-0.42l1.41,0.56l-0.14-0.56l0.85-0.85l-1.13-1.69
					l-1.13,0.14l1.27-0.85l-0.85-1.27l-0.85,0.14l0.57-0.56l-0.42-0.56l-1.41,0.42l1.41-1.41l-2.26-0.42l1.55-0.71l-0.85-0.71l0.14-1.13l-2.4,0.42l1.98-1.13l-1.41-0.7l0.56-0.56l-0.85-0.14l-0.28-1.41h-0.56l0.28-0.71l-0.42-1.13h-0.71l-1.55,2.4l0.71,1.27
					l-0.99,0.71l0.14,0.56l-0.28,1.13h-0.85l0.71,0.99l-0.57,0.99v-1.13l-0.85-0.56l-0.57,1.55l-2.26,1.55l-0.28-1.41l-0.28,0.42l0.14-1.13l-0.85,2.12l-1.55,0.28l1.55-0.42l0.14-1.27l-0.56-1.83l-4.24,0.85l0.99-0.56l-0.28-0.71l0.85,0.56l0.99-0.56l-0.57-0.85
					l0.57-0.56l-0.99-0.14l0.56-1.27l-0.56-1.13l-3.53-0.71l4.1-0.14l-0.71-1.98l0.71-1.84l-0.56-0.71l-0.99,0.99l-0.42-0.99l-2.97-0.28l-0.56-1.55l0.71-0.56l-1.55,0.28l0.28-0.57l-0.28-1.27l-1.27,0.57l0.42-1.69l-2.68-1.55l-2.82,1.55l-5.37-1.98l-1.55,1.55
					l0.28,2.12l1.41,0.28l-1.55,4.24l1.41,0.42l-0.71,0.28l0.14,1.13l0.56,1.13l-0.42,0.85h1.13l-0.57,1.27l0.85,0.42l-1.41-0.14v1.55l-2.4,0.85v1.13l2.82,2.26l1.41,5.51l0.28,2.68l0.71-1.13l0.57,1.27l-1.27,0.28l-1.98,3.39l-4.38,3.11l1.41,2.26l0.56,5.37
					l0.85,0.85l0.99,0.14h-1.13l-1.41,1.41l0.85,1.13l-0.42,0.85l-1.27-0.85l-0.28,0.28l-0.42,0.14l0.14,1.13l-1.55-0.85l-1.69,1.13l1.27-1.55l-0.28-1.13l-1.13-1.13h-2.12l1.55-0.85l-1.98-2.54l0.28-0.99l-0.42-3.25l0.14-3.81l-6.64-0.56l-0.85,1.69l0.7-2.12
					l-1.27-1.13l-3.67-1.13l-1.27-1.98l-2.26-1.41l-4.38-1.98l-3.81,1.41l0.85-0.85v-1.41l-1.7-5.22l-2.12-0.28l-0.28,1.27l-0.14-1.27l-1.27-1.13l0.28-0.71l0.14-5.65l1.27-3.11l-0.85-0.99l2.26-1.13l0.42-0.85l-0.28-0.57h0.56l0.56-1.27l0.85,0.56v-2.4h1.41
					l-0.74-0.25h6.35l-6.46-0.04l-0.14-0.99l2.12,0.14l1.84-0.99l-0.56-2.4l-1.98-1.13l-1.13,0.71l0.28-0.56l-2.54-1.27l-0.14,0.57l-0.56-0.57l0.42-0.56l2.82,1.41l1.41-0.28l1.98,1.69l1.27-0.99l0.14-1.41h0.42l-0.14-0.85l1.7,0.71l2.26-0.85l2.68-5.51l-4.8-0.71
					l-2.54-2.54l0.28-0.42l3.11,1.13l1.55,1.83l1.55-0.14l2.82-3.81l-0.14-1.13l-1.27-0.42l0.42-1.13h2.54l0.42,1.69l1.41,0.28l0.14-0.99l1.55,1.13l-0.85-2.12l0.28-0.71l1.41,1.69l1.69-1.13l2.82-3.53l0.14-1.55l-1.84-2.4l0.28-1.84l-0.71,0.28V79.8l-0.71-0.85
					l1.13-0.42l0.42,0.85l1.13-1.13l0.14-1.41l-1.41-0.28L194.1,75l-2.12-0.71l-0.99-1.41l0.42-0.28l-0.28-1.27l-6.21-0.71v3.25l1.69,1.55l-0.99,1.13l0.99,0.56l-2.4,0.71l-0.14,1.84l-1.55,3.67l-0.14,1.84l-1.69,0.99l-2.4-4.09l0.42-2.82l0.14,0.85l0.71-0.14
					l-0.85-3.53l-1.83-2.4l-0.99,0.14l-0.71,1.27v2.12l-1.13,2.4l-0.56-1.41l0.28-1.69l-2.12-3.39l0.99,0.28l0.14-1.27l-4.09-0.99l1.69-1.98l-0.99-1.27l1.98,0.28l-3.25-4.52l-0.14-3.39l-1.41-1.69l-0.14-1.55l-1.55,0.56l-0.42-0.71l0.28-0.85l-1.13-0.42l-1.69,2.68
					l0.56,0.85l-0.14,1.41l-0.85-0.85l-0.85,0.85l-0.28,2.97l0.99,1.13l-1.27,1.84v1.98l4.8,4.09l1.55-0.42l0.14,1.55L166,74.29l0.28-1.27l-0.85,0.42l-1.13,3.81l1.27-0.14l0.42-0.71l-0.42,0.14l0.28-0.99l0.99,2.54l-2.54,3.25l-2.12-0.28l0.28,0.71l-0.28,1.41
					l0.71,0.99v1.98l-0.71-0.42l0.28-0.57l-1.13,0.57v-0.99l-0.85-0.57l0.85-0.56l-0.28-0.56l0.28-2.82l-1.41,1.27l0.28-1.69l-0.99,0.14l-0.71-1.27l-3.11,0.56l1.41,3.25l1.98-0.42v1.41l-0.28,0.42l-1.98-0.85l-0.85-1.84l-0.42,0.28l0.85,1.55l-4.38-0.57l-4.38,0.99
					l-2.26-2.68L142,80.93v-0.71l-2.12-1.41l0.57-0.28l-0.71-1.13l0.28-0.28l-1.41-1.41l-4.8,1.98l-0.99,1.7l1.84,1.41l0.71-0.28l-0.57-0.71l0.71-0.42l1.98,0.56l0.14-0.99l-0.28-0.42h0.56l-0.28-0.42l1.69-0.56l-1.27,2.68l-2.68,0.99l-0.28,0.57l0.28,0.14
					l-0.99,1.13l1.84,3.67L135.92,87l0.42,0.85l-1.27,0.14v0.85L133.67,87l1.27-0.42l-0.42-1.13l-1.27-0.42l-0.14-1.41l-0.42,1.41l-0.14-1.98h-1.84l-0.71-1.69l-3.95,1.98l-6.35-0.28l-1.98-1.13l0.71-0.42V80.5l1.13-0.28l-0.57-0.28h2.26l-0.42-1.55l-2.26-2.54
					l-2.26-0.14l0.56,1.13l-2.26-0.71l-6.92-2.82l-3.67-2.68h-2.96l-0.85,2.54l-2.4,0.28l1.13-2.26l-0.99-0.14V68.5h-0.56l0.28,0.57l-0.14,0.42l-0.42-0.14l-1.41,2.4l0.71,0.56l-1.13,0.71l-0.85,0.14l-1.55-1.98l-1.27-3.81l-1.69-1.69l-0.42,0.99l1.27,1.13
					l-3.25,3.39l0.56-1.69l-3.25,1.84l-1.55,3.11V72.6L79.02,75l2.4-2.68l1.98-0.14l2.97-2.68l0.42-0.56l-0.42-1.27l-9.46,5.93l-1.55,1.69l0.99,2.12l-0.14,0.99l-1.27-1.98l-1.55-0.14l0.85,1.41l-0.56,0.14l-2.68-1.84h-2.12l-3.95-4.09l-3.81-0.85l-0.57,0.56
					l-4.38-3.11l-4.52,0.85l-9.04-3.25l-5.37,0.14l0.42-0.56l-0.85-0.28l-0.71-0.42l0.28-1.13l-1.69,0.28l-0.71-1.13l-2.26,0.99l-1.83-2.12l-0.85,0.71l0.28,1.98l-0.28-0.14l-1.98-0.71l1.69-2.12l-2.54-1.27l-2.82,3.39l-2.68,0.28l-0.14,0.85l-0.71-0.42l1.13-1.13
					l-1.83,1.13l-0.57,0.56L20,65.96l-0.85,0.14l-0.28,1.55l-0.57-0.56l0.42-1.13l-0.42-0.56l-3.81,2.97l0.28-0.85l-0.28-0.14l-0.57,1.55l1.13,1.13l-1.69-0.99l-0.99,1.55l1.27,0.14l-1.55,0.28l0.99,0.99l-0.99-0.42l-0.28,1.55L9.97,75.7l-5.08,0.71l-0.14,2.26h0.42
					l-1.69,0.85l5.65,3.95l0.99,1.13l0.57,2.4l1.83,0.71l0.99-1.13l-0.14,1.13l1.83-0.28l0.28,0.42l-0.85,0.99l1.27,1.27l0.14-0.85l3.81,0.71l-2.54,1.13l-2.26-0.56l-0.85-1.13l0.42,1.13l-0.14,0.85l2.26,0.28l-0.42,0.71l-0.85-0.85l-0.71,1.83l-4.09-0.56
					l-0.99-0.85l0.71-0.42V90.1l-0.42-0.28H8.42l-2.54,1.84l0.56,0.71l-1.69-0.14l-3.95,2.54l1.7,1.69l2.54,0.42l-1.55,0.56l1.69,3.25l2.82,0.71l2.82-0.71l1.13,0.85l0.14-0.56l-0.85-0.56h0.71l0.85,1.84l2.12-2.83l2.26,0.28l-0.42,1.27h-1.13l1.41,3.1l-0.57,1.84
					l-2.68,0.28l-1.69,2.12l-1.55,0.28l-0.85,0.57v0.85H8.42l5.82,0.46H7.88l-1.44,1.24l-0.56,2.26l-0.85,0.42l0.42,0.56l-0.56,0.85l2.12-0.71l-1.41,1.13h1.27l-0.28,0.71l0.42,1.13l0.85-0.42l0.71,0.28l-0.28,0.71l0.42,0.14h1.69l-1.69,2.68l0.28,1.13l1.41,0.14
					L9.41,123l0.7,0.85l1.84,0.28l1.41-2.26l-0.42-0.85l0.71-1.13l1.69-1.13l-1.98,2.4l1.55,3.39l-0.71,1.41l0.99,0.57l-0.42,0.42l0.42,0.85l-1.27,0.71l3.11-1.27l0.99-1.55v1.55l1.55,0.14l1.41,2.12l0.42-0.42l-0.28-0.99l0.85-1.13v0.71l0.99,0.85l2.97-1.98
					l-1.41,2.26l-0.28,1.13h0.42l-1.55,4.1l-1.13,0.85L21.55,136l-3.39,1.84l-0.71,1.84l0.56,0.42l-2.26-0.85l-4.52,3.39l-0.28,0.14l0.42,0.99l0.28-0.99l1.27,0.28l-0.14-0.85l0.42,0.71l0.85-0.14l1.13-1.98h0.28l-0.14,0.99l3.67-1.83l0.42,1.13l0.42-1.41l1.84-0.56
					l-1.13-1.69l0.99,0.71l1.84-0.71l-0.42-0.28l1.27-0.28V136l2.26-0.99l0.14-0.85l-0.28-0.14l1.69-1.13l0.14-0.71l0.71,0.14l0.85-1.13l1.98-0.85l-0.28-0.56l0.42-0.71l1.55-1.41l-0.85-0.85l-1.13-0.14l0.42-1.41l3.11-2.68l-0.99-1.27l1.13,0.28l1.84-3.11l2.4-1.69
					l1.13-4.66v2.12l-0.85,2.54l0.99,0.14l1.84-1.27l-1.55,1.98l2.12,0.99l-2.96-0.57l-1.98,1.13l-0.14,2.12l-1.13,2.4l0.71,0.57l1.27-0.71l-0.85,1.41h-0.99l-0.28,0.85l0.42,0.42l1.69-0.42l1.41-1.41l-0.14,0.99l0.56-1.27l0.71-0.14l0.28-1.13l0.14,0.99l0.42-1.69
					l1.98,0.42l1.13-2.4L44,120.46l0.71-1.13l-0.85-0.28l1.98-2.12l-0.28,1.69l0.42-0.28v-0.99l0.57,0.85l1.84-0.42l-0.14,0.99h0.99l-0.99,0.56l1.41-0.42l-0.56,0.71h1.27l-0.14,0.57l1.13,0.99l0.71-0.71l2.12,2.12l5.93-0.14l0.14,0.71l1.55,0.56l1.55-0.28
					l0.85-1.13l1.13,0.99l-0.42,0.28v0.99l-0.42-1.83l-0.28,1.55l-0.56,0.42l2.68,1.69l1.69-1.69l-0.42-0.42l0.56,0.42l-0.85,0.85v1.41l1.41,1.27l-0.14,0.56l2.12,1.41l1.13-0.56v-0.56l-1.98-1.69l0.28-0.42l1.41,0.99l0.42-0.71l0.56,1.55l-0.14,0.71l0.85-0.28
					l0.28,0.99l0.42-0.14l0.28-0.71l-0.99-3.11l0.14-0.99l1.55,4.23l1.41,0.71l0.56,0.99l0.71-0.71l-0.28,0.56l-0.28,0.28l0.28,0.71l0.42-0.14l1.13,1.41l-1.27-0.85v0.56l0.42-0.14v0.99l0.56,0.14l-0.71,0.56l1.41,0.28l0.28,0.85l-0.71-0.56l0.42,0.71l1.13,0.85
					l0.42,1.13l1.27,0.71l-0.85,0.28l-0.71,1.69l0.28,0.56l0.85-1.27l1.41-0.85l0.56,3.11h0.56l0.14,0.71l-0.85,0.42l0.14,0.99l1.69-0.99l0.14,1.41h-0.56l-0.28,0.99l1.13,0.71l-0.28,0.99l1.69,1.98l0.56-0.14l-0.14,1.69l0.85,1.84l0.99-0.14v0.71l0.85-0.28
					l0.28,2.96l0.71-0.56v0.85l0.42,0.14l-0.99,0.28l0.71,0.42l-0.71,0.14l0.14,0.56l1.13,0.71l1.98-0.28l-0.28,0.42l0.99,0.57l-0.42,0.56l3.39,0.42l-0.28,1.13l0.28,0.56l0.99,0.42l0.57-0.14v-0.71l0.71,1.27v0.85l0.99-0.85v1.41l1.27,0.14l-0.85,0.28l0.37,0.49
					l0.05,0.07l1.13,0.99l-0.56,0.71l0.42,0.42l0.28,1.41l-1.41,1.69l-0.28-0.42l0.71-1.27v-0.71l-4.09-0.85l-0.28,0.56l1.27,3.95h0.28l-0.14,0.71l0.42,0.28v0.71l-0.42-0.42l0.14,0.85l1.69,0.56l-1.55,0.42l-0.56,8.33l-0.56,1.55l0.56,3.11l0.42,1.41l-0.71,3.11
					l1.27,1.83l0.28,2.4l1.55,2.26l0.71,0.42l0.28-0.71l1.13,0.14l-0.85,0.57l0.56,1.13l-0.71-0.71l-0.14,0.28l0.42,1.41l1.13,0.85l-0.14,1.41l2.82,3.39l0.14,1.41l4.38,1.41l0.42,0.85l0.99,0.28l1.27,1.27l0.42,1.69l1.27,1.84l1.41,3.81l0.28-0.14l0.42,1.69
					l1.55,0.85l1.98,2.4l-0.14,1.83l-1.84-0.14v0.28l3.11,2.26l0.56,0.14l0.42-0.56l0.28,0.85l1.41,0.99l0.56,1.27l-0.28,2.4h0.85l3.11,2.68l1.13,1.83l0.99-0.7l0.14-0.85l-1.69-1.83l-0.42,0.28l-0.42-0.28l-2.12-5.93l-0.57-0.28l0.14,0.71l-0.28-0.28l-2.97-5.51
					l-0.56-0.14l-0.42-0.99l-1.55-1.27l-0.42-0.99l-0.99-4.8l1.69,1.27h0.85l1.41,0.99l0.99,3.11l1.98,3.25l1.69,1.69l1.13,0.28l0.28,1.41l2.97,2.26l-0.56,1.27l0.28,0.71l0.71-0.28v0.7l1.41,0.42l0.85,0.71l0.14,0.99l2.12,1.69l1.27,1.84l1.55,1.27l1.13,3.11
					l-0.57,1.13l0.42,0.56l-0.85,0.42l0.42,1.41l1.27,0.99l2.12,1.27l1.13,1.13l3.25,0.85l2.12,1.69l4.94,1.56l2.12,1.27l3.39,0.85l2.54-1.27l0.99-0.14l2.4,0.99l2.82,2.68l1.98,1.55l2.82,0.42l3.11,1.27h1.13l0.85-0.42h0.56l0.42,0.85h-0.42v0.28l3.95,4.09
					l-0.28,1.41l0.56,0.99l1.27,0.85l0.14-0.71l-0.42-0.28h0.56l0.99,1.27l1.69,0.85l0.14,1.27l0.71,0.28l0.14-0.56l0.56,0.71l0.28,0.57l0.28-0.42l2.26,0.28l0.99,1.27l0.71-0.28l0.28,1.27h0.71l0.99-0.71l-0.85-0.99l0.14-0.57l2.68-1.83l1.84,1.27l0.85,0.14
					l-0.71,0.99l0.99,1.41l0.42-0.85l0.42,0.14l0.71-0.85l-0.57-0.99l0.14-0.42l-1.69-1.55l-2.4-0.56h-0.99l-0.56,1.13l-0.56-0.42l-2.26,0.99l-2.12-0.42l-0.42-0.99l-0.56-0.42l-1.55-1.27l-0.85-1.69l-0.42-1.13l1.27-8.05l-1.83-1.55l-2.12-0.71l-7.34,0.42
					l-1.13-0.42l1.27-2.26l0.42-2.97l-0.71-0.56l0.56-0.85h0.28l-0.14,0.71l0.56,0.99l0.71-2.82l-0.28-0.28l0.28-0.42l-0.28-0.14l1.84-3.67l-0.42-0.71l-1.13-0.14l-0.56,0.42v-0.56l-0.71-0.14l-5.08,1.41l-0.99,4.24l-1.13,0.71l0.14,0.71l-0.71,0.42l-1.84-0.56
					l-4.52,1.27l-1.27-0.99l-1.41-0.42l-0.99-0.85l-0.85-1.83l-1.69-2.4l0.14-1.27l-1.13-1.55l0.14-2.97l-0.42-3.11l0.56-1.55l1.13-0.42v-0.85l-0.71-2.12l0.14-0.99l-0.42-0.28l0.56-0.14l-0.14-1.27l1.98-1.55l-0.14-0.71h1.84l1.13-0.56l0.56-2.26l0.56,0.42
					l-0.28,0.42l1.83-0.85l3.67,0.56l0.71-0.56l2.54,1.55h1.41l0.42-0.71l1.27,1.13l0.57-0.28l-1.13-1.13l0.71-1.41l-2.12,0.14l-0.14-0.71l4.66-0.14l0.56-1.41l0.14,1.69l1.98-0.71v0.28l1.55-0.14l2.4,1.98l2.82-0.99l2.68,2.4l0.14,3.39l0.56-0.14l-0.28,1.27
					l0.85,1.27l0.42-0.14l0.71,2.4l0.85,0.42l0.56,1.55l1.69-0.57l0.42-1.69l0.14-2.12l-3.25-9.32l1.41-3.95l0.85-0.42l-0.28-0.71h1.41l1.83-1.55l0.85-1.41l2.4-0.99l0.85-1.13l2.26-0.85v-0.57h-0.57l0.57-0.71l-0.85-0.42l0.71-0.28l0.85,0.56l0.85-0.85l-0.28-0.85
					l-0.28,0.71l-0.28-0.71h-1.27l0.14-0.99l0.28,0.71l0.85-0.42l0.71,0.28l-0.42-2.26l-1.13-0.14l0.57-0.28l-0.42-1.55l0.28-0.56l-2.26-1.7v-0.42l2.12,1.27l-0.42-0.99v-2.12l1.41-0.99l-0.85,1.84l0.42,0.14l-0.28,1.27l1.27,1.27l-0.71,1.41l0.28,0.85l1.84-3.96
					l-1.13-2.97l1.41,1.13l0.14,0.71l1.41-1.98l0.56-1.55l-0.56-0.85l0.14-0.56l2.54-1.69l3.25-0.42l0.71-0.99l0.42,0.56l2.54-0.56l-0.14-0.71l-0.14,0.71h-0.71l-1.41-1.69l1.69-4.24l2.4-0.99l0.71-1.55l1.13,0.85l2.68-1.41l0.28-0.28l-0.28-0.28l0.14-0.99
					l3.11-0.28l2.54-2.12l0.42,0.28l-1.13,1.13l0.14,0.42l3.25-0.14l-1.83,0.99l-0.57-0.71l-3.81,2.4l0.57-0.14l-0.57,1.27l0.14,1.13l1.41,0.99l2.54-2.54l0.42-0.85l1.13,0.28v-0.71l1.55-0.14l4.24-1.7l-0.85-0.28l0.14-0.57l-1.27-0.28l-0.14-0.71l-1.69,0.71
					l-2.82-0.99l0.42-0.42l-1.69-0.56l-0.42-0.71l-0.28-1.84l-0.99-0.14l1.13-2.12l-0.71-0.42l-1.27,0.56l-0.28-0.71l-1.69-0.28l1.55-0.56l1.41,0.42l2.12-1.69l-0.14-1.41l-0.13-0.07h-3.1h-3.12h-3.23l1.25-1.06l1.69-0.14l0.99-2.12l1.27-0.99h9.18l1.27,0.56
					l3.25-1.13l-0.14,0.42l0.42,0.14l3.67-3.67l3.95-0.85l2.12-2.26l-0.85-0.85l0.85,0.14z M225.21,165.27l-2.16,1.08l-2.68,2.12l-2.54,3.25l-0.85,0.42l1.84-2.12l1.13-2.26l0.85-0.42l1.13-1.84l3.29-0.24z"/>
				<path d="M225.73,165.01l1.27-0.64l3.53-0.14l1.42,0.78h-6.22z"/>
				<path d="M192.55,150.54h2.12l0.71,1.55l-2.97-1.13l0.14-0.42"/>
				<path d="M196.92,111.71l-0.42,0.56l-0.14,2.26l0.99,0.99l1.13-3.39l-1.55-0.42"/>
				<path d="M191.42,109.03l-1.69,0.99l-1.27,2.96l1.41-0.42l2.4-2.4l0.28-0.99l-1.13-0.14"/>
				<path d="M240.42,171.72l-1.7,2.68l-0.28,1.13l0.42,0.57l1.69-0.14l1.55-0.99l-0.42-0.99l-0.42,0.56h-0.99l0.71-2.4l-0.56-0.42"/>
				<path d="M91.16,160.28v-0.85l-1.84-0.14l0.71-0.71l5.37,1.84l1.83,2.82l2.26,1.55l0.99,1.98l-0.71,0.56l-2.54-0.99l0.28-0.71l-0.42,0.42l-0.56-0.42l0.42-0.56l-1.41,0.14l-0.42-0.42h0.57l-0.57-0.71l-1.55-0.42l-0.14-0.56l1.13-0.28l-2.26-0.71l-0.56-1.13
					l-0.14,0.42l-1.13-0.14l-0.14-1.13l0.85,0.14"/>
				<path d="M86.08,148.42l0.71,0.85l-0.14,0.85l-1.55-2.4l0.99,0.71"/>
				<path d="M84.53,148.42l1.13,0.57l0.42,1.27l-1.55-1.84"/>
				<path d="M84.24,147.29l0.42-0.42l0.42,0.57l-0.85-0.14"/>
				<path d="M80.85,151.95v-0.99l-0.14,0.42v-0.71h-0.42l1.27-0.71l0.28,0.57l-0.42,0.14l0.56,0.42l-0.56,0.14v0.71l1.41,2.12l-1.98-2.12"/>
				<path d="M81.14,147.01l0.57-0.42l0.14,0.56l-0.42,2.4l-1.13,0.85l-0.28-0.85l0.28-0.42l-0.99-0.56l-0.57-1.27v-0.71h1.13l-0.14,0.71l0.71-0.57l0.28,1.13l-0.99,0.56l0.71,0.14l0.71-1.55"/>
				<path d="M232.79,161.84l3.1,1.13l1.55,0.71l0.42,0.85l-1.27,0.14l-2.54-0.85l-0.42-0.7l-1.84-0.99l0.99-0.28"/>
				<path d="M184.07,94.34l1.13-0.28l0.56,1.13l0.14,1.84l1.13-0.99l0.85,0.56l-0.14,0.71l4.8,2.96l0.71,2.97l1.7-0.28l1.69,1.84l-2.12,1.55l-2.82-1.13v-1.27l-1.55-0.28l0.28-0.85l-1.41,0.42l-0.14,1.55l-3.53,3.11l-0.85-0.71l-0.14-2.97l-0.28,0.85l-2.82,0.85
					l-0.28-0.71l0.42-1.13l1.7-1.27l-0.28-2.12l0.56-4.52l0.71-1.84"/>
				<path d="M232.79,171.72l-0.14,0.56l0.71,0.99l3.81,0.28l-1.27,1.41l-0.99-0.99l-0.99,0.14l-1.84-1.41l0.71-0.99"/>
				<path d="M28.04,244.72l1.55,0.42l0.85,0.99l-0.14,0.71h-0.85l-0.85,0.85l-0.28-0.14l-0.42-1.55l0.14-1.27"/>
				<path d="M26.92,242.89l0.85,0.57l-0.71,0.28l-0.71-0.85h0.56"/>
				<path d="M24.94,242.18l1.27,0.42h-1.27v-0.42"/>
				<path d="M23.1,241.47l0.14-0.28l0.71,0.71l-0.56,0.14l-0.28-0.57"/>
				<path d="M19.72,239.78l0.7,0.28L20,240.77l-0.56-0.42l0.28-0.57"/>
				<path d="M228.55,248.39l0.28,0.56l-1.27,0.57h-1.7l-0.42-0.71l0.28-0.57l2.82,0.14"/>
				<path d="M214.58,189.79l-0.57,0.71l-3.25,0.99l0.57-0.7l3.25-0.99"/>
				<path d="M34.96,130.07l-0.42-0.28l0.28-0.42h0.99l-0.14,0.42l0.42-0.28l0.28,0.85l-1.84,0.71l-0.57-0.71l0.99-0.28"/>
				<path d="M30.3,133.88l1.55-1.27l0.7,1.13l0.14-0.99l-0.28-0.99l0.71,0.85l0.85-0.71l-0.14-0.42l0.85,0.71l0.71-0.56v1.27h0.71l-0.28,0.56l-1.41-0.28l0.71,0.99l-1.13-0.14l-1.69,2.26l0.14-0.71l-0.42-0.7l-0.71-0.14l0.42,0.14l-0.28,0.99l-1.13-1.98"/>
				<path d="M30.45,137.27l0.42,0.14l-0.42,0.42v-0.57"/>
				<path d="M21.97,138.26l0.42,0.28l-0.28,0.99l-0.14-1.27"/>
				<path d="M17.17,141.93l0.28,0.71l-0.56-0.14v-0.71l0.28,0.14"/>
				<path d="M7.57,144.75l0.99-1.27l1.84-0.56l1.13,1.41l-2.12,0.28l-0.99,1.13l-0.85-0.99"/>
				<path d="M5.17,146.16l0.56,0.56l-0.71,0.14l0.14-0.71"/>
				<path d="M1.36,149.69l1.84-1.55l-0.57-0.71l1.84-0.14l-0.57,0.99l0.28,0.14l-0.85,0.71l-1.98,0.56"/>
				<path d="M159.51,225.52l0.99-0.71l-1.13,1.41l0.14-0.71"/>
				<path d="M108.53,209.7l0.71,0.28l-0.56,0.14l-0.14-0.42"/>
				<path d="M45.98,122.58l1.27-1.69l0.42,0.42l-1.27,1.84l-0.85,0.28l0.42-0.85"/>
				<path d="M78.88,143.2l0.56,1.13l-0.85-0.99l-0.14-0.99l0.42,0.85"/>
				<path d="M82.55,142.21l0.99,0.42l-0.56-2.97l-0.99,0.42l-0.28,1.55l0.42,0.42l0.42-1.13v1.27"/>
				<path d="M79.44,139.24l1.27,2.26l-0.71-0.56l0.28,0.85l0.85,0.71l-0.28,0.99l0.28-0.14v0.99h-0.56l-0.85-1.84l-1.27-0.56l0.56-0.14v-0.71l-0.99-0.28l0.28-1.98l-0.99,0.85l0.42-1.13l-0.14-0.56l0.85,0.14l0.28,0.99l0.71,0.14"/>
				<path d="M74.22,130.91l0.28,0.56h-0.57l0.42,0.56l-1.41-0.28l1.55,0.56v1.13l-1.69-1.27l0.14,1.13l-0.28,0.42l-1.13-1.69l0.28-0.56l-0.42-0.85l0.99-0.71l1.84,0.99"/>
				<path d="M81,138.11v0.56l-0.56-0.99l0.56,0.42"/>
				<path d="M79.58,137.69l-0.14,0.56l-0.56-0.42l0.71-0.14"/>
				<path d="M79.3,136.28l0.42,0.85l-0.57-0.14l0.14-0.71"/>
				<path d="M77.18,135.71l-0.28-0.71l1.69,0.42l0.28,1.27L78.17,136l0.42,1.41l-0.99,0.14l-0.42-1.84"/>
				<path d="M76.34,136.84l-0.56-0.99l1.27,0.28l0.14,0.71h-0.42v2.12l-0.56-0.71v-0.71l0.42-0.28l-0.28-0.42"/>
				<path d="M75.35,132.89l0.56,0.14l-0.42,0.28l0.42,0.42l-0.42,0.14v1.27l0.85-0.71v-0.71l0.56,0.14l-0.85-2.82l-0.28-0.56l-0.85,0.56l0.42,1.84"/>
				<path d="M74.64,134.3l0.57,2.68l-0.14,1.55l-0.71-1.41l0.42-1.13l-0.42,0.56l-0.71-0.71l0.28-0.85l-0.85-0.99l0.28-0.85l1.27,1.13"/>
				<path d="M1.92,121.45l2.97-0.56l1.27,0.42l0.14,1.13l-1.27,1.13l-2.26-0.99l-0.85-1.13"/>
				<path d="M250.16,156.33l-0.99,0.56l-1.69,2.26l0.42,0.28l-0.56,1.27l0.28,0.28l-0.71,0.28l-0.42,1.98l-0.71,0.42l0.28,1.13h-0.71l-0.57,1.41l-1.27,0.42l1.55,0.42l-1.84,1.69v0.56l0.71,0.56h4.94l2.26-0.99L251,169.6l-0.7,0.56h1.41l0.42-0.71l1.13,0.28
					l-2.4,1.84l0.42,0.56l2.68-1.84l0.56-1.69h0.42l0.28,1.98l-0.42,1.55l1.13-0.99l0.28,1.84l0.85-0.28l0.85-2.4l-0.28-0.99l-0.71,0.71l0.56-2.26l-1.55,1.84l-0.42-0.42l0.28-0.85l-0.56-0.56l1.55-0.85l0.28-0.71l-2.12,0.57l1.13-2.97l-2.12-0.42l-1.98,0.71
					l0.42-0.99l-1.55,0.28l-0.42-0.71l1.27-0.71l-1.41-0.28l0.14-0.42l-1.55,1.69v-1.55l1.27-1.84v-1.13h0.71l0.14-0.85l-0.28-0.71l0.85-0.71l-1.41,0.14"/>
				<path d="M203.14,240.77l1.13,0.85l2.26,0.56v0.85l1.84,0.14l1.55,1.13l-2.54,0.85h-5.08l-0.28-0.14l1.55-1.41l-2.26-0.42l-1.41-1.98l-2.68-0.28l-1.41-0.99l-3.25-0.28l-0.28-0.43l0.85-0.42l-0.42-0.28h-1.83l-0.99,0.85l-1.41,0.28l-1.41,0.99l-0.85-0.28
					l0.85-0.28l0.28-1.27l1.13-0.71l2.96-0.85h1.84l3.39,0.42l1.55,1.27l1.84,0.28l1.41,0.99l1.69,0.57"/>
				<path d="M201.44,239.36l0.71,0.42v0.42h-0.28l-1.98-1.41l1.55,0.57"/>
				<path d="M190.71,240.35l0.28,0.85l-0.99,0.14l0.28-0.99h0.42"/>
				<path d="M215.28,245.15l0.42,1.55l-0.42,1.41l0.14,1.27l0.56,0.85l1.55-1.7l0.56,0.56l2.12-0.71l2.26,0.42l0.42-0.85l-0.99-0.85l-1.55-0.28l0.71-0.42l-1.27-0.14l-0.42-0.71l-1.69-0.57l-2.4,0.14"/>
				<path d="M212.6,247.27l0.42,0.56l-0.85-0.28l-0.14-0.28h0.57"/>
				<path d="M213.02,244.58l0.28,0.28l-0.42-0.14l0.14-0.14"/>
				<path d="M215.28,245.15l0.42,1.55l-0.42,1.41l0.14,1.27l-0.99-0.43l-1.27,0.28l-1.83-0.42l-0.57,0.57l-1.13-0.99v-0.28l4.24,0.14l0.14-0.42l-0.85-0.56l-0.14-1.41l-1.41-0.42l1.13-0.57l1.41,0.57l1.13-0.28"/>
				<path d="M203.42,248.39l1.69,0.56l0.28,0.71l-0.99-0.14l-0.99,0.42l-1.27-0.14l-1.41-1.13l0.99-0.57l1.69,0.28"/>
				<path d="M201.44,228.34l0.28,0.56l-2.4-0.28l2.12-0.28"/>
				<path d="M212.6,241.47l-0.14,0.71l-1.27,0.28v-0.42l1.41-0.57"/>
				<path d="M207.23,234.42l0.28,0.42h-0.42l-0.71-1.41l0.85,0.99"/>
				<path d="M205.4,232.3l0.14,1.27l-0.42-0.56l0.28-0.71"/>
				<path d="M201.87,235.26l0.42-0.56v1.13l-0.42-0.57"/>
				<path d="M201.3,232.58l0.56,0.85l-0.28,0.85l-0.99-0.85l0.28-1.13l0.42,0.28"/>
				<path d="M203.42,229.47l-0.14,1.13l-0.28-0.99l0.28-0.71l0.14,0.57"/>
				<path d="M210.2,238.65v0.71l0.42-0.99l-1.13-0.28l0.71,0.56z"/>
				<path d="M238.44,253.05l-0.71,0.28v0.85l1.13-0.71l-0.42-0.42"/>
				<path d="M118.98,225.38l-0.28-0.14l0.28-0.57v0.71"/>
				<path d="M111.92,222.98l0.14-0.28v0.71l-0.14-0.42"/>
				<path d="M124.91,222.98l0.42-0.42l0.14,0.99l-0.56-0.14v-0.42"/>
				<path d="M192.41,175.25l0.42-0.14l0.14,0.99l-0.28,0.28l-2.68-1.13h2.4"/>
			</g>
			<text transform="matrix(1 0 0 1 117.5117 192.4312)"><tspan x="0" y="0" style="fill:#000000;stroke:none;">North America</tspan></text>
		</g>
		<g>
			<g>
				<path d="M267.53,290.75l-0.14,1.13l-1.27,1.55l-1.69,0.57l-1.55-0.42l-0.14-2.54l0.71-0.42l3.11-0.28l0.99,0.42"/>
				<path d="M262.73,290.75l-0.99,0.99l-0.28-0.56l0.56-0.71l0.71-0.28l-0.42,0.42l0.42,0.14"/>
				<path d="M171.51,290.75l0.14,0.42h-0.42l0.28-0.42"/>
				<path d="M174.47,291.18l-0.28,0.56l-0.42-0.14l0.71-0.42"/>
				<path d="M173.2,290.47l-0.28,0.42l0.42,0.14l-0.14-0.56"/>
				<path d="M231.8,435.91l1.69-0.14l-1.69,0.57h-0.42l0.42-0.42"/>
				<path d="M222.34,427.86l-1.41-0.14l-0.28-0.56l-0.71,0.99l-1.55,0.14l0.71,0.57l-0.71,0.28v1.27l2.54,0.28l-1.83,1.27l0.28,1.55l1.41,0.71l-1.69-0.43l-0.14,0.28l0.42,0.28l-0.42,0.28l-1.69-1.41l0.56,0.99l-1.55,0.56l0.14,0.71h1.13l-0.14,0.56l4.09,0.57
					l0.99-0.28l1.27-0.42l3.81,0.99l1.84-0.28l0.85-0.99l-2.12-0.56l-4.09-3.25l-1.27-1.98l0.71-0.28l-1.13-1.69z"/>
				<path d="M215.14,432.38l1.98,1.55l-2.4-0.42l-0.14-0.85l0.56-0.28"/>
				<path d="M211.33,430.55l1.69,0.28l1.41,1.41l-0.42,0.99l-1.13,0.14l-0.85-0.57l-0.71-2.26"/>
				<path d="M211.47,426.31l0.99-0.28l0.28,0.71l0.42-1.13l0.42,0.99l-0.71,1.27l0.99,0.99l0.99-0.85l1.13,0.14l0.14,0.56l-2.26,1.27v0.99l-0.28-0.14l-1.13-0.99h0.85l-0.28-0.85l-0.99,0.28l-0.71-0.99l0.14-1.98"/>
				<path d="M208.5,423.48l0.56-0.99l0.14,0.85l-0.71,0.14"/>
				<path d="M209.49,421.79l-0.14,0.71h-0.28l-0.42-1.83l0.85,1.13"/>
				<path d="M207.37,419.39l1.27-0.14l-0.28,0.85l-0.99-0.71"/>
				<path d="M208.22,414.87l0.42-0.99l0.71,0.85l-0.14,3.81l-0.56-0.42v-1.41l-0.99-0.71l0.56,0.14l-0.42-0.71l0.42-0.57"/>
				<path d="M212.46,400.05l0.56,0.42l-0.14,0.85l-0.99,0.28l-0.42-0.99l0.99-0.56"/>
				<path d="M210.76,392l0.57,0.42l0.42,1.55l-0.71,0.71l0.42,0.7h-0.28l0.28,0.99h-0.42l-0.14,0.71l-1.13-0.14l-0.14-0.56l0.56-3.67l0.56-0.71"/>
				<path d="M219.52,437.32l3.39-0.71l0.42,0.56l-1.55-0.14l1.69,0.57l-0.71,0.42l0.85,0.28l0.42,1.13l-2.4-1.69l-0.71,0.14l0.71,0.99l-0.85-0.14l-0.56-0.71l0.56-0.57l-1.27-0.14"/>
				<path d="M223.61,436.76l2.12-0.14l0.28,0.85l-1.41,0.28l-0.85-0.28l-0.14-0.71"/>
				<path d="M171.79,289.77l0.99,2.12l-0.85,0.71l-0.42-0.71l0.56-0.7l-0.71-0.99l0.42-0.42"/>
				<path d="M201.73,273.81l0.42-0.85l0.42,0.14l0.71-0.85l-0.57-0.99l0.14-0.42l1.27,1.41v-1.41l2.54-1.98l0.14-2.12l1.41-1.13h0.99l0.14,0.42l0.71-1.13l2.12-0.14l2.12-0.99l0.56-0.84l0.85-0.57l0.99,0.57l-0.28,0.71l-1.13,0.56l0.56,1.98l-0.85,1.55v0.85
					l0.85,1.41l1.27-0.71l-0.14-0.99l-0.85-1.27v-0.99l1.41-0.99l2.4-0.57l-0.14-0.28l-0.99-0.28l0.71-1.13l0.85,1.69l2.68,0.57l0.85,1.69l4.1-0.28l1.13,0.99h1.13l2.97-0.71l-0.99-0.28l0.28-0.14h4.66l-1.98,0.7l0.7,0.28l0.57,0.99h1.41l1.69,0.99l0.42,1.41
					l-0.42,0.56l0.85,0.14l0.85-0.42l0.85,0.71h0.56l1.98,1.55l0.42,1.69l1.69,0.43l1.55,1.83l4.66-0.28l2.12,0.42v0.56l0.42-0.28l2.68,1.13l1.83,1.41l0.57,0.99l0.28-0.42l0.71,0.56l1.55,4.8l1.13,0.42l-0.42,1.41l-2.96,3.11l0.28,1.7l1.27-0.85l-0.42,0.57
					l0.56,0.42V294h-1.69l-0.14,0.71l0.28-0.42l4.38-0.14l0.14,1.41l0.85-1.69l1.13-0.42l0.85-1.69l2.12-0.14l3.67,1.41l0.28,0.85l0.99-0.42l0.71,0.85l-0.28,0.57l0.85,0.28l-0.28,0.99l1.98-0.85l3.67,1.27h4.38l0.99,0.42l5.37,4.24l3.53,0.42l0.71,1.13l0.56,3.11
					l-0.85,4.24l-2.4,3.11l-2.26,1.98l-1.83,3.39l-1.7,0.99l-0.42,2.82l0.28,3.11l-0.57,4.24l-0.85,1.27l-0.42,2.97l-2.68,4.24l-0.42,1.7l-1.84,1.27l-0.42,0.85l-5.08,0.28l-0.28,0.71l-4.52,1.98l-3.67,3.39l-0.85,1.7l0.14,1.98l0.42,0.71l-0.28,0.28l-0.28,2.54
					l-2.54,2.68l-1.13,2.82l-1.69,2.54l-2.68,2.12l-0.42,1.56l-2.12,2.26l-1.55,2.4l-1.69,0.85l-2.97-0.28l-2.26-0.99l-1.55-0.14l-1.13-1.13l0.14,1.55l2.54,1.98l-0.42,1.41l0.71,1.13l0.85,0.14l-0.14,2.12l-1.55,2.12l-0.28,0.99l-0.99,0.71l-6.64,1.55l-2.26-0.14
					l-0.56-0.42v1.27l0.56,0.71l-0.71,1.69l0.14,1.98l-0.42,0.7l-1.27,0.57h-1.55l-2.54-1.41l-0.56,0.57l0.42,3.53l1.13,1.13l0.85-0.14l-0.42-0.57l1.13-0.42l0.28,0.57l0.14,0.99l-0.28,0.71h-1.13l-0.71-0.85l-0.99,0.57l1.55,0.99l-1.41,0.71l-0.56,0.99v2.4
					l-0.99,1.13l0.14,0.99h-1.41l-1.41,0.71l-1.55,2.26l-0.14,0.7l0.71,1.27l1.13,1.27l2.12,0.42l0.28,1.41l-0.57,1.98l-3.53,2.97l-0.71,3.11l-1.13,0.57l-0.71-1.13l0.42,1.41l-1.27,0.99l-0.85,2.12l0.56-0.14l0.42,1.69l-0.85,0.28l0.85,0.28l1.41,2.26l-1.98-0.28
					l-3.53,1.98l-0.57,3.81h-1.27l-1.27-0.85l-0.14-0.85l0.28-0.14l0.14,0.56l1.69-1.13l0.56-0.99l-0.99-1.13h-2.68l0.71-1.13l-0.56-0.99l0.42-0.71l-1.13-0.85l0.71,0.85l-0.99-0.28l0.28,0.57l-0.28,0.56l-0.71-1.55l0.28,1.69l-0.42-0.14l-0.28-2.26l-0.99-0.99
					v-0.85l0.85-0.14l-0.14-0.42h-0.71l-0.14-0.42l0.56-0.28l-1.55-1.27l0.71-1.55l0.99-0.28l-0.28-0.57l0.28-1.13l-0.99,0.99v-3.1l1.13,0.28l-0.28-0.7l-1.13,0.14l-0.28-1.41l0.71,0.85l0.14-0.71l1.69,0.56l-0.99-1.69l-0.56,0.28l0.14-0.71l-0.99-0.42l0.99-0.71
					l-0.28-0.28l0.28-0.42l-0.56-0.71l-0.99,0.14l-0.99-0.7l-0.56,0.28l0.14,0.85l-0.56-0.43l0.14-0.85l1.69-1.13l-0.56-0.99h1.69l0.42,0.85l-0.28,0.56l0.42,0.28l0.42-0.56v0.84l0.85-0.84l0.28-0.85l-0.71,0.7l0.14-0.99l0.71-0.43l-0.42-0.14l0.56-0.56l-0.85,0.28
					l0.14-0.42l0.85-0.28l-0.56-0.42v-0.71l1.55-0.85l-0.14-1.13l-1.13-0.85l0.85-1.13l-0.42-0.99l0.71-1.41l-0.14-0.85l0.56-0.42l-0.42-0.57l0.42-0.28l0.28,0.56l-0.14-1.41l-0.71-0.14l1.13-0.99l-1.55-0.28l-0.99,0.71l-0.99-1.13l0.42-4.38l0.71-1.13l-0.56-2.68
					v-3.53l0.99-0.42l-0.14-1.41h0.56l2.82-7.91l0.42-3.39l-0.56-4.66l0.14-0.99l0.71-0.99l-0.28-2.54l1.69-5.22v-2.54l0.56-1.27l-0.28-4.8l0.71-0.99l0.28-3.25l-0.14-3.67L218.1,331l-3.95-3.25l-3.25-1.27l-3.11-1.98l-2.54-2.54l-0.14-2.26l-2.82-4.09l-2.68-7.06
					l-1.27-1.13l-1.13-2.26l-2.54-1.98l0.42-0.85l-0.42-0.56l-0.42-1.98l1.98-1.97l1.13-0.85l0.14-1.13l-0.28-0.85l-0.85,0.99l-1.13-0.71v-2.82l0.99-0.71l0.71-1.98v-1.27l2.68-1.41l-0.28-0.57l0.85-0.42l0.14-1.55l1.98-0.57l0.28-0.99l1.27-1.41l-1.13-0.14
					l0.14-5.79l-1.13-1.84z"/>
			</g>
			<text transform="matrix(1 0 0 1 208.1787 316.7642)"><tspan x="0" y="0" style="fill:#000000;stroke:none;">South America</tspan></text>
		</g>
		<g>
			<g>
				<path d="M319.77,251.5l-0.7,0.14l0.14,0.42l0.56-0.57"/>
				<path d="M322.59,255.88v0.85h0.57l-0.57-0.85"/>
				<path d="M324.43,253.9l0.57,0.28l-0.42,0.28l-0.14-0.56"/>
				<path d="M395.17,281.86l-0.28,0.85h-0.71l0.42-1.13l0.57,0.28"/>
				<path d="M474.11,326.62l1.69-0.71l0.28,0.28l1.55-0.85l0.7,0.71h0.57l-0.42-1.13l0.99-0.71l0.28,0.71l0.57-0.14l-0.42-0.85l0.56-0.71l0.28-0.28v0.71l0.71-0.71l0.56-0.14l-0.71-0.56l0.42-0.71l0.28,0.28l-0.28-1.27h0.57l0.14,0.42l0.56-1.27h0.71v-1.84
					l0.85-0.71l1.55,1.98l1.27,5.51l-0.28,1.13h-0.28l-0.42-1.13h-0.42l0.14,2.68l-0.71,1.27l-0.56,3.53l-4.38,14.12l-1.13,1.41l-1.69,0.14l-1.84,0.99l-2.4-1.69l-0.56-0.85l-0.28-2.54l-0.99-2.12l-0.14-1.84l2.82-4.94l-1.27-5.36l1.13-2.26v-0.57"/>
				<path d="M390.09,289.06l0.28,0.28l-0.42,0.42l-0.28-0.42l0.42-0.28"/>
				<path d="M463.09,302.76l0.57,1.55l-0.57-0.42v-1.13"/>
				<path d="M464.36,301.35l-0.14,0.71l-0.14-1.13l0.28,0.43"/>
				<path d="M337.99,213.09l-0.57,0.14l0.57,0.42l0.42-0.14l-0.42-0.42"/>
				<path d="M340.67,225.1l-0.28,0.99h0.42l0.42-0.71l-0.56-0.28"/>
				<path d="M471.99,315.32l0.14,1.27l-0.42-0.57l0.28-0.71"/>
				<path d="M474.53,317.02v0.7l-0.56-0.42l0.56-0.28"/>
				<path d="M476.22,318.57l-0.28,0.42l-0.14-0.56l0.42,0.14"/>
				<path d="M498.25,337.63h0.99l0.14,0.85l-0.71-0.14l-0.42-0.71"/>
				<path d="M496.56,261.95l-0.14,0.42l-0.7,0.42l-1.27-0.56l0.28-0.56l1.84,0.28"/>
				<path d="M451.23,217.05l-2.12,0.71h-1.27l-0.85-0.71v0.56l-0.28,0.14v-0.57l-0.57-0.28l0.14-0.28l0.7,0.56l-0.7-0.85l-1.84,0.14l-1.13,0.42l0.42-0.42l-3.96,1.7l-4.66-1.55l-3.95-0.42l-0.57-0.85l-3.81-0.71l-0.71-1.27l-1.84-0.56l-2.4,0.28l-2.26,1.98
					l-0.14,1.13l0.42,1.27l-0.56,1.13l-2.12,0.99l-2.82-1.69l-4.09-0.99l-1.41-2.54l-2.97-1.27h-3.25l-2.12-0.99l-0.57-0.14l-0.42-0.99l-0.56,0.28l-0.99-0.56l-0.71-0.71v-0.42l0.57,0.14L398,209l1.55-1.27l0.57-1.27l-0.14-0.99l-0.85-0.57l-0.42-0.85l1.41-1.98
					l-0.14-0.57l-1.27,0.85l-0.42-0.14l-0.14-1.13l-1.27-0.28l-2.12,0.99l-1.84,0.28l-1.27-0.71l-0.71,0.57l-1.41-0.57l-2.26,1.13l-0.71-0.42l-2.26-0.14l-5.93,1.13l-2.12,0.99l-0.56,0.71l-1.98,0.28l-1.13,1.27l-1.55,0.57l-2.26-0.57l-2.96,0.42l-1.27-0.71
					l-0.99-1.27l-0.99,0.42l-1.84,4.38l-3.81,2.26l-1.69,1.98l-0.28,1.27l-1.27,1.7l-0.14,1.84l0.42,1.55l-0.71,1.27l-0.71,0.99l-2.96,2.4l-2.83,0.85l-0.14,0.42l-1.13,2.26l-2.12,1.84l-0.85,2.54l-1.98,2.68l-1.7,3.81l-0.56,0.28l-0.57,2.82l0.42-0.14l1.13,1.84
					l0.14,1.13l-0.7,0.99l0.99,2.12v1.98l-1.13,3.53v0.99l-0.71,1.27l-1.55,0.85l0.57,0.14l1.69,2.54l-0.56,0.56l0.14,0.71v1.41l1.98,1.69l2.26-0.56l-1.41,0.56l0.28,1.13l0.57,0.56l0.28,0.42l0.56-0.42l0.85,1.83l0.99,0.57l1.41,1.7l0.42,1.55l-0.28,0.28l0.71,0.99
					l1.13,1.13l1.98,0.85l4.8,4.1l3.96,1.69l0.71,0.14l2.54-1.13l2.96-0.7l3.67,0.14l2.54,0.99l4.8-2.26l1.84-0.14l0.57-0.71l1.55-0.42l1.84-0.14l3.25-0.14l1.27,0.57l0.42,0.71l0.99,0.85v1.41l1.7,1.27l1.41-0.42l0.57-0.57l2.26,0.42l0.28-0.85l0.28,0.28l0.28,0.42
					h0.71l0.28,0.99l1.55,0.14l-0.28,0.71l0.85,0.99l-0.57,2.4l-0.71,2.12l0.42,0.57v0.56l-0.42,0.42l1.13,0.85l-1.27-0.28l-0.14,1.55l-0.99,0.71l1.13,2.54l4.1,4.52l1.27,1.27l0.71,1.13l0.71,1.83v0.85l1.98,4.52l0.14,1.27l-0.42,0.85l0.42,1.83l0.99,1.13v1.13
					l-0.28,2.68l-1.55,1.41l-1.13,2.12l-1.55,4.94l-0.14,3.25l0.14,1.84l2.12,3.11l3.81,7.34l0.14,3.81l0.71,2.12l0.14,1.84l0.85,4.09l1.13,1.7l1.69,1.41l2.12,5.23l1.83,3.25l0.14,1.69l-0.43,0.56l-0.42-0.14l-0.14,0.71l1.27,1.98l0.14,0.99h0.71v0.71l2.68,0.99
					l0.85-0.71l3.25-0.28l1.55-0.85l5.08,0.42l0.29-0.56l1.69,0.28l0.14-0.85l3.11-0.56l3.1-2.54l3.39-3.81l2.96-4.94l2.26-1.98l0.99-4.38v-1.55l-0.28,0.56l-0.56-0.7l0.71-1.13l4.24-1.83l1.41-1.55l0.14-0.71l-0.42,0.71v-0.42l0.57-4.38l-0.28,0.14l-0.85-3.25
					l-0.71-0.71v-1.55l2.82-2.26l0.28-0.71l0.42,0.56l0.85-1.27l-0.29-0.28l1.98-1.55l3.53-1.27l1.55-1.27v-0.42l1.83-1.69l0.14-0.71l-0.42-0.14l0.71-1.13l-0.28-1.13h-0.28l-0.14-2.97v-2.54l0.85-1.84l-0.42-1.27l-1.27-0.85l-0.99-2.54l-0.42-1.27l0.71-2.82
					l-1.55-1.69l0.99-3.67l0.71-0.71l1.55-3.67l2.68-2.26l2.12-2.4l0.14-0.85l0.71-0.14l4.52-4.24l1.98-0.99l4.09-3.95l1.27-2.26l1.41-1.41l2.12-5.08l0.57-0.57l1.27-1.98l0.42-2.54l0.99-0.14l-0.71-0.14l0.28-0.42l-0.14-1.69l0.28-0.99l-1.13-0.42l-1.27,0.85
					l-1.98,0.42l-4.24,0.56l-1.69,0.99l-1.83-0.43l-1.7,0.99l-1.13,0.14l-2.68-2.54l-1.55-0.14l1.83-0.99l-0.14-0.99l-0.57-0.85l-1.41-0.99l-2.54-3.11l-1.69-0.85h-0.71l-0.7-1.13l-0.14,0.71l-0.28-0.14l-1.13-1.84l-0.85-3.53l-0.85-1.27l-2.4-1.98l-0.28-5.22
					l-0.7-0.85l-0.14-1.27l-2.82-2.54l-0.28-1.98l0.71-0.14l-1.41-1.27l-2.54-4.94l-1.13-3.67l-1.84-2.26l-0.71-1.84l0.42-1.13l1.69,3.67l1.7,1.98l0.71-0.28l0.85-3.81l-1.55-4.8z"/>
			</g>
			<text transform="matrix(1 0 0 1 407.5103 278.0962)"><tspan x="0" y="0" style="fill:#000000;stroke:none;">Africa</tspan></text>
		</g>
		<g>
			<g>
				<path d="M425.81,126.82l-1.55,0.42l0.85,0.85l1.13-0.56l-0.42-0.71z"/>
				<path d="M426.38,128.51l-2.54,0.42v0.99l0.56,0.42v0.85l0.57-1.27l1.98-0.71l-0.56-0.71"/>
				<path d="M408.73,143.06l-0.85-0.99v0.71l0.85,0.28"/>
				<path d="M399.55,142.91l-0.28,1.27l-0.14-0.56l0.42-0.71"/>
				<path d="M397.71,141.08l1.27-0.42l0.56,1.41l-0.14,0.71l-1.55,0.14l-0.85-1.69l0.7-0.14"/>
				<path d="M400.54,143.34l0.85,0.28l0.28,0.85l-1.7-0.42v-0.56l0.57-0.14"/>
				<path d="M401.67,143.34l0.71,0.28l-0.28,1.13l-0.42-1.41"/>
				<path d="M400.82,139.24l0.28,0.42l-1.41,0.71l0.56,0.42l0.28,1.55l1.13,0.14l-0.14,0.42l0.99,0.28v-0.85l0.57-0.14l-0.42-0.99l0.99-0.71l-0.71-1.84l-0.99,0.56v0.28l-0.28,0.99v-1.13l-0.85-0.14z"/>
				<path d="M360.3,113.4v-1.13l-1.13,0.14l1.13,0.99"/>
				<path d="M405.48,145.17l0.14,0.71l-1.27-0.28l0.14-0.71l0.56,0.28l-0.28-0.71l0.71,0.28v0.42"/>
				<path d="M420.03,194.74l-0.42-0.99h-0.42l0.85,0.99"/>
				<path d="M421.58,198.55l-0.28-0.99l-0.57,0.42l0.85,0.56"/>
				<path d="M424.4,197.84l-1.41,0.28l-0.57,1.13l1.13,1.41v1.13l0.42,0.42l0.42-0.85l0.71,1.7l0.71-0.99l0.99,0.99l-0.85-3.11l0.85,0.71l0.71-0.56l-0.71-1.27l-2.4-0.99"/>
				<path d="M430.9,199.68v-0.71l-0.57-0.14l0.57,0.85"/>
				<path d="M431.18,205.89l-1.55,0.14l-0.56-0.71h-0.85l-0.42,1.13l2.12,0.14l0.7,0.71l2.97-0.28l0.28-0.71l-0.71,0.28l-1.98-0.71"/>
				<path d="M431.04,193.47l0.14-0.42h0.56l0.14,0.14l-0.85,0.28z"/>
				<path d="M430.33,191.21l0.14-0.56l-0.56,0.28l0.42,0.28"/>
				<path d="M430.05,198.41l-0.99-1.55l-1.7-1.13l-0.85,0.56l2.54,1.7l0.56,0.85h0.42v-0.42"/>
				<path d="M395.74,189.09l0.71,0.56l0.42,1.27v3.81l-0.42,0.56l-0.56-0.14l-0.99,0.99l-0.71-1.13l0.14-1.84l-0.71-2.96l0.85,0.14l1.27-1.27"/>
				<path d="M410.14,197.84l-1.13,2.4l0.28,1.13l-0.28,0.85h-0.99l-0.85-0.85l-3.67-1.69l-0.28-0.85l0.28-0.71l1.27-0.14l1.13,0.71l4.24-0.85"/>
				<path d="M386.98,149.97l-0.99,0.99l0.57-0.99h0.42z"/>
				<path d="M378.94,195.58l-0.14,0.57l-0.42-0.14l0.57-0.42"/>
				<path d="M384.86,192.9l0.14,0.42l-0.85-0.42h0.71"/>
				<path d="M382.61,193.04v0.56l0.57,0.28l-0.71,1.13l-1.55-0.85l1.69-1.13"/>
				<path d="M394.19,105.64l1.13-0.7l0.57,0.56l-1.7,0.14"/>
				<path d="M410.14,75.98l0.57,1.13v0.85l0.71-1.69l0.71,0.56v0.99l-1.98,1.84l-0.28-0.99l-2.68,1.69l2.12-1.84l0.85-2.54"/>
				<path d="M388.4,112.13l0.28-0.71l-0.42,0.14l0.14,0.56"/>
				<path d="M415.51,135.29l1.69-1.84l-0.14-1.27l0.28-0.71h-0.7l-0.99,1.41l-0.14,2.4"/>
				<path d="M411.55,138.11l1.13-3.11l-0.99,1.55l-0.14,1.55"/>
				<path d="M407.6,177.09l0.57,0.85l-0.71-0.28l0.14-0.57"/>
				<path d="M396.16,184l0.42,2.4l-0.71,2.54l-1.13-1.27l-0.28-1.98l0.28-0.42l1.27-0.56l0.14-0.71"/>
				<path d="M425.53,122.16l0.42-1.13l-0.99,1.13h0.56"/>
				<path d="M419.74,120.75h-0.56l-0.14,1.13l0.85,0.42l-0.14-1.55"/>
				<path d="M363.69,140.51l0.28,0.99l0.14-0.99h-0.42"/>
				<path d="M372.58,119.62l-0.71,1.69l0.71,0.28l-0.14,1.27l0.42-0.56l0.14-1.69l-0.43-0.99"/>
				<path d="M361.85,147.01l1.27-1.13l-0.28-0.85l0.28,0.57l0.14-0.42l-0.99-0.56l0.14-1.13l-0.56-0.99l-2.26,0.57l0.42-0.71l-0.85-0.42l-0.42,1.41l-0.14-0.99l-1.13,0.42l-1.41,1.69l1.27,0.28l-0.85,1.41l-2.54-0.28l-0.42,0.71l0.14,0.56h-0.57l1.13,0.71
					l-0.99,0.85l0.42,0.85l1.98,0.57l-1.84,2.26l1.98-0.85l0.42,0.57l-1.98,0.42l-0.71,1.13l-0.99,0.14l0.99,0.42l-0.85,0.85h1.41l-0.99,0.85l1.27-0.42l-0.42,0.85l0.99-0.14l3.81-2.12l2.54-0.14l0.71-2.82v-2.26l-0.57-1.41l0.42-0.42z"/>
				<path d="M361.43,132.47l-0.85,1.13l1.83,1.27l0.28-0.57l-0.71-0.14l-0.57-1.69"/>
				<path d="M362.7,137.83l-0.71-0.99l-0.43,0.14l0.43,0.85h0.71z"/>
				<path d="M363.26,138.96l-1.13,1.13l0.56-1.13h0.57z"/>
				<path d="M361.71,139.81l-0.57,0.71l0.85,0.14l-0.28-0.85"/>
				<path d="M365.66,145.6l-0.71,1.27l0.71-0.42v-0.85"/>
				<path d="M366.51,149.83l-0.99-0.71l0.57,0.71h0.42z"/>
				<path d="M370.04,159.58l1.98-0.56l0.43-0.71l1.27,0.56l3.95-0.71l0.99-1.27l-1.55-0.14l-0.28-0.56l2.26-2.26l0.14-2.12l-0.99-0.85l-2.68,0.42l0.71-1.69l-1.55-1.55l1.13,0.42v-0.7l-1.69-2.83l-1.13-0.42l-0.99-3.53l-2.26-1.84h-1.55l1.41-0.85l-0.71-0.99
					l0.71-0.14l0.85-1.41l0.99-2.26l-0.14-1.13l-5.08,0.56l-0.28-0.56l0.99-0.56l-0.56-0.42l2.12-1.83v-1.13l-0.42-0.14l-3.53,0.42l-0.42,1.27l-0.56,0.14l-0.14,0.56l0.42,0.57l-1.13,0.56l0.28,1.13h-0.42v0.71l0.71,0.28l-0.71,2.12l-0.71,0.28l0.99,0.99l0.99-0.56
					l-1.13,5.08l0.99-1.69l-0.28-0.99l0.71-0.85l-0.28,1.41l0.71-0.71l0.57,0.42l-0.42,0.99l0.42,0.85l-0.71,2.12h-0.42l0.42,0.99l0.28-0.71l0.99,0.71l0.14-0.57l2.82-0.42l-1.27,1.69l0.99,1.55l1.13-0.56l-0.71,1.69l0.42,0.14l-0.42,0.99l0.28,0.28l-1.98,0.28
					l-1.98,1.83l1.27-0.42l0.42,1.55l-0.42,0.85l-2.54,1.55l0.57,0.85l1.27-0.57l0.28,0.71l0.99-0.28l0.99,0.99l1.98-0.99l-1.13,1.55l-2.4,0.28l-3.25,3.95h0.99l0.99-1.13l2.26,0.28l0.57-1.27l1.41-0.42l0.71,0.71"/>
				<path d="M361.57,129.22l-1.69,0.99v1.84l1.41-0.99l-0.14-0.56l0.57-0.42l-0.14-0.85"/>
				<path d="M439.35,118.6l-0.83-0.67l-0.17-2l1.17-2.17l4.17-3.83l1.33-1.83l0.67-2l-0.83-1.17l-1.17-0.83l-0.33-1.67l-0.17-5l-0.5-0.67l-0.83-1.5V93.1l0.33-1.33l1.5-0.17l-0.83-1.5l-0.67-1.33l-0.5-2.17l-1.33-0.5l-0.67-1l0.67-1.67l1.33-0.67l0.5-0.83
					l-0.67-2.17l-1-1l0.5-1l-1.5-1.17l-1.5-0.33v-1.33V73.6l0.33-0.83l1-0.83l1.86-0.61l0.71-1.27l-2.82-1.84l3.11,0.42l2.12-2.26l-2.26-1.98l-1.41,0.28l-0.28-1.27l-1.41,0.71v1.98h-1.27l0.71-1.13l-1.27,0.14l0.71-0.56l-0.42-0.42l0.99-0.28l0.28-1.13l-1.83-0.85
					l-1.27,4.24l-0.99,0.56v-3.67l-3.39,5.79l-0.42-0.42l0.56-2.26l1.55-2.54l-1.41,0.42l-0.56-1.27l-1.41,0.99l0.71,1.13l-2.97,2.97l-0.14,1.55l-0.85-0.85l0.14-0.56l-1.27,0.42l-0.99-1.13l-0.28,0.99l-0.57-0.99v1.13l0.99,0.28l0.14,2.4l-1.69-1.98l0.14,0.71
					l-1.41,0.42l-0.28,0.56l0.14,0.99l-0.85,1.55l0.14-1.13v-2.54l-1.13,1.27l-0.28,1.84l-0.14-2.12l-0.99,0.14l-0.28,1.69l0.99,1.7l-1.7-1.98h-0.57l0.85,1.27l-0.42,0.42l-0.85-0.42l-0.14-0.99l-0.42,1.27l0.28,0.56l-1.41,1.13l0.71,0.99l-0.42-0.14l0.14,0.71
					l-2.68,1.41l2.4,0.42l-0.71,0.85l-2.12-0.28l0.14,2.26l-0.56,0.42l-0.56-1.55l-0.99,1.69l0.28,0.99l-0.71,0.71h1.13l-2.54,0.56l-0.85,2.82l-1.98,1.69l-0.14,0.71l0.42,0.14l-0.71,0.42l0.56,1.13l-1.97,1.84l1.13-0.57l0.28,0.99l-0.85-0.42l-0.14,1.41l-0.56,0.14
					l0.42,1.41l-0.85-0.99l-0.42,1.55l0.57-0.42l0.14,0.99l-2.26,1.27l-0.14,0.85l0.28,0.14l-0.14,1.13l-0.99-0.28l-1.84,2.4v0.71l-0.85,0.56l0.99,1.55l2.54-1.27l-2.68,2.12l-0.85-1.27l-0.99,0.56l0.28,0.71l-0.42,0.28l-0.28-0.85l-1.13,0.42l-2.26,2.12l-1.41,0.71
					l1.41,0.85l-0.14,0.56l-2.54,0.14l0.56,0.28l-0.28,0.42l0.14,0.99l-0.56-0.85l-0.71,0.99l0.28,0.56l-2.12-0.42l0.14,0.99l2.54,0.14l-2.97,0.71l0.56,0.56l-0.56,0.99l0.14,1.27l2.68-0.14l0.42-1.13v0.85l1.13,0.14l1.13-1.69l-0.42,1.55l0.71-0.14l-1.27,0.71
					l0.14,0.71l-0.57,0.28l-0.42-0.99l-3.53,0.71l0.42,0.42v0.57l-0.71-0.28l0.42,0.85l1.13-0.42l-1.13,1.55l0.28,0.85l0.57-0.56l0.14,0.85l-0.42,0.42l0.14,0.42l1.84-2.82h1.55l-0.85,0.99l-0.28-0.56l-1.7,2.68l1.27,0.14l-2.4,1.55l0.14,0.56l2.26-0.85l-0.85,2.54
					l-0.71-0.28l-0.28,1.27l1.84,1.84l0.85-0.42l-0.14,1.27h2.26l3.11-2.4l1.13-1.98l1.27,0.28l0.56-1.13l-0.42-1.84l0.56,0.71l-0.14-1.27l0.42-0.28l0.28,2.96l0.99,0.57l-0.14,0.57l0.14,1.98l0.28,0.99l0.56-0.42l0.14,0.42l-0.57,0.56l0.71,0.28v0.99h0.42
					l-0.14,1.84l2.4,3.39l-0.71,0.56l0.28,0.71l-0.57,0.14l1.13,2.26l-0.42,0.85h2.83l0.7-2.54l3.39-0.42l1.55-5.22l-0.28-1.98l0.42-0.14l0.14-1.55l-0.85-0.56l0.99-0.28l-1.41-0.42l1.7-0.28l1.27-1.55l0.85,0.57l0.85-0.99v-0.56l0.7-0.28l-2.97,0.28l-2.12-0.85
					l1.55-0.42l1.98,0.85l1.41-0.71l0.71-1.55l-1.13-1.69l0.28-0.14l-1.98-1.55l-1.55,1.98l-1.41,0.28l1.98-1.41l-0.14-4.94l0.14-0.85l0.56,0.28l0.28-2.82l-0.42-1.27l0.7,0.28l0.42-0.71v-1.55l0.43,0.71l0.71-0.99l0.99-1.55l3.96-2.4l2.4-3.11l-0.99-2.12l0.99-1.7
					l-0.28-1.13l1.41-1.13l-0.42-0.99l0.85,0.71l0.42-1.55l3.39,0.71l0.28-0.99l2.68,2.68l0.56,2.54l-1.98,0.85l-0.28,1.41l-3.96,5.23l-1.13,1.27h-1.13l-0.14,1.13h-0.71l-0.85,1.69l0.56,1.98l-0.14,0.99l0.99,2.54h-0.42v1.41l-0.43,0.99l0.43,0.99l-0.28,0.56
					l2.68,1.69l0.71-0.42l0.57,1.69l0.57-0.42l0.28,0.56l1.98-0.42l3.39-1.84l3.95-0.56l2.12-0.56l0.4-0.6z"/>
				<path d="M462.53,170.73l-7.48,2.12l-0.99,0.99l-0.42-0.56l-0.56,0.99v0.71l-0.42-0.71l-0.42,0.57l-0.85-1.13l-0.14,0.56l-0.7-0.14l0.99,0.99l0.85-0.14l-0.14,0.56l0.85,0.28l0.42,1.13l3.39-0.42l-0.29,1.27l-2.12-0.28l-3.39,2.26l-1.27-0.42v-1.84l-1.98-0.85
					l2.82-1.69l-0.28-0.42l-4.09-0.42l0.42-0.56l-0.85-0.28h1.27l-0.71-0.99l-2.68,0.85l-0.42,1.13l-0.85-0.71l0.56,1.13l-1.41,1.27l-0.28-0.71l-0.14,1.27h0.14l-0.28,1.98l-1.41,0.99l0.42-0.99l-0.28-0.57l-0.56,3.67l-0.42,1.13l-1.13,0.85l-0.14,1.13l-0.85,0.85
					l1.13,1.69l0.28,1.13l1.98,0.85l-0.14,0.71l-3.11,0.14l-3.1,2.54l0.14-0.85l1.27-0.71l-1.69-0.28l-2.4-0.71l-1.27,0.14l-1.7,0.99l1.41,1.13l-1.13-0.42l0.42,1.13l-1.13-0.85l0.14,0.99l-1.55-1.55l0.14-0.42l-0.57,0.14v1.69l1.41,2.4l-0.85-0.56l0.14,0.99
					l-0.99,0.14l3.25,2.12l0.14,1.41l-0.99-0.85l-1.55-0.14l0.56-0.42l-1.13-0.56l-3.39,0.14l-0.85-1.55h0.85l-0.14-0.28l-0.71-0.28v0.28l-1.27-1.98l-1.98-2.26h0.28l-0.14-2.68l0.42-1.27l-0.56-0.28l-3.11-2.82l-1.83-0.56h0.99l-1.41-1.27l-1.98-0.28l-1.83-1.98
					l0.56-0.56l-0.85-0.56l-0.43-1.69l-0.7-0.71l-0.42-0.14l-0.85,1.55l-0.28-0.14l-0.56-0.99l0.14-1.13v-0.57h-0.99l-2.12,1.13v0.85l0.42,0.42l-0.42,1.13l0.42,1.41l2.4,1.69l1.27,3.11l1.27,1.41l1.13,0.85l1.83-0.42l0.28,0.28l-0.42,1.27l4.38,2.12l1.27,1.84
					l-0.28,0.71l-0.99-1.13l-1.55-0.85l-0.99,0.56l-0.56,1.69l1.27,0.85v1.27l-0.99,0.42l-0.28,1.41l-0.99,1.27h-0.71l-0.14-0.85l0.28-1.27l0.85-0.42l-1.27-3.67l-0.42,0.42l-0.99-0.71l-0.42-1.27h-0.99l-1.41-1.84h-1.55l-3.11-3.25l-0.99-0.14l-1.41-1.98
					l-0.85-2.82l-3.11-1.27l-1.41,1.41l-1.27,0.28l-3.11,2.4l-2.4-0.99l-2.26-0.42l-1.84,1.13l-0.28,0.99l0.14,1.27l0.42,0.42l-0.57,1.41l-4.94,2.97l-2.54,4.09l0.28,1.13l0.85,0.57l-0.14,0.42l-1.13,0.99l-0.71,1.98l-1.27,0.14l-1.55,2.12l-5.22,0.14l-2.4,1.84
					l-1.27-0.56l-1.27-2.26l-1.84-0.43l-3.25,0.43l0.42-4.1l-0.99,0.28l-0.71-0.85l1.7-6.35l-0.28-2.54l0.28-1.55l-0.28,0.14l-0.28-0.56l0.28-0.57l-0.99-0.99l0.57-0.85l1.27-0.14l0.57-1.13l14.12,0.99l0.99-0.71l0.85-3.39l-0.42-0.28l0.42-2.4l0.71,0.85l-0.99-1.55
					v-1.7l-1.55-0.71l-0.56-0.99l-0.14-1.27l0.85-0.14l-1.55-0.14l-0.14-0.71l-3.25-1.13l-0.85,0.14l-0.71-0.85l0.57-0.14l-0.43-0.42l0.43-0.42l-0.85,0.14l0.14-0.71l2.83-0.99l1.84,0.85l2.54-0.14l-0.85-3.67l1.27,0.14l0.56,0.99l3.39-0.28l-0.71-0.14l0.28-0.85
					l2.97-1.69l0.28-2.4l2.12-0.71l1.55-0.85l1.83-0.14l-0.85-0.42l2.12-0.71l-1.27-0.14l-0.28-0.56l1.83-3.67l0.42,0.71l-0.42,0.28v0.85l0.85,0.42l-0.14-0.85l0.57-1.27l-0.42-0.14l0.14-1.27l2.68-0.71l0.85,0.71l0.99,0.14l-0.99-0.85l0.42-0.85l0.99-0.14
					l0.71,0.14l0.28,0.85l0.71-0.42l0.42,0.85l-0.14-1.69l1.13-0.42l-0.99-1.69l0.71-0.71l-0.71-1.55v-1.69l-1.27-0.85l-0.14-3.25l0.56-2.12l4.66-3.39l0.14,1.98l-0.99,2.54h0.57l-0.28,0.71l1.55-0.14v0.71l-0.85,0.71l-0.42-0.28v0.99l-0.99,0.28l0.14,0.71h-0.71
					l0.28,0.42l-0.56,1.98l0.56,0.85h-0.42l0.71,0.28v1.13l0.42,0.57l2.12,0.14l-0.57,1.41h1.55l2.54-1.98l-0.42,0.71l1.27-0.42l2.68,2.4l0.71,0.28l0.14-0.56l-0.57-0.14l0.28-0.28l6.35-3.11l3.11-0.14l0.28,0.71l-0.71-0.28l0.71,1.55l1.83-0.71l0.99-1.84l1.7-0.85
					l-0.42,0.57l1.13,0.42l0.28-1.27l-0.7-3.81l0.14-2.12l1.55-3.25l1.83-0.85l1.84,2.68l1.69,0.56l0.42-1.13l0.42-4.8l-1.84,0.14l-0.42-1.27l0.56-0.42l-0.71-0.28l0.14-1.69l4.8-1.98l4.8,0.99l0.42-0.14l0.14,0.76l-1.17,1.33l-0.17,2l1.17,1.5l0.33,3.33l0.83,2
					l3.67,1.5l1.5,2.33l-0.33,2.17l1.33,1.33l2,1.33l1.5,2.33l-0.33,1.17l-2,0.83l-0.5,2.5l0.83,1l1.17-0.83h2.17l1.83,1.67l-0.5,1.33l1.33,0.67h1.17l0.83,3.5l3.67,0.17l3,1.5l3.17,1l1,4.67l-1.5,2.17l-1.33,1.5l0.18,1.13z"/>
				<path d="M468.68,187.76l2.5,0.5l1.83,1.67l1,2.5l1.17,1.83l-0.5,4.17l0.83,1.33l-3,0.17l-3,0.5l-1.33,1.5l-4.33-0.67l-6,0.5h-1.83l0.02,0.6l-0.42-0.42l-1.13,0.85l-1.41-0.57l-0.85,0.14l-0.85,0.99l-2.82,0.85l-4.24-2.4l-0.71,0.14l-0.28,1.55l-1.41,0.42
					l-1.27-0.42l-0.42-1.13l-0.56,0.28l-0.57-0.56l-1.13,0.56v-0.42l-1.41,0.28l1.98-1.13l-2.12,0.14l0.42-0.56l-0.71-0.57l0.28-0.56l-0.71-0.28l0.14-0.85l-1.84-0.71l0.28-1.13l0.42,0.71h1.13l-0.85-0.71l0.42-0.56l-0.57-0.99l0.28-0.99l-1.55,0.14l0.56-1.55
					l0.85-0.99l2.26,0.14l-0.14-0.57l2.54,0.28h0.42l-0.42-0.56l0.42-0.14l1.83-0.14l-1.55-0.42l-0.28-0.42l0.42-0.71l4.24,0.71l2.68-2.12l2.26-0.85l3.96-0.14l1.13,1.13l0.99-0.14l0.57,1.27l3.81,1.13l2.82-0.56l2.26,0.28l2.54-1.83l0.42-0.28l0.5-0.19z"/>
			</g>
			<text transform="matrix(1 0 0 1 399.8452 165.4302)"><tspan x="0" y="0" style="fill:#000000;stroke:none;">Europe</tspan></text>
		</g>
		<g>
			<g>
				<path d="M739.99,548.45l1.7-2.82l2.82-0.85l-1.13-3.25h2.82l1.84-4.38l5.22-5.51l1.13-2.68l0.14-2.68l-0.56-1.13l1.83-1.69l-1.13-3.53l-0.56,0.14v1.69l-0.99-0.28l-2.68-3.25l-2.54-0.99l-0.14-1.13l-1.55-0.71l0.14-0.71l-8.05,1.41l-1.69-2.68l-2.68-0.99
					l-2.12-4.1l-2.26-2.12l-3.25-0.85l-0.99-1.7l0.28,1.55l-5.08-0.85l-0.57-0.85l0.14-1.55l-2.4-1.55l-12.42,0.28l0.71-1.13l-0.28-0.99l-6.07-2.54l-0.28-0.71l1.55-1.84l-0.71-1.13l-2.4,0.56l-2.97-1.41l-2.26,0.7l-0.99-1.27l-6.07-0.85l-9.32-3.1l1.55-1.7
					l0.28-2.82l-0.42-0.85l-1.55,2.12l-0.57,3.11l-1.13,0.71h-6.63l-1.55-1.27l-0.85,0.28l-0.99,5.37l-0.71,0.42l-2.96-0.14l-1.55-2.68l-6.21-1.84l-1.98,0.71l-0.14,1.13l1.13,0.42l-1.83,0.99l-2.68-2.96l-1.41-2.96l-0.71,0.56l-0.14,1.69l0.42,1.27l1.41,0.56
					l-1.55,1.83l-2.97,0.99l-5.93-0.42l-0.57-1.55l-1.69-1.27l-2.68,0.85l-3.25-4.38l-5.22,2.26l-0.99,0.71l0.42,1.13l-3.11,1.27l-1.27,1.41l-1.41-2.12l-9.04-3.25l0.28-0.71l2.54,0.99l-1.69-3.25l-1.98-0.28l-1.27-1.27l-0.42,0.14l-0.71,2.83l-1.27,0.14l-2.68-1.55
					l-2.82,2.68l-3.11-1.13l-3.53-2.82l-1.7-0.14l-0.7,2.26l0.28,2.54l-0.99,2.26l-1.83,0.71h-5.51l-5.08,1.7l-1.41-1.27l-1.55-2.83l-1.27-0.28l-6.07,2.96l-1.27-0.99h-2.54l-2.4-2.54l-0.14-1.13l-0.85,0.14l-0.85,1.13v1.84l2.26,3.25l-0.42,1.55l-1.69,1.41
					l0.28,1.13l-0.56,1.27l-5.08,1.84l-2.4,2.68l-0.42,0.85l0.42,1.7l-0.71,1.13l-3.96,2.26l-0.71-0.14l0.42-1.41l-0.7-0.28l-2.68,3.25l-0.85-0.14l0.28-0.85l1.98-1.41l-0.99-2.4l0.56-0.42l-1.69-1.27l-1.27,0.71l0.42-1.69l-2.26-1.41l-2.4,2.12l-1.84-0.71
					l-2.12-4.38l-5.51,0.42l-7.77-1.98l-2.4,0.85l-7.35-2.12l-0.84,0.85l-0.99-0.85l0.99-0.14l-1.98-0.99h-3.11l-0.28-1.83l1.55-0.85l-4.8-3.67l-3.67-0.42l-6.5,2.12l-1.27,1.55l0.28,1.27l0.85,0.28l-0.71,0.99l0.85,0.99l-1.83,0.57l-1.55-1.84l-1.13,0.14
					l-0.56,0.85l1.84,1.55l-2.12-0.56l0.71,1.27l-1.27,1.13h-1.56l-0.42-1.13l0.57-0.42l-2.12-1.27l-1.27,2.12l-3.11,0.28l-3.25,2.12l-1.41,2.12l-5.93,3.39l-0.28,3.39h-0.28l0.57,0.85l-1.41,0.42l-1.55,2.54l-1.98-2.82l-3.25-0.71l-4.8-5.51l-1.13,0.28l-0.85,1.7
					l0.85,1.7l-0.56,1.98l-2.97-2.54l-2.12-0.42l-2.68,2.12l-1.13,2.12l-3.11,1.55l-3.11-0.28l0.28,0.42l-1.55,1.41l-2.12-0.42l-1.55,1.41l-1.98-1.41l-4.52,0.14l0.99-0.56l-0.85-0.42l-7.77-1.84l-4.94,0.14l-1.13-2.97l-3.11,1.13l-1.98,3.53l-12-0.71l-3.67,1.98
					l-0.99-1.7l-5.08,0.57l-2.26-1.27l-0.99,0.85l-2.26-2.54l-0.71-1.83v-1.69h-2.26l-0.57,0.28l0.71,1.41v2.12l-1.98,2.68l-6.07,2.26l-6.36,0.42l-0.99,1.27l-3.25-0.85l-6.35,5.65l-0.28,1.69l-1.55,1.69v1.27h-3.67L337,529.1l-2.82-0.42l-0.57,2.12l-4.94,9.6
					l-4.09,1.84l-1.27,1.55l-1.98,4.66h418.67z"/>
				<path d="M238.93,548.41l-0.64-1.52l2.68-4.38l-0.99-2.12l0.99,0.14l-0.71-2.68l0.71-2.83l2.82-0.85l-2.54-5.08l1.13-2.82l-1.27-1.84l0.71-0.71l-0.14-0.85l-0.57,0.14l0.42-1.55v-1.98l-1.27-6.5l1.41-6.49l-1.41-7.2l0.42-6.92l0.56-3.81l2.96-6.5l0.99-5.51
					l0.56-1.27l2.12-1.55l0.99,0.43l0.14-0.71l-0.42-0.7l-3.81,1.13l-1.55,1.69l-2.82,1.13l-1.55,2.26l-1.84,0.42l-0.42,1.13l0.28,0.14l-1.55,0.85l0.42,0.42l-2.54,0.28l0.14,1.69l0.71,0.71l-1.84,0.43l0.42,0.56l-0.71,0.28l0.57,1.13l-1.55-0.42l-1.13,1.27
					L229.4,489l0.85,1.13l-2.12,1.27v2.68h-0.99l-0.28-1.84l-1.41,1.55l-0.28,0.99l0.28,0.99h2.12l-1.13,3.11l0.85,0.99l-0.99,0.28l0.57,0.56l-0.42,2.26l-0.85,1.83l-2.12,0.71l0.28,0.56l-0.14,0.85h-0.85l0.56,1.98l-0.7,1.55h-0.85l-0.85-3.95l-1.13-0.57l0.14-1.13
					l-0.71-1.27l-3.81,1.98l0.85,0.99l-0.28,1.13l-1.69-0.85l-0.57,0.85l0.28,1.13l-3.67,0.85l-0.71,1.27l0.99,3.25l-0.28,1.13l-1.69-0.42l-0.71,1.41l3.53,0.14l1.27,1.27l-0.14,0.71l-4.94,2.12v1.27l2.26,3.11l3.11,0.14l1.55,1.27l-0.28,1.41l0.99,1.41l-1.13,2.54
					l1.83,1.41l-0.28,1.13h-1.83l0.14,0.99l-2.4-1.55l0.14-1.55l-0.57-0.71l-3.25-0.57l-0.85,1.13l-0.85-1.7l0.14-0.99l-1.13-0.85h-3.1l0.99,1.27l-2.54,0.99l1.7,4.52l-3.39-3.53l-14.12-1.13l-3.39-2.54l-6.64-0.28l-4.66,1.84l-6.5,0.14l-1.84-1.69l0.99-0.42
					l-1.13-0.71l0.56-1.27l-1.41,0.28v-1.84l-1.13,1.7l-0.99-0.71l-0.14,1.13l-1.84-1.84l-0.14,0.85l0.71,0.57l-0.56,0.85l-3.67-2.4l-7.91,2.97l1.69,2.54l-0.14,1.41l-1.27,0.99l0.99,2.68l3.25,0.28l1.55,1.98l-3.25,0.28l0.99,3.11v4.38l1.55,2.97l-0.71,0.7
					l-8.19-1.84l-0.71-0.56l1.55-3.81l-1.83-0.71l-4.38,0.99l1.27,5.79l-4.8-3.11l-1.84-2.96l-7.06-0.57l-2.12-0.99l0.28-0.84l-0.28-0.42l-6.78,1.13l-18.64-6.22l-0.85,2.68l-2.4,1.69l-8.05,2.26l-8.75,5.08l-1.69-0.57h-4.94l-6.5,2.96l175.87-0.04z"/>
			</g>
			<text transform="matrix(1 0 0 1 512.9263 535.0054)"><tspan x="0" y="0" style="fill:#000000;stroke:none;">Antartica</tspan></text>
		</g>
		<g>
			<g>
				<path d="M792.91,152.56l0.42,0.28l-0.56,0.14l0.14-0.42"/>
				<path d="M788.96,152.7l0.56,0.42l-1.41,0.57l0.85-0.99"/>
				<path d="M783.17,154.82l0.56-0.71l0.57,0.71l-0.85,0.56l-0.28-0.56"/>
				<path d="M781.47,155.25l1.27-0.85l-0.28,0.56l-0.99,0.28"/>
				<path d="M780.06,154.4l1.27,0.14l-0.42,0.85l-0.85-0.99"/>
				<path d="M775.26,153.97l0.28,0.28l-0.28,0.14v-0.42"/>
				<path d="M770.88,153.55l0.14,0.71l-0.85,0.42l0.7-1.13"/>
				<path d="M759.44,150.73l1.83,0.14l-0.85,0.42l-0.99-0.57"/>
				<path d="M801.1,106.81l-1.84,1.13l-4.8-2.26l0.28-1.41l1.83,0.85l1.56-0.28l1.69,1.55l1.27,0.14v0.28z"/>
				<path d="M800.25,151.15l0.85-0.57v-0.85l-0.85,1.41"/>
				<path d="M745.32,141.55l0.42,0.14l0.99,2.26l-0.99-0.57l-0.85-1.55l0.42-0.28"/>
				<path d="M707.34,176.28l-4.23,2.97l1.97-2.68l0.85,0.14l1.27-0.85l0.14,0.42"/>
				<path d="M701.27,179.25l0.42,0.42l-1.84,1.98l-0.14-0.42l1.55-1.98"/>
				<path d="M506.55,68.97l-0.71-1.55h0.85l-0.56-0.42l0.85-1.13l3.53,4.38l-1.7,0.57l-1.84-1.55l0.14,0.85l-0.56-1.13"/>
				<path d="M495.11,41.72l3.11-2.96l2.26,0.99l-2.26-1.69l1.27-0.42l-0.99-0.85l1.84-0.28l-1.13-1.84l2.54-0.28l-2.26-0.57l0.57-1.69h-0.85l-0.14-0.85l0.28-1.13l1.13,0.99l3.11-1.98l2.83-4.66l3.81-2.97l0.42,0.28l-0.56,1.13l1.41-0.71v-2.26l3.11,1.27l4.24-1.41
					l6.78-6.21l2.4,0.42l1.27,2.54l-0.56,1.55h0.56l-1.41,3.11l-10.17,4.94l-0.57-0.85l-4.94,5.65h-1.98l-0.28,0.71l0.85,0.71l-1.13,1.98l-1.69-0.57l0.99,1.84l-1.98-0.99l0.42,1.13l-0.71,0.99l-1.41-1.41l1.13,2.82l-1.41,1.98l-1.27-2.12l-0.56,1.55l1.27,1.13
					L504.29,42l-2.26-0.71l1.55,1.7l-1.41-0.42l0.71,1.84l-0.99,1.55l-3.53-1.41l-2.26,0.57l2.12-2.68l-2.4,0.57l-0.71-1.27"/>
				<path d="M495.25,45.67l2.96-0.85l3.11,1.84l-1.69,1.69l1.27-0.28l-0.14,0.85l-1.55,0.85l0.85,0.28l-0.99,1.98v3.67l1.41,5.08l3.39,3.25l-1.69,0.71l0.99,0.28l-0.42,0.42l-0.99-1.55l-0.99,0.42l0.57,0.71l-2.26-0.85l-0.71,0.99l-0.99-1.13l0.56-0.28l-2.54-0.14
					l-0.28-1.55l1.41-0.42l-1.69-1.13l0.99-1.55l-1.27,1.27v-1.69l-3.95-0.28l-0.42-1.41l0.28-1.98l1.69,0.14l1.55-4.1l-0.42,0.42l-0.85-1.98l1.98-0.99l-0.56-0.28l0.42-0.28l-0.42-0.85l1.41-1.27"/>
				<path d="M483.96,72.36l1.13-0.42l2.54,2.68l-2.96,2.4l-1.55-0.85v0.85l-0.29-0.85l0.14-1.98l0.99-1.84"/>
				<path d="M776.67,58.38l1.84-0.28l3.25,2.26l-0.43,1.27l-2.82,1.13l-2.26-0.56l-2.4,0.99l-0.71-1.27l2.96-3.53h0.57"/>
				<path d="M689.55,38.61l-0.99-1.27l-0.99,1.13l0.14,1.69l0.71,0.56l1.13-2.12"/>
				<path d="M701.41,26.61l5.08,1.55l-0.85,1.13l6.49,1.27l-0.99,2.26l-3.39,0.85l-4.66-2.68l-1.69-4.38"/>
				<path d="M687.15,24.07l0.99,0.28L688,26.04l1.13,0.14l0.28-1.41l-0.28-2.26h1.69l1.98,2.68l-0.71,2.68l0.42,2.12l2.26,1.98l-2.4,0.85l-0.99-1.98l-4.38,2.4l-0.28-0.42l0.56-0.28l-0.71-1.55l-0.56,0.28l-0.14,0.99l0.42-0.14l-0.57,1.83l-2.96-0.99l-2.82-4.38
					l1.41-0.28l-1.13-1.98l1.55-1.84l-0.71-1.41l3.81-2.54l2.26,3.53"/>
				<path d="M678.11,26.61l-0.28,1.84l-0.71-0.71l0.28-3.81l0.99,2.12l-0.28,0.56"/>
				<path d="M678.53,39.32l0.56,0.85l-0.42,0.56l-1.41-2.82l1.27,1.41"/>
				<path d="M741.65,125.73l-1.55,0.85l0.28,0.14l-0.99,2.12l2.82-2.12l-0.56-0.99"/>
				<path d="M693.36,145.36l0.57,0.71l0.99,4.94l-0.42,1.98l0.28,2.68l2.26,7.63l0.99,2.12l-1.98-1.98l-1.69,0.42l-0.99,5.22l1.13,2.4l0.85,0.42l0.14,1.69l-0.14,0.57l-0.28-1.55l-1.7-0.42l-0.99,2.26l-0.43-0.28l-0.14-1.98l0.71-4.38l-0.71-2.26l0.71-4.38
					l-0.42-2.54l0.28-1.84l-0.99-1.69l-0.14-2.26l0.42-4.24l1.41,0.14l0.56-0.99l-0.99-2.12l0.71-0.28"/>
				<path d="M641.68,264.25l0.28,2.12l-1.69,1.27l-0.14,0.56l-1.84,1.69l-1.55,0.85l0.42-0.99l3.81-3.39l0.71-2.12"/>
				<path d="M645.07,276.54l0.28-0.42l0.7,0.28l-0.14,0.28l-0.85-0.14"/>
				<path d="M646.9,274.85h1.13l-0.71,0.42l-0.42-0.42"/>
				<path d="M654.95,267.93h0.42l1.27,1.27l0.28,0.85l-0.28,0.42l0.28,0.28l0.57,2.12l-0.71,2.54l-0.71-2.12l-0.99,0.99l-0.14,0.57l0.71,1.13l-0.56,1.13l-0.42-0.99l-0.85,0.42l-1.55-0.99l-0.42-1.55l0.42-0.99l-1.13-0.99l-0.71,0.99l-0.42-0.57l-0.71,0.85
					l-0.14-0.85h-0.42l-0.85,1.7h-0.57l-0.14-0.42l0.85-1.98l1.27-0.42l1.13-1.13l0.85,0.28l-0.14,1.27l0.99-0.42l0.28-0.71h0.71l0.42-0.99l1.55-0.14l-0.14-1.55"/>
				<path d="M651.42,267.64l0.85-0.71l0.85,0.14l-0.14,0.99l-1.27,0.14l-0.28-0.56"/>
				<path d="M651.85,264.54v1.83l-1.41,2.12v-0.85l1.41-3.11"/>
				<path d="M655.24,266.94l0.28-0.56v1.27l-0.28-0.71"/>
				<path d="M652.55,263.97l1.41,0.71l0.57,2.12h-0.42l-0.14,0.42l-0.42-0.56l-0.28-1.41l-0.42,0.14l-0.28-1.41"/>
				<path d="M649.44,265.38l0.42-0.28l0.85,0.28v0.28l-0.71,1.98v1.55l-0.28,0.28l-1.41-1.55l0.14-0.57l0.56-0.14l0.42-1.84"/>
				<path d="M647.19,263.13l1.13,0.56l1.41,0.14l-0.14,0.99l-2.26,1.55l-0.14-3.25"/>
				<path d="M652.55,261.57l1.98,0.14l0.56,0.56v1.41l0.56,1.27l-1.13-0.14l-1.98-3.25"/>
				<path d="M650.15,261.43l1.55,1.27l0.14,0.56l-1.13-0.84l-0.71,0.28l0.14-1.27"/>
				<path d="M647.33,261.71l0.28-0.28l-0.28,0.99v-0.71"/>
				<path d="M647.04,259.73l-0.14-0.42l0.57,0.14v0.56l-0.42-0.28"/>
				<path d="M647.04,255.92l0.28-0.14v0.85l-0.28-0.71"/>
				<path d="M647.89,248.02l-0.14,2.26l0.71,1.27l-0.85,1.84l-0.85,0.56l-0.71,1.27l0.42,2.12l0.85,1.13l0.57-0.14v-0.57l0.99-0.28l0.99,1.41l0.28-0.71l1.27,0.57l-0.56,0.42l0.56,0.71v0.42l0.57,0.28l-0.14,0.99l-0.42-0.57l0.28-0.14l-1.41-0.56l-1.41-1.7
					l-0.42-0.14l0.42,1.55l-1.69-1.55h-0.71l-0.57,0.57l-1.41-0.28l-0.14-0.85l0.57-1.13l-0.71-0.28l-0.14,0.85l-0.99-1.55l-0.7-2.54l1.27,0.14l0.56-5.51l0.28-0.28l2.12,0.71l0.7-0.14l0.14-0.43l0.42,0.28"/>
				<path d="M643.66,259.6l1.55-0.14l0.99,0.71V262l-0.57,0.28l-1.27-2.26l-0.7-0.42"/>
				<path d="M553.85,267.64l-0.28,0.14l0.71,0.57l-0.42,0.28l-0.57,2.83H553l0.28,2.96l0.85,1.7l1.27,0.14l2.26-1.69l0.14-1.83l-2.12-3.67l-1.27-1.27l-0.56-0.14"/>
				<path d="M621.63,244.06l0.85,0.14l0.28,0.85l-1.13,1.98l-1.69,1.41l-1.98-0.56l-0.42-1.98l1.98-1.55l2.12-0.28"/>
				<path d="M646.06,231.64l0.85,0.56v0.99l-2.26,6.5l-1.41-2.12l-0.28-1.83l1.98-3.53l1.13-0.56"/>
				<path d="M582.52,259.17l-0.85,3.81l0.28,0.71l0.57-4.52"/>
				<path d="M698.73,180.52l0.85-0.56l-0.57,1.41l0.42,1.27l1.13-0.14l-0.28,0.42l-4.09,1.41l-1.41,2.68l-2.97-1.83l-1.55,0.42l-1.55-0.28l-0.43,0.42l0.28,0.56l1.55,0.99l-2.4,1.13l0.14-1.69l-0.71-0.71l0.14-0.85l1.27-1.13v-1.13l1.84,0.28l0.28-0.71v-0.99
					l0.56-0.99l0.28-2.12l-0.28-1.69l0.42-0.57l3.53,3.67l2.54,1.13l0.99-0.42"/>
				<path d="M663.71,223.73l0.56-0.14l-0.56,0.71v-0.56"/>
				<path d="M660.18,228.53l0.85-0.85l-0.99,1.69l0.14-0.85"/>
				<path d="M651.14,233.61l0.28,0.28l-0.28,0.14v-0.42"/>
				<path d="M666.39,218.79l-0.14,0.42h0.42l-0.28-0.42"/>
				<path d="M667.1,209.61l-2.68,1.84l0.57,0.71v0.28l-0.42-0.42l0.14,1.13l1.13-0.14v-1.41l0.57,0.99l0.14,0.99l-0.71,1.13v1.69l0.71,0.42l0.14-1.41l0.28,0.14v1.55l1.13-0.99l1.55-3.67l-0.28-0.99l-0.56-0.14l0.14-0.99l-0.99,0.14l-0.85-0.85"/>
				<path d="M690.11,188.57h0.56l0.14,1.98l1.41,3.53l-1.27,3.39l-0.99,0.28v3.53l-0.85,1.83l0.28,1.69l-0.99,1.41l-0.99,0.71l0.43-1.98h-0.57l-0.42,1.27l-0.85-0.28l-0.71,1.69h-0.29v-1.13h-0.28l-1.13,1.27h-2.4l0.42-0.42h-0.85l-0.28-0.85l-0.57,1.13l0.71,0.57
					v0.56l-1.13,0.14l-1.41,1.84l-1.27-1.41l0.42-1.84l-2.26-0.14l-1.13,0.85l-3.11,0.28l-0.85,1.13l-2.54-0.28v-0.85l0.99-0.28l3.25-2.96l5.37-0.57v0.42l1.13,0.14l0.71-0.57v-1.27l1.13-1.27l0.57-1.84l0.71-0.42h0.42l-0.85,0.99l0.14,0.99l3.11-1.55l1.98-1.83
					l0.99-2.54l0.71-1.98v-0.56l-0.71-0.56l0.57-0.71v-1.27l0.99-1.7l0.71,1.13l0.85-0.28l0.28-0.99l-0.85,0.42l-0.14-0.57l0.14-0.42l0.57,0.14"/>
				<path d="M607.37,286.28l-0.28-0.28l-0.42,0.42l0.71-0.14"/>
				<path d="M587.88,277.1h1.13l1.41,0.71l2.68,0.28l1.7,2.26l2.4,1.55l2.68,2.68l0.56,0.28l0.43-0.28l0.71,0.99l1.41,0.71l0.42,0.56l0.14-0.28l0.71,0.56l1.13,0.14l-0.14,1.27l-0.14,0.28l0.99-0.42l0.56,0.42l0.28,0.57l-0.57,0.57l0.28,0.14l-0.42,0.85l0.14,0.42
					l1.83,0.57l0.42,1.7l0.85,0.42l-0.28,0.71l1.83,0.14l0.85,1.27l-0.42,6.21l-0.99-0.71l-0.57,0.56l-0.7-0.56l-0.28,0.14v0.71l-1.98-1.98l-2.83-1.98l-0.71-1.13l-2.68-2.83l-1.55-3.67l-1.13-1.41l-1.13-0.71l-0.99-3.11l-0.7-0.71l-1.7-0.71l-0.28-1.13l-1.13-1.41
					l-1.13-0.57l-2.4-2.26l-0.71-1.83"/>
				<path d="M660.6,284.59l0.14,2.12l-0.84,0.85l0.42,0.14l1.27-1.55l0.71,0.42v0.56l-0.85,0.71l1.13,1.13l-1.84-0.42l-0.14,0.14v1.41l0.71,1.41l-1.13-1.41l-0.85-3.11l0.42-1.41l0.85-0.99"/>
				<path d="M656.36,296.31l1.55-0.14l0.99,0.71l0.14,0.56l-0.99,0.71l-0.57-0.14l-0.85-0.7l-0.28-0.99"/>
				<path d="M652.69,293.2l1.98,0.28l-1.55,0.56l-0.42-0.85"/>
				<path d="M645.35,286.56l-0.71,0.28l-0.42,0.85l-0.71-0.14l-0.56,0.42l-0.71,1.7l0.14,1.13l-0.85,1.55v1.27l-0.99,1.83l0.28,1.84l0.99-0.14l0.42,1.41l-0.71,2.68l0.71,0.85l1.7-0.28l-0.14-4.8l-0.28-0.56l1.27-1.13l0.57,0.28l-0.28,1.41l0.28,0.56l1.13,1.13
					l0.14,1.55h0.57l0.7-0.71l1.27-0.42v-0.42l-0.42-0.14l-0.71-0.99l0.42-0.99l-2.4-3.11l0.71,0.14l1.41-0.56l1.13-1.41l1.27-0.14l-0.14-0.71l-0.56-0.14l-0.71,0.56l-1.55,0.14l-0.14,0.28l-0.85-0.14l-1.27,1.13h-0.85l-1.27-1.41l0.42-2.26l0.28-0.42l1.98-0.14
					l6.5,0.28l1.98-2.26l-0.28-0.71l-2.54,1.83h-2.26l-3.95-0.99"/>
				<path d="M632.36,304.64l0.71,0.14l-0.42,0.28l-0.28-0.42"/>
				<path d="M626.85,304.92l2.54-0.14l0.28,0.42l-1.27,0.28l-1.27-0.14l-0.28-0.43"/>
				<path d="M636.45,308.17l1.13,0.14l0.71,0.57l0.71-0.28l-0.85-0.56l0.28-0.57l0.57,0.57l0.71-0.14l0.28,0.56l0.56-0.56l0.57,0.99l-1.13,0.28l-0.42-0.28l-3.25,0.85l-0.56-0.99l0.71-0.57"/>
				<path d="M642.81,308.31l1.55-0.56l1.84,0.85l1.27-0.28l0.85,0.28l0.99-0.71v-0.56l0.28,0.71l-0.99,0.85l-3.24,0.56l-2.69-0.42l0.14-0.71"/>
				<path d="M654.25,310.43l-0.85,1.41l-1.69,0.71l-0.85-0.14l0.56-1.69l2.12-0.99l0.71-0.99l4.66-0.57l-0.14,0.71l-4.52,1.55"/>
				<path d="M660.6,297.3l-0.14-0.57l0.7-0.85l2.97-0.14l2.12,0.57l0.85,1.41l-0.14,0.42l-2.4-1.13l-1.13,0.14l-0.71-0.42l-0.85,0.57l-0.85-0.71l-0.42,0.71"/>
				<path d="M666.67,291.79l0.71-0.14v0.71l-0.42-0.14l-0.28-0.43"/>
				<path d="M666.11,289.81l0.57-0.14l1.27,0.57l-0.85,0.28l-0.99-0.71"/>
				<path d="M660.88,298v-0.42l0.56-0.28l-0.56,0.7"/>
				<path d="M634.62,296.87l0.28,1.27l-0.42,0.42l-0.14-1.13l0.28-0.56"/>
				<path d="M632.22,278.66l-0.57-0.42l-2.12,1.13l-0.42,0.99l-2.12,2.4l-2.68,0.42l-0.42,1.27h-0.57l-0.28,1.55l-2.26-0.42l-0.85-0.71l-1.13,1.13l-0.43,2.4l0.57,2.12l0.99,0.57l0.56,1.13l0.85,3.81l1.84,0.14l1.27-0.56l0.42,1.69l1.55-0.28l0.99-0.85l1.41,0.42
					l0.14,0.57l1.27-0.14l0.56,0.42l0.42,1.27h0.28l2.54-1.41l1.41-2.82l-0.85-0.99l1.83-1.41l0.85-1.41l0.28-1.98l0.99-0.99v-0.57l0.85,0.57l1.13-0.14l-2.26-2.26l0.28-0.85l-1.83-2.83l1.27-0.28l-0.85-0.85l0.42-0.28l0.28-0.28l0.7,0.28l1.13-0.42l-0.71-1.13h1.13
					l1.13-0.71l-2.12-1.13l-0.57,0.14v-0.71l-0.85,0.14v-1.13l-0.85-0.42l-0.28-0.71l-0.99,0.85v-0.85l-2.12,3.11l-0.71,0.14l0.14,0.71l-0.71,0.56z"/>
				<path d="M625.44,307.89l-0.99,0.14l-1.98-0.28l-2.4-1.13l-2.12-0.14l-0.57,0.28l-3.39-0.7l-1.27-0.57l0.28-0.42l-2.54-0.56l-0.28-0.42l0.85,0.14l0.85-1.41l0.42-0.14l1.41,0.28l1.13-0.28l0.28,0.57l1.7,0.14l1.41,1.27l3.25,0.28l0.71-0.99l0.57-0.28l0.56,0.71
					l0.71-0.28l2.26,0.71l1.13,1.69l3.1,0.28l-0.14,1.41l0.42,0.85l-3.11-1.13l-0.99,0.28l-1.27-0.28"/>
				<path d="M615.7,295.18l1.13,0.42l-0.14,0.85l-1.13-0.14l0.14-1.13"/>
				<path d="M610.05,293.77l0.56-0.71l0.71,0.28l0.42-0.56l0.85,2.12l0.85,0.14v1.13l-1.27-0.42l-0.7-1.41l-1.41-0.57"/>
				<path d="M608.21,290.66l0.28-0.42l0.14,0.57h-0.28l-0.14-0.14z"/>
				<path d="M608.78,286.99l-0.14,0.56l-0.42-0.71l0.56,0.14"/>
				<path d="M595.79,291.65h0.42l0.71,1.7l-0.99-0.56l-0.14-1.13"/>
				<path d="M603.13,285.86l0.85,0.14l0.14,0.42l-0.99-0.56"/>
				<path d="M797.57,91.42l0.14-0.56l-2.82-3.53l-3.25-0.28l-0.28,0.99l-0.28-0.71l0.42-0.56l-1.13-0.56l-0.14,0.71l-1.55-0.28l0.99,0.42l-0.14,1.98l0.85,0.56l-0.56,1.13l0.14-0.99l-1.69-1.41l-0.71-3.53l0.42-0.14l-1.27-1.69l-1.13-0.28l1.13,1.84l-2.4-1.55
					l0.85-0.85l-2.12-0.56l0.42-0.42l-0.14-0.56l-0.99-0.71l-1.56-0.14l-0.28-1.13l-1.27-0.56l-0.28-1.27l-1.69-0.85l-0.85-0.28l-3.53-3.11l-5.08-2.82l-6.35,0.14l-5.37-1.41l-0.85,0.28v1.84l-0.85,0.71l1.13,0.28l0.99,2.97l-1.91,1.59l-0.63,0.53l-0.67-0.53
					l-2.86-2.3l-0.28-2.26l-0.85-1.27l-2.12,1.84l-4.1-0.56l-2.12-1.41l-3.67,0.56l-2.54,1.98v-0.99l-3.53-1.69l0.85-2.68L731.91,66l-2.54-3.53l-9.18-0.28l-4.8,1.27l-1.7-1.13l1.27-1.41l-1.69-1.84l-1.98,0.28l-1.13-1.55l-2.68-0.42l0.99-1.55l1.27,0.28L709.18,54
					l-0.71-0.56l-18.64-4.52l-0.56,0.71l0.7,1.27l-3.11,3.95l0.28,1.27l-0.42,0.85l0.7,1.98l-1.27-0.42l-3.25,2.54l-5.36-3.39l-1.27,0.14l-0.42,1.98l-2.54-0.56l-2.12-3.95l-1.41,3.11l-0.14,2.54l-1.55,3.25l-0.85-1.55l-2.26-0.85l-1.84-4.24l-0.56,0.14l-0.28-1.83
					l1.84-1.98l-0.28-0.14l0.42-1.41l-0.85-1.55l0.56-2.97l-2.96-3.67l-2.54-0.56l-0.85,0.99l-6.21-3.39l-0.14,1.13l-0.99-0.42l-0.42,2.4l0.71,2.4l-0.56,0.71l-4.8,0.85l-5.65-1.84l-0.14-1.98l0.99-0.42l-7.2-1.69l-4.8,1.55l1.69,1.41l-1.97,0.85l-0.57-0.14
					l0.85-0.71l-0.71-0.14l0.28-2.26l-1.27-3.11l0.14,1.84l-0.85,0.85l-2.54-0.99l-0.28-1.13l0.42-0.56l-1.27,0.99l-1.69-0.99l-1.27,1.69l0.42,1.55l1.98-1.41l0.71,0.99l-2.68,1.84l-1.27-0.85l0.56,0.99l-0.42,0.42l-3.53,1.69l-2.68-0.28l-0.14,0.57v1.13l0.99,0.71
					l-1.55-0.71l-1.27,0.71l3.67-5.79l2.26,0.14l5.08-7.34l3.11-1.27v-1.13l1.27-0.42l-0.42-0.42l2.12-1.27l1.27-2.26l-0.28-1.41l0.28-0.56l-1.83-0.57l-0.99-2.12l2.12,2.12l0.99-1.98l-0.14-1.13h-0.57l-0.85-2.82l-0.71,1.41l-0.71-1.27l0.42-0.85l-3.67-3.95
					l-6.5-0.28l-1.84,2.82h-2.68l2.26-2.82l0.42-1.41l-0.14-0.85l-3.53-0.42l0.14-1.13l-3.25,1.83l3.95-3.81l-0.71-2.12l-3.67-1.69l-2.4,0.85l-3.81,5.51l-0.99,2.54l1.13,1.69l-0.56-0.14v1.13l-5.08,0.71l2.12,2.12l-0.28,2.12l-2.26-2.26l-2.26,1.69l0.28,0.99
					l-2.82,0.99l0.28-0.99l-0.57-0.28l-1.55,1.27l0.85-2.12l-0.71-0.42l-6.35,0.85v0.99l1.27-0.14l-0.14,0.99l-9.32,3.25l-2.68,3.25h-2.4l1.69,0.85l-1.27,0.56l-0.71,2.54l-1.98-1.55l-0.42,1.41l1.98,0.99l-1.69,1.55l1.83,0.99l0.57,1.55l-0.71,0.14l0.14,1.13
					l-12.57,2.26l-0.99,0.56l0.56,0.56l-1.13,1.13l0.57,0.42l-0.57,0.7l1.55,2.12l-0.42,1.41l0.28,1.98l3.11,1.55l0.14,0.56l-0.28,0.71l2.68,1.55l0.42,1.69l-0.85,2.54l0.99,3.95v1.98l-1.27,0.56l0.14,1.41l-2.12-1.41l0.28-2.96l-0.28-3.11l1.69-1.41l0.56-1.98
					l-3.95-0.42l-1.55-2.26l-3.39-2.26l-4.09,1.27l-0.14,0.85l1.55,0.56l-1.98,1.84l-0.85,0.14l-0.99-1.83l-0.85,0.56l0.71,2.26l2.68,1.98l0.85-0.71l1.13,2.97l-6.78-2.68l-0.43-0.56l0.71-0.28v-1.13l-0.71-2.68l0.99-1.98l-0.42-1.69l0.42-0.28l-1.27-2.4l-0.71,0.28
					l0.57,4.09l-3.67,3.11l-0.7,2.12l2.82,5.93l-1.55,5.37l0.71,2.54l-0.28,1.7l2.96,0.85l2.12-0.99l3.53,2.26l0.01,0.04l1.12,3.49l-1.27,0.85l-0.14,2.12l2.97,1.13l-2.54,0.28l-1.13-1.13l0.43-2.68l-0.43-0.57l0.28-1.27l-1.27-1.41l-0.42-1.55l-4.52,1.41L541,78.86
					l0.99,2.4l-0.14,1.83l-1.69,1.98l-0.99,2.68l-2.54,1.55l-0.14,1.84l-0.42,0.14l-4.38-0.71l-0.14-1.84l-0.57-0.57l1.55,0.42l3.25-1.41l-1.27-1.27l1.7,0.28l1.13-2.54l0.99-0.71v-2.54l0.71-1.69v-1.13l-2.12-2.54l0.42-5.22l-0.57-2.82l0.71-0.85l0.14-3.11
					l-0.42-2.26l-1.83-2.12l1.98-5.08l-0.14-3.81l-7.2-1.55L529,50.76l-1.13,5.79l-3.53,3.67l-0.28,1.55h0.85l-1.13,1.69l1.98,0.71l-0.56,2.68l0.28,1.41l-0.85,0.28l-0.14,2.68l2.82,0.71l-0.14,0.85l0.99,2.4l1.27,0.85l-1.84,3.95l-2.68-3.67l-6.5-4.52l-6.63-1.98
					l-1.84,1.41l1.41,3.11l-0.28,1.41l-2.12,1.27l0.14,1.41l-0.85,0.85l-0.99-0.71l0.71-1.69l-1.29-1.84l-3.37,2.97l-4.24-0.14l-1.69,2.4l-1.55-0.99l-0.28-1.55l0.42-1.27l-0.71-0.28l1.69-0.85l-2.54,0.56l-0.28,0.71l0.14,0.85l-0.56,0.14l-0.56-0.85l-0.85,0.99
					l0.42,0.28l-0.42,1.13l-0.71-0.99l-0.99,0.28l-8.05,5.22l-0.71,2.26v1.13l-2.4,1.98l-0.28-1.27l-1.27,0.14l-2.12-3.39l0.85-1.55l2.82-0.71l-0.56-2.12l-1.41-1.69l-5.51-1.27l1.98,2.12l-0.14,3.39l-0.57,2.54l1.55,1.98L473.79,91l0.14,2.26l-0.85-1.41l-0.85,0.42
					l0.42-1.13l-2.82-1.41l-1.98,2.54l-3.53,2.4l0.14,1.55l2.12,4.52l-5.23-1.69l-0.85,0.99l-0.14-0.85l0.57-0.28l-3.1-1.83l-0.85,1.41l0.28,0.99l1.41,1.84l1.27-0.42l0.85,2.82l-1.55,0.56l-2.97-1.27l-1.41-1.69l-2.12-0.42l0.56-0.85l-0.14-1.41l-1.13-2.4
					l0.85-0.57l0.14-2.4l-6.21-6.64l0.99-0.42l2.4,2.26l1.98,0.14l0.14,0.99l9.74,2.54l2.68-1.13l2.54-2.82l0.42-1.98l-0.56-0.42l-0.28-2.4l-2.4-2.68l-3.25-1.13l-5.79-5.51l-5.51-0.28l-0.42-1.13l-0.71,0.56l0.14-0.71l-2.12-0.85l0.28-1.13l1.7,0.99l0.42-0.99
					l-2.68-1.27l0.14,0.99l-0.42-0.14l-0.28,0.99l-1.62-0.92l-2.9,0.63l-1.86,0.61l-1,0.83l-0.33,0.83v1.33v1.33l1.5,0.33l1.5,1.17l-0.5,1l1,1l0.67,2.17l-0.5,0.83l-1.33,0.67l-0.67,1.67l0.67,1l1.33,0.5l0.5,2.17l0.67,1.33l0.83,1.5l-1.5,0.17l-0.33,1.33v2.17
					l0.83,1.5l0.5,0.67l0.17,5l0.33,1.67l1.17,0.83l0.83,1.17l-0.67,2l-1.33,1.83l-4.17,3.83l-1.17,2.17l0.17,2l0.83,0.67l-0.4,0.6v1.27l-0.42-0.42l0.28,0.99l2.82,0.71l0.99,0.99l-2.54-0.14l-1.84,1.41l-0.57-0.42l-0.14,1.27l0.14,0.76l-1.17,1.33l-0.17,2l1.17,1.5
					l0.33,3.33l0.83,2l3.67,1.5l1.5,2.33l-0.33,2.17l1.33,1.33l2,1.33l1.5,2.33l-0.33,1.17l-2,0.83l-0.5,2.5l0.83,1l1.17-0.83h2.17l1.83,1.67l-0.5,1.33l1.33,0.67h1.17l0.83,3.5l3.67,0.17l3,1.5l3.17,1l1,4.67l-1.5,2.17l-1.33,1.5l0.18,1.13l0.42,0.57l-1.98,0.71
					l0.14,0.42l-1.55,0.14l-0.14,0.42l1.69,1.41l-1.27,0.28l-1.13,1.98h-1.27l-0.42,0.57l1.55,1.69l0.57-0.14l2.54,1.55l3.39,3.11l2.26,1.27l0.85,2.26v0.99l0.5-0.2l2.5,0.5l1.83,1.67l1,2.5l1.17,1.83l-0.5,4.17l0.83,1.33l-3,0.17l-3,0.5l-1.33,1.5l-4.33-0.67
					l-6,0.5h-1.83l0.02,0.6l-0.56,0.56l-0.14,1.41v0.56l0.14,2.97l-2.26,4.24l-1.13,3.81l-0.61,0.81l-0.24,0.32l1.55,4.8l0.28,0.28l-0.56,2.97l1.13,0.14l4.09,6.5l0.85,2.68l0.85,0.14l1.27,1.13l1.55,3.39l-0.14,1.13l0.71,2.96l2.26,1.41l1.27,1.41l0.57,1.69
					l1.13,1.84l1.27,0.99l0.99,2.68l0.28,1.13l-0.42,1.41l0.56,0.57l0.85,4.23l0.57,1.13l3.11-0.14l1.98-1.41h2.26l2.26-1.27l2.12-0.28l0.71-0.99l1.13-0.56l5.93-1.98l0.28-1.41l1.41-0.99l2.54-0.85l1.7,0.14l1.41-1.98l1.84-0.42l0.85-1.84l2.26-0.71l-0.14-2.4
					l0.56-0.71l0.57-0.56l0.57,0.42l2.54-3.39l0.43-1.41l-1.27-0.85l-1.27-1.83l-3.95-1.55l-1.27-1.69l-0.14-1.84l0.29-1.55l-0.71,0.57l-3.67,3.81v0.42l-0.99,0.56l-2.97-0.28L492,234.6h-1.13l-0.28-0.56l-0.57-0.14v-0.85l0.28-2.97l-0.85-0.71l-0.85,1.69v1.7
					l-1.55-2.54l0.28-0.99l-0.42-1.27l-1.55-0.99l-0.14-0.85l-1.13-0.99l-0.99-1.69l-0.57-1.84l-0.71-0.14l1.13-0.85l-0.57-0.85l0.99,0.14l0.42-0.28l0.56-1.27l1.41,1.55l1.13-0.42l1.27,2.4l0.85,0.71l1.13,2.54l2.12,0.85l0.71,0.99l1.55,0.57l0.28,0.56l2.4,0.42
					l3.96-1.55l1.13,0.57l1.13,2.96l9.32,1.41l0.28,0.28l0.85-0.42l4.52-0.42l0.99,0.57l0.28-0.57l0.57,0.14l3.39-0.14l0.56,1.27l0.85,0.28l0.85,1.98l1.13,0.28l1.98,2.26h1.69l1.41-0.71l-0.14,1.13l-0.85,0.57L529,238.7l0.14,0.57l3.11,2.97h1.69l1.55-0.71
					l0.71-2.97l1.41,0.28l-0.85,0.85l0.71,3.39l-0.28,1.84l0.28,1.55h0.28l-0.14,1.55l0.99,4.38l0.85,1.69l0.28,0.71l0.42-0.14l0.14,1.27l1.7,3.11l0.71,2.96l1.41,1.83l2.12,5.65l1.55,1.98h0.71l0.85-0.85l0.28-1.27l1.7-0.56v-0.71l0.85-1.56h1.13l-0.14-2.96
					l1.13-3.53l-0.42-0.99l-0.14-3.81l0.57-0.99h1.27l0.85-1.27l1.98-0.56l0.56-1.13l3.96-3.11l1.83-2.26l2.97-1.55l1.55-1.7v-1.7l1.98-0.85l0.42-0.99l0.42,1.55l0.85-0.28v-0.42l0.28,0.56l0.28-0.14l1.55-0.57l0.14,0.28l0.71-0.71l0.57,0.57l0.71-0.99v-0.99
					l0.56-0.71l0.56,0.56h1.27l0.56,1.13l0.99,3.11l1.41,1.98l1.69,0.85l0.28,0.99l-0.42-0.28l-0.14,0.42l0.71,0.71l0.14-0.42l0.99,1.84l0.42,2.68l-0.7,2.68l0.7-0.28v0.56l1.69,0.28l2.96-2.12l0.14-1.7l0.42,1.27l1.83,0.85l0.28,3.53l0.85,3.11l0.28-0.28l0.57,1.84
					l0.14,1.98l-0.28,0.28l0.71,0.42l-0.71,3.25l0.42,0.28l-0.85,2.68v1.69l0.85-0.14l3.39,4.09l0.85,4.66l1.69,3.25l4.66,3.25l0.71-0.42l0.85,0.42l0.28-0.99l-1.84-2.97v-3.95l-0.99-1.41l-1.41-1.27h-0.42l-1.41-1.55l-1.41-0.14l-0.85-0.85l-1.55-4.23h-1.27
					l-0.28-2.26l1.69-4.38l0.14-2.82l0.42-0.28l1.55,0.14l0.14,1.98h2.12l1.7,1.27l0.56,0.99l0.57,1.69l0.99-0.42v1.13l1.98,0.14l1.27,0.99l-0.57,1.41l0.14,1.69l0.42,0.14l2.4-1.84l-0.28-1.13l0.99,0.85l-0.14-0.85l0.85-1.13h1.13l1.55-0.71l2.26-1.27l0.28-0.85
					v-1.69l0.42-0.85l-1.13-5.79l-0.99-0.85l-0.28-0.99l-1.27-0.42l-1.41-1.7l-1.41-1.41l-0.28-0.99l-1.27-1.13l-0.14-1.13l0.71-1.98l1.41-1.69l1.69-1.56l1.27-0.42l0.56-0.42l0.14,0.42l0.71-0.71l1.27,0.85l1.13-0.42v1.55l0.99,1.55l0.71-0.28l-0.56-1.27l0.56-1.13
					l5.51-1.27l0.43-1.69l0.99,0.85v-1.41l0.99,1.27l0.7-0.14l-0.14-0.42h0.14l0.42,0.28l0.28-0.28l0.28-0.42l0.14,0.28l0.85-0.56l0.57,0.42l2.12-0.7l1.27-1.41l1.13-0.28l0.28-0.42v0.28l0.99-0.99v-0.85l1.27-0.28l1.41-2.12l0.42,0.14l0.71-2.12l-0.42-0.85
					l0.71-0.42l0.14,0.71l2.54-4.24l0.57,0.14l0.57-1.98l-0.14-0.56l0.7-0.14v-0.42v-0.56l-0.7,0.28l1.13-0.99l-1.83-0.99l-2.12,0.43l3.81-2.12l-1.17-1.17l-0.53-0.53l-1.27-0.85l-0.99-0.14l0.99-0.14l2.97,0.85l-2.26-2.54l-1.55-4.38l-2.26-1.41l1.13-1.83
					l0.99-0.85l0.14-0.99l0.99,0.42l0.57-0.99l-0.14-0.56l1.84-0.28l0.57-0.71h0.56l0.28,0.56l0.71-1.55l-2.4-0.28l-1.55-0.99l-2.97,1.98l-1.13-0.42l-0.56-1.55l-1.55-0.85l-0.99-1.13l0.14-0.71l0.71-1.27l1.13,0.28l1.41-0.57l0.85-1.41l2.12-1.13l1.55-2.12
					l1.55-0.42l0.85,1.69l-2.12,2.68l0.99,0.57l-0.28,0.85l-0.99,0.71l0.28,0.14l4.66-2.96l2.26-0.42l0.56,0.99l1.84,0.14l-0.56,2.12l0.42,0.28l-0.85,0.56l-0.57,1.27l0.99-0.14l-0.28,0.42l0.43,0.71l0.71-0.28l0.14-0.56l1.98,0.71l0.71,2.54l-0.42-0.42l-1.27,0.56
					l0.42,0.85l0.43-0.56l0.57,2.26l-0.99,2.54l0.57,0.28l-0.14,0.56l-0.43-0.28l-0.14,0.85l1.41-0.28l0.99-0.71l-0.28,0.42l0.28,0.14l0.28-0.85l0.28,0.42l0.71-0.85l0.99,0.42l0.57-0.85l0.71,0.14l0.85-0.71l0.71-1.84l-0.71-3.95l-1.98-2.96l-1.98-1.84v-1.83
					l1.98-0.85l2.97-2.4v-1.98l2.12-2.4l0.28-0.14l-0.14-0.57h1.13l1.41-2.4l0.42,0.99l0.71-0.56v1.27l1.97,0.56l1.7-0.56l2.26-1.7l6.78-8.61l1.13-2.54l1.83-2.83l1.98-2.26l0.85-5.22l-0.42-2.4l0.71-2.54l1.41-2.68l-0.71-0.85l0.28-0.71l-0.28-1.13l-2.26-0.85
					l2.4,0.42l0.42-0.99l-2.26-1.7l-1.27-1.98l-2.4-0.14v1.98l-0.85,0.99l0.14-0.99l-0.56,0.42l-1.98,0.42l0.85-1.13l-0.71-0.85l0.71-0.85l-0.99,0.42v0.21v0.78l-0.99,0.71v-1.48v-1.76l-2.26,0.14l-1.13-0.71l0.14-0.71l5.37-4.8l3.39-4.52l2.54-2.12l0.99-2.12
					l3.25-3.39l1.98-1.13l5.23-0.28l1.27,1.13l0.85-1.27l2.4,0.85l1.84-0.56l0.56,0.71l0.56-0.14l-0.28-0.7l0.85-0.28l-0.14-0.85l0.42-0.28l3.67,1.27l1.13-0.56l1.69,1.27l-2.26,0.85l0.57,0.99l2.54-0.71l0.71,0.42l1.69-1.27l2.82,0.42l0.56-0.28l-0.14-0.71
					l-1.98-0.56l0.28-0.56l-0.28-0.99h0.42l0.99-2.12l2.54-2.12l2.83-4.24l3.95-1.13l1.84,1.13l1.27-1.27l-0.42,1.84l-0.71,1.13l0.28,0.85l-0.42,0.71l1.27-0.14l-0.57,1.98l4.94-4.8l0.99-0.42l0.57,0.85l0.42-0.71l-0.56-0.56l0.14-1.55l1.13-1.98l1.84-0.7l1.27,0.85
					l-0.14,0.42l-1.69,0.99l-0.28,2.54l-0.42,0.71v1.27l-0.56,0.71l0.28,0.99l-3.95,1.98l-0.28,1.13l-2.96,2.97l-4.66,6.21l-2.12,1.27l-1.27-0.14l0.42,1.27l-0.56,1.69l-1.98,1.69l-0.71,4.94l0.14,3.11l2.54,13.7l3.25-3.39l0.71-3.95l2.54-0.99l0.57,0.28l-0.14-3.25
					l2.26-2.12l1.41,0.28l1.13-0.85l-0.99-3.11l0.57-1.69l1.13-0.99l-0.28-0.71l1.41-0.71l-0.56,1.27l0.7,0.99l0.71-1.13l-0.14-1.41l-0.99-0.42l-0.14-1.84l1.13-2.54l-1.27-0.71l-0.99,0.85l-0.42-0.71l0.14-1.27l1.83-3.67h0.56l0.85-3.39l0.99-0.56l0.42,0.56
					l0.85-0.85l0.99,0.99l0.57-1.69l1.98-1.41l0.28,0.42l-0.14,2.68l1.7-2.68l2.68-0.99l2.68,0.56l2.12,2.54l0.43-2.26l3.53-2.12l-0.14-0.85l0.85,0.28l-0.14-0.71l1.83-0.99l0.71-1.55l0.85,0.42l2.54-1.55l0.14-0.85l4.66-1.84l-0.42-1.69l0.99,1.55l0.42-0.56
					l3.11,1.69l1.13-1.98l-1.13-1.41l0.85-0.14l-1.13-1.84l-0.14-0.71l-0.28-1.98l-0.85-0.28l0.56-0.28l-0.56-1.41l-0.43,0.56l-1.27-0.71l-0.28-1.84h1.84l0.71,0.85l2.82-2.26l0.42-0.42l1.55-2.4l-1.27-1.84l-0.14-1.41l1.27-0.14v-0.99h0.42l0.57,0.99l0.85-1.13
					v1.41l-0.99,0.14l1.13,2.82l4.38-0.28l1.27,0.85v2.26l1.27,1.27l0.99,0.28l-0.28-0.28l0.85-0.14l-0.28,0.28l1.41,0.71l0.28,1.13l0.71-0.42l0.28,0.71l0.57-1.27l-0.14,1.41l0.85,0.28l0.28-0.85l-0.42-0.28l1.69,0.28l-1.41-1.27l0.56-0.42l-0.85-0.14l2.26-1.41
					l-1.27-0.99h0.99l0.71-1.41l1.69,0.14l-0.56-0.99V93.4l1.7,1.27l0.14-1.69l1.98-0.99l-1.98-0.57z"/>
				<path d="M690.4,309.86l-2.97-2.4l-2.12,0.14l-0.14,0.42l-2.54,0.14l1.13-2.12l0.85-0.14l0.71,0.42l-0.42-0.71l0.42-0.14l-0.99-0.57l0.42-0.7l-1.41-2.68l-3.25-1.41l-3.39-0.71l-0.99-0.99l-0.7,0.14l-1.27-0.99v-1.41l-0.85,2.12l-1.13,0.28l-0.28-1.55l-0.99-0.85
					l-0.85-0.14v-0.28l1.55-0.14l1.13-0.57l0.99,0.14l0.28-0.14l0.28-0.99l-3.39,0.56l-0.71-0.28l-0.57-1.27l-1.98-0.42l0.71-1.13l2.54-1.13h1.13l1.13,0.85h1.41l0.42,1.13v2.54l0.57,0.85l0.14-0.56l0.28,0.14l0.56,1.27l0.71,0.42h0.85l1.83-2.54l1.41-0.14
					l0.57-0.85l1.27-0.85l3.96,1.98l3.25,0.57l0.42,14.68z"/>
				<path d="M667.8,306.76l0.71-1.41l0.43,0.14v0.85l-0.71,0.99l-0.42-0.57"/>
				<path d="M674.44,303.37l0.71,0.71l-0.42,0.84l-0.42-0.7l0.28,0.14l-0.14-0.99"/>
				<path d="M674.58,303.37v-0.42l0.71,0.57l0.14,0.56l-0.85-0.71"/>
				<path d="M674.72,302.38l0.42-0.85l0.42,0.14v1.98l-0.56-0.28v-0.85l-0.28-0.14"/>
				<path d="M672.04,301.53l0.42-0.14l-0.56,1.13l0.14-0.99"/>
			</g>
			<text transform="matrix(1 0 0 1 555.5923 152.5776)"><tspan x="0" y="0" style="fill:#000000;stroke:none;">Asia</tspan></text>
		</g>
		<g>
			<g>
				<path d="M680.09,374.53l1.69-0.56l1.7,0.84l-2.68,0.28h-0.57l-0.14-0.57"/>
				<path d="M629.68,339.09l0.14-0.28l0.14,1.84l0.85-1.55l1.98-0.71l0.99-1.27l1.83-1.13l2.12,0.28l2.4-0.99l0.85-0.71l0.99,0.14l3.11-0.99l1.27-0.99l0.7-1.55l1.13-1.13l-0.42-1.27l0.42-0.99l0.99-0.71l0.28-0.71l1.41,2.54l0.14-0.99h0.42l-0.56-1.13v-0.85
					l0.99-0.14l0.42,0.71l0.71,0.14l-0.28-0.57l0.56-1.13l-0.14-0.71l1.13-0.14l-0.14-0.99l0.7,0.28l-0.28-1.13l1.27-0.28v0.42l0.56-0.42v-1.27l0.28,0.57l1.69-0.85l1.55,0.71l1.27,1.27l-0.56,2.12l0.71-1.27l0.71-0.57h1.41l1.13,0.85l-0.14-0.56l0.28-0.28
					l-0.85-0.99l1.13-1.98l0.99-0.14v-0.56h-0.28l0.14-0.99l0.85-0.56l0.71,0.56l-0.14-0.71l0.42-0.42l2.26,0.14l1.13-0.56v-0.99l-1.41-0.71l-0.43-0.14l0.57-0.28l0.28,0.28l0.28-0.14l0.99,0.85l0.28-0.42l0.56,0.71l1.41,0.14l0.99,0.71l1.27-0.14l0.99,0.56
					l1.69-0.71l-0.28,0.42h0.42v0.99l0.99-1.41l0.28,0.85h0.71l-0.85,1.13l0.28,0.42l-0.28,0.42l-0.56-0.14l-0.14,0.71l-0.42-0.42l-0.28,1.13l0.43-0.14l-0.99,2.97l1.7,0.84l0.14,1.41l1.84-0.14l1.98,1.7l1.83,0.42l0.71,0.99l1.83,1.13l1.69-0.57l0.85-2.12
					l0.85-3.53l-0.28-3.25l0.56-2.4l-0.28-0.42l1.41-3.25l0.99-0.7l0.14,0.7l0.14,1.7l0.56,0.42v0.85l0.71,0.71l0.85,3.81l0.56,0.42l1.27-0.42l1.7,1.7l0.42,3.67l0.85,0.71l0.57,3.53l0.42,0.42l0.14,0.99l1.13,0.56h1.27l0.42,1.27l1.13,0.14l1.55,0.99l-0.28,0.85
					l0.71,0.43l0.99,1.55l0.42,2.4l0.56-0.14l0.28-0.85l1.13,1.13l0.28-0.42l0.42,2.68l3.25,2.82l1.69,2.82v3.39l0.99,3.95l-1.27,6.64l-1.13,2.82l-2.68,3.11l0.14,0.71l-1.27,3.67l-0.28-0.28l-0.85,1.83l-0.56,4.66l-1.41,0.85l-2.68,0.28l-2.96,2.26h-1.13v0.57
					l0.57-0.14l-0.28,0.85l-1.97-1.69l-0.28-0.85l-1.27,0.29l0.42-0.71l-0.42-0.71l-0.99,0.56l0.57,0.42l-2.82,1.7l-2.12-1.13l-1.41-0.43l-0.71,0.29l-2.4-1.27l-0.99-1.27l-0.56-1.27l0.14-1.13l-0.28-1.13l-0.99-1.27l0.28-0.85l-2.68,0.57l0.71-0.99v-1.27
					l-0.85-1.55l-0.85,2.54l-1.84,0.14l0.14-0.71l0.99-0.14l0.14-1.98l0.99-1.69l0.28-0.99l-0.57-1.7l-0.14,1.13l-1.13,2.12l-1.84,0.99l-0.99,1.41v1.13l-1.83-1.13v-0.42l0.71,0.42l-0.14-0.85l-1.41-2.97l-1.41-0.7l0.28-0.99l-1.98-1.13l0.14,0.28l-1.69-0.7
					l-0.71,0.28l-1.41-1.13l-1.69-0.28l-3.81,0.14l-2.54,1.27l-4.38,0.42l-4.52,2.12l-0.99,1.98l-8.05,0.28l-1.41,1.41l-1.13,0.14l-1.41,1.27h-0.71l-0.14,0.42l-3.95-0.71l-1.27-1.41l-0.99-0.28v-1.69h0.85l0.56-1.13v-3.95l-1.55-3.39l-0.28-2.82l-1.7-3.11
					l-0.56-2.26l-1.55-2.12l0.42,0.14l0.42,0.85l0.57-0.28l-0.28-1.13l0.42,0.85l0.56-0.85l-1.83-3.96v-1.13l0.85-1.41l-0.14-2.54l0.71-1.13"/>
				<path d="M705.93,387.52l0.42-0.28l0.28,0.42l-0.71-0.14"/>
				<path d="M679.8,320.31h0.71l0.28,0.99l-0.85,0.14l-0.14-1.13"/>
				<path d="M666.11,314.52l0.71,0.56l1.27-0.56l0.42,0.71l-1.13,0.85l-0.99-0.71l-0.28-0.85"/>
				<path d="M665.54,315.94l-0.14-0.42l0.42-0.57l0.71,0.85l-0.99,0.14"/>
				<path d="M686.86,326.38l0.42,0.28l-1.13,0.42l-0.14-0.28l0.85-0.42"/>
				<path d="M717.08,346.01l0.42,0.99l-0.56,1.13l0.14-2.12"/>
				<path d="M705.36,385.69l0.85,0.57l0.14,0.71l-0.42,0.14l-0.57-1.41"/>
				<path d="M698.44,388.23v1.69l1.69,3.11l-0.28,0.42l-0.42-0.85l0.42,1.84l0.99,1.41l0.85,0.28l-0.42,0.56l1.84,0.28l0.42-1.13l0.56,0.14l0.56-1.41l0.85-0.14l0.71-2.26l0.14-2.12l-0.56-1.41l-3.39,0.99l-3.95-1.41"/>
				<path d="M731.91,315.94l0.28-0.28l0.56,0.42l-0.85-0.14"/>
				<path d="M735.3,312.12l1.55,0.71l0.56,0.71l-1.13-0.14l-0.99-1.27"/>
				<path d="M731.2,310.15l1.69,0.14l1.27,1.13h-1.98l-0.99-0.7v-0.57"/>
				<path d="M733.74,308.17l1.98,2.68l-1.13-0.85l-0.85-1.83"/>
				<path d="M728.94,306.19l2.54,1.41l0.28,0.71l-2.26-1.27l-0.56-0.85"/>
				<path d="M726.12,307.74v-0.42l0.56-0.14l0.71,1.13l-1.27-0.56"/>
				<path d="M725.84,306.9l-0.14,0.56l-0.14-0.71l0.28,0.14"/>
				<path d="M724.43,304.22l2.26,1.41l-1.27-0.28l-0.99-1.13"/>
				<path d="M784.72,397.69l-0.57,0.99l-0.14-0.71l-0.42-0.14l1.13-0.14"/>
				<path d="M760.57,370.86l0.56,1.41l0.42-0.28l2.12,1.27l0.57,1.55h-0.57l1.27,1.55l-0.28,1.27l1.13,0.14l0.42,0.71v-1.84l0.71,0.43l0.56,2.54l2.4,0.99l2.12-1.27l0.99,0.43l-0.42,2.54l-0.71,0.28v1.27l-1.83,0.14l-0.71,0.85l0.42,0.99l-0.85,1.83l-2.54,3.25
					l-1.69-0.85l0.99-1.7v-1.55l-3.1-2.26l0.42-0.85l1.27-0.71l0.42-1.97l0.28-0.14v-1.97l-0.57-0.57l0.42-0.56l-0.71,0.14l-0.42-0.84v-1.41h-0.56l0.14,0.42l-1.27-1.69l-0.28-0.57l0.28-0.56l-0.42,0.42l-0.28-0.42l-1.13-2.26l0.42-0.14"/>
				<path d="M758.88,389.36l1.13-1.41l1.27,2.26l1.41-0.99h0.14l-0.14,0.99l0.42-0.85l0.42,0.28l-0.28,0.42l0.28,1.69l-1.98,3.11l-1.13,0.99l-0.14,1.41l0.71,0.85l-1.41-0.57l-1.55,1.13l-0.56-0.28l-1.69,6.21l-2.4,1.83l-1.41,0.42l-2.68-0.99l-0.28-0.71h-2.12
					l0.43-0.85l-0.57,0.57l0.14-0.57h-0.42l0.85-0.56l0.14-0.56l-0.42-0.28l0.28-0.57h0.7l-0.42-0.28l0.14-0.71l0.42-0.28l0.42,0.42v-0.71l1.55-2.26l1.98-0.57l4.09-3.25l1.13-2.97l1.13-0.85l0.42-1.55"/>
				<path d="M711.15,310.29l0.85,0.28l0.14,0.57l-0.85-0.14l-0.14-0.71"/>
				<path d="M720.47,301.53l0.57,0.14l2.12,2.12v0.71l-0.7,0.14l-0.71-0.42l-0.14-0.85l-0.99-0.99l-0.14-0.85"/>
				<path d="M706.21,301.81h3.25l0.85-1.13l-0.14,0.85l1.55,0.14l1.98-1.41l-0.14-1.27l1.27-0.14l0.42,0.57l-0.71,2.4h-0.85l-0.71,0.99l-1.41,0.56l-2.12,0.14l-0.56-0.42l-0.71,0.14l-1.41-0.71l-0.57-0.71"/>
				<path d="M705.08,301.81l0.57,0.14v0.42l-0.57-0.57"/>
				<path d="M716.66,298.28l0.42,0.85l-0.42,0.99h-0.28l-0.99-2.68l1.27,0.85z"/>
				<path d="M710.02,295.04l0.71-0.14l0.28,0.42l-0.57,0.14l-0.42-0.42"/>
				<path d="M771.59,328.64l0.57-0.14l0.57,0.42l0.28,1.41l-1.13,0.28l-1.7-0.57l0.14-0.84l1.27-0.57"/>
				<path d="M773.7,326.52l2.54-0.71l-0.99,1.13l0.56-0.43l0.14,0.71l-1.41-0.28l-0.99,0.71l-0.71-0.71l0.85-0.43"/>
				<path d="M787.26,337.4v0.42l-0.71-0.57l0.71,0.14"/>
				<path d="M746.31,322.43l0.42,1.13l0.71-0.42l0.28,1.13l-0.85,0.28l-0.56-2.12"/>
				<path d="M750.55,328.93l0.14,0.57h-0.57l0.42-0.57"/>
				<path d="M749.84,325.54l0.28,0.57l-0.71-0.14l0.42-0.42"/>
				<path d="M747.72,325.11l1.27,1.41h-0.71l-0.57-1.41"/>
				<path d="M743.2,338.1l-0.85-0.42l-1.41-1.69l-0.14-0.71l0.71,0.14l5.79,4.8l-0.43,0.42l-1.41-0.7l-2.26-1.84"/>
				<path d="M749.14,338.1h0.57v0.56l-0.57-0.56"/>
				<path d="M747.58,336.55l0.42,0.14l0.14,0.85l-0.56-0.28v-0.71"/>
				<path d="M792.48,319.61l0.71,0.14l0.28,0.71l-0.99-0.28l-0.56-0.56h0.56"/>
				<path d="M794.46,320.45l0.85,0.42h-1.27l-0.28-0.28l0.71-0.14"/>
				<path d="M690.4,309.86l3.53,0.28l1.27-0.85l-0.85-1.13l1.13-0.42l0.14-0.42l0.71-0.14l-0.14-0.85l0.71,0.28l0.7-0.42l3.96,1.69l0.99,1.7l0.71,0.14v0.42l1.83,1.69l4.8,0.85l0.85,0.57l0.71-0.43l-0.71-0.28l1.13-0.28l-2.26-0.71l0.43-0.42l-1.7-0.57l-0.14-0.99
					l-1.27-0.14l-1.41-1.98l-1.55-1.41l-0.56-1.27l1.83-0.28l-0.42-1.41l-3.96-1.41L700,299.7l-2.54-1.83l-7.48-2.68l0.42,14.68z"/>
			</g>
			<text transform="matrix(1 0 0 1 650.0952 354.0776)"><tspan x="0" y="0" style="fill:#000000;stroke:none;">Oceania</tspan></text>
		</g>
	</g>
</svg>
