<?xml version="1.0" encoding="iso-8859-1"?>
<!DOCTYPE svg >

<svg  width="801.576pt" height="452.928pt" viewBox="0 0 801.576 452.928" xml:space="preserve">
	<g id="Layer_x0020_1" style="fill-rule:nonzero;clip-rule:nonzero;fill:#FFFFFF;stroke:#000000;stroke-miterlimit:4; font-family:'Arial'; font-size:10;">
		<g>
			<g>
				<path d="M390.851,176.158l-4.275-19.638l-16.413,12.316l-24.624-4.104l-16.417-8.213v-16.416l-12.311-12.311l43.089-16.415l2.053,16.415h20.52v-24.621l-16.417-4.106l-12.312-20.521l-12.311-12.309l8.205-12.315h16.417l8.21-8.206l4.103-12.313l12.312-12.311
					L407.097,8.78h20.522l4.102-8.207l36.936,8.207v4.105l12.312,4.103l12.312-4.103l41.042,8.208l12.311-8.208l24.625,12.309l8.209,28.728l16.414,61.56l20.465,90.208l-8.692,3.937l-7.696-11.969h-8.549l-4.273-12.822l-36.769,8.548v-8.548h-20.518v4.274
					l-16.161,0.082l-29.156-8.637l-93.68-4.396z"/>
				<path d="M293.601,158.322l-0.234-2.021l-8.363-9.115l-8.917-3.309l-1.876-4.864l2.927-5.837l7.363,7.587l7.627,0.673l1.7,1.935l-0.029,3.282l4.402,5.396l7.807,3.602l-0.732,2.869l-5.897-2.016l-2.9,2.553l-2.877-0.733z"/>
			</g>
			<text transform="matrix(1 0 0 1 484.0972 101.0435)"><tspan x="0" y="0" style="fill:#000000;stroke:none;">997</tspan></text>
		</g>
		<path d="M0.809,357.619l4.103,8.207h8.209l-8.209-8.207H0.809z"/>
		<g>
			<g>
				<path d="M390.851,176.158l93.68,4.396l29.156,8.637l16.161-0.082v-4.274h20.518v8.548l36.769-8.548l4.273,12.822h8.549l7.696,11.969l8.692-3.937l8.268,41.12l24.622-8.209v8.209l14.204,8.127l-0.212,0.006l-5.132,10.258l0.226-0.077l-13.194-6h-16.411
					l-12.312-4.103l-24.625,8.21l-28.733-16.421l-24.619,4.105l4.104,8.208l-4.104,12.313l-12.312,4.105l-24.624,16.414l-4.104-4.104l8.207-8.209l-8.207,4.103l4.104-24.623l12.31-8.208v-8.207l-8.207,4.102l-36.937,53.354h12.312l-4.104,8.208l-36.937,41.042
					l-49.247,32.831l-24.624,12.304l-41.038,16.418l-8.208-4.104l8.208-8.208l20.519-4.105l20.519-16.407h12.313l12.312-16.42l32.833-24.62v-16.42l4.105-8.207l4.102-8.206l-24.624,12.312l-16.416-16.416l-16.414,8.208l-4.104-12.313l4.104-8.205l-8.21-12.311
					h-20.519l-16.417-16.419l4.104-8.208l-12.312-20.52l20.52-20.521l8.205-16.416l12.314,8.209l8.208-4.105l4.104-8.205l16.414-4.104l0.169-9.095z"/>
				<path d="M164.968,443.798l32.832,8.207l-4.104-4.104l-8.207-4.104h-20.521z"/>
				<path d="M278.81,429.078l-0.793-1.881l6.217-0.147l4.75-5.721l1.696,1.935l1.731-1.352l-2.813-1.638l-0.621-4.603l4.4-0.269l2.494,3.811l2.755-3.107l2.05,2.135l-3.984,5.226l1.322-0.646l0.236,2.022l-6.246,3.435l-13.194,0.801z"/>
				<path d="M254.507,435.189l7.765-10.091l5.103,0.141l0.936-3.224l6.918,0.259l-0.644,4.34l-20.078,8.575z"/>
				<path d="M87.675,417.806l2.053-2.053l1.749,0.987v2.352l-1.749,0.765l-1.457-0.548l-0.596-1.503z"/>
				<path d="M70.575,423.275l4.105,4.104l8.208,4.106l-8.208-8.211h-4.105z"/>
				<path d="M56.896,413.7L61,409.597l1.368-6.84l-5.472,6.84v4.104z"/>
				<path d="M130.768,438.327l4.106,4.103l5.471,1.368l-5.471-5.471h-4.106z"/>
				<path d="M143.081,442.43l1.368,5.472h12.312l-4.104-4.104l-9.576-1.368z"/>
				<path d="M487.201,317.471l-2.468-1.434l1.788-2.263l5.514-0.558l-0.529,2.521l2.638-1.29l0.53,3.132l0.762-0.493l0.591,2.225l-10.644,3.701l-3.606-3.514l1.786-2.262l3.639,0.234z"/>
				<path d="M462.258,339.242l-0.703-0.411l1.813,0.117l-0.028-2.376l2.757-3.107l4.456-1.176l1.259,0.26l-1.227,2.112l2.696,3.461l1.967,0.672l-0.417-4.954l1.319-0.646l-3.405-3.867l0.528-2.525l2.025-0.234l2.584,5.275l2.403-3.31l2.931-0.182l-1.291-2.636
					l3.987,0.432l1.027,3.906l3.869-3.407l1.351,7.39l4.197,0.087l-1.496,3.368l-8.27-1.991l-0.673,1.972l4.486,1.198l1.087,2.988l-2.521-0.527l-0.439-1.675l-3.957,1.945l1.759,1.024l-4.252,0.824l-3.514,3.609l0.322,3.487l-1.027,1.76l-4.514,2.084l1.905-4.074
					l-2.261-1.792l0.176-2.726l-3.023-1.287l0.647,1.316l0.619,4.609l-1.524,0.994l-2.613-1.992l-2.26-7.446l-2.757-2.55z"/>
			</g>
			<text transform="matrix(1 0 0 1 410.7939 240.6465)"><tspan x="0" y="0" style="fill:#000000;stroke:none;">995-996</tspan></text>
		</g>
		<g>
			<path d="M658.212,265.158l32.061,14.485l8.208,8.209l12.314,16.415l14.856,10.594l7.688-6.055l18.431-25.138l-16.353-12.232l-16.415-16.416l-8.207-8.211l-8.211-8.209l-8.207,4.107l-8.206,12.313l-8.211,8.21l-14.521-8.294l-0.212,0.006l-5.015,10.216z"/>
			<text transform="matrix(1 0 0 1 700.3882 276.5547)"><tspan x="0" y="0" style="fill:#000000;stroke:none;">998</tspan></text>
		</g>
		<g>
			<path d="M725.652,314.861l9.766,5.819l8.202,8.209l28.729,16.418l28.727-12.315v-16.413l-8.208-16.416l-12.312-4.105h-12.314l-16.472-12.389l-18.431,25.138l-7.688,6.055z"/>
			<text transform="matrix(1 0 0 1 763.6577 321.0137)"><tspan x="0" y="0" style="fill:#000000;stroke:none;">999</tspan></text>
		</g>
	</g>
</svg>
