<?xml version="1.0" encoding="iso-8859-1"?>
<!DOCTYPE svg >

<svg  width="674.285pt" height="600.718pt" viewBox="0 0 674.285 600.718" xml:space="preserve">
	<g id="Layer_x0020_1" style="fill-rule:nonzero;clip-rule:nonzero;fill:#FFFFFF;stroke:#000000;stroke-miterlimit:4; font-family:'Arial'; font-size:11.2477;">
		<g>
			<path d="M116.512,2.597L97.572,22.447l51.532,67.035l-22.736,41.135H94.54H71.806l-6.063-13.709l-47.762,13.198L9.054,68.762L7.839,57.792L0.569,0.514l73.962,1.825l26.072,0.606l15.909-0.348z"/>
			<text transform="matrix(0.9948 0 0 1 54.8926 72.7246)"><tspan x="0" y="0" style="fill:#000000;stroke:none;">727</tspan></text>
		</g>
		<g>
			<path d="M249.136,147.378l81.846-31.994l19.703,44.181l-1.514,15.236h13.64l21.22-6.094h39.405l12.128-6.093l6.061-3.048l3.033-21.329l42.437,3.044l-0.702,44.196l-2.328,73.119l-12.126,24.377l13.643,30.469l-3.032,79.223l-10.61,16.757l-4.546,16.763
				l4.154,9.956l-98.124-55.665h-27.283l-19.703,22.854h-43.458h-44.055l1.118-22.854l-9.092-10.663l-1.517-70.08l-37.892,0.487l1.517-30.959l48.5-47.229l7.578-74.653z"/>
			<text transform="matrix(0.9948 0 0 1 341.5142 287.7773)"><tspan x="0" y="0" style="fill:#000000;stroke:none;">720-721</tspan></text>
		</g>
		<g>
			<path d="M22.841,301.413L21.18,338.12l-0.606,53.939l90.638,5.172v30.474l78.815,15.237l8.56-1.619l6.597-1.432l4.546-15.231l28.798-6.095l0.396-15.237l1.118-22.854l-9.092-10.663l-1.517-70.08l-37.892,0.487l-83.36,1.032l-85.34,0.162z"/>
			<text transform="matrix(0.9948 0 0 1 142.0366 370.04)"><tspan x="0" y="0" style="fill:#000000;stroke:none;">719</tspan></text>
		</g>
		<g>
			<path d="M20.574,392.06l-0.608,42.349l-1.208,51.188l1.208,1.221l1.214,6.094l2.424,1.226l1.217,2.431l3.635,2.438l2.426,1.223l1.208,2.433l4.856-1.223l7.271,1.223l1.21-2.433l3.642-1.223l1.209,1.223h2.427l2.428-2.44v-2.44l3.636-1.211l1.213,1.211
				l4.847,3.658h1.213h3.635l4.853-1.218l1.211,1.218l2.427,2.433l1.214,46.324v45.091l29.1,2.439h41.225h4.849l27.891,0.514l3.031-78.214l25.768-24.377l-15.156-15.233l2.497-36.659l-8.56,1.619l-78.815-15.237v-30.474l-90.638-5.172z"/>
			<text transform="matrix(0.9948 0 0 1 116.2695 505.6387)"><tspan x="0" y="0" style="fill:#000000;stroke:none;">718</tspan></text>
		</g>
		<g>
			<path d="M238.924,403.328l-0.396,15.237l-28.798,6.095l-4.546,15.231l-6.465,1.456l-2.629,36.635l15.156,15.233l-25.768,24.377l-3.031,78.214l6.063-0.514l33.949,1.221h36.377l87.8,1.422l-38.388-46.824v-95.979l-25.27-51.804h-44.055z"/>
			<text transform="matrix(0.9948 0 0 1 240.5557 517.8281)"><tspan x="0" y="0" style="fill:#000000;stroke:none;">717</tspan></text>
		</g>
		<g>
			<path d="M282.855,403.328h43.581l19.703-22.854h27.283l98.124,55.665l11.985,6.36l-0.379,16.285l-9.699,9.755l9.699,9.745l-7.277,4.875l-12.123-8.526l-2.424,2.432l8.485,15.846l-9.698,12.188l2.422,2.436l12.124,28.037l-4.848,8.529l4.848,10.976l10.919-3.663
				l-6.063,18.282l-12.126,4.874l4.849,15.849l-6.062,9.751l-14.554-2.436h-21.216l-83.773,0.202l-38.388-46.824v-95.979l-25.393-51.804z"/>
			<text transform="matrix(0.9948 0 0 1 379.9961 507.1572)"><tspan x="0" y="0" style="fill:#000000;stroke:none;">716</tspan></text>
		</g>
		<g>
			<path d="M621.984,86.063l7.883-0.234h33.95l9.702,13.402l-10.918,4.88l1.216,12.189l-27.887,15.842l-1.215,8.534l9.698,4.875l-4.85,13.409l-1.212,7.308l-9.701,3.659l-3.63,13.41l-9.704,1.213l-2.421-7.309l-7.281,6.096l-4.849,8.529l2.421,3.659l8.494-4.883
				l2.417,4.883l-1.202,10.968l6.059,26.809l-9.704,9.755h-9.695l-10.915,14.623l3.639,13.407l-13.343,9.755l-8.479,4.871l-6.066,13.408l-9.702-1.22v4.874l9.702,9.75l-2.427,3.658l-7.275-4.873l-6.063,6.093l6.063,17.063l-4.851,3.654l-1.212,18.283l-21.821,6.096
				l1.213,12.187l-21.829,10.969l-2.422,6.095l10.913,3.659v6.096l-18.192-2.441l2.425,7.313l-6.063,25.599l-9.698-7.313l0.379,17.84l-11.985-6.36l-4.154-9.956l4.546-16.763l10.61-16.757l3.032-79.223l-13.643-30.469l12.126-24.377l2.328-73.119l55.269-0.012
				h18.186v-18.283l27.284-27.42l24.249-3.048l1.518-13.713l12.125-9.142l-3.037-28.179v0.382z"/>
			<text transform="matrix(0.9948 0 0 1 528.5293 269.4941)"><tspan x="0" y="0" style="fill:#000000;stroke:none;">723</tspan></text>
		</g>
		<g>
			<path d="M94.54,130.618h31.829h24.25v6.096l78.814,1.522l1.517,9.142h18.186l-7.578,74.653l-48.5,47.229l-1.517,30.959l-83.36,1.032v-12.188l-7.578-6.091l18.188-53.326L94.54,176.324l12.125-10.664l-13.64-10.663l1.514-24.379z"/>
			<text transform="matrix(0.9948 0 0 1 163.2539 213.1201)"><tspan x="0" y="0" style="fill:#000000;stroke:none;">728</tspan></text>
		</g>
		<g>
			<path d="M17.981,130.106l1.984,16.664l4.855,36.566l1.204,7.305l-2.421,70.699l-0.763,40.072l85.34-0.162v-12.188l-7.578-6.091l18.188-53.326L94.54,176.324l12.125-10.664l-13.64-10.663l1.514-24.379H71.806l-6.063-13.709l-47.762,13.198z"/>
			<text transform="matrix(0.9948 0 0 1 57.1611 231.4043)"><tspan x="0" y="0" style="fill:#000000;stroke:none;">729</tspan></text>
		</g>
		<g>
			<path d="M433.135,1.535l37.893,0.19h47.287h30.313l47.284-1.211l10.917,6.091l2.423,10.969l7.276,3.654l-2.429,18.281l-13.332,13.411l-26.676,32.909l12.127,1.217l35.767-0.983v-0.382l3.037,28.179l-12.125,9.142l-1.518,13.713l-24.249,3.048l-27.284,27.42
				v18.283H541.66l-55.269,0.012l0.702-44.196l-42.437-3.044l19.699-25.899l-4.545-4.572l-27.279-12.188l10.608-12.189L433.135,1.535z"/>
			<text transform="matrix(0.9948 0 0 1 507.3076 82.0981)"><tspan x="0" y="0" style="fill:#000000;stroke:none;">724</tspan></text>
		</g>
		<g>
			<path d="M335.163,2.866l64.325-1.141l28.498,0.613l5.149-0.804l10.006,81.852l-10.608,12.189l27.279,12.188l4.545,4.572l-19.699,25.899l-3.033,21.329l-6.061,3.048l-12.128,6.093H384.03l-21.22,6.094h-13.64l1.514-15.236l-19.703-44.181l4.181-112.518z"/>
			<text transform="matrix(0.9948 0 0 1 376.9629 82.0981)"><tspan x="0" y="0" style="fill:#000000;stroke:none;">725</tspan></text>
		</g>
		<g>
			<path d="M116.512,2.597L139.4,2.945l35.771-1.219l3.228,1.219l62.248-1.219l10.307,0.613l29.706-0.613l54.503,1.141l-4.181,112.518l-81.846,31.994H230.95l-1.517-9.142l-78.814-1.522v-6.096h-24.25l22.736-41.135L97.572,22.447l18.939-19.851z"/>
			<text transform="matrix(0.9948 0 0 1 222.3682 74.481)"><tspan x="0" y="0" style="fill:#000000;stroke:none;">726</tspan></text>
		</g>
	</g>
</svg>
