<?xml version="1.0" encoding="iso-8859-1"?>
<!DOCTYPE svg >

<svg  width="665.075pt" height="601.056pt" viewBox="0 0 665.075 601.056" xml:space="preserve">
	<g id="Layer_x0020_1" style="fill-rule:nonzero;clip-rule:nonzero;stroke:#000000;stroke-miterlimit:4; font-family:'Arial'; font-size:10;">
		<g>
			<path style="fill:#FFFFFF;" d="M421.208,245.173l41.511,1.871l2.508,66.764l1.223,20.819l-23.292,21.433l3.725,25.155h-48.451v-23.292l-68.072-5.01l7.694-8.779l3.729-12.671l5.211-6.709l2.989-16.4l1.486-8.197l-2.235-10.439l14.908-8.944v-12.67l5.961-0.745
				l5.22-5.968l6.709,1.493l7.454-8.945l8.945-11.925l9.689-5.964l-1.493,5.964l-3.726,1.489l2.237,9.692l-5.221,19.378l1.493,7.455l5.966-17.89l5.214-2.979l-1.49,4.469l0.746,7.458l-5.22,11.924l5.22-2.982l4.473-8.197l2.982-5.965l2.235-14.908l-0.329-5.785z"/>
			<text transform="matrix(1 0 0 1 400.3374 324.1191)"><tspan x="0" y="0" style="stroke:none;">496</tspan></text>
		</g>
		<g>
			<path style="fill:#FFFFFF;" d="M445.017,490.228l20.499-5.586l0.934,35.406v59.63l-13.978,14.013l-17.515,0.897H427.5h-30.56l-7.454,0.745l-25.344-0.745l-14.908,0.745h-23.11l-25.34-0.745l14.907-10.435l23.106-38.76l8.195-17.89l1.593-7.488l20.029,0.959
				l6.523-14.904h33.541l2.798-14.906l33.539-0.937z"/>
			<text transform="matrix(1 0 0 1 387.5347 557.9883)"><tspan x="0" y="0" style="stroke:none;">490-491</tspan></text>
		</g>
		<g>
			<path style="fill:#FFFFFF;" d="M466.45,520.048v59.63l-13.978,14.013l13.79,0.15l2.986,6.708l33.54-0.743h2.232l40.251-2.237l9.693,0.744l10.555-20.477l-11.485-15.86l-29.819,0.933l-0.928-45.658l-56.838,2.798z"/>
			<text transform="matrix(1 0 0 1 488.855 570.1006)"><tspan x="0" y="0" style="stroke:none;">492</tspan></text>
		</g>
		<g>
			<path style="fill:#FFFFFF;" d="M523.288,517.25l0.928,45.658l29.819-0.933l11.485,15.86l-10.555,20.477l26.832-2.233l10.438-20.125l6.707-2.981l5.966-7.458l-1.49-8.196l3.145-12.776l-28.302-24.494l-23.295-17.705l-20.497,14.907h-11.181z"/>
			<text transform="matrix(1 0 0 1 558.7378 552.3975)"><tspan x="0" y="0" style="stroke:none;">481</tspan></text>
		</g>
		<g style="stroke:none;">
			<path style="fill:#FFFFFF;stroke:#000000;" d="M554.965,502.343l23.295,17.705l28.302,24.494l2.07-5.858l19.383-10.438l1.493-6.706l4.465-18.636l7.454-2.983h15.654l2.983-26.087l4.472-8.2l-3.758-12.835l-35,1.093l-7.454,23.297h-27.95l-1.868,15.838
				l-33.541,9.317z"/>
			<text transform="matrix(1 0 0 1 601.5952 502.082)"><tspan x="0" y="0">480</tspan><tspan x="0" y="12">483</tspan></text>
		</g>
		<g>
			<path style="fill:#FFFFFF;" d="M609.937,358.852v78.27l-25.154,3.729l-35.41-6.525l-10.247,17.706l13.977,24.225l-18.634,2.792l4.657,22.365l15.84,0.93l33.541-9.317l1.868-15.838h27.95l7.454-23.297l35-1.093l-0.714-5.8l-2.983-23.853l-5.214-16.403
				l-0.744-12.669l-0.749-12.67l-11.928-20.871l-19.38-5.22l-9.231,3.766l0.102-0.227z"/>
			<text transform="matrix(1 0 0 1 579.2397 468.5371)"><tspan x="0" y="0" style="stroke:none;">484</tspan></text>
		</g>
		<g>
			<path style="fill:#FFFFFF;" d="M446.882,381.215h36.337v38.202l39.136,31.683l16.771,0.932l13.977,24.225l-18.634,2.792l4.657,22.365l15.84,0.93l-20.497,14.907h-11.181l-56.838,2.798l-0.934-35.406l-20.499,5.586l2.798-32.607l-21.433,6.52l-0.931-48.449
				l25.158-9.318l-3.728-25.157z"/>
			<text transform="matrix(1 0 0 1 487.9233 477.8564)"><tspan x="0" y="0" style="stroke:none;">488</tspan></text>
		</g>
		<g>
			<path style="fill:#FFFFFF;" d="M330.359,352.913l68.072,5.01v23.292h48.451l3.728,25.157l-25.158,9.318l0.931,48.449l21.433-6.52l-2.798,32.607l-33.539,0.937l-2.798,14.906h-33.541l-6.523,14.904l-20.029-0.959l2.137-17.112l2.984,1.489l1.488-2.234
				l-3.726-3.728l1.493-8.203l-4.472-35.775l-16.401-36.523l-6.708-20.125l8.201-10.436v-5.965l-1.492-13.417l-5.964-9.694l4.235-5.379z"/>
			<text transform="matrix(1 0 0 1 364.2407 437.7891)"><tspan x="0" y="0" style="stroke:none;">493-494</tspan></text>
		</g>
		<g>
			<path style="fill:#FFFFFF;" d="M465.227,313.808l114.336-54.649l8.198,12.672l6.708,14.907l-2.979,20.87l-2.238,17.89l-7.455,8.201l-6.711,0.745l-4.47,10.435l-1.489,9.69l-7.454,6.709l-13.422,0.746l-5.958,9.689l-3.729,13.414l8.198,14.166l13.42,5.962
				l14.158-14.161l5.222-1.491l4.472-9.689l14.907-16.4l10.894-4.435l0.102-0.227v78.27l-25.154,3.729l-35.41-6.525l-10.247,17.706l-16.771-0.932l-39.136-31.683v-38.202h-36.337l-3.725-25.155l23.292-21.433l-1.223-20.819z"/>
			<text transform="matrix(1 0 0 1 492.8267 364.1816)"><tspan x="0" y="0" style="stroke:none;">486-487</tspan></text>
		</g>
		<g>
			<path style="fill:#FFFFFF;" d="M421.208,245.173l41.511,1.871l2.508,66.764l114.336-54.649l2.979-8.201l11.182,2.98l-1.489-10.436l-8.2-8.2l-0.745-8.197l-8.203-7.452l-31.301-12.673l-17.894-2.982l-5.214-10.435l-6.711-2.983l-10.435-0.745l-15.655-7.453
				l-14.905-7.455l-7.456,5.962l-8.199-2.235l-4.472,2.235l3.728,4.473l-13.415,11.182l2.979,13.415l9.69,8.201h-12.67l-20.876,9.687l-2.234,8.201l1.161,9.125z"/>
			<text transform="matrix(1 0 0 1 500.9683 248.646)"><tspan x="0" y="0" style="stroke:none;">497</tspan></text>
		</g>
		<g>
			<path style="fill:#FFFFFF;" d="M415.232,144.289l9.291,0.824l17.884,3.724l10.438,2.981l5.962,8.202l6.709,1.488l1.491,4.474l6.704,2.981l2.241-2.236l-0.746-3.724l2.981-11.929l11.179,0.745l3.728,3.729l8.203-2.982l3.724,2.982l26.837,2.235h5.215l4.474-2.235
				v-2.239l-9.688-4.471l-1.493-7.452l-5.215-2.984l-11.183-4.471l3.728-5.218l-2.241-12.675l-4.472-8.197l-6.708-2.235l-17.887,4.473l-1.493-3.728l-7.452-2.234l-11.18,3.725l-14.166-2.982l-4.469-5.218l0.744-11.924l6.704-14.163l-15.648,1.486l-8.199,0.748
				l-16.398,6.71l0.402,61.792z"/>
			<text transform="matrix(1 0 0 1 458.1069 134.9707)"><tspan x="0" y="0" style="stroke:none;">497</tspan></text>
		</g>
		<g>
			<path style="fill:#FFFFFF;" d="M414.83,82.497l-16.398-0.745l-11.182,1.487l-8.946-0.742l-3.725-0.745l-8.948,2.234l-9.689,0.747l-27.579,13.416l-14.907,12.673l-2.238-3.726l-7.452-2.239l-8.2,2.982l-12.67-9.69l-8.947,2.238h-2.232l-2.241,2.233l-14.907-0.744
				l-2.235-7.457l-5.218-5.96l-3.729-0.745l-2.978-6.708l-3.729-2.24l-0.746-7.454l-5.961-3.727l-21.616-7.454h-11.18l-9.696,0.747l-5.214,6.707l-2.983-0.745l5.962-7.452l4.476-3.727l-2.24-1.491l-11.927,8.946l-4.468,0.742v3.728l-5.22,5.966l-3.725,0.746
				l4.473-17.892l-1.491-5.964l3.723,1.492l2.985-9.691l5.216-1.49l4.476-4.472l2.981-6.709l5.96-3.726l14.167-9.692l1.488-5.215l18.632-3.728l-2.231-5.219l-13.42-1.491l-19.377,1.491l-4.476,1.492l-15.652,6.707l-8.2,9.69l-7.452,6.709h-6.707l-7.456,7.452
				l-5.22,0.747l-2.235,3.728l-5.962,2.237l-2.985,8.196l-6.708,1.493l-11.18,1.492l-7.452,8.944l-11.929,5.219l-10.437-0.746l-4.472,2.234L52.563,69.08l-7.455,5.959L29.456,86.222l-17.891,4.475L1.131,96.66l17.888,7.455l5.965,15.649l16.396,4.473l48.455,12.675
				l18.632,2.979l10.44,3.724l5.216,2.986l5.964,3.724l10.436,0.748l3.724,2.234l11.931-0.743l35.032,8.943l2.236,4.474l-3.726,3.728l2.233,5.217l5.222,2.235l3.726-1.491l14.161,7.451l2.98,3.728l-2.232,2.985l2.232,4.47l-2.232,5.219l0.74,7.457l-5.96,11.924
				l2.236,2.984l14.164-2.984l1.486,2.984l-0.745,5.218l-4.47,5.962v6.71l12.67,8.201l0.746-6.71l17.889-22.364l8.947-17.889l2.232-4.47l8.948-11.93l2.981-0.742l0.743-8.945l9.69-11.924l1.496,0.745l-2.985,8.195l0.744,13.42l9.691-2.98l6.709-8.948v-5.961
				l11.18,2.981l5.221-6.708l2.979,2.979l-3.728,9.687l-5.962,1.494l-1.49,6.707l-2.979,1.494l-0.748,3.726l8.201,3.728l0.743-5.22l2.985-3.728l4.469-1.493l3.728-3.723l5.964-3.728h4.473l2.236-5.216l1.491-7.452l4.468-3.729l12.676-2.239l7.453,0.748l7.456,2.238
				l3.725-2.985l17.888-0.742l14.166-11.928l4.875-0.076l-0.402-61.792z"/>
			<text transform="matrix(1 0 0 1 203.98 136.8335)"><tspan x="0" y="0" style="stroke:none;">498-499</tspan></text>
		</g>
	</g>
</svg>
