<?xml version="1.0" encoding="iso-8859-1"?>
<!DOCTYPE svg >

<svg  width="632.735pt" height="601.537pt" viewBox="0 0 632.735 601.537" xml:space="preserve">
	<g id="Layer_x0020_1" style="fill-rule:nonzero;clip-rule:nonzero;stroke:#000000;stroke-miterlimit:4; font-family:'Arial'; font-size:10;">
		<g>
			<path style="fill:#FFFFFF;" d="M336.737,328.123l65.822,3.074l-0.423,6.034l-34.979,18.948l-3.642,10.202l-5.829,5.1l-4.373,10.204l-0.729,5.099l10.932,2.187l9.471,13.118l-8.013,13.843l-0.731,8.746l-1.455,14.574l2.187,20.401l-3.643,11.66l5.826,5.103
				l5.103,1.453l11.657,10.932l13.849,2.919l2.184,1.452l6.56,8.749l8.736,2.177l-63.024,14.401l-8.197,25.505l-7.287,5.465l-30.971-14.575l-9.109-42.811l-12.214-3.747l17.625-14.528l14.631-11.783l2.732-21.862l7.286-9.108l-9.108-18.219l-9.11-20.038
				l-0.782-16.513l10.801-4.439l12.754-11.842l-13.664-9.105l16.395-2.736l2.733-20.038z"/>
			<text transform="matrix(1 0 0 1 328.3945 500.0229)"><tspan x="0" y="0" style="stroke:none;">550</tspan></text>
		</g>
		<g style="stroke:none;">
			<path style="fill:#FFFFFF;stroke:#000000;" d="M210.071,414.422l7.339-1.588l90.306-36.551l0.782,16.513l9.11,20.038l9.108,18.219l-7.286,9.108l-2.732,21.862l-14.631,11.783l-17.625,14.528l-7.822-2.631l-15.487,10.93l-50.096,10.931l-8.511,2.102
				l-10.618-14.853l10.929-12.75l-10.019-20.952l28.236-12.752l-10.983-33.938z"/>
			<text transform="matrix(1 0 0 1 264.6343 439.9048)"><tspan x="0" y="0">553</tspan><tspan x="0" y="12">555</tspan></text>
		</g>
		<g>
			<path style="fill:#FFFFFF;" d="M415.245,504.097l-63.024,14.401l-8.197,25.505l-7.287,5.465l0.911,21.859l10.932,5.464l-9.109,5.468l3.882,16.416l39.11-0.572l8.017,0.733h30.604l28.416-0.733h10.207l30.604,1.461l-2.188-5.826l0.733-8.746l-2.188-5.829
				l1.455-3.646l0.733-8.015l-3.645-4.372l-12.389-14.576l-8.748-4.371l-23.313-15.305l-8.749-18.216l-13.114-5.097l-3.651-1.468z"/>
			<text transform="matrix(1 0 0 1 406.7285 565.605)"><tspan x="0" y="0" style="stroke:none;">559</tspan></text>
		</g>
		<g>
			<path style="fill:#FFFFFF;" d="M170.025,515.968l32.5-6.302l8.511-2.102l50.096-10.931l15.487-10.93l7.822,2.631l12.214,3.747l9.109,42.811l30.971,14.575l0.911,21.859l10.932,5.464l-9.109,5.468l3.882,16.416l-37.403-0.572h-12.39l-26.233,0.733h-23.316
				l-16.034,0.728l-15.117-34.61l-12.752-18.219l-34.614-4.555l-18.217-12.754l20.95-1.821l1.8-11.637z"/>
			<text transform="matrix(1 0 0 1 264.6343 560.1431)"><tspan x="0" y="0" style="stroke:none;">560</tspan></text>
		</g>
		<g>
			<path style="fill:#FFFFFF;" d="M66.931,483.704l34.8,17.489l30.059,10.017l19.127,6.375l19.108-1.616l-1.8,11.637l-20.95,1.821l18.217,12.754l34.614,4.555l12.752,18.219l15.117,34.61h-33.522h-3.644h-38.617l-6.557-0.728l-32.063,0.728l-14.574,0.731
				l-31.338,0.729l-0.73-37.168v-35.701v-0.732v-34.252v-9.468z"/>
			<text transform="matrix(1 0 0 1 120.7153 567.4282)"><tspan x="0" y="0" style="stroke:none;">561</tspan></text>
		</g>
		<g>
			<path style="fill:#FFFFFF;" d="M56.731,357.637l25.869,0.547l41.903,30.059l39.167,20.952l39.167-2.734l0.912,9.106l6.323-1.145l10.983,33.938l-28.236,12.752l10.019,20.952l-10.929,12.75l10.618,14.853l-32.5,6.302l-19.108,1.616l-19.127-6.375l-30.059-10.017
				l-34.8-17.489l-0.725-17.49v-17.491v-29.147v-5.829L46.53,402.088l-11.66-15.305v-7.288l13.842-10.203l8.019-11.655z"/>
			<text transform="matrix(1 0 0 1 122.5376 456.3032)"><tspan x="0" y="0" style="stroke:none;">562</tspan></text>
		</g>
		<g>
			<path style="fill:#FFFFFF;" d="M82.6,358.184l41.903,30.059l39.167,20.952l39.167-2.734l0.912,9.106l6.323-1.145l7.339-1.588l90.306-36.551l10.801-4.439l12.754-11.842l-13.664-9.105l-61.939-10.021l-69.227,1.822l-22.772-17.306l-48.276,3.641l-7.288,29.15H82.6
				z"/>
			<text transform="matrix(1 0 0 1 191.7637 377.9653)"><tspan x="0" y="0" style="stroke:none;">563</tspan></text>
		</g>
		<g>
			<path style="fill:#FFFFFF;" d="M172.777,219.73l24.842-13.897l56.306,23.689l-7.218,10.88l27.179,13.942l18.217,4.554l29.149,20.948l15.484,48.277l-2.733,20.038l-16.395,2.736l-61.939-10.021l-69.227,1.822l-22.772-17.306l8.198-17.311l0.909-88.353z"/>
			<text transform="matrix(1 0 0 1 239.1289 299.6323)"><tspan x="0" y="0" style="stroke:none;">564</tspan></text>
		</g>
		<g>
			<path style="fill:#FFFFFF;" d="M26.127,166.898l81.979-1.821l20.039-4.554l21.862,6.375l-10.02,10.932l32.79,41.9l-0.909,88.353l-8.198,17.311l-48.276,3.641l-7.288,29.15H82.6l-25.869-0.547l-0.73-6.56l0.73-8.742l-2.913-29.878l-9.473-12.39l-5.833-18.948
				l1.459-29.871l-5.831-8.019l1.46-8.744l-0.731-6.559l-0.729-9.472v-15.303l-1.455-10.93v-5.103l-2.915-12.388l-3.71-7.796l0.066-0.038z"/>
			<text transform="matrix(1 0 0 1 95.21 261.373)"><tspan x="0" y="0" style="stroke:none;">565</tspan></text>
		</g>
		<g>
			<path style="fill:#FFFFFF;" d="M370.803,94.575h14.573l5.103,4.372l-0.729,7.285l7.285,10.933l6.56-2.186v-9.471l16.032-2.189l8.014,5.103l-1.456,2.915l2.184,3.643l8.016,1.458l2.188,2.915l5.83,0.729l5.829,0.728l2.911,8.015l8.749,0.729v3.644l12.388,0.729
				l14.576-3.644l11.652-8.747l5.834-1.455l10.934-5.833l4.37,0.731l8.74,15.303l12.39-2.914l5.828,2.914l5.832-1.458l15.298,0.729l5.105-1.46l9.472,1.46l8.015,6.558l8.747,4.373l7.291-2.913l16.756,0.728l5.83,1.457l-8.743,2.914l-5.83,4.373l-43.72,17.488
				l-24.053,6.56l-24.045,12.386l-16.76,12.389l-32.791,31.334l-11.66,6.557l-5.83,5.833l-14.573,8.741l-2.916,3.644l-19.676,10.204l-6.558,7.289l-2.913,2.182l-2.914,5.106l-5.831,1.455l0.727,23.319l-0.304,29.669l-65.822-3.074l-15.484-48.277l-29.149-20.948
				l6.377-63.762l72.322-100.56z"/>
			<text transform="matrix(1 0 0 1 378.5039 210.3657)"><tspan x="0" y="0" style="stroke:none;">556-557</tspan></text>
		</g>
		<g>
			<path style="fill:#FFFFFF;" d="M203.104,28.438l1.555,5.654l2.185,7.287l0.73,19.676l6.558,5.098l16.759,3.645l5.83-1.456l5.831,2.186l2.913,5.1l5.832-1.459l24.775,1.459l5.103,4.373l1.454,9.472l25.504-5.101l1.458-3.644l20.404-5.1l8.746,1.456l9.47-0.727
				l17.489,8.014h10.205l0.726,5.101l-5.1,0.731l-0.728,4.371l-72.322,100.56l-6.377,63.762l-18.217-4.554l-27.179-13.942l7.218-10.88l-56.306-23.689l-24.842,13.897l-32.79-41.9l10.02-10.932l-21.862-6.375l1.822-40.078l16.395-7.287l13.665-61.03l43.078-23.689z"
				/>
			<text transform="matrix(1 0 0 1 222.7319 152.0703)"><tspan x="0" y="0" style="stroke:none;">566</tspan></text>
		</g>
		<g>
			<path style="fill:#FFFFFF;" d="M203.104,28.438l-43.078,23.689l-13.665,61.03l-16.395,7.287l-1.822,40.078l-20.039,4.554l-81.979,1.821l-0.066,0.038l-10.139-21.35l-1.455-10.929l-5.832-9.958v-16.277l-0.726-4.374l0.726-8.745v-9.471l-1.454-3.644l5.098-8.746
				L4.994,58.868L0.623,39.195h69.951h88.176h10.929V0.571l10.932,1.46l7.287-1.46l10.201,4.374l5.006,23.494z"/>
			<text transform="matrix(1 0 0 1 69.7051 110.1694)"><tspan x="0" y="0" style="stroke:none;">567</tspan></text>
		</g>
	</g>
</svg>
