<?xml version="1.0" encoding="iso-8859-1"?>
<!DOCTYPE svg >

<svg  width="324.78pt" height="600.992pt" viewBox="0 0 324.78 600.992" xml:space="preserve">
	<g id="Layer_x0020_1" style="fill-rule:nonzero;clip-rule:nonzero;stroke:#000000;stroke-miterlimit:4; font-family:'Arial'; font-size:10;">
		<g>
			<path style="fill:#FFFFFF;" d="M290.615,70.953l-12.085,48.373l-34.091,1.106l-24.188-13.19L207,95.207l-10.935-9.952l-21.986-25.296l-8.797-25.279L137.91,28.97l6.931-16.061L162.434,0.59l68.601,38.704l28.145,14.066l7.034,3.522l24.402,14.07z"/>
			<text transform="matrix(1 0 0 1 232.8105 88.5425)"><tspan x="0" y="0" style="stroke:none;">074</tspan></text>
		</g>
		<g>
			<path style="fill:#FFFFFF;" d="M86.789,139.553l57.615,0.67l9.886,13.192l7.704,18.681l23.08,8.796l21.983,3.307l6.6-4.396l4.399,19.788l19.789,4.399l11.328,8.174l1.21,4.785l3.513,3.521l8.796,3.522l-23.741,43.76l-42.886-28.584l-7.684-12.103l-12.104-10.995
				l-80.341,0.271l-2.103-20.497l-23.929-9.146l6.335-40.112l10.549-7.033z"/>
			<text transform="matrix(1 0 0 1 134.7559 204.0044)"><tspan x="0" y="0" style="stroke:none;">088</tspan></text>
		</g>
		<g>
			<path style="fill:#FFFFFF;" d="M258.494,285.927l5.732,3.813l39.855,11.158l-0.93,7.522l-10.551,79.156l-5.277-1.759l-1.76-7.034l5.273-19.353v-28.146l-10.556,12.316v28.145l-8.793,15.83l0.161,17.825l-17.306-1.324l-14.304-10.995l-20.878-35.178
				l-14.302-26.389l31.894-14.299l21.739-31.29z"/>
			<text transform="matrix(1 0 0 1 242.498 355.7222)"><tspan x="0" y="0" style="stroke:none;">087</tspan></text>
		</g>
		<g style="stroke:none;">
			<path style="fill:#FFFFFF;stroke:#000000;" d="M135.85,310.533l26.145,1.194l-1.106,16.483l20.896,5.506l23.078-2.2l14.302,26.389l20.878,35.178l14.304,10.995l17.306,1.324l-10.708,19.116l-17.593,19.349v7.037l-14.079-1.76l3.523,19.349l-8.793,15.829
				l-8.797,3.526l-22.874,26.383l-26.386,29.899l-14.069,33.418l-10.553,15.842l-17.593,7.033l-7.033-5.283l15.829-47.487l-7.033-7.033l-12.315-1.764l-15.833-8.796l-12.307,7.033l-8.797-12.316l-14.074-12.306l-10.557-1.761l-7.033-12.315l-12.311-5.276
				l-5.281-10.556L7.636,463.211l3.52-21.102l-10.556-8.795l7.037-17.594l14.072-26.381l4.398-5.283l16.708-8.797l19.352-3.514l17.588-8.795l7.035-15.83l12.315-10.553l15.832-14.078l20.913-11.958z"/>
			<text transform="matrix(1 0 0 1 122.6543 419.4849)"><tspan x="0" y="0">080</tspan><tspan x="-10.007" y="12">082-083</tspan></text>
		</g>
		<g>
			<path style="fill:#FFFFFF;" d="M95.937,216.341l80.341-0.271l12.104,10.995l7.684,12.103l42.886,28.584l19.543,18.175l-21.739,31.29l-31.894,14.299l-23.078,2.2l-20.896-5.506l1.106-16.483l-26.145-1.194l24.821-14.43l-8.796-17.59l-26.383-26.384l-10.556-17.59
				l-19.353-8.797l0.353-9.401z"/>
			<text transform="matrix(1 0 0 1 184.5293 290.6655)"><tspan x="0" y="0" style="stroke:none;">085</tspan></text>
		</g>
		<g>
			<path style="fill:#FFFFFF;" d="M262.692,223.993l3.521,5.273h19.352l17.588,7.033v-14.067l8.797,7.034l1.762,40.455l-9.629,31.177l-39.855-11.158l-5.732-3.813l-19.543-18.175l23.741-43.76z"/>
			<text transform="matrix(1 0 0 1 267.7734 275.4741)"><tspan x="0" y="0" style="stroke:none;">077</tspan></text>
		</g>
		<g>
			<path style="fill:#FFFFFF;" d="M203.773,127.033l36.268,20.877l-13.191,23.097l-13.192,8.796l-6.6,4.396l-21.983-3.307l-23.08-8.796l-7.704-18.681l21.987-16.498l27.496-9.885z"/>
			<text transform="matrix(1 0 0 1 191.9258 166.6274)"><tspan x="0" y="0" style="stroke:none;">079</tspan></text>
		</g>
		<g>
			<path style="fill:#FFFFFF;" d="M137.91,28.97l27.372,5.709l8.797,25.279l21.986,25.296L207,95.207l0.058-0.067l-3.284,31.894l-27.496,9.885l-21.987,16.498l-9.886-13.192l-57.615-0.67l5.067-12.96l3.728-11.665l-12.309-14.07l1.762-10.555l26.386-24.623
				l12.307-10.556L137.91,28.97z"/>
			<text transform="matrix(1 0 0 1 134.7559 113.856)"><tspan x="0" y="0" style="stroke:none;">078</tspan></text>
		</g>
		<g>
			<path style="fill:#FFFFFF;" d="M207,95.207l13.252,12.035l24.188,13.19l34.091-1.106l12.085,7.707l19.067-0.656l-4.767,7.903l-19.352,36.941l-8.796,3.511h-5.279l-10.547,10.559l-7.046,21.112l-5.27,1.752l0.547,4.01l-11.328-8.174l-19.789-4.399l-4.399-19.788
				l13.192-8.796l13.191-23.097l-36.268-20.877l3.284-31.894L207,95.207z"/>
			<text transform="matrix(1 0 0 1 266.9414 161.9741)"><tspan x="0" y="0" style="stroke:none;">070</tspan></text>
		</g>
		<g>
			<path style="fill:#FFFFFF;" d="M290.615,70.953l-12.085,48.373l12.085,7.707l19.067-0.656l5.78-9.686l7.041-5.283l1.752-21.105l-33.641-19.35z"/>
			<text transform="matrix(1 0 0 1 307.1211 116.6909)"><tspan x="0" y="0" style="stroke:none;">076</tspan></text>
		</g>
	</g>
</svg>
