<?xml version="1.0" encoding="iso-8859-1"?>
<!DOCTYPE svg >

<svg  width="801.644pt" height="197.136pt" viewBox="0 0 801.644 197.136" xml:space="preserve">
	<g id="Layer_x0020_1" style="fill-rule:nonzero;clip-rule:nonzero;stroke:#000000;stroke-miterlimit:4; font-family:'Arial'; font-size:10;">
		<g>
			<path style="fill:#FFFFFF;" d="M207.039,19.676l6.333,18.591l-2.078,17.131l-14.539,1.04l-30.117,18.176l4.154,8.309L147.43,82.4V69.938l-23.371-10.9l-22.325,0.042L63.31,58.721l-6.649-5.813l0.832-4.154l5.817,0.827l4.983-0.827l-4.983-9.972l3.323-3.322
				l5.813-2.494l-4.153-5.815l0.832-4.985l3.322-4.153l-4.981-3.322l3.323-3.323l5.812,4.981l-1.658,6.649l2.49,1.66l4.985-4.981l5.817,0.826l44.863-0.826l3.323-0.832l26.586,1.658l4.154-0.826h39.878z"/>
			<text transform="matrix(1 0 0 1 142.2021 47.0898)"><tspan x="0" y="0" style="stroke:none;">382</tspan></text>
		</g>
		<g>
			<path style="fill:#FFFFFF;" d="M428.333,6.272l19.639-0.722l14.125-0.832h1.66l29.91,0.832L509.45,6.38h5.819l-9.554,14.748l9.345,20.254l-14.539,11.423l1.555,49.849l0.041,0.033l-13.019,1.005l-23.887,2.078l-35.054,3.631l-5.971-6.747l-3.63-25.963
				l-23.371-14.024l1.038-9.861l22.333-6.753l-1.562-21.809l9.337-17.972z"/>
			<text transform="matrix(1 0 0 1 454.7949 56.0806)"><tspan x="0" y="0" style="stroke:none;">385</tspan></text>
		</g>
		<g>
			<path style="fill:#FFFFFF;" d="M515.27,6.38l48.186,2.493h16.614l32.399,0.831l19.112-0.831h45.695h13.293l4.815-0.026l10.239,35.127l-7.785,12.986l8.823,0.515l1.802,12.012L698.045,77l-3.322,7.478h-9.139l-4.154,14.124l-5.816,4.154l-9.969,1.658l-13.292,8.31
				l-4.156,3.322l-4.985,0.832l-15.783,12.461l-12.464-1.658l-17.446,4.981l-9.971,8.307l-4.982,5.818l-1.663,12.464l-9.972,5.814l-6.646,0.829l-5.81-30.216l-41.406,4.935l-7.723-38.482l-7.246,0.546l-1.578-49.872l14.539-11.423l-9.345-20.254L515.27,6.38z"/>
			<text transform="matrix(1 0 0 1 579.7939 78.9268)"><tspan x="0" y="0" style="stroke:none;">377-378</tspan></text>
		</g>
		<g>
			<path style="fill:#FFFFFF;" d="M695.385,8.847l16.781-0.806l28.252,0.832l37.894-3.016l6.138-0.308h15.785l0.829,2.492l-5.814,4.985l0.829,9.139l-4.153,7.479l2.495,4.982l-14.124,4.155l-5.817,9.14L767,60.384l-5.814,4.155l-13.292-2.496l-9.14,0.832
				l-6.646,4.985l-9.971,12.462l-7.475,1.663l-4.154-2.496l1.658-6.644l-3.702-3.358l-1.802-12.012l-8.823-0.515l7.785-12.986L695.385,8.847z"/>
			<text transform="matrix(1 0 0 1 735.1914 41.54)"><tspan x="0" y="0" style="stroke:none;">376</tspan></text>
		</g>
		<g>
			<path style="fill:#FFFFFF;" d="M323.084,166.933l26.854-0.412l59.71-51.404l20.51-5.715l35.054-3.631l23.887-2.078l13.001-1.014l7.246-0.546l7.723,38.482l41.406-4.935l5.81,30.216l-4.151-3.321l-4.156,6.648l-2.49,25.336l-29.078,1.247h-12.463h-4.983h-15.785
				h-26.588l-15.785,0.831H434.68l-23.264-0.831l-42.371-0.832h-43.203l9.032-12.354l-11.791-15.686z"/>
			<text transform="matrix(1 0 0 1 450.6406 162.0068)"><tspan x="0" y="0" style="stroke:none;">373</tspan></text>
		</g>
		<g>
			<path style="fill:#FFFFFF;" d="M205.563,193.33l-3.616-40.827l15.064-11.423l-0.699-7.794l29.775-3.631l10.386-15.062l6.747-2.078l10.384-11.423l12.986-6.231l12.979,5.194l11.423,17.139v33.231l12.093,16.508l11.791,15.686l-9.032,12.354h-4.982h-34.896
				l-1.664-0.829l-35.724-0.829h-34.895l-8.12,0.016z"/>
			<text transform="matrix(1 0 0 1 257.4766 164.085)"><tspan x="0" y="0" style="stroke:none;">384</tspan></text>
		</g>
		<g>
			<path style="fill:#FFFFFF;" d="M101.735,59.139l22.325-0.102l23.371,10.9V82.4l23.361,0.522l-4.154-8.309l30.117-18.176l14.539-1.04l5.018,77.889l0.699,7.794l-15.064,11.423l3.603,40.937l-11.805,0.704l-16.199,0.829l-24.757,0.044l-1.205-4.612l-11.947-1.554
				l-7.785-24.408l-15.578-6.234l6.747-10.383l-6.747-39.979l-10.385-4.676l-4.154-44.031z"/>
			<text transform="matrix(1 0 0 1 159.8584 130.8525)"><tspan x="0" y="0" style="stroke:none;">383</tspan></text>
		</g>
		<g style="stroke:none;">
			<path style="fill:#FFFFFF;stroke:#000000;" d="M63.31,58.721l38.425,0.358l4.154,44.091l10.385,4.676l6.747,39.979l-6.747,10.383l15.578,6.234l7.785,24.408l11.947,1.554l1.205,4.612l-13.878-0.044h-3.323h-17.446h-16.617l-14.952,0.832H59.984l-7.477-0.832H1
				l7.476-9.966h6.646l6.649-6.648l-4.155-18.278l0.828-7.476l-1.658-3.327l-5.818,3.327l-1.66-2.495l3.323-5.813l4.985-4.153l1.66,4.981l6.649-0.828l2.49-9.139l6.645-2.495l0.832-4.981l3.323-9.141l-6.646-3.323l0.832-5.816l19.107-10.799l-0.832-8.308l7.48-3.326
				l-6.649-9.136l9.141-9.971l1.662-9.14z"/>
			<text transform="matrix(1 0 0 1 67.4307 133.9678)"><tspan x="0" y="0">375</tspan><tspan x="0" y="12">380</tspan></text>
		</g>
		<g>
			<path style="fill:#FFFFFF;" d="M207.039,19.676l-0.832-19.111l35.727,4.154h3.322l29.079-0.831h19.938h4.153l28.249-0.829l19.11,1.66l15.785-1.66h18.275l20.771,1.66l19.106,1.662l8.61-0.108l-9.337,17.972l1.562,21.809l-22.333,6.753l-1.038,9.861l23.371,14.024
				l3.63,25.963l5.971,6.747l-20.51,5.715l-59.71,51.404l-26.854,0.412l-12.093-16.508v-33.231l-11.423-17.139l-12.979-5.194l-12.986,6.231l-10.384,11.423l-6.747,2.078l-10.386,15.062l-29.775,3.631l-5.018-77.889l2.078-17.131l-6.333-18.591z"/>
			<text transform="matrix(1 0 0 1 298.3569 67.5034)"><tspan x="0" y="0" style="stroke:none;">370-371</tspan></text>
		</g>
	</g>
</svg>
