<?xml version="1.0" encoding="iso-8859-1"?>
<!DOCTYPE svg >

<svg  width="800.904pt" height="346.959pt" viewBox="0 0 800.904 346.959" xml:space="preserve">
	<g id="Layer_x0020_1" style="fill-rule:nonzero;clip-rule:nonzero;fill:#FFFFFF;stroke:#000000;stroke-miterlimit:4; font-family:'Arial'; font-size:10;">
		<g>
			<path d="M550.873,37.234l-12.069,14.4l5.396,4.347l-8.998,14.292l-11.123,0.266l-11.647,0.269l-3.702,12.174l-18.536,1.059l-1.059-10.589l-4.762-6.878l-19.063-3.924l17.788-12.706l-0.843-1.698l5.927-4.234l7.622-6.776l0.85-4.235l-2.54-2.544l10.164-29.652
				l9.319,6.779l18.64,14.401l18.636,15.251z"/>
			<text transform="matrix(1 0 0 1 505.6826 54.3877)"><tspan x="0" y="0" style="fill:#000000;stroke:none;">226</tspan></text>
		</g>
		<g style="fill:#000000;stroke:none;">
			<path style="fill:#FFFFFF;stroke:#000000;" d="M638.983,344.761l36.428-0.848h4.237l14.403,0.848l21.178-0.848l6.776,0.848l-0.848-5.085l5.085,4.237h5.932l-4.237-9.316l1.692-1.695h3.387l2.545,4.235l0.851,6.776h2.539v-5.082l-9.321-27.957l-2.539-9.321
				l-4.237-1.692l-5.082,4.237l-4.237-3.387l-4.234-0.851l-5.084-2.542l-6.777-1.692l-1.697,7.624h-8.469l-5.93,2.54l-0.847-7.624l-0.848-1.692l-10.169-4.237l0.85-3.39l-3.39-0.845l-5.084-4.234l1.694-5.085l-0.845-1.697l-1.7-5.082l0.22,1.169l-2.654,12.177
				l-12.706,6.352l3.71,11.123l-10.591,20.646l3.702,7.947l-3.702,13.444z"/>
			<text transform="matrix(1 0 0 1 669.0898 320.8169)"><tspan x="0" y="0">233-234</tspan><tspan x="10.007" y="12">236</tspan></text>
		</g>
		<g>
			<path d="M633.054,262.873l9.319,5.642l8.471-0.85l1.692,4.239l3.39,1.695l5.184-1.11l-2.539,12.761l-12.706,6.352l3.71,11.123l-10.591,20.646l3.702,7.947l-3.702,13.444h-22.028h-17.79l-39.818,0.847l-11.86-0.847l-15.249,0.847l-8.69,0.204l-1.585-18.205
				l7.947-2.12l2.117-47.653L542.91,270l5.001-4.339l4.761-4.771l1.059-8.471l33.365-8.999l17.47,9.533l20.118,5.819l4.77-3.176l3.601,7.275z"/>
			<text transform="matrix(1 0 0 1 583.5107 305.5298)"><tspan x="0" y="0" style="fill:#000000;stroke:none;">238</tspan></text>
		</g>
		<g>
			<path d="M493.369,251.361l30.285-52.256l11.548,5.658l1.586-5.293l3.176-2.117l-3.176-5.82l5.83-0.537l-1.596-8.469l14.825-23.824l17.48,16.943l-4.771,3.702l3.176,4.77l13.768-1.591l4.771,3.708l1.059,5.298l11.649,0.524l3.176-7.413l7.413,0.535l7.413,8.995
				l0.526,2.651l37.978,3.244l9.994,7.449l0.85,6.776l5.082,5.933l7.624-0.848l6.779,4.234h4.237l2.54,0.848l-0.851,4.237l-11.858-1.695l-2.54,1.695l2.54,2.539l9.319,0.851l3.39,5.926l5.084,1.695l-1.697,13.556h-1.692l-3.393-8.472l-3.387,1.692l-3.387-5.079
				l-3.388,0.843l0.848,2.544l-3.393,2.54l2.545,1.697v2.54l-3.39,2.545l1.692,2.539l4.237-1.697l3.387,0.848l0.848,2.545l-5.927,2.539h-5.084L664.4,245.642l-5.085-6.779l-7.624-10.163l-2.545,0.845v3.39l3.39,2.539l1.695,5.085l3.39,2.539l2.542,5.085
				l19.485,17.793l5.932,0.848l2.54,5.927h5.932l1.689,1.697l-2.539,4.236l1.691,1.69h3.393l3.39,4.234l-3.39,4.239l-10.166,3.39l-2.54,1.695l-5.084-7.624l-9.322-5.935l-3.387-3.388l0.848-6.776l-2.545-3.387l-5.927-1.698l-3.393,0.851l-10.163-2.545l-2.545-2.54
				l0.85-5.932l-2.539-0.842l-1.698,6.773l-7.621,1.695l-3.601-6.988l-4.77,3.176l-20.118-5.819l-17.47-9.533l-33.365,8.999l-1.059,8.471l-4.761,4.771L542.91,270l-49.541-18.64z"/>
			<text transform="matrix(1 0 0 1 572.4482 227.1665)"><tspan x="0" y="0" style="fill:#000000;stroke:none;">230-231</tspan></text>
		</g>
		<g>
			<g>
				<path d="M799.949,167.702h-5.084l-7.624,11.008l-2.545,5.085l2.545,5.935l5.079-11.02l7.629-11.008z"/>
				<path d="M746.575,235.473l-2.542,2.542l0.848,8.472l-5.082,4.234l-2.545,8.475l-5.079,11.014v5.93l-3.393-1.692l-3.39-9.322l-0.845-5.081l1.695-10.164l4.234-5.085l-2.54-5.932l3.39-3.39l1.689-10.166l0.851-5.079l5.084-1.697l-1.697-4.235l4.237-4.234
					l2.542-11.014h9.321l1.69-13.556l-3.385-3.387l8.469-2.545l-0.848-3.388l2.545-3.39l24.567-4.234l-5.932,7.624l-1.692,11.012l-11.017,16.942l-4.234,10.169v5.933l-6.776,5.079l-4.237,8.472l-5.93,1.694z"/>
				<path d="M600.86,117.928h-15.885l-9.53-3.179l-4.237,5.83l1.586,11.65l-4.237,0.521l-12.709,25.951l17.48,16.943l-4.771,3.702l3.176,4.77l13.768-1.591l4.771,3.708l1.059,5.298l11.649,0.524l3.176-7.413l7.413,0.535l7.413,8.995l0.526,2.651l37.978,3.244
					l-6.102-6.106l-4.237-8.472l-4.234-2.542l-6.776-9.319l-1.695-4.234h0.848h3.387l7.627,12.709l7.624,4.234l3.39,6.776l5.93,4.237l9.318,7.624l2.545,7.621l5.079-1.692l2.545,4.237l9.319,0.848l-1.697-7.627l2.539-1.692l1.698-5.084l-2.54-4.234l0.842-3.39
					v-3.388l6.782,3.388l2.54-4.234l-0.851-5.085l-11.011-5.084l-8.472-5.93l-4.234,2.542l-1.697-4.236l-4.237-2.54v-2.545l-6.774-9.318H664.4v2.545l-3.396-4.237h-2.537l-2.542,2.539l-4.234-4.234l-6.779-0.847l-11.014-5.93l0.851-2.545l-5.085-4.234l-3.387-6.776
					l1.692-2.54l-2.54-4.662l-17.793,8.049l-3.387-3.387l-4.237-6.782l0.931-6.544l-0.083-0.019z"/>
			</g>
			<text transform="matrix(1 0 0 1 588.333 168.9214)"><tspan x="0" y="0" style="fill:#000000;stroke:none;">224-225</tspan></text>
		</g>
		<g>
			<path d="M493.369,251.361L542.91,270l-10.884,7.833l-2.117,47.653l-7.947,2.12l1.585,18.155l-15.876,0.696l-11.866-0.851h-26.257l1.582-12.174l-3.699-1.059l0.523-9.53l4.77-0.534l0.526-7.938l-18.004-25.417l3.178-13.767l22.236-6.352l1.062-9.007l11.647-8.471z
				"/>
			<text transform="matrix(1 0 0 1 491.3818 302.354)"><tspan x="0" y="0" style="fill:#000000;stroke:none;">239</tspan></text>
		</g>
		<g>
			<path d="M396.477,214.295l23.099-5.36l1.26,6.954l31.766,11.647l58.769-28.066l12.284-0.365l-30.285,52.256l-11.647,8.471l-1.062,9.007l-22.236,6.352l-3.178,13.767l18.004,25.417l-0.526,7.938l-4.77,0.534l-0.523,9.53l3.699,1.059l-1.582,12.174h-7.63h-30.493
				l-9.322-0.847l-25.414,0.847H374.66l11.753-60.358l22.239-3.179l3.71-27.534l-23.297-9.53l7.413-30.711z"/>
			<text transform="matrix(1 0 0 1 428.8994 280.1128)"><tspan x="0" y="0" style="fill:#000000;stroke:none;">245</tspan></text>
		</g>
		<g>
			<path d="M470.752,135.617l3.03-0.211l15.353-4.771l5.256-12.714l5.333,12.714l25.414,6.356l5.296-6.881l7.413-1.059l1.059-4.769l4.236-1.586l12.706,36.006l-14.825,23.824l1.596,8.469l-5.83,0.537l3.176,5.82l-3.176,2.117l-1.586,5.293l-11.548-5.658
				l-12.284,0.365l-58.769,28.066l-31.766-11.647l-1.26-6.954l6.553-1.521l12.708-17.478l7.411-37.062l18.528-5.296l5.976-11.963z"/>
			<text transform="matrix(1 0 0 1 487.1455 176.3315)"><tspan x="0" y="0" style="fill:#000000;stroke:none;">229</tspan></text>
		</g>
		<g>
			<path d="M257.749,257.5l10.164-6.779l-4.234-4.234l4.234-5.079l6.78,5.927l25.416-11.861l4.236,5.935l14.399-10.169l-1.692-6.776l11.013-5.082l68.412-5.085l-7.413,30.711l23.297,9.53l-3.71,27.534l-22.239,3.179l-11.753,60.358l-29.65-0.847h-5.932h-33.889
				l-9.332-0.574l0.017-0.161l-18.003-22.773l1.059-36.003l-21.18-27.749z"/>
			<text transform="matrix(1 0 0 1 317.5078 291.5776)"><tspan x="0" y="0" style="fill:#000000;stroke:none;">240-241</tspan></text>
		</g>
		<g>
			<path d="M166.669,280.928l64.072,0.081l6.354-19.587l-0.045-0.125l8.835-2.946l6.781-1.695l5.083,0.845l21.18,27.749l-1.059,36.003l18.003,22.773l-0.017,0.161l-4.219-0.273l-22.027-0.843l-5.932,0.843l-4.86-0.178l-40.04-1.515l-26.263-2.545l-0.849-2.539
				h-16.096l-6.258,0.315l-2.111-23.613l16.417-8.472l-16.951-24.439z"/>
			<text transform="matrix(1 0 0 1 221.3408 316.1206)"><tspan x="0" y="0" style="fill:#000000;stroke:none;">243</tspan></text>
		</g>
		<g>
			<path d="M131.516,256.656l5.084-5.935l25.415-22.869l3.388,3.387l-5.081,5.085l5.081,13.556l6.781,8.472h5.927l5.932,5.079l5.932,4.234l10.164-0.842l10.169-5.085l9.319-9.318l11.011,11.011l6.413-2.133l0.045,0.125l-6.354,19.587l-64.072-0.081l-22.231-0.44
				l-12.922-23.832z"/>
			<text transform="matrix(1 0 0 1 150.3887 272.7017)"><tspan x="0" y="0" style="fill:#000000;stroke:none;">246</tspan></text>
		</g>
		<g>
			<path d="M131.516,256.656l-11.86,5.93l-6.775,1.694l-6.781,4.234l-14.399,9.319v8.475l-11.86,5.081l-1.696,4.237l-0.848,8.472l-9.32,4.237l-11.012,3.384l-3.387,10.169l-32.196,10.164l-21.18,9.321l19.488-0.847h46.596h13.556l22.024-0.851l28.807,0.851
				l38.642-3.074l-2.111-23.613l16.417-8.472l-16.951-24.439l-22.231-0.44l-12.922-23.832z"/>
			<text transform="matrix(1 0 0 1 110.147 315.0601)"><tspan x="0" y="0" style="fill:#000000;stroke:none;">242</tspan></text>
		</g>
		<g>
			<path d="M328.065,219.38l-6.775-3.39l-0.849-5.93l8.473-15.25l11.858-14.401l10.169-14.403l6.775-16.945l9.32-8.472v-6.776l5.927-4.237l3.392-8.469l-0.847-10.169l5.927-8.475l10.169,6.782l5.084,11.011l15.245,3.388l6.915-5.53l-0.136-0.186l33.354,19.595
				l18.685-1.906l-5.976,11.963l-18.528,5.296l-7.411,37.062l-12.708,17.478l-6.378,1.486l-23.274,5.395l-68.412,5.085z"/>
			<text transform="matrix(1 0 0 1 384.4243 176.3315)"><tspan x="0" y="0" style="fill:#000000;stroke:none;">244</tspan></text>
		</g>
		<g>
			<path d="M465.311,62.648l19.063,3.924l4.762,6.878l1.059,10.589l18.536-1.059l-19.595,47.653l-15.353,4.771l-3.03,0.211l-18.685,1.906l-33.354-19.595l0.136,0.186l1.56-1.244l16.096-34.736l0.847-4.237l5.935-5.082l11.859,9.319l10.166-19.485z"/>
			<text transform="matrix(1 0 0 1 457.4932 108.5601)"><tspan x="0" y="0" style="fill:#000000;stroke:none;">228</tspan></text>
		</g>
		<g>
			<path d="M550.873,37.234l12.709-22.028l1.694,0.848l7.624,0.85l13.556,9.313l-3.387,5.084l-3.39,1.697v5.082l11.014,8.474l7.624,0.842l5.933,2.545l1.691,4.237l4.234,3.387h4.235l3.395,4.237l5.927,5.082l2.545,10.164l-1.697,3.393l1.697,5.079l-3.393,4.237
				l-4.237,2.542l-1.692,4.237l-7.624,3.387l-3.39,3.39l-4.236,9.319l-0.762,5.314l-0.083-0.019h-15.885l-9.53-3.179l-22.238-23.821l-20.653-1.059l-8.475-19.332l11.123-0.266l8.998-14.292l-5.396-4.347l12.069-14.4z"/>
			<text transform="matrix(1 0 0 1 561.8564 79.9668)"><tspan x="0" y="0" style="fill:#000000;stroke:none;">220-221</tspan></text>
		</g>
		<g>
			<path d="M524.079,70.538l8.475,19.332l20.653,1.059l22.238,23.821l-4.237,5.83l1.586,11.65l-4.237,0.521l-12.709,25.951l-12.706-36.006l-4.236,1.586l-1.059,4.769l-7.413,1.059l-5.296,6.881l-25.414-6.356l-5.333-12.714l14.339-34.939l3.702-12.174l11.647-0.269z
				"/>
			<text transform="matrix(1 0 0 1 517.8564 114.9116)"><tspan x="0" y="0" style="fill:#000000;stroke:none;">227</tspan></text>
		</g>
	</g>
</svg>
