<?xml version="1.0" encoding="iso-8859-1"?>
<!DOCTYPE svg PUBLIC "-//W3C//DTD SVG 20000303 Stylable//EN"   "http://www.w3.org/TR/2000/03/WD-SVG-20000303/DTD/svg-20000303-stylable.dtd">
<!-- Generator: Adobe Illustrator 9.0, SVG Export Plug-In  -->
<svg  width="3254.975pt" height="1883.635pt" viewBox="0 0 3254.975 1883.635" xml:space="preserve">
	<g id="Numbers" style="fill-rule:nonzero;clip-rule:nonzero;fill:#FFFFFF;stroke:#000000;stroke-width:0.25;stroke-miterlimit:4; font-family:'ArialMT'; font-size:6;">
		<g>
			<path d="M1580.225,456.297l0.062,0.36l0.398-0.047l12.302-0.372l0.958-8.391l8.118-8.561l-14.01,2.666l-9.36-5.162l-8.669,9.243l11.511,5.499l-1.31,4.764z"/>
			<text transform="matrix(1 0 0 1 1577.7009 449.7256)"><tspan x="0" y="0" style="fill:#000000;stroke:none;">96863</tspan></text>
		</g>
		<g>
			<path d="M1414.176,512.251l-10.526,9.94l-9.146-7.673l1.477,17.007l23.3-4.535l-0.234-5.669l6.129-2.892l-6.404-7.368l-4.594,1.189z"/>
			<text transform="matrix(1 0 0 1 1397.2996 528.083)"><tspan x="0" y="0" style="fill:#000000;stroke:none;">96862</tspan></text>
		</g>
		<g>
			<path d="M1533.288,460.829l-25.91,10.456l-14.341,10.409l6.123,2.607l12.976-6.123l3.237,5.499l20.581-12.021l1.228-6.53l-3.894-4.298z"/>
			<text transform="matrix(1 0 0 1 1518.7673 470.5674)"><tspan x="0" y="0" style="fill:#000000;stroke:none;">96861</tspan></text>
		</g>
		<g>
			<path d="M1416.218,427.949l9.466,11.563l5.438-2.493l-1.529-9.41l-1.406-6.691l-11.968,7.031z"/>
			<text transform="matrix(1 0 0 1 1415.3259 433.2168)"><tspan x="0" y="0" style="fill:#000000;stroke:none;">96854</tspan></text>
		</g>
		<g>
			<path d="M1538.787,528.634l-1.02,5.842l5.106,4.192l4.248-1.813l3.234-5.385l-11.569-2.836z"/>
			<text transform="matrix(1 0 0 1 1541.5618 537.6514)"><tspan x="0" y="0" style="fill:#000000;stroke:none;">96826</tspan></text>
		</g>
		<g>
			<path d="M1601.603,517.694l2.438,19.843l5.159,3.853l-0.964,9.979l7.825-0.111l3.231-1.418l-2.376-4.878l3.686,1.925l21.765-17.174l1.081-6.747l-6.524,1.474l-13.945-7.767l-21.375,1.022z"/>
			<text transform="matrix(1 0 0 1 1614.1814 537.0215)"><tspan x="0" y="0" style="fill:#000000;stroke:none;">96825</tspan></text>
		</g>
		<g>
			<path d="M1564.299,498.871l-33.958,27.059l8.446,2.704l11.569,2.836l10.087-7.031l9.237-15.703l-5.382-9.864z"/>
			<text transform="matrix(1 0 0 1 1549.51 514.1699)"><tspan x="0" y="0" style="fill:#000000;stroke:none;">96822</tspan></text>
		</g>
		<g>
			<path d="M1581.596,511.343l-13.052,18.255l-2.262,9.583l4.655,7.368l33.103-9.012l-2.438-19.843l-20.007-6.352z"/>
			<text transform="matrix(1 0 0 1 1578.3191 523.9463)"><tspan x="0" y="0" style="fill:#000000;stroke:none;">96821</tspan></text>
		</g>
		<g>
			<g>
				<path d="M1504.999,509.983l1.758,10.884l7.597-3.173l-2.716-2.496l8.725-9.92l32.036-15.533l-8.168-14.628l-8.276-3.46l-20.581,12.021l-18.653,6.404l6.577,8.051l-2.777,10.831l4.479,1.02z"/>
				<path d="M1504.999,509.983l-14.514,11.508l6.973,2.323v3.744l-25.228-0.284l1.693-6.858l0.46-4.005l13.775,1.564l-4.198-4.365l3.349-6.293l17.689,2.666z"/>
				<path d="M1517.811,529.768l-8.725-0.905l-1.884-6.917l9.305,2.268l1.304,5.555z"/>
			</g>
			<text transform="matrix(1 0 0 1 1520.2996 487.583)"><tspan x="0" y="0" style="fill:#000000;stroke:none;">96819</tspan></text>
		</g>
		<g>
			<path d="M1479.493,492.127l-5.965,4.192l4.591-0.68l-1.354,4.989l-6.463-3.97l-7.705,4.195l1.292,13.834l10.034,5.728l0.46-4.005l13.775,1.564l-4.198-4.365l3.349-6.293l17.689,2.666l-4.479-1.02l2.777-10.831l-6.577-8.051l-6.744-2.039l-10.482,4.084z"/>
			<text transform="matrix(1 0 0 1 1475.4548 507.2295)"><tspan x="0" y="0" style="fill:#000000;stroke:none;">96818</tspan></text>
		</g>
		<g>
			<path d="M1552.399,489.745l-32.036,15.533l-8.725,9.92l2.716,2.496l5.95,3.401l1.137,2.323l40.705-32.086l-9.747-1.588z"/>
			<text transform="matrix(1 0 0 1 1534.5496 503.582)"><tspan x="0" y="0" style="fill:#000000;stroke:none;">96817</tspan></text>
		</g>
		<g>
			<path d="M1569.681,508.735l-9.237,15.703l-10.087,7.031l-3.234,5.385l12.249,11.906l-0.237,4.837l3.636,0.946l8.168-7.995l-4.655-7.368l2.262-9.583l13.052-18.255l-0.624-0.17l-11.291-2.438z"/>
			<text transform="matrix(1 0 0 1 1550.3567 536.1396)"><tspan x="0" y="0" style="fill:#000000;stroke:none;">96816</tspan></text>
		</g>
		<g>
			<path d="M1538.228,535.281l-4.544,3.05l10.433,5.385l3.34,9.469l11.678,0.413l0.237-4.837l-12.249-11.906l-4.248,1.813l-5.106-4.192l0.46,0.806z"/>
			<text transform="matrix(1 0 0 1 1537.343 553.0352)"><tspan x="0" y="0" style="fill:#000000;stroke:none;">96815</tspan></text>
		</g>
		<g>
			<path d="M1530.341,525.93l-5.329,6.504l6.747,7.201l1.925-1.304l4.544-3.05l-0.46-0.806l1.02-5.842l-8.446-2.704z"/>
			<text transform="matrix(1 0 0 1 1516.7151 537.2822)"><tspan x="0" y="0" style="fill:#000000;stroke:none;">96814</tspan></text>
		</g>
		<g>
			<path d="M1562.146,491.333l-40.705,32.086l-2.607,8.051l6.179,0.964l5.329-6.504l33.958-27.059l-2.153-7.538z"/>
			<text transform="matrix(1 0 0 1 1521.7996 522.458)"><tspan x="0" y="0" style="fill:#000000;stroke:none;">96813</tspan></text>
		</g>
		<g>
			<g>
				<path d="M1399.103,422.506l-6.589,8.276l-2.262,11.282l20.353,6.68l19.277,37.031l-4.14,1.078l1.359,4.137l6.463,0.527l-1.166-3.372l6.041-3.844l6.466,12.7l6.574-3.404l-3.062,3.117l12.132,8.563l-1.875-13.324l-8.889-6.293l1.808-6.577l1.752-4.477
					l-6.797-18.653l-6.521,3.346l-12.466-2.836l-1.878-16.951l-9.466-11.563l-17.115-5.443z"/>
				<path d="M1464.004,497.793l-0.448-5.725l9.076-1.588l-8.628,7.313z"/>
			</g>
			<text transform="matrix(1 0 0 1 1427.2996 471.584)"><tspan x="0" y="0" style="fill:#000000;stroke:none;">96797</tspan></text>
		</g>
		<g>
			<path d="M475.739,153.924l24.413,5.625l5.754-8.063l-0.861-7.597l-0.053,5.414l-3.633,0.469l-8.725-28.497l-11.963,8.933l-7.648,12.003l4.361,4.025l-1.645,7.688z"/>
			<text transform="matrix(1 0 0 1 480.7996 153.584)"><tspan x="0" y="0" style="fill:#000000;stroke:none;">96796</tspan></text>
		</g>
		<g>
			<path d="M1580.972,511.173l0.624,0.17l20.007,6.352l21.375-1.022l13.945,7.767l6.524-1.474l-5.73,0.454l-19.957-13.21l-7.652-12.527l0.735-13.986l-7.427-0.243l-0.22,6.688l-6.475,1.418l3.299,3.062l-2.728,3.062l-9.864,0.056l-6.457,13.436z"/>
			<text transform="matrix(1 0 0 1 1594.3005 506.585)"><tspan x="0" y="0" style="fill:#000000;stroke:none;">96795</tspan></text>
		</g>
		<g>
			<path d="M2247.165,688.437l-1.134,21.905l4.195,30.879l3.735,4.696l-6.111,8.481l4.869,5.528l-9.524,3.155l0.173,8.364l19.723,13.509l-0.674,10.441l9.352,16.471l-2.098,11.666l7.825,3.413l13.781-11.698l10.371-0.082l-11.171-11.531l6.352-20.443l-1.479-16.286
				l6.299-2.423l4.245-8.446l-9.179-18.023l-16.271-18.759l-0.17-11.64l-6.513-0.404l-3.812-9.138l-4.819,1.547l-2.827-7.266l-15.138-3.917z"/>
			<text transform="matrix(1 0 0 1 2266.2009 760.6914)"><tspan x="0" y="0" style="fill:#000000;stroke:none;">96793</tspan></text>
		</g>
		<g>
			<path d="M1334.014,369.499l-48.82,3.943l27.729,20.842l0.794,31.169l6.067,3.425l3.287,9.542l6.747,2.563l12.697,15.029l1.594,11.183l0.023,0.062l-0.097-0.015l-0.437,0.305l24.026,23.218l15.255-8.9l4.649-8.109l-0.396-9.176l5.889-8.795l-4.644-6.349
				l1.872-7.371l2.262-11.282l6.589-8.276l2.827-7.913l9.759-4.389l-27.334-21.709l-11.399,1.146l-9.463-4.348l-3.686-5.648l1.816-4.816l-27.609-5.329z"/>
			<text transform="matrix(1 0 0 1 1340.0974 433.1318)"><tspan x="0" y="0" style="fill:#000000;stroke:none;">96792</tspan></text>
		</g>
		<g>
			<path d="M1334.014,369.499l27.609,5.329l-1.816,4.816l3.686,5.648l9.463,4.348l11.399-1.146l27.334,21.709l3.337,4.204l7.594-9.249l-5.042-17.751l-30.557-13.714l-4.031,1.688l1.02-2.971l-7.421,0.375v-2.833l-42.574-0.454z"/>
			<text transform="matrix(1 0 0 1 1372.5496 386.834)"><tspan x="0" y="0" style="fill:#000000;stroke:none;">96791</tspan></text>
		</g>
		<g>
			<path d="M1500.458,414.795l-38.212,8.191l-17.291-1.16l-15.363,5.783l1.529,9.41l-5.438,2.493l1.878,16.951l12.466,2.836l6.521-3.346l2.777-17.88l10.148-5.036l35.654-2.777l11.514-5.487l-0.855-2.18l-0.053-0.372l-2.997-7.313l-2.279-0.114z"/>
			<text transform="matrix(1 0 0 1 1439.321 432.0488)"><tspan x="0" y="0" style="fill:#000000;stroke:none;">96789</tspan></text>
		</g>
		<g>
			<path d="M2375.008,796.111l17.625,12.908l-1.644-13.025l-8.505-8.391l-4.978,0.595l-1.644,6.747l-0.855,1.166z"/>
			<text transform="matrix(1 0 0 1 2375.4783 801.3115)"><tspan x="0" y="0" style="fill:#000000;stroke:none;">96788</tspan></text>
		</g>
		<g>
			<path d="M1422.619,405.159l-7.594,9.249l-3.337-4.204l-9.759,4.389l-2.827,7.913l17.115,5.443l11.968-7.031l1.406,6.691l15.363-5.783l17.291,1.16l38.212-8.191l-10.992-17.235l-22.673-0.231l-18.776,4.796l-3.571-3.202l-21.826,6.237z"/>
			<text transform="matrix(1 0 0 1 1441.4382 415.6387)"><tspan x="0" y="0" style="fill:#000000;stroke:none;">96786</tspan></text>
		</g>
		<g>
			<g>
				<path d="M2375.008,796.111l-4.421,9.753l-9.243-0.328l8.619,9.615l-1.362,6.047l-11.168,6.419l-11.112-2.49l-8.502,5.42l7.828,7.74l-1.819,17.818l10.488,7.98l-19.163-5.341l-10.087,1.975l3.284,35.684l-6.861,8.918l8.845,10.412l-2.268,7.462l6.973,5.555
					l6.923-1.292l2.49,8.118l23.47,4.638l12.7-5.104l28.573,0.337l30.949-14.391l-6.287-10.283l0.226-10.857l0.97-6.287l8.215-1.263l1.02-5.874l5.273,3.709l1.699-7.219l5.218,7.729l45.756-11.191l-3.463-27.486l-6.012-3.7l-14.625-0.097l-30.384-15.483
					l-8.168-4.468l-1.479,3.457l-1.356,3.844l-44.112-26.566l-17.625-12.908z"/>
				<path style="stroke:none;" d="M2187.751,958.782l6.917-7.632l16.327-3.141l22.389-16.67l19.45-7.368l11.566,5.142l8.505,10.682l0.729,4.125l-5.663,1.169l-2.552,13.617l0.114,4.661l10.488,0.012l-6.352,12.53l-7.254-3.932l-15.586,6.583l-8.118-9.434
					l-2.83,6.015l-9.185-0.923l-11.054,5.628l-3.466-5.944l-9.744,8.083l-5.725,0.032l-15.592-13.031l6.633-10.204z"/>
			</g>
			<text transform="matrix(1 0 0 1 2343.9207 882.7676)"><tspan x="0" y="0" style="fill:#000000;stroke:none;">96790</tspan></text>
		</g>
		<g>
			<path d="M3040.129,1507.217l-64.295,30.683l-24.026-22.365l-1.084,19.195l22.96,26.191l5.502,14.663l9.46,11.054l11.628,0.188l9.923,11.361l65.763-17.314l17.631-9.604l-15.249-25.433l7.937-11.294l-8.276-8.798l-4.134,3.601l-15.489-17.399l-4.579,3.861
				l-6.073-2.836l-3.006-3.349l4.644-4.418l-9.234,2.013z"/>
			<text transform="matrix(1 0 0 1 3013.8132 1554.6953)"><tspan x="0" y="0" style="fill:#000000;stroke:none;">96785</tspan></text>
		</g>
		<g>
			<path d="M2342.295,765.798l-22.336,21.952l24.208-2.37l6.009,6.803l3.062-3.117l9.24-14.628l-20.183-8.64z"/>
			<text transform="matrix(1 0 0 1 2337.3748 783.4902)"><tspan x="0" y="0" style="fill:#000000;stroke:none;">96784</tspan></text>
		</g>
		<g>
			<path d="M3068.922,1324.302l-6.513,7.535l-13.266,3.855l-13.154,10.456l-30.896,1.506l-48.132,13.641l-1.084,6.694l-0.844,9.548l27.609-2.414l11.73-7.333l10.72,0.138l6.747,5.481l24.378-2.728l15.079,4.957l17.229-10.263l26.256,2.757l4.195-15.091l-4.928-9.067
				l-8.341-3.94l-3.463,2.2l2.663,1.91l-10.034,5.443l-6.683-0.744l10.368-8.496l-0.788-7.717l-24.264,7.415l17.971-12.68l-2.558-3.064z"/>
			<text transform="matrix(1 0 0 1 3022.5496 1364.834)"><tspan x="0" y="0" style="fill:#000000;stroke:none;">96783</tspan></text>
		</g>
		<g>
			<path d="M1446.549,455.954l6.797,18.653l-1.752,4.477l9.92,10.488l0.17-9.524l7.371,0.853l6.067-13.641l9.973-1.896l8.566,5.443l14.341-10.896l16.333-3.788l-17.692-31.351l-11.514,5.487l-35.654,2.777l-10.148,5.036l-2.777,17.88z"/>
			<text transform="matrix(1 0 0 1 1477.0984 460.1729)"><tspan x="0" y="0" style="fill:#000000;stroke:none;">96782</tspan></text>
		</g>
		<g>
			<path d="M2982.643,1375.123l18.425,0.073l14.569,5.376l44.051,3.938l12.984,6.855l9.46-3.135l13.102,3.923l1.368-12.949l-4.436-5.408l2.616-5.663l-26.256-2.757l-17.229,10.263l-15.079-4.957l-24.378,2.728l-6.747-5.481l-10.72-0.138l-11.73,7.333z"/>
			<text transform="matrix(1 0 0 1 3066.0496 1384.334)"><tspan x="0" y="0" style="fill:#000000;stroke:none;">96781</tspan></text>
		</g>
		<g>
			<path d="M3035.029,1291.653l-6.691-6.744l-3.287,4.775l-4.02-1.433l-25.802,27.144l-24.946,9.595l-1.359,7.535l-14.514,4.784l1.468,10.406l-3.621,8.73l3.621,11.543l1.084-6.694l48.132-13.641l30.896-1.506l13.154-10.456l13.266-3.855l6.513-7.535l3.29-1.632
				l-21.82-21.724l-1.078,1.236l-8.341,7.028l-1.069-5.051l5.326-5.88l0.794-0.85l-10.995-5.777z"/>
			<text transform="matrix(1 0 0 1 3003.8904 1329.4492)"><tspan x="0" y="0" style="fill:#000000;stroke:none;">96780</tspan></text>
		</g>
		<g>
			<path d="M2385.836,735.569l-5.9-1.535l-18.873,12.495l-22.456,5.247l5.271,3.205l-1.582,10.816l20.183,8.64l14.344-11.514l3.624-13.119l8.628-1.225l-0.8-6.639l-2.438-6.372z"/>
			<text transform="matrix(1 0 0 1 2355.4978 757.2344)"><tspan x="0" y="0" style="fill:#000000;stroke:none;">96779</tspan></text>
		</g>
		<g>
			<path d="M3160.261,1526.368l-7.881,12.604l-14.341,8.253l-44.449,24.044l-17.631,9.604l-65.763,17.314l12.132,22.233l-1.538,5.036l11.968-4.14l18.144,7.529l2.385,24.19l19.213,1.872l-14.505,8.804l19.213,8.839l5.329-2.675l27.896-17.769l9.911,0.085
				l13.497-8.725l2.326,3.111l21.486-9.82l27.841-27.343l22.898-12.442l37.696-33.431l4.143-11.215l-3.281-2.273l4.758-1.521l3.123-10.034l-9.762-8.514l-33.841-12.639l-24.378-19.383l-26.59,28.403z"/>
			<text transform="matrix(1 0 0 1 3124.1687 1588.2578)"><tspan x="0" y="0" style="fill:#000000;stroke:none;">96778</tspan></text>
		</g>
		<g>
			<path d="M2795.954,1595.562l-43.881,53.145l-20.127,31.6l-3.967,38.376l-16.784,12.138l13.893,14.921l17.057,9.589l6.923-0.24l-0.334-8.646l9.234-16.298l11.792-5.068l29.991-26.124l62.76,40.869l5.385,5.449l-9.979,8.396l2.092,1.966l28.638-6.445l21.542-20.909
				l9.923-3.243l-16.945-10.228l24.938-84.539l35.944-40.872l-55.447-17.607l-91.219,16.74l-7.881,13.737l-13.547-6.706z"/>
			<text transform="matrix(1 0 0 1 2829.2781 1666.7119)"><tspan x="0" y="0" style="fill:#000000;stroke:none;">96777</tspan></text>
		</g>
		<g>
			<path d="M2923.569,1228.662l-7.195,21.595l-11.004,9.548l-6.858,14.859l-2.716,20.821l-8.505,0.841l9.858,24.718l-19.274,4.336l-9.469-4.075l-9.58,5.476l-0.794,0.551l-57.99,38.534l1.02,3.65l-12.592,3.369l-3.521-4.412l1.708,31.884l-51.642,52.313
				l6.234,18.407l18.363,10.266l5.669,10.087l20.927,17.938l10.087,23.561l8.672,6.741l2.156-3.75l23.244,11.663l31.289-118.131l7.658-5.941l0.624-0.832l16.441-16.761l-3.231-22.913l-6.976-9.565l13.271,1.128l13.482-22.767l8.341-7.468l8.956,0.902l14.344-9.073
				l17.405-24.035l24.832-34.192l7.022-22.966l-60.258-26.306z"/>
			<text transform="matrix(1 0 0 1 2851.0779 1391.1221)"><tspan x="0" y="0" style="fill:#000000;stroke:none;">96776</tspan></text>
		</g>
		<g>
			<path d="M2898.001,1215.607l-32.373,41.423l-5.329,14.435l3,6.65l-9.639,13.096l-18.425-8.323l-4.418-13.146l-17.232-8.792l1.248,24.899l-34.641,61.937l13.77,6.94l-9.015,13.746l3.521,4.412l12.592-3.369l-1.02-3.65l57.99-38.534l0.794-0.551l9.58-5.476
				l9.469,4.075l19.274-4.336l-9.858-24.718l8.505-0.841l2.716-20.821l6.858-14.859l11.004-9.548l7.195-21.595l-25.567-13.055z"/>
			<text transform="matrix(1 0 0 1 2843.5369 1297.2461)"><tspan x="0" y="0" style="fill:#000000;stroke:none;">96775</tspan></text>
		</g>
		<g>
			<path d="M2983.826,1254.968l-7.022,22.966l6.858,0.416l10.438-18.179l-10.274-5.203z"/>
			<text transform="matrix(1 0 0 1 2977.1101 1269.6572)"><tspan x="0" y="0" style="fill:#000000;stroke:none;">96774</tspan></text>
		</g>
		<g>
			<path d="M3045.23,1298.28l-5.326,5.88l1.069,5.051l8.341-7.028l1.078-1.236l-4.368-3.516l-0.794,0.85z"/>
			<text transform="matrix(1 0 0 1 3034.136 1316.9888)"><tspan x="0" y="0" style="fill:#000000;stroke:none;">96773</tspan></text>
		</g>
		<g>
			<path d="M2696.53,1741.51l32.587,31.972l-3.173,2.871l-22.655,10.122l-3.929-1.661l-3.475-15.108l-13.658-17.763l-12.926,9.416l-37.588,27.363l12.636,14.449l2.666,10.84l16.163,8.074l29.763,5.016l21.653,18.782l19.506,6.34l21.369,15.404l3.185,15.832
				l11.44-4.916l16.228-11.956l7.535-15.68l11.733-0.006l3.352-15.457l22.784-29.224l-1.134-18l7.087-3.888l9.92-15.706l8.9-4.313l-1.304-4.638l4.813-4.043l-2.092-1.966l9.979-8.396l-5.385-5.449l-62.76-40.869l-29.991,26.124l-11.792,5.068l-9.234,16.298
				l0.334,8.646l-6.923,0.24l-17.057-9.589l-13.893-14.921l-14.666,10.69z"/>
			<text transform="matrix(1 0 0 1 2741.4607 1794.2061)"><tspan x="0" y="0" style="fill:#000000;stroke:none;">96772</tspan></text>
		</g>
		<g>
			<path d="M3040.129,1507.217l9.234-2.013l-4.644,4.418l3.006,3.349l6.073,2.836l4.579-3.861l15.489,17.399l4.134-3.601l8.276,8.798l-7.937,11.294l15.249,25.433l44.449-24.044l-27.894-43.471l2.268-6.935l-8.675-1.813l-15.144,4.983l-10.084-5.663l-5.789,4.233
				l-4.474-4.772l-28.119,13.43z"/>
			<text transform="matrix(1 0 0 1 3099.0496 1551.584)"><tspan x="0" y="0" style="fill:#000000;stroke:none;">96771</tspan></text>
		</g>
		<g>
			<path d="M1844.878,622.592l-8.227,21.062l32.314,6.343l57.771-2.543l32.944-6.214l5.725-5.704l-9.188-3.463l1.184-15.258l-13.594-2.402l-7.371-8.833l1.916-8.924l3.571,0.34l-1.693-10.356l-32.481-2.276l-16.444-10.538l-15.363,1.793l-8.733-3.539l-3.457,3.63
				l7.371,7.605l-2.552,14.783l-16.831,13.395l-6.861,11.101z"/>
			<text transform="matrix(1 0 0 1 1892.6863 614.0371)"><tspan x="0" y="0" style="fill:#000000;stroke:none;">96770</tspan></text>
		</g>
		<g>
			<path d="M2362.478,774.438l-9.24,14.628l22.626,5.88l1.644-6.747l4.978-0.595l8.505,8.391l1.644,13.025l44.112,26.566l1.356-3.844l-17.789-17.766l6.111-3.413l-5.947-9.483v-11.244l-25.564-21.179l0.51-9l-7.148-17.716l0.8,6.639l-8.628,1.225l-3.624,13.119
				l-14.344,11.514z"/>
			<text transform="matrix(1 0 0 1 2374.5759 782.0137)"><tspan x="0" y="0" style="fill:#000000;stroke:none;">96768</tspan></text>
		</g>
		<g>
			<path d="M592.073,102.039l3.062,4.33l-4.31,15.498l3.176,13.629l4.421,9.984l8.505,0.352l3.173,5.517l2.104,3.384l7.535-3.246l-3.911,5.578l4.591,2.739l-2.997,6.53l3.173,3.208l28.286,4.339l2.379,11.019l6.067,2.194l2.771-8.877l21.038-10.33l-1.189-9.398
				l-3.062,3.252l-2.666-3.498l3.539,0.659l0.091-4.184l11.906,0.788l0.686-18.478l-6.243-0.486l-13.556,2.13l-11.897-17.484l2.833-9.211l5.382,2.607l5.725-5.868l-10.482-7.857l-17.517-0.855l-1.307-5.382l-26.871,3.668l-21.656-4.875l1.304,6.067l-4.081,2.558z"/>
			<text transform="matrix(1 0 0 1 632.2908 143.2539)"><tspan x="0" y="0" style="fill:#000000;stroke:none;">96766</tspan></text>
		</g>
		<g>
			<path d="M2976.804,1277.934l-24.832,34.192l-1.696,10.251l4.134,14.933l14.514-4.784l1.359-7.535l24.946-9.595l25.802-27.144l4.02,1.433l3.287-4.775l6.691,6.744l-10.093-11.229l-30.835-20.253l-10.438,18.179l-6.858-0.416z"/>
			<text transform="matrix(1 0 0 1 2984.3083 1301.7402)"><tspan x="0" y="0" style="fill:#000000;stroke:none;">96764</tspan></text>
		</g>
		<g>
			<path d="M2002.361,780.651l16.219,21.141l-2.947,18.393l6.123,18.879l9.41,12l22.503-1.667l15.199-3.19l4.816,2.924l1.362-4.444l32.145-13.31l14.344-28.632l-13.5-22.172l-36.788-31.679l-52.723-9.671l-25.852,3.041l-13.67,8.663l-2.376,10.819l5.552,9.58
				l20.183,9.325z"/>
			<text transform="matrix(1 0 0 1 2040.738 798.1445)"><tspan x="0" y="0" style="fill:#000000;stroke:none;">96763</tspan></text>
		</g>
		<g>
			<path d="M1480.621,321.648l0.911,2.479l-3.299-3.838l-9.524,8.051l-5.153,24.832l9.753,14.842l3.905-13.538l12.422-14.177l3.577-8.897l-4.6,0.396l-7.992-10.148z"/>
			<text transform="matrix(1 0 0 1 1470.0408 347.1514)"><tspan x="0" y="0" style="fill:#000000;stroke:none;">96762</tspan></text>
		</g>
		<g>
			<path d="M2187.643,750.288l0.782,15.407l36.691,41.839l10.037-0.082l34.518,16.081l2.098-11.666l-9.352-16.471l0.674-10.441l-19.723-13.509l-0.173-8.364l9.524-3.155l-4.869-5.528l6.111-8.481l-3.735-4.696l-4.195-30.879l1.134-21.905l-2.613-6.724l-8.045-0.357
				l-3.905,5.713l-17.807-1.564l1.931,5.906l-7.21,4.793l-9.173-0.879l-17.071,44.9l4.371,10.063z"/>
			<text transform="matrix(1 0 0 1 2219.1794 755.4443)"><tspan x="0" y="0" style="fill:#000000;stroke:none;">96761</tspan></text>
		</g>
		<g>
			<path d="M3078.511,1494.326l10.084,5.663l15.144-4.983l8.675,1.813l-2.268,6.935l27.894,43.471l14.341-8.253l7.881-12.604l-35.32-41.719l-7.597-18.105l-38.833,27.782z"/>
			<text transform="matrix(1 0 0 1 3097.5496 1493.834)"><tspan x="0" y="0" style="fill:#000000;stroke:none;">96760</tspan></text>
		</g>
		<g>
			<path d="M1981.791,593.813l10.148,10.479l-12.762,6.246l2.218,4.462l-4.995,2.982l4.31,10.154l17.291-7.002l15.249,3.111l24.378-3.917l17.695,3.571l-9.524-13.781l-8.118,2.438l-2.429-13.315l-2.153,11.344l-6.299-9.621l-15.363,0.097l-6.747-5.341l-22.898-1.907
				z"/>
			<text transform="matrix(1 0 0 1 1998.7996 617.834)"><tspan x="0" y="0" style="fill:#000000;stroke:none;">96757</tspan></text>
		</g>
		<g>
			<path d="M583.964,174.848l2.666,13.392l2.323,8.153l12.021,0.691l25.058,9.779l26.136-19.55l5.159-0.22l-6.067-2.194l-2.379-11.019l-28.286-4.339l-3.173-3.208l2.997-6.53l-4.591-2.739l3.911-5.578l-7.535,3.246l-2.104-3.384l-1.421,8.455l-10.819,12.217
				l-5.962-1.957l-2.78-6.243l-0.905,2.484l-7.995-3.442l3.747,11.985z"/>
			<text transform="matrix(1 0 0 1 610.4294 182.1074)"><tspan x="0" y="0" style="fill:#000000;stroke:none;">96756</tspan></text>
		</g>
		<g>
			<path d="M2685.508,1120.492l-5.839,21.729l-11.326,10.998l41.719,62.019l9.973-6.668l-3.226-3.662l11.347-3.721l16.603,2.162l-4.705-5.771l8.391-37.254l-17.007-8.912l-0.51-9.645l-12.65-9.381l-32.769-11.895z"/>
			<text transform="matrix(1 0 0 1 2700.0496 1170.8652)"><tspan x="0" y="0" style="fill:#000000;stroke:none;">96755</tspan></text>
		</g>
		<g>
			<path d="M633.344,12.956l5.897-2.335l7.427,6.785l23.414,0.012l3.861,10.608l13.031-11.027l-7.942-6.595l-18.809-1.327l0.624-4.506l-7.037,0.29l-4.31-4.661l-2.725,4.002l-9.973,0.938l-3.46,7.816z"/>
			<text transform="matrix(1 0 0 1 648.0496 14.834)"><tspan x="0" y="0" style="fill:#000000;stroke:none;">96754</tspan></text>
		</g>
		<g>
			<path d="M2296.829,783.191l-6.352,20.443l11.171,11.531l14.915,8.912l2.827,24.152l5.675,12.489l10.087-1.975l19.163,5.341l-10.488-7.98l1.819-17.818l-7.828-7.74l8.502-5.42l11.112,2.49l11.168-6.419l1.362-6.047l-8.619-9.615l9.243,0.328l4.421-9.753
				l0.855-1.166l-22.626-5.88l-3.062,3.117l-6.009-6.803l-24.208,2.37l-23.13-4.559z"/>
			<text transform="matrix(1 0 0 1 2324.8298 826.6387)"><tspan x="0" y="0" style="fill:#000000;stroke:none;">96753</tspan></text>
		</g>
		<g>
			<path d="M486.742,39.54l-18.318,7.269l-4.988,6.003l-8.505,24.27l-21.713,18.272l-2.489,20.965l15.812,27.082l29.197,10.523l1.645-7.688l-4.361-4.025l7.648-12.003l11.963-8.933l8.725,28.497l3.633-0.469l0.053-5.414l-6.8-6.741l-0.17-6.612l6.293-12.223
				l11.282-7.447l0.624-9.504l-15.812-25.538l12.24-17.813l-0.226-5.496l-24.492-8.909l-1.242-4.066z"/>
			<text transform="matrix(1 0 0 1 465.1594 99.7334)"><tspan x="0" y="0" style="fill:#000000;stroke:none;">96752</tspan></text>
		</g>
		<g>
			<path d="M693.666,59.778l-4.485,13.289l12.536,6.056l7.022-5.722l0.75-9.835l-15.823-3.788z"/>
			<text transform="matrix(1 0 0 1 690.9929 72.4521)"><tspan x="0" y="0" style="fill:#000000;stroke:none;">96751</tspan></text>
		</g>
		<g>
			<path d="M2603.14,1533.194l-1.813,8.499l5.385,8.241l54.023-13.277l-1.02-16.4l-40.813,7.318l-15.762,5.619z"/>
			<text transform="matrix(1 0 0 1 2622.6882 1538.0957)"><tspan x="0" y="0" style="fill:#000000;stroke:none;">96750</tspan></text>
		</g>
		<g>
			<path d="M3117.344,1466.544l7.597,18.105l35.32,41.719l26.59-28.403l-11.057-7.553l-0.396-10.667l-6.797,0.179l-12.592-8.909l1.644-27.668l-7.081-16.611l-33.229,39.809z"/>
			<text transform="matrix(1 0 0 1 3131.2996 1472.084)"><tspan x="0" y="0" style="fill:#000000;stroke:none;">96749</tspan></text>
		</g>
		<g>
			<path d="M2059.964,604.185l-2.215,4.371l14.18,8.227l-2.388,9.519l-10.148,1.219l-4.069-3.618l-17.695-3.571l-24.378,3.917l-15.249-3.111l-17.291,7.002l-15.305,7.397l-5.725,5.704l29.865,3.612l33.059,14.801l59.924,13.333l6.521-4.828l14.965,0.469
				l26.306-11.156l30.791-23.177l9.973-13.515l4.755-11.44l-14.449,0.369l-1.025-7.843l-5.218-1.632l-12.636-1.383l-14.678,5.147l-4.995-4.31l-16.957,6.779l-18.023,1.187l-6.513-3.193l-3.747,3.302l-5.048-4.904l-4.875,4.972l-7.711-3.645z"/>
			<text transform="matrix(1 0 0 1 2083.5496 652.334)"><tspan x="0" y="0" style="fill:#000000;stroke:none;">96748</tspan></text>
		</g>
		<g>
			<path d="M512.477,52.516l0.226,5.496l-12.24,17.813l15.812,25.538l-0.624,9.504l-11.282,7.447l-6.293,12.223l0.17,6.612l6.8,6.741l0.861,7.597l-5.754,8.063l11.865,12.709l7.772-2.941l10.43-17.411l19.052-11.396l14.687-19.14l28.116-19.33l4.081-2.558
				l-1.304-6.067l-21.765-7.948l-4.485-12.284l-30.387-31.5l-25.737,10.834z"/>
			<text transform="matrix(1 0 0 1 538.7722 109.9697)"><tspan x="0" y="0" style="fill:#000000;stroke:none;">96747</tspan></text>
		</g>
		<g>
			<path d="M645.37,58.888l-6.185,8.93l-9.923-0.141l-13.775,14.382l-20.637,11.355l21.656,4.875l26.871-3.668l1.307,5.382l17.517,0.855l10.482,7.857l9.252-4.456l4.705,2.268l10.421-8.238l7.371-17.063l-2.716-2.104l-12.536-6.056l4.485-13.289l-48.296-0.891z"/>
			<text transform="matrix(1 0 0 1 641.2996 86.8018)"><tspan x="0" y="0" style="fill:#000000;stroke:none;">96746</tspan></text>
		</g>
		<g>
			<path d="M1502.738,414.909l2.997,7.313l0.053,0.372l0.855,2.18l17.692,31.351l8.953,4.705l3.894,4.298l-1.228,6.53l8.276,3.46l8.168,14.628l9.747,1.588l5.379-0.059l3.352-6.747l5.839,0.853l3.97-28.688v-0.082l-0.398,0.047l-0.062-0.36l-3.34,7.143l-9.694,3.686
				l-4.758-10.942l-4.433,2.435l-9.105-17.001l-15.396-5.692l0.639-10.822l-4.014-1.638l-1.972-10.119l10.125-2.801l-2.426-14.751l-6.097,7.852l-20.906,4.406l-6.111,6.858z"/>
			<text transform="matrix(1 0 0 1 1551.7996 479.084)"><tspan x="0" y="0" style="fill:#000000;stroke:none;">96744</tspan></text>
		</g>
		<g>
			<path d="M2710.062,1215.238l-41.101,22.166l9.926,15.507l-4.942,27.864l-12.864,4.649l-8.675,12.58l-5.215,1.213l0.284,4.433l-4.989,0.697l-2.777,4.934l2.438,5.191l-6.521,3.015l-3.062,8.807l13.89,1.74l26.47,20.101l4.831,12.747l11.276,9.87l14.569,23.613
				l10.887,8.44l-0.454,7.813l16.327,13.737l-2.555,16.389l7.21,11.924l51.642-52.313l-1.708-31.884l9.015-13.746l-13.77-6.94l34.641-61.937l-1.248-24.899l2.552-14.736l-15.932-9.015l-5.045-8.508l-4.538,3.853l-2.209-4.063l-6.401,7.723l-0.062-8.391
				l-15.138,1.342l0.97-5.253l9.574-2.024l-6.179-0.557l-3.97-5.675l-6.797,1.474l7.134-7.676l-22.787-6.094l-16.603-2.162l-11.347,3.721l3.226,3.662l-9.973,6.668z"/>
			<text transform="matrix(1 0 0 1 2716.0076 1329.9297)"><tspan x="0" y="0" style="fill:#000000;stroke:none;">96743</tspan></text>
		</g>
		<g>
			<path d="M2004.69,595.721l6.747,5.341l15.363-0.097l6.299,9.621l2.153-11.344l2.429,13.315l8.118-2.438l9.524,13.781l4.069,3.618l10.148-1.219l2.388-9.519l-14.18-8.227l2.215-4.371l-16.497-3.018l-7.881-18.117l-7.702-5.886l-5.842,3.457l-3.519,14.695
				l-13.834,0.404z"/>
			<text transform="matrix(1 0 0 1 2021.2996 593.084)"><tspan x="0" y="0" style="fill:#000000;stroke:none;">96742</tspan></text>
		</g>
		<g>
			<path d="M583.964,174.848l-9.75-0.073l-4.819,8.312l7.427,7.453l9.809-2.3l-2.666-13.392z"/>
			<text transform="matrix(1 0 0 1 569.6716 185.6582)"><tspan x="0" y="0" style="fill:#000000;stroke:none;">96741</tspan></text>
		</g>
		<g>
			<path d="M2584.601,1464.93l-4.529,5.153l0.223,0.179l0.741,0.029l0.255,0.229l1.157,1.849l14.915,31.503l-0.633,8.013l3.234,2.364l-2.777,5.004l4.248,2.859l1.705,11.083l15.762-5.619l-8.279-17.813l-7.482-47.889l-18.539,3.056z"/>
			<text transform="matrix(1 0 0 1 2591.1443 1500.5342)"><tspan x="0" y="0" style="fill:#000000;stroke:none;">96740</tspan></text>
		</g>
		<g>
			<path d="M2603.14,1461.874l-7.195-12.7l-6.076,2.32l-5.268,13.436l18.539-3.056z"/>
			<text transform="matrix(1 0 0 1 2585.5281 1460.0518)"><tspan x="0" y="0" style="fill:#000000;stroke:none;">96739</tspan></text>
		</g>
		<g>
			<path d="M1580.685,456.61v0.082l-3.97,28.688l-5.839-0.853l-3.352,6.747l-5.379,0.059l2.153,7.538l5.382,9.864l11.291,2.438l6.457-13.436l9.864-0.056l2.728-3.062l-3.299-3.062l6.475-1.418l0.22-6.688l7.427,0.243l-18.879-14.587l-2.892-8.449l3.914-4.421
				l-12.302,0.372z"/>
			<text transform="matrix(1 0 0 1 1582.5496 487.334)"><tspan x="0" y="0" style="fill:#000000;stroke:none;">96734</tspan></text>
		</g>
		<g>
			<path d="M2333.061,753.071l-19.849,3.498l-2.487,4.137l-4.831-4.67l-4.245,8.446l-6.299,2.423l1.479,16.286l23.13,4.559l22.336-21.952l1.582-10.816l-5.271-3.205l-5.546,1.295z"/>
			<text transform="matrix(1 0 0 1 2311.2712 772.7646)"><tspan x="0" y="0" style="fill:#000000;stroke:none;">96732</tspan></text>
		</g>
		<g>
			<path d="M1434.473,305.752l1.758,13.181l9.015,10.031l2.883,11.309l8.057,3.237l7.371,9.662l5.153-24.832l9.524-8.051l3.299,3.838l-0.911-2.479l1.983-4.479l-18.879-20.312l-10.257-1.685l-18.996,10.579z"/>
			<text transform="matrix(1 0 0 1 1450.1951 327.1738)"><tspan x="0" y="0" style="fill:#000000;stroke:none;">96731</tspan></text>
		</g>
		<g>
			<path d="M1514.014,386.591l-0.513,4.685l-11.276,7.236l0.513,16.397l6.111-6.858l20.906-4.406l6.097-7.852l-8.227-12.721l-6.015-1.749l-7.597,5.268z"/>
			<text transform="matrix(1 0 0 1 1510.696 401.1162)"><tspan x="0" y="0" style="fill:#000000;stroke:none;">96730</tspan></text>
		</g>
		<g>
			<path d="M1940.231,586.639l1.693,10.356l-3.571-0.34l-1.916,8.924l7.371,8.833l13.594,2.402l-1.184,15.258l9.188,3.463l15.305-7.397l-4.31-10.154l4.995-2.982l-2.218-4.462l12.762-6.246l-10.148-10.479l-41.561-7.175z"/>
			<text transform="matrix(1 0 0 1 1955.8445 614.0869)"><tspan x="0" y="0" style="fill:#000000;stroke:none;">96729</tspan></text>
		</g>
		<g>
			<path d="M3077.773,1332.631l0.788,7.717l-10.368,8.496l6.683,0.744l10.034-5.443l-2.663-1.91l3.463-2.2l-7.937-7.403z"/>
			<text transform="matrix(1 0 0 1 3075.9495 1354.8594)"><tspan x="0" y="0" style="fill:#000000;stroke:none;">96728</tspan></text>
		</g>
		<g>
			<path d="M2744.758,1203.35l22.787,6.094l-7.134,7.676l6.797-1.474l3.97,5.675l6.179,0.557l-9.574,2.024l-0.97,5.253l15.138-1.342l0.062,8.391l6.401-7.723l2.209,4.063l4.538-3.853l5.045,8.508l15.932,9.015l-2.552,14.736l17.232,8.792l4.418,13.146l18.425,8.323
				l9.639-13.096l-3-6.65l5.329-14.435l32.373-41.423l-13.614-5.959l-54.589-16.544l-22.002,4.146l-6.797-8.566l-17.071-4.849l-7.881-10.863l-27.604-12.647l-8.391,37.254l4.705,5.771z"/>
			<text transform="matrix(1 0 0 1 2810.6833 1228.7676)"><tspan x="0" y="0" style="fill:#000000;stroke:none;">96727</tspan></text>
		</g>
		<g>
			<path d="M2635.229,1690.618l0.618,22.605l-4.418,5.162l-0.226,18.653l-5.153,7.31l2.886,8.024l-4.195,4.242l6.973,32.106l37.588-27.363l-12.636-19.658l-9.36-49.096l3.343-41.449l-5.215-48.302l1.195-28.778l-12.249-14.915l3.683,6.381l-2.833,4.526
				l-11.458-6.621l-4.758,9.375l5.048,17.411l8.051,9.445l-3.398,7.705l8.777,12.144l6.475,24.773l-8.736,46.318z"/>
			<text transform="matrix(1 0 0 1 2637.0496 1766.834)"><tspan x="0" y="0" style="fill:#000000;stroke:none;">96726</tspan></text>
		</g>
		<g>
			<path d="M2544.464,1421.526l5.663,5.821l2.613,12.501l13.661,13.755l-5.616,2.142l0.686,8.663l18.823,5.854l-0.223-0.179l4.529-5.153l5.268-13.436l6.076-2.32l7.195,12.7l7.482,47.889l8.279,17.813l40.813-7.318l1.02,16.4l51.993-1.559l1.02,22.667l-19.494,0.668
				l13.43,19.359l10.374,24.583l64.975-23.188l21.935-39.519l-8.672-6.741l-10.087-23.561l-20.927-17.938l-5.669-10.087l-18.363-10.266l-6.234-18.407l-7.21-11.924l2.555-16.389l-16.327-13.737l0.454-7.813l-10.887-8.44l-14.569-23.613l-11.276-9.87l-4.831-12.747
				l-26.47-20.101l-13.89-1.74l-10.436,12.425l0.8,9.445l-28.863,3.902l-23.408,25.767l-14.065,8.417l-6.627,8.675l-5.499,26.602z"/>
			<text transform="matrix(1 0 0 1 2666.3728 1467.335)"><tspan x="0" y="0" style="fill:#000000;stroke:none;">96725</tspan></text>
		</g>
		<g>
			<path d="M588.335,17.061l3.284,2.965l9.179-1.468l9.524-9.138l-2.49-7.292L595.197,6.13l-0.126,8.209l-6.735,2.722z"/>
			<text transform="matrix(1 0 0 1 589.3928 10.3281)"><tspan x="0" y="0" style="fill:#000000;stroke:none;">96722</tspan></text>
		</g>
		<g>
			<path d="M2951.972,1312.126l-17.405,24.035l-14.344,9.073l-8.956-0.902l-8.341,7.468l-13.482,22.767l-13.271-1.128l6.976,9.565l3.231,22.913l-16.441,16.761l-0.624,0.832l-7.658,5.941l-31.289,118.131l42.179-24.876l29.487,7.063l60.193,49.811l16.96-3.996
				l-5.502-14.663l-22.96-26.191l1.084-19.195l24.026,22.365l64.295-30.683l28.119-13.43l4.474,4.772l5.789-4.233l38.833-27.782l33.229-39.809l-6.073-10.148l-6.75-1.585l-4.819,2.877l-11.326-3.56l-11.681,7.875l-1.479-3.27l-4.137,4.008l-10.093-2.054l1.02-28.726
				l-13.102-3.923l-9.46,3.135l-12.984-6.855l-44.051-3.938l-14.569-5.376l-18.425-0.073l-27.609,2.414l0.844-9.548l-3.621-11.543l3.621-8.73l-1.468-10.406l-4.134-14.933l1.696-10.251z"/>
			<text transform="matrix(1 0 0 1 2982.1257 1448.8545)"><tspan x="0" y="0" style="fill:#000000;stroke:none;">96720</tspan></text>
		</g>
		<g>
			<path d="M2638.914,1187.854l5.385,18.442l24.662,31.107l41.101-22.166l-41.719-62.019l11.326-10.998l5.839-21.729l-24.138-6.527l-19.623,9.261l-6.633,12.425l-2.777,19.266l6.577,32.938z"/>
			<text transform="matrix(1 0 0 1 2662.8572 1178.6846)"><tspan x="0" y="0" style="fill:#000000;stroke:none;">96719</tspan></text>
		</g>
		<g>
			<path d="M2804.966,1539.669l-21.935,39.519l-4.257,7.711l17.18,8.663l13.547,6.706l7.881-13.737l91.219-16.74l55.447,17.607l-35.944,40.872l-24.938,84.539l16.945,10.228l23.016-9.489l10.148-13.38l25.286-18.352l18.765-4.518l38.722,8.622l4.652-4.11
				l30.328-5.555l11.508-8.379l-5.329,2.675l-19.213-8.839l14.505-8.804l-19.213-1.872l-2.385-24.19l-18.144-7.529l-11.968,4.14l1.538-5.036l-12.132-22.233l-9.923-11.361l-11.628-0.188l-9.46-11.054l-16.96,3.996l-60.193-49.811l-29.487-7.063l-42.179,24.876
				l-23.244-11.663l-2.156,3.75z"/>
			<text transform="matrix(1 0 0 1 2979.0496 1652.084)"><tspan x="0" y="0" style="fill:#000000;stroke:none;">96718</tspan></text>
		</g>
		<g>
			<path d="M1473.309,368.014l17.461,18.1l-1.304,11.446l10.992,17.235l2.279,0.114l-0.513-16.397l11.276-7.236l0.513-4.685l1.421-12.132l-18.885-20.165l-6.914-13.995l-12.422,14.177l-3.905,13.538z"/>
			<text transform="matrix(1 0 0 1 1486.0281 380.6055)"><tspan x="0" y="0" style="fill:#000000;stroke:none;">96717</tspan></text>
		</g>
		<g>
			<path d="M592.073,102.039l-28.116,19.33l-14.687,19.14l-19.052,11.396l-10.43,17.411l-7.772,2.941l5.452,8.695l17.344,12.349l9.19-11.139l1.02-0.252l15.416-7.143l8.61-26.156l9.305-9.129l-0.8-15.337l17.581-17.777l-3.062-4.33z"/>
			<text transform="matrix(1 0 0 1 535.5496 169.334)"><tspan x="0" y="0" style="fill:#000000;stroke:none;">96716</tspan></text>
		</g>
		<g>
			<path d="M672.684,108.716l-5.725,5.868l-5.382-2.607l-2.833,9.211l11.897,17.484l13.556-2.13l4.764-3.794l-2.32-26.221l-4.705-2.268l-9.252,4.456z"/>
			<text transform="matrix(1 0 0 1 668.2996 129.584)"><tspan x="0" y="0" style="fill:#000000;stroke:none;">96715</tspan></text>
		</g>
		<g>
			<path d="M607.832,2.128l2.49,7.292l-9.524,9.138l-9.179,1.468l-3.284-2.965l-4.371-6.422l-12.926,0.141l-4.761-5.804l-17.52,0.319l-49.661,31.983l-12.354,2.262l1.242,4.066l24.492,8.909l25.737-10.834l30.387,31.5l4.485,12.284l21.765,7.948l20.637-11.355
				l13.775-14.382l9.923,0.141l6.185-8.93l-7.151-11.49l13.5,0.647l12.19-5.473l2.487-9.439l7.547-5.106l-3.861-10.608l-23.414-0.012l-7.427-6.785l-5.897,2.335l-2.892-7.433l-22.62-3.396z"/>
			<text transform="matrix(1 0 0 1 572.0007 50.7725)"><tspan x="0" y="0" style="fill:#000000;stroke:none;">96714</tspan></text>
		</g>
		<g>
			<path d="M2467.185,762.177l-13.594,33.891l-6.697,7.119l-2.268,19.298l3.123,10.269l30.384,15.483l14.625,0.097l6.012,3.7l3.463,27.486l-45.756,11.191l-5.218-7.729l-1.699,7.219l-5.273-3.709l-1.02,5.874l-8.215,1.263l-0.97,6.287l-0.226,10.857l6.287,10.283
				l29.194-11.32l11.402,4.324l15.193-2.845l2.777,4.383l18.539-12.926l7.881,0.123l8.561-5.936l8.168,2.813l9.911-2.994l4.485-10.21l9.694-6.062l5.953-1.286l12.981-14.262l5.159-25.755l-4.371-4.022l4.257-2.971l-13.21-16.128l-21.826-6.396l-8.9-1.251
				l-15.762-11.766l-16.099,2.183l-8.728-9.466l-0.747-9.771l-7.641,0.302l-1.479-4.685l-3.63,3.606l-8.391-0.56l-0.284-6.164l-16.049-9.841z"/>
			<text transform="matrix(1 0 0 1 2503.6052 844.6182)"><tspan x="0" y="0" style="fill:#000000;stroke:none;">96713</tspan></text>
		</g>
		<g>
			<path d="M1434.473,305.752l-25.74,22.269l-0.68,8.244l-24.378,20.909l2.218,4.632l-8.795,3.27l-0.51,4.878v2.833l7.421-0.375l-1.02,2.971l4.031-1.688l30.557,13.714l5.042,17.751l21.826-6.237l3.571,3.202l18.776-4.796l22.673,0.231l1.304-11.446l-17.461-18.1
				l-9.753-14.842l-7.371-9.662l-8.057-3.237l-2.883-11.309l-9.015-10.031l-1.758-13.181z"/>
			<text transform="matrix(1 0 0 1 1425.3367 358.4541)"><tspan x="0" y="0" style="fill:#000000;stroke:none;">96712</tspan></text>
		</g>
		<g>
			<path d="M3068.922,1324.302l2.558,3.064l-17.971,12.68l24.264-7.415l-5.561-9.961l-3.29,1.632z"/>
			<text transform="matrix(1 0 0 1 3040.6321 1331.6929)"><tspan x="0" y="0" style="fill:#000000;stroke:none;">96710</tspan></text>
		</g>
		<g>
			<path d="M2388.274,741.941l7.148,17.716l-0.51,9l25.564,21.179v11.244l5.947,9.483l-6.111,3.413l17.789,17.766l1.479-3.457l8.168,4.468l-3.123-10.269l2.268-19.298l6.697-7.119l13.594-33.891l1.084-3.188l-10.995-5.358l-0.686-5.446l-6.463-0.193l-0.844-8.44
				l-6.583-3.636l-9.803,1.146l-3.519-3.604l-5.728,2.941l-5.106-6.328l-12.979,3.463l-9.36-4.137l-10.368,6.173l2.438,6.372z"/>
			<text transform="matrix(1 0 0 1 2418.7087 784.0762)"><tspan x="0" y="0" style="fill:#000000;stroke:none;">96708</tspan></text>
		</g>
		<g>
			<path d="M1367.626,490.765l12.938,36.794l4.359,3.911l11.057,0.056l-1.477-17.007l9.146,7.673l10.526-9.94l4.594-1.189l-5.675-8.73l-0.677-12.316l-13.605,1.304l-11.282-17.563l-4.649,8.109l-15.255,8.9z"/>
			<text transform="matrix(1 0 0 1 1384.8542 505.6416)"><tspan x="0" y="0" style="fill:#000000;stroke:none;">96707</tspan></text>
		</g>
		<g>
			<path d="M1387.531,473.755l11.282,17.563l13.605-1.304l0.677,12.316l5.675,8.73l6.404,7.368l-6.129,2.892l0.234,5.669l37.242-6.803l4.307-4.535l-6.463-14.229l-22.11-5.499l1.31-4.406l-6.463-0.527l-1.359-4.137l4.14-1.078l-19.277-37.031l-20.353-6.68
				l-1.872,7.371l4.644,6.349l-5.889,8.795l0.396,9.176z"/>
			<text transform="matrix(1 0 0 1 1398.7996 483.083)"><tspan x="0" y="0" style="fill:#000000;stroke:none;">96706</tspan></text>
		</g>
		<g>
			<path d="M595.135,106.369l-17.581,17.777l0.8,15.337l-9.305,9.129l-8.61,26.156l-15.416,7.143l-0.656,0.173l-0.46,0.226l-1.661,4.395l9.524,6.349l27.264,5.698l9.92-2.358l-2.323-8.153l-9.809,2.3l-7.427-7.453l4.819-8.312l9.75,0.073l-3.747-11.985l7.995,3.442
				l0.905-2.484l2.78,6.243l5.962,1.957l10.819-12.217l1.421-8.455l-3.173-5.517l-8.505-0.352l-4.421-9.984l-3.176-13.629l4.31-15.498z"/>
			<text transform="matrix(1 0 0 1 579.0496 158.084)"><tspan x="0" y="0" style="fill:#000000;stroke:none;">96705</tspan></text>
		</g>
		<g>
			<path d="M2606.711,1549.935l0.677,8.953l16.383,4.559l11.458,6.621l2.833-4.526l-3.683-6.381l12.249,14.915l-1.195,28.778l5.215,48.302l-3.343,41.449l9.36,49.096l12.636,19.658l12.926-9.416l13.658,17.763l3.475,15.108l3.929,1.661l22.655-10.122l3.173-2.871
				l-32.587-31.972l14.666-10.69l16.784-12.138l3.967-38.376l20.127-31.6l43.881-53.145l-17.18-8.663l4.257-7.711l-64.975,23.188l-10.374-24.583l-13.43-19.359l19.494-0.668l-1.02-22.667l-51.993,1.559l-54.023,13.277z"/>
			<text transform="matrix(1 0 0 1 2692.989 1663.7881)"><tspan x="0" y="0" style="fill:#000000;stroke:none;">96704</tspan></text>
		</g>
		<g>
			<path d="M673.944,28.026l-7.547,5.106l-2.487,9.439l-12.19,5.473l-13.5-0.647l7.151,11.49l48.296,0.891l15.823,3.788l1.02-15.094l-8.227,0.557l2.326-6.117l-4.424-14.83l-11.115-5.619l-2.095-5.464l-13.031,11.027z"/>
			<text transform="matrix(1 0 0 1 675.0496 48.584)"><tspan x="0" y="0" style="fill:#000000;stroke:none;">96703</tspan></text>
		</g>
		<g>
			<path d="M1524.335,456.124l-16.333,3.788l-14.341,10.896l-8.566-5.443l-9.973,1.896l-6.067,13.641l12.926,5.273l-2.487,5.953l10.482-4.084l6.744,2.039l18.653-6.404l-3.237-5.499l-12.976,6.123l-6.123-2.607l14.341-10.409l25.91-10.456l-8.953-4.705z"/>
			<text transform="matrix(1 0 0 1 1474.7986 481.085)"><tspan x="0" y="0" style="fill:#000000;stroke:none;">96701</tspan></text>
		</g>
		<g>
			<g>
				<path d="M187.28,193.949l-6.684,4.904l-2.665,14.707l-6.634,7.192l-0.737,17.212l7.597,13.702l17.348,7.324l9.072-24.337l15.981-23.982l18.204-8.224l11.282,0.079l14.229-8.379l4.926-2.531l-5.663-16.4l4.195-15.794l7.144-12.138l7.824-4.037l-6.526-9.117
					l-13.998-0.135l-2.098-3.284l-11.792,5.977l-8.278,22.532l-35.546,16.913l-17.183,17.815z"/>
				<path d="M255.316,125.277l-2.886-0.765l0.845-6.601l2.779,3.765l4.371-2.461l-5.109,6.062z"/>
				<path d="M0.142,333.52L0.827,325l2.603,6.996l-3.289,1.523z"/>
			</g>
			<g style="fill:#000000;stroke:none;">
				<text transform="matrix(1 0 0 1 65.7996 195.083)"><tspan x="0" y="0">96769</tspan></text>
				<path d="M89.763,194.768l83.5,1"/>
				<path d="M70.263,200.268l-64,115.5"/>
			</g>
		</g>
	</g>
</svg>
