<?xml version="1.0" encoding="iso-8859-1"?>
<!DOCTYPE svg PUBLIC "-//W3C//DTD SVG 20000303 Stylable//EN"   "http://www.w3.org/TR/2000/03/WD-SVG-20000303/DTD/svg-20000303-stylable.dtd">
<!-- Generator: Adobe Illustrator 9.0, SVG Export Plug-In  -->
<svg  width="3381.698pt" height="4761.59pt" viewBox="0 0 3381.698 4761.59" xml:space="preserve">
	<g id="Numbers" style="fill-rule:nonzero;clip-rule:nonzero;fill:#FFFFFF;stroke:#000000;stroke-width:0.25;stroke-miterlimit:4; font-family:'ArialMT'; font-size:12;">
		<g>
			<path style="stroke-miterlimit:1;" d="M3237.913,747.38l-5.725,5.921l7.084,8.845l1.875,10.746l-0.568,33.404l9.691,10.204l-15.984,5.716l-1.137,5.44l12.533,28.028l-10.318,10.816l4.195,6.398l-1.137,7.075l7.43,9.252l0.735,6.598l-6.806,7.143l6.861,24.97
				l-2.549,4.896l7.482,5.851l12.645-4.286l5.098-6.735l23.191,3.744l6.574-9.457l14.912-4.966l16.893,7.277l5.045-1.222l4.482-12.586l16.383-2.994l22.734,18.979l1.078-205.046l-23.587,16.805l-8.561-0.545l-43.087-12.721l-12.188-8.774l-2.947,7.89l-31.582-11.566
				l-1.415,20.818l-10.093,14.15l-9.24-0.067z"/>
			<text transform="matrix(1 0 0 1 3289.7188 828.582)"><tspan x="0" y="0" style="fill:#000000;stroke:none;">89883</tspan></text>
		</g>
		<g>
			<path style="stroke-miterlimit:1;" d="M2890.388,271.637l-33.337,14.016l9.073,10.611l1.301,16.603l7.371,3.876l-0.964,23.197l21.431-5.033l-17.859,14.558l5.329,35.241l-4.31,14.968l-5.725-3.401l11.452,6.938l-14.569,6.325l-2.268,4.356l3.738,2.039
				l-4.078-0.27l10.318,0.814l-14.742,4.491l-5.725,10.002l-27.498,4.081l-9.639,10.271l-4.705,17.077l0.68,18.369l5.73,8.707l9.352-1.635l6.182,8.027l-0.229,22.315l10.658,2.654l-5.895,29.186l-1.532,39.797l9.413,5.238h-2.78l0.396,20.889l13.893-0.208
				l-2.836,8.777l0.34,128.988l-41.499,94.222l8.505,34.767l-32.941,19.661l-24.773,8.435l-9.864-18.097l-0.51-82.386l-9.806,4.966l-19.901-3.876l-17.405-22.655l-11.168,18.571l-5.953,0.067l-0.908,5.786l7.77,5.168l-2.777,31.295l-10.037,13.063l-13.664,4.963
				l-14.625,31.362l-23.695,25.037l0.053,20.206l-10.541,19.594l-6.07,0.475l-20.578,58.031l-24.888,11.974l-6.747,39.595l-12.586,27.278l-9.07,10.274l-5.783,20.886l8.109,5.443l5.613,20.273l-1.078,10.409l-11.396,3.331l-6.861,9.659l-3.855,14.019l2.607,34.626
				l-7.878,28.301l-11.341,9.39l1.875,7.482l22.336,0.138l20.807-32.382l4.816-38.101l19.957-58.301l37.646,17.417l19.33-13.746l12.018-2.584l3.064,4.966l-11.341,9.727l36.343,17.35l4.477-23.742l11.906,10.749l-1.078,14.15l25.852-13.198l1.928,25.922
				l-5.159,14.558l10.034,5.238l19.846-1.225l20.918,46.327l8.842,10.887l20.355,9.659l204.604,1.093l375.932,2.719l1.418-356.282l-22.734-18.979l-16.383,2.994l-4.482,12.586l-5.045,1.222l-16.893-7.277l-14.912,4.966l-6.574,9.457l-23.191-3.744l-5.098,6.735
				l-12.645,4.286l-7.482-5.851l2.549-4.896l-6.861-24.97l6.806-7.143l-0.735-6.598l-7.43-9.252l1.137-7.075l-4.195-6.398l10.318-10.816l-12.533-28.028l1.137-5.44l15.984-5.716l-9.691-10.204l0.568-33.404l-1.875-10.746l-7.084-8.845l5.725-5.921l-27.609-12.721
				l-18.765,7.348l-83.001,83.88l-10.541,5.106l-14.458,32.177l-15.138,0.817l-2.209-8.37l-6.633-1.904l-25.969-31.702l8.051,1.292l9.697-21.088l-8.335-46.468l4.875-4.216l-9.864-6.19l-7.652-15.378l2.153-38.572l-5.329-42.791l23.982-17.555l2.777-9.387
				l-4.084-7.008l3.404-5.373l-1.986-10.682l7.143-15.308l-6.404-13.878l9.92-14.763l-9.41-10.409h-24.152l-5.104-11.227l-0.791-19.456l-4.535-5.985l3.627-11.499l-21.146,1.43l-24.718-5.306l-11.054,5.235l-14.458-6.46l-13.89,2.312l3.855-34.969l12.472-26.531
				l26.306-28.843l-1.474-17.282l-8.733-55.854l-7.313-14.08l-7.652-33.747l-5.215,0.75l-12.527-21.905l-12.984-7.005l-13.436,11.971l-19.219,5.851z"/>
			<text transform="matrix(1 0 0 1 2929.4902 771.2656)"><tspan x="0" y="0" style="fill:#000000;stroke:none;">89835</tspan></text>
		</g>
		<g>
			<path style="stroke-miterlimit:1;" d="M1693.657,394.435l11.279,2.991l2.777,10.816l11.285,11.024l-8.168,8.095l20.297,8.162l10.266,10.137l-2.78,7.28l15.647,5.985l5.499,9.8l22.392-4.424l7.825,10.069l-4.022,4.354l-1.025,24.22l9.018,5.578l9.41-2.247
				l3.571,8.165l9.806,4.491l-16.213,19.729l-8.786-0.135l-25.682,20.001l-72.343,23.13l-0.281,100.072l244.688-0.067l161.631,0.205l-4.875-35.921l14.344-9.932l-11.965-31.16l8.959-12.313l-0.68-23.47l6.574-3.539l23.191,11.977l11.903-1.365l15.759-1.292
				l3.006-19.113l-4.365-6.396l-3.967-38.643l9.469-13.881l13.717-1.292l6.352-6.393l1.928-4.831l-6.352-13.061l9.015-14.086l-12.53,1.84l-14.057-14.9l-34.98-17.007l-6.123,9.319l-4.482-1.427l0.908,3.943l-15.193,3.334l8.505,8.71l-13.72,15.1l11.282,17.215
				l-19.163-1.43l-9.012-8.3l-2.777-9.932l6.973-20.546l-5.9-9.659l-8.502-2.517l-4.986-10.342l-9.357,2.177l-21.088,20.818l-35.83-8.165l-22.564,13.743l-4.025,9.932l-8.051-4.491l-16.781,5.036l-5.953-7.008l-12.472,0.612l0.226,11.361l-10.711-0.478
				l-9.416,24.902l6.293,3.059l-34.922,14.016l9.753-13.333l-2.382-38.303l12.246-22.79l-21.205-17.212l-24.094-55.107l5.842-8.092l1.301-18.981l-15.193-6.94l-44.786,1.359l-32.314-13.808l-58.28,14.558l-4.989,6.53l1.813,6.19l-8.391,8.367l-8.73-2.789
				l-0.281,48.712z"/>
			<text transform="matrix(1 0 0 1 1920.5176 593.2256)"><tspan x="0" y="0" style="fill:#000000;stroke:none;">89834</tspan></text>
		</g>
		<g>
			<path style="stroke-miterlimit:1;" d="M2537.021,1275.236l260.561,3.671l-20.355-9.659l-8.842-10.887l-20.918-46.327l-19.846,1.225l-10.034-5.238l5.159-14.558l-1.928-25.922l-25.852,13.198l1.078-14.15l-11.906-10.749l-4.477,23.742l-36.343-17.35l11.341-9.727
				l-3.064-4.966l-12.018,2.584l-19.33,13.746l-37.646-17.417l-19.957,58.301l-4.816,38.101l-20.807,32.382z"/>
			<text transform="matrix(1 0 0 1 2650.6191 1215.6816)"><tspan x="0" y="0" style="fill:#000000;stroke:none;">89833</tspan></text>
		</g>
		<g>
			<path style="stroke-miterlimit:1;" d="M1693.54,2.029l0.398,343.693l8.73,2.789l8.391-8.367l-1.813-6.19l4.989-6.53l58.28-14.558l32.314,13.808l44.786-1.359l15.193,6.94l-1.301,18.981l-5.842,8.092l24.094,55.107l21.205,17.212l-12.246,22.79l2.382,38.303
				l-9.753,13.333l34.922-14.016l-6.293-3.059l9.416-24.902l10.711,0.478l-0.226-11.361l12.472-0.612l5.953,7.008l16.781-5.036l8.051,4.491l4.025-9.932l22.564-13.743l35.83,8.165l21.088-20.818l9.357-2.177l4.986,10.342l8.502,2.517l5.9,9.659l-6.973,20.546
				l2.777,9.932l9.012,8.3l19.163,1.43l-11.282-17.215l13.72-15.1l-8.505-8.71l15.193-3.334l-0.908-3.943l4.482,1.427l6.123-9.319l34.98,17.007l14.057,14.9l12.53-1.84l16.386-4.351l7.313-50.139l-4.594-62.32l-6.803-17.142l-4.084-0.135l-12.188-17.824l0.114-7.893
				l-8.505-1.292l-15.533,9.252l-10.318,0.205l-4.365-11.294l-3.797-34.969l2.947-19.119l15.645-18.639l3.006-11.156l-0.961-39.188l-17.01-43.266l-10.318-14.561l90.539,0.202l-0.791,3.879l13.037,11.704l-13.664,9.319l-8.391-0.747l-4.875,7.688l35.379,5.373
				l1.869,6.94l-4.535,2.719l33.105,16.805l8.733-10.749l9.976-2.994l-0.961-3.129l13.664,3.264l12.697-6.87l15.932,5.238l28.23-4.896l16.33,6.87l2.326-11.294l7.424,0.885l8.221-9.39l8.279-10.137l-6.861-25.441l3.176-13.063l-10.547-25.102l2.326-14.698
				l6.858-11.563l0.114-5.511l-11.906-13.743l7.257-21.088l-708.097-1.77z"/>
			<text transform="matrix(1 0 0 1 2035.6953 257.0527)"><tspan x="0" y="0" style="fill:#000000;stroke:none;">89832</tspan></text>
		</g>
		<g>
			<path style="stroke-miterlimit:1;" d="M2402.94,144.146l-8.221,9.39l-7.424-0.885l-2.326,11.294l-16.33-6.87l-28.23,4.896l-15.932-5.238l-12.697,6.87l-13.664-3.264l0.961,3.129l-9.976,2.994l-8.733,10.749l-33.105-16.805l4.535-2.719l-1.869-6.94l-35.379-5.373
				l4.875-7.688l8.391,0.747l13.664-9.319l-13.037-11.704l0.791-3.879l-90.539-0.202l10.318,14.561l17.01,43.266l0.961,39.188l-3.006,11.156l-15.645,18.639l-2.947,19.119l3.797,34.969l4.365,11.294l10.318-0.205l15.533-9.252l8.505,1.292l-0.114,7.893
				l12.188,17.824l4.084,0.135l6.803,17.142l4.594,62.32l-7.313,50.139l24.035-5.786l14.455,7.011l23.244-1.225l3.516-4.151l4.535,5.851l13.324-4.969l7.652,7.761l27.557,8.229l3.908-11.701l-7.198-12.246l2.212-19.661l-3.064-5.578l5.218-19.116l-6.633-5.713
				l-3.231-11.909l7.767-19.934l1.304-38.165l3.006-8.297l13.547-7.688l-12.697-13.131l1.646-19.254l34.922-16.122l2.777-5.988h16.324l-1.131,5.511l8.789-17.757l-1.758-11.631l4.646-8.982l23.355-6.53l10.945-3.879l6.519-14.288l-15.987-15.984l2.666-11.769
				l-15.533-8.098l-5.842-13.471z"/>
			<text transform="matrix(1 0 0 1 2271.4824 292.4287)"><tspan x="0" y="0" style="fill:#000000;stroke:none;">89831</tspan></text>
		</g>
		<g>
			<path style="stroke-miterlimit:1;" d="M2977.467,385.657l1.474,17.282l-26.306,28.843l-12.472,26.531l-3.855,34.969l13.89-2.312l14.458,6.46l11.054-5.235l24.718,5.306l21.146-1.43l-3.627,11.499l4.535,5.985l0.791,19.456l5.104,11.227h24.152l9.41,10.409
				l-9.92,14.763l6.404,13.878l-7.143,15.308l1.986,10.682l-3.404,5.373l4.084,7.008l-2.777,9.387l-23.982,17.555l5.329,42.791l-2.153,38.572l7.652,15.378l9.864,6.19l-4.875,4.216l8.335,46.468l-9.697,21.088l-8.051-1.292l25.969,31.702l6.633,1.904l2.209,8.37
				l15.138-0.817l14.458-32.177l10.541-5.106l83.001-83.88l18.765-7.348l27.609,12.721l9.24,0.067l10.093-14.15l1.415-20.818l31.582,11.566l2.947-7.89l12.188,8.774l43.087,12.721l8.561,0.545l23.587-16.805l0.961-457.509l-21.205-6.258l-11.733-15.583
				l-45.243-4.623l-15.586-8.572l-14.684-15.513l-17.918,0.275l-11.168,8.297l-16.102-21.973l-30.785,4.898l-0.961-13.948l-4.649-1.767l1.134,9.592l-9.809,21.293l-22.564,24.765l-2.098,7.075l4.084,9.592l-4.424,5.716l-2.098,20.681l-7.482-0.478l-29.818,18.302
				l-13.948,20.408l-3.343,13.605l-18.996,12.111l-8.783,11.974l-51.879,33.812l-22.049,0.202l-21.999-12.108z"/>
			<text transform="matrix(1 0 0 1 3142.2559 529.5518)"><tspan x="0" y="0" style="fill:#000000;stroke:none;">89830</tspan></text>
		</g>
		<g>
			<path style="stroke-miterlimit:1;" d="M2618.542,964.127l-3.059-5.508l13.151-13.813l-1.872-18.164l-52.553-23.197l-14.402-24.015v-13.881l-40.816-18.776l-38.947,2.449l-9.357-14.83l-16.213-6.601l-13.154,30.888l-10.939-0.064l-0.794,11.086l-6.12,3.062
				l6.686,6.533l-9.92,10.611l-3.686,12.858l9.469,28.096l18.65,17.417l14.912,26.121l4.705,20.546l-2.889,37.216l6.176,12.721l-8.842,32.859l6.006,13.4l-0.34,9.662l24.211,25.922l20.238-11.227l24.604,0.407l11.227-4.626l9.07-10.274l12.586-27.278l6.747-39.595
				l24.888-11.974l20.578-58.031z"/>
			<text transform="matrix(1 0 0 1 2505.9102 980.2578)"><tspan x="0" y="0" style="fill:#000000;stroke:none;">89828</tspan></text>
		</g>
		<g>
			<path style="stroke-miterlimit:1;" d="M2401.637,3.799l-7.257,21.088l11.906,13.743l-0.114,5.511l-6.858,11.563l-2.326,14.698l10.547,25.102l-3.176,13.063l6.861,25.441l-8.279,10.137l5.842,13.471l15.533,8.098l-2.666,11.769l15.987,15.984l-6.519,14.288
				l-10.945,3.879l14.742,1.225l6.352,7.008l15.873-20.001l2.326-9.524l23.807-0.952l2.836-8.643l18.768-11.836l17.856,17.347l-0.68,4.151l3.173-0.952l1.816,9.797l17.42,29.109l3.879-8.098l8.35-13.731l6.803-2.792l-2.607-10.274l6.521-9.454l-0.229-7.348
				l12.475-10.746l-9.07-8.165l-2.045-11.429l-7.992-5.104l6.803-4.286l4.652-18.097l7.084-1.77l11.338-19.184l25.74,53.2l1.813,14.897l-5.558,9.797l2.895,11.432l-4.025,11.156l4.591,9.457l25.685-13.336l4.758-19.187l42.463,6.735l19.219,13.266l66.955-0.27
				l11.057,4.148l16.951-31.564l24.943-12.246l-0.905-11.294l5.329-6.735l5.156-36.463l11.854-19.187l13.148-8.3l-5.666-18.231l-8.505-8.982l10.146-32.517l-5.385-10.614l-451.444,0.75z"/>
			<text transform="matrix(1 0 0 1 2611.7539 118.707)"><tspan x="0" y="0" style="fill:#000000;stroke:none;">89826</tspan></text>
		</g>
		<g>
			<path style="stroke-miterlimit:1;" d="M2786.015,199.183l0.51,7.418l22.453,15.032l13.207,5.171l2.438-4.081l20.807,4.626l5.953,18.097l10.148,3.809l6.521,12.926l22.336,9.457l19.219-5.851l13.436-11.971l12.984,7.005l12.527,21.905l5.215-0.75l7.652,33.747
				l7.313,14.08l8.733,55.854l21.999,12.108l22.049-0.202l51.879-33.812l8.783-11.974l18.996-12.111l3.343-13.605l13.948-20.408l29.818-18.302l7.482,0.478l2.098-20.681l4.424-5.716l-4.084-9.592l2.098-7.075l22.564-24.765l9.809-21.293l-1.134-9.592l4.649,1.767
				l0.961,13.948l30.785-4.898l16.102,21.973l11.168-8.297l17.918-0.275l14.684,15.513l15.586,8.572l45.243,4.623l11.733,15.583l21.205,6.258l-0.621-257.977l-315.498-0.542l-131.982-5.238l-80.391,2.924l5.385,10.614L2848.32,46.18l8.505,8.982l5.666,18.231
				l-13.148,8.3l-11.854,19.187l-5.156,36.463l-5.329,6.735l0.905,11.294l-24.943,12.246l-16.951,31.564z"/>
			<text transform="matrix(1 0 0 1 3067.1094 201.9453)"><tspan x="0" y="0" style="fill:#000000;stroke:none;">89825</tspan></text>
		</g>
		<g>
			<path style="stroke-miterlimit:1;" d="M2573.36,710.1l48.756,27.688l36.621,5.238l9.753-27.823l25.966-22.928l11.792-22.248l0.114-9.114l-13.723-3.741l-21.316-24.425l-56.807,32.452l-15.929,14.763l-14.399,24.082l-10.828,6.056z"/>
			<text transform="matrix(1 0 0 1 2623.1797 690.8867)"><tspan x="0" y="0" style="fill:#000000;stroke:none;">89824</tspan></text>
		</g>
		<g>
			<path style="stroke-miterlimit:1;" d="M2708.003,195.304l-4.248,1.362l1.301,6.87l-11.394,7.213l4.649,2.859l-3.686,5.033l-17.971-3.199l-1.137,27.416l-7.881,5.036l-3.797-5.854l-4.365,8.572l4.254,22.793l-9.018,1.09l-8.502,7.752l-9.354-0.272l-1.474,9.527
				l-10.09,2.927l-9.697,10.204l6.407,12.788l-5.101,8.777l0.85,9.319l-12.586,10.409l-2.666,7.553l6.973,15.779l-10.031,13.881l-2.895,14.897l3.176,28.233l-3.686,13.198l-5.104,4.014l14.631,11.634l5.385,16.192l9.24,5.713l1.983,6.463l-13.04,23.133
				l-21.598,2.994l-4.535,7.277l-9.583,2.859l-11.563-7.553l-1.248-7.553l-11.455-9.932l-8.048-28.506l-14.288,14.423l-17.517-15.715l-14.569,5.309l-25.682-7.213l-13.893,2.789l-17.121,12.246l-12.527-6.53l1.418,9.319l11.279,2.449l-0.621,5.716l-8.9,15.032
				l-12.53,11.634l-11.282,2.587l-5.895,10.069l6.633,2.106l1.471,14.695l16.5,23.54l-0.624,14.558l5.101,5.104l20.525-11.566l37.699,31.295l15.533,18.914l30.557,18.504l-1.928,27.756l5.953,0.612l2.438,10.816l-3.797,31.702l38.326-6.258l10.828-6.056
				l14.399-24.082l15.929-14.763l56.807-32.452l21.316,24.425l13.723,3.741l-0.114,9.114l-11.792,22.248l-25.966,22.928l-9.753,27.823l2.326,24.354l5.159,8.3l10.658,2.244l14.798-7.55l12.299,6.735l6.182,11.429l17.405,22.655l19.901,3.876l9.806-4.966l0.51,82.386
				l9.864,18.097l24.773-8.435l32.941-19.661l-8.505-34.767l41.499-94.222l-0.34-128.988l2.836-8.777l-13.893,0.208l-0.396-20.889h2.78l-9.413-5.238l1.532-39.797l5.895-29.186l-10.658-2.654l0.229-22.315l-6.182-8.027l-9.352,1.635l-5.73-8.707l-0.68-18.369
				l4.705-17.077l9.639-10.271l27.498-4.081l5.725-10.002l14.742-4.491l-10.318-0.814l4.078,0.27l-3.738-2.039l2.268-4.356l14.569-6.325l-11.452-6.938l5.725,3.401l4.31-14.968l-5.329-35.241l17.859-14.558l-21.431,5.033l0.964-23.197l-7.371-3.876l-1.301-16.603
				l-9.073-10.611l33.337-14.016l-22.336-9.457l-6.521-12.926l-10.148-3.809l-5.953-18.097l-20.807-4.626l-2.438,4.081l-13.207-5.171l-22.453-15.032l-0.51-7.418l-11.057-4.148l-66.955,0.27z"/>
			<text transform="matrix(1 0 0 1 2630.4336 555.8105)"><tspan x="0" y="0" style="fill:#000000;stroke:none;">89823</tspan></text>
		</g>
		<g>
			<path style="stroke-miterlimit:1;" d="M2099.747,681.866l81.41,0.135l0.17,226.887l88.951,366.688l19.957-0.07l74.098-0.202l41.895-0.34l13.664-68.646l1.418-64.491l-10.658-14.833l-21.996,4.966l-18.598-3.943l7.939-14.625l-0.68-11.977l4.025-0.545
				l-7.146-2.379l3.46-8.37l24.545-8.707l-4.931-4.828l3.231-1.772l-34.242-5.713l-9.75-12.448l-27.668-9.864l-9.299-11.839l-4.875-15.035l6.633-31.362l-17.007-19.729l1.415-13.608l-4.928-5.646l11.109-21.568l-28.23-13.195l-0.568-10.342l17.232-19.184
				l-3.117-15.445l-2.209-3.674l-15.311,10.342l-11.678-2.177l-1.699-5.036l-2.382-7.685l10.658-1.702l1.022-14.695l13.717-1.02l3.404-5.511l-10.717-6.258l-10.998-16.192l-19.16-8.912l23.695-34.081l2.326-23.678l14.001-15.984l-2.552-31.025l5.895-21.771
				l15.592-21.838l-11.619-17.279l-21.715-13.605l0.451-13.266l-7.313-13.198l3.404-2.654l-13.324-9.185l-2.607-8.095l-16.951-1.02l-21.715,9.592l-26.191-6.601l-23.355,8.979l-22.679-16.465l-11.903,1.365l-23.191-11.977l-6.574,3.539l0.68,23.47l-8.959,12.313
				l11.965,31.16l-14.344,9.932l4.875,35.921z"/>
			<text transform="matrix(1 0 0 1 2241.4063 923.5537)"><tspan x="0" y="0" style="fill:#000000;stroke:none;">89822</tspan></text>
		</g>
		<g>
			<path style="stroke-miterlimit:1;" d="M1938.116,681.661l-0.17,36.328l-5.502,0.34l-0.565,503.162l-1.304,90.413l5.499,1.157l-0.056,80.479l37.699,7.825l9.58,17.417l3.855,18.914l12.756,11.836l8.619,2.109l1.986-6.126l28.289-19.661l-0.34-22.72l64.57-11.566
				l44.165-39.864l14.511,6.463l16.16,0.205l3.797-8.37l28.008-10.137l3.855-16.6l13.547-12.929l0.457-12.24l29.367-1.84l6.516-3.536l1.195-6.126l14.854-2.651l10.77-8.438l-19.957,0.07l-88.951-366.688l-0.17-226.887l-81.41-0.135l-161.631-0.205z"/>
			<text transform="matrix(1 0 0 1 2093.7207 1069.6514)"><tspan x="0" y="0" style="fill:#000000;stroke:none;">89821</tspan></text>
		</g>
		<g>
			<path style="stroke-miterlimit:1;" d="M1693.429,681.729V816.5l-0.111,108.305l-129.316,0.407l-30.56,79.125l-59.188,154.157l20.525-9.457l5.555,16.532l-1.248,9.524l8.332,14.08l41.9,21.908l8.561,11.294l0.451,8.704l10.09,8.03l70.02,21.495l8.842-18.026
				l0.568-16.667l12.527-7.075l28.066,3.199l13.775-8.027l15.932,6.053l22.336-3.334l24.375,8.572l5.332,6.533l23.979-8.098l16.216,5.511l4.535,6.258l26.42-4.761l34.465,2.654l22.283-9.662l10.6,0.75l3.006-10.274l20.183,7.28l0.565-503.162l5.502-0.34l0.17-36.328
				l-244.688,0.067z"/>
			<text transform="matrix(1 0 0 1 1689.5029 974.1348)"><tspan x="0" y="0" style="fill:#000000;stroke:none;">89820</tspan></text>
		</g>
		<g>
			<path style="stroke-miterlimit:1;" d="M2548.341,220.265l-3.879,8.098l-17.42-29.109l-1.816-9.797l-3.173,0.952l0.68-4.151l-17.856-17.347l-18.768,11.836l-2.836,8.643l-23.807,0.952l-2.326,9.524l-15.873,20.001l-6.352-7.008l-14.742-1.225l-23.355,6.53
				l-4.646,8.982l1.758,11.631l-8.789,17.757l1.131-5.511h-16.324l-2.777,5.988l-34.922,16.122l-1.646,19.254l12.697,13.131l-13.547,7.688l-3.006,8.297l-1.304,38.165l-7.767,19.934l3.231,11.909l6.633,5.713l-5.218,19.116l3.064,5.578l-2.212,19.661l7.198,12.246
				l-3.908,11.701l-27.557-8.229l-7.652-7.761l-13.324,4.969l-4.535-5.851l-3.516,4.151l-23.244,1.225l-14.455-7.011l-24.035,5.786l-16.386,4.351l-9.015,14.086l6.352,13.061l-1.928,4.831l-6.352,6.393l-13.717,1.292l-9.469,13.881l3.967,38.643l4.365,6.396
				l-3.006,19.113l-15.759,1.292l22.679,16.465l23.355-8.979l26.191,6.601l21.715-9.592l16.951,1.02l2.607,8.095l13.324,9.185l-3.404,2.654l7.313,13.198l-0.451,13.266l21.715,13.605l11.619,17.279l-15.592,21.838l-5.895,21.771l2.552,31.025l-14.001,15.984
				l-2.326,23.678l-23.695,34.081l19.16,8.912l10.998,16.192l10.717,6.258l-3.404,5.511l-13.717,1.02l-1.022,14.695l-10.658,1.702l2.382,7.685l1.699,5.036l11.678,2.177l15.311-10.342l2.209,3.674l3.117,15.445l-17.232,19.184l0.568,10.342l28.23,13.195
				l-11.109,21.568l4.928,5.646l-1.415,13.608l17.007,19.729l-6.633,31.362l4.875,15.035l9.299,11.839l27.668,9.864l9.75,12.448l34.242,5.713l-3.231,1.772l4.931,4.828l-24.545,8.707l-3.46,8.37l7.146,2.379l-4.025,0.545l0.68,11.977l-7.939,14.625l18.598,3.943
				l21.996-4.966l10.658,14.833l-1.418,64.491l-13.664,68.646l108.457,0.135l-1.875-7.482l11.341-9.39l7.878-28.301l-2.607-34.626l3.855-14.019l6.861-9.659l11.396-3.331l1.078-10.409l-5.613-20.273l-8.109-5.443l5.783-20.886l-11.227,4.626l-24.604-0.407
				l-20.238,11.227l-24.211-25.922l0.34-9.662l-6.006-13.4l8.842-32.859l-6.176-12.721l2.889-37.216l-4.705-20.546l-14.912-26.121l-18.65-17.417l-9.469-28.096l3.686-12.858l9.92-10.611l-6.686-6.533l6.12-3.062l0.794-11.086l10.939,0.064l13.154-30.888
				l16.213,6.601l9.357,14.83l38.947-2.449l40.816,18.776v13.881l14.402,24.015l52.553,23.197l1.872,18.164l-13.151,13.813l3.059,5.508l6.07-0.475l10.541-19.594l-0.053-20.206l23.695-25.037l14.625-31.362l13.664-4.963l10.037-13.063l2.777-31.295l-7.77-5.168
				l0.908-5.786l5.953-0.067l11.168-18.571l-6.182-11.429l-12.299-6.735l-14.798,7.55l-10.658-2.244l-5.159-8.3l-2.326-24.354l-36.621-5.238L2573.36,710.1l-38.326,6.258l3.797-31.702l-2.438-10.816l-5.953-0.612l1.928-27.756l-30.557-18.504l-15.533-18.914
				l-37.699-31.295l-20.525,11.566l-5.101-5.104l0.624-14.558l-16.5-23.54l-1.471-14.695l-6.633-2.106l5.895-10.069l11.282-2.587l12.53-11.634l8.9-15.032l0.621-5.716l-11.279-2.449l-1.418-9.319l12.527,6.53l17.121-12.246l13.893-2.789l25.682,7.213l14.569-5.309
				l17.517,15.715l14.288-14.423l8.048,28.506l11.455,9.932l1.248,7.553l11.563,7.553l9.583-2.859l4.535-7.277l21.598-2.994l13.04-23.133l-1.983-6.463l-9.24-5.713l-5.385-16.192l-14.631-11.634l5.104-4.014l3.686-13.198l-3.176-28.233l2.895-14.897l10.031-13.881
				l-6.973-15.779l2.666-7.553l12.586-10.409l-0.85-9.319l5.101-8.777l-6.407-12.788l9.697-10.204l10.09-2.927l1.474-9.527l9.354,0.272l8.502-7.752l9.018-1.09l-4.254-22.793l4.365-8.572l3.797,5.854l7.881-5.036l1.137-27.416l17.971,3.199l3.686-5.033l-4.649-2.859
				l11.394-7.213l-1.301-6.87l4.248-1.362l-19.219-13.266l-42.463-6.735l-4.758,19.187l-25.685,13.336l-4.591-9.457l4.025-11.156l-2.895-11.432l5.558-9.797l-1.813-14.897l-25.74-53.2l-11.338,19.184l-7.084,1.77l-4.652,18.097l-6.803,4.286l7.992,5.104
				l2.045,11.429l9.07,8.165l-12.475,10.746l0.229,7.348l-6.521,9.454l2.607,10.274l-6.803,2.792l-8.35,13.731z"/>
			<text transform="matrix(1 0 0 1 2411.9961 689.4922)"><tspan x="0" y="0" style="fill:#000000;stroke:none;">89801</tspan></text>
		</g>
		<g>
			<path style="stroke-miterlimit:1;" d="M105.291,1955.346l-7.484-1.093l-2.779-6.255l-7.143,4.623l1.701,5.514l-3.119,2.177l-8.616,2.379l-9.185-5.713l0.964,4.556l-6.52,4.289l39.344-0.545l4.31-1.497l-1.474-8.435z"/>
			<text transform="matrix(1 0 0 1 67.8345 1964.2256)"><tspan x="0" y="0" style="fill:#000000;stroke:none;">89710</tspan></text>
		</g>
		<g>
			<path style="stroke-miterlimit:1;" d="M166.064,1871.87l-0.735,4.831l-20.977,0.202l-0.057,10.069H133.58l0.114,9.864l-15.932,0.07l-2.38,4.896l12.415,3.129l7.485,21.703l40.251-14.628l7.711-11.903l-17.18-28.233z"/>
			<text transform="matrix(1 0 0 1 136.269 1910.2256)"><tspan x="0" y="0" style="fill:#000000;stroke:none;">89706</tspan></text>
		</g>
		<g>
			<path style="stroke-miterlimit:1;" d="M105.291,1955.346l1.474,8.435l-4.31,1.497l29.312-0.272l1.813-12.586l-13.493,5.511l-14.796-2.584z"/>
			<text transform="matrix(1 0 0 1 113.52 1963.3496)"><tspan x="0" y="0" style="fill:#000000;stroke:none;">89705</tspan></text>
		</g>
		<g>
			<path style="stroke-miterlimit:1;" d="M103.023,1832.888l6.123,42.246l6.236,26.669l2.38-4.896l15.932-0.07l-0.114-9.864h10.715l0.057-10.069l20.977-0.202l0.735-4.831l-0.85-5.646l9.979,0.067l0.34-14.83h10.433l-0.511-19.661l-7.54-6.328l-10.942,9.999
				l-13.775-9.999l-8.675,0.747l-4.875-9.117l-14.741,3.199l-3.686-3.264l-11.622,5.033l-6.576,10.816z"/>
			<text transform="matrix(1 0 0 1 137.019 1850.2256)"><tspan x="0" y="0" style="fill:#000000;stroke:none;">89704</tspan></text>
		</g>
		<g>
			<path style="stroke-miterlimit:1;" d="M109.146,1875.134l-17.632-4.761l1.871,32.18l-15.478,24.899h-6.633l-0.056,3.674l-54.199-0.817v6.056v9.864l-8.221,9.864v9.797h18.766l35.546-0.067l6.52-4.289l-0.964-4.556l9.185,5.713l8.616-2.379l3.119-2.177
				l-1.701-5.514l7.143-4.623l2.779,6.255l7.484,1.093l14.796,2.584l13.493-5.511l1.702-25.784l-7.485-21.703l-12.415-3.129l-6.236-26.669z"/>
			<text transform="matrix(1 0 0 1 86.769 1933.4756)"><tspan x="0" y="0" style="fill:#000000;stroke:none;">89703</tspan></text>
		</g>
		<g>
			<path style="stroke-miterlimit:1;" d="M183.244,1900.104l-7.711,11.903l-40.251,14.628l-1.702,25.784l-1.813,12.586h6.747l5.159,19.799l114.009-0.615l-5.783-34.491l-7.652-12.313l8.049-16.395l-1.701-11.361l-31.635-0.205l-16.837,0.272l-18.879-9.592z"/>
			<text transform="matrix(1 0 0 1 178.042 1945.4521)"><tspan x="0" y="0" style="fill:#000000;stroke:none;">89701</tspan></text>
		</g>
		<g>
			<path style="stroke-miterlimit:1;" d="M2.223,1629.881l-0.681,96.062l13.948-20.953l25.512-6.533l5.952-7.14l19.673,6.188l16.27-3.196l-2.722-21.973l-20.465-15.58l-0.227-27.554l-57.259,0.68z"/>
			<text transform="matrix(1 0 0 1 25.5386 1680.5732)"><tspan x="0" y="0" style="fill:#000000;stroke:none;">89523</tspan></text>
		</g>
		<g>
			<path style="stroke-miterlimit:1;" d="M115.892,1649.475l-12.813,4.898l-1.134,4.693l4.989,18.097l7.654,5.104l12.699-0.68l2.777-10.002h-2.833v-15.308l-4.365,0.205l-0.057-7.075l-6.917,0.067z"/>
			<text transform="matrix(1 0 0 1 99.3228 1668.8369)"><tspan x="0" y="0" style="fill:#000000;stroke:none;">89512</tspan></text>
		</g>
		<g>
			<path style="stroke-miterlimit:1;" d="M120.54,1718.322l-11.733,11.297l-9.639-3.609l-7.767,3.946l10.942,8.502l0.226,12.044l-5.102,1.975l-2.098,32.109l-11,15.442l5.046,11.566l-7.257,0.34l27.327-0.68l0.113,10.816l11.622-5.033l3.686,3.264l14.741-3.199
				l4.875,9.117l8.675-0.747l13.775,9.999l10.942-9.999l7.54,6.328l0.567-14.83l10.714,0.067l-0.17-9.935l-5.271-0.067v-9.935l-5.329,0.138l-4.479-19.729h4.591l0.171-10.137l11.281,0.27l1.134-29.522l-23.3-1.09l-11.679-2.789l-6.69-8.572l-16.667-8.3l-9.639,8.165
				l-10.148-7.213z"/>
			<text transform="matrix(1 0 0 1 124.1753 1779.4209)"><tspan x="0" y="0" style="fill:#000000;stroke:none;">89511</tspan></text>
		</g>
		<g>
			<path style="stroke-miterlimit:1;" d="M159.036,1580.422l15.419-21.36l7.371-24.284l23.981,5.303l-1.417,3.469l6.179,5.376l10.318-7.075l2.098-12.519l41.272,44.086l13.21-5.511l10.658,2.177l4.932,4.966l-0.17,10.002l-18.879-2.994l-22.564-13.198l-3.911,50.411
				l4.649-0.612l-4.594,3.404l0.229,27.753l7.198,6.803l-7.538,12.179l6.973-2.449l15.478-9.185l9.864,3.267l21.996-2.789l3.176-12.381l5.272-3.129l49.493,0.952l4.081-5.783l13.664-1.022l20.522-11.563l-10.091-8.3l-43.37-113.273l-41.613-13.945l-61.342-37.213
				l-61.285-68.985l-41.442-145.248l-26.59-11.019l-3.231,5.033l-2.153,37.348l-23.528,12.861l17.461,7.348l-3.571,14.625l10.885,35.379l3.968,37.213l-12.983,2.856l-17.178-7.28l-31.917,7.755l-17.858,12.926l10.034,5.309l11.452,27.211l20.862,18.979l56.807,29.73
				l-9.864,13.403l12.812,23.335l23.358,21.498l-8.958,17.687l5.782-0.272l-0.565,26.941l5.159,3.809z"/>
			<text transform="matrix(1 0 0 1 172.269 1487.9756)"><tspan x="0" y="0" style="fill:#000000;stroke:none;">89510</tspan></text>
		</g>
		<g>
			<path style="stroke-miterlimit:1;" d="M106.878,1685.533l-23.982,8.774l-16.27,3.196l-19.673-6.188l-5.952,7.14l-25.512,6.533l-13.948,20.953l-1.247,126.401l23.755-12.108l23.924-1.767l13.096-7.96l5.896-12.041l5.669,2.379l4.819-4.017l-1.985-5.713l6.69,0.817
				l7.257-0.34l-5.046-11.566l11-15.442l2.098-32.109l5.102-1.975l-0.226-12.044l-10.942-8.502l7.767-3.946l9.639,3.609l11.733-11.297l-8.561-26.191l-5.101-6.598z"/>
			<text transform="matrix(1 0 0 1 43.7363 1771.9385)"><tspan x="0" y="0" style="fill:#000000;stroke:none;">89509</tspan></text>
		</g>
		<g>
			<path style="stroke-miterlimit:1;" d="M4.547,1386.805l-2.325,243.076l57.259-0.68l0.227,27.554l20.465,15.58l13.437-12.996l8.333-0.272l1.134-4.693l12.813-4.898l1.588-4.081l-5.386-7.62l4.31-19.116l-2.949-5.306l18.425,4.148l2.779-3.059l3.344,8.502
				l6.406-8.367l14.229-23.133l0.398-11.021l-5.159-3.809l0.565-26.941l-5.782,0.272l8.958-17.687l-23.358-21.498l-12.812-23.335l9.864-13.403l-56.807-29.73l-20.862-18.979l-11.452-27.211l-10.034-5.309l-27.609-5.988z"/>
			<text transform="matrix(1 0 0 1 63.9468 1532.5713)"><tspan x="0" y="0" style="fill:#000000;stroke:none;">89506</tspan></text>
		</g>
		<g>
			<path style="stroke-miterlimit:1;" d="M80.174,1672.335l2.722,21.973l23.982-8.774l0.056-8.37l-4.989-18.097l-8.333,0.272l-13.437,12.996z"/>
			<text transform="matrix(1 0 0 1 74.019 1680.7256)"><tspan x="0" y="0" style="fill:#000000;stroke:none;">89503</tspan></text>
		</g>
		<g>
			<path style="stroke-miterlimit:1;" d="M114.588,1682.267l-2.609,9.864l8.561,26.191l10.148,7.213l9.639-8.165l16.667,8.3l6.69,8.572l11.679,2.789l0.34-48.847l-20.637,6.056l-16.781-4.151l-10.998-8.502l-12.699,0.68z"/>
			<text transform="matrix(1 0 0 1 127.1606 1712.3076)"><tspan x="0" y="0" style="fill:#000000;stroke:none;">89502</tspan></text>
		</g>
		<g>
			<path style="stroke-miterlimit:1;" d="M106.934,1677.163l-0.056,8.37l5.101,6.598l2.609-9.864l-7.654-5.104z"/>
			<text transform="matrix(1 0 0 1 92.7188 1684.9814)"><tspan x="0" y="0" style="fill:#000000;stroke:none;">89501</tspan></text>
		</g>
		<g>
			<path style="stroke-miterlimit:1;" d="M82.159,1811.935l-6.69-0.817l1.985,5.713l-4.819,4.017l-5.669-2.379l-5.896,12.041l-13.096,7.96l-23.924,1.767l-23.755,12.108l-0.17,48.645h8.049v-18.847l-3.911,0.817l2.495-8.71l12.813,1.157l-1.078,6.533h7.201v9.794
				h8.164l-0.511-10.746l6.067,3.671l10.09-5.306l2.836-11.089l6.803-3.062l-2.495,17.757l5.216,4.491l-3.458,6.258l9.524,1.154l5.046-18.023l18.48-7.485l1.078-18.709l7.2-6.668l3.289-11.089l6.576-10.816l-0.113-10.816l-27.327,0.68z"/>
			<text transform="matrix(1 0 0 1 11.769 1869.7256)"><tspan x="0" y="0" style="fill:#000000;stroke:none;">89451</tspan></text>
		</g>
		<g>
			<path style="stroke-miterlimit:1;" d="M103.023,1832.888l-3.289,11.089l-7.2,6.668l-1.078,18.709l-18.48,7.485l-5.046,18.023l-9.524-1.154l3.458-6.258l-5.216-4.491l2.495-17.757l-6.803,3.062l-2.836,11.089l-10.09,5.306l-6.067-3.671l0.511,10.746h-8.164v-9.794
				h-7.201l1.078-6.533l-12.813-1.157l-2.495,8.71l3.911-0.817v18.847H0.125l0.567,35.376h16.327v-6.056l54.199,0.817l0.056-3.674h6.633l15.478-24.899l-1.871-32.18l17.632,4.761l-6.123-42.246z"/>
			<text transform="matrix(1 0 0 1 82.269 1860.7256)"><tspan x="0" y="0" style="fill:#000000;stroke:none;">89450</tspan></text>
		</g>
		<g>
			<path style="stroke-miterlimit:1;" d="M37.826,2071.88l53.858,44.358l-0.057-21.565l-5.215-3.267l2.268-7.55l5.499-9.729l0.68-11.903l3.29-9.117l-8.108-11.563l-1.021,10.477l-7.937-4.017l1.531,5.373l-5.5,6.668l-10.26-3.264l-22.167,11.769l-4.818-2.927
				l-2.042,6.258z"/>
			<text transform="matrix(1 0 0 1 51.3052 2081.8906)"><tspan x="0" y="0" style="fill:#000000;stroke:none;">89448</tspan></text>
		</g>
		<g>
			<path style="stroke-miterlimit:1;" d="M345.554,1984.599l47.792,1.09l0.34,28.233l14.458,9.727l12.472,1.087l-15.193,31.705l-0.567,17.619l-7.484,7.412l-7.087,27.691l11.282,23.675l12.643,18.507l-2.72,9.794l-6.804,3.946l-2.834,80.616l15.647,43.269
				l18.028,23.47l8.843,5.309l7.031,17.145l-6.009,14.285l-27.214-2.379l-19.163-20.276l-15.646-3.469l-5.102-7.688l-26.306,1.497l-4.31-10.274l-7.822,5.783l-12.473-0.475l153.694,128.851h141.79l2.722-297.568l-63.724,0.545l-2.098-64.972l22.166-35.648
				l-3.117-3.606l4.31,0.747l25.283-45.032l101.197-3.404l-0.056-25.441l-21.715-0.272l-0.283-19.866l-10.091-0.135l0.114-9.322l-11.679-0.067v-10.547l-10.148-0.202l-0.113-9.932l-10.772-0.067l0.114-7.96l-13.096-0.272l0.283-20.068h-11v-10.069l-10.488,0.067
				l-0.113-9.729l-10.601,0.138v-9.932h-10.544v-10.069l-12.814,0.067l-0.056-9.932l-10.204,0.272l0.17-10.749l-10.658,0.132v-6.598l-9.864-1.225l-6.464,6.53l-3.628,5.648l6.009,22.38l-17.177,7.62l-88.271-12.311l-9.24-6.806l-15.42,5.443l-20.694-5.036
				l-15.647,26.669l-7.937,3.741l12.53,7.348l3.457,12.041l15.422,9.595l-8.051,12.176l4.819,11.024l-0.284,17.074l3.968,2.244l-53.802,39.188z"/>
			<text transform="matrix(1 0 0 1 501.7871 2133.3887)"><tspan x="0" y="0" style="fill:#000000;stroke:none;">89447</tspan></text>
		</g>
		<g>
			<path style="stroke-miterlimit:1;" d="M388.017,318.509l-1.247,81.366l10.658-0.138l0.057,83.818l-0.738,38.71l-14.399-0.41l-0.17,132.729l0.964,54.29h11.395l296.448-0.272v71.364l647.659-1.292l0.059,19.523l4.477,3.132l3.287-6.533l7.43,0.205l4.816-10.749
				l0.797-7.62l-9.639-8.64l-0.568-7.553l13.605-20.953l-0.961-21.905l9.34-49.913l-3.445-3.149l-4.137,1.837l1.301-4.222l6.75,0.753l-6.92-1.5l3.686-6.393l7.939,2.177l-4.084-5.443l1.588-24.082l17.405-42.114l11.563-64.901l-4.307-8.435l8.221-0.612
				l32.994-35.854l-13.887-7.89l-8.733-14.221l-6.917-1.292l-21.885,13.061l-29.367-7.21l-13.605,12.381l-33.504,17.279l-9.015-28.775l-42.688-46.397l-147.404-10.611l-140.257-26.467L933.745,362.8l-36.738-53.678l-15.93,2.312l-8.108,19.321l-8.673,0.41
				l-19.9,24.762l-45.92-1.972l-6.803,10.204l-12.87,1.702l-39.176-3.879l8.561-12.041l-12.812-16.395l-7.994-2.927l-3.344,13.743l-9.412,11.089l-22.904,1.767l-12.303-10.611l-32.597-9.319l-15.478-17.962l-12.813-1.427l-9.75,11.769l-11.509-17.757l-28.346,3.539
				l-3.8-3.609l0.511-13.603l-40.989-0.817l-7.255,8.3l-20.411-7.415l-10.828,5.104l-21.601-8.438l-24.378,9.457l-10.034-1.02l-7.709-10.274l-1.531,25.374l-12.926,4.154l-12.076,10.477l-2.153-13.881l-5.728-0.75z"/>
			<text transform="matrix(1 0 0 1 894.3286 550.2324)"><tspan x="0" y="0" style="fill:#000000;stroke:none;">89445</tspan></text>
		</g>
		<g>
			<path style="stroke-miterlimit:1;" d="M320.894,2124.538l0.51,21.973l9.524-0.202v16.465l5.046-0.272v10.069l5.102-0.138l-1.361,51.498l27.667-1.834v4.761l4.308-0.067l1.191,54.899h10.488v41.364l15.646,3.469l19.163,20.276l27.214,2.379l6.009-14.285
				l-7.031-17.145l-8.843-5.309l-18.028-23.47l-15.647-43.269l2.834-80.616l6.804-3.946l2.72-9.794l-12.643-18.507l-59.527-0.202l-21.146-8.098z"/>
			<text transform="matrix(1 0 0 1 362.769 2201.2256)"><tspan x="0" y="0" style="fill:#000000;stroke:none;">89444</tspan></text>
		</g>
		<g>
			<path style="stroke-miterlimit:1;" d="M397.996,1624.713l-20.522,11.563l-13.664,1.022l-4.081,5.783l-49.493-0.952l-5.272,3.129l-3.176,12.381l-21.996,2.789l-9.864-3.267l-15.478,9.185l-1.815,4.424l-16.61,1.632l-18.653,22.11l-10.828-1.02l-13.04,3.129
				l-15.817-9.39l-1.983,0.952l-0.34,48.847l23.3,1.09l-1.134,29.522l-11.281-0.27l-0.171,10.137h-4.591l4.479,19.729l5.329-0.138v9.935l5.271,0.067l0.17,9.935l-10.714-0.067l-0.567,14.83l0.511,19.661h-10.433l-0.34,14.83l-9.979-0.067l0.85,5.646l37.022-10.682
				l93.656-47.215l102.784-177.357l9.751-16.939l0.624-4.966l-11.906,10.002z"/>
			<text transform="matrix(1 0 0 1 270.8765 1746.292)"><tspan x="0" y="0" style="fill:#000000;stroke:none;">89440</tspan></text>
		</g>
		<g>
			<path style="stroke-miterlimit:1;" d="M1338.702,798.198l-0.114,98.511l194.569,1.359l0.284,106.269l30.56-79.125l129.316-0.407l0.111-108.305l-5.669-0.545l-2.95-9.319l-40.195-23.81l-14.115,8.64l-15.305-7.146l-19.166,2.109l2.268-3.604l-18.879-23.95
				l-13.436,10.204l-55.729-30.34l-32.086-3.196l-51.65-17.35l-55.23-50.525l-9.34,49.913l0.961,21.905l-13.605,20.953l0.568,7.553l9.639,8.64l-0.797,7.62l-4.816,10.749l-7.43-0.205l-3.287,6.533l-4.477-3.132z"/>
			<text transform="matrix(1 0 0 1 1499.3281 839.0029)"><tspan x="0" y="0" style="fill:#000000;stroke:none;">89438</tspan></text>
		</g>
		<g>
			<path style="stroke-miterlimit:1;" d="M144.408,1614.576l15.193,3.741l-13.039,38.71l7.597,1.904l0.057-4.898l5.385,0.205l18.426,10.409l6.066-5.854l18.879,0.885l9.185,6.806l-1.702,8.774l9.072,7.553l-6.803,9.524l-6.18,1.157l10.828,1.02l18.653-22.11
				l16.61-1.632l1.815-4.424l-6.973,2.449l7.538-12.179l-7.198-6.803l-0.229-27.753l4.594-3.404l-4.649,0.612l3.911-50.411l22.564,13.198l18.879,2.994l0.17-10.002l-4.932-4.966l-10.658-2.177l-13.21,5.511l-41.272-44.086l-2.098,12.519l-10.318,7.075l-6.179-5.376
				l1.417-3.469l-23.981-5.303l-7.371,24.284l-15.419,21.36l-0.398,11.021l-14.229,23.133z"/>
			<text transform="matrix(1 0 0 1 202.0522 1614.9219)"><tspan x="0" y="0" style="fill:#000000;stroke:none;">89436</tspan></text>
		</g>
		<g>
			<path style="stroke-miterlimit:1;" d="M177.686,1687.232l15.817,9.39l13.04-3.129l6.18-1.157l6.803-9.524l-9.072-7.553l1.702-8.774l-9.185-6.806l-18.879-0.885l-6.066,5.854l-18.426-10.409l-5.385-0.205l-0.057,4.898l-2.38,20.889l25.907,7.412z"/>
			<text transform="matrix(1 0 0 1 168.9702 1678.3291)"><tspan x="0" y="0" style="fill:#000000;stroke:none;">89434</tspan></text>
		</g>
		<g>
			<path style="stroke-miterlimit:1;" d="M115.892,1649.475l6.917-0.067l0.057,7.075l4.365-0.205l10.941-3.267l-0.113,5.036l8.503-1.02l13.039-38.71l-15.193-3.741l-6.406,8.367l-3.344-8.502l-2.779,3.059l-18.425-4.148l2.949,5.306l-4.31,19.116l5.386,7.62
				l-1.588,4.081z"/>
			<text transform="matrix(1 0 0 1 119.1655 1638.6992)"><tspan x="0" y="0" style="fill:#000000;stroke:none;">89433</tspan></text>
		</g>
		<g>
			<path style="stroke-miterlimit:1;" d="M127.231,1656.277v15.308h2.833l-2.777,10.002l10.998,8.502l16.781,4.151l20.637-6.056l1.983-0.952l-25.907-7.412l2.38-20.889l-7.597-1.904l-8.503,1.02l0.113-5.036l-10.941,3.267z"/>
			<text transform="matrix(1 0 0 1 124.269 1670.9756)"><tspan x="0" y="0" style="fill:#000000;stroke:none;">89431</tspan></text>
		</g>
		<g>
			<path style="stroke-miterlimit:1;" d="M320.894,2124.538l21.146,8.098l59.527,0.202l-11.282-23.675l7.087-27.691l7.484-7.412l0.567-17.619l15.193-31.705l-12.472-1.087l-14.458-9.727l0.229,34.966l-51.592,5.036l-0.453,19.523l-10.375-0.067l-0.624,49.392
				l-9.977,1.767z"/>
			<text transform="matrix(1 0 0 1 354.0737 2076.3799)"><tspan x="0" y="0" style="fill:#000000;stroke:none;">89430</tspan></text>
		</g>
		<g>
			<path style="stroke-miterlimit:1;" d="M399.526,1636.616l-102.784,177.357l-4.195,24.495l18.652,4.828l-0.283,4.424l-16.216-3.677l-13.266,15.785l-0.056,6.396l-35.095,11.906l5.84,0.747l-5.272,6.188l8.616,19.661l12.813,8.912l3.968,21.091l22.564-10.611
				l28.233,18.639l8.276,15.513l-4.592,10.274l4.537,16.055h14.285l53.802-39.188l-3.968-2.244l0.284-17.074l-4.819-11.024l8.051-12.176l-15.422-9.595l-3.457-12.041l-12.53-7.348l7.937-3.741l15.647-26.669l20.694,5.036l15.42-5.443l9.24,6.806l88.271,12.311
				l17.177-7.62l-6.009-22.38l3.628-5.648l6.464-6.53l9.864,1.225l0.056-3.331l-10.658,0.064l-0.34-9.932h-10.148v-9.932l-10.488-0.07l-0.17-8.704l-10.488-1.16l-0.17-9.521l-10.374-0.407l0.34-78.1l-62.476-3.199l-3.571-15.311l-13.607-21.495l-24.208-23.54z"/>
			<text transform="matrix(1 0 0 1 384.4048 1813.6074)"><tspan x="0" y="0" style="fill:#000000;stroke:none;">89429</tspan></text>
		</g>
		<g>
			<path style="stroke-miterlimit:1;" d="M166.064,1871.87l17.18,28.233l18.879,9.592l16.837-0.272l3.458-9.252l16.157-9.932l1.191-9.935l6.519-2.174l35.095-11.906l0.056-6.396l13.266-15.785l16.216,3.677l0.283-4.424l-18.652-4.828l4.195-24.495l-93.656,47.215
				l-37.022,10.682z"/>
			<text transform="matrix(1 0 0 1 221.9507 1864.8359)"><tspan x="0" y="0" style="fill:#000000;stroke:none;">89428</tspan></text>
		</g>
		<g>
			<path style="stroke-miterlimit:1;" d="M709.58,1991.809l-101.197,3.404h6.067l-0.34,34.828h5.385l-0.056,4.764h5.272v4.831l5.499,2.991l-0.17,7.213l-9.921,4.696l-0.114,5.303l-10.771-0.34l0.17,9.729l10.318,5.171l0.057,9.729l5.215,0.135l-0.056,4.898
				l10.374,4.764l-0.056,9.659l11.111,5.306l0.17,9.727l5.331,0.07l5.44,9.864l10.433,0.067l0.056,4.629l17.915,0.135v5.44l3.63-1.972l7.597,14.221l-10.603-23.745l-0.964-11.701l40.14,1.292l4.081,10.749l-9.127,7.146l0.907,11.836l23.925,32.859l3.911,15.782
				l36.567,0.885l-0.51-52.723h91.786l-0.34-58.849h-10.658l0.227-92.183l-156.7-0.612z"/>
			<text transform="matrix(1 0 0 1 726.0356 2096.9932)"><tspan x="0" y="0" style="fill:#000000;stroke:none;">89427</tspan></text>
		</g>
		<g>
			<path style="stroke-miterlimit:1;" d="M1403.331,2.302l-8.051,8.777v5.713h-8.276l0.056,4.831l-27.439,0.067l-2.607,14.897l-8.561,0.272v4.831l-10.488-8.777l2.722,7.146l-2.892,54.354l-10.939,49.254l-10.436-5.37l-28.685-2.109l-23.3,63.334l-10.658,173.007
				l6.463,40.137l42.688,46.397l9.015,28.775l33.504-17.279l13.605-12.381l29.367,7.21l21.885-13.061l6.917,1.292l11.511-25.444l37.075-37.415l39.46,7.89l24.035,21.161h67.066l4.482-3.539l13.096,7.755l16.043-31.022l19.219-11.701l20.977-1.295l5.725,7.825
				l17.748,6.601l0.281-48.712L1693.54,2.029l-290.209,0.272z"/>
			<text transform="matrix(1 0 0 1 1457.1758 247.9355)"><tspan x="0" y="0" style="fill:#000000;stroke:none;">89426</tspan></text>
		</g>
		<g>
			<path style="stroke-miterlimit:1;" d="M1066.802,3.389l4.989,10.614l-5.273,19.456l1.872,6.328l-3.231-3.199l-33.223,6.873l-36.227,37.213l33.051,44.15l-33.164,0.407l7.427,12.724l0.113,9.935l5.499,0.475l0.113,11.634l11.057,0.067l-0.454,44.833l-11.338,0.545
				l-8.335,34.014l-2.722,71.909l-26.247,45.038l5.782,8.165l-4.308-0.138l6.858,2.382l-6.463,8.774l140.257,26.467l147.404,10.611l-6.463-40.137l10.658-173.007l23.3-63.334l14.118-40.14l0.621-59.394l-6.179-33.606l-229.493,0.34z"/>
			<text transform="matrix(1 0 0 1 1119.9102 210.8574)"><tspan x="0" y="0" style="fill:#000000;stroke:none;">89425</tspan></text>
		</g>
		<g>
			<path style="stroke-miterlimit:1;" d="M3.299,667.036l1.248,719.769l27.609,5.988l17.858-12.926l31.917-7.755l17.178,7.28l12.983-2.856l-3.968-37.213l-10.885-35.379l3.571-14.625l-17.461-7.348l23.528-12.861l2.153-37.348l3.231-5.033l26.59,11.019
				l41.442,145.248l61.285,68.985l61.342,37.213l41.613,13.945l43.37,113.273l10.091,8.3l11.906-10.002l-0.624,4.966h44.9l7.257-6.188l0.34-33.882l12.586,0.272l-0.624-72.521l-9.524,0.067l0.34-15.513l-12.132,0.07l0.624-60.82l-10.998,0.885l0.34-69.393
				l-64.688,0.545l0.624-212.804l0.227-29.32l-15.646,56.396l-2.496,50.684l-76.081-111.366l-184.422-14.561l-1.021-19.658l-9.75-18.847l0.794-7.345l15.023-42.929l-2.155-12.246l14.966-30.817l29.991-19.799l55.503-9.387l17.631-34.969l23.924-20.341l1.361-9.322
				l5.272,3.334l-2.607-5.033l6.463-7.348l41.839,1.972l-4.478-34.286l-22.053-27.554v-8.367l-15.875-7.348l-20.011-27.483l-16.386-8.777l-3.514-8.845l-6.52-1.564l-5.953-12.519l-18.765-17.687l-14.117-8.095l-32.486-0.41l-27.1-15.782l-1.304,13.945l-20.918-8.435
				l-52.499-5.238l-6.236-38.71l-10.093,4.966l-7.538,12.313l-7.995-2.584z"/>
			<text transform="matrix(1 0 0 1 39.519 1143.7256)"><tspan x="0" y="0" style="fill:#000000;stroke:none;">89424</tspan></text>
		</g>
		<g>
			<path style="stroke-miterlimit:1;" d="M88.679,2083.856l23.811-0.067l0.623-3.812l20.297,4.491l2.777,22.652l-3.344,4.488l4.592,6.398l-3.458,1.362l5.556,23.265l-5.726,8.438l193.55,160.825l12.473,0.475l7.822-5.783l4.31,10.274l26.306-1.497l5.102,7.688
				v-41.364h-10.488l-1.191-54.899l-4.308,0.067v-4.761l-27.667,1.834l1.361-51.498l-5.102,0.138v-10.069l-5.046,0.272v-16.465l-9.524,0.202l-14.287,6.668l-15.079-3.059l-4.365,6.46l-13.437-6.803l-6.123,5.443l-5.272-5.376l2.663-2.517l-19.389-12.993l0.454-4.084
				l9.751,1.022l-6.804-11.704l8.278-5.37l-17.291-2.927l1.361-15.24l-7.767-14.353l-40.025,4.761l-18.255,9.592l-2.892-10.477l-24.888-1.699l-21.885-20.546l-31.295-1.087l-0.68,11.903l-5.499,9.729z"/>
			<text transform="matrix(1 0 0 1 219.3433 2195.6387)"><tspan x="0" y="0" style="fill:#000000;stroke:none;">89423</tspan></text>
		</g>
		<g>
			<path style="stroke-miterlimit:1;" d="M1271.237,2357.478l-32.713,14.83l-17.232,19.389l-14.912,5.309l-20.695,16.26l-28.74-5.783l-20.525,12.516l-43.085,11.906l-21.94,18.504l-1.699,9.319l8.333,26.467l1.191,54.762l-19.787,17.689l-23.754,7.008l-33.278,0.68
				l-16.157-6.258l-55.957,4.151l-14.795,13.333l-3.233,20.748l-6.86,11.704l-28.573,24.967l-3.287,21.293l4.421,5.578l-8.73,5.921l39.176-24.152l-2.609,35.174l6.123,9.794l8.108,3.472l12.018-4.014l14.399,8.229l-37.304,27.349l-17.801,0.817l-39.911,19.863
				l-12.076,1.567l54.879,47.622l43.482,1.699l248.486-263.414l125.915-131.235l-40.875-43.063z"/>
			<text transform="matrix(1 0 0 1 1059.0503 2579.334)"><tspan x="0" y="0" style="fill:#000000;stroke:none;">89422</tspan></text>
		</g>
		<g>
			<path style="stroke-miterlimit:1;" d="M1296.295,3.049l6.179,33.606l-0.621,59.394l-14.118,40.14l28.685,2.109l10.436,5.37l10.939-49.254l2.892-54.354l-2.722-7.146l10.488,8.777V36.86l8.561-0.272l2.607-14.897l27.439-0.067l-0.056-4.831h8.276v-5.713
				l8.051-8.777l-107.036,0.747z"/>
			<text transform="matrix(1 0 0 1 1310.0176 29.2256)"><tspan x="0" y="0" style="fill:#000000;stroke:none;">89421</tspan></text>
		</g>
		<g>
			<path style="stroke-miterlimit:1;" d="M900.692,1993.235l7.994,29.051l13.947,16.872l8.391,20.479l1.077,16.192l-11.339,37.485l20.751,83.813l8.106,16.6l27.439,29.253l54.765,77.285l-0.056,10.477l6.463,2.991l-9.015,41.162l8.276,5.985l33.902,69.527
				l21.94-18.504l43.085-11.906l20.525-12.516l28.74,5.783l20.695-16.26l14.912-5.309l17.232-19.389l32.713-14.83l-246.842-262.805l1.304-52.046l187.712-50.139l-312.719,0.747z"/>
			<text transform="matrix(1 0 0 1 1069.2822 2224.4492)"><tspan x="0" y="0" style="fill:#000000;stroke:none;">89420</tspan></text>
		</g>
		<g>
			<path style="stroke-miterlimit:1;" d="M378.323,1150.396l-0.624,212.804l64.688-0.545l735.535-2.177v-16.192l4.934-6.328l-4.482-2.584l9.018-14.83l0.451-11.906l-4.934-5.918l-37.758-9.797l56.584-61.022l8.443-3.744l-5.783-1.427l-3.229-7.553l-9.867-21.431
				l0.059-69.05l-27.838-1.02l-46.711-14.9l-15.99,3.812l-22.053,16.119l-31.635,5.581l-1.189,7.075l-13.38,5.171l-22.45,0.955l-18.709-10.685l-31.805-7.21l-20.692,29.525l-17.974-14.355l-18.141-28.301l1.02-9.05l-52.043-16.189l-9.524-6.056l-4.592-17.007
				l-14.002-16.397l-77.613-38.845l1.02,68.168l-10.147,4.761l-30.954-1.699l-12.7,13.333l-2.552,29.593l-18.311,15.445l-18.653,8.095l-6.406-2.177l-7.257-11.089l-26.703,2.52l-14.172,13.4l-26.306,8.095l-21.089-21.565l-20.751,0.545l-16.383-8.505l-18.596,12.993
				l-61.229,12.448l-6.234,10.89l-2.382,22.38l-25.739-39.185l-22.167-4.969z"/>
			<text transform="matrix(1 0 0 1 777.2568 1193.0615)"><tspan x="0" y="0" style="fill:#000000;stroke:none;">89419</tspan></text>
		</g>
		<g>
			<path style="stroke-miterlimit:1;" d="M394.537,708.875l-1.926,300.768l-13.04,0.27l-1.021,111.164l-0.227,29.32l22.167,4.969l25.739,39.185l2.382-22.38l6.234-10.89l61.229-12.448l18.596-12.993l16.383,8.505l20.751-0.545l21.089,21.565l26.306-8.095
				l14.172-13.4l26.703-2.52l7.257,11.089l6.406,2.177l18.653-8.095l18.311-15.445l2.552-29.593l12.7-13.333l30.954,1.699l10.147-4.761l-1.02-68.168l77.613,38.845l14.002,16.397l4.592,17.007l9.524,6.056l52.043,16.189l-1.02,9.05l18.141,28.301l17.974,14.355
				l20.692-29.525l31.805,7.21l18.709,10.685l22.45-0.955l13.38-5.171l1.189-7.075l31.635-5.581l22.053-16.119l15.99-3.812l46.711,14.9l27.838,1.02l-0.059,69.05l9.867,21.431l3.229,7.553l5.783,1.427l-8.443,3.744l-56.584,61.022l37.758,9.797l4.934,5.918
				l-0.451,11.906l-9.018,14.83l4.482,2.584l-4.934,6.328v16.192l218.836,1.09l77.496-203.074l59.188-154.157l-0.284-106.269l-194.569-1.359l0.114-98.511l-0.059-19.523l-647.659,1.292v-71.364l-296.448,0.272z"/>
			<text transform="matrix(1 0 0 1 939.1997 1038.0869)"><tspan x="0" y="0" style="fill:#000000;stroke:none;">89418</tspan></text>
		</g>
		<g>
			<path style="stroke-miterlimit:1;" d="M866.28,1992.421l-0.227,92.183h10.658l0.34,58.849h-91.786l0.51,52.723l-36.567-0.885l-3.911-15.782l-23.925-32.859l-0.907-11.836l9.127-7.146l-4.081-10.749l-40.14-1.292l0.964,11.701l10.603,23.745l-7.597-14.221
				l-3.63,1.972v-5.44l-17.915-0.135l-0.056-4.629l-10.433-0.067l-5.44-9.864l-5.331-0.07l-0.17-9.727l-11.111-5.306l0.056-9.659l-10.374-4.764l0.056-4.898l-5.215-0.135l-0.057-9.729l-10.318-5.171l-0.17-9.729l10.771,0.34l0.114-5.303l9.921-4.696l0.17-7.213
				l-5.499-2.991v-4.831h-5.272l0.056-4.764h-5.385l0.34-34.828h-6.067l-25.283,45.032l-4.31-0.747l3.117,3.606l-22.166,35.648l2.098,64.972l63.724-0.545l-2.722,297.568h-141.79l358.299,305.121l12.076-1.567l39.911-19.863l17.801-0.817l37.304-27.349
				l-14.399-8.229l-12.018,4.014l-8.108-3.472l-6.123-9.794l2.609-35.174l-39.176,24.152l8.73-5.921l-4.421-5.578l3.287-21.293l28.573-24.967l6.86-11.704l3.233-20.748l14.795-13.333l55.957-4.151l16.157,6.258l33.278-0.68l23.754-7.008l19.787-17.689l-1.191-54.762
				l-8.333-26.467l1.699-9.319l-33.902-69.527l-8.276-5.985l9.015-41.162l-6.463-2.991l0.056-10.477l-54.765-77.285l-27.439-29.253l-8.106-16.6l-20.751-83.813l11.339-37.485l-1.077-16.192l-8.391-20.479l-13.947-16.872l-7.994-29.051l-34.412-0.814z"/>
			<text transform="matrix(1 0 0 1 763.4521 2372.1465)"><tspan x="0" y="0" style="fill:#000000;stroke:none;">89415</tspan></text>
		</g>
		<g>
			<path style="stroke-miterlimit:1;" d="M1417.221,453.62l8.733,14.221l13.887,7.89l-32.994,35.854l-8.221,0.612l4.307,8.435l-11.563,64.901l-17.405,42.114l-1.588,24.082l4.084,5.443l-7.939-2.177l-3.686,6.393l6.92,1.5l-6.75-0.753l-1.301,4.222l4.137-1.837
				l3.445,3.149l55.23,50.525l51.65,17.35l32.086,3.196l55.729,30.34l13.436-10.204l18.879,23.95l-2.268,3.604l19.166-2.109l15.305,7.146l14.115-8.64l40.195,23.81l2.95,9.319l5.669,0.545V681.729l0.281-100.072l72.343-23.13l25.682-20.001l8.786,0.135
				l16.213-19.729l-9.806-4.491l-3.571-8.165l-9.41,2.247l-9.018-5.578l1.025-24.22l4.022-4.354l-7.825-10.069l-22.392,4.424l-5.499-9.8l-15.647-5.985l2.78-7.28l-10.266-10.137l-20.297-8.162l8.168-8.095l-11.285-11.024l-2.777-10.816l-11.279-2.991l-17.748-6.601
				l-5.725-7.825l-20.977,1.295l-19.219,11.701l-16.043,31.022l-13.096-7.755l-4.482,3.539h-67.066l-24.035-21.161l-39.46-7.89l-37.075,37.415l-11.511,25.444z"/>
			<text transform="matrix(1 0 0 1 1573.5371 601.2559)"><tspan x="0" y="0" style="fill:#000000;stroke:none;">89414</tspan></text>
		</g>
		<g>
			<path style="stroke-miterlimit:1;" d="M102.455,1965.277l-39.344,0.545l-35.546,0.067l-2.21,4.898l7.937,3.606l3.855,8.3l-5.046,3.876l3.798,8.777l-6.747,32.927l2.892,9.659l-6.803,3.946l4.251,5.988l-2.55,3.876l4.762,15.103l6.123,5.033l2.042-6.258
				l4.818,2.927l22.167-11.769l10.26,3.264l5.5-6.668l-1.531-5.373l7.937,4.017l1.021-10.477l8.108,11.563l-3.29,9.117l31.295,1.087l21.885,20.546l24.888,1.699l2.892,10.477l18.255-9.592l40.025-4.761l7.767,14.353l-1.361,15.24l17.291,2.927l-8.278,5.37
				l6.804,11.704l-9.751-1.022l-0.454,4.084l19.389,12.993l-2.663,2.517l5.272,5.376l6.123-5.443l13.437,6.803l4.365-6.46l15.079,3.059l14.287-6.668l-0.51-21.973l9.977-1.767l0.624-49.392l10.375,0.067l0.453-19.523l51.592-5.036l-0.229-34.966l-0.34-28.233
				l-47.792-1.09h-14.285l-73.588-0.41l-114.009,0.615l-5.159-19.799h-6.747l-29.312,0.272z"/>
			<text transform="matrix(1 0 0 1 192.8955 2063.7939)"><tspan x="0" y="0" style="fill:#000000;stroke:none;">89413</tspan></text>
		</g>
		<g>
			<path style="stroke-miterlimit:1;" d="M3.868,302.457l23.186-33.814l37.078,11.499l15.93-12.111l3.062,12.858l5.783,4.219l-4.537,15.92l6.577,42.451l20.58,15.442l17.462,5.988l43.368,38.438l-30.047,7.348l-14.684,20.068l-18.538-5.104l-10.83,4.219
				l-2.268,6.803l-12.812,4.424l-25.002,26.938l-3.117-3.674l-26.363,6.735l-25.455-8.64l0.056,204.571l7.995,2.584l7.538-12.313l10.093-4.966l6.236,38.71l52.499,5.238l20.918,8.435l1.304-13.945l27.1,15.782l32.486,0.41l14.117,8.095l18.765,17.687l5.953,12.519
				l6.52,1.564l3.514,8.845l16.386,8.777l20.011,27.483l15.875,7.348v8.367l22.053,27.554l4.478,34.286l4.537,6.668l27.836,7.688l21.202,29.525l18.029,5.443l2.493-1.567l3.686,1.904l5.386,21.161l-0.737,69.595l13.04-0.27l1.926-300.768h-11.395l-0.964-54.29
				l0.17-132.729l14.399,0.41l0.738-38.71l-0.057-83.818l-10.658,0.138l1.247-81.366l-3.627-61.702l1.869-251.241L3.639,5.293l0.229,297.164z"/>
			<text transform="matrix(1 0 0 1 183.6831 510.6025)"><tspan x="0" y="0" style="fill:#000000;stroke:none;">89412</tspan></text>
		</g>
		<g>
			<path style="stroke-miterlimit:1;" d="M91.684,2116.238l42.123,34.834l5.726-8.438l-5.556-23.265l3.458-1.362l-4.592-6.398l3.344-4.488l-2.777-22.652l-20.297-4.491l-0.623,3.812l-23.811,0.067l-2.268,7.55l5.215,3.267l0.057,21.565z"/>
			<text transform="matrix(1 0 0 1 93.519 2096.9756)"><tspan x="0" y="0" style="fill:#000000;stroke:none;">89410</tspan></text>
		</g>
		<g>
			<path style="stroke-miterlimit:1;" d="M1213.411,1992.488l-187.712,50.139l-1.304,52.046l246.842,262.805l40.875,43.063l26.815,28.506l72.343-0.34l25.623,35.648l21.375,0.34l-0.287-9.932l-14.906-19.802l23.584,1.228l-17.974-31.02l74.212,5.101l26.982-27.486
				l20.807-29.865l-11.168-2.789l-7.482-12.653l-0.398-8.64l-15.305-12.516l-22.904-57.557l4.764-21.841l-6.58-14.08l-3.627-25.172l9.24-16.055l-13.834-25.104l2.953-12.246l-4.934-9.114l9.24-37.146l11.678-6.396l-1.928-3.812l7.031-19.321l-2.268-3.809
				l7.594-5.373l-2.777-6.123l13.324-4.898l3.686-7.008l-3.404-7.005l4.708-5.036l-0.683-14.695l6.07-1.222l3.173-7.758l-5.271-5.309l1.641-18.026l25.289-7.758l24.885-42.926l-87.645-0.138l-138.729,24.967l1.532,116.2l-18.653,5.851l-27.779-7.28l-12.416,47.35
				l-15.759-40.682l11.733-16.737l-4.022-37.688l-40.708-45.718l-6.858,1.43l-50.684,13.4z"/>
			<text transform="matrix(1 0 0 1 1297.2148 2201.0469)"><tspan x="0" y="0" style="fill:#000000;stroke:none;">89409</tspan></text>
		</g>
		<g>
			<path style="stroke-miterlimit:1;" d="M409.278,1619.677l-9.751,16.939l24.208,23.54l13.607,21.495l3.571,15.311l62.476,3.199v-10.479h15.59l0.567-80.347h6.803l-0.454-52.723l-2.493-3.334l-45.639,43.948l-9.467,1.632l-6.86,14.631l-7.257,6.188h-44.9z"/>
			<text transform="matrix(1 0 0 1 453.519 1652.9756)"><tspan x="0" y="0" style="fill:#000000;stroke:none;">89408</tspan></text>
		</g>
		<g>
			<path style="stroke-miterlimit:1;" d="M1177.921,1360.479l-735.535,2.177l-0.34,69.393l10.998-0.885l-0.624,60.82l12.132-0.07l-0.34,15.513l9.524-0.067l0.624,72.521l-12.586-0.272l-0.34,33.882l6.86-14.631l9.467-1.632l45.639-43.948l2.493,3.334l0.454,52.723
				h-6.803l-0.567,80.347h-15.59v10.479l-0.34,78.1l10.374,0.407l0.17,9.521l10.488,1.16l0.17,8.704l10.488,0.07v9.932h10.148l0.34,9.932l10.658-0.064l-0.056,3.331v6.598l10.658-0.132l-0.17,10.749l10.204-0.272l0.056,9.932l12.814-0.067v10.069h10.544v9.932
				l10.601-0.138l0.113,9.729l10.488-0.067v10.069h11l-0.283,20.068l13.096,0.272l-0.114,7.96l10.772,0.067l0.113,9.932l10.148,0.202v10.547l11.679,0.067l-0.114,9.322l10.091,0.135l0.283,19.866l21.715,0.272l0.056,25.441l156.7,0.612l34.412,0.814l312.719-0.747
				l50.684-13.4l-2.836-7.62l-11.736-7.075l4.764-1.837l0.85-9.39l-8.561-9.729l9.809-2.924l2.719-1.02l-4.588-5.036l0.621-7.277l21.771-10.339l10.485-17.215l8.449-1.972l3.234-22.113l-4.992-3.604l-5.725-20.748l-5.895-4.151l2.15-6.053l-11.508-25.649
				l-1.529-16.6l3.855-12.111l4.986-6.46l8.508,3.741l19.898-3.741l11.959-24.902l16.84-2.924l4.989-17.212l-9.354-4.014l-1.529-6.94l18.82-5.578l4.424-9.252l7.764-0.68l8.619-8.64l-2.039-9.867l33.05-6.12l7.485-7.553l10.031,5.036l8.9-10.137l5.162-25.852
				l-3.457-9.935l11.733-16.667l-1.022-7.146l-12.926-8.092l12.305-23.133l-13.266-16.939l7.143-21.703l-11.168-8.367l-0.967-8.367l6.182-17.687l-1.418-27.281l9.015-8.572l6.179-30.208l-3.627-25.852l-5.613-12.041l-13.834-8.232l-2.836-11.836l-7.084-2.517
				l-12.527-19.389l-218.836-1.09z"/>
			<text transform="matrix(1 0 0 1 925.48 1679.8584)"><tspan x="0" y="0" style="fill:#000000;stroke:none;">89406</tspan></text>
		</g>
		<g>
			<path style="stroke-miterlimit:1;" d="M368.743,918.819l-18.029-5.443l-21.202-29.525l-27.836-7.688l-4.537-6.668l-41.839-1.972l-6.463,7.348l2.607,5.033l-5.272-3.334l-1.361,9.322l-23.924,20.341l-17.631,34.969l-55.503,9.387l-29.991,19.799l-14.966,30.817
				l2.155,12.246l-15.023,42.929l-0.794,7.345l9.75,18.847l1.021,19.658l184.422,14.561l76.081,111.366l2.496-50.684l15.646-56.396l1.021-111.164l0.737-69.595l-5.386-21.161l-3.686-1.904l-2.493,1.567z"/>
			<text transform="matrix(1 0 0 1 218.0396 1050.8398)"><tspan x="0" y="0" style="fill:#000000;stroke:none;">89405</tspan></text>
		</g>
		<g>
			<path style="stroke-miterlimit:1;" d="M386.259,5.565l-1.869,251.241l3.627,61.702l5.728,0.75l2.153,13.881l12.076-10.477l12.926-4.154l1.531-25.374l7.709,10.274l10.034,1.02l24.378-9.457l21.601,8.438l10.828-5.104l20.411,7.415l7.255-8.3l40.989,0.817
				l-0.511,13.603l3.8,3.609l28.346-3.539l11.509,17.757l9.75-11.769l12.813,1.427l15.478,17.962l32.597,9.319l12.303,10.611l22.904-1.767l9.412-11.089l3.344-13.743l7.994,2.927l12.812,16.395l-8.561,12.041l39.176,3.879l12.87-1.702l6.803-10.204l45.92,1.972
				l19.9-24.762l8.673-0.41l8.108-19.321l15.93-2.312l36.738,53.678l38.833,12.788l6.463-8.774l-6.858-2.382l4.308,0.138l-5.782-8.165l26.247-45.038l2.722-71.909l8.335-34.014l11.338-0.545l0.454-44.833l-11.057-0.067l-0.113-11.634l-5.499-0.475l-0.113-9.935
				l-7.427-12.724l33.164-0.407l-33.051-44.15l36.227-37.213l33.223-6.873l3.231,3.199l-1.872-6.328l5.273-19.456l-4.989-10.614L386.259,5.565z"/>
			<text transform="matrix(1 0 0 1 711.4077 192.4883)"><tspan x="0" y="0" style="fill:#000000;stroke:none;">89404</tspan></text>
		</g>
		<g>
			<path style="stroke-miterlimit:1;" d="M218.959,1909.423l31.635,0.205l1.701,11.361l-8.049,16.395l7.652,12.313l5.783,34.491l73.588,0.41l-4.537-16.055l4.592-10.274l-8.276-15.513l-28.233-18.639l-22.564,10.611l-3.968-21.091l-12.813-8.912l-8.616-19.661
				l5.272-6.188l-5.84-0.747l-6.519,2.174l-1.191,9.935l-16.157,9.932l-3.458,9.252z"/>
			<text transform="matrix(1 0 0 1 266.769 1961.2256)"><tspan x="0" y="0" style="fill:#000000;stroke:none;">89403</tspan></text>
		</g>
		<g>
			<path style="stroke-miterlimit:1;" d="M2843.22,1902.008l11.563-7.348l-7.485-19.729l-0.34-10.954l5.613-12.926l14.004-6.601l5.783,2.042l32.824-27.073l-4.594-15.105l-12.926-6.601l-22.676-33.879l-18.879-42.586l-5.215-15.035l0.738-10.816l-5.672-10.342
				l3.627-3.129l-4.928-30.07l3.457-32.654l-2.725,0.067l-21.486,71.024l-21.938,12.656l-13.605-5.719l-7.371,15.853l-13.605,3.062l-2.777,34.969l-24.041-0.067l-73.529,45.035l7.427,4.696l-5.897,1.972l9.129,35.241l4.875,0.067l6.521-9.185l5.156,6.258
				l3.686-6.053l-2.663-8.572l22.339,2.517l14.566,9.185l0.568-5.921l21.996,8.165l-1.588-6.873l5.162,6.94l37.301,13.474l8.561,19.456l16.898,10.137l0.791,11.701l9.867,1.837l10.658-5.921l10.828,16.805z"/>
			<text transform="matrix(1 0 0 1 2764.4287 1763.6064)"><tspan x="0" y="0" style="fill:#000000;stroke:none;">89319</tspan></text>
		</g>
		<g>
			<path style="stroke-miterlimit:1;" d="M3002.185,1280v12.65l-5.895-1.837l-5.215,6.056l-21.604,78.167l-17.177,20.546l-18.536,64.901l1.072,23.947l13.324,9.252l60.492,12.384l12.697-10.409l67.242-14.968l4.195,13.74l-24.721,3.404l-2.379,7.28l-24.606,10.339
				l0.794,26.736l6.633,18.231l-13.037,27.486l6.293,6.258l0.732,29.868l-12.809,15.17l9.809,29.728l6.516-2.312l0.51-4.693l13.948-0.478l2.493-3.879l27.609,1.635l10.775-8.505l-0.287-14.083l51.873-6.803l38.61,6.533l106.755-36.466l12.243-0.272l1.418-20.139
				l-3.173-4.011l4.875-8.912l5.555-1.702l4.816,4.898l17.804-11.906l31.975,25.989l2.273,2.367l0.331,0.366l0.264,0.431l1.043,1.324l0.398-305.596L3002.185,1280z"/>
			<text transform="matrix(1 0 0 1 3139.2559 1477.4668)"><tspan x="0" y="0" style="fill:#000000;stroke:none;">89318</tspan></text>
		</g>
		<g>
			<path style="stroke-miterlimit:1;" d="M2681.759,2161.071l127.898,83.065l18.99-48.234l4.365-63.812l-10.77-19.116l-48.533-54.088l-6.516-14.487l-11.285,22.992l-15.079,18.844l-8.048,22.248l-51.023,52.588z"/>
			<text transform="matrix(1 0 0 1 2740.7012 2147.2695)"><tspan x="0" y="0" style="fill:#000000;stroke:none;">89317</tspan></text>
		</g>
		<g>
			<path style="stroke-miterlimit:1;" d="M2290.235,1275.506l-10.77,8.438l-14.854,2.651l-1.195,6.126l-6.516,3.536l-29.367,1.84l-0.457,12.24l-13.547,12.929l-3.855,16.6l-28.008,10.137l-3.797,8.37l-16.16-0.205l-14.511-6.463l-44.165,39.864l-64.57,11.566
				l0.34,22.72l-28.289,19.661l-1.986,6.126l-8.619-2.109l-12.756-11.836l-3.855-18.914l-9.58-17.417l-37.699-7.825l-3.627,432.68l3.738-1.292l-3.797,10.685l-2.209,97.146l393.334-0.272l-0.34-205.863l5.326,7.146l2.385-5.241l13.491-5.713v-11.634l15.929-16.395
				l6.633-20.546l-3.003-14.766l12.642-20.681l-7.934-35.713l2.777-16.465l-6.067-39.39l12.021-16.872l-1.986-41.771l9.58-14.153l2.156-12.788l-5.895-10.816l1.641-29.253l-8.561-12.381l0.51-17.145l-10.884-25.649l0.284-15.917l4.986-5.921l-3.853-11.701l3.8-6.735
				l-7.711-30.205l7.822-4.898l-2.379-5.376l3.855-4.216l-6.352-6.123l-74.098,0.202z"/>
			<text transform="matrix(1 0 0 1 2141.9141 1607.0322)"><tspan x="0" y="0" style="fill:#000000;stroke:none;">89316</tspan></text>
		</g>
		<g>
			<path style="stroke-miterlimit:1;" d="M1930.124,1932.758l-51.536-0.41l8.335,54.088l-13.436,61.907l12.926,11.224l6.803,21.431l-18.369,65.446l-8.332,9.252l-2.045,14.083l-24.662,40.685l-10.541,55.444l-12.586,21.495l41.613,7.96l-1.535,8.098l-19.951,28.778
				l-38.95,33.812l0.284,10.204l-4.764,7.55l7.992,5.783l9.413-2.106l4.535,8.095l20.807,0.272l8.956-12.316l9.129,8.438l40.137,17.757l67.184-47.01l15.135-1.292l10.148,6.463l30.674-13.538l38.947,9.861l20.862,12.454l0.68,39.524l23.47,3.267l28.236,57.419
				l11.959-6.059l44.561-62.859l40.254-15.442l45.58,17.892l20.525-7.008l28.799-24.557l41.326-7.758l99.498-69.935l0.059,14.827l-11.566,8.165l24.152,4.356l-3.973,15.712l5.332,42.521l52.723-15.92l2.607,12.451l-0.905,13.063l-17.804,34.898l-32.71,44.086
				l174.103-17.757l13.213,4.69l18.539-18.571l22.957,27.349l21.826-3.674l7.43,3.879l-3.686,8.912l3.229,10.069l9.129,5.104l-3.346,6.803l8.168-12.316l11.789-5.44l7.087-9.185l24.888,15.305l22.963-30.817l1.758-9.114l17.063,10.339v-198.785l-27.551-17.962
				l-127.898-83.065l-53.124-34.151l-3.63,11.291l16.216,26.669l-24.946,14.288l-25.172,24.489l-21.938,13.743l-69.281-66.396l1.875-17.215l17.461-2.517l-2.156-76.397l-193.605-122.391l-393.334,0.272z"/>
			<text transform="matrix(1 0 0 1 2294.6113 2224.2305)"><tspan x="0" y="0" style="fill:#000000;stroke:none;">89314</tspan></text>
		</g>
		<g>
			<path style="stroke-miterlimit:1;" d="M3373.807,1583.826l-31.975-25.989l-17.804,11.906l-4.816-4.898l-5.555,1.702l-4.875,8.912l3.173,4.011l-1.418,20.139l-12.243,0.272l-106.755,36.466l-38.61-6.533l-51.873,6.803l0.287,14.083l4.535,30.343l10.488,26.599
				l1.415,60.413l14.798,69.393l-6.407,24.967l-5.78,59.868l-8.338,14.49l-18.932,81.299l-13.553,6.87l13.436,8.367l23.191,58.304l-33.961,105.108l-33.053,53.065l-2.549,11.089l329.725,1.225l1.359-673.784l-1.043-1.324l-0.264-0.431l-0.331-0.366l-2.273-2.367z"/>
			<text transform="matrix(1 0 0 1 3195.9395 1912.9678)"><tspan x="0" y="0" style="fill:#000000;stroke:none;">89311</tspan></text>
		</g>
		<g>
			<path style="stroke-miterlimit:1;" d="M1474.253,1158.494l-77.496,203.074l12.527,19.389l7.084,2.517l2.836,11.836l13.834,8.232l5.613,12.041l3.627,25.852l-6.179,30.208l-9.015,8.572l1.418,27.281l-6.182,17.687l0.967,8.367l11.168,8.367l-7.143,21.703
				l13.266,16.939l-12.305,23.133l12.926,8.092l1.022,7.146l-11.733,16.667l3.457,9.935l-5.162,25.852l-8.9,10.137l-10.031-5.036l-7.485,7.553l-33.05,6.12l2.039,9.867l-8.619,8.64l-7.764,0.68l-4.424,9.252l-18.82,5.578l1.529,6.94l9.354,4.014l-4.989,17.212
				l-16.84,2.924l-11.959,24.902l-19.898,3.741l-8.508-3.741l-4.986,6.46l-3.855,12.111l1.529,16.6l11.508,25.649l-2.15,6.053l5.895,4.151l5.725,20.748l4.992,3.604l-3.234,22.113l-8.449,1.972l-10.485,17.215l-21.771,10.339l-0.621,7.277l4.588,5.036l-2.719,1.02
				l-9.809,2.924l8.561,9.729l-0.85,9.39l-4.764,1.837l11.736,7.075l2.836,7.62l6.858-1.43l40.708,45.718l4.022,37.688l-11.733,16.737l15.759,40.682l12.416-47.35l27.779,7.28l18.653-5.851l-1.532-116.2l138.729-24.967l87.645,0.138l275.188,0.814l51.536,0.41
				l2.209-97.146l3.797-10.685l-3.738,1.292l3.627-432.68l0.056-80.479l-5.499-1.157l1.304-90.413l-20.183-7.28l-3.006,10.274l-10.6-0.75l-22.283,9.662l-34.465-2.654l-26.42,4.761l-4.535-6.258l-16.216-5.511l-23.979,8.098l-5.332-6.533l-24.375-8.572
				l-22.336,3.334l-15.932-6.053l-13.775,8.027l-28.066-3.199l-12.527,7.075l-0.568,16.667l-8.842,18.026l-70.02-21.495l-10.09-8.03l-0.451-8.704l-8.561-11.294l-41.9-21.908l-8.332-14.08l1.248-9.524l-5.555-16.532l-20.525,9.457z"/>
			<text transform="matrix(1 0 0 1 1574.6738 1636.7627)"><tspan x="0" y="0" style="fill:#000000;stroke:none;">89310</tspan></text>
		</g>
		<g>
			<path style="stroke-miterlimit:1;" d="M2406.228,1274.964l-41.895,0.34l6.352,6.123l-3.855,4.216l2.379,5.376l-7.822,4.898l7.711,30.205l-3.8,6.735l3.853,11.701l-4.986,5.921l-0.284,15.917l10.884,25.649l-0.51,17.145l8.561,12.381l-1.641,29.253l5.895,10.816
				l-2.156,12.788l-9.58,14.153l1.986,41.771l-12.021,16.872l6.067,39.39l-2.777,16.465l7.934,35.713l-12.642,20.681l3.003,14.766l-6.633,20.546l-15.929,16.395v11.634l-13.491,5.713l-2.385,5.241l-5.326-7.146l0.34,205.863l193.605,122.391l2.156,76.397
				l-17.461,2.517l-1.875,17.215l69.281,66.396l21.938-13.743l25.172-24.489l24.946-14.288l-16.216-26.669l3.63-11.291l53.124,34.151l51.023-52.588l8.048-22.248l15.079-18.844l11.285-22.992l6.516,14.487l48.533,54.088l10.77,19.116l-4.365,63.812l-18.99,48.234
				l27.551,17.962l209.426-1.225l2.549-11.089l33.053-53.065l33.961-105.108l-23.191-58.304l-13.436-8.367l13.553-6.87l18.932-81.299l8.338-14.49l5.78-59.868l6.407-24.967l-14.798-69.393l-1.415-60.413l-10.488-26.599l-4.535-30.343l-10.775,8.505l-27.609-1.635
				l-2.493,3.879l-13.948,0.478l-0.51,4.693l-6.516,2.312l-9.809-29.728l12.809-15.17l-0.732-29.868l-6.293-6.258l13.037-27.486l-6.633-18.231l-0.794-26.736l24.606-10.339l2.379-7.28l24.721-3.404l-4.195-13.74l-67.242,14.968l-12.697,10.409l-60.492-12.384
				l-13.324-9.252l-1.072-23.947l18.536-64.901l17.177-20.546l21.604-78.167l5.215-6.056l5.895,1.837V1280l-204.604-1.093l-260.561-3.671l-22.336-0.138l-108.457-0.135z M2843.22,1902.008l-10.828-16.805l-10.658,5.921l-9.867-1.837l-0.791-11.701l-16.898-10.137
				l-8.561-19.456l-37.301-13.474l-5.162-6.94l1.588,6.873l-21.996-8.165l-0.568,5.921l-14.566-9.185l-22.339-2.517l2.663,8.572l-3.686,6.053l-5.156-6.258l-6.521,9.185l-4.875-0.067l-9.129-35.241l5.897-1.972l-7.427-4.696l73.529-45.035l24.041,0.067l2.777-34.969
				l13.605-3.062l7.371-15.853l13.605,5.719l21.938-12.656l21.486-71.024l2.725-0.067l-3.457,32.654l4.928,30.07l-3.627,3.129l5.672,10.342l-0.738,10.816l5.215,15.035l18.879,42.586l22.676,33.879l12.926,6.601l4.594,15.105l-32.824,27.073l-5.783-2.042
				l-14.004,6.601l-5.613,12.926l0.34,10.954l7.485,19.729l-11.563,7.348z"/>
			<text transform="matrix(1 0 0 1 2611.2676 1702.4756)"><tspan x="0" y="0" style="fill:#000000;stroke:none;">89301</tspan></text>
		</g>
		<g>
			<path style="stroke-miterlimit:1;" d="M1648.757,2922.749l0.281,110.959l21.598,0.205l-0.111,30.545h-10.26v9.864l-9.92,0.205v79.119l10.201,0.272l-0.226,19.526l10.315,0.202l-0.053,9.797l10.318,0.067l0.111,9.595l10.377,0.34l-0.229,19.729l10.43-0.067
				l-0.17,9.659l10.207-0.202l-0.284,19.931l10.603-0.067l0.056,10.069l20.692-0.067l0.059,9.932h10.031v9.932l19.846-0.067l0.056,11.089l9.753-0.475v10.271l20.918,0.07v9.861l10.43-0.067l0.117,9.39h20.238l-0.51,10.137l21.146-0.272l0.111,10.271l20.127-0.272
				l0.229,10.14l9.92-0.208l0.056,10.137l20.183-0.132l0.17,9.864l11.282,0.337l0.056,9.935l19.676-0.27l0.111,9.659l9.75-0.135l0.17,10.474l10.433-0.07l-0.114,99.533l-0.056,19.187l62.587-0.07l-0.68,117.627l136.178-2.18l38.039,0.41l39.29,32.654l0.226,28.846
				l52.896-14.423l-0.735-49.937l45.639-5.44l0.281-108.308l88.271,0.955l0.17-7.825h246.668l0.343-294.439l-192.246-1.494l-0.624-126.404h-10.148v-10.406h-19.898l0.111-9.729l-30.498-3.609l0.17-10.746l-11.338-0.07l0.34-16.055l-71.66,0.272l0.059-111.026
				l-2.268-8.098l-182.385,3.539l-0.17-58.573l-61.682,0.135l0.34-55.515l-435.287-1.632l-0.111,123.612z"/>
			<text transform="matrix(1 0 0 1 2140.7217 3246.5498)"><tspan x="0" y="0" style="fill:#000000;stroke:none;">89191</tspan></text>
		</g>
		<g>
			<path style="stroke-miterlimit:1;" d="M2759.879,4012.341l-2.833-6.94l-4.254,2.379l7.087,4.562z"/>
			<text transform="matrix(1 0 0 1 2757.0869 4012.6221)"><tspan x="0" y="0" style="fill:#000000;stroke:none;">89154</tspan></text>
		</g>
		<g>
			<path style="stroke-miterlimit:1;" d="M2699.442,4044.925l0.17,23.405l-7.764,1.904l10.998,6.8l-2.552,13.406l20.522,23.399l6.404,18.167l7.658-21.498l0.961-65.719l-17.232-0.067l4.646-10.137l-6.064,0.202v9.935l-17.748,0.202z"/>
			<text transform="matrix(1 0 0 1 2700.5176 4063.4756)"><tspan x="0" y="0" style="fill:#000000;stroke:none;">89139</tspan></text>
		</g>
		<g>
			<path style="stroke-miterlimit:1;" d="M2659.024,3933.831l-2.725,10.816l22.799-0.067l10.629-0.369l-10.409-2.748l0.396-7.087l-20.689-0.545z"/>
			<text transform="matrix(1 0 0 1 2647.8506 3942.7256)"><tspan x="0" y="0" style="fill:#000000;stroke:none;">89134</tspan></text>
		</g>
		<g>
			<path style="stroke-miterlimit:1;" d="M2658.966,3854.372l23.959,36.135l-0.762,5.016h4.605l2.924,3.814l25.57-2.039l4.705,7.688l0.621-49.799l-61.623-0.814z"/>
			<text transform="matrix(1 0 0 1 2679.5176 3872.9756)"><tspan x="0" y="0" style="fill:#000000;stroke:none;">89131</tspan></text>
		</g>
		<g>
			<path style="stroke-miterlimit:1;" d="M2689.692,3899.337l7.881,10.479l19.617,25.579h3.686l-0.932-17.194l0.023-13.216l-4.705-7.688l-25.57,2.039z"/>
			<text transform="matrix(1 0 0 1 2691.5176 3908.2256)"><tspan x="0" y="0" style="fill:#000000;stroke:none;">89130</tspan></text>
		</g>
		<g>
			<path style="stroke-miterlimit:1;" d="M2655.679,3854.439l-6.861,0.272l0.229,83.268l9.979-4.148l20.689,0.545l17.689,0.68l0.17-25.239l-7.881-10.479l-2.924-3.814h-4.605l0.762-5.016l-23.959-36.135l-3.287,0.067z"/>
			<text transform="matrix(1 0 0 1 2653.2676 3911.9756)"><tspan x="0" y="0" style="fill:#000000;stroke:none;">89129</tspan></text>
		</g>
		<g>
			<path style="stroke-miterlimit:1;" d="M2679.714,3934.376l-0.396,7.087l10.409,2.748l-10.629,0.369l-22.799,0.067l2.725-10.816l-9.979,4.148l0.34,37.351l9.182-0.067l40.822,0.135l-0.34-15.1l-1.646-25.242l-17.689-0.68z"/>
			<text transform="matrix(1 0 0 1 2657.0176 3969.7256)"><tspan x="0" y="0" style="fill:#000000;stroke:none;">89128</tspan></text>
		</g>
		<g>
			<path style="stroke-miterlimit:1;" d="M2749.616,4099.895l-14.736,10.614l-7.658,21.498l-15.984,27.551l-41.215,43.271l-32.824,53.54l-12.814,42.179l-8.675,52.181l94.169,89.323l33.393-10.066l20.748-16.263l41.783,4.761l-13.664-39.316l-10.09-0.48
				l10.541-52.248l5.842-25.034l34.354-69.87l2.836-15.1l17.461-11.156l23.074-21.501l13.403-67.878l0.542-11.379l-7.822-4.693l-10.148,0.067l-0.111-4.966l-25.23,0.475l-4.761,0.205l-0.513-11.563l-30.896-0.07v9.935l-30.445-0.683l0.568,13.201l-30.785-1.022
				l-0.34-5.511z"/>
			<text transform="matrix(1 0 0 1 2736.2246 4265.0146)"><tspan x="0" y="0" style="fill:#000000;stroke:none;">89124</tspan></text>
		</g>
		<g>
			<path style="stroke-miterlimit:1;" d="M2735.841,4044.79l-0.961,65.719l14.736-10.614l0.287-4.626l10.43-4.761v-5.171l10.26-4.014l0.34-31.43l-0.17-4.969l-34.922-0.135z"/>
			<text transform="matrix(1 0 0 1 2736.2246 4080.6494)"><tspan x="0" y="0" style="fill:#000000;stroke:none;">89123</tspan></text>
		</g>
		<g>
			<path style="stroke-miterlimit:1;" d="M2800.587,3975.942l0.053,9.524l0.85,29.865l2.271,9.932l8.165,2.452h5.326l4.594,7.685l3.516-3.331l16.354,3.094l5.414-13.028l5.502-1.154l-5.502-4.151l0.17,4.559l-10.09-3.879l-15.873-14.965l1.928-27.146l-22.676,0.545z
				"/>
			<text transform="matrix(1 0 0 1 2813.0176 4030.4756)"><tspan x="0" y="0" style="fill:#000000;stroke:none;">89122</tspan></text>
		</g>
		<g>
			<path style="stroke-miterlimit:1;" d="M2770.083,3985.399v17.417l0.114,12.583l31.292-0.067l-0.85-29.865l-30.557-0.067z"/>
			<text transform="matrix(1 0 0 1 2781.292 3998.1494)"><tspan x="0" y="0" style="fill:#000000;stroke:none;">89121</tspan></text>
		</g>
		<g>
			<path style="stroke-miterlimit:1;" d="M2770.197,4015.399l0.565,29.525l0.17,4.969h10.148l-0.111-7.415l22.79-17.215l-2.271-9.932l-31.292,0.067z"/>
			<text transform="matrix(1 0 0 1 2771.0176 4028.9756)"><tspan x="0" y="0" style="fill:#000000;stroke:none;">89120</tspan></text>
		</g>
		<g>
			<path style="stroke-miterlimit:1;" d="M2735.331,4014.925l0.51,29.865l34.922,0.135l-0.565-29.525l-0.114-12.583l-20.18-1.157l2.777,13.061l-17.35,0.205z M2759.879,4012.341l-7.087-4.562l4.254-2.379l2.833,6.94z"/>
			<text transform="matrix(1 0 0 1 2736.2129 4043.2256)"><tspan x="0" y="0" style="fill:#000000;stroke:none;">89119</tspan></text>
		</g>
		<g>
			<path style="stroke-miterlimit:1;" d="M2699.729,4015.739l-0.287,29.186l17.748-0.202v-9.935l6.064-0.202l-4.646,10.137l17.232,0.067l-0.51-29.865l-35.602,0.814z"/>
			<text transform="matrix(1 0 0 1 2701.4082 4032.9248)"><tspan x="0" y="0" style="fill:#000000;stroke:none;">89118</tspan></text>
		</g>
		<g>
			<path style="stroke-miterlimit:1;" d="M2658.567,3975.263l0.17,19.796l20.637,0.272l-0.396,20.476l20.751-0.067l0.281-17.549l-0.621-22.793l-40.822-0.135z"/>
			<g>
				<text transform="matrix(1 0 0 1 2661.9629 3989.9756)"><tspan x="0" y="0" style="fill:#000000;stroke:none;">89117</tspan></text>
			</g>
		</g>
		<g>
			<path style="stroke-miterlimit:1;" d="M2792.313,3906.585l-0.018,13.436l-10.418,0.393l0.053,35.051l41.42-0.97l6.744-1.21l-0.647-4.74l-5.915-3.434l2.848-25.907l7.541-3.604v-11.839l-11.168-12.381l-30.439,15.205z"/>
			<text transform="matrix(1 0 0 1 2785.6602 3941.7549)"><tspan x="0" y="0" style="fill:#000000;stroke:none;">89115</tspan></text>
		</g>
		<g>
			<path style="stroke-miterlimit:1;" d="M2678.979,4015.807l-35.604,2.449l-9.58,17.077l2.438,15.173l5.443,10.611l16.67,7.008l33.504,2.109l7.764-1.904l-0.17-23.405l0.287-29.186l-20.751,0.067z"/>
			<text transform="matrix(1 0 0 1 2650.5254 4045.9854)"><tspan x="0" y="0" style="fill:#000000;stroke:none;">89113</tspan></text>
		</g>
		<g>
			<path style="stroke-miterlimit:1;" d="M2823.351,3954.494l-41.42,0.97l-0.053,20.139l18.709,0.34l22.676-0.545l13.945-2.177v-25.037l-7.761,0.36l0.647,4.74l-6.744,1.21z"/>
			<text transform="matrix(1 0 0 1 2798.4629 3971.9756)"><tspan x="0" y="0" style="fill:#000000;stroke:none;">89110</tspan></text>
		</g>
		<g>
			<path style="stroke-miterlimit:1;" d="M2748.538,3985.669l-7.764-0.135l-5.613,12.246l0.17,17.145l17.35-0.205l-2.777-13.061l20.18,1.157v-17.417l-21.545,0.27z"/>
			<text transform="matrix(1 0 0 1 2737.4404 3999.4121)"><tspan x="0" y="0" style="fill:#000000;stroke:none;">89109</tspan></text>
		</g>
		<g>
			<path style="stroke-miterlimit:1;" d="M2697.403,3935.056l1.646,25.242l36.905-0.205l-7.368-9.932l-11.396-14.766l-19.617-25.579l-0.17,25.239z"/>
			<text transform="matrix(1 0 0 1 2696.0176 3947.9756)"><tspan x="0" y="0" style="fill:#000000;stroke:none;">89108</tspan></text>
		</g>
		<g>
			<path style="stroke-miterlimit:1;" d="M2699.05,3960.298l0.34,15.1h40.307l-3.741-15.305l-36.905,0.205z"/>
			<text transform="matrix(1 0 0 1 2699.7676 3973.4756)"><tspan x="0" y="0" style="fill:#000000;stroke:none;">89107</tspan></text>
		</g>
		<g>
			<path style="stroke-miterlimit:1;" d="M2728.587,3950.161l7.368,9.932l3.741,15.305l10.6,0.067l10.605-20.341l-9.41-5.033v-4.966h-7.77l0.111,5.036h-15.246z"/>
			<text transform="matrix(1 0 0 1 2730.5176 3960.7256)"><tspan x="0" y="0" style="fill:#000000;stroke:none;">89106</tspan></text>
		</g>
		<g>
			<path style="stroke-miterlimit:1;" d="M2750.583,3975.465l-2.045,10.204l21.545-0.27l30.557,0.067l-0.053-9.524l-18.709-0.34l-31.295-0.138z"/>
			<text transform="matrix(1 0 0 1 2750.0176 3984.7256)"><tspan x="0" y="0" style="fill:#000000;stroke:none;">89104</tspan></text>
		</g>
		<g>
			<path style="stroke-miterlimit:1;" d="M2700.011,3998.19l-0.281,17.549l35.602-0.814l-0.17-17.145l-35.15,0.41z"/>
			<text transform="matrix(1 0 0 1 2700.8457 4009.7598)"><tspan x="0" y="0" style="fill:#000000;stroke:none;">89103</tspan></text>
		</g>
		<g>
			<path style="stroke-miterlimit:1;" d="M2699.39,3975.397l0.621,22.793l35.15-0.41l5.613-12.246l7.764,0.135l2.045-10.204h-0.287l-10.6-0.067h-40.307z"/>
			<text transform="matrix(1 0 0 1 2708.3047 3989.7939)"><tspan x="0" y="0" style="fill:#000000;stroke:none;">89102</tspan></text>
		</g>
		<g>
			<path style="stroke-miterlimit:1;" d="M2760.901,3955.124l-10.605,20.341h0.287l31.295,0.138l0.053-20.139l-21.029-0.34z"/>
			<text transform="matrix(1 0 0 1 2752.2676 3973.4756)"><tspan x="0" y="0" style="fill:#000000;stroke:none;">89101</tspan></text>
		</g>
		<g>
			<path style="stroke-miterlimit:1;" d="M2743.493,2502.113l3.346-6.803l-9.129-5.104l-3.229-10.069l3.686-8.912l-7.43-3.879l-21.826,3.674l-22.957-27.349l-18.539,18.571l-13.213-4.69L2480.1,2475.31l32.71-44.086l17.804-34.898l0.905-13.063l-2.607-12.451
				l-52.723,15.92l-5.332-42.521l3.973-15.712l-24.152-4.356l11.566-8.165l-0.059-14.827l-99.498,69.935l-41.326,7.758l-28.799,24.557l-20.525,7.008l-45.58-17.892l-40.254,15.442l-44.561,62.859l-11.959,6.059l-28.236-57.419l-23.47-3.267l-0.68-39.524
				l-20.862-12.454l-38.947-9.861l-30.674,13.538l-10.148-6.463l-15.135,1.292l-67.184,47.01l-40.137-17.757l-9.129-8.438l-8.956,12.316l-20.807-0.272l-4.535-8.095l-9.413,2.106l-7.992-5.783l-60.035,3.064l-18.199,31.43l-48.36,17.552l-18.483-0.202
				l-14.625-11.974l-28.746,0.882l-14.057,13.811l-2.042,11.701l-54.653,32.997l1.362,31.975l-42.858,15.51l-1.02,11.634l-16.67,34.151l92.297,98.985l-0.059,13.471l12.357-0.135l30.39,33.062l-0.17,187.562l13.21,9.935l25.74,3.536l0.111-123.612l435.287,1.632
				l-0.34,55.515l61.682-0.135l0.17,58.573l182.385-3.539l2.268,8.098l0.621-230.76l319.916-0.275l186.352-0.138v-25.646v-201.577l-17.063-10.339l-1.758,9.114l-22.963,30.817l-24.888-15.305l-7.087,9.185l-11.789,5.44l-8.168,12.316z"/>
			<text transform="matrix(1 0 0 1 2139.418 2614.9502)"><tspan x="0" y="0" style="fill:#000000;stroke:none;">89049</tspan></text>
		</g>
		<g>
			<path style="stroke-miterlimit:1;" d="M894.229,2793.491l318.385,276.208l52.67-32.795l3.006-8.162l11.224-5.985l26.985-41.361l12.135-21.026l3.229-17.959l19.049-41.227l3.855-13.403l-0.791-28.641l-22.734-53.54l6.688-28.641l-2.95-17.619l-8.842-5.921
				l-27.551,15.24l-16.898-23.678l-6.574-27.141l12.756,6.325l30.557-7.825l25.91-25.916l-32.089-20.071l-5.613-13.743l5.499-24.762l-4.764-12.246l4.084-5.036l0.281-14.353l7.371-11.021l-20.918-20.341l-41.215-5.306l-27.214-27.621l-33.563-4.148L937.711,2795.19
				l-43.482-1.699z"/>
			<text transform="matrix(1 0 0 1 1102.8184 2803.7363)"><tspan x="0" y="0" style="fill:#000000;stroke:none;">89047</tspan></text>
		</g>
		<g>
			<path style="stroke-miterlimit:1;" d="M2853.081,4205.278l-17.461,11.156l-2.836,15.1l-34.354,69.87l-5.842,25.034l-10.541,52.248l10.09,0.48l13.664,39.316l-41.783-4.761l-20.748,16.263l-33.393,10.066l334.77,321.448v-21.363l17.575-23.47l-5.897-9.319
				l-20.01-12.381l8.051-9.797l0.563-5.921l10.096-0.067l-5.218-19.184l-10.204-0.683l-31.236,23.203l-11.736-18.984l4.646-16.257l-15.984-1.702l31.008,2.994l2.555-21.771l43.992,12.653l14.344-2.924l3.117-8.37l-5.443-1.087l2.438-2.587l-6.404-5.033l2.666-7.825
				l-1.816-4.963l-3.967,2.174l4.535-7.55l-5.728,1.02l2.098-7.825l1.474-6.188l-4.195-2.859l2.552-5.578l-3.8-0.952l2.836-3.876l-7.77-5.443l2.78-3.469l-3.003-13.813l4.418-7.96l-5.215-7.688l0.967-12.041l-16.726-19.796l-24.097-29.663l3.516-26.938
				l-5.783-15.103l2.385-4.148l-4.025-0.82l8.672-25.714l-26.021,1.837l-21.375,17.347l-27.211-19.456l-29.479,1.904l-21.999-52.178l4.479-29.801l-16.723,3.812l-8.848,7.143l8.619,12.791l-2.039,3.466l-22.395-39.729l-1.189-33.606l9.182-51.431l-14.115-0.135
				l-1.477-19.116z"/>
			<text transform="matrix(1 0 0 1 2878.4082 4486.3877)"><tspan x="0" y="0" style="fill:#000000;stroke:none;">89046</tspan></text>
		</g>
		<g>
			<path style="stroke-miterlimit:1;" d="M1603.399,1931.533l-24.885,42.926l-25.289,7.758l-1.641,18.026l5.271,5.309l-3.173,7.758l-6.07,1.222l0.683,14.695l-4.708,5.036l3.404,7.005l-3.686,7.008l-13.324,4.898l2.777,6.123l-7.594,5.373l2.268,3.809l-7.031,19.321
				l1.928,3.812l-11.678,6.396l-9.24,37.146l4.934,9.114l-2.953,12.246l13.834,25.104l-9.24,16.055l3.627,25.172l6.58,14.08l-4.764,21.841l22.904,57.557l15.305,12.516l0.398,8.64l7.482,12.653l11.168,2.789l20.525,8.027l9.864-26.262l35.147,9.255l11.795,11.432
				l38.209-5.648l34.582,20.886l10.547-10.274l5.045-20.408l-11.736-26.807l6.521-19.729l-6.463-1.767l-1.816-8.777l39.006-18.844l23.982,20.613l24.152,9.454l6.633-6.668l12.586-21.495l10.541-55.444l24.662-40.685l2.045-14.083l8.332-9.252l18.369-65.446
				l-6.803-21.431l-12.926-11.224l13.436-61.907l-8.335-54.088l-275.188-0.814z"/>
			<text transform="matrix(1 0 0 1 1680.6289 2154.0723)"><tspan x="0" y="0" style="fill:#000000;stroke:none;">89045</tspan></text>
		</g>
		<g>
			<path style="stroke-miterlimit:1;" d="M2837.208,2262.099v198.785v201.577l11.736,9.595l-1.588-5.854l5.385-4.693l3.855-18.571l21.261,6.056l17.405,12.448l39.967-9.864l46.603,85.107l-1.304,28.641l16.951-2.382l3.346,18.097l-2.607,17.552l25.453,9.117
				l33.902,21.36l11.906,1.022l11.227,26.531l27.041-0.34l37.418,13.4l16.271,15.445l-4.14,9.185l26.417-2.859l0.117-17.209l5.895-8.572l61.172-0.272l31.805,7.14l31.295,24.223l21.316,9.457l39.908,4.488l1.137-648.609l-329.725-1.225l-209.426,1.225z"/>
			<text transform="matrix(1 0 0 1 3090.1016 2588.791)"><tspan x="0" y="0" style="fill:#000000;stroke:none;">89043</tspan></text>
		</g>
		<g>
			<path style="stroke-miterlimit:1;" d="M2118.567,3779.469l-9.639,9.387l-9.24,20.953l17.578,2.042l27.492,49.729l19.219,18.712l1.365,15.237l-5.9,18.234l3.855,13.468l165.094,153.48l1.02-272.467l-47.848,12.993l-49.324-15.779l-4.424-2.859l1.418-14.628
				l-12.586-5.646l-23.133-0.75l-22.392-10.477l-8.786,7.825l-43.77,0.545z"/>
			<text transform="matrix(1 0 0 1 2197.8652 3928.9063)"><tspan x="0" y="0" style="fill:#000000;stroke:none;">89041</tspan></text>
		</g>
		<g>
			<path style="stroke-miterlimit:1;" d="M3093.403,3630.005l1.928,113.405h-10.828l0.17,5.716h-59.643v31.022l4.143,0.407l-4.143,4.696l0.34,128.238l-122.906,2.039l-18.199,43.271l5.666,14.013l14.461,10.749l-14.801,8.774l5.953,15.035l-2.039,5.851l10.658-1.02
				l-0.454,16.6h3.8v6.665l2.039-3.196l9.527,4.559l18.706-6.735l2.44,18.914l10.151,13.863l2.886,14.438l29.936-2.792l1.131-1.359l0.574-0.437l9.973-11.127l-10.547-2.924l-9.012,8.774h-10.603l-21.091-20.549l4.535-16.119l-16.611-22.046l-15.079-1.427
				l4.538-10.274l45.24,4.424l4.535,4.354l9.012-2.924l-4.477-2.924l10.544-7.351l1.474,8.845l13.605-5.918v-10.274l25.626,11.769l18.085-16.122l12.076,11.701l45.182-17.619l55.787,4.421l16.611-65.988h18.088l-9.073,32.244l4.538,22.043l28.629,36.668
				l24.149,14.631l1.532,23.47l7.482-1.43l15.082,8.777l-9.018,2.924l-1.529,13.195l18.085,7.351l46.772-11.701l1.474-38.168l57.316-85.107l-1.983-318.861l-66.727,32.314l-4.025-2.924l2.719-7.28l-11.906-24.015l-24.832-22.181l8.959-11.563l-10.318-17.484
				l-6.463-2.856l-4.934,6.873l-11.338-4.222l-0.85-10.477l-45.92,10.002l-33.334,11.429l-41.73,30.003l-15.645,19.796l-16.102,3.132z"/>
			<text transform="matrix(1 0 0 1 3114.3652 3819.4766)"><tspan x="0" y="0" style="fill:#000000;stroke:none;">89040</tspan></text>
		</g>
		<g>
			<path style="stroke-miterlimit:1;" d="M2665.71,3502.988h-246.668l-0.17,7.825l-88.271-0.955l-0.281,108.308l-1.195,78.712l49.383,9.05l73.02-6.533l35.432,3.741l94.623,62.115l18.879,33.946l55.219,55.242l3.287-0.067l61.623,0.814l-0.621,49.799l-0.023,13.216
				l19.172,2.118l0.258-14.514h9.826l5.798,0.604v13.611l24.688-0.563l2.191,0.955l10.418-0.393l0.018-13.436l30.439-15.205l11.168,12.381v11.839l68.543-0.07l122.906-2.039l-0.34-128.238l4.143-4.696l-4.143-0.407v-31.022h59.643l-0.17-5.716h10.828l-1.928-113.405
				l0.51-120.349l-119.566-0.138v-6.53H2862.55h-196.84z"/>
			<text transform="matrix(1 0 0 1 2695.5488 3714.7021)"><tspan x="0" y="0" style="fill:#000000;stroke:none;">89031</tspan></text>
		</g>
		<g>
			<path style="stroke-miterlimit:1;" d="M2719.944,3918.201l0.932,17.194h-3.686l11.396,14.766h15.246l-0.111-5.036h7.77v4.966l9.41,5.033l21.029,0.34l-0.053-35.051l-2.191-0.955l-24.688,0.563v-13.611l-5.798-0.604h-9.826l-0.258,14.514l-19.172-2.118z"/>
			<text transform="matrix(1 0 0 1 2732.8789 3933.6348)"><tspan x="0" y="0" style="fill:#000000;stroke:none;">89030</tspan></text>
		</g>
		<g>
			<path style="stroke-miterlimit:1;" d="M3080.308,4628.158l-3.117,8.37l-14.344,2.924l-43.992-12.653l-2.555,21.771l-31.008-2.994l15.984,1.702l-4.646,16.257l11.736,18.984l31.236-23.203l10.204,0.683l5.218,19.184l-10.096,0.067l-0.563,5.921l31.975-9.252
				l4.418-21.498l-0.451-26.262z"/>
			<text transform="matrix(1 0 0 1 3021.5176 4652.9756)"><tspan x="0" y="0" style="fill:#000000;stroke:none;">89029</tspan></text>
		</g>
		<g>
			<path style="stroke-miterlimit:1;" d="M3093.913,3509.656l-0.51,120.349l16.102-3.132l15.645-19.796l41.73-30.003l33.334-11.429l45.92-10.002l0.85,10.477l11.338,4.222l4.934-6.873l6.463,2.856l10.318,17.484l25.796-11.769l6.577-11.224l29.411-22.254
				l7.708,1.963l1.635,5.326l7.014-7.289l17.414-3.366l-0.018-7.808l0.161-17.464l-281.821-0.27z"/>
			<text transform="matrix(1 0 0 1 3199.2676 3545.9756)"><tspan x="0" y="0" style="fill:#000000;stroke:none;">89027</tspan></text>
		</g>
		<g>
			<path style="stroke-miterlimit:1;" d="M2154.966,3626.056l-2.379,16.872l-16.781,27.826l-26.648,67.69l39.457,16.465l-30.047,24.56l43.77-0.545l8.786-7.825l22.392,10.477l23.133,0.75l12.586,5.646l-1.418,14.628l4.424,2.859l49.324,15.779l47.848-12.993
				l-0.287-111.366l1.195-78.712l-45.639,5.44l0.735,49.937l-52.896,14.423l-0.226-28.846l-39.29-32.654l-38.039-0.41z"/>
			<text transform="matrix(1 0 0 1 2203.0566 3722.7031)"><tspan x="0" y="0" style="fill:#000000;stroke:none;">89023</tspan></text>
		</g>
		<g>
			<path style="stroke-miterlimit:1;" d="M1570.687,2352.919l-20.807,29.865l-26.982,27.486l-74.212-5.101l17.974,31.02l-23.584-1.228l14.906,19.802l0.287,9.932l-21.375-0.34l-25.623-35.648l-72.343,0.34l136.063,147.287l16.67-34.151l1.02-11.634l42.858-15.51
				l-1.362-31.975l54.653-32.997l2.042-11.701l14.057-13.811l28.746-0.882l14.625,11.974l18.483,0.202l48.36-17.552l18.199-31.43l60.035-3.064l4.764-7.55l-0.284-10.204l38.95-33.812l19.951-28.778l1.535-8.098l-41.613-7.96l-6.633,6.668l-24.152-9.454
				l-23.982-20.613l-39.006,18.844l1.816,8.777l6.463,1.767l-6.521,19.729l11.736,26.807l-5.045,20.408l-10.547,10.274l-34.582-20.886l-38.209,5.648l-11.795-11.432l-35.147-9.255l-9.864,26.262l-20.525-8.027z"/>
			<text transform="matrix(1 0 0 1 1551.9277 2425.1699)"><tspan x="0" y="0" style="fill:#000000;stroke:none;">89022</tspan></text>
		</g>
		<g>
			<path style="stroke-miterlimit:1;" d="M1956.937,3491.492l-15.703,12.586l-2.379,15.715l-11.057,12.586l-8.675,31.564l-30.331,30.343l-18.765,46.67l-1.928,15.647l295.198,270.627l-3.855-13.468l5.9-18.234l-1.365-15.237l-19.219-18.712l-27.492-49.729
				l-17.578-2.042l9.24-20.953l9.639-9.387l30.047-24.56l-39.457-16.465l26.648-67.69l16.781-27.826l2.379-16.872l-136.178,2.18l0.68-117.627l-62.587,0.07l0.056-19.187z"/>
			<text transform="matrix(1 0 0 1 2000.0381 3712.3613)"><tspan x="0" y="0" style="fill:#000000;stroke:none;">89020</tspan></text>
		</g>
		<g>
			<path style="stroke-miterlimit:1;" d="M2363.935,4113.433l251.774,237.296l8.675-52.181l12.814-42.179l32.824-53.54l41.215-43.271l15.984-27.551l-6.404-18.167l-356.883-0.407z"/>
			<text transform="matrix(1 0 0 1 2528.8965 4235.0791)"><tspan x="0" y="0" style="fill:#000000;stroke:none;">89019</tspan></text>
		</g>
		<g>
			<path style="stroke-miterlimit:1;" d="M2329.411,3808.244l-1.02,272.467l35.543,32.722l356.883,0.407l-20.522-23.399l2.552-13.406l-10.998-6.8l-33.504-2.109l-16.67-7.008l-5.443-10.611l-2.438-15.173l9.58-17.077l35.604-2.449l0.396-20.476l-20.637-0.272
				l-0.17-19.796l-9.182,0.067l-0.34-37.351l-0.229-83.268l6.861-0.272l-55.219-55.242l-18.879-33.946l-94.623-62.115l-35.432-3.741l-73.02,6.533l-49.383-9.05l0.287,111.366z"/>
			<text transform="matrix(1 0 0 1 2507.9199 3908.3574)"><tspan x="0" y="0" style="fill:#000000;stroke:none;">89018</tspan></text>
		</g>
		<g>
			<path style="stroke-miterlimit:1;" d="M2837.208,2662.461v25.646l-186.352,0.138l-26.813,6.056l3.911,1.767l-11.394,9.729l-67.295,45.445l3.797,27.214l11.338,31.09l6.861,8.572l-5.502,1.02l-6.686,11.566l1.189,27.076l19.444,11.496l6.349-2.177l-10.031,27.352
				l2.549,23.877l-4.137,21.428l1.301,49.324l-15.363,8.367l1.359,24.425l-4.758,12.041l-11.566-0.68l-12.135,14.49l-10.09-11.906l-2.777,9.39l-14.402-21.498l-3.457,15.51l-13.945-6.665l75.398,59.596l-5.836,36.938l7.143,8.165l60.264-20.613l-1.928-11.566
				l3.967-8.3l22.564-31.292l51.48-24.899l11.508,2.789l17.232-14.766l16.556,2.385l81.976-47.01l12.305-0.545l6.691-26.736l-4.084-13.605l1.078-15.378l-5.613-9.319l-1.078-26.124l15.99-9.729l-6.58-8.367l-14.396-0.952l0.791-13.945l-6.064-15.58l-1.986-22.383
				l9.299-30.205l13.04-18.164l1.415-19.459l14.232-39.797l-3.062-21.498l-8.903-9.457l-3.059-10.679l-11.736-9.595z"/>
			<text transform="matrix(1 0 0 1 2659.6016 2902.8564)"><tspan x="0" y="0" style="fill:#000000;stroke:none;">89017</tspan></text>
		</g>
		<g>
			<path style="stroke-miterlimit:1;" d="M2833.921,3915.6l-7.541,3.604l-2.848,25.907l5.915,3.434l7.761-0.36v25.037l-13.945,2.177l-1.928,27.146l15.873,14.965l10.09,3.879l-0.17-4.559l5.502,4.151l-5.502,1.154l-5.414,13.028l-16.354-3.094l-3.516,3.331
				l-4.594-7.685h-5.326l10.406,16.802l-3.047,18.252l8.742-1.313l0.17,0.138l15.759,3.943l-4.989,2.927l2.496,6.938h3.855l1.471,20.001l25.23-0.475l0.111,4.966l10.148-0.067l7.822,4.693l-0.542,11.379l26.687-12.375l7.33-15.973l9.325-4.547l2.915-9.609
				l14.558-10.523l-10.151-13.863l-2.44-18.914l-18.706,6.735l-9.527-4.559l-2.039,3.196v-6.665h-3.8l0.454-16.6l-10.658,1.02l2.039-5.851l-5.953-15.035l14.801-8.774l-14.461-10.749l-5.666-14.013l18.199-43.271l-68.543,0.07z"/>
			<text transform="matrix(1 0 0 1 2866.2676 4057.4756)"><tspan x="0" y="0" style="fill:#000000;stroke:none;">89015</tspan></text>
		</g>
		<g>
			<path style="stroke-miterlimit:1;" d="M2803.76,4025.264l-22.79,17.215l0.111,7.415h-10.148l-0.34,31.43l17.918-13.605l30.773-4.948l3.047-18.252l-10.406-16.802l-8.165-2.452z"/>
			<text transform="matrix(1 0 0 1 2783.7676 4060.4756)"><tspan x="0" y="0" style="fill:#000000;stroke:none;">89014</tspan></text>
		</g>
		<g>
			<path style="stroke-miterlimit:1;" d="M1312.112,2400.541l-125.915,131.235l33.563,4.148l27.214,27.621l41.215,5.306l20.918,20.341l-7.371,11.021l-0.281,14.353l-4.084,5.036l4.764,12.246l-5.499,24.762l5.613,13.743l32.089,20.071l-25.91,25.916l-30.557,7.825
				l-12.756-6.325l6.574,27.141l16.898,23.678l27.551-15.24l8.842,5.921l2.95,17.619l-6.688,28.641l22.734,53.54l0.791,28.641l-3.855,13.403l-19.049,41.227l-3.229,17.959l-12.135,21.026l-26.985,41.361l-11.224,5.985l-3.006,8.162l-52.67,32.795l397.137,353.15
				l0.056-513.571l0.17-187.562l-30.39-33.062l-12.357,0.135l0.059-13.471l-92.297-98.985l-136.063-147.287l-26.815-28.506z"/>
			<text transform="matrix(1 0 0 1 1381.4053 2914.6953)"><tspan x="0" y="0" style="fill:#000000;stroke:none;">89013</tspan></text>
		</g>
		<g>
			<path style="stroke-miterlimit:1;" d="M2828.026,4061.457l-8.742,1.313l-30.773,4.948l-17.918,13.605l-10.26,4.014v5.171l-10.43,4.761l-0.287,4.626l0.34,5.511l30.785,1.022l-0.568-13.201l30.445,0.683v-9.935l30.896,0.07l0.513,11.563l4.761-0.205l-1.471-20.001
				h-3.855l-2.496-6.938l4.989-2.927l-15.759-3.943l-0.17-0.138z"/>
			<text transform="matrix(1 0 0 1 2791.5234 4079.6094)"><tspan x="0" y="0" style="fill:#000000;stroke:none;">89012</tspan></text>
		</g>
		<g>
			<path style="stroke-miterlimit:1;" d="M2848.944,2672.056l3.059,10.679l8.903,9.457l3.062,21.498l-14.232,39.797l-1.415,19.459l-13.04,18.164l-9.299,30.205l1.986,22.383l6.064,15.58l-0.791,13.945l14.396,0.952l6.58,8.367l-15.99,9.729l1.078,26.124l5.613,9.319
				l-1.078,15.378l4.084,13.605l-6.691,26.736l3.686,53.813l-7.257,27.009l1.644,17.212l-8.789,3.876l-0.961,5.376l8.561,27.891l17.291,20.479v13.198l-4.819,3.129l7.427,43.134l12.756,4.216l-7.992,23.678l-10.828,15.372l-22.113,18.981l-17.687,5.921l15.079,9.252
				l4.195,9.047l13.553,76.535l17.572,141.437h111.797v6.53l119.566,0.138l281.821,0.27l-0.513-599.218l-39.908-4.488l-21.316-9.457l-31.295-24.223l-31.805-7.14l-61.172,0.272l-5.895,8.572l-0.117,17.209l-26.417,2.859l4.14-9.185l-16.271-15.445l-37.418-13.4
				l-27.041,0.34l-11.227-26.531l-11.906-1.022l-33.902-21.36l-25.453-9.117l2.607-17.552l-3.346-18.097l-16.951,2.382l1.304-28.641l-46.603-85.107l-39.967,9.864l-17.405-12.448l-21.261-6.056l-3.855,18.571l-5.385,4.693l1.588,5.854z"/>
			<text transform="matrix(1 0 0 1 3077.2578 3079.4316)"><tspan x="0" y="0" style="fill:#000000;stroke:none;">89008</tspan></text>
		</g>
		<g>
			<path style="stroke-miterlimit:1;" d="M3341.82,3538.563l-29.411,22.254l-6.577,11.224l-25.796,11.769l-8.959,11.563l24.832,22.181l11.906,24.015l-2.719,7.28l4.025,2.924l66.727-32.314l-0.258-84.261l-17.414,3.366l-7.014,7.289l-1.635-5.326l-7.708-1.963z"/>
			<text transform="matrix(1 0 0 1 3306.7813 3596.4834)"><tspan x="0" y="0" style="fill:#000000;stroke:none;">89007</tspan></text>
		</g>
		<g>
			<path style="stroke-miterlimit:1;" d="M2984.325,4073.158l-1.131,1.359l-29.936,2.792l-2.886-14.438l-14.558,10.523l-2.915,9.609l-9.325,4.547l-7.33,15.973l-26.687,12.375l-13.403,67.878l-23.074,21.501l1.477,19.116l14.115,0.135l-9.182,51.431l1.189,33.606
				l22.395,39.729l2.039-3.466l-8.619-12.791l8.848-7.143l16.723-3.812l-4.479,29.801l21.999,52.178l29.479-1.904l27.211,19.456l21.375-17.347l26.021-1.837l0.794-23.745l-10.714-7.14l15.135-9.39l3.744-12.316l-2.496-6.46l-2.836,4.216l-2.49-2.991l-3.346-12.586
				l-9.07-7.755l1.075-17.01l3.062-11.294l-7.201-2.379l-6.861-15.92l7.43-29.118l-3.797-6.053l1.301-16.872l-7.424-9.524l9.806-18.234l-6.577-12.721l25.512-14.15l-20.52-18.847l-5.672-8.569l0.624-10.887l-13.438-10.816l1.078-12.586l-8.273-15.513l2.385-21.05
				l-0.574,0.437z"/>
			<text transform="matrix(1 0 0 1 2926.1738 4245.2422)"><tspan x="0" y="0" style="fill:#000000;stroke:none;">89005</tspan></text>
		</g>
		<g>
			<path style="stroke-miterlimit:1;" d="M1609.807,2909.278l-0.056,513.571l258.349,233.754l1.928-15.647l18.765-46.67l30.331-30.343l8.675-31.564l11.057-12.586l2.379-15.715l15.703-12.586l0.114-99.533l-10.433,0.07l-0.17-10.474l-9.75,0.135l-0.111-9.659
				l-19.676,0.27l-0.056-9.935l-11.282-0.337l-0.17-9.864l-20.183,0.132l-0.056-10.137l-9.92,0.208l-0.229-10.14l-20.127,0.272l-0.111-10.271l-21.146,0.272l0.51-10.137h-20.238l-0.117-9.39l-10.43,0.067v-9.861l-20.918-0.07v-10.271l-9.753,0.475l-0.056-11.089
				l-19.846,0.067v-9.932h-10.031l-0.059-9.932l-20.692,0.067l-0.056-10.069l-10.603,0.067l0.284-19.931l-10.207,0.202l0.17-9.659l-10.43,0.067l0.229-19.729l-10.377-0.34l-0.111-9.595l-10.318-0.067l0.053-9.797l-10.315-0.202l0.226-19.526l-10.201-0.272v-79.119
				l9.92-0.205v-9.864h10.26l0.111-30.545l-21.598-0.205l-0.281-110.959l-25.74-3.536l-13.21-9.935z"/>
			<text transform="matrix(1 0 0 1 1730.7676 3407.2256)"><tspan x="0" y="0" style="fill:#000000;stroke:none;">89003</tspan></text>
		</g>
		<g>
			<path style="stroke-miterlimit:1;" d="M2330.319,2919.28l-0.059,111.026l71.66-0.272l-0.34,16.055l11.338,0.07l-0.17,10.746l30.498,3.609l-0.111,9.729h19.898v10.406h10.148l0.624,126.404l192.246,1.494l-0.343,294.439h196.84l-17.572-141.437l-13.553-76.535
				l-4.195-9.047l-15.079-9.252l17.687-5.921l22.113-18.981l10.828-15.372l7.992-23.678l-12.756-4.216l-7.427-43.134l4.819-3.129v-13.198l-17.291-20.479l-8.561-27.891l0.961-5.376l8.789-3.876l-1.644-17.212l7.257-27.009l-3.686-53.813l-12.305,0.545l-81.976,47.01
				l-16.556-2.385l-17.232,14.766l-11.508-2.789l-51.48,24.899l-22.564,31.292l-3.967,8.3l1.928,11.566l-60.264,20.613l-7.143-8.165l5.836-36.938l-75.398-59.596l13.945,6.665l3.457-15.51l14.402,21.498l2.777-9.39l10.09,11.906l12.135-14.49l11.566,0.68
				l4.758-12.041l-1.359-24.425l15.363-8.367l-1.301-49.324l4.137-21.428l-2.549-23.877l10.031-27.352l-6.349,2.177l-19.444-11.496l-1.189-27.076l6.686-11.566l5.502-1.02l-6.861-8.572l-11.338-31.09l-3.797-27.214l67.295-45.445l11.394-9.729l-3.911-1.767
				l26.813-6.056l-319.916,0.275l-0.621,230.76z"/>
			<text transform="matrix(1 0 0 1 2608.2676 3165.7256)"><tspan x="0" y="0" style="fill:#000000;stroke:none;">89001</tspan></text>
		</g>
		<g>
			<path style="stroke-miterlimit:1;" d="M3.244,462.465l25.455,8.64l26.363-6.735l3.117,3.674l25.002-26.938l12.812-4.424l2.268-6.803l10.83-4.219l18.538,5.104l14.684-20.068l30.047-7.348l-43.368-38.438l-17.462-5.988l-20.58-15.442l-6.577-42.451l4.537-15.92
				l-5.783-4.219l-3.062-12.858l-15.93,12.111l-37.078-11.499L3.868,302.457L3.244,462.465z"/>
			<text transform="matrix(1 0 0 1 71.1187 372.5674)"><tspan x="0" y="0" style="fill:#000000;stroke:none;">96104</tspan></text>
		</g>
	</g>
</svg>
